<?xml version="1.0" encoding="utf-8"?>
<svg xmlns="http://www.w3.org/2000/svg" xmlns:xlink="http://www.w3.org/1999/xlink" width="500" height="500" viewBox="0 0 2000 2000">
<defs>
  <clipPath id="clip680">
    <rect x="0" y="0" width="2000" height="2000"/>
  </clipPath>
</defs>
<path clip-path="url(#clip680)" d="
M0 2000 L2000 2000 L2000 0 L0 0  Z
  " fill="#ffffff" fill-rule="evenodd" fill-opacity="1"/>
<defs>
  <clipPath id="clip681">
    <rect x="400" y="200" width="1401" height="1401"/>
  </clipPath>
</defs>
<path clip-path="url(#clip680)" d="
M240.472 1759.53 L1811.02 1759.53 L1811.02 188.976 L240.472 188.976  Z
  " fill="#ffffff" fill-rule="evenodd" fill-opacity="1"/>
<defs>
  <clipPath id="clip682">
    <rect x="240" y="188" width="1572" height="1572"/>
  </clipPath>
</defs>
<polyline clip-path="url(#clip682)" style="stroke:#000000; stroke-width:2; stroke-opacity:0.1; fill:none" points="
  240.472,1759.53 240.472,188.976 
  "/>
<polyline clip-path="url(#clip682)" style="stroke:#000000; stroke-width:2; stroke-opacity:0.1; fill:none" points="
  1025.75,1759.53 1025.75,188.976 
  "/>
<polyline clip-path="url(#clip682)" style="stroke:#000000; stroke-width:2; stroke-opacity:0.1; fill:none" points="
  1811.02,1759.53 1811.02,188.976 
  "/>
<polyline clip-path="url(#clip682)" style="stroke:#000000; stroke-width:2; stroke-opacity:0.1; fill:none" points="
  240.472,1759.53 1811.02,1759.53 
  "/>
<polyline clip-path="url(#clip682)" style="stroke:#000000; stroke-width:2; stroke-opacity:0.1; fill:none" points="
  240.472,974.252 1811.02,974.252 
  "/>
<polyline clip-path="url(#clip682)" style="stroke:#000000; stroke-width:2; stroke-opacity:0.1; fill:none" points="
  240.472,188.976 1811.02,188.976 
  "/>
<polyline clip-path="url(#clip680)" style="stroke:#000000; stroke-width:4; stroke-opacity:1; fill:none" points="
  240.472,1759.53 1811.02,1759.53 
  "/>
<polyline clip-path="url(#clip680)" style="stroke:#000000; stroke-width:4; stroke-opacity:1; fill:none" points="
  240.472,1759.53 240.472,188.976 
  "/>
<polyline clip-path="url(#clip680)" style="stroke:#000000; stroke-width:4; stroke-opacity:1; fill:none" points="
  240.472,1759.53 240.472,1740.68 
  "/>
<polyline clip-path="url(#clip680)" style="stroke:#000000; stroke-width:4; stroke-opacity:1; fill:none" points="
  1025.75,1759.53 1025.75,1740.68 
  "/>
<polyline clip-path="url(#clip680)" style="stroke:#000000; stroke-width:4; stroke-opacity:1; fill:none" points="
  1811.02,1759.53 1811.02,1740.68 
  "/>
<polyline clip-path="url(#clip680)" style="stroke:#000000; stroke-width:4; stroke-opacity:1; fill:none" points="
  240.472,1759.53 259.319,1759.53 
  "/>
<polyline clip-path="url(#clip680)" style="stroke:#000000; stroke-width:4; stroke-opacity:1; fill:none" points="
  240.472,974.252 259.319,974.252 
  "/>
<polyline clip-path="url(#clip680)" style="stroke:#000000; stroke-width:4; stroke-opacity:1; fill:none" points="
  240.472,188.976 259.319,188.976 
  "/>
<path clip-path="url(#clip680)" d="M 0 0 M221.341 1796.12 L233.817 1796.12 L233.817 1799.91 L221.341 1799.91 L221.341 1796.12 Z" fill="#000000" fill-rule="evenodd" fill-opacity="1" /><path clip-path="url(#clip680)" d="M 0 0 M239.697 1807.06 L247.336 1807.06 L247.336 1780.7 L239.026 1782.37 L239.026 1778.11 L247.29 1776.44 L251.965 1776.44 L251.965 1807.06 L259.604 1807.06 L259.604 1811 L239.697 1811 L239.697 1807.06 Z" fill="#000000" fill-rule="evenodd" fill-opacity="1" /><path clip-path="url(#clip680)" d="M 0 0 M1025.75 1779.52 Q1022.14 1779.52 1020.31 1783.08 Q1018.5 1786.62 1018.5 1793.75 Q1018.5 1800.86 1020.31 1804.43 Q1022.14 1807.97 1025.75 1807.97 Q1029.38 1807.97 1031.19 1804.43 Q1033.02 1800.86 1033.02 1793.75 Q1033.02 1786.62 1031.19 1783.08 Q1029.38 1779.52 1025.75 1779.52 M1025.75 1775.81 Q1031.56 1775.81 1034.61 1780.42 Q1037.69 1785 1037.69 1793.75 Q1037.69 1802.48 1034.61 1807.09 Q1031.56 1811.67 1025.75 1811.67 Q1019.94 1811.67 1016.86 1807.09 Q1013.8 1802.48 1013.8 1793.75 Q1013.8 1785 1016.86 1780.42 Q1019.94 1775.81 1025.75 1775.81 Z" fill="#000000" fill-rule="evenodd" fill-opacity="1" /><path clip-path="url(#clip680)" d="M 0 0 M1801.41 1807.06 L1809.04 1807.06 L1809.04 1780.7 L1800.73 1782.37 L1800.73 1778.11 L1809 1776.44 L1813.67 1776.44 L1813.67 1807.06 L1821.31 1807.06 L1821.31 1811 L1801.41 1811 L1801.41 1807.06 Z" fill="#000000" fill-rule="evenodd" fill-opacity="1" /><path clip-path="url(#clip680)" d="M 0 0 M182.209 1761.92 L194.686 1761.92 L194.686 1765.72 L182.209 1765.72 L182.209 1761.92 Z" fill="#000000" fill-rule="evenodd" fill-opacity="1" /><path clip-path="url(#clip680)" d="M 0 0 M200.565 1772.87 L208.204 1772.87 L208.204 1746.51 L199.894 1748.17 L199.894 1743.91 L208.158 1742.25 L212.834 1742.25 L212.834 1772.87 L220.472 1772.87 L220.472 1776.81 L200.565 1776.81 L200.565 1772.87 Z" fill="#000000" fill-rule="evenodd" fill-opacity="1" /><path clip-path="url(#clip680)" d="M 0 0 M208.528 960.051 Q204.917 960.051 203.088 963.615 Q201.283 967.157 201.283 974.287 Q201.283 981.393 203.088 984.958 Q204.917 988.5 208.528 988.5 Q212.162 988.5 213.968 984.958 Q215.797 981.393 215.797 974.287 Q215.797 967.157 213.968 963.615 Q212.162 960.051 208.528 960.051 M208.528 956.347 Q214.338 956.347 217.394 960.953 Q220.472 965.537 220.472 974.287 Q220.472 983.013 217.394 987.62 Q214.338 992.203 208.528 992.203 Q202.718 992.203 199.639 987.62 Q196.584 983.013 196.584 974.287 Q196.584 965.537 199.639 960.953 Q202.718 956.347 208.528 956.347 Z" fill="#000000" fill-rule="evenodd" fill-opacity="1" /><path clip-path="url(#clip680)" d="M 0 0 M200.565 202.321 L208.204 202.321 L208.204 175.956 L199.894 177.622 L199.894 173.363 L208.158 171.696 L212.834 171.696 L212.834 202.321 L220.472 202.321 L220.472 206.256 L200.565 206.256 L200.565 202.321 Z" fill="#000000" fill-rule="evenodd" fill-opacity="1" /><path clip-path="url(#clip680)" d="M 0 0 M912.104 1840.87 L919.011 1840.87 L930.819 1858.54 L942.691 1840.87 L949.598 1840.87 L934.321 1863.69 L950.617 1888.39 L943.71 1888.39 L930.342 1868.18 L916.879 1888.39 L909.94 1888.39 L926.905 1863.02 L912.104 1840.87 Z" fill="#000000" fill-rule="evenodd" fill-opacity="1" /><path clip-path="url(#clip680)" d="M 0 0 M991.548 1838.93 Q987.283 1846.25 985.214 1853.41 Q983.146 1860.57 983.146 1867.93 Q983.146 1875.28 985.214 1882.5 Q987.315 1889.7 991.548 1896.99 L986.456 1896.99 Q981.681 1889.51 979.294 1882.28 Q976.939 1875.06 976.939 1867.93 Q976.939 1860.83 979.294 1853.63 Q981.65 1846.44 986.456 1838.93 L991.548 1838.93 Z" fill="#000000" fill-rule="evenodd" fill-opacity="1" /><path clip-path="url(#clip680)" d="M 0 0 M1004.06 1882.98 L1026.5 1882.98 L1026.5 1888.39 L996.323 1888.39 L996.323 1882.98 Q999.983 1879.19 1006.28 1872.83 Q1012.62 1866.43 1014.24 1864.58 Q1017.33 1861.11 1018.54 1858.73 Q1019.78 1856.31 1019.78 1853.98 Q1019.78 1850.2 1017.11 1847.81 Q1014.46 1845.42 1010.2 1845.42 Q1007.18 1845.42 1003.8 1846.47 Q1000.46 1847.52 996.641 1849.66 L996.641 1843.16 Q1000.52 1841.6 1003.9 1840.81 Q1007.27 1840.01 1010.07 1840.01 Q1017.46 1840.01 1021.85 1843.7 Q1026.24 1847.4 1026.24 1853.57 Q1026.24 1856.5 1025.13 1859.14 Q1024.05 1861.75 1021.15 1865.32 Q1020.35 1866.24 1016.09 1870.66 Q1011.82 1875.06 1004.06 1882.98 Z" fill="#000000" fill-rule="evenodd" fill-opacity="1" /><path clip-path="url(#clip680)" d="M 0 0 M1033.66 1887.4 L1033.66 1881.55 Q1036.08 1882.69 1038.56 1883.3 Q1041.04 1883.9 1043.43 1883.9 Q1049.79 1883.9 1053.14 1879.64 Q1056.51 1875.34 1056.99 1866.62 Q1055.14 1869.36 1052.31 1870.82 Q1049.48 1872.29 1046.04 1872.29 Q1038.91 1872.29 1034.74 1867.99 Q1030.6 1863.66 1030.6 1856.18 Q1030.6 1848.86 1034.93 1844.44 Q1039.26 1840.01 1046.45 1840.01 Q1054.7 1840.01 1059.02 1846.35 Q1063.39 1852.65 1063.39 1864.68 Q1063.39 1875.91 1058.04 1882.63 Q1052.72 1889.31 1043.72 1889.31 Q1041.3 1889.31 1038.81 1888.84 Q1036.33 1888.36 1033.66 1887.4 M1046.45 1867.26 Q1050.78 1867.26 1053.3 1864.3 Q1055.84 1861.34 1055.84 1856.18 Q1055.84 1851.06 1053.3 1848.1 Q1050.78 1845.1 1046.45 1845.1 Q1042.12 1845.1 1039.58 1848.1 Q1037.06 1851.06 1037.06 1856.18 Q1037.06 1861.34 1039.58 1864.3 Q1042.12 1867.26 1046.45 1867.26 Z" fill="#000000" fill-rule="evenodd" fill-opacity="1" /><path clip-path="url(#clip680)" d="M 0 0 M1110.78 1867.48 Q1108.01 1867.48 1106.42 1869.84 Q1104.86 1872.19 1104.86 1876.39 Q1104.86 1880.53 1106.42 1882.92 Q1108.01 1885.27 1110.78 1885.27 Q1113.48 1885.27 1115.04 1882.92 Q1116.63 1880.53 1116.63 1876.39 Q1116.63 1872.22 1115.04 1869.87 Q1113.48 1867.48 1110.78 1867.48 M1110.78 1863.44 Q1115.81 1863.44 1118.77 1866.94 Q1121.73 1870.44 1121.73 1876.39 Q1121.73 1882.34 1118.74 1885.85 Q1115.78 1889.31 1110.78 1889.31 Q1105.69 1889.31 1102.73 1885.85 Q1099.77 1882.34 1099.77 1876.39 Q1099.77 1870.41 1102.73 1866.94 Q1105.72 1863.44 1110.78 1863.44 M1077.93 1844.05 Q1075.19 1844.05 1073.6 1846.44 Q1072.04 1848.8 1072.04 1852.93 Q1072.04 1857.14 1073.6 1859.49 Q1075.16 1861.85 1077.93 1861.85 Q1080.7 1861.85 1082.26 1859.49 Q1083.85 1857.14 1083.85 1852.93 Q1083.85 1848.83 1082.26 1846.44 Q1080.67 1844.05 1077.93 1844.05 M1106.67 1840.01 L1111.76 1840.01 L1082.04 1889.31 L1076.94 1889.31 L1106.67 1840.01 M1077.93 1840.01 Q1082.96 1840.01 1085.95 1843.51 Q1088.94 1846.98 1088.94 1852.93 Q1088.94 1858.95 1085.95 1862.42 Q1082.99 1865.89 1077.93 1865.89 Q1072.87 1865.89 1069.91 1862.42 Q1066.98 1858.92 1066.98 1852.93 Q1066.98 1847.01 1069.94 1843.51 Q1072.9 1840.01 1077.93 1840.01 Z" fill="#000000" fill-rule="evenodd" fill-opacity="1" /><path clip-path="url(#clip680)" d="M 0 0 M1126.95 1838.93 L1132.04 1838.93 Q1136.81 1846.44 1139.17 1853.63 Q1141.56 1860.83 1141.56 1867.93 Q1141.56 1875.06 1139.17 1882.28 Q1136.81 1889.51 1132.04 1896.99 L1126.95 1896.99 Q1131.18 1889.7 1133.25 1882.5 Q1135.35 1875.28 1135.35 1867.93 Q1135.35 1860.57 1133.25 1853.41 Q1131.18 1846.25 1126.95 1838.93 Z" fill="#000000" fill-rule="evenodd" fill-opacity="1" /><path clip-path="url(#clip680)" d="M 0 0 M100.433 1090 L100.433 1083.09 L119.975 1069.91 L100.433 1056.83 L100.433 1049.92 L125.323 1066.73 L147.953 1066.73 L147.953 1073.19 L125.323 1073.19 L100.433 1090 Z" fill="#000000" fill-rule="evenodd" fill-opacity="1" /><path clip-path="url(#clip680)" d="M 0 0 M98.4912 1008.99 Q105.812 1013.26 112.973 1015.33 Q120.135 1017.4 127.487 1017.4 Q134.839 1017.4 142.064 1015.33 Q149.258 1013.23 156.546 1008.99 L156.546 1014.09 Q149.067 1018.86 141.842 1021.25 Q134.617 1023.6 127.487 1023.6 Q120.389 1023.6 113.196 1021.25 Q106.003 1018.89 98.4912 1014.09 L98.4912 1008.99 Z" fill="#000000" fill-rule="evenodd" fill-opacity="1" /><path clip-path="url(#clip680)" d="M 0 0 M142.542 996.484 L142.542 974.045 L147.953 974.045 L147.953 1004.22 L142.542 1004.22 Q138.754 1000.56 132.389 994.256 Q125.991 987.922 124.145 986.299 Q120.676 983.212 118.289 982.002 Q115.87 980.761 113.546 980.761 Q109.759 980.761 107.371 983.435 Q104.984 986.076 104.984 990.341 Q104.984 993.365 106.035 996.739 Q107.085 1000.08 109.217 1003.9 L102.724 1003.9 Q101.165 1000.02 100.369 996.643 Q99.5734 993.27 99.5734 990.469 Q99.5734 983.084 103.265 978.692 Q106.958 974.3 113.132 974.3 Q116.061 974.3 118.702 975.414 Q121.312 976.496 124.877 979.392 Q125.8 980.188 130.224 984.453 Q134.617 988.718 142.542 996.484 Z" fill="#000000" fill-rule="evenodd" fill-opacity="1" /><path clip-path="url(#clip680)" d="M 0 0 M121.631 952.529 Q121.631 956.858 124.591 959.404 Q127.551 961.918 132.707 961.918 Q137.831 961.918 140.823 959.404 Q143.783 956.858 143.783 952.529 Q143.783 948.2 140.823 945.686 Q137.831 943.14 132.707 943.14 Q127.551 943.14 124.591 945.686 Q121.631 948.2 121.631 952.529 M101.483 939.766 L107.34 939.766 Q106.194 942.185 105.589 944.667 Q104.984 947.118 104.984 949.537 Q104.984 955.903 109.281 959.277 Q113.578 962.619 122.267 963.096 Q119.498 961.218 118.034 958.385 Q116.538 955.553 116.538 952.147 Q116.538 944.986 120.899 940.848 Q125.227 936.678 132.707 936.678 Q140.027 936.678 144.452 941.007 Q148.876 945.336 148.876 952.529 Q148.876 960.773 142.574 965.133 Q136.24 969.494 124.24 969.494 Q112.973 969.494 106.289 964.146 Q99.5734 958.799 99.5734 949.792 Q99.5734 947.373 100.051 944.922 Q100.528 942.439 101.483 939.766 Z" fill="#000000" fill-rule="evenodd" fill-opacity="1" /><path clip-path="url(#clip680)" d="M 0 0 M127.041 889.286 Q127.041 892.055 129.397 893.646 Q131.752 895.206 135.953 895.206 Q140.091 895.206 142.478 893.646 Q144.834 892.055 144.834 889.286 Q144.834 886.58 142.478 885.021 Q140.091 883.429 135.953 883.429 Q131.784 883.429 129.429 885.021 Q127.041 886.58 127.041 889.286 M122.999 889.286 Q122.999 884.257 126.5 881.297 Q130.001 878.337 135.953 878.337 Q141.905 878.337 145.406 881.329 Q148.876 884.289 148.876 889.286 Q148.876 894.378 145.406 897.338 Q141.905 900.298 135.953 900.298 Q129.97 900.298 126.5 897.338 Q122.999 894.346 122.999 889.286 M103.616 922.133 Q103.616 924.87 106.003 926.461 Q108.358 928.021 112.496 928.021 Q116.697 928.021 119.052 926.461 Q121.408 924.902 121.408 922.133 Q121.408 919.364 119.052 917.804 Q116.697 916.213 112.496 916.213 Q108.39 916.213 106.003 917.804 Q103.616 919.395 103.616 922.133 M99.5734 893.392 L99.5734 888.299 L148.876 918.027 L148.876 923.119 L99.5734 893.392 M99.5734 922.133 Q99.5734 917.104 103.075 914.112 Q106.544 911.12 112.496 911.12 Q118.511 911.12 121.981 914.112 Q125.45 917.072 125.45 922.133 Q125.45 927.193 121.981 930.154 Q118.48 933.082 112.496 933.082 Q106.576 933.082 103.075 930.122 Q99.5734 927.162 99.5734 922.133 Z" fill="#000000" fill-rule="evenodd" fill-opacity="1" /><path clip-path="url(#clip680)" d="M 0 0 M98.4912 873.117 L98.4912 868.024 Q106.003 863.25 113.196 860.895 Q120.389 858.508 127.487 858.508 Q134.617 858.508 141.842 860.895 Q149.067 863.25 156.546 868.024 L156.546 873.117 Q149.258 868.884 142.064 866.815 Q134.839 864.714 127.487 864.714 Q120.135 864.714 112.973 866.815 Q105.812 868.884 98.4912 873.117 Z" fill="#000000" fill-rule="evenodd" fill-opacity="1" /><polyline clip-path="url(#clip682)" style="stroke:#800080; stroke-width:0.80967; stroke-opacity:1; fill:none" points="
  528.343,1200.75 1479.85,616.727 
  "/>
<polyline clip-path="url(#clip682)" style="stroke:#800080; stroke-width:0.0637714; stroke-opacity:1; fill:none" points="
  567.939,1066.28 1241.85,1249.83 
  "/>
<polyline clip-path="url(#clip682)" style="stroke:#800080; stroke-width:0.377721; stroke-opacity:1; fill:none" points="
  1241.85,1249.83 1358.39,1587.75 
  "/>
<polyline clip-path="url(#clip682)" style="stroke:#800080; stroke-width:3.13284; stroke-opacity:1; fill:none" points="
  832.807,550.734 1358.39,1587.75 
  "/>
<polyline clip-path="url(#clip682)" style="stroke:#ffa500; stroke-width:2.35015; stroke-opacity:1; fill:none" points="
  528.343,1200.75 567.939,1066.28 
  "/>
<polyline clip-path="url(#clip682)" style="stroke:#800080; stroke-width:3.3424; stroke-opacity:1; fill:none" points="
  567.939,1066.28 1358.39,1587.75 
  "/>
<polyline clip-path="url(#clip682)" style="stroke:#ffa500; stroke-width:3.04111; stroke-opacity:1; fill:none" points="
  567.939,1066.28 832.807,550.734 
  "/>
<polyline clip-path="url(#clip682)" style="stroke:#ffa500; stroke-width:1.9577; stroke-opacity:1; fill:none" points="
  832.807,550.734 1241.85,1249.83 
  "/>
<polyline clip-path="url(#clip682)" style="stroke:#800080; stroke-width:6.22728; stroke-opacity:1; fill:none" points="
  1358.39,1587.75 1479.85,616.727 
  "/>
<polyline clip-path="url(#clip682)" style="stroke:#ffa500; stroke-width:0.218098; stroke-opacity:1; fill:none" points="
  528.343,1200.75 1241.85,1249.83 
  "/>
<polyline clip-path="url(#clip682)" style="stroke:#ffa500; stroke-width:8; stroke-opacity:1; fill:none" points="
  528.343,1200.75 832.807,550.734 
  "/>
<polyline clip-path="url(#clip682)" style="stroke:#800080; stroke-width:3.5241; stroke-opacity:1; fill:none" points="
  567.939,1066.28 1479.85,616.727 
  "/>
<polyline clip-path="url(#clip682)" style="stroke:#800080; stroke-width:2.1369; stroke-opacity:1; fill:none" points="
  1241.85,1249.83 1479.85,616.727 
  "/>
<polyline clip-path="url(#clip682)" style="stroke:#800080; stroke-width:2.2764; stroke-opacity:1; fill:none" points="
  528.343,1200.75 1358.39,1587.75 
  "/>
<polyline clip-path="url(#clip682)" style="stroke:#800080; stroke-width:1.6582; stroke-opacity:1; fill:none" points="
  832.807,550.734 1479.85,616.727 
  "/>
<circle clip-path="url(#clip682)" cx="567.939" cy="1066.28" r="23" fill="#000000" fill-rule="evenodd" fill-opacity="1" stroke="none"/>
<circle clip-path="url(#clip682)" cx="1479.85" cy="616.727" r="26" fill="#000000" fill-rule="evenodd" fill-opacity="1" stroke="none"/>
<circle clip-path="url(#clip682)" cx="528.343" cy="1200.75" r="23" fill="#000000" fill-rule="evenodd" fill-opacity="1" stroke="none"/>
<circle clip-path="url(#clip682)" cx="1241.85" cy="1249.83" r="8" fill="#000000" fill-rule="evenodd" fill-opacity="1" stroke="none"/>
<circle clip-path="url(#clip682)" cx="832.807" cy="550.734" r="28" fill="#000000" fill-rule="evenodd" fill-opacity="1" stroke="none"/>
<circle clip-path="url(#clip682)" cx="1358.39" cy="1587.75" r="8" fill="#000000" fill-rule="evenodd" fill-opacity="1" stroke="none"/>
<path clip-path="url(#clip680)" d="M 0 0 M540.863 1073 L540.863 1089.8 L544.393 1089.8 Q548.864 1089.8 550.933 1087.77 Q553.016 1085.75 553.016 1081.38 Q553.016 1077.04 550.933 1075.03 Q548.864 1073 544.393 1073 L540.863 1073 M537.941 1070.6 L543.945 1070.6 Q550.224 1070.6 553.161 1073.22 Q556.098 1075.82 556.098 1081.38 Q556.098 1086.96 553.146 1089.58 Q550.195 1092.2 543.945 1092.2 L537.941 1092.2 L537.941 1070.6 Z" fill="#000000" fill-rule="evenodd" fill-opacity="1" /><path clip-path="url(#clip680)" d="M 0 0 M566.254 1084.05 Q563.027 1084.05 561.783 1084.79 Q560.539 1085.53 560.539 1087.31 Q560.539 1088.73 561.465 1089.56 Q562.405 1090.39 564.011 1090.39 Q566.225 1090.39 567.556 1088.83 Q568.901 1087.25 568.901 1084.65 L568.901 1084.05 L566.254 1084.05 M571.563 1082.95 L571.563 1092.2 L568.901 1092.2 L568.901 1089.74 Q567.99 1091.21 566.63 1091.92 Q565.27 1092.62 563.302 1092.62 Q560.814 1092.62 559.338 1091.23 Q557.877 1089.83 557.877 1087.48 Q557.877 1084.75 559.7 1083.36 Q561.537 1081.97 565.169 1081.97 L568.901 1081.97 L568.901 1081.71 Q568.901 1079.87 567.686 1078.87 Q566.485 1077.86 564.301 1077.86 Q562.912 1077.86 561.595 1078.19 Q560.279 1078.53 559.063 1079.19 L559.063 1076.73 Q560.525 1076.17 561.899 1075.89 Q563.273 1075.6 564.576 1075.6 Q568.091 1075.6 569.827 1077.43 Q571.563 1079.25 571.563 1082.95 Z" fill="#000000" fill-rule="evenodd" fill-opacity="1" /><path clip-path="url(#clip680)" d="M 0 0 M576.989 1071.39 L576.989 1075.99 L582.472 1075.99 L582.472 1078.06 L576.989 1078.06 L576.989 1086.86 Q576.989 1088.84 577.524 1089.41 Q578.074 1089.97 579.737 1089.97 L582.472 1089.97 L582.472 1092.2 L579.737 1092.2 Q576.656 1092.2 575.484 1091.06 Q574.312 1089.9 574.312 1086.86 L574.312 1078.06 L572.359 1078.06 L572.359 1075.99 L574.312 1075.99 L574.312 1071.39 L576.989 1071.39 Z" fill="#000000" fill-rule="evenodd" fill-opacity="1" /><path clip-path="url(#clip680)" d="M 0 0 M592.628 1084.05 Q589.402 1084.05 588.158 1084.79 Q586.913 1085.53 586.913 1087.31 Q586.913 1088.73 587.839 1089.56 Q588.78 1090.39 590.386 1090.39 Q592.599 1090.39 593.93 1088.83 Q595.276 1087.25 595.276 1084.65 L595.276 1084.05 L592.628 1084.05 M597.938 1082.95 L597.938 1092.2 L595.276 1092.2 L595.276 1089.74 Q594.364 1091.21 593.004 1091.92 Q591.644 1092.62 589.677 1092.62 Q587.188 1092.62 585.713 1091.23 Q584.251 1089.83 584.251 1087.48 Q584.251 1084.75 586.074 1083.36 Q587.912 1081.97 591.543 1081.97 L595.276 1081.97 L595.276 1081.71 Q595.276 1079.87 594.06 1078.87 Q592.86 1077.86 590.675 1077.86 Q589.286 1077.86 587.969 1078.19 Q586.653 1078.53 585.438 1079.19 L585.438 1076.73 Q586.899 1076.17 588.273 1075.89 Q589.648 1075.6 590.95 1075.6 Q594.465 1075.6 596.202 1077.43 Q597.938 1079.25 597.938 1082.95 Z" fill="#000000" fill-rule="evenodd" fill-opacity="1" /><path clip-path="url(#clip680)" d="M 0 0 M1337.95 621.047 L1356.22 621.047 L1356.22 623.506 L1348.55 623.506 L1348.55 642.647 L1345.61 642.647 L1345.61 623.506 L1337.95 623.506 L1337.95 621.047 Z" fill="#000000" fill-rule="evenodd" fill-opacity="1" /><path clip-path="url(#clip680)" d="M 0 0 M1367.84 633.879 L1367.84 635.182 L1355.6 635.182 Q1355.77 637.93 1357.25 639.377 Q1358.74 640.809 1361.38 640.809 Q1362.92 640.809 1364.35 640.433 Q1365.8 640.057 1367.21 639.305 L1367.21 641.822 Q1365.78 642.43 1364.28 642.748 Q1362.77 643.066 1361.22 643.066 Q1357.35 643.066 1355.08 640.809 Q1352.82 638.553 1352.82 634.704 Q1352.82 630.726 1354.96 628.396 Q1357.12 626.053 1360.76 626.053 Q1364.03 626.053 1365.93 628.165 Q1367.84 630.263 1367.84 633.879 M1365.17 633.098 Q1365.15 630.914 1363.94 629.612 Q1362.76 628.31 1360.79 628.31 Q1358.56 628.31 1357.22 629.568 Q1355.89 630.827 1355.68 633.113 L1365.17 633.098 Z" fill="#000000" fill-rule="evenodd" fill-opacity="1" /><path clip-path="url(#clip680)" d="M 0 0 M1382.29 627.065 L1382.29 629.554 Q1381.16 628.932 1380.02 628.628 Q1378.89 628.31 1377.73 628.31 Q1375.14 628.31 1373.71 629.959 Q1372.28 631.594 1372.28 634.559 Q1372.28 637.525 1373.71 639.175 Q1375.14 640.809 1377.73 640.809 Q1378.89 640.809 1380.02 640.506 Q1381.16 640.187 1382.29 639.565 L1382.29 642.025 Q1381.18 642.546 1379.97 642.806 Q1378.79 643.066 1377.44 643.066 Q1373.78 643.066 1371.63 640.766 Q1369.47 638.466 1369.47 634.559 Q1369.47 630.595 1371.64 628.324 Q1373.83 626.053 1377.62 626.053 Q1378.85 626.053 1380.02 626.313 Q1381.19 626.559 1382.29 627.065 Z" fill="#000000" fill-rule="evenodd" fill-opacity="1" /><path clip-path="url(#clip680)" d="M 0 0 M1398.55 632.867 L1398.55 642.647 L1395.89 642.647 L1395.89 632.954 Q1395.89 630.653 1394.99 629.51 Q1394.1 628.367 1392.3 628.367 Q1390.15 628.367 1388.9 629.742 Q1387.66 631.116 1387.66 633.489 L1387.66 642.647 L1384.98 642.647 L1384.98 620.135 L1387.66 620.135 L1387.66 628.961 Q1388.61 627.499 1389.9 626.776 Q1391.2 626.053 1392.89 626.053 Q1395.69 626.053 1397.12 627.789 Q1398.55 629.51 1398.55 632.867 Z" fill="#000000" fill-rule="evenodd" fill-opacity="1" /><path clip-path="url(#clip680)" d="M 0 0 M1414.81 632.867 L1414.81 642.647 L1412.15 642.647 L1412.15 632.954 Q1412.15 630.653 1411.25 629.51 Q1410.36 628.367 1408.56 628.367 Q1406.41 628.367 1405.16 629.742 Q1403.92 631.116 1403.92 633.489 L1403.92 642.647 L1401.24 642.647 L1401.24 626.443 L1403.92 626.443 L1403.92 628.961 Q1404.87 627.499 1406.16 626.776 Q1407.46 626.053 1409.16 626.053 Q1411.95 626.053 1413.38 627.789 Q1414.81 629.51 1414.81 632.867 Z" fill="#000000" fill-rule="evenodd" fill-opacity="1" /><path clip-path="url(#clip680)" d="M 0 0 M1417.6 626.443 L1420.27 626.443 L1420.27 642.647 L1417.6 642.647 L1417.6 626.443 M1417.6 620.135 L1420.27 620.135 L1420.27 623.506 L1417.6 623.506 L1417.6 620.135 Z" fill="#000000" fill-rule="evenodd" fill-opacity="1" /><path clip-path="url(#clip680)" d="M 0 0 M1434.72 627.065 L1434.72 629.554 Q1433.59 628.932 1432.45 628.628 Q1431.32 628.31 1430.16 628.31 Q1427.57 628.31 1426.14 629.959 Q1424.71 631.594 1424.71 634.559 Q1424.71 637.525 1426.14 639.175 Q1427.57 640.809 1430.16 640.809 Q1431.32 640.809 1432.45 640.506 Q1433.59 640.187 1434.72 639.565 L1434.72 642.025 Q1433.61 642.546 1432.4 642.806 Q1431.22 643.066 1429.87 643.066 Q1426.21 643.066 1424.06 640.766 Q1421.9 638.466 1421.9 634.559 Q1421.9 630.595 1424.07 628.324 Q1426.26 626.053 1430.05 626.053 Q1431.28 626.053 1432.45 626.313 Q1433.62 626.559 1434.72 627.065 Z" fill="#000000" fill-rule="evenodd" fill-opacity="1" /><path clip-path="url(#clip680)" d="M 0 0 M1444.88 634.502 Q1441.65 634.502 1440.41 635.239 Q1439.16 635.977 1439.16 637.757 Q1439.16 639.175 1440.09 640.014 Q1441.03 640.838 1442.63 640.838 Q1444.85 640.838 1446.18 639.276 Q1447.52 637.699 1447.52 635.095 L1447.52 634.502 L1444.88 634.502 M1450.19 633.402 L1450.19 642.647 L1447.52 642.647 L1447.52 640.187 Q1446.61 641.663 1445.25 642.372 Q1443.89 643.066 1441.92 643.066 Q1439.44 643.066 1437.96 641.677 Q1436.5 640.274 1436.5 637.93 Q1436.5 635.196 1438.32 633.807 Q1440.16 632.418 1443.79 632.418 L1447.52 632.418 L1447.52 632.158 Q1447.52 630.32 1446.31 629.322 Q1445.11 628.31 1442.92 628.31 Q1441.53 628.31 1440.22 628.642 Q1438.9 628.975 1437.69 629.641 L1437.69 627.181 Q1439.15 626.617 1440.52 626.342 Q1441.9 626.053 1443.2 626.053 Q1446.71 626.053 1448.45 627.875 Q1450.19 629.698 1450.19 633.402 Z" fill="#000000" fill-rule="evenodd" fill-opacity="1" /><path clip-path="url(#clip680)" d="M 0 0 M1452.98 620.135 L1455.64 620.135 L1455.64 642.647 L1452.98 642.647 L1452.98 620.135 Z" fill="#000000" fill-rule="evenodd" fill-opacity="1" /><path clip-path="url(#clip680)" d="M 0 0 M1470.74 647.566 L1470.74 649.635 L1455.35 649.635 L1455.35 647.566 L1470.74 647.566 Z" fill="#000000" fill-rule="evenodd" fill-opacity="1" /><path clip-path="url(#clip680)" d="M 0 0 M1489.83 622.711 L1489.83 625.792 Q1488.35 624.418 1486.67 623.738 Q1485.01 623.058 1483.13 623.058 Q1479.42 623.058 1477.46 625.329 Q1475.49 627.586 1475.49 631.869 Q1475.49 636.136 1477.46 638.408 Q1479.42 640.665 1483.13 640.665 Q1485.01 640.665 1486.67 639.985 Q1488.35 639.305 1489.83 637.93 L1489.83 640.983 Q1488.29 642.025 1486.57 642.546 Q1484.86 643.066 1482.95 643.066 Q1478.05 643.066 1475.23 640.072 Q1472.41 637.062 1472.41 631.869 Q1472.41 626.66 1475.23 623.665 Q1478.05 620.656 1482.95 620.656 Q1484.89 620.656 1486.6 621.177 Q1488.32 621.683 1489.83 622.711 Z" fill="#000000" fill-rule="evenodd" fill-opacity="1" /><path clip-path="url(#clip680)" d="M 0 0 M1498.9 628.31 Q1496.76 628.31 1495.51 629.988 Q1494.27 631.652 1494.27 634.559 Q1494.27 637.467 1495.5 639.146 Q1496.74 640.809 1498.9 640.809 Q1501.02 640.809 1502.27 639.131 Q1503.51 637.453 1503.51 634.559 Q1503.51 631.68 1502.27 630.002 Q1501.02 628.31 1498.9 628.31 M1498.9 626.053 Q1502.37 626.053 1504.35 628.31 Q1506.33 630.566 1506.33 634.559 Q1506.33 638.538 1504.35 640.809 Q1502.37 643.066 1498.9 643.066 Q1495.41 643.066 1493.43 640.809 Q1491.46 638.538 1491.46 634.559 Q1491.46 630.566 1493.43 628.31 Q1495.41 626.053 1498.9 626.053 Z" fill="#000000" fill-rule="evenodd" fill-opacity="1" /><path clip-path="url(#clip680)" d="M 0 0 M1522.6 632.867 L1522.6 642.647 L1519.93 642.647 L1519.93 632.954 Q1519.93 630.653 1519.04 629.51 Q1518.14 628.367 1516.35 628.367 Q1514.19 628.367 1512.95 629.742 Q1511.7 631.116 1511.7 633.489 L1511.7 642.647 L1509.02 642.647 L1509.02 626.443 L1511.7 626.443 L1511.7 628.961 Q1512.66 627.499 1513.94 626.776 Q1515.25 626.053 1516.94 626.053 Q1519.73 626.053 1521.16 627.789 Q1522.6 629.51 1522.6 632.867 Z" fill="#000000" fill-rule="evenodd" fill-opacity="1" /><path clip-path="url(#clip680)" d="M 0 0 M1535.72 626.921 L1535.72 629.438 Q1534.59 628.859 1533.37 628.57 Q1532.16 628.281 1530.86 628.281 Q1528.87 628.281 1527.88 628.888 Q1526.89 629.496 1526.89 630.711 Q1526.89 631.637 1527.6 632.172 Q1528.31 632.693 1530.45 633.171 L1531.36 633.373 Q1534.2 633.981 1535.38 635.095 Q1536.59 636.194 1536.59 638.176 Q1536.59 640.433 1534.79 641.75 Q1533.01 643.066 1529.89 643.066 Q1528.59 643.066 1527.17 642.806 Q1525.76 642.56 1524.2 642.054 L1524.2 639.305 Q1525.68 640.072 1527.11 640.462 Q1528.54 640.838 1529.94 640.838 Q1531.83 640.838 1532.84 640.202 Q1533.85 639.551 1533.85 638.379 Q1533.85 637.294 1533.11 636.715 Q1532.39 636.136 1529.92 635.601 L1528.99 635.384 Q1526.52 634.863 1525.42 633.793 Q1524.32 632.708 1524.32 630.827 Q1524.32 628.541 1525.94 627.297 Q1527.56 626.053 1530.54 626.053 Q1532.01 626.053 1533.32 626.27 Q1534.62 626.487 1535.72 626.921 Z" fill="#000000" fill-rule="evenodd" fill-opacity="1" /><path clip-path="url(#clip680)" d="M 0 0 M1542.01 621.843 L1542.01 626.443 L1547.49 626.443 L1547.49 628.512 L1542.01 628.512 L1542.01 637.308 Q1542.01 639.29 1542.55 639.855 Q1543.1 640.419 1544.76 640.419 L1547.49 640.419 L1547.49 642.647 L1544.76 642.647 Q1541.68 642.647 1540.51 641.504 Q1539.33 640.346 1539.33 637.308 L1539.33 628.512 L1537.38 628.512 L1537.38 626.443 L1539.33 626.443 L1539.33 621.843 L1542.01 621.843 Z" fill="#000000" fill-rule="evenodd" fill-opacity="1" /><path clip-path="url(#clip680)" d="M 0 0 M1559.68 628.932 Q1559.23 628.671 1558.69 628.555 Q1558.17 628.425 1557.53 628.425 Q1555.28 628.425 1554.06 629.901 Q1552.86 631.362 1552.86 634.111 L1552.86 642.647 L1550.19 642.647 L1550.19 626.443 L1552.86 626.443 L1552.86 628.961 Q1553.7 627.485 1555.05 626.776 Q1556.39 626.053 1558.32 626.053 Q1558.59 626.053 1558.92 626.096 Q1559.26 626.125 1559.66 626.197 L1559.68 628.932 Z" fill="#000000" fill-rule="evenodd" fill-opacity="1" /><path clip-path="url(#clip680)" d="M 0 0 M1569.83 634.502 Q1566.61 634.502 1565.36 635.239 Q1564.12 635.977 1564.12 637.757 Q1564.12 639.175 1565.04 640.014 Q1565.98 640.838 1567.59 640.838 Q1569.8 640.838 1571.13 639.276 Q1572.48 637.699 1572.48 635.095 L1572.48 634.502 L1569.83 634.502 M1575.14 633.402 L1575.14 642.647 L1572.48 642.647 L1572.48 640.187 Q1571.57 641.663 1570.21 642.372 Q1568.85 643.066 1566.88 643.066 Q1564.39 643.066 1562.92 641.677 Q1561.46 640.274 1561.46 637.93 Q1561.46 635.196 1563.28 633.807 Q1565.12 632.418 1568.75 632.418 L1572.48 632.418 L1572.48 632.158 Q1572.48 630.32 1571.26 629.322 Q1570.06 628.31 1567.88 628.31 Q1566.49 628.31 1565.17 628.642 Q1563.86 628.975 1562.64 629.641 L1562.64 627.181 Q1564.1 626.617 1565.48 626.342 Q1566.85 626.053 1568.15 626.053 Q1571.67 626.053 1573.41 627.875 Q1575.14 629.698 1575.14 633.402 Z" fill="#000000" fill-rule="evenodd" fill-opacity="1" /><path clip-path="url(#clip680)" d="M 0 0 M1577.93 626.443 L1580.6 626.443 L1580.6 642.647 L1577.93 642.647 L1577.93 626.443 M1577.93 620.135 L1580.6 620.135 L1580.6 623.506 L1577.93 623.506 L1577.93 620.135 Z" fill="#000000" fill-rule="evenodd" fill-opacity="1" /><path clip-path="url(#clip680)" d="M 0 0 M1596.86 632.867 L1596.86 642.647 L1594.2 642.647 L1594.2 632.954 Q1594.2 630.653 1593.3 629.51 Q1592.4 628.367 1590.61 628.367 Q1588.45 628.367 1587.21 629.742 Q1585.96 631.116 1585.96 633.489 L1585.96 642.647 L1583.29 642.647 L1583.29 626.443 L1585.96 626.443 L1585.96 628.961 Q1586.92 627.499 1588.21 626.776 Q1589.51 626.053 1591.2 626.053 Q1593.99 626.053 1595.42 627.789 Q1596.86 629.51 1596.86 632.867 Z" fill="#000000" fill-rule="evenodd" fill-opacity="1" /><path clip-path="url(#clip680)" d="M 0 0 M1602.28 621.843 L1602.28 626.443 L1607.77 626.443 L1607.77 628.512 L1602.28 628.512 L1602.28 637.308 Q1602.28 639.29 1602.82 639.855 Q1603.37 640.419 1605.03 640.419 L1607.77 640.419 L1607.77 642.647 L1605.03 642.647 Q1601.95 642.647 1600.78 641.504 Q1599.61 640.346 1599.61 637.308 L1599.61 628.512 L1597.65 628.512 L1597.65 626.443 L1599.61 626.443 L1599.61 621.843 L1602.28 621.843 Z" fill="#000000" fill-rule="evenodd" fill-opacity="1" /><path clip-path="url(#clip680)" d="M 0 0 M1620.89 626.921 L1620.89 629.438 Q1619.76 628.859 1618.54 628.57 Q1617.33 628.281 1616.03 628.281 Q1614.04 628.281 1613.05 628.888 Q1612.06 629.496 1612.06 630.711 Q1612.06 631.637 1612.77 632.172 Q1613.48 632.693 1615.62 633.171 L1616.53 633.373 Q1619.37 633.981 1620.56 635.095 Q1621.76 636.194 1621.76 638.176 Q1621.76 640.433 1619.96 641.75 Q1618.18 643.066 1615.06 643.066 Q1613.76 643.066 1612.34 642.806 Q1610.93 642.56 1609.37 642.054 L1609.37 639.305 Q1610.85 640.072 1612.28 640.462 Q1613.71 640.838 1615.12 640.838 Q1617 640.838 1618.01 640.202 Q1619.02 639.551 1619.02 638.379 Q1619.02 637.294 1618.28 636.715 Q1617.56 636.136 1615.09 635.601 L1614.16 635.384 Q1611.69 634.863 1610.59 633.793 Q1609.49 632.708 1609.49 630.827 Q1609.49 628.541 1611.11 627.297 Q1612.73 626.053 1615.71 626.053 Q1617.18 626.053 1618.49 626.27 Q1619.79 626.487 1620.89 626.921 Z" fill="#000000" fill-rule="evenodd" fill-opacity="1" /><path clip-path="url(#clip680)" d="M 0 0 M360.998 1207.47 L360.998 1215.59 L364.672 1215.59 Q366.712 1215.59 367.826 1214.53 Q368.94 1213.47 368.94 1211.52 Q368.94 1209.58 367.826 1208.53 Q366.712 1207.47 364.672 1207.47 L360.998 1207.47 M358.075 1205.07 L364.672 1205.07 Q368.304 1205.07 370.156 1206.72 Q372.022 1208.35 372.022 1211.52 Q372.022 1214.72 370.156 1216.35 Q368.304 1217.99 364.672 1217.99 L360.998 1217.99 L360.998 1226.67 L358.075 1226.67 L358.075 1205.07 Z" fill="#000000" fill-rule="evenodd" fill-opacity="1" /><path clip-path="url(#clip680)" d="M 0 0 M387.618 1217.9 L387.618 1219.2 L375.378 1219.2 Q375.552 1221.95 377.028 1223.4 Q378.518 1224.83 381.165 1224.83 Q382.699 1224.83 384.131 1224.45 Q385.578 1224.08 386.996 1223.33 L386.996 1225.84 Q385.563 1226.45 384.059 1226.77 Q382.554 1227.09 381.006 1227.09 Q377.129 1227.09 374.857 1224.83 Q372.601 1222.57 372.601 1218.73 Q372.601 1214.75 374.742 1212.42 Q376.897 1210.07 380.543 1210.07 Q383.813 1210.07 385.708 1212.19 Q387.618 1214.28 387.618 1217.9 M384.956 1217.12 Q384.927 1214.94 383.726 1213.63 Q382.54 1212.33 380.572 1212.33 Q378.344 1212.33 376.999 1213.59 Q375.668 1214.85 375.465 1217.13 L384.956 1217.12 Z" fill="#000000" fill-rule="evenodd" fill-opacity="1" /><path clip-path="url(#clip680)" d="M 0 0 M399.799 1212.95 Q399.351 1212.69 398.816 1212.58 Q398.295 1212.45 397.658 1212.45 Q395.401 1212.45 394.186 1213.92 Q392.985 1215.38 392.985 1218.13 L392.985 1226.67 L390.309 1226.67 L390.309 1210.46 L392.985 1210.46 L392.985 1212.98 Q393.824 1211.51 395.17 1210.8 Q396.515 1210.07 398.44 1210.07 Q398.714 1210.07 399.047 1210.12 Q399.38 1210.15 399.785 1210.22 L399.799 1212.95 Z" fill="#000000" fill-rule="evenodd" fill-opacity="1" /><path clip-path="url(#clip680)" d="M 0 0 M410.795 1204.16 L410.795 1206.37 L408.248 1206.37 Q406.816 1206.37 406.252 1206.95 Q405.702 1207.53 405.702 1209.03 L405.702 1210.46 L410.086 1210.46 L410.086 1212.53 L405.702 1212.53 L405.702 1226.67 L403.026 1226.67 L403.026 1212.53 L400.479 1212.53 L400.479 1210.46 L403.026 1210.46 L403.026 1209.34 Q403.026 1206.63 404.284 1205.4 Q405.543 1204.16 408.277 1204.16 L410.795 1204.16 Z" fill="#000000" fill-rule="evenodd" fill-opacity="1" /><path clip-path="url(#clip680)" d="M 0 0 M419.866 1212.33 Q417.725 1212.33 416.481 1214.01 Q415.236 1215.67 415.236 1218.58 Q415.236 1221.49 416.466 1223.17 Q417.71 1224.83 419.866 1224.83 Q421.993 1224.83 423.237 1223.15 Q424.481 1221.47 424.481 1218.58 Q424.481 1215.7 423.237 1214.02 Q421.993 1212.33 419.866 1212.33 M419.866 1210.07 Q423.338 1210.07 425.32 1212.33 Q427.302 1214.59 427.302 1218.58 Q427.302 1222.56 425.32 1224.83 Q423.338 1227.09 419.866 1227.09 Q416.379 1227.09 414.397 1224.83 Q412.43 1222.56 412.43 1218.58 Q412.43 1214.59 414.397 1212.33 Q416.379 1210.07 419.866 1210.07 Z" fill="#000000" fill-rule="evenodd" fill-opacity="1" /><path clip-path="url(#clip680)" d="M 0 0 M439.484 1212.95 Q439.035 1212.69 438.5 1212.58 Q437.979 1212.45 437.343 1212.45 Q435.086 1212.45 433.87 1213.92 Q432.67 1215.38 432.67 1218.13 L432.67 1226.67 L429.993 1226.67 L429.993 1210.46 L432.67 1210.46 L432.67 1212.98 Q433.509 1211.51 434.854 1210.8 Q436.2 1210.07 438.124 1210.07 Q438.399 1210.07 438.732 1210.12 Q439.064 1210.15 439.469 1210.22 L439.484 1212.95 Z" fill="#000000" fill-rule="evenodd" fill-opacity="1" /><path clip-path="url(#clip680)" d="M 0 0 M454.371 1213.58 Q455.369 1211.78 456.758 1210.93 Q458.147 1210.07 460.028 1210.07 Q462.56 1210.07 463.934 1211.85 Q465.308 1213.62 465.308 1216.89 L465.308 1226.67 L462.632 1226.67 L462.632 1216.98 Q462.632 1214.65 461.807 1213.52 Q460.983 1212.39 459.29 1212.39 Q457.221 1212.39 456.02 1213.76 Q454.819 1215.14 454.819 1217.51 L454.819 1226.67 L452.143 1226.67 L452.143 1216.98 Q452.143 1214.63 451.318 1213.52 Q450.494 1212.39 448.772 1212.39 Q446.732 1212.39 445.531 1213.78 Q444.33 1215.15 444.33 1217.51 L444.33 1226.67 L441.654 1226.67 L441.654 1210.46 L444.33 1210.46 L444.33 1212.98 Q445.242 1211.49 446.515 1210.78 Q447.788 1210.07 449.539 1210.07 Q451.304 1210.07 452.534 1210.97 Q453.778 1211.87 454.371 1213.58 Z" fill="#000000" fill-rule="evenodd" fill-opacity="1" /><path clip-path="url(#clip680)" d="M 0 0 M475.465 1218.52 Q472.238 1218.52 470.994 1219.26 Q469.75 1220 469.75 1221.78 Q469.75 1223.2 470.676 1224.04 Q471.616 1224.86 473.222 1224.86 Q475.436 1224.86 476.767 1223.3 Q478.112 1221.72 478.112 1219.12 L478.112 1218.52 L475.465 1218.52 M480.774 1217.42 L480.774 1226.67 L478.112 1226.67 L478.112 1224.21 Q477.201 1225.68 475.841 1226.39 Q474.481 1227.09 472.513 1227.09 Q470.025 1227.09 468.549 1225.7 Q467.088 1224.3 467.088 1221.95 Q467.088 1219.22 468.911 1217.83 Q470.748 1216.44 474.38 1216.44 L478.112 1216.44 L478.112 1216.18 Q478.112 1214.34 476.897 1213.34 Q475.696 1212.33 473.511 1212.33 Q472.123 1212.33 470.806 1212.66 Q469.489 1213 468.274 1213.66 L468.274 1211.2 Q469.735 1210.64 471.11 1210.36 Q472.484 1210.07 473.786 1210.07 Q477.302 1210.07 479.038 1211.9 Q480.774 1213.72 480.774 1217.42 Z" fill="#000000" fill-rule="evenodd" fill-opacity="1" /><path clip-path="url(#clip680)" d="M 0 0 M497.036 1216.89 L497.036 1226.67 L494.374 1226.67 L494.374 1216.98 Q494.374 1214.67 493.477 1213.53 Q492.58 1212.39 490.786 1212.39 Q488.63 1212.39 487.386 1213.76 Q486.142 1215.14 486.142 1217.51 L486.142 1226.67 L483.465 1226.67 L483.465 1210.46 L486.142 1210.46 L486.142 1212.98 Q487.096 1211.52 488.384 1210.8 Q489.686 1210.07 491.379 1210.07 Q494.171 1210.07 495.603 1211.81 Q497.036 1213.53 497.036 1216.89 Z" fill="#000000" fill-rule="evenodd" fill-opacity="1" /><path clip-path="url(#clip680)" d="M 0 0 M511.489 1211.09 L511.489 1213.58 Q510.36 1212.95 509.217 1212.65 Q508.089 1212.33 506.931 1212.33 Q504.342 1212.33 502.909 1213.98 Q501.477 1215.62 501.477 1218.58 Q501.477 1221.55 502.909 1223.2 Q504.342 1224.83 506.931 1224.83 Q508.089 1224.83 509.217 1224.53 Q510.36 1224.21 511.489 1223.59 L511.489 1226.05 Q510.375 1226.57 509.174 1226.83 Q507.988 1227.09 506.642 1227.09 Q502.982 1227.09 500.826 1224.79 Q498.67 1222.49 498.67 1218.58 Q498.67 1214.62 500.841 1212.35 Q503.025 1210.07 506.816 1210.07 Q508.045 1210.07 509.217 1210.33 Q510.389 1210.58 511.489 1211.09 Z" fill="#000000" fill-rule="evenodd" fill-opacity="1" /><path clip-path="url(#clip680)" d="M 0 0 M528.141 1217.9 L528.141 1219.2 L515.901 1219.2 Q516.075 1221.95 517.551 1223.4 Q519.041 1224.83 521.688 1224.83 Q523.222 1224.83 524.654 1224.45 Q526.101 1224.08 527.519 1223.33 L527.519 1225.84 Q526.086 1226.45 524.582 1226.77 Q523.077 1227.09 521.529 1227.09 Q517.652 1227.09 515.38 1224.83 Q513.124 1222.57 513.124 1218.73 Q513.124 1214.75 515.265 1212.42 Q517.42 1210.07 521.066 1210.07 Q524.336 1210.07 526.231 1212.19 Q528.141 1214.28 528.141 1217.9 M525.479 1217.12 Q525.45 1214.94 524.249 1213.63 Q523.063 1212.33 521.095 1212.33 Q518.867 1212.33 517.522 1213.59 Q516.191 1214.85 515.988 1217.13 L525.479 1217.12 Z" fill="#000000" fill-rule="evenodd" fill-opacity="1" /><path clip-path="url(#clip680)" d="M 0 0 M543.245 1231.59 L543.245 1233.66 L527.851 1233.66 L527.851 1231.59 L543.245 1231.59 Z" fill="#000000" fill-rule="evenodd" fill-opacity="1" /><path clip-path="url(#clip680)" d="M 0 0 M549.075 1207.47 L549.075 1215.59 L552.75 1215.59 Q554.79 1215.59 555.904 1214.53 Q557.018 1213.47 557.018 1211.52 Q557.018 1209.58 555.904 1208.53 Q554.79 1207.47 552.75 1207.47 L549.075 1207.47 M546.153 1205.07 L552.75 1205.07 Q556.381 1205.07 558.233 1206.72 Q560.1 1208.35 560.1 1211.52 Q560.1 1214.72 558.233 1216.35 Q556.381 1217.99 552.75 1217.99 L549.075 1217.99 L549.075 1226.67 L546.153 1226.67 L546.153 1205.07 Z" fill="#000000" fill-rule="evenodd" fill-opacity="1" /><path clip-path="url(#clip680)" d="M 0 0 M568.925 1218.52 Q565.698 1218.52 564.454 1219.26 Q563.21 1220 563.21 1221.78 Q563.21 1223.2 564.136 1224.04 Q565.076 1224.86 566.682 1224.86 Q568.896 1224.86 570.227 1223.3 Q571.572 1221.72 571.572 1219.12 L571.572 1218.52 L568.925 1218.52 M574.234 1217.42 L574.234 1226.67 L571.572 1226.67 L571.572 1224.21 Q570.661 1225.68 569.301 1226.39 Q567.941 1227.09 565.973 1227.09 Q563.485 1227.09 562.009 1225.7 Q560.548 1224.3 560.548 1221.95 Q560.548 1219.22 562.371 1217.83 Q564.208 1216.44 567.84 1216.44 L571.572 1216.44 L571.572 1216.18 Q571.572 1214.34 570.357 1213.34 Q569.156 1212.33 566.972 1212.33 Q565.583 1212.33 564.266 1212.66 Q562.95 1213 561.734 1213.66 L561.734 1211.2 Q563.196 1210.64 564.57 1210.36 Q565.944 1210.07 567.246 1210.07 Q570.762 1210.07 572.498 1211.9 Q574.234 1213.72 574.234 1217.42 Z" fill="#000000" fill-rule="evenodd" fill-opacity="1" /><path clip-path="url(#clip680)" d="M 0 0 M586.416 1212.95 Q585.967 1212.69 585.432 1212.58 Q584.911 1212.45 584.275 1212.45 Q582.018 1212.45 580.803 1213.92 Q579.602 1215.38 579.602 1218.13 L579.602 1226.67 L576.925 1226.67 L576.925 1210.46 L579.602 1210.46 L579.602 1212.98 Q580.441 1211.51 581.786 1210.8 Q583.132 1210.07 585.056 1210.07 Q585.331 1210.07 585.664 1210.12 Q585.996 1210.15 586.401 1210.22 L586.416 1212.95 Z" fill="#000000" fill-rule="evenodd" fill-opacity="1" /><path clip-path="url(#clip680)" d="M 0 0 M596.572 1218.52 Q593.346 1218.52 592.102 1219.26 Q590.857 1220 590.857 1221.78 Q590.857 1223.2 591.783 1224.04 Q592.724 1224.86 594.33 1224.86 Q596.543 1224.86 597.874 1223.3 Q599.22 1221.72 599.22 1219.12 L599.22 1218.52 L596.572 1218.52 M601.882 1217.42 L601.882 1226.67 L599.22 1226.67 L599.22 1224.21 Q598.308 1225.68 596.948 1226.39 Q595.588 1227.09 593.621 1227.09 Q591.132 1227.09 589.657 1225.7 Q588.195 1224.3 588.195 1221.95 Q588.195 1219.22 590.018 1217.83 Q591.856 1216.44 595.487 1216.44 L599.22 1216.44 L599.22 1216.18 Q599.22 1214.34 598.004 1213.34 Q596.804 1212.33 594.619 1212.33 Q593.23 1212.33 591.914 1212.66 Q590.597 1213 589.382 1213.66 L589.382 1211.2 Q590.843 1210.64 592.217 1210.36 Q593.592 1210.07 594.894 1210.07 Q598.41 1210.07 600.146 1211.9 Q601.882 1213.72 601.882 1217.42 Z" fill="#000000" fill-rule="evenodd" fill-opacity="1" /><path clip-path="url(#clip680)" d="M 0 0 M617.29 1213.58 Q618.288 1211.78 619.677 1210.93 Q621.066 1210.07 622.946 1210.07 Q625.478 1210.07 626.853 1211.85 Q628.227 1213.62 628.227 1216.89 L628.227 1226.67 L625.551 1226.67 L625.551 1216.98 Q625.551 1214.65 624.726 1213.52 Q623.901 1212.39 622.209 1212.39 Q620.14 1212.39 618.939 1213.76 Q617.738 1215.14 617.738 1217.51 L617.738 1226.67 L615.062 1226.67 L615.062 1216.98 Q615.062 1214.63 614.237 1213.52 Q613.412 1212.39 611.691 1212.39 Q609.651 1212.39 608.45 1213.78 Q607.249 1215.15 607.249 1217.51 L607.249 1226.67 L604.573 1226.67 L604.573 1210.46 L607.249 1210.46 L607.249 1212.98 Q608.161 1211.49 609.434 1210.78 Q610.707 1210.07 612.457 1210.07 Q614.223 1210.07 615.452 1210.97 Q616.696 1211.87 617.29 1213.58 Z" fill="#000000" fill-rule="evenodd" fill-opacity="1" /><path clip-path="url(#clip680)" d="M 0 0 M644.879 1217.9 L644.879 1219.2 L632.64 1219.2 Q632.813 1221.95 634.289 1223.4 Q635.779 1224.83 638.427 1224.83 Q639.96 1224.83 641.392 1224.45 Q642.839 1224.08 644.257 1223.33 L644.257 1225.84 Q642.825 1226.45 641.32 1226.77 Q639.816 1227.09 638.268 1227.09 Q634.39 1227.09 632.119 1224.83 Q629.862 1222.57 629.862 1218.73 Q629.862 1214.75 632.003 1212.42 Q634.159 1210.07 637.805 1210.07 Q641.074 1210.07 642.969 1212.19 Q644.879 1214.28 644.879 1217.9 M642.217 1217.12 Q642.188 1214.94 640.987 1213.63 Q639.801 1212.33 637.833 1212.33 Q635.605 1212.33 634.26 1213.59 Q632.929 1214.85 632.726 1217.13 L642.217 1217.12 Z" fill="#000000" fill-rule="evenodd" fill-opacity="1" /><path clip-path="url(#clip680)" d="M 0 0 M650.304 1205.86 L650.304 1210.46 L655.788 1210.46 L655.788 1212.53 L650.304 1212.53 L650.304 1221.33 Q650.304 1223.31 650.84 1223.88 Q651.39 1224.44 653.053 1224.44 L655.788 1224.44 L655.788 1226.67 L653.053 1226.67 Q649.972 1226.67 648.8 1225.53 Q647.628 1224.37 647.628 1221.33 L647.628 1212.53 L645.675 1212.53 L645.675 1210.46 L647.628 1210.46 L647.628 1205.86 L650.304 1205.86 Z" fill="#000000" fill-rule="evenodd" fill-opacity="1" /><path clip-path="url(#clip680)" d="M 0 0 M672.44 1217.9 L672.44 1219.2 L660.2 1219.2 Q660.374 1221.95 661.85 1223.4 Q663.34 1224.83 665.987 1224.83 Q667.521 1224.83 668.953 1224.45 Q670.4 1224.08 671.818 1223.33 L671.818 1225.84 Q670.385 1226.45 668.881 1226.77 Q667.376 1227.09 665.828 1227.09 Q661.951 1227.09 659.679 1224.83 Q657.423 1222.57 657.423 1218.73 Q657.423 1214.75 659.564 1212.42 Q661.719 1210.07 665.365 1210.07 Q668.635 1210.07 670.53 1212.19 Q672.44 1214.28 672.44 1217.9 M669.778 1217.12 Q669.749 1214.94 668.548 1213.63 Q667.362 1212.33 665.394 1212.33 Q663.166 1212.33 661.821 1213.59 Q660.49 1214.85 660.287 1217.13 L669.778 1217.12 Z" fill="#000000" fill-rule="evenodd" fill-opacity="1" /><path clip-path="url(#clip680)" d="M 0 0 M684.621 1212.95 Q684.173 1212.69 683.638 1212.58 Q683.117 1212.45 682.48 1212.45 Q680.223 1212.45 679.008 1213.92 Q677.807 1215.38 677.807 1218.13 L677.807 1226.67 L675.131 1226.67 L675.131 1210.46 L677.807 1210.46 L677.807 1212.98 Q678.646 1211.51 679.992 1210.8 Q681.337 1210.07 683.261 1210.07 Q683.536 1210.07 683.869 1210.12 Q684.202 1210.15 684.607 1210.22 L684.621 1212.95 Z" fill="#000000" fill-rule="evenodd" fill-opacity="1" /><path clip-path="url(#clip680)" d="M 0 0 M697.743 1210.94 L697.743 1213.46 Q696.615 1212.88 695.4 1212.59 Q694.184 1212.3 692.882 1212.3 Q690.9 1212.3 689.902 1212.91 Q688.918 1213.52 688.918 1214.73 Q688.918 1215.66 689.627 1216.19 Q690.336 1216.71 692.477 1217.19 L693.389 1217.39 Q696.224 1218 697.411 1219.12 Q698.612 1220.22 698.612 1222.2 Q698.612 1224.45 696.818 1225.77 Q695.038 1227.09 691.913 1227.09 Q690.611 1227.09 689.193 1226.83 Q687.79 1226.58 686.227 1226.08 L686.227 1223.33 Q687.703 1224.09 689.135 1224.48 Q690.568 1224.86 691.971 1224.86 Q693.852 1224.86 694.864 1224.22 Q695.877 1223.57 695.877 1222.4 Q695.877 1221.32 695.139 1220.74 Q694.416 1220.16 691.942 1219.62 L691.016 1219.41 Q688.542 1218.88 687.443 1217.81 Q686.343 1216.73 686.343 1214.85 Q686.343 1212.56 687.963 1211.32 Q689.584 1210.07 692.564 1210.07 Q694.04 1210.07 695.342 1210.29 Q696.644 1210.51 697.743 1210.94 Z" fill="#000000" fill-rule="evenodd" fill-opacity="1" /><path clip-path="url(#clip680)" d="M 0 0 M1044.75 1255.81 L1044.75 1258.89 Q1043.27 1257.52 1041.6 1256.84 Q1039.93 1256.16 1038.05 1256.16 Q1034.35 1256.16 1032.38 1258.43 Q1030.41 1260.69 1030.41 1264.97 Q1030.41 1269.24 1032.38 1271.51 Q1034.35 1273.76 1038.05 1273.76 Q1039.93 1273.76 1041.6 1273.08 Q1043.27 1272.4 1044.75 1271.03 L1044.75 1274.08 Q1043.22 1275.12 1041.5 1275.64 Q1039.79 1276.17 1037.88 1276.17 Q1032.97 1276.17 1030.15 1273.17 Q1027.33 1270.16 1027.33 1264.97 Q1027.33 1259.76 1030.15 1256.76 Q1032.97 1253.76 1037.88 1253.76 Q1039.82 1253.76 1041.52 1254.28 Q1043.25 1254.78 1044.75 1255.81 Z" fill="#000000" fill-rule="evenodd" fill-opacity="1" /><path clip-path="url(#clip680)" d="M 0 0 M1047.54 1253.23 L1050.2 1253.23 L1050.2 1275.75 L1047.54 1275.75 L1047.54 1253.23 Z" fill="#000000" fill-rule="evenodd" fill-opacity="1" /><path clip-path="url(#clip680)" d="M 0 0 M1053 1259.54 L1055.66 1259.54 L1055.66 1275.75 L1053 1275.75 L1053 1259.54 M1053 1253.23 L1055.66 1253.23 L1055.66 1256.61 L1053 1256.61 L1053 1253.23 Z" fill="#000000" fill-rule="evenodd" fill-opacity="1" /><path clip-path="url(#clip680)" d="M 0 0 M1072.31 1266.98 L1072.31 1268.28 L1060.07 1268.28 Q1060.25 1271.03 1061.72 1272.48 Q1063.21 1273.91 1065.86 1273.91 Q1067.39 1273.91 1068.82 1273.53 Q1070.27 1273.16 1071.69 1272.4 L1071.69 1274.92 Q1070.26 1275.53 1068.75 1275.85 Q1067.25 1276.17 1065.7 1276.17 Q1061.82 1276.17 1059.55 1273.91 Q1057.29 1271.65 1057.29 1267.8 Q1057.29 1263.83 1059.44 1261.5 Q1061.59 1259.15 1065.24 1259.15 Q1068.51 1259.15 1070.4 1261.26 Q1072.31 1263.36 1072.31 1266.98 M1069.65 1266.2 Q1069.62 1264.01 1068.42 1262.71 Q1067.23 1261.41 1065.27 1261.41 Q1063.04 1261.41 1061.69 1262.67 Q1060.36 1263.93 1060.16 1266.21 L1069.65 1266.2 Z" fill="#000000" fill-rule="evenodd" fill-opacity="1" /><path clip-path="url(#clip680)" d="M 0 0 M1088.57 1265.97 L1088.57 1275.75 L1085.91 1275.75 L1085.91 1266.05 Q1085.91 1263.75 1085.01 1262.61 Q1084.12 1261.47 1082.32 1261.47 Q1080.17 1261.47 1078.92 1262.84 Q1077.68 1264.22 1077.68 1266.59 L1077.68 1275.75 L1075 1275.75 L1075 1259.54 L1077.68 1259.54 L1077.68 1262.06 Q1078.63 1260.6 1079.92 1259.88 Q1081.22 1259.15 1082.92 1259.15 Q1085.71 1259.15 1087.14 1260.89 Q1088.57 1262.61 1088.57 1265.97 Z" fill="#000000" fill-rule="evenodd" fill-opacity="1" /><path clip-path="url(#clip680)" d="M 0 0 M1094 1254.94 L1094 1259.54 L1099.48 1259.54 L1099.48 1261.61 L1094 1261.61 L1094 1270.41 Q1094 1272.39 1094.53 1272.95 Q1095.08 1273.52 1096.75 1273.52 L1099.48 1273.52 L1099.48 1275.75 L1096.75 1275.75 Q1093.67 1275.75 1092.49 1274.6 Q1091.32 1273.45 1091.32 1270.41 L1091.32 1261.61 L1089.37 1261.61 L1089.37 1259.54 L1091.32 1259.54 L1091.32 1254.94 L1094 1254.94 Z" fill="#000000" fill-rule="evenodd" fill-opacity="1" /><path clip-path="url(#clip680)" d="M 0 0 M1114.59 1280.67 L1114.59 1282.73 L1099.19 1282.73 L1099.19 1280.67 L1114.59 1280.67 Z" fill="#000000" fill-rule="evenodd" fill-opacity="1" /><path clip-path="url(#clip680)" d="M 0 0 M1124.74 1267.6 Q1121.52 1267.6 1120.27 1268.34 Q1119.03 1269.08 1119.03 1270.86 Q1119.03 1272.27 1119.95 1273.11 Q1120.89 1273.94 1122.5 1273.94 Q1124.71 1273.94 1126.04 1272.38 Q1127.39 1270.8 1127.39 1268.19 L1127.39 1267.6 L1124.74 1267.6 M1130.05 1266.5 L1130.05 1275.75 L1127.39 1275.75 L1127.39 1273.29 Q1126.48 1274.76 1125.12 1275.47 Q1123.76 1276.17 1121.79 1276.17 Q1119.3 1276.17 1117.83 1274.78 Q1116.36 1273.37 1116.36 1271.03 Q1116.36 1268.3 1118.19 1266.91 Q1120.03 1265.52 1123.66 1265.52 L1127.39 1265.52 L1127.39 1265.26 Q1127.39 1263.42 1126.17 1262.42 Q1124.97 1261.41 1122.79 1261.41 Q1121.4 1261.41 1120.08 1261.74 Q1118.77 1262.07 1117.55 1262.74 L1117.55 1260.28 Q1119.01 1259.72 1120.39 1259.44 Q1121.76 1259.15 1123.06 1259.15 Q1126.58 1259.15 1128.32 1260.97 Q1130.05 1262.8 1130.05 1266.5 Z" fill="#000000" fill-rule="evenodd" fill-opacity="1" /><path clip-path="url(#clip680)" d="M 0 0 M1146.31 1265.97 L1146.31 1275.75 L1143.65 1275.75 L1143.65 1266.05 Q1143.65 1263.75 1142.75 1262.61 Q1141.86 1261.47 1140.06 1261.47 Q1137.91 1261.47 1136.66 1262.84 Q1135.42 1264.22 1135.42 1266.59 L1135.42 1275.75 L1132.74 1275.75 L1132.74 1259.54 L1135.42 1259.54 L1135.42 1262.06 Q1136.37 1260.6 1137.66 1259.88 Q1138.96 1259.15 1140.66 1259.15 Q1143.45 1259.15 1144.88 1260.89 Q1146.31 1262.61 1146.31 1265.97 Z" fill="#000000" fill-rule="evenodd" fill-opacity="1" /><path clip-path="url(#clip680)" d="M 0 0 M1159.77 1262 L1159.77 1253.23 L1162.43 1253.23 L1162.43 1275.75 L1159.77 1275.75 L1159.77 1273.32 Q1158.93 1274.76 1157.64 1275.47 Q1156.37 1276.17 1154.57 1276.17 Q1151.64 1276.17 1149.78 1273.82 Q1147.95 1271.48 1147.95 1267.66 Q1147.95 1263.84 1149.78 1261.5 Q1151.64 1259.15 1154.57 1259.15 Q1156.37 1259.15 1157.64 1259.86 Q1158.93 1260.56 1159.77 1262 M1150.7 1267.66 Q1150.7 1270.6 1151.9 1272.27 Q1153.11 1273.94 1155.22 1273.94 Q1157.34 1273.94 1158.55 1272.27 Q1159.77 1270.6 1159.77 1267.66 Q1159.77 1264.72 1158.55 1263.06 Q1157.34 1261.38 1155.22 1261.38 Q1153.11 1261.38 1151.9 1263.06 Q1150.7 1264.72 1150.7 1267.66 Z" fill="#000000" fill-rule="evenodd" fill-opacity="1" /><path clip-path="url(#clip680)" d="M 0 0 M1177.53 1280.67 L1177.53 1282.73 L1162.14 1282.73 L1162.14 1280.67 L1177.53 1280.67 Z" fill="#000000" fill-rule="evenodd" fill-opacity="1" /><path clip-path="url(#clip680)" d="M 0 0 M1196.62 1255.81 L1196.62 1258.89 Q1195.14 1257.52 1193.46 1256.84 Q1191.8 1256.16 1189.92 1256.16 Q1186.21 1256.16 1184.25 1258.43 Q1182.28 1260.69 1182.28 1264.97 Q1182.28 1269.24 1184.25 1271.51 Q1186.21 1273.76 1189.92 1273.76 Q1191.8 1273.76 1193.46 1273.08 Q1195.14 1272.4 1196.62 1271.03 L1196.62 1274.08 Q1195.08 1275.12 1193.36 1275.64 Q1191.65 1276.17 1189.74 1276.17 Q1184.84 1276.17 1182.02 1273.17 Q1179.2 1270.16 1179.2 1264.97 Q1179.2 1259.76 1182.02 1256.76 Q1184.84 1253.76 1189.74 1253.76 Q1191.68 1253.76 1193.39 1254.28 Q1195.11 1254.78 1196.62 1255.81 Z" fill="#000000" fill-rule="evenodd" fill-opacity="1" /><path clip-path="url(#clip680)" d="M 0 0 M1205.69 1261.41 Q1203.55 1261.41 1202.3 1263.09 Q1201.06 1264.75 1201.06 1267.66 Q1201.06 1270.57 1202.29 1272.25 Q1203.53 1273.91 1205.69 1273.91 Q1207.81 1273.91 1209.06 1272.23 Q1210.3 1270.55 1210.3 1267.66 Q1210.3 1264.78 1209.06 1263.1 Q1207.81 1261.41 1205.69 1261.41 M1205.69 1259.15 Q1209.16 1259.15 1211.14 1261.41 Q1213.12 1263.67 1213.12 1267.66 Q1213.12 1271.64 1211.14 1273.91 Q1209.16 1276.17 1205.69 1276.17 Q1202.2 1276.17 1200.22 1273.91 Q1198.25 1271.64 1198.25 1267.66 Q1198.25 1263.67 1200.22 1261.41 Q1202.2 1259.15 1205.69 1259.15 Z" fill="#000000" fill-rule="evenodd" fill-opacity="1" /><path clip-path="url(#clip680)" d="M 0 0 M1229.39 1265.97 L1229.39 1275.75 L1226.72 1275.75 L1226.72 1266.05 Q1226.72 1263.75 1225.83 1262.61 Q1224.93 1261.47 1223.14 1261.47 Q1220.98 1261.47 1219.74 1262.84 Q1218.49 1264.22 1218.49 1266.59 L1218.49 1275.75 L1215.81 1275.75 L1215.81 1259.54 L1218.49 1259.54 L1218.49 1262.06 Q1219.45 1260.6 1220.73 1259.88 Q1222.04 1259.15 1223.73 1259.15 Q1226.52 1259.15 1227.95 1260.89 Q1229.39 1262.61 1229.39 1265.97 Z" fill="#000000" fill-rule="evenodd" fill-opacity="1" /><path clip-path="url(#clip680)" d="M 0 0 M1242.51 1260.02 L1242.51 1262.54 Q1241.38 1261.96 1240.16 1261.67 Q1238.95 1261.38 1237.65 1261.38 Q1235.66 1261.38 1234.67 1261.99 Q1233.68 1262.6 1233.68 1263.81 Q1233.68 1264.74 1234.39 1265.27 Q1235.1 1265.79 1237.24 1266.27 L1238.15 1266.47 Q1240.99 1267.08 1242.17 1268.19 Q1243.38 1269.29 1243.38 1271.28 Q1243.38 1273.53 1241.58 1274.85 Q1239.8 1276.17 1236.68 1276.17 Q1235.37 1276.17 1233.96 1275.91 Q1232.55 1275.66 1230.99 1275.15 L1230.99 1272.4 Q1232.47 1273.17 1233.9 1273.56 Q1235.33 1273.94 1236.73 1273.94 Q1238.62 1273.94 1239.63 1273.3 Q1240.64 1272.65 1240.64 1271.48 Q1240.64 1270.39 1239.9 1269.81 Q1239.18 1269.24 1236.71 1268.7 L1235.78 1268.48 Q1233.31 1267.96 1232.21 1266.89 Q1231.11 1265.81 1231.11 1263.93 Q1231.11 1261.64 1232.73 1260.4 Q1234.35 1259.15 1237.33 1259.15 Q1238.8 1259.15 1240.11 1259.37 Q1241.41 1259.59 1242.51 1260.02 Z" fill="#000000" fill-rule="evenodd" fill-opacity="1" /><path clip-path="url(#clip680)" d="M 0 0 M1245.89 1269.35 L1245.89 1259.54 L1248.55 1259.54 L1248.55 1269.25 Q1248.55 1271.55 1249.45 1272.71 Q1250.35 1273.85 1252.14 1273.85 Q1254.3 1273.85 1255.54 1272.48 Q1256.8 1271.1 1256.8 1268.73 L1256.8 1259.54 L1259.46 1259.54 L1259.46 1275.75 L1256.8 1275.75 L1256.8 1273.26 Q1255.83 1274.73 1254.54 1275.46 Q1253.27 1276.17 1251.58 1276.17 Q1248.79 1276.17 1247.34 1274.43 Q1245.89 1272.69 1245.89 1269.35 M1252.59 1259.15 L1252.59 1259.15 Z" fill="#000000" fill-rule="evenodd" fill-opacity="1" /><path clip-path="url(#clip680)" d="M 0 0 M1262.26 1253.23 L1264.92 1253.23 L1264.92 1275.75 L1262.26 1275.75 L1262.26 1253.23 Z" fill="#000000" fill-rule="evenodd" fill-opacity="1" /><path clip-path="url(#clip680)" d="M 0 0 M1270.34 1254.94 L1270.34 1259.54 L1275.83 1259.54 L1275.83 1261.61 L1270.34 1261.61 L1270.34 1270.41 Q1270.34 1272.39 1270.88 1272.95 Q1271.43 1273.52 1273.09 1273.52 L1275.83 1273.52 L1275.83 1275.75 L1273.09 1275.75 Q1270.01 1275.75 1268.84 1274.6 Q1267.67 1273.45 1267.67 1270.41 L1267.67 1261.61 L1265.71 1261.61 L1265.71 1259.54 L1267.67 1259.54 L1267.67 1254.94 L1270.34 1254.94 Z" fill="#000000" fill-rule="evenodd" fill-opacity="1" /><path clip-path="url(#clip680)" d="M 0 0 M1285.98 1267.6 Q1282.76 1267.6 1281.51 1268.34 Q1280.27 1269.08 1280.27 1270.86 Q1280.27 1272.27 1281.19 1273.11 Q1282.13 1273.94 1283.74 1273.94 Q1285.95 1273.94 1287.28 1272.38 Q1288.63 1270.8 1288.63 1268.19 L1288.63 1267.6 L1285.98 1267.6 M1291.29 1266.5 L1291.29 1275.75 L1288.63 1275.75 L1288.63 1273.29 Q1287.72 1274.76 1286.36 1275.47 Q1285 1276.17 1283.03 1276.17 Q1280.54 1276.17 1279.07 1274.78 Q1277.61 1273.37 1277.61 1271.03 Q1277.61 1268.3 1279.43 1266.91 Q1281.27 1265.52 1284.9 1265.52 L1288.63 1265.52 L1288.63 1265.26 Q1288.63 1263.42 1287.41 1262.42 Q1286.21 1261.41 1284.03 1261.41 Q1282.64 1261.41 1281.32 1261.74 Q1280.01 1262.07 1278.79 1262.74 L1278.79 1260.28 Q1280.25 1259.72 1281.63 1259.44 Q1283 1259.15 1284.3 1259.15 Q1287.82 1259.15 1289.56 1260.97 Q1291.29 1262.8 1291.29 1266.5 Z" fill="#000000" fill-rule="evenodd" fill-opacity="1" /><path clip-path="url(#clip680)" d="M 0 0 M1307.55 1265.97 L1307.55 1275.75 L1304.89 1275.75 L1304.89 1266.05 Q1304.89 1263.75 1303.99 1262.61 Q1303.1 1261.47 1301.3 1261.47 Q1299.15 1261.47 1297.9 1262.84 Q1296.66 1264.22 1296.66 1266.59 L1296.66 1275.75 L1293.98 1275.75 L1293.98 1259.54 L1296.66 1259.54 L1296.66 1262.06 Q1297.61 1260.6 1298.9 1259.88 Q1300.2 1259.15 1301.9 1259.15 Q1304.69 1259.15 1306.12 1260.89 Q1307.55 1262.61 1307.55 1265.97 Z" fill="#000000" fill-rule="evenodd" fill-opacity="1" /><path clip-path="url(#clip680)" d="M 0 0 M1312.98 1254.94 L1312.98 1259.54 L1318.46 1259.54 L1318.46 1261.61 L1312.98 1261.61 L1312.98 1270.41 Q1312.98 1272.39 1313.51 1272.95 Q1314.06 1273.52 1315.73 1273.52 L1318.46 1273.52 L1318.46 1275.75 L1315.73 1275.75 Q1312.65 1275.75 1311.47 1274.6 Q1310.3 1273.45 1310.3 1270.41 L1310.3 1261.61 L1308.35 1261.61 L1308.35 1259.54 L1310.3 1259.54 L1310.3 1254.94 L1312.98 1254.94 Z" fill="#000000" fill-rule="evenodd" fill-opacity="1" /><path clip-path="url(#clip680)" d="M 0 0 M1333.57 1280.67 L1333.57 1282.73 L1318.17 1282.73 L1318.17 1280.67 L1333.57 1280.67 Z" fill="#000000" fill-rule="evenodd" fill-opacity="1" /><path clip-path="url(#clip680)" d="M 0 0 M1346.72 1265.62 Q1347.66 1265.94 1348.54 1266.98 Q1349.44 1268.02 1350.33 1269.84 L1353.3 1275.75 L1350.16 1275.75 L1347.4 1270.21 Q1346.33 1268.04 1345.31 1267.33 Q1344.32 1266.62 1342.58 1266.62 L1339.4 1266.62 L1339.4 1275.75 L1336.47 1275.75 L1336.47 1254.15 L1343.07 1254.15 Q1346.77 1254.15 1348.6 1255.69 Q1350.42 1257.24 1350.42 1260.37 Q1350.42 1262.41 1349.47 1263.75 Q1348.53 1265.1 1346.72 1265.62 M1339.4 1256.55 L1339.4 1264.22 L1343.07 1264.22 Q1345.18 1264.22 1346.25 1263.25 Q1347.34 1262.26 1347.34 1260.37 Q1347.34 1258.47 1346.25 1257.52 Q1345.18 1256.55 1343.07 1256.55 L1339.4 1256.55 Z" fill="#000000" fill-rule="evenodd" fill-opacity="1" /><path clip-path="url(#clip680)" d="M 0 0 M1368.62 1266.98 L1368.62 1268.28 L1356.38 1268.28 Q1356.55 1271.03 1358.03 1272.48 Q1359.52 1273.91 1362.17 1273.91 Q1363.7 1273.91 1365.13 1273.53 Q1366.58 1273.16 1368 1272.4 L1368 1274.92 Q1366.57 1275.53 1365.06 1275.85 Q1363.56 1276.17 1362.01 1276.17 Q1358.13 1276.17 1355.86 1273.91 Q1353.6 1271.65 1353.6 1267.8 Q1353.6 1263.83 1355.74 1261.5 Q1357.9 1259.15 1361.55 1259.15 Q1364.82 1259.15 1366.71 1261.26 Q1368.62 1263.36 1368.62 1266.98 M1365.96 1266.2 Q1365.93 1264.01 1364.73 1262.71 Q1363.54 1261.41 1361.57 1261.41 Q1359.35 1261.41 1358 1262.67 Q1356.67 1263.93 1356.47 1266.21 L1365.96 1266.2 Z" fill="#000000" fill-rule="evenodd" fill-opacity="1" /><path clip-path="url(#clip680)" d="M 0 0 M1373 1267.66 Q1373 1270.6 1374.2 1272.27 Q1375.42 1273.94 1377.53 1273.94 Q1379.64 1273.94 1380.86 1272.27 Q1382.08 1270.6 1382.08 1267.66 Q1382.08 1264.72 1380.86 1263.06 Q1379.64 1261.38 1377.53 1261.38 Q1375.42 1261.38 1374.2 1263.06 Q1373 1264.72 1373 1267.66 M1382.08 1273.32 Q1381.24 1274.76 1379.95 1275.47 Q1378.68 1276.17 1376.88 1276.17 Q1373.94 1276.17 1372.09 1273.82 Q1370.26 1271.48 1370.26 1267.66 Q1370.26 1263.84 1372.09 1261.5 Q1373.94 1259.15 1376.88 1259.15 Q1378.68 1259.15 1379.95 1259.86 Q1381.24 1260.56 1382.08 1262 L1382.08 1259.54 L1384.74 1259.54 L1384.74 1281.91 L1382.08 1281.91 L1382.08 1273.32 Z" fill="#000000" fill-rule="evenodd" fill-opacity="1" /><path clip-path="url(#clip680)" d="M 0 0 M1387.25 1269.35 L1387.25 1259.54 L1389.92 1259.54 L1389.92 1269.25 Q1389.92 1271.55 1390.81 1272.71 Q1391.71 1273.85 1393.5 1273.85 Q1395.66 1273.85 1396.9 1272.48 Q1398.16 1271.1 1398.16 1268.73 L1398.16 1259.54 L1400.83 1259.54 L1400.83 1275.75 L1398.16 1275.75 L1398.16 1273.26 Q1397.19 1274.73 1395.91 1275.46 Q1394.63 1276.17 1392.94 1276.17 Q1390.15 1276.17 1388.7 1274.43 Q1387.25 1272.69 1387.25 1269.35 M1393.95 1259.15 L1393.95 1259.15 Z" fill="#000000" fill-rule="evenodd" fill-opacity="1" /><path clip-path="url(#clip680)" d="M 0 0 M1417.48 1266.98 L1417.48 1268.28 L1405.24 1268.28 Q1405.41 1271.03 1406.89 1272.48 Q1408.38 1273.91 1411.02 1273.91 Q1412.56 1273.91 1413.99 1273.53 Q1415.44 1273.16 1416.86 1272.4 L1416.86 1274.92 Q1415.42 1275.53 1413.92 1275.85 Q1412.41 1276.17 1410.87 1276.17 Q1406.99 1276.17 1404.72 1273.91 Q1402.46 1271.65 1402.46 1267.8 Q1402.46 1263.83 1404.6 1261.5 Q1406.76 1259.15 1410.4 1259.15 Q1413.67 1259.15 1415.57 1261.26 Q1417.48 1263.36 1417.48 1266.98 M1414.82 1266.2 Q1414.79 1264.01 1413.59 1262.71 Q1412.4 1261.41 1410.43 1261.41 Q1408.2 1261.41 1406.86 1262.67 Q1405.53 1263.93 1405.32 1266.21 L1414.82 1266.2 Z" fill="#000000" fill-rule="evenodd" fill-opacity="1" /><path clip-path="url(#clip680)" d="M 0 0 M1430.6 1260.02 L1430.6 1262.54 Q1429.47 1261.96 1428.26 1261.67 Q1427.04 1261.38 1425.74 1261.38 Q1423.76 1261.38 1422.76 1261.99 Q1421.77 1262.6 1421.77 1263.81 Q1421.77 1264.74 1422.48 1265.27 Q1423.19 1265.79 1425.33 1266.27 L1426.24 1266.47 Q1429.08 1267.08 1430.27 1268.19 Q1431.47 1269.29 1431.47 1271.28 Q1431.47 1273.53 1429.67 1274.85 Q1427.89 1276.17 1424.77 1276.17 Q1423.47 1276.17 1422.05 1275.91 Q1420.65 1275.66 1419.08 1275.15 L1419.08 1272.4 Q1420.56 1273.17 1421.99 1273.56 Q1423.42 1273.94 1424.83 1273.94 Q1426.71 1273.94 1427.72 1273.3 Q1428.73 1272.65 1428.73 1271.48 Q1428.73 1270.39 1428 1269.81 Q1427.27 1269.24 1424.8 1268.7 L1423.87 1268.48 Q1421.4 1267.96 1420.3 1266.89 Q1419.2 1265.81 1419.2 1263.93 Q1419.2 1261.64 1420.82 1260.4 Q1422.44 1259.15 1425.42 1259.15 Q1426.9 1259.15 1428.2 1259.37 Q1429.5 1259.59 1430.6 1260.02 Z" fill="#000000" fill-rule="evenodd" fill-opacity="1" /><path clip-path="url(#clip680)" d="M 0 0 M1436.89 1254.94 L1436.89 1259.54 L1442.38 1259.54 L1442.38 1261.61 L1436.89 1261.61 L1436.89 1270.41 Q1436.89 1272.39 1437.43 1272.95 Q1437.98 1273.52 1439.64 1273.52 L1442.38 1273.52 L1442.38 1275.75 L1439.64 1275.75 Q1436.56 1275.75 1435.39 1274.6 Q1434.22 1273.45 1434.22 1270.41 L1434.22 1261.61 L1432.26 1261.61 L1432.26 1259.54 L1434.22 1259.54 L1434.22 1254.94 L1436.89 1254.94 Z" fill="#000000" fill-rule="evenodd" fill-opacity="1" /><path clip-path="url(#clip680)" d="M 0 0 M1455.5 1260.02 L1455.5 1262.54 Q1454.37 1261.96 1453.15 1261.67 Q1451.94 1261.38 1450.64 1261.38 Q1448.65 1261.38 1447.66 1261.99 Q1446.67 1262.6 1446.67 1263.81 Q1446.67 1264.74 1447.38 1265.27 Q1448.09 1265.79 1450.23 1266.27 L1451.14 1266.47 Q1453.98 1267.08 1455.17 1268.19 Q1456.37 1269.29 1456.37 1271.28 Q1456.37 1273.53 1454.57 1274.85 Q1452.79 1276.17 1449.67 1276.17 Q1448.37 1276.17 1446.95 1275.91 Q1445.54 1275.66 1443.98 1275.15 L1443.98 1272.4 Q1445.46 1273.17 1446.89 1273.56 Q1448.32 1273.94 1449.73 1273.94 Q1451.61 1273.94 1452.62 1273.3 Q1453.63 1272.65 1453.63 1271.48 Q1453.63 1270.39 1452.89 1269.81 Q1452.17 1269.24 1449.7 1268.7 L1448.77 1268.48 Q1446.3 1267.96 1445.2 1266.89 Q1444.1 1265.81 1444.1 1263.93 Q1444.1 1261.64 1445.72 1260.4 Q1447.34 1259.15 1450.32 1259.15 Q1451.79 1259.15 1453.1 1259.37 Q1454.4 1259.59 1455.5 1260.02 Z" fill="#000000" fill-rule="evenodd" fill-opacity="1" /><path clip-path="url(#clip680)" d="M 0 0 M717.306 557.456 L717.306 574.252 L720.836 574.252 Q725.306 574.252 727.375 572.227 Q729.458 570.201 729.458 565.832 Q729.458 561.492 727.375 559.481 Q725.306 557.456 720.836 557.456 L717.306 557.456 M714.383 555.054 L720.387 555.054 Q726.666 555.054 729.603 557.673 Q732.54 560.277 732.54 565.832 Q732.54 571.417 729.589 574.035 Q726.637 576.654 720.387 576.654 L714.383 576.654 L714.383 555.054 Z" fill="#000000" fill-rule="evenodd" fill-opacity="1" /><path clip-path="url(#clip680)" d="M 0 0 M749.192 567.887 L749.192 569.189 L736.953 569.189 Q737.126 571.938 738.602 573.384 Q740.092 574.817 742.74 574.817 Q744.273 574.817 745.705 574.44 Q747.152 574.064 748.57 573.312 L748.57 575.829 Q747.138 576.437 745.633 576.755 Q744.128 577.073 742.58 577.073 Q738.703 577.073 736.432 574.817 Q734.175 572.56 734.175 568.711 Q734.175 564.733 736.316 562.403 Q738.472 560.06 742.117 560.06 Q745.387 560.06 747.282 562.172 Q749.192 564.27 749.192 567.887 M746.53 567.105 Q746.501 564.921 745.3 563.619 Q744.114 562.317 742.146 562.317 Q739.918 562.317 738.573 563.575 Q737.242 564.834 737.039 567.12 L746.53 567.105 Z" fill="#000000" fill-rule="evenodd" fill-opacity="1" /><path clip-path="url(#clip680)" d="M 0 0 M762.314 560.928 L762.314 563.445 Q761.186 562.866 759.97 562.577 Q758.755 562.288 757.453 562.288 Q755.471 562.288 754.473 562.895 Q753.489 563.503 753.489 564.718 Q753.489 565.644 754.198 566.179 Q754.907 566.7 757.048 567.178 L757.959 567.38 Q760.795 567.988 761.981 569.102 Q763.182 570.201 763.182 572.183 Q763.182 574.44 761.388 575.757 Q759.609 577.073 756.484 577.073 Q755.182 577.073 753.764 576.813 Q752.36 576.567 750.798 576.061 L750.798 573.312 Q752.274 574.079 753.706 574.469 Q755.138 574.845 756.542 574.845 Q758.422 574.845 759.435 574.209 Q760.448 573.558 760.448 572.386 Q760.448 571.301 759.71 570.722 Q758.987 570.144 756.513 569.608 L755.587 569.391 Q753.113 568.87 752.013 567.8 Q750.914 566.715 750.914 564.834 Q750.914 562.548 752.534 561.304 Q754.154 560.06 757.135 560.06 Q758.61 560.06 759.913 560.277 Q761.215 560.494 762.314 560.928 Z" fill="#000000" fill-rule="evenodd" fill-opacity="1" /><path clip-path="url(#clip680)" d="M 0 0 M765.974 560.45 L768.636 560.45 L768.636 576.654 L765.974 576.654 L765.974 560.45 M765.974 554.142 L768.636 554.142 L768.636 557.513 L765.974 557.513 L765.974 554.142 Z" fill="#000000" fill-rule="evenodd" fill-opacity="1" /><path clip-path="url(#clip680)" d="M 0 0 M782.091 568.364 Q782.091 565.471 780.89 563.879 Q779.704 562.288 777.548 562.288 Q775.407 562.288 774.206 563.879 Q773.02 565.471 773.02 568.364 Q773.02 571.243 774.206 572.834 Q775.407 574.426 777.548 574.426 Q779.704 574.426 780.89 572.834 Q782.091 571.243 782.091 568.364 M784.753 574.643 Q784.753 578.781 782.916 580.792 Q781.079 582.817 777.288 582.817 Q775.885 582.817 774.64 582.6 Q773.396 582.398 772.224 581.963 L772.224 579.374 Q773.396 580.01 774.539 580.314 Q775.682 580.618 776.868 580.618 Q779.487 580.618 780.789 579.244 Q782.091 577.884 782.091 575.12 L782.091 573.804 Q781.267 575.236 779.979 575.945 Q778.691 576.654 776.897 576.654 Q773.917 576.654 772.094 574.383 Q770.271 572.111 770.271 568.364 Q770.271 564.602 772.094 562.331 Q773.917 560.06 776.897 560.06 Q778.691 560.06 779.979 560.769 Q781.267 561.477 782.091 562.91 L782.091 560.45 L784.753 560.45 L784.753 574.643 Z" fill="#000000" fill-rule="evenodd" fill-opacity="1" /><path clip-path="url(#clip680)" d="M 0 0 M801.015 566.874 L801.015 576.654 L798.353 576.654 L798.353 566.961 Q798.353 564.66 797.456 563.517 Q796.559 562.374 794.765 562.374 Q792.609 562.374 791.365 563.749 Q790.121 565.123 790.121 567.496 L790.121 576.654 L787.444 576.654 L787.444 560.45 L790.121 560.45 L790.121 562.968 Q791.076 561.506 792.363 560.783 Q793.665 560.06 795.358 560.06 Q798.15 560.06 799.582 561.796 Q801.015 563.517 801.015 566.874 Z" fill="#000000" fill-rule="evenodd" fill-opacity="1" /><path clip-path="url(#clip680)" d="M 0 0 M816.119 581.573 L816.119 583.642 L800.725 583.642 L800.725 581.573 L816.119 581.573 Z" fill="#000000" fill-rule="evenodd" fill-opacity="1" /><path clip-path="url(#clip680)" d="M 0 0 M829.27 566.527 Q830.21 566.845 831.093 567.887 Q831.99 568.928 832.887 570.751 L835.853 576.654 L832.713 576.654 L829.95 571.113 Q828.879 568.943 827.866 568.234 Q826.868 567.525 825.132 567.525 L821.949 567.525 L821.949 576.654 L819.027 576.654 L819.027 555.054 L825.624 555.054 Q829.328 555.054 831.151 556.602 Q832.973 558.15 832.973 561.275 Q832.973 563.315 832.019 564.66 Q831.078 566.006 829.27 566.527 M821.949 557.456 L821.949 565.123 L825.624 565.123 Q827.736 565.123 828.807 564.154 Q829.892 563.17 829.892 561.275 Q829.892 559.38 828.807 558.425 Q827.736 557.456 825.624 557.456 L821.949 557.456 Z" fill="#000000" fill-rule="evenodd" fill-opacity="1" /><path clip-path="url(#clip680)" d="M 0 0 M851.174 567.887 L851.174 569.189 L838.934 569.189 Q839.108 571.938 840.583 573.384 Q842.074 574.817 844.721 574.817 Q846.255 574.817 847.687 574.44 Q849.134 574.064 850.552 573.312 L850.552 575.829 Q849.119 576.437 847.615 576.755 Q846.11 577.073 844.562 577.073 Q840.685 577.073 838.413 574.817 Q836.156 572.56 836.156 568.711 Q836.156 564.733 838.298 562.403 Q840.453 560.06 844.099 560.06 Q847.369 560.06 849.264 562.172 Q851.174 564.27 851.174 567.887 M848.512 567.105 Q848.483 564.921 847.282 563.619 Q846.096 562.317 844.128 562.317 Q841.9 562.317 840.554 563.575 Q839.223 564.834 839.021 567.12 L848.512 567.105 Z" fill="#000000" fill-rule="evenodd" fill-opacity="1" /><path clip-path="url(#clip680)" d="M 0 0 M861.33 568.509 Q858.104 568.509 856.859 569.247 Q855.615 569.984 855.615 571.764 Q855.615 573.182 856.541 574.021 Q857.481 574.845 859.087 574.845 Q861.301 574.845 862.632 573.283 Q863.977 571.706 863.977 569.102 L863.977 568.509 L861.33 568.509 M866.639 567.409 L866.639 576.654 L863.977 576.654 L863.977 574.194 Q863.066 575.67 861.706 576.379 Q860.346 577.073 858.378 577.073 Q855.89 577.073 854.414 575.685 Q852.953 574.281 852.953 571.938 Q852.953 569.203 854.776 567.814 Q856.613 566.425 860.245 566.425 L863.977 566.425 L863.977 566.165 Q863.977 564.328 862.762 563.329 Q861.561 562.317 859.377 562.317 Q857.988 562.317 856.671 562.649 Q855.355 562.982 854.139 563.648 L854.139 561.188 Q855.601 560.624 856.975 560.349 Q858.35 560.06 859.652 560.06 Q863.167 560.06 864.903 561.883 Q866.639 563.705 866.639 567.409 Z" fill="#000000" fill-rule="evenodd" fill-opacity="1" /><path clip-path="url(#clip680)" d="M 0 0 M879.761 560.928 L879.761 563.445 Q878.633 562.866 877.418 562.577 Q876.202 562.288 874.9 562.288 Q872.918 562.288 871.92 562.895 Q870.936 563.503 870.936 564.718 Q870.936 565.644 871.645 566.179 Q872.354 566.7 874.495 567.178 L875.407 567.38 Q878.242 567.988 879.429 569.102 Q880.629 570.201 880.629 572.183 Q880.629 574.44 878.836 575.757 Q877.056 577.073 873.931 577.073 Q872.629 577.073 871.211 576.813 Q869.808 576.567 868.245 576.061 L868.245 573.312 Q869.721 574.079 871.153 574.469 Q872.586 574.845 873.989 574.845 Q875.87 574.845 876.882 574.209 Q877.895 573.558 877.895 572.386 Q877.895 571.301 877.157 570.722 Q876.434 570.144 873.96 569.608 L873.034 569.391 Q870.56 568.87 869.461 567.8 Q868.361 566.715 868.361 564.834 Q868.361 562.548 869.981 561.304 Q871.602 560.06 874.582 560.06 Q876.058 560.06 877.36 560.277 Q878.662 560.494 879.761 560.928 Z" fill="#000000" fill-rule="evenodd" fill-opacity="1" /><path clip-path="url(#clip680)" d="M 0 0 M889.701 562.317 Q887.559 562.317 886.315 563.995 Q885.071 565.659 885.071 568.567 Q885.071 571.475 886.301 573.153 Q887.545 574.817 889.701 574.817 Q891.827 574.817 893.072 573.138 Q894.316 571.46 894.316 568.567 Q894.316 565.688 893.072 564.009 Q891.827 562.317 889.701 562.317 M889.701 560.06 Q893.173 560.06 895.155 562.317 Q897.137 564.574 897.137 568.567 Q897.137 572.545 895.155 574.817 Q893.173 577.073 889.701 577.073 Q886.214 577.073 884.232 574.817 Q882.264 572.545 882.264 568.567 Q882.264 564.574 884.232 562.317 Q886.214 560.06 889.701 560.06 Z" fill="#000000" fill-rule="evenodd" fill-opacity="1" /><path clip-path="url(#clip680)" d="M 0 0 M913.398 566.874 L913.398 576.654 L910.736 576.654 L910.736 566.961 Q910.736 564.66 909.839 563.517 Q908.942 562.374 907.148 562.374 Q904.993 562.374 903.749 563.749 Q902.504 565.123 902.504 567.496 L902.504 576.654 L899.828 576.654 L899.828 560.45 L902.504 560.45 L902.504 562.968 Q903.459 561.506 904.747 560.783 Q906.049 560.06 907.742 560.06 Q910.534 560.06 911.966 561.796 Q913.398 563.517 913.398 566.874 Z" fill="#000000" fill-rule="evenodd" fill-opacity="1" /><path clip-path="url(#clip680)" d="M 0 0 M916.191 560.45 L918.853 560.45 L918.853 576.654 L916.191 576.654 L916.191 560.45 M916.191 554.142 L918.853 554.142 L918.853 557.513 L916.191 557.513 L916.191 554.142 Z" fill="#000000" fill-rule="evenodd" fill-opacity="1" /><path clip-path="url(#clip680)" d="M 0 0 M935.114 566.874 L935.114 576.654 L932.452 576.654 L932.452 566.961 Q932.452 564.66 931.555 563.517 Q930.658 562.374 928.864 562.374 Q926.709 562.374 925.464 563.749 Q924.22 565.123 924.22 567.496 L924.22 576.654 L921.544 576.654 L921.544 560.45 L924.22 560.45 L924.22 562.968 Q925.175 561.506 926.463 560.783 Q927.765 560.06 929.457 560.06 Q932.25 560.06 933.682 561.796 Q935.114 563.517 935.114 566.874 Z" fill="#000000" fill-rule="evenodd" fill-opacity="1" /><path clip-path="url(#clip680)" d="M 0 0 M948.569 568.364 Q948.569 565.471 947.368 563.879 Q946.182 562.288 944.026 562.288 Q941.885 562.288 940.684 563.879 Q939.498 565.471 939.498 568.364 Q939.498 571.243 940.684 572.834 Q941.885 574.426 944.026 574.426 Q946.182 574.426 947.368 572.834 Q948.569 571.243 948.569 568.364 M951.231 574.643 Q951.231 578.781 949.394 580.792 Q947.556 582.817 943.766 582.817 Q942.362 582.817 941.118 582.6 Q939.874 582.398 938.702 581.963 L938.702 579.374 Q939.874 580.01 941.017 580.314 Q942.16 580.618 943.346 580.618 Q945.965 580.618 947.267 579.244 Q948.569 577.884 948.569 575.12 L948.569 573.804 Q947.744 575.236 946.457 575.945 Q945.169 576.654 943.375 576.654 Q940.395 576.654 938.572 574.383 Q936.749 572.111 936.749 568.364 Q936.749 564.602 938.572 562.331 Q940.395 560.06 943.375 560.06 Q945.169 560.06 946.457 560.769 Q947.744 561.477 948.569 562.91 L948.569 560.45 L951.231 560.45 L951.231 574.643 Z" fill="#000000" fill-rule="evenodd" fill-opacity="1" /><path clip-path="url(#clip680)" d="M 0 0 M1290.43 1593.73 L1290.43 1596.81 Q1288.95 1595.44 1287.27 1594.76 Q1285.61 1594.08 1283.73 1594.08 Q1280.02 1594.08 1278.06 1596.35 Q1276.09 1598.61 1276.09 1602.89 Q1276.09 1607.16 1278.06 1609.43 Q1280.02 1611.68 1283.73 1611.68 Q1285.61 1611.68 1287.27 1611 Q1288.95 1610.32 1290.43 1608.95 L1290.43 1612 Q1288.89 1613.04 1287.17 1613.56 Q1285.46 1614.09 1283.55 1614.09 Q1278.65 1614.09 1275.83 1611.09 Q1273.01 1608.08 1273.01 1602.89 Q1273.01 1597.68 1275.83 1594.68 Q1278.65 1591.68 1283.55 1591.68 Q1285.49 1591.68 1287.2 1592.2 Q1288.92 1592.7 1290.43 1593.73 Z" fill="#000000" fill-rule="evenodd" fill-opacity="1" /><path clip-path="url(#clip680)" d="M 0 0 M1299.5 1599.33 Q1297.36 1599.33 1296.11 1601.01 Q1294.87 1602.67 1294.87 1605.58 Q1294.87 1608.49 1296.1 1610.17 Q1297.34 1611.83 1299.5 1611.83 Q1301.62 1611.83 1302.87 1610.15 Q1304.11 1608.47 1304.11 1605.58 Q1304.11 1602.7 1302.87 1601.02 Q1301.62 1599.33 1299.5 1599.33 M1299.5 1597.07 Q1302.97 1597.07 1304.95 1599.33 Q1306.93 1601.59 1306.93 1605.58 Q1306.93 1609.56 1304.95 1611.83 Q1302.97 1614.09 1299.5 1614.09 Q1296.01 1614.09 1294.03 1611.83 Q1292.06 1609.56 1292.06 1605.58 Q1292.06 1601.59 1294.03 1599.33 Q1296.01 1597.07 1299.5 1597.07 Z" fill="#000000" fill-rule="evenodd" fill-opacity="1" /><path clip-path="url(#clip680)" d="M 0 0 M1309.73 1591.15 L1312.39 1591.15 L1312.39 1613.67 L1309.73 1613.67 L1309.73 1591.15 Z" fill="#000000" fill-rule="evenodd" fill-opacity="1" /><path clip-path="url(#clip680)" d="M 0 0 M1315.18 1591.15 L1317.84 1591.15 L1317.84 1613.67 L1315.18 1613.67 L1315.18 1591.15 Z" fill="#000000" fill-rule="evenodd" fill-opacity="1" /><path clip-path="url(#clip680)" d="M 0 0 M1328 1605.52 Q1324.77 1605.52 1323.53 1606.26 Q1322.28 1607 1322.28 1608.78 Q1322.28 1610.19 1323.21 1611.03 Q1324.15 1611.86 1325.76 1611.86 Q1327.97 1611.86 1329.3 1610.3 Q1330.65 1608.72 1330.65 1606.11 L1330.65 1605.52 L1328 1605.52 M1333.31 1604.42 L1333.31 1613.67 L1330.65 1613.67 L1330.65 1611.21 Q1329.73 1612.68 1328.37 1613.39 Q1327.01 1614.09 1325.05 1614.09 Q1322.56 1614.09 1321.08 1612.7 Q1319.62 1611.29 1319.62 1608.95 Q1319.62 1606.22 1321.44 1604.83 Q1323.28 1603.44 1326.91 1603.44 L1330.65 1603.44 L1330.65 1603.18 Q1330.65 1601.34 1329.43 1600.34 Q1328.23 1599.33 1326.04 1599.33 Q1324.66 1599.33 1323.34 1599.66 Q1322.02 1599.99 1320.81 1600.66 L1320.81 1598.2 Q1322.27 1597.64 1323.64 1597.36 Q1325.02 1597.07 1326.32 1597.07 Q1329.84 1597.07 1331.57 1598.89 Q1333.31 1600.72 1333.31 1604.42 Z" fill="#000000" fill-rule="evenodd" fill-opacity="1" /><path clip-path="url(#clip680)" d="M 0 0 M1347.73 1605.58 Q1347.73 1602.64 1346.52 1600.98 Q1345.32 1599.3 1343.2 1599.3 Q1341.09 1599.3 1339.88 1600.98 Q1338.67 1602.64 1338.67 1605.58 Q1338.67 1608.52 1339.88 1610.19 Q1341.09 1611.86 1343.2 1611.86 Q1345.32 1611.86 1346.52 1610.19 Q1347.73 1608.52 1347.73 1605.58 M1338.67 1599.92 Q1339.51 1598.48 1340.79 1597.78 Q1342.07 1597.07 1343.85 1597.07 Q1346.81 1597.07 1348.64 1599.42 Q1350.49 1601.76 1350.49 1605.58 Q1350.49 1609.4 1348.64 1611.74 Q1346.81 1614.09 1343.85 1614.09 Q1342.07 1614.09 1340.79 1613.39 Q1339.51 1612.68 1338.67 1611.24 L1338.67 1613.67 L1336 1613.67 L1336 1591.15 L1338.67 1591.15 L1338.67 1599.92 Z" fill="#000000" fill-rule="evenodd" fill-opacity="1" /><path clip-path="url(#clip680)" d="M 0 0 M1359.57 1599.33 Q1357.42 1599.33 1356.18 1601.01 Q1354.94 1602.67 1354.94 1605.58 Q1354.94 1608.49 1356.17 1610.17 Q1357.41 1611.83 1359.57 1611.83 Q1361.69 1611.83 1362.94 1610.15 Q1364.18 1608.47 1364.18 1605.58 Q1364.18 1602.7 1362.94 1601.02 Q1361.69 1599.33 1359.57 1599.33 M1359.57 1597.07 Q1363.04 1597.07 1365.02 1599.33 Q1367 1601.59 1367 1605.58 Q1367 1609.56 1365.02 1611.83 Q1363.04 1614.09 1359.57 1614.09 Q1356.08 1614.09 1354.1 1611.83 Q1352.13 1609.56 1352.13 1605.58 Q1352.13 1601.59 1354.1 1599.33 Q1356.08 1597.07 1359.57 1597.07 Z" fill="#000000" fill-rule="evenodd" fill-opacity="1" /><path clip-path="url(#clip680)" d="M 0 0 M1379.18 1599.95 Q1378.74 1599.69 1378.2 1599.57 Q1377.68 1599.44 1377.04 1599.44 Q1374.79 1599.44 1373.57 1600.92 Q1372.37 1602.38 1372.37 1605.13 L1372.37 1613.67 L1369.69 1613.67 L1369.69 1597.46 L1372.37 1597.46 L1372.37 1599.98 Q1373.21 1598.5 1374.55 1597.8 Q1375.9 1597.07 1377.82 1597.07 Q1378.1 1597.07 1378.43 1597.12 Q1378.76 1597.14 1379.17 1597.22 L1379.18 1599.95 Z" fill="#000000" fill-rule="evenodd" fill-opacity="1" /><path clip-path="url(#clip680)" d="M 0 0 M1389.34 1605.52 Q1386.11 1605.52 1384.87 1606.26 Q1383.63 1607 1383.63 1608.78 Q1383.63 1610.19 1384.55 1611.03 Q1385.49 1611.86 1387.1 1611.86 Q1389.31 1611.86 1390.64 1610.3 Q1391.99 1608.72 1391.99 1606.11 L1391.99 1605.52 L1389.34 1605.52 M1394.65 1604.42 L1394.65 1613.67 L1391.99 1613.67 L1391.99 1611.21 Q1391.08 1612.68 1389.72 1613.39 Q1388.36 1614.09 1386.39 1614.09 Q1383.9 1614.09 1382.42 1612.7 Q1380.96 1611.29 1380.96 1608.95 Q1380.96 1606.22 1382.79 1604.83 Q1384.62 1603.44 1388.26 1603.44 L1391.99 1603.44 L1391.99 1603.18 Q1391.99 1601.34 1390.77 1600.34 Q1389.57 1599.33 1387.39 1599.33 Q1386 1599.33 1384.68 1599.66 Q1383.37 1599.99 1382.15 1600.66 L1382.15 1598.2 Q1383.61 1597.64 1384.99 1597.36 Q1386.36 1597.07 1387.66 1597.07 Q1391.18 1597.07 1392.91 1598.89 Q1394.65 1600.72 1394.65 1604.42 Z" fill="#000000" fill-rule="evenodd" fill-opacity="1" /><path clip-path="url(#clip680)" d="M 0 0 M1400.08 1592.86 L1400.08 1597.46 L1405.56 1597.46 L1405.56 1599.53 L1400.08 1599.53 L1400.08 1608.33 Q1400.08 1610.31 1400.61 1610.87 Q1401.16 1611.44 1402.82 1611.44 L1405.56 1611.44 L1405.56 1613.67 L1402.82 1613.67 Q1399.74 1613.67 1398.57 1612.52 Q1397.4 1611.37 1397.4 1608.33 L1397.4 1599.53 L1395.45 1599.53 L1395.45 1597.46 L1397.4 1597.46 L1397.4 1592.86 L1400.08 1592.86 Z" fill="#000000" fill-rule="evenodd" fill-opacity="1" /><path clip-path="url(#clip680)" d="M 0 0 M1408.35 1597.46 L1411.01 1597.46 L1411.01 1613.67 L1408.35 1613.67 L1408.35 1597.46 M1408.35 1591.15 L1411.01 1591.15 L1411.01 1594.53 L1408.35 1594.53 L1408.35 1591.15 Z" fill="#000000" fill-rule="evenodd" fill-opacity="1" /><path clip-path="url(#clip680)" d="M 0 0 M1420.08 1599.33 Q1417.94 1599.33 1416.7 1601.01 Q1415.45 1602.67 1415.45 1605.58 Q1415.45 1608.49 1416.68 1610.17 Q1417.93 1611.83 1420.08 1611.83 Q1422.21 1611.83 1423.45 1610.15 Q1424.7 1608.47 1424.7 1605.58 Q1424.7 1602.7 1423.45 1601.02 Q1422.21 1599.33 1420.08 1599.33 M1420.08 1597.07 Q1423.56 1597.07 1425.54 1599.33 Q1427.52 1601.59 1427.52 1605.58 Q1427.52 1609.56 1425.54 1611.83 Q1423.56 1614.09 1420.08 1614.09 Q1416.6 1614.09 1414.61 1611.83 Q1412.65 1609.56 1412.65 1605.58 Q1412.65 1601.59 1414.61 1599.33 Q1416.6 1597.07 1420.08 1597.07 Z" fill="#000000" fill-rule="evenodd" fill-opacity="1" /><path clip-path="url(#clip680)" d="M 0 0 M1443.78 1603.89 L1443.78 1613.67 L1441.12 1613.67 L1441.12 1603.97 Q1441.12 1601.67 1440.22 1600.53 Q1439.33 1599.39 1437.53 1599.39 Q1435.38 1599.39 1434.13 1600.76 Q1432.89 1602.14 1432.89 1604.51 L1432.89 1613.67 L1430.21 1613.67 L1430.21 1597.46 L1432.89 1597.46 L1432.89 1599.98 Q1433.84 1598.52 1435.13 1597.8 Q1436.43 1597.07 1438.12 1597.07 Q1440.92 1597.07 1442.35 1598.81 Q1443.78 1600.53 1443.78 1603.89 Z" fill="#000000" fill-rule="evenodd" fill-opacity="1" /><path clip-path="url(#clip682)" d="M1065.94 980.03 L1065.94 1012.03 L1097.94 1012.03 L1097.94 980.03 L1065.94 980.03 Z" fill="#800080" fill-rule="evenodd" fill-opacity="1" stroke="none"/>
<polyline clip-path="url(#clip682)" style="stroke:#800080; stroke-width:4; stroke-opacity:1; fill:none" stroke-dasharray="16, 10" points="
  1037.75,1040 1126.14,1040 
  "/>
<polyline clip-path="url(#clip682)" style="stroke:#800080; stroke-width:4; stroke-opacity:1; fill:none" stroke-dasharray="16, 10" points="
  1037.75,952.056 1126.14,952.056 
  "/>
<polyline clip-path="url(#clip682)" style="stroke:#800080; stroke-width:4; stroke-opacity:1; fill:none" stroke-dasharray="16, 10" points="
  1037.75,1040 1037.75,952.056 
  "/>
<polyline clip-path="url(#clip682)" style="stroke:#800080; stroke-width:4; stroke-opacity:1; fill:none" stroke-dasharray="16, 10" points="
  1126.14,1040 1126.14,952.056 
  "/>
<path clip-path="url(#clip682)" d="M945.888 933.505 L945.888 965.505 L977.888 965.505 L977.888 933.505 L945.888 933.505 Z" fill="#ffa500" fill-rule="evenodd" fill-opacity="1" stroke="none"/>
<polyline clip-path="url(#clip682)" style="stroke:#ffa500; stroke-width:4; stroke-opacity:1; fill:none" stroke-dasharray="16, 10" points="
  920.508,992.619 1003.27,992.619 
  "/>
<polyline clip-path="url(#clip682)" style="stroke:#ffa500; stroke-width:4; stroke-opacity:1; fill:none" stroke-dasharray="16, 10" points="
  920.508,906.39 1003.27,906.39 
  "/>
<polyline clip-path="url(#clip682)" style="stroke:#ffa500; stroke-width:4; stroke-opacity:1; fill:none" stroke-dasharray="16, 10" points="
  920.508,992.619 920.508,906.39 
  "/>
<polyline clip-path="url(#clip682)" style="stroke:#ffa500; stroke-width:4; stroke-opacity:1; fill:none" stroke-dasharray="16, 10" points="
  1003.27,992.619 1003.27,906.39 
  "/>
</svg>
