<?xml version="1.0" encoding="utf-8"?>
<svg xmlns="http://www.w3.org/2000/svg" xmlns:xlink="http://www.w3.org/1999/xlink" width="600" height="400" viewBox="0 0 2400 1600">
<defs>
  <clipPath id="clip590">
    <rect x="0" y="0" width="2400" height="1600"/>
  </clipPath>
</defs>
<path clip-path="url(#clip590)" d="
M0 1600 L2400 1600 L2400 0 L0 0  Z
  " fill="#ffffff" fill-rule="evenodd" fill-opacity="1"/>
<defs>
  <clipPath id="clip591">
    <rect x="480" y="0" width="1681" height="1600"/>
  </clipPath>
</defs>
<path clip-path="url(#clip590)" d="
M86.9921 1521.01 L2352.76 1521.01 L2352.76 47.2441 L86.9921 47.2441  Z
  " fill="#ffffff" fill-rule="evenodd" fill-opacity="1"/>
<defs>
  <clipPath id="clip592">
    <rect x="86" y="47" width="2267" height="1475"/>
  </clipPath>
</defs>
<polyline clip-path="url(#clip592)" style="stroke:#000000; stroke-width:2; stroke-opacity:0.1; fill:none" points="
  1542.24,1521.01 1542.24,47.2441 
  "/>
<polyline clip-path="url(#clip592)" style="stroke:#000000; stroke-width:2; stroke-opacity:0.1; fill:none" points="
  86.9921,876.368 2352.76,876.368 
  "/>
<polyline clip-path="url(#clip590)" style="stroke:#000000; stroke-width:4; stroke-opacity:1; fill:none" points="
  86.9921,1521.01 2352.76,1521.01 
  "/>
<polyline clip-path="url(#clip590)" style="stroke:#000000; stroke-width:4; stroke-opacity:1; fill:none" points="
  86.9921,1521.01 86.9921,47.2441 
  "/>
<polyline clip-path="url(#clip590)" style="stroke:#000000; stroke-width:4; stroke-opacity:1; fill:none" points="
  1542.24,1521.01 1542.24,1503.32 
  "/>
<polyline clip-path="url(#clip590)" style="stroke:#000000; stroke-width:4; stroke-opacity:1; fill:none" points="
  86.9921,876.368 114.181,876.368 
  "/>
<path clip-path="url(#clip590)" d="M 0 0 M1542.24 1543 Q1538.63 1543 1536.8 1546.56 Q1534.99 1550.11 1534.99 1557.23 Q1534.99 1564.34 1536.8 1567.91 Q1538.63 1571.45 1542.24 1571.45 Q1545.87 1571.45 1547.68 1567.91 Q1549.51 1564.34 1549.51 1557.23 Q1549.51 1550.11 1547.68 1546.56 Q1545.87 1543 1542.24 1543 M1542.24 1539.29 Q1548.05 1539.29 1551.11 1543.9 Q1554.18 1548.48 1554.18 1557.23 Q1554.18 1565.96 1551.11 1570.57 Q1548.05 1575.15 1542.24 1575.15 Q1536.43 1575.15 1533.35 1570.57 Q1530.3 1565.96 1530.3 1557.23 Q1530.3 1548.48 1533.35 1543.9 Q1536.43 1539.29 1542.24 1539.29 Z" fill="#000000" fill-rule="evenodd" fill-opacity="1" /><path clip-path="url(#clip590)" d="M 0 0 M51.0477 862.166 Q47.4367 862.166 45.608 865.731 Q43.8024 869.273 43.8024 876.402 Q43.8024 883.509 45.608 887.074 Q47.4367 890.615 51.0477 890.615 Q54.682 890.615 56.4875 887.074 Q58.3162 883.509 58.3162 876.402 Q58.3162 869.273 56.4875 865.731 Q54.682 862.166 51.0477 862.166 M51.0477 858.463 Q56.8579 858.463 59.9134 863.069 Q62.9921 867.652 62.9921 876.402 Q62.9921 885.129 59.9134 889.736 Q56.8579 894.319 51.0477 894.319 Q45.2376 894.319 42.1589 889.736 Q39.1034 885.129 39.1034 876.402 Q39.1034 867.652 42.1589 863.069 Q45.2376 858.463 51.0477 858.463 Z" fill="#000000" fill-rule="evenodd" fill-opacity="1" /><circle clip-path="url(#clip592)" cx="1562.86" cy="928.008" r="14" fill="#808080" fill-rule="evenodd" fill-opacity="1" stroke="none"/>
<circle clip-path="url(#clip592)" cx="1510.78" cy="864.705" r="14" fill="#808080" fill-rule="evenodd" fill-opacity="1" stroke="none"/>
<circle clip-path="url(#clip592)" cx="1488.51" cy="886.225" r="14" fill="#808080" fill-rule="evenodd" fill-opacity="1" stroke="none"/>
<circle clip-path="url(#clip592)" cx="1531.89" cy="871.997" r="14" fill="#808080" fill-rule="evenodd" fill-opacity="1" stroke="none"/>
<circle clip-path="url(#clip592)" cx="1351.72" cy="1018.74" r="14" fill="#808080" fill-rule="evenodd" fill-opacity="1" stroke="none"/>
<circle clip-path="url(#clip592)" cx="1454.67" cy="911.61" r="14" fill="#808080" fill-rule="evenodd" fill-opacity="1" stroke="none"/>
<circle clip-path="url(#clip592)" cx="1083.35" cy="1047.08" r="14" fill="#808080" fill-rule="evenodd" fill-opacity="1" stroke="none"/>
<circle clip-path="url(#clip592)" cx="1458.52" cy="881.495" r="14" fill="#808080" fill-rule="evenodd" fill-opacity="1" stroke="none"/>
<circle clip-path="url(#clip592)" cx="1523.54" cy="890.983" r="14" fill="#808080" fill-rule="evenodd" fill-opacity="1" stroke="none"/>
<circle clip-path="url(#clip592)" cx="1498.27" cy="922.474" r="14" fill="#808080" fill-rule="evenodd" fill-opacity="1" stroke="none"/>
<circle clip-path="url(#clip592)" cx="1266.51" cy="788.129" r="14" fill="#808080" fill-rule="evenodd" fill-opacity="1" stroke="none"/>
<circle clip-path="url(#clip592)" cx="1571.32" cy="938.909" r="14" fill="#808080" fill-rule="evenodd" fill-opacity="1" stroke="none"/>
<circle clip-path="url(#clip592)" cx="1461.66" cy="840.182" r="14" fill="#808080" fill-rule="evenodd" fill-opacity="1" stroke="none"/>
<circle clip-path="url(#clip592)" cx="1351.72" cy="1018.74" r="14" fill="#808080" fill-rule="evenodd" fill-opacity="1" stroke="none"/>
<circle clip-path="url(#clip592)" cx="1532.96" cy="866.813" r="14" fill="#808080" fill-rule="evenodd" fill-opacity="1" stroke="none"/>
<circle clip-path="url(#clip592)" cx="1523.42" cy="925.026" r="14" fill="#808080" fill-rule="evenodd" fill-opacity="1" stroke="none"/>
<circle clip-path="url(#clip592)" cx="1469.7" cy="946.464" r="14" fill="#808080" fill-rule="evenodd" fill-opacity="1" stroke="none"/>
<circle clip-path="url(#clip592)" cx="1496.14" cy="968.046" r="14" fill="#808080" fill-rule="evenodd" fill-opacity="1" stroke="none"/>
<circle clip-path="url(#clip592)" cx="1515.16" cy="931.789" r="14" fill="#808080" fill-rule="evenodd" fill-opacity="1" stroke="none"/>
<circle clip-path="url(#clip592)" cx="1534.4" cy="854.368" r="14" fill="#808080" fill-rule="evenodd" fill-opacity="1" stroke="none"/>
<circle clip-path="url(#clip592)" cx="1374.64" cy="1053.69" r="14" fill="#808080" fill-rule="evenodd" fill-opacity="1" stroke="none"/>
<circle clip-path="url(#clip592)" cx="1640.63" cy="928.261" r="14" fill="#808080" fill-rule="evenodd" fill-opacity="1" stroke="none"/>
<circle clip-path="url(#clip592)" cx="1645.58" cy="958.968" r="14" fill="#808080" fill-rule="evenodd" fill-opacity="1" stroke="none"/>
<circle clip-path="url(#clip592)" cx="1644.75" cy="914.07" r="14" fill="#808080" fill-rule="evenodd" fill-opacity="1" stroke="none"/>
<circle clip-path="url(#clip592)" cx="1583.52" cy="933.56" r="14" fill="#808080" fill-rule="evenodd" fill-opacity="1" stroke="none"/>
<circle clip-path="url(#clip592)" cx="1613.61" cy="974.981" r="14" fill="#808080" fill-rule="evenodd" fill-opacity="1" stroke="none"/>
<circle clip-path="url(#clip592)" cx="1466.51" cy="874.646" r="14" fill="#808080" fill-rule="evenodd" fill-opacity="1" stroke="none"/>
<circle clip-path="url(#clip592)" cx="1514.24" cy="820.661" r="14" fill="#808080" fill-rule="evenodd" fill-opacity="1" stroke="none"/>
<circle clip-path="url(#clip592)" cx="1359.02" cy="983.355" r="14" fill="#808080" fill-rule="evenodd" fill-opacity="1" stroke="none"/>
<circle clip-path="url(#clip592)" cx="1527.06" cy="920.082" r="14" fill="#808080" fill-rule="evenodd" fill-opacity="1" stroke="none"/>
<circle clip-path="url(#clip592)" cx="1530.9" cy="848.526" r="14" fill="#808080" fill-rule="evenodd" fill-opacity="1" stroke="none"/>
<circle clip-path="url(#clip592)" cx="1583.65" cy="982.198" r="14" fill="#808080" fill-rule="evenodd" fill-opacity="1" stroke="none"/>
<circle clip-path="url(#clip592)" cx="1502.07" cy="847.847" r="14" fill="#808080" fill-rule="evenodd" fill-opacity="1" stroke="none"/>
<circle clip-path="url(#clip592)" cx="1561.65" cy="898.473" r="14" fill="#808080" fill-rule="evenodd" fill-opacity="1" stroke="none"/>
<circle clip-path="url(#clip592)" cx="1475.68" cy="764.614" r="14" fill="#808080" fill-rule="evenodd" fill-opacity="1" stroke="none"/>
<circle clip-path="url(#clip592)" cx="1449.47" cy="762.271" r="14" fill="#808080" fill-rule="evenodd" fill-opacity="1" stroke="none"/>
<circle clip-path="url(#clip592)" cx="1643.9" cy="818.611" r="14" fill="#808080" fill-rule="evenodd" fill-opacity="1" stroke="none"/>
<circle clip-path="url(#clip592)" cx="1529" cy="742.889" r="14" fill="#808080" fill-rule="evenodd" fill-opacity="1" stroke="none"/>
<circle clip-path="url(#clip592)" cx="1598.02" cy="765.737" r="14" fill="#808080" fill-rule="evenodd" fill-opacity="1" stroke="none"/>
<circle clip-path="url(#clip592)" cx="1699.14" cy="809.579" r="14" fill="#808080" fill-rule="evenodd" fill-opacity="1" stroke="none"/>
<circle clip-path="url(#clip592)" cx="1498.65" cy="747.335" r="14" fill="#808080" fill-rule="evenodd" fill-opacity="1" stroke="none"/>
<circle clip-path="url(#clip592)" cx="1675.12" cy="801.582" r="14" fill="#808080" fill-rule="evenodd" fill-opacity="1" stroke="none"/>
<circle clip-path="url(#clip592)" cx="1446.13" cy="865.087" r="14" fill="#808080" fill-rule="evenodd" fill-opacity="1" stroke="none"/>
<circle clip-path="url(#clip592)" cx="1475.4" cy="776.761" r="14" fill="#808080" fill-rule="evenodd" fill-opacity="1" stroke="none"/>
<circle clip-path="url(#clip592)" cx="1364.87" cy="748.887" r="14" fill="#808080" fill-rule="evenodd" fill-opacity="1" stroke="none"/>
<circle clip-path="url(#clip592)" cx="1269.6" cy="767.59" r="14" fill="#808080" fill-rule="evenodd" fill-opacity="1" stroke="none"/>
<circle clip-path="url(#clip592)" cx="1242.62" cy="900.292" r="14" fill="#808080" fill-rule="evenodd" fill-opacity="1" stroke="none"/>
<circle clip-path="url(#clip592)" cx="1470.69" cy="815.245" r="14" fill="#808080" fill-rule="evenodd" fill-opacity="1" stroke="none"/>
<circle clip-path="url(#clip592)" cx="1446.11" cy="825.183" r="14" fill="#808080" fill-rule="evenodd" fill-opacity="1" stroke="none"/>
<circle clip-path="url(#clip592)" cx="1446.67" cy="743.03" r="14" fill="#808080" fill-rule="evenodd" fill-opacity="1" stroke="none"/>
<circle clip-path="url(#clip592)" cx="1462.06" cy="808.155" r="14" fill="#808080" fill-rule="evenodd" fill-opacity="1" stroke="none"/>
<circle clip-path="url(#clip592)" cx="1421.58" cy="821.965" r="14" fill="#808080" fill-rule="evenodd" fill-opacity="1" stroke="none"/>
<circle clip-path="url(#clip592)" cx="1480.61" cy="975.068" r="14" fill="#808080" fill-rule="evenodd" fill-opacity="1" stroke="none"/>
<circle clip-path="url(#clip592)" cx="1483.53" cy="1039.69" r="14" fill="#808080" fill-rule="evenodd" fill-opacity="1" stroke="none"/>
<circle clip-path="url(#clip592)" cx="1636.68" cy="853.938" r="14" fill="#808080" fill-rule="evenodd" fill-opacity="1" stroke="none"/>
<circle clip-path="url(#clip592)" cx="1530.84" cy="996.365" r="14" fill="#808080" fill-rule="evenodd" fill-opacity="1" stroke="none"/>
<circle clip-path="url(#clip592)" cx="1708.57" cy="854.822" r="14" fill="#808080" fill-rule="evenodd" fill-opacity="1" stroke="none"/>
<circle clip-path="url(#clip592)" cx="1597.72" cy="899.662" r="14" fill="#808080" fill-rule="evenodd" fill-opacity="1" stroke="none"/>
<circle clip-path="url(#clip592)" cx="1626.14" cy="927.422" r="14" fill="#808080" fill-rule="evenodd" fill-opacity="1" stroke="none"/>
<circle clip-path="url(#clip592)" cx="1615.94" cy="890.884" r="14" fill="#808080" fill-rule="evenodd" fill-opacity="1" stroke="none"/>
<circle clip-path="url(#clip592)" cx="1620.31" cy="945.88" r="14" fill="#808080" fill-rule="evenodd" fill-opacity="1" stroke="none"/>
<circle clip-path="url(#clip592)" cx="1570.7" cy="894.037" r="14" fill="#808080" fill-rule="evenodd" fill-opacity="1" stroke="none"/>
<circle clip-path="url(#clip592)" cx="1637.46" cy="891.592" r="14" fill="#808080" fill-rule="evenodd" fill-opacity="1" stroke="none"/>
<circle clip-path="url(#clip592)" cx="1623.6" cy="863.153" r="14" fill="#808080" fill-rule="evenodd" fill-opacity="1" stroke="none"/>
<circle clip-path="url(#clip592)" cx="1567.36" cy="904.666" r="14" fill="#808080" fill-rule="evenodd" fill-opacity="1" stroke="none"/>
<circle clip-path="url(#clip592)" cx="1634.49" cy="921.045" r="14" fill="#808080" fill-rule="evenodd" fill-opacity="1" stroke="none"/>
<circle clip-path="url(#clip592)" cx="1665.09" cy="910.604" r="14" fill="#808080" fill-rule="evenodd" fill-opacity="1" stroke="none"/>
<circle clip-path="url(#clip592)" cx="1645.9" cy="955.187" r="14" fill="#808080" fill-rule="evenodd" fill-opacity="1" stroke="none"/>
<circle clip-path="url(#clip592)" cx="1656.72" cy="970.263" r="14" fill="#808080" fill-rule="evenodd" fill-opacity="1" stroke="none"/>
<circle clip-path="url(#clip592)" cx="1631.41" cy="956.293" r="14" fill="#808080" fill-rule="evenodd" fill-opacity="1" stroke="none"/>
<circle clip-path="url(#clip592)" cx="1655.93" cy="885.119" r="14" fill="#808080" fill-rule="evenodd" fill-opacity="1" stroke="none"/>
<circle clip-path="url(#clip592)" cx="1585.06" cy="907.634" r="14" fill="#808080" fill-rule="evenodd" fill-opacity="1" stroke="none"/>
<circle clip-path="url(#clip592)" cx="1635.39" cy="902.868" r="14" fill="#808080" fill-rule="evenodd" fill-opacity="1" stroke="none"/>
<circle clip-path="url(#clip592)" cx="1708.01" cy="800.354" r="14" fill="#808080" fill-rule="evenodd" fill-opacity="1" stroke="none"/>
<circle clip-path="url(#clip592)" cx="1721.55" cy="880.757" r="14" fill="#808080" fill-rule="evenodd" fill-opacity="1" stroke="none"/>
<circle clip-path="url(#clip592)" cx="1675.75" cy="886.673" r="14" fill="#808080" fill-rule="evenodd" fill-opacity="1" stroke="none"/>
<circle clip-path="url(#clip592)" cx="1631.38" cy="851.559" r="14" fill="#808080" fill-rule="evenodd" fill-opacity="1" stroke="none"/>
<circle clip-path="url(#clip592)" cx="1626.35" cy="929.102" r="14" fill="#808080" fill-rule="evenodd" fill-opacity="1" stroke="none"/>
<circle clip-path="url(#clip592)" cx="1580.59" cy="904.284" r="14" fill="#808080" fill-rule="evenodd" fill-opacity="1" stroke="none"/>
<circle clip-path="url(#clip592)" cx="1633.52" cy="894.542" r="14" fill="#808080" fill-rule="evenodd" fill-opacity="1" stroke="none"/>
<circle clip-path="url(#clip592)" cx="1603.87" cy="791.876" r="14" fill="#808080" fill-rule="evenodd" fill-opacity="1" stroke="none"/>
<circle clip-path="url(#clip592)" cx="1744.33" cy="798.264" r="14" fill="#808080" fill-rule="evenodd" fill-opacity="1" stroke="none"/>
<circle clip-path="url(#clip592)" cx="1629.99" cy="796.815" r="14" fill="#808080" fill-rule="evenodd" fill-opacity="1" stroke="none"/>
<circle clip-path="url(#clip592)" cx="1747.41" cy="804.688" r="14" fill="#808080" fill-rule="evenodd" fill-opacity="1" stroke="none"/>
<circle clip-path="url(#clip592)" cx="1698.74" cy="848.612" r="14" fill="#808080" fill-rule="evenodd" fill-opacity="1" stroke="none"/>
<circle clip-path="url(#clip592)" cx="1662.84" cy="940.059" r="14" fill="#808080" fill-rule="evenodd" fill-opacity="1" stroke="none"/>
<circle clip-path="url(#clip592)" cx="1696.82" cy="836.132" r="14" fill="#808080" fill-rule="evenodd" fill-opacity="1" stroke="none"/>
<circle clip-path="url(#clip592)" cx="1552.77" cy="781.232" r="14" fill="#808080" fill-rule="evenodd" fill-opacity="1" stroke="none"/>
<circle clip-path="url(#clip592)" cx="1567.1" cy="709.794" r="14" fill="#808080" fill-rule="evenodd" fill-opacity="1" stroke="none"/>
<circle clip-path="url(#clip592)" cx="1533.33" cy="826.296" r="14" fill="#808080" fill-rule="evenodd" fill-opacity="1" stroke="none"/>
<circle clip-path="url(#clip592)" cx="1607.69" cy="721.572" r="14" fill="#808080" fill-rule="evenodd" fill-opacity="1" stroke="none"/>
<circle clip-path="url(#clip592)" cx="1677.98" cy="750.587" r="14" fill="#808080" fill-rule="evenodd" fill-opacity="1" stroke="none"/>
<circle clip-path="url(#clip592)" cx="1438.27" cy="870.689" r="14" fill="#808080" fill-rule="evenodd" fill-opacity="1" stroke="none"/>
<circle clip-path="url(#clip592)" cx="1423.93" cy="919.536" r="14" fill="#808080" fill-rule="evenodd" fill-opacity="1" stroke="none"/>
<circle clip-path="url(#clip592)" cx="1324.83" cy="846.407" r="14" fill="#808080" fill-rule="evenodd" fill-opacity="1" stroke="none"/>
<circle clip-path="url(#clip592)" cx="1408.86" cy="869.338" r="14" fill="#808080" fill-rule="evenodd" fill-opacity="1" stroke="none"/>
<circle clip-path="url(#clip592)" cx="1559.81" cy="920.975" r="14" fill="#800080" fill-rule="evenodd" fill-opacity="1" stroke="none"/>
<circle clip-path="url(#clip592)" cx="1504.35" cy="886.543" r="14" fill="#800080" fill-rule="evenodd" fill-opacity="1" stroke="none"/>
<circle clip-path="url(#clip592)" cx="1496.24" cy="884.652" r="14" fill="#800080" fill-rule="evenodd" fill-opacity="1" stroke="none"/>
<circle clip-path="url(#clip592)" cx="1528.4" cy="883.606" r="14" fill="#800080" fill-rule="evenodd" fill-opacity="1" stroke="none"/>
<circle clip-path="url(#clip592)" cx="1351.72" cy="1018.74" r="14" fill="#800080" fill-rule="evenodd" fill-opacity="1" stroke="none"/>
<circle clip-path="url(#clip592)" cx="1449.59" cy="938.565" r="14" fill="#800080" fill-rule="evenodd" fill-opacity="1" stroke="none"/>
<circle clip-path="url(#clip592)" cx="1132.41" cy="959.27" r="14" fill="#800080" fill-rule="evenodd" fill-opacity="1" stroke="none"/>
<circle clip-path="url(#clip592)" cx="1447.73" cy="892.983" r="14" fill="#800080" fill-rule="evenodd" fill-opacity="1" stroke="none"/>
<circle clip-path="url(#clip592)" cx="1550.31" cy="887.653" r="14" fill="#800080" fill-rule="evenodd" fill-opacity="1" stroke="none"/>
<circle clip-path="url(#clip592)" cx="1496.57" cy="912.915" r="14" fill="#800080" fill-rule="evenodd" fill-opacity="1" stroke="none"/>
<circle clip-path="url(#clip592)" cx="1274.59" cy="540.925" r="14" fill="#800080" fill-rule="evenodd" fill-opacity="1" stroke="none"/>
<circle clip-path="url(#clip592)" cx="1576.12" cy="905.144" r="14" fill="#800080" fill-rule="evenodd" fill-opacity="1" stroke="none"/>
<circle clip-path="url(#clip592)" cx="1455.55" cy="881.584" r="14" fill="#800080" fill-rule="evenodd" fill-opacity="1" stroke="none"/>
<circle clip-path="url(#clip592)" cx="1351.72" cy="1018.74" r="14" fill="#800080" fill-rule="evenodd" fill-opacity="1" stroke="none"/>
<circle clip-path="url(#clip592)" cx="1525.75" cy="883.036" r="14" fill="#800080" fill-rule="evenodd" fill-opacity="1" stroke="none"/>
<circle clip-path="url(#clip592)" cx="1531.22" cy="907.973" r="14" fill="#800080" fill-rule="evenodd" fill-opacity="1" stroke="none"/>
<circle clip-path="url(#clip592)" cx="1460.43" cy="935.217" r="14" fill="#800080" fill-rule="evenodd" fill-opacity="1" stroke="none"/>
<circle clip-path="url(#clip592)" cx="1517.75" cy="958.211" r="14" fill="#800080" fill-rule="evenodd" fill-opacity="1" stroke="none"/>
<circle clip-path="url(#clip592)" cx="1520.6" cy="912.684" r="14" fill="#800080" fill-rule="evenodd" fill-opacity="1" stroke="none"/>
<circle clip-path="url(#clip592)" cx="1509.3" cy="863.553" r="14" fill="#800080" fill-rule="evenodd" fill-opacity="1" stroke="none"/>
<circle clip-path="url(#clip592)" cx="1391.35" cy="1047.46" r="14" fill="#800080" fill-rule="evenodd" fill-opacity="1" stroke="none"/>
<circle clip-path="url(#clip592)" cx="1622.79" cy="919.601" r="14" fill="#800080" fill-rule="evenodd" fill-opacity="1" stroke="none"/>
<circle clip-path="url(#clip592)" cx="1665.6" cy="936.343" r="14" fill="#800080" fill-rule="evenodd" fill-opacity="1" stroke="none"/>
<circle clip-path="url(#clip592)" cx="1607.09" cy="914.059" r="14" fill="#800080" fill-rule="evenodd" fill-opacity="1" stroke="none"/>
<circle clip-path="url(#clip592)" cx="1553.92" cy="946.112" r="14" fill="#800080" fill-rule="evenodd" fill-opacity="1" stroke="none"/>
<circle clip-path="url(#clip592)" cx="1620.46" cy="928.295" r="14" fill="#800080" fill-rule="evenodd" fill-opacity="1" stroke="none"/>
<circle clip-path="url(#clip592)" cx="1458.45" cy="888.794" r="14" fill="#800080" fill-rule="evenodd" fill-opacity="1" stroke="none"/>
<circle clip-path="url(#clip592)" cx="1499.16" cy="841.961" r="14" fill="#800080" fill-rule="evenodd" fill-opacity="1" stroke="none"/>
<circle clip-path="url(#clip592)" cx="1395.6" cy="935.327" r="14" fill="#800080" fill-rule="evenodd" fill-opacity="1" stroke="none"/>
<circle clip-path="url(#clip592)" cx="1502.46" cy="916.971" r="14" fill="#800080" fill-rule="evenodd" fill-opacity="1" stroke="none"/>
<circle clip-path="url(#clip592)" cx="1508.21" cy="866.654" r="14" fill="#800080" fill-rule="evenodd" fill-opacity="1" stroke="none"/>
<circle clip-path="url(#clip592)" cx="1586.99" cy="941.218" r="14" fill="#800080" fill-rule="evenodd" fill-opacity="1" stroke="none"/>
<circle clip-path="url(#clip592)" cx="1499.6" cy="853.798" r="14" fill="#800080" fill-rule="evenodd" fill-opacity="1" stroke="none"/>
<circle clip-path="url(#clip592)" cx="1569.35" cy="866.791" r="14" fill="#800080" fill-rule="evenodd" fill-opacity="1" stroke="none"/>
<circle clip-path="url(#clip592)" cx="1470.66" cy="800.135" r="14" fill="#800080" fill-rule="evenodd" fill-opacity="1" stroke="none"/>
<circle clip-path="url(#clip592)" cx="1436.42" cy="783.587" r="14" fill="#800080" fill-rule="evenodd" fill-opacity="1" stroke="none"/>
<circle clip-path="url(#clip592)" cx="1648.82" cy="836.481" r="14" fill="#800080" fill-rule="evenodd" fill-opacity="1" stroke="none"/>
<circle clip-path="url(#clip592)" cx="1510.9" cy="804.607" r="14" fill="#800080" fill-rule="evenodd" fill-opacity="1" stroke="none"/>
<circle clip-path="url(#clip592)" cx="1580.09" cy="815.187" r="14" fill="#800080" fill-rule="evenodd" fill-opacity="1" stroke="none"/>
<circle clip-path="url(#clip592)" cx="1682.91" cy="834.193" r="14" fill="#800080" fill-rule="evenodd" fill-opacity="1" stroke="none"/>
<circle clip-path="url(#clip592)" cx="1485.42" cy="798.862" r="14" fill="#800080" fill-rule="evenodd" fill-opacity="1" stroke="none"/>
<circle clip-path="url(#clip592)" cx="1660.31" cy="836.774" r="14" fill="#800080" fill-rule="evenodd" fill-opacity="1" stroke="none"/>
<circle clip-path="url(#clip592)" cx="1440.06" cy="895.881" r="14" fill="#800080" fill-rule="evenodd" fill-opacity="1" stroke="none"/>
<circle clip-path="url(#clip592)" cx="1452.65" cy="837.684" r="14" fill="#800080" fill-rule="evenodd" fill-opacity="1" stroke="none"/>
<circle clip-path="url(#clip592)" cx="1366.01" cy="822.58" r="14" fill="#800080" fill-rule="evenodd" fill-opacity="1" stroke="none"/>
<circle clip-path="url(#clip592)" cx="1298.14" cy="817.553" r="14" fill="#800080" fill-rule="evenodd" fill-opacity="1" stroke="none"/>
<circle clip-path="url(#clip592)" cx="1244.07" cy="890.887" r="14" fill="#800080" fill-rule="evenodd" fill-opacity="1" stroke="none"/>
<circle clip-path="url(#clip592)" cx="1459.08" cy="863.196" r="14" fill="#800080" fill-rule="evenodd" fill-opacity="1" stroke="none"/>
<circle clip-path="url(#clip592)" cx="1438.38" cy="857.67" r="14" fill="#800080" fill-rule="evenodd" fill-opacity="1" stroke="none"/>
<circle clip-path="url(#clip592)" cx="1444.06" cy="806.737" r="14" fill="#800080" fill-rule="evenodd" fill-opacity="1" stroke="none"/>
<circle clip-path="url(#clip592)" cx="1469.87" cy="782.668" r="14" fill="#800080" fill-rule="evenodd" fill-opacity="1" stroke="none"/>
<circle clip-path="url(#clip592)" cx="1411.72" cy="866.367" r="14" fill="#800080" fill-rule="evenodd" fill-opacity="1" stroke="none"/>
<circle clip-path="url(#clip592)" cx="1504.61" cy="908.389" r="14" fill="#ffa500" fill-rule="evenodd" fill-opacity="1" stroke="none"/>
<circle clip-path="url(#clip592)" cx="1483.16" cy="992.092" r="14" fill="#ffa500" fill-rule="evenodd" fill-opacity="1" stroke="none"/>
<circle clip-path="url(#clip592)" cx="1599.37" cy="880.681" r="14" fill="#ffa500" fill-rule="evenodd" fill-opacity="1" stroke="none"/>
<circle clip-path="url(#clip592)" cx="1523.51" cy="951.508" r="14" fill="#ffa500" fill-rule="evenodd" fill-opacity="1" stroke="none"/>
<circle clip-path="url(#clip592)" cx="1699.65" cy="852.795" r="14" fill="#ffa500" fill-rule="evenodd" fill-opacity="1" stroke="none"/>
<circle clip-path="url(#clip592)" cx="1608.58" cy="864.004" r="14" fill="#ffa500" fill-rule="evenodd" fill-opacity="1" stroke="none"/>
<circle clip-path="url(#clip592)" cx="1623.41" cy="902.964" r="14" fill="#ffa500" fill-rule="evenodd" fill-opacity="1" stroke="none"/>
<circle clip-path="url(#clip592)" cx="1609.31" cy="884.681" r="14" fill="#ffa500" fill-rule="evenodd" fill-opacity="1" stroke="none"/>
<circle clip-path="url(#clip592)" cx="1641.97" cy="900.028" r="14" fill="#ffa500" fill-rule="evenodd" fill-opacity="1" stroke="none"/>
<circle clip-path="url(#clip592)" cx="1560.67" cy="888.747" r="14" fill="#ffa500" fill-rule="evenodd" fill-opacity="1" stroke="none"/>
<circle clip-path="url(#clip592)" cx="1626.31" cy="877.979" r="14" fill="#ffa500" fill-rule="evenodd" fill-opacity="1" stroke="none"/>
<circle clip-path="url(#clip592)" cx="1625.72" cy="853.303" r="14" fill="#ffa500" fill-rule="evenodd" fill-opacity="1" stroke="none"/>
<circle clip-path="url(#clip592)" cx="1589.72" cy="859.653" r="14" fill="#ffa500" fill-rule="evenodd" fill-opacity="1" stroke="none"/>
<circle clip-path="url(#clip592)" cx="1639.79" cy="892.519" r="14" fill="#ffa500" fill-rule="evenodd" fill-opacity="1" stroke="none"/>
<circle clip-path="url(#clip592)" cx="1685.17" cy="894.775" r="14" fill="#ffa500" fill-rule="evenodd" fill-opacity="1" stroke="none"/>
<circle clip-path="url(#clip592)" cx="1669.79" cy="922.138" r="14" fill="#ffa500" fill-rule="evenodd" fill-opacity="1" stroke="none"/>
<circle clip-path="url(#clip592)" cx="1654.32" cy="943.982" r="14" fill="#ffa500" fill-rule="evenodd" fill-opacity="1" stroke="none"/>
<circle clip-path="url(#clip592)" cx="1632.4" cy="938.976" r="14" fill="#ffa500" fill-rule="evenodd" fill-opacity="1" stroke="none"/>
<circle clip-path="url(#clip592)" cx="1649.98" cy="861.483" r="14" fill="#ffa500" fill-rule="evenodd" fill-opacity="1" stroke="none"/>
<circle clip-path="url(#clip592)" cx="1581.28" cy="878.278" r="14" fill="#ffa500" fill-rule="evenodd" fill-opacity="1" stroke="none"/>
<circle clip-path="url(#clip592)" cx="1626.7" cy="878.509" r="14" fill="#ffa500" fill-rule="evenodd" fill-opacity="1" stroke="none"/>
<circle clip-path="url(#clip592)" cx="1715.95" cy="800.545" r="14" fill="#ffa500" fill-rule="evenodd" fill-opacity="1" stroke="none"/>
<circle clip-path="url(#clip592)" cx="1717.9" cy="880.502" r="14" fill="#ffa500" fill-rule="evenodd" fill-opacity="1" stroke="none"/>
<circle clip-path="url(#clip592)" cx="1671.93" cy="885.006" r="14" fill="#ffa500" fill-rule="evenodd" fill-opacity="1" stroke="none"/>
<circle clip-path="url(#clip592)" cx="1626.69" cy="855.999" r="14" fill="#ffa500" fill-rule="evenodd" fill-opacity="1" stroke="none"/>
<circle clip-path="url(#clip592)" cx="1630.28" cy="918.883" r="14" fill="#ffa500" fill-rule="evenodd" fill-opacity="1" stroke="none"/>
<circle clip-path="url(#clip592)" cx="1582.31" cy="881.226" r="14" fill="#ffa500" fill-rule="evenodd" fill-opacity="1" stroke="none"/>
<circle clip-path="url(#clip592)" cx="1623.77" cy="872.302" r="14" fill="#ffa500" fill-rule="evenodd" fill-opacity="1" stroke="none"/>
<circle clip-path="url(#clip592)" cx="1587.71" cy="820.315" r="14" fill="#ffa500" fill-rule="evenodd" fill-opacity="1" stroke="none"/>
<circle clip-path="url(#clip592)" cx="1765.7" cy="804.912" r="14" fill="#ffa500" fill-rule="evenodd" fill-opacity="1" stroke="none"/>
<circle clip-path="url(#clip592)" cx="1617.22" cy="817.594" r="14" fill="#ffa500" fill-rule="evenodd" fill-opacity="1" stroke="none"/>
<circle clip-path="url(#clip592)" cx="1815.36" cy="800.79" r="14" fill="#ffa500" fill-rule="evenodd" fill-opacity="1" stroke="none"/>
<circle clip-path="url(#clip592)" cx="1697.03" cy="848.04" r="14" fill="#ffa500" fill-rule="evenodd" fill-opacity="1" stroke="none"/>
<circle clip-path="url(#clip592)" cx="1677.91" cy="887.353" r="14" fill="#ffa500" fill-rule="evenodd" fill-opacity="1" stroke="none"/>
<circle clip-path="url(#clip592)" cx="1693.61" cy="828.756" r="14" fill="#ffa500" fill-rule="evenodd" fill-opacity="1" stroke="none"/>
<circle clip-path="url(#clip592)" cx="1553.9" cy="851.579" r="14" fill="#ffa500" fill-rule="evenodd" fill-opacity="1" stroke="none"/>
<circle clip-path="url(#clip592)" cx="1571.39" cy="773.897" r="14" fill="#ffa500" fill-rule="evenodd" fill-opacity="1" stroke="none"/>
<circle clip-path="url(#clip592)" cx="1524.05" cy="883.699" r="14" fill="#ffa500" fill-rule="evenodd" fill-opacity="1" stroke="none"/>
<circle clip-path="url(#clip592)" cx="1627.96" cy="760.892" r="14" fill="#ffa500" fill-rule="evenodd" fill-opacity="1" stroke="none"/>
<circle clip-path="url(#clip592)" cx="1697.07" cy="766.312" r="14" fill="#ffa500" fill-rule="evenodd" fill-opacity="1" stroke="none"/>
<circle clip-path="url(#clip592)" cx="1425.79" cy="905.413" r="14" fill="#ffa500" fill-rule="evenodd" fill-opacity="1" stroke="none"/>
<circle clip-path="url(#clip592)" cx="1398.98" cy="939.882" r="14" fill="#ffa500" fill-rule="evenodd" fill-opacity="1" stroke="none"/>
<circle clip-path="url(#clip592)" cx="1361.59" cy="884.425" r="14" fill="#ffa500" fill-rule="evenodd" fill-opacity="1" stroke="none"/>
<circle clip-path="url(#clip592)" cx="1414.69" cy="888.075" r="14" fill="#ffa500" fill-rule="evenodd" fill-opacity="1" stroke="none"/>
<polyline clip-path="url(#clip592)" style="stroke:#ffa500; stroke-width:0.57127; stroke-opacity:1; fill:none" points="
  797.639,941.181 2288.63,88.9544 
  "/>
<polyline clip-path="url(#clip592)" style="stroke:#ffa500; stroke-width:0.310112; stroke-opacity:1; fill:none" points="
  1302.59,1230.72 1384.02,711.372 
  "/>
<polyline clip-path="url(#clip592)" style="stroke:#ffa500; stroke-width:0.344254; stroke-opacity:1; fill:none" points="
  151.118,822.449 1302.59,1230.72 
  "/>
<polyline clip-path="url(#clip592)" style="stroke:#800080; stroke-width:2.41942; stroke-opacity:1; fill:none" points="
  151.118,822.449 2232.42,1479.3 
  "/>
<polyline clip-path="url(#clip592)" style="stroke:#ffa500; stroke-width:3.09601; stroke-opacity:1; fill:none" points="
  1384.02,711.372 2288.63,88.9544 
  "/>
<polyline clip-path="url(#clip592)" style="stroke:#800080; stroke-width:3.5991; stroke-opacity:1; fill:none" points="
  151.118,822.449 1384.02,711.372 
  "/>
<polyline clip-path="url(#clip592)" style="stroke:#ffa500; stroke-width:4.58072; stroke-opacity:1; fill:none" points="
  1384.02,711.372 2232.42,1479.3 
  "/>
<polyline clip-path="url(#clip592)" style="stroke:#ffa500; stroke-width:1.47784; stroke-opacity:1; fill:none" points="
  1302.59,1230.72 2232.42,1479.3 
  "/>
<polyline clip-path="url(#clip592)" style="stroke:#800080; stroke-width:6.48496; stroke-opacity:1; fill:none" points="
  151.118,822.449 797.639,941.181 
  "/>
<polyline clip-path="url(#clip592)" style="stroke:#ffa500; stroke-width:0.694986; stroke-opacity:1; fill:none" points="
  1302.59,1230.72 2288.63,88.9544 
  "/>
<polyline clip-path="url(#clip592)" style="stroke:#ffa500; stroke-width:8; stroke-opacity:1; fill:none" points="
  2232.42,1479.3 2288.63,88.9544 
  "/>
<polyline clip-path="url(#clip592)" style="stroke:#800080; stroke-width:2.90053; stroke-opacity:1; fill:none" points="
  797.639,941.181 1384.02,711.372 
  "/>
<polyline clip-path="url(#clip592)" style="stroke:#800080; stroke-width:2.12299; stroke-opacity:1; fill:none" points="
  797.639,941.181 1302.59,1230.72 
  "/>
<polyline clip-path="url(#clip592)" style="stroke:#800080; stroke-width:2.00262; stroke-opacity:1; fill:none" points="
  151.118,822.449 2288.63,88.9544 
  "/>
<polyline clip-path="url(#clip592)" style="stroke:#ffa500; stroke-width:0.179937; stroke-opacity:1; fill:none" points="
  797.639,941.181 2232.42,1479.3 
  "/>
<circle clip-path="url(#clip592)" cx="1384.02" cy="711.372" r="23" fill="#000000" fill-rule="evenodd" fill-opacity="1" stroke="none"/>
<circle clip-path="url(#clip592)" cx="797.639" cy="941.181" r="26" fill="#000000" fill-rule="evenodd" fill-opacity="1" stroke="none"/>
<circle clip-path="url(#clip592)" cx="2288.63" cy="88.9544" r="23" fill="#000000" fill-rule="evenodd" fill-opacity="1" stroke="none"/>
<circle clip-path="url(#clip592)" cx="1302.59" cy="1230.72" r="8" fill="#000000" fill-rule="evenodd" fill-opacity="1" stroke="none"/>
<circle clip-path="url(#clip592)" cx="2232.42" cy="1479.3" r="28" fill="#000000" fill-rule="evenodd" fill-opacity="1" stroke="none"/>
<circle clip-path="url(#clip592)" cx="151.118" cy="822.449" r="8" fill="#000000" fill-rule="evenodd" fill-opacity="1" stroke="none"/>
<path clip-path="url(#clip590)" d="M 0 0 M1308.21 687.857 L1308.21 734.888 L1318.09 734.888 Q1330.61 734.888 1336.41 729.217 Q1342.24 723.545 1342.24 711.312 Q1342.24 699.159 1336.41 693.528 Q1330.61 687.857 1318.09 687.857 L1308.21 687.857 M1300.03 681.132 L1316.84 681.132 Q1334.42 681.132 1342.64 688.465 Q1350.87 695.756 1350.87 711.312 Q1350.87 726.948 1342.6 734.28 Q1334.34 741.612 1316.84 741.612 L1300.03 741.612 L1300.03 681.132 Z" fill="#000000" fill-rule="evenodd" fill-opacity="1" /><path clip-path="url(#clip590)" d="M 0 0 M1379.3 718.806 Q1370.27 718.806 1366.79 720.872 Q1363.3 722.938 1363.3 727.92 Q1363.3 731.89 1365.9 734.24 Q1368.53 736.549 1373.03 736.549 Q1379.22 736.549 1382.95 732.174 Q1386.72 727.758 1386.72 720.467 L1386.72 718.806 L1379.3 718.806 M1394.17 715.727 L1394.17 741.612 L1386.72 741.612 L1386.72 734.726 Q1384.17 738.858 1380.36 740.843 Q1376.55 742.787 1371.04 742.787 Q1364.07 742.787 1359.94 738.898 Q1355.85 734.969 1355.85 728.407 Q1355.85 720.75 1360.95 716.861 Q1366.1 712.973 1376.27 712.973 L1386.72 712.973 L1386.72 712.243 Q1386.72 707.099 1383.31 704.304 Q1379.95 701.468 1373.84 701.468 Q1369.95 701.468 1366.26 702.4 Q1362.57 703.331 1359.17 705.195 L1359.17 698.308 Q1363.26 696.728 1367.11 695.959 Q1370.96 695.149 1374.61 695.149 Q1384.45 695.149 1389.31 700.253 Q1394.17 705.357 1394.17 715.727 Z" fill="#000000" fill-rule="evenodd" fill-opacity="1" /><path clip-path="url(#clip590)" d="M 0 0 M1409.36 683.36 L1409.36 696.242 L1424.71 696.242 L1424.71 702.035 L1409.36 702.035 L1409.36 726.665 Q1409.36 732.214 1410.86 733.794 Q1412.4 735.374 1417.06 735.374 L1424.71 735.374 L1424.71 741.612 L1417.06 741.612 Q1408.43 741.612 1405.15 738.412 Q1401.87 735.172 1401.87 726.665 L1401.87 702.035 L1396.4 702.035 L1396.4 696.242 L1401.87 696.242 L1401.87 683.36 L1409.36 683.36 Z" fill="#000000" fill-rule="evenodd" fill-opacity="1" /><path clip-path="url(#clip590)" d="M 0 0 M1453.15 718.806 Q1444.12 718.806 1440.63 720.872 Q1437.15 722.938 1437.15 727.92 Q1437.15 731.89 1439.74 734.24 Q1442.38 736.549 1446.87 736.549 Q1453.07 736.549 1456.8 732.174 Q1460.57 727.758 1460.57 720.467 L1460.57 718.806 L1453.15 718.806 M1468.02 715.727 L1468.02 741.612 L1460.57 741.612 L1460.57 734.726 Q1458.01 738.858 1454.21 740.843 Q1450.4 742.787 1444.89 742.787 Q1437.92 742.787 1433.79 738.898 Q1429.7 734.969 1429.7 728.407 Q1429.7 720.75 1434.8 716.861 Q1439.95 712.973 1450.11 712.973 L1460.57 712.973 L1460.57 712.243 Q1460.57 707.099 1457.16 704.304 Q1453.8 701.468 1447.68 701.468 Q1443.79 701.468 1440.11 702.4 Q1436.42 703.331 1433.02 705.195 L1433.02 698.308 Q1437.11 696.728 1440.96 695.959 Q1444.81 695.149 1448.45 695.149 Q1458.3 695.149 1463.16 700.253 Q1468.02 705.357 1468.02 715.727 Z" fill="#000000" fill-rule="evenodd" fill-opacity="1" /><path clip-path="url(#clip590)" d="M 0 0 M400.306 910.941 L451.469 910.941 L451.469 917.828 L429.999 917.828 L429.999 971.421 L421.776 971.421 L421.776 917.828 L400.306 917.828 L400.306 910.941 Z" fill="#000000" fill-rule="evenodd" fill-opacity="1" /><path clip-path="url(#clip590)" d="M 0 0 M483.998 946.873 L483.998 950.519 L449.727 950.519 Q450.213 958.215 454.345 962.266 Q458.518 966.277 465.931 966.277 Q470.225 966.277 474.235 965.224 Q478.286 964.17 482.256 962.064 L482.256 969.112 Q478.246 970.814 474.033 971.705 Q469.82 972.596 465.485 972.596 Q454.629 972.596 448.269 966.277 Q441.95 959.957 441.95 949.182 Q441.95 938.042 447.945 931.52 Q453.981 924.958 464.189 924.958 Q473.344 924.958 478.651 930.872 Q483.998 936.746 483.998 946.873 M476.544 944.685 Q476.463 938.569 473.101 934.923 Q469.779 931.277 464.27 931.277 Q458.032 931.277 454.264 934.801 Q450.538 938.326 449.97 944.726 L476.544 944.685 Z" fill="#000000" fill-rule="evenodd" fill-opacity="1" /><path clip-path="url(#clip590)" d="M 0 0 M524.467 927.793 L524.467 934.761 Q521.307 933.019 518.107 932.168 Q514.947 931.277 511.706 931.277 Q504.455 931.277 500.445 935.895 Q496.434 940.473 496.434 948.777 Q496.434 957.081 500.445 961.699 Q504.455 966.277 511.706 966.277 Q514.947 966.277 518.107 965.426 Q521.307 964.535 524.467 962.793 L524.467 969.68 Q521.347 971.138 517.985 971.867 Q514.663 972.596 510.896 972.596 Q500.647 972.596 494.611 966.155 Q488.576 959.714 488.576 948.777 Q488.576 937.677 494.652 931.317 Q500.769 924.958 511.382 924.958 Q514.825 924.958 518.107 925.687 Q521.388 926.375 524.467 927.793 Z" fill="#000000" fill-rule="evenodd" fill-opacity="1" /><path clip-path="url(#clip590)" d="M 0 0 M569.999 944.037 L569.999 971.421 L562.545 971.421 L562.545 944.28 Q562.545 937.839 560.033 934.639 Q557.522 931.439 552.499 931.439 Q546.463 931.439 542.979 935.287 Q539.495 939.136 539.495 945.779 L539.495 971.421 L532.001 971.421 L532.001 908.389 L539.495 908.389 L539.495 933.1 Q542.169 929.008 545.774 926.983 Q549.42 924.958 554.16 924.958 Q561.978 924.958 565.988 929.819 Q569.999 934.639 569.999 944.037 Z" fill="#000000" fill-rule="evenodd" fill-opacity="1" /><path clip-path="url(#clip590)" d="M 0 0 M615.531 944.037 L615.531 971.421 L608.077 971.421 L608.077 944.28 Q608.077 937.839 605.566 934.639 Q603.054 931.439 598.031 931.439 Q591.995 931.439 588.511 935.287 Q585.028 939.136 585.028 945.779 L585.028 971.421 L577.533 971.421 L577.533 926.051 L585.028 926.051 L585.028 933.1 Q587.701 929.008 591.306 926.983 Q594.952 924.958 599.692 924.958 Q607.51 924.958 611.52 929.819 Q615.531 934.639 615.531 944.037 Z" fill="#000000" fill-rule="evenodd" fill-opacity="1" /><path clip-path="url(#clip590)" d="M 0 0 M623.349 926.051 L630.803 926.051 L630.803 971.421 L623.349 971.421 L623.349 926.051 M623.349 908.389 L630.803 908.389 L630.803 917.828 L623.349 917.828 L623.349 908.389 Z" fill="#000000" fill-rule="evenodd" fill-opacity="1" /><path clip-path="url(#clip590)" d="M 0 0 M671.271 927.793 L671.271 934.761 Q668.112 933.019 664.911 932.168 Q661.752 931.277 658.511 931.277 Q651.26 931.277 647.249 935.895 Q643.239 940.473 643.239 948.777 Q643.239 957.081 647.249 961.699 Q651.26 966.277 658.511 966.277 Q661.752 966.277 664.911 965.426 Q668.112 964.535 671.271 962.793 L671.271 969.68 Q668.152 971.138 664.79 971.867 Q661.468 972.596 657.701 972.596 Q647.452 972.596 641.416 966.155 Q635.38 959.714 635.38 948.777 Q635.38 937.677 641.457 931.317 Q647.574 924.958 658.187 924.958 Q661.63 924.958 664.911 925.687 Q668.193 926.375 671.271 927.793 Z" fill="#000000" fill-rule="evenodd" fill-opacity="1" /><path clip-path="url(#clip590)" d="M 0 0 M699.709 948.615 Q690.675 948.615 687.191 950.681 Q683.708 952.747 683.708 957.729 Q683.708 961.699 686.3 964.049 Q688.933 966.358 693.43 966.358 Q699.628 966.358 703.354 961.983 Q707.122 957.567 707.122 950.276 L707.122 948.615 L699.709 948.615 M714.575 945.536 L714.575 971.421 L707.122 971.421 L707.122 964.535 Q704.57 968.667 700.762 970.652 Q696.954 972.596 691.445 972.596 Q684.477 972.596 680.345 968.707 Q676.254 964.778 676.254 958.215 Q676.254 950.559 681.358 946.67 Q686.503 942.782 696.67 942.782 L707.122 942.782 L707.122 942.052 Q707.122 936.908 703.719 934.113 Q700.357 931.277 694.24 931.277 Q690.351 931.277 686.665 932.209 Q682.978 933.14 679.576 935.004 L679.576 928.117 Q683.667 926.537 687.515 925.768 Q691.364 924.958 695.01 924.958 Q704.853 924.958 709.714 930.062 Q714.575 935.166 714.575 945.536 Z" fill="#000000" fill-rule="evenodd" fill-opacity="1" /><path clip-path="url(#clip590)" d="M 0 0 M722.394 908.389 L729.847 908.389 L729.847 971.421 L722.394 971.421 L722.394 908.389 Z" fill="#000000" fill-rule="evenodd" fill-opacity="1" /><path clip-path="url(#clip590)" d="M 0 0 M772.139 985.194 L772.139 990.987 L729.037 990.987 L729.037 985.194 L772.139 985.194 Z" fill="#000000" fill-rule="evenodd" fill-opacity="1" /><path clip-path="url(#clip590)" d="M 0 0 M825.57 915.6 L825.57 924.228 Q821.438 920.38 816.739 918.476 Q812.081 916.572 806.815 916.572 Q796.444 916.572 790.935 922.932 Q785.426 929.252 785.426 941.242 Q785.426 953.192 790.935 959.552 Q796.444 965.872 806.815 965.872 Q812.081 965.872 816.739 963.968 Q821.438 962.064 825.57 958.215 L825.57 966.763 Q821.276 969.68 816.456 971.138 Q811.676 972.596 806.328 972.596 Q792.596 972.596 784.697 964.211 Q776.797 955.785 776.797 941.242 Q776.797 926.659 784.697 918.274 Q792.596 909.848 806.328 909.848 Q811.757 909.848 816.537 911.306 Q821.357 912.724 825.57 915.6 Z" fill="#000000" fill-rule="evenodd" fill-opacity="1" /><path clip-path="url(#clip590)" d="M 0 0 M850.969 931.277 Q844.974 931.277 841.49 935.976 Q838.007 940.635 838.007 948.777 Q838.007 956.919 841.45 961.618 Q844.934 966.277 850.969 966.277 Q856.924 966.277 860.408 961.578 Q863.892 956.879 863.892 948.777 Q863.892 940.716 860.408 936.017 Q856.924 931.277 850.969 931.277 M850.969 924.958 Q860.692 924.958 866.241 931.277 Q871.791 937.596 871.791 948.777 Q871.791 959.917 866.241 966.277 Q860.692 972.596 850.969 972.596 Q841.207 972.596 835.657 966.277 Q830.148 959.917 830.148 948.777 Q830.148 937.596 835.657 931.277 Q841.207 924.958 850.969 924.958 Z" fill="#000000" fill-rule="evenodd" fill-opacity="1" /><path clip-path="url(#clip590)" d="M 0 0 M917.323 944.037 L917.323 971.421 L909.87 971.421 L909.87 944.28 Q909.87 937.839 907.358 934.639 Q904.846 931.439 899.823 931.439 Q893.787 931.439 890.304 935.287 Q886.82 939.136 886.82 945.779 L886.82 971.421 L879.326 971.421 L879.326 926.051 L886.82 926.051 L886.82 933.1 Q889.494 929.008 893.099 926.983 Q896.745 924.958 901.484 924.958 Q909.302 924.958 913.313 929.819 Q917.323 934.639 917.323 944.037 Z" fill="#000000" fill-rule="evenodd" fill-opacity="1" /><path clip-path="url(#clip590)" d="M 0 0 M954.065 927.388 L954.065 934.437 Q950.905 932.816 947.502 932.006 Q944.1 931.196 940.454 931.196 Q934.904 931.196 932.109 932.897 Q929.354 934.599 929.354 938.001 Q929.354 940.594 931.339 942.093 Q933.324 943.551 939.32 944.888 L941.872 945.455 Q949.811 947.157 953.133 950.276 Q956.495 953.354 956.495 958.904 Q956.495 965.224 951.472 968.91 Q946.49 972.596 937.74 972.596 Q934.094 972.596 930.124 971.867 Q926.195 971.178 921.82 969.761 L921.82 962.064 Q925.952 964.211 929.962 965.305 Q933.972 966.358 937.902 966.358 Q943.168 966.358 946.004 964.575 Q948.839 962.752 948.839 959.471 Q948.839 956.433 946.773 954.813 Q944.748 953.192 937.821 951.694 L935.228 951.086 Q928.301 949.628 925.222 946.63 Q922.144 943.592 922.144 938.326 Q922.144 931.925 926.681 928.441 Q931.218 924.958 939.563 924.958 Q943.695 924.958 947.34 925.565 Q950.986 926.173 954.065 927.388 Z" fill="#000000" fill-rule="evenodd" fill-opacity="1" /><path clip-path="url(#clip590)" d="M 0 0 M971.686 913.169 L971.686 926.051 L987.039 926.051 L987.039 931.844 L971.686 931.844 L971.686 956.474 Q971.686 962.023 973.185 963.603 Q974.725 965.183 979.383 965.183 L987.039 965.183 L987.039 971.421 L979.383 971.421 Q970.755 971.421 967.473 968.221 Q964.192 964.98 964.192 956.474 L964.192 931.844 L958.723 931.844 L958.723 926.051 L964.192 926.051 L964.192 913.169 L971.686 913.169 Z" fill="#000000" fill-rule="evenodd" fill-opacity="1" /><path clip-path="url(#clip590)" d="M 0 0 M1021.15 933.019 Q1019.89 932.29 1018.39 931.966 Q1016.93 931.601 1015.15 931.601 Q1008.83 931.601 1005.43 935.733 Q1002.07 939.824 1002.07 947.521 L1002.07 971.421 L994.574 971.421 L994.574 926.051 L1002.07 926.051 L1002.07 933.1 Q1004.42 928.968 1008.19 926.983 Q1011.95 924.958 1017.34 924.958 Q1018.11 924.958 1019.04 925.079 Q1019.97 925.16 1021.11 925.363 L1021.15 933.019 Z" fill="#000000" fill-rule="evenodd" fill-opacity="1" /><path clip-path="url(#clip590)" d="M 0 0 M1049.59 948.615 Q1040.55 948.615 1037.07 950.681 Q1033.58 952.747 1033.58 957.729 Q1033.58 961.699 1036.18 964.049 Q1038.81 966.358 1043.31 966.358 Q1049.5 966.358 1053.23 961.983 Q1057 957.567 1057 950.276 L1057 948.615 L1049.59 948.615 M1064.45 945.536 L1064.45 971.421 L1057 971.421 L1057 964.535 Q1054.45 968.667 1050.64 970.652 Q1046.83 972.596 1041.32 972.596 Q1034.35 972.596 1030.22 968.707 Q1026.13 964.778 1026.13 958.215 Q1026.13 950.559 1031.23 946.67 Q1036.38 942.782 1046.55 942.782 L1057 942.782 L1057 942.052 Q1057 936.908 1053.6 934.113 Q1050.23 931.277 1044.12 931.277 Q1040.23 931.277 1036.54 932.209 Q1032.86 933.14 1029.45 935.004 L1029.45 928.117 Q1033.54 926.537 1037.39 925.768 Q1041.24 924.958 1044.89 924.958 Q1054.73 924.958 1059.59 930.062 Q1064.45 935.166 1064.45 945.536 Z" fill="#000000" fill-rule="evenodd" fill-opacity="1" /><path clip-path="url(#clip590)" d="M 0 0 M1072.27 926.051 L1079.72 926.051 L1079.72 971.421 L1072.27 971.421 L1072.27 926.051 M1072.27 908.389 L1079.72 908.389 L1079.72 917.828 L1072.27 917.828 L1072.27 908.389 Z" fill="#000000" fill-rule="evenodd" fill-opacity="1" /><path clip-path="url(#clip590)" d="M 0 0 M1125.26 944.037 L1125.26 971.421 L1117.8 971.421 L1117.8 944.28 Q1117.8 937.839 1115.29 934.639 Q1112.78 931.439 1107.76 931.439 Q1101.72 931.439 1098.24 935.287 Q1094.75 939.136 1094.75 945.779 L1094.75 971.421 L1087.26 971.421 L1087.26 926.051 L1094.75 926.051 L1094.75 933.1 Q1097.43 929.008 1101.03 926.983 Q1104.68 924.958 1109.42 924.958 Q1117.24 924.958 1121.25 929.819 Q1125.26 934.639 1125.26 944.037 Z" fill="#000000" fill-rule="evenodd" fill-opacity="1" /><path clip-path="url(#clip590)" d="M 0 0 M1140.45 913.169 L1140.45 926.051 L1155.8 926.051 L1155.8 931.844 L1140.45 931.844 L1140.45 956.474 Q1140.45 962.023 1141.95 963.603 Q1143.49 965.183 1148.14 965.183 L1155.8 965.183 L1155.8 971.421 L1148.14 971.421 Q1139.52 971.421 1136.23 968.221 Q1132.95 964.98 1132.95 956.474 L1132.95 931.844 L1127.48 931.844 L1127.48 926.051 L1132.95 926.051 L1132.95 913.169 L1140.45 913.169 Z" fill="#000000" fill-rule="evenodd" fill-opacity="1" /><path clip-path="url(#clip590)" d="M 0 0 M1192.54 927.388 L1192.54 934.437 Q1189.38 932.816 1185.98 932.006 Q1182.58 931.196 1178.93 931.196 Q1173.38 931.196 1170.59 932.897 Q1167.83 934.599 1167.83 938.001 Q1167.83 940.594 1169.82 942.093 Q1171.8 943.551 1177.8 944.888 L1180.35 945.455 Q1188.29 947.157 1191.61 950.276 Q1194.97 953.354 1194.97 958.904 Q1194.97 965.224 1189.95 968.91 Q1184.97 972.596 1176.22 972.596 Q1172.57 972.596 1168.6 971.867 Q1164.67 971.178 1160.3 969.761 L1160.3 962.064 Q1164.43 964.211 1168.44 965.305 Q1172.45 966.358 1176.38 966.358 Q1181.64 966.358 1184.48 964.575 Q1187.32 962.752 1187.32 959.471 Q1187.32 956.433 1185.25 954.813 Q1183.22 953.192 1176.3 951.694 L1173.7 951.086 Q1166.78 949.628 1163.7 946.63 Q1160.62 943.592 1160.62 938.326 Q1160.62 931.925 1165.16 928.441 Q1169.69 924.958 1178.04 924.958 Q1182.17 924.958 1185.82 925.565 Q1189.46 926.173 1192.54 927.388 Z" fill="#000000" fill-rule="evenodd" fill-opacity="1" /><path clip-path="url(#clip590)" d="M 0 0 M1820.06 65.4389 L1820.06 88.1645 L1830.35 88.1645 Q1836.06 88.1645 1839.18 85.2073 Q1842.3 82.2501 1842.3 76.7814 Q1842.3 71.3532 1839.18 68.3961 Q1836.06 65.4389 1830.35 65.4389 L1820.06 65.4389 M1811.88 58.7144 L1830.35 58.7144 Q1840.52 58.7144 1845.7 63.3324 Q1850.93 67.9099 1850.93 76.7814 Q1850.93 85.7339 1845.7 90.3114 Q1840.52 94.889 1830.35 94.889 L1820.06 94.889 L1820.06 119.194 L1811.88 119.194 L1811.88 58.7144 Z" fill="#000000" fill-rule="evenodd" fill-opacity="1" /><path clip-path="url(#clip590)" d="M 0 0 M1894.6 94.6459 L1894.6 98.2917 L1860.33 98.2917 Q1860.81 105.988 1864.95 110.039 Q1869.12 114.05 1876.53 114.05 Q1880.83 114.05 1884.84 112.997 Q1888.89 111.943 1892.86 109.837 L1892.86 116.885 Q1888.85 118.587 1884.63 119.478 Q1880.42 120.369 1876.09 120.369 Q1865.23 120.369 1858.87 114.05 Q1852.55 107.73 1852.55 96.9549 Q1852.55 85.8149 1858.55 79.293 Q1864.58 72.7305 1874.79 72.7305 Q1883.95 72.7305 1889.25 78.6448 Q1894.6 84.5187 1894.6 94.6459 M1887.15 92.4584 Q1887.06 86.3416 1883.7 82.6957 Q1880.38 79.0499 1874.87 79.0499 Q1868.63 79.0499 1864.87 82.5742 Q1861.14 86.0985 1860.57 92.4989 L1887.15 92.4584 Z" fill="#000000" fill-rule="evenodd" fill-opacity="1" /><path clip-path="url(#clip590)" d="M 0 0 M1928.71 80.7918 Q1927.45 80.0627 1925.95 79.7386 Q1924.49 79.374 1922.71 79.374 Q1916.39 79.374 1912.99 83.5059 Q1909.63 87.5973 1909.63 95.2941 L1909.63 119.194 L1902.13 119.194 L1902.13 73.8243 L1909.63 73.8243 L1909.63 80.8728 Q1911.98 76.7409 1915.74 74.756 Q1919.51 72.7305 1924.9 72.7305 Q1925.67 72.7305 1926.6 72.852 Q1927.53 72.9331 1928.67 73.1356 L1928.71 80.7918 Z" fill="#000000" fill-rule="evenodd" fill-opacity="1" /><path clip-path="url(#clip590)" d="M 0 0 M1959.49 56.1623 L1959.49 62.3602 L1952.36 62.3602 Q1948.35 62.3602 1946.77 63.9806 Q1945.24 65.6009 1945.24 69.8139 L1945.24 73.8243 L1957.51 73.8243 L1957.51 79.6171 L1945.24 79.6171 L1945.24 119.194 L1937.74 119.194 L1937.74 79.6171 L1930.61 79.6171 L1930.61 73.8243 L1937.74 73.8243 L1937.74 70.6646 Q1937.74 63.0894 1941.27 59.6461 Q1944.79 56.1623 1952.45 56.1623 L1959.49 56.1623 Z" fill="#000000" fill-rule="evenodd" fill-opacity="1" /><path clip-path="url(#clip590)" d="M 0 0 M1984.89 79.0499 Q1978.9 79.0499 1975.41 83.749 Q1971.93 88.4075 1971.93 96.5498 Q1971.93 104.692 1975.37 109.391 Q1978.86 114.05 1984.89 114.05 Q1990.85 114.05 1994.33 109.351 Q1997.82 104.652 1997.82 96.5498 Q1997.82 88.4885 1994.33 83.7895 Q1990.85 79.0499 1984.89 79.0499 M1984.89 72.7305 Q1994.62 72.7305 2000.17 79.0499 Q2005.72 85.3693 2005.72 96.5498 Q2005.72 107.69 2000.17 114.05 Q1994.62 120.369 1984.89 120.369 Q1975.13 120.369 1969.58 114.05 Q1964.07 107.69 1964.07 96.5498 Q1964.07 85.3693 1969.58 79.0499 Q1975.13 72.7305 1984.89 72.7305 Z" fill="#000000" fill-rule="evenodd" fill-opacity="1" /><path clip-path="url(#clip590)" d="M 0 0 M2039.82 80.7918 Q2038.57 80.0627 2037.07 79.7386 Q2035.61 79.374 2033.83 79.374 Q2027.51 79.374 2024.11 83.5059 Q2020.74 87.5973 2020.74 95.2941 L2020.74 119.194 L2013.25 119.194 L2013.25 73.8243 L2020.74 73.8243 L2020.74 80.8728 Q2023.09 76.7409 2026.86 74.756 Q2030.63 72.7305 2036.02 72.7305 Q2036.79 72.7305 2037.72 72.852 Q2038.65 72.9331 2039.78 73.1356 L2039.82 80.7918 Z" fill="#000000" fill-rule="evenodd" fill-opacity="1" /><path clip-path="url(#clip590)" d="M 0 0 M2081.51 82.5337 Q2084.3 77.5106 2088.19 75.1206 Q2092.08 72.7305 2097.35 72.7305 Q2104.44 72.7305 2108.28 77.7131 Q2112.13 82.6552 2112.13 91.8103 L2112.13 119.194 L2104.64 119.194 L2104.64 92.0533 Q2104.64 85.5314 2102.33 82.3717 Q2100.02 79.212 2095.28 79.212 Q2089.49 79.212 2086.13 83.0603 Q2082.76 86.9087 2082.76 93.5522 L2082.76 119.194 L2075.27 119.194 L2075.27 92.0533 Q2075.27 85.4909 2072.96 82.3717 Q2070.65 79.212 2065.83 79.212 Q2060.12 79.212 2056.76 83.1008 Q2053.39 86.9492 2053.39 93.5522 L2053.39 119.194 L2045.9 119.194 L2045.9 73.8243 L2053.39 73.8243 L2053.39 80.8728 Q2055.95 76.7004 2059.51 74.7155 Q2063.08 72.7305 2067.98 72.7305 Q2072.92 72.7305 2076.36 75.2421 Q2079.85 77.7536 2081.51 82.5337 Z" fill="#000000" fill-rule="evenodd" fill-opacity="1" /><path clip-path="url(#clip590)" d="M 0 0 M2140.57 96.3878 Q2131.54 96.3878 2128.05 98.4538 Q2124.57 100.52 2124.57 105.502 Q2124.57 109.472 2127.16 111.822 Q2129.79 114.131 2134.29 114.131 Q2140.49 114.131 2144.22 109.756 Q2147.98 105.34 2147.98 98.0487 L2147.98 96.3878 L2140.57 96.3878 M2155.44 93.3091 L2155.44 119.194 L2147.98 119.194 L2147.98 112.308 Q2145.43 116.44 2141.62 118.425 Q2137.82 120.369 2132.31 120.369 Q2125.34 120.369 2121.21 116.48 Q2117.12 112.551 2117.12 105.988 Q2117.12 98.3322 2122.22 94.4434 Q2127.36 90.5545 2137.53 90.5545 L2147.98 90.5545 L2147.98 89.8253 Q2147.98 84.6807 2144.58 81.8856 Q2141.22 79.0499 2135.1 79.0499 Q2131.21 79.0499 2127.53 79.9816 Q2123.84 80.9133 2120.44 82.7768 L2120.44 75.8902 Q2124.53 74.3104 2128.38 73.5407 Q2132.23 72.7305 2135.87 72.7305 Q2145.71 72.7305 2150.58 77.8347 Q2155.44 82.9388 2155.44 93.3091 Z" fill="#000000" fill-rule="evenodd" fill-opacity="1" /><path clip-path="url(#clip590)" d="M 0 0 M2200.97 91.8103 L2200.97 119.194 L2193.52 119.194 L2193.52 92.0533 Q2193.52 85.6124 2191 82.4122 Q2188.49 79.212 2183.47 79.212 Q2177.43 79.212 2173.95 83.0603 Q2170.47 86.9087 2170.47 93.5522 L2170.47 119.194 L2162.97 119.194 L2162.97 73.8243 L2170.47 73.8243 L2170.47 80.8728 Q2173.14 76.7814 2176.74 74.756 Q2180.39 72.7305 2185.13 72.7305 Q2192.95 72.7305 2196.96 77.5916 Q2200.97 82.4122 2200.97 91.8103 Z" fill="#000000" fill-rule="evenodd" fill-opacity="1" /><path clip-path="url(#clip590)" d="M 0 0 M2241.44 75.5662 L2241.44 82.5337 Q2238.28 80.7918 2235.08 79.9411 Q2231.92 79.0499 2228.68 79.0499 Q2221.43 79.0499 2217.42 83.668 Q2213.41 88.2455 2213.41 96.5498 Q2213.41 104.854 2217.42 109.472 Q2221.43 114.05 2228.68 114.05 Q2231.92 114.05 2235.08 113.199 Q2238.28 112.308 2241.44 110.566 L2241.44 117.453 Q2238.32 118.911 2234.96 119.64 Q2231.63 120.369 2227.87 120.369 Q2217.62 120.369 2211.58 113.928 Q2205.55 107.487 2205.55 96.5498 Q2205.55 85.4504 2211.62 79.0904 Q2217.74 72.7305 2228.35 72.7305 Q2231.8 72.7305 2235.08 73.4597 Q2238.36 74.1483 2241.44 75.5662 Z" fill="#000000" fill-rule="evenodd" fill-opacity="1" /><path clip-path="url(#clip590)" d="M 0 0 M2288.06 94.6459 L2288.06 98.2917 L2253.79 98.2917 Q2254.28 105.988 2258.41 110.039 Q2262.58 114.05 2270 114.05 Q2274.29 114.05 2278.3 112.997 Q2282.35 111.943 2286.32 109.837 L2286.32 116.885 Q2282.31 118.587 2278.1 119.478 Q2273.89 120.369 2269.55 120.369 Q2258.69 120.369 2252.33 114.05 Q2246.02 107.73 2246.02 96.9549 Q2246.02 85.8149 2252.01 79.293 Q2258.05 72.7305 2268.25 72.7305 Q2277.41 72.7305 2282.72 78.6448 Q2288.06 84.5187 2288.06 94.6459 M2280.61 92.4584 Q2280.53 86.3416 2277.17 82.6957 Q2273.84 79.0499 2268.34 79.0499 Q2262.1 79.0499 2258.33 82.5742 Q2254.6 86.0985 2254.04 92.4989 L2280.61 92.4584 Z" fill="#000000" fill-rule="evenodd" fill-opacity="1" /><path clip-path="url(#clip590)" d="M 0 0 M2330.35 132.967 L2330.35 138.76 L2287.25 138.76 L2287.25 132.967 L2330.35 132.967 Z" fill="#000000" fill-rule="evenodd" fill-opacity="1" /><path clip-path="url(#clip590)" d="M 0 0 M2346.68 65.4389 L2346.68 88.1645 L2356.97 88.1645 Q2362.68 88.1645 2365.8 85.2073 Q2368.92 82.2501 2368.92 76.7814 Q2368.92 71.3532 2365.8 68.3961 Q2362.68 65.4389 2356.97 65.4389 L2346.68 65.4389 M2338.5 58.7144 L2356.97 58.7144 Q2367.14 58.7144 2372.32 63.3324 Q2377.55 67.9099 2377.55 76.7814 Q2377.55 85.7339 2372.32 90.3114 Q2367.14 94.889 2356.97 94.889 L2346.68 94.889 L2346.68 119.194 L2338.5 119.194 L2338.5 58.7144 Z" fill="#000000" fill-rule="evenodd" fill-opacity="1" /><path clip-path="url(#clip590)" d="M 0 0 M2402.26 96.3878 Q2393.22 96.3878 2389.74 98.4538 Q2386.26 100.52 2386.26 105.502 Q2386.26 109.472 2388.85 111.822 Q2391.48 114.131 2395.98 114.131 Q2402.18 114.131 2405.9 109.756 Q2409.67 105.34 2409.67 98.0487 L2409.67 96.3878 L2402.26 96.3878 M2417.13 93.3091 L2417.13 119.194 L2409.67 119.194 L2409.67 112.308 Q2407.12 116.44 2403.31 118.425 Q2399.5 120.369 2393.99 120.369 Q2387.03 120.369 2382.9 116.48 Q2378.8 112.551 2378.8 105.988 Q2378.8 98.3322 2383.91 94.4434 Q2389.05 90.5545 2399.22 90.5545 L2409.67 90.5545 L2409.67 89.8253 Q2409.67 84.6807 2406.27 81.8856 Q2402.91 79.0499 2396.79 79.0499 Q2392.9 79.0499 2389.21 79.9816 Q2385.53 80.9133 2382.13 82.7768 L2382.13 75.8902 Q2386.22 74.3104 2390.07 73.5407 Q2393.91 72.7305 2397.56 72.7305 Q2407.4 72.7305 2412.26 77.8347 Q2417.13 82.9388 2417.13 93.3091 Z" fill="#000000" fill-rule="evenodd" fill-opacity="1" /><path clip-path="url(#clip590)" d="M 0 0 M2451.23 80.7918 Q2449.98 80.0627 2448.48 79.7386 Q2447.02 79.374 2445.24 79.374 Q2438.92 79.374 2435.52 83.5059 Q2432.15 87.5973 2432.15 95.2941 L2432.15 119.194 L2424.66 119.194 L2424.66 73.8243 L2432.15 73.8243 L2432.15 80.8728 Q2434.5 76.7409 2438.27 74.756 Q2442.04 72.7305 2447.43 72.7305 Q2448.2 72.7305 2449.13 72.852 Q2450.06 72.9331 2451.19 73.1356 L2451.23 80.7918 Z" fill="#000000" fill-rule="evenodd" fill-opacity="1" /><path clip-path="url(#clip590)" d="M 0 0 M2479.67 96.3878 Q2470.64 96.3878 2467.15 98.4538 Q2463.67 100.52 2463.67 105.502 Q2463.67 109.472 2466.26 111.822 Q2468.9 114.131 2473.39 114.131 Q2479.59 114.131 2483.32 109.756 Q2487.08 105.34 2487.08 98.0487 L2487.08 96.3878 L2479.67 96.3878 M2494.54 93.3091 L2494.54 119.194 L2487.08 119.194 L2487.08 112.308 Q2484.53 116.44 2480.72 118.425 Q2476.92 120.369 2471.41 120.369 Q2464.44 120.369 2460.31 116.48 Q2456.22 112.551 2456.22 105.988 Q2456.22 98.3322 2461.32 94.4434 Q2466.47 90.5545 2476.63 90.5545 L2487.08 90.5545 L2487.08 89.8253 Q2487.08 84.6807 2483.68 81.8856 Q2480.32 79.0499 2474.2 79.0499 Q2470.31 79.0499 2466.63 79.9816 Q2462.94 80.9133 2459.54 82.7768 L2459.54 75.8902 Q2463.63 74.3104 2467.48 73.5407 Q2471.33 72.7305 2474.97 72.7305 Q2484.82 72.7305 2489.68 77.8347 Q2494.54 82.9388 2494.54 93.3091 Z" fill="#000000" fill-rule="evenodd" fill-opacity="1" /><path clip-path="url(#clip590)" d="M 0 0 M2537.68 82.5337 Q2540.48 77.5106 2544.36 75.1206 Q2548.25 72.7305 2553.52 72.7305 Q2560.61 72.7305 2564.46 77.7131 Q2568.3 82.6552 2568.3 91.8103 L2568.3 119.194 L2560.81 119.194 L2560.81 92.0533 Q2560.81 85.5314 2558.5 82.3717 Q2556.19 79.212 2551.45 79.212 Q2545.66 79.212 2542.3 83.0603 Q2538.94 86.9087 2538.94 93.5522 L2538.94 119.194 L2531.44 119.194 L2531.44 92.0533 Q2531.44 85.4909 2529.13 82.3717 Q2526.82 79.212 2522 79.212 Q2516.29 79.212 2512.93 83.1008 Q2509.57 86.9492 2509.57 93.5522 L2509.57 119.194 L2502.07 119.194 L2502.07 73.8243 L2509.57 73.8243 L2509.57 80.8728 Q2512.12 76.7004 2515.68 74.7155 Q2519.25 72.7305 2524.15 72.7305 Q2529.09 72.7305 2532.54 75.2421 Q2536.02 77.7536 2537.68 82.5337 Z" fill="#000000" fill-rule="evenodd" fill-opacity="1" /><path clip-path="url(#clip590)" d="M 0 0 M2614.93 94.6459 L2614.93 98.2917 L2580.66 98.2917 Q2581.15 105.988 2585.28 110.039 Q2589.45 114.05 2596.86 114.05 Q2601.16 114.05 2605.17 112.997 Q2609.22 111.943 2613.19 109.837 L2613.19 116.885 Q2609.18 118.587 2604.97 119.478 Q2600.75 120.369 2596.42 120.369 Q2585.56 120.369 2579.2 114.05 Q2572.88 107.73 2572.88 96.9549 Q2572.88 85.8149 2578.88 79.293 Q2584.91 72.7305 2595.12 72.7305 Q2604.28 72.7305 2609.58 78.6448 Q2614.93 84.5187 2614.93 94.6459 M2607.48 92.4584 Q2607.4 86.3416 2604.03 82.6957 Q2600.71 79.0499 2595.2 79.0499 Q2588.96 79.0499 2585.2 82.5742 Q2581.47 86.0985 2580.9 92.4989 L2607.48 92.4584 Z" fill="#000000" fill-rule="evenodd" fill-opacity="1" /><path clip-path="url(#clip590)" d="M 0 0 M2630.12 60.9424 L2630.12 73.8243 L2645.47 73.8243 L2645.47 79.6171 L2630.12 79.6171 L2630.12 104.247 Q2630.12 109.796 2631.62 111.376 Q2633.16 112.956 2637.82 112.956 L2645.47 112.956 L2645.47 119.194 L2637.82 119.194 Q2629.19 119.194 2625.91 115.994 Q2622.63 112.753 2622.63 104.247 L2622.63 79.6171 L2617.16 79.6171 L2617.16 73.8243 L2622.63 73.8243 L2622.63 60.9424 L2630.12 60.9424 Z" fill="#000000" fill-rule="evenodd" fill-opacity="1" /><path clip-path="url(#clip590)" d="M 0 0 M2692.1 94.6459 L2692.1 98.2917 L2657.83 98.2917 Q2658.32 105.988 2662.45 110.039 Q2666.62 114.05 2674.03 114.05 Q2678.33 114.05 2682.34 112.997 Q2686.39 111.943 2690.36 109.837 L2690.36 116.885 Q2686.35 118.587 2682.14 119.478 Q2677.92 120.369 2673.59 120.369 Q2662.73 120.369 2656.37 114.05 Q2650.05 107.73 2650.05 96.9549 Q2650.05 85.8149 2656.05 79.293 Q2662.08 72.7305 2672.29 72.7305 Q2681.45 72.7305 2686.75 78.6448 Q2692.1 84.5187 2692.1 94.6459 M2684.65 92.4584 Q2684.57 86.3416 2681.2 82.6957 Q2677.88 79.0499 2672.37 79.0499 Q2666.13 79.0499 2662.37 82.5742 Q2658.64 86.0985 2658.07 92.4989 L2684.65 92.4584 Z" fill="#000000" fill-rule="evenodd" fill-opacity="1" /><path clip-path="url(#clip590)" d="M 0 0 M2726.21 80.7918 Q2724.95 80.0627 2723.45 79.7386 Q2722 79.374 2720.21 79.374 Q2713.89 79.374 2710.49 83.5059 Q2707.13 87.5973 2707.13 95.2941 L2707.13 119.194 L2699.64 119.194 L2699.64 73.8243 L2707.13 73.8243 L2707.13 80.8728 Q2709.48 76.7409 2713.25 74.756 Q2717.01 72.7305 2722.4 72.7305 Q2723.17 72.7305 2724.1 72.852 Q2725.03 72.9331 2726.17 73.1356 L2726.21 80.7918 Z" fill="#000000" fill-rule="evenodd" fill-opacity="1" /><path clip-path="url(#clip590)" d="M 0 0 M2762.95 75.1611 L2762.95 82.2096 Q2759.79 80.5893 2756.39 79.7791 Q2752.99 78.9689 2749.34 78.9689 Q2743.79 78.9689 2740.99 80.6703 Q2738.24 82.3717 2738.24 85.7744 Q2738.24 88.367 2740.23 89.8658 Q2742.21 91.3242 2748.21 92.661 L2750.76 93.2281 Q2758.7 94.9295 2762.02 98.0487 Q2765.38 101.127 2765.38 106.677 Q2765.38 112.997 2760.36 116.683 Q2755.38 120.369 2746.63 120.369 Q2742.98 120.369 2739.01 119.64 Q2735.08 118.951 2730.71 117.534 L2730.71 109.837 Q2734.84 111.984 2738.85 113.078 Q2742.86 114.131 2746.79 114.131 Q2752.05 114.131 2754.89 112.348 Q2757.73 110.525 2757.73 107.244 Q2757.73 104.206 2755.66 102.586 Q2753.63 100.965 2746.71 99.4665 L2744.11 98.8589 Q2737.19 97.4005 2734.11 94.4029 Q2731.03 91.3647 2731.03 86.0985 Q2731.03 79.6981 2735.57 76.2143 Q2740.1 72.7305 2748.45 72.7305 Q2752.58 72.7305 2756.23 73.3382 Q2759.87 73.9458 2762.95 75.1611 Z" fill="#000000" fill-rule="evenodd" fill-opacity="1" /><path clip-path="url(#clip590)" d="M 0 0 M750.72 1205.13 L750.72 1213.76 Q746.588 1209.91 741.889 1208.01 Q737.23 1206.11 731.964 1206.11 Q721.594 1206.11 716.084 1212.47 Q710.575 1218.79 710.575 1230.78 Q710.575 1242.73 716.084 1249.09 Q721.594 1255.41 731.964 1255.41 Q737.23 1255.41 741.889 1253.5 Q746.588 1251.6 750.72 1247.75 L750.72 1256.3 Q746.426 1259.21 741.605 1260.67 Q736.825 1262.13 731.478 1262.13 Q717.745 1262.13 709.846 1253.74 Q701.947 1245.32 701.947 1230.78 Q701.947 1216.19 709.846 1207.81 Q717.745 1199.38 731.478 1199.38 Q736.906 1199.38 741.686 1200.84 Q746.507 1202.26 750.72 1205.13 Z" fill="#000000" fill-rule="evenodd" fill-opacity="1" /><path clip-path="url(#clip590)" d="M 0 0 M758.538 1197.92 L765.991 1197.92 L765.991 1260.96 L758.538 1260.96 L758.538 1197.92 Z" fill="#000000" fill-rule="evenodd" fill-opacity="1" /><path clip-path="url(#clip590)" d="M 0 0 M773.81 1215.59 L781.263 1215.59 L781.263 1260.96 L773.81 1260.96 L773.81 1215.59 M773.81 1197.92 L781.263 1197.92 L781.263 1207.36 L773.81 1207.36 L773.81 1197.92 Z" fill="#000000" fill-rule="evenodd" fill-opacity="1" /><path clip-path="url(#clip590)" d="M 0 0 M827.889 1236.41 L827.889 1240.05 L793.619 1240.05 Q794.105 1247.75 798.237 1251.8 Q802.409 1255.81 809.822 1255.81 Q814.116 1255.81 818.127 1254.76 Q822.177 1253.7 826.147 1251.6 L826.147 1258.65 Q822.137 1260.35 817.924 1261.24 Q813.711 1262.13 809.377 1262.13 Q798.52 1262.13 792.16 1255.81 Q785.841 1249.49 785.841 1238.72 Q785.841 1227.58 791.836 1221.05 Q797.872 1214.49 808.08 1214.49 Q817.235 1214.49 822.542 1220.41 Q827.889 1226.28 827.889 1236.41 M820.436 1234.22 Q820.355 1228.1 816.992 1224.46 Q813.671 1220.81 808.161 1220.81 Q801.923 1220.81 798.156 1224.34 Q794.429 1227.86 793.862 1234.26 L820.436 1234.22 Z" fill="#000000" fill-rule="evenodd" fill-opacity="1" /><path clip-path="url(#clip590)" d="M 0 0 M873.421 1233.57 L873.421 1260.96 L865.968 1260.96 L865.968 1233.81 Q865.968 1227.37 863.456 1224.17 Q860.945 1220.97 855.921 1220.97 Q849.886 1220.97 846.402 1224.82 Q842.918 1228.67 842.918 1235.31 L842.918 1260.96 L835.424 1260.96 L835.424 1215.59 L842.918 1215.59 L842.918 1222.63 Q845.592 1218.54 849.197 1216.52 Q852.843 1214.49 857.582 1214.49 Q865.401 1214.49 869.411 1219.35 Q873.421 1224.17 873.421 1233.57 Z" fill="#000000" fill-rule="evenodd" fill-opacity="1" /><path clip-path="url(#clip590)" d="M 0 0 M888.612 1202.7 L888.612 1215.59 L903.965 1215.59 L903.965 1221.38 L888.612 1221.38 L888.612 1246.01 Q888.612 1251.56 890.111 1253.14 Q891.65 1254.72 896.309 1254.72 L903.965 1254.72 L903.965 1260.96 L896.309 1260.96 Q887.681 1260.96 884.399 1257.76 Q881.118 1254.51 881.118 1246.01 L881.118 1221.38 L875.649 1221.38 L875.649 1215.59 L881.118 1215.59 L881.118 1202.7 L888.612 1202.7 Z" fill="#000000" fill-rule="evenodd" fill-opacity="1" /><path clip-path="url(#clip590)" d="M 0 0 M946.257 1274.73 L946.257 1280.52 L903.155 1280.52 L903.155 1274.73 L946.257 1274.73 Z" fill="#000000" fill-rule="evenodd" fill-opacity="1" /><path clip-path="url(#clip590)" d="M 0 0 M974.694 1238.15 Q965.66 1238.15 962.177 1240.21 Q958.693 1242.28 958.693 1247.26 Q958.693 1251.23 961.286 1253.58 Q963.919 1255.89 968.415 1255.89 Q974.613 1255.89 978.34 1251.52 Q982.107 1247.1 982.107 1239.81 L982.107 1238.15 L974.694 1238.15 M989.561 1235.07 L989.561 1260.96 L982.107 1260.96 L982.107 1254.07 Q979.555 1258.2 975.747 1260.19 Q971.939 1262.13 966.43 1262.13 Q959.463 1262.13 955.331 1258.24 Q951.239 1254.31 951.239 1247.75 Q951.239 1240.09 956.343 1236.2 Q961.488 1232.32 971.656 1232.32 L982.107 1232.32 L982.107 1231.59 Q982.107 1226.44 978.704 1223.65 Q975.342 1220.81 969.225 1220.81 Q965.336 1220.81 961.65 1221.74 Q957.964 1222.67 954.561 1224.54 L954.561 1217.65 Q958.652 1216.07 962.501 1215.3 Q966.349 1214.49 969.995 1214.49 Q979.839 1214.49 984.7 1219.6 Q989.561 1224.7 989.561 1235.07 Z" fill="#000000" fill-rule="evenodd" fill-opacity="1" /><path clip-path="url(#clip590)" d="M 0 0 M1035.09 1233.57 L1035.09 1260.96 L1027.64 1260.96 L1027.64 1233.81 Q1027.64 1227.37 1025.13 1224.17 Q1022.62 1220.97 1017.59 1220.97 Q1011.56 1220.97 1008.07 1224.82 Q1004.59 1228.67 1004.59 1235.31 L1004.59 1260.96 L997.095 1260.96 L997.095 1215.59 L1004.59 1215.59 L1004.59 1222.63 Q1007.26 1218.54 1010.87 1216.52 Q1014.51 1214.49 1019.25 1214.49 Q1027.07 1214.49 1031.08 1219.35 Q1035.09 1224.17 1035.09 1233.57 Z" fill="#000000" fill-rule="evenodd" fill-opacity="1" /><path clip-path="url(#clip590)" d="M 0 0 M1072.77 1222.47 L1072.77 1197.92 L1080.22 1197.92 L1080.22 1260.96 L1072.77 1260.96 L1072.77 1254.15 Q1070.42 1258.2 1066.81 1260.19 Q1063.25 1262.13 1058.22 1262.13 Q1050 1262.13 1044.82 1255.57 Q1039.67 1249.01 1039.67 1238.31 Q1039.67 1227.62 1044.82 1221.05 Q1050 1214.49 1058.22 1214.49 Q1063.25 1214.49 1066.81 1216.48 Q1070.42 1218.42 1072.77 1222.47 M1047.37 1238.31 Q1047.37 1246.53 1050.73 1251.23 Q1054.13 1255.89 1060.05 1255.89 Q1065.96 1255.89 1069.36 1251.23 Q1072.77 1246.53 1072.77 1238.31 Q1072.77 1230.09 1069.36 1225.43 Q1065.96 1220.73 1060.05 1220.73 Q1054.13 1220.73 1050.73 1225.43 Q1047.37 1230.09 1047.37 1238.31 Z" fill="#000000" fill-rule="evenodd" fill-opacity="1" /><path clip-path="url(#clip590)" d="M 0 0 M1122.51 1274.73 L1122.51 1280.52 L1079.41 1280.52 L1079.41 1274.73 L1122.51 1274.73 Z" fill="#000000" fill-rule="evenodd" fill-opacity="1" /><path clip-path="url(#clip590)" d="M 0 0 M1175.94 1205.13 L1175.94 1213.76 Q1171.81 1209.91 1167.11 1208.01 Q1162.45 1206.11 1157.19 1206.11 Q1146.82 1206.11 1141.31 1212.47 Q1135.8 1218.79 1135.8 1230.78 Q1135.8 1242.73 1141.31 1249.09 Q1146.82 1255.41 1157.19 1255.41 Q1162.45 1255.41 1167.11 1253.5 Q1171.81 1251.6 1175.94 1247.75 L1175.94 1256.3 Q1171.65 1259.21 1166.83 1260.67 Q1162.05 1262.13 1156.7 1262.13 Q1142.97 1262.13 1135.07 1253.74 Q1127.17 1245.32 1127.17 1230.78 Q1127.17 1216.19 1135.07 1207.81 Q1142.97 1199.38 1156.7 1199.38 Q1162.13 1199.38 1166.91 1200.84 Q1171.73 1202.26 1175.94 1205.13 Z" fill="#000000" fill-rule="evenodd" fill-opacity="1" /><path clip-path="url(#clip590)" d="M 0 0 M1201.34 1220.81 Q1195.35 1220.81 1191.86 1225.51 Q1188.38 1230.17 1188.38 1238.31 Q1188.38 1246.45 1191.82 1251.15 Q1195.31 1255.81 1201.34 1255.81 Q1207.3 1255.81 1210.78 1251.11 Q1214.26 1246.41 1214.26 1238.31 Q1214.26 1230.25 1210.78 1225.55 Q1207.3 1220.81 1201.34 1220.81 M1201.34 1214.49 Q1211.06 1214.49 1216.61 1220.81 Q1222.16 1227.13 1222.16 1238.31 Q1222.16 1249.45 1216.61 1255.81 Q1211.06 1262.13 1201.34 1262.13 Q1191.58 1262.13 1186.03 1255.81 Q1180.52 1249.45 1180.52 1238.31 Q1180.52 1227.13 1186.03 1220.81 Q1191.58 1214.49 1201.34 1214.49 Z" fill="#000000" fill-rule="evenodd" fill-opacity="1" /><path clip-path="url(#clip590)" d="M 0 0 M1267.7 1233.57 L1267.7 1260.96 L1260.24 1260.96 L1260.24 1233.81 Q1260.24 1227.37 1257.73 1224.17 Q1255.22 1220.97 1250.2 1220.97 Q1244.16 1220.97 1240.68 1224.82 Q1237.19 1228.67 1237.19 1235.31 L1237.19 1260.96 L1229.7 1260.96 L1229.7 1215.59 L1237.19 1215.59 L1237.19 1222.63 Q1239.87 1218.54 1243.47 1216.52 Q1247.12 1214.49 1251.86 1214.49 Q1259.68 1214.49 1263.69 1219.35 Q1267.7 1224.17 1267.7 1233.57 Z" fill="#000000" fill-rule="evenodd" fill-opacity="1" /><path clip-path="url(#clip590)" d="M 0 0 M1304.44 1216.92 L1304.44 1223.97 Q1301.28 1222.35 1297.88 1221.54 Q1294.47 1220.73 1290.83 1220.73 Q1285.28 1220.73 1282.48 1222.43 Q1279.73 1224.13 1279.73 1227.54 Q1279.73 1230.13 1281.71 1231.63 Q1283.7 1233.09 1289.69 1234.42 L1292.24 1234.99 Q1300.18 1236.69 1303.51 1239.81 Q1306.87 1242.89 1306.87 1248.44 Q1306.87 1254.76 1301.85 1258.44 Q1296.86 1262.13 1288.11 1262.13 Q1284.47 1262.13 1280.5 1261.4 Q1276.57 1260.71 1272.19 1259.29 L1272.19 1251.6 Q1276.32 1253.74 1280.33 1254.84 Q1284.35 1255.89 1288.27 1255.89 Q1293.54 1255.89 1296.38 1254.11 Q1299.21 1252.29 1299.21 1249.01 Q1299.21 1245.97 1297.15 1244.35 Q1295.12 1242.73 1288.19 1241.23 L1285.6 1240.62 Q1278.67 1239.16 1275.6 1236.16 Q1272.52 1233.13 1272.52 1227.86 Q1272.52 1221.46 1277.05 1217.98 Q1281.59 1214.49 1289.94 1214.49 Q1294.07 1214.49 1297.71 1215.1 Q1301.36 1215.71 1304.44 1216.92 Z" fill="#000000" fill-rule="evenodd" fill-opacity="1" /><path clip-path="url(#clip590)" d="M 0 0 M1313.92 1243.05 L1313.92 1215.59 L1321.37 1215.59 L1321.37 1242.77 Q1321.37 1249.21 1323.88 1252.45 Q1326.39 1255.65 1331.42 1255.65 Q1337.45 1255.65 1340.94 1251.8 Q1344.46 1247.95 1344.46 1241.31 L1344.46 1215.59 L1351.91 1215.59 L1351.91 1260.96 L1344.46 1260.96 L1344.46 1253.99 Q1341.75 1258.12 1338.14 1260.15 Q1334.58 1262.13 1329.84 1262.13 Q1322.02 1262.13 1317.97 1257.27 Q1313.92 1252.41 1313.92 1243.05 M1332.67 1214.49 L1332.67 1214.49 Z" fill="#000000" fill-rule="evenodd" fill-opacity="1" /><path clip-path="url(#clip590)" d="M 0 0 M1359.73 1197.92 L1367.19 1197.92 L1367.19 1260.96 L1359.73 1260.96 L1359.73 1197.92 Z" fill="#000000" fill-rule="evenodd" fill-opacity="1" /><path clip-path="url(#clip590)" d="M 0 0 M1382.38 1202.7 L1382.38 1215.59 L1397.73 1215.59 L1397.73 1221.38 L1382.38 1221.38 L1382.38 1246.01 Q1382.38 1251.56 1383.88 1253.14 Q1385.42 1254.72 1390.07 1254.72 L1397.73 1254.72 L1397.73 1260.96 L1390.07 1260.96 Q1381.45 1260.96 1378.16 1257.76 Q1374.88 1254.51 1374.88 1246.01 L1374.88 1221.38 L1369.41 1221.38 L1369.41 1215.59 L1374.88 1215.59 L1374.88 1202.7 L1382.38 1202.7 Z" fill="#000000" fill-rule="evenodd" fill-opacity="1" /><path clip-path="url(#clip590)" d="M 0 0 M1426.17 1238.15 Q1417.13 1238.15 1413.65 1240.21 Q1410.17 1242.28 1410.17 1247.26 Q1410.17 1251.23 1412.76 1253.58 Q1415.39 1255.89 1419.89 1255.89 Q1426.09 1255.89 1429.81 1251.52 Q1433.58 1247.1 1433.58 1239.81 L1433.58 1238.15 L1426.17 1238.15 M1441.03 1235.07 L1441.03 1260.96 L1433.58 1260.96 L1433.58 1254.07 Q1431.03 1258.2 1427.22 1260.19 Q1423.41 1262.13 1417.9 1262.13 Q1410.94 1262.13 1406.8 1258.24 Q1402.71 1254.31 1402.71 1247.75 Q1402.71 1240.09 1407.82 1236.2 Q1412.96 1232.32 1423.13 1232.32 L1433.58 1232.32 L1433.58 1231.59 Q1433.58 1226.44 1430.18 1223.65 Q1426.82 1220.81 1420.7 1220.81 Q1416.81 1220.81 1413.12 1221.74 Q1409.44 1222.67 1406.03 1224.54 L1406.03 1217.65 Q1410.13 1216.07 1413.97 1215.3 Q1417.82 1214.49 1421.47 1214.49 Q1431.31 1214.49 1436.17 1219.6 Q1441.03 1224.7 1441.03 1235.07 Z" fill="#000000" fill-rule="evenodd" fill-opacity="1" /><path clip-path="url(#clip590)" d="M 0 0 M1486.57 1233.57 L1486.57 1260.96 L1479.11 1260.96 L1479.11 1233.81 Q1479.11 1227.37 1476.6 1224.17 Q1474.09 1220.97 1469.07 1220.97 Q1463.03 1220.97 1459.55 1224.82 Q1456.06 1228.67 1456.06 1235.31 L1456.06 1260.96 L1448.57 1260.96 L1448.57 1215.59 L1456.06 1215.59 L1456.06 1222.63 Q1458.74 1218.54 1462.34 1216.52 Q1465.99 1214.49 1470.73 1214.49 Q1478.55 1214.49 1482.56 1219.35 Q1486.57 1224.17 1486.57 1233.57 Z" fill="#000000" fill-rule="evenodd" fill-opacity="1" /><path clip-path="url(#clip590)" d="M 0 0 M1501.76 1202.7 L1501.76 1215.59 L1517.11 1215.59 L1517.11 1221.38 L1501.76 1221.38 L1501.76 1246.01 Q1501.76 1251.56 1503.26 1253.14 Q1504.8 1254.72 1509.45 1254.72 L1517.11 1254.72 L1517.11 1260.96 L1509.45 1260.96 Q1500.83 1260.96 1497.54 1257.76 Q1494.26 1254.51 1494.26 1246.01 L1494.26 1221.38 L1488.79 1221.38 L1488.79 1215.59 L1494.26 1215.59 L1494.26 1202.7 L1501.76 1202.7 Z" fill="#000000" fill-rule="evenodd" fill-opacity="1" /><path clip-path="url(#clip590)" d="M 0 0 M1559.4 1274.73 L1559.4 1280.52 L1516.3 1280.52 L1516.3 1274.73 L1559.4 1274.73 Z" fill="#000000" fill-rule="evenodd" fill-opacity="1" /><path clip-path="url(#clip590)" d="M 0 0 M1596.22 1232.6 Q1598.86 1233.49 1601.33 1236.41 Q1603.84 1239.32 1606.35 1244.43 L1614.66 1260.96 L1605.87 1260.96 L1598.13 1245.44 Q1595.13 1239.36 1592.29 1237.38 Q1589.5 1235.39 1584.64 1235.39 L1575.73 1235.39 L1575.73 1260.96 L1567.54 1260.96 L1567.54 1200.48 L1586.02 1200.48 Q1596.39 1200.48 1601.49 1204.81 Q1606.59 1209.14 1606.59 1217.89 Q1606.59 1223.61 1603.92 1227.37 Q1601.29 1231.14 1596.22 1232.6 M1575.73 1207.2 L1575.73 1228.67 L1586.02 1228.67 Q1591.93 1228.67 1594.93 1225.96 Q1597.97 1223.2 1597.97 1217.89 Q1597.97 1212.59 1594.93 1209.91 Q1591.93 1207.2 1586.02 1207.2 L1575.73 1207.2 Z" fill="#000000" fill-rule="evenodd" fill-opacity="1" /><path clip-path="url(#clip590)" d="M 0 0 M1657.55 1236.41 L1657.55 1240.05 L1623.28 1240.05 Q1623.77 1247.75 1627.9 1251.8 Q1632.07 1255.81 1639.49 1255.81 Q1643.78 1255.81 1647.79 1254.76 Q1651.84 1253.7 1655.81 1251.6 L1655.81 1258.65 Q1651.8 1260.35 1647.59 1261.24 Q1643.38 1262.13 1639.04 1262.13 Q1628.19 1262.13 1621.83 1255.81 Q1615.51 1249.49 1615.51 1238.72 Q1615.51 1227.58 1621.5 1221.05 Q1627.54 1214.49 1637.75 1214.49 Q1646.9 1214.49 1652.21 1220.41 Q1657.55 1226.28 1657.55 1236.41 M1650.1 1234.22 Q1650.02 1228.1 1646.66 1224.46 Q1643.34 1220.81 1637.83 1220.81 Q1631.59 1220.81 1627.82 1224.34 Q1624.09 1227.86 1623.53 1234.26 L1650.1 1234.22 Z" fill="#000000" fill-rule="evenodd" fill-opacity="1" /><path clip-path="url(#clip590)" d="M 0 0 M1669.83 1238.31 Q1669.83 1246.53 1673.19 1251.23 Q1676.59 1255.89 1682.51 1255.89 Q1688.42 1255.89 1691.83 1251.23 Q1695.23 1246.53 1695.23 1238.31 Q1695.23 1230.09 1691.83 1225.43 Q1688.42 1220.73 1682.51 1220.73 Q1676.59 1220.73 1673.19 1225.43 Q1669.83 1230.09 1669.83 1238.31 M1695.23 1254.15 Q1692.88 1258.2 1689.27 1260.19 Q1685.71 1262.13 1680.69 1262.13 Q1672.46 1262.13 1667.28 1255.57 Q1662.13 1249.01 1662.13 1238.31 Q1662.13 1227.62 1667.28 1221.05 Q1672.46 1214.49 1680.69 1214.49 Q1685.71 1214.49 1689.27 1216.48 Q1692.88 1218.42 1695.23 1222.47 L1695.23 1215.59 L1702.68 1215.59 L1702.68 1278.21 L1695.23 1278.21 L1695.23 1254.15 Z" fill="#000000" fill-rule="evenodd" fill-opacity="1" /><path clip-path="url(#clip590)" d="M 0 0 M1709.73 1243.05 L1709.73 1215.59 L1717.18 1215.59 L1717.18 1242.77 Q1717.18 1249.21 1719.7 1252.45 Q1722.21 1255.65 1727.23 1255.65 Q1733.27 1255.65 1736.75 1251.8 Q1740.27 1247.95 1740.27 1241.31 L1740.27 1215.59 L1747.73 1215.59 L1747.73 1260.96 L1740.27 1260.96 L1740.27 1253.99 Q1737.56 1258.12 1733.95 1260.15 Q1730.39 1262.13 1725.65 1262.13 Q1717.83 1262.13 1713.78 1257.27 Q1709.73 1252.41 1709.73 1243.05 M1728.49 1214.49 L1728.49 1214.49 Z" fill="#000000" fill-rule="evenodd" fill-opacity="1" /><path clip-path="url(#clip590)" d="M 0 0 M1794.35 1236.41 L1794.35 1240.05 L1760.08 1240.05 Q1760.57 1247.75 1764.7 1251.8 Q1768.87 1255.81 1776.29 1255.81 Q1780.58 1255.81 1784.59 1254.76 Q1788.64 1253.7 1792.61 1251.6 L1792.61 1258.65 Q1788.6 1260.35 1784.39 1261.24 Q1780.18 1262.13 1775.84 1262.13 Q1764.98 1262.13 1758.62 1255.81 Q1752.31 1249.49 1752.31 1238.72 Q1752.31 1227.58 1758.3 1221.05 Q1764.34 1214.49 1774.55 1214.49 Q1783.7 1214.49 1789.01 1220.41 Q1794.35 1226.28 1794.35 1236.41 M1786.9 1234.22 Q1786.82 1228.1 1783.46 1224.46 Q1780.14 1220.81 1774.63 1220.81 Q1768.39 1220.81 1764.62 1224.34 Q1760.89 1227.86 1760.33 1234.26 L1786.9 1234.22 Z" fill="#000000" fill-rule="evenodd" fill-opacity="1" /><path clip-path="url(#clip590)" d="M 0 0 M1831.1 1216.92 L1831.1 1223.97 Q1827.94 1222.35 1824.53 1221.54 Q1821.13 1220.73 1817.48 1220.73 Q1811.93 1220.73 1809.14 1222.43 Q1806.39 1224.13 1806.39 1227.54 Q1806.39 1230.13 1808.37 1231.63 Q1810.36 1233.09 1816.35 1234.42 L1818.9 1234.99 Q1826.84 1236.69 1830.16 1239.81 Q1833.53 1242.89 1833.53 1248.44 Q1833.53 1254.76 1828.5 1258.44 Q1823.52 1262.13 1814.77 1262.13 Q1811.12 1262.13 1807.15 1261.4 Q1803.23 1260.71 1798.85 1259.29 L1798.85 1251.6 Q1802.98 1253.74 1806.99 1254.84 Q1811 1255.89 1814.93 1255.89 Q1820.2 1255.89 1823.03 1254.11 Q1825.87 1252.29 1825.87 1249.01 Q1825.87 1245.97 1823.8 1244.35 Q1821.78 1242.73 1814.85 1241.23 L1812.26 1240.62 Q1805.33 1239.16 1802.25 1236.16 Q1799.17 1233.13 1799.17 1227.86 Q1799.17 1221.46 1803.71 1217.98 Q1808.25 1214.49 1816.59 1214.49 Q1820.73 1214.49 1824.37 1215.1 Q1828.02 1215.71 1831.1 1216.92 Z" fill="#000000" fill-rule="evenodd" fill-opacity="1" /><path clip-path="url(#clip590)" d="M 0 0 M1848.72 1202.7 L1848.72 1215.59 L1864.07 1215.59 L1864.07 1221.38 L1848.72 1221.38 L1848.72 1246.01 Q1848.72 1251.56 1850.22 1253.14 Q1851.76 1254.72 1856.41 1254.72 L1864.07 1254.72 L1864.07 1260.96 L1856.41 1260.96 Q1847.79 1260.96 1844.5 1257.76 Q1841.22 1254.51 1841.22 1246.01 L1841.22 1221.38 L1835.75 1221.38 L1835.75 1215.59 L1841.22 1215.59 L1841.22 1202.7 L1848.72 1202.7 Z" fill="#000000" fill-rule="evenodd" fill-opacity="1" /><path clip-path="url(#clip590)" d="M 0 0 M1900.81 1216.92 L1900.81 1223.97 Q1897.65 1222.35 1894.25 1221.54 Q1890.85 1220.73 1887.2 1220.73 Q1881.65 1220.73 1878.86 1222.43 Q1876.1 1224.13 1876.1 1227.54 Q1876.1 1230.13 1878.09 1231.63 Q1880.07 1233.09 1886.07 1234.42 L1888.62 1234.99 Q1896.56 1236.69 1899.88 1239.81 Q1903.24 1242.89 1903.24 1248.44 Q1903.24 1254.76 1898.22 1258.44 Q1893.24 1262.13 1884.49 1262.13 Q1880.84 1262.13 1876.87 1261.4 Q1872.94 1260.71 1868.57 1259.29 L1868.57 1251.6 Q1872.7 1253.74 1876.71 1254.84 Q1880.72 1255.89 1884.65 1255.89 Q1889.91 1255.89 1892.75 1254.11 Q1895.59 1252.29 1895.59 1249.01 Q1895.59 1245.97 1893.52 1244.35 Q1891.49 1242.73 1884.57 1241.23 L1881.98 1240.62 Q1875.05 1239.16 1871.97 1236.16 Q1868.89 1233.13 1868.89 1227.86 Q1868.89 1221.46 1873.43 1217.98 Q1877.96 1214.49 1886.31 1214.49 Q1890.44 1214.49 1894.09 1215.1 Q1897.73 1215.71 1900.81 1216.92 Z" fill="#000000" fill-rule="evenodd" fill-opacity="1" /><path clip-path="url(#clip590)" d="M 0 0 M1909.02 1455.78 L1909.02 1502.81 L1918.9 1502.81 Q1931.42 1502.81 1937.21 1497.14 Q1943.05 1491.47 1943.05 1479.24 Q1943.05 1467.08 1937.21 1461.45 Q1931.42 1455.78 1918.9 1455.78 L1909.02 1455.78 M1900.84 1449.06 L1917.65 1449.06 Q1935.23 1449.06 1943.45 1456.39 Q1951.67 1463.68 1951.67 1479.24 Q1951.67 1494.87 1943.41 1502.21 Q1935.15 1509.54 1917.65 1509.54 L1900.84 1509.54 L1900.84 1449.06 Z" fill="#000000" fill-rule="evenodd" fill-opacity="1" /><path clip-path="url(#clip590)" d="M 0 0 M1998.3 1484.99 L1998.3 1488.63 L1964.03 1488.63 Q1964.52 1496.33 1968.65 1500.38 Q1972.82 1504.39 1980.23 1504.39 Q1984.53 1504.39 1988.54 1503.34 Q1992.59 1502.29 1996.56 1500.18 L1996.56 1507.23 Q1992.55 1508.93 1988.33 1509.82 Q1984.12 1510.71 1979.79 1510.71 Q1968.93 1510.71 1962.57 1504.39 Q1956.25 1498.07 1956.25 1487.3 Q1956.25 1476.16 1962.25 1469.64 Q1968.28 1463.07 1978.49 1463.07 Q1987.65 1463.07 1992.95 1468.99 Q1998.3 1474.86 1998.3 1484.99 M1990.85 1482.8 Q1990.77 1476.68 1987.4 1473.04 Q1984.08 1469.39 1978.57 1469.39 Q1972.33 1469.39 1968.57 1472.92 Q1964.84 1476.44 1964.27 1482.84 L1990.85 1482.8 Z" fill="#000000" fill-rule="evenodd" fill-opacity="1" /><path clip-path="url(#clip590)" d="M 0 0 M2035.04 1465.5 L2035.04 1472.55 Q2031.88 1470.93 2028.48 1470.12 Q2025.08 1469.31 2021.43 1469.31 Q2015.88 1469.31 2013.09 1471.01 Q2010.33 1472.71 2010.33 1476.12 Q2010.33 1478.71 2012.32 1480.21 Q2014.3 1481.67 2020.3 1483 L2022.85 1483.57 Q2030.79 1485.27 2034.11 1488.39 Q2037.47 1491.47 2037.47 1497.02 Q2037.47 1503.34 2032.45 1507.03 Q2027.47 1510.71 2018.72 1510.71 Q2015.07 1510.71 2011.1 1509.98 Q2007.17 1509.29 2002.8 1507.88 L2002.8 1500.18 Q2006.93 1502.33 2010.94 1503.42 Q2014.95 1504.47 2018.88 1504.47 Q2024.14 1504.47 2026.98 1502.69 Q2029.82 1500.87 2029.82 1497.59 Q2029.82 1494.55 2027.75 1492.93 Q2025.72 1491.31 2018.8 1489.81 L2016.2 1489.2 Q2009.28 1487.74 2006.2 1484.75 Q2003.12 1481.71 2003.12 1476.44 Q2003.12 1470.04 2007.66 1466.56 Q2012.19 1463.07 2020.54 1463.07 Q2024.67 1463.07 2028.32 1463.68 Q2031.96 1464.29 2035.04 1465.5 Z" fill="#000000" fill-rule="evenodd" fill-opacity="1" /><path clip-path="url(#clip590)" d="M 0 0 M2045.29 1464.17 L2052.74 1464.17 L2052.74 1509.54 L2045.29 1509.54 L2045.29 1464.17 M2045.29 1446.51 L2052.74 1446.51 L2052.74 1455.94 L2045.29 1455.94 L2045.29 1446.51 Z" fill="#000000" fill-rule="evenodd" fill-opacity="1" /><path clip-path="url(#clip590)" d="M 0 0 M2090.42 1486.33 Q2090.42 1478.22 2087.06 1473.77 Q2083.73 1469.31 2077.7 1469.31 Q2071.7 1469.31 2068.34 1473.77 Q2065.02 1478.22 2065.02 1486.33 Q2065.02 1494.39 2068.34 1498.84 Q2071.7 1503.3 2077.7 1503.3 Q2083.73 1503.3 2087.06 1498.84 Q2090.42 1494.39 2090.42 1486.33 M2097.87 1503.91 Q2097.87 1515.49 2092.73 1521.12 Q2087.58 1526.79 2076.97 1526.79 Q2073.04 1526.79 2069.56 1526.19 Q2066.07 1525.62 2062.79 1524.4 L2062.79 1517.15 Q2066.07 1518.94 2069.27 1519.79 Q2072.47 1520.64 2075.79 1520.64 Q2083.13 1520.64 2086.77 1516.79 Q2090.42 1512.98 2090.42 1505.24 L2090.42 1501.56 Q2088.11 1505.57 2084.5 1507.55 Q2080.9 1509.54 2075.87 1509.54 Q2067.53 1509.54 2062.43 1503.18 Q2057.32 1496.82 2057.32 1486.33 Q2057.32 1475.79 2062.43 1469.43 Q2067.53 1463.07 2075.87 1463.07 Q2080.9 1463.07 2084.5 1465.06 Q2088.11 1467.04 2090.42 1471.05 L2090.42 1464.17 L2097.87 1464.17 L2097.87 1503.91 Z" fill="#000000" fill-rule="evenodd" fill-opacity="1" /><path clip-path="url(#clip590)" d="M 0 0 M2143.4 1482.15 L2143.4 1509.54 L2135.95 1509.54 L2135.95 1482.4 Q2135.95 1475.96 2133.44 1472.76 Q2130.93 1469.56 2125.9 1469.56 Q2119.87 1469.56 2116.38 1473.4 Q2112.9 1477.25 2112.9 1483.9 L2112.9 1509.54 L2105.41 1509.54 L2105.41 1464.17 L2112.9 1464.17 L2112.9 1471.22 Q2115.57 1467.12 2119.18 1465.1 Q2122.82 1463.07 2127.56 1463.07 Q2135.38 1463.07 2139.39 1467.93 Q2143.4 1472.76 2143.4 1482.15 Z" fill="#000000" fill-rule="evenodd" fill-opacity="1" /><path clip-path="url(#clip590)" d="M 0 0 M2185.69 1523.31 L2185.69 1529.1 L2142.59 1529.1 L2142.59 1523.31 L2185.69 1523.31 Z" fill="#000000" fill-rule="evenodd" fill-opacity="1" /><path clip-path="url(#clip590)" d="M 0 0 M2222.52 1481.18 Q2225.15 1482.07 2227.62 1484.99 Q2230.13 1487.91 2232.64 1493.01 L2240.95 1509.54 L2232.16 1509.54 L2224.42 1494.02 Q2221.42 1487.95 2218.59 1485.96 Q2215.79 1483.98 2210.93 1483.98 L2202.02 1483.98 L2202.02 1509.54 L2193.84 1509.54 L2193.84 1449.06 L2212.31 1449.06 Q2222.68 1449.06 2227.78 1453.39 Q2232.89 1457.73 2232.89 1466.48 Q2232.89 1472.19 2230.21 1475.96 Q2227.58 1479.72 2222.52 1481.18 M2202.02 1455.78 L2202.02 1477.25 L2212.31 1477.25 Q2218.22 1477.25 2221.22 1474.54 Q2224.26 1471.78 2224.26 1466.48 Q2224.26 1461.17 2221.22 1458.5 Q2218.22 1455.78 2212.31 1455.78 L2202.02 1455.78 Z" fill="#000000" fill-rule="evenodd" fill-opacity="1" /><path clip-path="url(#clip590)" d="M 0 0 M2283.85 1484.99 L2283.85 1488.63 L2249.58 1488.63 Q2250.06 1496.33 2254.2 1500.38 Q2258.37 1504.39 2265.78 1504.39 Q2270.08 1504.39 2274.09 1503.34 Q2278.14 1502.29 2282.11 1500.18 L2282.11 1507.23 Q2278.1 1508.93 2273.88 1509.82 Q2269.67 1510.71 2265.34 1510.71 Q2254.48 1510.71 2248.12 1504.39 Q2241.8 1498.07 2241.8 1487.3 Q2241.8 1476.16 2247.8 1469.64 Q2253.83 1463.07 2264.04 1463.07 Q2273.19 1463.07 2278.5 1468.99 Q2283.85 1474.86 2283.85 1484.99 M2276.39 1482.8 Q2276.31 1476.68 2272.95 1473.04 Q2269.63 1469.39 2264.12 1469.39 Q2257.88 1469.39 2254.11 1472.92 Q2250.39 1476.44 2249.82 1482.84 L2276.39 1482.8 Z" fill="#000000" fill-rule="evenodd" fill-opacity="1" /><path clip-path="url(#clip590)" d="M 0 0 M2312.29 1486.73 Q2303.25 1486.73 2299.77 1488.8 Q2296.28 1490.86 2296.28 1495.85 Q2296.28 1499.82 2298.88 1502.16 Q2301.51 1504.47 2306.01 1504.47 Q2312.2 1504.47 2315.93 1500.1 Q2319.7 1495.68 2319.7 1488.39 L2319.7 1486.73 L2312.29 1486.73 M2327.15 1483.65 L2327.15 1509.54 L2319.7 1509.54 L2319.7 1502.65 Q2317.15 1506.78 2313.34 1508.77 Q2309.53 1510.71 2304.02 1510.71 Q2297.05 1510.71 2292.92 1506.82 Q2288.83 1502.89 2288.83 1496.33 Q2288.83 1488.68 2293.93 1484.79 Q2299.08 1480.9 2309.25 1480.9 L2319.7 1480.9 L2319.7 1480.17 Q2319.7 1475.02 2316.3 1472.23 Q2312.93 1469.39 2306.82 1469.39 Q2302.93 1469.39 2299.24 1470.32 Q2295.56 1471.26 2292.15 1473.12 L2292.15 1466.23 Q2296.24 1464.65 2300.09 1463.88 Q2303.94 1463.07 2307.59 1463.07 Q2317.43 1463.07 2322.29 1468.18 Q2327.15 1473.28 2327.15 1483.65 Z" fill="#000000" fill-rule="evenodd" fill-opacity="1" /><path clip-path="url(#clip590)" d="M 0 0 M2363.89 1465.5 L2363.89 1472.55 Q2360.73 1470.93 2357.33 1470.12 Q2353.93 1469.31 2350.28 1469.31 Q2344.73 1469.31 2341.94 1471.01 Q2339.18 1472.71 2339.18 1476.12 Q2339.18 1478.71 2341.17 1480.21 Q2343.15 1481.67 2349.15 1483 L2351.7 1483.57 Q2359.64 1485.27 2362.96 1488.39 Q2366.32 1491.47 2366.32 1497.02 Q2366.32 1503.34 2361.3 1507.03 Q2356.32 1510.71 2347.57 1510.71 Q2343.92 1510.71 2339.95 1509.98 Q2336.02 1509.29 2331.65 1507.88 L2331.65 1500.18 Q2335.78 1502.33 2339.79 1503.42 Q2343.8 1504.47 2347.73 1504.47 Q2353 1504.47 2355.83 1502.69 Q2358.67 1500.87 2358.67 1497.59 Q2358.67 1494.55 2356.6 1492.93 Q2354.58 1491.31 2347.65 1489.81 L2345.06 1489.2 Q2338.13 1487.74 2335.05 1484.75 Q2331.97 1481.71 2331.97 1476.44 Q2331.97 1470.04 2336.51 1466.56 Q2341.05 1463.07 2349.39 1463.07 Q2353.52 1463.07 2357.17 1463.68 Q2360.82 1464.29 2363.89 1465.5 Z" fill="#000000" fill-rule="evenodd" fill-opacity="1" /><path clip-path="url(#clip590)" d="M 0 0 M2391.72 1469.39 Q2385.73 1469.39 2382.24 1474.09 Q2378.76 1478.75 2378.76 1486.89 Q2378.76 1495.04 2382.2 1499.73 Q2385.69 1504.39 2391.72 1504.39 Q2397.68 1504.39 2401.16 1499.69 Q2404.65 1494.99 2404.65 1486.89 Q2404.65 1478.83 2401.16 1474.13 Q2397.68 1469.39 2391.72 1469.39 M2391.72 1463.07 Q2401.45 1463.07 2407 1469.39 Q2412.55 1475.71 2412.55 1486.89 Q2412.55 1498.03 2407 1504.39 Q2401.45 1510.71 2391.72 1510.71 Q2381.96 1510.71 2376.41 1504.39 Q2370.9 1498.03 2370.9 1486.89 Q2370.9 1475.71 2376.41 1469.39 Q2381.96 1463.07 2391.72 1463.07 Z" fill="#000000" fill-rule="evenodd" fill-opacity="1" /><path clip-path="url(#clip590)" d="M 0 0 M2458.08 1482.15 L2458.08 1509.54 L2450.62 1509.54 L2450.62 1482.4 Q2450.62 1475.96 2448.11 1472.76 Q2445.6 1469.56 2440.58 1469.56 Q2434.54 1469.56 2431.06 1473.4 Q2427.57 1477.25 2427.57 1483.9 L2427.57 1509.54 L2420.08 1509.54 L2420.08 1464.17 L2427.57 1464.17 L2427.57 1471.22 Q2430.25 1467.12 2433.85 1465.1 Q2437.5 1463.07 2442.24 1463.07 Q2450.06 1463.07 2454.07 1467.93 Q2458.08 1472.76 2458.08 1482.15 Z" fill="#000000" fill-rule="evenodd" fill-opacity="1" /><path clip-path="url(#clip590)" d="M 0 0 M2465.9 1464.17 L2473.35 1464.17 L2473.35 1509.54 L2465.9 1509.54 L2465.9 1464.17 M2465.9 1446.51 L2473.35 1446.51 L2473.35 1455.94 L2465.9 1455.94 L2465.9 1446.51 Z" fill="#000000" fill-rule="evenodd" fill-opacity="1" /><path clip-path="url(#clip590)" d="M 0 0 M2518.88 1482.15 L2518.88 1509.54 L2511.43 1509.54 L2511.43 1482.4 Q2511.43 1475.96 2508.92 1472.76 Q2506.4 1469.56 2501.38 1469.56 Q2495.35 1469.56 2491.86 1473.4 Q2488.38 1477.25 2488.38 1483.9 L2488.38 1509.54 L2480.88 1509.54 L2480.88 1464.17 L2488.38 1464.17 L2488.38 1471.22 Q2491.05 1467.12 2494.66 1465.1 Q2498.3 1463.07 2503.04 1463.07 Q2510.86 1463.07 2514.87 1467.93 Q2518.88 1472.76 2518.88 1482.15 Z" fill="#000000" fill-rule="evenodd" fill-opacity="1" /><path clip-path="url(#clip590)" d="M 0 0 M2556.55 1486.33 Q2556.55 1478.22 2553.19 1473.77 Q2549.87 1469.31 2543.84 1469.31 Q2537.84 1469.31 2534.48 1473.77 Q2531.16 1478.22 2531.16 1486.33 Q2531.16 1494.39 2534.48 1498.84 Q2537.84 1503.3 2543.84 1503.3 Q2549.87 1503.3 2553.19 1498.84 Q2556.55 1494.39 2556.55 1486.33 M2564.01 1503.91 Q2564.01 1515.49 2558.86 1521.12 Q2553.72 1526.79 2543.11 1526.79 Q2539.18 1526.79 2535.69 1526.19 Q2532.21 1525.62 2528.93 1524.4 L2528.93 1517.15 Q2532.21 1518.94 2535.41 1519.79 Q2538.61 1520.64 2541.93 1520.64 Q2549.26 1520.64 2552.91 1516.79 Q2556.55 1512.98 2556.55 1505.24 L2556.55 1501.56 Q2554.25 1505.57 2550.64 1507.55 Q2547.04 1509.54 2542.01 1509.54 Q2533.67 1509.54 2528.56 1503.18 Q2523.46 1496.82 2523.46 1486.33 Q2523.46 1475.79 2528.56 1469.43 Q2533.67 1463.07 2542.01 1463.07 Q2547.04 1463.07 2550.64 1465.06 Q2554.25 1467.04 2556.55 1471.05 L2556.55 1464.17 L2564.01 1464.17 L2564.01 1503.91 Z" fill="#000000" fill-rule="evenodd" fill-opacity="1" /><path clip-path="url(#clip590)" d="M 0 0 M-39.194 796.867 L-39.194 805.496 Q-43.3259 801.647 -48.0249 799.743 Q-52.6835 797.839 -57.9497 797.839 Q-68.32 797.839 -73.8292 804.199 Q-79.3384 810.519 -79.3384 822.509 Q-79.3384 834.459 -73.8292 840.819 Q-68.32 847.139 -57.9497 847.139 Q-52.6835 847.139 -48.0249 845.235 Q-43.3259 843.331 -39.194 839.483 L-39.194 848.03 Q-43.4879 850.947 -48.3085 852.405 Q-53.0886 853.863 -58.4358 853.863 Q-72.1683 853.863 -80.0676 845.478 Q-87.9669 837.052 -87.9669 822.509 Q-87.9669 807.926 -80.0676 799.541 Q-72.1683 791.115 -58.4358 791.115 Q-53.0075 791.115 -48.2275 792.573 Q-43.4069 793.991 -39.194 796.867 Z" fill="#000000" fill-rule="evenodd" fill-opacity="1" /><path clip-path="url(#clip590)" d="M 0 0 M-13.7948 812.544 Q-19.7901 812.544 -23.2739 817.243 Q-26.7577 821.902 -26.7577 830.044 Q-26.7577 838.186 -23.3144 842.885 Q-19.8306 847.544 -13.7948 847.544 Q-7.83997 847.544 -4.35619 842.845 Q-0.87241 838.146 -0.87241 830.044 Q-0.87241 821.983 -4.35619 817.284 Q-7.83997 812.544 -13.7948 812.544 M-13.7948 806.225 Q-4.07262 806.225 1.47711 812.544 Q7.02685 818.863 7.02685 830.044 Q7.02685 841.184 1.47711 847.544 Q-4.07262 853.863 -13.7948 853.863 Q-23.5575 853.863 -29.1072 847.544 Q-34.6164 841.184 -34.6164 830.044 Q-34.6164 818.863 -29.1072 812.544 Q-23.5575 806.225 -13.7948 806.225 Z" fill="#000000" fill-rule="evenodd" fill-opacity="1" /><path clip-path="url(#clip590)" d="M 0 0 M14.8451 789.656 L22.2988 789.656 L22.2988 852.689 L14.8451 852.689 L14.8451 789.656 Z" fill="#000000" fill-rule="evenodd" fill-opacity="1" /><path clip-path="url(#clip590)" d="M 0 0 M30.117 789.656 L37.5707 789.656 L37.5707 852.689 L30.117 852.689 L30.117 789.656 Z" fill="#000000" fill-rule="evenodd" fill-opacity="1" /><path clip-path="url(#clip590)" d="M 0 0 M66.008 829.882 Q56.9745 829.882 53.4907 831.948 Q50.0069 834.014 50.0069 838.996 Q50.0069 842.966 52.5995 845.316 Q55.2326 847.625 59.7291 847.625 Q65.927 847.625 69.6538 843.25 Q73.4212 838.834 73.4212 831.543 L73.4212 829.882 L66.008 829.882 M80.8748 826.803 L80.8748 852.689 L73.4212 852.689 L73.4212 845.802 Q70.8691 849.934 67.0613 851.919 Q63.2534 853.863 57.7442 853.863 Q50.7766 853.863 46.6447 849.974 Q42.5533 846.045 42.5533 839.483 Q42.5533 831.826 47.6574 827.938 Q52.8021 824.049 62.9698 824.049 L73.4212 824.049 L73.4212 823.319 Q73.4212 818.175 70.0184 815.38 Q66.6562 812.544 60.5393 812.544 Q56.6504 812.544 52.9641 813.476 Q49.2778 814.408 45.875 816.271 L45.875 809.384 Q49.9664 807.805 53.8148 807.035 Q57.6632 806.225 61.309 806.225 Q71.1527 806.225 76.0138 811.329 Q80.8748 816.433 80.8748 826.803 Z" fill="#000000" fill-rule="evenodd" fill-opacity="1" /><path clip-path="url(#clip590)" d="M 0 0 M121.262 830.044 Q121.262 821.821 117.86 817.162 Q114.497 812.463 108.583 812.463 Q102.669 812.463 99.2659 817.162 Q95.9037 821.821 95.9037 830.044 Q95.9037 838.267 99.2659 842.966 Q102.669 847.625 108.583 847.625 Q114.497 847.625 117.86 842.966 Q121.262 838.267 121.262 830.044 M95.9037 814.205 Q98.2532 810.154 101.818 808.21 Q105.423 806.225 110.406 806.225 Q118.67 806.225 123.814 812.787 Q129 819.35 129 830.044 Q129 840.738 123.814 847.301 Q118.67 853.863 110.406 853.863 Q105.423 853.863 101.818 851.919 Q98.2532 849.934 95.9037 845.883 L95.9037 852.689 L88.4095 852.689 L88.4095 789.656 L95.9037 789.656 L95.9037 814.205 Z" fill="#000000" fill-rule="evenodd" fill-opacity="1" /><path clip-path="url(#clip590)" d="M 0 0 M154.399 812.544 Q148.403 812.544 144.92 817.243 Q141.436 821.902 141.436 830.044 Q141.436 838.186 144.879 842.885 Q148.363 847.544 154.399 847.544 Q160.354 847.544 163.837 842.845 Q167.321 838.146 167.321 830.044 Q167.321 821.983 163.837 817.284 Q160.354 812.544 154.399 812.544 M154.399 806.225 Q164.121 806.225 169.671 812.544 Q175.22 818.863 175.22 830.044 Q175.22 841.184 169.671 847.544 Q164.121 853.863 154.399 853.863 Q144.636 853.863 139.086 847.544 Q133.577 841.184 133.577 830.044 Q133.577 818.863 139.086 812.544 Q144.636 806.225 154.399 806.225 Z" fill="#000000" fill-rule="evenodd" fill-opacity="1" /><path clip-path="url(#clip590)" d="M 0 0 M209.329 814.286 Q208.073 813.557 206.574 813.233 Q205.116 812.868 203.334 812.868 Q197.014 812.868 193.612 817 Q190.249 821.091 190.249 828.788 L190.249 852.689 L182.755 852.689 L182.755 807.318 L190.249 807.318 L190.249 814.367 Q192.599 810.235 196.366 808.25 Q200.133 806.225 205.521 806.225 Q206.291 806.225 207.223 806.346 Q208.154 806.427 209.289 806.63 L209.329 814.286 Z" fill="#000000" fill-rule="evenodd" fill-opacity="1" /><path clip-path="url(#clip590)" d="M 0 0 M237.766 829.882 Q228.733 829.882 225.249 831.948 Q221.765 834.014 221.765 838.996 Q221.765 842.966 224.358 845.316 Q226.991 847.625 231.487 847.625 Q237.685 847.625 241.412 843.25 Q245.18 838.834 245.18 831.543 L245.18 829.882 L237.766 829.882 M252.633 826.803 L252.633 852.689 L245.18 852.689 L245.18 845.802 Q242.627 849.934 238.82 851.919 Q235.012 853.863 229.503 853.863 Q222.535 853.863 218.403 849.974 Q214.312 846.045 214.312 839.483 Q214.312 831.826 219.416 827.938 Q224.56 824.049 234.728 824.049 L245.18 824.049 L245.18 823.319 Q245.18 818.175 241.777 815.38 Q238.415 812.544 232.298 812.544 Q228.409 812.544 224.722 813.476 Q221.036 814.408 217.633 816.271 L217.633 809.384 Q221.725 807.805 225.573 807.035 Q229.421 806.225 233.067 806.225 Q242.911 806.225 247.772 811.329 Q252.633 816.433 252.633 826.803 Z" fill="#000000" fill-rule="evenodd" fill-opacity="1" /><path clip-path="url(#clip590)" d="M 0 0 M267.824 794.437 L267.824 807.318 L283.177 807.318 L283.177 813.111 L267.824 813.111 L267.824 837.741 Q267.824 843.29 269.323 844.87 Q270.862 846.45 275.521 846.45 L283.177 846.45 L283.177 852.689 L275.521 852.689 Q266.892 852.689 263.611 849.488 Q260.33 846.248 260.33 837.741 L260.33 813.111 L254.861 813.111 L254.861 807.318 L260.33 807.318 L260.33 794.437 L267.824 794.437 Z" fill="#000000" fill-rule="evenodd" fill-opacity="1" /><path clip-path="url(#clip590)" d="M 0 0 M290.995 807.318 L298.449 807.318 L298.449 852.689 L290.995 852.689 L290.995 807.318 M290.995 789.656 L298.449 789.656 L298.449 799.095 L290.995 799.095 L290.995 789.656 Z" fill="#000000" fill-rule="evenodd" fill-opacity="1" /><path clip-path="url(#clip590)" d="M 0 0 M323.848 812.544 Q317.853 812.544 314.369 817.243 Q310.885 821.902 310.885 830.044 Q310.885 838.186 314.328 842.885 Q317.812 847.544 323.848 847.544 Q329.803 847.544 333.287 842.845 Q336.77 838.146 336.77 830.044 Q336.77 821.983 333.287 817.284 Q329.803 812.544 323.848 812.544 M323.848 806.225 Q333.57 806.225 339.12 812.544 Q344.67 818.863 344.67 830.044 Q344.67 841.184 339.12 847.544 Q333.57 853.863 323.848 853.863 Q314.085 853.863 308.536 847.544 Q303.026 841.184 303.026 830.044 Q303.026 818.863 308.536 812.544 Q314.085 806.225 323.848 806.225 Z" fill="#000000" fill-rule="evenodd" fill-opacity="1" /><path clip-path="url(#clip590)" d="M 0 0 M390.202 825.304 L390.202 852.689 L382.748 852.689 L382.748 825.547 Q382.748 819.107 380.237 815.906 Q377.725 812.706 372.702 812.706 Q366.666 812.706 363.182 816.554 Q359.699 820.403 359.699 827.046 L359.699 852.689 L352.204 852.689 L352.204 807.318 L359.699 807.318 L359.699 814.367 Q362.372 810.276 365.977 808.25 Q369.623 806.225 374.363 806.225 Q382.181 806.225 386.191 811.086 Q390.202 815.906 390.202 825.304 Z" fill="#000000" fill-rule="evenodd" fill-opacity="1" /></svg>
