<?xml version="1.0" encoding="utf-8"?>
<svg xmlns="http://www.w3.org/2000/svg" xmlns:xlink="http://www.w3.org/1999/xlink" width="600" height="400" viewBox="0 0 2400 1600">
<defs>
  <clipPath id="clip350">
    <rect x="0" y="0" width="2400" height="1600"/>
  </clipPath>
</defs>
<path clip-path="url(#clip350)" d="
M0 1600 L2400 1600 L2400 0 L0 0  Z
  " fill="#ffffff" fill-rule="evenodd" fill-opacity="1"/>
<defs>
  <clipPath id="clip351">
    <rect x="480" y="0" width="1681" height="1600"/>
  </clipPath>
</defs>
<path clip-path="url(#clip350)" d="
M86.9921 1521.01 L2352.76 1521.01 L2352.76 47.2441 L86.9921 47.2441  Z
  " fill="#ffffff" fill-rule="evenodd" fill-opacity="1"/>
<defs>
  <clipPath id="clip352">
    <rect x="86" y="47" width="2267" height="1475"/>
  </clipPath>
</defs>
<polyline clip-path="url(#clip352)" style="stroke:#000000; stroke-width:2; stroke-opacity:0.1; fill:none" points="
  1542.24,1521.01 1542.24,47.2441 
  "/>
<polyline clip-path="url(#clip352)" style="stroke:#000000; stroke-width:2; stroke-opacity:0.1; fill:none" points="
  86.9921,877.983 2352.76,877.983 
  "/>
<polyline clip-path="url(#clip350)" style="stroke:#000000; stroke-width:4; stroke-opacity:1; fill:none" points="
  86.9921,1521.01 2352.76,1521.01 
  "/>
<polyline clip-path="url(#clip350)" style="stroke:#000000; stroke-width:4; stroke-opacity:1; fill:none" points="
  86.9921,1521.01 86.9921,47.2441 
  "/>
<polyline clip-path="url(#clip350)" style="stroke:#000000; stroke-width:4; stroke-opacity:1; fill:none" points="
  1542.24,1521.01 1542.24,1503.32 
  "/>
<polyline clip-path="url(#clip350)" style="stroke:#000000; stroke-width:4; stroke-opacity:1; fill:none" points="
  86.9921,877.983 114.181,877.983 
  "/>
<path clip-path="url(#clip350)" d="M 0 0 M1542.24 1543 Q1538.63 1543 1536.8 1546.56 Q1534.99 1550.11 1534.99 1557.23 Q1534.99 1564.34 1536.8 1567.91 Q1538.63 1571.45 1542.24 1571.45 Q1545.87 1571.45 1547.68 1567.91 Q1549.51 1564.34 1549.51 1557.23 Q1549.51 1550.11 1547.68 1546.56 Q1545.87 1543 1542.24 1543 M1542.24 1539.29 Q1548.05 1539.29 1551.11 1543.9 Q1554.18 1548.48 1554.18 1557.23 Q1554.18 1565.96 1551.11 1570.57 Q1548.05 1575.15 1542.24 1575.15 Q1536.43 1575.15 1533.35 1570.57 Q1530.3 1565.96 1530.3 1557.23 Q1530.3 1548.48 1533.35 1543.9 Q1536.43 1539.29 1542.24 1539.29 Z" fill="#000000" fill-rule="evenodd" fill-opacity="1" /><path clip-path="url(#clip350)" d="M 0 0 M51.0477 863.781 Q47.4367 863.781 45.608 867.346 Q43.8024 870.888 43.8024 878.017 Q43.8024 885.124 45.608 888.689 Q47.4367 892.23 51.0477 892.23 Q54.682 892.23 56.4875 888.689 Q58.3162 885.124 58.3162 878.017 Q58.3162 870.888 56.4875 867.346 Q54.682 863.781 51.0477 863.781 M51.0477 860.078 Q56.8579 860.078 59.9134 864.684 Q62.9921 869.268 62.9921 878.017 Q62.9921 886.744 59.9134 891.351 Q56.8579 895.934 51.0477 895.934 Q45.2376 895.934 42.1589 891.351 Q39.1034 886.744 39.1034 878.017 Q39.1034 869.268 42.1589 864.684 Q45.2376 860.078 51.0477 860.078 Z" fill="#000000" fill-rule="evenodd" fill-opacity="1" /><circle clip-path="url(#clip352)" cx="1562.86" cy="929.64" r="14" fill="#808080" fill-rule="evenodd" fill-opacity="1" stroke="none"/>
<circle clip-path="url(#clip352)" cx="1510.78" cy="866.484" r="14" fill="#808080" fill-rule="evenodd" fill-opacity="1" stroke="none"/>
<circle clip-path="url(#clip352)" cx="1488.51" cy="887.956" r="14" fill="#808080" fill-rule="evenodd" fill-opacity="1" stroke="none"/>
<circle clip-path="url(#clip352)" cx="1531.89" cy="873.754" r="14" fill="#808080" fill-rule="evenodd" fill-opacity="1" stroke="none"/>
<circle clip-path="url(#clip352)" cx="1351.72" cy="1019.44" r="14" fill="#808080" fill-rule="evenodd" fill-opacity="1" stroke="none"/>
<circle clip-path="url(#clip352)" cx="1454.67" cy="913.028" r="14" fill="#808080" fill-rule="evenodd" fill-opacity="1" stroke="none"/>
<circle clip-path="url(#clip352)" cx="1083.35" cy="1047.24" r="14" fill="#808080" fill-rule="evenodd" fill-opacity="1" stroke="none"/>
<circle clip-path="url(#clip352)" cx="1458.52" cy="882.808" r="14" fill="#808080" fill-rule="evenodd" fill-opacity="1" stroke="none"/>
<circle clip-path="url(#clip352)" cx="1523.54" cy="892.469" r="14" fill="#808080" fill-rule="evenodd" fill-opacity="1" stroke="none"/>
<circle clip-path="url(#clip352)" cx="1498.27" cy="923.969" r="14" fill="#808080" fill-rule="evenodd" fill-opacity="1" stroke="none"/>
<circle clip-path="url(#clip352)" cx="1266.51" cy="789.027" r="14" fill="#808080" fill-rule="evenodd" fill-opacity="1" stroke="none"/>
<circle clip-path="url(#clip352)" cx="1571.32" cy="940.434" r="14" fill="#808080" fill-rule="evenodd" fill-opacity="1" stroke="none"/>
<circle clip-path="url(#clip352)" cx="1461.66" cy="841.968" r="14" fill="#808080" fill-rule="evenodd" fill-opacity="1" stroke="none"/>
<circle clip-path="url(#clip352)" cx="1351.72" cy="1019.44" r="14" fill="#808080" fill-rule="evenodd" fill-opacity="1" stroke="none"/>
<circle clip-path="url(#clip352)" cx="1532.96" cy="868.285" r="14" fill="#808080" fill-rule="evenodd" fill-opacity="1" stroke="none"/>
<circle clip-path="url(#clip352)" cx="1523.42" cy="927.203" r="14" fill="#808080" fill-rule="evenodd" fill-opacity="1" stroke="none"/>
<circle clip-path="url(#clip352)" cx="1469.7" cy="948.289" r="14" fill="#808080" fill-rule="evenodd" fill-opacity="1" stroke="none"/>
<circle clip-path="url(#clip352)" cx="1496.14" cy="970.192" r="14" fill="#808080" fill-rule="evenodd" fill-opacity="1" stroke="none"/>
<circle clip-path="url(#clip352)" cx="1515.16" cy="933.934" r="14" fill="#808080" fill-rule="evenodd" fill-opacity="1" stroke="none"/>
<circle clip-path="url(#clip352)" cx="1534.4" cy="856.405" r="14" fill="#808080" fill-rule="evenodd" fill-opacity="1" stroke="none"/>
<circle clip-path="url(#clip352)" cx="1374.64" cy="1053.99" r="14" fill="#808080" fill-rule="evenodd" fill-opacity="1" stroke="none"/>
<circle clip-path="url(#clip352)" cx="1640.63" cy="929.898" r="14" fill="#808080" fill-rule="evenodd" fill-opacity="1" stroke="none"/>
<circle clip-path="url(#clip352)" cx="1645.58" cy="960.399" r="14" fill="#808080" fill-rule="evenodd" fill-opacity="1" stroke="none"/>
<circle clip-path="url(#clip352)" cx="1644.75" cy="915.655" r="14" fill="#808080" fill-rule="evenodd" fill-opacity="1" stroke="none"/>
<circle clip-path="url(#clip352)" cx="1583.52" cy="934.969" r="14" fill="#808080" fill-rule="evenodd" fill-opacity="1" stroke="none"/>
<circle clip-path="url(#clip352)" cx="1613.61" cy="976.563" r="14" fill="#808080" fill-rule="evenodd" fill-opacity="1" stroke="none"/>
<circle clip-path="url(#clip352)" cx="1466.51" cy="876.425" r="14" fill="#808080" fill-rule="evenodd" fill-opacity="1" stroke="none"/>
<circle clip-path="url(#clip352)" cx="1514.24" cy="822.509" r="14" fill="#808080" fill-rule="evenodd" fill-opacity="1" stroke="none"/>
<circle clip-path="url(#clip352)" cx="1359.02" cy="984.49" r="14" fill="#808080" fill-rule="evenodd" fill-opacity="1" stroke="none"/>
<circle clip-path="url(#clip352)" cx="1527.06" cy="921.641" r="14" fill="#808080" fill-rule="evenodd" fill-opacity="1" stroke="none"/>
<circle clip-path="url(#clip352)" cx="1530.9" cy="850.167" r="14" fill="#808080" fill-rule="evenodd" fill-opacity="1" stroke="none"/>
<circle clip-path="url(#clip352)" cx="1583.65" cy="983.811" r="14" fill="#808080" fill-rule="evenodd" fill-opacity="1" stroke="none"/>
<circle clip-path="url(#clip352)" cx="1502.07" cy="849.836" r="14" fill="#808080" fill-rule="evenodd" fill-opacity="1" stroke="none"/>
<circle clip-path="url(#clip352)" cx="1561.65" cy="900.08" r="14" fill="#808080" fill-rule="evenodd" fill-opacity="1" stroke="none"/>
<circle clip-path="url(#clip352)" cx="1475.68" cy="766.372" r="14" fill="#808080" fill-rule="evenodd" fill-opacity="1" stroke="none"/>
<circle clip-path="url(#clip352)" cx="1449.47" cy="764.376" r="14" fill="#808080" fill-rule="evenodd" fill-opacity="1" stroke="none"/>
<circle clip-path="url(#clip352)" cx="1643.9" cy="820.609" r="14" fill="#808080" fill-rule="evenodd" fill-opacity="1" stroke="none"/>
<circle clip-path="url(#clip352)" cx="1529" cy="745.345" r="14" fill="#808080" fill-rule="evenodd" fill-opacity="1" stroke="none"/>
<circle clip-path="url(#clip352)" cx="1598.02" cy="767.784" r="14" fill="#808080" fill-rule="evenodd" fill-opacity="1" stroke="none"/>
<circle clip-path="url(#clip352)" cx="1699.14" cy="811.293" r="14" fill="#808080" fill-rule="evenodd" fill-opacity="1" stroke="none"/>
<circle clip-path="url(#clip352)" cx="1498.65" cy="749.784" r="14" fill="#808080" fill-rule="evenodd" fill-opacity="1" stroke="none"/>
<circle clip-path="url(#clip352)" cx="1675.12" cy="803.598" r="14" fill="#808080" fill-rule="evenodd" fill-opacity="1" stroke="none"/>
<circle clip-path="url(#clip352)" cx="1446.13" cy="866.41" r="14" fill="#808080" fill-rule="evenodd" fill-opacity="1" stroke="none"/>
<circle clip-path="url(#clip352)" cx="1475.4" cy="778.226" r="14" fill="#808080" fill-rule="evenodd" fill-opacity="1" stroke="none"/>
<circle clip-path="url(#clip352)" cx="1364.87" cy="750.774" r="14" fill="#808080" fill-rule="evenodd" fill-opacity="1" stroke="none"/>
<circle clip-path="url(#clip352)" cx="1269.6" cy="769.268" r="14" fill="#808080" fill-rule="evenodd" fill-opacity="1" stroke="none"/>
<circle clip-path="url(#clip352)" cx="1242.62" cy="901.162" r="14" fill="#808080" fill-rule="evenodd" fill-opacity="1" stroke="none"/>
<circle clip-path="url(#clip352)" cx="1470.69" cy="817.182" r="14" fill="#808080" fill-rule="evenodd" fill-opacity="1" stroke="none"/>
<circle clip-path="url(#clip352)" cx="1446.11" cy="826.958" r="14" fill="#808080" fill-rule="evenodd" fill-opacity="1" stroke="none"/>
<circle clip-path="url(#clip352)" cx="1446.67" cy="745.048" r="14" fill="#808080" fill-rule="evenodd" fill-opacity="1" stroke="none"/>
<circle clip-path="url(#clip352)" cx="1462.06" cy="809.649" r="14" fill="#808080" fill-rule="evenodd" fill-opacity="1" stroke="none"/>
<circle clip-path="url(#clip352)" cx="1421.58" cy="823.975" r="14" fill="#808080" fill-rule="evenodd" fill-opacity="1" stroke="none"/>
<circle clip-path="url(#clip352)" cx="1480.61" cy="976.685" r="14" fill="#808080" fill-rule="evenodd" fill-opacity="1" stroke="none"/>
<circle clip-path="url(#clip352)" cx="1483.53" cy="1040.82" r="14" fill="#808080" fill-rule="evenodd" fill-opacity="1" stroke="none"/>
<circle clip-path="url(#clip352)" cx="1636.68" cy="855.603" r="14" fill="#808080" fill-rule="evenodd" fill-opacity="1" stroke="none"/>
<circle clip-path="url(#clip352)" cx="1530.84" cy="997.885" r="14" fill="#808080" fill-rule="evenodd" fill-opacity="1" stroke="none"/>
<circle clip-path="url(#clip352)" cx="1708.57" cy="856.254" r="14" fill="#808080" fill-rule="evenodd" fill-opacity="1" stroke="none"/>
<circle clip-path="url(#clip352)" cx="1597.72" cy="901.148" r="14" fill="#808080" fill-rule="evenodd" fill-opacity="1" stroke="none"/>
<circle clip-path="url(#clip352)" cx="1626.14" cy="928.829" r="14" fill="#808080" fill-rule="evenodd" fill-opacity="1" stroke="none"/>
<circle clip-path="url(#clip352)" cx="1615.94" cy="892.576" r="14" fill="#808080" fill-rule="evenodd" fill-opacity="1" stroke="none"/>
<circle clip-path="url(#clip352)" cx="1620.31" cy="946.955" r="14" fill="#808080" fill-rule="evenodd" fill-opacity="1" stroke="none"/>
<circle clip-path="url(#clip352)" cx="1570.7" cy="895.272" r="14" fill="#808080" fill-rule="evenodd" fill-opacity="1" stroke="none"/>
<circle clip-path="url(#clip352)" cx="1637.46" cy="893.346" r="14" fill="#808080" fill-rule="evenodd" fill-opacity="1" stroke="none"/>
<circle clip-path="url(#clip352)" cx="1623.6" cy="864.875" r="14" fill="#808080" fill-rule="evenodd" fill-opacity="1" stroke="none"/>
<circle clip-path="url(#clip352)" cx="1567.36" cy="905.931" r="14" fill="#808080" fill-rule="evenodd" fill-opacity="1" stroke="none"/>
<circle clip-path="url(#clip352)" cx="1634.49" cy="922.194" r="14" fill="#808080" fill-rule="evenodd" fill-opacity="1" stroke="none"/>
<circle clip-path="url(#clip352)" cx="1665.09" cy="912.669" r="14" fill="#808080" fill-rule="evenodd" fill-opacity="1" stroke="none"/>
<circle clip-path="url(#clip352)" cx="1645.9" cy="956.907" r="14" fill="#808080" fill-rule="evenodd" fill-opacity="1" stroke="none"/>
<circle clip-path="url(#clip352)" cx="1656.72" cy="971.844" r="14" fill="#808080" fill-rule="evenodd" fill-opacity="1" stroke="none"/>
<circle clip-path="url(#clip352)" cx="1631.41" cy="958.022" r="14" fill="#808080" fill-rule="evenodd" fill-opacity="1" stroke="none"/>
<circle clip-path="url(#clip352)" cx="1655.93" cy="886.731" r="14" fill="#808080" fill-rule="evenodd" fill-opacity="1" stroke="none"/>
<circle clip-path="url(#clip352)" cx="1585.06" cy="909.063" r="14" fill="#808080" fill-rule="evenodd" fill-opacity="1" stroke="none"/>
<circle clip-path="url(#clip352)" cx="1635.39" cy="904.509" r="14" fill="#808080" fill-rule="evenodd" fill-opacity="1" stroke="none"/>
<circle clip-path="url(#clip352)" cx="1708.01" cy="802.15" r="14" fill="#808080" fill-rule="evenodd" fill-opacity="1" stroke="none"/>
<circle clip-path="url(#clip352)" cx="1721.55" cy="882.308" r="14" fill="#808080" fill-rule="evenodd" fill-opacity="1" stroke="none"/>
<circle clip-path="url(#clip352)" cx="1675.75" cy="888.455" r="14" fill="#808080" fill-rule="evenodd" fill-opacity="1" stroke="none"/>
<circle clip-path="url(#clip352)" cx="1631.38" cy="853.019" r="14" fill="#808080" fill-rule="evenodd" fill-opacity="1" stroke="none"/>
<circle clip-path="url(#clip352)" cx="1626.35" cy="929.954" r="14" fill="#808080" fill-rule="evenodd" fill-opacity="1" stroke="none"/>
<circle clip-path="url(#clip352)" cx="1580.59" cy="905.533" r="14" fill="#808080" fill-rule="evenodd" fill-opacity="1" stroke="none"/>
<circle clip-path="url(#clip352)" cx="1633.52" cy="896.14" r="14" fill="#808080" fill-rule="evenodd" fill-opacity="1" stroke="none"/>
<circle clip-path="url(#clip352)" cx="1603.87" cy="793.775" r="14" fill="#808080" fill-rule="evenodd" fill-opacity="1" stroke="none"/>
<circle clip-path="url(#clip352)" cx="1744.33" cy="799.941" r="14" fill="#808080" fill-rule="evenodd" fill-opacity="1" stroke="none"/>
<circle clip-path="url(#clip352)" cx="1629.99" cy="798.569" r="14" fill="#808080" fill-rule="evenodd" fill-opacity="1" stroke="none"/>
<circle clip-path="url(#clip352)" cx="1747.41" cy="806.74" r="14" fill="#808080" fill-rule="evenodd" fill-opacity="1" stroke="none"/>
<circle clip-path="url(#clip352)" cx="1698.74" cy="850.446" r="14" fill="#808080" fill-rule="evenodd" fill-opacity="1" stroke="none"/>
<circle clip-path="url(#clip352)" cx="1662.84" cy="941.367" r="14" fill="#808080" fill-rule="evenodd" fill-opacity="1" stroke="none"/>
<circle clip-path="url(#clip352)" cx="1696.82" cy="837.971" r="14" fill="#808080" fill-rule="evenodd" fill-opacity="1" stroke="none"/>
<circle clip-path="url(#clip352)" cx="1552.77" cy="783.134" r="14" fill="#808080" fill-rule="evenodd" fill-opacity="1" stroke="none"/>
<circle clip-path="url(#clip352)" cx="1567.1" cy="711.934" r="14" fill="#808080" fill-rule="evenodd" fill-opacity="1" stroke="none"/>
<circle clip-path="url(#clip352)" cx="1533.33" cy="827.831" r="14" fill="#808080" fill-rule="evenodd" fill-opacity="1" stroke="none"/>
<circle clip-path="url(#clip352)" cx="1607.69" cy="723.793" r="14" fill="#808080" fill-rule="evenodd" fill-opacity="1" stroke="none"/>
<circle clip-path="url(#clip352)" cx="1677.98" cy="752.45" r="14" fill="#808080" fill-rule="evenodd" fill-opacity="1" stroke="none"/>
<circle clip-path="url(#clip352)" cx="1438.27" cy="872.244" r="14" fill="#808080" fill-rule="evenodd" fill-opacity="1" stroke="none"/>
<circle clip-path="url(#clip352)" cx="1423.93" cy="921.415" r="14" fill="#808080" fill-rule="evenodd" fill-opacity="1" stroke="none"/>
<circle clip-path="url(#clip352)" cx="1324.83" cy="847.941" r="14" fill="#808080" fill-rule="evenodd" fill-opacity="1" stroke="none"/>
<circle clip-path="url(#clip352)" cx="1408.86" cy="870.903" r="14" fill="#808080" fill-rule="evenodd" fill-opacity="1" stroke="none"/>
<circle clip-path="url(#clip352)" cx="1559.81" cy="922.595" r="14" fill="#800080" fill-rule="evenodd" fill-opacity="1" stroke="none"/>
<circle clip-path="url(#clip352)" cx="1504.35" cy="888.23" r="14" fill="#800080" fill-rule="evenodd" fill-opacity="1" stroke="none"/>
<circle clip-path="url(#clip352)" cx="1496.24" cy="886.523" r="14" fill="#800080" fill-rule="evenodd" fill-opacity="1" stroke="none"/>
<circle clip-path="url(#clip352)" cx="1528.4" cy="885.349" r="14" fill="#800080" fill-rule="evenodd" fill-opacity="1" stroke="none"/>
<circle clip-path="url(#clip352)" cx="1351.72" cy="1019.44" r="14" fill="#800080" fill-rule="evenodd" fill-opacity="1" stroke="none"/>
<circle clip-path="url(#clip352)" cx="1449.59" cy="939.806" r="14" fill="#800080" fill-rule="evenodd" fill-opacity="1" stroke="none"/>
<circle clip-path="url(#clip352)" cx="1132.41" cy="960.034" r="14" fill="#800080" fill-rule="evenodd" fill-opacity="1" stroke="none"/>
<circle clip-path="url(#clip352)" cx="1447.73" cy="894.341" r="14" fill="#800080" fill-rule="evenodd" fill-opacity="1" stroke="none"/>
<circle clip-path="url(#clip352)" cx="1550.31" cy="889.065" r="14" fill="#800080" fill-rule="evenodd" fill-opacity="1" stroke="none"/>
<circle clip-path="url(#clip352)" cx="1496.57" cy="914.566" r="14" fill="#800080" fill-rule="evenodd" fill-opacity="1" stroke="none"/>
<circle clip-path="url(#clip352)" cx="1274.59" cy="542.864" r="14" fill="#800080" fill-rule="evenodd" fill-opacity="1" stroke="none"/>
<circle clip-path="url(#clip352)" cx="1576.12" cy="906.828" r="14" fill="#800080" fill-rule="evenodd" fill-opacity="1" stroke="none"/>
<circle clip-path="url(#clip352)" cx="1455.55" cy="883.01" r="14" fill="#800080" fill-rule="evenodd" fill-opacity="1" stroke="none"/>
<circle clip-path="url(#clip352)" cx="1351.72" cy="1019.44" r="14" fill="#800080" fill-rule="evenodd" fill-opacity="1" stroke="none"/>
<circle clip-path="url(#clip352)" cx="1525.75" cy="884.474" r="14" fill="#800080" fill-rule="evenodd" fill-opacity="1" stroke="none"/>
<circle clip-path="url(#clip352)" cx="1531.22" cy="910.162" r="14" fill="#800080" fill-rule="evenodd" fill-opacity="1" stroke="none"/>
<circle clip-path="url(#clip352)" cx="1460.43" cy="937.073" r="14" fill="#800080" fill-rule="evenodd" fill-opacity="1" stroke="none"/>
<circle clip-path="url(#clip352)" cx="1517.75" cy="960.456" r="14" fill="#800080" fill-rule="evenodd" fill-opacity="1" stroke="none"/>
<circle clip-path="url(#clip352)" cx="1520.6" cy="914.833" r="14" fill="#800080" fill-rule="evenodd" fill-opacity="1" stroke="none"/>
<circle clip-path="url(#clip352)" cx="1509.3" cy="865.548" r="14" fill="#800080" fill-rule="evenodd" fill-opacity="1" stroke="none"/>
<circle clip-path="url(#clip352)" cx="1391.35" cy="1047.77" r="14" fill="#800080" fill-rule="evenodd" fill-opacity="1" stroke="none"/>
<circle clip-path="url(#clip352)" cx="1622.79" cy="921.08" r="14" fill="#800080" fill-rule="evenodd" fill-opacity="1" stroke="none"/>
<circle clip-path="url(#clip352)" cx="1665.6" cy="937.686" r="14" fill="#800080" fill-rule="evenodd" fill-opacity="1" stroke="none"/>
<circle clip-path="url(#clip352)" cx="1607.09" cy="915.532" r="14" fill="#800080" fill-rule="evenodd" fill-opacity="1" stroke="none"/>
<circle clip-path="url(#clip352)" cx="1553.92" cy="947.485" r="14" fill="#800080" fill-rule="evenodd" fill-opacity="1" stroke="none"/>
<circle clip-path="url(#clip352)" cx="1620.46" cy="930.019" r="14" fill="#800080" fill-rule="evenodd" fill-opacity="1" stroke="none"/>
<circle clip-path="url(#clip352)" cx="1458.45" cy="890.401" r="14" fill="#800080" fill-rule="evenodd" fill-opacity="1" stroke="none"/>
<circle clip-path="url(#clip352)" cx="1499.16" cy="843.666" r="14" fill="#800080" fill-rule="evenodd" fill-opacity="1" stroke="none"/>
<circle clip-path="url(#clip352)" cx="1395.6" cy="936.633" r="14" fill="#800080" fill-rule="evenodd" fill-opacity="1" stroke="none"/>
<circle clip-path="url(#clip352)" cx="1502.46" cy="918.395" r="14" fill="#800080" fill-rule="evenodd" fill-opacity="1" stroke="none"/>
<circle clip-path="url(#clip352)" cx="1508.21" cy="868.209" r="14" fill="#800080" fill-rule="evenodd" fill-opacity="1" stroke="none"/>
<circle clip-path="url(#clip352)" cx="1586.99" cy="942.98" r="14" fill="#800080" fill-rule="evenodd" fill-opacity="1" stroke="none"/>
<circle clip-path="url(#clip352)" cx="1499.6" cy="855.719" r="14" fill="#800080" fill-rule="evenodd" fill-opacity="1" stroke="none"/>
<circle clip-path="url(#clip352)" cx="1569.35" cy="868.578" r="14" fill="#800080" fill-rule="evenodd" fill-opacity="1" stroke="none"/>
<circle clip-path="url(#clip352)" cx="1470.66" cy="801.761" r="14" fill="#800080" fill-rule="evenodd" fill-opacity="1" stroke="none"/>
<circle clip-path="url(#clip352)" cx="1436.42" cy="785.584" r="14" fill="#800080" fill-rule="evenodd" fill-opacity="1" stroke="none"/>
<circle clip-path="url(#clip352)" cx="1648.82" cy="838.387" r="14" fill="#800080" fill-rule="evenodd" fill-opacity="1" stroke="none"/>
<circle clip-path="url(#clip352)" cx="1510.9" cy="806.748" r="14" fill="#800080" fill-rule="evenodd" fill-opacity="1" stroke="none"/>
<circle clip-path="url(#clip352)" cx="1580.09" cy="817.021" r="14" fill="#800080" fill-rule="evenodd" fill-opacity="1" stroke="none"/>
<circle clip-path="url(#clip352)" cx="1682.91" cy="835.76" r="14" fill="#800080" fill-rule="evenodd" fill-opacity="1" stroke="none"/>
<circle clip-path="url(#clip352)" cx="1485.42" cy="801.012" r="14" fill="#800080" fill-rule="evenodd" fill-opacity="1" stroke="none"/>
<circle clip-path="url(#clip352)" cx="1660.31" cy="838.556" r="14" fill="#800080" fill-rule="evenodd" fill-opacity="1" stroke="none"/>
<circle clip-path="url(#clip352)" cx="1440.06" cy="897.123" r="14" fill="#800080" fill-rule="evenodd" fill-opacity="1" stroke="none"/>
<circle clip-path="url(#clip352)" cx="1452.65" cy="838.986" r="14" fill="#800080" fill-rule="evenodd" fill-opacity="1" stroke="none"/>
<circle clip-path="url(#clip352)" cx="1366.01" cy="824.15" r="14" fill="#800080" fill-rule="evenodd" fill-opacity="1" stroke="none"/>
<circle clip-path="url(#clip352)" cx="1298.14" cy="819.028" r="14" fill="#800080" fill-rule="evenodd" fill-opacity="1" stroke="none"/>
<circle clip-path="url(#clip352)" cx="1244.07" cy="891.784" r="14" fill="#800080" fill-rule="evenodd" fill-opacity="1" stroke="none"/>
<circle clip-path="url(#clip352)" cx="1459.08" cy="864.845" r="14" fill="#800080" fill-rule="evenodd" fill-opacity="1" stroke="none"/>
<circle clip-path="url(#clip352)" cx="1438.38" cy="859.313" r="14" fill="#800080" fill-rule="evenodd" fill-opacity="1" stroke="none"/>
<circle clip-path="url(#clip352)" cx="1444.06" cy="808.424" r="14" fill="#800080" fill-rule="evenodd" fill-opacity="1" stroke="none"/>
<circle clip-path="url(#clip352)" cx="1469.87" cy="784.363" r="14" fill="#800080" fill-rule="evenodd" fill-opacity="1" stroke="none"/>
<circle clip-path="url(#clip352)" cx="1411.72" cy="868.154" r="14" fill="#800080" fill-rule="evenodd" fill-opacity="1" stroke="none"/>
<circle clip-path="url(#clip352)" cx="1504.61" cy="910.311" r="14" fill="#ffa500" fill-rule="evenodd" fill-opacity="1" stroke="none"/>
<circle clip-path="url(#clip352)" cx="1483.16" cy="993.438" r="14" fill="#ffa500" fill-rule="evenodd" fill-opacity="1" stroke="none"/>
<circle clip-path="url(#clip352)" cx="1599.37" cy="882.221" r="14" fill="#ffa500" fill-rule="evenodd" fill-opacity="1" stroke="none"/>
<circle clip-path="url(#clip352)" cx="1523.51" cy="953.267" r="14" fill="#ffa500" fill-rule="evenodd" fill-opacity="1" stroke="none"/>
<circle clip-path="url(#clip352)" cx="1699.65" cy="854.282" r="14" fill="#ffa500" fill-rule="evenodd" fill-opacity="1" stroke="none"/>
<circle clip-path="url(#clip352)" cx="1608.58" cy="865.698" r="14" fill="#ffa500" fill-rule="evenodd" fill-opacity="1" stroke="none"/>
<circle clip-path="url(#clip352)" cx="1623.41" cy="904.533" r="14" fill="#ffa500" fill-rule="evenodd" fill-opacity="1" stroke="none"/>
<circle clip-path="url(#clip352)" cx="1609.31" cy="886.37" r="14" fill="#ffa500" fill-rule="evenodd" fill-opacity="1" stroke="none"/>
<circle clip-path="url(#clip352)" cx="1641.97" cy="901.382" r="14" fill="#ffa500" fill-rule="evenodd" fill-opacity="1" stroke="none"/>
<circle clip-path="url(#clip352)" cx="1560.67" cy="890.014" r="14" fill="#ffa500" fill-rule="evenodd" fill-opacity="1" stroke="none"/>
<circle clip-path="url(#clip352)" cx="1626.31" cy="879.773" r="14" fill="#ffa500" fill-rule="evenodd" fill-opacity="1" stroke="none"/>
<circle clip-path="url(#clip352)" cx="1625.72" cy="855.146" r="14" fill="#ffa500" fill-rule="evenodd" fill-opacity="1" stroke="none"/>
<circle clip-path="url(#clip352)" cx="1589.72" cy="861.248" r="14" fill="#ffa500" fill-rule="evenodd" fill-opacity="1" stroke="none"/>
<circle clip-path="url(#clip352)" cx="1639.79" cy="894.027" r="14" fill="#ffa500" fill-rule="evenodd" fill-opacity="1" stroke="none"/>
<circle clip-path="url(#clip352)" cx="1685.17" cy="896.952" r="14" fill="#ffa500" fill-rule="evenodd" fill-opacity="1" stroke="none"/>
<circle clip-path="url(#clip352)" cx="1669.79" cy="924.075" r="14" fill="#ffa500" fill-rule="evenodd" fill-opacity="1" stroke="none"/>
<circle clip-path="url(#clip352)" cx="1654.32" cy="945.728" r="14" fill="#ffa500" fill-rule="evenodd" fill-opacity="1" stroke="none"/>
<circle clip-path="url(#clip352)" cx="1632.4" cy="940.781" r="14" fill="#ffa500" fill-rule="evenodd" fill-opacity="1" stroke="none"/>
<circle clip-path="url(#clip352)" cx="1649.98" cy="863.23" r="14" fill="#ffa500" fill-rule="evenodd" fill-opacity="1" stroke="none"/>
<circle clip-path="url(#clip352)" cx="1581.28" cy="879.776" r="14" fill="#ffa500" fill-rule="evenodd" fill-opacity="1" stroke="none"/>
<circle clip-path="url(#clip352)" cx="1626.7" cy="880.278" r="14" fill="#ffa500" fill-rule="evenodd" fill-opacity="1" stroke="none"/>
<circle clip-path="url(#clip352)" cx="1715.95" cy="802.34" r="14" fill="#ffa500" fill-rule="evenodd" fill-opacity="1" stroke="none"/>
<circle clip-path="url(#clip352)" cx="1717.9" cy="882.04" r="14" fill="#ffa500" fill-rule="evenodd" fill-opacity="1" stroke="none"/>
<circle clip-path="url(#clip352)" cx="1671.93" cy="886.761" r="14" fill="#ffa500" fill-rule="evenodd" fill-opacity="1" stroke="none"/>
<circle clip-path="url(#clip352)" cx="1626.69" cy="857.312" r="14" fill="#ffa500" fill-rule="evenodd" fill-opacity="1" stroke="none"/>
<circle clip-path="url(#clip352)" cx="1630.28" cy="919.86" r="14" fill="#ffa500" fill-rule="evenodd" fill-opacity="1" stroke="none"/>
<circle clip-path="url(#clip352)" cx="1582.31" cy="882.574" r="14" fill="#ffa500" fill-rule="evenodd" fill-opacity="1" stroke="none"/>
<circle clip-path="url(#clip352)" cx="1623.77" cy="873.964" r="14" fill="#ffa500" fill-rule="evenodd" fill-opacity="1" stroke="none"/>
<circle clip-path="url(#clip352)" cx="1587.71" cy="822.034" r="14" fill="#ffa500" fill-rule="evenodd" fill-opacity="1" stroke="none"/>
<circle clip-path="url(#clip352)" cx="1765.7" cy="806.51" r="14" fill="#ffa500" fill-rule="evenodd" fill-opacity="1" stroke="none"/>
<circle clip-path="url(#clip352)" cx="1617.22" cy="819.243" r="14" fill="#ffa500" fill-rule="evenodd" fill-opacity="1" stroke="none"/>
<circle clip-path="url(#clip352)" cx="1815.36" cy="803.004" r="14" fill="#ffa500" fill-rule="evenodd" fill-opacity="1" stroke="none"/>
<circle clip-path="url(#clip352)" cx="1697.03" cy="849.906" r="14" fill="#ffa500" fill-rule="evenodd" fill-opacity="1" stroke="none"/>
<circle clip-path="url(#clip352)" cx="1677.91" cy="889.016" r="14" fill="#ffa500" fill-rule="evenodd" fill-opacity="1" stroke="none"/>
<circle clip-path="url(#clip352)" cx="1693.61" cy="830.667" r="14" fill="#ffa500" fill-rule="evenodd" fill-opacity="1" stroke="none"/>
<circle clip-path="url(#clip352)" cx="1553.9" cy="853.003" r="14" fill="#ffa500" fill-rule="evenodd" fill-opacity="1" stroke="none"/>
<circle clip-path="url(#clip352)" cx="1571.39" cy="775.937" r="14" fill="#ffa500" fill-rule="evenodd" fill-opacity="1" stroke="none"/>
<circle clip-path="url(#clip352)" cx="1524.05" cy="885.038" r="14" fill="#ffa500" fill-rule="evenodd" fill-opacity="1" stroke="none"/>
<circle clip-path="url(#clip352)" cx="1627.96" cy="762.834" r="14" fill="#ffa500" fill-rule="evenodd" fill-opacity="1" stroke="none"/>
<circle clip-path="url(#clip352)" cx="1697.07" cy="768.153" r="14" fill="#ffa500" fill-rule="evenodd" fill-opacity="1" stroke="none"/>
<circle clip-path="url(#clip352)" cx="1425.79" cy="906.915" r="14" fill="#ffa500" fill-rule="evenodd" fill-opacity="1" stroke="none"/>
<circle clip-path="url(#clip352)" cx="1398.98" cy="941.52" r="14" fill="#ffa500" fill-rule="evenodd" fill-opacity="1" stroke="none"/>
<circle clip-path="url(#clip352)" cx="1361.59" cy="885.825" r="14" fill="#ffa500" fill-rule="evenodd" fill-opacity="1" stroke="none"/>
<circle clip-path="url(#clip352)" cx="1414.69" cy="889.562" r="14" fill="#ffa500" fill-rule="evenodd" fill-opacity="1" stroke="none"/>
<polyline clip-path="url(#clip352)" style="stroke:#ffa500; stroke-width:0.57127; stroke-opacity:1; fill:none" points="
  797.639,942.782 2288.63,88.9544 
  "/>
<polyline clip-path="url(#clip352)" style="stroke:#ffa500; stroke-width:0.310112; stroke-opacity:1; fill:none" points="
  1302.59,1230.82 1384.02,718.02 
  "/>
<polyline clip-path="url(#clip352)" style="stroke:#ffa500; stroke-width:0.344254; stroke-opacity:1; fill:none" points="
  151.118,821.618 1302.59,1230.82 
  "/>
<polyline clip-path="url(#clip352)" style="stroke:#800080; stroke-width:2.41942; stroke-opacity:1; fill:none" points="
  151.118,821.618 2232.42,1479.3 
  "/>
<polyline clip-path="url(#clip352)" style="stroke:#ffa500; stroke-width:3.09601; stroke-opacity:1; fill:none" points="
  1384.02,718.02 2288.63,88.9544 
  "/>
<polyline clip-path="url(#clip352)" style="stroke:#800080; stroke-width:3.5991; stroke-opacity:1; fill:none" points="
  151.118,821.618 1384.02,718.02 
  "/>
<polyline clip-path="url(#clip352)" style="stroke:#ffa500; stroke-width:4.58072; stroke-opacity:1; fill:none" points="
  1384.02,718.02 2232.42,1479.3 
  "/>
<polyline clip-path="url(#clip352)" style="stroke:#ffa500; stroke-width:1.47784; stroke-opacity:1; fill:none" points="
  1302.59,1230.82 2232.42,1479.3 
  "/>
<polyline clip-path="url(#clip352)" style="stroke:#800080; stroke-width:6.48496; stroke-opacity:1; fill:none" points="
  151.118,821.618 797.639,942.782 
  "/>
<polyline clip-path="url(#clip352)" style="stroke:#ffa500; stroke-width:0.694986; stroke-opacity:1; fill:none" points="
  1302.59,1230.82 2288.63,88.9544 
  "/>
<polyline clip-path="url(#clip352)" style="stroke:#ffa500; stroke-width:8; stroke-opacity:1; fill:none" points="
  2232.42,1479.3 2288.63,88.9544 
  "/>
<polyline clip-path="url(#clip352)" style="stroke:#800080; stroke-width:2.90053; stroke-opacity:1; fill:none" points="
  797.639,942.782 1384.02,718.02 
  "/>
<polyline clip-path="url(#clip352)" style="stroke:#800080; stroke-width:2.12299; stroke-opacity:1; fill:none" points="
  797.639,942.782 1302.59,1230.82 
  "/>
<polyline clip-path="url(#clip352)" style="stroke:#800080; stroke-width:2.00262; stroke-opacity:1; fill:none" points="
  151.118,821.618 2288.63,88.9544 
  "/>
<polyline clip-path="url(#clip352)" style="stroke:#ffa500; stroke-width:0.179937; stroke-opacity:1; fill:none" points="
  797.639,942.782 2232.42,1479.3 
  "/>
<circle clip-path="url(#clip352)" cx="1384.02" cy="718.02" r="23" fill="#000000" fill-rule="evenodd" fill-opacity="1" stroke="none"/>
<circle clip-path="url(#clip352)" cx="797.639" cy="942.782" r="26" fill="#000000" fill-rule="evenodd" fill-opacity="1" stroke="none"/>
<circle clip-path="url(#clip352)" cx="2288.63" cy="88.9544" r="23" fill="#000000" fill-rule="evenodd" fill-opacity="1" stroke="none"/>
<circle clip-path="url(#clip352)" cx="1302.59" cy="1230.82" r="8" fill="#000000" fill-rule="evenodd" fill-opacity="1" stroke="none"/>
<circle clip-path="url(#clip352)" cx="2232.42" cy="1479.3" r="28" fill="#000000" fill-rule="evenodd" fill-opacity="1" stroke="none"/>
<circle clip-path="url(#clip352)" cx="151.118" cy="821.618" r="8" fill="#000000" fill-rule="evenodd" fill-opacity="1" stroke="none"/>
<path clip-path="url(#clip350)" d="M 0 0 M1308.21 694.505 L1308.21 741.536 L1318.09 741.536 Q1330.61 741.536 1336.41 735.864 Q1342.24 730.193 1342.24 717.959 Q1342.24 705.807 1336.41 700.176 Q1330.61 694.505 1318.09 694.505 L1308.21 694.505 M1300.03 687.78 L1316.84 687.78 Q1334.42 687.78 1342.64 695.112 Q1350.87 702.404 1350.87 717.959 Q1350.87 733.596 1342.6 740.928 Q1334.34 748.26 1316.84 748.26 L1300.03 748.26 L1300.03 687.78 Z" fill="#000000" fill-rule="evenodd" fill-opacity="1" /><path clip-path="url(#clip350)" d="M 0 0 M1379.3 725.454 Q1370.27 725.454 1366.79 727.519 Q1363.3 729.585 1363.3 734.568 Q1363.3 738.538 1365.9 740.887 Q1368.53 743.196 1373.03 743.196 Q1379.22 743.196 1382.95 738.821 Q1386.72 734.406 1386.72 727.114 L1386.72 725.454 L1379.3 725.454 M1394.17 722.375 L1394.17 748.26 L1386.72 748.26 L1386.72 741.374 Q1384.17 745.505 1380.36 747.49 Q1376.55 749.435 1371.04 749.435 Q1364.07 749.435 1359.94 745.546 Q1355.85 741.617 1355.85 735.054 Q1355.85 727.398 1360.95 723.509 Q1366.1 719.62 1376.27 719.62 L1386.72 719.62 L1386.72 718.891 Q1386.72 713.746 1383.31 710.951 Q1379.95 708.116 1373.84 708.116 Q1369.95 708.116 1366.26 709.047 Q1362.57 709.979 1359.17 711.842 L1359.17 704.956 Q1363.26 703.376 1367.11 702.606 Q1370.96 701.796 1374.61 701.796 Q1384.45 701.796 1389.31 706.9 Q1394.17 712.005 1394.17 722.375 Z" fill="#000000" fill-rule="evenodd" fill-opacity="1" /><path clip-path="url(#clip350)" d="M 0 0 M1409.36 690.008 L1409.36 702.89 L1424.71 702.89 L1424.71 708.683 L1409.36 708.683 L1409.36 733.312 Q1409.36 738.862 1410.86 740.442 Q1412.4 742.022 1417.06 742.022 L1424.71 742.022 L1424.71 748.26 L1417.06 748.26 Q1408.43 748.26 1405.15 745.06 Q1401.87 741.819 1401.87 733.312 L1401.87 708.683 L1396.4 708.683 L1396.4 702.89 L1401.87 702.89 L1401.87 690.008 L1409.36 690.008 Z" fill="#000000" fill-rule="evenodd" fill-opacity="1" /><path clip-path="url(#clip350)" d="M 0 0 M1453.15 725.454 Q1444.12 725.454 1440.63 727.519 Q1437.15 729.585 1437.15 734.568 Q1437.15 738.538 1439.74 740.887 Q1442.38 743.196 1446.87 743.196 Q1453.07 743.196 1456.8 738.821 Q1460.57 734.406 1460.57 727.114 L1460.57 725.454 L1453.15 725.454 M1468.02 722.375 L1468.02 748.26 L1460.57 748.26 L1460.57 741.374 Q1458.01 745.505 1454.21 747.49 Q1450.4 749.435 1444.89 749.435 Q1437.92 749.435 1433.79 745.546 Q1429.7 741.617 1429.7 735.054 Q1429.7 727.398 1434.8 723.509 Q1439.95 719.62 1450.11 719.62 L1460.57 719.62 L1460.57 718.891 Q1460.57 713.746 1457.16 710.951 Q1453.8 708.116 1447.68 708.116 Q1443.79 708.116 1440.11 709.047 Q1436.42 709.979 1433.02 711.842 L1433.02 704.956 Q1437.11 703.376 1440.96 702.606 Q1444.81 701.796 1448.45 701.796 Q1458.3 701.796 1463.16 706.9 Q1468.02 712.005 1468.02 722.375 Z" fill="#000000" fill-rule="evenodd" fill-opacity="1" /><path clip-path="url(#clip350)" d="M 0 0 M400.306 912.542 L451.469 912.542 L451.469 919.429 L429.999 919.429 L429.999 973.022 L421.776 973.022 L421.776 919.429 L400.306 919.429 L400.306 912.542 Z" fill="#000000" fill-rule="evenodd" fill-opacity="1" /><path clip-path="url(#clip350)" d="M 0 0 M483.998 948.474 L483.998 952.12 L449.727 952.12 Q450.213 959.816 454.345 963.867 Q458.518 967.878 465.931 967.878 Q470.225 967.878 474.235 966.825 Q478.286 965.771 482.256 963.665 L482.256 970.713 Q478.246 972.415 474.033 973.306 Q469.82 974.197 465.485 974.197 Q454.629 974.197 448.269 967.878 Q441.95 961.558 441.95 950.783 Q441.95 939.643 447.945 933.121 Q453.981 926.559 464.189 926.559 Q473.344 926.559 478.651 932.473 Q483.998 938.347 483.998 948.474 M476.544 946.286 Q476.463 940.17 473.101 936.524 Q469.779 932.878 464.27 932.878 Q458.032 932.878 454.264 936.402 Q450.538 939.927 449.97 946.327 L476.544 946.286 Z" fill="#000000" fill-rule="evenodd" fill-opacity="1" /><path clip-path="url(#clip350)" d="M 0 0 M524.467 929.394 L524.467 936.362 Q521.307 934.62 518.107 933.769 Q514.947 932.878 511.706 932.878 Q504.455 932.878 500.445 937.496 Q496.434 942.074 496.434 950.378 Q496.434 958.682 500.445 963.3 Q504.455 967.878 511.706 967.878 Q514.947 967.878 518.107 967.027 Q521.307 966.136 524.467 964.394 L524.467 971.281 Q521.347 972.739 517.985 973.468 Q514.663 974.197 510.896 974.197 Q500.647 974.197 494.611 967.756 Q488.576 961.315 488.576 950.378 Q488.576 939.278 494.652 932.918 Q500.769 926.559 511.382 926.559 Q514.825 926.559 518.107 927.288 Q521.388 927.976 524.467 929.394 Z" fill="#000000" fill-rule="evenodd" fill-opacity="1" /><path clip-path="url(#clip350)" d="M 0 0 M569.999 945.638 L569.999 973.022 L562.545 973.022 L562.545 945.881 Q562.545 939.44 560.033 936.24 Q557.522 933.04 552.499 933.04 Q546.463 933.04 542.979 936.888 Q539.495 940.737 539.495 947.38 L539.495 973.022 L532.001 973.022 L532.001 909.99 L539.495 909.99 L539.495 934.701 Q542.169 930.609 545.774 928.584 Q549.42 926.559 554.16 926.559 Q561.978 926.559 565.988 931.42 Q569.999 936.24 569.999 945.638 Z" fill="#000000" fill-rule="evenodd" fill-opacity="1" /><path clip-path="url(#clip350)" d="M 0 0 M615.531 945.638 L615.531 973.022 L608.077 973.022 L608.077 945.881 Q608.077 939.44 605.566 936.24 Q603.054 933.04 598.031 933.04 Q591.995 933.04 588.511 936.888 Q585.028 940.737 585.028 947.38 L585.028 973.022 L577.533 973.022 L577.533 927.652 L585.028 927.652 L585.028 934.701 Q587.701 930.609 591.306 928.584 Q594.952 926.559 599.692 926.559 Q607.51 926.559 611.52 931.42 Q615.531 936.24 615.531 945.638 Z" fill="#000000" fill-rule="evenodd" fill-opacity="1" /><path clip-path="url(#clip350)" d="M 0 0 M623.349 927.652 L630.803 927.652 L630.803 973.022 L623.349 973.022 L623.349 927.652 M623.349 909.99 L630.803 909.99 L630.803 919.429 L623.349 919.429 L623.349 909.99 Z" fill="#000000" fill-rule="evenodd" fill-opacity="1" /><path clip-path="url(#clip350)" d="M 0 0 M671.271 929.394 L671.271 936.362 Q668.112 934.62 664.911 933.769 Q661.752 932.878 658.511 932.878 Q651.26 932.878 647.249 937.496 Q643.239 942.074 643.239 950.378 Q643.239 958.682 647.249 963.3 Q651.26 967.878 658.511 967.878 Q661.752 967.878 664.911 967.027 Q668.112 966.136 671.271 964.394 L671.271 971.281 Q668.152 972.739 664.79 973.468 Q661.468 974.197 657.701 974.197 Q647.452 974.197 641.416 967.756 Q635.38 961.315 635.38 950.378 Q635.38 939.278 641.457 932.918 Q647.574 926.559 658.187 926.559 Q661.63 926.559 664.911 927.288 Q668.193 927.976 671.271 929.394 Z" fill="#000000" fill-rule="evenodd" fill-opacity="1" /><path clip-path="url(#clip350)" d="M 0 0 M699.709 950.216 Q690.675 950.216 687.191 952.282 Q683.708 954.348 683.708 959.33 Q683.708 963.3 686.3 965.65 Q688.933 967.959 693.43 967.959 Q699.628 967.959 703.354 963.584 Q707.122 959.168 707.122 951.877 L707.122 950.216 L699.709 950.216 M714.575 947.137 L714.575 973.022 L707.122 973.022 L707.122 966.136 Q704.57 970.268 700.762 972.253 Q696.954 974.197 691.445 974.197 Q684.477 974.197 680.345 970.308 Q676.254 966.379 676.254 959.816 Q676.254 952.16 681.358 948.271 Q686.503 944.383 696.67 944.383 L707.122 944.383 L707.122 943.653 Q707.122 938.509 703.719 935.714 Q700.357 932.878 694.24 932.878 Q690.351 932.878 686.665 933.81 Q682.978 934.741 679.576 936.605 L679.576 929.718 Q683.667 928.138 687.515 927.369 Q691.364 926.559 695.01 926.559 Q704.853 926.559 709.714 931.663 Q714.575 936.767 714.575 947.137 Z" fill="#000000" fill-rule="evenodd" fill-opacity="1" /><path clip-path="url(#clip350)" d="M 0 0 M722.394 909.99 L729.847 909.99 L729.847 973.022 L722.394 973.022 L722.394 909.99 Z" fill="#000000" fill-rule="evenodd" fill-opacity="1" /><path clip-path="url(#clip350)" d="M 0 0 M772.139 986.795 L772.139 992.588 L729.037 992.588 L729.037 986.795 L772.139 986.795 Z" fill="#000000" fill-rule="evenodd" fill-opacity="1" /><path clip-path="url(#clip350)" d="M 0 0 M825.57 917.201 L825.57 925.829 Q821.438 921.981 816.739 920.077 Q812.081 918.173 806.815 918.173 Q796.444 918.173 790.935 924.533 Q785.426 930.853 785.426 942.843 Q785.426 954.793 790.935 961.153 Q796.444 967.473 806.815 967.473 Q812.081 967.473 816.739 965.569 Q821.438 963.665 825.57 959.816 L825.57 968.364 Q821.276 971.281 816.456 972.739 Q811.676 974.197 806.328 974.197 Q792.596 974.197 784.697 965.812 Q776.797 957.386 776.797 942.843 Q776.797 928.26 784.697 919.875 Q792.596 911.449 806.328 911.449 Q811.757 911.449 816.537 912.907 Q821.357 914.325 825.57 917.201 Z" fill="#000000" fill-rule="evenodd" fill-opacity="1" /><path clip-path="url(#clip350)" d="M 0 0 M850.969 932.878 Q844.974 932.878 841.49 937.577 Q838.007 942.236 838.007 950.378 Q838.007 958.52 841.45 963.219 Q844.934 967.878 850.969 967.878 Q856.924 967.878 860.408 963.179 Q863.892 958.48 863.892 950.378 Q863.892 942.317 860.408 937.618 Q856.924 932.878 850.969 932.878 M850.969 926.559 Q860.692 926.559 866.241 932.878 Q871.791 939.197 871.791 950.378 Q871.791 961.518 866.241 967.878 Q860.692 974.197 850.969 974.197 Q841.207 974.197 835.657 967.878 Q830.148 961.518 830.148 950.378 Q830.148 939.197 835.657 932.878 Q841.207 926.559 850.969 926.559 Z" fill="#000000" fill-rule="evenodd" fill-opacity="1" /><path clip-path="url(#clip350)" d="M 0 0 M917.323 945.638 L917.323 973.022 L909.87 973.022 L909.87 945.881 Q909.87 939.44 907.358 936.24 Q904.846 933.04 899.823 933.04 Q893.787 933.04 890.304 936.888 Q886.82 940.737 886.82 947.38 L886.82 973.022 L879.326 973.022 L879.326 927.652 L886.82 927.652 L886.82 934.701 Q889.494 930.609 893.099 928.584 Q896.745 926.559 901.484 926.559 Q909.302 926.559 913.313 931.42 Q917.323 936.24 917.323 945.638 Z" fill="#000000" fill-rule="evenodd" fill-opacity="1" /><path clip-path="url(#clip350)" d="M 0 0 M954.065 928.989 L954.065 936.038 Q950.905 934.417 947.502 933.607 Q944.1 932.797 940.454 932.797 Q934.904 932.797 932.109 934.498 Q929.354 936.2 929.354 939.602 Q929.354 942.195 931.339 943.694 Q933.324 945.152 939.32 946.489 L941.872 947.056 Q949.811 948.757 953.133 951.877 Q956.495 954.955 956.495 960.505 Q956.495 966.825 951.472 970.511 Q946.49 974.197 937.74 974.197 Q934.094 974.197 930.124 973.468 Q926.195 972.779 921.82 971.362 L921.82 963.665 Q925.952 965.812 929.962 966.906 Q933.972 967.959 937.902 967.959 Q943.168 967.959 946.004 966.176 Q948.839 964.353 948.839 961.072 Q948.839 958.034 946.773 956.414 Q944.748 954.793 937.821 953.295 L935.228 952.687 Q928.301 951.229 925.222 948.231 Q922.144 945.193 922.144 939.927 Q922.144 933.526 926.681 930.042 Q931.218 926.559 939.563 926.559 Q943.695 926.559 947.34 927.166 Q950.986 927.774 954.065 928.989 Z" fill="#000000" fill-rule="evenodd" fill-opacity="1" /><path clip-path="url(#clip350)" d="M 0 0 M971.686 914.77 L971.686 927.652 L987.039 927.652 L987.039 933.445 L971.686 933.445 L971.686 958.075 Q971.686 963.624 973.185 965.204 Q974.725 966.784 979.383 966.784 L987.039 966.784 L987.039 973.022 L979.383 973.022 Q970.755 973.022 967.473 969.822 Q964.192 966.581 964.192 958.075 L964.192 933.445 L958.723 933.445 L958.723 927.652 L964.192 927.652 L964.192 914.77 L971.686 914.77 Z" fill="#000000" fill-rule="evenodd" fill-opacity="1" /><path clip-path="url(#clip350)" d="M 0 0 M1021.15 934.62 Q1019.89 933.891 1018.39 933.567 Q1016.93 933.202 1015.15 933.202 Q1008.83 933.202 1005.43 937.334 Q1002.07 941.425 1002.07 949.122 L1002.07 973.022 L994.574 973.022 L994.574 927.652 L1002.07 927.652 L1002.07 934.701 Q1004.42 930.569 1008.19 928.584 Q1011.95 926.559 1017.34 926.559 Q1018.11 926.559 1019.04 926.68 Q1019.97 926.761 1021.11 926.964 L1021.15 934.62 Z" fill="#000000" fill-rule="evenodd" fill-opacity="1" /><path clip-path="url(#clip350)" d="M 0 0 M1049.59 950.216 Q1040.55 950.216 1037.07 952.282 Q1033.58 954.348 1033.58 959.33 Q1033.58 963.3 1036.18 965.65 Q1038.81 967.959 1043.31 967.959 Q1049.5 967.959 1053.23 963.584 Q1057 959.168 1057 951.877 L1057 950.216 L1049.59 950.216 M1064.45 947.137 L1064.45 973.022 L1057 973.022 L1057 966.136 Q1054.45 970.268 1050.64 972.253 Q1046.83 974.197 1041.32 974.197 Q1034.35 974.197 1030.22 970.308 Q1026.13 966.379 1026.13 959.816 Q1026.13 952.16 1031.23 948.271 Q1036.38 944.383 1046.55 944.383 L1057 944.383 L1057 943.653 Q1057 938.509 1053.6 935.714 Q1050.23 932.878 1044.12 932.878 Q1040.23 932.878 1036.54 933.81 Q1032.86 934.741 1029.45 936.605 L1029.45 929.718 Q1033.54 928.138 1037.39 927.369 Q1041.24 926.559 1044.89 926.559 Q1054.73 926.559 1059.59 931.663 Q1064.45 936.767 1064.45 947.137 Z" fill="#000000" fill-rule="evenodd" fill-opacity="1" /><path clip-path="url(#clip350)" d="M 0 0 M1072.27 927.652 L1079.72 927.652 L1079.72 973.022 L1072.27 973.022 L1072.27 927.652 M1072.27 909.99 L1079.72 909.99 L1079.72 919.429 L1072.27 919.429 L1072.27 909.99 Z" fill="#000000" fill-rule="evenodd" fill-opacity="1" /><path clip-path="url(#clip350)" d="M 0 0 M1125.26 945.638 L1125.26 973.022 L1117.8 973.022 L1117.8 945.881 Q1117.8 939.44 1115.29 936.24 Q1112.78 933.04 1107.76 933.04 Q1101.72 933.04 1098.24 936.888 Q1094.75 940.737 1094.75 947.38 L1094.75 973.022 L1087.26 973.022 L1087.26 927.652 L1094.75 927.652 L1094.75 934.701 Q1097.43 930.609 1101.03 928.584 Q1104.68 926.559 1109.42 926.559 Q1117.24 926.559 1121.25 931.42 Q1125.26 936.24 1125.26 945.638 Z" fill="#000000" fill-rule="evenodd" fill-opacity="1" /><path clip-path="url(#clip350)" d="M 0 0 M1140.45 914.77 L1140.45 927.652 L1155.8 927.652 L1155.8 933.445 L1140.45 933.445 L1140.45 958.075 Q1140.45 963.624 1141.95 965.204 Q1143.49 966.784 1148.14 966.784 L1155.8 966.784 L1155.8 973.022 L1148.14 973.022 Q1139.52 973.022 1136.23 969.822 Q1132.95 966.581 1132.95 958.075 L1132.95 933.445 L1127.48 933.445 L1127.48 927.652 L1132.95 927.652 L1132.95 914.77 L1140.45 914.77 Z" fill="#000000" fill-rule="evenodd" fill-opacity="1" /><path clip-path="url(#clip350)" d="M 0 0 M1192.54 928.989 L1192.54 936.038 Q1189.38 934.417 1185.98 933.607 Q1182.58 932.797 1178.93 932.797 Q1173.38 932.797 1170.59 934.498 Q1167.83 936.2 1167.83 939.602 Q1167.83 942.195 1169.82 943.694 Q1171.8 945.152 1177.8 946.489 L1180.35 947.056 Q1188.29 948.757 1191.61 951.877 Q1194.97 954.955 1194.97 960.505 Q1194.97 966.825 1189.95 970.511 Q1184.97 974.197 1176.22 974.197 Q1172.57 974.197 1168.6 973.468 Q1164.67 972.779 1160.3 971.362 L1160.3 963.665 Q1164.43 965.812 1168.44 966.906 Q1172.45 967.959 1176.38 967.959 Q1181.64 967.959 1184.48 966.176 Q1187.32 964.353 1187.32 961.072 Q1187.32 958.034 1185.25 956.414 Q1183.22 954.793 1176.3 953.295 L1173.7 952.687 Q1166.78 951.229 1163.7 948.231 Q1160.62 945.193 1160.62 939.927 Q1160.62 933.526 1165.16 930.042 Q1169.69 926.559 1178.04 926.559 Q1182.17 926.559 1185.82 927.166 Q1189.46 927.774 1192.54 928.989 Z" fill="#000000" fill-rule="evenodd" fill-opacity="1" /><path clip-path="url(#clip350)" d="M 0 0 M1820.06 65.4389 L1820.06 88.1645 L1830.35 88.1645 Q1836.06 88.1645 1839.18 85.2073 Q1842.3 82.2501 1842.3 76.7814 Q1842.3 71.3532 1839.18 68.3961 Q1836.06 65.4389 1830.35 65.4389 L1820.06 65.4389 M1811.88 58.7144 L1830.35 58.7144 Q1840.52 58.7144 1845.7 63.3324 Q1850.93 67.9099 1850.93 76.7814 Q1850.93 85.7339 1845.7 90.3114 Q1840.52 94.889 1830.35 94.889 L1820.06 94.889 L1820.06 119.194 L1811.88 119.194 L1811.88 58.7144 Z" fill="#000000" fill-rule="evenodd" fill-opacity="1" /><path clip-path="url(#clip350)" d="M 0 0 M1894.6 94.6459 L1894.6 98.2917 L1860.33 98.2917 Q1860.81 105.988 1864.95 110.039 Q1869.12 114.05 1876.53 114.05 Q1880.83 114.05 1884.84 112.997 Q1888.89 111.943 1892.86 109.837 L1892.86 116.885 Q1888.85 118.587 1884.63 119.478 Q1880.42 120.369 1876.09 120.369 Q1865.23 120.369 1858.87 114.05 Q1852.55 107.73 1852.55 96.9549 Q1852.55 85.8149 1858.55 79.293 Q1864.58 72.7305 1874.79 72.7305 Q1883.95 72.7305 1889.25 78.6448 Q1894.6 84.5187 1894.6 94.6459 M1887.15 92.4584 Q1887.06 86.3416 1883.7 82.6957 Q1880.38 79.0499 1874.87 79.0499 Q1868.63 79.0499 1864.87 82.5742 Q1861.14 86.0985 1860.57 92.4989 L1887.15 92.4584 Z" fill="#000000" fill-rule="evenodd" fill-opacity="1" /><path clip-path="url(#clip350)" d="M 0 0 M1928.71 80.7918 Q1927.45 80.0627 1925.95 79.7386 Q1924.49 79.374 1922.71 79.374 Q1916.39 79.374 1912.99 83.5059 Q1909.63 87.5973 1909.63 95.2941 L1909.63 119.194 L1902.13 119.194 L1902.13 73.8243 L1909.63 73.8243 L1909.63 80.8728 Q1911.98 76.7409 1915.74 74.756 Q1919.51 72.7305 1924.9 72.7305 Q1925.67 72.7305 1926.6 72.852 Q1927.53 72.9331 1928.67 73.1356 L1928.71 80.7918 Z" fill="#000000" fill-rule="evenodd" fill-opacity="1" /><path clip-path="url(#clip350)" d="M 0 0 M1959.49 56.1623 L1959.49 62.3602 L1952.36 62.3602 Q1948.35 62.3602 1946.77 63.9806 Q1945.24 65.6009 1945.24 69.8139 L1945.24 73.8243 L1957.51 73.8243 L1957.51 79.6171 L1945.24 79.6171 L1945.24 119.194 L1937.74 119.194 L1937.74 79.6171 L1930.61 79.6171 L1930.61 73.8243 L1937.74 73.8243 L1937.74 70.6646 Q1937.74 63.0894 1941.27 59.6461 Q1944.79 56.1623 1952.45 56.1623 L1959.49 56.1623 Z" fill="#000000" fill-rule="evenodd" fill-opacity="1" /><path clip-path="url(#clip350)" d="M 0 0 M1984.89 79.0499 Q1978.9 79.0499 1975.41 83.749 Q1971.93 88.4075 1971.93 96.5498 Q1971.93 104.692 1975.37 109.391 Q1978.86 114.05 1984.89 114.05 Q1990.85 114.05 1994.33 109.351 Q1997.82 104.652 1997.82 96.5498 Q1997.82 88.4885 1994.33 83.7895 Q1990.85 79.0499 1984.89 79.0499 M1984.89 72.7305 Q1994.62 72.7305 2000.17 79.0499 Q2005.72 85.3693 2005.72 96.5498 Q2005.72 107.69 2000.17 114.05 Q1994.62 120.369 1984.89 120.369 Q1975.13 120.369 1969.58 114.05 Q1964.07 107.69 1964.07 96.5498 Q1964.07 85.3693 1969.58 79.0499 Q1975.13 72.7305 1984.89 72.7305 Z" fill="#000000" fill-rule="evenodd" fill-opacity="1" /><path clip-path="url(#clip350)" d="M 0 0 M2039.82 80.7918 Q2038.57 80.0627 2037.07 79.7386 Q2035.61 79.374 2033.83 79.374 Q2027.51 79.374 2024.11 83.5059 Q2020.74 87.5973 2020.74 95.2941 L2020.74 119.194 L2013.25 119.194 L2013.25 73.8243 L2020.74 73.8243 L2020.74 80.8728 Q2023.09 76.7409 2026.86 74.756 Q2030.63 72.7305 2036.02 72.7305 Q2036.79 72.7305 2037.72 72.852 Q2038.65 72.9331 2039.78 73.1356 L2039.82 80.7918 Z" fill="#000000" fill-rule="evenodd" fill-opacity="1" /><path clip-path="url(#clip350)" d="M 0 0 M2081.51 82.5337 Q2084.3 77.5106 2088.19 75.1206 Q2092.08 72.7305 2097.35 72.7305 Q2104.44 72.7305 2108.28 77.7131 Q2112.13 82.6552 2112.13 91.8103 L2112.13 119.194 L2104.64 119.194 L2104.64 92.0533 Q2104.64 85.5314 2102.33 82.3717 Q2100.02 79.212 2095.28 79.212 Q2089.49 79.212 2086.13 83.0603 Q2082.76 86.9087 2082.76 93.5522 L2082.76 119.194 L2075.27 119.194 L2075.27 92.0533 Q2075.27 85.4909 2072.96 82.3717 Q2070.65 79.212 2065.83 79.212 Q2060.12 79.212 2056.76 83.1008 Q2053.39 86.9492 2053.39 93.5522 L2053.39 119.194 L2045.9 119.194 L2045.9 73.8243 L2053.39 73.8243 L2053.39 80.8728 Q2055.95 76.7004 2059.51 74.7155 Q2063.08 72.7305 2067.98 72.7305 Q2072.92 72.7305 2076.36 75.2421 Q2079.85 77.7536 2081.51 82.5337 Z" fill="#000000" fill-rule="evenodd" fill-opacity="1" /><path clip-path="url(#clip350)" d="M 0 0 M2140.57 96.3878 Q2131.54 96.3878 2128.05 98.4538 Q2124.57 100.52 2124.57 105.502 Q2124.57 109.472 2127.16 111.822 Q2129.79 114.131 2134.29 114.131 Q2140.49 114.131 2144.22 109.756 Q2147.98 105.34 2147.98 98.0487 L2147.98 96.3878 L2140.57 96.3878 M2155.44 93.3091 L2155.44 119.194 L2147.98 119.194 L2147.98 112.308 Q2145.43 116.44 2141.62 118.425 Q2137.82 120.369 2132.31 120.369 Q2125.34 120.369 2121.21 116.48 Q2117.12 112.551 2117.12 105.988 Q2117.12 98.3322 2122.22 94.4434 Q2127.36 90.5545 2137.53 90.5545 L2147.98 90.5545 L2147.98 89.8253 Q2147.98 84.6807 2144.58 81.8856 Q2141.22 79.0499 2135.1 79.0499 Q2131.21 79.0499 2127.53 79.9816 Q2123.84 80.9133 2120.44 82.7768 L2120.44 75.8902 Q2124.53 74.3104 2128.38 73.5407 Q2132.23 72.7305 2135.87 72.7305 Q2145.71 72.7305 2150.58 77.8347 Q2155.44 82.9388 2155.44 93.3091 Z" fill="#000000" fill-rule="evenodd" fill-opacity="1" /><path clip-path="url(#clip350)" d="M 0 0 M2200.97 91.8103 L2200.97 119.194 L2193.52 119.194 L2193.52 92.0533 Q2193.52 85.6124 2191 82.4122 Q2188.49 79.212 2183.47 79.212 Q2177.43 79.212 2173.95 83.0603 Q2170.47 86.9087 2170.47 93.5522 L2170.47 119.194 L2162.97 119.194 L2162.97 73.8243 L2170.47 73.8243 L2170.47 80.8728 Q2173.14 76.7814 2176.74 74.756 Q2180.39 72.7305 2185.13 72.7305 Q2192.95 72.7305 2196.96 77.5916 Q2200.97 82.4122 2200.97 91.8103 Z" fill="#000000" fill-rule="evenodd" fill-opacity="1" /><path clip-path="url(#clip350)" d="M 0 0 M2241.44 75.5662 L2241.44 82.5337 Q2238.28 80.7918 2235.08 79.9411 Q2231.92 79.0499 2228.68 79.0499 Q2221.43 79.0499 2217.42 83.668 Q2213.41 88.2455 2213.41 96.5498 Q2213.41 104.854 2217.42 109.472 Q2221.43 114.05 2228.68 114.05 Q2231.92 114.05 2235.08 113.199 Q2238.28 112.308 2241.44 110.566 L2241.44 117.453 Q2238.32 118.911 2234.96 119.64 Q2231.63 120.369 2227.87 120.369 Q2217.62 120.369 2211.58 113.928 Q2205.55 107.487 2205.55 96.5498 Q2205.55 85.4504 2211.62 79.0904 Q2217.74 72.7305 2228.35 72.7305 Q2231.8 72.7305 2235.08 73.4597 Q2238.36 74.1483 2241.44 75.5662 Z" fill="#000000" fill-rule="evenodd" fill-opacity="1" /><path clip-path="url(#clip350)" d="M 0 0 M2288.06 94.6459 L2288.06 98.2917 L2253.79 98.2917 Q2254.28 105.988 2258.41 110.039 Q2262.58 114.05 2270 114.05 Q2274.29 114.05 2278.3 112.997 Q2282.35 111.943 2286.32 109.837 L2286.32 116.885 Q2282.31 118.587 2278.1 119.478 Q2273.89 120.369 2269.55 120.369 Q2258.69 120.369 2252.33 114.05 Q2246.02 107.73 2246.02 96.9549 Q2246.02 85.8149 2252.01 79.293 Q2258.05 72.7305 2268.25 72.7305 Q2277.41 72.7305 2282.72 78.6448 Q2288.06 84.5187 2288.06 94.6459 M2280.61 92.4584 Q2280.53 86.3416 2277.17 82.6957 Q2273.84 79.0499 2268.34 79.0499 Q2262.1 79.0499 2258.33 82.5742 Q2254.6 86.0985 2254.04 92.4989 L2280.61 92.4584 Z" fill="#000000" fill-rule="evenodd" fill-opacity="1" /><path clip-path="url(#clip350)" d="M 0 0 M2330.35 132.967 L2330.35 138.76 L2287.25 138.76 L2287.25 132.967 L2330.35 132.967 Z" fill="#000000" fill-rule="evenodd" fill-opacity="1" /><path clip-path="url(#clip350)" d="M 0 0 M2346.68 65.4389 L2346.68 88.1645 L2356.97 88.1645 Q2362.68 88.1645 2365.8 85.2073 Q2368.92 82.2501 2368.92 76.7814 Q2368.92 71.3532 2365.8 68.3961 Q2362.68 65.4389 2356.97 65.4389 L2346.68 65.4389 M2338.5 58.7144 L2356.97 58.7144 Q2367.14 58.7144 2372.32 63.3324 Q2377.55 67.9099 2377.55 76.7814 Q2377.55 85.7339 2372.32 90.3114 Q2367.14 94.889 2356.97 94.889 L2346.68 94.889 L2346.68 119.194 L2338.5 119.194 L2338.5 58.7144 Z" fill="#000000" fill-rule="evenodd" fill-opacity="1" /><path clip-path="url(#clip350)" d="M 0 0 M2402.26 96.3878 Q2393.22 96.3878 2389.74 98.4538 Q2386.26 100.52 2386.26 105.502 Q2386.26 109.472 2388.85 111.822 Q2391.48 114.131 2395.98 114.131 Q2402.18 114.131 2405.9 109.756 Q2409.67 105.34 2409.67 98.0487 L2409.67 96.3878 L2402.26 96.3878 M2417.13 93.3091 L2417.13 119.194 L2409.67 119.194 L2409.67 112.308 Q2407.12 116.44 2403.31 118.425 Q2399.5 120.369 2393.99 120.369 Q2387.03 120.369 2382.9 116.48 Q2378.8 112.551 2378.8 105.988 Q2378.8 98.3322 2383.91 94.4434 Q2389.05 90.5545 2399.22 90.5545 L2409.67 90.5545 L2409.67 89.8253 Q2409.67 84.6807 2406.27 81.8856 Q2402.91 79.0499 2396.79 79.0499 Q2392.9 79.0499 2389.21 79.9816 Q2385.53 80.9133 2382.13 82.7768 L2382.13 75.8902 Q2386.22 74.3104 2390.07 73.5407 Q2393.91 72.7305 2397.56 72.7305 Q2407.4 72.7305 2412.26 77.8347 Q2417.13 82.9388 2417.13 93.3091 Z" fill="#000000" fill-rule="evenodd" fill-opacity="1" /><path clip-path="url(#clip350)" d="M 0 0 M2451.23 80.7918 Q2449.98 80.0627 2448.48 79.7386 Q2447.02 79.374 2445.24 79.374 Q2438.92 79.374 2435.52 83.5059 Q2432.15 87.5973 2432.15 95.2941 L2432.15 119.194 L2424.66 119.194 L2424.66 73.8243 L2432.15 73.8243 L2432.15 80.8728 Q2434.5 76.7409 2438.27 74.756 Q2442.04 72.7305 2447.43 72.7305 Q2448.2 72.7305 2449.13 72.852 Q2450.06 72.9331 2451.19 73.1356 L2451.23 80.7918 Z" fill="#000000" fill-rule="evenodd" fill-opacity="1" /><path clip-path="url(#clip350)" d="M 0 0 M2479.67 96.3878 Q2470.64 96.3878 2467.15 98.4538 Q2463.67 100.52 2463.67 105.502 Q2463.67 109.472 2466.26 111.822 Q2468.9 114.131 2473.39 114.131 Q2479.59 114.131 2483.32 109.756 Q2487.08 105.34 2487.08 98.0487 L2487.08 96.3878 L2479.67 96.3878 M2494.54 93.3091 L2494.54 119.194 L2487.08 119.194 L2487.08 112.308 Q2484.53 116.44 2480.72 118.425 Q2476.92 120.369 2471.41 120.369 Q2464.44 120.369 2460.31 116.48 Q2456.22 112.551 2456.22 105.988 Q2456.22 98.3322 2461.32 94.4434 Q2466.47 90.5545 2476.63 90.5545 L2487.08 90.5545 L2487.08 89.8253 Q2487.08 84.6807 2483.68 81.8856 Q2480.32 79.0499 2474.2 79.0499 Q2470.31 79.0499 2466.63 79.9816 Q2462.94 80.9133 2459.54 82.7768 L2459.54 75.8902 Q2463.63 74.3104 2467.48 73.5407 Q2471.33 72.7305 2474.97 72.7305 Q2484.82 72.7305 2489.68 77.8347 Q2494.54 82.9388 2494.54 93.3091 Z" fill="#000000" fill-rule="evenodd" fill-opacity="1" /><path clip-path="url(#clip350)" d="M 0 0 M2537.68 82.5337 Q2540.48 77.5106 2544.36 75.1206 Q2548.25 72.7305 2553.52 72.7305 Q2560.61 72.7305 2564.46 77.7131 Q2568.3 82.6552 2568.3 91.8103 L2568.3 119.194 L2560.81 119.194 L2560.81 92.0533 Q2560.81 85.5314 2558.5 82.3717 Q2556.19 79.212 2551.45 79.212 Q2545.66 79.212 2542.3 83.0603 Q2538.94 86.9087 2538.94 93.5522 L2538.94 119.194 L2531.44 119.194 L2531.44 92.0533 Q2531.44 85.4909 2529.13 82.3717 Q2526.82 79.212 2522 79.212 Q2516.29 79.212 2512.93 83.1008 Q2509.57 86.9492 2509.57 93.5522 L2509.57 119.194 L2502.07 119.194 L2502.07 73.8243 L2509.57 73.8243 L2509.57 80.8728 Q2512.12 76.7004 2515.68 74.7155 Q2519.25 72.7305 2524.15 72.7305 Q2529.09 72.7305 2532.54 75.2421 Q2536.02 77.7536 2537.68 82.5337 Z" fill="#000000" fill-rule="evenodd" fill-opacity="1" /><path clip-path="url(#clip350)" d="M 0 0 M2614.93 94.6459 L2614.93 98.2917 L2580.66 98.2917 Q2581.15 105.988 2585.28 110.039 Q2589.45 114.05 2596.86 114.05 Q2601.16 114.05 2605.17 112.997 Q2609.22 111.943 2613.19 109.837 L2613.19 116.885 Q2609.18 118.587 2604.97 119.478 Q2600.75 120.369 2596.42 120.369 Q2585.56 120.369 2579.2 114.05 Q2572.88 107.73 2572.88 96.9549 Q2572.88 85.8149 2578.88 79.293 Q2584.91 72.7305 2595.12 72.7305 Q2604.28 72.7305 2609.58 78.6448 Q2614.93 84.5187 2614.93 94.6459 M2607.48 92.4584 Q2607.4 86.3416 2604.03 82.6957 Q2600.71 79.0499 2595.2 79.0499 Q2588.96 79.0499 2585.2 82.5742 Q2581.47 86.0985 2580.9 92.4989 L2607.48 92.4584 Z" fill="#000000" fill-rule="evenodd" fill-opacity="1" /><path clip-path="url(#clip350)" d="M 0 0 M2630.12 60.9424 L2630.12 73.8243 L2645.47 73.8243 L2645.47 79.6171 L2630.12 79.6171 L2630.12 104.247 Q2630.12 109.796 2631.62 111.376 Q2633.16 112.956 2637.82 112.956 L2645.47 112.956 L2645.47 119.194 L2637.82 119.194 Q2629.19 119.194 2625.91 115.994 Q2622.63 112.753 2622.63 104.247 L2622.63 79.6171 L2617.16 79.6171 L2617.16 73.8243 L2622.63 73.8243 L2622.63 60.9424 L2630.12 60.9424 Z" fill="#000000" fill-rule="evenodd" fill-opacity="1" /><path clip-path="url(#clip350)" d="M 0 0 M2692.1 94.6459 L2692.1 98.2917 L2657.83 98.2917 Q2658.32 105.988 2662.45 110.039 Q2666.62 114.05 2674.03 114.05 Q2678.33 114.05 2682.34 112.997 Q2686.39 111.943 2690.36 109.837 L2690.36 116.885 Q2686.35 118.587 2682.14 119.478 Q2677.92 120.369 2673.59 120.369 Q2662.73 120.369 2656.37 114.05 Q2650.05 107.73 2650.05 96.9549 Q2650.05 85.8149 2656.05 79.293 Q2662.08 72.7305 2672.29 72.7305 Q2681.45 72.7305 2686.75 78.6448 Q2692.1 84.5187 2692.1 94.6459 M2684.65 92.4584 Q2684.57 86.3416 2681.2 82.6957 Q2677.88 79.0499 2672.37 79.0499 Q2666.13 79.0499 2662.37 82.5742 Q2658.64 86.0985 2658.07 92.4989 L2684.65 92.4584 Z" fill="#000000" fill-rule="evenodd" fill-opacity="1" /><path clip-path="url(#clip350)" d="M 0 0 M2726.21 80.7918 Q2724.95 80.0627 2723.45 79.7386 Q2722 79.374 2720.21 79.374 Q2713.89 79.374 2710.49 83.5059 Q2707.13 87.5973 2707.13 95.2941 L2707.13 119.194 L2699.64 119.194 L2699.64 73.8243 L2707.13 73.8243 L2707.13 80.8728 Q2709.48 76.7409 2713.25 74.756 Q2717.01 72.7305 2722.4 72.7305 Q2723.17 72.7305 2724.1 72.852 Q2725.03 72.9331 2726.17 73.1356 L2726.21 80.7918 Z" fill="#000000" fill-rule="evenodd" fill-opacity="1" /><path clip-path="url(#clip350)" d="M 0 0 M2762.95 75.1611 L2762.95 82.2096 Q2759.79 80.5893 2756.39 79.7791 Q2752.99 78.9689 2749.34 78.9689 Q2743.79 78.9689 2740.99 80.6703 Q2738.24 82.3717 2738.24 85.7744 Q2738.24 88.367 2740.23 89.8658 Q2742.21 91.3242 2748.21 92.661 L2750.76 93.2281 Q2758.7 94.9295 2762.02 98.0487 Q2765.38 101.127 2765.38 106.677 Q2765.38 112.997 2760.36 116.683 Q2755.38 120.369 2746.63 120.369 Q2742.98 120.369 2739.01 119.64 Q2735.08 118.951 2730.71 117.534 L2730.71 109.837 Q2734.84 111.984 2738.85 113.078 Q2742.86 114.131 2746.79 114.131 Q2752.05 114.131 2754.89 112.348 Q2757.73 110.525 2757.73 107.244 Q2757.73 104.206 2755.66 102.586 Q2753.63 100.965 2746.71 99.4665 L2744.11 98.8589 Q2737.19 97.4005 2734.11 94.4029 Q2731.03 91.3647 2731.03 86.0985 Q2731.03 79.6981 2735.57 76.2143 Q2740.1 72.7305 2748.45 72.7305 Q2752.58 72.7305 2756.23 73.3382 Q2759.87 73.9458 2762.95 75.1611 Z" fill="#000000" fill-rule="evenodd" fill-opacity="1" /><path clip-path="url(#clip350)" d="M 0 0 M750.72 1205.24 L750.72 1213.86 Q746.588 1210.02 741.889 1208.11 Q737.23 1206.21 731.964 1206.21 Q721.594 1206.21 716.084 1212.57 Q710.575 1218.89 710.575 1230.88 Q710.575 1242.83 716.084 1249.19 Q721.594 1255.51 731.964 1255.51 Q737.23 1255.51 741.889 1253.6 Q746.588 1251.7 750.72 1247.85 L750.72 1256.4 Q746.426 1259.32 741.605 1260.77 Q736.825 1262.23 731.478 1262.23 Q717.745 1262.23 709.846 1253.85 Q701.947 1245.42 701.947 1230.88 Q701.947 1216.3 709.846 1207.91 Q717.745 1199.48 731.478 1199.48 Q736.906 1199.48 741.686 1200.94 Q746.507 1202.36 750.72 1205.24 Z" fill="#000000" fill-rule="evenodd" fill-opacity="1" /><path clip-path="url(#clip350)" d="M 0 0 M758.538 1198.03 L765.991 1198.03 L765.991 1261.06 L758.538 1261.06 L758.538 1198.03 Z" fill="#000000" fill-rule="evenodd" fill-opacity="1" /><path clip-path="url(#clip350)" d="M 0 0 M773.81 1215.69 L781.263 1215.69 L781.263 1261.06 L773.81 1261.06 L773.81 1215.69 M773.81 1198.03 L781.263 1198.03 L781.263 1207.46 L773.81 1207.46 L773.81 1198.03 Z" fill="#000000" fill-rule="evenodd" fill-opacity="1" /><path clip-path="url(#clip350)" d="M 0 0 M827.889 1236.51 L827.889 1240.16 L793.619 1240.16 Q794.105 1247.85 798.237 1251.9 Q802.409 1255.91 809.822 1255.91 Q814.116 1255.91 818.127 1254.86 Q822.177 1253.81 826.147 1251.7 L826.147 1258.75 Q822.137 1260.45 817.924 1261.34 Q813.711 1262.23 809.377 1262.23 Q798.52 1262.23 792.16 1255.91 Q785.841 1249.59 785.841 1238.82 Q785.841 1227.68 791.836 1221.16 Q797.872 1214.59 808.08 1214.59 Q817.235 1214.59 822.542 1220.51 Q827.889 1226.38 827.889 1236.51 M820.436 1234.32 Q820.355 1228.2 816.992 1224.56 Q813.671 1220.91 808.161 1220.91 Q801.923 1220.91 798.156 1224.44 Q794.429 1227.96 793.862 1234.36 L820.436 1234.32 Z" fill="#000000" fill-rule="evenodd" fill-opacity="1" /><path clip-path="url(#clip350)" d="M 0 0 M873.421 1233.67 L873.421 1261.06 L865.968 1261.06 L865.968 1233.92 Q865.968 1227.48 863.456 1224.28 Q860.945 1221.08 855.921 1221.08 Q849.886 1221.08 846.402 1224.92 Q842.918 1228.77 842.918 1235.42 L842.918 1261.06 L835.424 1261.06 L835.424 1215.69 L842.918 1215.69 L842.918 1222.74 Q845.592 1218.64 849.197 1216.62 Q852.843 1214.59 857.582 1214.59 Q865.401 1214.59 869.411 1219.45 Q873.421 1224.28 873.421 1233.67 Z" fill="#000000" fill-rule="evenodd" fill-opacity="1" /><path clip-path="url(#clip350)" d="M 0 0 M888.612 1202.81 L888.612 1215.69 L903.965 1215.69 L903.965 1221.48 L888.612 1221.48 L888.612 1246.11 Q888.612 1251.66 890.111 1253.24 Q891.65 1254.82 896.309 1254.82 L903.965 1254.82 L903.965 1261.06 L896.309 1261.06 Q887.681 1261.06 884.399 1257.86 Q881.118 1254.62 881.118 1246.11 L881.118 1221.48 L875.649 1221.48 L875.649 1215.69 L881.118 1215.69 L881.118 1202.81 L888.612 1202.81 Z" fill="#000000" fill-rule="evenodd" fill-opacity="1" /><path clip-path="url(#clip350)" d="M 0 0 M946.257 1274.83 L946.257 1280.62 L903.155 1280.62 L903.155 1274.83 L946.257 1274.83 Z" fill="#000000" fill-rule="evenodd" fill-opacity="1" /><path clip-path="url(#clip350)" d="M 0 0 M974.694 1238.25 Q965.66 1238.25 962.177 1240.32 Q958.693 1242.38 958.693 1247.37 Q958.693 1251.34 961.286 1253.69 Q963.919 1255.99 968.415 1255.99 Q974.613 1255.99 978.34 1251.62 Q982.107 1247.2 982.107 1239.91 L982.107 1238.25 L974.694 1238.25 M989.561 1235.17 L989.561 1261.06 L982.107 1261.06 L982.107 1254.17 Q979.555 1258.3 975.747 1260.29 Q971.939 1262.23 966.43 1262.23 Q959.463 1262.23 955.331 1258.34 Q951.239 1254.41 951.239 1247.85 Q951.239 1240.2 956.343 1236.31 Q961.488 1232.42 971.656 1232.42 L982.107 1232.42 L982.107 1231.69 Q982.107 1226.54 978.704 1223.75 Q975.342 1220.91 969.225 1220.91 Q965.336 1220.91 961.65 1221.85 Q957.964 1222.78 954.561 1224.64 L954.561 1217.75 Q958.652 1216.17 962.501 1215.4 Q966.349 1214.59 969.995 1214.59 Q979.839 1214.59 984.7 1219.7 Q989.561 1224.8 989.561 1235.17 Z" fill="#000000" fill-rule="evenodd" fill-opacity="1" /><path clip-path="url(#clip350)" d="M 0 0 M1035.09 1233.67 L1035.09 1261.06 L1027.64 1261.06 L1027.64 1233.92 Q1027.64 1227.48 1025.13 1224.28 Q1022.62 1221.08 1017.59 1221.08 Q1011.56 1221.08 1008.07 1224.92 Q1004.59 1228.77 1004.59 1235.42 L1004.59 1261.06 L997.095 1261.06 L997.095 1215.69 L1004.59 1215.69 L1004.59 1222.74 Q1007.26 1218.64 1010.87 1216.62 Q1014.51 1214.59 1019.25 1214.59 Q1027.07 1214.59 1031.08 1219.45 Q1035.09 1224.28 1035.09 1233.67 Z" fill="#000000" fill-rule="evenodd" fill-opacity="1" /><path clip-path="url(#clip350)" d="M 0 0 M1072.77 1222.57 L1072.77 1198.03 L1080.22 1198.03 L1080.22 1261.06 L1072.77 1261.06 L1072.77 1254.25 Q1070.42 1258.3 1066.81 1260.29 Q1063.25 1262.23 1058.22 1262.23 Q1050 1262.23 1044.82 1255.67 Q1039.67 1249.11 1039.67 1238.41 Q1039.67 1227.72 1044.82 1221.16 Q1050 1214.59 1058.22 1214.59 Q1063.25 1214.59 1066.81 1216.58 Q1070.42 1218.52 1072.77 1222.57 M1047.37 1238.41 Q1047.37 1246.64 1050.73 1251.34 Q1054.13 1255.99 1060.05 1255.99 Q1065.96 1255.99 1069.36 1251.34 Q1072.77 1246.64 1072.77 1238.41 Q1072.77 1230.19 1069.36 1225.53 Q1065.96 1220.83 1060.05 1220.83 Q1054.13 1220.83 1050.73 1225.53 Q1047.37 1230.19 1047.37 1238.41 Z" fill="#000000" fill-rule="evenodd" fill-opacity="1" /><path clip-path="url(#clip350)" d="M 0 0 M1122.51 1274.83 L1122.51 1280.62 L1079.41 1280.62 L1079.41 1274.83 L1122.51 1274.83 Z" fill="#000000" fill-rule="evenodd" fill-opacity="1" /><path clip-path="url(#clip350)" d="M 0 0 M1175.94 1205.24 L1175.94 1213.86 Q1171.81 1210.02 1167.11 1208.11 Q1162.45 1206.21 1157.19 1206.21 Q1146.82 1206.21 1141.31 1212.57 Q1135.8 1218.89 1135.8 1230.88 Q1135.8 1242.83 1141.31 1249.19 Q1146.82 1255.51 1157.19 1255.51 Q1162.45 1255.51 1167.11 1253.6 Q1171.81 1251.7 1175.94 1247.85 L1175.94 1256.4 Q1171.65 1259.32 1166.83 1260.77 Q1162.05 1262.23 1156.7 1262.23 Q1142.97 1262.23 1135.07 1253.85 Q1127.17 1245.42 1127.17 1230.88 Q1127.17 1216.3 1135.07 1207.91 Q1142.97 1199.48 1156.7 1199.48 Q1162.13 1199.48 1166.91 1200.94 Q1171.73 1202.36 1175.94 1205.24 Z" fill="#000000" fill-rule="evenodd" fill-opacity="1" /><path clip-path="url(#clip350)" d="M 0 0 M1201.34 1220.91 Q1195.35 1220.91 1191.86 1225.61 Q1188.38 1230.27 1188.38 1238.41 Q1188.38 1246.56 1191.82 1251.25 Q1195.31 1255.91 1201.34 1255.91 Q1207.3 1255.91 1210.78 1251.21 Q1214.26 1246.52 1214.26 1238.41 Q1214.26 1230.35 1210.78 1225.65 Q1207.3 1220.91 1201.34 1220.91 M1201.34 1214.59 Q1211.06 1214.59 1216.61 1220.91 Q1222.16 1227.23 1222.16 1238.41 Q1222.16 1249.55 1216.61 1255.91 Q1211.06 1262.23 1201.34 1262.23 Q1191.58 1262.23 1186.03 1255.91 Q1180.52 1249.55 1180.52 1238.41 Q1180.52 1227.23 1186.03 1220.91 Q1191.58 1214.59 1201.34 1214.59 Z" fill="#000000" fill-rule="evenodd" fill-opacity="1" /><path clip-path="url(#clip350)" d="M 0 0 M1267.7 1233.67 L1267.7 1261.06 L1260.24 1261.06 L1260.24 1233.92 Q1260.24 1227.48 1257.73 1224.28 Q1255.22 1221.08 1250.2 1221.08 Q1244.16 1221.08 1240.68 1224.92 Q1237.19 1228.77 1237.19 1235.42 L1237.19 1261.06 L1229.7 1261.06 L1229.7 1215.69 L1237.19 1215.69 L1237.19 1222.74 Q1239.87 1218.64 1243.47 1216.62 Q1247.12 1214.59 1251.86 1214.59 Q1259.68 1214.59 1263.69 1219.45 Q1267.7 1224.28 1267.7 1233.67 Z" fill="#000000" fill-rule="evenodd" fill-opacity="1" /><path clip-path="url(#clip350)" d="M 0 0 M1304.44 1217.02 L1304.44 1224.07 Q1301.28 1222.45 1297.88 1221.64 Q1294.47 1220.83 1290.83 1220.83 Q1285.28 1220.83 1282.48 1222.53 Q1279.73 1224.24 1279.73 1227.64 Q1279.73 1230.23 1281.71 1231.73 Q1283.7 1233.19 1289.69 1234.52 L1292.24 1235.09 Q1300.18 1236.79 1303.51 1239.91 Q1306.87 1242.99 1306.87 1248.54 Q1306.87 1254.86 1301.85 1258.55 Q1296.86 1262.23 1288.11 1262.23 Q1284.47 1262.23 1280.5 1261.5 Q1276.57 1260.81 1272.19 1259.4 L1272.19 1251.7 Q1276.32 1253.85 1280.33 1254.94 Q1284.35 1255.99 1288.27 1255.99 Q1293.54 1255.99 1296.38 1254.21 Q1299.21 1252.39 1299.21 1249.11 Q1299.21 1246.07 1297.15 1244.45 Q1295.12 1242.83 1288.19 1241.33 L1285.6 1240.72 Q1278.67 1239.26 1275.6 1236.27 Q1272.52 1233.23 1272.52 1227.96 Q1272.52 1221.56 1277.05 1218.08 Q1281.59 1214.59 1289.94 1214.59 Q1294.07 1214.59 1297.71 1215.2 Q1301.36 1215.81 1304.44 1217.02 Z" fill="#000000" fill-rule="evenodd" fill-opacity="1" /><path clip-path="url(#clip350)" d="M 0 0 M1313.92 1243.15 L1313.92 1215.69 L1321.37 1215.69 L1321.37 1242.87 Q1321.37 1249.31 1323.88 1252.55 Q1326.39 1255.75 1331.42 1255.75 Q1337.45 1255.75 1340.94 1251.9 Q1344.46 1248.05 1344.46 1241.41 L1344.46 1215.69 L1351.91 1215.69 L1351.91 1261.06 L1344.46 1261.06 L1344.46 1254.09 Q1341.75 1258.22 1338.14 1260.25 Q1334.58 1262.23 1329.84 1262.23 Q1322.02 1262.23 1317.97 1257.37 Q1313.92 1252.51 1313.92 1243.15 M1332.67 1214.59 L1332.67 1214.59 Z" fill="#000000" fill-rule="evenodd" fill-opacity="1" /><path clip-path="url(#clip350)" d="M 0 0 M1359.73 1198.03 L1367.19 1198.03 L1367.19 1261.06 L1359.73 1261.06 L1359.73 1198.03 Z" fill="#000000" fill-rule="evenodd" fill-opacity="1" /><path clip-path="url(#clip350)" d="M 0 0 M1382.38 1202.81 L1382.38 1215.69 L1397.73 1215.69 L1397.73 1221.48 L1382.38 1221.48 L1382.38 1246.11 Q1382.38 1251.66 1383.88 1253.24 Q1385.42 1254.82 1390.07 1254.82 L1397.73 1254.82 L1397.73 1261.06 L1390.07 1261.06 Q1381.45 1261.06 1378.16 1257.86 Q1374.88 1254.62 1374.88 1246.11 L1374.88 1221.48 L1369.41 1221.48 L1369.41 1215.69 L1374.88 1215.69 L1374.88 1202.81 L1382.38 1202.81 Z" fill="#000000" fill-rule="evenodd" fill-opacity="1" /><path clip-path="url(#clip350)" d="M 0 0 M1426.17 1238.25 Q1417.13 1238.25 1413.65 1240.32 Q1410.17 1242.38 1410.17 1247.37 Q1410.17 1251.34 1412.76 1253.69 Q1415.39 1255.99 1419.89 1255.99 Q1426.09 1255.99 1429.81 1251.62 Q1433.58 1247.2 1433.58 1239.91 L1433.58 1238.25 L1426.17 1238.25 M1441.03 1235.17 L1441.03 1261.06 L1433.58 1261.06 L1433.58 1254.17 Q1431.03 1258.3 1427.22 1260.29 Q1423.41 1262.23 1417.9 1262.23 Q1410.94 1262.23 1406.8 1258.34 Q1402.71 1254.41 1402.71 1247.85 Q1402.71 1240.2 1407.82 1236.31 Q1412.96 1232.42 1423.13 1232.42 L1433.58 1232.42 L1433.58 1231.69 Q1433.58 1226.54 1430.18 1223.75 Q1426.82 1220.91 1420.7 1220.91 Q1416.81 1220.91 1413.12 1221.85 Q1409.44 1222.78 1406.03 1224.64 L1406.03 1217.75 Q1410.13 1216.17 1413.97 1215.4 Q1417.82 1214.59 1421.47 1214.59 Q1431.31 1214.59 1436.17 1219.7 Q1441.03 1224.8 1441.03 1235.17 Z" fill="#000000" fill-rule="evenodd" fill-opacity="1" /><path clip-path="url(#clip350)" d="M 0 0 M1486.57 1233.67 L1486.57 1261.06 L1479.11 1261.06 L1479.11 1233.92 Q1479.11 1227.48 1476.6 1224.28 Q1474.09 1221.08 1469.07 1221.08 Q1463.03 1221.08 1459.55 1224.92 Q1456.06 1228.77 1456.06 1235.42 L1456.06 1261.06 L1448.57 1261.06 L1448.57 1215.69 L1456.06 1215.69 L1456.06 1222.74 Q1458.74 1218.64 1462.34 1216.62 Q1465.99 1214.59 1470.73 1214.59 Q1478.55 1214.59 1482.56 1219.45 Q1486.57 1224.28 1486.57 1233.67 Z" fill="#000000" fill-rule="evenodd" fill-opacity="1" /><path clip-path="url(#clip350)" d="M 0 0 M1501.76 1202.81 L1501.76 1215.69 L1517.11 1215.69 L1517.11 1221.48 L1501.76 1221.48 L1501.76 1246.11 Q1501.76 1251.66 1503.26 1253.24 Q1504.8 1254.82 1509.45 1254.82 L1517.11 1254.82 L1517.11 1261.06 L1509.45 1261.06 Q1500.83 1261.06 1497.54 1257.86 Q1494.26 1254.62 1494.26 1246.11 L1494.26 1221.48 L1488.79 1221.48 L1488.79 1215.69 L1494.26 1215.69 L1494.26 1202.81 L1501.76 1202.81 Z" fill="#000000" fill-rule="evenodd" fill-opacity="1" /><path clip-path="url(#clip350)" d="M 0 0 M1559.4 1274.83 L1559.4 1280.62 L1516.3 1280.62 L1516.3 1274.83 L1559.4 1274.83 Z" fill="#000000" fill-rule="evenodd" fill-opacity="1" /><path clip-path="url(#clip350)" d="M 0 0 M1596.22 1232.7 Q1598.86 1233.59 1601.33 1236.51 Q1603.84 1239.43 1606.35 1244.53 L1614.66 1261.06 L1605.87 1261.06 L1598.13 1245.54 Q1595.13 1239.47 1592.29 1237.48 Q1589.5 1235.5 1584.64 1235.5 L1575.73 1235.5 L1575.73 1261.06 L1567.54 1261.06 L1567.54 1200.58 L1586.02 1200.58 Q1596.39 1200.58 1601.49 1204.91 Q1606.59 1209.25 1606.59 1218 Q1606.59 1223.71 1603.92 1227.48 Q1601.29 1231.24 1596.22 1232.7 M1575.73 1207.3 L1575.73 1228.77 L1586.02 1228.77 Q1591.93 1228.77 1594.93 1226.06 Q1597.97 1223.3 1597.97 1218 Q1597.97 1212.69 1594.93 1210.02 Q1591.93 1207.3 1586.02 1207.3 L1575.73 1207.3 Z" fill="#000000" fill-rule="evenodd" fill-opacity="1" /><path clip-path="url(#clip350)" d="M 0 0 M1657.55 1236.51 L1657.55 1240.16 L1623.28 1240.16 Q1623.77 1247.85 1627.9 1251.9 Q1632.07 1255.91 1639.49 1255.91 Q1643.78 1255.91 1647.79 1254.86 Q1651.84 1253.81 1655.81 1251.7 L1655.81 1258.75 Q1651.8 1260.45 1647.59 1261.34 Q1643.38 1262.23 1639.04 1262.23 Q1628.19 1262.23 1621.83 1255.91 Q1615.51 1249.59 1615.51 1238.82 Q1615.51 1227.68 1621.5 1221.16 Q1627.54 1214.59 1637.75 1214.59 Q1646.9 1214.59 1652.21 1220.51 Q1657.55 1226.38 1657.55 1236.51 M1650.1 1234.32 Q1650.02 1228.2 1646.66 1224.56 Q1643.34 1220.91 1637.83 1220.91 Q1631.59 1220.91 1627.82 1224.44 Q1624.09 1227.96 1623.53 1234.36 L1650.1 1234.32 Z" fill="#000000" fill-rule="evenodd" fill-opacity="1" /><path clip-path="url(#clip350)" d="M 0 0 M1669.83 1238.41 Q1669.83 1246.64 1673.19 1251.34 Q1676.59 1255.99 1682.51 1255.99 Q1688.42 1255.99 1691.83 1251.34 Q1695.23 1246.64 1695.23 1238.41 Q1695.23 1230.19 1691.83 1225.53 Q1688.42 1220.83 1682.51 1220.83 Q1676.59 1220.83 1673.19 1225.53 Q1669.83 1230.19 1669.83 1238.41 M1695.23 1254.25 Q1692.88 1258.3 1689.27 1260.29 Q1685.71 1262.23 1680.69 1262.23 Q1672.46 1262.23 1667.28 1255.67 Q1662.13 1249.11 1662.13 1238.41 Q1662.13 1227.72 1667.28 1221.16 Q1672.46 1214.59 1680.69 1214.59 Q1685.71 1214.59 1689.27 1216.58 Q1692.88 1218.52 1695.23 1222.57 L1695.23 1215.69 L1702.68 1215.69 L1702.68 1278.31 L1695.23 1278.31 L1695.23 1254.25 Z" fill="#000000" fill-rule="evenodd" fill-opacity="1" /><path clip-path="url(#clip350)" d="M 0 0 M1709.73 1243.15 L1709.73 1215.69 L1717.18 1215.69 L1717.18 1242.87 Q1717.18 1249.31 1719.7 1252.55 Q1722.21 1255.75 1727.23 1255.75 Q1733.27 1255.75 1736.75 1251.9 Q1740.27 1248.05 1740.27 1241.41 L1740.27 1215.69 L1747.73 1215.69 L1747.73 1261.06 L1740.27 1261.06 L1740.27 1254.09 Q1737.56 1258.22 1733.95 1260.25 Q1730.39 1262.23 1725.65 1262.23 Q1717.83 1262.23 1713.78 1257.37 Q1709.73 1252.51 1709.73 1243.15 M1728.49 1214.59 L1728.49 1214.59 Z" fill="#000000" fill-rule="evenodd" fill-opacity="1" /><path clip-path="url(#clip350)" d="M 0 0 M1794.35 1236.51 L1794.35 1240.16 L1760.08 1240.16 Q1760.57 1247.85 1764.7 1251.9 Q1768.87 1255.91 1776.29 1255.91 Q1780.58 1255.91 1784.59 1254.86 Q1788.64 1253.81 1792.61 1251.7 L1792.61 1258.75 Q1788.6 1260.45 1784.39 1261.34 Q1780.18 1262.23 1775.84 1262.23 Q1764.98 1262.23 1758.62 1255.91 Q1752.31 1249.59 1752.31 1238.82 Q1752.31 1227.68 1758.3 1221.16 Q1764.34 1214.59 1774.55 1214.59 Q1783.7 1214.59 1789.01 1220.51 Q1794.35 1226.38 1794.35 1236.51 M1786.9 1234.32 Q1786.82 1228.2 1783.46 1224.56 Q1780.14 1220.91 1774.63 1220.91 Q1768.39 1220.91 1764.62 1224.44 Q1760.89 1227.96 1760.33 1234.36 L1786.9 1234.32 Z" fill="#000000" fill-rule="evenodd" fill-opacity="1" /><path clip-path="url(#clip350)" d="M 0 0 M1831.1 1217.02 L1831.1 1224.07 Q1827.94 1222.45 1824.53 1221.64 Q1821.13 1220.83 1817.48 1220.83 Q1811.93 1220.83 1809.14 1222.53 Q1806.39 1224.24 1806.39 1227.64 Q1806.39 1230.23 1808.37 1231.73 Q1810.36 1233.19 1816.35 1234.52 L1818.9 1235.09 Q1826.84 1236.79 1830.16 1239.91 Q1833.53 1242.99 1833.53 1248.54 Q1833.53 1254.86 1828.5 1258.55 Q1823.52 1262.23 1814.77 1262.23 Q1811.12 1262.23 1807.15 1261.5 Q1803.23 1260.81 1798.85 1259.4 L1798.85 1251.7 Q1802.98 1253.85 1806.99 1254.94 Q1811 1255.99 1814.93 1255.99 Q1820.2 1255.99 1823.03 1254.21 Q1825.87 1252.39 1825.87 1249.11 Q1825.87 1246.07 1823.8 1244.45 Q1821.78 1242.83 1814.85 1241.33 L1812.26 1240.72 Q1805.33 1239.26 1802.25 1236.27 Q1799.17 1233.23 1799.17 1227.96 Q1799.17 1221.56 1803.71 1218.08 Q1808.25 1214.59 1816.59 1214.59 Q1820.73 1214.59 1824.37 1215.2 Q1828.02 1215.81 1831.1 1217.02 Z" fill="#000000" fill-rule="evenodd" fill-opacity="1" /><path clip-path="url(#clip350)" d="M 0 0 M1848.72 1202.81 L1848.72 1215.69 L1864.07 1215.69 L1864.07 1221.48 L1848.72 1221.48 L1848.72 1246.11 Q1848.72 1251.66 1850.22 1253.24 Q1851.76 1254.82 1856.41 1254.82 L1864.07 1254.82 L1864.07 1261.06 L1856.41 1261.06 Q1847.79 1261.06 1844.5 1257.86 Q1841.22 1254.62 1841.22 1246.11 L1841.22 1221.48 L1835.75 1221.48 L1835.75 1215.69 L1841.22 1215.69 L1841.22 1202.81 L1848.72 1202.81 Z" fill="#000000" fill-rule="evenodd" fill-opacity="1" /><path clip-path="url(#clip350)" d="M 0 0 M1900.81 1217.02 L1900.81 1224.07 Q1897.65 1222.45 1894.25 1221.64 Q1890.85 1220.83 1887.2 1220.83 Q1881.65 1220.83 1878.86 1222.53 Q1876.1 1224.24 1876.1 1227.64 Q1876.1 1230.23 1878.09 1231.73 Q1880.07 1233.19 1886.07 1234.52 L1888.62 1235.09 Q1896.56 1236.79 1899.88 1239.91 Q1903.24 1242.99 1903.24 1248.54 Q1903.24 1254.86 1898.22 1258.55 Q1893.24 1262.23 1884.49 1262.23 Q1880.84 1262.23 1876.87 1261.5 Q1872.94 1260.81 1868.57 1259.4 L1868.57 1251.7 Q1872.7 1253.85 1876.71 1254.94 Q1880.72 1255.99 1884.65 1255.99 Q1889.91 1255.99 1892.75 1254.21 Q1895.59 1252.39 1895.59 1249.11 Q1895.59 1246.07 1893.52 1244.45 Q1891.49 1242.83 1884.57 1241.33 L1881.98 1240.72 Q1875.05 1239.26 1871.97 1236.27 Q1868.89 1233.23 1868.89 1227.96 Q1868.89 1221.56 1873.43 1218.08 Q1877.96 1214.59 1886.31 1214.59 Q1890.44 1214.59 1894.09 1215.2 Q1897.73 1215.81 1900.81 1217.02 Z" fill="#000000" fill-rule="evenodd" fill-opacity="1" /><path clip-path="url(#clip350)" d="M 0 0 M1909.02 1455.78 L1909.02 1502.81 L1918.9 1502.81 Q1931.42 1502.81 1937.21 1497.14 Q1943.05 1491.47 1943.05 1479.24 Q1943.05 1467.08 1937.21 1461.45 Q1931.42 1455.78 1918.9 1455.78 L1909.02 1455.78 M1900.84 1449.06 L1917.65 1449.06 Q1935.23 1449.06 1943.45 1456.39 Q1951.67 1463.68 1951.67 1479.24 Q1951.67 1494.87 1943.41 1502.21 Q1935.15 1509.54 1917.65 1509.54 L1900.84 1509.54 L1900.84 1449.06 Z" fill="#000000" fill-rule="evenodd" fill-opacity="1" /><path clip-path="url(#clip350)" d="M 0 0 M1998.3 1484.99 L1998.3 1488.63 L1964.03 1488.63 Q1964.52 1496.33 1968.65 1500.38 Q1972.82 1504.39 1980.23 1504.39 Q1984.53 1504.39 1988.54 1503.34 Q1992.59 1502.29 1996.56 1500.18 L1996.56 1507.23 Q1992.55 1508.93 1988.33 1509.82 Q1984.12 1510.71 1979.79 1510.71 Q1968.93 1510.71 1962.57 1504.39 Q1956.25 1498.07 1956.25 1487.3 Q1956.25 1476.16 1962.25 1469.64 Q1968.28 1463.07 1978.49 1463.07 Q1987.65 1463.07 1992.95 1468.99 Q1998.3 1474.86 1998.3 1484.99 M1990.85 1482.8 Q1990.77 1476.68 1987.4 1473.04 Q1984.08 1469.39 1978.57 1469.39 Q1972.33 1469.39 1968.57 1472.92 Q1964.84 1476.44 1964.27 1482.84 L1990.85 1482.8 Z" fill="#000000" fill-rule="evenodd" fill-opacity="1" /><path clip-path="url(#clip350)" d="M 0 0 M2035.04 1465.5 L2035.04 1472.55 Q2031.88 1470.93 2028.48 1470.12 Q2025.08 1469.31 2021.43 1469.31 Q2015.88 1469.31 2013.09 1471.01 Q2010.33 1472.71 2010.33 1476.12 Q2010.33 1478.71 2012.32 1480.21 Q2014.3 1481.67 2020.3 1483 L2022.85 1483.57 Q2030.79 1485.27 2034.11 1488.39 Q2037.47 1491.47 2037.47 1497.02 Q2037.47 1503.34 2032.45 1507.03 Q2027.47 1510.71 2018.72 1510.71 Q2015.07 1510.71 2011.1 1509.98 Q2007.17 1509.29 2002.8 1507.88 L2002.8 1500.18 Q2006.93 1502.33 2010.94 1503.42 Q2014.95 1504.47 2018.88 1504.47 Q2024.14 1504.47 2026.98 1502.69 Q2029.82 1500.87 2029.82 1497.59 Q2029.82 1494.55 2027.75 1492.93 Q2025.72 1491.31 2018.8 1489.81 L2016.2 1489.2 Q2009.28 1487.74 2006.2 1484.75 Q2003.12 1481.71 2003.12 1476.44 Q2003.12 1470.04 2007.66 1466.56 Q2012.19 1463.07 2020.54 1463.07 Q2024.67 1463.07 2028.32 1463.68 Q2031.96 1464.29 2035.04 1465.5 Z" fill="#000000" fill-rule="evenodd" fill-opacity="1" /><path clip-path="url(#clip350)" d="M 0 0 M2045.29 1464.17 L2052.74 1464.17 L2052.74 1509.54 L2045.29 1509.54 L2045.29 1464.17 M2045.29 1446.51 L2052.74 1446.51 L2052.74 1455.94 L2045.29 1455.94 L2045.29 1446.51 Z" fill="#000000" fill-rule="evenodd" fill-opacity="1" /><path clip-path="url(#clip350)" d="M 0 0 M2090.42 1486.33 Q2090.42 1478.22 2087.06 1473.77 Q2083.73 1469.31 2077.7 1469.31 Q2071.7 1469.31 2068.34 1473.77 Q2065.02 1478.22 2065.02 1486.33 Q2065.02 1494.39 2068.34 1498.84 Q2071.7 1503.3 2077.7 1503.3 Q2083.73 1503.3 2087.06 1498.84 Q2090.42 1494.39 2090.42 1486.33 M2097.87 1503.91 Q2097.87 1515.49 2092.73 1521.12 Q2087.58 1526.79 2076.97 1526.79 Q2073.04 1526.79 2069.56 1526.19 Q2066.07 1525.62 2062.79 1524.4 L2062.79 1517.15 Q2066.07 1518.94 2069.27 1519.79 Q2072.47 1520.64 2075.79 1520.64 Q2083.13 1520.64 2086.77 1516.79 Q2090.42 1512.98 2090.42 1505.24 L2090.42 1501.56 Q2088.11 1505.57 2084.5 1507.55 Q2080.9 1509.54 2075.87 1509.54 Q2067.53 1509.54 2062.43 1503.18 Q2057.32 1496.82 2057.32 1486.33 Q2057.32 1475.79 2062.43 1469.43 Q2067.53 1463.07 2075.87 1463.07 Q2080.9 1463.07 2084.5 1465.06 Q2088.11 1467.04 2090.42 1471.05 L2090.42 1464.17 L2097.87 1464.17 L2097.87 1503.91 Z" fill="#000000" fill-rule="evenodd" fill-opacity="1" /><path clip-path="url(#clip350)" d="M 0 0 M2143.4 1482.15 L2143.4 1509.54 L2135.95 1509.54 L2135.95 1482.4 Q2135.95 1475.96 2133.44 1472.76 Q2130.93 1469.56 2125.9 1469.56 Q2119.87 1469.56 2116.38 1473.4 Q2112.9 1477.25 2112.9 1483.9 L2112.9 1509.54 L2105.41 1509.54 L2105.41 1464.17 L2112.9 1464.17 L2112.9 1471.22 Q2115.57 1467.12 2119.18 1465.1 Q2122.82 1463.07 2127.56 1463.07 Q2135.38 1463.07 2139.39 1467.93 Q2143.4 1472.76 2143.4 1482.15 Z" fill="#000000" fill-rule="evenodd" fill-opacity="1" /><path clip-path="url(#clip350)" d="M 0 0 M2185.69 1523.31 L2185.69 1529.1 L2142.59 1529.1 L2142.59 1523.31 L2185.69 1523.31 Z" fill="#000000" fill-rule="evenodd" fill-opacity="1" /><path clip-path="url(#clip350)" d="M 0 0 M2222.52 1481.18 Q2225.15 1482.07 2227.62 1484.99 Q2230.13 1487.91 2232.64 1493.01 L2240.95 1509.54 L2232.16 1509.54 L2224.42 1494.02 Q2221.42 1487.95 2218.59 1485.96 Q2215.79 1483.98 2210.93 1483.98 L2202.02 1483.98 L2202.02 1509.54 L2193.84 1509.54 L2193.84 1449.06 L2212.31 1449.06 Q2222.68 1449.06 2227.78 1453.39 Q2232.89 1457.73 2232.89 1466.48 Q2232.89 1472.19 2230.21 1475.96 Q2227.58 1479.72 2222.52 1481.18 M2202.02 1455.78 L2202.02 1477.25 L2212.31 1477.25 Q2218.22 1477.25 2221.22 1474.54 Q2224.26 1471.78 2224.26 1466.48 Q2224.26 1461.17 2221.22 1458.5 Q2218.22 1455.78 2212.31 1455.78 L2202.02 1455.78 Z" fill="#000000" fill-rule="evenodd" fill-opacity="1" /><path clip-path="url(#clip350)" d="M 0 0 M2283.85 1484.99 L2283.85 1488.63 L2249.58 1488.63 Q2250.06 1496.33 2254.2 1500.38 Q2258.37 1504.39 2265.78 1504.39 Q2270.08 1504.39 2274.09 1503.34 Q2278.14 1502.29 2282.11 1500.18 L2282.11 1507.23 Q2278.1 1508.93 2273.88 1509.82 Q2269.67 1510.71 2265.34 1510.71 Q2254.48 1510.71 2248.12 1504.39 Q2241.8 1498.07 2241.8 1487.3 Q2241.8 1476.16 2247.8 1469.64 Q2253.83 1463.07 2264.04 1463.07 Q2273.19 1463.07 2278.5 1468.99 Q2283.85 1474.86 2283.85 1484.99 M2276.39 1482.8 Q2276.31 1476.68 2272.95 1473.04 Q2269.63 1469.39 2264.12 1469.39 Q2257.88 1469.39 2254.11 1472.92 Q2250.39 1476.44 2249.82 1482.84 L2276.39 1482.8 Z" fill="#000000" fill-rule="evenodd" fill-opacity="1" /><path clip-path="url(#clip350)" d="M 0 0 M2312.29 1486.73 Q2303.25 1486.73 2299.77 1488.8 Q2296.28 1490.86 2296.28 1495.85 Q2296.28 1499.82 2298.88 1502.16 Q2301.51 1504.47 2306.01 1504.47 Q2312.2 1504.47 2315.93 1500.1 Q2319.7 1495.68 2319.7 1488.39 L2319.7 1486.73 L2312.29 1486.73 M2327.15 1483.65 L2327.15 1509.54 L2319.7 1509.54 L2319.7 1502.65 Q2317.15 1506.78 2313.34 1508.77 Q2309.53 1510.71 2304.02 1510.71 Q2297.05 1510.71 2292.92 1506.82 Q2288.83 1502.89 2288.83 1496.33 Q2288.83 1488.68 2293.93 1484.79 Q2299.08 1480.9 2309.25 1480.9 L2319.7 1480.9 L2319.7 1480.17 Q2319.7 1475.02 2316.3 1472.23 Q2312.93 1469.39 2306.82 1469.39 Q2302.93 1469.39 2299.24 1470.32 Q2295.56 1471.26 2292.15 1473.12 L2292.15 1466.23 Q2296.24 1464.65 2300.09 1463.88 Q2303.94 1463.07 2307.59 1463.07 Q2317.43 1463.07 2322.29 1468.18 Q2327.15 1473.28 2327.15 1483.65 Z" fill="#000000" fill-rule="evenodd" fill-opacity="1" /><path clip-path="url(#clip350)" d="M 0 0 M2363.89 1465.5 L2363.89 1472.55 Q2360.73 1470.93 2357.33 1470.12 Q2353.93 1469.31 2350.28 1469.31 Q2344.73 1469.31 2341.94 1471.01 Q2339.18 1472.71 2339.18 1476.12 Q2339.18 1478.71 2341.17 1480.21 Q2343.15 1481.67 2349.15 1483 L2351.7 1483.57 Q2359.64 1485.27 2362.96 1488.39 Q2366.32 1491.47 2366.32 1497.02 Q2366.32 1503.34 2361.3 1507.03 Q2356.32 1510.71 2347.57 1510.71 Q2343.92 1510.71 2339.95 1509.98 Q2336.02 1509.29 2331.65 1507.88 L2331.65 1500.18 Q2335.78 1502.33 2339.79 1503.42 Q2343.8 1504.47 2347.73 1504.47 Q2353 1504.47 2355.83 1502.69 Q2358.67 1500.87 2358.67 1497.59 Q2358.67 1494.55 2356.6 1492.93 Q2354.58 1491.31 2347.65 1489.81 L2345.06 1489.2 Q2338.13 1487.74 2335.05 1484.75 Q2331.97 1481.71 2331.97 1476.44 Q2331.97 1470.04 2336.51 1466.56 Q2341.05 1463.07 2349.39 1463.07 Q2353.52 1463.07 2357.17 1463.68 Q2360.82 1464.29 2363.89 1465.5 Z" fill="#000000" fill-rule="evenodd" fill-opacity="1" /><path clip-path="url(#clip350)" d="M 0 0 M2391.72 1469.39 Q2385.73 1469.39 2382.24 1474.09 Q2378.76 1478.75 2378.76 1486.89 Q2378.76 1495.04 2382.2 1499.73 Q2385.69 1504.39 2391.72 1504.39 Q2397.68 1504.39 2401.16 1499.69 Q2404.65 1494.99 2404.65 1486.89 Q2404.65 1478.83 2401.16 1474.13 Q2397.68 1469.39 2391.72 1469.39 M2391.72 1463.07 Q2401.45 1463.07 2407 1469.39 Q2412.55 1475.71 2412.55 1486.89 Q2412.55 1498.03 2407 1504.39 Q2401.45 1510.71 2391.72 1510.71 Q2381.96 1510.71 2376.41 1504.39 Q2370.9 1498.03 2370.9 1486.89 Q2370.9 1475.71 2376.41 1469.39 Q2381.96 1463.07 2391.72 1463.07 Z" fill="#000000" fill-rule="evenodd" fill-opacity="1" /><path clip-path="url(#clip350)" d="M 0 0 M2458.08 1482.15 L2458.08 1509.54 L2450.62 1509.54 L2450.62 1482.4 Q2450.62 1475.96 2448.11 1472.76 Q2445.6 1469.56 2440.58 1469.56 Q2434.54 1469.56 2431.06 1473.4 Q2427.57 1477.25 2427.57 1483.9 L2427.57 1509.54 L2420.08 1509.54 L2420.08 1464.17 L2427.57 1464.17 L2427.57 1471.22 Q2430.25 1467.12 2433.85 1465.1 Q2437.5 1463.07 2442.24 1463.07 Q2450.06 1463.07 2454.07 1467.93 Q2458.08 1472.76 2458.08 1482.15 Z" fill="#000000" fill-rule="evenodd" fill-opacity="1" /><path clip-path="url(#clip350)" d="M 0 0 M2465.9 1464.17 L2473.35 1464.17 L2473.35 1509.54 L2465.9 1509.54 L2465.9 1464.17 M2465.9 1446.51 L2473.35 1446.51 L2473.35 1455.94 L2465.9 1455.94 L2465.9 1446.51 Z" fill="#000000" fill-rule="evenodd" fill-opacity="1" /><path clip-path="url(#clip350)" d="M 0 0 M2518.88 1482.15 L2518.88 1509.54 L2511.43 1509.54 L2511.43 1482.4 Q2511.43 1475.96 2508.92 1472.76 Q2506.4 1469.56 2501.38 1469.56 Q2495.35 1469.56 2491.86 1473.4 Q2488.38 1477.25 2488.38 1483.9 L2488.38 1509.54 L2480.88 1509.54 L2480.88 1464.17 L2488.38 1464.17 L2488.38 1471.22 Q2491.05 1467.12 2494.66 1465.1 Q2498.3 1463.07 2503.04 1463.07 Q2510.86 1463.07 2514.87 1467.93 Q2518.88 1472.76 2518.88 1482.15 Z" fill="#000000" fill-rule="evenodd" fill-opacity="1" /><path clip-path="url(#clip350)" d="M 0 0 M2556.55 1486.33 Q2556.55 1478.22 2553.19 1473.77 Q2549.87 1469.31 2543.84 1469.31 Q2537.84 1469.31 2534.48 1473.77 Q2531.16 1478.22 2531.16 1486.33 Q2531.16 1494.39 2534.48 1498.84 Q2537.84 1503.3 2543.84 1503.3 Q2549.87 1503.3 2553.19 1498.84 Q2556.55 1494.39 2556.55 1486.33 M2564.01 1503.91 Q2564.01 1515.49 2558.86 1521.12 Q2553.72 1526.79 2543.11 1526.79 Q2539.18 1526.79 2535.69 1526.19 Q2532.21 1525.62 2528.93 1524.4 L2528.93 1517.15 Q2532.21 1518.94 2535.41 1519.79 Q2538.61 1520.64 2541.93 1520.64 Q2549.26 1520.64 2552.91 1516.79 Q2556.55 1512.98 2556.55 1505.24 L2556.55 1501.56 Q2554.25 1505.57 2550.64 1507.55 Q2547.04 1509.54 2542.01 1509.54 Q2533.67 1509.54 2528.56 1503.18 Q2523.46 1496.82 2523.46 1486.33 Q2523.46 1475.79 2528.56 1469.43 Q2533.67 1463.07 2542.01 1463.07 Q2547.04 1463.07 2550.64 1465.06 Q2554.25 1467.04 2556.55 1471.05 L2556.55 1464.17 L2564.01 1464.17 L2564.01 1503.91 Z" fill="#000000" fill-rule="evenodd" fill-opacity="1" /><path clip-path="url(#clip350)" d="M 0 0 M-39.194 796.036 L-39.194 804.665 Q-43.3259 800.816 -48.0249 798.912 Q-52.6835 797.008 -57.9497 797.008 Q-68.32 797.008 -73.8292 803.368 Q-79.3384 809.688 -79.3384 821.678 Q-79.3384 833.628 -73.8292 839.988 Q-68.32 846.308 -57.9497 846.308 Q-52.6835 846.308 -48.0249 844.404 Q-43.3259 842.5 -39.194 838.652 L-39.194 847.199 Q-43.4879 850.116 -48.3085 851.574 Q-53.0886 853.032 -58.4358 853.032 Q-72.1683 853.032 -80.0676 844.647 Q-87.9669 836.221 -87.9669 821.678 Q-87.9669 807.095 -80.0676 798.71 Q-72.1683 790.284 -58.4358 790.284 Q-53.0075 790.284 -48.2275 791.742 Q-43.4069 793.16 -39.194 796.036 Z" fill="#000000" fill-rule="evenodd" fill-opacity="1" /><path clip-path="url(#clip350)" d="M 0 0 M-13.7948 811.713 Q-19.7901 811.713 -23.2739 816.412 Q-26.7577 821.071 -26.7577 829.213 Q-26.7577 837.355 -23.3144 842.054 Q-19.8306 846.713 -13.7948 846.713 Q-7.83997 846.713 -4.35619 842.014 Q-0.87241 837.315 -0.87241 829.213 Q-0.87241 821.152 -4.35619 816.453 Q-7.83997 811.713 -13.7948 811.713 M-13.7948 805.394 Q-4.07262 805.394 1.47711 811.713 Q7.02685 818.032 7.02685 829.213 Q7.02685 840.353 1.47711 846.713 Q-4.07262 853.032 -13.7948 853.032 Q-23.5575 853.032 -29.1072 846.713 Q-34.6164 840.353 -34.6164 829.213 Q-34.6164 818.032 -29.1072 811.713 Q-23.5575 805.394 -13.7948 805.394 Z" fill="#000000" fill-rule="evenodd" fill-opacity="1" /><path clip-path="url(#clip350)" d="M 0 0 M14.8451 788.825 L22.2988 788.825 L22.2988 851.858 L14.8451 851.858 L14.8451 788.825 Z" fill="#000000" fill-rule="evenodd" fill-opacity="1" /><path clip-path="url(#clip350)" d="M 0 0 M30.117 788.825 L37.5707 788.825 L37.5707 851.858 L30.117 851.858 L30.117 788.825 Z" fill="#000000" fill-rule="evenodd" fill-opacity="1" /><path clip-path="url(#clip350)" d="M 0 0 M66.008 829.051 Q56.9745 829.051 53.4907 831.117 Q50.0069 833.183 50.0069 838.165 Q50.0069 842.135 52.5995 844.485 Q55.2326 846.794 59.7291 846.794 Q65.927 846.794 69.6538 842.419 Q73.4212 838.003 73.4212 830.712 L73.4212 829.051 L66.008 829.051 M80.8748 825.972 L80.8748 851.858 L73.4212 851.858 L73.4212 844.971 Q70.8691 849.103 67.0613 851.088 Q63.2534 853.032 57.7442 853.032 Q50.7766 853.032 46.6447 849.143 Q42.5533 845.214 42.5533 838.652 Q42.5533 830.995 47.6574 827.107 Q52.8021 823.218 62.9698 823.218 L73.4212 823.218 L73.4212 822.488 Q73.4212 817.344 70.0184 814.549 Q66.6562 811.713 60.5393 811.713 Q56.6504 811.713 52.9641 812.645 Q49.2778 813.577 45.875 815.44 L45.875 808.553 Q49.9664 806.974 53.8148 806.204 Q57.6632 805.394 61.309 805.394 Q71.1527 805.394 76.0138 810.498 Q80.8748 815.602 80.8748 825.972 Z" fill="#000000" fill-rule="evenodd" fill-opacity="1" /><path clip-path="url(#clip350)" d="M 0 0 M121.262 829.213 Q121.262 820.99 117.86 816.331 Q114.497 811.632 108.583 811.632 Q102.669 811.632 99.2659 816.331 Q95.9037 820.99 95.9037 829.213 Q95.9037 837.436 99.2659 842.135 Q102.669 846.794 108.583 846.794 Q114.497 846.794 117.86 842.135 Q121.262 837.436 121.262 829.213 M95.9037 813.374 Q98.2532 809.323 101.818 807.379 Q105.423 805.394 110.406 805.394 Q118.67 805.394 123.814 811.956 Q129 818.519 129 829.213 Q129 839.907 123.814 846.47 Q118.67 853.032 110.406 853.032 Q105.423 853.032 101.818 851.088 Q98.2532 849.103 95.9037 845.052 L95.9037 851.858 L88.4095 851.858 L88.4095 788.825 L95.9037 788.825 L95.9037 813.374 Z" fill="#000000" fill-rule="evenodd" fill-opacity="1" /><path clip-path="url(#clip350)" d="M 0 0 M154.399 811.713 Q148.403 811.713 144.92 816.412 Q141.436 821.071 141.436 829.213 Q141.436 837.355 144.879 842.054 Q148.363 846.713 154.399 846.713 Q160.354 846.713 163.837 842.014 Q167.321 837.315 167.321 829.213 Q167.321 821.152 163.837 816.453 Q160.354 811.713 154.399 811.713 M154.399 805.394 Q164.121 805.394 169.671 811.713 Q175.22 818.032 175.22 829.213 Q175.22 840.353 169.671 846.713 Q164.121 853.032 154.399 853.032 Q144.636 853.032 139.086 846.713 Q133.577 840.353 133.577 829.213 Q133.577 818.032 139.086 811.713 Q144.636 805.394 154.399 805.394 Z" fill="#000000" fill-rule="evenodd" fill-opacity="1" /><path clip-path="url(#clip350)" d="M 0 0 M209.329 813.455 Q208.073 812.726 206.574 812.402 Q205.116 812.037 203.334 812.037 Q197.014 812.037 193.612 816.169 Q190.249 820.26 190.249 827.957 L190.249 851.858 L182.755 851.858 L182.755 806.487 L190.249 806.487 L190.249 813.536 Q192.599 809.404 196.366 807.419 Q200.133 805.394 205.521 805.394 Q206.291 805.394 207.223 805.515 Q208.154 805.596 209.289 805.799 L209.329 813.455 Z" fill="#000000" fill-rule="evenodd" fill-opacity="1" /><path clip-path="url(#clip350)" d="M 0 0 M237.766 829.051 Q228.733 829.051 225.249 831.117 Q221.765 833.183 221.765 838.165 Q221.765 842.135 224.358 844.485 Q226.991 846.794 231.487 846.794 Q237.685 846.794 241.412 842.419 Q245.18 838.003 245.18 830.712 L245.18 829.051 L237.766 829.051 M252.633 825.972 L252.633 851.858 L245.18 851.858 L245.18 844.971 Q242.627 849.103 238.82 851.088 Q235.012 853.032 229.503 853.032 Q222.535 853.032 218.403 849.143 Q214.312 845.214 214.312 838.652 Q214.312 830.995 219.416 827.107 Q224.56 823.218 234.728 823.218 L245.18 823.218 L245.18 822.488 Q245.18 817.344 241.777 814.549 Q238.415 811.713 232.298 811.713 Q228.409 811.713 224.722 812.645 Q221.036 813.577 217.633 815.44 L217.633 808.553 Q221.725 806.974 225.573 806.204 Q229.421 805.394 233.067 805.394 Q242.911 805.394 247.772 810.498 Q252.633 815.602 252.633 825.972 Z" fill="#000000" fill-rule="evenodd" fill-opacity="1" /><path clip-path="url(#clip350)" d="M 0 0 M267.824 793.606 L267.824 806.487 L283.177 806.487 L283.177 812.28 L267.824 812.28 L267.824 836.91 Q267.824 842.459 269.323 844.039 Q270.862 845.619 275.521 845.619 L283.177 845.619 L283.177 851.858 L275.521 851.858 Q266.892 851.858 263.611 848.657 Q260.33 845.417 260.33 836.91 L260.33 812.28 L254.861 812.28 L254.861 806.487 L260.33 806.487 L260.33 793.606 L267.824 793.606 Z" fill="#000000" fill-rule="evenodd" fill-opacity="1" /><path clip-path="url(#clip350)" d="M 0 0 M290.995 806.487 L298.449 806.487 L298.449 851.858 L290.995 851.858 L290.995 806.487 M290.995 788.825 L298.449 788.825 L298.449 798.264 L290.995 798.264 L290.995 788.825 Z" fill="#000000" fill-rule="evenodd" fill-opacity="1" /><path clip-path="url(#clip350)" d="M 0 0 M323.848 811.713 Q317.853 811.713 314.369 816.412 Q310.885 821.071 310.885 829.213 Q310.885 837.355 314.328 842.054 Q317.812 846.713 323.848 846.713 Q329.803 846.713 333.287 842.014 Q336.77 837.315 336.77 829.213 Q336.77 821.152 333.287 816.453 Q329.803 811.713 323.848 811.713 M323.848 805.394 Q333.57 805.394 339.12 811.713 Q344.67 818.032 344.67 829.213 Q344.67 840.353 339.12 846.713 Q333.57 853.032 323.848 853.032 Q314.085 853.032 308.536 846.713 Q303.026 840.353 303.026 829.213 Q303.026 818.032 308.536 811.713 Q314.085 805.394 323.848 805.394 Z" fill="#000000" fill-rule="evenodd" fill-opacity="1" /><path clip-path="url(#clip350)" d="M 0 0 M390.202 824.473 L390.202 851.858 L382.748 851.858 L382.748 824.716 Q382.748 818.276 380.237 815.075 Q377.725 811.875 372.702 811.875 Q366.666 811.875 363.182 815.723 Q359.699 819.572 359.699 826.215 L359.699 851.858 L352.204 851.858 L352.204 806.487 L359.699 806.487 L359.699 813.536 Q362.372 809.445 365.977 807.419 Q369.623 805.394 374.363 805.394 Q382.181 805.394 386.191 810.255 Q390.202 815.075 390.202 824.473 Z" fill="#000000" fill-rule="evenodd" fill-opacity="1" /></svg>
