<?xml version="1.0" encoding="utf-8"?>
<svg xmlns="http://www.w3.org/2000/svg" xmlns:xlink="http://www.w3.org/1999/xlink" width="600" height="400" viewBox="0 0 2400 1600">
<defs>
  <clipPath id="clip250">
    <rect x="0" y="0" width="2400" height="1600"/>
  </clipPath>
</defs>
<path clip-path="url(#clip250)" d="
M0 1600 L2400 1600 L2400 0 L0 0  Z
  " fill="#ffffff" fill-rule="evenodd" fill-opacity="1"/>
<defs>
  <clipPath id="clip251">
    <rect x="480" y="0" width="1681" height="1600"/>
  </clipPath>
</defs>
<path clip-path="url(#clip250)" d="
M244.472 1363.53 L2211.02 1363.53 L2211.02 188.976 L244.472 188.976  Z
  " fill="#ffffff" fill-rule="evenodd" fill-opacity="1"/>
<defs>
  <clipPath id="clip252">
    <rect x="244" y="188" width="1968" height="1176"/>
  </clipPath>
</defs>
<polyline clip-path="url(#clip252)" style="stroke:#000000; stroke-width:2; stroke-opacity:0.1; fill:none" points="
  899.99,1363.53 899.99,188.976 
  "/>
<polyline clip-path="url(#clip252)" style="stroke:#000000; stroke-width:2; stroke-opacity:0.1; fill:none" points="
  1227.75,1363.53 1227.75,188.976 
  "/>
<polyline clip-path="url(#clip252)" style="stroke:#000000; stroke-width:2; stroke-opacity:0.1; fill:none" points="
  1555.51,1363.53 1555.51,188.976 
  "/>
<polyline clip-path="url(#clip252)" style="stroke:#000000; stroke-width:2; stroke-opacity:0.1; fill:none" points="
  244.472,972.01 2211.02,972.01 
  "/>
<polyline clip-path="url(#clip252)" style="stroke:#000000; stroke-width:2; stroke-opacity:0.1; fill:none" points="
  244.472,776.252 2211.02,776.252 
  "/>
<polyline clip-path="url(#clip252)" style="stroke:#000000; stroke-width:2; stroke-opacity:0.1; fill:none" points="
  244.472,580.493 2211.02,580.493 
  "/>
<polyline clip-path="url(#clip250)" style="stroke:#000000; stroke-width:4; stroke-opacity:1; fill:none" points="
  244.472,1363.53 2211.02,1363.53 
  "/>
<polyline clip-path="url(#clip250)" style="stroke:#000000; stroke-width:4; stroke-opacity:1; fill:none" points="
  244.472,1363.53 244.472,188.976 
  "/>
<polyline clip-path="url(#clip250)" style="stroke:#000000; stroke-width:4; stroke-opacity:1; fill:none" points="
  899.99,1363.53 899.99,1349.43 
  "/>
<polyline clip-path="url(#clip250)" style="stroke:#000000; stroke-width:4; stroke-opacity:1; fill:none" points="
  1227.75,1363.53 1227.75,1349.43 
  "/>
<polyline clip-path="url(#clip250)" style="stroke:#000000; stroke-width:4; stroke-opacity:1; fill:none" points="
  1555.51,1363.53 1555.51,1349.43 
  "/>
<polyline clip-path="url(#clip250)" style="stroke:#000000; stroke-width:4; stroke-opacity:1; fill:none" points="
  244.472,972.01 268.071,972.01 
  "/>
<polyline clip-path="url(#clip250)" style="stroke:#000000; stroke-width:4; stroke-opacity:1; fill:none" points="
  244.472,776.252 268.071,776.252 
  "/>
<polyline clip-path="url(#clip250)" style="stroke:#000000; stroke-width:4; stroke-opacity:1; fill:none" points="
  244.472,580.493 268.071,580.493 
  "/>
<path clip-path="url(#clip250)" d="M 0 0 M880.858 1402.12 L893.334 1402.12 L893.334 1405.91 L880.858 1405.91 L880.858 1402.12 Z" fill="#000000" fill-rule="evenodd" fill-opacity="1" /><path clip-path="url(#clip250)" d="M 0 0 M899.214 1413.06 L906.853 1413.06 L906.853 1386.7 L898.543 1388.37 L898.543 1384.11 L906.807 1382.44 L911.482 1382.44 L911.482 1413.06 L919.121 1413.06 L919.121 1417 L899.214 1417 L899.214 1413.06 Z" fill="#000000" fill-rule="evenodd" fill-opacity="1" /><path clip-path="url(#clip250)" d="M 0 0 M1227.75 1385.52 Q1224.14 1385.52 1222.31 1389.08 Q1220.5 1392.62 1220.5 1399.75 Q1220.5 1406.86 1222.31 1410.43 Q1224.14 1413.97 1227.75 1413.97 Q1231.38 1413.97 1233.19 1410.43 Q1235.02 1406.86 1235.02 1399.75 Q1235.02 1392.62 1233.19 1389.08 Q1231.38 1385.52 1227.75 1385.52 M1227.75 1381.81 Q1233.56 1381.81 1236.61 1386.42 Q1239.69 1391 1239.69 1399.75 Q1239.69 1408.48 1236.61 1413.09 Q1233.56 1417.67 1227.75 1417.67 Q1221.94 1417.67 1218.86 1413.09 Q1215.8 1408.48 1215.8 1399.75 Q1215.8 1391 1218.86 1386.42 Q1221.94 1381.81 1227.75 1381.81 Z" fill="#000000" fill-rule="evenodd" fill-opacity="1" /><path clip-path="url(#clip250)" d="M 0 0 M1545.89 1413.06 L1553.53 1413.06 L1553.53 1386.7 L1545.22 1388.37 L1545.22 1384.11 L1553.48 1382.44 L1558.16 1382.44 L1558.16 1413.06 L1565.8 1413.06 L1565.8 1417 L1545.89 1417 L1545.89 1413.06 Z" fill="#000000" fill-rule="evenodd" fill-opacity="1" /><path clip-path="url(#clip250)" d="M 0 0 M182.209 974.406 L194.686 974.406 L194.686 978.203 L182.209 978.203 L182.209 974.406 Z" fill="#000000" fill-rule="evenodd" fill-opacity="1" /><path clip-path="url(#clip250)" d="M 0 0 M200.565 985.355 L208.204 985.355 L208.204 958.99 L199.894 960.656 L199.894 956.397 L208.158 954.73 L212.834 954.73 L212.834 985.355 L220.472 985.355 L220.472 989.29 L200.565 989.29 L200.565 985.355 Z" fill="#000000" fill-rule="evenodd" fill-opacity="1" /><path clip-path="url(#clip250)" d="M 0 0 M208.528 762.051 Q204.917 762.051 203.088 765.615 Q201.283 769.157 201.283 776.287 Q201.283 783.393 203.088 786.958 Q204.917 790.5 208.528 790.5 Q212.162 790.5 213.968 786.958 Q215.797 783.393 215.797 776.287 Q215.797 769.157 213.968 765.615 Q212.162 762.051 208.528 762.051 M208.528 758.347 Q214.338 758.347 217.394 762.953 Q220.472 767.537 220.472 776.287 Q220.472 785.013 217.394 789.62 Q214.338 794.203 208.528 794.203 Q202.718 794.203 199.639 789.62 Q196.584 785.013 196.584 776.287 Q196.584 767.537 199.639 762.953 Q202.718 758.347 208.528 758.347 Z" fill="#000000" fill-rule="evenodd" fill-opacity="1" /><path clip-path="url(#clip250)" d="M 0 0 M200.565 593.838 L208.204 593.838 L208.204 567.473 L199.894 569.139 L199.894 564.88 L208.158 563.213 L212.834 563.213 L212.834 593.838 L220.472 593.838 L220.472 597.773 L200.565 597.773 L200.565 593.838 Z" fill="#000000" fill-rule="evenodd" fill-opacity="1" /><path clip-path="url(#clip250)" d="M 0 0 M1113.98 1448.87 L1120.88 1448.87 L1132.69 1466.54 L1144.56 1448.87 L1151.47 1448.87 L1136.19 1471.69 L1152.49 1496.39 L1145.58 1496.39 L1132.21 1476.18 L1118.75 1496.39 L1111.81 1496.39 L1128.78 1471.02 L1113.98 1448.87 Z" fill="#000000" fill-rule="evenodd" fill-opacity="1" /><path clip-path="url(#clip250)" d="M 0 0 M1193.42 1446.93 Q1189.16 1454.25 1187.09 1461.41 Q1185.02 1468.57 1185.02 1475.93 Q1185.02 1483.28 1187.09 1490.5 Q1189.19 1497.7 1193.42 1504.99 L1188.33 1504.99 Q1183.55 1497.51 1181.17 1490.28 Q1178.81 1483.06 1178.81 1475.93 Q1178.81 1468.83 1181.17 1461.63 Q1183.52 1454.44 1188.33 1446.93 L1193.42 1446.93 Z" fill="#000000" fill-rule="evenodd" fill-opacity="1" /><path clip-path="url(#clip250)" d="M 0 0 M1205.93 1490.98 L1228.37 1490.98 L1228.37 1496.39 L1198.2 1496.39 L1198.2 1490.98 Q1201.86 1487.19 1208.16 1480.83 Q1214.49 1474.43 1216.11 1472.58 Q1219.2 1469.11 1220.41 1466.73 Q1221.65 1464.31 1221.65 1461.98 Q1221.65 1458.2 1218.98 1455.81 Q1216.34 1453.42 1212.07 1453.42 Q1209.05 1453.42 1205.67 1454.47 Q1202.33 1455.52 1198.51 1457.66 L1198.51 1451.16 Q1202.4 1449.6 1205.77 1448.81 Q1209.14 1448.01 1211.95 1448.01 Q1219.33 1448.01 1223.72 1451.7 Q1228.11 1455.4 1228.11 1461.57 Q1228.11 1464.5 1227 1467.14 Q1225.92 1469.75 1223.02 1473.32 Q1222.23 1474.24 1217.96 1478.66 Q1213.7 1483.06 1205.93 1490.98 Z" fill="#000000" fill-rule="evenodd" fill-opacity="1" /><path clip-path="url(#clip250)" d="M 0 0 M1249.09 1453.1 Q1244.12 1453.1 1241.61 1458.01 Q1239.13 1462.88 1239.13 1472.68 Q1239.13 1482.45 1241.61 1487.35 Q1244.12 1492.22 1249.09 1492.22 Q1254.09 1492.22 1256.57 1487.35 Q1259.08 1482.45 1259.08 1472.68 Q1259.08 1462.88 1256.57 1458.01 Q1254.09 1453.1 1249.09 1453.1 M1249.09 1448.01 Q1257.08 1448.01 1261.28 1454.35 Q1265.51 1460.65 1265.51 1472.68 Q1265.51 1484.68 1261.28 1491.01 Q1257.08 1497.31 1249.09 1497.31 Q1241.1 1497.31 1236.87 1491.01 Q1232.67 1484.68 1232.67 1472.68 Q1232.67 1460.65 1236.87 1454.35 Q1241.1 1448.01 1249.09 1448.01 Z" fill="#000000" fill-rule="evenodd" fill-opacity="1" /><path clip-path="url(#clip250)" d="M 0 0 M1312.91 1475.48 Q1310.14 1475.48 1308.54 1477.84 Q1306.99 1480.19 1306.99 1484.39 Q1306.99 1488.53 1308.54 1490.92 Q1310.14 1493.27 1312.91 1493.27 Q1315.61 1493.27 1317.17 1490.92 Q1318.76 1488.53 1318.76 1484.39 Q1318.76 1480.22 1317.17 1477.87 Q1315.61 1475.48 1312.91 1475.48 M1312.91 1471.44 Q1317.93 1471.44 1320.89 1474.94 Q1323.85 1478.44 1323.85 1484.39 Q1323.85 1490.34 1320.86 1493.85 Q1317.9 1497.31 1312.91 1497.31 Q1307.81 1497.31 1304.85 1493.85 Q1301.89 1490.34 1301.89 1484.39 Q1301.89 1478.41 1304.85 1474.94 Q1307.84 1471.44 1312.91 1471.44 M1280.06 1452.05 Q1277.32 1452.05 1275.73 1454.44 Q1274.17 1456.8 1274.17 1460.93 Q1274.17 1465.14 1275.73 1467.49 Q1277.29 1469.85 1280.06 1469.85 Q1282.83 1469.85 1284.39 1467.49 Q1285.98 1465.14 1285.98 1460.93 Q1285.98 1456.83 1284.39 1454.44 Q1282.8 1452.05 1280.06 1452.05 M1308.8 1448.01 L1313.89 1448.01 L1284.16 1497.31 L1279.07 1497.31 L1308.8 1448.01 M1280.06 1448.01 Q1285.09 1448.01 1288.08 1451.51 Q1291.07 1454.98 1291.07 1460.93 Q1291.07 1466.95 1288.08 1470.42 Q1285.12 1473.89 1280.06 1473.89 Q1275 1473.89 1272.04 1470.42 Q1269.11 1466.92 1269.11 1460.93 Q1269.11 1455.01 1272.07 1451.51 Q1275.03 1448.01 1280.06 1448.01 Z" fill="#000000" fill-rule="evenodd" fill-opacity="1" /><path clip-path="url(#clip250)" d="M 0 0 M1329.07 1446.93 L1334.17 1446.93 Q1338.94 1454.44 1341.3 1461.63 Q1343.68 1468.83 1343.68 1475.93 Q1343.68 1483.06 1341.3 1490.28 Q1338.94 1497.51 1334.17 1504.99 L1329.07 1504.99 Q1333.31 1497.7 1335.38 1490.5 Q1337.48 1483.28 1337.48 1475.93 Q1337.48 1468.57 1335.38 1461.41 Q1333.31 1454.25 1329.07 1446.93 Z" fill="#000000" fill-rule="evenodd" fill-opacity="1" /><path clip-path="url(#clip250)" d="M 0 0 M96.4328 890.787 L96.4328 883.88 L115.975 870.703 L96.4328 857.622 L96.4328 850.715 L121.323 867.52 L143.953 867.52 L143.953 873.981 L121.323 873.981 L96.4328 890.787 Z" fill="#000000" fill-rule="evenodd" fill-opacity="1" /><path clip-path="url(#clip250)" d="M 0 0 M94.4912 809.783 Q101.812 814.048 108.973 816.117 Q116.135 818.186 123.487 818.186 Q130.839 818.186 138.064 816.117 Q145.258 814.017 152.546 809.783 L152.546 814.876 Q145.067 819.65 137.842 822.037 Q130.617 824.393 123.487 824.393 Q116.389 824.393 109.196 822.037 Q102.003 819.682 94.4912 814.876 L94.4912 809.783 Z" fill="#000000" fill-rule="evenodd" fill-opacity="1" /><path clip-path="url(#clip250)" d="M 0 0 M138.542 797.275 L138.542 774.836 L143.953 774.836 L143.953 805.009 L138.542 805.009 Q134.754 801.349 128.389 795.047 Q121.991 788.713 120.145 787.09 Q116.676 784.002 114.289 782.793 Q111.87 781.551 109.546 781.551 Q105.759 781.551 103.371 784.225 Q100.984 786.867 100.984 791.132 Q100.984 794.156 102.035 797.529 Q103.085 800.871 105.217 804.691 L98.7244 804.691 Q97.1648 800.808 96.3691 797.434 Q95.5734 794.06 95.5734 791.259 Q95.5734 783.875 99.2655 779.483 Q102.958 775.09 109.132 775.09 Q112.061 775.09 114.702 776.204 Q117.312 777.286 120.877 780.183 Q121.8 780.979 126.224 785.244 Q130.617 789.509 138.542 797.275 Z" fill="#000000" fill-rule="evenodd" fill-opacity="1" /><path clip-path="url(#clip250)" d="M 0 0 M138.542 762.327 L138.542 739.888 L143.953 739.888 L143.953 770.061 L138.542 770.061 Q134.754 766.401 128.389 760.099 Q121.991 753.765 120.145 752.142 Q116.676 749.054 114.289 747.845 Q111.87 746.604 109.546 746.604 Q105.759 746.604 103.371 749.277 Q100.984 751.919 100.984 756.184 Q100.984 759.208 102.035 762.582 Q103.085 765.924 105.217 769.743 L98.7244 769.743 Q97.1648 765.86 96.3691 762.486 Q95.5734 759.112 95.5734 756.311 Q95.5734 748.927 99.2655 744.535 Q102.958 740.142 109.132 740.142 Q112.061 740.142 114.702 741.256 Q117.312 742.339 120.877 745.235 Q121.8 746.031 126.224 750.296 Q130.617 754.561 138.542 762.327 Z" fill="#000000" fill-rule="evenodd" fill-opacity="1" /><path clip-path="url(#clip250)" d="M 0 0 M123.041 692.495 Q123.041 695.264 125.397 696.856 Q127.752 698.415 131.953 698.415 Q136.091 698.415 138.478 696.856 Q140.834 695.264 140.834 692.495 Q140.834 689.79 138.478 688.23 Q136.091 686.639 131.953 686.639 Q127.784 686.639 125.429 688.23 Q123.041 689.79 123.041 692.495 M118.999 692.495 Q118.999 687.466 122.5 684.506 Q126.001 681.546 131.953 681.546 Q137.905 681.546 141.406 684.538 Q144.876 687.498 144.876 692.495 Q144.876 697.588 141.406 700.548 Q137.905 703.508 131.953 703.508 Q125.97 703.508 122.5 700.548 Q118.999 697.556 118.999 692.495 M99.6156 725.342 Q99.6156 728.079 102.003 729.671 Q104.358 731.231 108.496 731.231 Q112.697 731.231 115.052 729.671 Q117.408 728.111 117.408 725.342 Q117.408 722.573 115.052 721.014 Q112.697 719.422 108.496 719.422 Q104.39 719.422 102.003 721.014 Q99.6156 722.605 99.6156 725.342 M95.5734 696.601 L95.5734 691.508 L144.876 721.236 L144.876 726.329 L95.5734 696.601 M95.5734 725.342 Q95.5734 720.313 99.0745 717.321 Q102.544 714.33 108.496 714.33 Q114.511 714.33 117.981 717.321 Q121.45 720.281 121.45 725.342 Q121.45 730.403 117.981 733.363 Q114.48 736.291 108.496 736.291 Q102.576 736.291 99.0745 733.331 Q95.5734 730.371 95.5734 725.342 Z" fill="#000000" fill-rule="evenodd" fill-opacity="1" /><path clip-path="url(#clip250)" d="M 0 0 M94.4912 676.326 L94.4912 671.234 Q102.003 666.459 109.196 664.104 Q116.389 661.717 123.487 661.717 Q130.617 661.717 137.842 664.104 Q145.067 666.459 152.546 671.234 L152.546 676.326 Q145.258 672.093 138.064 670.024 Q130.839 667.924 123.487 667.924 Q116.135 667.924 108.973 670.024 Q101.812 672.093 94.4912 676.326 Z" fill="#000000" fill-rule="evenodd" fill-opacity="1" /><polyline clip-path="url(#clip252)" style="stroke:#000000; stroke-width:5.32854; stroke-opacity:1; fill:none" points="
  727.479,445.535 1624.93,1017.36 
  "/>
<polyline clip-path="url(#clip252)" style="stroke:#000000; stroke-width:1.44596; stroke-opacity:1; fill:none" points="
  1165.83,918.531 1177.55,866.882 
  "/>
<polyline clip-path="url(#clip252)" style="stroke:#000000; stroke-width:0.481598; stroke-opacity:1; fill:none" points="
  572.15,1028.61 1177.55,866.882 
  "/>
<polyline clip-path="url(#clip252)" style="stroke:#000000; stroke-width:1.90887; stroke-opacity:1; fill:none" points="
  572.15,1028.61 1627.3,677.037 
  "/>
<polyline clip-path="url(#clip252)" style="stroke:#000000; stroke-width:4.90007; stroke-opacity:1; fill:none" points="
  1165.83,918.531 1624.93,1017.36 
  "/>
<polyline clip-path="url(#clip252)" style="stroke:#000000; stroke-width:1.38174; stroke-opacity:1; fill:none" points="
  572.15,1028.61 1165.83,918.531 
  "/>
<polyline clip-path="url(#clip252)" style="stroke:#000000; stroke-width:5.98204; stroke-opacity:1; fill:none" points="
  1165.83,918.531 1627.3,677.037 
  "/>
<polyline clip-path="url(#clip252)" style="stroke:#000000; stroke-width:2.04685; stroke-opacity:1; fill:none" points="
  1177.55,866.882 1627.3,677.037 
  "/>
<polyline clip-path="url(#clip252)" style="stroke:#000000; stroke-width:1.72363; stroke-opacity:1; fill:none" points="
  572.15,1028.61 727.479,445.535 
  "/>
<polyline clip-path="url(#clip252)" style="stroke:#000000; stroke-width:1.66986; stroke-opacity:1; fill:none" points="
  1177.55,866.882 1624.93,1017.36 
  "/>
<polyline clip-path="url(#clip252)" style="stroke:#000000; stroke-width:6.05537; stroke-opacity:1; fill:none" points="
  1624.93,1017.36 1627.3,677.037 
  "/>
<polyline clip-path="url(#clip252)" style="stroke:#000000; stroke-width:5.83008; stroke-opacity:1; fill:none" points="
  727.479,445.535 1165.83,918.531 
  "/>
<polyline clip-path="url(#clip252)" style="stroke:#000000; stroke-width:1.51301; stroke-opacity:1; fill:none" points="
  727.479,445.535 1177.55,866.882 
  "/>
<polyline clip-path="url(#clip252)" style="stroke:#000000; stroke-width:1.22703; stroke-opacity:1; fill:none" points="
  572.15,1028.61 1624.93,1017.36 
  "/>
<polyline clip-path="url(#clip252)" style="stroke:#000000; stroke-width:8; stroke-opacity:1; fill:none" points="
  727.479,445.535 1627.3,677.037 
  "/>
<circle clip-path="url(#clip252)" cx="1165.83" cy="918.531" r="23" fill="#000000" fill-rule="evenodd" fill-opacity="1" stroke="none"/>
<circle clip-path="url(#clip252)" cx="727.479" cy="445.535" r="26" fill="#000000" fill-rule="evenodd" fill-opacity="1" stroke="none"/>
<circle clip-path="url(#clip252)" cx="1624.93" cy="1017.36" r="23" fill="#000000" fill-rule="evenodd" fill-opacity="1" stroke="none"/>
<circle clip-path="url(#clip252)" cx="1177.55" cy="866.882" r="8" fill="#000000" fill-rule="evenodd" fill-opacity="1" stroke="none"/>
<circle clip-path="url(#clip252)" cx="1627.3" cy="677.037" r="28" fill="#000000" fill-rule="evenodd" fill-opacity="1" stroke="none"/>
<circle clip-path="url(#clip252)" cx="572.15" cy="1028.61" r="8" fill="#000000" fill-rule="evenodd" fill-opacity="1" stroke="none"/>
<path clip-path="url(#clip250)" d="M 0 0 M1138.76 925.252 L1138.76 942.049 L1142.29 942.049 Q1146.76 942.049 1148.82 940.024 Q1150.91 937.998 1150.91 933.629 Q1150.91 929.289 1148.82 927.278 Q1146.76 925.252 1142.29 925.252 L1138.76 925.252 M1135.83 922.851 L1141.84 922.851 Q1148.12 922.851 1151.05 925.469 Q1153.99 928.074 1153.99 933.629 Q1153.99 939.214 1151.04 941.832 Q1148.09 944.451 1141.84 944.451 L1135.83 944.451 L1135.83 922.851 Z" fill="#000000" fill-rule="evenodd" fill-opacity="1" /><path clip-path="url(#clip250)" d="M 0 0 M1164.15 936.306 Q1160.92 936.306 1159.68 937.043 Q1158.43 937.781 1158.43 939.561 Q1158.43 940.979 1159.36 941.818 Q1160.3 942.642 1161.9 942.642 Q1164.12 942.642 1165.45 941.08 Q1166.79 939.503 1166.79 936.899 L1166.79 936.306 L1164.15 936.306 M1169.46 935.206 L1169.46 944.451 L1166.79 944.451 L1166.79 941.991 Q1165.88 943.467 1164.52 944.176 Q1163.16 944.87 1161.19 944.87 Q1158.71 944.87 1157.23 943.481 Q1155.77 942.078 1155.77 939.734 Q1155.77 937 1157.59 935.611 Q1159.43 934.222 1163.06 934.222 L1166.79 934.222 L1166.79 933.962 Q1166.79 932.124 1165.58 931.126 Q1164.38 930.113 1162.19 930.113 Q1160.8 930.113 1159.49 930.446 Q1158.17 930.779 1156.96 931.444 L1156.96 928.985 Q1158.42 928.421 1159.79 928.146 Q1161.17 927.857 1162.47 927.857 Q1165.98 927.857 1167.72 929.679 Q1169.46 931.502 1169.46 935.206 Z" fill="#000000" fill-rule="evenodd" fill-opacity="1" /><path clip-path="url(#clip250)" d="M 0 0 M1174.88 923.646 L1174.88 928.247 L1180.36 928.247 L1180.36 930.316 L1174.88 930.316 L1174.88 939.112 Q1174.88 941.094 1175.42 941.659 Q1175.97 942.223 1177.63 942.223 L1180.36 942.223 L1180.36 944.451 L1177.63 944.451 Q1174.55 944.451 1173.38 943.308 Q1172.2 942.15 1172.2 939.112 L1172.2 930.316 L1170.25 930.316 L1170.25 928.247 L1172.2 928.247 L1172.2 923.646 L1174.88 923.646 Z" fill="#000000" fill-rule="evenodd" fill-opacity="1" /><path clip-path="url(#clip250)" d="M 0 0 M1190.52 936.306 Q1187.29 936.306 1186.05 937.043 Q1184.81 937.781 1184.81 939.561 Q1184.81 940.979 1185.73 941.818 Q1186.67 942.642 1188.28 942.642 Q1190.49 942.642 1191.82 941.08 Q1193.17 939.503 1193.17 936.899 L1193.17 936.306 L1190.52 936.306 M1195.83 935.206 L1195.83 944.451 L1193.17 944.451 L1193.17 941.991 Q1192.26 943.467 1190.9 944.176 Q1189.54 944.87 1187.57 944.87 Q1185.08 944.87 1183.6 943.481 Q1182.14 942.078 1182.14 939.734 Q1182.14 937 1183.97 935.611 Q1185.8 934.222 1189.44 934.222 L1193.17 934.222 L1193.17 933.962 Q1193.17 932.124 1191.95 931.126 Q1190.75 930.113 1188.57 930.113 Q1187.18 930.113 1185.86 930.446 Q1184.55 930.779 1183.33 931.444 L1183.33 928.985 Q1184.79 928.421 1186.17 928.146 Q1187.54 927.857 1188.84 927.857 Q1192.36 927.857 1194.09 929.679 Q1195.83 931.502 1195.83 935.206 Z" fill="#000000" fill-rule="evenodd" fill-opacity="1" /><path clip-path="url(#clip250)" d="M 0 0 M585.574 449.855 L603.847 449.855 L603.847 452.315 L596.179 452.315 L596.179 471.455 L593.242 471.455 L593.242 452.315 L585.574 452.315 L585.574 449.855 Z" fill="#000000" fill-rule="evenodd" fill-opacity="1" /><path clip-path="url(#clip250)" d="M 0 0 M615.464 462.688 L615.464 463.99 L603.225 463.99 Q603.398 466.739 604.874 468.185 Q606.364 469.618 609.012 469.618 Q610.545 469.618 611.978 469.242 Q613.424 468.865 614.842 468.113 L614.842 470.63 Q613.41 471.238 611.905 471.556 Q610.401 471.875 608.853 471.875 Q604.975 471.875 602.704 469.618 Q600.447 467.361 600.447 463.512 Q600.447 459.534 602.588 457.205 Q604.744 454.861 608.39 454.861 Q611.659 454.861 613.555 456.973 Q615.464 459.071 615.464 462.688 M612.802 461.907 Q612.773 459.722 611.573 458.42 Q610.386 457.118 608.419 457.118 Q606.191 457.118 604.845 458.377 Q603.514 459.635 603.312 461.921 L612.802 461.907 Z" fill="#000000" fill-rule="evenodd" fill-opacity="1" /><path clip-path="url(#clip250)" d="M 0 0 M629.917 455.874 L629.917 458.362 Q628.789 457.74 627.646 457.436 Q626.517 457.118 625.36 457.118 Q622.77 457.118 621.338 458.767 Q619.906 460.402 619.906 463.368 Q619.906 466.334 621.338 467.983 Q622.77 469.618 625.36 469.618 Q626.517 469.618 627.646 469.314 Q628.789 468.996 629.917 468.374 L629.917 470.833 Q628.803 471.354 627.603 471.614 Q626.416 471.875 625.071 471.875 Q621.41 471.875 619.255 469.574 Q617.099 467.274 617.099 463.368 Q617.099 459.404 619.269 457.132 Q621.454 454.861 625.244 454.861 Q626.474 454.861 627.646 455.121 Q628.818 455.367 629.917 455.874 Z" fill="#000000" fill-rule="evenodd" fill-opacity="1" /><path clip-path="url(#clip250)" d="M 0 0 M646.179 461.675 L646.179 471.455 L643.517 471.455 L643.517 461.762 Q643.517 459.462 642.62 458.319 Q641.723 457.176 639.929 457.176 Q637.773 457.176 636.529 458.55 Q635.285 459.925 635.285 462.297 L635.285 471.455 L632.608 471.455 L632.608 448.944 L635.285 448.944 L635.285 457.769 Q636.24 456.308 637.527 455.584 Q638.829 454.861 640.522 454.861 Q643.314 454.861 644.747 456.597 Q646.179 458.319 646.179 461.675 Z" fill="#000000" fill-rule="evenodd" fill-opacity="1" /><path clip-path="url(#clip250)" d="M 0 0 M662.44 461.675 L662.44 471.455 L659.778 471.455 L659.778 461.762 Q659.778 459.462 658.881 458.319 Q657.984 457.176 656.19 457.176 Q654.035 457.176 652.79 458.55 Q651.546 459.925 651.546 462.297 L651.546 471.455 L648.87 471.455 L648.87 455.252 L651.546 455.252 L651.546 457.769 Q652.501 456.308 653.789 455.584 Q655.091 454.861 656.783 454.861 Q659.576 454.861 661.008 456.597 Q662.44 458.319 662.44 461.675 Z" fill="#000000" fill-rule="evenodd" fill-opacity="1" /><path clip-path="url(#clip250)" d="M 0 0 M665.233 455.252 L667.895 455.252 L667.895 471.455 L665.233 471.455 L665.233 455.252 M665.233 448.944 L667.895 448.944 L667.895 452.315 L665.233 452.315 L665.233 448.944 Z" fill="#000000" fill-rule="evenodd" fill-opacity="1" /><path clip-path="url(#clip250)" d="M 0 0 M682.348 455.874 L682.348 458.362 Q681.219 457.74 680.076 457.436 Q678.948 457.118 677.79 457.118 Q675.201 457.118 673.768 458.767 Q672.336 460.402 672.336 463.368 Q672.336 466.334 673.768 467.983 Q675.201 469.618 677.79 469.618 Q678.948 469.618 680.076 469.314 Q681.219 468.996 682.348 468.374 L682.348 470.833 Q681.234 471.354 680.033 471.614 Q678.846 471.875 677.501 471.875 Q673.841 471.875 671.685 469.574 Q669.529 467.274 669.529 463.368 Q669.529 459.404 671.7 457.132 Q673.884 454.861 677.675 454.861 Q678.904 454.861 680.076 455.121 Q681.248 455.367 682.348 455.874 Z" fill="#000000" fill-rule="evenodd" fill-opacity="1" /><path clip-path="url(#clip250)" d="M 0 0 M692.504 463.31 Q689.278 463.31 688.033 464.048 Q686.789 464.786 686.789 466.565 Q686.789 467.983 687.715 468.822 Q688.655 469.647 690.261 469.647 Q692.475 469.647 693.806 468.084 Q695.151 466.507 695.151 463.903 L695.151 463.31 L692.504 463.31 M697.813 462.21 L697.813 471.455 L695.151 471.455 L695.151 468.996 Q694.24 470.471 692.88 471.18 Q691.52 471.875 689.552 471.875 Q687.064 471.875 685.588 470.486 Q684.127 469.082 684.127 466.739 Q684.127 464.004 685.95 462.615 Q687.787 461.227 691.419 461.227 L695.151 461.227 L695.151 460.966 Q695.151 459.129 693.936 458.131 Q692.735 457.118 690.551 457.118 Q689.162 457.118 687.845 457.451 Q686.529 457.783 685.313 458.449 L685.313 455.989 Q686.775 455.425 688.149 455.15 Q689.523 454.861 690.826 454.861 Q694.341 454.861 696.077 456.684 Q697.813 458.507 697.813 462.21 Z" fill="#000000" fill-rule="evenodd" fill-opacity="1" /><path clip-path="url(#clip250)" d="M 0 0 M700.606 448.944 L703.268 448.944 L703.268 471.455 L700.606 471.455 L700.606 448.944 Z" fill="#000000" fill-rule="evenodd" fill-opacity="1" /><path clip-path="url(#clip250)" d="M 0 0 M718.372 476.374 L718.372 478.443 L702.978 478.443 L702.978 476.374 L718.372 476.374 Z" fill="#000000" fill-rule="evenodd" fill-opacity="1" /><path clip-path="url(#clip250)" d="M 0 0 M737.454 451.519 L737.454 454.6 Q735.979 453.226 734.3 452.546 Q732.637 451.866 730.756 451.866 Q727.052 451.866 725.085 454.138 Q723.117 456.394 723.117 460.677 Q723.117 464.945 725.085 467.216 Q727.052 469.473 730.756 469.473 Q732.637 469.473 734.3 468.793 Q735.979 468.113 737.454 466.739 L737.454 469.791 Q735.921 470.833 734.199 471.354 Q732.492 471.875 730.582 471.875 Q725.678 471.875 722.857 468.88 Q720.035 465.871 720.035 460.677 Q720.035 455.469 722.857 452.474 Q725.678 449.465 730.582 449.465 Q732.521 449.465 734.228 449.985 Q735.95 450.492 737.454 451.519 Z" fill="#000000" fill-rule="evenodd" fill-opacity="1" /><path clip-path="url(#clip250)" d="M 0 0 M746.525 457.118 Q744.384 457.118 743.14 458.796 Q741.896 460.46 741.896 463.368 Q741.896 466.276 743.126 467.954 Q744.37 469.618 746.525 469.618 Q748.652 469.618 749.896 467.94 Q751.141 466.261 751.141 463.368 Q751.141 460.489 749.896 458.811 Q748.652 457.118 746.525 457.118 M746.525 454.861 Q749.998 454.861 751.98 457.118 Q753.962 459.375 753.962 463.368 Q753.962 467.346 751.98 469.618 Q749.998 471.875 746.525 471.875 Q743.039 471.875 741.057 469.618 Q739.089 467.346 739.089 463.368 Q739.089 459.375 741.057 457.118 Q743.039 454.861 746.525 454.861 Z" fill="#000000" fill-rule="evenodd" fill-opacity="1" /><path clip-path="url(#clip250)" d="M 0 0 M770.223 461.675 L770.223 471.455 L767.561 471.455 L767.561 461.762 Q767.561 459.462 766.664 458.319 Q765.767 457.176 763.973 457.176 Q761.818 457.176 760.573 458.55 Q759.329 459.925 759.329 462.297 L759.329 471.455 L756.653 471.455 L756.653 455.252 L759.329 455.252 L759.329 457.769 Q760.284 456.308 761.572 455.584 Q762.874 454.861 764.566 454.861 Q767.359 454.861 768.791 456.597 Q770.223 458.319 770.223 461.675 Z" fill="#000000" fill-rule="evenodd" fill-opacity="1" /><path clip-path="url(#clip250)" d="M 0 0 M783.345 455.729 L783.345 458.246 Q782.217 457.668 781.002 457.378 Q779.786 457.089 778.484 457.089 Q776.502 457.089 775.504 457.697 Q774.52 458.304 774.52 459.519 Q774.52 460.445 775.229 460.981 Q775.938 461.501 778.079 461.979 L778.991 462.181 Q781.826 462.789 783.013 463.903 Q784.213 465.003 784.213 466.985 Q784.213 469.242 782.419 470.558 Q780.64 471.875 777.515 471.875 Q776.213 471.875 774.795 471.614 Q773.392 471.368 771.829 470.862 L771.829 468.113 Q773.305 468.88 774.737 469.271 Q776.169 469.647 777.573 469.647 Q779.454 469.647 780.466 469.01 Q781.479 468.359 781.479 467.187 Q781.479 466.102 780.741 465.523 Q780.018 464.945 777.544 464.409 L776.618 464.192 Q774.144 463.672 773.044 462.601 Q771.945 461.516 771.945 459.635 Q771.945 457.349 773.565 456.105 Q775.186 454.861 778.166 454.861 Q779.642 454.861 780.944 455.078 Q782.246 455.295 783.345 455.729 Z" fill="#000000" fill-rule="evenodd" fill-opacity="1" /><path clip-path="url(#clip250)" d="M 0 0 M789.639 450.651 L789.639 455.252 L795.122 455.252 L795.122 457.32 L789.639 457.32 L789.639 466.117 Q789.639 468.099 790.174 468.663 Q790.724 469.227 792.388 469.227 L795.122 469.227 L795.122 471.455 L792.388 471.455 Q789.306 471.455 788.134 470.312 Q786.962 469.155 786.962 466.117 L786.962 457.32 L785.009 457.32 L785.009 455.252 L786.962 455.252 L786.962 450.651 L789.639 450.651 Z" fill="#000000" fill-rule="evenodd" fill-opacity="1" /><path clip-path="url(#clip250)" d="M 0 0 M807.304 457.74 Q806.855 457.48 806.32 457.364 Q805.799 457.234 805.162 457.234 Q802.905 457.234 801.69 458.709 Q800.489 460.17 800.489 462.919 L800.489 471.455 L797.813 471.455 L797.813 455.252 L800.489 455.252 L800.489 457.769 Q801.328 456.293 802.674 455.584 Q804.019 454.861 805.944 454.861 Q806.218 454.861 806.551 454.904 Q806.884 454.933 807.289 455.006 L807.304 457.74 Z" fill="#000000" fill-rule="evenodd" fill-opacity="1" /><path clip-path="url(#clip250)" d="M 0 0 M817.46 463.31 Q814.233 463.31 812.989 464.048 Q811.745 464.786 811.745 466.565 Q811.745 467.983 812.671 468.822 Q813.611 469.647 815.217 469.647 Q817.431 469.647 818.762 468.084 Q820.107 466.507 820.107 463.903 L820.107 463.31 L817.46 463.31 M822.769 462.21 L822.769 471.455 L820.107 471.455 L820.107 468.996 Q819.196 470.471 817.836 471.18 Q816.476 471.875 814.508 471.875 Q812.02 471.875 810.544 470.486 Q809.083 469.082 809.083 466.739 Q809.083 464.004 810.906 462.615 Q812.743 461.227 816.375 461.227 L820.107 461.227 L820.107 460.966 Q820.107 459.129 818.892 458.131 Q817.691 457.118 815.507 457.118 Q814.118 457.118 812.801 457.451 Q811.485 457.783 810.269 458.449 L810.269 455.989 Q811.731 455.425 813.105 455.15 Q814.479 454.861 815.781 454.861 Q819.297 454.861 821.033 456.684 Q822.769 458.507 822.769 462.21 Z" fill="#000000" fill-rule="evenodd" fill-opacity="1" /><path clip-path="url(#clip250)" d="M 0 0 M825.562 455.252 L828.224 455.252 L828.224 471.455 L825.562 471.455 L825.562 455.252 M825.562 448.944 L828.224 448.944 L828.224 452.315 L825.562 452.315 L825.562 448.944 Z" fill="#000000" fill-rule="evenodd" fill-opacity="1" /><path clip-path="url(#clip250)" d="M 0 0 M844.485 461.675 L844.485 471.455 L841.823 471.455 L841.823 461.762 Q841.823 459.462 840.926 458.319 Q840.029 457.176 838.235 457.176 Q836.079 457.176 834.835 458.55 Q833.591 459.925 833.591 462.297 L833.591 471.455 L830.915 471.455 L830.915 455.252 L833.591 455.252 L833.591 457.769 Q834.546 456.308 835.833 455.584 Q837.136 454.861 838.828 454.861 Q841.62 454.861 843.053 456.597 Q844.485 458.319 844.485 461.675 Z" fill="#000000" fill-rule="evenodd" fill-opacity="1" /><path clip-path="url(#clip250)" d="M 0 0 M849.91 450.651 L849.91 455.252 L855.394 455.252 L855.394 457.32 L849.91 457.32 L849.91 466.117 Q849.91 468.099 850.446 468.663 Q850.995 469.227 852.659 469.227 L855.394 469.227 L855.394 471.455 L852.659 471.455 Q849.578 471.455 848.406 470.312 Q847.234 469.155 847.234 466.117 L847.234 457.32 L845.281 457.32 L845.281 455.252 L847.234 455.252 L847.234 450.651 L849.91 450.651 Z" fill="#000000" fill-rule="evenodd" fill-opacity="1" /><path clip-path="url(#clip250)" d="M 0 0 M868.516 455.729 L868.516 458.246 Q867.387 457.668 866.172 457.378 Q864.957 457.089 863.654 457.089 Q861.672 457.089 860.674 457.697 Q859.69 458.304 859.69 459.519 Q859.69 460.445 860.399 460.981 Q861.108 461.501 863.249 461.979 L864.161 462.181 Q866.996 462.789 868.183 463.903 Q869.384 465.003 869.384 466.985 Q869.384 469.242 867.59 470.558 Q865.81 471.875 862.685 471.875 Q861.383 471.875 859.965 471.614 Q858.562 471.368 856.999 470.862 L856.999 468.113 Q858.475 468.88 859.907 469.271 Q861.34 469.647 862.743 469.647 Q864.624 469.647 865.637 469.01 Q866.649 468.359 866.649 467.187 Q866.649 466.102 865.911 465.523 Q865.188 464.945 862.714 464.409 L861.788 464.192 Q859.314 463.672 858.215 462.601 Q857.115 461.516 857.115 459.635 Q857.115 457.349 858.736 456.105 Q860.356 454.861 863.336 454.861 Q864.812 454.861 866.114 455.078 Q867.416 455.295 868.516 455.729 Z" fill="#000000" fill-rule="evenodd" fill-opacity="1" /><path clip-path="url(#clip250)" d="M 0 0 M1457.58 1024.08 L1457.58 1032.19 L1461.26 1032.19 Q1463.3 1032.19 1464.41 1031.14 Q1465.53 1030.08 1465.53 1028.13 Q1465.53 1026.19 1464.41 1025.13 Q1463.3 1024.08 1461.26 1024.08 L1457.58 1024.08 M1454.66 1021.68 L1461.26 1021.68 Q1464.89 1021.68 1466.74 1023.32 Q1468.61 1024.96 1468.61 1028.13 Q1468.61 1031.33 1466.74 1032.96 Q1464.89 1034.6 1461.26 1034.6 L1457.58 1034.6 L1457.58 1043.28 L1454.66 1043.28 L1454.66 1021.68 Z" fill="#000000" fill-rule="evenodd" fill-opacity="1" /><path clip-path="url(#clip250)" d="M 0 0 M1484.2 1034.51 L1484.2 1035.81 L1471.96 1035.81 Q1472.14 1038.56 1473.61 1040.01 Q1475.1 1041.44 1477.75 1041.44 Q1479.29 1041.44 1480.72 1041.06 Q1482.16 1040.69 1483.58 1039.93 L1483.58 1042.45 Q1482.15 1043.06 1480.65 1043.38 Q1479.14 1043.7 1477.59 1043.7 Q1473.72 1043.7 1471.44 1041.44 Q1469.19 1039.18 1469.19 1035.33 Q1469.19 1031.35 1471.33 1029.03 Q1473.48 1026.68 1477.13 1026.68 Q1480.4 1026.68 1482.29 1028.79 Q1484.2 1030.89 1484.2 1034.51 M1481.54 1033.73 Q1481.51 1031.54 1480.31 1030.24 Q1479.13 1028.94 1477.16 1028.94 Q1474.93 1028.94 1473.59 1030.2 Q1472.25 1031.46 1472.05 1033.74 L1481.54 1033.73 Z" fill="#000000" fill-rule="evenodd" fill-opacity="1" /><path clip-path="url(#clip250)" d="M 0 0 M1496.39 1029.56 Q1495.94 1029.3 1495.4 1029.18 Q1494.88 1029.05 1494.24 1029.05 Q1491.99 1029.05 1490.77 1030.53 Q1489.57 1031.99 1489.57 1034.74 L1489.57 1043.28 L1486.9 1043.28 L1486.9 1027.07 L1489.57 1027.07 L1489.57 1029.59 Q1490.41 1028.11 1491.76 1027.4 Q1493.1 1026.68 1495.03 1026.68 Q1495.3 1026.68 1495.63 1026.72 Q1495.97 1026.75 1496.37 1026.83 L1496.39 1029.56 Z" fill="#000000" fill-rule="evenodd" fill-opacity="1" /><path clip-path="url(#clip250)" d="M 0 0 M1507.38 1020.76 L1507.38 1022.98 L1504.83 1022.98 Q1503.4 1022.98 1502.84 1023.56 Q1502.29 1024.14 1502.29 1025.64 L1502.29 1027.07 L1506.67 1027.07 L1506.67 1029.14 L1502.29 1029.14 L1502.29 1043.28 L1499.61 1043.28 L1499.61 1029.14 L1497.07 1029.14 L1497.07 1027.07 L1499.61 1027.07 L1499.61 1025.94 Q1499.61 1023.24 1500.87 1022.01 Q1502.13 1020.76 1504.86 1020.76 L1507.38 1020.76 Z" fill="#000000" fill-rule="evenodd" fill-opacity="1" /><path clip-path="url(#clip250)" d="M 0 0 M1516.45 1028.94 Q1514.31 1028.94 1513.07 1030.62 Q1511.82 1032.28 1511.82 1035.19 Q1511.82 1038.1 1513.05 1039.77 Q1514.3 1041.44 1516.45 1041.44 Q1518.58 1041.44 1519.82 1039.76 Q1521.07 1038.08 1521.07 1035.19 Q1521.07 1032.31 1519.82 1030.63 Q1518.58 1028.94 1516.45 1028.94 M1516.45 1026.68 Q1519.92 1026.68 1521.91 1028.94 Q1523.89 1031.2 1523.89 1035.19 Q1523.89 1039.17 1521.91 1041.44 Q1519.92 1043.7 1516.45 1043.7 Q1512.97 1043.7 1510.98 1041.44 Q1509.02 1039.17 1509.02 1035.19 Q1509.02 1031.2 1510.98 1028.94 Q1512.97 1026.68 1516.45 1026.68 Z" fill="#000000" fill-rule="evenodd" fill-opacity="1" /><path clip-path="url(#clip250)" d="M 0 0 M1536.07 1029.56 Q1535.62 1029.3 1535.09 1029.18 Q1534.57 1029.05 1533.93 1029.05 Q1531.67 1029.05 1530.46 1030.53 Q1529.26 1031.99 1529.26 1034.74 L1529.26 1043.28 L1526.58 1043.28 L1526.58 1027.07 L1529.26 1027.07 L1529.26 1029.59 Q1530.1 1028.11 1531.44 1027.4 Q1532.79 1026.68 1534.71 1026.68 Q1534.99 1026.68 1535.32 1026.72 Q1535.65 1026.75 1536.06 1026.83 L1536.07 1029.56 Z" fill="#000000" fill-rule="evenodd" fill-opacity="1" /><path clip-path="url(#clip250)" d="M 0 0 M1550.96 1030.18 Q1551.96 1028.39 1553.34 1027.53 Q1554.73 1026.68 1556.61 1026.68 Q1559.15 1026.68 1560.52 1028.46 Q1561.89 1030.23 1561.89 1033.5 L1561.89 1043.28 L1559.22 1043.28 L1559.22 1033.58 Q1559.22 1031.25 1558.39 1030.12 Q1557.57 1029 1555.88 1029 Q1553.81 1029 1552.61 1030.37 Q1551.41 1031.75 1551.41 1034.12 L1551.41 1043.28 L1548.73 1043.28 L1548.73 1033.58 Q1548.73 1031.24 1547.9 1030.12 Q1547.08 1029 1545.36 1029 Q1543.32 1029 1542.12 1030.39 Q1540.92 1031.76 1540.92 1034.12 L1540.92 1043.28 L1538.24 1043.28 L1538.24 1027.07 L1540.92 1027.07 L1540.92 1029.59 Q1541.83 1028.1 1543.1 1027.39 Q1544.37 1026.68 1546.13 1026.68 Q1547.89 1026.68 1549.12 1027.58 Q1550.36 1028.48 1550.96 1030.18 Z" fill="#000000" fill-rule="evenodd" fill-opacity="1" /><path clip-path="url(#clip250)" d="M 0 0 M1572.05 1035.13 Q1568.82 1035.13 1567.58 1035.87 Q1566.34 1036.61 1566.34 1038.39 Q1566.34 1039.8 1567.26 1040.64 Q1568.2 1041.47 1569.81 1041.47 Q1572.02 1041.47 1573.35 1039.9 Q1574.7 1038.33 1574.7 1035.72 L1574.7 1035.13 L1572.05 1035.13 M1577.36 1034.03 L1577.36 1043.28 L1574.7 1043.28 L1574.7 1040.82 Q1573.79 1042.29 1572.43 1043 Q1571.07 1043.7 1569.1 1043.7 Q1566.61 1043.7 1565.14 1042.31 Q1563.67 1040.9 1563.67 1038.56 Q1563.67 1035.82 1565.5 1034.44 Q1567.33 1033.05 1570.97 1033.05 L1574.7 1033.05 L1574.7 1032.79 Q1574.7 1030.95 1573.48 1029.95 Q1572.28 1028.94 1570.1 1028.94 Q1568.71 1028.94 1567.39 1029.27 Q1566.08 1029.6 1564.86 1030.27 L1564.86 1027.81 Q1566.32 1027.25 1567.7 1026.97 Q1569.07 1026.68 1570.37 1026.68 Q1573.89 1026.68 1575.62 1028.5 Q1577.36 1030.33 1577.36 1034.03 Z" fill="#000000" fill-rule="evenodd" fill-opacity="1" /><path clip-path="url(#clip250)" d="M 0 0 M1593.62 1033.5 L1593.62 1043.28 L1590.96 1043.28 L1590.96 1033.58 Q1590.96 1031.28 1590.06 1030.14 Q1589.17 1029 1587.37 1029 Q1585.22 1029 1583.97 1030.37 Q1582.73 1031.75 1582.73 1034.12 L1582.73 1043.28 L1580.05 1043.28 L1580.05 1027.07 L1582.73 1027.07 L1582.73 1029.59 Q1583.68 1028.13 1584.97 1027.4 Q1586.27 1026.68 1587.97 1026.68 Q1590.76 1026.68 1592.19 1028.42 Q1593.62 1030.14 1593.62 1033.5 Z" fill="#000000" fill-rule="evenodd" fill-opacity="1" /><path clip-path="url(#clip250)" d="M 0 0 M1608.08 1027.69 L1608.08 1030.18 Q1606.95 1029.56 1605.8 1029.26 Q1604.68 1028.94 1603.52 1028.94 Q1600.93 1028.94 1599.5 1030.59 Q1598.06 1032.22 1598.06 1035.19 Q1598.06 1038.15 1599.5 1039.8 Q1600.93 1041.44 1603.52 1041.44 Q1604.68 1041.44 1605.8 1041.13 Q1606.95 1040.82 1608.08 1040.19 L1608.08 1042.65 Q1606.96 1043.17 1605.76 1043.43 Q1604.57 1043.7 1603.23 1043.7 Q1599.57 1043.7 1597.41 1041.39 Q1595.26 1039.09 1595.26 1035.19 Q1595.26 1031.22 1597.43 1028.95 Q1599.61 1026.68 1603.4 1026.68 Q1604.63 1026.68 1605.8 1026.94 Q1606.98 1027.19 1608.08 1027.69 Z" fill="#000000" fill-rule="evenodd" fill-opacity="1" /><path clip-path="url(#clip250)" d="M 0 0 M1624.73 1034.51 L1624.73 1035.81 L1612.49 1035.81 Q1612.66 1038.56 1614.14 1040.01 Q1615.63 1041.44 1618.27 1041.44 Q1619.81 1041.44 1621.24 1041.06 Q1622.69 1040.69 1624.11 1039.93 L1624.11 1042.45 Q1622.67 1043.06 1621.17 1043.38 Q1619.66 1043.7 1618.12 1043.7 Q1614.24 1043.7 1611.97 1041.44 Q1609.71 1039.18 1609.71 1035.33 Q1609.71 1031.35 1611.85 1029.03 Q1614.01 1026.68 1617.65 1026.68 Q1620.92 1026.68 1622.82 1028.79 Q1624.73 1030.89 1624.73 1034.51 M1622.07 1033.73 Q1622.04 1031.54 1620.84 1030.24 Q1619.65 1028.94 1617.68 1028.94 Q1615.45 1028.94 1614.11 1030.2 Q1612.78 1031.46 1612.57 1033.74 L1622.07 1033.73 Z" fill="#000000" fill-rule="evenodd" fill-opacity="1" /><path clip-path="url(#clip250)" d="M 0 0 M1639.83 1048.19 L1639.83 1050.26 L1624.44 1050.26 L1624.44 1048.19 L1639.83 1048.19 Z" fill="#000000" fill-rule="evenodd" fill-opacity="1" /><path clip-path="url(#clip250)" d="M 0 0 M1645.66 1024.08 L1645.66 1032.19 L1649.34 1032.19 Q1651.38 1032.19 1652.49 1031.14 Q1653.6 1030.08 1653.6 1028.13 Q1653.6 1026.19 1652.49 1025.13 Q1651.38 1024.08 1649.34 1024.08 L1645.66 1024.08 M1642.74 1021.68 L1649.34 1021.68 Q1652.97 1021.68 1654.82 1023.32 Q1656.69 1024.96 1656.69 1028.13 Q1656.69 1031.33 1654.82 1032.96 Q1652.97 1034.6 1649.34 1034.6 L1645.66 1034.6 L1645.66 1043.28 L1642.74 1043.28 L1642.74 1021.68 Z" fill="#000000" fill-rule="evenodd" fill-opacity="1" /><path clip-path="url(#clip250)" d="M 0 0 M1665.51 1035.13 Q1662.28 1035.13 1661.04 1035.87 Q1659.8 1036.61 1659.8 1038.39 Q1659.8 1039.8 1660.72 1040.64 Q1661.66 1041.47 1663.27 1041.47 Q1665.48 1041.47 1666.81 1039.9 Q1668.16 1038.33 1668.16 1035.72 L1668.16 1035.13 L1665.51 1035.13 M1670.82 1034.03 L1670.82 1043.28 L1668.16 1043.28 L1668.16 1040.82 Q1667.25 1042.29 1665.89 1043 Q1664.53 1043.7 1662.56 1043.7 Q1660.07 1043.7 1658.6 1042.31 Q1657.13 1040.9 1657.13 1038.56 Q1657.13 1035.82 1658.96 1034.44 Q1660.79 1033.05 1664.43 1033.05 L1668.16 1033.05 L1668.16 1032.79 Q1668.16 1030.95 1666.94 1029.95 Q1665.74 1028.94 1663.56 1028.94 Q1662.17 1028.94 1660.85 1029.27 Q1659.54 1029.6 1658.32 1030.27 L1658.32 1027.81 Q1659.78 1027.25 1661.16 1026.97 Q1662.53 1026.68 1663.83 1026.68 Q1667.35 1026.68 1669.08 1028.5 Q1670.82 1030.33 1670.82 1034.03 Z" fill="#000000" fill-rule="evenodd" fill-opacity="1" /><path clip-path="url(#clip250)" d="M 0 0 M1683 1029.56 Q1682.55 1029.3 1682.02 1029.18 Q1681.5 1029.05 1680.86 1029.05 Q1678.6 1029.05 1677.39 1030.53 Q1676.19 1031.99 1676.19 1034.74 L1676.19 1043.28 L1673.51 1043.28 L1673.51 1027.07 L1676.19 1027.07 L1676.19 1029.59 Q1677.03 1028.11 1678.37 1027.4 Q1679.72 1026.68 1681.64 1026.68 Q1681.92 1026.68 1682.25 1026.72 Q1682.58 1026.75 1682.99 1026.83 L1683 1029.56 Z" fill="#000000" fill-rule="evenodd" fill-opacity="1" /><path clip-path="url(#clip250)" d="M 0 0 M1693.16 1035.13 Q1689.93 1035.13 1688.69 1035.87 Q1687.44 1036.61 1687.44 1038.39 Q1687.44 1039.8 1688.37 1040.64 Q1689.31 1041.47 1690.92 1041.47 Q1693.13 1041.47 1694.46 1039.9 Q1695.81 1038.33 1695.81 1035.72 L1695.81 1035.13 L1693.16 1035.13 M1698.47 1034.03 L1698.47 1043.28 L1695.81 1043.28 L1695.81 1040.82 Q1694.89 1042.29 1693.53 1043 Q1692.17 1043.7 1690.21 1043.7 Q1687.72 1043.7 1686.24 1042.31 Q1684.78 1040.9 1684.78 1038.56 Q1684.78 1035.82 1686.6 1034.44 Q1688.44 1033.05 1692.07 1033.05 L1695.81 1033.05 L1695.81 1032.79 Q1695.81 1030.95 1694.59 1029.95 Q1693.39 1028.94 1691.21 1028.94 Q1689.82 1028.94 1688.5 1029.27 Q1687.18 1029.6 1685.97 1030.27 L1685.97 1027.81 Q1687.43 1027.25 1688.8 1026.97 Q1690.18 1026.68 1691.48 1026.68 Q1695 1026.68 1696.73 1028.5 Q1698.47 1030.33 1698.47 1034.03 Z" fill="#000000" fill-rule="evenodd" fill-opacity="1" /><path clip-path="url(#clip250)" d="M 0 0 M1713.88 1030.18 Q1714.87 1028.39 1716.26 1027.53 Q1717.65 1026.68 1719.53 1026.68 Q1722.06 1026.68 1723.44 1028.46 Q1724.81 1030.23 1724.81 1033.5 L1724.81 1043.28 L1722.14 1043.28 L1722.14 1033.58 Q1722.14 1031.25 1721.31 1030.12 Q1720.49 1029 1718.8 1029 Q1716.73 1029 1715.53 1030.37 Q1714.32 1031.75 1714.32 1034.12 L1714.32 1043.28 L1711.65 1043.28 L1711.65 1033.58 Q1711.65 1031.24 1710.82 1030.12 Q1710 1029 1708.28 1029 Q1706.24 1029 1705.04 1030.39 Q1703.84 1031.76 1703.84 1034.12 L1703.84 1043.28 L1701.16 1043.28 L1701.16 1027.07 L1703.84 1027.07 L1703.84 1029.59 Q1704.75 1028.1 1706.02 1027.39 Q1707.29 1026.68 1709.04 1026.68 Q1710.81 1026.68 1712.04 1027.58 Q1713.28 1028.48 1713.88 1030.18 Z" fill="#000000" fill-rule="evenodd" fill-opacity="1" /><path clip-path="url(#clip250)" d="M 0 0 M1741.47 1034.51 L1741.47 1035.81 L1729.23 1035.81 Q1729.4 1038.56 1730.88 1040.01 Q1732.37 1041.44 1735.01 1041.44 Q1736.55 1041.44 1737.98 1041.06 Q1739.43 1040.69 1740.84 1039.93 L1740.84 1042.45 Q1739.41 1043.06 1737.91 1043.38 Q1736.4 1043.7 1734.85 1043.7 Q1730.98 1043.7 1728.71 1041.44 Q1726.45 1039.18 1726.45 1035.33 Q1726.45 1031.35 1728.59 1029.03 Q1730.75 1026.68 1734.39 1026.68 Q1737.66 1026.68 1739.56 1028.79 Q1741.47 1030.89 1741.47 1034.51 M1738.8 1033.73 Q1738.77 1031.54 1737.57 1030.24 Q1736.39 1028.94 1734.42 1028.94 Q1732.19 1028.94 1730.85 1030.2 Q1729.52 1031.46 1729.31 1033.74 L1738.8 1033.73 Z" fill="#000000" fill-rule="evenodd" fill-opacity="1" /><path clip-path="url(#clip250)" d="M 0 0 M1746.89 1022.47 L1746.89 1027.07 L1752.37 1027.07 L1752.37 1029.14 L1746.89 1029.14 L1746.89 1037.94 Q1746.89 1039.92 1747.43 1040.48 Q1747.98 1041.05 1749.64 1041.05 L1752.37 1041.05 L1752.37 1043.28 L1749.64 1043.28 Q1746.56 1043.28 1745.39 1042.13 Q1744.21 1040.98 1744.21 1037.94 L1744.21 1029.14 L1742.26 1029.14 L1742.26 1027.07 L1744.21 1027.07 L1744.21 1022.47 L1746.89 1022.47 Z" fill="#000000" fill-rule="evenodd" fill-opacity="1" /><path clip-path="url(#clip250)" d="M 0 0 M1769.03 1034.51 L1769.03 1035.81 L1756.79 1035.81 Q1756.96 1038.56 1758.44 1040.01 Q1759.93 1041.44 1762.57 1041.44 Q1764.11 1041.44 1765.54 1041.06 Q1766.99 1040.69 1768.4 1039.93 L1768.4 1042.45 Q1766.97 1043.06 1765.47 1043.38 Q1763.96 1043.7 1762.41 1043.7 Q1758.54 1043.7 1756.27 1041.44 Q1754.01 1039.18 1754.01 1035.33 Q1754.01 1031.35 1756.15 1029.03 Q1758.31 1026.68 1761.95 1026.68 Q1765.22 1026.68 1767.12 1028.79 Q1769.03 1030.89 1769.03 1034.51 M1766.36 1033.73 Q1766.34 1031.54 1765.13 1030.24 Q1763.95 1028.94 1761.98 1028.94 Q1759.75 1028.94 1758.41 1030.2 Q1757.08 1031.46 1756.87 1033.74 L1766.36 1033.73 Z" fill="#000000" fill-rule="evenodd" fill-opacity="1" /><path clip-path="url(#clip250)" d="M 0 0 M1781.21 1029.56 Q1780.76 1029.3 1780.22 1029.18 Q1779.7 1029.05 1779.07 1029.05 Q1776.81 1029.05 1775.59 1030.53 Q1774.39 1031.99 1774.39 1034.74 L1774.39 1043.28 L1771.72 1043.28 L1771.72 1027.07 L1774.39 1027.07 L1774.39 1029.59 Q1775.23 1028.11 1776.58 1027.4 Q1777.92 1026.68 1779.85 1026.68 Q1780.12 1026.68 1780.46 1026.72 Q1780.79 1026.75 1781.19 1026.83 L1781.21 1029.56 Z" fill="#000000" fill-rule="evenodd" fill-opacity="1" /><path clip-path="url(#clip250)" d="M 0 0 M1794.33 1027.55 L1794.33 1030.07 Q1793.2 1029.49 1791.99 1029.2 Q1790.77 1028.91 1789.47 1028.91 Q1787.49 1028.91 1786.49 1029.52 Q1785.5 1030.12 1785.5 1031.34 Q1785.5 1032.27 1786.21 1032.8 Q1786.92 1033.32 1789.06 1033.8 L1789.98 1034 Q1792.81 1034.61 1794 1035.72 Q1795.2 1036.82 1795.2 1038.81 Q1795.2 1041.06 1793.4 1042.38 Q1791.62 1043.7 1788.5 1043.7 Q1787.2 1043.7 1785.78 1043.43 Q1784.38 1043.19 1782.81 1042.68 L1782.81 1039.93 Q1784.29 1040.7 1785.72 1041.09 Q1787.15 1041.47 1788.56 1041.47 Q1790.44 1041.47 1791.45 1040.83 Q1792.46 1040.18 1792.46 1039.01 Q1792.46 1037.92 1791.73 1037.34 Q1791 1036.77 1788.53 1036.23 L1787.6 1036.01 Q1785.13 1035.49 1784.03 1034.42 Q1782.93 1033.34 1782.93 1031.46 Q1782.93 1029.17 1784.55 1027.93 Q1786.17 1026.68 1789.15 1026.68 Q1790.63 1026.68 1791.93 1026.9 Q1793.23 1027.12 1794.33 1027.55 Z" fill="#000000" fill-rule="evenodd" fill-opacity="1" /><path clip-path="url(#clip250)" d="M 0 0 M980.456 872.866 L980.456 875.947 Q978.98 874.573 977.302 873.893 Q975.638 873.213 973.757 873.213 Q970.054 873.213 968.086 875.484 Q966.118 877.741 966.118 882.024 Q966.118 886.292 968.086 888.563 Q970.054 890.82 973.757 890.82 Q975.638 890.82 977.302 890.14 Q978.98 889.46 980.456 888.086 L980.456 891.138 Q978.922 892.18 977.201 892.701 Q975.493 893.221 973.584 893.221 Q968.679 893.221 965.858 890.227 Q963.037 887.217 963.037 882.024 Q963.037 876.815 965.858 873.821 Q968.679 870.811 973.584 870.811 Q975.522 870.811 977.23 871.332 Q978.951 871.838 980.456 872.866 Z" fill="#000000" fill-rule="evenodd" fill-opacity="1" /><path clip-path="url(#clip250)" d="M 0 0 M983.248 870.29 L985.91 870.29 L985.91 892.802 L983.248 892.802 L983.248 870.29 Z" fill="#000000" fill-rule="evenodd" fill-opacity="1" /><path clip-path="url(#clip250)" d="M 0 0 M988.702 876.598 L991.364 876.598 L991.364 892.802 L988.702 892.802 L988.702 876.598 M988.702 870.29 L991.364 870.29 L991.364 873.661 L988.702 873.661 L988.702 870.29 Z" fill="#000000" fill-rule="evenodd" fill-opacity="1" /><path clip-path="url(#clip250)" d="M 0 0 M1008.02 884.035 L1008.02 885.337 L995.777 885.337 Q995.951 888.086 997.426 889.532 Q998.916 890.965 1001.56 890.965 Q1003.1 890.965 1004.53 890.588 Q1005.98 890.212 1007.39 889.46 L1007.39 891.977 Q1005.96 892.585 1004.46 892.903 Q1002.95 893.221 1001.4 893.221 Q997.527 893.221 995.256 890.965 Q992.999 888.708 992.999 884.859 Q992.999 880.881 995.14 878.551 Q997.296 876.208 1000.94 876.208 Q1004.21 876.208 1006.11 878.32 Q1008.02 880.418 1008.02 884.035 M1005.35 883.253 Q1005.33 881.069 1004.12 879.767 Q1002.94 878.465 1000.97 878.465 Q998.743 878.465 997.397 879.723 Q996.066 880.982 995.864 883.268 L1005.35 883.253 Z" fill="#000000" fill-rule="evenodd" fill-opacity="1" /><path clip-path="url(#clip250)" d="M 0 0 M1024.28 883.022 L1024.28 892.802 L1021.62 892.802 L1021.62 883.109 Q1021.62 880.808 1020.72 879.665 Q1019.82 878.522 1018.03 878.522 Q1015.87 878.522 1014.63 879.897 Q1013.38 881.271 1013.38 883.644 L1013.38 892.802 L1010.71 892.802 L1010.71 876.598 L1013.38 876.598 L1013.38 879.116 Q1014.34 877.654 1015.63 876.931 Q1016.93 876.208 1018.62 876.208 Q1021.41 876.208 1022.85 877.944 Q1024.28 879.665 1024.28 883.022 Z" fill="#000000" fill-rule="evenodd" fill-opacity="1" /><path clip-path="url(#clip250)" d="M 0 0 M1029.7 871.998 L1029.7 876.598 L1035.19 876.598 L1035.19 878.667 L1029.7 878.667 L1029.7 887.463 Q1029.7 889.445 1030.24 890.01 Q1030.79 890.574 1032.45 890.574 L1035.19 890.574 L1035.19 892.802 L1032.45 892.802 Q1029.37 892.802 1028.2 891.659 Q1027.03 890.502 1027.03 887.463 L1027.03 878.667 L1025.07 878.667 L1025.07 876.598 L1027.03 876.598 L1027.03 871.998 L1029.7 871.998 Z" fill="#000000" fill-rule="evenodd" fill-opacity="1" /><path clip-path="url(#clip250)" d="M 0 0 M1050.29 897.721 L1050.29 899.79 L1034.9 899.79 L1034.9 897.721 L1050.29 897.721 Z" fill="#000000" fill-rule="evenodd" fill-opacity="1" /><path clip-path="url(#clip250)" d="M 0 0 M1060.45 884.657 Q1057.22 884.657 1055.98 885.395 Q1054.73 886.132 1054.73 887.912 Q1054.73 889.33 1055.66 890.169 Q1056.6 890.993 1058.2 890.993 Q1060.42 890.993 1061.75 889.431 Q1063.09 887.854 1063.09 885.25 L1063.09 884.657 L1060.45 884.657 M1065.76 883.557 L1065.76 892.802 L1063.09 892.802 L1063.09 890.342 Q1062.18 891.818 1060.82 892.527 Q1059.46 893.221 1057.5 893.221 Q1055.01 893.221 1053.53 891.833 Q1052.07 890.429 1052.07 888.086 Q1052.07 885.351 1053.89 883.962 Q1055.73 882.573 1059.36 882.573 L1063.09 882.573 L1063.09 882.313 Q1063.09 880.476 1061.88 879.477 Q1060.68 878.465 1058.49 878.465 Q1057.1 878.465 1055.79 878.797 Q1054.47 879.13 1053.26 879.796 L1053.26 877.336 Q1054.72 876.772 1056.09 876.497 Q1057.47 876.208 1058.77 876.208 Q1062.28 876.208 1064.02 878.031 Q1065.76 879.854 1065.76 883.557 Z" fill="#000000" fill-rule="evenodd" fill-opacity="1" /><path clip-path="url(#clip250)" d="M 0 0 M1082.02 883.022 L1082.02 892.802 L1079.36 892.802 L1079.36 883.109 Q1079.36 880.808 1078.46 879.665 Q1077.56 878.522 1075.77 878.522 Q1073.61 878.522 1072.37 879.897 Q1071.12 881.271 1071.12 883.644 L1071.12 892.802 L1068.45 892.802 L1068.45 876.598 L1071.12 876.598 L1071.12 879.116 Q1072.08 877.654 1073.37 876.931 Q1074.67 876.208 1076.36 876.208 Q1079.15 876.208 1080.59 877.944 Q1082.02 879.665 1082.02 883.022 Z" fill="#000000" fill-rule="evenodd" fill-opacity="1" /><path clip-path="url(#clip250)" d="M 0 0 M1095.47 879.058 L1095.47 870.29 L1098.13 870.29 L1098.13 892.802 L1095.47 892.802 L1095.47 890.371 Q1094.63 891.818 1093.35 892.527 Q1092.07 893.221 1090.28 893.221 Q1087.34 893.221 1085.49 890.878 Q1083.65 888.534 1083.65 884.715 Q1083.65 880.895 1085.49 878.551 Q1087.34 876.208 1090.28 876.208 Q1092.07 876.208 1093.35 876.917 Q1094.63 877.611 1095.47 879.058 M1086.4 884.715 Q1086.4 887.651 1087.6 889.33 Q1088.82 890.993 1090.93 890.993 Q1093.04 890.993 1094.26 889.33 Q1095.47 887.651 1095.47 884.715 Q1095.47 881.778 1094.26 880.114 Q1093.04 878.436 1090.93 878.436 Q1088.82 878.436 1087.6 880.114 Q1086.4 881.778 1086.4 884.715 Z" fill="#000000" fill-rule="evenodd" fill-opacity="1" /><path clip-path="url(#clip250)" d="M 0 0 M1113.24 897.721 L1113.24 899.79 L1097.85 899.79 L1097.85 897.721 L1113.24 897.721 Z" fill="#000000" fill-rule="evenodd" fill-opacity="1" /><path clip-path="url(#clip250)" d="M 0 0 M1132.32 872.866 L1132.32 875.947 Q1130.85 874.573 1129.17 873.893 Q1127.5 873.213 1125.62 873.213 Q1121.92 873.213 1119.95 875.484 Q1117.98 877.741 1117.98 882.024 Q1117.98 886.292 1119.95 888.563 Q1121.92 890.82 1125.62 890.82 Q1127.5 890.82 1129.17 890.14 Q1130.85 889.46 1132.32 888.086 L1132.32 891.138 Q1130.79 892.18 1129.07 892.701 Q1127.36 893.221 1125.45 893.221 Q1120.54 893.221 1117.72 890.227 Q1114.9 887.217 1114.9 882.024 Q1114.9 876.815 1117.72 873.821 Q1120.54 870.811 1125.45 870.811 Q1127.39 870.811 1129.1 871.332 Q1130.82 871.838 1132.32 872.866 Z" fill="#000000" fill-rule="evenodd" fill-opacity="1" /><path clip-path="url(#clip250)" d="M 0 0 M1141.39 878.465 Q1139.25 878.465 1138.01 880.143 Q1136.76 881.807 1136.76 884.715 Q1136.76 887.623 1137.99 889.301 Q1139.24 890.965 1141.39 890.965 Q1143.52 890.965 1144.76 889.286 Q1146.01 887.608 1146.01 884.715 Q1146.01 881.836 1144.76 880.157 Q1143.52 878.465 1141.39 878.465 M1141.39 876.208 Q1144.86 876.208 1146.85 878.465 Q1148.83 880.722 1148.83 884.715 Q1148.83 888.693 1146.85 890.965 Q1144.86 893.221 1141.39 893.221 Q1137.91 893.221 1135.92 890.965 Q1133.96 888.693 1133.96 884.715 Q1133.96 880.722 1135.92 878.465 Q1137.91 876.208 1141.39 876.208 Z" fill="#000000" fill-rule="evenodd" fill-opacity="1" /><path clip-path="url(#clip250)" d="M 0 0 M1165.09 883.022 L1165.09 892.802 L1162.43 892.802 L1162.43 883.109 Q1162.43 880.808 1161.53 879.665 Q1160.63 878.522 1158.84 878.522 Q1156.68 878.522 1155.44 879.897 Q1154.2 881.271 1154.2 883.644 L1154.2 892.802 L1151.52 892.802 L1151.52 876.598 L1154.2 876.598 L1154.2 879.116 Q1155.15 877.654 1156.44 876.931 Q1157.74 876.208 1159.43 876.208 Q1162.23 876.208 1163.66 877.944 Q1165.09 879.665 1165.09 883.022 Z" fill="#000000" fill-rule="evenodd" fill-opacity="1" /><path clip-path="url(#clip250)" d="M 0 0 M1178.21 877.076 L1178.21 879.593 Q1177.08 879.014 1175.87 878.725 Q1174.65 878.436 1173.35 878.436 Q1171.37 878.436 1170.37 879.043 Q1169.39 879.651 1169.39 880.866 Q1169.39 881.792 1170.1 882.327 Q1170.8 882.848 1172.95 883.326 L1173.86 883.528 Q1176.69 884.136 1177.88 885.25 Q1179.08 886.349 1179.08 888.331 Q1179.08 890.588 1177.29 891.905 Q1175.51 893.221 1172.38 893.221 Q1171.08 893.221 1169.66 892.961 Q1168.26 892.715 1166.7 892.209 L1166.7 889.46 Q1168.17 890.227 1169.6 890.617 Q1171.04 890.993 1172.44 890.993 Q1174.32 890.993 1175.33 890.357 Q1176.35 889.706 1176.35 888.534 Q1176.35 887.449 1175.61 886.87 Q1174.88 886.292 1172.41 885.756 L1171.48 885.539 Q1169.01 885.018 1167.91 883.948 Q1166.81 882.863 1166.81 880.982 Q1166.81 878.696 1168.43 877.452 Q1170.05 876.208 1173.03 876.208 Q1174.51 876.208 1175.81 876.425 Q1177.11 876.642 1178.21 877.076 Z" fill="#000000" fill-rule="evenodd" fill-opacity="1" /><path clip-path="url(#clip250)" d="M 0 0 M1181.6 886.407 L1181.6 876.598 L1184.26 876.598 L1184.26 886.306 Q1184.26 888.606 1185.16 889.764 Q1186.05 890.907 1187.85 890.907 Q1190 890.907 1191.25 889.532 Q1192.51 888.158 1192.51 885.785 L1192.51 876.598 L1195.17 876.598 L1195.17 892.802 L1192.51 892.802 L1192.51 890.314 Q1191.54 891.789 1190.25 892.513 Q1188.98 893.221 1187.28 893.221 Q1184.49 893.221 1183.04 891.485 Q1181.6 889.749 1181.6 886.407 M1188.3 876.208 L1188.3 876.208 Z" fill="#000000" fill-rule="evenodd" fill-opacity="1" /><path clip-path="url(#clip250)" d="M 0 0 M1197.96 870.29 L1200.62 870.29 L1200.62 892.802 L1197.96 892.802 L1197.96 870.29 Z" fill="#000000" fill-rule="evenodd" fill-opacity="1" /><path clip-path="url(#clip250)" d="M 0 0 M1206.05 871.998 L1206.05 876.598 L1211.53 876.598 L1211.53 878.667 L1206.05 878.667 L1206.05 887.463 Q1206.05 889.445 1206.58 890.01 Q1207.13 890.574 1208.8 890.574 L1211.53 890.574 L1211.53 892.802 L1208.8 892.802 Q1205.72 892.802 1204.54 891.659 Q1203.37 890.502 1203.37 887.463 L1203.37 878.667 L1201.42 878.667 L1201.42 876.598 L1203.37 876.598 L1203.37 871.998 L1206.05 871.998 Z" fill="#000000" fill-rule="evenodd" fill-opacity="1" /><path clip-path="url(#clip250)" d="M 0 0 M1221.69 884.657 Q1218.46 884.657 1217.22 885.395 Q1215.97 886.132 1215.97 887.912 Q1215.97 889.33 1216.9 890.169 Q1217.84 890.993 1219.44 890.993 Q1221.66 890.993 1222.99 889.431 Q1224.33 887.854 1224.33 885.25 L1224.33 884.657 L1221.69 884.657 M1227 883.557 L1227 892.802 L1224.33 892.802 L1224.33 890.342 Q1223.42 891.818 1222.06 892.527 Q1220.7 893.221 1218.74 893.221 Q1216.25 893.221 1214.77 891.833 Q1213.31 890.429 1213.31 888.086 Q1213.31 885.351 1215.13 883.962 Q1216.97 882.573 1220.6 882.573 L1224.33 882.573 L1224.33 882.313 Q1224.33 880.476 1223.12 879.477 Q1221.92 878.465 1219.73 878.465 Q1218.35 878.465 1217.03 878.797 Q1215.71 879.13 1214.5 879.796 L1214.5 877.336 Q1215.96 876.772 1217.33 876.497 Q1218.71 876.208 1220.01 876.208 Q1223.52 876.208 1225.26 878.031 Q1227 879.854 1227 883.557 Z" fill="#000000" fill-rule="evenodd" fill-opacity="1" /><path clip-path="url(#clip250)" d="M 0 0 M1243.26 883.022 L1243.26 892.802 L1240.6 892.802 L1240.6 883.109 Q1240.6 880.808 1239.7 879.665 Q1238.8 878.522 1237.01 878.522 Q1234.85 878.522 1233.61 879.897 Q1232.36 881.271 1232.36 883.644 L1232.36 892.802 L1229.69 892.802 L1229.69 876.598 L1232.36 876.598 L1232.36 879.116 Q1233.32 877.654 1234.61 876.931 Q1235.91 876.208 1237.6 876.208 Q1240.39 876.208 1241.83 877.944 Q1243.26 879.665 1243.26 883.022 Z" fill="#000000" fill-rule="evenodd" fill-opacity="1" /><path clip-path="url(#clip250)" d="M 0 0 M1248.68 871.998 L1248.68 876.598 L1254.17 876.598 L1254.17 878.667 L1248.68 878.667 L1248.68 887.463 Q1248.68 889.445 1249.22 890.01 Q1249.77 890.574 1251.43 890.574 L1254.17 890.574 L1254.17 892.802 L1251.43 892.802 Q1248.35 892.802 1247.18 891.659 Q1246.01 890.502 1246.01 887.463 L1246.01 878.667 L1244.05 878.667 L1244.05 876.598 L1246.01 876.598 L1246.01 871.998 L1248.68 871.998 Z" fill="#000000" fill-rule="evenodd" fill-opacity="1" /><path clip-path="url(#clip250)" d="M 0 0 M1269.27 897.721 L1269.27 899.79 L1253.88 899.79 L1253.88 897.721 L1269.27 897.721 Z" fill="#000000" fill-rule="evenodd" fill-opacity="1" /><path clip-path="url(#clip250)" d="M 0 0 M1282.42 882.675 Q1283.36 882.993 1284.24 884.035 Q1285.14 885.076 1286.04 886.899 L1289 892.802 L1285.87 892.802 L1283.1 887.261 Q1282.03 885.091 1281.02 884.382 Q1280.02 883.673 1278.28 883.673 L1275.1 883.673 L1275.1 892.802 L1272.18 892.802 L1272.18 871.202 L1278.78 871.202 Q1282.48 871.202 1284.3 872.75 Q1286.13 874.298 1286.13 877.423 Q1286.13 879.463 1285.17 880.808 Q1284.23 882.154 1282.42 882.675 M1275.1 873.604 L1275.1 881.271 L1278.78 881.271 Q1280.89 881.271 1281.96 880.302 Q1283.04 879.318 1283.04 877.423 Q1283.04 875.528 1281.96 874.573 Q1280.89 873.604 1278.78 873.604 L1275.1 873.604 Z" fill="#000000" fill-rule="evenodd" fill-opacity="1" /><path clip-path="url(#clip250)" d="M 0 0 M1304.33 884.035 L1304.33 885.337 L1292.09 885.337 Q1292.26 888.086 1293.74 889.532 Q1295.23 890.965 1297.87 890.965 Q1299.41 890.965 1300.84 890.588 Q1302.29 890.212 1303.7 889.46 L1303.7 891.977 Q1302.27 892.585 1300.77 892.903 Q1299.26 893.221 1297.71 893.221 Q1293.84 893.221 1291.57 890.965 Q1289.31 888.708 1289.31 884.859 Q1289.31 880.881 1291.45 878.551 Q1293.61 876.208 1297.25 876.208 Q1300.52 876.208 1302.42 878.32 Q1304.33 880.418 1304.33 884.035 M1301.66 883.253 Q1301.63 881.069 1300.43 879.767 Q1299.25 878.465 1297.28 878.465 Q1295.05 878.465 1293.71 879.723 Q1292.38 880.982 1292.17 883.268 L1301.66 883.253 Z" fill="#000000" fill-rule="evenodd" fill-opacity="1" /><path clip-path="url(#clip250)" d="M 0 0 M1308.71 884.715 Q1308.71 887.651 1309.91 889.33 Q1311.13 890.993 1313.24 890.993 Q1315.35 890.993 1316.57 889.33 Q1317.78 887.651 1317.78 884.715 Q1317.78 881.778 1316.57 880.114 Q1315.35 878.436 1313.24 878.436 Q1311.13 878.436 1309.91 880.114 Q1308.71 881.778 1308.71 884.715 M1317.78 890.371 Q1316.94 891.818 1315.65 892.527 Q1314.38 893.221 1312.59 893.221 Q1309.65 893.221 1307.8 890.878 Q1305.96 888.534 1305.96 884.715 Q1305.96 880.895 1307.8 878.551 Q1309.65 876.208 1312.59 876.208 Q1314.38 876.208 1315.65 876.917 Q1316.94 877.611 1317.78 879.058 L1317.78 876.598 L1320.44 876.598 L1320.44 898.965 L1317.78 898.965 L1317.78 890.371 Z" fill="#000000" fill-rule="evenodd" fill-opacity="1" /><path clip-path="url(#clip250)" d="M 0 0 M1322.96 886.407 L1322.96 876.598 L1325.62 876.598 L1325.62 886.306 Q1325.62 888.606 1326.52 889.764 Q1327.42 890.907 1329.21 890.907 Q1331.37 890.907 1332.61 889.532 Q1333.87 888.158 1333.87 885.785 L1333.87 876.598 L1336.53 876.598 L1336.53 892.802 L1333.87 892.802 L1333.87 890.314 Q1332.9 891.789 1331.61 892.513 Q1330.34 893.221 1328.65 893.221 Q1325.85 893.221 1324.41 891.485 Q1322.96 889.749 1322.96 886.407 M1329.66 876.208 L1329.66 876.208 Z" fill="#000000" fill-rule="evenodd" fill-opacity="1" /><path clip-path="url(#clip250)" d="M 0 0 M1353.18 884.035 L1353.18 885.337 L1340.94 885.337 Q1341.12 888.086 1342.59 889.532 Q1344.08 890.965 1346.73 890.965 Q1348.26 890.965 1349.7 890.588 Q1351.14 890.212 1352.56 889.46 L1352.56 891.977 Q1351.13 892.585 1349.62 892.903 Q1348.12 893.221 1346.57 893.221 Q1342.69 893.221 1340.42 890.965 Q1338.17 888.708 1338.17 884.859 Q1338.17 880.881 1340.31 878.551 Q1342.46 876.208 1346.11 876.208 Q1349.38 876.208 1351.27 878.32 Q1353.18 880.418 1353.18 884.035 M1350.52 883.253 Q1350.49 881.069 1349.29 879.767 Q1348.1 878.465 1346.14 878.465 Q1343.91 878.465 1342.56 879.723 Q1341.23 880.982 1341.03 883.268 L1350.52 883.253 Z" fill="#000000" fill-rule="evenodd" fill-opacity="1" /><path clip-path="url(#clip250)" d="M 0 0 M1366.3 877.076 L1366.3 879.593 Q1365.18 879.014 1363.96 878.725 Q1362.75 878.436 1361.44 878.436 Q1359.46 878.436 1358.46 879.043 Q1357.48 879.651 1357.48 880.866 Q1357.48 881.792 1358.19 882.327 Q1358.9 882.848 1361.04 883.326 L1361.95 883.528 Q1364.79 884.136 1365.97 885.25 Q1367.17 886.349 1367.17 888.331 Q1367.17 890.588 1365.38 891.905 Q1363.6 893.221 1360.47 893.221 Q1359.17 893.221 1357.75 892.961 Q1356.35 892.715 1354.79 892.209 L1354.79 889.46 Q1356.26 890.227 1357.7 890.617 Q1359.13 890.993 1360.53 890.993 Q1362.41 890.993 1363.43 890.357 Q1364.44 889.706 1364.44 888.534 Q1364.44 887.449 1363.7 886.87 Q1362.98 886.292 1360.5 885.756 L1359.58 885.539 Q1357.1 885.018 1356 883.948 Q1354.9 882.863 1354.9 880.982 Q1354.9 878.696 1356.52 877.452 Q1358.14 876.208 1361.13 876.208 Q1362.6 876.208 1363.9 876.425 Q1365.2 876.642 1366.3 877.076 Z" fill="#000000" fill-rule="evenodd" fill-opacity="1" /><path clip-path="url(#clip250)" d="M 0 0 M1372.6 871.998 L1372.6 876.598 L1378.08 876.598 L1378.08 878.667 L1372.6 878.667 L1372.6 887.463 Q1372.6 889.445 1373.13 890.01 Q1373.68 890.574 1375.35 890.574 L1378.08 890.574 L1378.08 892.802 L1375.35 892.802 Q1372.27 892.802 1371.09 891.659 Q1369.92 890.502 1369.92 887.463 L1369.92 878.667 L1367.97 878.667 L1367.97 876.598 L1369.92 876.598 L1369.92 871.998 L1372.6 871.998 Z" fill="#000000" fill-rule="evenodd" fill-opacity="1" /><path clip-path="url(#clip250)" d="M 0 0 M1391.2 877.076 L1391.2 879.593 Q1390.07 879.014 1388.86 878.725 Q1387.64 878.436 1386.34 878.436 Q1384.36 878.436 1383.36 879.043 Q1382.38 879.651 1382.38 880.866 Q1382.38 881.792 1383.09 882.327 Q1383.8 882.848 1385.94 883.326 L1386.85 883.528 Q1389.68 884.136 1390.87 885.25 Q1392.07 886.349 1392.07 888.331 Q1392.07 890.588 1390.28 891.905 Q1388.5 893.221 1385.37 893.221 Q1384.07 893.221 1382.65 892.961 Q1381.25 892.715 1379.69 892.209 L1379.69 889.46 Q1381.16 890.227 1382.59 890.617 Q1384.03 890.993 1385.43 890.993 Q1387.31 890.993 1388.32 890.357 Q1389.34 889.706 1389.34 888.534 Q1389.34 887.449 1388.6 886.87 Q1387.88 886.292 1385.4 885.756 L1384.48 885.539 Q1382 885.018 1380.9 883.948 Q1379.8 882.863 1379.8 880.982 Q1379.8 878.696 1381.42 877.452 Q1383.04 876.208 1386.02 876.208 Q1387.5 876.208 1388.8 876.425 Q1390.1 876.642 1391.2 877.076 Z" fill="#000000" fill-rule="evenodd" fill-opacity="1" /><path clip-path="url(#clip250)" d="M 0 0 M1511.79 683.758 L1511.79 700.555 L1515.33 700.555 Q1519.8 700.555 1521.86 698.529 Q1523.95 696.504 1523.95 692.135 Q1523.95 687.795 1521.86 685.784 Q1519.8 683.758 1515.33 683.758 L1511.79 683.758 M1508.87 681.357 L1514.88 681.357 Q1521.16 681.357 1524.09 683.975 Q1527.03 686.579 1527.03 692.135 Q1527.03 697.719 1524.08 700.338 Q1521.13 702.957 1514.88 702.957 L1508.87 702.957 L1508.87 681.357 Z" fill="#000000" fill-rule="evenodd" fill-opacity="1" /><path clip-path="url(#clip250)" d="M 0 0 M1543.68 694.189 L1543.68 695.491 L1531.44 695.491 Q1531.62 698.24 1533.09 699.687 Q1534.58 701.119 1537.23 701.119 Q1538.76 701.119 1540.19 700.743 Q1541.64 700.367 1543.06 699.615 L1543.06 702.132 Q1541.63 702.74 1540.12 703.058 Q1538.62 703.376 1537.07 703.376 Q1533.19 703.376 1530.92 701.119 Q1528.66 698.862 1528.66 695.014 Q1528.66 691.035 1530.81 688.706 Q1532.96 686.362 1536.61 686.362 Q1539.88 686.362 1541.77 688.475 Q1543.68 690.572 1543.68 694.189 M1541.02 693.408 Q1540.99 691.223 1539.79 689.921 Q1538.6 688.619 1536.64 688.619 Q1534.41 688.619 1533.06 689.878 Q1531.73 691.137 1531.53 693.422 L1541.02 693.408 Z" fill="#000000" fill-rule="evenodd" fill-opacity="1" /><path clip-path="url(#clip250)" d="M 0 0 M1556.8 687.23 L1556.8 689.748 Q1555.67 689.169 1554.46 688.88 Q1553.24 688.59 1551.94 688.59 Q1549.96 688.59 1548.96 689.198 Q1547.98 689.806 1547.98 691.021 Q1547.98 691.947 1548.69 692.482 Q1549.4 693.003 1551.54 693.48 L1552.45 693.683 Q1555.28 694.29 1556.47 695.404 Q1557.67 696.504 1557.67 698.486 Q1557.67 700.743 1555.88 702.06 Q1554.1 703.376 1550.97 703.376 Q1549.67 703.376 1548.25 703.116 Q1546.85 702.87 1545.29 702.363 L1545.29 699.615 Q1546.76 700.381 1548.2 700.772 Q1549.63 701.148 1551.03 701.148 Q1552.91 701.148 1553.92 700.512 Q1554.94 699.86 1554.94 698.689 Q1554.94 697.604 1554.2 697.025 Q1553.48 696.446 1551 695.911 L1550.08 695.694 Q1547.6 695.173 1546.5 694.102 Q1545.4 693.017 1545.4 691.137 Q1545.4 688.851 1547.02 687.606 Q1548.64 686.362 1551.62 686.362 Q1553.1 686.362 1554.4 686.579 Q1555.7 686.796 1556.8 687.23 Z" fill="#000000" fill-rule="evenodd" fill-opacity="1" /><path clip-path="url(#clip250)" d="M 0 0 M1560.46 686.753 L1563.13 686.753 L1563.13 702.957 L1560.46 702.957 L1560.46 686.753 M1560.46 680.445 L1563.13 680.445 L1563.13 683.816 L1560.46 683.816 L1560.46 680.445 Z" fill="#000000" fill-rule="evenodd" fill-opacity="1" /><path clip-path="url(#clip250)" d="M 0 0 M1576.58 694.667 Q1576.58 691.773 1575.38 690.182 Q1574.19 688.59 1572.04 688.59 Q1569.9 688.59 1568.7 690.182 Q1567.51 691.773 1567.51 694.667 Q1567.51 697.546 1568.7 699.137 Q1569.9 700.729 1572.04 700.729 Q1574.19 700.729 1575.38 699.137 Q1576.58 697.546 1576.58 694.667 M1579.24 700.946 Q1579.24 705.083 1577.41 707.094 Q1575.57 709.12 1571.78 709.12 Q1570.37 709.12 1569.13 708.903 Q1567.89 708.7 1566.71 708.266 L1566.71 705.676 Q1567.89 706.313 1569.03 706.617 Q1570.17 706.921 1571.36 706.921 Q1573.98 706.921 1575.28 705.546 Q1576.58 704.186 1576.58 701.423 L1576.58 700.106 Q1575.76 701.539 1574.47 702.248 Q1573.18 702.957 1571.39 702.957 Q1568.41 702.957 1566.58 700.685 Q1564.76 698.414 1564.76 694.667 Q1564.76 690.905 1566.58 688.634 Q1568.41 686.362 1571.39 686.362 Q1573.18 686.362 1574.47 687.071 Q1575.76 687.78 1576.58 689.212 L1576.58 686.753 L1579.24 686.753 L1579.24 700.946 Z" fill="#000000" fill-rule="evenodd" fill-opacity="1" /><path clip-path="url(#clip250)" d="M 0 0 M1595.5 693.176 L1595.5 702.957 L1592.84 702.957 L1592.84 693.263 Q1592.84 690.963 1591.94 689.82 Q1591.05 688.677 1589.25 688.677 Q1587.1 688.677 1585.85 690.051 Q1584.61 691.426 1584.61 693.799 L1584.61 702.957 L1581.93 702.957 L1581.93 686.753 L1584.61 686.753 L1584.61 689.27 Q1585.56 687.809 1586.85 687.086 Q1588.15 686.362 1589.85 686.362 Q1592.64 686.362 1594.07 688.098 Q1595.5 689.82 1595.5 693.176 Z" fill="#000000" fill-rule="evenodd" fill-opacity="1" /><path clip-path="url(#clip250)" d="M 0 0 M1610.61 707.875 L1610.61 709.944 L1595.21 709.944 L1595.21 707.875 L1610.61 707.875 Z" fill="#000000" fill-rule="evenodd" fill-opacity="1" /><path clip-path="url(#clip250)" d="M 0 0 M1623.76 692.829 Q1624.7 693.148 1625.58 694.189 Q1626.48 695.231 1627.38 697.054 L1630.34 702.957 L1627.2 702.957 L1624.44 697.415 Q1623.37 695.245 1622.36 694.536 Q1621.36 693.828 1619.62 693.828 L1616.44 693.828 L1616.44 702.957 L1613.52 702.957 L1613.52 681.357 L1620.11 681.357 Q1623.82 681.357 1625.64 682.905 Q1627.46 684.453 1627.46 687.578 Q1627.46 689.617 1626.51 690.963 Q1625.57 692.308 1623.76 692.829 M1616.44 683.758 L1616.44 691.426 L1620.11 691.426 Q1622.23 691.426 1623.3 690.457 Q1624.38 689.473 1624.38 687.578 Q1624.38 685.682 1623.3 684.727 Q1622.23 683.758 1620.11 683.758 L1616.44 683.758 Z" fill="#000000" fill-rule="evenodd" fill-opacity="1" /><path clip-path="url(#clip250)" d="M 0 0 M1645.66 694.189 L1645.66 695.491 L1633.42 695.491 Q1633.6 698.24 1635.07 699.687 Q1636.56 701.119 1639.21 701.119 Q1640.74 701.119 1642.18 700.743 Q1643.62 700.367 1645.04 699.615 L1645.04 702.132 Q1643.61 702.74 1642.1 703.058 Q1640.6 703.376 1639.05 703.376 Q1635.17 703.376 1632.9 701.119 Q1630.65 698.862 1630.65 695.014 Q1630.65 691.035 1632.79 688.706 Q1634.94 686.362 1638.59 686.362 Q1641.86 686.362 1643.75 688.475 Q1645.66 690.572 1645.66 694.189 M1643 693.408 Q1642.97 691.223 1641.77 689.921 Q1640.58 688.619 1638.62 688.619 Q1636.39 688.619 1635.04 689.878 Q1633.71 691.137 1633.51 693.422 L1643 693.408 Z" fill="#000000" fill-rule="evenodd" fill-opacity="1" /><path clip-path="url(#clip250)" d="M 0 0 M1655.82 694.811 Q1652.59 694.811 1651.35 695.549 Q1650.1 696.287 1650.1 698.067 Q1650.1 699.484 1651.03 700.323 Q1651.97 701.148 1653.58 701.148 Q1655.79 701.148 1657.12 699.586 Q1658.47 698.009 1658.47 695.404 L1658.47 694.811 L1655.82 694.811 M1661.13 693.712 L1661.13 702.957 L1658.47 702.957 L1658.47 700.497 Q1657.56 701.973 1656.2 702.682 Q1654.84 703.376 1652.87 703.376 Q1650.38 703.376 1648.9 701.987 Q1647.44 700.584 1647.44 698.24 Q1647.44 695.506 1649.27 694.117 Q1651.1 692.728 1654.73 692.728 L1658.47 692.728 L1658.47 692.468 Q1658.47 690.63 1657.25 689.632 Q1656.05 688.619 1653.87 688.619 Q1652.48 688.619 1651.16 688.952 Q1649.84 689.285 1648.63 689.95 L1648.63 687.491 Q1650.09 686.927 1651.46 686.652 Q1652.84 686.362 1654.14 686.362 Q1657.66 686.362 1659.39 688.185 Q1661.13 690.008 1661.13 693.712 Z" fill="#000000" fill-rule="evenodd" fill-opacity="1" /><path clip-path="url(#clip250)" d="M 0 0 M1674.25 687.23 L1674.25 689.748 Q1673.12 689.169 1671.91 688.88 Q1670.69 688.59 1669.39 688.59 Q1667.41 688.59 1666.41 689.198 Q1665.43 689.806 1665.43 691.021 Q1665.43 691.947 1666.13 692.482 Q1666.84 693.003 1668.98 693.48 L1669.9 693.683 Q1672.73 694.29 1673.92 695.404 Q1675.12 696.504 1675.12 698.486 Q1675.12 700.743 1673.32 702.06 Q1671.55 703.376 1668.42 703.376 Q1667.12 703.376 1665.7 703.116 Q1664.3 702.87 1662.73 702.363 L1662.73 699.615 Q1664.21 700.381 1665.64 700.772 Q1667.07 701.148 1668.48 701.148 Q1670.36 701.148 1671.37 700.512 Q1672.38 699.86 1672.38 698.689 Q1672.38 697.604 1671.65 697.025 Q1670.92 696.446 1668.45 695.911 L1667.52 695.694 Q1665.05 695.173 1663.95 694.102 Q1662.85 693.017 1662.85 691.137 Q1662.85 688.851 1664.47 687.606 Q1666.09 686.362 1669.07 686.362 Q1670.55 686.362 1671.85 686.579 Q1673.15 686.796 1674.25 687.23 Z" fill="#000000" fill-rule="evenodd" fill-opacity="1" /><path clip-path="url(#clip250)" d="M 0 0 M1684.19 688.619 Q1682.05 688.619 1680.8 690.297 Q1679.56 691.961 1679.56 694.869 Q1679.56 697.777 1680.79 699.455 Q1682.03 701.119 1684.19 701.119 Q1686.32 701.119 1687.56 699.441 Q1688.8 697.763 1688.8 694.869 Q1688.8 691.99 1687.56 690.312 Q1686.32 688.619 1684.19 688.619 M1684.19 686.362 Q1687.66 686.362 1689.64 688.619 Q1691.63 690.876 1691.63 694.869 Q1691.63 698.848 1689.64 701.119 Q1687.66 703.376 1684.19 703.376 Q1680.7 703.376 1678.72 701.119 Q1676.75 698.848 1676.75 694.869 Q1676.75 690.876 1678.72 688.619 Q1680.7 686.362 1684.19 686.362 Z" fill="#000000" fill-rule="evenodd" fill-opacity="1" /><path clip-path="url(#clip250)" d="M 0 0 M1707.89 693.176 L1707.89 702.957 L1705.23 702.957 L1705.23 693.263 Q1705.23 690.963 1704.33 689.82 Q1703.43 688.677 1701.64 688.677 Q1699.48 688.677 1698.24 690.051 Q1696.99 691.426 1696.99 693.799 L1696.99 702.957 L1694.32 702.957 L1694.32 686.753 L1696.99 686.753 L1696.99 689.27 Q1697.95 687.809 1699.24 687.086 Q1700.54 686.362 1702.23 686.362 Q1705.02 686.362 1706.46 688.098 Q1707.89 689.82 1707.89 693.176 Z" fill="#000000" fill-rule="evenodd" fill-opacity="1" /><path clip-path="url(#clip250)" d="M 0 0 M1710.68 686.753 L1713.34 686.753 L1713.34 702.957 L1710.68 702.957 L1710.68 686.753 M1710.68 680.445 L1713.34 680.445 L1713.34 683.816 L1710.68 683.816 L1710.68 680.445 Z" fill="#000000" fill-rule="evenodd" fill-opacity="1" /><path clip-path="url(#clip250)" d="M 0 0 M1729.6 693.176 L1729.6 702.957 L1726.94 702.957 L1726.94 693.263 Q1726.94 690.963 1726.04 689.82 Q1725.15 688.677 1723.35 688.677 Q1721.2 688.677 1719.95 690.051 Q1718.71 691.426 1718.71 693.799 L1718.71 702.957 L1716.03 702.957 L1716.03 686.753 L1718.71 686.753 L1718.71 689.27 Q1719.66 687.809 1720.95 687.086 Q1722.25 686.362 1723.95 686.362 Q1726.74 686.362 1728.17 688.098 Q1729.6 689.82 1729.6 693.176 Z" fill="#000000" fill-rule="evenodd" fill-opacity="1" /><path clip-path="url(#clip250)" d="M 0 0 M1743.06 694.667 Q1743.06 691.773 1741.86 690.182 Q1740.67 688.59 1738.52 688.59 Q1736.37 688.59 1735.17 690.182 Q1733.99 691.773 1733.99 694.667 Q1733.99 697.546 1735.17 699.137 Q1736.37 700.729 1738.52 700.729 Q1740.67 700.729 1741.86 699.137 Q1743.06 697.546 1743.06 694.667 M1745.72 700.946 Q1745.72 705.083 1743.88 707.094 Q1742.05 709.12 1738.25 709.12 Q1736.85 709.12 1735.61 708.903 Q1734.36 708.7 1733.19 708.266 L1733.19 705.676 Q1734.36 706.313 1735.51 706.617 Q1736.65 706.921 1737.84 706.921 Q1740.45 706.921 1741.76 705.546 Q1743.06 704.186 1743.06 701.423 L1743.06 700.106 Q1742.23 701.539 1740.95 702.248 Q1739.66 702.957 1737.86 702.957 Q1734.88 702.957 1733.06 700.685 Q1731.24 698.414 1731.24 694.667 Q1731.24 690.905 1733.06 688.634 Q1734.88 686.362 1737.86 686.362 Q1739.66 686.362 1740.95 687.071 Q1742.23 687.78 1743.06 689.212 L1743.06 686.753 L1745.72 686.753 L1745.72 700.946 Z" fill="#000000" fill-rule="evenodd" fill-opacity="1" /><path clip-path="url(#clip250)" d="M 0 0 M504.182 1034.6 L504.182 1037.68 Q502.706 1036.3 501.028 1035.62 Q499.364 1034.94 497.483 1034.94 Q493.779 1034.94 491.812 1037.22 Q489.844 1039.47 489.844 1043.75 Q489.844 1048.02 491.812 1050.29 Q493.779 1052.55 497.483 1052.55 Q499.364 1052.55 501.028 1051.87 Q502.706 1051.19 504.182 1049.82 L504.182 1052.87 Q502.648 1053.91 500.926 1054.43 Q499.219 1054.95 497.31 1054.95 Q492.405 1054.95 489.584 1051.96 Q486.763 1048.95 486.763 1043.75 Q486.763 1038.55 489.584 1035.55 Q492.405 1032.54 497.31 1032.54 Q499.248 1032.54 500.955 1033.06 Q502.677 1033.57 504.182 1034.6 Z" fill="#000000" fill-rule="evenodd" fill-opacity="1" /><path clip-path="url(#clip250)" d="M 0 0 M513.253 1040.2 Q511.112 1040.2 509.867 1041.87 Q508.623 1043.54 508.623 1046.45 Q508.623 1049.35 509.853 1051.03 Q511.097 1052.7 513.253 1052.7 Q515.379 1052.7 516.624 1051.02 Q517.868 1049.34 517.868 1046.45 Q517.868 1043.57 516.624 1041.89 Q515.379 1040.2 513.253 1040.2 M513.253 1037.94 Q516.725 1037.94 518.707 1040.2 Q520.689 1042.45 520.689 1046.45 Q520.689 1050.42 518.707 1052.7 Q516.725 1054.95 513.253 1054.95 Q509.766 1054.95 507.784 1052.7 Q505.816 1050.42 505.816 1046.45 Q505.816 1042.45 507.784 1040.2 Q509.766 1037.94 513.253 1037.94 Z" fill="#000000" fill-rule="evenodd" fill-opacity="1" /><path clip-path="url(#clip250)" d="M 0 0 M523.481 1032.02 L526.143 1032.02 L526.143 1054.53 L523.481 1054.53 L523.481 1032.02 Z" fill="#000000" fill-rule="evenodd" fill-opacity="1" /><path clip-path="url(#clip250)" d="M 0 0 M528.936 1032.02 L531.598 1032.02 L531.598 1054.53 L528.936 1054.53 L528.936 1032.02 Z" fill="#000000" fill-rule="evenodd" fill-opacity="1" /><path clip-path="url(#clip250)" d="M 0 0 M541.754 1046.39 Q538.527 1046.39 537.283 1047.13 Q536.039 1047.86 536.039 1049.64 Q536.039 1051.06 536.965 1051.9 Q537.905 1052.72 539.511 1052.72 Q541.725 1052.72 543.056 1051.16 Q544.401 1049.59 544.401 1046.98 L544.401 1046.39 L541.754 1046.39 M547.063 1045.29 L547.063 1054.53 L544.401 1054.53 L544.401 1052.07 Q543.49 1053.55 542.13 1054.26 Q540.77 1054.95 538.802 1054.95 Q536.314 1054.95 534.838 1053.56 Q533.377 1052.16 533.377 1049.82 Q533.377 1047.08 535.2 1045.69 Q537.037 1044.3 540.669 1044.3 L544.401 1044.3 L544.401 1044.04 Q544.401 1042.21 543.186 1041.21 Q541.985 1040.2 539.801 1040.2 Q538.412 1040.2 537.095 1040.53 Q535.779 1040.86 534.563 1041.53 L534.563 1039.07 Q536.025 1038.5 537.399 1038.23 Q538.773 1037.94 540.075 1037.94 Q543.591 1037.94 545.327 1039.76 Q547.063 1041.58 547.063 1045.29 Z" fill="#000000" fill-rule="evenodd" fill-opacity="1" /><path clip-path="url(#clip250)" d="M 0 0 M561.487 1046.45 Q561.487 1043.51 560.272 1041.85 Q559.071 1040.17 556.959 1040.17 Q554.847 1040.17 553.632 1041.85 Q552.431 1043.51 552.431 1046.45 Q552.431 1049.38 553.632 1051.06 Q554.847 1052.72 556.959 1052.72 Q559.071 1052.72 560.272 1051.06 Q561.487 1049.38 561.487 1046.45 M552.431 1040.79 Q553.27 1039.34 554.543 1038.65 Q555.831 1037.94 557.61 1037.94 Q560.561 1037.94 562.399 1040.28 Q564.251 1042.63 564.251 1046.45 Q564.251 1050.27 562.399 1052.61 Q560.561 1054.95 557.61 1054.95 Q555.831 1054.95 554.543 1054.26 Q553.27 1053.55 552.431 1052.1 L552.431 1054.53 L549.754 1054.53 L549.754 1032.02 L552.431 1032.02 L552.431 1040.79 Z" fill="#000000" fill-rule="evenodd" fill-opacity="1" /><path clip-path="url(#clip250)" d="M 0 0 M573.322 1040.2 Q571.181 1040.2 569.936 1041.87 Q568.692 1043.54 568.692 1046.45 Q568.692 1049.35 569.922 1051.03 Q571.166 1052.7 573.322 1052.7 Q575.449 1052.7 576.693 1051.02 Q577.937 1049.34 577.937 1046.45 Q577.937 1043.57 576.693 1041.89 Q575.449 1040.2 573.322 1040.2 M573.322 1037.94 Q576.794 1037.94 578.776 1040.2 Q580.758 1042.45 580.758 1046.45 Q580.758 1050.42 578.776 1052.7 Q576.794 1054.95 573.322 1054.95 Q569.835 1054.95 567.853 1052.7 Q565.886 1050.42 565.886 1046.45 Q565.886 1042.45 567.853 1040.2 Q569.835 1037.94 573.322 1037.94 Z" fill="#000000" fill-rule="evenodd" fill-opacity="1" /><path clip-path="url(#clip250)" d="M 0 0 M592.94 1040.82 Q592.491 1040.56 591.956 1040.44 Q591.435 1040.31 590.799 1040.31 Q588.542 1040.31 587.326 1041.79 Q586.126 1043.25 586.126 1046 L586.126 1054.53 L583.449 1054.53 L583.449 1038.33 L586.126 1038.33 L586.126 1040.85 Q586.965 1039.37 588.31 1038.66 Q589.656 1037.94 591.58 1037.94 Q591.855 1037.94 592.187 1037.98 Q592.52 1038.01 592.925 1038.08 L592.94 1040.82 Z" fill="#000000" fill-rule="evenodd" fill-opacity="1" /><path clip-path="url(#clip250)" d="M 0 0 M603.096 1046.39 Q599.87 1046.39 598.626 1047.13 Q597.381 1047.86 597.381 1049.64 Q597.381 1051.06 598.307 1051.9 Q599.248 1052.72 600.854 1052.72 Q603.067 1052.72 604.398 1051.16 Q605.744 1049.59 605.744 1046.98 L605.744 1046.39 L603.096 1046.39 M608.406 1045.29 L608.406 1054.53 L605.744 1054.53 L605.744 1052.07 Q604.832 1053.55 603.472 1054.26 Q602.112 1054.95 600.145 1054.95 Q597.656 1054.95 596.181 1053.56 Q594.719 1052.16 594.719 1049.82 Q594.719 1047.08 596.542 1045.69 Q598.38 1044.3 602.011 1044.3 L605.744 1044.3 L605.744 1044.04 Q605.744 1042.21 604.528 1041.21 Q603.327 1040.2 601.143 1040.2 Q599.754 1040.2 598.437 1040.53 Q597.121 1040.86 595.906 1041.53 L595.906 1039.07 Q597.367 1038.5 598.741 1038.23 Q600.116 1037.94 601.418 1037.94 Q604.933 1037.94 606.669 1039.76 Q608.406 1041.58 608.406 1045.29 Z" fill="#000000" fill-rule="evenodd" fill-opacity="1" /><path clip-path="url(#clip250)" d="M 0 0 M613.831 1033.73 L613.831 1038.33 L619.314 1038.33 L619.314 1040.4 L613.831 1040.4 L613.831 1049.19 Q613.831 1051.18 614.366 1051.74 Q614.916 1052.31 616.58 1052.31 L619.314 1052.31 L619.314 1054.53 L616.58 1054.53 Q613.498 1054.53 612.326 1053.39 Q611.154 1052.23 611.154 1049.19 L611.154 1040.4 L609.201 1040.4 L609.201 1038.33 L611.154 1038.33 L611.154 1033.73 L613.831 1033.73 Z" fill="#000000" fill-rule="evenodd" fill-opacity="1" /><path clip-path="url(#clip250)" d="M 0 0 M622.106 1038.33 L624.768 1038.33 L624.768 1054.53 L622.106 1054.53 L622.106 1038.33 M622.106 1032.02 L624.768 1032.02 L624.768 1035.39 L622.106 1035.39 L622.106 1032.02 Z" fill="#000000" fill-rule="evenodd" fill-opacity="1" /><path clip-path="url(#clip250)" d="M 0 0 M633.839 1040.2 Q631.698 1040.2 630.454 1041.87 Q629.21 1043.54 629.21 1046.45 Q629.21 1049.35 630.44 1051.03 Q631.684 1052.7 633.839 1052.7 Q635.966 1052.7 637.21 1051.02 Q638.455 1049.34 638.455 1046.45 Q638.455 1043.57 637.21 1041.89 Q635.966 1040.2 633.839 1040.2 M633.839 1037.94 Q637.312 1037.94 639.294 1040.2 Q641.276 1042.45 641.276 1046.45 Q641.276 1050.42 639.294 1052.7 Q637.312 1054.95 633.839 1054.95 Q630.353 1054.95 628.371 1052.7 Q626.403 1050.42 626.403 1046.45 Q626.403 1042.45 628.371 1040.2 Q630.353 1037.94 633.839 1037.94 Z" fill="#000000" fill-rule="evenodd" fill-opacity="1" /><path clip-path="url(#clip250)" d="M 0 0 M657.537 1044.75 L657.537 1054.53 L654.875 1054.53 L654.875 1044.84 Q654.875 1042.54 653.978 1041.4 Q653.081 1040.25 651.287 1040.25 Q649.132 1040.25 647.887 1041.63 Q646.643 1043 646.643 1045.38 L646.643 1054.53 L643.967 1054.53 L643.967 1038.33 L646.643 1038.33 L646.643 1040.85 Q647.598 1039.39 648.886 1038.66 Q650.188 1037.94 651.88 1037.94 Q654.673 1037.94 656.105 1039.67 Q657.537 1041.4 657.537 1044.75 Z" fill="#000000" fill-rule="evenodd" fill-opacity="1" /><path clip-path="url(#clip252)" d="M1211.75 760.252 L1211.75 792.252 L1243.75 792.252 L1243.75 760.252 L1211.75 760.252 Z" fill="#000000" fill-rule="evenodd" fill-opacity="1" stroke="none"/>
<polyline clip-path="url(#clip252)" style="stroke:#000000; stroke-width:4; stroke-opacity:1; fill:none" stroke-dasharray="16, 10" points="
  1215.23,783.785 1240.26,783.785 
  "/>
<polyline clip-path="url(#clip252)" style="stroke:#000000; stroke-width:4; stroke-opacity:1; fill:none" stroke-dasharray="16, 10" points="
  1215.23,768.719 1240.26,768.719 
  "/>
<polyline clip-path="url(#clip252)" style="stroke:#000000; stroke-width:4; stroke-opacity:1; fill:none" stroke-dasharray="16, 10" points="
  1215.23,783.785 1215.23,768.719 
  "/>
<polyline clip-path="url(#clip252)" style="stroke:#000000; stroke-width:4; stroke-opacity:1; fill:none" stroke-dasharray="16, 10" points="
  1240.26,783.785 1240.26,768.719 
  "/>
</svg>
