<?xml version="1.0" encoding="utf-8"?>
<svg xmlns="http://www.w3.org/2000/svg" xmlns:xlink="http://www.w3.org/1999/xlink" width="500" height="500" viewBox="0 0 2000 2000">
<defs>
  <clipPath id="clip140">
    <rect x="0" y="0" width="2000" height="2000"/>
  </clipPath>
</defs>
<path clip-path="url(#clip140)" d="
M0 2000 L2000 2000 L2000 0 L0 0  Z
  " fill="#ffffff" fill-rule="evenodd" fill-opacity="1"/>
<defs>
  <clipPath id="clip141">
    <rect x="400" y="200" width="1401" height="1401"/>
  </clipPath>
</defs>
<path clip-path="url(#clip140)" d="
M240.472 1759.53 L1811.02 1759.53 L1811.02 188.976 L240.472 188.976  Z
  " fill="#ffffff" fill-rule="evenodd" fill-opacity="1"/>
<defs>
  <clipPath id="clip142">
    <rect x="240" y="188" width="1572" height="1572"/>
  </clipPath>
</defs>
<polyline clip-path="url(#clip142)" style="stroke:#000000; stroke-width:2; stroke-opacity:0.1; fill:none" points="
  240.472,1759.53 240.472,188.976 
  "/>
<polyline clip-path="url(#clip142)" style="stroke:#000000; stroke-width:2; stroke-opacity:0.1; fill:none" points="
  1025.75,1759.53 1025.75,188.976 
  "/>
<polyline clip-path="url(#clip142)" style="stroke:#000000; stroke-width:2; stroke-opacity:0.1; fill:none" points="
  1811.02,1759.53 1811.02,188.976 
  "/>
<polyline clip-path="url(#clip142)" style="stroke:#000000; stroke-width:2; stroke-opacity:0.1; fill:none" points="
  240.472,1759.53 1811.02,1759.53 
  "/>
<polyline clip-path="url(#clip142)" style="stroke:#000000; stroke-width:2; stroke-opacity:0.1; fill:none" points="
  240.472,974.252 1811.02,974.252 
  "/>
<polyline clip-path="url(#clip142)" style="stroke:#000000; stroke-width:2; stroke-opacity:0.1; fill:none" points="
  240.472,188.976 1811.02,188.976 
  "/>
<polyline clip-path="url(#clip140)" style="stroke:#000000; stroke-width:4; stroke-opacity:1; fill:none" points="
  240.472,1759.53 1811.02,1759.53 
  "/>
<polyline clip-path="url(#clip140)" style="stroke:#000000; stroke-width:4; stroke-opacity:1; fill:none" points="
  240.472,1759.53 240.472,188.976 
  "/>
<polyline clip-path="url(#clip140)" style="stroke:#000000; stroke-width:4; stroke-opacity:1; fill:none" points="
  240.472,1759.53 240.472,1740.68 
  "/>
<polyline clip-path="url(#clip140)" style="stroke:#000000; stroke-width:4; stroke-opacity:1; fill:none" points="
  1025.75,1759.53 1025.75,1740.68 
  "/>
<polyline clip-path="url(#clip140)" style="stroke:#000000; stroke-width:4; stroke-opacity:1; fill:none" points="
  1811.02,1759.53 1811.02,1740.68 
  "/>
<polyline clip-path="url(#clip140)" style="stroke:#000000; stroke-width:4; stroke-opacity:1; fill:none" points="
  240.472,1759.53 259.319,1759.53 
  "/>
<polyline clip-path="url(#clip140)" style="stroke:#000000; stroke-width:4; stroke-opacity:1; fill:none" points="
  240.472,974.252 259.319,974.252 
  "/>
<polyline clip-path="url(#clip140)" style="stroke:#000000; stroke-width:4; stroke-opacity:1; fill:none" points="
  240.472,188.976 259.319,188.976 
  "/>
<path clip-path="url(#clip140)" d="M 0 0 M221.341 1796.12 L233.817 1796.12 L233.817 1799.91 L221.341 1799.91 L221.341 1796.12 Z" fill="#000000" fill-rule="evenodd" fill-opacity="1" /><path clip-path="url(#clip140)" d="M 0 0 M239.697 1807.06 L247.336 1807.06 L247.336 1780.7 L239.026 1782.37 L239.026 1778.11 L247.29 1776.44 L251.965 1776.44 L251.965 1807.06 L259.604 1807.06 L259.604 1811 L239.697 1811 L239.697 1807.06 Z" fill="#000000" fill-rule="evenodd" fill-opacity="1" /><path clip-path="url(#clip140)" d="M 0 0 M1025.75 1779.52 Q1022.14 1779.52 1020.31 1783.08 Q1018.5 1786.62 1018.5 1793.75 Q1018.5 1800.86 1020.31 1804.43 Q1022.14 1807.97 1025.75 1807.97 Q1029.38 1807.97 1031.19 1804.43 Q1033.02 1800.86 1033.02 1793.75 Q1033.02 1786.62 1031.19 1783.08 Q1029.38 1779.52 1025.75 1779.52 M1025.75 1775.81 Q1031.56 1775.81 1034.61 1780.42 Q1037.69 1785 1037.69 1793.75 Q1037.69 1802.48 1034.61 1807.09 Q1031.56 1811.67 1025.75 1811.67 Q1019.94 1811.67 1016.86 1807.09 Q1013.8 1802.48 1013.8 1793.75 Q1013.8 1785 1016.86 1780.42 Q1019.94 1775.81 1025.75 1775.81 Z" fill="#000000" fill-rule="evenodd" fill-opacity="1" /><path clip-path="url(#clip140)" d="M 0 0 M1801.41 1807.06 L1809.04 1807.06 L1809.04 1780.7 L1800.73 1782.37 L1800.73 1778.11 L1809 1776.44 L1813.67 1776.44 L1813.67 1807.06 L1821.31 1807.06 L1821.31 1811 L1801.41 1811 L1801.41 1807.06 Z" fill="#000000" fill-rule="evenodd" fill-opacity="1" /><path clip-path="url(#clip140)" d="M 0 0 M182.209 1761.92 L194.686 1761.92 L194.686 1765.72 L182.209 1765.72 L182.209 1761.92 Z" fill="#000000" fill-rule="evenodd" fill-opacity="1" /><path clip-path="url(#clip140)" d="M 0 0 M200.565 1772.87 L208.204 1772.87 L208.204 1746.51 L199.894 1748.17 L199.894 1743.91 L208.158 1742.25 L212.834 1742.25 L212.834 1772.87 L220.472 1772.87 L220.472 1776.81 L200.565 1776.81 L200.565 1772.87 Z" fill="#000000" fill-rule="evenodd" fill-opacity="1" /><path clip-path="url(#clip140)" d="M 0 0 M208.528 960.051 Q204.917 960.051 203.088 963.615 Q201.283 967.157 201.283 974.287 Q201.283 981.393 203.088 984.958 Q204.917 988.5 208.528 988.5 Q212.162 988.5 213.968 984.958 Q215.797 981.393 215.797 974.287 Q215.797 967.157 213.968 963.615 Q212.162 960.051 208.528 960.051 M208.528 956.347 Q214.338 956.347 217.394 960.953 Q220.472 965.537 220.472 974.287 Q220.472 983.013 217.394 987.62 Q214.338 992.203 208.528 992.203 Q202.718 992.203 199.639 987.62 Q196.584 983.013 196.584 974.287 Q196.584 965.537 199.639 960.953 Q202.718 956.347 208.528 956.347 Z" fill="#000000" fill-rule="evenodd" fill-opacity="1" /><path clip-path="url(#clip140)" d="M 0 0 M200.565 202.321 L208.204 202.321 L208.204 175.956 L199.894 177.622 L199.894 173.363 L208.158 171.696 L212.834 171.696 L212.834 202.321 L220.472 202.321 L220.472 206.256 L200.565 206.256 L200.565 202.321 Z" fill="#000000" fill-rule="evenodd" fill-opacity="1" /><path clip-path="url(#clip140)" d="M 0 0 M911.643 1840.87 L918.55 1840.87 L930.358 1858.54 L942.23 1840.87 L949.137 1840.87 L933.859 1863.69 L950.155 1888.39 L943.248 1888.39 L929.88 1868.18 L916.417 1888.39 L909.478 1888.39 L926.443 1863.02 L911.643 1840.87 Z" fill="#000000" fill-rule="evenodd" fill-opacity="1" /><path clip-path="url(#clip140)" d="M 0 0 M991.087 1838.93 Q986.822 1846.25 984.753 1853.41 Q982.684 1860.57 982.684 1867.93 Q982.684 1875.28 984.753 1882.5 Q986.854 1889.7 991.087 1896.99 L985.994 1896.99 Q981.22 1889.51 978.833 1882.28 Q976.477 1875.06 976.477 1867.93 Q976.477 1860.83 978.833 1853.63 Q981.188 1846.44 985.994 1838.93 L991.087 1838.93 Z" fill="#000000" fill-rule="evenodd" fill-opacity="1" /><path clip-path="url(#clip140)" d="M 0 0 M1003.6 1882.98 L1026.03 1882.98 L1026.03 1888.39 L995.861 1888.39 L995.861 1882.98 Q999.521 1879.19 1005.82 1872.83 Q1012.16 1866.43 1013.78 1864.58 Q1016.87 1861.11 1018.08 1858.73 Q1019.32 1856.31 1019.32 1853.98 Q1019.32 1850.2 1016.65 1847.81 Q1014 1845.42 1009.74 1845.42 Q1006.71 1845.42 1003.34 1846.47 Q999.999 1847.52 996.179 1849.66 L996.179 1843.16 Q1000.06 1841.6 1003.44 1840.81 Q1006.81 1840.01 1009.61 1840.01 Q1017 1840.01 1021.39 1843.7 Q1025.78 1847.4 1025.78 1853.57 Q1025.78 1856.5 1024.67 1859.14 Q1023.58 1861.75 1020.69 1865.32 Q1019.89 1866.24 1015.63 1870.66 Q1011.36 1875.06 1003.6 1882.98 Z" fill="#000000" fill-rule="evenodd" fill-opacity="1" /><path clip-path="url(#clip140)" d="M 0 0 M1050.67 1846.47 L1034.44 1871.84 L1050.67 1871.84 L1050.67 1846.47 M1048.98 1840.87 L1057.07 1840.87 L1057.07 1871.84 L1063.85 1871.84 L1063.85 1877.19 L1057.07 1877.19 L1057.07 1888.39 L1050.67 1888.39 L1050.67 1877.19 L1029.22 1877.19 L1029.22 1870.98 L1048.98 1840.87 Z" fill="#000000" fill-rule="evenodd" fill-opacity="1" /><path clip-path="url(#clip140)" d="M 0 0 M1111.24 1867.48 Q1108.47 1867.48 1106.88 1869.84 Q1105.32 1872.19 1105.32 1876.39 Q1105.32 1880.53 1106.88 1882.92 Q1108.47 1885.27 1111.24 1885.27 Q1113.94 1885.27 1115.5 1882.92 Q1117.1 1880.53 1117.1 1876.39 Q1117.1 1872.22 1115.5 1869.87 Q1113.94 1867.48 1111.24 1867.48 M1111.24 1863.44 Q1116.27 1863.44 1119.23 1866.94 Q1122.19 1870.44 1122.19 1876.39 Q1122.19 1882.34 1119.2 1885.85 Q1116.24 1889.31 1111.24 1889.31 Q1106.15 1889.31 1103.19 1885.85 Q1100.23 1882.34 1100.23 1876.39 Q1100.23 1870.41 1103.19 1866.94 Q1106.18 1863.44 1111.24 1863.44 M1078.39 1844.05 Q1075.66 1844.05 1074.06 1846.44 Q1072.5 1848.8 1072.5 1852.93 Q1072.5 1857.14 1074.06 1859.49 Q1075.62 1861.85 1078.39 1861.85 Q1081.16 1861.85 1082.72 1859.49 Q1084.31 1857.14 1084.31 1852.93 Q1084.31 1848.83 1082.72 1846.44 Q1081.13 1844.05 1078.39 1844.05 M1107.13 1840.01 L1112.23 1840.01 L1082.5 1889.31 L1077.41 1889.31 L1107.13 1840.01 M1078.39 1840.01 Q1083.42 1840.01 1086.41 1843.51 Q1089.41 1846.98 1089.41 1852.93 Q1089.41 1858.95 1086.41 1862.42 Q1083.45 1865.89 1078.39 1865.89 Q1073.33 1865.89 1070.37 1862.42 Q1067.44 1858.92 1067.44 1852.93 Q1067.44 1847.01 1070.4 1843.51 Q1073.36 1840.01 1078.39 1840.01 Z" fill="#000000" fill-rule="evenodd" fill-opacity="1" /><path clip-path="url(#clip140)" d="M 0 0 M1127.41 1838.93 L1132.5 1838.93 Q1137.28 1846.44 1139.63 1853.63 Q1142.02 1860.83 1142.02 1867.93 Q1142.02 1875.06 1139.63 1882.28 Q1137.28 1889.51 1132.5 1896.99 L1127.41 1896.99 Q1131.64 1889.7 1133.71 1882.5 Q1135.81 1875.28 1135.81 1867.93 Q1135.81 1860.57 1133.71 1853.41 Q1131.64 1846.25 1127.41 1838.93 Z" fill="#000000" fill-rule="evenodd" fill-opacity="1" /><path clip-path="url(#clip140)" d="M 0 0 M100.433 1089.89 L100.433 1082.98 L119.975 1069.8 L100.433 1056.72 L100.433 1049.81 L125.323 1066.62 L147.953 1066.62 L147.953 1073.08 L125.323 1073.08 L100.433 1089.89 Z" fill="#000000" fill-rule="evenodd" fill-opacity="1" /><path clip-path="url(#clip140)" d="M 0 0 M98.4912 1008.88 Q105.812 1013.15 112.973 1015.22 Q120.135 1017.28 127.487 1017.28 Q134.839 1017.28 142.064 1015.22 Q149.258 1013.11 156.546 1008.88 L156.546 1013.97 Q149.067 1018.75 141.842 1021.14 Q134.617 1023.49 127.487 1023.49 Q120.389 1023.49 113.196 1021.14 Q106.003 1018.78 98.4912 1013.97 L98.4912 1008.88 Z" fill="#000000" fill-rule="evenodd" fill-opacity="1" /><path clip-path="url(#clip140)" d="M 0 0 M142.542 996.373 L142.542 973.934 L147.953 973.934 L147.953 1004.11 L142.542 1004.11 Q138.754 1000.45 132.389 994.145 Q125.991 987.811 124.145 986.188 Q120.676 983.1 118.289 981.891 Q115.87 980.65 113.546 980.65 Q109.759 980.65 107.371 983.323 Q104.984 985.965 104.984 990.23 Q104.984 993.254 106.035 996.627 Q107.085 999.969 109.217 1003.79 L102.724 1003.79 Q101.165 999.906 100.369 996.532 Q99.5734 993.158 99.5734 990.357 Q99.5734 982.973 103.265 978.581 Q106.958 974.188 113.132 974.188 Q116.061 974.188 118.702 975.302 Q121.312 976.384 124.877 979.281 Q125.8 980.077 130.224 984.342 Q134.617 988.607 142.542 996.373 Z" fill="#000000" fill-rule="evenodd" fill-opacity="1" /><path clip-path="url(#clip140)" d="M 0 0 M104.666 953.213 Q104.666 958.179 109.568 960.693 Q114.437 963.176 124.24 963.176 Q134.012 963.176 138.913 960.693 Q143.783 958.179 143.783 953.213 Q143.783 948.216 138.913 945.734 Q134.012 943.219 124.24 943.219 Q114.437 943.219 109.568 945.734 Q104.666 948.216 104.666 953.213 M99.5734 953.213 Q99.5734 945.224 105.907 941.023 Q112.209 936.79 124.24 936.79 Q136.24 936.79 142.574 941.023 Q148.876 945.224 148.876 953.213 Q148.876 961.202 142.574 965.435 Q136.24 969.637 124.24 969.637 Q112.209 969.637 105.907 965.435 Q99.5734 961.202 99.5734 953.213 Z" fill="#000000" fill-rule="evenodd" fill-opacity="1" /><path clip-path="url(#clip140)" d="M 0 0 M127.041 889.397 Q127.041 892.166 129.397 893.758 Q131.752 895.317 135.953 895.317 Q140.091 895.317 142.478 893.758 Q144.834 892.166 144.834 889.397 Q144.834 886.692 142.478 885.132 Q140.091 883.541 135.953 883.541 Q131.784 883.541 129.429 885.132 Q127.041 886.692 127.041 889.397 M122.999 889.397 Q122.999 884.368 126.5 881.408 Q130.001 878.448 135.953 878.448 Q141.905 878.448 145.406 881.44 Q148.876 884.4 148.876 889.397 Q148.876 894.49 145.406 897.45 Q141.905 900.41 135.953 900.41 Q129.97 900.41 126.5 897.45 Q122.999 894.458 122.999 889.397 M103.616 922.244 Q103.616 924.981 106.003 926.573 Q108.358 928.132 112.496 928.132 Q116.697 928.132 119.052 926.573 Q121.408 925.013 121.408 922.244 Q121.408 919.475 119.052 917.915 Q116.697 916.324 112.496 916.324 Q108.39 916.324 106.003 917.915 Q103.616 919.507 103.616 922.244 M99.5734 893.503 L99.5734 888.41 L148.876 918.138 L148.876 923.231 L99.5734 893.503 M99.5734 922.244 Q99.5734 917.215 103.075 914.223 Q106.544 911.231 112.496 911.231 Q118.511 911.231 121.981 914.223 Q125.45 917.183 125.45 922.244 Q125.45 927.305 121.981 930.265 Q118.48 933.193 112.496 933.193 Q106.576 933.193 103.075 930.233 Q99.5734 927.273 99.5734 922.244 Z" fill="#000000" fill-rule="evenodd" fill-opacity="1" /><path clip-path="url(#clip140)" d="M 0 0 M98.4912 873.228 L98.4912 868.136 Q106.003 863.361 113.196 861.006 Q120.389 858.619 127.487 858.619 Q134.617 858.619 141.842 861.006 Q149.067 863.361 156.546 868.136 L156.546 873.228 Q149.258 868.995 142.064 866.926 Q134.839 864.825 127.487 864.825 Q120.135 864.825 112.973 866.926 Q105.812 868.995 98.4912 873.228 Z" fill="#000000" fill-rule="evenodd" fill-opacity="1" /><polyline clip-path="url(#clip142)" style="stroke:#ffa500; stroke-width:0.592132; stroke-opacity:1; fill:none" points="
  892.129,416.113 1290.9,1409.14 
  "/>
<polyline clip-path="url(#clip142)" style="stroke:#ffa500; stroke-width:0.344345; stroke-opacity:1; fill:none" points="
  664.004,1115.77 1320.37,1312.52 
  "/>
<polyline clip-path="url(#clip142)" style="stroke:#ffa500; stroke-width:0.179078; stroke-opacity:1; fill:none" points="
  363.988,1248.19 664.004,1115.77 
  "/>
<polyline clip-path="url(#clip142)" style="stroke:#800080; stroke-width:3.6102; stroke-opacity:1; fill:none" points="
  363.988,1248.19 1164.23,696.526 
  "/>
<polyline clip-path="url(#clip142)" style="stroke:#ffa500; stroke-width:3.85139; stroke-opacity:1; fill:none" points="
  1290.9,1409.14 1320.37,1312.52 
  "/>
<polyline clip-path="url(#clip142)" style="stroke:#800080; stroke-width:4.61447; stroke-opacity:1; fill:none" points="
  363.988,1248.19 1320.37,1312.52 
  "/>
<polyline clip-path="url(#clip142)" style="stroke:#ffa500; stroke-width:3.64514; stroke-opacity:1; fill:none" points="
  1164.23,696.526 1320.37,1312.52 
  "/>
<polyline clip-path="url(#clip142)" style="stroke:#ffa500; stroke-width:1.88998; stroke-opacity:1; fill:none" points="
  664.004,1115.77 1164.23,696.526 
  "/>
<polyline clip-path="url(#clip142)" style="stroke:#800080; stroke-width:8; stroke-opacity:1; fill:none" points="
  363.988,1248.19 892.129,416.113 
  "/>
<polyline clip-path="url(#clip142)" style="stroke:#ffa500; stroke-width:0.924772; stroke-opacity:1; fill:none" points="
  664.004,1115.77 1290.9,1409.14 
  "/>
<polyline clip-path="url(#clip142)" style="stroke:#ffa500; stroke-width:7.33575; stroke-opacity:1; fill:none" points="
  1164.23,696.526 1290.9,1409.14 
  "/>
<polyline clip-path="url(#clip142)" style="stroke:#800080; stroke-width:2.93168; stroke-opacity:1; fill:none" points="
  892.129,416.113 1320.37,1312.52 
  "/>
<polyline clip-path="url(#clip142)" style="stroke:#800080; stroke-width:2.55373; stroke-opacity:1; fill:none" points="
  664.004,1115.77 892.129,416.113 
  "/>
<polyline clip-path="url(#clip142)" style="stroke:#800080; stroke-width:1.83215; stroke-opacity:1; fill:none" points="
  363.988,1248.19 1290.9,1409.14 
  "/>
<polyline clip-path="url(#clip142)" style="stroke:#ffa500; stroke-width:0.172598; stroke-opacity:1; fill:none" points="
  892.129,416.113 1164.23,696.526 
  "/>
<circle clip-path="url(#clip142)" cx="1320.37" cy="1312.52" r="23" fill="#000000" fill-rule="evenodd" fill-opacity="1" stroke="none"/>
<circle clip-path="url(#clip142)" cx="892.129" cy="416.113" r="26" fill="#000000" fill-rule="evenodd" fill-opacity="1" stroke="none"/>
<circle clip-path="url(#clip142)" cx="1290.9" cy="1409.14" r="23" fill="#000000" fill-rule="evenodd" fill-opacity="1" stroke="none"/>
<circle clip-path="url(#clip142)" cx="664.004" cy="1115.77" r="8" fill="#000000" fill-rule="evenodd" fill-opacity="1" stroke="none"/>
<circle clip-path="url(#clip142)" cx="1164.23" cy="696.526" r="28" fill="#000000" fill-rule="evenodd" fill-opacity="1" stroke="none"/>
<circle clip-path="url(#clip142)" cx="363.988" cy="1248.19" r="8" fill="#000000" fill-rule="evenodd" fill-opacity="1" stroke="none"/>
<path clip-path="url(#clip140)" d="M 0 0 M1293.29 1319.24 L1293.29 1336.04 L1296.82 1336.04 Q1301.29 1336.04 1303.36 1334.01 Q1305.44 1331.99 1305.44 1327.62 Q1305.44 1323.28 1303.36 1321.27 Q1301.29 1319.24 1296.82 1319.24 L1293.29 1319.24 M1290.37 1316.84 L1296.37 1316.84 Q1302.65 1316.84 1305.59 1319.46 Q1308.53 1322.06 1308.53 1327.62 Q1308.53 1333.2 1305.57 1335.82 Q1302.62 1338.44 1296.37 1338.44 L1290.37 1338.44 L1290.37 1316.84 Z" fill="#000000" fill-rule="evenodd" fill-opacity="1" /><path clip-path="url(#clip140)" d="M 0 0 M1318.68 1330.29 Q1315.46 1330.29 1314.21 1331.03 Q1312.97 1331.77 1312.97 1333.55 Q1312.97 1334.97 1313.89 1335.81 Q1314.83 1336.63 1316.44 1336.63 Q1318.65 1336.63 1319.98 1335.07 Q1321.33 1333.49 1321.33 1330.89 L1321.33 1330.29 L1318.68 1330.29 M1323.99 1329.19 L1323.99 1338.44 L1321.33 1338.44 L1321.33 1335.98 Q1320.42 1337.46 1319.06 1338.16 Q1317.7 1338.86 1315.73 1338.86 Q1313.24 1338.86 1311.77 1337.47 Q1310.31 1336.07 1310.31 1333.72 Q1310.31 1330.99 1312.13 1329.6 Q1313.97 1328.21 1317.6 1328.21 L1321.33 1328.21 L1321.33 1327.95 Q1321.33 1326.11 1320.11 1325.11 Q1318.91 1324.1 1316.73 1324.1 Q1315.34 1324.1 1314.02 1324.43 Q1312.71 1324.77 1311.49 1325.43 L1311.49 1322.97 Q1312.95 1322.41 1314.33 1322.13 Q1315.7 1321.84 1317 1321.84 Q1320.52 1321.84 1322.26 1323.67 Q1323.99 1325.49 1323.99 1329.19 Z" fill="#000000" fill-rule="evenodd" fill-opacity="1" /><path clip-path="url(#clip140)" d="M 0 0 M1329.42 1317.63 L1329.42 1322.24 L1334.9 1322.24 L1334.9 1324.3 L1329.42 1324.3 L1329.42 1333.1 Q1329.42 1335.08 1329.95 1335.65 Q1330.5 1336.21 1332.17 1336.21 L1334.9 1336.21 L1334.9 1338.44 L1332.17 1338.44 Q1329.08 1338.44 1327.91 1337.3 Q1326.74 1336.14 1326.74 1333.1 L1326.74 1324.3 L1324.79 1324.3 L1324.79 1322.24 L1326.74 1322.24 L1326.74 1317.63 L1329.42 1317.63 Z" fill="#000000" fill-rule="evenodd" fill-opacity="1" /><path clip-path="url(#clip140)" d="M 0 0 M1345.06 1330.29 Q1341.83 1330.29 1340.59 1331.03 Q1339.34 1331.77 1339.34 1333.55 Q1339.34 1334.97 1340.27 1335.81 Q1341.21 1336.63 1342.81 1336.63 Q1345.03 1336.63 1346.36 1335.07 Q1347.7 1333.49 1347.7 1330.89 L1347.7 1330.29 L1345.06 1330.29 M1350.37 1329.19 L1350.37 1338.44 L1347.7 1338.44 L1347.7 1335.98 Q1346.79 1337.46 1345.43 1338.16 Q1344.07 1338.86 1342.1 1338.86 Q1339.62 1338.86 1338.14 1337.47 Q1336.68 1336.07 1336.68 1333.72 Q1336.68 1330.99 1338.5 1329.6 Q1340.34 1328.21 1343.97 1328.21 L1347.7 1328.21 L1347.7 1327.95 Q1347.7 1326.11 1346.49 1325.11 Q1345.29 1324.1 1343.1 1324.1 Q1341.71 1324.1 1340.4 1324.43 Q1339.08 1324.77 1337.87 1325.43 L1337.87 1322.97 Q1339.33 1322.41 1340.7 1322.13 Q1342.08 1321.84 1343.38 1321.84 Q1346.89 1321.84 1348.63 1323.67 Q1350.37 1325.49 1350.37 1329.19 Z" fill="#000000" fill-rule="evenodd" fill-opacity="1" /><path clip-path="url(#clip140)" d="M 0 0 M750.224 420.433 L768.496 420.433 L768.496 422.893 L760.829 422.893 L760.829 442.033 L757.892 442.033 L757.892 422.893 L750.224 422.893 L750.224 420.433 Z" fill="#000000" fill-rule="evenodd" fill-opacity="1" /><path clip-path="url(#clip140)" d="M 0 0 M780.114 433.266 L780.114 434.568 L767.874 434.568 Q768.048 437.317 769.524 438.764 Q771.014 440.196 773.661 440.196 Q775.195 440.196 776.627 439.82 Q778.074 439.444 779.492 438.691 L779.492 441.209 Q778.059 441.816 776.555 442.135 Q775.05 442.453 773.502 442.453 Q769.625 442.453 767.353 440.196 Q765.096 437.939 765.096 434.091 Q765.096 430.112 767.238 427.783 Q769.393 425.439 773.039 425.439 Q776.309 425.439 778.204 427.551 Q780.114 429.649 780.114 433.266 M777.452 432.485 Q777.423 430.3 776.222 428.998 Q775.036 427.696 773.068 427.696 Q770.84 427.696 769.495 428.955 Q768.164 430.213 767.961 432.499 L777.452 432.485 Z" fill="#000000" fill-rule="evenodd" fill-opacity="1" /><path clip-path="url(#clip140)" d="M 0 0 M794.567 426.452 L794.567 428.94 Q793.438 428.318 792.295 428.014 Q791.167 427.696 790.01 427.696 Q787.42 427.696 785.988 429.345 Q784.555 430.98 784.555 433.946 Q784.555 436.912 785.988 438.561 Q787.42 440.196 790.01 440.196 Q791.167 440.196 792.295 439.892 Q793.438 439.574 794.567 438.952 L794.567 441.411 Q793.453 441.932 792.252 442.192 Q791.066 442.453 789.72 442.453 Q786.06 442.453 783.904 440.152 Q781.749 437.852 781.749 433.946 Q781.749 429.982 783.919 427.71 Q786.103 425.439 789.894 425.439 Q791.124 425.439 792.295 425.699 Q793.467 425.945 794.567 426.452 Z" fill="#000000" fill-rule="evenodd" fill-opacity="1" /><path clip-path="url(#clip140)" d="M 0 0 M810.828 432.253 L810.828 442.033 L808.166 442.033 L808.166 432.34 Q808.166 430.04 807.269 428.897 Q806.372 427.754 804.578 427.754 Q802.423 427.754 801.178 429.128 Q799.934 430.503 799.934 432.875 L799.934 442.033 L797.258 442.033 L797.258 419.522 L799.934 419.522 L799.934 428.347 Q800.889 426.886 802.177 426.162 Q803.479 425.439 805.172 425.439 Q807.964 425.439 809.396 427.175 Q810.828 428.897 810.828 432.253 Z" fill="#000000" fill-rule="evenodd" fill-opacity="1" /><path clip-path="url(#clip140)" d="M 0 0 M827.09 432.253 L827.09 442.033 L824.428 442.033 L824.428 432.34 Q824.428 430.04 823.531 428.897 Q822.634 427.754 820.84 427.754 Q818.684 427.754 817.44 429.128 Q816.196 430.503 816.196 432.875 L816.196 442.033 L813.519 442.033 L813.519 425.83 L816.196 425.83 L816.196 428.347 Q817.151 426.886 818.438 426.162 Q819.74 425.439 821.433 425.439 Q824.225 425.439 825.658 427.175 Q827.09 428.897 827.09 432.253 Z" fill="#000000" fill-rule="evenodd" fill-opacity="1" /><path clip-path="url(#clip140)" d="M 0 0 M829.882 425.83 L832.544 425.83 L832.544 442.033 L829.882 442.033 L829.882 425.83 M829.882 419.522 L832.544 419.522 L832.544 422.893 L829.882 422.893 L829.882 419.522 Z" fill="#000000" fill-rule="evenodd" fill-opacity="1" /><path clip-path="url(#clip140)" d="M 0 0 M846.997 426.452 L846.997 428.94 Q845.869 428.318 844.726 428.014 Q843.597 427.696 842.44 427.696 Q839.85 427.696 838.418 429.345 Q836.986 430.98 836.986 433.946 Q836.986 436.912 838.418 438.561 Q839.85 440.196 842.44 440.196 Q843.597 440.196 844.726 439.892 Q845.869 439.574 846.997 438.952 L846.997 441.411 Q845.883 441.932 844.682 442.192 Q843.496 442.453 842.15 442.453 Q838.49 442.453 836.335 440.152 Q834.179 437.852 834.179 433.946 Q834.179 429.982 836.349 427.71 Q838.534 425.439 842.324 425.439 Q843.554 425.439 844.726 425.699 Q845.898 425.945 846.997 426.452 Z" fill="#000000" fill-rule="evenodd" fill-opacity="1" /><path clip-path="url(#clip140)" d="M 0 0 M857.153 433.888 Q853.927 433.888 852.683 434.626 Q851.439 435.364 851.439 437.143 Q851.439 438.561 852.365 439.4 Q853.305 440.225 854.911 440.225 Q857.124 440.225 858.455 438.662 Q859.801 437.085 859.801 434.481 L859.801 433.888 L857.153 433.888 M862.463 432.789 L862.463 442.033 L859.801 442.033 L859.801 439.574 Q858.889 441.049 857.529 441.758 Q856.169 442.453 854.202 442.453 Q851.713 442.453 850.238 441.064 Q848.777 439.661 848.777 437.317 Q848.777 434.582 850.6 433.194 Q852.437 431.805 856.068 431.805 L859.801 431.805 L859.801 431.544 Q859.801 429.707 858.586 428.709 Q857.385 427.696 855.2 427.696 Q853.811 427.696 852.495 428.029 Q851.178 428.361 849.963 429.027 L849.963 426.567 Q851.424 426.003 852.799 425.728 Q854.173 425.439 855.475 425.439 Q858.991 425.439 860.727 427.262 Q862.463 429.085 862.463 432.789 Z" fill="#000000" fill-rule="evenodd" fill-opacity="1" /><path clip-path="url(#clip140)" d="M 0 0 M865.255 419.522 L867.917 419.522 L867.917 442.033 L865.255 442.033 L865.255 419.522 Z" fill="#000000" fill-rule="evenodd" fill-opacity="1" /><path clip-path="url(#clip140)" d="M 0 0 M883.021 446.952 L883.021 449.021 L867.628 449.021 L867.628 446.952 L883.021 446.952 Z" fill="#000000" fill-rule="evenodd" fill-opacity="1" /><path clip-path="url(#clip140)" d="M 0 0 M902.104 422.097 L902.104 425.179 Q900.628 423.804 898.95 423.124 Q897.286 422.444 895.405 422.444 Q891.702 422.444 889.734 424.716 Q887.767 426.973 887.767 431.255 Q887.767 435.523 889.734 437.794 Q891.702 440.051 895.405 440.051 Q897.286 440.051 898.95 439.371 Q900.628 438.691 902.104 437.317 L902.104 440.37 Q900.57 441.411 898.849 441.932 Q897.141 442.453 895.232 442.453 Q890.327 442.453 887.506 439.458 Q884.685 436.449 884.685 431.255 Q884.685 426.047 887.506 423.052 Q890.327 420.043 895.232 420.043 Q897.17 420.043 898.878 420.563 Q900.599 421.07 902.104 422.097 Z" fill="#000000" fill-rule="evenodd" fill-opacity="1" /><path clip-path="url(#clip140)" d="M 0 0 M911.175 427.696 Q909.034 427.696 907.79 429.374 Q906.545 431.038 906.545 433.946 Q906.545 436.854 907.775 438.532 Q909.019 440.196 911.175 440.196 Q913.302 440.196 914.546 438.518 Q915.79 436.839 915.79 433.946 Q915.79 431.067 914.546 429.389 Q913.302 427.696 911.175 427.696 M911.175 425.439 Q914.647 425.439 916.629 427.696 Q918.611 429.953 918.611 433.946 Q918.611 437.924 916.629 440.196 Q914.647 442.453 911.175 442.453 Q907.688 442.453 905.706 440.196 Q903.739 437.924 903.739 433.946 Q903.739 429.953 905.706 427.696 Q907.688 425.439 911.175 425.439 Z" fill="#000000" fill-rule="evenodd" fill-opacity="1" /><path clip-path="url(#clip140)" d="M 0 0 M934.873 432.253 L934.873 442.033 L932.211 442.033 L932.211 432.34 Q932.211 430.04 931.314 428.897 Q930.417 427.754 928.623 427.754 Q926.467 427.754 925.223 429.128 Q923.979 430.503 923.979 432.875 L923.979 442.033 L921.302 442.033 L921.302 425.83 L923.979 425.83 L923.979 428.347 Q924.934 426.886 926.221 426.162 Q927.523 425.439 929.216 425.439 Q932.008 425.439 933.44 427.175 Q934.873 428.897 934.873 432.253 Z" fill="#000000" fill-rule="evenodd" fill-opacity="1" /><path clip-path="url(#clip140)" d="M 0 0 M947.995 426.307 L947.995 428.824 Q946.866 428.246 945.651 427.956 Q944.436 427.667 943.134 427.667 Q941.152 427.667 940.153 428.275 Q939.17 428.882 939.17 430.098 Q939.17 431.023 939.879 431.559 Q940.587 432.08 942.729 432.557 L943.64 432.76 Q946.476 433.367 947.662 434.481 Q948.863 435.581 948.863 437.563 Q948.863 439.82 947.069 441.136 Q945.289 442.453 942.164 442.453 Q940.862 442.453 939.445 442.192 Q938.041 441.946 936.479 441.44 L936.479 438.691 Q937.954 439.458 939.387 439.849 Q940.819 440.225 942.222 440.225 Q944.103 440.225 945.116 439.588 Q946.129 438.937 946.129 437.765 Q946.129 436.68 945.391 436.102 Q944.667 435.523 942.193 434.988 L941.267 434.771 Q938.793 434.25 937.694 433.179 Q936.594 432.094 936.594 430.213 Q936.594 427.927 938.215 426.683 Q939.835 425.439 942.815 425.439 Q944.291 425.439 945.593 425.656 Q946.895 425.873 947.995 426.307 Z" fill="#000000" fill-rule="evenodd" fill-opacity="1" /><path clip-path="url(#clip140)" d="M 0 0 M954.288 421.229 L954.288 425.83 L959.771 425.83 L959.771 427.899 L954.288 427.899 L954.288 436.695 Q954.288 438.677 954.823 439.241 Q955.373 439.805 957.037 439.805 L959.771 439.805 L959.771 442.033 L957.037 442.033 Q953.955 442.033 952.784 440.89 Q951.612 439.733 951.612 436.695 L951.612 427.899 L949.659 427.899 L949.659 425.83 L951.612 425.83 L951.612 421.229 L954.288 421.229 Z" fill="#000000" fill-rule="evenodd" fill-opacity="1" /><path clip-path="url(#clip140)" d="M 0 0 M971.953 428.318 Q971.505 428.058 970.969 427.942 Q970.448 427.812 969.812 427.812 Q967.555 427.812 966.34 429.287 Q965.139 430.749 965.139 433.497 L965.139 442.033 L962.462 442.033 L962.462 425.83 L965.139 425.83 L965.139 428.347 Q965.978 426.871 967.323 426.162 Q968.669 425.439 970.593 425.439 Q970.868 425.439 971.201 425.482 Q971.533 425.511 971.939 425.584 L971.953 428.318 Z" fill="#000000" fill-rule="evenodd" fill-opacity="1" /><path clip-path="url(#clip140)" d="M 0 0 M982.109 433.888 Q978.883 433.888 977.639 434.626 Q976.395 435.364 976.395 437.143 Q976.395 438.561 977.32 439.4 Q978.261 440.225 979.867 440.225 Q982.08 440.225 983.411 438.662 Q984.757 437.085 984.757 434.481 L984.757 433.888 L982.109 433.888 M987.419 432.789 L987.419 442.033 L984.757 442.033 L984.757 439.574 Q983.845 441.049 982.485 441.758 Q981.125 442.453 979.158 442.453 Q976.669 442.453 975.194 441.064 Q973.733 439.661 973.733 437.317 Q973.733 434.582 975.555 433.194 Q977.393 431.805 981.024 431.805 L984.757 431.805 L984.757 431.544 Q984.757 429.707 983.541 428.709 Q982.341 427.696 980.156 427.696 Q978.767 427.696 977.451 428.029 Q976.134 428.361 974.919 429.027 L974.919 426.567 Q976.38 426.003 977.754 425.728 Q979.129 425.439 980.431 425.439 Q983.947 425.439 985.683 427.262 Q987.419 429.085 987.419 432.789 Z" fill="#000000" fill-rule="evenodd" fill-opacity="1" /><path clip-path="url(#clip140)" d="M 0 0 M990.211 425.83 L992.873 425.83 L992.873 442.033 L990.211 442.033 L990.211 425.83 M990.211 419.522 L992.873 419.522 L992.873 422.893 L990.211 422.893 L990.211 419.522 Z" fill="#000000" fill-rule="evenodd" fill-opacity="1" /><path clip-path="url(#clip140)" d="M 0 0 M1009.13 432.253 L1009.13 442.033 L1006.47 442.033 L1006.47 432.34 Q1006.47 430.04 1005.58 428.897 Q1004.68 427.754 1002.88 427.754 Q1000.73 427.754 999.485 429.128 Q998.24 430.503 998.24 432.875 L998.24 442.033 L995.564 442.033 L995.564 425.83 L998.24 425.83 L998.24 428.347 Q999.195 426.886 1000.48 426.162 Q1001.79 425.439 1003.48 425.439 Q1006.27 425.439 1007.7 427.175 Q1009.13 428.897 1009.13 432.253 Z" fill="#000000" fill-rule="evenodd" fill-opacity="1" /><path clip-path="url(#clip140)" d="M 0 0 M1014.56 421.229 L1014.56 425.83 L1020.04 425.83 L1020.04 427.899 L1014.56 427.899 L1014.56 436.695 Q1014.56 438.677 1015.1 439.241 Q1015.64 439.805 1017.31 439.805 L1020.04 439.805 L1020.04 442.033 L1017.31 442.033 Q1014.23 442.033 1013.06 440.89 Q1011.88 439.733 1011.88 436.695 L1011.88 427.899 L1009.93 427.899 L1009.93 425.83 L1011.88 425.83 L1011.88 421.229 L1014.56 421.229 Z" fill="#000000" fill-rule="evenodd" fill-opacity="1" /><path clip-path="url(#clip140)" d="M 0 0 M1033.17 426.307 L1033.17 428.824 Q1032.04 428.246 1030.82 427.956 Q1029.61 427.667 1028.3 427.667 Q1026.32 427.667 1025.32 428.275 Q1024.34 428.882 1024.34 430.098 Q1024.34 431.023 1025.05 431.559 Q1025.76 432.08 1027.9 432.557 L1028.81 432.76 Q1031.65 433.367 1032.83 434.481 Q1034.03 435.581 1034.03 437.563 Q1034.03 439.82 1032.24 441.136 Q1030.46 442.453 1027.33 442.453 Q1026.03 442.453 1024.61 442.192 Q1023.21 441.946 1021.65 441.44 L1021.65 438.691 Q1023.12 439.458 1024.56 439.849 Q1025.99 440.225 1027.39 440.225 Q1029.27 440.225 1030.29 439.588 Q1031.3 438.937 1031.3 437.765 Q1031.3 436.68 1030.56 436.102 Q1029.84 435.523 1027.36 434.988 L1026.44 434.771 Q1023.96 434.25 1022.86 433.179 Q1021.76 432.094 1021.76 430.213 Q1021.76 427.927 1023.39 426.683 Q1025.01 425.439 1027.99 425.439 Q1029.46 425.439 1030.76 425.656 Q1032.07 425.873 1033.17 426.307 Z" fill="#000000" fill-rule="evenodd" fill-opacity="1" /><path clip-path="url(#clip140)" d="M 0 0 M1123.56 1415.86 L1123.56 1423.98 L1127.23 1423.98 Q1129.27 1423.98 1130.39 1422.92 Q1131.5 1421.86 1131.5 1419.91 Q1131.5 1417.97 1130.39 1416.92 Q1129.27 1415.86 1127.23 1415.86 L1123.56 1415.86 M1120.64 1413.46 L1127.23 1413.46 Q1130.86 1413.46 1132.72 1415.11 Q1134.58 1416.74 1134.58 1419.91 Q1134.58 1423.11 1132.72 1424.74 Q1130.86 1426.38 1127.23 1426.38 L1123.56 1426.38 L1123.56 1435.06 L1120.64 1435.06 L1120.64 1413.46 Z" fill="#000000" fill-rule="evenodd" fill-opacity="1" /><path clip-path="url(#clip140)" d="M 0 0 M1150.18 1426.29 L1150.18 1427.59 L1137.94 1427.59 Q1138.11 1430.34 1139.59 1431.79 Q1141.08 1433.22 1143.73 1433.22 Q1145.26 1433.22 1146.69 1432.85 Q1148.14 1432.47 1149.56 1431.72 L1149.56 1434.23 Q1148.12 1434.84 1146.62 1435.16 Q1145.11 1435.48 1143.57 1435.48 Q1139.69 1435.48 1137.42 1433.22 Q1135.16 1430.96 1135.16 1427.12 Q1135.16 1423.14 1137.3 1420.81 Q1139.46 1418.47 1143.1 1418.47 Q1146.37 1418.47 1148.27 1420.58 Q1150.18 1422.68 1150.18 1426.29 M1147.52 1425.51 Q1147.49 1423.33 1146.29 1422.02 Q1145.1 1420.72 1143.13 1420.72 Q1140.9 1420.72 1139.56 1421.98 Q1138.23 1423.24 1138.03 1425.53 L1147.52 1425.51 Z" fill="#000000" fill-rule="evenodd" fill-opacity="1" /><path clip-path="url(#clip140)" d="M 0 0 M1162.36 1421.34 Q1161.91 1421.08 1161.38 1420.97 Q1160.86 1420.84 1160.22 1420.84 Q1157.96 1420.84 1156.75 1422.31 Q1155.55 1423.77 1155.55 1426.52 L1155.55 1435.06 L1152.87 1435.06 L1152.87 1418.86 L1155.55 1418.86 L1155.55 1421.37 Q1156.38 1419.9 1157.73 1419.19 Q1159.08 1418.47 1161 1418.47 Q1161.27 1418.47 1161.61 1418.51 Q1161.94 1418.54 1162.35 1418.61 L1162.36 1421.34 Z" fill="#000000" fill-rule="evenodd" fill-opacity="1" /><path clip-path="url(#clip140)" d="M 0 0 M1173.36 1412.55 L1173.36 1414.76 L1170.81 1414.76 Q1169.38 1414.76 1168.81 1415.34 Q1168.26 1415.92 1168.26 1417.42 L1168.26 1418.86 L1172.65 1418.86 L1172.65 1420.92 L1168.26 1420.92 L1168.26 1435.06 L1165.59 1435.06 L1165.59 1420.92 L1163.04 1420.92 L1163.04 1418.86 L1165.59 1418.86 L1165.59 1417.73 Q1165.59 1415.02 1166.84 1413.79 Q1168.1 1412.55 1170.84 1412.55 L1173.36 1412.55 Z" fill="#000000" fill-rule="evenodd" fill-opacity="1" /><path clip-path="url(#clip140)" d="M 0 0 M1182.43 1420.72 Q1180.29 1420.72 1179.04 1422.4 Q1177.8 1424.06 1177.8 1426.97 Q1177.8 1429.88 1179.03 1431.56 Q1180.27 1433.22 1182.43 1433.22 Q1184.55 1433.22 1185.8 1431.54 Q1187.04 1429.87 1187.04 1426.97 Q1187.04 1424.09 1185.8 1422.41 Q1184.55 1420.72 1182.43 1420.72 M1182.43 1418.47 Q1185.9 1418.47 1187.88 1420.72 Q1189.86 1422.98 1189.86 1426.97 Q1189.86 1430.95 1187.88 1433.22 Q1185.9 1435.48 1182.43 1435.48 Q1178.94 1435.48 1176.96 1433.22 Q1174.99 1430.95 1174.99 1426.97 Q1174.99 1422.98 1176.96 1420.72 Q1178.94 1418.47 1182.43 1418.47 Z" fill="#000000" fill-rule="evenodd" fill-opacity="1" /><path clip-path="url(#clip140)" d="M 0 0 M1202.04 1421.34 Q1201.6 1421.08 1201.06 1420.97 Q1200.54 1420.84 1199.9 1420.84 Q1197.65 1420.84 1196.43 1422.31 Q1195.23 1423.77 1195.23 1426.52 L1195.23 1435.06 L1192.55 1435.06 L1192.55 1418.86 L1195.23 1418.86 L1195.23 1421.37 Q1196.07 1419.9 1197.41 1419.19 Q1198.76 1418.47 1200.68 1418.47 Q1200.96 1418.47 1201.29 1418.51 Q1201.62 1418.54 1202.03 1418.61 L1202.04 1421.34 Z" fill="#000000" fill-rule="evenodd" fill-opacity="1" /><path clip-path="url(#clip140)" d="M 0 0 M1216.93 1421.97 Q1217.93 1420.17 1219.32 1419.32 Q1220.71 1418.47 1222.59 1418.47 Q1225.12 1418.47 1226.49 1420.24 Q1227.87 1422.01 1227.87 1425.28 L1227.87 1435.06 L1225.19 1435.06 L1225.19 1425.37 Q1225.19 1423.04 1224.37 1421.91 Q1223.54 1420.78 1221.85 1420.78 Q1219.78 1420.78 1218.58 1422.15 Q1217.38 1423.53 1217.38 1425.9 L1217.38 1435.06 L1214.7 1435.06 L1214.7 1425.37 Q1214.7 1423.02 1213.88 1421.91 Q1213.05 1420.78 1211.33 1420.78 Q1209.29 1420.78 1208.09 1422.17 Q1206.89 1423.54 1206.89 1425.9 L1206.89 1435.06 L1204.21 1435.06 L1204.21 1418.86 L1206.89 1418.86 L1206.89 1421.37 Q1207.8 1419.88 1209.08 1419.17 Q1210.35 1418.47 1212.1 1418.47 Q1213.86 1418.47 1215.09 1419.36 Q1216.34 1420.26 1216.93 1421.97 Z" fill="#000000" fill-rule="evenodd" fill-opacity="1" /><path clip-path="url(#clip140)" d="M 0 0 M1238.03 1426.91 Q1234.8 1426.91 1233.55 1427.65 Q1232.31 1428.39 1232.31 1430.17 Q1232.31 1431.59 1233.24 1432.43 Q1234.18 1433.25 1235.78 1433.25 Q1238 1433.25 1239.33 1431.69 Q1240.67 1430.11 1240.67 1427.51 L1240.67 1426.91 L1238.03 1426.91 M1243.33 1425.81 L1243.33 1435.06 L1240.67 1435.06 L1240.67 1432.6 Q1239.76 1434.08 1238.4 1434.78 Q1237.04 1435.48 1235.07 1435.48 Q1232.59 1435.48 1231.11 1434.09 Q1229.65 1432.69 1229.65 1430.34 Q1229.65 1427.61 1231.47 1426.22 Q1233.31 1424.83 1236.94 1424.83 L1240.67 1424.83 L1240.67 1424.57 Q1240.67 1422.73 1239.46 1421.73 Q1238.26 1420.72 1236.07 1420.72 Q1234.68 1420.72 1233.37 1421.05 Q1232.05 1421.39 1230.83 1422.05 L1230.83 1419.59 Q1232.3 1419.03 1233.67 1418.75 Q1235.04 1418.47 1236.35 1418.47 Q1239.86 1418.47 1241.6 1420.29 Q1243.33 1422.11 1243.33 1425.81 Z" fill="#000000" fill-rule="evenodd" fill-opacity="1" /><path clip-path="url(#clip140)" d="M 0 0 M1259.6 1425.28 L1259.6 1435.06 L1256.93 1435.06 L1256.93 1425.37 Q1256.93 1423.07 1256.04 1421.92 Q1255.14 1420.78 1253.35 1420.78 Q1251.19 1420.78 1249.95 1422.15 Q1248.7 1423.53 1248.7 1425.9 L1248.7 1435.06 L1246.03 1435.06 L1246.03 1418.86 L1248.7 1418.86 L1248.7 1421.37 Q1249.66 1419.91 1250.94 1419.19 Q1252.25 1418.47 1253.94 1418.47 Q1256.73 1418.47 1258.16 1420.2 Q1259.6 1421.92 1259.6 1425.28 Z" fill="#000000" fill-rule="evenodd" fill-opacity="1" /><path clip-path="url(#clip140)" d="M 0 0 M1274.05 1419.48 L1274.05 1421.97 Q1272.92 1421.34 1271.78 1421.04 Q1270.65 1420.72 1269.49 1420.72 Q1266.9 1420.72 1265.47 1422.37 Q1264.04 1424.01 1264.04 1426.97 Q1264.04 1429.94 1265.47 1431.59 Q1266.9 1433.22 1269.49 1433.22 Q1270.65 1433.22 1271.78 1432.92 Q1272.92 1432.6 1274.05 1431.98 L1274.05 1434.44 Q1272.94 1434.96 1271.73 1435.22 Q1270.55 1435.48 1269.2 1435.48 Q1265.54 1435.48 1263.39 1433.18 Q1261.23 1430.88 1261.23 1426.97 Q1261.23 1423.01 1263.4 1420.74 Q1265.59 1418.47 1269.38 1418.47 Q1270.61 1418.47 1271.78 1418.73 Q1272.95 1418.97 1274.05 1419.48 Z" fill="#000000" fill-rule="evenodd" fill-opacity="1" /><path clip-path="url(#clip140)" d="M 0 0 M1290.7 1426.29 L1290.7 1427.59 L1278.46 1427.59 Q1278.64 1430.34 1280.11 1431.79 Q1281.6 1433.22 1284.25 1433.22 Q1285.78 1433.22 1287.21 1432.85 Q1288.66 1432.47 1290.08 1431.72 L1290.08 1434.23 Q1288.65 1434.84 1287.14 1435.16 Q1285.64 1435.48 1284.09 1435.48 Q1280.21 1435.48 1277.94 1433.22 Q1275.68 1430.96 1275.68 1427.12 Q1275.68 1423.14 1277.83 1420.81 Q1279.98 1418.47 1283.63 1418.47 Q1286.9 1418.47 1288.79 1420.58 Q1290.7 1422.68 1290.7 1426.29 M1288.04 1425.51 Q1288.01 1423.33 1286.81 1422.02 Q1285.62 1420.72 1283.66 1420.72 Q1281.43 1420.72 1280.08 1421.98 Q1278.75 1423.24 1278.55 1425.53 L1288.04 1425.51 Z" fill="#000000" fill-rule="evenodd" fill-opacity="1" /><path clip-path="url(#clip140)" d="M 0 0 M1305.81 1439.98 L1305.81 1442.05 L1290.41 1442.05 L1290.41 1439.98 L1305.81 1439.98 Z" fill="#000000" fill-rule="evenodd" fill-opacity="1" /><path clip-path="url(#clip140)" d="M 0 0 M1311.64 1415.86 L1311.64 1423.98 L1315.31 1423.98 Q1317.35 1423.98 1318.46 1422.92 Q1319.58 1421.86 1319.58 1419.91 Q1319.58 1417.97 1318.46 1416.92 Q1317.35 1415.86 1315.31 1415.86 L1311.64 1415.86 M1308.71 1413.46 L1315.31 1413.46 Q1318.94 1413.46 1320.79 1415.11 Q1322.66 1416.74 1322.66 1419.91 Q1322.66 1423.11 1320.79 1424.74 Q1318.94 1426.38 1315.31 1426.38 L1311.64 1426.38 L1311.64 1435.06 L1308.71 1435.06 L1308.71 1413.46 Z" fill="#000000" fill-rule="evenodd" fill-opacity="1" /><path clip-path="url(#clip140)" d="M 0 0 M1331.49 1426.91 Q1328.26 1426.91 1327.01 1427.65 Q1325.77 1428.39 1325.77 1430.17 Q1325.77 1431.59 1326.7 1432.43 Q1327.64 1433.25 1329.24 1433.25 Q1331.46 1433.25 1332.79 1431.69 Q1334.13 1430.11 1334.13 1427.51 L1334.13 1426.91 L1331.49 1426.91 M1336.79 1425.81 L1336.79 1435.06 L1334.13 1435.06 L1334.13 1432.6 Q1333.22 1434.08 1331.86 1434.78 Q1330.5 1435.48 1328.53 1435.48 Q1326.05 1435.48 1324.57 1434.09 Q1323.11 1432.69 1323.11 1430.34 Q1323.11 1427.61 1324.93 1426.22 Q1326.77 1424.83 1330.4 1424.83 L1334.13 1424.83 L1334.13 1424.57 Q1334.13 1422.73 1332.92 1421.73 Q1331.72 1420.72 1329.53 1420.72 Q1328.14 1420.72 1326.83 1421.05 Q1325.51 1421.39 1324.29 1422.05 L1324.29 1419.59 Q1325.76 1419.03 1327.13 1418.75 Q1328.5 1418.47 1329.81 1418.47 Q1333.32 1418.47 1335.06 1420.29 Q1336.79 1422.11 1336.79 1425.81 Z" fill="#000000" fill-rule="evenodd" fill-opacity="1" /><path clip-path="url(#clip140)" d="M 0 0 M1348.98 1421.34 Q1348.53 1421.08 1347.99 1420.97 Q1347.47 1420.84 1346.84 1420.84 Q1344.58 1420.84 1343.36 1422.31 Q1342.16 1423.77 1342.16 1426.52 L1342.16 1435.06 L1339.49 1435.06 L1339.49 1418.86 L1342.16 1418.86 L1342.16 1421.37 Q1343 1419.9 1344.35 1419.19 Q1345.69 1418.47 1347.62 1418.47 Q1347.89 1418.47 1348.22 1418.51 Q1348.56 1418.54 1348.96 1418.61 L1348.98 1421.34 Z" fill="#000000" fill-rule="evenodd" fill-opacity="1" /><path clip-path="url(#clip140)" d="M 0 0 M1359.13 1426.91 Q1355.91 1426.91 1354.66 1427.65 Q1353.42 1428.39 1353.42 1430.17 Q1353.42 1431.59 1354.34 1432.43 Q1355.28 1433.25 1356.89 1433.25 Q1359.1 1433.25 1360.43 1431.69 Q1361.78 1430.11 1361.78 1427.51 L1361.78 1426.91 L1359.13 1426.91 M1364.44 1425.81 L1364.44 1435.06 L1361.78 1435.06 L1361.78 1432.6 Q1360.87 1434.08 1359.51 1434.78 Q1358.15 1435.48 1356.18 1435.48 Q1353.69 1435.48 1352.22 1434.09 Q1350.76 1432.69 1350.76 1430.34 Q1350.76 1427.61 1352.58 1426.22 Q1354.42 1424.83 1358.05 1424.83 L1361.78 1424.83 L1361.78 1424.57 Q1361.78 1422.73 1360.56 1421.73 Q1359.36 1420.72 1357.18 1420.72 Q1355.79 1420.72 1354.47 1421.05 Q1353.16 1421.39 1351.94 1422.05 L1351.94 1419.59 Q1353.4 1419.03 1354.78 1418.75 Q1356.15 1418.47 1357.45 1418.47 Q1360.97 1418.47 1362.71 1420.29 Q1364.44 1422.11 1364.44 1425.81 Z" fill="#000000" fill-rule="evenodd" fill-opacity="1" /><path clip-path="url(#clip140)" d="M 0 0 M1379.85 1421.97 Q1380.85 1420.17 1382.24 1419.32 Q1383.63 1418.47 1385.51 1418.47 Q1388.04 1418.47 1389.41 1420.24 Q1390.79 1422.01 1390.79 1425.28 L1390.79 1435.06 L1388.11 1435.06 L1388.11 1425.37 Q1388.11 1423.04 1387.29 1421.91 Q1386.46 1420.78 1384.77 1420.78 Q1382.7 1420.78 1381.5 1422.15 Q1380.3 1423.53 1380.3 1425.9 L1380.3 1435.06 L1377.62 1435.06 L1377.62 1425.37 Q1377.62 1423.02 1376.8 1421.91 Q1375.97 1420.78 1374.25 1420.78 Q1372.21 1420.78 1371.01 1422.17 Q1369.81 1423.54 1369.81 1425.9 L1369.81 1435.06 L1367.13 1435.06 L1367.13 1418.86 L1369.81 1418.86 L1369.81 1421.37 Q1370.72 1419.88 1371.99 1419.17 Q1373.27 1418.47 1375.02 1418.47 Q1376.78 1418.47 1378.01 1419.36 Q1379.26 1420.26 1379.85 1421.97 Z" fill="#000000" fill-rule="evenodd" fill-opacity="1" /><path clip-path="url(#clip140)" d="M 0 0 M1407.44 1426.29 L1407.44 1427.59 L1395.2 1427.59 Q1395.37 1430.34 1396.85 1431.79 Q1398.34 1433.22 1400.99 1433.22 Q1402.52 1433.22 1403.95 1432.85 Q1405.4 1432.47 1406.82 1431.72 L1406.82 1434.23 Q1405.39 1434.84 1403.88 1435.16 Q1402.38 1435.48 1400.83 1435.48 Q1396.95 1435.48 1394.68 1433.22 Q1392.42 1430.96 1392.42 1427.12 Q1392.42 1423.14 1394.56 1420.81 Q1396.72 1418.47 1400.37 1418.47 Q1403.63 1418.47 1405.53 1420.58 Q1407.44 1422.68 1407.44 1426.29 M1404.78 1425.51 Q1404.75 1423.33 1403.55 1422.02 Q1402.36 1420.72 1400.39 1420.72 Q1398.17 1420.72 1396.82 1421.98 Q1395.49 1423.24 1395.29 1425.53 L1404.78 1425.51 Z" fill="#000000" fill-rule="evenodd" fill-opacity="1" /><path clip-path="url(#clip140)" d="M 0 0 M1412.86 1414.25 L1412.86 1418.86 L1418.35 1418.86 L1418.35 1420.92 L1412.86 1420.92 L1412.86 1429.72 Q1412.86 1431.7 1413.4 1432.27 Q1413.95 1432.83 1415.61 1432.83 L1418.35 1432.83 L1418.35 1435.06 L1415.61 1435.06 Q1412.53 1435.06 1411.36 1433.92 Q1410.19 1432.76 1410.19 1429.72 L1410.19 1420.92 L1408.24 1420.92 L1408.24 1418.86 L1410.19 1418.86 L1410.19 1414.25 L1412.86 1414.25 Z" fill="#000000" fill-rule="evenodd" fill-opacity="1" /><path clip-path="url(#clip140)" d="M 0 0 M1435 1426.29 L1435 1427.59 L1422.76 1427.59 Q1422.93 1430.34 1424.41 1431.79 Q1425.9 1433.22 1428.55 1433.22 Q1430.08 1433.22 1431.51 1432.85 Q1432.96 1432.47 1434.38 1431.72 L1434.38 1434.23 Q1432.95 1434.84 1431.44 1435.16 Q1429.94 1435.48 1428.39 1435.48 Q1424.51 1435.48 1422.24 1433.22 Q1419.98 1430.96 1419.98 1427.12 Q1419.98 1423.14 1422.12 1420.81 Q1424.28 1418.47 1427.93 1418.47 Q1431.2 1418.47 1433.09 1420.58 Q1435 1422.68 1435 1426.29 M1432.34 1425.51 Q1432.31 1423.33 1431.11 1422.02 Q1429.92 1420.72 1427.95 1420.72 Q1425.73 1420.72 1424.38 1421.98 Q1423.05 1423.24 1422.85 1425.53 L1432.34 1425.51 Z" fill="#000000" fill-rule="evenodd" fill-opacity="1" /><path clip-path="url(#clip140)" d="M 0 0 M1447.18 1421.34 Q1446.73 1421.08 1446.2 1420.97 Q1445.68 1420.84 1445.04 1420.84 Q1442.78 1420.84 1441.57 1422.31 Q1440.37 1423.77 1440.37 1426.52 L1440.37 1435.06 L1437.69 1435.06 L1437.69 1418.86 L1440.37 1418.86 L1440.37 1421.37 Q1441.21 1419.9 1442.55 1419.19 Q1443.9 1418.47 1445.82 1418.47 Q1446.1 1418.47 1446.43 1418.51 Q1446.76 1418.54 1447.17 1418.61 L1447.18 1421.34 Z" fill="#000000" fill-rule="evenodd" fill-opacity="1" /><path clip-path="url(#clip140)" d="M 0 0 M1460.3 1419.33 L1460.3 1421.85 Q1459.18 1421.27 1457.96 1420.98 Q1456.74 1420.69 1455.44 1420.69 Q1453.46 1420.69 1452.46 1421.3 Q1451.48 1421.91 1451.48 1423.12 Q1451.48 1424.05 1452.19 1424.58 Q1452.9 1425.11 1455.04 1425.58 L1455.95 1425.79 Q1458.78 1426.39 1459.97 1427.51 Q1461.17 1428.61 1461.17 1430.59 Q1461.17 1432.85 1459.38 1434.16 Q1457.6 1435.48 1454.47 1435.48 Q1453.17 1435.48 1451.75 1435.22 Q1450.35 1434.97 1448.79 1434.47 L1448.79 1431.72 Q1450.26 1432.48 1451.7 1432.87 Q1453.13 1433.25 1454.53 1433.25 Q1456.41 1433.25 1457.42 1432.61 Q1458.44 1431.96 1458.44 1430.79 Q1458.44 1429.71 1457.7 1429.13 Q1456.98 1428.55 1454.5 1428.01 L1453.58 1427.8 Q1451.1 1427.28 1450 1426.21 Q1448.9 1425.12 1448.9 1423.24 Q1448.9 1420.95 1450.52 1419.71 Q1452.14 1418.47 1455.12 1418.47 Q1456.6 1418.47 1457.9 1418.68 Q1459.2 1418.9 1460.3 1419.33 Z" fill="#000000" fill-rule="evenodd" fill-opacity="1" /><path clip-path="url(#clip140)" d="M 0 0 M466.906 1121.75 L466.906 1124.84 Q465.43 1123.46 463.752 1122.78 Q462.088 1122.1 460.208 1122.1 Q456.504 1122.1 454.536 1124.37 Q452.569 1126.63 452.569 1130.91 Q452.569 1135.18 454.536 1137.45 Q456.504 1139.71 460.208 1139.71 Q462.088 1139.71 463.752 1139.03 Q465.43 1138.35 466.906 1136.97 L466.906 1140.03 Q465.373 1141.07 463.651 1141.59 Q461.944 1142.11 460.034 1142.11 Q455.13 1142.11 452.308 1139.11 Q449.487 1136.11 449.487 1130.91 Q449.487 1125.7 452.308 1122.71 Q455.13 1119.7 460.034 1119.7 Q461.973 1119.7 463.68 1120.22 Q465.402 1120.73 466.906 1121.75 Z" fill="#000000" fill-rule="evenodd" fill-opacity="1" /><path clip-path="url(#clip140)" d="M 0 0 M469.698 1119.18 L472.36 1119.18 L472.36 1141.69 L469.698 1141.69 L469.698 1119.18 Z" fill="#000000" fill-rule="evenodd" fill-opacity="1" /><path clip-path="url(#clip140)" d="M 0 0 M475.153 1125.49 L477.815 1125.49 L477.815 1141.69 L475.153 1141.69 L475.153 1125.49 M475.153 1119.18 L477.815 1119.18 L477.815 1122.55 L475.153 1122.55 L475.153 1119.18 Z" fill="#000000" fill-rule="evenodd" fill-opacity="1" /><path clip-path="url(#clip140)" d="M 0 0 M494.467 1132.92 L494.467 1134.22 L482.227 1134.22 Q482.401 1136.97 483.877 1138.42 Q485.367 1139.85 488.014 1139.85 Q489.548 1139.85 490.98 1139.48 Q492.427 1139.1 493.845 1138.35 L493.845 1140.87 Q492.412 1141.47 490.908 1141.79 Q489.403 1142.11 487.855 1142.11 Q483.978 1142.11 481.706 1139.85 Q479.449 1137.6 479.449 1133.75 Q479.449 1129.77 481.591 1127.44 Q483.746 1125.1 487.392 1125.1 Q490.662 1125.1 492.557 1127.21 Q494.467 1129.31 494.467 1132.92 M491.805 1132.14 Q491.776 1129.96 490.575 1128.65 Q489.389 1127.35 487.421 1127.35 Q485.193 1127.35 483.848 1128.61 Q482.517 1129.87 482.314 1132.16 L491.805 1132.14 Z" fill="#000000" fill-rule="evenodd" fill-opacity="1" /><path clip-path="url(#clip140)" d="M 0 0 M510.728 1131.91 L510.728 1141.69 L508.066 1141.69 L508.066 1132 Q508.066 1129.7 507.169 1128.55 Q506.272 1127.41 504.478 1127.41 Q502.323 1127.41 501.078 1128.79 Q499.834 1130.16 499.834 1132.53 L499.834 1141.69 L497.158 1141.69 L497.158 1125.49 L499.834 1125.49 L499.834 1128 Q500.789 1126.54 502.077 1125.82 Q503.379 1125.1 505.071 1125.1 Q507.864 1125.1 509.296 1126.83 Q510.728 1128.55 510.728 1131.91 Z" fill="#000000" fill-rule="evenodd" fill-opacity="1" /><path clip-path="url(#clip140)" d="M 0 0 M516.154 1120.89 L516.154 1125.49 L521.637 1125.49 L521.637 1127.56 L516.154 1127.56 L516.154 1136.35 Q516.154 1138.33 516.689 1138.9 Q517.239 1139.46 518.902 1139.46 L521.637 1139.46 L521.637 1141.69 L518.902 1141.69 Q515.821 1141.69 514.649 1140.55 Q513.477 1139.39 513.477 1136.35 L513.477 1127.56 L511.524 1127.56 L511.524 1125.49 L513.477 1125.49 L513.477 1120.89 L516.154 1120.89 Z" fill="#000000" fill-rule="evenodd" fill-opacity="1" /><path clip-path="url(#clip140)" d="M 0 0 M536.741 1146.61 L536.741 1148.68 L521.347 1148.68 L521.347 1146.61 L536.741 1146.61 Z" fill="#000000" fill-rule="evenodd" fill-opacity="1" /><path clip-path="url(#clip140)" d="M 0 0 M546.897 1133.54 Q543.671 1133.54 542.427 1134.28 Q541.182 1135.02 541.182 1136.8 Q541.182 1138.22 542.108 1139.06 Q543.049 1139.88 544.655 1139.88 Q546.868 1139.88 548.199 1138.32 Q549.545 1136.74 549.545 1134.14 L549.545 1133.54 L546.897 1133.54 M552.207 1132.45 L552.207 1141.69 L549.545 1141.69 L549.545 1139.23 Q548.633 1140.71 547.273 1141.42 Q545.913 1142.11 543.946 1142.11 Q541.457 1142.11 539.982 1140.72 Q538.52 1139.32 538.52 1136.97 Q538.52 1134.24 540.343 1132.85 Q542.181 1131.46 545.812 1131.46 L549.545 1131.46 L549.545 1131.2 Q549.545 1129.36 548.329 1128.37 Q547.129 1127.35 544.944 1127.35 Q543.555 1127.35 542.239 1127.69 Q540.922 1128.02 539.707 1128.68 L539.707 1126.22 Q541.168 1125.66 542.542 1125.39 Q543.917 1125.1 545.219 1125.1 Q548.734 1125.1 550.471 1126.92 Q552.207 1128.74 552.207 1132.45 Z" fill="#000000" fill-rule="evenodd" fill-opacity="1" /><path clip-path="url(#clip140)" d="M 0 0 M568.468 1131.91 L568.468 1141.69 L565.806 1141.69 L565.806 1132 Q565.806 1129.7 564.909 1128.55 Q564.012 1127.41 562.218 1127.41 Q560.062 1127.41 558.818 1128.79 Q557.574 1130.16 557.574 1132.53 L557.574 1141.69 L554.898 1141.69 L554.898 1125.49 L557.574 1125.49 L557.574 1128 Q558.529 1126.54 559.817 1125.82 Q561.119 1125.1 562.811 1125.1 Q565.604 1125.1 567.036 1126.83 Q568.468 1128.55 568.468 1131.91 Z" fill="#000000" fill-rule="evenodd" fill-opacity="1" /><path clip-path="url(#clip140)" d="M 0 0 M581.923 1127.95 L581.923 1119.18 L584.585 1119.18 L584.585 1141.69 L581.923 1141.69 L581.923 1139.26 Q581.084 1140.71 579.796 1141.42 Q578.523 1142.11 576.729 1142.11 Q573.792 1142.11 571.94 1139.77 Q570.103 1137.42 570.103 1133.6 Q570.103 1129.78 571.94 1127.44 Q573.792 1125.1 576.729 1125.1 Q578.523 1125.1 579.796 1125.8 Q581.084 1126.5 581.923 1127.95 M572.852 1133.6 Q572.852 1136.54 574.053 1138.22 Q575.268 1139.88 577.38 1139.88 Q579.492 1139.88 580.708 1138.22 Q581.923 1136.54 581.923 1133.6 Q581.923 1130.67 580.708 1129 Q579.492 1127.32 577.38 1127.32 Q575.268 1127.32 574.053 1129 Q572.852 1130.67 572.852 1133.6 Z" fill="#000000" fill-rule="evenodd" fill-opacity="1" /><path clip-path="url(#clip140)" d="M 0 0 M599.689 1146.61 L599.689 1148.68 L584.296 1148.68 L584.296 1146.61 L599.689 1146.61 Z" fill="#000000" fill-rule="evenodd" fill-opacity="1" /><path clip-path="url(#clip140)" d="M 0 0 M618.772 1121.75 L618.772 1124.84 Q617.296 1123.46 615.618 1122.78 Q613.954 1122.1 612.073 1122.1 Q608.37 1122.1 606.402 1124.37 Q604.434 1126.63 604.434 1130.91 Q604.434 1135.18 606.402 1137.45 Q608.37 1139.71 612.073 1139.71 Q613.954 1139.71 615.618 1139.03 Q617.296 1138.35 618.772 1136.97 L618.772 1140.03 Q617.238 1141.07 615.516 1141.59 Q613.809 1142.11 611.9 1142.11 Q606.995 1142.11 604.174 1139.11 Q601.353 1136.11 601.353 1130.91 Q601.353 1125.7 604.174 1122.71 Q606.995 1119.7 611.9 1119.7 Q613.838 1119.7 615.545 1120.22 Q617.267 1120.73 618.772 1121.75 Z" fill="#000000" fill-rule="evenodd" fill-opacity="1" /><path clip-path="url(#clip140)" d="M 0 0 M627.843 1127.35 Q625.702 1127.35 624.457 1129.03 Q623.213 1130.69 623.213 1133.6 Q623.213 1136.51 624.443 1138.19 Q625.687 1139.85 627.843 1139.85 Q629.97 1139.85 631.214 1138.17 Q632.458 1136.5 632.458 1133.6 Q632.458 1130.72 631.214 1129.05 Q629.97 1127.35 627.843 1127.35 M627.843 1125.1 Q631.315 1125.1 633.297 1127.35 Q635.279 1129.61 635.279 1133.6 Q635.279 1137.58 633.297 1139.85 Q631.315 1142.11 627.843 1142.11 Q624.356 1142.11 622.374 1139.85 Q620.406 1137.58 620.406 1133.6 Q620.406 1129.61 622.374 1127.35 Q624.356 1125.1 627.843 1125.1 Z" fill="#000000" fill-rule="evenodd" fill-opacity="1" /><path clip-path="url(#clip140)" d="M 0 0 M651.541 1131.91 L651.541 1141.69 L648.879 1141.69 L648.879 1132 Q648.879 1129.7 647.982 1128.55 Q647.085 1127.41 645.291 1127.41 Q643.135 1127.41 641.891 1128.79 Q640.647 1130.16 640.647 1132.53 L640.647 1141.69 L637.97 1141.69 L637.97 1125.49 L640.647 1125.49 L640.647 1128 Q641.601 1126.54 642.889 1125.82 Q644.191 1125.1 645.884 1125.1 Q648.676 1125.1 650.108 1126.83 Q651.541 1128.55 651.541 1131.91 Z" fill="#000000" fill-rule="evenodd" fill-opacity="1" /><path clip-path="url(#clip140)" d="M 0 0 M664.663 1125.96 L664.663 1128.48 Q663.534 1127.9 662.319 1127.61 Q661.104 1127.32 659.802 1127.32 Q657.819 1127.32 656.821 1127.93 Q655.837 1128.54 655.837 1129.75 Q655.837 1130.68 656.546 1131.22 Q657.255 1131.74 659.396 1132.21 L660.308 1132.42 Q663.144 1133.02 664.33 1134.14 Q665.531 1135.24 665.531 1137.22 Q665.531 1139.48 663.737 1140.79 Q661.957 1142.11 658.832 1142.11 Q657.53 1142.11 656.112 1141.85 Q654.709 1141.6 653.146 1141.1 L653.146 1138.35 Q654.622 1139.11 656.054 1139.51 Q657.487 1139.88 658.89 1139.88 Q660.771 1139.88 661.784 1139.25 Q662.796 1138.59 662.796 1137.42 Q662.796 1136.34 662.058 1135.76 Q661.335 1135.18 658.861 1134.64 L657.935 1134.43 Q655.461 1133.91 654.362 1132.84 Q653.262 1131.75 653.262 1129.87 Q653.262 1127.58 654.883 1126.34 Q656.503 1125.1 659.483 1125.1 Q660.959 1125.1 662.261 1125.31 Q663.563 1125.53 664.663 1125.96 Z" fill="#000000" fill-rule="evenodd" fill-opacity="1" /><path clip-path="url(#clip140)" d="M 0 0 M668.048 1135.3 L668.048 1125.49 L670.71 1125.49 L670.71 1135.19 Q670.71 1137.49 671.607 1138.65 Q672.504 1139.79 674.298 1139.79 Q676.454 1139.79 677.698 1138.42 Q678.957 1137.05 678.957 1134.67 L678.957 1125.49 L681.619 1125.49 L681.619 1141.69 L678.957 1141.69 L678.957 1139.2 Q677.987 1140.68 676.7 1141.4 Q675.426 1142.11 673.734 1142.11 Q670.942 1142.11 669.495 1140.37 Q668.048 1138.64 668.048 1135.3 M674.746 1125.1 L674.746 1125.1 Z" fill="#000000" fill-rule="evenodd" fill-opacity="1" /><path clip-path="url(#clip140)" d="M 0 0 M684.411 1119.18 L687.073 1119.18 L687.073 1141.69 L684.411 1141.69 L684.411 1119.18 Z" fill="#000000" fill-rule="evenodd" fill-opacity="1" /><path clip-path="url(#clip140)" d="M 0 0 M692.498 1120.89 L692.498 1125.49 L697.981 1125.49 L697.981 1127.56 L692.498 1127.56 L692.498 1136.35 Q692.498 1138.33 693.033 1138.9 Q693.583 1139.46 695.247 1139.46 L697.981 1139.46 L697.981 1141.69 L695.247 1141.69 Q692.165 1141.69 690.993 1140.55 Q689.822 1139.39 689.822 1136.35 L689.822 1127.56 L687.869 1127.56 L687.869 1125.49 L689.822 1125.49 L689.822 1120.89 L692.498 1120.89 Z" fill="#000000" fill-rule="evenodd" fill-opacity="1" /><path clip-path="url(#clip140)" d="M 0 0 M708.138 1133.54 Q704.911 1133.54 703.667 1134.28 Q702.423 1135.02 702.423 1136.8 Q702.423 1138.22 703.349 1139.06 Q704.289 1139.88 705.895 1139.88 Q708.109 1139.88 709.44 1138.32 Q710.785 1136.74 710.785 1134.14 L710.785 1133.54 L708.138 1133.54 M713.447 1132.45 L713.447 1141.69 L710.785 1141.69 L710.785 1139.23 Q709.874 1140.71 708.514 1141.42 Q707.154 1142.11 705.186 1142.11 Q702.698 1142.11 701.222 1140.72 Q699.761 1139.32 699.761 1136.97 Q699.761 1134.24 701.584 1132.85 Q703.421 1131.46 707.052 1131.46 L710.785 1131.46 L710.785 1131.2 Q710.785 1129.36 709.57 1128.37 Q708.369 1127.35 706.184 1127.35 Q704.796 1127.35 703.479 1127.69 Q702.162 1128.02 700.947 1128.68 L700.947 1126.22 Q702.408 1125.66 703.783 1125.39 Q705.157 1125.1 706.459 1125.1 Q709.975 1125.1 711.711 1126.92 Q713.447 1128.74 713.447 1132.45 Z" fill="#000000" fill-rule="evenodd" fill-opacity="1" /><path clip-path="url(#clip140)" d="M 0 0 M729.709 1131.91 L729.709 1141.69 L727.047 1141.69 L727.047 1132 Q727.047 1129.7 726.15 1128.55 Q725.253 1127.41 723.459 1127.41 Q721.303 1127.41 720.059 1128.79 Q718.815 1130.16 718.815 1132.53 L718.815 1141.69 L716.138 1141.69 L716.138 1125.49 L718.815 1125.49 L718.815 1128 Q719.769 1126.54 721.057 1125.82 Q722.359 1125.1 724.052 1125.1 Q726.844 1125.1 728.276 1126.83 Q729.709 1128.55 729.709 1131.91 Z" fill="#000000" fill-rule="evenodd" fill-opacity="1" /><path clip-path="url(#clip140)" d="M 0 0 M735.134 1120.89 L735.134 1125.49 L740.617 1125.49 L740.617 1127.56 L735.134 1127.56 L735.134 1136.35 Q735.134 1138.33 735.669 1138.9 Q736.219 1139.46 737.883 1139.46 L740.617 1139.46 L740.617 1141.69 L737.883 1141.69 Q734.801 1141.69 733.629 1140.55 Q732.457 1139.39 732.457 1136.35 L732.457 1127.56 L730.504 1127.56 L730.504 1125.49 L732.457 1125.49 L732.457 1120.89 L735.134 1120.89 Z" fill="#000000" fill-rule="evenodd" fill-opacity="1" /><path clip-path="url(#clip140)" d="M 0 0 M755.721 1146.61 L755.721 1148.68 L740.328 1148.68 L740.328 1146.61 L755.721 1146.61 Z" fill="#000000" fill-rule="evenodd" fill-opacity="1" /><path clip-path="url(#clip140)" d="M 0 0 M768.872 1131.56 Q769.813 1131.88 770.695 1132.92 Q771.592 1133.96 772.489 1135.79 L775.455 1141.69 L772.315 1141.69 L769.552 1136.15 Q768.482 1133.98 767.469 1133.27 Q766.471 1132.56 764.734 1132.56 L761.552 1132.56 L761.552 1141.69 L758.629 1141.69 L758.629 1120.09 L765.226 1120.09 Q768.93 1120.09 770.753 1121.64 Q772.576 1123.19 772.576 1126.31 Q772.576 1128.35 771.621 1129.7 Q770.681 1131.04 768.872 1131.56 M761.552 1122.49 L761.552 1130.16 L765.226 1130.16 Q767.339 1130.16 768.409 1129.19 Q769.494 1128.21 769.494 1126.31 Q769.494 1124.42 768.409 1123.46 Q767.339 1122.49 765.226 1122.49 L761.552 1122.49 Z" fill="#000000" fill-rule="evenodd" fill-opacity="1" /><path clip-path="url(#clip140)" d="M 0 0 M790.776 1132.92 L790.776 1134.22 L778.536 1134.22 Q778.71 1136.97 780.186 1138.42 Q781.676 1139.85 784.323 1139.85 Q785.857 1139.85 787.289 1139.48 Q788.736 1139.1 790.154 1138.35 L790.154 1140.87 Q788.722 1141.47 787.217 1141.79 Q785.712 1142.11 784.164 1142.11 Q780.287 1142.11 778.016 1139.85 Q775.759 1137.6 775.759 1133.75 Q775.759 1129.77 777.9 1127.44 Q780.056 1125.1 783.701 1125.1 Q786.971 1125.1 788.866 1127.21 Q790.776 1129.31 790.776 1132.92 M788.114 1132.14 Q788.085 1129.96 786.884 1128.65 Q785.698 1127.35 783.73 1127.35 Q781.502 1127.35 780.157 1128.61 Q778.826 1129.87 778.623 1132.16 L788.114 1132.14 Z" fill="#000000" fill-rule="evenodd" fill-opacity="1" /><path clip-path="url(#clip140)" d="M 0 0 M795.16 1133.6 Q795.16 1136.54 796.36 1138.22 Q797.576 1139.88 799.688 1139.88 Q801.8 1139.88 803.015 1138.22 Q804.231 1136.54 804.231 1133.6 Q804.231 1130.67 803.015 1129 Q801.8 1127.32 799.688 1127.32 Q797.576 1127.32 796.36 1129 Q795.16 1130.67 795.16 1133.6 M804.231 1139.26 Q803.392 1140.71 802.104 1141.42 Q800.831 1142.11 799.037 1142.11 Q796.1 1142.11 794.248 1139.77 Q792.411 1137.42 792.411 1133.6 Q792.411 1129.78 794.248 1127.44 Q796.1 1125.1 799.037 1125.1 Q800.831 1125.1 802.104 1125.8 Q803.392 1126.5 804.231 1127.95 L804.231 1125.49 L806.893 1125.49 L806.893 1147.85 L804.231 1147.85 L804.231 1139.26 Z" fill="#000000" fill-rule="evenodd" fill-opacity="1" /><path clip-path="url(#clip140)" d="M 0 0 M809.41 1135.3 L809.41 1125.49 L812.072 1125.49 L812.072 1135.19 Q812.072 1137.49 812.969 1138.65 Q813.866 1139.79 815.66 1139.79 Q817.816 1139.79 819.06 1138.42 Q820.319 1137.05 820.319 1134.67 L820.319 1125.49 L822.981 1125.49 L822.981 1141.69 L820.319 1141.69 L820.319 1139.2 Q819.349 1140.68 818.062 1141.4 Q816.789 1142.11 815.096 1142.11 Q812.304 1142.11 810.857 1140.37 Q809.41 1138.64 809.41 1135.3 M816.109 1125.1 L816.109 1125.1 Z" fill="#000000" fill-rule="evenodd" fill-opacity="1" /><path clip-path="url(#clip140)" d="M 0 0 M839.633 1132.92 L839.633 1134.22 L827.393 1134.22 Q827.567 1136.97 829.043 1138.42 Q830.533 1139.85 833.18 1139.85 Q834.714 1139.85 836.146 1139.48 Q837.593 1139.1 839.011 1138.35 L839.011 1140.87 Q837.578 1141.47 836.074 1141.79 Q834.569 1142.11 833.021 1142.11 Q829.144 1142.11 826.872 1139.85 Q824.615 1137.6 824.615 1133.75 Q824.615 1129.77 826.757 1127.44 Q828.912 1125.1 832.558 1125.1 Q835.828 1125.1 837.723 1127.21 Q839.633 1129.31 839.633 1132.92 M836.971 1132.14 Q836.942 1129.96 835.741 1128.65 Q834.555 1127.35 832.587 1127.35 Q830.359 1127.35 829.014 1128.61 Q827.683 1129.87 827.48 1132.16 L836.971 1132.14 Z" fill="#000000" fill-rule="evenodd" fill-opacity="1" /><path clip-path="url(#clip140)" d="M 0 0 M852.755 1125.96 L852.755 1128.48 Q851.626 1127.9 850.411 1127.61 Q849.196 1127.32 847.894 1127.32 Q845.912 1127.32 844.913 1127.93 Q843.93 1128.54 843.93 1129.75 Q843.93 1130.68 844.639 1131.22 Q845.347 1131.74 847.489 1132.21 L848.4 1132.42 Q851.236 1133.02 852.422 1134.14 Q853.623 1135.24 853.623 1137.22 Q853.623 1139.48 851.829 1140.79 Q850.049 1142.11 846.924 1142.11 Q845.622 1142.11 844.204 1141.85 Q842.801 1141.6 841.239 1141.1 L841.239 1138.35 Q842.714 1139.11 844.147 1139.51 Q845.579 1139.88 846.982 1139.88 Q848.863 1139.88 849.876 1139.25 Q850.888 1138.59 850.888 1137.42 Q850.888 1136.34 850.151 1135.76 Q849.427 1135.18 846.953 1134.64 L846.027 1134.43 Q843.553 1133.91 842.454 1132.84 Q841.354 1131.75 841.354 1129.87 Q841.354 1127.58 842.975 1126.34 Q844.595 1125.1 847.575 1125.1 Q849.051 1125.1 850.353 1125.31 Q851.655 1125.53 852.755 1125.96 Z" fill="#000000" fill-rule="evenodd" fill-opacity="1" /><path clip-path="url(#clip140)" d="M 0 0 M859.048 1120.89 L859.048 1125.49 L864.531 1125.49 L864.531 1127.56 L859.048 1127.56 L859.048 1136.35 Q859.048 1138.33 859.583 1138.9 Q860.133 1139.46 861.797 1139.46 L864.531 1139.46 L864.531 1141.69 L861.797 1141.69 Q858.715 1141.69 857.544 1140.55 Q856.372 1139.39 856.372 1136.35 L856.372 1127.56 L854.419 1127.56 L854.419 1125.49 L856.372 1125.49 L856.372 1120.89 L859.048 1120.89 Z" fill="#000000" fill-rule="evenodd" fill-opacity="1" /><path clip-path="url(#clip140)" d="M 0 0 M877.653 1125.96 L877.653 1128.48 Q876.525 1127.9 875.31 1127.61 Q874.094 1127.32 872.792 1127.32 Q870.81 1127.32 869.812 1127.93 Q868.828 1128.54 868.828 1129.75 Q868.828 1130.68 869.537 1131.22 Q870.246 1131.74 872.387 1132.21 L873.299 1132.42 Q876.134 1133.02 877.321 1134.14 Q878.521 1135.24 878.521 1137.22 Q878.521 1139.48 876.727 1140.79 Q874.948 1142.11 871.823 1142.11 Q870.521 1142.11 869.103 1141.85 Q867.7 1141.6 866.137 1141.1 L866.137 1138.35 Q867.613 1139.11 869.045 1139.51 Q870.477 1139.88 871.881 1139.88 Q873.762 1139.88 874.774 1139.25 Q875.787 1138.59 875.787 1137.42 Q875.787 1136.34 875.049 1135.76 Q874.326 1135.18 871.852 1134.64 L870.926 1134.43 Q868.452 1133.91 867.353 1132.84 Q866.253 1131.75 866.253 1129.87 Q866.253 1127.58 867.873 1126.34 Q869.494 1125.1 872.474 1125.1 Q873.95 1125.1 875.252 1125.31 Q876.554 1125.53 877.653 1125.96 Z" fill="#000000" fill-rule="evenodd" fill-opacity="1" /><path clip-path="url(#clip140)" d="M 0 0 M1048.73 703.248 L1048.73 720.044 L1052.26 720.044 Q1056.73 720.044 1058.79 718.019 Q1060.88 715.994 1060.88 711.624 Q1060.88 707.284 1058.79 705.273 Q1056.73 703.248 1052.26 703.248 L1048.73 703.248 M1045.8 700.846 L1051.81 700.846 Q1058.09 700.846 1061.02 703.465 Q1063.96 706.069 1063.96 711.624 Q1063.96 717.209 1061.01 719.827 Q1058.06 722.446 1051.81 722.446 L1045.8 722.446 L1045.8 700.846 Z" fill="#000000" fill-rule="evenodd" fill-opacity="1" /><path clip-path="url(#clip140)" d="M 0 0 M1080.61 713.679 L1080.61 714.981 L1068.37 714.981 Q1068.55 717.73 1070.02 719.176 Q1071.51 720.609 1074.16 720.609 Q1075.69 720.609 1077.12 720.232 Q1078.57 719.856 1079.99 719.104 L1079.99 721.621 Q1078.56 722.229 1077.05 722.547 Q1075.55 722.866 1074 722.866 Q1070.12 722.866 1067.85 720.609 Q1065.59 718.352 1065.59 714.503 Q1065.59 710.525 1067.74 708.196 Q1069.89 705.852 1073.54 705.852 Q1076.81 705.852 1078.7 707.964 Q1080.61 710.062 1080.61 713.679 M1077.95 712.897 Q1077.92 710.713 1076.72 709.411 Q1075.53 708.109 1073.57 708.109 Q1071.34 708.109 1069.99 709.367 Q1068.66 710.626 1068.46 712.912 L1077.95 712.897 Z" fill="#000000" fill-rule="evenodd" fill-opacity="1" /><path clip-path="url(#clip140)" d="M 0 0 M1093.73 706.72 L1093.73 709.237 Q1092.61 708.658 1091.39 708.369 Q1090.17 708.08 1088.87 708.08 Q1086.89 708.08 1085.89 708.687 Q1084.91 709.295 1084.91 710.51 Q1084.91 711.436 1085.62 711.972 Q1086.33 712.492 1088.47 712.97 L1089.38 713.172 Q1092.21 713.78 1093.4 714.894 Q1094.6 715.994 1094.6 717.976 Q1094.6 720.232 1092.81 721.549 Q1091.03 722.866 1087.9 722.866 Q1086.6 722.866 1085.18 722.605 Q1083.78 722.359 1082.22 721.853 L1082.22 719.104 Q1083.69 719.871 1085.13 720.261 Q1086.56 720.638 1087.96 720.638 Q1089.84 720.638 1090.85 720.001 Q1091.87 719.35 1091.87 718.178 Q1091.87 717.093 1091.13 716.514 Q1090.41 715.936 1087.93 715.4 L1087.01 715.183 Q1084.53 714.663 1083.43 713.592 Q1082.33 712.507 1082.33 710.626 Q1082.33 708.34 1083.95 707.096 Q1085.57 705.852 1088.55 705.852 Q1090.03 705.852 1091.33 706.069 Q1092.63 706.286 1093.73 706.72 Z" fill="#000000" fill-rule="evenodd" fill-opacity="1" /><path clip-path="url(#clip140)" d="M 0 0 M1097.39 706.242 L1100.06 706.242 L1100.06 722.446 L1097.39 722.446 L1097.39 706.242 M1097.39 699.935 L1100.06 699.935 L1100.06 703.306 L1097.39 703.306 L1097.39 699.935 Z" fill="#000000" fill-rule="evenodd" fill-opacity="1" /><path clip-path="url(#clip140)" d="M 0 0 M1113.51 714.156 Q1113.51 711.263 1112.31 709.671 Q1111.12 708.08 1108.97 708.08 Q1106.83 708.08 1105.63 709.671 Q1104.44 711.263 1104.44 714.156 Q1104.44 717.035 1105.63 718.627 Q1106.83 720.218 1108.97 720.218 Q1111.12 720.218 1112.31 718.627 Q1113.51 717.035 1113.51 714.156 M1116.17 720.435 Q1116.17 724.573 1114.34 726.584 Q1112.5 728.609 1108.71 728.609 Q1107.3 728.609 1106.06 728.392 Q1104.82 728.19 1103.64 727.756 L1103.64 725.166 Q1104.82 725.802 1105.96 726.106 Q1107.1 726.41 1108.29 726.41 Q1110.91 726.41 1112.21 725.036 Q1113.51 723.676 1113.51 720.912 L1113.51 719.596 Q1112.69 721.028 1111.4 721.737 Q1110.11 722.446 1108.32 722.446 Q1105.34 722.446 1103.51 720.175 Q1101.69 717.903 1101.69 714.156 Q1101.69 710.395 1103.51 708.123 Q1105.34 705.852 1108.32 705.852 Q1110.11 705.852 1111.4 706.561 Q1112.69 707.27 1113.51 708.702 L1113.51 706.242 L1116.17 706.242 L1116.17 720.435 Z" fill="#000000" fill-rule="evenodd" fill-opacity="1" /><path clip-path="url(#clip140)" d="M 0 0 M1132.43 712.666 L1132.43 722.446 L1129.77 722.446 L1129.77 712.753 Q1129.77 710.452 1128.88 709.31 Q1127.98 708.167 1126.18 708.167 Q1124.03 708.167 1122.78 709.541 Q1121.54 710.915 1121.54 713.288 L1121.54 722.446 L1118.86 722.446 L1118.86 706.242 L1121.54 706.242 L1121.54 708.76 Q1122.49 707.299 1123.78 706.575 Q1125.08 705.852 1126.78 705.852 Q1129.57 705.852 1131 707.588 Q1132.43 709.31 1132.43 712.666 Z" fill="#000000" fill-rule="evenodd" fill-opacity="1" /><path clip-path="url(#clip140)" d="M 0 0 M1147.54 727.365 L1147.54 729.434 L1132.14 729.434 L1132.14 727.365 L1147.54 727.365 Z" fill="#000000" fill-rule="evenodd" fill-opacity="1" /><path clip-path="url(#clip140)" d="M 0 0 M1160.69 712.319 Q1161.63 712.637 1162.51 713.679 Q1163.41 714.72 1164.31 716.543 L1167.27 722.446 L1164.13 722.446 L1161.37 716.905 Q1160.3 714.735 1159.29 714.026 Q1158.29 713.317 1156.55 713.317 L1153.37 713.317 L1153.37 722.446 L1150.45 722.446 L1150.45 700.846 L1157.04 700.846 Q1160.75 700.846 1162.57 702.394 Q1164.39 703.942 1164.39 707.067 Q1164.39 709.107 1163.44 710.452 Q1162.5 711.798 1160.69 712.319 M1153.37 703.248 L1153.37 710.915 L1157.04 710.915 Q1159.16 710.915 1160.23 709.946 Q1161.31 708.962 1161.31 707.067 Q1161.31 705.172 1160.23 704.217 Q1159.16 703.248 1157.04 703.248 L1153.37 703.248 Z" fill="#000000" fill-rule="evenodd" fill-opacity="1" /><path clip-path="url(#clip140)" d="M 0 0 M1182.59 713.679 L1182.59 714.981 L1170.35 714.981 Q1170.53 717.73 1172 719.176 Q1173.49 720.609 1176.14 720.609 Q1177.67 720.609 1179.11 720.232 Q1180.55 719.856 1181.97 719.104 L1181.97 721.621 Q1180.54 722.229 1179.03 722.547 Q1177.53 722.866 1175.98 722.866 Q1172.1 722.866 1169.83 720.609 Q1167.58 718.352 1167.58 714.503 Q1167.58 710.525 1169.72 708.196 Q1171.87 705.852 1175.52 705.852 Q1178.79 705.852 1180.68 707.964 Q1182.59 710.062 1182.59 713.679 M1179.93 712.897 Q1179.9 710.713 1178.7 709.411 Q1177.51 708.109 1175.55 708.109 Q1173.32 708.109 1171.97 709.367 Q1170.64 710.626 1170.44 712.912 L1179.93 712.897 Z" fill="#000000" fill-rule="evenodd" fill-opacity="1" /><path clip-path="url(#clip140)" d="M 0 0 M1192.75 714.301 Q1189.52 714.301 1188.28 715.039 Q1187.03 715.776 1187.03 717.556 Q1187.03 718.974 1187.96 719.813 Q1188.9 720.638 1190.51 720.638 Q1192.72 720.638 1194.05 719.075 Q1195.4 717.498 1195.4 714.894 L1195.4 714.301 L1192.75 714.301 M1198.06 713.201 L1198.06 722.446 L1195.4 722.446 L1195.4 719.987 Q1194.49 721.462 1193.13 722.171 Q1191.77 722.866 1189.8 722.866 Q1187.31 722.866 1185.83 721.477 Q1184.37 720.073 1184.37 717.73 Q1184.37 714.995 1186.2 713.606 Q1188.03 712.217 1191.66 712.217 L1195.4 712.217 L1195.4 711.957 Q1195.4 710.12 1194.18 709.121 Q1192.98 708.109 1190.8 708.109 Q1189.41 708.109 1188.09 708.441 Q1186.77 708.774 1185.56 709.44 L1185.56 706.98 Q1187.02 706.416 1188.39 706.141 Q1189.77 705.852 1191.07 705.852 Q1194.59 705.852 1196.32 707.675 Q1198.06 709.498 1198.06 713.201 Z" fill="#000000" fill-rule="evenodd" fill-opacity="1" /><path clip-path="url(#clip140)" d="M 0 0 M1211.18 706.72 L1211.18 709.237 Q1210.05 708.658 1208.84 708.369 Q1207.62 708.08 1206.32 708.08 Q1204.34 708.08 1203.34 708.687 Q1202.36 709.295 1202.36 710.51 Q1202.36 711.436 1203.06 711.972 Q1203.77 712.492 1205.91 712.97 L1206.83 713.172 Q1209.66 713.78 1210.85 714.894 Q1212.05 715.994 1212.05 717.976 Q1212.05 720.232 1210.25 721.549 Q1208.48 722.866 1205.35 722.866 Q1204.05 722.866 1202.63 722.605 Q1201.23 722.359 1199.66 721.853 L1199.66 719.104 Q1201.14 719.871 1202.57 720.261 Q1204 720.638 1205.41 720.638 Q1207.29 720.638 1208.3 720.001 Q1209.31 719.35 1209.31 718.178 Q1209.31 717.093 1208.58 716.514 Q1207.85 715.936 1205.38 715.4 L1204.45 715.183 Q1201.98 714.663 1200.88 713.592 Q1199.78 712.507 1199.78 710.626 Q1199.78 708.34 1201.4 707.096 Q1203.02 705.852 1206 705.852 Q1207.48 705.852 1208.78 706.069 Q1210.08 706.286 1211.18 706.72 Z" fill="#000000" fill-rule="evenodd" fill-opacity="1" /><path clip-path="url(#clip140)" d="M 0 0 M1221.12 708.109 Q1218.98 708.109 1217.73 709.787 Q1216.49 711.451 1216.49 714.359 Q1216.49 717.267 1217.72 718.945 Q1218.96 720.609 1221.12 720.609 Q1223.25 720.609 1224.49 718.93 Q1225.74 717.252 1225.74 714.359 Q1225.74 711.48 1224.49 709.801 Q1223.25 708.109 1221.12 708.109 M1221.12 705.852 Q1224.59 705.852 1226.57 708.109 Q1228.56 710.366 1228.56 714.359 Q1228.56 718.337 1226.57 720.609 Q1224.59 722.866 1221.12 722.866 Q1217.63 722.866 1215.65 720.609 Q1213.68 718.337 1213.68 714.359 Q1213.68 710.366 1215.65 708.109 Q1217.63 705.852 1221.12 705.852 Z" fill="#000000" fill-rule="evenodd" fill-opacity="1" /><path clip-path="url(#clip140)" d="M 0 0 M1244.82 712.666 L1244.82 722.446 L1242.16 722.446 L1242.16 712.753 Q1242.16 710.452 1241.26 709.31 Q1240.36 708.167 1238.57 708.167 Q1236.41 708.167 1235.17 709.541 Q1233.92 710.915 1233.92 713.288 L1233.92 722.446 L1231.25 722.446 L1231.25 706.242 L1233.92 706.242 L1233.92 708.76 Q1234.88 707.299 1236.17 706.575 Q1237.47 705.852 1239.16 705.852 Q1241.95 705.852 1243.39 707.588 Q1244.82 709.31 1244.82 712.666 Z" fill="#000000" fill-rule="evenodd" fill-opacity="1" /><path clip-path="url(#clip140)" d="M 0 0 M1247.61 706.242 L1250.27 706.242 L1250.27 722.446 L1247.61 722.446 L1247.61 706.242 M1247.61 699.935 L1250.27 699.935 L1250.27 703.306 L1247.61 703.306 L1247.61 699.935 Z" fill="#000000" fill-rule="evenodd" fill-opacity="1" /><path clip-path="url(#clip140)" d="M 0 0 M1266.53 712.666 L1266.53 722.446 L1263.87 722.446 L1263.87 712.753 Q1263.87 710.452 1262.97 709.31 Q1262.08 708.167 1260.28 708.167 Q1258.13 708.167 1256.88 709.541 Q1255.64 710.915 1255.64 713.288 L1255.64 722.446 L1252.96 722.446 L1252.96 706.242 L1255.64 706.242 L1255.64 708.76 Q1256.59 707.299 1257.88 706.575 Q1259.18 705.852 1260.88 705.852 Q1263.67 705.852 1265.1 707.588 Q1266.53 709.31 1266.53 712.666 Z" fill="#000000" fill-rule="evenodd" fill-opacity="1" /><path clip-path="url(#clip140)" d="M 0 0 M1279.99 714.156 Q1279.99 711.263 1278.79 709.671 Q1277.6 708.08 1275.45 708.08 Q1273.3 708.08 1272.1 709.671 Q1270.92 711.263 1270.92 714.156 Q1270.92 717.035 1272.1 718.627 Q1273.3 720.218 1275.45 720.218 Q1277.6 720.218 1278.79 718.627 Q1279.99 717.035 1279.99 714.156 M1282.65 720.435 Q1282.65 724.573 1280.81 726.584 Q1278.98 728.609 1275.19 728.609 Q1273.78 728.609 1272.54 728.392 Q1271.29 728.19 1270.12 727.756 L1270.12 725.166 Q1271.29 725.802 1272.44 726.106 Q1273.58 726.41 1274.77 726.41 Q1277.38 726.41 1278.69 725.036 Q1279.99 723.676 1279.99 720.912 L1279.99 719.596 Q1279.16 721.028 1277.88 721.737 Q1276.59 722.446 1274.79 722.446 Q1271.81 722.446 1269.99 720.175 Q1268.17 717.903 1268.17 714.156 Q1268.17 710.395 1269.99 708.123 Q1271.81 705.852 1274.79 705.852 Q1276.59 705.852 1277.88 706.561 Q1279.16 707.27 1279.99 708.702 L1279.99 706.242 L1282.65 706.242 L1282.65 720.435 Z" fill="#000000" fill-rule="evenodd" fill-opacity="1" /><path clip-path="url(#clip140)" d="M 0 0 M296.019 1254.17 L296.019 1257.25 Q294.544 1255.88 292.865 1255.2 Q291.202 1254.52 289.321 1254.52 Q285.617 1254.52 283.649 1256.79 Q281.682 1259.05 281.682 1263.33 Q281.682 1267.6 283.649 1269.87 Q285.617 1272.12 289.321 1272.12 Q291.202 1272.12 292.865 1271.44 Q294.544 1270.76 296.019 1269.39 L296.019 1272.44 Q294.486 1273.48 292.764 1274.01 Q291.057 1274.53 289.147 1274.53 Q284.243 1274.53 281.421 1271.53 Q278.6 1268.52 278.6 1263.33 Q278.6 1258.12 281.421 1255.12 Q284.243 1252.12 289.147 1252.12 Q291.086 1252.12 292.793 1252.64 Q294.515 1253.14 296.019 1254.17 Z" fill="#000000" fill-rule="evenodd" fill-opacity="1" /><path clip-path="url(#clip140)" d="M 0 0 M305.09 1259.77 Q302.949 1259.77 301.705 1261.45 Q300.461 1263.11 300.461 1266.02 Q300.461 1268.93 301.69 1270.61 Q302.935 1272.27 305.09 1272.27 Q307.217 1272.27 308.461 1270.59 Q309.705 1268.91 309.705 1266.02 Q309.705 1263.14 308.461 1261.46 Q307.217 1259.77 305.09 1259.77 M305.09 1257.51 Q308.563 1257.51 310.545 1259.77 Q312.527 1262.03 312.527 1266.02 Q312.527 1270 310.545 1272.27 Q308.563 1274.53 305.09 1274.53 Q301.604 1274.53 299.622 1272.27 Q297.654 1270 297.654 1266.02 Q297.654 1262.03 299.622 1259.77 Q301.604 1257.51 305.09 1257.51 Z" fill="#000000" fill-rule="evenodd" fill-opacity="1" /><path clip-path="url(#clip140)" d="M 0 0 M315.319 1251.59 L317.981 1251.59 L317.981 1274.11 L315.319 1274.11 L315.319 1251.59 Z" fill="#000000" fill-rule="evenodd" fill-opacity="1" /><path clip-path="url(#clip140)" d="M 0 0 M320.773 1251.59 L323.435 1251.59 L323.435 1274.11 L320.773 1274.11 L320.773 1251.59 Z" fill="#000000" fill-rule="evenodd" fill-opacity="1" /><path clip-path="url(#clip140)" d="M 0 0 M333.591 1265.96 Q330.365 1265.96 329.121 1266.7 Q327.877 1267.44 327.877 1269.22 Q327.877 1270.63 328.803 1271.47 Q329.743 1272.3 331.349 1272.3 Q333.562 1272.3 334.893 1270.74 Q336.239 1269.16 336.239 1266.55 L336.239 1265.96 L333.591 1265.96 M338.901 1264.86 L338.901 1274.11 L336.239 1274.11 L336.239 1271.65 Q335.327 1273.12 333.967 1273.83 Q332.608 1274.53 330.64 1274.53 Q328.152 1274.53 326.676 1273.14 Q325.215 1271.73 325.215 1269.39 Q325.215 1266.66 327.038 1265.27 Q328.875 1263.88 332.506 1263.88 L336.239 1263.88 L336.239 1263.62 Q336.239 1261.78 335.024 1260.78 Q333.823 1259.77 331.638 1259.77 Q330.249 1259.77 328.933 1260.1 Q327.616 1260.43 326.401 1261.1 L326.401 1258.64 Q327.862 1258.08 329.237 1257.8 Q330.611 1257.51 331.913 1257.51 Q335.429 1257.51 337.165 1259.34 Q338.901 1261.16 338.901 1264.86 Z" fill="#000000" fill-rule="evenodd" fill-opacity="1" /><path clip-path="url(#clip140)" d="M 0 0 M353.325 1266.02 Q353.325 1263.08 352.11 1261.42 Q350.909 1259.74 348.797 1259.74 Q346.684 1259.74 345.469 1261.42 Q344.268 1263.08 344.268 1266.02 Q344.268 1268.96 345.469 1270.63 Q346.684 1272.3 348.797 1272.3 Q350.909 1272.3 352.11 1270.63 Q353.325 1268.96 353.325 1266.02 M344.268 1260.36 Q345.107 1258.92 346.381 1258.22 Q347.668 1257.51 349.448 1257.51 Q352.399 1257.51 354.236 1259.86 Q356.088 1262.2 356.088 1266.02 Q356.088 1269.84 354.236 1272.18 Q352.399 1274.53 349.448 1274.53 Q347.668 1274.53 346.381 1273.83 Q345.107 1273.12 344.268 1271.68 L344.268 1274.11 L341.592 1274.11 L341.592 1251.59 L344.268 1251.59 L344.268 1260.36 Z" fill="#000000" fill-rule="evenodd" fill-opacity="1" /><path clip-path="url(#clip140)" d="M 0 0 M365.159 1259.77 Q363.018 1259.77 361.774 1261.45 Q360.53 1263.11 360.53 1266.02 Q360.53 1268.93 361.76 1270.61 Q363.004 1272.27 365.159 1272.27 Q367.286 1272.27 368.53 1270.59 Q369.775 1268.91 369.775 1266.02 Q369.775 1263.14 368.53 1261.46 Q367.286 1259.77 365.159 1259.77 M365.159 1257.51 Q368.632 1257.51 370.614 1259.77 Q372.596 1262.03 372.596 1266.02 Q372.596 1270 370.614 1272.27 Q368.632 1274.53 365.159 1274.53 Q361.673 1274.53 359.691 1272.27 Q357.723 1270 357.723 1266.02 Q357.723 1262.03 359.691 1259.77 Q361.673 1257.51 365.159 1257.51 Z" fill="#000000" fill-rule="evenodd" fill-opacity="1" /><path clip-path="url(#clip140)" d="M 0 0 M384.777 1260.39 Q384.329 1260.13 383.794 1260.02 Q383.273 1259.88 382.636 1259.88 Q380.379 1259.88 379.164 1261.36 Q377.963 1262.82 377.963 1265.57 L377.963 1274.11 L375.287 1274.11 L375.287 1257.9 L377.963 1257.9 L377.963 1260.42 Q378.802 1258.94 380.148 1258.24 Q381.493 1257.51 383.417 1257.51 Q383.692 1257.51 384.025 1257.56 Q384.358 1257.58 384.763 1257.66 L384.777 1260.39 Z" fill="#000000" fill-rule="evenodd" fill-opacity="1" /><path clip-path="url(#clip140)" d="M 0 0 M394.934 1265.96 Q391.707 1265.96 390.463 1266.7 Q389.219 1267.44 389.219 1269.22 Q389.219 1270.63 390.145 1271.47 Q391.085 1272.3 392.691 1272.3 Q394.905 1272.3 396.236 1270.74 Q397.581 1269.16 397.581 1266.55 L397.581 1265.96 L394.934 1265.96 M400.243 1264.86 L400.243 1274.11 L397.581 1274.11 L397.581 1271.65 Q396.67 1273.12 395.31 1273.83 Q393.95 1274.53 391.982 1274.53 Q389.494 1274.53 388.018 1273.14 Q386.557 1271.73 386.557 1269.39 Q386.557 1266.66 388.38 1265.27 Q390.217 1263.88 393.849 1263.88 L397.581 1263.88 L397.581 1263.62 Q397.581 1261.78 396.366 1260.78 Q395.165 1259.77 392.98 1259.77 Q391.592 1259.77 390.275 1260.1 Q388.959 1260.43 387.743 1261.1 L387.743 1258.64 Q389.204 1258.08 390.579 1257.8 Q391.953 1257.51 393.255 1257.51 Q396.771 1257.51 398.507 1259.34 Q400.243 1261.16 400.243 1264.86 Z" fill="#000000" fill-rule="evenodd" fill-opacity="1" /><path clip-path="url(#clip140)" d="M 0 0 M405.669 1253.3 L405.669 1257.9 L411.152 1257.9 L411.152 1259.97 L405.669 1259.97 L405.669 1268.77 Q405.669 1270.75 406.204 1271.31 Q406.754 1271.88 408.417 1271.88 L411.152 1271.88 L411.152 1274.11 L408.417 1274.11 Q405.336 1274.11 404.164 1272.96 Q402.992 1271.81 402.992 1268.77 L402.992 1259.97 L401.039 1259.97 L401.039 1257.9 L402.992 1257.9 L402.992 1253.3 L405.669 1253.3 Z" fill="#000000" fill-rule="evenodd" fill-opacity="1" /><path clip-path="url(#clip140)" d="M 0 0 M413.944 1257.9 L416.606 1257.9 L416.606 1274.11 L413.944 1274.11 L413.944 1257.9 M413.944 1251.59 L416.606 1251.59 L416.606 1254.97 L413.944 1254.97 L413.944 1251.59 Z" fill="#000000" fill-rule="evenodd" fill-opacity="1" /><path clip-path="url(#clip140)" d="M 0 0 M425.677 1259.77 Q423.536 1259.77 422.292 1261.45 Q421.047 1263.11 421.047 1266.02 Q421.047 1268.93 422.277 1270.61 Q423.521 1272.27 425.677 1272.27 Q427.804 1272.27 429.048 1270.59 Q430.292 1268.91 430.292 1266.02 Q430.292 1263.14 429.048 1261.46 Q427.804 1259.77 425.677 1259.77 M425.677 1257.51 Q429.149 1257.51 431.131 1259.77 Q433.113 1262.03 433.113 1266.02 Q433.113 1270 431.131 1272.27 Q429.149 1274.53 425.677 1274.53 Q422.19 1274.53 420.208 1272.27 Q418.241 1270 418.241 1266.02 Q418.241 1262.03 420.208 1259.77 Q422.19 1257.51 425.677 1257.51 Z" fill="#000000" fill-rule="evenodd" fill-opacity="1" /><path clip-path="url(#clip140)" d="M 0 0 M449.375 1264.33 L449.375 1274.11 L446.713 1274.11 L446.713 1264.41 Q446.713 1262.11 445.816 1260.97 Q444.919 1259.83 443.125 1259.83 Q440.969 1259.83 439.725 1261.2 Q438.481 1262.58 438.481 1264.95 L438.481 1274.11 L435.804 1274.11 L435.804 1257.9 L438.481 1257.9 L438.481 1260.42 Q439.436 1258.96 440.723 1258.24 Q442.025 1257.51 443.718 1257.51 Q446.51 1257.51 447.943 1259.25 Q449.375 1260.97 449.375 1264.33 Z" fill="#000000" fill-rule="evenodd" fill-opacity="1" /><path clip-path="url(#clip142)" d="M960.248 950.523 L928.248 950.523 L944.248 982.523 L960.248 950.523 Z" fill="#800080" fill-rule="evenodd" fill-opacity="1" stroke="none"/>
<polyline clip-path="url(#clip142)" style="stroke:#800080; stroke-width:4; stroke-opacity:1; fill:none" stroke-dasharray="16, 10" points="
  871.032,1024.84 1017.46,1024.84 
  "/>
<polyline clip-path="url(#clip142)" style="stroke:#800080; stroke-width:4; stroke-opacity:1; fill:none" stroke-dasharray="16, 10" points="
  871.032,908.204 1017.46,908.204 
  "/>
<polyline clip-path="url(#clip142)" style="stroke:#800080; stroke-width:4; stroke-opacity:1; fill:none" stroke-dasharray="16, 10" points="
  871.032,1024.84 871.032,908.204 
  "/>
<polyline clip-path="url(#clip142)" style="stroke:#800080; stroke-width:4; stroke-opacity:1; fill:none" stroke-dasharray="16, 10" points="
  1017.46,1024.84 1017.46,908.204 
  "/>
<path clip-path="url(#clip142)" d="M997.87 948.03 L981.87 980.03 L1013.87 980.03 L997.87 948.03 Z" fill="#800080" fill-rule="evenodd" fill-opacity="1" stroke="none"/>
<polyline clip-path="url(#clip142)" style="stroke:#800080; stroke-width:4; stroke-opacity:1; fill:none" stroke-dasharray="16, 10" points="
  940.098,1019.24 1055.64,1019.24 
  "/>
<polyline clip-path="url(#clip142)" style="stroke:#800080; stroke-width:4; stroke-opacity:1; fill:none" stroke-dasharray="16, 10" points="
  940.098,908.818 1055.64,908.818 
  "/>
<polyline clip-path="url(#clip142)" style="stroke:#800080; stroke-width:4; stroke-opacity:1; fill:none" stroke-dasharray="16, 10" points="
  940.098,1019.24 940.098,908.818 
  "/>
<polyline clip-path="url(#clip142)" style="stroke:#800080; stroke-width:4; stroke-opacity:1; fill:none" stroke-dasharray="16, 10" points="
  1055.64,1019.24 1055.64,908.818 
  "/>
<path clip-path="url(#clip142)" d="M1136.43 869.185 L1104.43 869.185 L1120.43 901.185 L1136.43 869.185 Z" fill="#ffa500" fill-rule="evenodd" fill-opacity="1" stroke="none"/>
<polyline clip-path="url(#clip142)" style="stroke:#ffa500; stroke-width:4; stroke-opacity:1; fill:none" stroke-dasharray="16, 10" points="
  1085.27,936.892 1155.59,936.892 
  "/>
<polyline clip-path="url(#clip142)" style="stroke:#ffa500; stroke-width:4; stroke-opacity:1; fill:none" stroke-dasharray="16, 10" points="
  1085.27,833.477 1155.59,833.477 
  "/>
<polyline clip-path="url(#clip142)" style="stroke:#ffa500; stroke-width:4; stroke-opacity:1; fill:none" stroke-dasharray="16, 10" points="
  1085.27,936.892 1085.27,833.477 
  "/>
<polyline clip-path="url(#clip142)" style="stroke:#ffa500; stroke-width:4; stroke-opacity:1; fill:none" stroke-dasharray="16, 10" points="
  1155.59,936.892 1155.59,833.477 
  "/>
<path clip-path="url(#clip142)" d="M1060.33 1068.53 L1044.33 1100.53 L1076.33 1100.53 L1060.33 1068.53 Z" fill="#ffa500" fill-rule="evenodd" fill-opacity="1" stroke="none"/>
<polyline clip-path="url(#clip142)" style="stroke:#ffa500; stroke-width:4; stroke-opacity:1; fill:none" stroke-dasharray="16, 10" points="
  980.313,1147.52 1140.34,1147.52 
  "/>
<polyline clip-path="url(#clip142)" style="stroke:#ffa500; stroke-width:4; stroke-opacity:1; fill:none" stroke-dasharray="16, 10" points="
  980.313,1021.54 1140.34,1021.54 
  "/>
<polyline clip-path="url(#clip142)" style="stroke:#ffa500; stroke-width:4; stroke-opacity:1; fill:none" stroke-dasharray="16, 10" points="
  980.313,1147.52 980.313,1021.54 
  "/>
<polyline clip-path="url(#clip142)" style="stroke:#ffa500; stroke-width:4; stroke-opacity:1; fill:none" stroke-dasharray="16, 10" points="
  1140.34,1147.52 1140.34,1021.54 
  "/>
<path clip-path="url(#clip142)" d="M955.059 949.277 L955.059 981.277 L987.059 981.277 L987.059 949.277 L955.059 949.277 Z" fill="#800080" fill-rule="evenodd" fill-opacity="1" stroke="none"/>
<polyline clip-path="url(#clip142)" style="stroke:#800080; stroke-width:4; stroke-opacity:1; fill:none" stroke-dasharray="16, 10" points="
  925.424,1004.03 1016.69,1004.03 
  "/>
<polyline clip-path="url(#clip142)" style="stroke:#800080; stroke-width:4; stroke-opacity:1; fill:none" stroke-dasharray="16, 10" points="
  925.424,926.519 1016.69,926.519 
  "/>
<polyline clip-path="url(#clip142)" style="stroke:#800080; stroke-width:4; stroke-opacity:1; fill:none" stroke-dasharray="16, 10" points="
  925.424,1004.03 925.424,926.519 
  "/>
<polyline clip-path="url(#clip142)" style="stroke:#800080; stroke-width:4; stroke-opacity:1; fill:none" stroke-dasharray="16, 10" points="
  1016.69,1004.03 1016.69,926.519 
  "/>
<path clip-path="url(#clip142)" d="M1074.38 968.859 L1074.38 1000.86 L1106.38 1000.86 L1106.38 968.859 L1074.38 968.859 Z" fill="#ffa500" fill-rule="evenodd" fill-opacity="1" stroke="none"/>
<polyline clip-path="url(#clip142)" style="stroke:#ffa500; stroke-width:4; stroke-opacity:1; fill:none" stroke-dasharray="16, 10" points="
  1047.49,1034.5 1133.27,1034.5 
  "/>
<polyline clip-path="url(#clip142)" style="stroke:#ffa500; stroke-width:4; stroke-opacity:1; fill:none" stroke-dasharray="16, 10" points="
  1047.49,935.213 1133.27,935.213 
  "/>
<polyline clip-path="url(#clip142)" style="stroke:#ffa500; stroke-width:4; stroke-opacity:1; fill:none" stroke-dasharray="16, 10" points="
  1047.49,1034.5 1047.49,935.213 
  "/>
<polyline clip-path="url(#clip142)" style="stroke:#ffa500; stroke-width:4; stroke-opacity:1; fill:none" stroke-dasharray="16, 10" points="
  1133.27,1034.5 1133.27,935.213 
  "/>
</svg>
