<?xml version="1.0" encoding="utf-8"?>
<svg xmlns="http://www.w3.org/2000/svg" xmlns:xlink="http://www.w3.org/1999/xlink" width="500" height="500" viewBox="0 0 2000 2000">
<defs>
  <clipPath id="clip220">
    <rect x="0" y="0" width="2000" height="2000"/>
  </clipPath>
</defs>
<path clip-path="url(#clip220)" d="
M0 2000 L2000 2000 L2000 0 L0 0  Z
  " fill="#ffffff" fill-rule="evenodd" fill-opacity="1"/>
<defs>
  <clipPath id="clip221">
    <rect x="400" y="200" width="1401" height="1401"/>
  </clipPath>
</defs>
<path clip-path="url(#clip220)" d="
M240.472 1759.53 L1811.02 1759.53 L1811.02 188.976 L240.472 188.976  Z
  " fill="#ffffff" fill-rule="evenodd" fill-opacity="1"/>
<defs>
  <clipPath id="clip222">
    <rect x="240" y="188" width="1572" height="1572"/>
  </clipPath>
</defs>
<polyline clip-path="url(#clip222)" style="stroke:#000000; stroke-width:2; stroke-opacity:0.1; fill:none" points="
  240.472,1759.53 240.472,188.976 
  "/>
<polyline clip-path="url(#clip222)" style="stroke:#000000; stroke-width:2; stroke-opacity:0.1; fill:none" points="
  1025.75,1759.53 1025.75,188.976 
  "/>
<polyline clip-path="url(#clip222)" style="stroke:#000000; stroke-width:2; stroke-opacity:0.1; fill:none" points="
  1811.02,1759.53 1811.02,188.976 
  "/>
<polyline clip-path="url(#clip222)" style="stroke:#000000; stroke-width:2; stroke-opacity:0.1; fill:none" points="
  240.472,1759.53 1811.02,1759.53 
  "/>
<polyline clip-path="url(#clip222)" style="stroke:#000000; stroke-width:2; stroke-opacity:0.1; fill:none" points="
  240.472,974.252 1811.02,974.252 
  "/>
<polyline clip-path="url(#clip222)" style="stroke:#000000; stroke-width:2; stroke-opacity:0.1; fill:none" points="
  240.472,188.976 1811.02,188.976 
  "/>
<polyline clip-path="url(#clip220)" style="stroke:#000000; stroke-width:4; stroke-opacity:1; fill:none" points="
  240.472,1759.53 1811.02,1759.53 
  "/>
<polyline clip-path="url(#clip220)" style="stroke:#000000; stroke-width:4; stroke-opacity:1; fill:none" points="
  240.472,1759.53 240.472,188.976 
  "/>
<polyline clip-path="url(#clip220)" style="stroke:#000000; stroke-width:4; stroke-opacity:1; fill:none" points="
  240.472,1759.53 240.472,1740.68 
  "/>
<polyline clip-path="url(#clip220)" style="stroke:#000000; stroke-width:4; stroke-opacity:1; fill:none" points="
  1025.75,1759.53 1025.75,1740.68 
  "/>
<polyline clip-path="url(#clip220)" style="stroke:#000000; stroke-width:4; stroke-opacity:1; fill:none" points="
  1811.02,1759.53 1811.02,1740.68 
  "/>
<polyline clip-path="url(#clip220)" style="stroke:#000000; stroke-width:4; stroke-opacity:1; fill:none" points="
  240.472,1759.53 259.319,1759.53 
  "/>
<polyline clip-path="url(#clip220)" style="stroke:#000000; stroke-width:4; stroke-opacity:1; fill:none" points="
  240.472,974.252 259.319,974.252 
  "/>
<polyline clip-path="url(#clip220)" style="stroke:#000000; stroke-width:4; stroke-opacity:1; fill:none" points="
  240.472,188.976 259.319,188.976 
  "/>
<path clip-path="url(#clip220)" d="M 0 0 M221.341 1796.12 L233.817 1796.12 L233.817 1799.91 L221.341 1799.91 L221.341 1796.12 Z" fill="#000000" fill-rule="evenodd" fill-opacity="1" /><path clip-path="url(#clip220)" d="M 0 0 M239.697 1807.06 L247.336 1807.06 L247.336 1780.7 L239.026 1782.37 L239.026 1778.11 L247.29 1776.44 L251.965 1776.44 L251.965 1807.06 L259.604 1807.06 L259.604 1811 L239.697 1811 L239.697 1807.06 Z" fill="#000000" fill-rule="evenodd" fill-opacity="1" /><path clip-path="url(#clip220)" d="M 0 0 M1025.75 1779.52 Q1022.14 1779.52 1020.31 1783.08 Q1018.5 1786.62 1018.5 1793.75 Q1018.5 1800.86 1020.31 1804.43 Q1022.14 1807.97 1025.75 1807.97 Q1029.38 1807.97 1031.19 1804.43 Q1033.02 1800.86 1033.02 1793.75 Q1033.02 1786.62 1031.19 1783.08 Q1029.38 1779.52 1025.75 1779.52 M1025.75 1775.81 Q1031.56 1775.81 1034.61 1780.42 Q1037.69 1785 1037.69 1793.75 Q1037.69 1802.48 1034.61 1807.09 Q1031.56 1811.67 1025.75 1811.67 Q1019.94 1811.67 1016.86 1807.09 Q1013.8 1802.48 1013.8 1793.75 Q1013.8 1785 1016.86 1780.42 Q1019.94 1775.81 1025.75 1775.81 Z" fill="#000000" fill-rule="evenodd" fill-opacity="1" /><path clip-path="url(#clip220)" d="M 0 0 M1801.41 1807.06 L1809.04 1807.06 L1809.04 1780.7 L1800.73 1782.37 L1800.73 1778.11 L1809 1776.44 L1813.67 1776.44 L1813.67 1807.06 L1821.31 1807.06 L1821.31 1811 L1801.41 1811 L1801.41 1807.06 Z" fill="#000000" fill-rule="evenodd" fill-opacity="1" /><path clip-path="url(#clip220)" d="M 0 0 M182.209 1761.92 L194.686 1761.92 L194.686 1765.72 L182.209 1765.72 L182.209 1761.92 Z" fill="#000000" fill-rule="evenodd" fill-opacity="1" /><path clip-path="url(#clip220)" d="M 0 0 M200.565 1772.87 L208.204 1772.87 L208.204 1746.51 L199.894 1748.17 L199.894 1743.91 L208.158 1742.25 L212.834 1742.25 L212.834 1772.87 L220.472 1772.87 L220.472 1776.81 L200.565 1776.81 L200.565 1772.87 Z" fill="#000000" fill-rule="evenodd" fill-opacity="1" /><path clip-path="url(#clip220)" d="M 0 0 M208.528 960.051 Q204.917 960.051 203.088 963.615 Q201.283 967.157 201.283 974.287 Q201.283 981.393 203.088 984.958 Q204.917 988.5 208.528 988.5 Q212.162 988.5 213.968 984.958 Q215.797 981.393 215.797 974.287 Q215.797 967.157 213.968 963.615 Q212.162 960.051 208.528 960.051 M208.528 956.347 Q214.338 956.347 217.394 960.953 Q220.472 965.537 220.472 974.287 Q220.472 983.013 217.394 987.62 Q214.338 992.203 208.528 992.203 Q202.718 992.203 199.639 987.62 Q196.584 983.013 196.584 974.287 Q196.584 965.537 199.639 960.953 Q202.718 956.347 208.528 956.347 Z" fill="#000000" fill-rule="evenodd" fill-opacity="1" /><path clip-path="url(#clip220)" d="M 0 0 M200.565 202.321 L208.204 202.321 L208.204 175.956 L199.894 177.622 L199.894 173.363 L208.158 171.696 L212.834 171.696 L212.834 202.321 L220.472 202.321 L220.472 206.256 L200.565 206.256 L200.565 202.321 Z" fill="#000000" fill-rule="evenodd" fill-opacity="1" /><path clip-path="url(#clip220)" d="M 0 0 M911.866 1840.87 L918.772 1840.87 L930.581 1858.54 L942.453 1840.87 L949.36 1840.87 L934.082 1863.69 L950.378 1888.39 L943.471 1888.39 L930.103 1868.18 L916.64 1888.39 L909.701 1888.39 L926.666 1863.02 L911.866 1840.87 Z" fill="#000000" fill-rule="evenodd" fill-opacity="1" /><path clip-path="url(#clip220)" d="M 0 0 M991.31 1838.93 Q987.045 1846.25 984.976 1853.41 Q982.907 1860.57 982.907 1867.93 Q982.907 1875.28 984.976 1882.5 Q987.076 1889.7 991.31 1896.99 L986.217 1896.99 Q981.443 1889.51 979.056 1882.28 Q976.7 1875.06 976.7 1867.93 Q976.7 1860.83 979.056 1853.63 Q981.411 1846.44 986.217 1838.93 L991.31 1838.93 Z" fill="#000000" fill-rule="evenodd" fill-opacity="1" /><path clip-path="url(#clip220)" d="M 0 0 M1003.82 1882.98 L1026.26 1882.98 L1026.26 1888.39 L996.084 1888.39 L996.084 1882.98 Q999.744 1879.19 1006.05 1872.83 Q1012.38 1866.43 1014 1864.58 Q1017.09 1861.11 1018.3 1858.73 Q1019.54 1856.31 1019.54 1853.98 Q1019.54 1850.2 1016.87 1847.81 Q1014.23 1845.42 1009.96 1845.42 Q1006.94 1845.42 1003.56 1846.47 Q1000.22 1847.52 996.402 1849.66 L996.402 1843.16 Q1000.29 1841.6 1003.66 1840.81 Q1007.03 1840.01 1009.83 1840.01 Q1017.22 1840.01 1021.61 1843.7 Q1026 1847.4 1026 1853.57 Q1026 1856.5 1024.89 1859.14 Q1023.81 1861.75 1020.91 1865.32 Q1020.11 1866.24 1015.85 1870.66 Q1011.58 1875.06 1003.82 1882.98 Z" fill="#000000" fill-rule="evenodd" fill-opacity="1" /><path clip-path="url(#clip220)" d="M 0 0 M1047.77 1862.07 Q1043.44 1862.07 1040.9 1865.03 Q1038.38 1867.99 1038.38 1873.15 Q1038.38 1878.27 1040.9 1881.26 Q1043.44 1884.22 1047.77 1884.22 Q1052.1 1884.22 1054.62 1881.26 Q1057.16 1878.27 1057.16 1873.15 Q1057.16 1867.99 1054.62 1865.03 Q1052.1 1862.07 1047.77 1862.07 M1060.54 1841.92 L1060.54 1847.78 Q1058.12 1846.63 1055.64 1846.03 Q1053.18 1845.42 1050.77 1845.42 Q1044.4 1845.42 1041.03 1849.72 Q1037.68 1854.02 1037.21 1862.71 Q1039.08 1859.94 1041.92 1858.47 Q1044.75 1856.98 1048.16 1856.98 Q1055.32 1856.98 1059.45 1861.34 Q1063.62 1865.67 1063.62 1873.15 Q1063.62 1880.47 1059.3 1884.89 Q1054.97 1889.31 1047.77 1889.31 Q1039.53 1889.31 1035.17 1883.01 Q1030.81 1876.68 1030.81 1864.68 Q1030.81 1853.41 1036.16 1846.73 Q1041.5 1840.01 1050.51 1840.01 Q1052.93 1840.01 1055.38 1840.49 Q1057.86 1840.97 1060.54 1841.92 Z" fill="#000000" fill-rule="evenodd" fill-opacity="1" /><path clip-path="url(#clip220)" d="M 0 0 M1111.02 1867.48 Q1108.25 1867.48 1106.66 1869.84 Q1105.1 1872.19 1105.1 1876.39 Q1105.1 1880.53 1106.66 1882.92 Q1108.25 1885.27 1111.02 1885.27 Q1113.72 1885.27 1115.28 1882.92 Q1116.87 1880.53 1116.87 1876.39 Q1116.87 1872.22 1115.28 1869.87 Q1113.72 1867.48 1111.02 1867.48 M1111.02 1863.44 Q1116.05 1863.44 1119.01 1866.94 Q1121.97 1870.44 1121.97 1876.39 Q1121.97 1882.34 1118.97 1885.85 Q1116.01 1889.31 1111.02 1889.31 Q1105.92 1889.31 1102.96 1885.85 Q1100 1882.34 1100 1876.39 Q1100 1870.41 1102.96 1866.94 Q1105.96 1863.44 1111.02 1863.44 M1078.17 1844.05 Q1075.43 1844.05 1073.84 1846.44 Q1072.28 1848.8 1072.28 1852.93 Q1072.28 1857.14 1073.84 1859.49 Q1075.4 1861.85 1078.17 1861.85 Q1080.94 1861.85 1082.5 1859.49 Q1084.09 1857.14 1084.09 1852.93 Q1084.09 1848.83 1082.5 1846.44 Q1080.91 1844.05 1078.17 1844.05 M1106.91 1840.01 L1112 1840.01 L1082.28 1889.31 L1077.18 1889.31 L1106.91 1840.01 M1078.17 1840.01 Q1083.2 1840.01 1086.19 1843.51 Q1089.18 1846.98 1089.18 1852.93 Q1089.18 1858.95 1086.19 1862.42 Q1083.23 1865.89 1078.17 1865.89 Q1073.11 1865.89 1070.15 1862.42 Q1067.22 1858.92 1067.22 1852.93 Q1067.22 1847.01 1070.18 1843.51 Q1073.14 1840.01 1078.17 1840.01 Z" fill="#000000" fill-rule="evenodd" fill-opacity="1" /><path clip-path="url(#clip220)" d="M 0 0 M1127.19 1838.93 L1132.28 1838.93 Q1137.05 1846.44 1139.41 1853.63 Q1141.79 1860.83 1141.79 1867.93 Q1141.79 1875.06 1139.41 1882.28 Q1137.05 1889.51 1132.28 1896.99 L1127.19 1896.99 Q1131.42 1889.7 1133.49 1882.5 Q1135.59 1875.28 1135.59 1867.93 Q1135.59 1860.57 1133.49 1853.41 Q1131.42 1846.25 1127.19 1838.93 Z" fill="#000000" fill-rule="evenodd" fill-opacity="1" /><path clip-path="url(#clip220)" d="M 0 0 M100.433 1090.08 L100.433 1083.17 L119.975 1069.99 L100.433 1056.91 L100.433 1050 L125.323 1066.81 L147.953 1066.81 L147.953 1073.27 L125.323 1073.27 L100.433 1090.08 Z" fill="#000000" fill-rule="evenodd" fill-opacity="1" /><path clip-path="url(#clip220)" d="M 0 0 M98.4912 1009.07 Q105.812 1013.34 112.973 1015.41 Q120.135 1017.48 127.487 1017.48 Q134.839 1017.48 142.064 1015.41 Q149.258 1013.31 156.546 1009.07 L156.546 1014.16 Q149.067 1018.94 141.842 1021.33 Q134.617 1023.68 127.487 1023.68 Q120.389 1023.68 113.196 1021.33 Q106.003 1018.97 98.4912 1014.16 L98.4912 1009.07 Z" fill="#000000" fill-rule="evenodd" fill-opacity="1" /><path clip-path="url(#clip220)" d="M 0 0 M142.542 1000.99 L142.542 990.485 L106.289 990.485 L108.581 1001.91 L102.724 1001.91 L100.433 990.548 L100.433 984.119 L142.542 984.119 L142.542 973.615 L147.953 973.615 L147.953 1000.99 L142.542 1000.99 Z" fill="#000000" fill-rule="evenodd" fill-opacity="1" /><path clip-path="url(#clip220)" d="M 0 0 M125.386 952.895 Q125.386 957.478 127.837 960.12 Q130.288 962.73 134.585 962.73 Q138.882 962.73 141.332 960.12 Q143.783 957.478 143.783 952.895 Q143.783 948.312 141.332 945.67 Q138.85 943.028 134.585 943.028 Q130.288 943.028 127.837 945.67 Q125.386 948.28 125.386 952.895 M122.649 959.324 Q121.631 963.462 118.798 965.786 Q115.965 968.077 111.891 968.077 Q106.194 968.077 102.884 964.035 Q99.5734 959.961 99.5734 952.895 Q99.5734 945.797 102.884 941.755 Q106.194 937.713 111.891 937.713 Q115.965 937.713 118.798 940.036 Q121.631 942.328 122.649 946.434 Q123.731 941.787 126.882 939.209 Q130.033 936.599 134.585 936.599 Q141.492 936.599 145.184 940.832 Q148.876 945.033 148.876 952.895 Q148.876 960.757 145.184 964.99 Q141.492 969.191 134.585 969.191 Q130.033 969.191 126.882 966.581 Q123.731 963.971 122.649 959.324 M112.496 961.68 Q116.188 961.68 118.257 959.388 Q120.326 957.065 120.326 952.895 Q120.326 948.757 118.257 946.434 Q116.188 944.079 112.496 944.079 Q108.804 944.079 106.735 946.434 Q104.666 948.757 104.666 952.895 Q104.666 957.065 106.735 959.388 Q108.804 961.68 112.496 961.68 Z" fill="#000000" fill-rule="evenodd" fill-opacity="1" /><path clip-path="url(#clip220)" d="M 0 0 M127.041 889.206 Q127.041 891.975 129.397 893.567 Q131.752 895.126 135.953 895.126 Q140.091 895.126 142.478 893.567 Q144.834 891.975 144.834 889.206 Q144.834 886.501 142.478 884.941 Q140.091 883.35 135.953 883.35 Q131.784 883.35 129.429 884.941 Q127.041 886.501 127.041 889.206 M122.999 889.206 Q122.999 884.177 126.5 881.217 Q130.001 878.257 135.953 878.257 Q141.905 878.257 145.406 881.249 Q148.876 884.209 148.876 889.206 Q148.876 894.299 145.406 897.259 Q141.905 900.219 135.953 900.219 Q129.97 900.219 126.5 897.259 Q122.999 894.267 122.999 889.206 M103.616 922.053 Q103.616 924.79 106.003 926.382 Q108.358 927.941 112.496 927.941 Q116.697 927.941 119.052 926.382 Q121.408 924.822 121.408 922.053 Q121.408 919.284 119.052 917.724 Q116.697 916.133 112.496 916.133 Q108.39 916.133 106.003 917.724 Q103.616 919.316 103.616 922.053 M99.5734 893.312 L99.5734 888.219 L148.876 917.947 L148.876 923.04 L99.5734 893.312 M99.5734 922.053 Q99.5734 917.024 103.075 914.032 Q106.544 911.041 112.496 911.041 Q118.511 911.041 121.981 914.032 Q125.45 916.992 125.45 922.053 Q125.45 927.114 121.981 930.074 Q118.48 933.002 112.496 933.002 Q106.576 933.002 103.075 930.042 Q99.5734 927.082 99.5734 922.053 Z" fill="#000000" fill-rule="evenodd" fill-opacity="1" /><path clip-path="url(#clip220)" d="M 0 0 M98.4912 873.037 L98.4912 867.945 Q106.003 863.17 113.196 860.815 Q120.389 858.428 127.487 858.428 Q134.617 858.428 141.842 860.815 Q149.067 863.17 156.546 867.945 L156.546 873.037 Q149.258 868.804 142.064 866.735 Q134.839 864.635 127.487 864.635 Q120.135 864.635 112.973 866.735 Q105.812 868.804 98.4912 873.037 Z" fill="#000000" fill-rule="evenodd" fill-opacity="1" /><polyline clip-path="url(#clip222)" style="stroke:#800080; stroke-width:0.80967; stroke-opacity:1; fill:none" points="
  855.355,979.783 1243.96,625.172 
  "/>
<polyline clip-path="url(#clip222)" style="stroke:#800080; stroke-width:0.0637714; stroke-opacity:1; fill:none" points="
  954.62,1145.23 1018.47,872.204 
  "/>
<polyline clip-path="url(#clip222)" style="stroke:#800080; stroke-width:0.377721; stroke-opacity:1; fill:none" points="
  746.215,858.884 954.62,1145.23 
  "/>
<polyline clip-path="url(#clip222)" style="stroke:#800080; stroke-width:3.13284; stroke-opacity:1; fill:none" points="
  746.215,858.884 1223.81,1119.51 
  "/>
<polyline clip-path="url(#clip222)" style="stroke:#ffa500; stroke-width:2.35015; stroke-opacity:1; fill:none" points="
  1018.47,872.204 1243.96,625.172 
  "/>
<polyline clip-path="url(#clip222)" style="stroke:#800080; stroke-width:3.3424; stroke-opacity:1; fill:none" points="
  746.215,858.884 1018.47,872.204 
  "/>
<polyline clip-path="url(#clip222)" style="stroke:#ffa500; stroke-width:3.04111; stroke-opacity:1; fill:none" points="
  1018.47,872.204 1223.81,1119.51 
  "/>
<polyline clip-path="url(#clip222)" style="stroke:#ffa500; stroke-width:1.9577; stroke-opacity:1; fill:none" points="
  954.62,1145.23 1223.81,1119.51 
  "/>
<polyline clip-path="url(#clip222)" style="stroke:#800080; stroke-width:6.22728; stroke-opacity:1; fill:none" points="
  746.215,858.884 855.355,979.783 
  "/>
<polyline clip-path="url(#clip222)" style="stroke:#ffa500; stroke-width:0.218098; stroke-opacity:1; fill:none" points="
  954.62,1145.23 1243.96,625.172 
  "/>
<polyline clip-path="url(#clip222)" style="stroke:#ffa500; stroke-width:8; stroke-opacity:1; fill:none" points="
  1223.81,1119.51 1243.96,625.172 
  "/>
<polyline clip-path="url(#clip222)" style="stroke:#800080; stroke-width:3.5241; stroke-opacity:1; fill:none" points="
  855.355,979.783 1018.47,872.204 
  "/>
<polyline clip-path="url(#clip222)" style="stroke:#800080; stroke-width:2.1369; stroke-opacity:1; fill:none" points="
  855.355,979.783 954.62,1145.23 
  "/>
<polyline clip-path="url(#clip222)" style="stroke:#800080; stroke-width:2.2764; stroke-opacity:1; fill:none" points="
  746.215,858.884 1243.96,625.172 
  "/>
<polyline clip-path="url(#clip222)" style="stroke:#800080; stroke-width:1.6582; stroke-opacity:1; fill:none" points="
  855.355,979.783 1223.81,1119.51 
  "/>
<circle clip-path="url(#clip222)" cx="1018.47" cy="872.204" r="23" fill="#000000" fill-rule="evenodd" fill-opacity="1" stroke="none"/>
<circle clip-path="url(#clip222)" cx="855.355" cy="979.783" r="26" fill="#000000" fill-rule="evenodd" fill-opacity="1" stroke="none"/>
<circle clip-path="url(#clip222)" cx="1243.96" cy="625.172" r="23" fill="#000000" fill-rule="evenodd" fill-opacity="1" stroke="none"/>
<circle clip-path="url(#clip222)" cx="954.62" cy="1145.23" r="8" fill="#000000" fill-rule="evenodd" fill-opacity="1" stroke="none"/>
<circle clip-path="url(#clip222)" cx="1223.81" cy="1119.51" r="28" fill="#000000" fill-rule="evenodd" fill-opacity="1" stroke="none"/>
<circle clip-path="url(#clip222)" cx="746.215" cy="858.884" r="8" fill="#000000" fill-rule="evenodd" fill-opacity="1" stroke="none"/>
<path clip-path="url(#clip220)" d="M 0 0 M991.392 878.926 L991.392 895.722 L994.922 895.722 Q999.393 895.722 1001.46 893.697 Q1003.54 891.672 1003.54 887.302 Q1003.54 882.962 1001.46 880.951 Q999.393 878.926 994.922 878.926 L991.392 878.926 M988.47 876.524 L994.474 876.524 Q1000.75 876.524 1003.69 879.143 Q1006.63 881.747 1006.63 887.302 Q1006.63 892.887 1003.68 895.505 Q1000.72 898.124 994.474 898.124 L988.47 898.124 L988.47 876.524 Z" fill="#000000" fill-rule="evenodd" fill-opacity="1" /><path clip-path="url(#clip220)" d="M 0 0 M1016.78 889.979 Q1013.56 889.979 1012.31 890.717 Q1011.07 891.455 1011.07 893.234 Q1011.07 894.652 1011.99 895.491 Q1012.93 896.316 1014.54 896.316 Q1016.75 896.316 1018.08 894.753 Q1019.43 893.176 1019.43 890.572 L1019.43 889.979 L1016.78 889.979 M1022.09 888.879 L1022.09 898.124 L1019.43 898.124 L1019.43 895.665 Q1018.52 897.14 1017.16 897.849 Q1015.8 898.544 1013.83 898.544 Q1011.34 898.544 1009.87 897.155 Q1008.41 895.751 1008.41 893.408 Q1008.41 890.673 1010.23 889.284 Q1012.07 887.896 1015.7 887.896 L1019.43 887.896 L1019.43 887.635 Q1019.43 885.798 1018.21 884.799 Q1017.01 883.787 1014.83 883.787 Q1013.44 883.787 1012.12 884.12 Q1010.81 884.452 1009.59 885.118 L1009.59 882.658 Q1011.05 882.094 1012.43 881.819 Q1013.8 881.53 1015.1 881.53 Q1018.62 881.53 1020.36 883.353 Q1022.09 885.176 1022.09 888.879 Z" fill="#000000" fill-rule="evenodd" fill-opacity="1" /><path clip-path="url(#clip220)" d="M 0 0 M1027.52 877.32 L1027.52 881.92 L1033 881.92 L1033 883.989 L1027.52 883.989 L1027.52 892.786 Q1027.52 894.768 1028.05 895.332 Q1028.6 895.896 1030.27 895.896 L1033 895.896 L1033 898.124 L1030.27 898.124 Q1027.18 898.124 1026.01 896.981 Q1024.84 895.824 1024.84 892.786 L1024.84 883.989 L1022.89 883.989 L1022.89 881.92 L1024.84 881.92 L1024.84 877.32 L1027.52 877.32 Z" fill="#000000" fill-rule="evenodd" fill-opacity="1" /><path clip-path="url(#clip220)" d="M 0 0 M1043.16 889.979 Q1039.93 889.979 1038.69 890.717 Q1037.44 891.455 1037.44 893.234 Q1037.44 894.652 1038.37 895.491 Q1039.31 896.316 1040.91 896.316 Q1043.13 896.316 1044.46 894.753 Q1045.8 893.176 1045.8 890.572 L1045.8 889.979 L1043.16 889.979 M1048.47 888.879 L1048.47 898.124 L1045.8 898.124 L1045.8 895.665 Q1044.89 897.14 1043.53 897.849 Q1042.17 898.544 1040.21 898.544 Q1037.72 898.544 1036.24 897.155 Q1034.78 895.751 1034.78 893.408 Q1034.78 890.673 1036.6 889.284 Q1038.44 887.896 1042.07 887.896 L1045.8 887.896 L1045.8 887.635 Q1045.8 885.798 1044.59 884.799 Q1043.39 883.787 1041.2 883.787 Q1039.81 883.787 1038.5 884.12 Q1037.18 884.452 1035.97 885.118 L1035.97 882.658 Q1037.43 882.094 1038.8 881.819 Q1040.18 881.53 1041.48 881.53 Q1044.99 881.53 1046.73 883.353 Q1048.47 885.176 1048.47 888.879 Z" fill="#000000" fill-rule="evenodd" fill-opacity="1" /><path clip-path="url(#clip220)" d="M 0 0 M713.45 984.103 L731.723 984.103 L731.723 986.563 L724.055 986.563 L724.055 1005.7 L721.118 1005.7 L721.118 986.563 L713.45 986.563 L713.45 984.103 Z" fill="#000000" fill-rule="evenodd" fill-opacity="1" /><path clip-path="url(#clip220)" d="M 0 0 M743.34 996.936 L743.34 998.238 L731.101 998.238 Q731.274 1000.99 732.75 1002.43 Q734.24 1003.87 736.888 1003.87 Q738.421 1003.87 739.854 1003.49 Q741.3 1003.11 742.718 1002.36 L742.718 1004.88 Q741.286 1005.49 739.781 1005.8 Q738.277 1006.12 736.729 1006.12 Q732.851 1006.12 730.58 1003.87 Q728.323 1001.61 728.323 997.76 Q728.323 993.782 730.464 991.453 Q732.62 989.109 736.266 989.109 Q739.535 989.109 741.431 991.221 Q743.34 993.319 743.34 996.936 M740.678 996.155 Q740.649 993.97 739.449 992.668 Q738.262 991.366 736.295 991.366 Q734.067 991.366 732.721 992.624 Q731.39 993.883 731.188 996.169 L740.678 996.155 Z" fill="#000000" fill-rule="evenodd" fill-opacity="1" /><path clip-path="url(#clip220)" d="M 0 0 M757.793 990.122 L757.793 992.61 Q756.665 991.988 755.522 991.684 Q754.393 991.366 753.236 991.366 Q750.646 991.366 749.214 993.015 Q747.782 994.65 747.782 997.616 Q747.782 1000.58 749.214 1002.23 Q750.646 1003.87 753.236 1003.87 Q754.393 1003.87 755.522 1003.56 Q756.665 1003.24 757.793 1002.62 L757.793 1005.08 Q756.679 1005.6 755.479 1005.86 Q754.292 1006.12 752.947 1006.12 Q749.286 1006.12 747.131 1003.82 Q744.975 1001.52 744.975 997.616 Q744.975 993.652 747.145 991.38 Q749.33 989.109 753.12 989.109 Q754.35 989.109 755.522 989.369 Q756.694 989.615 757.793 990.122 Z" fill="#000000" fill-rule="evenodd" fill-opacity="1" /><path clip-path="url(#clip220)" d="M 0 0 M774.055 995.923 L774.055 1005.7 L771.393 1005.7 L771.393 996.01 Q771.393 993.71 770.496 992.567 Q769.599 991.424 767.805 991.424 Q765.649 991.424 764.405 992.798 Q763.161 994.173 763.161 996.545 L763.161 1005.7 L760.484 1005.7 L760.484 983.192 L763.161 983.192 L763.161 992.017 Q764.116 990.556 765.403 989.832 Q766.705 989.109 768.398 989.109 Q771.19 989.109 772.623 990.845 Q774.055 992.567 774.055 995.923 Z" fill="#000000" fill-rule="evenodd" fill-opacity="1" /><path clip-path="url(#clip220)" d="M 0 0 M790.316 995.923 L790.316 1005.7 L787.654 1005.7 L787.654 996.01 Q787.654 993.71 786.757 992.567 Q785.86 991.424 784.066 991.424 Q781.911 991.424 780.666 992.798 Q779.422 994.173 779.422 996.545 L779.422 1005.7 L776.746 1005.7 L776.746 989.5 L779.422 989.5 L779.422 992.017 Q780.377 990.556 781.665 989.832 Q782.967 989.109 784.66 989.109 Q787.452 989.109 788.884 990.845 Q790.316 992.567 790.316 995.923 Z" fill="#000000" fill-rule="evenodd" fill-opacity="1" /><path clip-path="url(#clip220)" d="M 0 0 M793.109 989.5 L795.771 989.5 L795.771 1005.7 L793.109 1005.7 L793.109 989.5 M793.109 983.192 L795.771 983.192 L795.771 986.563 L793.109 986.563 L793.109 983.192 Z" fill="#000000" fill-rule="evenodd" fill-opacity="1" /><path clip-path="url(#clip220)" d="M 0 0 M810.224 990.122 L810.224 992.61 Q809.095 991.988 807.952 991.684 Q806.824 991.366 805.666 991.366 Q803.077 991.366 801.644 993.015 Q800.212 994.65 800.212 997.616 Q800.212 1000.58 801.644 1002.23 Q803.077 1003.87 805.666 1003.87 Q806.824 1003.87 807.952 1003.56 Q809.095 1003.24 810.224 1002.62 L810.224 1005.08 Q809.11 1005.6 807.909 1005.86 Q806.722 1006.12 805.377 1006.12 Q801.717 1006.12 799.561 1003.82 Q797.405 1001.52 797.405 997.616 Q797.405 993.652 799.576 991.38 Q801.76 989.109 805.551 989.109 Q806.78 989.109 807.952 989.369 Q809.124 989.615 810.224 990.122 Z" fill="#000000" fill-rule="evenodd" fill-opacity="1" /><path clip-path="url(#clip220)" d="M 0 0 M820.38 997.558 Q817.154 997.558 815.909 998.296 Q814.665 999.034 814.665 1000.81 Q814.665 1002.23 815.591 1003.07 Q816.531 1003.89 818.137 1003.89 Q820.351 1003.89 821.682 1002.33 Q823.027 1000.76 823.027 998.151 L823.027 997.558 L820.38 997.558 M825.689 996.458 L825.689 1005.7 L823.027 1005.7 L823.027 1003.24 Q822.116 1004.72 820.756 1005.43 Q819.396 1006.12 817.428 1006.12 Q814.94 1006.12 813.464 1004.73 Q812.003 1003.33 812.003 1000.99 Q812.003 998.252 813.826 996.863 Q815.663 995.475 819.295 995.475 L823.027 995.475 L823.027 995.214 Q823.027 993.377 821.812 992.379 Q820.611 991.366 818.427 991.366 Q817.038 991.366 815.721 991.699 Q814.405 992.031 813.189 992.697 L813.189 990.237 Q814.651 989.673 816.025 989.398 Q817.4 989.109 818.702 989.109 Q822.217 989.109 823.953 990.932 Q825.689 992.755 825.689 996.458 Z" fill="#000000" fill-rule="evenodd" fill-opacity="1" /><path clip-path="url(#clip220)" d="M 0 0 M828.482 983.192 L831.144 983.192 L831.144 1005.7 L828.482 1005.7 L828.482 983.192 Z" fill="#000000" fill-rule="evenodd" fill-opacity="1" /><path clip-path="url(#clip220)" d="M 0 0 M846.248 1010.62 L846.248 1012.69 L830.854 1012.69 L830.854 1010.62 L846.248 1010.62 Z" fill="#000000" fill-rule="evenodd" fill-opacity="1" /><path clip-path="url(#clip220)" d="M 0 0 M865.33 985.767 L865.33 988.848 Q863.855 987.474 862.176 986.794 Q860.513 986.114 858.632 986.114 Q854.928 986.114 852.961 988.386 Q850.993 990.642 850.993 994.925 Q850.993 999.193 852.961 1001.46 Q854.928 1003.72 858.632 1003.72 Q860.513 1003.72 862.176 1003.04 Q863.855 1002.36 865.33 1000.99 L865.33 1004.04 Q863.797 1005.08 862.075 1005.6 Q860.368 1006.12 858.458 1006.12 Q853.554 1006.12 850.733 1003.13 Q847.912 1000.12 847.912 994.925 Q847.912 989.717 850.733 986.722 Q853.554 983.713 858.458 983.713 Q860.397 983.713 862.104 984.233 Q863.826 984.74 865.33 985.767 Z" fill="#000000" fill-rule="evenodd" fill-opacity="1" /><path clip-path="url(#clip220)" d="M 0 0 M874.402 991.366 Q872.26 991.366 871.016 993.044 Q869.772 994.708 869.772 997.616 Q869.772 1000.52 871.002 1002.2 Q872.246 1003.87 874.402 1003.87 Q876.528 1003.87 877.772 1002.19 Q879.017 1000.51 879.017 997.616 Q879.017 994.737 877.772 993.059 Q876.528 991.366 874.402 991.366 M874.402 989.109 Q877.874 989.109 879.856 991.366 Q881.838 993.623 881.838 997.616 Q881.838 1001.59 879.856 1003.87 Q877.874 1006.12 874.402 1006.12 Q870.915 1006.12 868.933 1003.87 Q866.965 1001.59 866.965 997.616 Q866.965 993.623 868.933 991.366 Q870.915 989.109 874.402 989.109 Z" fill="#000000" fill-rule="evenodd" fill-opacity="1" /><path clip-path="url(#clip220)" d="M 0 0 M898.099 995.923 L898.099 1005.7 L895.437 1005.7 L895.437 996.01 Q895.437 993.71 894.54 992.567 Q893.643 991.424 891.849 991.424 Q889.694 991.424 888.449 992.798 Q887.205 994.173 887.205 996.545 L887.205 1005.7 L884.529 1005.7 L884.529 989.5 L887.205 989.5 L887.205 992.017 Q888.16 990.556 889.448 989.832 Q890.75 989.109 892.443 989.109 Q895.235 989.109 896.667 990.845 Q898.099 992.567 898.099 995.923 Z" fill="#000000" fill-rule="evenodd" fill-opacity="1" /><path clip-path="url(#clip220)" d="M 0 0 M911.221 989.977 L911.221 992.494 Q910.093 991.916 908.878 991.626 Q907.662 991.337 906.36 991.337 Q904.378 991.337 903.38 991.945 Q902.396 992.552 902.396 993.767 Q902.396 994.693 903.105 995.229 Q903.814 995.749 905.955 996.227 L906.867 996.429 Q909.702 997.037 910.889 998.151 Q912.089 999.251 912.089 1001.23 Q912.089 1003.49 910.295 1004.81 Q908.516 1006.12 905.391 1006.12 Q904.089 1006.12 902.671 1005.86 Q901.268 1005.62 899.705 1005.11 L899.705 1002.36 Q901.181 1003.13 902.613 1003.52 Q904.045 1003.89 905.449 1003.89 Q907.33 1003.89 908.342 1003.26 Q909.355 1002.61 909.355 1001.44 Q909.355 1000.35 908.617 999.771 Q907.894 999.193 905.42 998.657 L904.494 998.44 Q902.02 997.92 900.92 996.849 Q899.821 995.764 899.821 993.883 Q899.821 991.597 901.441 990.353 Q903.062 989.109 906.042 989.109 Q907.518 989.109 908.82 989.326 Q910.122 989.543 911.221 989.977 Z" fill="#000000" fill-rule="evenodd" fill-opacity="1" /><path clip-path="url(#clip220)" d="M 0 0 M917.515 984.899 L917.515 989.5 L922.998 989.5 L922.998 991.568 L917.515 991.568 L917.515 1000.36 Q917.515 1002.35 918.05 1002.91 Q918.6 1003.48 920.264 1003.48 L922.998 1003.48 L922.998 1005.7 L920.264 1005.7 Q917.182 1005.7 916.01 1004.56 Q914.838 1003.4 914.838 1000.36 L914.838 991.568 L912.885 991.568 L912.885 989.5 L914.838 989.5 L914.838 984.899 L917.515 984.899 Z" fill="#000000" fill-rule="evenodd" fill-opacity="1" /><path clip-path="url(#clip220)" d="M 0 0 M935.18 991.988 Q934.731 991.728 934.196 991.612 Q933.675 991.482 933.038 991.482 Q930.781 991.482 929.566 992.957 Q928.365 994.418 928.365 997.167 L928.365 1005.7 L925.689 1005.7 L925.689 989.5 L928.365 989.5 L928.365 992.017 Q929.204 990.541 930.55 989.832 Q931.895 989.109 933.82 989.109 Q934.094 989.109 934.427 989.152 Q934.76 989.181 935.165 989.254 L935.18 991.988 Z" fill="#000000" fill-rule="evenodd" fill-opacity="1" /><path clip-path="url(#clip220)" d="M 0 0 M945.336 997.558 Q942.109 997.558 940.865 998.296 Q939.621 999.034 939.621 1000.81 Q939.621 1002.23 940.547 1003.07 Q941.487 1003.89 943.093 1003.89 Q945.307 1003.89 946.638 1002.33 Q947.983 1000.76 947.983 998.151 L947.983 997.558 L945.336 997.558 M950.645 996.458 L950.645 1005.7 L947.983 1005.7 L947.983 1003.24 Q947.072 1004.72 945.712 1005.43 Q944.352 1006.12 942.384 1006.12 Q939.896 1006.12 938.42 1004.73 Q936.959 1003.33 936.959 1000.99 Q936.959 998.252 938.782 996.863 Q940.619 995.475 944.251 995.475 L947.983 995.475 L947.983 995.214 Q947.983 993.377 946.768 992.379 Q945.567 991.366 943.383 991.366 Q941.994 991.366 940.677 991.699 Q939.361 992.031 938.145 992.697 L938.145 990.237 Q939.607 989.673 940.981 989.398 Q942.355 989.109 943.658 989.109 Q947.173 989.109 948.909 990.932 Q950.645 992.755 950.645 996.458 Z" fill="#000000" fill-rule="evenodd" fill-opacity="1" /><path clip-path="url(#clip220)" d="M 0 0 M953.438 989.5 L956.1 989.5 L956.1 1005.7 L953.438 1005.7 L953.438 989.5 M953.438 983.192 L956.1 983.192 L956.1 986.563 L953.438 986.563 L953.438 983.192 Z" fill="#000000" fill-rule="evenodd" fill-opacity="1" /><path clip-path="url(#clip220)" d="M 0 0 M972.361 995.923 L972.361 1005.7 L969.699 1005.7 L969.699 996.01 Q969.699 993.71 968.802 992.567 Q967.905 991.424 966.111 991.424 Q963.955 991.424 962.711 992.798 Q961.467 994.173 961.467 996.545 L961.467 1005.7 L958.791 1005.7 L958.791 989.5 L961.467 989.5 L961.467 992.017 Q962.422 990.556 963.709 989.832 Q965.012 989.109 966.704 989.109 Q969.497 989.109 970.929 990.845 Q972.361 992.567 972.361 995.923 Z" fill="#000000" fill-rule="evenodd" fill-opacity="1" /><path clip-path="url(#clip220)" d="M 0 0 M977.786 984.899 L977.786 989.5 L983.27 989.5 L983.27 991.568 L977.786 991.568 L977.786 1000.36 Q977.786 1002.35 978.322 1002.91 Q978.871 1003.48 980.535 1003.48 L983.27 1003.48 L983.27 1005.7 L980.535 1005.7 Q977.454 1005.7 976.282 1004.56 Q975.11 1003.4 975.11 1000.36 L975.11 991.568 L973.157 991.568 L973.157 989.5 L975.11 989.5 L975.11 984.899 L977.786 984.899 Z" fill="#000000" fill-rule="evenodd" fill-opacity="1" /><path clip-path="url(#clip220)" d="M 0 0 M996.392 989.977 L996.392 992.494 Q995.263 991.916 994.048 991.626 Q992.833 991.337 991.531 991.337 Q989.548 991.337 988.55 991.945 Q987.566 992.552 987.566 993.767 Q987.566 994.693 988.275 995.229 Q988.984 995.749 991.125 996.227 L992.037 996.429 Q994.873 997.037 996.059 998.151 Q997.26 999.251 997.26 1001.23 Q997.26 1003.49 995.466 1004.81 Q993.686 1006.12 990.561 1006.12 Q989.259 1006.12 987.841 1005.86 Q986.438 1005.62 984.875 1005.11 L984.875 1002.36 Q986.351 1003.13 987.783 1003.52 Q989.216 1003.89 990.619 1003.89 Q992.5 1003.89 993.513 1003.26 Q994.525 1002.61 994.525 1001.44 Q994.525 1000.35 993.787 999.771 Q993.064 999.193 990.59 998.657 L989.664 998.44 Q987.19 997.92 986.091 996.849 Q984.991 995.764 984.991 993.883 Q984.991 991.597 986.612 990.353 Q988.232 989.109 991.212 989.109 Q992.688 989.109 993.99 989.326 Q995.292 989.543 996.392 989.977 Z" fill="#000000" fill-rule="evenodd" fill-opacity="1" /><path clip-path="url(#clip220)" d="M 0 0 M1076.62 631.894 L1076.62 640.01 L1080.29 640.01 Q1082.33 640.01 1083.45 638.954 Q1084.56 637.898 1084.56 635.945 Q1084.56 634.006 1083.45 632.95 Q1082.33 631.894 1080.29 631.894 L1076.62 631.894 M1073.69 629.492 L1080.29 629.492 Q1083.92 629.492 1085.78 631.141 Q1087.64 632.776 1087.64 635.945 Q1087.64 639.142 1085.78 640.777 Q1083.92 642.412 1080.29 642.412 L1076.62 642.412 L1076.62 651.092 L1073.69 651.092 L1073.69 629.492 Z" fill="#000000" fill-rule="evenodd" fill-opacity="1" /><path clip-path="url(#clip220)" d="M 0 0 M1103.24 642.325 L1103.24 643.627 L1091 643.627 Q1091.17 646.376 1092.65 647.822 Q1094.14 649.255 1096.78 649.255 Q1098.32 649.255 1099.75 648.879 Q1101.2 648.502 1102.62 647.75 L1102.62 650.267 Q1101.18 650.875 1099.68 651.193 Q1098.17 651.512 1096.63 651.512 Q1092.75 651.512 1090.48 649.255 Q1088.22 646.998 1088.22 643.149 Q1088.22 639.171 1090.36 636.842 Q1092.52 634.498 1096.16 634.498 Q1099.43 634.498 1101.33 636.61 Q1103.24 638.708 1103.24 642.325 M1100.58 641.544 Q1100.55 639.359 1099.35 638.057 Q1098.16 636.755 1096.19 636.755 Q1093.96 636.755 1092.62 638.013 Q1091.29 639.272 1091.08 641.558 L1100.58 641.544 Z" fill="#000000" fill-rule="evenodd" fill-opacity="1" /><path clip-path="url(#clip220)" d="M 0 0 M1115.42 637.377 Q1114.97 637.117 1114.44 637.001 Q1113.91 636.871 1113.28 636.871 Q1111.02 636.871 1109.81 638.346 Q1108.6 639.807 1108.6 642.556 L1108.6 651.092 L1105.93 651.092 L1105.93 634.889 L1108.6 634.889 L1108.6 637.406 Q1109.44 635.93 1110.79 635.221 Q1112.13 634.498 1114.06 634.498 Q1114.33 634.498 1114.67 634.541 Q1115 634.57 1115.4 634.643 L1115.42 637.377 Z" fill="#000000" fill-rule="evenodd" fill-opacity="1" /><path clip-path="url(#clip220)" d="M 0 0 M1126.41 628.581 L1126.41 630.794 L1123.87 630.794 Q1122.44 630.794 1121.87 631.373 Q1121.32 631.952 1121.32 633.456 L1121.32 634.889 L1125.71 634.889 L1125.71 636.957 L1121.32 636.957 L1121.32 651.092 L1118.65 651.092 L1118.65 636.957 L1116.1 636.957 L1116.1 634.889 L1118.65 634.889 L1118.65 633.76 Q1118.65 631.055 1119.9 629.825 Q1121.16 628.581 1123.9 628.581 L1126.41 628.581 Z" fill="#000000" fill-rule="evenodd" fill-opacity="1" /><path clip-path="url(#clip220)" d="M 0 0 M1135.49 636.755 Q1133.34 636.755 1132.1 638.433 Q1130.86 640.097 1130.86 643.005 Q1130.86 645.913 1132.09 647.591 Q1133.33 649.255 1135.49 649.255 Q1137.61 649.255 1138.86 647.577 Q1140.1 645.898 1140.1 643.005 Q1140.1 640.126 1138.86 638.448 Q1137.61 636.755 1135.49 636.755 M1135.49 634.498 Q1138.96 634.498 1140.94 636.755 Q1142.92 639.012 1142.92 643.005 Q1142.92 646.983 1140.94 649.255 Q1138.96 651.512 1135.49 651.512 Q1132 651.512 1130.02 649.255 Q1128.05 646.983 1128.05 643.005 Q1128.05 639.012 1130.02 636.755 Q1132 634.498 1135.49 634.498 Z" fill="#000000" fill-rule="evenodd" fill-opacity="1" /><path clip-path="url(#clip220)" d="M 0 0 M1155.1 637.377 Q1154.65 637.117 1154.12 637.001 Q1153.6 636.871 1152.96 636.871 Q1150.71 636.871 1149.49 638.346 Q1148.29 639.807 1148.29 642.556 L1148.29 651.092 L1145.61 651.092 L1145.61 634.889 L1148.29 634.889 L1148.29 637.406 Q1149.13 635.93 1150.47 635.221 Q1151.82 634.498 1153.74 634.498 Q1154.02 634.498 1154.35 634.541 Q1154.68 634.57 1155.09 634.643 L1155.1 637.377 Z" fill="#000000" fill-rule="evenodd" fill-opacity="1" /><path clip-path="url(#clip220)" d="M 0 0 M1169.99 637.999 Q1170.99 636.205 1172.38 635.351 Q1173.77 634.498 1175.65 634.498 Q1178.18 634.498 1179.55 636.277 Q1180.93 638.042 1180.93 641.312 L1180.93 651.092 L1178.25 651.092 L1178.25 641.399 Q1178.25 639.07 1177.43 637.941 Q1176.6 636.813 1174.91 636.813 Q1172.84 636.813 1171.64 638.187 Q1170.44 639.562 1170.44 641.934 L1170.44 651.092 L1167.76 651.092 L1167.76 641.399 Q1167.76 639.055 1166.94 637.941 Q1166.11 636.813 1164.39 636.813 Q1162.35 636.813 1161.15 638.202 Q1159.95 639.576 1159.95 641.934 L1159.95 651.092 L1157.27 651.092 L1157.27 634.889 L1159.95 634.889 L1159.95 637.406 Q1160.86 635.916 1162.13 635.207 Q1163.41 634.498 1165.16 634.498 Q1166.92 634.498 1168.15 635.395 Q1169.4 636.292 1169.99 637.999 Z" fill="#000000" fill-rule="evenodd" fill-opacity="1" /><path clip-path="url(#clip220)" d="M 0 0 M1191.08 642.947 Q1187.86 642.947 1186.61 643.685 Q1185.37 644.423 1185.37 646.202 Q1185.37 647.62 1186.3 648.459 Q1187.24 649.284 1188.84 649.284 Q1191.06 649.284 1192.39 647.721 Q1193.73 646.144 1193.73 643.54 L1193.73 642.947 L1191.08 642.947 M1196.39 641.847 L1196.39 651.092 L1193.73 651.092 L1193.73 648.633 Q1192.82 650.108 1191.46 650.817 Q1190.1 651.512 1188.13 651.512 Q1185.64 651.512 1184.17 650.123 Q1182.71 648.719 1182.71 646.376 Q1182.71 643.641 1184.53 642.252 Q1186.37 640.864 1190 640.864 L1193.73 640.864 L1193.73 640.603 Q1193.73 638.766 1192.52 637.768 Q1191.32 636.755 1189.13 636.755 Q1187.74 636.755 1186.43 637.088 Q1185.11 637.42 1183.89 638.086 L1183.89 635.626 Q1185.35 635.062 1186.73 634.787 Q1188.1 634.498 1189.41 634.498 Q1192.92 634.498 1194.66 636.321 Q1196.39 638.144 1196.39 641.847 Z" fill="#000000" fill-rule="evenodd" fill-opacity="1" /><path clip-path="url(#clip220)" d="M 0 0 M1212.66 641.312 L1212.66 651.092 L1209.99 651.092 L1209.99 641.399 Q1209.99 639.099 1209.1 637.956 Q1208.2 636.813 1206.41 636.813 Q1204.25 636.813 1203.01 638.187 Q1201.76 639.562 1201.76 641.934 L1201.76 651.092 L1199.08 651.092 L1199.08 634.889 L1201.76 634.889 L1201.76 637.406 Q1202.72 635.945 1204 635.221 Q1205.31 634.498 1207 634.498 Q1209.79 634.498 1211.22 636.234 Q1212.66 637.956 1212.66 641.312 Z" fill="#000000" fill-rule="evenodd" fill-opacity="1" /><path clip-path="url(#clip220)" d="M 0 0 M1227.11 635.511 L1227.11 637.999 Q1225.98 637.377 1224.84 637.073 Q1223.71 636.755 1222.55 636.755 Q1219.96 636.755 1218.53 638.404 Q1217.1 640.039 1217.1 643.005 Q1217.1 645.971 1218.53 647.62 Q1219.96 649.255 1222.55 649.255 Q1223.71 649.255 1224.84 648.951 Q1225.98 648.633 1227.11 648.011 L1227.11 650.47 Q1225.99 650.991 1224.79 651.251 Q1223.61 651.512 1222.26 651.512 Q1218.6 651.512 1216.45 649.211 Q1214.29 646.911 1214.29 643.005 Q1214.29 639.041 1216.46 636.769 Q1218.64 634.498 1222.44 634.498 Q1223.66 634.498 1224.84 634.758 Q1226.01 635.004 1227.11 635.511 Z" fill="#000000" fill-rule="evenodd" fill-opacity="1" /><path clip-path="url(#clip220)" d="M 0 0 M1243.76 642.325 L1243.76 643.627 L1231.52 643.627 Q1231.69 646.376 1233.17 647.822 Q1234.66 649.255 1237.31 649.255 Q1238.84 649.255 1240.27 648.879 Q1241.72 648.502 1243.14 647.75 L1243.14 650.267 Q1241.71 650.875 1240.2 651.193 Q1238.7 651.512 1237.15 651.512 Q1233.27 651.512 1231 649.255 Q1228.74 646.998 1228.74 643.149 Q1228.74 639.171 1230.88 636.842 Q1233.04 634.498 1236.69 634.498 Q1239.96 634.498 1241.85 636.61 Q1243.76 638.708 1243.76 642.325 M1241.1 641.544 Q1241.07 639.359 1239.87 638.057 Q1238.68 636.755 1236.71 636.755 Q1234.49 636.755 1233.14 638.013 Q1231.81 639.272 1231.61 641.558 L1241.1 641.544 Z" fill="#000000" fill-rule="evenodd" fill-opacity="1" /><path clip-path="url(#clip220)" d="M 0 0 M1258.86 656.011 L1258.86 658.08 L1243.47 658.08 L1243.47 656.011 L1258.86 656.011 Z" fill="#000000" fill-rule="evenodd" fill-opacity="1" /><path clip-path="url(#clip220)" d="M 0 0 M1264.69 631.894 L1264.69 640.01 L1268.37 640.01 Q1270.41 640.01 1271.52 638.954 Q1272.64 637.898 1272.64 635.945 Q1272.64 634.006 1271.52 632.95 Q1270.41 631.894 1268.37 631.894 L1264.69 631.894 M1261.77 629.492 L1268.37 629.492 Q1272 629.492 1273.85 631.141 Q1275.72 632.776 1275.72 635.945 Q1275.72 639.142 1273.85 640.777 Q1272 642.412 1268.37 642.412 L1264.69 642.412 L1264.69 651.092 L1261.77 651.092 L1261.77 629.492 Z" fill="#000000" fill-rule="evenodd" fill-opacity="1" /><path clip-path="url(#clip220)" d="M 0 0 M1284.54 642.947 Q1281.32 642.947 1280.07 643.685 Q1278.83 644.423 1278.83 646.202 Q1278.83 647.62 1279.76 648.459 Q1280.7 649.284 1282.3 649.284 Q1284.52 649.284 1285.85 647.721 Q1287.19 646.144 1287.19 643.54 L1287.19 642.947 L1284.54 642.947 M1289.85 641.847 L1289.85 651.092 L1287.19 651.092 L1287.19 648.633 Q1286.28 650.108 1284.92 650.817 Q1283.56 651.512 1281.59 651.512 Q1279.1 651.512 1277.63 650.123 Q1276.17 648.719 1276.17 646.376 Q1276.17 643.641 1277.99 642.252 Q1279.83 640.864 1283.46 640.864 L1287.19 640.864 L1287.19 640.603 Q1287.19 638.766 1285.98 637.768 Q1284.78 636.755 1282.59 636.755 Q1281.2 636.755 1279.89 637.088 Q1278.57 637.42 1277.35 638.086 L1277.35 635.626 Q1278.82 635.062 1280.19 634.787 Q1281.56 634.498 1282.87 634.498 Q1286.38 634.498 1288.12 636.321 Q1289.85 638.144 1289.85 641.847 Z" fill="#000000" fill-rule="evenodd" fill-opacity="1" /><path clip-path="url(#clip220)" d="M 0 0 M1302.04 637.377 Q1301.59 637.117 1301.05 637.001 Q1300.53 636.871 1299.89 636.871 Q1297.64 636.871 1296.42 638.346 Q1295.22 639.807 1295.22 642.556 L1295.22 651.092 L1292.54 651.092 L1292.54 634.889 L1295.22 634.889 L1295.22 637.406 Q1296.06 635.93 1297.41 635.221 Q1298.75 634.498 1300.68 634.498 Q1300.95 634.498 1301.28 634.541 Q1301.62 634.57 1302.02 634.643 L1302.04 637.377 Z" fill="#000000" fill-rule="evenodd" fill-opacity="1" /><path clip-path="url(#clip220)" d="M 0 0 M1312.19 642.947 Q1308.97 642.947 1307.72 643.685 Q1306.48 644.423 1306.48 646.202 Q1306.48 647.62 1307.4 648.459 Q1308.34 649.284 1309.95 649.284 Q1312.16 649.284 1313.49 647.721 Q1314.84 646.144 1314.84 643.54 L1314.84 642.947 L1312.19 642.947 M1317.5 641.847 L1317.5 651.092 L1314.84 651.092 L1314.84 648.633 Q1313.93 650.108 1312.57 650.817 Q1311.21 651.512 1309.24 651.512 Q1306.75 651.512 1305.28 650.123 Q1303.81 648.719 1303.81 646.376 Q1303.81 643.641 1305.64 642.252 Q1307.48 640.864 1311.11 640.864 L1314.84 640.864 L1314.84 640.603 Q1314.84 638.766 1313.62 637.768 Q1312.42 636.755 1310.24 636.755 Q1308.85 636.755 1307.53 637.088 Q1306.22 637.42 1305 638.086 L1305 635.626 Q1306.46 635.062 1307.84 634.787 Q1309.21 634.498 1310.51 634.498 Q1314.03 634.498 1315.77 636.321 Q1317.5 638.144 1317.5 641.847 Z" fill="#000000" fill-rule="evenodd" fill-opacity="1" /><path clip-path="url(#clip220)" d="M 0 0 M1332.91 637.999 Q1333.91 636.205 1335.3 635.351 Q1336.69 634.498 1338.57 634.498 Q1341.1 634.498 1342.47 636.277 Q1343.85 638.042 1343.85 641.312 L1343.85 651.092 L1341.17 651.092 L1341.17 641.399 Q1341.17 639.07 1340.35 637.941 Q1339.52 636.813 1337.83 636.813 Q1335.76 636.813 1334.56 638.187 Q1333.36 639.562 1333.36 641.934 L1333.36 651.092 L1330.68 651.092 L1330.68 641.399 Q1330.68 639.055 1329.86 637.941 Q1329.03 636.813 1327.31 636.813 Q1325.27 636.813 1324.07 638.202 Q1322.87 639.576 1322.87 641.934 L1322.87 651.092 L1320.19 651.092 L1320.19 634.889 L1322.87 634.889 L1322.87 637.406 Q1323.78 635.916 1325.05 635.207 Q1326.33 634.498 1328.08 634.498 Q1329.84 634.498 1331.07 635.395 Q1332.32 636.292 1332.91 637.999 Z" fill="#000000" fill-rule="evenodd" fill-opacity="1" /><path clip-path="url(#clip220)" d="M 0 0 M1360.5 642.325 L1360.5 643.627 L1348.26 643.627 Q1348.43 646.376 1349.91 647.822 Q1351.4 649.255 1354.05 649.255 Q1355.58 649.255 1357.01 648.879 Q1358.46 648.502 1359.88 647.75 L1359.88 650.267 Q1358.44 650.875 1356.94 651.193 Q1355.44 651.512 1353.89 651.512 Q1350.01 651.512 1347.74 649.255 Q1345.48 646.998 1345.48 643.149 Q1345.48 639.171 1347.62 636.842 Q1349.78 634.498 1353.42 634.498 Q1356.69 634.498 1358.59 636.61 Q1360.5 638.708 1360.5 642.325 M1357.84 641.544 Q1357.81 639.359 1356.61 638.057 Q1355.42 636.755 1353.45 636.755 Q1351.23 636.755 1349.88 638.013 Q1348.55 639.272 1348.35 641.558 L1357.84 641.544 Z" fill="#000000" fill-rule="evenodd" fill-opacity="1" /><path clip-path="url(#clip220)" d="M 0 0 M1365.92 630.288 L1365.92 634.889 L1371.41 634.889 L1371.41 636.957 L1365.92 636.957 L1365.92 645.754 Q1365.92 647.736 1366.46 648.3 Q1367.01 648.864 1368.67 648.864 L1371.41 648.864 L1371.41 651.092 L1368.67 651.092 Q1365.59 651.092 1364.42 649.949 Q1363.25 648.792 1363.25 645.754 L1363.25 636.957 L1361.29 636.957 L1361.29 634.889 L1363.25 634.889 L1363.25 630.288 L1365.92 630.288 Z" fill="#000000" fill-rule="evenodd" fill-opacity="1" /><path clip-path="url(#clip220)" d="M 0 0 M1388.06 642.325 L1388.06 643.627 L1375.82 643.627 Q1375.99 646.376 1377.47 647.822 Q1378.96 649.255 1381.61 649.255 Q1383.14 649.255 1384.57 648.879 Q1386.02 648.502 1387.44 647.75 L1387.44 650.267 Q1386 650.875 1384.5 651.193 Q1383 651.512 1381.45 651.512 Q1377.57 651.512 1375.3 649.255 Q1373.04 646.998 1373.04 643.149 Q1373.04 639.171 1375.18 636.842 Q1377.34 634.498 1380.98 634.498 Q1384.25 634.498 1386.15 636.61 Q1388.06 638.708 1388.06 642.325 M1385.4 641.544 Q1385.37 639.359 1384.17 638.057 Q1382.98 636.755 1381.01 636.755 Q1378.79 636.755 1377.44 638.013 Q1376.11 639.272 1375.91 641.558 L1385.4 641.544 Z" fill="#000000" fill-rule="evenodd" fill-opacity="1" /><path clip-path="url(#clip220)" d="M 0 0 M1400.24 637.377 Q1399.79 637.117 1399.26 637.001 Q1398.74 636.871 1398.1 636.871 Q1395.84 636.871 1394.63 638.346 Q1393.43 639.807 1393.43 642.556 L1393.43 651.092 L1390.75 651.092 L1390.75 634.889 L1393.43 634.889 L1393.43 637.406 Q1394.27 635.93 1395.61 635.221 Q1396.96 634.498 1398.88 634.498 Q1399.16 634.498 1399.49 634.541 Q1399.82 634.57 1400.23 634.643 L1400.24 637.377 Z" fill="#000000" fill-rule="evenodd" fill-opacity="1" /><path clip-path="url(#clip220)" d="M 0 0 M1413.36 635.366 L1413.36 637.883 Q1412.23 637.305 1411.02 637.015 Q1409.8 636.726 1408.5 636.726 Q1406.52 636.726 1405.52 637.334 Q1404.54 637.941 1404.54 639.156 Q1404.54 640.082 1405.25 640.618 Q1405.96 641.138 1408.1 641.616 L1409.01 641.818 Q1411.84 642.426 1413.03 643.54 Q1414.23 644.64 1414.23 646.622 Q1414.23 648.879 1412.44 650.195 Q1410.66 651.512 1407.53 651.512 Q1406.23 651.512 1404.81 651.251 Q1403.41 651.005 1401.85 650.499 L1401.85 647.75 Q1403.32 648.517 1404.75 648.908 Q1406.19 649.284 1407.59 649.284 Q1409.47 649.284 1410.48 648.647 Q1411.5 647.996 1411.5 646.824 Q1411.5 645.739 1410.76 645.16 Q1410.04 644.582 1407.56 644.046 L1406.64 643.829 Q1404.16 643.309 1403.06 642.238 Q1401.96 641.153 1401.96 639.272 Q1401.96 636.986 1403.58 635.742 Q1405.2 634.498 1408.18 634.498 Q1409.66 634.498 1410.96 634.715 Q1412.26 634.932 1413.36 635.366 Z" fill="#000000" fill-rule="evenodd" fill-opacity="1" /><path clip-path="url(#clip220)" d="M 0 0 M757.521 1151.21 L757.521 1154.29 Q756.046 1152.92 754.367 1152.24 Q752.704 1151.56 750.823 1151.56 Q747.119 1151.56 745.152 1153.83 Q743.184 1156.09 743.184 1160.37 Q743.184 1164.64 745.152 1166.91 Q747.119 1169.17 750.823 1169.17 Q752.704 1169.17 754.367 1168.49 Q756.046 1167.81 757.521 1166.43 L757.521 1169.49 Q755.988 1170.53 754.266 1171.05 Q752.559 1171.57 750.649 1171.57 Q745.745 1171.57 742.924 1168.57 Q740.103 1165.56 740.103 1160.37 Q740.103 1155.16 742.924 1152.17 Q745.745 1149.16 750.649 1149.16 Q752.588 1149.16 754.295 1149.68 Q756.017 1150.19 757.521 1151.21 Z" fill="#000000" fill-rule="evenodd" fill-opacity="1" /><path clip-path="url(#clip220)" d="M 0 0 M760.314 1148.64 L762.976 1148.64 L762.976 1171.15 L760.314 1171.15 L760.314 1148.64 Z" fill="#000000" fill-rule="evenodd" fill-opacity="1" /><path clip-path="url(#clip220)" d="M 0 0 M765.768 1154.95 L768.43 1154.95 L768.43 1171.15 L765.768 1171.15 L765.768 1154.95 M765.768 1148.64 L768.43 1148.64 L768.43 1152.01 L765.768 1152.01 L765.768 1148.64 Z" fill="#000000" fill-rule="evenodd" fill-opacity="1" /><path clip-path="url(#clip220)" d="M 0 0 M785.082 1162.38 L785.082 1163.68 L772.843 1163.68 Q773.016 1166.43 774.492 1167.88 Q775.982 1169.31 778.63 1169.31 Q780.163 1169.31 781.595 1168.94 Q783.042 1168.56 784.46 1167.81 L784.46 1170.32 Q783.028 1170.93 781.523 1171.25 Q780.018 1171.57 778.47 1171.57 Q774.593 1171.57 772.322 1169.31 Q770.065 1167.05 770.065 1163.21 Q770.065 1159.23 772.206 1156.9 Q774.362 1154.55 778.007 1154.55 Q781.277 1154.55 783.172 1156.67 Q785.082 1158.76 785.082 1162.38 M782.42 1161.6 Q782.391 1159.42 781.19 1158.11 Q780.004 1156.81 778.036 1156.81 Q775.808 1156.81 774.463 1158.07 Q773.132 1159.33 772.929 1161.61 L782.42 1161.6 Z" fill="#000000" fill-rule="evenodd" fill-opacity="1" /><path clip-path="url(#clip220)" d="M 0 0 M801.344 1161.37 L801.344 1171.15 L798.681 1171.15 L798.681 1161.46 Q798.681 1159.16 797.785 1158.01 Q796.888 1156.87 795.094 1156.87 Q792.938 1156.87 791.694 1158.24 Q790.449 1159.62 790.449 1161.99 L790.449 1171.15 L787.773 1171.15 L787.773 1154.95 L790.449 1154.95 L790.449 1157.46 Q791.404 1156 792.692 1155.28 Q793.994 1154.55 795.687 1154.55 Q798.479 1154.55 799.911 1156.29 Q801.344 1158.01 801.344 1161.37 Z" fill="#000000" fill-rule="evenodd" fill-opacity="1" /><path clip-path="url(#clip220)" d="M 0 0 M806.769 1150.34 L806.769 1154.95 L812.252 1154.95 L812.252 1157.01 L806.769 1157.01 L806.769 1165.81 Q806.769 1167.79 807.304 1168.36 Q807.854 1168.92 809.518 1168.92 L812.252 1168.92 L812.252 1171.15 L809.518 1171.15 Q806.436 1171.15 805.264 1170.01 Q804.092 1168.85 804.092 1165.81 L804.092 1157.01 L802.139 1157.01 L802.139 1154.95 L804.092 1154.95 L804.092 1150.34 L806.769 1150.34 Z" fill="#000000" fill-rule="evenodd" fill-opacity="1" /><path clip-path="url(#clip220)" d="M 0 0 M827.356 1176.07 L827.356 1178.14 L811.963 1178.14 L811.963 1176.07 L827.356 1176.07 Z" fill="#000000" fill-rule="evenodd" fill-opacity="1" /><path clip-path="url(#clip220)" d="M 0 0 M837.512 1163 Q834.286 1163 833.042 1163.74 Q831.798 1164.48 831.798 1166.26 Q831.798 1167.68 832.724 1168.52 Q833.664 1169.34 835.27 1169.34 Q837.483 1169.34 838.814 1167.78 Q840.16 1166.2 840.16 1163.6 L840.16 1163 L837.512 1163 M842.822 1161.9 L842.822 1171.15 L840.16 1171.15 L840.16 1168.69 Q839.248 1170.17 837.888 1170.87 Q836.529 1171.57 834.561 1171.57 Q832.073 1171.57 830.597 1170.18 Q829.136 1168.78 829.136 1166.43 Q829.136 1163.7 830.959 1162.31 Q832.796 1160.92 836.427 1160.92 L840.16 1160.92 L840.16 1160.66 Q840.16 1158.82 838.945 1157.82 Q837.744 1156.81 835.559 1156.81 Q834.17 1156.81 832.854 1157.14 Q831.537 1157.48 830.322 1158.14 L830.322 1155.68 Q831.783 1155.12 833.158 1154.84 Q834.532 1154.55 835.834 1154.55 Q839.35 1154.55 841.086 1156.38 Q842.822 1158.2 842.822 1161.9 Z" fill="#000000" fill-rule="evenodd" fill-opacity="1" /><path clip-path="url(#clip220)" d="M 0 0 M859.083 1161.37 L859.083 1171.15 L856.421 1171.15 L856.421 1161.46 Q856.421 1159.16 855.524 1158.01 Q854.627 1156.87 852.833 1156.87 Q850.678 1156.87 849.434 1158.24 Q848.189 1159.62 848.189 1161.99 L848.189 1171.15 L845.513 1171.15 L845.513 1154.95 L848.189 1154.95 L848.189 1157.46 Q849.144 1156 850.432 1155.28 Q851.734 1154.55 853.427 1154.55 Q856.219 1154.55 857.651 1156.29 Q859.083 1158.01 859.083 1161.37 Z" fill="#000000" fill-rule="evenodd" fill-opacity="1" /><path clip-path="url(#clip220)" d="M 0 0 M872.538 1157.4 L872.538 1148.64 L875.2 1148.64 L875.2 1171.15 L872.538 1171.15 L872.538 1168.72 Q871.699 1170.17 870.411 1170.87 Q869.138 1171.57 867.344 1171.57 Q864.407 1171.57 862.556 1169.22 Q860.718 1166.88 860.718 1163.06 Q860.718 1159.24 862.556 1156.9 Q864.407 1154.55 867.344 1154.55 Q869.138 1154.55 870.411 1155.26 Q871.699 1155.96 872.538 1157.4 M863.467 1163.06 Q863.467 1166 864.668 1167.68 Q865.883 1169.34 867.995 1169.34 Q870.108 1169.34 871.323 1167.68 Q872.538 1166 872.538 1163.06 Q872.538 1160.12 871.323 1158.46 Q870.108 1156.78 867.995 1156.78 Q865.883 1156.78 864.668 1158.46 Q863.467 1160.12 863.467 1163.06 Z" fill="#000000" fill-rule="evenodd" fill-opacity="1" /><path clip-path="url(#clip220)" d="M 0 0 M890.304 1176.07 L890.304 1178.14 L874.911 1178.14 L874.911 1176.07 L890.304 1176.07 Z" fill="#000000" fill-rule="evenodd" fill-opacity="1" /><path clip-path="url(#clip220)" d="M 0 0 M909.387 1151.21 L909.387 1154.29 Q907.911 1152.92 906.233 1152.24 Q904.569 1151.56 902.688 1151.56 Q898.985 1151.56 897.017 1153.83 Q895.05 1156.09 895.05 1160.37 Q895.05 1164.64 897.017 1166.91 Q898.985 1169.17 902.688 1169.17 Q904.569 1169.17 906.233 1168.49 Q907.911 1167.81 909.387 1166.43 L909.387 1169.49 Q907.853 1170.53 906.132 1171.05 Q904.425 1171.57 902.515 1171.57 Q897.61 1171.57 894.789 1168.57 Q891.968 1165.56 891.968 1160.37 Q891.968 1155.16 894.789 1152.17 Q897.61 1149.16 902.515 1149.16 Q904.453 1149.16 906.161 1149.68 Q907.882 1150.19 909.387 1151.21 Z" fill="#000000" fill-rule="evenodd" fill-opacity="1" /><path clip-path="url(#clip220)" d="M 0 0 M918.458 1156.81 Q916.317 1156.81 915.073 1158.49 Q913.828 1160.15 913.828 1163.06 Q913.828 1165.97 915.058 1167.65 Q916.302 1169.31 918.458 1169.31 Q920.585 1169.31 921.829 1167.63 Q923.073 1165.96 923.073 1163.06 Q923.073 1160.18 921.829 1158.5 Q920.585 1156.81 918.458 1156.81 M918.458 1154.55 Q921.93 1154.55 923.912 1156.81 Q925.894 1159.07 925.894 1163.06 Q925.894 1167.04 923.912 1169.31 Q921.93 1171.57 918.458 1171.57 Q914.971 1171.57 912.989 1169.31 Q911.022 1167.04 911.022 1163.06 Q911.022 1159.07 912.989 1156.81 Q914.971 1154.55 918.458 1154.55 Z" fill="#000000" fill-rule="evenodd" fill-opacity="1" /><path clip-path="url(#clip220)" d="M 0 0 M942.156 1161.37 L942.156 1171.15 L939.494 1171.15 L939.494 1161.46 Q939.494 1159.16 938.597 1158.01 Q937.7 1156.87 935.906 1156.87 Q933.75 1156.87 932.506 1158.24 Q931.262 1159.62 931.262 1161.99 L931.262 1171.15 L928.585 1171.15 L928.585 1154.95 L931.262 1154.95 L931.262 1157.46 Q932.217 1156 933.504 1155.28 Q934.806 1154.55 936.499 1154.55 Q939.291 1154.55 940.724 1156.29 Q942.156 1158.01 942.156 1161.37 Z" fill="#000000" fill-rule="evenodd" fill-opacity="1" /><path clip-path="url(#clip220)" d="M 0 0 M955.278 1155.42 L955.278 1157.94 Q954.149 1157.36 952.934 1157.07 Q951.719 1156.78 950.417 1156.78 Q948.435 1156.78 947.436 1157.39 Q946.453 1158 946.453 1159.21 Q946.453 1160.14 947.162 1160.67 Q947.871 1161.2 950.012 1161.67 L950.923 1161.88 Q953.759 1162.48 954.945 1163.6 Q956.146 1164.7 956.146 1166.68 Q956.146 1168.94 954.352 1170.25 Q952.572 1171.57 949.447 1171.57 Q948.145 1171.57 946.728 1171.31 Q945.324 1171.06 943.762 1170.56 L943.762 1167.81 Q945.237 1168.57 946.67 1168.96 Q948.102 1169.34 949.505 1169.34 Q951.386 1169.34 952.399 1168.7 Q953.412 1168.05 953.412 1166.88 Q953.412 1165.8 952.674 1165.22 Q951.95 1164.64 949.476 1164.1 L948.55 1163.89 Q946.077 1163.37 944.977 1162.29 Q943.877 1161.21 943.877 1159.33 Q943.877 1157.04 945.498 1155.8 Q947.118 1154.55 950.098 1154.55 Q951.574 1154.55 952.876 1154.77 Q954.178 1154.99 955.278 1155.42 Z" fill="#000000" fill-rule="evenodd" fill-opacity="1" /><path clip-path="url(#clip220)" d="M 0 0 M958.663 1164.75 L958.663 1154.95 L961.325 1154.95 L961.325 1164.65 Q961.325 1166.95 962.222 1168.11 Q963.119 1169.25 964.913 1169.25 Q967.069 1169.25 968.313 1167.88 Q969.572 1166.5 969.572 1164.13 L969.572 1154.95 L972.234 1154.95 L972.234 1171.15 L969.572 1171.15 L969.572 1168.66 Q968.602 1170.14 967.315 1170.86 Q966.042 1171.57 964.349 1171.57 Q961.557 1171.57 960.11 1169.83 Q958.663 1168.1 958.663 1164.75 M965.362 1154.55 L965.362 1154.55 Z" fill="#000000" fill-rule="evenodd" fill-opacity="1" /><path clip-path="url(#clip220)" d="M 0 0 M975.026 1148.64 L977.688 1148.64 L977.688 1171.15 L975.026 1171.15 L975.026 1148.64 Z" fill="#000000" fill-rule="evenodd" fill-opacity="1" /><path clip-path="url(#clip220)" d="M 0 0 M983.113 1150.34 L983.113 1154.95 L988.597 1154.95 L988.597 1157.01 L983.113 1157.01 L983.113 1165.81 Q983.113 1167.79 983.649 1168.36 Q984.198 1168.92 985.862 1168.92 L988.597 1168.92 L988.597 1171.15 L985.862 1171.15 Q982.781 1171.15 981.609 1170.01 Q980.437 1168.85 980.437 1165.81 L980.437 1157.01 L978.484 1157.01 L978.484 1154.95 L980.437 1154.95 L980.437 1150.34 L983.113 1150.34 Z" fill="#000000" fill-rule="evenodd" fill-opacity="1" /><path clip-path="url(#clip220)" d="M 0 0 M998.753 1163 Q995.526 1163 994.282 1163.74 Q993.038 1164.48 993.038 1166.26 Q993.038 1167.68 993.964 1168.52 Q994.904 1169.34 996.51 1169.34 Q998.724 1169.34 1000.05 1167.78 Q1001.4 1166.2 1001.4 1163.6 L1001.4 1163 L998.753 1163 M1004.06 1161.9 L1004.06 1171.15 L1001.4 1171.15 L1001.4 1168.69 Q1000.49 1170.17 999.129 1170.87 Q997.769 1171.57 995.801 1171.57 Q993.313 1171.57 991.837 1170.18 Q990.376 1168.78 990.376 1166.43 Q990.376 1163.7 992.199 1162.31 Q994.036 1160.92 997.668 1160.92 L1001.4 1160.92 L1001.4 1160.66 Q1001.4 1158.82 1000.19 1157.82 Q998.984 1156.81 996.8 1156.81 Q995.411 1156.81 994.094 1157.14 Q992.778 1157.48 991.562 1158.14 L991.562 1155.68 Q993.024 1155.12 994.398 1154.84 Q995.772 1154.55 997.075 1154.55 Q1000.59 1154.55 1002.33 1156.38 Q1004.06 1158.2 1004.06 1161.9 Z" fill="#000000" fill-rule="evenodd" fill-opacity="1" /><path clip-path="url(#clip220)" d="M 0 0 M1020.32 1161.37 L1020.32 1171.15 L1017.66 1171.15 L1017.66 1161.46 Q1017.66 1159.16 1016.76 1158.01 Q1015.87 1156.87 1014.07 1156.87 Q1011.92 1156.87 1010.67 1158.24 Q1009.43 1159.62 1009.43 1161.99 L1009.43 1171.15 L1006.75 1171.15 L1006.75 1154.95 L1009.43 1154.95 L1009.43 1157.46 Q1010.38 1156 1011.67 1155.28 Q1012.97 1154.55 1014.67 1154.55 Q1017.46 1154.55 1018.89 1156.29 Q1020.32 1158.01 1020.32 1161.37 Z" fill="#000000" fill-rule="evenodd" fill-opacity="1" /><path clip-path="url(#clip220)" d="M 0 0 M1025.75 1150.34 L1025.75 1154.95 L1031.23 1154.95 L1031.23 1157.01 L1025.75 1157.01 L1025.75 1165.81 Q1025.75 1167.79 1026.28 1168.36 Q1026.83 1168.92 1028.5 1168.92 L1031.23 1168.92 L1031.23 1171.15 L1028.5 1171.15 Q1025.42 1171.15 1024.24 1170.01 Q1023.07 1168.85 1023.07 1165.81 L1023.07 1157.01 L1021.12 1157.01 L1021.12 1154.95 L1023.07 1154.95 L1023.07 1150.34 L1025.75 1150.34 Z" fill="#000000" fill-rule="evenodd" fill-opacity="1" /><path clip-path="url(#clip220)" d="M 0 0 M1046.34 1176.07 L1046.34 1178.14 L1030.94 1178.14 L1030.94 1176.07 L1046.34 1176.07 Z" fill="#000000" fill-rule="evenodd" fill-opacity="1" /><path clip-path="url(#clip220)" d="M 0 0 M1059.49 1161.02 Q1060.43 1161.34 1061.31 1162.38 Q1062.21 1163.42 1063.1 1165.25 L1066.07 1171.15 L1062.93 1171.15 L1060.17 1165.61 Q1059.1 1163.44 1058.08 1162.73 Q1057.09 1162.02 1055.35 1162.02 L1052.17 1162.02 L1052.17 1171.15 L1049.24 1171.15 L1049.24 1149.55 L1055.84 1149.55 Q1059.55 1149.55 1061.37 1151.1 Q1063.19 1152.65 1063.19 1155.77 Q1063.19 1157.81 1062.24 1159.16 Q1061.3 1160.5 1059.49 1161.02 M1052.17 1151.95 L1052.17 1159.62 L1055.84 1159.62 Q1057.95 1159.62 1059.02 1158.65 Q1060.11 1157.67 1060.11 1155.77 Q1060.11 1153.87 1059.02 1152.92 Q1057.95 1151.95 1055.84 1151.95 L1052.17 1151.95 Z" fill="#000000" fill-rule="evenodd" fill-opacity="1" /><path clip-path="url(#clip220)" d="M 0 0 M1081.39 1162.38 L1081.39 1163.68 L1069.15 1163.68 Q1069.33 1166.43 1070.8 1167.88 Q1072.29 1169.31 1074.94 1169.31 Q1076.47 1169.31 1077.9 1168.94 Q1079.35 1168.56 1080.77 1167.81 L1080.77 1170.32 Q1079.34 1170.93 1077.83 1171.25 Q1076.33 1171.57 1074.78 1171.57 Q1070.9 1171.57 1068.63 1169.31 Q1066.37 1167.05 1066.37 1163.21 Q1066.37 1159.23 1068.52 1156.9 Q1070.67 1154.55 1074.32 1154.55 Q1077.59 1154.55 1079.48 1156.67 Q1081.39 1158.76 1081.39 1162.38 M1078.73 1161.6 Q1078.7 1159.42 1077.5 1158.11 Q1076.31 1156.81 1074.35 1156.81 Q1072.12 1156.81 1070.77 1158.07 Q1069.44 1159.33 1069.24 1161.61 L1078.73 1161.6 Z" fill="#000000" fill-rule="evenodd" fill-opacity="1" /><path clip-path="url(#clip220)" d="M 0 0 M1085.77 1163.06 Q1085.77 1166 1086.98 1167.68 Q1088.19 1169.34 1090.3 1169.34 Q1092.42 1169.34 1093.63 1167.68 Q1094.85 1166 1094.85 1163.06 Q1094.85 1160.12 1093.63 1158.46 Q1092.42 1156.78 1090.3 1156.78 Q1088.19 1156.78 1086.98 1158.46 Q1085.77 1160.12 1085.77 1163.06 M1094.85 1168.72 Q1094.01 1170.17 1092.72 1170.87 Q1091.45 1171.57 1089.65 1171.57 Q1086.72 1171.57 1084.86 1169.22 Q1083.03 1166.88 1083.03 1163.06 Q1083.03 1159.24 1084.86 1156.9 Q1086.72 1154.55 1089.65 1154.55 Q1091.45 1154.55 1092.72 1155.26 Q1094.01 1155.96 1094.85 1157.4 L1094.85 1154.95 L1097.51 1154.95 L1097.51 1177.31 L1094.85 1177.31 L1094.85 1168.72 Z" fill="#000000" fill-rule="evenodd" fill-opacity="1" /><path clip-path="url(#clip220)" d="M 0 0 M1100.03 1164.75 L1100.03 1154.95 L1102.69 1154.95 L1102.69 1164.65 Q1102.69 1166.95 1103.58 1168.11 Q1104.48 1169.25 1106.28 1169.25 Q1108.43 1169.25 1109.68 1167.88 Q1110.93 1166.5 1110.93 1164.13 L1110.93 1154.95 L1113.6 1154.95 L1113.6 1171.15 L1110.93 1171.15 L1110.93 1168.66 Q1109.96 1170.14 1108.68 1170.86 Q1107.4 1171.57 1105.71 1171.57 Q1102.92 1171.57 1101.47 1169.83 Q1100.03 1168.1 1100.03 1164.75 M1106.72 1154.55 L1106.72 1154.55 Z" fill="#000000" fill-rule="evenodd" fill-opacity="1" /><path clip-path="url(#clip220)" d="M 0 0 M1130.25 1162.38 L1130.25 1163.68 L1118.01 1163.68 Q1118.18 1166.43 1119.66 1167.88 Q1121.15 1169.31 1123.8 1169.31 Q1125.33 1169.31 1126.76 1168.94 Q1128.21 1168.56 1129.63 1167.81 L1129.63 1170.32 Q1128.19 1170.93 1126.69 1171.25 Q1125.18 1171.57 1123.64 1171.57 Q1119.76 1171.57 1117.49 1169.31 Q1115.23 1167.05 1115.23 1163.21 Q1115.23 1159.23 1117.37 1156.9 Q1119.53 1154.55 1123.17 1154.55 Q1126.44 1154.55 1128.34 1156.67 Q1130.25 1158.76 1130.25 1162.38 M1127.59 1161.6 Q1127.56 1159.42 1126.36 1158.11 Q1125.17 1156.81 1123.2 1156.81 Q1120.97 1156.81 1119.63 1158.07 Q1118.3 1159.33 1118.1 1161.61 L1127.59 1161.6 Z" fill="#000000" fill-rule="evenodd" fill-opacity="1" /><path clip-path="url(#clip220)" d="M 0 0 M1143.37 1155.42 L1143.37 1157.94 Q1142.24 1157.36 1141.03 1157.07 Q1139.81 1156.78 1138.51 1156.78 Q1136.53 1156.78 1135.53 1157.39 Q1134.54 1158 1134.54 1159.21 Q1134.54 1160.14 1135.25 1160.67 Q1135.96 1161.2 1138.1 1161.67 L1139.02 1161.88 Q1141.85 1162.48 1143.04 1163.6 Q1144.24 1164.7 1144.24 1166.68 Q1144.24 1168.94 1142.44 1170.25 Q1140.66 1171.57 1137.54 1171.57 Q1136.24 1171.57 1134.82 1171.31 Q1133.42 1171.06 1131.85 1170.56 L1131.85 1167.81 Q1133.33 1168.57 1134.76 1168.96 Q1136.19 1169.34 1137.6 1169.34 Q1139.48 1169.34 1140.49 1168.7 Q1141.5 1168.05 1141.5 1166.88 Q1141.5 1165.8 1140.77 1165.22 Q1140.04 1164.64 1137.57 1164.1 L1136.64 1163.89 Q1134.17 1163.37 1133.07 1162.29 Q1131.97 1161.21 1131.97 1159.33 Q1131.97 1157.04 1133.59 1155.8 Q1135.21 1154.55 1138.19 1154.55 Q1139.67 1154.55 1140.97 1154.77 Q1142.27 1154.99 1143.37 1155.42 Z" fill="#000000" fill-rule="evenodd" fill-opacity="1" /><path clip-path="url(#clip220)" d="M 0 0 M1149.66 1150.34 L1149.66 1154.95 L1155.15 1154.95 L1155.15 1157.01 L1149.66 1157.01 L1149.66 1165.81 Q1149.66 1167.79 1150.2 1168.36 Q1150.75 1168.92 1152.41 1168.92 L1155.15 1168.92 L1155.15 1171.15 L1152.41 1171.15 Q1149.33 1171.15 1148.16 1170.01 Q1146.99 1168.85 1146.99 1165.81 L1146.99 1157.01 L1145.03 1157.01 L1145.03 1154.95 L1146.99 1154.95 L1146.99 1150.34 L1149.66 1150.34 Z" fill="#000000" fill-rule="evenodd" fill-opacity="1" /><path clip-path="url(#clip220)" d="M 0 0 M1168.27 1155.42 L1168.27 1157.94 Q1167.14 1157.36 1165.92 1157.07 Q1164.71 1156.78 1163.41 1156.78 Q1161.43 1156.78 1160.43 1157.39 Q1159.44 1158 1159.44 1159.21 Q1159.44 1160.14 1160.15 1160.67 Q1160.86 1161.2 1163 1161.67 L1163.91 1161.88 Q1166.75 1162.48 1167.94 1163.6 Q1169.14 1164.7 1169.14 1166.68 Q1169.14 1168.94 1167.34 1170.25 Q1165.56 1171.57 1162.44 1171.57 Q1161.14 1171.57 1159.72 1171.31 Q1158.31 1171.06 1156.75 1170.56 L1156.75 1167.81 Q1158.23 1168.57 1159.66 1168.96 Q1161.09 1169.34 1162.5 1169.34 Q1164.38 1169.34 1165.39 1168.7 Q1166.4 1168.05 1166.4 1166.88 Q1166.4 1165.8 1165.66 1165.22 Q1164.94 1164.64 1162.47 1164.1 L1161.54 1163.89 Q1159.07 1163.37 1157.97 1162.29 Q1156.87 1161.21 1156.87 1159.33 Q1156.87 1157.04 1158.49 1155.8 Q1160.11 1154.55 1163.09 1154.55 Q1164.56 1154.55 1165.87 1154.77 Q1167.17 1154.99 1168.27 1155.42 Z" fill="#000000" fill-rule="evenodd" fill-opacity="1" /><path clip-path="url(#clip220)" d="M 0 0 M1108.31 1126.23 L1108.31 1143.03 L1111.84 1143.03 Q1116.31 1143.03 1118.37 1141.01 Q1120.46 1138.98 1120.46 1134.61 Q1120.46 1130.27 1118.37 1128.26 Q1116.31 1126.23 1111.84 1126.23 L1108.31 1126.23 M1105.38 1123.83 L1111.39 1123.83 Q1117.67 1123.83 1120.6 1126.45 Q1123.54 1129.06 1123.54 1134.61 Q1123.54 1140.2 1120.59 1142.81 Q1117.64 1145.43 1111.39 1145.43 L1105.38 1145.43 L1105.38 1123.83 Z" fill="#000000" fill-rule="evenodd" fill-opacity="1" /><path clip-path="url(#clip220)" d="M 0 0 M1140.19 1136.67 L1140.19 1137.97 L1127.95 1137.97 Q1128.13 1140.72 1129.6 1142.16 Q1131.09 1143.6 1133.74 1143.6 Q1135.27 1143.6 1136.7 1143.22 Q1138.15 1142.84 1139.57 1142.09 L1139.57 1144.61 Q1138.14 1145.22 1136.63 1145.53 Q1135.13 1145.85 1133.58 1145.85 Q1129.7 1145.85 1127.43 1143.6 Q1125.17 1141.34 1125.17 1137.49 Q1125.17 1133.51 1127.32 1131.18 Q1129.47 1128.84 1133.12 1128.84 Q1136.39 1128.84 1138.28 1130.95 Q1140.19 1133.05 1140.19 1136.67 M1137.53 1135.88 Q1137.5 1133.7 1136.3 1132.4 Q1135.11 1131.1 1133.15 1131.1 Q1130.92 1131.1 1129.57 1132.35 Q1128.24 1133.61 1128.04 1135.9 L1137.53 1135.88 Z" fill="#000000" fill-rule="evenodd" fill-opacity="1" /><path clip-path="url(#clip220)" d="M 0 0 M1153.31 1129.71 L1153.31 1132.22 Q1152.19 1131.65 1150.97 1131.36 Q1149.75 1131.07 1148.45 1131.07 Q1146.47 1131.07 1145.47 1131.67 Q1144.49 1132.28 1144.49 1133.5 Q1144.49 1134.42 1145.2 1134.96 Q1145.91 1135.48 1148.05 1135.96 L1148.96 1136.16 Q1151.79 1136.77 1152.98 1137.88 Q1154.18 1138.98 1154.18 1140.96 Q1154.18 1143.22 1152.39 1144.54 Q1150.61 1145.85 1147.48 1145.85 Q1146.18 1145.85 1144.76 1145.59 Q1143.36 1145.35 1141.8 1144.84 L1141.8 1142.09 Q1143.27 1142.86 1144.71 1143.25 Q1146.14 1143.62 1147.54 1143.62 Q1149.42 1143.62 1150.43 1142.99 Q1151.45 1142.34 1151.45 1141.17 Q1151.45 1140.08 1150.71 1139.5 Q1149.99 1138.92 1147.51 1138.39 L1146.59 1138.17 Q1144.11 1137.65 1143.01 1136.58 Q1141.91 1135.49 1141.91 1133.61 Q1141.91 1131.33 1143.53 1130.08 Q1145.15 1128.84 1148.13 1128.84 Q1149.61 1128.84 1150.91 1129.06 Q1152.21 1129.27 1153.31 1129.71 Z" fill="#000000" fill-rule="evenodd" fill-opacity="1" /><path clip-path="url(#clip220)" d="M 0 0 M1156.97 1129.23 L1159.64 1129.23 L1159.64 1145.43 L1156.97 1145.43 L1156.97 1129.23 M1156.97 1122.92 L1159.64 1122.92 L1159.64 1126.29 L1156.97 1126.29 L1156.97 1122.92 Z" fill="#000000" fill-rule="evenodd" fill-opacity="1" /><path clip-path="url(#clip220)" d="M 0 0 M1173.09 1137.14 Q1173.09 1134.25 1171.89 1132.66 Q1170.7 1131.07 1168.55 1131.07 Q1166.41 1131.07 1165.21 1132.66 Q1164.02 1134.25 1164.02 1137.14 Q1164.02 1140.02 1165.21 1141.61 Q1166.41 1143.21 1168.55 1143.21 Q1170.7 1143.21 1171.89 1141.61 Q1173.09 1140.02 1173.09 1137.14 M1175.75 1143.42 Q1175.75 1147.56 1173.92 1149.57 Q1172.08 1151.6 1168.29 1151.6 Q1166.88 1151.6 1165.64 1151.38 Q1164.4 1151.18 1163.22 1150.74 L1163.22 1148.15 Q1164.4 1148.79 1165.54 1149.09 Q1166.68 1149.4 1167.87 1149.4 Q1170.49 1149.4 1171.79 1148.02 Q1173.09 1146.66 1173.09 1143.9 L1173.09 1142.58 Q1172.27 1144.02 1170.98 1144.72 Q1169.69 1145.43 1167.9 1145.43 Q1164.92 1145.43 1163.09 1143.16 Q1161.27 1140.89 1161.27 1137.14 Q1161.27 1133.38 1163.09 1131.11 Q1164.92 1128.84 1167.9 1128.84 Q1169.69 1128.84 1170.98 1129.55 Q1172.27 1130.26 1173.09 1131.69 L1173.09 1129.23 L1175.75 1129.23 L1175.75 1143.42 Z" fill="#000000" fill-rule="evenodd" fill-opacity="1" /><path clip-path="url(#clip220)" d="M 0 0 M1192.01 1135.65 L1192.01 1145.43 L1189.35 1145.43 L1189.35 1135.74 Q1189.35 1133.44 1188.46 1132.3 Q1187.56 1131.15 1185.76 1131.15 Q1183.61 1131.15 1182.36 1132.53 Q1181.12 1133.9 1181.12 1136.28 L1181.12 1145.43 L1178.44 1145.43 L1178.44 1129.23 L1181.12 1129.23 L1181.12 1131.75 Q1182.07 1130.29 1183.36 1129.56 Q1184.66 1128.84 1186.36 1128.84 Q1189.15 1128.84 1190.58 1130.58 Q1192.01 1132.3 1192.01 1135.65 Z" fill="#000000" fill-rule="evenodd" fill-opacity="1" /><path clip-path="url(#clip220)" d="M 0 0 M1207.12 1150.35 L1207.12 1152.42 L1191.72 1152.42 L1191.72 1150.35 L1207.12 1150.35 Z" fill="#000000" fill-rule="evenodd" fill-opacity="1" /><path clip-path="url(#clip220)" d="M 0 0 M1220.27 1135.31 Q1221.21 1135.62 1222.09 1136.67 Q1222.99 1137.71 1223.89 1139.53 L1226.85 1145.43 L1223.71 1145.43 L1220.95 1139.89 Q1219.88 1137.72 1218.87 1137.01 Q1217.87 1136.3 1216.13 1136.3 L1212.95 1136.3 L1212.95 1145.43 L1210.03 1145.43 L1210.03 1123.83 L1216.62 1123.83 Q1220.33 1123.83 1222.15 1125.38 Q1223.97 1126.93 1223.97 1130.05 Q1223.97 1132.09 1223.02 1133.44 Q1222.08 1134.79 1220.27 1135.31 M1212.95 1126.23 L1212.95 1133.9 L1216.62 1133.9 Q1218.74 1133.9 1219.81 1132.93 Q1220.89 1131.95 1220.89 1130.05 Q1220.89 1128.16 1219.81 1127.2 Q1218.74 1126.23 1216.62 1126.23 L1212.95 1126.23 Z" fill="#000000" fill-rule="evenodd" fill-opacity="1" /><path clip-path="url(#clip220)" d="M 0 0 M1242.17 1136.67 L1242.17 1137.97 L1229.93 1137.97 Q1230.11 1140.72 1231.58 1142.16 Q1233.07 1143.6 1235.72 1143.6 Q1237.25 1143.6 1238.69 1143.22 Q1240.13 1142.84 1241.55 1142.09 L1241.55 1144.61 Q1240.12 1145.22 1238.61 1145.53 Q1237.11 1145.85 1235.56 1145.85 Q1231.68 1145.85 1229.41 1143.6 Q1227.16 1141.34 1227.16 1137.49 Q1227.16 1133.51 1229.3 1131.18 Q1231.45 1128.84 1235.1 1128.84 Q1238.37 1128.84 1240.26 1130.95 Q1242.17 1133.05 1242.17 1136.67 M1239.51 1135.88 Q1239.48 1133.7 1238.28 1132.4 Q1237.09 1131.1 1235.13 1131.1 Q1232.9 1131.1 1231.55 1132.35 Q1230.22 1133.61 1230.02 1135.9 L1239.51 1135.88 Z" fill="#000000" fill-rule="evenodd" fill-opacity="1" /><path clip-path="url(#clip220)" d="M 0 0 M1252.33 1137.29 Q1249.1 1137.29 1247.86 1138.03 Q1246.61 1138.76 1246.61 1140.54 Q1246.61 1141.96 1247.54 1142.8 Q1248.48 1143.62 1250.09 1143.62 Q1252.3 1143.62 1253.63 1142.06 Q1254.98 1140.49 1254.98 1137.88 L1254.98 1137.29 L1252.33 1137.29 M1257.64 1136.19 L1257.64 1145.43 L1254.98 1145.43 L1254.98 1142.97 Q1254.07 1144.45 1252.71 1145.16 Q1251.35 1145.85 1249.38 1145.85 Q1246.89 1145.85 1245.41 1144.46 Q1243.95 1143.06 1243.95 1140.72 Q1243.95 1137.98 1245.78 1136.59 Q1247.61 1135.2 1251.24 1135.2 L1254.98 1135.2 L1254.98 1134.94 Q1254.98 1133.11 1253.76 1132.11 Q1252.56 1131.1 1250.38 1131.1 Q1248.99 1131.1 1247.67 1131.43 Q1246.35 1131.76 1245.14 1132.43 L1245.14 1129.97 Q1246.6 1129.4 1247.97 1129.13 Q1249.35 1128.84 1250.65 1128.84 Q1254.17 1128.84 1255.9 1130.66 Q1257.64 1132.48 1257.64 1136.19 Z" fill="#000000" fill-rule="evenodd" fill-opacity="1" /><path clip-path="url(#clip220)" d="M 0 0 M1270.76 1129.71 L1270.76 1132.22 Q1269.63 1131.65 1268.42 1131.36 Q1267.2 1131.07 1265.9 1131.07 Q1263.92 1131.07 1262.92 1131.67 Q1261.94 1132.28 1261.94 1133.5 Q1261.94 1134.42 1262.64 1134.96 Q1263.35 1135.48 1265.49 1135.96 L1266.41 1136.16 Q1269.24 1136.77 1270.43 1137.88 Q1271.63 1138.98 1271.63 1140.96 Q1271.63 1143.22 1269.83 1144.54 Q1268.06 1145.85 1264.93 1145.85 Q1263.63 1145.85 1262.21 1145.59 Q1260.81 1145.35 1259.24 1144.84 L1259.24 1142.09 Q1260.72 1142.86 1262.15 1143.25 Q1263.58 1143.62 1264.99 1143.62 Q1266.87 1143.62 1267.88 1142.99 Q1268.89 1142.34 1268.89 1141.17 Q1268.89 1140.08 1268.16 1139.5 Q1267.43 1138.92 1264.96 1138.39 L1264.03 1138.17 Q1261.56 1137.65 1260.46 1136.58 Q1259.36 1135.49 1259.36 1133.61 Q1259.36 1131.33 1260.98 1130.08 Q1262.6 1128.84 1265.58 1128.84 Q1267.06 1128.84 1268.36 1129.06 Q1269.66 1129.27 1270.76 1129.71 Z" fill="#000000" fill-rule="evenodd" fill-opacity="1" /><path clip-path="url(#clip220)" d="M 0 0 M1280.7 1131.1 Q1278.56 1131.1 1277.31 1132.77 Q1276.07 1134.44 1276.07 1137.35 Q1276.07 1140.25 1277.3 1141.93 Q1278.54 1143.6 1280.7 1143.6 Q1282.83 1143.6 1284.07 1141.92 Q1285.32 1140.24 1285.32 1137.35 Q1285.32 1134.47 1284.07 1132.79 Q1282.83 1131.1 1280.7 1131.1 M1280.7 1128.84 Q1284.17 1128.84 1286.15 1131.1 Q1288.14 1133.35 1288.14 1137.35 Q1288.14 1141.32 1286.15 1143.6 Q1284.17 1145.85 1280.7 1145.85 Q1277.21 1145.85 1275.23 1143.6 Q1273.26 1141.32 1273.26 1137.35 Q1273.26 1133.35 1275.23 1131.1 Q1277.21 1128.84 1280.7 1128.84 Z" fill="#000000" fill-rule="evenodd" fill-opacity="1" /><path clip-path="url(#clip220)" d="M 0 0 M1304.4 1135.65 L1304.4 1145.43 L1301.74 1145.43 L1301.74 1135.74 Q1301.74 1133.44 1300.84 1132.3 Q1299.94 1131.15 1298.15 1131.15 Q1295.99 1131.15 1294.75 1132.53 Q1293.5 1133.9 1293.5 1136.28 L1293.5 1145.43 L1290.83 1145.43 L1290.83 1129.23 L1293.5 1129.23 L1293.5 1131.75 Q1294.46 1130.29 1295.75 1129.56 Q1297.05 1128.84 1298.74 1128.84 Q1301.53 1128.84 1302.97 1130.58 Q1304.4 1132.3 1304.4 1135.65 Z" fill="#000000" fill-rule="evenodd" fill-opacity="1" /><path clip-path="url(#clip220)" d="M 0 0 M1307.19 1129.23 L1309.85 1129.23 L1309.85 1145.43 L1307.19 1145.43 L1307.19 1129.23 M1307.19 1122.92 L1309.85 1122.92 L1309.85 1126.29 L1307.19 1126.29 L1307.19 1122.92 Z" fill="#000000" fill-rule="evenodd" fill-opacity="1" /><path clip-path="url(#clip220)" d="M 0 0 M1326.11 1135.65 L1326.11 1145.43 L1323.45 1145.43 L1323.45 1135.74 Q1323.45 1133.44 1322.55 1132.3 Q1321.66 1131.15 1319.86 1131.15 Q1317.71 1131.15 1316.46 1132.53 Q1315.22 1133.9 1315.22 1136.28 L1315.22 1145.43 L1312.54 1145.43 L1312.54 1129.23 L1315.22 1129.23 L1315.22 1131.75 Q1316.17 1130.29 1317.46 1129.56 Q1318.76 1128.84 1320.46 1128.84 Q1323.25 1128.84 1324.68 1130.58 Q1326.11 1132.3 1326.11 1135.65 Z" fill="#000000" fill-rule="evenodd" fill-opacity="1" /><path clip-path="url(#clip220)" d="M 0 0 M1339.57 1137.14 Q1339.57 1134.25 1338.37 1132.66 Q1337.18 1131.07 1335.03 1131.07 Q1332.88 1131.07 1331.68 1132.66 Q1330.5 1134.25 1330.5 1137.14 Q1330.5 1140.02 1331.68 1141.61 Q1332.88 1143.21 1335.03 1143.21 Q1337.18 1143.21 1338.37 1141.61 Q1339.57 1140.02 1339.57 1137.14 M1342.23 1143.42 Q1342.23 1147.56 1340.39 1149.57 Q1338.56 1151.6 1334.77 1151.6 Q1333.36 1151.6 1332.12 1151.38 Q1330.87 1151.18 1329.7 1150.74 L1329.7 1148.15 Q1330.87 1148.79 1332.02 1149.09 Q1333.16 1149.4 1334.35 1149.4 Q1336.96 1149.4 1338.27 1148.02 Q1339.57 1146.66 1339.57 1143.9 L1339.57 1142.58 Q1338.74 1144.02 1337.46 1144.72 Q1336.17 1145.43 1334.37 1145.43 Q1331.39 1145.43 1329.57 1143.16 Q1327.75 1140.89 1327.75 1137.14 Q1327.75 1133.38 1329.57 1131.11 Q1331.39 1128.84 1334.37 1128.84 Q1336.17 1128.84 1337.46 1129.55 Q1338.74 1130.26 1339.57 1131.69 L1339.57 1129.23 L1342.23 1129.23 L1342.23 1143.42 Z" fill="#000000" fill-rule="evenodd" fill-opacity="1" /><path clip-path="url(#clip220)" d="M 0 0 M678.247 864.868 L678.247 867.95 Q676.771 866.575 675.093 865.895 Q673.429 865.215 671.548 865.215 Q667.845 865.215 665.877 867.487 Q663.909 869.744 663.909 874.026 Q663.909 878.294 665.877 880.565 Q667.845 882.822 671.548 882.822 Q673.429 882.822 675.093 882.142 Q676.771 881.462 678.247 880.088 L678.247 883.141 Q676.713 884.182 674.991 884.703 Q673.284 885.224 671.375 885.224 Q666.47 885.224 663.649 882.229 Q660.828 879.22 660.828 874.026 Q660.828 868.818 663.649 865.823 Q666.47 862.814 671.375 862.814 Q673.313 862.814 675.02 863.335 Q676.742 863.841 678.247 864.868 Z" fill="#000000" fill-rule="evenodd" fill-opacity="1" /><path clip-path="url(#clip220)" d="M 0 0 M687.318 870.467 Q685.177 870.467 683.932 872.145 Q682.688 873.809 682.688 876.717 Q682.688 879.625 683.918 881.303 Q685.162 882.967 687.318 882.967 Q689.445 882.967 690.689 881.289 Q691.933 879.611 691.933 876.717 Q691.933 873.838 690.689 872.16 Q689.445 870.467 687.318 870.467 M687.318 868.21 Q690.79 868.21 692.772 870.467 Q694.754 872.724 694.754 876.717 Q694.754 880.696 692.772 882.967 Q690.79 885.224 687.318 885.224 Q683.831 885.224 681.849 882.967 Q679.881 880.696 679.881 876.717 Q679.881 872.724 681.849 870.467 Q683.831 868.21 687.318 868.21 Z" fill="#000000" fill-rule="evenodd" fill-opacity="1" /><path clip-path="url(#clip220)" d="M 0 0 M697.546 862.293 L700.208 862.293 L700.208 884.804 L697.546 884.804 L697.546 862.293 Z" fill="#000000" fill-rule="evenodd" fill-opacity="1" /><path clip-path="url(#clip220)" d="M 0 0 M703.001 862.293 L705.663 862.293 L705.663 884.804 L703.001 884.804 L703.001 862.293 Z" fill="#000000" fill-rule="evenodd" fill-opacity="1" /><path clip-path="url(#clip220)" d="M 0 0 M715.819 876.659 Q712.593 876.659 711.348 877.397 Q710.104 878.135 710.104 879.914 Q710.104 881.332 711.03 882.171 Q711.97 882.996 713.576 882.996 Q715.79 882.996 717.121 881.433 Q718.466 879.856 718.466 877.252 L718.466 876.659 L715.819 876.659 M721.128 875.56 L721.128 884.804 L718.466 884.804 L718.466 882.345 Q717.555 883.821 716.195 884.529 Q714.835 885.224 712.867 885.224 Q710.379 885.224 708.903 883.835 Q707.442 882.432 707.442 880.088 Q707.442 877.354 709.265 875.965 Q711.102 874.576 714.734 874.576 L718.466 874.576 L718.466 874.315 Q718.466 872.478 717.251 871.48 Q716.05 870.467 713.866 870.467 Q712.477 870.467 711.16 870.8 Q709.844 871.133 708.628 871.798 L708.628 869.339 Q710.09 868.774 711.464 868.499 Q712.838 868.21 714.141 868.21 Q717.656 868.21 719.392 870.033 Q721.128 871.856 721.128 875.56 Z" fill="#000000" fill-rule="evenodd" fill-opacity="1" /><path clip-path="url(#clip220)" d="M 0 0 M735.552 876.717 Q735.552 873.78 734.337 872.116 Q733.136 870.438 731.024 870.438 Q728.912 870.438 727.697 872.116 Q726.496 873.78 726.496 876.717 Q726.496 879.654 727.697 881.332 Q728.912 882.996 731.024 882.996 Q733.136 882.996 734.337 881.332 Q735.552 879.654 735.552 876.717 M726.496 871.06 Q727.335 869.613 728.608 868.919 Q729.896 868.21 731.675 868.21 Q734.627 868.21 736.464 870.554 Q738.316 872.898 738.316 876.717 Q738.316 880.536 736.464 882.88 Q734.627 885.224 731.675 885.224 Q729.896 885.224 728.608 884.529 Q727.335 883.821 726.496 882.374 L726.496 884.804 L723.819 884.804 L723.819 862.293 L726.496 862.293 L726.496 871.06 Z" fill="#000000" fill-rule="evenodd" fill-opacity="1" /><path clip-path="url(#clip220)" d="M 0 0 M747.387 870.467 Q745.246 870.467 744.002 872.145 Q742.757 873.809 742.757 876.717 Q742.757 879.625 743.987 881.303 Q745.231 882.967 747.387 882.967 Q749.514 882.967 750.758 881.289 Q752.002 879.611 752.002 876.717 Q752.002 873.838 750.758 872.16 Q749.514 870.467 747.387 870.467 M747.387 868.21 Q750.859 868.21 752.841 870.467 Q754.823 872.724 754.823 876.717 Q754.823 880.696 752.841 882.967 Q750.859 885.224 747.387 885.224 Q743.9 885.224 741.918 882.967 Q739.951 880.696 739.951 876.717 Q739.951 872.724 741.918 870.467 Q743.9 868.21 747.387 868.21 Z" fill="#000000" fill-rule="evenodd" fill-opacity="1" /><path clip-path="url(#clip220)" d="M 0 0 M767.005 871.089 Q766.556 870.829 766.021 870.713 Q765.5 870.583 764.864 870.583 Q762.607 870.583 761.391 872.058 Q760.191 873.52 760.191 876.269 L760.191 884.804 L757.514 884.804 L757.514 868.601 L760.191 868.601 L760.191 871.118 Q761.03 869.642 762.375 868.933 Q763.721 868.21 765.645 868.21 Q765.92 868.21 766.253 868.254 Q766.585 868.282 766.99 868.355 L767.005 871.089 Z" fill="#000000" fill-rule="evenodd" fill-opacity="1" /><path clip-path="url(#clip220)" d="M 0 0 M777.161 876.659 Q773.935 876.659 772.691 877.397 Q771.446 878.135 771.446 879.914 Q771.446 881.332 772.372 882.171 Q773.313 882.996 774.919 882.996 Q777.132 882.996 778.463 881.433 Q779.809 879.856 779.809 877.252 L779.809 876.659 L777.161 876.659 M782.471 875.56 L782.471 884.804 L779.809 884.804 L779.809 882.345 Q778.897 883.821 777.537 884.529 Q776.177 885.224 774.21 885.224 Q771.721 885.224 770.246 883.835 Q768.784 882.432 768.784 880.088 Q768.784 877.354 770.607 875.965 Q772.445 874.576 776.076 874.576 L779.809 874.576 L779.809 874.315 Q779.809 872.478 778.593 871.48 Q777.393 870.467 775.208 870.467 Q773.819 870.467 772.503 870.8 Q771.186 871.133 769.971 871.798 L769.971 869.339 Q771.432 868.774 772.806 868.499 Q774.181 868.21 775.483 868.21 Q778.998 868.21 780.735 870.033 Q782.471 871.856 782.471 875.56 Z" fill="#000000" fill-rule="evenodd" fill-opacity="1" /><path clip-path="url(#clip220)" d="M 0 0 M787.896 864 L787.896 868.601 L793.379 868.601 L793.379 870.67 L787.896 870.67 L787.896 879.466 Q787.896 881.448 788.431 882.012 Q788.981 882.576 790.645 882.576 L793.379 882.576 L793.379 884.804 L790.645 884.804 Q787.563 884.804 786.391 883.661 Q785.219 882.504 785.219 879.466 L785.219 870.67 L783.266 870.67 L783.266 868.601 L785.219 868.601 L785.219 864 L787.896 864 Z" fill="#000000" fill-rule="evenodd" fill-opacity="1" /><path clip-path="url(#clip220)" d="M 0 0 M796.171 868.601 L798.833 868.601 L798.833 884.804 L796.171 884.804 L796.171 868.601 M796.171 862.293 L798.833 862.293 L798.833 865.664 L796.171 865.664 L796.171 862.293 Z" fill="#000000" fill-rule="evenodd" fill-opacity="1" /><path clip-path="url(#clip220)" d="M 0 0 M807.905 870.467 Q805.763 870.467 804.519 872.145 Q803.275 873.809 803.275 876.717 Q803.275 879.625 804.505 881.303 Q805.749 882.967 807.905 882.967 Q810.031 882.967 811.275 881.289 Q812.52 879.611 812.52 876.717 Q812.52 873.838 811.275 872.16 Q810.031 870.467 807.905 870.467 M807.905 868.21 Q811.377 868.21 813.359 870.467 Q815.341 872.724 815.341 876.717 Q815.341 880.696 813.359 882.967 Q811.377 885.224 807.905 885.224 Q804.418 885.224 802.436 882.967 Q800.468 880.696 800.468 876.717 Q800.468 872.724 802.436 870.467 Q804.418 868.21 807.905 868.21 Z" fill="#000000" fill-rule="evenodd" fill-opacity="1" /><path clip-path="url(#clip220)" d="M 0 0 M831.602 875.024 L831.602 884.804 L828.94 884.804 L828.94 875.111 Q828.94 872.811 828.043 871.668 Q827.146 870.525 825.352 870.525 Q823.197 870.525 821.952 871.899 Q820.708 873.274 820.708 875.646 L820.708 884.804 L818.032 884.804 L818.032 868.601 L820.708 868.601 L820.708 871.118 Q821.663 869.657 822.951 868.933 Q824.253 868.21 825.946 868.21 Q828.738 868.21 830.17 869.946 Q831.602 871.668 831.602 875.024 Z" fill="#000000" fill-rule="evenodd" fill-opacity="1" /><path clip-path="url(#clip222)" d="M1015.23 993.505 L983.231 993.505 L999.231 1025.5 L1015.23 993.505 Z" fill="#800080" fill-rule="evenodd" fill-opacity="1" stroke="none"/>
<polyline clip-path="url(#clip222)" style="stroke:#800080; stroke-width:4; stroke-opacity:1; fill:none" stroke-dasharray="16, 10" points="
  970.87,1035.9 1027.59,1035.9 
  "/>
<polyline clip-path="url(#clip222)" style="stroke:#800080; stroke-width:4; stroke-opacity:1; fill:none" stroke-dasharray="16, 10" points="
  970.87,983.114 1027.59,983.114 
  "/>
<polyline clip-path="url(#clip222)" style="stroke:#800080; stroke-width:4; stroke-opacity:1; fill:none" stroke-dasharray="16, 10" points="
  970.87,1035.9 970.87,983.114 
  "/>
<polyline clip-path="url(#clip222)" style="stroke:#800080; stroke-width:4; stroke-opacity:1; fill:none" stroke-dasharray="16, 10" points="
  1027.59,1035.9 1027.59,983.114 
  "/>
<path clip-path="url(#clip222)" d="M983.74 923.32 L967.74 955.32 L999.74 955.32 L983.74 923.32 Z" fill="#800080" fill-rule="evenodd" fill-opacity="1" stroke="none"/>
<polyline clip-path="url(#clip222)" style="stroke:#800080; stroke-width:4; stroke-opacity:1; fill:none" stroke-dasharray="16, 10" points="
  956.15,962.046 1011.33,962.046 
  "/>
<polyline clip-path="url(#clip222)" style="stroke:#800080; stroke-width:4; stroke-opacity:1; fill:none" stroke-dasharray="16, 10" points="
  956.15,916.595 1011.33,916.595 
  "/>
<polyline clip-path="url(#clip222)" style="stroke:#800080; stroke-width:4; stroke-opacity:1; fill:none" stroke-dasharray="16, 10" points="
  956.15,962.046 956.15,916.595 
  "/>
<polyline clip-path="url(#clip222)" style="stroke:#800080; stroke-width:4; stroke-opacity:1; fill:none" stroke-dasharray="16, 10" points="
  1011.33,962.046 1011.33,916.595 
  "/>
<path clip-path="url(#clip222)" d="M1082.24 987.011 L1050.24 987.011 L1066.24 1019.01 L1082.24 987.011 Z" fill="#ffa500" fill-rule="evenodd" fill-opacity="1" stroke="none"/>
<polyline clip-path="url(#clip222)" style="stroke:#ffa500; stroke-width:4; stroke-opacity:1; fill:none" stroke-dasharray="16, 10" points="
  1048.52,1021.66 1083.96,1021.66 
  "/>
<polyline clip-path="url(#clip222)" style="stroke:#ffa500; stroke-width:4; stroke-opacity:1; fill:none" stroke-dasharray="16, 10" points="
  1048.52,984.364 1083.96,984.364 
  "/>
<polyline clip-path="url(#clip222)" style="stroke:#ffa500; stroke-width:4; stroke-opacity:1; fill:none" stroke-dasharray="16, 10" points="
  1048.52,1021.66 1048.52,984.364 
  "/>
<polyline clip-path="url(#clip222)" style="stroke:#ffa500; stroke-width:4; stroke-opacity:1; fill:none" stroke-dasharray="16, 10" points="
  1083.96,1021.66 1083.96,984.364 
  "/>
<path clip-path="url(#clip222)" d="M1063.83 932.318 L1047.83 964.318 L1079.83 964.318 L1063.83 932.318 Z" fill="#ffa500" fill-rule="evenodd" fill-opacity="1" stroke="none"/>
<polyline clip-path="url(#clip222)" style="stroke:#ffa500; stroke-width:4; stroke-opacity:1; fill:none" stroke-dasharray="16, 10" points="
  1029.92,971.438 1097.73,971.438 
  "/>
<polyline clip-path="url(#clip222)" style="stroke:#ffa500; stroke-width:4; stroke-opacity:1; fill:none" stroke-dasharray="16, 10" points="
  1029.92,925.197 1097.73,925.197 
  "/>
<polyline clip-path="url(#clip222)" style="stroke:#ffa500; stroke-width:4; stroke-opacity:1; fill:none" stroke-dasharray="16, 10" points="
  1029.92,971.438 1029.92,925.197 
  "/>
<polyline clip-path="url(#clip222)" style="stroke:#ffa500; stroke-width:4; stroke-opacity:1; fill:none" stroke-dasharray="16, 10" points="
  1097.73,971.438 1097.73,925.197 
  "/>
<path clip-path="url(#clip222)" d="M975.176 957.009 L975.176 989.009 L1007.18 989.009 L1007.18 957.009 L975.176 957.009 Z" fill="#800080" fill-rule="evenodd" fill-opacity="1" stroke="none"/>
<polyline clip-path="url(#clip222)" style="stroke:#800080; stroke-width:4; stroke-opacity:1; fill:none" stroke-dasharray="16, 10" points="
  971.986,992.499 1010.37,992.499 
  "/>
<polyline clip-path="url(#clip222)" style="stroke:#800080; stroke-width:4; stroke-opacity:1; fill:none" stroke-dasharray="16, 10" points="
  971.986,953.519 1010.37,953.519 
  "/>
<polyline clip-path="url(#clip222)" style="stroke:#800080; stroke-width:4; stroke-opacity:1; fill:none" stroke-dasharray="16, 10" points="
  971.986,992.499 971.986,953.519 
  "/>
<polyline clip-path="url(#clip222)" style="stroke:#800080; stroke-width:4; stroke-opacity:1; fill:none" stroke-dasharray="16, 10" points="
  1010.37,992.499 1010.37,953.519 
  "/>
<path clip-path="url(#clip222)" d="M1049.03 959.664 L1049.03 991.664 L1081.03 991.664 L1081.03 959.664 L1049.03 959.664 Z" fill="#ffa500" fill-rule="evenodd" fill-opacity="1" stroke="none"/>
<polyline clip-path="url(#clip222)" style="stroke:#ffa500; stroke-width:4; stroke-opacity:1; fill:none" stroke-dasharray="16, 10" points="
  1046.7,992.197 1083.37,992.197 
  "/>
<polyline clip-path="url(#clip222)" style="stroke:#ffa500; stroke-width:4; stroke-opacity:1; fill:none" stroke-dasharray="16, 10" points="
  1046.7,959.132 1083.37,959.132 
  "/>
<polyline clip-path="url(#clip222)" style="stroke:#ffa500; stroke-width:4; stroke-opacity:1; fill:none" stroke-dasharray="16, 10" points="
  1046.7,992.197 1046.7,959.132 
  "/>
<polyline clip-path="url(#clip222)" style="stroke:#ffa500; stroke-width:4; stroke-opacity:1; fill:none" stroke-dasharray="16, 10" points="
  1083.37,992.197 1083.37,959.132 
  "/>
</svg>
