<?xml version="1.0" encoding="utf-8"?>
<svg xmlns="http://www.w3.org/2000/svg" xmlns:xlink="http://www.w3.org/1999/xlink" width="600" height="400" viewBox="0 0 2400 1600">
<defs>
  <clipPath id="clip150">
    <rect x="0" y="0" width="2400" height="1600"/>
  </clipPath>
</defs>
<path clip-path="url(#clip150)" d="
M0 1600 L2400 1600 L2400 0 L0 0  Z
  " fill="#ffffff" fill-rule="evenodd" fill-opacity="1"/>
<defs>
  <clipPath id="clip151">
    <rect x="480" y="0" width="1681" height="1600"/>
  </clipPath>
</defs>
<path clip-path="url(#clip150)" d="
M244.472 1363.53 L2211.02 1363.53 L2211.02 188.976 L244.472 188.976  Z
  " fill="#ffffff" fill-rule="evenodd" fill-opacity="1"/>
<defs>
  <clipPath id="clip152">
    <rect x="244" y="188" width="1968" height="1176"/>
  </clipPath>
</defs>
<polyline clip-path="url(#clip152)" style="stroke:#000000; stroke-width:2; stroke-opacity:0.1; fill:none" points="
  899.99,1363.53 899.99,188.976 
  "/>
<polyline clip-path="url(#clip152)" style="stroke:#000000; stroke-width:2; stroke-opacity:0.1; fill:none" points="
  1227.75,1363.53 1227.75,188.976 
  "/>
<polyline clip-path="url(#clip152)" style="stroke:#000000; stroke-width:2; stroke-opacity:0.1; fill:none" points="
  1555.51,1363.53 1555.51,188.976 
  "/>
<polyline clip-path="url(#clip152)" style="stroke:#000000; stroke-width:2; stroke-opacity:0.1; fill:none" points="
  244.472,972.01 2211.02,972.01 
  "/>
<polyline clip-path="url(#clip152)" style="stroke:#000000; stroke-width:2; stroke-opacity:0.1; fill:none" points="
  244.472,776.252 2211.02,776.252 
  "/>
<polyline clip-path="url(#clip152)" style="stroke:#000000; stroke-width:2; stroke-opacity:0.1; fill:none" points="
  244.472,580.493 2211.02,580.493 
  "/>
<polyline clip-path="url(#clip150)" style="stroke:#000000; stroke-width:4; stroke-opacity:1; fill:none" points="
  244.472,1363.53 2211.02,1363.53 
  "/>
<polyline clip-path="url(#clip150)" style="stroke:#000000; stroke-width:4; stroke-opacity:1; fill:none" points="
  244.472,1363.53 244.472,188.976 
  "/>
<polyline clip-path="url(#clip150)" style="stroke:#000000; stroke-width:4; stroke-opacity:1; fill:none" points="
  899.99,1363.53 899.99,1349.43 
  "/>
<polyline clip-path="url(#clip150)" style="stroke:#000000; stroke-width:4; stroke-opacity:1; fill:none" points="
  1227.75,1363.53 1227.75,1349.43 
  "/>
<polyline clip-path="url(#clip150)" style="stroke:#000000; stroke-width:4; stroke-opacity:1; fill:none" points="
  1555.51,1363.53 1555.51,1349.43 
  "/>
<polyline clip-path="url(#clip150)" style="stroke:#000000; stroke-width:4; stroke-opacity:1; fill:none" points="
  244.472,972.01 268.071,972.01 
  "/>
<polyline clip-path="url(#clip150)" style="stroke:#000000; stroke-width:4; stroke-opacity:1; fill:none" points="
  244.472,776.252 268.071,776.252 
  "/>
<polyline clip-path="url(#clip150)" style="stroke:#000000; stroke-width:4; stroke-opacity:1; fill:none" points="
  244.472,580.493 268.071,580.493 
  "/>
<path clip-path="url(#clip150)" d="M 0 0 M880.858 1402.12 L893.334 1402.12 L893.334 1405.91 L880.858 1405.91 L880.858 1402.12 Z" fill="#000000" fill-rule="evenodd" fill-opacity="1" /><path clip-path="url(#clip150)" d="M 0 0 M899.214 1413.06 L906.853 1413.06 L906.853 1386.7 L898.543 1388.37 L898.543 1384.11 L906.807 1382.44 L911.482 1382.44 L911.482 1413.06 L919.121 1413.06 L919.121 1417 L899.214 1417 L899.214 1413.06 Z" fill="#000000" fill-rule="evenodd" fill-opacity="1" /><path clip-path="url(#clip150)" d="M 0 0 M1227.75 1385.52 Q1224.14 1385.52 1222.31 1389.08 Q1220.5 1392.62 1220.5 1399.75 Q1220.5 1406.86 1222.31 1410.43 Q1224.14 1413.97 1227.75 1413.97 Q1231.38 1413.97 1233.19 1410.43 Q1235.02 1406.86 1235.02 1399.75 Q1235.02 1392.62 1233.19 1389.08 Q1231.38 1385.52 1227.75 1385.52 M1227.75 1381.81 Q1233.56 1381.81 1236.61 1386.42 Q1239.69 1391 1239.69 1399.75 Q1239.69 1408.48 1236.61 1413.09 Q1233.56 1417.67 1227.75 1417.67 Q1221.94 1417.67 1218.86 1413.09 Q1215.8 1408.48 1215.8 1399.75 Q1215.8 1391 1218.86 1386.42 Q1221.94 1381.81 1227.75 1381.81 Z" fill="#000000" fill-rule="evenodd" fill-opacity="1" /><path clip-path="url(#clip150)" d="M 0 0 M1545.89 1413.06 L1553.53 1413.06 L1553.53 1386.7 L1545.22 1388.37 L1545.22 1384.11 L1553.48 1382.44 L1558.16 1382.44 L1558.16 1413.06 L1565.8 1413.06 L1565.8 1417 L1545.89 1417 L1545.89 1413.06 Z" fill="#000000" fill-rule="evenodd" fill-opacity="1" /><path clip-path="url(#clip150)" d="M 0 0 M182.209 974.406 L194.686 974.406 L194.686 978.203 L182.209 978.203 L182.209 974.406 Z" fill="#000000" fill-rule="evenodd" fill-opacity="1" /><path clip-path="url(#clip150)" d="M 0 0 M200.565 985.355 L208.204 985.355 L208.204 958.99 L199.894 960.656 L199.894 956.397 L208.158 954.73 L212.834 954.73 L212.834 985.355 L220.472 985.355 L220.472 989.29 L200.565 989.29 L200.565 985.355 Z" fill="#000000" fill-rule="evenodd" fill-opacity="1" /><path clip-path="url(#clip150)" d="M 0 0 M208.528 762.051 Q204.917 762.051 203.088 765.615 Q201.283 769.157 201.283 776.287 Q201.283 783.393 203.088 786.958 Q204.917 790.5 208.528 790.5 Q212.162 790.5 213.968 786.958 Q215.797 783.393 215.797 776.287 Q215.797 769.157 213.968 765.615 Q212.162 762.051 208.528 762.051 M208.528 758.347 Q214.338 758.347 217.394 762.953 Q220.472 767.537 220.472 776.287 Q220.472 785.013 217.394 789.62 Q214.338 794.203 208.528 794.203 Q202.718 794.203 199.639 789.62 Q196.584 785.013 196.584 776.287 Q196.584 767.537 199.639 762.953 Q202.718 758.347 208.528 758.347 Z" fill="#000000" fill-rule="evenodd" fill-opacity="1" /><path clip-path="url(#clip150)" d="M 0 0 M200.565 593.838 L208.204 593.838 L208.204 567.473 L199.894 569.139 L199.894 564.88 L208.158 563.213 L212.834 563.213 L212.834 593.838 L220.472 593.838 L220.472 597.773 L200.565 597.773 L200.565 593.838 Z" fill="#000000" fill-rule="evenodd" fill-opacity="1" /><path clip-path="url(#clip150)" d="M 0 0 M1113.39 1448.87 L1120.29 1448.87 L1132.1 1466.54 L1143.98 1448.87 L1150.88 1448.87 L1135.6 1471.69 L1151.9 1496.39 L1144.99 1496.39 L1131.63 1476.18 L1118.16 1496.39 L1111.22 1496.39 L1128.19 1471.02 L1113.39 1448.87 Z" fill="#000000" fill-rule="evenodd" fill-opacity="1" /><path clip-path="url(#clip150)" d="M 0 0 M1192.83 1446.93 Q1188.57 1454.25 1186.5 1461.41 Q1184.43 1468.57 1184.43 1475.93 Q1184.43 1483.28 1186.5 1490.5 Q1188.6 1497.7 1192.83 1504.99 L1187.74 1504.99 Q1182.97 1497.51 1180.58 1490.28 Q1178.22 1483.06 1178.22 1475.93 Q1178.22 1468.83 1180.58 1461.63 Q1182.93 1454.44 1187.74 1446.93 L1192.83 1446.93 Z" fill="#000000" fill-rule="evenodd" fill-opacity="1" /><path clip-path="url(#clip150)" d="M 0 0 M1200.92 1490.98 L1211.42 1490.98 L1211.42 1454.73 L1199.99 1457.02 L1199.99 1451.16 L1211.36 1448.87 L1217.79 1448.87 L1217.79 1490.98 L1228.29 1490.98 L1228.29 1496.39 L1200.92 1496.39 L1200.92 1490.98 Z" fill="#000000" fill-rule="evenodd" fill-opacity="1" /><path clip-path="url(#clip150)" d="M 0 0 M1252.92 1454.47 L1236.69 1479.84 L1252.92 1479.84 L1252.92 1454.47 M1251.24 1448.87 L1259.32 1448.87 L1259.32 1479.84 L1266.1 1479.84 L1266.1 1485.19 L1259.32 1485.19 L1259.32 1496.39 L1252.92 1496.39 L1252.92 1485.19 L1231.47 1485.19 L1231.47 1478.98 L1251.24 1448.87 Z" fill="#000000" fill-rule="evenodd" fill-opacity="1" /><path clip-path="url(#clip150)" d="M 0 0 M1313.49 1475.48 Q1310.73 1475.48 1309.13 1477.84 Q1307.57 1480.19 1307.57 1484.39 Q1307.57 1488.53 1309.13 1490.92 Q1310.73 1493.27 1313.49 1493.27 Q1316.2 1493.27 1317.76 1490.92 Q1319.35 1488.53 1319.35 1484.39 Q1319.35 1480.22 1317.76 1477.87 Q1316.2 1475.48 1313.49 1475.48 M1313.49 1471.44 Q1318.52 1471.44 1321.48 1474.94 Q1324.44 1478.44 1324.44 1484.39 Q1324.44 1490.34 1321.45 1493.85 Q1318.49 1497.31 1313.49 1497.31 Q1308.4 1497.31 1305.44 1493.85 Q1302.48 1490.34 1302.48 1484.39 Q1302.48 1478.41 1305.44 1474.94 Q1308.43 1471.44 1313.49 1471.44 M1280.65 1452.05 Q1277.91 1452.05 1276.32 1454.44 Q1274.76 1456.8 1274.76 1460.93 Q1274.76 1465.14 1276.32 1467.49 Q1277.88 1469.85 1280.65 1469.85 Q1283.42 1469.85 1284.98 1467.49 Q1286.57 1465.14 1286.57 1460.93 Q1286.57 1456.83 1284.98 1454.44 Q1283.38 1452.05 1280.65 1452.05 M1309.39 1448.01 L1314.48 1448.01 L1284.75 1497.31 L1279.66 1497.31 L1309.39 1448.01 M1280.65 1448.01 Q1285.68 1448.01 1288.67 1451.51 Q1291.66 1454.98 1291.66 1460.93 Q1291.66 1466.95 1288.67 1470.42 Q1285.71 1473.89 1280.65 1473.89 Q1275.59 1473.89 1272.63 1470.42 Q1269.7 1466.92 1269.7 1460.93 Q1269.7 1455.01 1272.66 1451.51 Q1275.62 1448.01 1280.65 1448.01 Z" fill="#000000" fill-rule="evenodd" fill-opacity="1" /><path clip-path="url(#clip150)" d="M 0 0 M1329.66 1446.93 L1334.76 1446.93 Q1339.53 1454.44 1341.89 1461.63 Q1344.27 1468.83 1344.27 1475.93 Q1344.27 1483.06 1341.89 1490.28 Q1339.53 1497.51 1334.76 1504.99 L1329.66 1504.99 Q1333.9 1497.7 1335.97 1490.5 Q1338.07 1483.28 1338.07 1475.93 Q1338.07 1468.57 1335.97 1461.41 Q1333.9 1454.25 1329.66 1446.93 Z" fill="#000000" fill-rule="evenodd" fill-opacity="1" /><path clip-path="url(#clip150)" d="M 0 0 M96.4328 891.455 L96.4328 884.549 L115.975 871.372 L96.4328 858.29 L96.4328 851.383 L121.323 868.189 L143.953 868.189 L143.953 874.65 L121.323 874.65 L96.4328 891.455 Z" fill="#000000" fill-rule="evenodd" fill-opacity="1" /><path clip-path="url(#clip150)" d="M 0 0 M94.4912 810.452 Q101.812 814.717 108.973 816.786 Q116.135 818.854 123.487 818.854 Q130.839 818.854 138.064 816.786 Q145.258 814.685 152.546 810.452 L152.546 815.544 Q145.067 820.319 137.842 822.706 Q130.617 825.061 123.487 825.061 Q116.389 825.061 109.196 822.706 Q102.003 820.35 94.4912 815.544 L94.4912 810.452 Z" fill="#000000" fill-rule="evenodd" fill-opacity="1" /><path clip-path="url(#clip150)" d="M 0 0 M138.542 802.367 L138.542 791.864 L102.289 791.864 L104.581 803.29 L98.7244 803.29 L96.4328 791.928 L96.4328 785.498 L138.542 785.498 L138.542 774.995 L143.953 774.995 L143.953 802.367 L138.542 802.367 Z" fill="#000000" fill-rule="evenodd" fill-opacity="1" /><path clip-path="url(#clip150)" d="M 0 0 M96.4328 767.961 L96.4328 742.721 L101.844 742.721 L101.844 762.072 L113.493 762.072 Q113.015 760.672 112.793 759.271 Q112.538 757.871 112.538 756.471 Q112.538 748.513 116.899 743.866 Q121.259 739.219 128.707 739.219 Q136.378 739.219 140.643 743.994 Q144.876 748.768 144.876 757.457 Q144.876 760.449 144.367 763.568 Q143.857 766.656 142.839 769.966 L136.378 769.966 Q137.937 767.101 138.701 764.046 Q139.465 760.99 139.465 757.585 Q139.465 752.078 136.569 748.864 Q133.672 745.649 128.707 745.649 Q123.742 745.649 120.845 748.864 Q117.949 752.078 117.949 757.585 Q117.949 760.163 118.522 762.741 Q119.095 765.287 120.304 767.961 L96.4328 767.961 Z" fill="#000000" fill-rule="evenodd" fill-opacity="1" /><path clip-path="url(#clip150)" d="M 0 0 M123.041 691.827 Q123.041 694.596 125.397 696.187 Q127.752 697.747 131.953 697.747 Q136.091 697.747 138.478 696.187 Q140.834 694.596 140.834 691.827 Q140.834 689.121 138.478 687.562 Q136.091 685.97 131.953 685.97 Q127.784 685.97 125.429 687.562 Q123.041 689.121 123.041 691.827 M118.999 691.827 Q118.999 686.798 122.5 683.838 Q126.001 680.878 131.953 680.878 Q137.905 680.878 141.406 683.87 Q144.876 686.83 144.876 691.827 Q144.876 696.919 141.406 699.879 Q137.905 702.839 131.953 702.839 Q125.97 702.839 122.5 699.879 Q118.999 696.888 118.999 691.827 M99.6156 724.674 Q99.6156 727.411 102.003 729.003 Q104.358 730.562 108.496 730.562 Q112.697 730.562 115.052 729.003 Q117.408 727.443 117.408 724.674 Q117.408 721.905 115.052 720.345 Q112.697 718.754 108.496 718.754 Q104.39 718.754 102.003 720.345 Q99.6156 721.937 99.6156 724.674 M95.5734 695.933 L95.5734 690.84 L144.876 720.568 L144.876 725.661 L95.5734 695.933 M95.5734 724.674 Q95.5734 719.645 99.0745 716.653 Q102.544 713.661 108.496 713.661 Q114.511 713.661 117.981 716.653 Q121.45 719.613 121.45 724.674 Q121.45 729.735 117.981 732.695 Q114.48 735.623 108.496 735.623 Q102.576 735.623 99.0745 732.663 Q95.5734 729.703 95.5734 724.674 Z" fill="#000000" fill-rule="evenodd" fill-opacity="1" /><path clip-path="url(#clip150)" d="M 0 0 M94.4912 675.658 L94.4912 670.565 Q102.003 665.791 109.196 663.436 Q116.389 661.049 123.487 661.049 Q130.617 661.049 137.842 663.436 Q145.067 665.791 152.546 670.565 L152.546 675.658 Q145.258 671.425 138.064 669.356 Q130.839 667.255 123.487 667.255 Q116.135 667.255 108.973 669.356 Q101.812 671.425 94.4912 675.658 Z" fill="#000000" fill-rule="evenodd" fill-opacity="1" /><polyline clip-path="url(#clip152)" style="stroke:#ffa500; stroke-width:0.57127; stroke-opacity:1; fill:none" points="
  727.479,445.535 1624.93,1017.36 
  "/>
<polyline clip-path="url(#clip152)" style="stroke:#ffa500; stroke-width:0.310112; stroke-opacity:1; fill:none" points="
  1165.83,918.531 1177.55,866.882 
  "/>
<polyline clip-path="url(#clip152)" style="stroke:#ffa500; stroke-width:0.344254; stroke-opacity:1; fill:none" points="
  572.15,1028.61 1177.55,866.882 
  "/>
<polyline clip-path="url(#clip152)" style="stroke:#800080; stroke-width:2.41942; stroke-opacity:1; fill:none" points="
  572.15,1028.61 1627.3,677.037 
  "/>
<polyline clip-path="url(#clip152)" style="stroke:#ffa500; stroke-width:3.09601; stroke-opacity:1; fill:none" points="
  1165.83,918.531 1624.93,1017.36 
  "/>
<polyline clip-path="url(#clip152)" style="stroke:#800080; stroke-width:3.5991; stroke-opacity:1; fill:none" points="
  572.15,1028.61 1165.83,918.531 
  "/>
<polyline clip-path="url(#clip152)" style="stroke:#ffa500; stroke-width:4.58072; stroke-opacity:1; fill:none" points="
  1165.83,918.531 1627.3,677.037 
  "/>
<polyline clip-path="url(#clip152)" style="stroke:#ffa500; stroke-width:1.47784; stroke-opacity:1; fill:none" points="
  1177.55,866.882 1627.3,677.037 
  "/>
<polyline clip-path="url(#clip152)" style="stroke:#800080; stroke-width:6.48496; stroke-opacity:1; fill:none" points="
  572.15,1028.61 727.479,445.535 
  "/>
<polyline clip-path="url(#clip152)" style="stroke:#ffa500; stroke-width:0.694986; stroke-opacity:1; fill:none" points="
  1177.55,866.882 1624.93,1017.36 
  "/>
<polyline clip-path="url(#clip152)" style="stroke:#ffa500; stroke-width:8; stroke-opacity:1; fill:none" points="
  1624.93,1017.36 1627.3,677.037 
  "/>
<polyline clip-path="url(#clip152)" style="stroke:#800080; stroke-width:2.90053; stroke-opacity:1; fill:none" points="
  727.479,445.535 1165.83,918.531 
  "/>
<polyline clip-path="url(#clip152)" style="stroke:#800080; stroke-width:2.12299; stroke-opacity:1; fill:none" points="
  727.479,445.535 1177.55,866.882 
  "/>
<polyline clip-path="url(#clip152)" style="stroke:#800080; stroke-width:2.00262; stroke-opacity:1; fill:none" points="
  572.15,1028.61 1624.93,1017.36 
  "/>
<polyline clip-path="url(#clip152)" style="stroke:#ffa500; stroke-width:0.179937; stroke-opacity:1; fill:none" points="
  727.479,445.535 1627.3,677.037 
  "/>
<circle clip-path="url(#clip152)" cx="1165.83" cy="918.531" r="23" fill="#000000" fill-rule="evenodd" fill-opacity="1" stroke="none"/>
<circle clip-path="url(#clip152)" cx="727.479" cy="445.535" r="26" fill="#000000" fill-rule="evenodd" fill-opacity="1" stroke="none"/>
<circle clip-path="url(#clip152)" cx="1624.93" cy="1017.36" r="23" fill="#000000" fill-rule="evenodd" fill-opacity="1" stroke="none"/>
<circle clip-path="url(#clip152)" cx="1177.55" cy="866.882" r="8" fill="#000000" fill-rule="evenodd" fill-opacity="1" stroke="none"/>
<circle clip-path="url(#clip152)" cx="1627.3" cy="677.037" r="28" fill="#000000" fill-rule="evenodd" fill-opacity="1" stroke="none"/>
<circle clip-path="url(#clip152)" cx="572.15" cy="1028.61" r="8" fill="#000000" fill-rule="evenodd" fill-opacity="1" stroke="none"/>
<path clip-path="url(#clip150)" d="M 0 0 M1138.76 910.132 L1138.76 926.929 L1142.29 926.929 Q1146.76 926.929 1148.82 924.904 Q1150.91 922.878 1150.91 918.509 Q1150.91 914.169 1148.82 912.158 Q1146.76 910.132 1142.29 910.132 L1138.76 910.132 M1135.83 907.731 L1141.84 907.731 Q1148.12 907.731 1151.05 910.349 Q1153.99 912.954 1153.99 918.509 Q1153.99 924.094 1151.04 926.712 Q1148.09 929.331 1141.84 929.331 L1135.83 929.331 L1135.83 907.731 Z" fill="#000000" fill-rule="evenodd" fill-opacity="1" /><path clip-path="url(#clip150)" d="M 0 0 M1164.15 921.186 Q1160.92 921.186 1159.68 921.923 Q1158.43 922.661 1158.43 924.441 Q1158.43 925.859 1159.36 926.698 Q1160.3 927.522 1161.9 927.522 Q1164.12 927.522 1165.45 925.96 Q1166.79 924.383 1166.79 921.779 L1166.79 921.186 L1164.15 921.186 M1169.46 920.086 L1169.46 929.331 L1166.79 929.331 L1166.79 926.871 Q1165.88 928.347 1164.52 929.056 Q1163.16 929.75 1161.19 929.75 Q1158.71 929.75 1157.23 928.361 Q1155.77 926.958 1155.77 924.614 Q1155.77 921.88 1157.59 920.491 Q1159.43 919.102 1163.06 919.102 L1166.79 919.102 L1166.79 918.842 Q1166.79 917.004 1165.58 916.006 Q1164.38 914.993 1162.19 914.993 Q1160.8 914.993 1159.49 915.326 Q1158.17 915.659 1156.96 916.324 L1156.96 913.865 Q1158.42 913.301 1159.79 913.026 Q1161.17 912.737 1162.47 912.737 Q1165.98 912.737 1167.72 914.559 Q1169.46 916.382 1169.46 920.086 Z" fill="#000000" fill-rule="evenodd" fill-opacity="1" /><path clip-path="url(#clip150)" d="M 0 0 M1174.88 908.526 L1174.88 913.127 L1180.36 913.127 L1180.36 915.196 L1174.88 915.196 L1174.88 923.992 Q1174.88 925.974 1175.42 926.539 Q1175.97 927.103 1177.63 927.103 L1180.36 927.103 L1180.36 929.331 L1177.63 929.331 Q1174.55 929.331 1173.38 928.188 Q1172.2 927.03 1172.2 923.992 L1172.2 915.196 L1170.25 915.196 L1170.25 913.127 L1172.2 913.127 L1172.2 908.526 L1174.88 908.526 Z" fill="#000000" fill-rule="evenodd" fill-opacity="1" /><path clip-path="url(#clip150)" d="M 0 0 M1190.52 921.186 Q1187.29 921.186 1186.05 921.923 Q1184.81 922.661 1184.81 924.441 Q1184.81 925.859 1185.73 926.698 Q1186.67 927.522 1188.28 927.522 Q1190.49 927.522 1191.82 925.96 Q1193.17 924.383 1193.17 921.779 L1193.17 921.186 L1190.52 921.186 M1195.83 920.086 L1195.83 929.331 L1193.17 929.331 L1193.17 926.871 Q1192.26 928.347 1190.9 929.056 Q1189.54 929.75 1187.57 929.75 Q1185.08 929.75 1183.6 928.361 Q1182.14 926.958 1182.14 924.614 Q1182.14 921.88 1183.97 920.491 Q1185.8 919.102 1189.44 919.102 L1193.17 919.102 L1193.17 918.842 Q1193.17 917.004 1191.95 916.006 Q1190.75 914.993 1188.57 914.993 Q1187.18 914.993 1185.86 915.326 Q1184.55 915.659 1183.33 916.324 L1183.33 913.865 Q1184.79 913.301 1186.17 913.026 Q1187.54 912.737 1188.84 912.737 Q1192.36 912.737 1194.09 914.559 Q1195.83 916.382 1195.83 920.086 Z" fill="#000000" fill-rule="evenodd" fill-opacity="1" /><path clip-path="url(#clip150)" d="M 0 0 M585.574 434.735 L603.847 434.735 L603.847 437.195 L596.179 437.195 L596.179 456.335 L593.242 456.335 L593.242 437.195 L585.574 437.195 L585.574 434.735 Z" fill="#000000" fill-rule="evenodd" fill-opacity="1" /><path clip-path="url(#clip150)" d="M 0 0 M615.464 447.568 L615.464 448.87 L603.225 448.87 Q603.398 451.619 604.874 453.065 Q606.364 454.498 609.012 454.498 Q610.545 454.498 611.978 454.122 Q613.424 453.745 614.842 452.993 L614.842 455.51 Q613.41 456.118 611.905 456.436 Q610.401 456.755 608.853 456.755 Q604.975 456.755 602.704 454.498 Q600.447 452.241 600.447 448.392 Q600.447 444.414 602.588 442.085 Q604.744 439.741 608.39 439.741 Q611.659 439.741 613.555 441.853 Q615.464 443.951 615.464 447.568 M612.802 446.787 Q612.773 444.602 611.573 443.3 Q610.386 441.998 608.419 441.998 Q606.191 441.998 604.845 443.257 Q603.514 444.515 603.312 446.801 L612.802 446.787 Z" fill="#000000" fill-rule="evenodd" fill-opacity="1" /><path clip-path="url(#clip150)" d="M 0 0 M629.917 440.754 L629.917 443.242 Q628.789 442.62 627.646 442.316 Q626.517 441.998 625.36 441.998 Q622.77 441.998 621.338 443.647 Q619.906 445.282 619.906 448.248 Q619.906 451.214 621.338 452.863 Q622.77 454.498 625.36 454.498 Q626.517 454.498 627.646 454.194 Q628.789 453.876 629.917 453.254 L629.917 455.713 Q628.803 456.234 627.603 456.494 Q626.416 456.755 625.071 456.755 Q621.41 456.755 619.255 454.454 Q617.099 452.154 617.099 448.248 Q617.099 444.284 619.269 442.012 Q621.454 439.741 625.244 439.741 Q626.474 439.741 627.646 440.001 Q628.818 440.247 629.917 440.754 Z" fill="#000000" fill-rule="evenodd" fill-opacity="1" /><path clip-path="url(#clip150)" d="M 0 0 M646.179 446.555 L646.179 456.335 L643.517 456.335 L643.517 446.642 Q643.517 444.342 642.62 443.199 Q641.723 442.056 639.929 442.056 Q637.773 442.056 636.529 443.43 Q635.285 444.805 635.285 447.177 L635.285 456.335 L632.608 456.335 L632.608 433.824 L635.285 433.824 L635.285 442.649 Q636.24 441.188 637.527 440.464 Q638.829 439.741 640.522 439.741 Q643.314 439.741 644.747 441.477 Q646.179 443.199 646.179 446.555 Z" fill="#000000" fill-rule="evenodd" fill-opacity="1" /><path clip-path="url(#clip150)" d="M 0 0 M662.44 446.555 L662.44 456.335 L659.778 456.335 L659.778 446.642 Q659.778 444.342 658.881 443.199 Q657.984 442.056 656.19 442.056 Q654.035 442.056 652.79 443.43 Q651.546 444.805 651.546 447.177 L651.546 456.335 L648.87 456.335 L648.87 440.132 L651.546 440.132 L651.546 442.649 Q652.501 441.188 653.789 440.464 Q655.091 439.741 656.783 439.741 Q659.576 439.741 661.008 441.477 Q662.44 443.199 662.44 446.555 Z" fill="#000000" fill-rule="evenodd" fill-opacity="1" /><path clip-path="url(#clip150)" d="M 0 0 M665.233 440.132 L667.895 440.132 L667.895 456.335 L665.233 456.335 L665.233 440.132 M665.233 433.824 L667.895 433.824 L667.895 437.195 L665.233 437.195 L665.233 433.824 Z" fill="#000000" fill-rule="evenodd" fill-opacity="1" /><path clip-path="url(#clip150)" d="M 0 0 M682.348 440.754 L682.348 443.242 Q681.219 442.62 680.076 442.316 Q678.948 441.998 677.79 441.998 Q675.201 441.998 673.768 443.647 Q672.336 445.282 672.336 448.248 Q672.336 451.214 673.768 452.863 Q675.201 454.498 677.79 454.498 Q678.948 454.498 680.076 454.194 Q681.219 453.876 682.348 453.254 L682.348 455.713 Q681.234 456.234 680.033 456.494 Q678.846 456.755 677.501 456.755 Q673.841 456.755 671.685 454.454 Q669.529 452.154 669.529 448.248 Q669.529 444.284 671.7 442.012 Q673.884 439.741 677.675 439.741 Q678.904 439.741 680.076 440.001 Q681.248 440.247 682.348 440.754 Z" fill="#000000" fill-rule="evenodd" fill-opacity="1" /><path clip-path="url(#clip150)" d="M 0 0 M692.504 448.19 Q689.278 448.19 688.033 448.928 Q686.789 449.666 686.789 451.445 Q686.789 452.863 687.715 453.702 Q688.655 454.527 690.261 454.527 Q692.475 454.527 693.806 452.964 Q695.151 451.387 695.151 448.783 L695.151 448.19 L692.504 448.19 M697.813 447.09 L697.813 456.335 L695.151 456.335 L695.151 453.876 Q694.24 455.351 692.88 456.06 Q691.52 456.755 689.552 456.755 Q687.064 456.755 685.588 455.366 Q684.127 453.962 684.127 451.619 Q684.127 448.884 685.95 447.495 Q687.787 446.107 691.419 446.107 L695.151 446.107 L695.151 445.846 Q695.151 444.009 693.936 443.011 Q692.735 441.998 690.551 441.998 Q689.162 441.998 687.845 442.331 Q686.529 442.663 685.313 443.329 L685.313 440.869 Q686.775 440.305 688.149 440.03 Q689.523 439.741 690.826 439.741 Q694.341 439.741 696.077 441.564 Q697.813 443.387 697.813 447.09 Z" fill="#000000" fill-rule="evenodd" fill-opacity="1" /><path clip-path="url(#clip150)" d="M 0 0 M700.606 433.824 L703.268 433.824 L703.268 456.335 L700.606 456.335 L700.606 433.824 Z" fill="#000000" fill-rule="evenodd" fill-opacity="1" /><path clip-path="url(#clip150)" d="M 0 0 M718.372 461.254 L718.372 463.323 L702.978 463.323 L702.978 461.254 L718.372 461.254 Z" fill="#000000" fill-rule="evenodd" fill-opacity="1" /><path clip-path="url(#clip150)" d="M 0 0 M737.454 436.399 L737.454 439.48 Q735.979 438.106 734.3 437.426 Q732.637 436.746 730.756 436.746 Q727.052 436.746 725.085 439.018 Q723.117 441.274 723.117 445.557 Q723.117 449.825 725.085 452.096 Q727.052 454.353 730.756 454.353 Q732.637 454.353 734.3 453.673 Q735.979 452.993 737.454 451.619 L737.454 454.671 Q735.921 455.713 734.199 456.234 Q732.492 456.755 730.582 456.755 Q725.678 456.755 722.857 453.76 Q720.035 450.751 720.035 445.557 Q720.035 440.349 722.857 437.354 Q725.678 434.345 730.582 434.345 Q732.521 434.345 734.228 434.865 Q735.95 435.372 737.454 436.399 Z" fill="#000000" fill-rule="evenodd" fill-opacity="1" /><path clip-path="url(#clip150)" d="M 0 0 M746.525 441.998 Q744.384 441.998 743.14 443.676 Q741.896 445.34 741.896 448.248 Q741.896 451.156 743.126 452.834 Q744.37 454.498 746.525 454.498 Q748.652 454.498 749.896 452.82 Q751.141 451.141 751.141 448.248 Q751.141 445.369 749.896 443.691 Q748.652 441.998 746.525 441.998 M746.525 439.741 Q749.998 439.741 751.98 441.998 Q753.962 444.255 753.962 448.248 Q753.962 452.226 751.98 454.498 Q749.998 456.755 746.525 456.755 Q743.039 456.755 741.057 454.498 Q739.089 452.226 739.089 448.248 Q739.089 444.255 741.057 441.998 Q743.039 439.741 746.525 439.741 Z" fill="#000000" fill-rule="evenodd" fill-opacity="1" /><path clip-path="url(#clip150)" d="M 0 0 M770.223 446.555 L770.223 456.335 L767.561 456.335 L767.561 446.642 Q767.561 444.342 766.664 443.199 Q765.767 442.056 763.973 442.056 Q761.818 442.056 760.573 443.43 Q759.329 444.805 759.329 447.177 L759.329 456.335 L756.653 456.335 L756.653 440.132 L759.329 440.132 L759.329 442.649 Q760.284 441.188 761.572 440.464 Q762.874 439.741 764.566 439.741 Q767.359 439.741 768.791 441.477 Q770.223 443.199 770.223 446.555 Z" fill="#000000" fill-rule="evenodd" fill-opacity="1" /><path clip-path="url(#clip150)" d="M 0 0 M783.345 440.609 L783.345 443.126 Q782.217 442.548 781.002 442.258 Q779.786 441.969 778.484 441.969 Q776.502 441.969 775.504 442.577 Q774.52 443.184 774.52 444.399 Q774.52 445.325 775.229 445.861 Q775.938 446.381 778.079 446.859 L778.991 447.061 Q781.826 447.669 783.013 448.783 Q784.213 449.883 784.213 451.865 Q784.213 454.122 782.419 455.438 Q780.64 456.755 777.515 456.755 Q776.213 456.755 774.795 456.494 Q773.392 456.248 771.829 455.742 L771.829 452.993 Q773.305 453.76 774.737 454.151 Q776.169 454.527 777.573 454.527 Q779.454 454.527 780.466 453.89 Q781.479 453.239 781.479 452.067 Q781.479 450.982 780.741 450.403 Q780.018 449.825 777.544 449.289 L776.618 449.072 Q774.144 448.552 773.044 447.481 Q771.945 446.396 771.945 444.515 Q771.945 442.229 773.565 440.985 Q775.186 439.741 778.166 439.741 Q779.642 439.741 780.944 439.958 Q782.246 440.175 783.345 440.609 Z" fill="#000000" fill-rule="evenodd" fill-opacity="1" /><path clip-path="url(#clip150)" d="M 0 0 M789.639 435.531 L789.639 440.132 L795.122 440.132 L795.122 442.2 L789.639 442.2 L789.639 450.997 Q789.639 452.979 790.174 453.543 Q790.724 454.107 792.388 454.107 L795.122 454.107 L795.122 456.335 L792.388 456.335 Q789.306 456.335 788.134 455.192 Q786.962 454.035 786.962 450.997 L786.962 442.2 L785.009 442.2 L785.009 440.132 L786.962 440.132 L786.962 435.531 L789.639 435.531 Z" fill="#000000" fill-rule="evenodd" fill-opacity="1" /><path clip-path="url(#clip150)" d="M 0 0 M807.304 442.62 Q806.855 442.36 806.32 442.244 Q805.799 442.114 805.162 442.114 Q802.905 442.114 801.69 443.589 Q800.489 445.05 800.489 447.799 L800.489 456.335 L797.813 456.335 L797.813 440.132 L800.489 440.132 L800.489 442.649 Q801.328 441.173 802.674 440.464 Q804.019 439.741 805.944 439.741 Q806.218 439.741 806.551 439.784 Q806.884 439.813 807.289 439.886 L807.304 442.62 Z" fill="#000000" fill-rule="evenodd" fill-opacity="1" /><path clip-path="url(#clip150)" d="M 0 0 M817.46 448.19 Q814.233 448.19 812.989 448.928 Q811.745 449.666 811.745 451.445 Q811.745 452.863 812.671 453.702 Q813.611 454.527 815.217 454.527 Q817.431 454.527 818.762 452.964 Q820.107 451.387 820.107 448.783 L820.107 448.19 L817.46 448.19 M822.769 447.09 L822.769 456.335 L820.107 456.335 L820.107 453.876 Q819.196 455.351 817.836 456.06 Q816.476 456.755 814.508 456.755 Q812.02 456.755 810.544 455.366 Q809.083 453.962 809.083 451.619 Q809.083 448.884 810.906 447.495 Q812.743 446.107 816.375 446.107 L820.107 446.107 L820.107 445.846 Q820.107 444.009 818.892 443.011 Q817.691 441.998 815.507 441.998 Q814.118 441.998 812.801 442.331 Q811.485 442.663 810.269 443.329 L810.269 440.869 Q811.731 440.305 813.105 440.03 Q814.479 439.741 815.781 439.741 Q819.297 439.741 821.033 441.564 Q822.769 443.387 822.769 447.09 Z" fill="#000000" fill-rule="evenodd" fill-opacity="1" /><path clip-path="url(#clip150)" d="M 0 0 M825.562 440.132 L828.224 440.132 L828.224 456.335 L825.562 456.335 L825.562 440.132 M825.562 433.824 L828.224 433.824 L828.224 437.195 L825.562 437.195 L825.562 433.824 Z" fill="#000000" fill-rule="evenodd" fill-opacity="1" /><path clip-path="url(#clip150)" d="M 0 0 M844.485 446.555 L844.485 456.335 L841.823 456.335 L841.823 446.642 Q841.823 444.342 840.926 443.199 Q840.029 442.056 838.235 442.056 Q836.079 442.056 834.835 443.43 Q833.591 444.805 833.591 447.177 L833.591 456.335 L830.915 456.335 L830.915 440.132 L833.591 440.132 L833.591 442.649 Q834.546 441.188 835.833 440.464 Q837.136 439.741 838.828 439.741 Q841.62 439.741 843.053 441.477 Q844.485 443.199 844.485 446.555 Z" fill="#000000" fill-rule="evenodd" fill-opacity="1" /><path clip-path="url(#clip150)" d="M 0 0 M849.91 435.531 L849.91 440.132 L855.394 440.132 L855.394 442.2 L849.91 442.2 L849.91 450.997 Q849.91 452.979 850.446 453.543 Q850.995 454.107 852.659 454.107 L855.394 454.107 L855.394 456.335 L852.659 456.335 Q849.578 456.335 848.406 455.192 Q847.234 454.035 847.234 450.997 L847.234 442.2 L845.281 442.2 L845.281 440.132 L847.234 440.132 L847.234 435.531 L849.91 435.531 Z" fill="#000000" fill-rule="evenodd" fill-opacity="1" /><path clip-path="url(#clip150)" d="M 0 0 M868.516 440.609 L868.516 443.126 Q867.387 442.548 866.172 442.258 Q864.957 441.969 863.654 441.969 Q861.672 441.969 860.674 442.577 Q859.69 443.184 859.69 444.399 Q859.69 445.325 860.399 445.861 Q861.108 446.381 863.249 446.859 L864.161 447.061 Q866.996 447.669 868.183 448.783 Q869.384 449.883 869.384 451.865 Q869.384 454.122 867.59 455.438 Q865.81 456.755 862.685 456.755 Q861.383 456.755 859.965 456.494 Q858.562 456.248 856.999 455.742 L856.999 452.993 Q858.475 453.76 859.907 454.151 Q861.34 454.527 862.743 454.527 Q864.624 454.527 865.637 453.89 Q866.649 453.239 866.649 452.067 Q866.649 450.982 865.911 450.403 Q865.188 449.825 862.714 449.289 L861.788 449.072 Q859.314 448.552 858.215 447.481 Q857.115 446.396 857.115 444.515 Q857.115 442.229 858.736 440.985 Q860.356 439.741 863.336 439.741 Q864.812 439.741 866.114 439.958 Q867.416 440.175 868.516 440.609 Z" fill="#000000" fill-rule="evenodd" fill-opacity="1" /><path clip-path="url(#clip150)" d="M 0 0 M1457.58 1008.96 L1457.58 1017.07 L1461.26 1017.07 Q1463.3 1017.07 1464.41 1016.02 Q1465.53 1014.96 1465.53 1013.01 Q1465.53 1011.07 1464.41 1010.01 Q1463.3 1008.96 1461.26 1008.96 L1457.58 1008.96 M1454.66 1006.56 L1461.26 1006.56 Q1464.89 1006.56 1466.74 1008.2 Q1468.61 1009.84 1468.61 1013.01 Q1468.61 1016.21 1466.74 1017.84 Q1464.89 1019.48 1461.26 1019.48 L1457.58 1019.48 L1457.58 1028.16 L1454.66 1028.16 L1454.66 1006.56 Z" fill="#000000" fill-rule="evenodd" fill-opacity="1" /><path clip-path="url(#clip150)" d="M 0 0 M1484.2 1019.39 L1484.2 1020.69 L1471.96 1020.69 Q1472.14 1023.44 1473.61 1024.89 Q1475.1 1026.32 1477.75 1026.32 Q1479.29 1026.32 1480.72 1025.94 Q1482.16 1025.57 1483.58 1024.81 L1483.58 1027.33 Q1482.15 1027.94 1480.65 1028.26 Q1479.14 1028.58 1477.59 1028.58 Q1473.72 1028.58 1471.44 1026.32 Q1469.19 1024.06 1469.19 1020.21 Q1469.19 1016.23 1471.33 1013.91 Q1473.48 1011.56 1477.13 1011.56 Q1480.4 1011.56 1482.29 1013.67 Q1484.2 1015.77 1484.2 1019.39 M1481.54 1018.61 Q1481.51 1016.42 1480.31 1015.12 Q1479.13 1013.82 1477.16 1013.82 Q1474.93 1013.82 1473.59 1015.08 Q1472.25 1016.34 1472.05 1018.62 L1481.54 1018.61 Z" fill="#000000" fill-rule="evenodd" fill-opacity="1" /><path clip-path="url(#clip150)" d="M 0 0 M1496.39 1014.44 Q1495.94 1014.18 1495.4 1014.06 Q1494.88 1013.93 1494.24 1013.93 Q1491.99 1013.93 1490.77 1015.41 Q1489.57 1016.87 1489.57 1019.62 L1489.57 1028.16 L1486.9 1028.16 L1486.9 1011.95 L1489.57 1011.95 L1489.57 1014.47 Q1490.41 1012.99 1491.76 1012.28 Q1493.1 1011.56 1495.03 1011.56 Q1495.3 1011.56 1495.63 1011.6 Q1495.97 1011.63 1496.37 1011.71 L1496.39 1014.44 Z" fill="#000000" fill-rule="evenodd" fill-opacity="1" /><path clip-path="url(#clip150)" d="M 0 0 M1507.38 1005.64 L1507.38 1007.86 L1504.83 1007.86 Q1503.4 1007.86 1502.84 1008.44 Q1502.29 1009.02 1502.29 1010.52 L1502.29 1011.95 L1506.67 1011.95 L1506.67 1014.02 L1502.29 1014.02 L1502.29 1028.16 L1499.61 1028.16 L1499.61 1014.02 L1497.07 1014.02 L1497.07 1011.95 L1499.61 1011.95 L1499.61 1010.82 Q1499.61 1008.12 1500.87 1006.89 Q1502.13 1005.64 1504.86 1005.64 L1507.38 1005.64 Z" fill="#000000" fill-rule="evenodd" fill-opacity="1" /><path clip-path="url(#clip150)" d="M 0 0 M1516.45 1013.82 Q1514.31 1013.82 1513.07 1015.5 Q1511.82 1017.16 1511.82 1020.07 Q1511.82 1022.98 1513.05 1024.65 Q1514.3 1026.32 1516.45 1026.32 Q1518.58 1026.32 1519.82 1024.64 Q1521.07 1022.96 1521.07 1020.07 Q1521.07 1017.19 1519.82 1015.51 Q1518.58 1013.82 1516.45 1013.82 M1516.45 1011.56 Q1519.92 1011.56 1521.91 1013.82 Q1523.89 1016.08 1523.89 1020.07 Q1523.89 1024.05 1521.91 1026.32 Q1519.92 1028.58 1516.45 1028.58 Q1512.97 1028.58 1510.98 1026.32 Q1509.02 1024.05 1509.02 1020.07 Q1509.02 1016.08 1510.98 1013.82 Q1512.97 1011.56 1516.45 1011.56 Z" fill="#000000" fill-rule="evenodd" fill-opacity="1" /><path clip-path="url(#clip150)" d="M 0 0 M1536.07 1014.44 Q1535.62 1014.18 1535.09 1014.06 Q1534.57 1013.93 1533.93 1013.93 Q1531.67 1013.93 1530.46 1015.41 Q1529.26 1016.87 1529.26 1019.62 L1529.26 1028.16 L1526.58 1028.16 L1526.58 1011.95 L1529.26 1011.95 L1529.26 1014.47 Q1530.1 1012.99 1531.44 1012.28 Q1532.79 1011.56 1534.71 1011.56 Q1534.99 1011.56 1535.32 1011.6 Q1535.65 1011.63 1536.06 1011.71 L1536.07 1014.44 Z" fill="#000000" fill-rule="evenodd" fill-opacity="1" /><path clip-path="url(#clip150)" d="M 0 0 M1550.96 1015.06 Q1551.96 1013.27 1553.34 1012.41 Q1554.73 1011.56 1556.61 1011.56 Q1559.15 1011.56 1560.52 1013.34 Q1561.89 1015.11 1561.89 1018.38 L1561.89 1028.16 L1559.22 1028.16 L1559.22 1018.46 Q1559.22 1016.13 1558.39 1015 Q1557.57 1013.88 1555.88 1013.88 Q1553.81 1013.88 1552.61 1015.25 Q1551.41 1016.63 1551.41 1019 L1551.41 1028.16 L1548.73 1028.16 L1548.73 1018.46 Q1548.73 1016.12 1547.9 1015 Q1547.08 1013.88 1545.36 1013.88 Q1543.32 1013.88 1542.12 1015.27 Q1540.92 1016.64 1540.92 1019 L1540.92 1028.16 L1538.24 1028.16 L1538.24 1011.95 L1540.92 1011.95 L1540.92 1014.47 Q1541.83 1012.98 1543.1 1012.27 Q1544.37 1011.56 1546.13 1011.56 Q1547.89 1011.56 1549.12 1012.46 Q1550.36 1013.36 1550.96 1015.06 Z" fill="#000000" fill-rule="evenodd" fill-opacity="1" /><path clip-path="url(#clip150)" d="M 0 0 M1572.05 1020.01 Q1568.82 1020.01 1567.58 1020.75 Q1566.34 1021.49 1566.34 1023.27 Q1566.34 1024.68 1567.26 1025.52 Q1568.2 1026.35 1569.81 1026.35 Q1572.02 1026.35 1573.35 1024.78 Q1574.7 1023.21 1574.7 1020.6 L1574.7 1020.01 L1572.05 1020.01 M1577.36 1018.91 L1577.36 1028.16 L1574.7 1028.16 L1574.7 1025.7 Q1573.79 1027.17 1572.43 1027.88 Q1571.07 1028.58 1569.1 1028.58 Q1566.61 1028.58 1565.14 1027.19 Q1563.67 1025.78 1563.67 1023.44 Q1563.67 1020.7 1565.5 1019.32 Q1567.33 1017.93 1570.97 1017.93 L1574.7 1017.93 L1574.7 1017.67 Q1574.7 1015.83 1573.48 1014.83 Q1572.28 1013.82 1570.1 1013.82 Q1568.71 1013.82 1567.39 1014.15 Q1566.08 1014.48 1564.86 1015.15 L1564.86 1012.69 Q1566.32 1012.13 1567.7 1011.85 Q1569.07 1011.56 1570.37 1011.56 Q1573.89 1011.56 1575.62 1013.38 Q1577.36 1015.21 1577.36 1018.91 Z" fill="#000000" fill-rule="evenodd" fill-opacity="1" /><path clip-path="url(#clip150)" d="M 0 0 M1593.62 1018.38 L1593.62 1028.16 L1590.96 1028.16 L1590.96 1018.46 Q1590.96 1016.16 1590.06 1015.02 Q1589.17 1013.88 1587.37 1013.88 Q1585.22 1013.88 1583.97 1015.25 Q1582.73 1016.63 1582.73 1019 L1582.73 1028.16 L1580.05 1028.16 L1580.05 1011.95 L1582.73 1011.95 L1582.73 1014.47 Q1583.68 1013.01 1584.97 1012.28 Q1586.27 1011.56 1587.97 1011.56 Q1590.76 1011.56 1592.19 1013.3 Q1593.62 1015.02 1593.62 1018.38 Z" fill="#000000" fill-rule="evenodd" fill-opacity="1" /><path clip-path="url(#clip150)" d="M 0 0 M1608.08 1012.57 L1608.08 1015.06 Q1606.95 1014.44 1605.8 1014.14 Q1604.68 1013.82 1603.52 1013.82 Q1600.93 1013.82 1599.5 1015.47 Q1598.06 1017.1 1598.06 1020.07 Q1598.06 1023.03 1599.5 1024.68 Q1600.93 1026.32 1603.52 1026.32 Q1604.68 1026.32 1605.8 1026.01 Q1606.95 1025.7 1608.08 1025.07 L1608.08 1027.53 Q1606.96 1028.05 1605.76 1028.31 Q1604.57 1028.58 1603.23 1028.58 Q1599.57 1028.58 1597.41 1026.27 Q1595.26 1023.97 1595.26 1020.07 Q1595.26 1016.1 1597.43 1013.83 Q1599.61 1011.56 1603.4 1011.56 Q1604.63 1011.56 1605.8 1011.82 Q1606.98 1012.07 1608.08 1012.57 Z" fill="#000000" fill-rule="evenodd" fill-opacity="1" /><path clip-path="url(#clip150)" d="M 0 0 M1624.73 1019.39 L1624.73 1020.69 L1612.49 1020.69 Q1612.66 1023.44 1614.14 1024.89 Q1615.63 1026.32 1618.27 1026.32 Q1619.81 1026.32 1621.24 1025.94 Q1622.69 1025.57 1624.11 1024.81 L1624.11 1027.33 Q1622.67 1027.94 1621.17 1028.26 Q1619.66 1028.58 1618.12 1028.58 Q1614.24 1028.58 1611.97 1026.32 Q1609.71 1024.06 1609.71 1020.21 Q1609.71 1016.23 1611.85 1013.91 Q1614.01 1011.56 1617.65 1011.56 Q1620.92 1011.56 1622.82 1013.67 Q1624.73 1015.77 1624.73 1019.39 M1622.07 1018.61 Q1622.04 1016.42 1620.84 1015.12 Q1619.65 1013.82 1617.68 1013.82 Q1615.45 1013.82 1614.11 1015.08 Q1612.78 1016.34 1612.57 1018.62 L1622.07 1018.61 Z" fill="#000000" fill-rule="evenodd" fill-opacity="1" /><path clip-path="url(#clip150)" d="M 0 0 M1639.83 1033.07 L1639.83 1035.14 L1624.44 1035.14 L1624.44 1033.07 L1639.83 1033.07 Z" fill="#000000" fill-rule="evenodd" fill-opacity="1" /><path clip-path="url(#clip150)" d="M 0 0 M1645.66 1008.96 L1645.66 1017.07 L1649.34 1017.07 Q1651.38 1017.07 1652.49 1016.02 Q1653.6 1014.96 1653.6 1013.01 Q1653.6 1011.07 1652.49 1010.01 Q1651.38 1008.96 1649.34 1008.96 L1645.66 1008.96 M1642.74 1006.56 L1649.34 1006.56 Q1652.97 1006.56 1654.82 1008.2 Q1656.69 1009.84 1656.69 1013.01 Q1656.69 1016.21 1654.82 1017.84 Q1652.97 1019.48 1649.34 1019.48 L1645.66 1019.48 L1645.66 1028.16 L1642.74 1028.16 L1642.74 1006.56 Z" fill="#000000" fill-rule="evenodd" fill-opacity="1" /><path clip-path="url(#clip150)" d="M 0 0 M1665.51 1020.01 Q1662.28 1020.01 1661.04 1020.75 Q1659.8 1021.49 1659.8 1023.27 Q1659.8 1024.68 1660.72 1025.52 Q1661.66 1026.35 1663.27 1026.35 Q1665.48 1026.35 1666.81 1024.78 Q1668.16 1023.21 1668.16 1020.6 L1668.16 1020.01 L1665.51 1020.01 M1670.82 1018.91 L1670.82 1028.16 L1668.16 1028.16 L1668.16 1025.7 Q1667.25 1027.17 1665.89 1027.88 Q1664.53 1028.58 1662.56 1028.58 Q1660.07 1028.58 1658.6 1027.19 Q1657.13 1025.78 1657.13 1023.44 Q1657.13 1020.7 1658.96 1019.32 Q1660.79 1017.93 1664.43 1017.93 L1668.16 1017.93 L1668.16 1017.67 Q1668.16 1015.83 1666.94 1014.83 Q1665.74 1013.82 1663.56 1013.82 Q1662.17 1013.82 1660.85 1014.15 Q1659.54 1014.48 1658.32 1015.15 L1658.32 1012.69 Q1659.78 1012.13 1661.16 1011.85 Q1662.53 1011.56 1663.83 1011.56 Q1667.35 1011.56 1669.08 1013.38 Q1670.82 1015.21 1670.82 1018.91 Z" fill="#000000" fill-rule="evenodd" fill-opacity="1" /><path clip-path="url(#clip150)" d="M 0 0 M1683 1014.44 Q1682.55 1014.18 1682.02 1014.06 Q1681.5 1013.93 1680.86 1013.93 Q1678.6 1013.93 1677.39 1015.41 Q1676.19 1016.87 1676.19 1019.62 L1676.19 1028.16 L1673.51 1028.16 L1673.51 1011.95 L1676.19 1011.95 L1676.19 1014.47 Q1677.03 1012.99 1678.37 1012.28 Q1679.72 1011.56 1681.64 1011.56 Q1681.92 1011.56 1682.25 1011.6 Q1682.58 1011.63 1682.99 1011.71 L1683 1014.44 Z" fill="#000000" fill-rule="evenodd" fill-opacity="1" /><path clip-path="url(#clip150)" d="M 0 0 M1693.16 1020.01 Q1689.93 1020.01 1688.69 1020.75 Q1687.44 1021.49 1687.44 1023.27 Q1687.44 1024.68 1688.37 1025.52 Q1689.31 1026.35 1690.92 1026.35 Q1693.13 1026.35 1694.46 1024.78 Q1695.81 1023.21 1695.81 1020.6 L1695.81 1020.01 L1693.16 1020.01 M1698.47 1018.91 L1698.47 1028.16 L1695.81 1028.16 L1695.81 1025.7 Q1694.89 1027.17 1693.53 1027.88 Q1692.17 1028.58 1690.21 1028.58 Q1687.72 1028.58 1686.24 1027.19 Q1684.78 1025.78 1684.78 1023.44 Q1684.78 1020.7 1686.6 1019.32 Q1688.44 1017.93 1692.07 1017.93 L1695.81 1017.93 L1695.81 1017.67 Q1695.81 1015.83 1694.59 1014.83 Q1693.39 1013.82 1691.21 1013.82 Q1689.82 1013.82 1688.5 1014.15 Q1687.18 1014.48 1685.97 1015.15 L1685.97 1012.69 Q1687.43 1012.13 1688.8 1011.85 Q1690.18 1011.56 1691.48 1011.56 Q1695 1011.56 1696.73 1013.38 Q1698.47 1015.21 1698.47 1018.91 Z" fill="#000000" fill-rule="evenodd" fill-opacity="1" /><path clip-path="url(#clip150)" d="M 0 0 M1713.88 1015.06 Q1714.87 1013.27 1716.26 1012.41 Q1717.65 1011.56 1719.53 1011.56 Q1722.06 1011.56 1723.44 1013.34 Q1724.81 1015.11 1724.81 1018.38 L1724.81 1028.16 L1722.14 1028.16 L1722.14 1018.46 Q1722.14 1016.13 1721.31 1015 Q1720.49 1013.88 1718.8 1013.88 Q1716.73 1013.88 1715.53 1015.25 Q1714.32 1016.63 1714.32 1019 L1714.32 1028.16 L1711.65 1028.16 L1711.65 1018.46 Q1711.65 1016.12 1710.82 1015 Q1710 1013.88 1708.28 1013.88 Q1706.24 1013.88 1705.04 1015.27 Q1703.84 1016.64 1703.84 1019 L1703.84 1028.16 L1701.16 1028.16 L1701.16 1011.95 L1703.84 1011.95 L1703.84 1014.47 Q1704.75 1012.98 1706.02 1012.27 Q1707.29 1011.56 1709.04 1011.56 Q1710.81 1011.56 1712.04 1012.46 Q1713.28 1013.36 1713.88 1015.06 Z" fill="#000000" fill-rule="evenodd" fill-opacity="1" /><path clip-path="url(#clip150)" d="M 0 0 M1741.47 1019.39 L1741.47 1020.69 L1729.23 1020.69 Q1729.4 1023.44 1730.88 1024.89 Q1732.37 1026.32 1735.01 1026.32 Q1736.55 1026.32 1737.98 1025.94 Q1739.43 1025.57 1740.84 1024.81 L1740.84 1027.33 Q1739.41 1027.94 1737.91 1028.26 Q1736.4 1028.58 1734.85 1028.58 Q1730.98 1028.58 1728.71 1026.32 Q1726.45 1024.06 1726.45 1020.21 Q1726.45 1016.23 1728.59 1013.91 Q1730.75 1011.56 1734.39 1011.56 Q1737.66 1011.56 1739.56 1013.67 Q1741.47 1015.77 1741.47 1019.39 M1738.8 1018.61 Q1738.77 1016.42 1737.57 1015.12 Q1736.39 1013.82 1734.42 1013.82 Q1732.19 1013.82 1730.85 1015.08 Q1729.52 1016.34 1729.31 1018.62 L1738.8 1018.61 Z" fill="#000000" fill-rule="evenodd" fill-opacity="1" /><path clip-path="url(#clip150)" d="M 0 0 M1746.89 1007.35 L1746.89 1011.95 L1752.37 1011.95 L1752.37 1014.02 L1746.89 1014.02 L1746.89 1022.82 Q1746.89 1024.8 1747.43 1025.36 Q1747.98 1025.93 1749.64 1025.93 L1752.37 1025.93 L1752.37 1028.16 L1749.64 1028.16 Q1746.56 1028.16 1745.39 1027.01 Q1744.21 1025.86 1744.21 1022.82 L1744.21 1014.02 L1742.26 1014.02 L1742.26 1011.95 L1744.21 1011.95 L1744.21 1007.35 L1746.89 1007.35 Z" fill="#000000" fill-rule="evenodd" fill-opacity="1" /><path clip-path="url(#clip150)" d="M 0 0 M1769.03 1019.39 L1769.03 1020.69 L1756.79 1020.69 Q1756.96 1023.44 1758.44 1024.89 Q1759.93 1026.32 1762.57 1026.32 Q1764.11 1026.32 1765.54 1025.94 Q1766.99 1025.57 1768.4 1024.81 L1768.4 1027.33 Q1766.97 1027.94 1765.47 1028.26 Q1763.96 1028.58 1762.41 1028.58 Q1758.54 1028.58 1756.27 1026.32 Q1754.01 1024.06 1754.01 1020.21 Q1754.01 1016.23 1756.15 1013.91 Q1758.31 1011.56 1761.95 1011.56 Q1765.22 1011.56 1767.12 1013.67 Q1769.03 1015.77 1769.03 1019.39 M1766.36 1018.61 Q1766.34 1016.42 1765.13 1015.12 Q1763.95 1013.82 1761.98 1013.82 Q1759.75 1013.82 1758.41 1015.08 Q1757.08 1016.34 1756.87 1018.62 L1766.36 1018.61 Z" fill="#000000" fill-rule="evenodd" fill-opacity="1" /><path clip-path="url(#clip150)" d="M 0 0 M1781.21 1014.44 Q1780.76 1014.18 1780.22 1014.06 Q1779.7 1013.93 1779.07 1013.93 Q1776.81 1013.93 1775.59 1015.41 Q1774.39 1016.87 1774.39 1019.62 L1774.39 1028.16 L1771.72 1028.16 L1771.72 1011.95 L1774.39 1011.95 L1774.39 1014.47 Q1775.23 1012.99 1776.58 1012.28 Q1777.92 1011.56 1779.85 1011.56 Q1780.12 1011.56 1780.46 1011.6 Q1780.79 1011.63 1781.19 1011.71 L1781.21 1014.44 Z" fill="#000000" fill-rule="evenodd" fill-opacity="1" /><path clip-path="url(#clip150)" d="M 0 0 M1794.33 1012.43 L1794.33 1014.95 Q1793.2 1014.37 1791.99 1014.08 Q1790.77 1013.79 1789.47 1013.79 Q1787.49 1013.79 1786.49 1014.4 Q1785.5 1015 1785.5 1016.22 Q1785.5 1017.15 1786.21 1017.68 Q1786.92 1018.2 1789.06 1018.68 L1789.98 1018.88 Q1792.81 1019.49 1794 1020.6 Q1795.2 1021.7 1795.2 1023.69 Q1795.2 1025.94 1793.4 1027.26 Q1791.62 1028.58 1788.5 1028.58 Q1787.2 1028.58 1785.78 1028.31 Q1784.38 1028.07 1782.81 1027.56 L1782.81 1024.81 Q1784.29 1025.58 1785.72 1025.97 Q1787.15 1026.35 1788.56 1026.35 Q1790.44 1026.35 1791.45 1025.71 Q1792.46 1025.06 1792.46 1023.89 Q1792.46 1022.8 1791.73 1022.22 Q1791 1021.65 1788.53 1021.11 L1787.6 1020.89 Q1785.13 1020.37 1784.03 1019.3 Q1782.93 1018.22 1782.93 1016.34 Q1782.93 1014.05 1784.55 1012.81 Q1786.17 1011.56 1789.15 1011.56 Q1790.63 1011.56 1791.93 1011.78 Q1793.23 1012 1794.33 1012.43 Z" fill="#000000" fill-rule="evenodd" fill-opacity="1" /><path clip-path="url(#clip150)" d="M 0 0 M980.456 857.746 L980.456 860.827 Q978.98 859.453 977.302 858.773 Q975.638 858.093 973.757 858.093 Q970.054 858.093 968.086 860.364 Q966.118 862.621 966.118 866.904 Q966.118 871.172 968.086 873.443 Q970.054 875.7 973.757 875.7 Q975.638 875.7 977.302 875.02 Q978.98 874.34 980.456 872.966 L980.456 876.018 Q978.922 877.06 977.201 877.581 Q975.493 878.101 973.584 878.101 Q968.679 878.101 965.858 875.107 Q963.037 872.097 963.037 866.904 Q963.037 861.695 965.858 858.701 Q968.679 855.691 973.584 855.691 Q975.522 855.691 977.23 856.212 Q978.951 856.718 980.456 857.746 Z" fill="#000000" fill-rule="evenodd" fill-opacity="1" /><path clip-path="url(#clip150)" d="M 0 0 M983.248 855.17 L985.91 855.17 L985.91 877.682 L983.248 877.682 L983.248 855.17 Z" fill="#000000" fill-rule="evenodd" fill-opacity="1" /><path clip-path="url(#clip150)" d="M 0 0 M988.702 861.478 L991.364 861.478 L991.364 877.682 L988.702 877.682 L988.702 861.478 M988.702 855.17 L991.364 855.17 L991.364 858.541 L988.702 858.541 L988.702 855.17 Z" fill="#000000" fill-rule="evenodd" fill-opacity="1" /><path clip-path="url(#clip150)" d="M 0 0 M1008.02 868.915 L1008.02 870.217 L995.777 870.217 Q995.951 872.966 997.426 874.412 Q998.916 875.845 1001.56 875.845 Q1003.1 875.845 1004.53 875.468 Q1005.98 875.092 1007.39 874.34 L1007.39 876.857 Q1005.96 877.465 1004.46 877.783 Q1002.95 878.101 1001.4 878.101 Q997.527 878.101 995.256 875.845 Q992.999 873.588 992.999 869.739 Q992.999 865.761 995.14 863.431 Q997.296 861.088 1000.94 861.088 Q1004.21 861.088 1006.11 863.2 Q1008.02 865.298 1008.02 868.915 M1005.35 868.133 Q1005.33 865.949 1004.12 864.647 Q1002.94 863.345 1000.97 863.345 Q998.743 863.345 997.397 864.603 Q996.066 865.862 995.864 868.148 L1005.35 868.133 Z" fill="#000000" fill-rule="evenodd" fill-opacity="1" /><path clip-path="url(#clip150)" d="M 0 0 M1024.28 867.902 L1024.28 877.682 L1021.62 877.682 L1021.62 867.989 Q1021.62 865.688 1020.72 864.545 Q1019.82 863.402 1018.03 863.402 Q1015.87 863.402 1014.63 864.777 Q1013.38 866.151 1013.38 868.524 L1013.38 877.682 L1010.71 877.682 L1010.71 861.478 L1013.38 861.478 L1013.38 863.996 Q1014.34 862.534 1015.63 861.811 Q1016.93 861.088 1018.62 861.088 Q1021.41 861.088 1022.85 862.824 Q1024.28 864.545 1024.28 867.902 Z" fill="#000000" fill-rule="evenodd" fill-opacity="1" /><path clip-path="url(#clip150)" d="M 0 0 M1029.7 856.878 L1029.7 861.478 L1035.19 861.478 L1035.19 863.547 L1029.7 863.547 L1029.7 872.343 Q1029.7 874.325 1030.24 874.89 Q1030.79 875.454 1032.45 875.454 L1035.19 875.454 L1035.19 877.682 L1032.45 877.682 Q1029.37 877.682 1028.2 876.539 Q1027.03 875.382 1027.03 872.343 L1027.03 863.547 L1025.07 863.547 L1025.07 861.478 L1027.03 861.478 L1027.03 856.878 L1029.7 856.878 Z" fill="#000000" fill-rule="evenodd" fill-opacity="1" /><path clip-path="url(#clip150)" d="M 0 0 M1050.29 882.601 L1050.29 884.67 L1034.9 884.67 L1034.9 882.601 L1050.29 882.601 Z" fill="#000000" fill-rule="evenodd" fill-opacity="1" /><path clip-path="url(#clip150)" d="M 0 0 M1060.45 869.537 Q1057.22 869.537 1055.98 870.275 Q1054.73 871.012 1054.73 872.792 Q1054.73 874.21 1055.66 875.049 Q1056.6 875.873 1058.2 875.873 Q1060.42 875.873 1061.75 874.311 Q1063.09 872.734 1063.09 870.13 L1063.09 869.537 L1060.45 869.537 M1065.76 868.437 L1065.76 877.682 L1063.09 877.682 L1063.09 875.222 Q1062.18 876.698 1060.82 877.407 Q1059.46 878.101 1057.5 878.101 Q1055.01 878.101 1053.53 876.713 Q1052.07 875.309 1052.07 872.966 Q1052.07 870.231 1053.89 868.842 Q1055.73 867.453 1059.36 867.453 L1063.09 867.453 L1063.09 867.193 Q1063.09 865.356 1061.88 864.357 Q1060.68 863.345 1058.49 863.345 Q1057.1 863.345 1055.79 863.677 Q1054.47 864.01 1053.26 864.676 L1053.26 862.216 Q1054.72 861.652 1056.09 861.377 Q1057.47 861.088 1058.77 861.088 Q1062.28 861.088 1064.02 862.911 Q1065.76 864.734 1065.76 868.437 Z" fill="#000000" fill-rule="evenodd" fill-opacity="1" /><path clip-path="url(#clip150)" d="M 0 0 M1082.02 867.902 L1082.02 877.682 L1079.36 877.682 L1079.36 867.989 Q1079.36 865.688 1078.46 864.545 Q1077.56 863.402 1075.77 863.402 Q1073.61 863.402 1072.37 864.777 Q1071.12 866.151 1071.12 868.524 L1071.12 877.682 L1068.45 877.682 L1068.45 861.478 L1071.12 861.478 L1071.12 863.996 Q1072.08 862.534 1073.37 861.811 Q1074.67 861.088 1076.36 861.088 Q1079.15 861.088 1080.59 862.824 Q1082.02 864.545 1082.02 867.902 Z" fill="#000000" fill-rule="evenodd" fill-opacity="1" /><path clip-path="url(#clip150)" d="M 0 0 M1095.47 863.938 L1095.47 855.17 L1098.13 855.17 L1098.13 877.682 L1095.47 877.682 L1095.47 875.251 Q1094.63 876.698 1093.35 877.407 Q1092.07 878.101 1090.28 878.101 Q1087.34 878.101 1085.49 875.758 Q1083.65 873.414 1083.65 869.595 Q1083.65 865.775 1085.49 863.431 Q1087.34 861.088 1090.28 861.088 Q1092.07 861.088 1093.35 861.797 Q1094.63 862.491 1095.47 863.938 M1086.4 869.595 Q1086.4 872.531 1087.6 874.21 Q1088.82 875.873 1090.93 875.873 Q1093.04 875.873 1094.26 874.21 Q1095.47 872.531 1095.47 869.595 Q1095.47 866.658 1094.26 864.994 Q1093.04 863.316 1090.93 863.316 Q1088.82 863.316 1087.6 864.994 Q1086.4 866.658 1086.4 869.595 Z" fill="#000000" fill-rule="evenodd" fill-opacity="1" /><path clip-path="url(#clip150)" d="M 0 0 M1113.24 882.601 L1113.24 884.67 L1097.85 884.67 L1097.85 882.601 L1113.24 882.601 Z" fill="#000000" fill-rule="evenodd" fill-opacity="1" /><path clip-path="url(#clip150)" d="M 0 0 M1132.32 857.746 L1132.32 860.827 Q1130.85 859.453 1129.17 858.773 Q1127.5 858.093 1125.62 858.093 Q1121.92 858.093 1119.95 860.364 Q1117.98 862.621 1117.98 866.904 Q1117.98 871.172 1119.95 873.443 Q1121.92 875.7 1125.62 875.7 Q1127.5 875.7 1129.17 875.02 Q1130.85 874.34 1132.32 872.966 L1132.32 876.018 Q1130.79 877.06 1129.07 877.581 Q1127.36 878.101 1125.45 878.101 Q1120.54 878.101 1117.72 875.107 Q1114.9 872.097 1114.9 866.904 Q1114.9 861.695 1117.72 858.701 Q1120.54 855.691 1125.45 855.691 Q1127.39 855.691 1129.1 856.212 Q1130.82 856.718 1132.32 857.746 Z" fill="#000000" fill-rule="evenodd" fill-opacity="1" /><path clip-path="url(#clip150)" d="M 0 0 M1141.39 863.345 Q1139.25 863.345 1138.01 865.023 Q1136.76 866.687 1136.76 869.595 Q1136.76 872.503 1137.99 874.181 Q1139.24 875.845 1141.39 875.845 Q1143.52 875.845 1144.76 874.166 Q1146.01 872.488 1146.01 869.595 Q1146.01 866.716 1144.76 865.037 Q1143.52 863.345 1141.39 863.345 M1141.39 861.088 Q1144.86 861.088 1146.85 863.345 Q1148.83 865.602 1148.83 869.595 Q1148.83 873.573 1146.85 875.845 Q1144.86 878.101 1141.39 878.101 Q1137.91 878.101 1135.92 875.845 Q1133.96 873.573 1133.96 869.595 Q1133.96 865.602 1135.92 863.345 Q1137.91 861.088 1141.39 861.088 Z" fill="#000000" fill-rule="evenodd" fill-opacity="1" /><path clip-path="url(#clip150)" d="M 0 0 M1165.09 867.902 L1165.09 877.682 L1162.43 877.682 L1162.43 867.989 Q1162.43 865.688 1161.53 864.545 Q1160.63 863.402 1158.84 863.402 Q1156.68 863.402 1155.44 864.777 Q1154.2 866.151 1154.2 868.524 L1154.2 877.682 L1151.52 877.682 L1151.52 861.478 L1154.2 861.478 L1154.2 863.996 Q1155.15 862.534 1156.44 861.811 Q1157.74 861.088 1159.43 861.088 Q1162.23 861.088 1163.66 862.824 Q1165.09 864.545 1165.09 867.902 Z" fill="#000000" fill-rule="evenodd" fill-opacity="1" /><path clip-path="url(#clip150)" d="M 0 0 M1178.21 861.956 L1178.21 864.473 Q1177.08 863.894 1175.87 863.605 Q1174.65 863.316 1173.35 863.316 Q1171.37 863.316 1170.37 863.923 Q1169.39 864.531 1169.39 865.746 Q1169.39 866.672 1170.1 867.207 Q1170.8 867.728 1172.95 868.206 L1173.86 868.408 Q1176.69 869.016 1177.88 870.13 Q1179.08 871.229 1179.08 873.211 Q1179.08 875.468 1177.29 876.785 Q1175.51 878.101 1172.38 878.101 Q1171.08 878.101 1169.66 877.841 Q1168.26 877.595 1166.7 877.089 L1166.7 874.34 Q1168.17 875.107 1169.6 875.497 Q1171.04 875.873 1172.44 875.873 Q1174.32 875.873 1175.33 875.237 Q1176.35 874.586 1176.35 873.414 Q1176.35 872.329 1175.61 871.75 Q1174.88 871.172 1172.41 870.636 L1171.48 870.419 Q1169.01 869.898 1167.91 868.828 Q1166.81 867.743 1166.81 865.862 Q1166.81 863.576 1168.43 862.332 Q1170.05 861.088 1173.03 861.088 Q1174.51 861.088 1175.81 861.305 Q1177.11 861.522 1178.21 861.956 Z" fill="#000000" fill-rule="evenodd" fill-opacity="1" /><path clip-path="url(#clip150)" d="M 0 0 M1181.6 871.287 L1181.6 861.478 L1184.26 861.478 L1184.26 871.186 Q1184.26 873.486 1185.16 874.644 Q1186.05 875.787 1187.85 875.787 Q1190 875.787 1191.25 874.412 Q1192.51 873.038 1192.51 870.665 L1192.51 861.478 L1195.17 861.478 L1195.17 877.682 L1192.51 877.682 L1192.51 875.194 Q1191.54 876.669 1190.25 877.393 Q1188.98 878.101 1187.28 878.101 Q1184.49 878.101 1183.04 876.365 Q1181.6 874.629 1181.6 871.287 M1188.3 861.088 L1188.3 861.088 Z" fill="#000000" fill-rule="evenodd" fill-opacity="1" /><path clip-path="url(#clip150)" d="M 0 0 M1197.96 855.17 L1200.62 855.17 L1200.62 877.682 L1197.96 877.682 L1197.96 855.17 Z" fill="#000000" fill-rule="evenodd" fill-opacity="1" /><path clip-path="url(#clip150)" d="M 0 0 M1206.05 856.878 L1206.05 861.478 L1211.53 861.478 L1211.53 863.547 L1206.05 863.547 L1206.05 872.343 Q1206.05 874.325 1206.58 874.89 Q1207.13 875.454 1208.8 875.454 L1211.53 875.454 L1211.53 877.682 L1208.8 877.682 Q1205.72 877.682 1204.54 876.539 Q1203.37 875.382 1203.37 872.343 L1203.37 863.547 L1201.42 863.547 L1201.42 861.478 L1203.37 861.478 L1203.37 856.878 L1206.05 856.878 Z" fill="#000000" fill-rule="evenodd" fill-opacity="1" /><path clip-path="url(#clip150)" d="M 0 0 M1221.69 869.537 Q1218.46 869.537 1217.22 870.275 Q1215.97 871.012 1215.97 872.792 Q1215.97 874.21 1216.9 875.049 Q1217.84 875.873 1219.44 875.873 Q1221.66 875.873 1222.99 874.311 Q1224.33 872.734 1224.33 870.13 L1224.33 869.537 L1221.69 869.537 M1227 868.437 L1227 877.682 L1224.33 877.682 L1224.33 875.222 Q1223.42 876.698 1222.06 877.407 Q1220.7 878.101 1218.74 878.101 Q1216.25 878.101 1214.77 876.713 Q1213.31 875.309 1213.31 872.966 Q1213.31 870.231 1215.13 868.842 Q1216.97 867.453 1220.6 867.453 L1224.33 867.453 L1224.33 867.193 Q1224.33 865.356 1223.12 864.357 Q1221.92 863.345 1219.73 863.345 Q1218.35 863.345 1217.03 863.677 Q1215.71 864.01 1214.5 864.676 L1214.5 862.216 Q1215.96 861.652 1217.33 861.377 Q1218.71 861.088 1220.01 861.088 Q1223.52 861.088 1225.26 862.911 Q1227 864.734 1227 868.437 Z" fill="#000000" fill-rule="evenodd" fill-opacity="1" /><path clip-path="url(#clip150)" d="M 0 0 M1243.26 867.902 L1243.26 877.682 L1240.6 877.682 L1240.6 867.989 Q1240.6 865.688 1239.7 864.545 Q1238.8 863.402 1237.01 863.402 Q1234.85 863.402 1233.61 864.777 Q1232.36 866.151 1232.36 868.524 L1232.36 877.682 L1229.69 877.682 L1229.69 861.478 L1232.36 861.478 L1232.36 863.996 Q1233.32 862.534 1234.61 861.811 Q1235.91 861.088 1237.6 861.088 Q1240.39 861.088 1241.83 862.824 Q1243.26 864.545 1243.26 867.902 Z" fill="#000000" fill-rule="evenodd" fill-opacity="1" /><path clip-path="url(#clip150)" d="M 0 0 M1248.68 856.878 L1248.68 861.478 L1254.17 861.478 L1254.17 863.547 L1248.68 863.547 L1248.68 872.343 Q1248.68 874.325 1249.22 874.89 Q1249.77 875.454 1251.43 875.454 L1254.17 875.454 L1254.17 877.682 L1251.43 877.682 Q1248.35 877.682 1247.18 876.539 Q1246.01 875.382 1246.01 872.343 L1246.01 863.547 L1244.05 863.547 L1244.05 861.478 L1246.01 861.478 L1246.01 856.878 L1248.68 856.878 Z" fill="#000000" fill-rule="evenodd" fill-opacity="1" /><path clip-path="url(#clip150)" d="M 0 0 M1269.27 882.601 L1269.27 884.67 L1253.88 884.67 L1253.88 882.601 L1269.27 882.601 Z" fill="#000000" fill-rule="evenodd" fill-opacity="1" /><path clip-path="url(#clip150)" d="M 0 0 M1282.42 867.555 Q1283.36 867.873 1284.24 868.915 Q1285.14 869.956 1286.04 871.779 L1289 877.682 L1285.87 877.682 L1283.1 872.141 Q1282.03 869.971 1281.02 869.262 Q1280.02 868.553 1278.28 868.553 L1275.1 868.553 L1275.1 877.682 L1272.18 877.682 L1272.18 856.082 L1278.78 856.082 Q1282.48 856.082 1284.3 857.63 Q1286.13 859.178 1286.13 862.303 Q1286.13 864.343 1285.17 865.688 Q1284.23 867.034 1282.42 867.555 M1275.1 858.484 L1275.1 866.151 L1278.78 866.151 Q1280.89 866.151 1281.96 865.182 Q1283.04 864.198 1283.04 862.303 Q1283.04 860.408 1281.96 859.453 Q1280.89 858.484 1278.78 858.484 L1275.1 858.484 Z" fill="#000000" fill-rule="evenodd" fill-opacity="1" /><path clip-path="url(#clip150)" d="M 0 0 M1304.33 868.915 L1304.33 870.217 L1292.09 870.217 Q1292.26 872.966 1293.74 874.412 Q1295.23 875.845 1297.87 875.845 Q1299.41 875.845 1300.84 875.468 Q1302.29 875.092 1303.7 874.34 L1303.7 876.857 Q1302.27 877.465 1300.77 877.783 Q1299.26 878.101 1297.71 878.101 Q1293.84 878.101 1291.57 875.845 Q1289.31 873.588 1289.31 869.739 Q1289.31 865.761 1291.45 863.431 Q1293.61 861.088 1297.25 861.088 Q1300.52 861.088 1302.42 863.2 Q1304.33 865.298 1304.33 868.915 M1301.66 868.133 Q1301.63 865.949 1300.43 864.647 Q1299.25 863.345 1297.28 863.345 Q1295.05 863.345 1293.71 864.603 Q1292.38 865.862 1292.17 868.148 L1301.66 868.133 Z" fill="#000000" fill-rule="evenodd" fill-opacity="1" /><path clip-path="url(#clip150)" d="M 0 0 M1308.71 869.595 Q1308.71 872.531 1309.91 874.21 Q1311.13 875.873 1313.24 875.873 Q1315.35 875.873 1316.57 874.21 Q1317.78 872.531 1317.78 869.595 Q1317.78 866.658 1316.57 864.994 Q1315.35 863.316 1313.24 863.316 Q1311.13 863.316 1309.91 864.994 Q1308.71 866.658 1308.71 869.595 M1317.78 875.251 Q1316.94 876.698 1315.65 877.407 Q1314.38 878.101 1312.59 878.101 Q1309.65 878.101 1307.8 875.758 Q1305.96 873.414 1305.96 869.595 Q1305.96 865.775 1307.8 863.431 Q1309.65 861.088 1312.59 861.088 Q1314.38 861.088 1315.65 861.797 Q1316.94 862.491 1317.78 863.938 L1317.78 861.478 L1320.44 861.478 L1320.44 883.845 L1317.78 883.845 L1317.78 875.251 Z" fill="#000000" fill-rule="evenodd" fill-opacity="1" /><path clip-path="url(#clip150)" d="M 0 0 M1322.96 871.287 L1322.96 861.478 L1325.62 861.478 L1325.62 871.186 Q1325.62 873.486 1326.52 874.644 Q1327.42 875.787 1329.21 875.787 Q1331.37 875.787 1332.61 874.412 Q1333.87 873.038 1333.87 870.665 L1333.87 861.478 L1336.53 861.478 L1336.53 877.682 L1333.87 877.682 L1333.87 875.194 Q1332.9 876.669 1331.61 877.393 Q1330.34 878.101 1328.65 878.101 Q1325.85 878.101 1324.41 876.365 Q1322.96 874.629 1322.96 871.287 M1329.66 861.088 L1329.66 861.088 Z" fill="#000000" fill-rule="evenodd" fill-opacity="1" /><path clip-path="url(#clip150)" d="M 0 0 M1353.18 868.915 L1353.18 870.217 L1340.94 870.217 Q1341.12 872.966 1342.59 874.412 Q1344.08 875.845 1346.73 875.845 Q1348.26 875.845 1349.7 875.468 Q1351.14 875.092 1352.56 874.34 L1352.56 876.857 Q1351.13 877.465 1349.62 877.783 Q1348.12 878.101 1346.57 878.101 Q1342.69 878.101 1340.42 875.845 Q1338.17 873.588 1338.17 869.739 Q1338.17 865.761 1340.31 863.431 Q1342.46 861.088 1346.11 861.088 Q1349.38 861.088 1351.27 863.2 Q1353.18 865.298 1353.18 868.915 M1350.52 868.133 Q1350.49 865.949 1349.29 864.647 Q1348.1 863.345 1346.14 863.345 Q1343.91 863.345 1342.56 864.603 Q1341.23 865.862 1341.03 868.148 L1350.52 868.133 Z" fill="#000000" fill-rule="evenodd" fill-opacity="1" /><path clip-path="url(#clip150)" d="M 0 0 M1366.3 861.956 L1366.3 864.473 Q1365.18 863.894 1363.96 863.605 Q1362.75 863.316 1361.44 863.316 Q1359.46 863.316 1358.46 863.923 Q1357.48 864.531 1357.48 865.746 Q1357.48 866.672 1358.19 867.207 Q1358.9 867.728 1361.04 868.206 L1361.95 868.408 Q1364.79 869.016 1365.97 870.13 Q1367.17 871.229 1367.17 873.211 Q1367.17 875.468 1365.38 876.785 Q1363.6 878.101 1360.47 878.101 Q1359.17 878.101 1357.75 877.841 Q1356.35 877.595 1354.79 877.089 L1354.79 874.34 Q1356.26 875.107 1357.7 875.497 Q1359.13 875.873 1360.53 875.873 Q1362.41 875.873 1363.43 875.237 Q1364.44 874.586 1364.44 873.414 Q1364.44 872.329 1363.7 871.75 Q1362.98 871.172 1360.5 870.636 L1359.58 870.419 Q1357.1 869.898 1356 868.828 Q1354.9 867.743 1354.9 865.862 Q1354.9 863.576 1356.52 862.332 Q1358.14 861.088 1361.13 861.088 Q1362.6 861.088 1363.9 861.305 Q1365.2 861.522 1366.3 861.956 Z" fill="#000000" fill-rule="evenodd" fill-opacity="1" /><path clip-path="url(#clip150)" d="M 0 0 M1372.6 856.878 L1372.6 861.478 L1378.08 861.478 L1378.08 863.547 L1372.6 863.547 L1372.6 872.343 Q1372.6 874.325 1373.13 874.89 Q1373.68 875.454 1375.35 875.454 L1378.08 875.454 L1378.08 877.682 L1375.35 877.682 Q1372.27 877.682 1371.09 876.539 Q1369.92 875.382 1369.92 872.343 L1369.92 863.547 L1367.97 863.547 L1367.97 861.478 L1369.92 861.478 L1369.92 856.878 L1372.6 856.878 Z" fill="#000000" fill-rule="evenodd" fill-opacity="1" /><path clip-path="url(#clip150)" d="M 0 0 M1391.2 861.956 L1391.2 864.473 Q1390.07 863.894 1388.86 863.605 Q1387.64 863.316 1386.34 863.316 Q1384.36 863.316 1383.36 863.923 Q1382.38 864.531 1382.38 865.746 Q1382.38 866.672 1383.09 867.207 Q1383.8 867.728 1385.94 868.206 L1386.85 868.408 Q1389.68 869.016 1390.87 870.13 Q1392.07 871.229 1392.07 873.211 Q1392.07 875.468 1390.28 876.785 Q1388.5 878.101 1385.37 878.101 Q1384.07 878.101 1382.65 877.841 Q1381.25 877.595 1379.69 877.089 L1379.69 874.34 Q1381.16 875.107 1382.59 875.497 Q1384.03 875.873 1385.43 875.873 Q1387.31 875.873 1388.32 875.237 Q1389.34 874.586 1389.34 873.414 Q1389.34 872.329 1388.6 871.75 Q1387.88 871.172 1385.4 870.636 L1384.48 870.419 Q1382 869.898 1380.9 868.828 Q1379.8 867.743 1379.8 865.862 Q1379.8 863.576 1381.42 862.332 Q1383.04 861.088 1386.02 861.088 Q1387.5 861.088 1388.8 861.305 Q1390.1 861.522 1391.2 861.956 Z" fill="#000000" fill-rule="evenodd" fill-opacity="1" /><path clip-path="url(#clip150)" d="M 0 0 M1511.79 668.638 L1511.79 685.435 L1515.33 685.435 Q1519.8 685.435 1521.86 683.409 Q1523.95 681.384 1523.95 677.015 Q1523.95 672.675 1521.86 670.664 Q1519.8 668.638 1515.33 668.638 L1511.79 668.638 M1508.87 666.237 L1514.88 666.237 Q1521.16 666.237 1524.09 668.855 Q1527.03 671.459 1527.03 677.015 Q1527.03 682.599 1524.08 685.218 Q1521.13 687.837 1514.88 687.837 L1508.87 687.837 L1508.87 666.237 Z" fill="#000000" fill-rule="evenodd" fill-opacity="1" /><path clip-path="url(#clip150)" d="M 0 0 M1543.68 679.069 L1543.68 680.371 L1531.44 680.371 Q1531.62 683.12 1533.09 684.567 Q1534.58 685.999 1537.23 685.999 Q1538.76 685.999 1540.19 685.623 Q1541.64 685.247 1543.06 684.495 L1543.06 687.012 Q1541.63 687.62 1540.12 687.938 Q1538.62 688.256 1537.07 688.256 Q1533.19 688.256 1530.92 685.999 Q1528.66 683.742 1528.66 679.894 Q1528.66 675.915 1530.81 673.586 Q1532.96 671.242 1536.61 671.242 Q1539.88 671.242 1541.77 673.355 Q1543.68 675.452 1543.68 679.069 M1541.02 678.288 Q1540.99 676.103 1539.79 674.801 Q1538.6 673.499 1536.64 673.499 Q1534.41 673.499 1533.06 674.758 Q1531.73 676.017 1531.53 678.302 L1541.02 678.288 Z" fill="#000000" fill-rule="evenodd" fill-opacity="1" /><path clip-path="url(#clip150)" d="M 0 0 M1556.8 672.11 L1556.8 674.628 Q1555.67 674.049 1554.46 673.76 Q1553.24 673.47 1551.94 673.47 Q1549.96 673.47 1548.96 674.078 Q1547.98 674.686 1547.98 675.901 Q1547.98 676.827 1548.69 677.362 Q1549.4 677.883 1551.54 678.36 L1552.45 678.563 Q1555.28 679.17 1556.47 680.284 Q1557.67 681.384 1557.67 683.366 Q1557.67 685.623 1555.88 686.94 Q1554.1 688.256 1550.97 688.256 Q1549.67 688.256 1548.25 687.996 Q1546.85 687.75 1545.29 687.243 L1545.29 684.495 Q1546.76 685.261 1548.2 685.652 Q1549.63 686.028 1551.03 686.028 Q1552.91 686.028 1553.92 685.392 Q1554.94 684.74 1554.94 683.569 Q1554.94 682.484 1554.2 681.905 Q1553.48 681.326 1551 680.791 L1550.08 680.574 Q1547.6 680.053 1546.5 678.982 Q1545.4 677.897 1545.4 676.017 Q1545.4 673.731 1547.02 672.486 Q1548.64 671.242 1551.62 671.242 Q1553.1 671.242 1554.4 671.459 Q1555.7 671.676 1556.8 672.11 Z" fill="#000000" fill-rule="evenodd" fill-opacity="1" /><path clip-path="url(#clip150)" d="M 0 0 M1560.46 671.633 L1563.13 671.633 L1563.13 687.837 L1560.46 687.837 L1560.46 671.633 M1560.46 665.325 L1563.13 665.325 L1563.13 668.696 L1560.46 668.696 L1560.46 665.325 Z" fill="#000000" fill-rule="evenodd" fill-opacity="1" /><path clip-path="url(#clip150)" d="M 0 0 M1576.58 679.547 Q1576.58 676.653 1575.38 675.062 Q1574.19 673.47 1572.04 673.47 Q1569.9 673.47 1568.7 675.062 Q1567.51 676.653 1567.51 679.547 Q1567.51 682.426 1568.7 684.017 Q1569.9 685.609 1572.04 685.609 Q1574.19 685.609 1575.38 684.017 Q1576.58 682.426 1576.58 679.547 M1579.24 685.826 Q1579.24 689.963 1577.41 691.974 Q1575.57 694 1571.78 694 Q1570.37 694 1569.13 693.783 Q1567.89 693.58 1566.71 693.146 L1566.71 690.556 Q1567.89 691.193 1569.03 691.497 Q1570.17 691.801 1571.36 691.801 Q1573.98 691.801 1575.28 690.426 Q1576.58 689.066 1576.58 686.303 L1576.58 684.986 Q1575.76 686.419 1574.47 687.128 Q1573.18 687.837 1571.39 687.837 Q1568.41 687.837 1566.58 685.565 Q1564.76 683.294 1564.76 679.547 Q1564.76 675.785 1566.58 673.514 Q1568.41 671.242 1571.39 671.242 Q1573.18 671.242 1574.47 671.951 Q1575.76 672.66 1576.58 674.092 L1576.58 671.633 L1579.24 671.633 L1579.24 685.826 Z" fill="#000000" fill-rule="evenodd" fill-opacity="1" /><path clip-path="url(#clip150)" d="M 0 0 M1595.5 678.056 L1595.5 687.837 L1592.84 687.837 L1592.84 678.143 Q1592.84 675.843 1591.94 674.7 Q1591.05 673.557 1589.25 673.557 Q1587.1 673.557 1585.85 674.931 Q1584.61 676.306 1584.61 678.679 L1584.61 687.837 L1581.93 687.837 L1581.93 671.633 L1584.61 671.633 L1584.61 674.15 Q1585.56 672.689 1586.85 671.966 Q1588.15 671.242 1589.85 671.242 Q1592.64 671.242 1594.07 672.978 Q1595.5 674.7 1595.5 678.056 Z" fill="#000000" fill-rule="evenodd" fill-opacity="1" /><path clip-path="url(#clip150)" d="M 0 0 M1610.61 692.755 L1610.61 694.824 L1595.21 694.824 L1595.21 692.755 L1610.61 692.755 Z" fill="#000000" fill-rule="evenodd" fill-opacity="1" /><path clip-path="url(#clip150)" d="M 0 0 M1623.76 677.709 Q1624.7 678.028 1625.58 679.069 Q1626.48 680.111 1627.38 681.934 L1630.34 687.837 L1627.2 687.837 L1624.44 682.295 Q1623.37 680.125 1622.36 679.416 Q1621.36 678.708 1619.62 678.708 L1616.44 678.708 L1616.44 687.837 L1613.52 687.837 L1613.52 666.237 L1620.11 666.237 Q1623.82 666.237 1625.64 667.785 Q1627.46 669.333 1627.46 672.458 Q1627.46 674.497 1626.51 675.843 Q1625.57 677.188 1623.76 677.709 M1616.44 668.638 L1616.44 676.306 L1620.11 676.306 Q1622.23 676.306 1623.3 675.337 Q1624.38 674.353 1624.38 672.458 Q1624.38 670.562 1623.3 669.607 Q1622.23 668.638 1620.11 668.638 L1616.44 668.638 Z" fill="#000000" fill-rule="evenodd" fill-opacity="1" /><path clip-path="url(#clip150)" d="M 0 0 M1645.66 679.069 L1645.66 680.371 L1633.42 680.371 Q1633.6 683.12 1635.07 684.567 Q1636.56 685.999 1639.21 685.999 Q1640.74 685.999 1642.18 685.623 Q1643.62 685.247 1645.04 684.495 L1645.04 687.012 Q1643.61 687.62 1642.1 687.938 Q1640.6 688.256 1639.05 688.256 Q1635.17 688.256 1632.9 685.999 Q1630.65 683.742 1630.65 679.894 Q1630.65 675.915 1632.79 673.586 Q1634.94 671.242 1638.59 671.242 Q1641.86 671.242 1643.75 673.355 Q1645.66 675.452 1645.66 679.069 M1643 678.288 Q1642.97 676.103 1641.77 674.801 Q1640.58 673.499 1638.62 673.499 Q1636.39 673.499 1635.04 674.758 Q1633.71 676.017 1633.51 678.302 L1643 678.288 Z" fill="#000000" fill-rule="evenodd" fill-opacity="1" /><path clip-path="url(#clip150)" d="M 0 0 M1655.82 679.691 Q1652.59 679.691 1651.35 680.429 Q1650.1 681.167 1650.1 682.947 Q1650.1 684.364 1651.03 685.203 Q1651.97 686.028 1653.58 686.028 Q1655.79 686.028 1657.12 684.466 Q1658.47 682.889 1658.47 680.284 L1658.47 679.691 L1655.82 679.691 M1661.13 678.592 L1661.13 687.837 L1658.47 687.837 L1658.47 685.377 Q1657.56 686.853 1656.2 687.562 Q1654.84 688.256 1652.87 688.256 Q1650.38 688.256 1648.9 686.867 Q1647.44 685.464 1647.44 683.12 Q1647.44 680.386 1649.27 678.997 Q1651.1 677.608 1654.73 677.608 L1658.47 677.608 L1658.47 677.348 Q1658.47 675.51 1657.25 674.512 Q1656.05 673.499 1653.87 673.499 Q1652.48 673.499 1651.16 673.832 Q1649.84 674.165 1648.63 674.83 L1648.63 672.371 Q1650.09 671.807 1651.46 671.532 Q1652.84 671.242 1654.14 671.242 Q1657.66 671.242 1659.39 673.065 Q1661.13 674.888 1661.13 678.592 Z" fill="#000000" fill-rule="evenodd" fill-opacity="1" /><path clip-path="url(#clip150)" d="M 0 0 M1674.25 672.11 L1674.25 674.628 Q1673.12 674.049 1671.91 673.76 Q1670.69 673.47 1669.39 673.47 Q1667.41 673.47 1666.41 674.078 Q1665.43 674.686 1665.43 675.901 Q1665.43 676.827 1666.13 677.362 Q1666.84 677.883 1668.98 678.36 L1669.9 678.563 Q1672.73 679.17 1673.92 680.284 Q1675.12 681.384 1675.12 683.366 Q1675.12 685.623 1673.32 686.94 Q1671.55 688.256 1668.42 688.256 Q1667.12 688.256 1665.7 687.996 Q1664.3 687.75 1662.73 687.243 L1662.73 684.495 Q1664.21 685.261 1665.64 685.652 Q1667.07 686.028 1668.48 686.028 Q1670.36 686.028 1671.37 685.392 Q1672.38 684.74 1672.38 683.569 Q1672.38 682.484 1671.65 681.905 Q1670.92 681.326 1668.45 680.791 L1667.52 680.574 Q1665.05 680.053 1663.95 678.982 Q1662.85 677.897 1662.85 676.017 Q1662.85 673.731 1664.47 672.486 Q1666.09 671.242 1669.07 671.242 Q1670.55 671.242 1671.85 671.459 Q1673.15 671.676 1674.25 672.11 Z" fill="#000000" fill-rule="evenodd" fill-opacity="1" /><path clip-path="url(#clip150)" d="M 0 0 M1684.19 673.499 Q1682.05 673.499 1680.8 675.177 Q1679.56 676.841 1679.56 679.749 Q1679.56 682.657 1680.79 684.335 Q1682.03 685.999 1684.19 685.999 Q1686.32 685.999 1687.56 684.321 Q1688.8 682.643 1688.8 679.749 Q1688.8 676.87 1687.56 675.192 Q1686.32 673.499 1684.19 673.499 M1684.19 671.242 Q1687.66 671.242 1689.64 673.499 Q1691.63 675.756 1691.63 679.749 Q1691.63 683.728 1689.64 685.999 Q1687.66 688.256 1684.19 688.256 Q1680.7 688.256 1678.72 685.999 Q1676.75 683.728 1676.75 679.749 Q1676.75 675.756 1678.72 673.499 Q1680.7 671.242 1684.19 671.242 Z" fill="#000000" fill-rule="evenodd" fill-opacity="1" /><path clip-path="url(#clip150)" d="M 0 0 M1707.89 678.056 L1707.89 687.837 L1705.23 687.837 L1705.23 678.143 Q1705.23 675.843 1704.33 674.7 Q1703.43 673.557 1701.64 673.557 Q1699.48 673.557 1698.24 674.931 Q1696.99 676.306 1696.99 678.679 L1696.99 687.837 L1694.32 687.837 L1694.32 671.633 L1696.99 671.633 L1696.99 674.15 Q1697.95 672.689 1699.24 671.966 Q1700.54 671.242 1702.23 671.242 Q1705.02 671.242 1706.46 672.978 Q1707.89 674.7 1707.89 678.056 Z" fill="#000000" fill-rule="evenodd" fill-opacity="1" /><path clip-path="url(#clip150)" d="M 0 0 M1710.68 671.633 L1713.34 671.633 L1713.34 687.837 L1710.68 687.837 L1710.68 671.633 M1710.68 665.325 L1713.34 665.325 L1713.34 668.696 L1710.68 668.696 L1710.68 665.325 Z" fill="#000000" fill-rule="evenodd" fill-opacity="1" /><path clip-path="url(#clip150)" d="M 0 0 M1729.6 678.056 L1729.6 687.837 L1726.94 687.837 L1726.94 678.143 Q1726.94 675.843 1726.04 674.7 Q1725.15 673.557 1723.35 673.557 Q1721.2 673.557 1719.95 674.931 Q1718.71 676.306 1718.71 678.679 L1718.71 687.837 L1716.03 687.837 L1716.03 671.633 L1718.71 671.633 L1718.71 674.15 Q1719.66 672.689 1720.95 671.966 Q1722.25 671.242 1723.95 671.242 Q1726.74 671.242 1728.17 672.978 Q1729.6 674.7 1729.6 678.056 Z" fill="#000000" fill-rule="evenodd" fill-opacity="1" /><path clip-path="url(#clip150)" d="M 0 0 M1743.06 679.547 Q1743.06 676.653 1741.86 675.062 Q1740.67 673.47 1738.52 673.47 Q1736.37 673.47 1735.17 675.062 Q1733.99 676.653 1733.99 679.547 Q1733.99 682.426 1735.17 684.017 Q1736.37 685.609 1738.52 685.609 Q1740.67 685.609 1741.86 684.017 Q1743.06 682.426 1743.06 679.547 M1745.72 685.826 Q1745.72 689.963 1743.88 691.974 Q1742.05 694 1738.25 694 Q1736.85 694 1735.61 693.783 Q1734.36 693.58 1733.19 693.146 L1733.19 690.556 Q1734.36 691.193 1735.51 691.497 Q1736.65 691.801 1737.84 691.801 Q1740.45 691.801 1741.76 690.426 Q1743.06 689.066 1743.06 686.303 L1743.06 684.986 Q1742.23 686.419 1740.95 687.128 Q1739.66 687.837 1737.86 687.837 Q1734.88 687.837 1733.06 685.565 Q1731.24 683.294 1731.24 679.547 Q1731.24 675.785 1733.06 673.514 Q1734.88 671.242 1737.86 671.242 Q1739.66 671.242 1740.95 671.951 Q1742.23 672.66 1743.06 674.092 L1743.06 671.633 L1745.72 671.633 L1745.72 685.826 Z" fill="#000000" fill-rule="evenodd" fill-opacity="1" /><path clip-path="url(#clip150)" d="M 0 0 M504.182 1019.48 L504.182 1022.56 Q502.706 1021.18 501.028 1020.5 Q499.364 1019.82 497.483 1019.82 Q493.779 1019.82 491.812 1022.1 Q489.844 1024.35 489.844 1028.63 Q489.844 1032.9 491.812 1035.17 Q493.779 1037.43 497.483 1037.43 Q499.364 1037.43 501.028 1036.75 Q502.706 1036.07 504.182 1034.7 L504.182 1037.75 Q502.648 1038.79 500.926 1039.31 Q499.219 1039.83 497.31 1039.83 Q492.405 1039.83 489.584 1036.84 Q486.763 1033.83 486.763 1028.63 Q486.763 1023.43 489.584 1020.43 Q492.405 1017.42 497.31 1017.42 Q499.248 1017.42 500.955 1017.94 Q502.677 1018.45 504.182 1019.48 Z" fill="#000000" fill-rule="evenodd" fill-opacity="1" /><path clip-path="url(#clip150)" d="M 0 0 M513.253 1025.08 Q511.112 1025.08 509.867 1026.75 Q508.623 1028.42 508.623 1031.33 Q508.623 1034.23 509.853 1035.91 Q511.097 1037.58 513.253 1037.58 Q515.379 1037.58 516.624 1035.9 Q517.868 1034.22 517.868 1031.33 Q517.868 1028.45 516.624 1026.77 Q515.379 1025.08 513.253 1025.08 M513.253 1022.82 Q516.725 1022.82 518.707 1025.08 Q520.689 1027.33 520.689 1031.33 Q520.689 1035.3 518.707 1037.58 Q516.725 1039.83 513.253 1039.83 Q509.766 1039.83 507.784 1037.58 Q505.816 1035.3 505.816 1031.33 Q505.816 1027.33 507.784 1025.08 Q509.766 1022.82 513.253 1022.82 Z" fill="#000000" fill-rule="evenodd" fill-opacity="1" /><path clip-path="url(#clip150)" d="M 0 0 M523.481 1016.9 L526.143 1016.9 L526.143 1039.41 L523.481 1039.41 L523.481 1016.9 Z" fill="#000000" fill-rule="evenodd" fill-opacity="1" /><path clip-path="url(#clip150)" d="M 0 0 M528.936 1016.9 L531.598 1016.9 L531.598 1039.41 L528.936 1039.41 L528.936 1016.9 Z" fill="#000000" fill-rule="evenodd" fill-opacity="1" /><path clip-path="url(#clip150)" d="M 0 0 M541.754 1031.27 Q538.527 1031.27 537.283 1032.01 Q536.039 1032.74 536.039 1034.52 Q536.039 1035.94 536.965 1036.78 Q537.905 1037.6 539.511 1037.6 Q541.725 1037.6 543.056 1036.04 Q544.401 1034.47 544.401 1031.86 L544.401 1031.27 L541.754 1031.27 M547.063 1030.17 L547.063 1039.41 L544.401 1039.41 L544.401 1036.95 Q543.49 1038.43 542.13 1039.14 Q540.77 1039.83 538.802 1039.83 Q536.314 1039.83 534.838 1038.44 Q533.377 1037.04 533.377 1034.7 Q533.377 1031.96 535.2 1030.57 Q537.037 1029.18 540.669 1029.18 L544.401 1029.18 L544.401 1028.92 Q544.401 1027.09 543.186 1026.09 Q541.985 1025.08 539.801 1025.08 Q538.412 1025.08 537.095 1025.41 Q535.779 1025.74 534.563 1026.41 L534.563 1023.95 Q536.025 1023.38 537.399 1023.11 Q538.773 1022.82 540.075 1022.82 Q543.591 1022.82 545.327 1024.64 Q547.063 1026.46 547.063 1030.17 Z" fill="#000000" fill-rule="evenodd" fill-opacity="1" /><path clip-path="url(#clip150)" d="M 0 0 M561.487 1031.33 Q561.487 1028.39 560.272 1026.73 Q559.071 1025.05 556.959 1025.05 Q554.847 1025.05 553.632 1026.73 Q552.431 1028.39 552.431 1031.33 Q552.431 1034.26 553.632 1035.94 Q554.847 1037.6 556.959 1037.6 Q559.071 1037.6 560.272 1035.94 Q561.487 1034.26 561.487 1031.33 M552.431 1025.67 Q553.27 1024.22 554.543 1023.53 Q555.831 1022.82 557.61 1022.82 Q560.561 1022.82 562.399 1025.16 Q564.251 1027.51 564.251 1031.33 Q564.251 1035.15 562.399 1037.49 Q560.561 1039.83 557.61 1039.83 Q555.831 1039.83 554.543 1039.14 Q553.27 1038.43 552.431 1036.98 L552.431 1039.41 L549.754 1039.41 L549.754 1016.9 L552.431 1016.9 L552.431 1025.67 Z" fill="#000000" fill-rule="evenodd" fill-opacity="1" /><path clip-path="url(#clip150)" d="M 0 0 M573.322 1025.08 Q571.181 1025.08 569.936 1026.75 Q568.692 1028.42 568.692 1031.33 Q568.692 1034.23 569.922 1035.91 Q571.166 1037.58 573.322 1037.58 Q575.449 1037.58 576.693 1035.9 Q577.937 1034.22 577.937 1031.33 Q577.937 1028.45 576.693 1026.77 Q575.449 1025.08 573.322 1025.08 M573.322 1022.82 Q576.794 1022.82 578.776 1025.08 Q580.758 1027.33 580.758 1031.33 Q580.758 1035.3 578.776 1037.58 Q576.794 1039.83 573.322 1039.83 Q569.835 1039.83 567.853 1037.58 Q565.886 1035.3 565.886 1031.33 Q565.886 1027.33 567.853 1025.08 Q569.835 1022.82 573.322 1022.82 Z" fill="#000000" fill-rule="evenodd" fill-opacity="1" /><path clip-path="url(#clip150)" d="M 0 0 M592.94 1025.7 Q592.491 1025.44 591.956 1025.32 Q591.435 1025.19 590.799 1025.19 Q588.542 1025.19 587.326 1026.67 Q586.126 1028.13 586.126 1030.88 L586.126 1039.41 L583.449 1039.41 L583.449 1023.21 L586.126 1023.21 L586.126 1025.73 Q586.965 1024.25 588.31 1023.54 Q589.656 1022.82 591.58 1022.82 Q591.855 1022.82 592.187 1022.86 Q592.52 1022.89 592.925 1022.96 L592.94 1025.7 Z" fill="#000000" fill-rule="evenodd" fill-opacity="1" /><path clip-path="url(#clip150)" d="M 0 0 M603.096 1031.27 Q599.87 1031.27 598.626 1032.01 Q597.381 1032.74 597.381 1034.52 Q597.381 1035.94 598.307 1036.78 Q599.248 1037.6 600.854 1037.6 Q603.067 1037.6 604.398 1036.04 Q605.744 1034.47 605.744 1031.86 L605.744 1031.27 L603.096 1031.27 M608.406 1030.17 L608.406 1039.41 L605.744 1039.41 L605.744 1036.95 Q604.832 1038.43 603.472 1039.14 Q602.112 1039.83 600.145 1039.83 Q597.656 1039.83 596.181 1038.44 Q594.719 1037.04 594.719 1034.7 Q594.719 1031.96 596.542 1030.57 Q598.38 1029.18 602.011 1029.18 L605.744 1029.18 L605.744 1028.92 Q605.744 1027.09 604.528 1026.09 Q603.327 1025.08 601.143 1025.08 Q599.754 1025.08 598.437 1025.41 Q597.121 1025.74 595.906 1026.41 L595.906 1023.95 Q597.367 1023.38 598.741 1023.11 Q600.116 1022.82 601.418 1022.82 Q604.933 1022.82 606.669 1024.64 Q608.406 1026.46 608.406 1030.17 Z" fill="#000000" fill-rule="evenodd" fill-opacity="1" /><path clip-path="url(#clip150)" d="M 0 0 M613.831 1018.61 L613.831 1023.21 L619.314 1023.21 L619.314 1025.28 L613.831 1025.28 L613.831 1034.07 Q613.831 1036.06 614.366 1036.62 Q614.916 1037.19 616.58 1037.19 L619.314 1037.19 L619.314 1039.41 L616.58 1039.41 Q613.498 1039.41 612.326 1038.27 Q611.154 1037.11 611.154 1034.07 L611.154 1025.28 L609.201 1025.28 L609.201 1023.21 L611.154 1023.21 L611.154 1018.61 L613.831 1018.61 Z" fill="#000000" fill-rule="evenodd" fill-opacity="1" /><path clip-path="url(#clip150)" d="M 0 0 M622.106 1023.21 L624.768 1023.21 L624.768 1039.41 L622.106 1039.41 L622.106 1023.21 M622.106 1016.9 L624.768 1016.9 L624.768 1020.27 L622.106 1020.27 L622.106 1016.9 Z" fill="#000000" fill-rule="evenodd" fill-opacity="1" /><path clip-path="url(#clip150)" d="M 0 0 M633.839 1025.08 Q631.698 1025.08 630.454 1026.75 Q629.21 1028.42 629.21 1031.33 Q629.21 1034.23 630.44 1035.91 Q631.684 1037.58 633.839 1037.58 Q635.966 1037.58 637.21 1035.9 Q638.455 1034.22 638.455 1031.33 Q638.455 1028.45 637.21 1026.77 Q635.966 1025.08 633.839 1025.08 M633.839 1022.82 Q637.312 1022.82 639.294 1025.08 Q641.276 1027.33 641.276 1031.33 Q641.276 1035.3 639.294 1037.58 Q637.312 1039.83 633.839 1039.83 Q630.353 1039.83 628.371 1037.58 Q626.403 1035.3 626.403 1031.33 Q626.403 1027.33 628.371 1025.08 Q630.353 1022.82 633.839 1022.82 Z" fill="#000000" fill-rule="evenodd" fill-opacity="1" /><path clip-path="url(#clip150)" d="M 0 0 M657.537 1029.63 L657.537 1039.41 L654.875 1039.41 L654.875 1029.72 Q654.875 1027.42 653.978 1026.28 Q653.081 1025.13 651.287 1025.13 Q649.132 1025.13 647.887 1026.51 Q646.643 1027.88 646.643 1030.26 L646.643 1039.41 L643.967 1039.41 L643.967 1023.21 L646.643 1023.21 L646.643 1025.73 Q647.598 1024.27 648.886 1023.54 Q650.188 1022.82 651.88 1022.82 Q654.673 1022.82 656.105 1024.55 Q657.537 1026.28 657.537 1029.63 Z" fill="#000000" fill-rule="evenodd" fill-opacity="1" /><path clip-path="url(#clip152)" d="M1181.5 760.482 L1181.5 792.482 L1213.5 792.482 L1213.5 760.482 L1181.5 760.482 Z" fill="#800080" fill-rule="evenodd" fill-opacity="1" stroke="none"/>
<polyline clip-path="url(#clip152)" style="stroke:#800080; stroke-width:4; stroke-opacity:1; fill:none" stroke-dasharray="16, 10" points="
  1182.13,787.843 1212.88,787.843 
  "/>
<polyline clip-path="url(#clip152)" style="stroke:#800080; stroke-width:4; stroke-opacity:1; fill:none" stroke-dasharray="16, 10" points="
  1182.13,765.12 1212.88,765.12 
  "/>
<polyline clip-path="url(#clip152)" style="stroke:#800080; stroke-width:4; stroke-opacity:1; fill:none" stroke-dasharray="16, 10" points="
  1182.13,787.843 1182.13,765.12 
  "/>
<polyline clip-path="url(#clip152)" style="stroke:#800080; stroke-width:4; stroke-opacity:1; fill:none" stroke-dasharray="16, 10" points="
  1212.88,787.843 1212.88,765.12 
  "/>
<path clip-path="url(#clip152)" d="M1247.49 759.98 L1247.49 791.98 L1279.49 791.98 L1279.49 759.98 L1247.49 759.98 Z" fill="#ffa500" fill-rule="evenodd" fill-opacity="1" stroke="none"/>
<polyline clip-path="url(#clip152)" style="stroke:#ffa500; stroke-width:4; stroke-opacity:1; fill:none" stroke-dasharray="16, 10" points="
  1248.61,785.965 1278.37,785.965 
  "/>
<polyline clip-path="url(#clip152)" style="stroke:#ffa500; stroke-width:4; stroke-opacity:1; fill:none" stroke-dasharray="16, 10" points="
  1248.61,765.995 1278.37,765.995 
  "/>
<polyline clip-path="url(#clip152)" style="stroke:#ffa500; stroke-width:4; stroke-opacity:1; fill:none" stroke-dasharray="16, 10" points="
  1248.61,785.965 1248.61,765.995 
  "/>
<polyline clip-path="url(#clip152)" style="stroke:#ffa500; stroke-width:4; stroke-opacity:1; fill:none" stroke-dasharray="16, 10" points="
  1278.37,785.965 1278.37,765.995 
  "/>
</svg>
