<?xml version="1.0" encoding="utf-8"?>
<svg xmlns="http://www.w3.org/2000/svg" xmlns:xlink="http://www.w3.org/1999/xlink" width="500" height="500" viewBox="0 0 2000 2000">
<defs>
  <clipPath id="clip560">
    <rect x="0" y="0" width="2000" height="2000"/>
  </clipPath>
</defs>
<path clip-path="url(#clip560)" d="
M0 2000 L2000 2000 L2000 0 L0 0  Z
  " fill="#ffffff" fill-rule="evenodd" fill-opacity="1"/>
<defs>
  <clipPath id="clip561">
    <rect x="400" y="200" width="1401" height="1401"/>
  </clipPath>
</defs>
<path clip-path="url(#clip560)" d="
M240.472 1759.53 L1811.02 1759.53 L1811.02 188.976 L240.472 188.976  Z
  " fill="#ffffff" fill-rule="evenodd" fill-opacity="1"/>
<defs>
  <clipPath id="clip562">
    <rect x="240" y="188" width="1572" height="1572"/>
  </clipPath>
</defs>
<polyline clip-path="url(#clip562)" style="stroke:#000000; stroke-width:2; stroke-opacity:0.1; fill:none" points="
  763.99,1759.53 763.99,188.976 
  "/>
<polyline clip-path="url(#clip562)" style="stroke:#000000; stroke-width:2; stroke-opacity:0.1; fill:none" points="
  1025.75,1759.53 1025.75,188.976 
  "/>
<polyline clip-path="url(#clip562)" style="stroke:#000000; stroke-width:2; stroke-opacity:0.1; fill:none" points="
  1287.51,1759.53 1287.51,188.976 
  "/>
<polyline clip-path="url(#clip562)" style="stroke:#000000; stroke-width:2; stroke-opacity:0.1; fill:none" points="
  240.472,1236.01 1811.02,1236.01 
  "/>
<polyline clip-path="url(#clip562)" style="stroke:#000000; stroke-width:2; stroke-opacity:0.1; fill:none" points="
  240.472,974.252 1811.02,974.252 
  "/>
<polyline clip-path="url(#clip562)" style="stroke:#000000; stroke-width:2; stroke-opacity:0.1; fill:none" points="
  240.472,712.493 1811.02,712.493 
  "/>
<polyline clip-path="url(#clip560)" style="stroke:#000000; stroke-width:4; stroke-opacity:1; fill:none" points="
  240.472,1759.53 1811.02,1759.53 
  "/>
<polyline clip-path="url(#clip560)" style="stroke:#000000; stroke-width:4; stroke-opacity:1; fill:none" points="
  240.472,1759.53 240.472,188.976 
  "/>
<polyline clip-path="url(#clip560)" style="stroke:#000000; stroke-width:4; stroke-opacity:1; fill:none" points="
  763.99,1759.53 763.99,1740.68 
  "/>
<polyline clip-path="url(#clip560)" style="stroke:#000000; stroke-width:4; stroke-opacity:1; fill:none" points="
  1025.75,1759.53 1025.75,1740.68 
  "/>
<polyline clip-path="url(#clip560)" style="stroke:#000000; stroke-width:4; stroke-opacity:1; fill:none" points="
  1287.51,1759.53 1287.51,1740.68 
  "/>
<polyline clip-path="url(#clip560)" style="stroke:#000000; stroke-width:4; stroke-opacity:1; fill:none" points="
  240.472,1236.01 259.319,1236.01 
  "/>
<polyline clip-path="url(#clip560)" style="stroke:#000000; stroke-width:4; stroke-opacity:1; fill:none" points="
  240.472,974.252 259.319,974.252 
  "/>
<polyline clip-path="url(#clip560)" style="stroke:#000000; stroke-width:4; stroke-opacity:1; fill:none" points="
  240.472,712.493 259.319,712.493 
  "/>
<path clip-path="url(#clip560)" d="M 0 0 M744.858 1796.12 L757.334 1796.12 L757.334 1799.91 L744.858 1799.91 L744.858 1796.12 Z" fill="#000000" fill-rule="evenodd" fill-opacity="1" /><path clip-path="url(#clip560)" d="M 0 0 M763.214 1807.06 L770.853 1807.06 L770.853 1780.7 L762.543 1782.37 L762.543 1778.11 L770.807 1776.44 L775.482 1776.44 L775.482 1807.06 L783.121 1807.06 L783.121 1811 L763.214 1811 L763.214 1807.06 Z" fill="#000000" fill-rule="evenodd" fill-opacity="1" /><path clip-path="url(#clip560)" d="M 0 0 M1025.75 1779.52 Q1022.14 1779.52 1020.31 1783.08 Q1018.5 1786.62 1018.5 1793.75 Q1018.5 1800.86 1020.31 1804.43 Q1022.14 1807.97 1025.75 1807.97 Q1029.38 1807.97 1031.19 1804.43 Q1033.02 1800.86 1033.02 1793.75 Q1033.02 1786.62 1031.19 1783.08 Q1029.38 1779.52 1025.75 1779.52 M1025.75 1775.81 Q1031.56 1775.81 1034.61 1780.42 Q1037.69 1785 1037.69 1793.75 Q1037.69 1802.48 1034.61 1807.09 Q1031.56 1811.67 1025.75 1811.67 Q1019.94 1811.67 1016.86 1807.09 Q1013.8 1802.48 1013.8 1793.75 Q1013.8 1785 1016.86 1780.42 Q1019.94 1775.81 1025.75 1775.81 Z" fill="#000000" fill-rule="evenodd" fill-opacity="1" /><path clip-path="url(#clip560)" d="M 0 0 M1277.89 1807.06 L1285.53 1807.06 L1285.53 1780.7 L1277.22 1782.37 L1277.22 1778.11 L1285.48 1776.44 L1290.16 1776.44 L1290.16 1807.06 L1297.8 1807.06 L1297.8 1811 L1277.89 1811 L1277.89 1807.06 Z" fill="#000000" fill-rule="evenodd" fill-opacity="1" /><path clip-path="url(#clip560)" d="M 0 0 M182.209 1238.41 L194.686 1238.41 L194.686 1242.2 L182.209 1242.2 L182.209 1238.41 Z" fill="#000000" fill-rule="evenodd" fill-opacity="1" /><path clip-path="url(#clip560)" d="M 0 0 M200.565 1249.36 L208.204 1249.36 L208.204 1222.99 L199.894 1224.66 L199.894 1220.4 L208.158 1218.73 L212.834 1218.73 L212.834 1249.36 L220.472 1249.36 L220.472 1253.29 L200.565 1253.29 L200.565 1249.36 Z" fill="#000000" fill-rule="evenodd" fill-opacity="1" /><path clip-path="url(#clip560)" d="M 0 0 M208.528 960.051 Q204.917 960.051 203.088 963.615 Q201.283 967.157 201.283 974.287 Q201.283 981.393 203.088 984.958 Q204.917 988.5 208.528 988.5 Q212.162 988.5 213.968 984.958 Q215.797 981.393 215.797 974.287 Q215.797 967.157 213.968 963.615 Q212.162 960.051 208.528 960.051 M208.528 956.347 Q214.338 956.347 217.394 960.953 Q220.472 965.537 220.472 974.287 Q220.472 983.013 217.394 987.62 Q214.338 992.203 208.528 992.203 Q202.718 992.203 199.639 987.62 Q196.584 983.013 196.584 974.287 Q196.584 965.537 199.639 960.953 Q202.718 956.347 208.528 956.347 Z" fill="#000000" fill-rule="evenodd" fill-opacity="1" /><path clip-path="url(#clip560)" d="M 0 0 M200.565 725.838 L208.204 725.838 L208.204 699.473 L199.894 701.139 L199.894 696.88 L208.158 695.213 L212.834 695.213 L212.834 725.838 L220.472 725.838 L220.472 729.773 L200.565 729.773 L200.565 725.838 Z" fill="#000000" fill-rule="evenodd" fill-opacity="1" /><path clip-path="url(#clip560)" d="M 0 0 M912.82 1840.87 L919.727 1840.87 L931.536 1858.54 L943.408 1840.87 L950.314 1840.87 L935.037 1863.69 L951.333 1888.39 L944.426 1888.39 L931.058 1868.18 L917.595 1888.39 L910.656 1888.39 L927.621 1863.02 L912.82 1840.87 Z" fill="#000000" fill-rule="evenodd" fill-opacity="1" /><path clip-path="url(#clip560)" d="M 0 0 M992.264 1838.93 Q987.999 1846.25 985.931 1853.41 Q983.862 1860.57 983.862 1867.93 Q983.862 1875.28 985.931 1882.5 Q988.031 1889.7 992.264 1896.99 L987.172 1896.99 Q982.398 1889.51 980.01 1882.28 Q977.655 1875.06 977.655 1867.93 Q977.655 1860.83 980.01 1853.63 Q982.366 1846.44 987.172 1838.93 L992.264 1838.93 Z" fill="#000000" fill-rule="evenodd" fill-opacity="1" /><path clip-path="url(#clip560)" d="M 0 0 M1004.77 1882.98 L1027.21 1882.98 L1027.21 1888.39 L997.039 1888.39 L997.039 1882.98 Q1000.7 1879.19 1007 1872.83 Q1013.33 1866.43 1014.96 1864.58 Q1018.05 1861.11 1019.26 1858.73 Q1020.5 1856.31 1020.5 1853.98 Q1020.5 1850.2 1017.82 1847.81 Q1015.18 1845.42 1010.92 1845.42 Q1007.89 1845.42 1004.52 1846.47 Q1001.18 1847.52 997.357 1849.66 L997.357 1843.16 Q1001.24 1841.6 1004.61 1840.81 Q1007.99 1840.01 1010.79 1840.01 Q1018.17 1840.01 1022.57 1843.7 Q1026.96 1847.4 1026.96 1853.57 Q1026.96 1856.5 1025.84 1859.14 Q1024.76 1861.75 1021.86 1865.32 Q1021.07 1866.24 1016.8 1870.66 Q1012.54 1875.06 1004.77 1882.98 Z" fill="#000000" fill-rule="evenodd" fill-opacity="1" /><path clip-path="url(#clip560)" d="M 0 0 M1035.3 1882.98 L1045.8 1882.98 L1045.8 1846.73 L1034.37 1849.02 L1034.37 1843.16 L1045.74 1840.87 L1052.17 1840.87 L1052.17 1882.98 L1062.67 1882.98 L1062.67 1888.39 L1035.3 1888.39 L1035.3 1882.98 Z" fill="#000000" fill-rule="evenodd" fill-opacity="1" /><path clip-path="url(#clip560)" d="M 0 0 M1110.06 1867.48 Q1107.29 1867.48 1105.7 1869.84 Q1104.14 1872.19 1104.14 1876.39 Q1104.14 1880.53 1105.7 1882.92 Q1107.29 1885.27 1110.06 1885.27 Q1112.77 1885.27 1114.33 1882.92 Q1115.92 1880.53 1115.92 1876.39 Q1115.92 1872.22 1114.33 1869.87 Q1112.77 1867.48 1110.06 1867.48 M1110.06 1863.44 Q1115.09 1863.44 1118.05 1866.94 Q1121.01 1870.44 1121.01 1876.39 Q1121.01 1882.34 1118.02 1885.85 Q1115.06 1889.31 1110.06 1889.31 Q1104.97 1889.31 1102.01 1885.85 Q1099.05 1882.34 1099.05 1876.39 Q1099.05 1870.41 1102.01 1866.94 Q1105 1863.44 1110.06 1863.44 M1077.21 1844.05 Q1074.48 1844.05 1072.89 1846.44 Q1071.33 1848.8 1071.33 1852.93 Q1071.33 1857.14 1072.89 1859.49 Q1074.45 1861.85 1077.21 1861.85 Q1079.98 1861.85 1081.54 1859.49 Q1083.13 1857.14 1083.13 1852.93 Q1083.13 1848.83 1081.54 1846.44 Q1079.95 1844.05 1077.21 1844.05 M1105.96 1840.01 L1111.05 1840.01 L1081.32 1889.31 L1076.23 1889.31 L1105.96 1840.01 M1077.21 1840.01 Q1082.24 1840.01 1085.24 1843.51 Q1088.23 1846.98 1088.23 1852.93 Q1088.23 1858.95 1085.24 1862.42 Q1082.28 1865.89 1077.21 1865.89 Q1072.15 1865.89 1069.19 1862.42 Q1066.27 1858.92 1066.27 1852.93 Q1066.27 1847.01 1069.23 1843.51 Q1072.19 1840.01 1077.21 1840.01 Z" fill="#000000" fill-rule="evenodd" fill-opacity="1" /><path clip-path="url(#clip560)" d="M 0 0 M1126.23 1838.93 L1131.32 1838.93 Q1136.1 1846.44 1138.45 1853.63 Q1140.84 1860.83 1140.84 1867.93 Q1140.84 1875.06 1138.45 1882.28 Q1136.1 1889.51 1131.32 1896.99 L1126.23 1896.99 Q1130.46 1889.7 1132.53 1882.5 Q1134.63 1875.28 1134.63 1867.93 Q1134.63 1860.57 1132.53 1853.41 Q1130.46 1846.25 1126.23 1838.93 Z" fill="#000000" fill-rule="evenodd" fill-opacity="1" /><path clip-path="url(#clip560)" d="M 0 0 M100.433 1089.69 L100.433 1082.79 L119.975 1069.61 L100.433 1056.53 L100.433 1049.62 L125.323 1066.43 L147.953 1066.43 L147.953 1072.89 L125.323 1072.89 L100.433 1089.69 Z" fill="#000000" fill-rule="evenodd" fill-opacity="1" /><path clip-path="url(#clip560)" d="M 0 0 M98.4912 1008.69 Q105.812 1012.96 112.973 1015.02 Q120.135 1017.09 127.487 1017.09 Q134.839 1017.09 142.064 1015.02 Q149.258 1012.92 156.546 1008.69 L156.546 1013.78 Q149.067 1018.56 141.842 1020.94 Q134.617 1023.3 127.487 1023.3 Q120.389 1023.3 113.196 1020.94 Q106.003 1018.59 98.4912 1013.78 L98.4912 1008.69 Z" fill="#000000" fill-rule="evenodd" fill-opacity="1" /><path clip-path="url(#clip560)" d="M 0 0 M142.542 1000.61 L142.542 990.103 L106.289 990.103 L108.581 1001.53 L102.724 1001.53 L100.433 990.166 L100.433 983.737 L142.542 983.737 L142.542 973.233 L147.953 973.233 L147.953 1000.61 L142.542 1000.61 Z" fill="#000000" fill-rule="evenodd" fill-opacity="1" /><path clip-path="url(#clip560)" d="M 0 0 M122.331 946.784 Q123.317 942.169 126.437 939.591 Q129.556 936.981 134.139 936.981 Q141.173 936.981 145.025 941.819 Q148.876 946.657 148.876 955.569 Q148.876 958.561 148.271 961.743 Q147.698 964.894 146.52 968.268 L140.314 968.268 Q141.874 965.595 142.669 962.412 Q143.465 959.229 143.465 955.76 Q143.465 949.712 141.078 946.561 Q138.691 943.378 134.139 943.378 Q129.938 943.378 127.582 946.338 Q125.195 949.267 125.195 954.518 L125.195 960.056 L119.912 960.056 L119.912 954.264 Q119.912 949.521 118.034 947.007 Q116.124 944.492 112.559 944.492 Q108.899 944.492 106.958 947.102 Q104.984 949.68 104.984 954.518 Q104.984 957.16 105.557 960.184 Q106.13 963.207 107.34 966.836 L101.61 966.836 Q100.592 963.176 100.083 959.993 Q99.5734 956.778 99.5734 953.945 Q99.5734 946.625 102.915 942.36 Q106.226 938.095 111.891 938.095 Q115.838 938.095 118.575 940.355 Q121.28 942.614 122.331 946.784 Z" fill="#000000" fill-rule="evenodd" fill-opacity="1" /><path clip-path="url(#clip560)" d="M 0 0 M127.041 889.588 Q127.041 892.357 129.397 893.949 Q131.752 895.508 135.953 895.508 Q140.091 895.508 142.478 893.949 Q144.834 892.357 144.834 889.588 Q144.834 886.883 142.478 885.323 Q140.091 883.732 135.953 883.732 Q131.784 883.732 129.429 885.323 Q127.041 886.883 127.041 889.588 M122.999 889.588 Q122.999 884.559 126.5 881.599 Q130.001 878.639 135.953 878.639 Q141.905 878.639 145.406 881.631 Q148.876 884.591 148.876 889.588 Q148.876 894.681 145.406 897.641 Q141.905 900.601 135.953 900.601 Q129.97 900.601 126.5 897.641 Q122.999 894.649 122.999 889.588 M103.616 922.435 Q103.616 925.172 106.003 926.764 Q108.358 928.323 112.496 928.323 Q116.697 928.323 119.052 926.764 Q121.408 925.204 121.408 922.435 Q121.408 919.666 119.052 918.106 Q116.697 916.515 112.496 916.515 Q108.39 916.515 106.003 918.106 Q103.616 919.698 103.616 922.435 M99.5734 893.694 L99.5734 888.601 L148.876 918.329 L148.876 923.422 L99.5734 893.694 M99.5734 922.435 Q99.5734 917.406 103.075 914.414 Q106.544 911.422 112.496 911.422 Q118.511 911.422 121.981 914.414 Q125.45 917.374 125.45 922.435 Q125.45 927.496 121.981 930.456 Q118.48 933.384 112.496 933.384 Q106.576 933.384 103.075 930.424 Q99.5734 927.464 99.5734 922.435 Z" fill="#000000" fill-rule="evenodd" fill-opacity="1" /><path clip-path="url(#clip560)" d="M 0 0 M98.4912 873.419 L98.4912 868.327 Q106.003 863.552 113.196 861.197 Q120.389 858.81 127.487 858.81 Q134.617 858.81 141.842 861.197 Q149.067 863.552 156.546 868.327 L156.546 873.419 Q149.258 869.186 142.064 867.117 Q134.839 865.016 127.487 865.016 Q120.135 865.016 112.973 867.117 Q105.812 869.186 98.4912 873.419 Z" fill="#000000" fill-rule="evenodd" fill-opacity="1" /><polyline clip-path="url(#clip562)" style="stroke:#ffa500; stroke-width:0.57127; stroke-opacity:1; fill:none" points="
  714.267,1008.83 1337.98,550.54 
  "/>
<polyline clip-path="url(#clip562)" style="stroke:#ffa500; stroke-width:0.310112; stroke-opacity:1; fill:none" points="
  925.5,1160.38 959.563,896.368 
  "/>
<polyline clip-path="url(#clip562)" style="stroke:#ffa500; stroke-width:0.344254; stroke-opacity:1; fill:none" points="
  443.814,940.497 925.5,1160.38 
  "/>
<polyline clip-path="url(#clip562)" style="stroke:#800080; stroke-width:2.41942; stroke-opacity:1; fill:none" points="
  443.814,940.497 1314.47,1292.9 
  "/>
<polyline clip-path="url(#clip562)" style="stroke:#ffa500; stroke-width:3.09601; stroke-opacity:1; fill:none" points="
  959.563,896.368 1337.98,550.54 
  "/>
<polyline clip-path="url(#clip562)" style="stroke:#800080; stroke-width:3.5991; stroke-opacity:1; fill:none" points="
  443.814,940.497 959.563,896.368 
  "/>
<polyline clip-path="url(#clip562)" style="stroke:#ffa500; stroke-width:4.58072; stroke-opacity:1; fill:none" points="
  959.563,896.368 1314.47,1292.9 
  "/>
<polyline clip-path="url(#clip562)" style="stroke:#ffa500; stroke-width:1.47784; stroke-opacity:1; fill:none" points="
  925.5,1160.38 1314.47,1292.9 
  "/>
<polyline clip-path="url(#clip562)" style="stroke:#800080; stroke-width:6.48496; stroke-opacity:1; fill:none" points="
  443.814,940.497 714.267,1008.83 
  "/>
<polyline clip-path="url(#clip562)" style="stroke:#ffa500; stroke-width:0.694986; stroke-opacity:1; fill:none" points="
  925.5,1160.38 1337.98,550.54 
  "/>
<polyline clip-path="url(#clip562)" style="stroke:#ffa500; stroke-width:8; stroke-opacity:1; fill:none" points="
  1314.47,1292.9 1337.98,550.54 
  "/>
<polyline clip-path="url(#clip562)" style="stroke:#800080; stroke-width:2.90053; stroke-opacity:1; fill:none" points="
  714.267,1008.83 959.563,896.368 
  "/>
<polyline clip-path="url(#clip562)" style="stroke:#800080; stroke-width:2.12299; stroke-opacity:1; fill:none" points="
  714.267,1008.83 925.5,1160.38 
  "/>
<polyline clip-path="url(#clip562)" style="stroke:#800080; stroke-width:2.00262; stroke-opacity:1; fill:none" points="
  443.814,940.497 1337.98,550.54 
  "/>
<polyline clip-path="url(#clip562)" style="stroke:#ffa500; stroke-width:0.179937; stroke-opacity:1; fill:none" points="
  714.267,1008.83 1314.47,1292.9 
  "/>
<circle clip-path="url(#clip562)" cx="959.563" cy="896.368" r="23" fill="#000000" fill-rule="evenodd" fill-opacity="1" stroke="none"/>
<circle clip-path="url(#clip562)" cx="714.267" cy="1008.83" r="26" fill="#000000" fill-rule="evenodd" fill-opacity="1" stroke="none"/>
<circle clip-path="url(#clip562)" cx="1337.98" cy="550.54" r="23" fill="#000000" fill-rule="evenodd" fill-opacity="1" stroke="none"/>
<circle clip-path="url(#clip562)" cx="925.5" cy="1160.38" r="8" fill="#000000" fill-rule="evenodd" fill-opacity="1" stroke="none"/>
<circle clip-path="url(#clip562)" cx="1314.47" cy="1292.9" r="28" fill="#000000" fill-rule="evenodd" fill-opacity="1" stroke="none"/>
<circle clip-path="url(#clip562)" cx="443.814" cy="940.497" r="8" fill="#000000" fill-rule="evenodd" fill-opacity="1" stroke="none"/>
<path clip-path="url(#clip560)" d="M 0 0 M932.487 903.09 L932.487 919.886 L936.017 919.886 Q940.488 919.886 942.557 917.861 Q944.64 915.835 944.64 911.466 Q944.64 907.126 942.557 905.115 Q940.488 903.09 936.017 903.09 L932.487 903.09 M929.565 900.688 L935.569 900.688 Q941.848 900.688 944.785 903.307 Q947.721 905.911 947.721 911.466 Q947.721 917.051 944.77 919.669 Q941.819 922.288 935.569 922.288 L929.565 922.288 L929.565 900.688 Z" fill="#000000" fill-rule="evenodd" fill-opacity="1" /><path clip-path="url(#clip560)" d="M 0 0 M957.878 914.143 Q954.651 914.143 953.407 914.881 Q952.163 915.618 952.163 917.398 Q952.163 918.816 953.089 919.655 Q954.029 920.48 955.635 920.48 Q957.849 920.48 959.18 918.917 Q960.525 917.34 960.525 914.736 L960.525 914.143 L957.878 914.143 M963.187 913.043 L963.187 922.288 L960.525 922.288 L960.525 919.828 Q959.614 921.304 958.254 922.013 Q956.894 922.708 954.926 922.708 Q952.438 922.708 950.962 921.319 Q949.501 919.915 949.501 917.572 Q949.501 914.837 951.324 913.448 Q953.161 912.059 956.793 912.059 L960.525 912.059 L960.525 911.799 Q960.525 909.962 959.31 908.963 Q958.109 907.951 955.925 907.951 Q954.536 907.951 953.219 908.283 Q951.903 908.616 950.687 909.282 L950.687 906.822 Q952.149 906.258 953.523 905.983 Q954.897 905.694 956.199 905.694 Q959.715 905.694 961.451 907.517 Q963.187 909.34 963.187 913.043 Z" fill="#000000" fill-rule="evenodd" fill-opacity="1" /><path clip-path="url(#clip560)" d="M 0 0 M968.613 901.484 L968.613 906.084 L974.096 906.084 L974.096 908.153 L968.613 908.153 L968.613 916.949 Q968.613 918.931 969.148 919.496 Q969.698 920.06 971.361 920.06 L974.096 920.06 L974.096 922.288 L971.361 922.288 Q968.28 922.288 967.108 921.145 Q965.936 919.988 965.936 916.949 L965.936 908.153 L963.983 908.153 L963.983 906.084 L965.936 906.084 L965.936 901.484 L968.613 901.484 Z" fill="#000000" fill-rule="evenodd" fill-opacity="1" /><path clip-path="url(#clip560)" d="M 0 0 M984.252 914.143 Q981.026 914.143 979.781 914.881 Q978.537 915.618 978.537 917.398 Q978.537 918.816 979.463 919.655 Q980.404 920.48 982.009 920.48 Q984.223 920.48 985.554 918.917 Q986.899 917.34 986.899 914.736 L986.899 914.143 L984.252 914.143 M989.562 913.043 L989.562 922.288 L986.899 922.288 L986.899 919.828 Q985.988 921.304 984.628 922.013 Q983.268 922.708 981.301 922.708 Q978.812 922.708 977.336 921.319 Q975.875 919.915 975.875 917.572 Q975.875 914.837 977.698 913.448 Q979.536 912.059 983.167 912.059 L986.899 912.059 L986.899 911.799 Q986.899 909.962 985.684 908.963 Q984.483 907.951 982.299 907.951 Q980.91 907.951 979.593 908.283 Q978.277 908.616 977.062 909.282 L977.062 906.822 Q978.523 906.258 979.897 905.983 Q981.272 905.694 982.574 905.694 Q986.089 905.694 987.825 907.517 Q989.562 909.34 989.562 913.043 Z" fill="#000000" fill-rule="evenodd" fill-opacity="1" /><path clip-path="url(#clip560)" d="M 0 0 M572.362 1013.15 L590.635 1013.15 L590.635 1015.61 L582.967 1015.61 L582.967 1034.75 L580.03 1034.75 L580.03 1015.61 L572.362 1015.61 L572.362 1013.15 Z" fill="#000000" fill-rule="evenodd" fill-opacity="1" /><path clip-path="url(#clip560)" d="M 0 0 M602.252 1025.98 L602.252 1027.28 L590.013 1027.28 Q590.186 1030.03 591.662 1031.48 Q593.152 1032.91 595.8 1032.91 Q597.333 1032.91 598.766 1032.54 Q600.212 1032.16 601.63 1031.41 L601.63 1033.93 Q600.198 1034.53 598.693 1034.85 Q597.189 1035.17 595.641 1035.17 Q591.763 1035.17 589.492 1032.91 Q587.235 1030.66 587.235 1026.81 Q587.235 1022.83 589.376 1020.5 Q591.532 1018.16 595.178 1018.16 Q598.447 1018.16 600.342 1020.27 Q602.252 1022.37 602.252 1025.98 M599.59 1025.2 Q599.561 1023.02 598.36 1021.71 Q597.174 1020.41 595.207 1020.41 Q592.979 1020.41 591.633 1021.67 Q590.302 1022.93 590.099 1025.22 L599.59 1025.2 Z" fill="#000000" fill-rule="evenodd" fill-opacity="1" /><path clip-path="url(#clip560)" d="M 0 0 M616.705 1019.17 L616.705 1021.66 Q615.577 1021.03 614.434 1020.73 Q613.305 1020.41 612.148 1020.41 Q609.558 1020.41 608.126 1022.06 Q606.694 1023.7 606.694 1026.66 Q606.694 1029.63 608.126 1031.28 Q609.558 1032.91 612.148 1032.91 Q613.305 1032.91 614.434 1032.61 Q615.577 1032.29 616.705 1031.67 L616.705 1034.13 Q615.591 1034.65 614.39 1034.91 Q613.204 1035.17 611.859 1035.17 Q608.198 1035.17 606.043 1032.87 Q603.887 1030.57 603.887 1026.66 Q603.887 1022.7 606.057 1020.43 Q608.242 1018.16 612.032 1018.16 Q613.262 1018.16 614.434 1018.42 Q615.606 1018.66 616.705 1019.17 Z" fill="#000000" fill-rule="evenodd" fill-opacity="1" /><path clip-path="url(#clip560)" d="M 0 0 M632.967 1024.97 L632.967 1034.75 L630.305 1034.75 L630.305 1025.06 Q630.305 1022.76 629.408 1021.61 Q628.511 1020.47 626.717 1020.47 Q624.561 1020.47 623.317 1021.85 Q622.073 1023.22 622.073 1025.59 L622.073 1034.75 L619.396 1034.75 L619.396 1012.24 L622.073 1012.24 L622.073 1021.06 Q623.028 1019.6 624.315 1018.88 Q625.617 1018.16 627.31 1018.16 Q630.102 1018.16 631.534 1019.89 Q632.967 1021.61 632.967 1024.97 Z" fill="#000000" fill-rule="evenodd" fill-opacity="1" /><path clip-path="url(#clip560)" d="M 0 0 M649.228 1024.97 L649.228 1034.75 L646.566 1034.75 L646.566 1025.06 Q646.566 1022.76 645.669 1021.61 Q644.772 1020.47 642.978 1020.47 Q640.823 1020.47 639.578 1021.85 Q638.334 1023.22 638.334 1025.59 L638.334 1034.75 L635.658 1034.75 L635.658 1018.55 L638.334 1018.55 L638.334 1021.06 Q639.289 1019.6 640.577 1018.88 Q641.879 1018.16 643.571 1018.16 Q646.364 1018.16 647.796 1019.89 Q649.228 1021.61 649.228 1024.97 Z" fill="#000000" fill-rule="evenodd" fill-opacity="1" /><path clip-path="url(#clip560)" d="M 0 0 M652.02 1018.55 L654.682 1018.55 L654.682 1034.75 L652.02 1034.75 L652.02 1018.55 M652.02 1012.24 L654.682 1012.24 L654.682 1015.61 L652.02 1015.61 L652.02 1012.24 Z" fill="#000000" fill-rule="evenodd" fill-opacity="1" /><path clip-path="url(#clip560)" d="M 0 0 M669.136 1019.17 L669.136 1021.66 Q668.007 1021.03 666.864 1020.73 Q665.736 1020.41 664.578 1020.41 Q661.989 1020.41 660.556 1022.06 Q659.124 1023.7 659.124 1026.66 Q659.124 1029.63 660.556 1031.28 Q661.989 1032.91 664.578 1032.91 Q665.736 1032.91 666.864 1032.61 Q668.007 1032.29 669.136 1031.67 L669.136 1034.13 Q668.022 1034.65 666.821 1034.91 Q665.634 1035.17 664.289 1035.17 Q660.629 1035.17 658.473 1032.87 Q656.317 1030.57 656.317 1026.66 Q656.317 1022.7 658.487 1020.43 Q660.672 1018.16 664.463 1018.16 Q665.692 1018.16 666.864 1018.42 Q668.036 1018.66 669.136 1019.17 Z" fill="#000000" fill-rule="evenodd" fill-opacity="1" /><path clip-path="url(#clip560)" d="M 0 0 M679.292 1026.6 Q676.065 1026.6 674.821 1027.34 Q673.577 1028.08 673.577 1029.86 Q673.577 1031.28 674.503 1032.12 Q675.443 1032.94 677.049 1032.94 Q679.263 1032.94 680.594 1031.38 Q681.939 1029.8 681.939 1027.2 L681.939 1026.6 L679.292 1026.6 M684.601 1025.51 L684.601 1034.75 L681.939 1034.75 L681.939 1032.29 Q681.028 1033.77 679.668 1034.48 Q678.308 1035.17 676.34 1035.17 Q673.852 1035.17 672.376 1033.78 Q670.915 1032.38 670.915 1030.03 Q670.915 1027.3 672.738 1025.91 Q674.575 1024.52 678.207 1024.52 L681.939 1024.52 L681.939 1024.26 Q681.939 1022.42 680.724 1021.43 Q679.523 1020.41 677.339 1020.41 Q675.95 1020.41 674.633 1020.75 Q673.317 1021.08 672.101 1021.74 L672.101 1019.28 Q673.563 1018.72 674.937 1018.45 Q676.311 1018.16 677.613 1018.16 Q681.129 1018.16 682.865 1019.98 Q684.601 1021.8 684.601 1025.51 Z" fill="#000000" fill-rule="evenodd" fill-opacity="1" /><path clip-path="url(#clip560)" d="M 0 0 M687.394 1012.24 L690.056 1012.24 L690.056 1034.75 L687.394 1034.75 L687.394 1012.24 Z" fill="#000000" fill-rule="evenodd" fill-opacity="1" /><path clip-path="url(#clip560)" d="M 0 0 M705.16 1039.67 L705.16 1041.74 L689.766 1041.74 L689.766 1039.67 L705.16 1039.67 Z" fill="#000000" fill-rule="evenodd" fill-opacity="1" /><path clip-path="url(#clip560)" d="M 0 0 M724.242 1014.81 L724.242 1017.9 Q722.767 1016.52 721.088 1015.84 Q719.425 1015.16 717.544 1015.16 Q713.84 1015.16 711.873 1017.43 Q709.905 1019.69 709.905 1023.97 Q709.905 1028.24 711.873 1030.51 Q713.84 1032.77 717.544 1032.77 Q719.425 1032.77 721.088 1032.09 Q722.767 1031.41 724.242 1030.03 L724.242 1033.09 Q722.709 1034.13 720.987 1034.65 Q719.28 1035.17 717.37 1035.17 Q712.466 1035.17 709.645 1032.17 Q706.823 1029.17 706.823 1023.97 Q706.823 1018.76 709.645 1015.77 Q712.466 1012.76 717.37 1012.76 Q719.309 1012.76 721.016 1013.28 Q722.738 1013.79 724.242 1014.81 Z" fill="#000000" fill-rule="evenodd" fill-opacity="1" /><path clip-path="url(#clip560)" d="M 0 0 M733.313 1020.41 Q731.172 1020.41 729.928 1022.09 Q728.684 1023.75 728.684 1026.66 Q728.684 1029.57 729.914 1031.25 Q731.158 1032.91 733.313 1032.91 Q735.44 1032.91 736.684 1031.23 Q737.929 1029.56 737.929 1026.66 Q737.929 1023.78 736.684 1022.11 Q735.44 1020.41 733.313 1020.41 M733.313 1018.16 Q736.786 1018.16 738.768 1020.41 Q740.75 1022.67 740.75 1026.66 Q740.75 1030.64 738.768 1032.91 Q736.786 1035.17 733.313 1035.17 Q729.827 1035.17 727.845 1032.91 Q725.877 1030.64 725.877 1026.66 Q725.877 1022.67 727.845 1020.41 Q729.827 1018.16 733.313 1018.16 Z" fill="#000000" fill-rule="evenodd" fill-opacity="1" /><path clip-path="url(#clip560)" d="M 0 0 M757.011 1024.97 L757.011 1034.75 L754.349 1034.75 L754.349 1025.06 Q754.349 1022.76 753.452 1021.61 Q752.555 1020.47 750.761 1020.47 Q748.606 1020.47 747.361 1021.85 Q746.117 1023.22 746.117 1025.59 L746.117 1034.75 L743.441 1034.75 L743.441 1018.55 L746.117 1018.55 L746.117 1021.06 Q747.072 1019.6 748.36 1018.88 Q749.662 1018.16 751.354 1018.16 Q754.147 1018.16 755.579 1019.89 Q757.011 1021.61 757.011 1024.97 Z" fill="#000000" fill-rule="evenodd" fill-opacity="1" /><path clip-path="url(#clip560)" d="M 0 0 M770.133 1019.02 L770.133 1021.54 Q769.005 1020.96 767.789 1020.67 Q766.574 1020.38 765.272 1020.38 Q763.29 1020.38 762.292 1020.99 Q761.308 1021.6 761.308 1022.81 Q761.308 1023.74 762.017 1024.28 Q762.726 1024.8 764.867 1025.27 L765.779 1025.48 Q768.614 1026.08 769.8 1027.2 Q771.001 1028.3 771.001 1030.28 Q771.001 1032.54 769.207 1033.85 Q767.428 1035.17 764.303 1035.17 Q763.001 1035.17 761.583 1034.91 Q760.18 1034.66 758.617 1034.16 L758.617 1031.41 Q760.093 1032.17 761.525 1032.57 Q762.957 1032.94 764.361 1032.94 Q766.241 1032.94 767.254 1032.31 Q768.267 1031.65 768.267 1030.48 Q768.267 1029.4 767.529 1028.82 Q766.806 1028.24 764.332 1027.7 L763.406 1027.49 Q760.932 1026.97 759.832 1025.9 Q758.733 1024.81 758.733 1022.93 Q758.733 1020.64 760.353 1019.4 Q761.974 1018.16 764.954 1018.16 Q766.43 1018.16 767.732 1018.37 Q769.034 1018.59 770.133 1019.02 Z" fill="#000000" fill-rule="evenodd" fill-opacity="1" /><path clip-path="url(#clip560)" d="M 0 0 M776.427 1013.95 L776.427 1018.55 L781.91 1018.55 L781.91 1020.62 L776.427 1020.62 L776.427 1029.41 Q776.427 1031.39 776.962 1031.96 Q777.512 1032.52 779.175 1032.52 L781.91 1032.52 L781.91 1034.75 L779.175 1034.75 Q776.094 1034.75 774.922 1033.61 Q773.75 1032.45 773.75 1029.41 L773.75 1020.62 L771.797 1020.62 L771.797 1018.55 L773.75 1018.55 L773.75 1013.95 L776.427 1013.95 Z" fill="#000000" fill-rule="evenodd" fill-opacity="1" /><path clip-path="url(#clip560)" d="M 0 0 M794.091 1021.03 Q793.643 1020.77 793.108 1020.66 Q792.587 1020.53 791.95 1020.53 Q789.693 1020.53 788.478 1022 Q787.277 1023.47 787.277 1026.21 L787.277 1034.75 L784.601 1034.75 L784.601 1018.55 L787.277 1018.55 L787.277 1021.06 Q788.116 1019.59 789.462 1018.88 Q790.807 1018.16 792.731 1018.16 Q793.006 1018.16 793.339 1018.2 Q793.672 1018.23 794.077 1018.3 L794.091 1021.03 Z" fill="#000000" fill-rule="evenodd" fill-opacity="1" /><path clip-path="url(#clip560)" d="M 0 0 M804.248 1026.6 Q801.021 1026.6 799.777 1027.34 Q798.533 1028.08 798.533 1029.86 Q798.533 1031.28 799.459 1032.12 Q800.399 1032.94 802.005 1032.94 Q804.219 1032.94 805.55 1031.38 Q806.895 1029.8 806.895 1027.2 L806.895 1026.6 L804.248 1026.6 M809.557 1025.51 L809.557 1034.75 L806.895 1034.75 L806.895 1032.29 Q805.984 1033.77 804.624 1034.48 Q803.264 1035.17 801.296 1035.17 Q798.808 1035.17 797.332 1033.78 Q795.871 1032.38 795.871 1030.03 Q795.871 1027.3 797.694 1025.91 Q799.531 1024.52 803.163 1024.52 L806.895 1024.52 L806.895 1024.26 Q806.895 1022.42 805.68 1021.43 Q804.479 1020.41 802.295 1020.41 Q800.906 1020.41 799.589 1020.75 Q798.273 1021.08 797.057 1021.74 L797.057 1019.28 Q798.518 1018.72 799.893 1018.45 Q801.267 1018.16 802.569 1018.16 Q806.085 1018.16 807.821 1019.98 Q809.557 1021.8 809.557 1025.51 Z" fill="#000000" fill-rule="evenodd" fill-opacity="1" /><path clip-path="url(#clip560)" d="M 0 0 M812.349 1018.55 L815.011 1018.55 L815.011 1034.75 L812.349 1034.75 L812.349 1018.55 M812.349 1012.24 L815.011 1012.24 L815.011 1015.61 L812.349 1015.61 L812.349 1012.24 Z" fill="#000000" fill-rule="evenodd" fill-opacity="1" /><path clip-path="url(#clip560)" d="M 0 0 M831.273 1024.97 L831.273 1034.75 L828.611 1034.75 L828.611 1025.06 Q828.611 1022.76 827.714 1021.61 Q826.817 1020.47 825.023 1020.47 Q822.867 1020.47 821.623 1021.85 Q820.379 1023.22 820.379 1025.59 L820.379 1034.75 L817.702 1034.75 L817.702 1018.55 L820.379 1018.55 L820.379 1021.06 Q821.334 1019.6 822.621 1018.88 Q823.923 1018.16 825.616 1018.16 Q828.408 1018.16 829.841 1019.89 Q831.273 1021.61 831.273 1024.97 Z" fill="#000000" fill-rule="evenodd" fill-opacity="1" /><path clip-path="url(#clip560)" d="M 0 0 M836.698 1013.95 L836.698 1018.55 L842.181 1018.55 L842.181 1020.62 L836.698 1020.62 L836.698 1029.41 Q836.698 1031.39 837.234 1031.96 Q837.783 1032.52 839.447 1032.52 L842.181 1032.52 L842.181 1034.75 L839.447 1034.75 Q836.366 1034.75 835.194 1033.61 Q834.022 1032.45 834.022 1029.41 L834.022 1020.62 L832.069 1020.62 L832.069 1018.55 L834.022 1018.55 L834.022 1013.95 L836.698 1013.95 Z" fill="#000000" fill-rule="evenodd" fill-opacity="1" /><path clip-path="url(#clip560)" d="M 0 0 M855.303 1019.02 L855.303 1021.54 Q854.175 1020.96 852.96 1020.67 Q851.744 1020.38 850.442 1020.38 Q848.46 1020.38 847.462 1020.99 Q846.478 1021.6 846.478 1022.81 Q846.478 1023.74 847.187 1024.28 Q847.896 1024.8 850.037 1025.27 L850.949 1025.48 Q853.784 1026.08 854.971 1027.2 Q856.172 1028.3 856.172 1030.28 Q856.172 1032.54 854.378 1033.85 Q852.598 1035.17 849.473 1035.17 Q848.171 1035.17 846.753 1034.91 Q845.35 1034.66 843.787 1034.16 L843.787 1031.41 Q845.263 1032.17 846.695 1032.57 Q848.128 1032.94 849.531 1032.94 Q851.412 1032.94 852.424 1032.31 Q853.437 1031.65 853.437 1030.48 Q853.437 1029.4 852.699 1028.82 Q851.976 1028.24 849.502 1027.7 L848.576 1027.49 Q846.102 1026.97 845.003 1025.9 Q843.903 1024.81 843.903 1022.93 Q843.903 1020.64 845.523 1019.4 Q847.144 1018.16 850.124 1018.16 Q851.6 1018.16 852.902 1018.37 Q854.204 1018.59 855.303 1019.02 Z" fill="#000000" fill-rule="evenodd" fill-opacity="1" /><path clip-path="url(#clip560)" d="M 0 0 M1170.63 557.262 L1170.63 565.378 L1174.31 565.378 Q1176.35 565.378 1177.46 564.322 Q1178.58 563.266 1178.58 561.313 Q1178.58 559.374 1177.46 558.318 Q1176.35 557.262 1174.31 557.262 L1170.63 557.262 M1167.71 554.86 L1174.31 554.86 Q1177.94 554.86 1179.79 556.51 Q1181.66 558.145 1181.66 561.313 Q1181.66 564.51 1179.79 566.145 Q1177.94 567.78 1174.31 567.78 L1170.63 567.78 L1170.63 576.46 L1167.71 576.46 L1167.71 554.86 Z" fill="#000000" fill-rule="evenodd" fill-opacity="1" /><path clip-path="url(#clip560)" d="M 0 0 M1197.25 567.693 L1197.25 568.995 L1185.01 568.995 Q1185.19 571.744 1186.66 573.191 Q1188.15 574.623 1190.8 574.623 Q1192.33 574.623 1193.77 574.247 Q1195.21 573.871 1196.63 573.118 L1196.63 575.636 Q1195.2 576.243 1193.69 576.562 Q1192.19 576.88 1190.64 576.88 Q1186.76 576.88 1184.49 574.623 Q1182.24 572.366 1182.24 568.518 Q1182.24 564.539 1184.38 562.21 Q1186.53 559.866 1190.18 559.866 Q1193.45 559.866 1195.34 561.978 Q1197.25 564.076 1197.25 567.693 M1194.59 566.912 Q1194.56 564.727 1193.36 563.425 Q1192.17 562.123 1190.21 562.123 Q1187.98 562.123 1186.63 563.382 Q1185.3 564.64 1185.1 566.926 L1194.59 566.912 Z" fill="#000000" fill-rule="evenodd" fill-opacity="1" /><path clip-path="url(#clip560)" d="M 0 0 M1209.43 562.745 Q1208.99 562.485 1208.45 562.369 Q1207.93 562.239 1207.29 562.239 Q1205.04 562.239 1203.82 563.715 Q1202.62 565.176 1202.62 567.925 L1202.62 576.46 L1199.94 576.46 L1199.94 560.257 L1202.62 560.257 L1202.62 562.774 Q1203.46 561.298 1204.8 560.59 Q1206.15 559.866 1208.07 559.866 Q1208.35 559.866 1208.68 559.91 Q1209.01 559.939 1209.42 560.011 L1209.43 562.745 Z" fill="#000000" fill-rule="evenodd" fill-opacity="1" /><path clip-path="url(#clip560)" d="M 0 0 M1220.43 553.949 L1220.43 556.162 L1217.88 556.162 Q1216.45 556.162 1215.89 556.741 Q1215.34 557.32 1215.34 558.825 L1215.34 560.257 L1219.72 560.257 L1219.72 562.326 L1215.34 562.326 L1215.34 576.46 L1212.66 576.46 L1212.66 562.326 L1210.11 562.326 L1210.11 560.257 L1212.66 560.257 L1212.66 559.128 Q1212.66 556.423 1213.92 555.193 Q1215.18 553.949 1217.91 553.949 L1220.43 553.949 Z" fill="#000000" fill-rule="evenodd" fill-opacity="1" /><path clip-path="url(#clip560)" d="M 0 0 M1229.5 562.123 Q1227.36 562.123 1226.12 563.801 Q1224.87 565.465 1224.87 568.373 Q1224.87 571.281 1226.1 572.959 Q1227.35 574.623 1229.5 574.623 Q1231.63 574.623 1232.87 572.945 Q1234.12 571.267 1234.12 568.373 Q1234.12 565.494 1232.87 563.816 Q1231.63 562.123 1229.5 562.123 M1229.5 559.866 Q1232.97 559.866 1234.96 562.123 Q1236.94 564.38 1236.94 568.373 Q1236.94 572.352 1234.96 574.623 Q1232.97 576.88 1229.5 576.88 Q1226.01 576.88 1224.03 574.623 Q1222.06 572.352 1222.06 568.373 Q1222.06 564.38 1224.03 562.123 Q1226.01 559.866 1229.5 559.866 Z" fill="#000000" fill-rule="evenodd" fill-opacity="1" /><path clip-path="url(#clip560)" d="M 0 0 M1249.12 562.745 Q1248.67 562.485 1248.14 562.369 Q1247.61 562.239 1246.98 562.239 Q1244.72 562.239 1243.51 563.715 Q1242.3 565.176 1242.3 567.925 L1242.3 576.46 L1239.63 576.46 L1239.63 560.257 L1242.3 560.257 L1242.3 562.774 Q1243.14 561.298 1244.49 560.59 Q1245.83 559.866 1247.76 559.866 Q1248.03 559.866 1248.37 559.91 Q1248.7 559.939 1249.1 560.011 L1249.12 562.745 Z" fill="#000000" fill-rule="evenodd" fill-opacity="1" /><path clip-path="url(#clip560)" d="M 0 0 M1264.01 563.367 Q1265 561.573 1266.39 560.72 Q1267.78 559.866 1269.66 559.866 Q1272.19 559.866 1273.57 561.646 Q1274.94 563.411 1274.94 566.68 L1274.94 576.46 L1272.27 576.46 L1272.27 566.767 Q1272.27 564.438 1271.44 563.309 Q1270.62 562.181 1268.92 562.181 Q1266.86 562.181 1265.66 563.555 Q1264.45 564.93 1264.45 567.302 L1264.45 576.46 L1261.78 576.46 L1261.78 566.767 Q1261.78 564.423 1260.95 563.309 Q1260.13 562.181 1258.41 562.181 Q1256.37 562.181 1255.17 563.57 Q1253.97 564.944 1253.97 567.302 L1253.97 576.46 L1251.29 576.46 L1251.29 560.257 L1253.97 560.257 L1253.97 562.774 Q1254.88 561.284 1256.15 560.575 Q1257.42 559.866 1259.17 559.866 Q1260.94 559.866 1262.17 560.763 Q1263.41 561.66 1264.01 563.367 Z" fill="#000000" fill-rule="evenodd" fill-opacity="1" /><path clip-path="url(#clip560)" d="M 0 0 M1285.1 568.315 Q1281.87 568.315 1280.63 569.053 Q1279.38 569.791 1279.38 571.57 Q1279.38 572.988 1280.31 573.827 Q1281.25 574.652 1282.86 574.652 Q1285.07 574.652 1286.4 573.089 Q1287.75 571.513 1287.75 568.908 L1287.75 568.315 L1285.1 568.315 M1290.41 567.216 L1290.41 576.46 L1287.75 576.46 L1287.75 574.001 Q1286.84 575.477 1285.48 576.186 Q1284.12 576.88 1282.15 576.88 Q1279.66 576.88 1278.18 575.491 Q1276.72 574.088 1276.72 571.744 Q1276.72 569.01 1278.55 567.621 Q1280.38 566.232 1284.01 566.232 L1287.75 566.232 L1287.75 565.971 Q1287.75 564.134 1286.53 563.136 Q1285.33 562.123 1283.15 562.123 Q1281.76 562.123 1280.44 562.456 Q1279.12 562.789 1277.91 563.454 L1277.91 560.995 Q1279.37 560.43 1280.74 560.156 Q1282.12 559.866 1283.42 559.866 Q1286.94 559.866 1288.67 561.689 Q1290.41 563.512 1290.41 567.216 Z" fill="#000000" fill-rule="evenodd" fill-opacity="1" /><path clip-path="url(#clip560)" d="M 0 0 M1306.67 566.68 L1306.67 576.46 L1304.01 576.46 L1304.01 566.767 Q1304.01 564.467 1303.11 563.324 Q1302.21 562.181 1300.42 562.181 Q1298.26 562.181 1297.02 563.555 Q1295.78 564.93 1295.78 567.302 L1295.78 576.46 L1293.1 576.46 L1293.1 560.257 L1295.78 560.257 L1295.78 562.774 Q1296.73 561.313 1298.02 560.59 Q1299.32 559.866 1301.01 559.866 Q1303.81 559.866 1305.24 561.602 Q1306.67 563.324 1306.67 566.68 Z" fill="#000000" fill-rule="evenodd" fill-opacity="1" /><path clip-path="url(#clip560)" d="M 0 0 M1321.12 560.879 L1321.12 563.367 Q1320 562.745 1318.85 562.441 Q1317.72 562.123 1316.57 562.123 Q1313.98 562.123 1312.54 563.772 Q1311.11 565.407 1311.11 568.373 Q1311.11 571.339 1312.54 572.988 Q1313.98 574.623 1316.57 574.623 Q1317.72 574.623 1318.85 574.319 Q1320 574.001 1321.12 573.379 L1321.12 575.838 Q1320.01 576.359 1318.81 576.62 Q1317.62 576.88 1316.28 576.88 Q1312.62 576.88 1310.46 574.58 Q1308.31 572.279 1308.31 568.373 Q1308.31 564.409 1310.48 562.138 Q1312.66 559.866 1316.45 559.866 Q1317.68 559.866 1318.85 560.127 Q1320.02 560.373 1321.12 560.879 Z" fill="#000000" fill-rule="evenodd" fill-opacity="1" /><path clip-path="url(#clip560)" d="M 0 0 M1337.78 567.693 L1337.78 568.995 L1325.54 568.995 Q1325.71 571.744 1327.19 573.191 Q1328.68 574.623 1331.32 574.623 Q1332.86 574.623 1334.29 574.247 Q1335.74 573.871 1337.15 573.118 L1337.15 575.636 Q1335.72 576.243 1334.22 576.562 Q1332.71 576.88 1331.16 576.88 Q1327.29 576.88 1325.02 574.623 Q1322.76 572.366 1322.76 568.518 Q1322.76 564.539 1324.9 562.21 Q1327.06 559.866 1330.7 559.866 Q1333.97 559.866 1335.87 561.978 Q1337.78 564.076 1337.78 567.693 M1335.11 566.912 Q1335.08 564.727 1333.88 563.425 Q1332.7 562.123 1330.73 562.123 Q1328.5 562.123 1327.16 563.382 Q1325.83 564.64 1325.62 566.926 L1335.11 566.912 Z" fill="#000000" fill-rule="evenodd" fill-opacity="1" /><path clip-path="url(#clip560)" d="M 0 0 M1352.88 581.379 L1352.88 583.448 L1337.49 583.448 L1337.49 581.379 L1352.88 581.379 Z" fill="#000000" fill-rule="evenodd" fill-opacity="1" /><path clip-path="url(#clip560)" d="M 0 0 M1358.71 557.262 L1358.71 565.378 L1362.39 565.378 Q1364.42 565.378 1365.54 564.322 Q1366.65 563.266 1366.65 561.313 Q1366.65 559.374 1365.54 558.318 Q1364.42 557.262 1362.39 557.262 L1358.71 557.262 M1355.79 554.86 L1362.39 554.86 Q1366.02 554.86 1367.87 556.51 Q1369.73 558.145 1369.73 561.313 Q1369.73 564.51 1367.87 566.145 Q1366.02 567.78 1362.39 567.78 L1358.71 567.78 L1358.71 576.46 L1355.79 576.46 L1355.79 554.86 Z" fill="#000000" fill-rule="evenodd" fill-opacity="1" /><path clip-path="url(#clip560)" d="M 0 0 M1378.56 568.315 Q1375.33 568.315 1374.09 569.053 Q1372.85 569.791 1372.85 571.57 Q1372.85 572.988 1373.77 573.827 Q1374.71 574.652 1376.32 574.652 Q1378.53 574.652 1379.86 573.089 Q1381.21 571.513 1381.21 568.908 L1381.21 568.315 L1378.56 568.315 M1383.87 567.216 L1383.87 576.46 L1381.21 576.46 L1381.21 574.001 Q1380.3 575.477 1378.94 576.186 Q1377.58 576.88 1375.61 576.88 Q1373.12 576.88 1371.64 575.491 Q1370.18 574.088 1370.18 571.744 Q1370.18 569.01 1372.01 567.621 Q1373.84 566.232 1377.47 566.232 L1381.21 566.232 L1381.21 565.971 Q1381.21 564.134 1379.99 563.136 Q1378.79 562.123 1376.61 562.123 Q1375.22 562.123 1373.9 562.456 Q1372.58 562.789 1371.37 563.454 L1371.37 560.995 Q1372.83 560.43 1374.2 560.156 Q1375.58 559.866 1376.88 559.866 Q1380.4 559.866 1382.13 561.689 Q1383.87 563.512 1383.87 567.216 Z" fill="#000000" fill-rule="evenodd" fill-opacity="1" /><path clip-path="url(#clip560)" d="M 0 0 M1396.05 562.745 Q1395.6 562.485 1395.07 562.369 Q1394.55 562.239 1393.91 562.239 Q1391.65 562.239 1390.44 563.715 Q1389.24 565.176 1389.24 567.925 L1389.24 576.46 L1386.56 576.46 L1386.56 560.257 L1389.24 560.257 L1389.24 562.774 Q1390.08 561.298 1391.42 560.59 Q1392.77 559.866 1394.69 559.866 Q1394.97 559.866 1395.3 559.91 Q1395.63 559.939 1396.04 560.011 L1396.05 562.745 Z" fill="#000000" fill-rule="evenodd" fill-opacity="1" /><path clip-path="url(#clip560)" d="M 0 0 M1406.21 568.315 Q1402.98 568.315 1401.74 569.053 Q1400.49 569.791 1400.49 571.57 Q1400.49 572.988 1401.42 573.827 Q1402.36 574.652 1403.96 574.652 Q1406.18 574.652 1407.51 573.089 Q1408.85 571.513 1408.85 568.908 L1408.85 568.315 L1406.21 568.315 M1411.52 567.216 L1411.52 576.46 L1408.85 576.46 L1408.85 574.001 Q1407.94 575.477 1406.58 576.186 Q1405.22 576.88 1403.26 576.88 Q1400.77 576.88 1399.29 575.491 Q1397.83 574.088 1397.83 571.744 Q1397.83 569.01 1399.65 567.621 Q1401.49 566.232 1405.12 566.232 L1408.85 566.232 L1408.85 565.971 Q1408.85 564.134 1407.64 563.136 Q1406.44 562.123 1404.25 562.123 Q1402.87 562.123 1401.55 562.456 Q1400.23 562.789 1399.02 563.454 L1399.02 560.995 Q1400.48 560.43 1401.85 560.156 Q1403.23 559.866 1404.53 559.866 Q1408.04 559.866 1409.78 561.689 Q1411.52 563.512 1411.52 567.216 Z" fill="#000000" fill-rule="evenodd" fill-opacity="1" /><path clip-path="url(#clip560)" d="M 0 0 M1426.92 563.367 Q1427.92 561.573 1429.31 560.72 Q1430.7 559.866 1432.58 559.866 Q1435.11 559.866 1436.49 561.646 Q1437.86 563.411 1437.86 566.68 L1437.86 576.46 L1435.19 576.46 L1435.19 566.767 Q1435.19 564.438 1434.36 563.309 Q1433.54 562.181 1431.84 562.181 Q1429.77 562.181 1428.57 563.555 Q1427.37 564.93 1427.37 567.302 L1427.37 576.46 L1424.7 576.46 L1424.7 566.767 Q1424.7 564.423 1423.87 563.309 Q1423.05 562.181 1421.33 562.181 Q1419.29 562.181 1418.08 563.57 Q1416.88 564.944 1416.88 567.302 L1416.88 576.46 L1414.21 576.46 L1414.21 560.257 L1416.88 560.257 L1416.88 562.774 Q1417.8 561.284 1419.07 560.575 Q1420.34 559.866 1422.09 559.866 Q1423.86 559.866 1425.09 560.763 Q1426.33 561.66 1426.92 563.367 Z" fill="#000000" fill-rule="evenodd" fill-opacity="1" /><path clip-path="url(#clip560)" d="M 0 0 M1454.51 567.693 L1454.51 568.995 L1442.27 568.995 Q1442.45 571.744 1443.92 573.191 Q1445.41 574.623 1448.06 574.623 Q1449.6 574.623 1451.03 574.247 Q1452.47 573.871 1453.89 573.118 L1453.89 575.636 Q1452.46 576.243 1450.96 576.562 Q1449.45 576.88 1447.9 576.88 Q1444.03 576.88 1441.75 574.623 Q1439.5 572.366 1439.5 568.518 Q1439.5 564.539 1441.64 562.21 Q1443.79 559.866 1447.44 559.866 Q1450.71 559.866 1452.6 561.978 Q1454.51 564.076 1454.51 567.693 M1451.85 566.912 Q1451.82 564.727 1450.62 563.425 Q1449.44 562.123 1447.47 562.123 Q1445.24 562.123 1443.9 563.382 Q1442.56 564.64 1442.36 566.926 L1451.85 566.912 Z" fill="#000000" fill-rule="evenodd" fill-opacity="1" /><path clip-path="url(#clip560)" d="M 0 0 M1459.94 555.656 L1459.94 560.257 L1465.42 560.257 L1465.42 562.326 L1459.94 562.326 L1459.94 571.122 Q1459.94 573.104 1460.47 573.668 Q1461.02 574.232 1462.69 574.232 L1465.42 574.232 L1465.42 576.46 L1462.69 576.46 Q1459.61 576.46 1458.43 575.317 Q1457.26 574.16 1457.26 571.122 L1457.26 562.326 L1455.31 562.326 L1455.31 560.257 L1457.26 560.257 L1457.26 555.656 L1459.94 555.656 Z" fill="#000000" fill-rule="evenodd" fill-opacity="1" /><path clip-path="url(#clip560)" d="M 0 0 M1482.07 567.693 L1482.07 568.995 L1469.84 568.995 Q1470.01 571.744 1471.48 573.191 Q1472.97 574.623 1475.62 574.623 Q1477.16 574.623 1478.59 574.247 Q1480.03 573.871 1481.45 573.118 L1481.45 575.636 Q1480.02 576.243 1478.52 576.562 Q1477.01 576.88 1475.46 576.88 Q1471.59 576.88 1469.31 574.623 Q1467.06 572.366 1467.06 568.518 Q1467.06 564.539 1469.2 562.21 Q1471.35 559.866 1475 559.866 Q1478.27 559.866 1480.17 561.978 Q1482.07 564.076 1482.07 567.693 M1479.41 566.912 Q1479.38 564.727 1478.18 563.425 Q1477 562.123 1475.03 562.123 Q1472.8 562.123 1471.46 563.382 Q1470.12 564.64 1469.92 566.926 L1479.41 566.912 Z" fill="#000000" fill-rule="evenodd" fill-opacity="1" /><path clip-path="url(#clip560)" d="M 0 0 M1494.26 562.745 Q1493.81 562.485 1493.27 562.369 Q1492.75 562.239 1492.12 562.239 Q1489.86 562.239 1488.64 563.715 Q1487.44 565.176 1487.44 567.925 L1487.44 576.46 L1484.77 576.46 L1484.77 560.257 L1487.44 560.257 L1487.44 562.774 Q1488.28 561.298 1489.63 560.59 Q1490.97 559.866 1492.9 559.866 Q1493.17 559.866 1493.5 559.91 Q1493.84 559.939 1494.24 560.011 L1494.26 562.745 Z" fill="#000000" fill-rule="evenodd" fill-opacity="1" /><path clip-path="url(#clip560)" d="M 0 0 M1507.38 560.734 L1507.38 563.252 Q1506.25 562.673 1505.03 562.384 Q1503.82 562.094 1502.52 562.094 Q1500.54 562.094 1499.54 562.702 Q1498.55 563.309 1498.55 564.525 Q1498.55 565.451 1499.26 565.986 Q1499.97 566.507 1502.11 566.984 L1503.02 567.187 Q1505.86 567.794 1507.05 568.908 Q1508.25 570.008 1508.25 571.99 Q1508.25 574.247 1506.45 575.563 Q1504.67 576.88 1501.55 576.88 Q1500.25 576.88 1498.83 576.62 Q1497.42 576.374 1495.86 575.867 L1495.86 573.118 Q1497.34 573.885 1498.77 574.276 Q1500.2 574.652 1501.61 574.652 Q1503.49 574.652 1504.5 574.015 Q1505.51 573.364 1505.51 572.192 Q1505.51 571.107 1504.77 570.529 Q1504.05 569.95 1501.58 569.415 L1500.65 569.198 Q1498.18 568.677 1497.08 567.606 Q1495.98 566.521 1495.98 564.64 Q1495.98 562.355 1497.6 561.11 Q1499.22 559.866 1502.2 559.866 Q1503.67 559.866 1504.98 560.083 Q1506.28 560.3 1507.38 560.734 Z" fill="#000000" fill-rule="evenodd" fill-opacity="1" /><path clip-path="url(#clip560)" d="M 0 0 M728.402 1166.37 L728.402 1169.45 Q726.926 1168.07 725.248 1167.39 Q723.584 1166.71 721.703 1166.71 Q717.999 1166.71 716.032 1168.99 Q714.064 1171.24 714.064 1175.52 Q714.064 1179.79 716.032 1182.06 Q717.999 1184.32 721.703 1184.32 Q723.584 1184.32 725.248 1183.64 Q726.926 1182.96 728.402 1181.59 L728.402 1184.64 Q726.868 1185.68 725.146 1186.2 Q723.439 1186.72 721.529 1186.72 Q716.625 1186.72 713.804 1183.73 Q710.983 1180.72 710.983 1175.52 Q710.983 1170.32 713.804 1167.32 Q716.625 1164.31 721.529 1164.31 Q723.468 1164.31 725.175 1164.83 Q726.897 1165.34 728.402 1166.37 Z" fill="#000000" fill-rule="evenodd" fill-opacity="1" /><path clip-path="url(#clip560)" d="M 0 0 M731.194 1163.79 L733.856 1163.79 L733.856 1186.3 L731.194 1186.3 L731.194 1163.79 Z" fill="#000000" fill-rule="evenodd" fill-opacity="1" /><path clip-path="url(#clip560)" d="M 0 0 M736.648 1170.1 L739.31 1170.1 L739.31 1186.3 L736.648 1186.3 L736.648 1170.1 M736.648 1163.79 L739.31 1163.79 L739.31 1167.16 L736.648 1167.16 L736.648 1163.79 Z" fill="#000000" fill-rule="evenodd" fill-opacity="1" /><path clip-path="url(#clip560)" d="M 0 0 M755.962 1177.54 L755.962 1178.84 L743.723 1178.84 Q743.896 1181.59 745.372 1183.03 Q746.862 1184.47 749.51 1184.47 Q751.043 1184.47 752.476 1184.09 Q753.922 1183.71 755.34 1182.96 L755.34 1185.48 Q753.908 1186.09 752.403 1186.4 Q750.899 1186.72 749.351 1186.72 Q745.473 1186.72 743.202 1184.47 Q740.945 1182.21 740.945 1178.36 Q740.945 1174.38 743.086 1172.05 Q745.242 1169.71 748.888 1169.71 Q752.157 1169.71 754.052 1171.82 Q755.962 1173.92 755.962 1177.54 M753.3 1176.75 Q753.271 1174.57 752.07 1173.27 Q750.884 1171.97 748.916 1171.97 Q746.689 1171.97 745.343 1173.22 Q744.012 1174.48 743.809 1176.77 L753.3 1176.75 Z" fill="#000000" fill-rule="evenodd" fill-opacity="1" /><path clip-path="url(#clip560)" d="M 0 0 M772.224 1176.52 L772.224 1186.3 L769.562 1186.3 L769.562 1176.61 Q769.562 1174.31 768.665 1173.17 Q767.768 1172.02 765.974 1172.02 Q763.818 1172.02 762.574 1173.4 Q761.33 1174.77 761.33 1177.14 L761.33 1186.3 L758.653 1186.3 L758.653 1170.1 L761.33 1170.1 L761.33 1172.62 Q762.284 1171.16 763.572 1170.43 Q764.874 1169.71 766.567 1169.71 Q769.359 1169.71 770.791 1171.44 Q772.224 1173.17 772.224 1176.52 Z" fill="#000000" fill-rule="evenodd" fill-opacity="1" /><path clip-path="url(#clip560)" d="M 0 0 M777.649 1165.5 L777.649 1170.1 L783.132 1170.1 L783.132 1172.17 L777.649 1172.17 L777.649 1180.96 Q777.649 1182.95 778.184 1183.51 Q778.734 1184.07 780.398 1184.07 L783.132 1184.07 L783.132 1186.3 L780.398 1186.3 Q777.316 1186.3 776.144 1185.16 Q774.972 1184 774.972 1180.96 L774.972 1172.17 L773.019 1172.17 L773.019 1170.1 L774.972 1170.1 L774.972 1165.5 L777.649 1165.5 Z" fill="#000000" fill-rule="evenodd" fill-opacity="1" /><path clip-path="url(#clip560)" d="M 0 0 M798.236 1191.22 L798.236 1193.29 L782.843 1193.29 L782.843 1191.22 L798.236 1191.22 Z" fill="#000000" fill-rule="evenodd" fill-opacity="1" /><path clip-path="url(#clip560)" d="M 0 0 M808.392 1178.16 Q805.166 1178.16 803.922 1178.9 Q802.678 1179.63 802.678 1181.41 Q802.678 1182.83 803.604 1183.67 Q804.544 1184.49 806.15 1184.49 Q808.364 1184.49 809.695 1182.93 Q811.04 1181.35 811.04 1178.75 L811.04 1178.16 L808.392 1178.16 M813.702 1177.06 L813.702 1186.3 L811.04 1186.3 L811.04 1183.84 Q810.129 1185.32 808.769 1186.03 Q807.409 1186.72 805.441 1186.72 Q802.953 1186.72 801.477 1185.33 Q800.016 1183.93 800.016 1181.59 Q800.016 1178.85 801.839 1177.46 Q803.676 1176.07 807.307 1176.07 L811.04 1176.07 L811.04 1175.81 Q811.04 1173.98 809.825 1172.98 Q808.624 1171.97 806.439 1171.97 Q805.05 1171.97 803.734 1172.3 Q802.417 1172.63 801.202 1173.3 L801.202 1170.84 Q802.663 1170.27 804.038 1170 Q805.412 1169.71 806.714 1169.71 Q810.23 1169.71 811.966 1171.53 Q813.702 1173.35 813.702 1177.06 Z" fill="#000000" fill-rule="evenodd" fill-opacity="1" /><path clip-path="url(#clip560)" d="M 0 0 M829.964 1176.52 L829.964 1186.3 L827.301 1186.3 L827.301 1176.61 Q827.301 1174.31 826.405 1173.17 Q825.508 1172.02 823.714 1172.02 Q821.558 1172.02 820.314 1173.4 Q819.069 1174.77 819.069 1177.14 L819.069 1186.3 L816.393 1186.3 L816.393 1170.1 L819.069 1170.1 L819.069 1172.62 Q820.024 1171.16 821.312 1170.43 Q822.614 1169.71 824.307 1169.71 Q827.099 1169.71 828.531 1171.44 Q829.964 1173.17 829.964 1176.52 Z" fill="#000000" fill-rule="evenodd" fill-opacity="1" /><path clip-path="url(#clip560)" d="M 0 0 M843.418 1172.56 L843.418 1163.79 L846.08 1163.79 L846.08 1186.3 L843.418 1186.3 L843.418 1183.87 Q842.579 1185.32 841.292 1186.03 Q840.018 1186.72 838.224 1186.72 Q835.288 1186.72 833.436 1184.38 Q831.598 1182.03 831.598 1178.22 Q831.598 1174.4 833.436 1172.05 Q835.288 1169.71 838.224 1169.71 Q840.018 1169.71 841.292 1170.42 Q842.579 1171.11 843.418 1172.56 M834.347 1178.22 Q834.347 1181.15 835.548 1182.83 Q836.763 1184.49 838.876 1184.49 Q840.988 1184.49 842.203 1182.83 Q843.418 1181.15 843.418 1178.22 Q843.418 1175.28 842.203 1173.61 Q840.988 1171.94 838.876 1171.94 Q836.763 1171.94 835.548 1173.61 Q834.347 1175.28 834.347 1178.22 Z" fill="#000000" fill-rule="evenodd" fill-opacity="1" /><path clip-path="url(#clip560)" d="M 0 0 M861.184 1191.22 L861.184 1193.29 L845.791 1193.29 L845.791 1191.22 L861.184 1191.22 Z" fill="#000000" fill-rule="evenodd" fill-opacity="1" /><path clip-path="url(#clip560)" d="M 0 0 M880.267 1166.37 L880.267 1169.45 Q878.791 1168.07 877.113 1167.39 Q875.449 1166.71 873.569 1166.71 Q869.865 1166.71 867.897 1168.99 Q865.93 1171.24 865.93 1175.52 Q865.93 1179.79 867.897 1182.06 Q869.865 1184.32 873.569 1184.32 Q875.449 1184.32 877.113 1183.64 Q878.791 1182.96 880.267 1181.59 L880.267 1184.64 Q878.734 1185.68 877.012 1186.2 Q875.305 1186.72 873.395 1186.72 Q868.491 1186.72 865.669 1183.73 Q862.848 1180.72 862.848 1175.52 Q862.848 1170.32 865.669 1167.32 Q868.491 1164.31 873.395 1164.31 Q875.334 1164.31 877.041 1164.83 Q878.762 1165.34 880.267 1166.37 Z" fill="#000000" fill-rule="evenodd" fill-opacity="1" /><path clip-path="url(#clip560)" d="M 0 0 M889.338 1171.97 Q887.197 1171.97 885.953 1173.64 Q884.709 1175.31 884.709 1178.22 Q884.709 1181.12 885.938 1182.8 Q887.183 1184.47 889.338 1184.47 Q891.465 1184.47 892.709 1182.79 Q893.953 1181.11 893.953 1178.22 Q893.953 1175.34 892.709 1173.66 Q891.465 1171.97 889.338 1171.97 M889.338 1169.71 Q892.81 1169.71 894.792 1171.97 Q896.775 1174.22 896.775 1178.22 Q896.775 1182.19 894.792 1184.47 Q892.81 1186.72 889.338 1186.72 Q885.852 1186.72 883.869 1184.47 Q881.902 1182.19 881.902 1178.22 Q881.902 1174.22 883.869 1171.97 Q885.852 1169.71 889.338 1169.71 Z" fill="#000000" fill-rule="evenodd" fill-opacity="1" /><path clip-path="url(#clip560)" d="M 0 0 M913.036 1176.52 L913.036 1186.3 L910.374 1186.3 L910.374 1176.61 Q910.374 1174.31 909.477 1173.17 Q908.58 1172.02 906.786 1172.02 Q904.63 1172.02 903.386 1173.4 Q902.142 1174.77 902.142 1177.14 L902.142 1186.3 L899.465 1186.3 L899.465 1170.1 L902.142 1170.1 L902.142 1172.62 Q903.097 1171.16 904.384 1170.43 Q905.686 1169.71 907.379 1169.71 Q910.171 1169.71 911.604 1171.44 Q913.036 1173.17 913.036 1176.52 Z" fill="#000000" fill-rule="evenodd" fill-opacity="1" /><path clip-path="url(#clip560)" d="M 0 0 M926.158 1170.58 L926.158 1173.09 Q925.03 1172.52 923.814 1172.23 Q922.599 1171.94 921.297 1171.94 Q919.315 1171.94 918.317 1172.54 Q917.333 1173.15 917.333 1174.37 Q917.333 1175.29 918.042 1175.83 Q918.751 1176.35 920.892 1176.83 L921.803 1177.03 Q924.639 1177.64 925.825 1178.75 Q927.026 1179.85 927.026 1181.83 Q927.026 1184.09 925.232 1185.41 Q923.453 1186.72 920.328 1186.72 Q919.026 1186.72 917.608 1186.46 Q916.204 1186.22 914.642 1185.71 L914.642 1182.96 Q916.118 1183.73 917.55 1184.12 Q918.982 1184.49 920.385 1184.49 Q922.266 1184.49 923.279 1183.86 Q924.292 1183.21 924.292 1182.03 Q924.292 1180.95 923.554 1180.37 Q922.83 1179.79 920.357 1179.26 L919.431 1179.04 Q916.957 1178.52 915.857 1177.45 Q914.758 1176.36 914.758 1174.48 Q914.758 1172.2 916.378 1170.95 Q917.998 1169.71 920.979 1169.71 Q922.454 1169.71 923.756 1169.93 Q925.058 1170.14 926.158 1170.58 Z" fill="#000000" fill-rule="evenodd" fill-opacity="1" /><path clip-path="url(#clip560)" d="M 0 0 M929.543 1179.91 L929.543 1170.1 L932.205 1170.1 L932.205 1179.81 Q932.205 1182.11 933.102 1183.26 Q933.999 1184.41 935.793 1184.41 Q937.949 1184.41 939.193 1183.03 Q940.452 1181.66 940.452 1179.29 L940.452 1170.1 L943.114 1170.1 L943.114 1186.3 L940.452 1186.3 L940.452 1183.81 Q939.483 1185.29 938.195 1186.01 Q936.922 1186.72 935.229 1186.72 Q932.437 1186.72 930.99 1184.99 Q929.543 1183.25 929.543 1179.91 M936.242 1169.71 L936.242 1169.71 Z" fill="#000000" fill-rule="evenodd" fill-opacity="1" /><path clip-path="url(#clip560)" d="M 0 0 M945.906 1163.79 L948.568 1163.79 L948.568 1186.3 L945.906 1186.3 L945.906 1163.79 Z" fill="#000000" fill-rule="evenodd" fill-opacity="1" /><path clip-path="url(#clip560)" d="M 0 0 M953.994 1165.5 L953.994 1170.1 L959.477 1170.1 L959.477 1172.17 L953.994 1172.17 L953.994 1180.96 Q953.994 1182.95 954.529 1183.51 Q955.079 1184.07 956.742 1184.07 L959.477 1184.07 L959.477 1186.3 L956.742 1186.3 Q953.661 1186.3 952.489 1185.16 Q951.317 1184 951.317 1180.96 L951.317 1172.17 L949.364 1172.17 L949.364 1170.1 L951.317 1170.1 L951.317 1165.5 L953.994 1165.5 Z" fill="#000000" fill-rule="evenodd" fill-opacity="1" /><path clip-path="url(#clip560)" d="M 0 0 M969.633 1178.16 Q966.407 1178.16 965.162 1178.9 Q963.918 1179.63 963.918 1181.41 Q963.918 1182.83 964.844 1183.67 Q965.785 1184.49 967.39 1184.49 Q969.604 1184.49 970.935 1182.93 Q972.28 1181.35 972.28 1178.75 L972.28 1178.16 L969.633 1178.16 M974.942 1177.06 L974.942 1186.3 L972.28 1186.3 L972.28 1183.84 Q971.369 1185.32 970.009 1186.03 Q968.649 1186.72 966.682 1186.72 Q964.193 1186.72 962.717 1185.33 Q961.256 1183.93 961.256 1181.59 Q961.256 1178.85 963.079 1177.46 Q964.916 1176.07 968.548 1176.07 L972.28 1176.07 L972.28 1175.81 Q972.28 1173.98 971.065 1172.98 Q969.864 1171.97 967.68 1171.97 Q966.291 1171.97 964.974 1172.3 Q963.658 1172.63 962.443 1173.3 L962.443 1170.84 Q963.904 1170.27 965.278 1170 Q966.653 1169.71 967.955 1169.71 Q971.47 1169.71 973.206 1171.53 Q974.942 1173.35 974.942 1177.06 Z" fill="#000000" fill-rule="evenodd" fill-opacity="1" /><path clip-path="url(#clip560)" d="M 0 0 M991.204 1176.52 L991.204 1186.3 L988.542 1186.3 L988.542 1176.61 Q988.542 1174.31 987.645 1173.17 Q986.748 1172.02 984.954 1172.02 Q982.798 1172.02 981.554 1173.4 Q980.31 1174.77 980.31 1177.14 L980.31 1186.3 L977.633 1186.3 L977.633 1170.1 L980.31 1170.1 L980.31 1172.62 Q981.265 1171.16 982.552 1170.43 Q983.854 1169.71 985.547 1169.71 Q988.339 1169.71 989.772 1171.44 Q991.204 1173.17 991.204 1176.52 Z" fill="#000000" fill-rule="evenodd" fill-opacity="1" /><path clip-path="url(#clip560)" d="M 0 0 M996.629 1165.5 L996.629 1170.1 L1002.11 1170.1 L1002.11 1172.17 L996.629 1172.17 L996.629 1180.96 Q996.629 1182.95 997.165 1183.51 Q997.714 1184.07 999.378 1184.07 L1002.11 1184.07 L1002.11 1186.3 L999.378 1186.3 Q996.297 1186.3 995.125 1185.16 Q993.953 1184 993.953 1180.96 L993.953 1172.17 L992 1172.17 L992 1170.1 L993.953 1170.1 L993.953 1165.5 L996.629 1165.5 Z" fill="#000000" fill-rule="evenodd" fill-opacity="1" /><path clip-path="url(#clip560)" d="M 0 0 M1017.22 1191.22 L1017.22 1193.29 L1001.82 1193.29 L1001.82 1191.22 L1017.22 1191.22 Z" fill="#000000" fill-rule="evenodd" fill-opacity="1" /><path clip-path="url(#clip560)" d="M 0 0 M1030.37 1176.18 Q1031.31 1176.49 1032.19 1177.54 Q1033.09 1178.58 1033.98 1180.4 L1036.95 1186.3 L1033.81 1186.3 L1031.05 1180.76 Q1029.98 1178.59 1028.96 1177.88 Q1027.97 1177.17 1026.23 1177.17 L1023.05 1177.17 L1023.05 1186.3 L1020.12 1186.3 L1020.12 1164.7 L1026.72 1164.7 Q1030.43 1164.7 1032.25 1166.25 Q1034.07 1167.8 1034.07 1170.92 Q1034.07 1172.96 1033.12 1174.31 Q1032.18 1175.65 1030.37 1176.18 M1023.05 1167.1 L1023.05 1174.77 L1026.72 1174.77 Q1028.83 1174.77 1029.9 1173.8 Q1030.99 1172.82 1030.99 1170.92 Q1030.99 1169.03 1029.9 1168.07 Q1028.83 1167.1 1026.72 1167.1 L1023.05 1167.1 Z" fill="#000000" fill-rule="evenodd" fill-opacity="1" /><path clip-path="url(#clip560)" d="M 0 0 M1052.27 1177.54 L1052.27 1178.84 L1040.03 1178.84 Q1040.21 1181.59 1041.68 1183.03 Q1043.17 1184.47 1045.82 1184.47 Q1047.35 1184.47 1048.78 1184.09 Q1050.23 1183.71 1051.65 1182.96 L1051.65 1185.48 Q1050.22 1186.09 1048.71 1186.4 Q1047.21 1186.72 1045.66 1186.72 Q1041.78 1186.72 1039.51 1184.47 Q1037.25 1182.21 1037.25 1178.36 Q1037.25 1174.38 1039.4 1172.05 Q1041.55 1169.71 1045.2 1169.71 Q1048.47 1169.71 1050.36 1171.82 Q1052.27 1173.92 1052.27 1177.54 M1049.61 1176.75 Q1049.58 1174.57 1048.38 1173.27 Q1047.19 1171.97 1045.23 1171.97 Q1043 1171.97 1041.65 1173.22 Q1040.32 1174.48 1040.12 1176.77 L1049.61 1176.75 Z" fill="#000000" fill-rule="evenodd" fill-opacity="1" /><path clip-path="url(#clip560)" d="M 0 0 M1056.66 1178.22 Q1056.66 1181.15 1057.86 1182.83 Q1059.07 1184.49 1061.18 1184.49 Q1063.3 1184.49 1064.51 1182.83 Q1065.73 1181.15 1065.73 1178.22 Q1065.73 1175.28 1064.51 1173.61 Q1063.3 1171.94 1061.18 1171.94 Q1059.07 1171.94 1057.86 1173.61 Q1056.66 1175.28 1056.66 1178.22 M1065.73 1183.87 Q1064.89 1185.32 1063.6 1186.03 Q1062.33 1186.72 1060.53 1186.72 Q1057.6 1186.72 1055.74 1184.38 Q1053.91 1182.03 1053.91 1178.22 Q1053.91 1174.4 1055.74 1172.05 Q1057.6 1169.71 1060.53 1169.71 Q1062.33 1169.71 1063.6 1170.42 Q1064.89 1171.11 1065.73 1172.56 L1065.73 1170.1 L1068.39 1170.1 L1068.39 1192.47 L1065.73 1192.47 L1065.73 1183.87 Z" fill="#000000" fill-rule="evenodd" fill-opacity="1" /><path clip-path="url(#clip560)" d="M 0 0 M1070.91 1179.91 L1070.91 1170.1 L1073.57 1170.1 L1073.57 1179.81 Q1073.57 1182.11 1074.46 1183.26 Q1075.36 1184.41 1077.16 1184.41 Q1079.31 1184.41 1080.56 1183.03 Q1081.81 1181.66 1081.81 1179.29 L1081.81 1170.1 L1084.48 1170.1 L1084.48 1186.3 L1081.81 1186.3 L1081.81 1183.81 Q1080.84 1185.29 1079.56 1186.01 Q1078.28 1186.72 1076.59 1186.72 Q1073.8 1186.72 1072.35 1184.99 Q1070.91 1183.25 1070.91 1179.91 M1077.6 1169.71 L1077.6 1169.71 Z" fill="#000000" fill-rule="evenodd" fill-opacity="1" /><path clip-path="url(#clip560)" d="M 0 0 M1101.13 1177.54 L1101.13 1178.84 L1088.89 1178.84 Q1089.06 1181.59 1090.54 1183.03 Q1092.03 1184.47 1094.68 1184.47 Q1096.21 1184.47 1097.64 1184.09 Q1099.09 1183.71 1100.51 1182.96 L1100.51 1185.48 Q1099.07 1186.09 1097.57 1186.4 Q1096.06 1186.72 1094.52 1186.72 Q1090.64 1186.72 1088.37 1184.47 Q1086.11 1182.21 1086.11 1178.36 Q1086.11 1174.38 1088.25 1172.05 Q1090.41 1169.71 1094.05 1169.71 Q1097.32 1169.71 1099.22 1171.82 Q1101.13 1173.92 1101.13 1177.54 M1098.47 1176.75 Q1098.44 1174.57 1097.24 1173.27 Q1096.05 1171.97 1094.08 1171.97 Q1091.85 1171.97 1090.51 1173.22 Q1089.18 1174.48 1088.98 1176.77 L1098.47 1176.75 Z" fill="#000000" fill-rule="evenodd" fill-opacity="1" /><path clip-path="url(#clip560)" d="M 0 0 M1114.25 1170.58 L1114.25 1173.09 Q1113.12 1172.52 1111.91 1172.23 Q1110.69 1171.94 1109.39 1171.94 Q1107.41 1171.94 1106.41 1172.54 Q1105.43 1173.15 1105.43 1174.37 Q1105.43 1175.29 1106.13 1175.83 Q1106.84 1176.35 1108.98 1176.83 L1109.9 1177.03 Q1112.73 1177.64 1113.92 1178.75 Q1115.12 1179.85 1115.12 1181.83 Q1115.12 1184.09 1113.32 1185.41 Q1111.54 1186.72 1108.42 1186.72 Q1107.12 1186.72 1105.7 1186.46 Q1104.3 1186.22 1102.73 1185.71 L1102.73 1182.96 Q1104.21 1183.73 1105.64 1184.12 Q1107.07 1184.49 1108.48 1184.49 Q1110.36 1184.49 1111.37 1183.86 Q1112.38 1183.21 1112.38 1182.03 Q1112.38 1180.95 1111.65 1180.37 Q1110.92 1179.79 1108.45 1179.26 L1107.52 1179.04 Q1105.05 1178.52 1103.95 1177.45 Q1102.85 1176.36 1102.85 1174.48 Q1102.85 1172.2 1104.47 1170.95 Q1106.09 1169.71 1109.07 1169.71 Q1110.55 1169.71 1111.85 1169.93 Q1113.15 1170.14 1114.25 1170.58 Z" fill="#000000" fill-rule="evenodd" fill-opacity="1" /><path clip-path="url(#clip560)" d="M 0 0 M1120.54 1165.5 L1120.54 1170.1 L1126.03 1170.1 L1126.03 1172.17 L1120.54 1172.17 L1120.54 1180.96 Q1120.54 1182.95 1121.08 1183.51 Q1121.63 1184.07 1123.29 1184.07 L1126.03 1184.07 L1126.03 1186.3 L1123.29 1186.3 Q1120.21 1186.3 1119.04 1185.16 Q1117.87 1184 1117.87 1180.96 L1117.87 1172.17 L1115.91 1172.17 L1115.91 1170.1 L1117.87 1170.1 L1117.87 1165.5 L1120.54 1165.5 Z" fill="#000000" fill-rule="evenodd" fill-opacity="1" /><path clip-path="url(#clip560)" d="M 0 0 M1139.15 1170.58 L1139.15 1173.09 Q1138.02 1172.52 1136.81 1172.23 Q1135.59 1171.94 1134.29 1171.94 Q1132.31 1171.94 1131.31 1172.54 Q1130.32 1173.15 1130.32 1174.37 Q1130.32 1175.29 1131.03 1175.83 Q1131.74 1176.35 1133.88 1176.83 L1134.79 1177.03 Q1137.63 1177.64 1138.82 1178.75 Q1140.02 1179.85 1140.02 1181.83 Q1140.02 1184.09 1138.22 1185.41 Q1136.44 1186.72 1133.32 1186.72 Q1132.02 1186.72 1130.6 1186.46 Q1129.2 1186.22 1127.63 1185.71 L1127.63 1182.96 Q1129.11 1183.73 1130.54 1184.12 Q1131.97 1184.49 1133.38 1184.49 Q1135.26 1184.49 1136.27 1183.86 Q1137.28 1183.21 1137.28 1182.03 Q1137.28 1180.95 1136.54 1180.37 Q1135.82 1179.79 1133.35 1179.26 L1132.42 1179.04 Q1129.95 1178.52 1128.85 1177.45 Q1127.75 1176.36 1127.75 1174.48 Q1127.75 1172.2 1129.37 1170.95 Q1130.99 1169.71 1133.97 1169.71 Q1135.45 1169.71 1136.75 1169.93 Q1138.05 1170.14 1139.15 1170.58 Z" fill="#000000" fill-rule="evenodd" fill-opacity="1" /><path clip-path="url(#clip560)" d="M 0 0 M1198.96 1299.63 L1198.96 1316.42 L1202.49 1316.42 Q1206.96 1316.42 1209.03 1314.4 Q1211.12 1312.37 1211.12 1308 Q1211.12 1303.66 1209.03 1301.65 Q1206.96 1299.63 1202.49 1299.63 L1198.96 1299.63 M1196.04 1297.22 L1202.05 1297.22 Q1208.32 1297.22 1211.26 1299.84 Q1214.2 1302.45 1214.2 1308 Q1214.2 1313.59 1211.25 1316.21 Q1208.3 1318.82 1202.05 1318.82 L1196.04 1318.82 L1196.04 1297.22 Z" fill="#000000" fill-rule="evenodd" fill-opacity="1" /><path clip-path="url(#clip560)" d="M 0 0 M1230.85 1310.06 L1230.85 1311.36 L1218.61 1311.36 Q1218.78 1314.11 1220.26 1315.55 Q1221.75 1316.99 1224.4 1316.99 Q1225.93 1316.99 1227.36 1316.61 Q1228.81 1316.23 1230.23 1315.48 L1230.23 1318 Q1228.8 1318.61 1227.29 1318.92 Q1225.79 1319.24 1224.24 1319.24 Q1220.36 1319.24 1218.09 1316.99 Q1215.83 1314.73 1215.83 1310.88 Q1215.83 1306.9 1217.97 1304.57 Q1220.13 1302.23 1223.78 1302.23 Q1227.05 1302.23 1228.94 1304.34 Q1230.85 1306.44 1230.85 1310.06 M1228.19 1309.28 Q1228.16 1307.09 1226.96 1305.79 Q1225.77 1304.49 1223.8 1304.49 Q1221.58 1304.49 1220.23 1305.75 Q1218.9 1307 1218.7 1309.29 L1228.19 1309.28 Z" fill="#000000" fill-rule="evenodd" fill-opacity="1" /><path clip-path="url(#clip560)" d="M 0 0 M1243.97 1303.1 L1243.97 1305.61 Q1242.84 1305.04 1241.63 1304.75 Q1240.41 1304.46 1239.11 1304.46 Q1237.13 1304.46 1236.13 1305.07 Q1235.15 1305.67 1235.15 1306.89 Q1235.15 1307.81 1235.86 1308.35 Q1236.56 1308.87 1238.71 1309.35 L1239.62 1309.55 Q1242.45 1310.16 1243.64 1311.27 Q1244.84 1312.37 1244.84 1314.35 Q1244.84 1316.61 1243.05 1317.93 Q1241.27 1319.24 1238.14 1319.24 Q1236.84 1319.24 1235.42 1318.98 Q1234.02 1318.74 1232.46 1318.23 L1232.46 1315.48 Q1233.93 1316.25 1235.36 1316.64 Q1236.8 1317.02 1238.2 1317.02 Q1240.08 1317.02 1241.09 1316.38 Q1242.11 1315.73 1242.11 1314.56 Q1242.11 1313.47 1241.37 1312.89 Q1240.64 1312.31 1238.17 1311.78 L1237.24 1311.56 Q1234.77 1311.04 1233.67 1309.97 Q1232.57 1308.88 1232.57 1307 Q1232.57 1304.72 1234.19 1303.47 Q1235.81 1302.23 1238.79 1302.23 Q1240.27 1302.23 1241.57 1302.45 Q1242.87 1302.66 1243.97 1303.1 Z" fill="#000000" fill-rule="evenodd" fill-opacity="1" /><path clip-path="url(#clip560)" d="M 0 0 M1247.63 1302.62 L1250.29 1302.62 L1250.29 1318.82 L1247.63 1318.82 L1247.63 1302.62 M1247.63 1296.31 L1250.29 1296.31 L1250.29 1299.68 L1247.63 1299.68 L1247.63 1296.31 Z" fill="#000000" fill-rule="evenodd" fill-opacity="1" /><path clip-path="url(#clip560)" d="M 0 0 M1263.75 1310.53 Q1263.75 1307.64 1262.55 1306.05 Q1261.36 1304.46 1259.21 1304.46 Q1257.07 1304.46 1255.86 1306.05 Q1254.68 1307.64 1254.68 1310.53 Q1254.68 1313.41 1255.86 1315 Q1257.07 1316.6 1259.21 1316.6 Q1261.36 1316.6 1262.55 1315 Q1263.75 1313.41 1263.75 1310.53 M1266.41 1316.81 Q1266.41 1320.95 1264.57 1322.96 Q1262.74 1324.99 1258.95 1324.99 Q1257.54 1324.99 1256.3 1324.77 Q1255.05 1324.57 1253.88 1324.13 L1253.88 1321.54 Q1255.05 1322.18 1256.2 1322.48 Q1257.34 1322.79 1258.53 1322.79 Q1261.15 1322.79 1262.45 1321.41 Q1263.75 1320.05 1263.75 1317.29 L1263.75 1315.97 Q1262.92 1317.41 1261.64 1318.11 Q1260.35 1318.82 1258.56 1318.82 Q1255.58 1318.82 1253.75 1316.55 Q1251.93 1314.28 1251.93 1310.53 Q1251.93 1306.77 1253.75 1304.5 Q1255.58 1302.23 1258.56 1302.23 Q1260.35 1302.23 1261.64 1302.94 Q1262.92 1303.65 1263.75 1305.08 L1263.75 1302.62 L1266.41 1302.62 L1266.41 1316.81 Z" fill="#000000" fill-rule="evenodd" fill-opacity="1" /><path clip-path="url(#clip560)" d="M 0 0 M1282.67 1309.04 L1282.67 1318.82 L1280.01 1318.82 L1280.01 1309.13 Q1280.01 1306.83 1279.11 1305.69 Q1278.22 1304.54 1276.42 1304.54 Q1274.27 1304.54 1273.02 1305.92 Q1271.78 1307.29 1271.78 1309.67 L1271.78 1318.82 L1269.1 1318.82 L1269.1 1302.62 L1271.78 1302.62 L1271.78 1305.14 Q1272.73 1303.68 1274.02 1302.95 Q1275.32 1302.23 1277.02 1302.23 Q1279.81 1302.23 1281.24 1303.97 Q1282.67 1305.69 1282.67 1309.04 Z" fill="#000000" fill-rule="evenodd" fill-opacity="1" /><path clip-path="url(#clip560)" d="M 0 0 M1297.78 1323.74 L1297.78 1325.81 L1282.38 1325.81 L1282.38 1323.74 L1297.78 1323.74 Z" fill="#000000" fill-rule="evenodd" fill-opacity="1" /><path clip-path="url(#clip560)" d="M 0 0 M1310.93 1308.7 Q1311.87 1309.01 1312.75 1310.06 Q1313.65 1311.1 1314.54 1312.92 L1317.51 1318.82 L1314.37 1318.82 L1311.61 1313.28 Q1310.54 1311.11 1309.52 1310.4 Q1308.53 1309.69 1306.79 1309.69 L1303.61 1309.69 L1303.61 1318.82 L1300.68 1318.82 L1300.68 1297.22 L1307.28 1297.22 Q1310.99 1297.22 1312.81 1298.77 Q1314.63 1300.32 1314.63 1303.44 Q1314.63 1305.48 1313.68 1306.83 Q1312.74 1308.18 1310.93 1308.7 M1303.61 1299.63 L1303.61 1307.29 L1307.28 1307.29 Q1309.39 1307.29 1310.46 1306.32 Q1311.55 1305.34 1311.55 1303.44 Q1311.55 1301.55 1310.46 1300.59 Q1309.39 1299.63 1307.28 1299.63 L1303.61 1299.63 Z" fill="#000000" fill-rule="evenodd" fill-opacity="1" /><path clip-path="url(#clip560)" d="M 0 0 M1332.83 1310.06 L1332.83 1311.36 L1320.59 1311.36 Q1320.77 1314.11 1322.24 1315.55 Q1323.73 1316.99 1326.38 1316.99 Q1327.91 1316.99 1329.34 1316.61 Q1330.79 1316.23 1332.21 1315.48 L1332.21 1318 Q1330.78 1318.61 1329.27 1318.92 Q1327.77 1319.24 1326.22 1319.24 Q1322.34 1319.24 1320.07 1316.99 Q1317.81 1314.73 1317.81 1310.88 Q1317.81 1306.9 1319.96 1304.57 Q1322.11 1302.23 1325.76 1302.23 Q1329.03 1302.23 1330.92 1304.34 Q1332.83 1306.44 1332.83 1310.06 M1330.17 1309.28 Q1330.14 1307.09 1328.94 1305.79 Q1327.75 1304.49 1325.79 1304.49 Q1323.56 1304.49 1322.21 1305.75 Q1320.88 1307 1320.68 1309.29 L1330.17 1309.28 Z" fill="#000000" fill-rule="evenodd" fill-opacity="1" /><path clip-path="url(#clip560)" d="M 0 0 M1342.99 1310.68 Q1339.76 1310.68 1338.52 1311.42 Q1337.27 1312.15 1337.27 1313.93 Q1337.27 1315.35 1338.2 1316.19 Q1339.14 1317.02 1340.75 1317.02 Q1342.96 1317.02 1344.29 1315.45 Q1345.64 1313.88 1345.64 1311.27 L1345.64 1310.68 L1342.99 1310.68 M1348.3 1309.58 L1348.3 1318.82 L1345.64 1318.82 L1345.64 1316.36 Q1344.72 1317.84 1343.36 1318.55 Q1342 1319.24 1340.04 1319.24 Q1337.55 1319.24 1336.07 1317.85 Q1334.61 1316.45 1334.61 1314.11 Q1334.61 1311.37 1336.43 1309.98 Q1338.27 1308.6 1341.9 1308.6 L1345.64 1308.6 L1345.64 1308.33 Q1345.64 1306.5 1344.42 1305.5 Q1343.22 1304.49 1341.03 1304.49 Q1339.65 1304.49 1338.33 1304.82 Q1337.01 1305.15 1335.8 1305.82 L1335.8 1303.36 Q1337.26 1302.79 1338.63 1302.52 Q1340.01 1302.23 1341.31 1302.23 Q1344.83 1302.23 1346.56 1304.05 Q1348.3 1305.88 1348.3 1309.58 Z" fill="#000000" fill-rule="evenodd" fill-opacity="1" /><path clip-path="url(#clip560)" d="M 0 0 M1361.42 1303.1 L1361.42 1305.61 Q1360.29 1305.04 1359.08 1304.75 Q1357.86 1304.46 1356.56 1304.46 Q1354.58 1304.46 1353.58 1305.07 Q1352.59 1305.67 1352.59 1306.89 Q1352.59 1307.81 1353.3 1308.35 Q1354.01 1308.87 1356.15 1309.35 L1357.06 1309.55 Q1359.9 1310.16 1361.09 1311.27 Q1362.29 1312.37 1362.29 1314.35 Q1362.29 1316.61 1360.49 1317.93 Q1358.71 1319.24 1355.59 1319.24 Q1354.29 1319.24 1352.87 1318.98 Q1351.47 1318.74 1349.9 1318.23 L1349.9 1315.48 Q1351.38 1316.25 1352.81 1316.64 Q1354.24 1317.02 1355.65 1317.02 Q1357.53 1317.02 1358.54 1316.38 Q1359.55 1315.73 1359.55 1314.56 Q1359.55 1313.47 1358.82 1312.89 Q1358.09 1312.31 1355.62 1311.78 L1354.69 1311.56 Q1352.22 1311.04 1351.12 1309.97 Q1350.02 1308.88 1350.02 1307 Q1350.02 1304.72 1351.64 1303.47 Q1353.26 1302.23 1356.24 1302.23 Q1357.72 1302.23 1359.02 1302.45 Q1360.32 1302.66 1361.42 1303.1 Z" fill="#000000" fill-rule="evenodd" fill-opacity="1" /><path clip-path="url(#clip560)" d="M 0 0 M1371.36 1304.49 Q1369.22 1304.49 1367.97 1306.16 Q1366.73 1307.83 1366.73 1310.74 Q1366.73 1313.64 1367.96 1315.32 Q1369.2 1316.99 1371.36 1316.99 Q1373.49 1316.99 1374.73 1315.31 Q1375.97 1313.63 1375.97 1310.74 Q1375.97 1307.86 1374.73 1306.18 Q1373.49 1304.49 1371.36 1304.49 M1371.36 1302.23 Q1374.83 1302.23 1376.81 1304.49 Q1378.79 1306.74 1378.79 1310.74 Q1378.79 1314.71 1376.81 1316.99 Q1374.83 1319.24 1371.36 1319.24 Q1367.87 1319.24 1365.89 1316.99 Q1363.92 1314.71 1363.92 1310.74 Q1363.92 1306.74 1365.89 1304.49 Q1367.87 1302.23 1371.36 1302.23 Z" fill="#000000" fill-rule="evenodd" fill-opacity="1" /><path clip-path="url(#clip560)" d="M 0 0 M1395.06 1309.04 L1395.06 1318.82 L1392.39 1318.82 L1392.39 1309.13 Q1392.39 1306.83 1391.5 1305.69 Q1390.6 1304.54 1388.81 1304.54 Q1386.65 1304.54 1385.41 1305.92 Q1384.16 1307.29 1384.16 1309.67 L1384.16 1318.82 L1381.49 1318.82 L1381.49 1302.62 L1384.16 1302.62 L1384.16 1305.14 Q1385.12 1303.68 1386.4 1302.95 Q1387.71 1302.23 1389.4 1302.23 Q1392.19 1302.23 1393.62 1303.97 Q1395.06 1305.69 1395.06 1309.04 Z" fill="#000000" fill-rule="evenodd" fill-opacity="1" /><path clip-path="url(#clip560)" d="M 0 0 M1397.85 1302.62 L1400.51 1302.62 L1400.51 1318.82 L1397.85 1318.82 L1397.85 1302.62 M1397.85 1296.31 L1400.51 1296.31 L1400.51 1299.68 L1397.85 1299.68 L1397.85 1296.31 Z" fill="#000000" fill-rule="evenodd" fill-opacity="1" /><path clip-path="url(#clip560)" d="M 0 0 M1416.77 1309.04 L1416.77 1318.82 L1414.11 1318.82 L1414.11 1309.13 Q1414.11 1306.83 1413.21 1305.69 Q1412.32 1304.54 1410.52 1304.54 Q1408.37 1304.54 1407.12 1305.92 Q1405.88 1307.29 1405.88 1309.67 L1405.88 1318.82 L1403.2 1318.82 L1403.2 1302.62 L1405.88 1302.62 L1405.88 1305.14 Q1406.83 1303.68 1408.12 1302.95 Q1409.42 1302.23 1411.12 1302.23 Q1413.91 1302.23 1415.34 1303.97 Q1416.77 1305.69 1416.77 1309.04 Z" fill="#000000" fill-rule="evenodd" fill-opacity="1" /><path clip-path="url(#clip560)" d="M 0 0 M1430.23 1310.53 Q1430.23 1307.64 1429.03 1306.05 Q1427.84 1304.46 1425.68 1304.46 Q1423.54 1304.46 1422.34 1306.05 Q1421.16 1307.64 1421.16 1310.53 Q1421.16 1313.41 1422.34 1315 Q1423.54 1316.6 1425.68 1316.6 Q1427.84 1316.6 1429.03 1315 Q1430.23 1313.41 1430.23 1310.53 M1432.89 1316.81 Q1432.89 1320.95 1431.05 1322.96 Q1429.21 1324.99 1425.42 1324.99 Q1424.02 1324.99 1422.78 1324.77 Q1421.53 1324.57 1420.36 1324.13 L1420.36 1321.54 Q1421.53 1322.18 1422.67 1322.48 Q1423.82 1322.79 1425 1322.79 Q1427.62 1322.79 1428.92 1321.41 Q1430.23 1320.05 1430.23 1317.29 L1430.23 1315.97 Q1429.4 1317.41 1428.11 1318.11 Q1426.83 1318.82 1425.03 1318.82 Q1422.05 1318.82 1420.23 1316.55 Q1418.41 1314.28 1418.41 1310.53 Q1418.41 1306.77 1420.23 1304.5 Q1422.05 1302.23 1425.03 1302.23 Q1426.83 1302.23 1428.11 1302.94 Q1429.4 1303.65 1430.23 1305.08 L1430.23 1302.62 L1432.89 1302.62 L1432.89 1316.81 Z" fill="#000000" fill-rule="evenodd" fill-opacity="1" /><path clip-path="url(#clip560)" d="M 0 0 M375.846 946.481 L375.846 949.563 Q374.37 948.188 372.692 947.508 Q371.028 946.828 369.147 946.828 Q365.443 946.828 363.476 949.1 Q361.508 951.357 361.508 955.639 Q361.508 959.907 363.476 962.179 Q365.443 964.435 369.147 964.435 Q371.028 964.435 372.692 963.755 Q374.37 963.076 375.846 961.701 L375.846 964.754 Q374.312 965.795 372.59 966.316 Q370.883 966.837 368.974 966.837 Q364.069 966.837 361.248 963.842 Q358.427 960.833 358.427 955.639 Q358.427 950.431 361.248 947.436 Q364.069 944.427 368.974 944.427 Q370.912 944.427 372.619 944.948 Q374.341 945.454 375.846 946.481 Z" fill="#000000" fill-rule="evenodd" fill-opacity="1" /><path clip-path="url(#clip560)" d="M 0 0 M384.917 952.08 Q382.776 952.08 381.531 953.758 Q380.287 955.422 380.287 958.33 Q380.287 961.238 381.517 962.916 Q382.761 964.58 384.917 964.58 Q387.043 964.58 388.288 962.902 Q389.532 961.224 389.532 958.33 Q389.532 955.451 388.288 953.773 Q387.043 952.08 384.917 952.08 M384.917 949.823 Q388.389 949.823 390.371 952.08 Q392.353 954.337 392.353 958.33 Q392.353 962.309 390.371 964.58 Q388.389 966.837 384.917 966.837 Q381.43 966.837 379.448 964.58 Q377.48 962.309 377.48 958.33 Q377.48 954.337 379.448 952.08 Q381.43 949.823 384.917 949.823 Z" fill="#000000" fill-rule="evenodd" fill-opacity="1" /><path clip-path="url(#clip560)" d="M 0 0 M395.145 943.906 L397.807 943.906 L397.807 966.417 L395.145 966.417 L395.145 943.906 Z" fill="#000000" fill-rule="evenodd" fill-opacity="1" /><path clip-path="url(#clip560)" d="M 0 0 M400.6 943.906 L403.262 943.906 L403.262 966.417 L400.6 966.417 L400.6 943.906 Z" fill="#000000" fill-rule="evenodd" fill-opacity="1" /><path clip-path="url(#clip560)" d="M 0 0 M413.418 958.272 Q410.191 958.272 408.947 959.01 Q407.703 959.748 407.703 961.527 Q407.703 962.945 408.629 963.784 Q409.569 964.609 411.175 964.609 Q413.389 964.609 414.72 963.047 Q416.065 961.47 416.065 958.865 L416.065 958.272 L413.418 958.272 M418.727 957.173 L418.727 966.417 L416.065 966.417 L416.065 963.958 Q415.154 965.434 413.794 966.143 Q412.434 966.837 410.466 966.837 Q407.978 966.837 406.502 965.448 Q405.041 964.045 405.041 961.701 Q405.041 958.967 406.864 957.578 Q408.701 956.189 412.333 956.189 L416.065 956.189 L416.065 955.929 Q416.065 954.091 414.85 953.093 Q413.649 952.08 411.465 952.08 Q410.076 952.08 408.759 952.413 Q407.443 952.746 406.227 953.411 L406.227 950.952 Q407.689 950.387 409.063 950.113 Q410.437 949.823 411.739 949.823 Q415.255 949.823 416.991 951.646 Q418.727 953.469 418.727 957.173 Z" fill="#000000" fill-rule="evenodd" fill-opacity="1" /><path clip-path="url(#clip560)" d="M 0 0 M433.151 958.33 Q433.151 955.393 431.936 953.729 Q430.735 952.051 428.623 952.051 Q426.511 952.051 425.296 953.729 Q424.095 955.393 424.095 958.33 Q424.095 961.267 425.296 962.945 Q426.511 964.609 428.623 964.609 Q430.735 964.609 431.936 962.945 Q433.151 961.267 433.151 958.33 M424.095 952.673 Q424.934 951.227 426.207 950.532 Q427.495 949.823 429.274 949.823 Q432.225 949.823 434.063 952.167 Q435.915 954.511 435.915 958.33 Q435.915 962.15 434.063 964.493 Q432.225 966.837 429.274 966.837 Q427.495 966.837 426.207 966.143 Q424.934 965.434 424.095 963.987 L424.095 966.417 L421.418 966.417 L421.418 943.906 L424.095 943.906 L424.095 952.673 Z" fill="#000000" fill-rule="evenodd" fill-opacity="1" /><path clip-path="url(#clip560)" d="M 0 0 M444.986 952.08 Q442.845 952.08 441.6 953.758 Q440.356 955.422 440.356 958.33 Q440.356 961.238 441.586 962.916 Q442.83 964.58 444.986 964.58 Q447.113 964.58 448.357 962.902 Q449.601 961.224 449.601 958.33 Q449.601 955.451 448.357 953.773 Q447.113 952.08 444.986 952.08 M444.986 949.823 Q448.458 949.823 450.44 952.08 Q452.422 954.337 452.422 958.33 Q452.422 962.309 450.44 964.58 Q448.458 966.837 444.986 966.837 Q441.499 966.837 439.517 964.58 Q437.55 962.309 437.55 958.33 Q437.55 954.337 439.517 952.08 Q441.499 949.823 444.986 949.823 Z" fill="#000000" fill-rule="evenodd" fill-opacity="1" /><path clip-path="url(#clip560)" d="M 0 0 M464.604 952.702 Q464.155 952.442 463.62 952.326 Q463.099 952.196 462.463 952.196 Q460.206 952.196 458.99 953.672 Q457.79 955.133 457.79 957.882 L457.79 966.417 L455.113 966.417 L455.113 950.214 L457.79 950.214 L457.79 952.731 Q458.629 951.256 459.974 950.547 Q461.32 949.823 463.244 949.823 Q463.519 949.823 463.851 949.867 Q464.184 949.896 464.589 949.968 L464.604 952.702 Z" fill="#000000" fill-rule="evenodd" fill-opacity="1" /><path clip-path="url(#clip560)" d="M 0 0 M474.76 958.272 Q471.534 958.272 470.29 959.01 Q469.045 959.748 469.045 961.527 Q469.045 962.945 469.971 963.784 Q470.912 964.609 472.518 964.609 Q474.731 964.609 476.062 963.047 Q477.408 961.47 477.408 958.865 L477.408 958.272 L474.76 958.272 M480.07 957.173 L480.07 966.417 L477.408 966.417 L477.408 963.958 Q476.496 965.434 475.136 966.143 Q473.776 966.837 471.809 966.837 Q469.32 966.837 467.845 965.448 Q466.383 964.045 466.383 961.701 Q466.383 958.967 468.206 957.578 Q470.044 956.189 473.675 956.189 L477.408 956.189 L477.408 955.929 Q477.408 954.091 476.192 953.093 Q474.991 952.08 472.807 952.08 Q471.418 952.08 470.101 952.413 Q468.785 952.746 467.57 953.411 L467.57 950.952 Q469.031 950.387 470.405 950.113 Q471.78 949.823 473.082 949.823 Q476.597 949.823 478.333 951.646 Q480.07 953.469 480.07 957.173 Z" fill="#000000" fill-rule="evenodd" fill-opacity="1" /><path clip-path="url(#clip560)" d="M 0 0 M485.495 945.613 L485.495 950.214 L490.978 950.214 L490.978 952.283 L485.495 952.283 L485.495 961.079 Q485.495 963.061 486.03 963.625 Q486.58 964.19 488.244 964.19 L490.978 964.19 L490.978 966.417 L488.244 966.417 Q485.162 966.417 483.99 965.275 Q482.818 964.117 482.818 961.079 L482.818 952.283 L480.865 952.283 L480.865 950.214 L482.818 950.214 L482.818 945.613 L485.495 945.613 Z" fill="#000000" fill-rule="evenodd" fill-opacity="1" /><path clip-path="url(#clip560)" d="M 0 0 M493.77 950.214 L496.432 950.214 L496.432 966.417 L493.77 966.417 L493.77 950.214 M493.77 943.906 L496.432 943.906 L496.432 947.277 L493.77 947.277 L493.77 943.906 Z" fill="#000000" fill-rule="evenodd" fill-opacity="1" /><path clip-path="url(#clip560)" d="M 0 0 M505.503 952.08 Q503.362 952.08 502.118 953.758 Q500.874 955.422 500.874 958.33 Q500.874 961.238 502.104 962.916 Q503.348 964.58 505.503 964.58 Q507.63 964.58 508.874 962.902 Q510.119 961.224 510.119 958.33 Q510.119 955.451 508.874 953.773 Q507.63 952.08 505.503 952.08 M505.503 949.823 Q508.976 949.823 510.958 952.08 Q512.94 954.337 512.94 958.33 Q512.94 962.309 510.958 964.58 Q508.976 966.837 505.503 966.837 Q502.017 966.837 500.035 964.58 Q498.067 962.309 498.067 958.33 Q498.067 954.337 500.035 952.08 Q502.017 949.823 505.503 949.823 Z" fill="#000000" fill-rule="evenodd" fill-opacity="1" /><path clip-path="url(#clip560)" d="M 0 0 M529.201 956.637 L529.201 966.417 L526.539 966.417 L526.539 956.724 Q526.539 954.424 525.642 953.281 Q524.745 952.138 522.951 952.138 Q520.796 952.138 519.551 953.512 Q518.307 954.887 518.307 957.26 L518.307 966.417 L515.631 966.417 L515.631 950.214 L518.307 950.214 L518.307 952.731 Q519.262 951.27 520.55 950.547 Q521.852 949.823 523.544 949.823 Q526.337 949.823 527.769 951.559 Q529.201 953.281 529.201 956.637 Z" fill="#000000" fill-rule="evenodd" fill-opacity="1" /><path clip-path="url(#clip562)" d="M1019.09 984.231 L987.088 984.231 L1003.09 1016.23 L1019.09 984.231 Z" fill="#800080" fill-rule="evenodd" fill-opacity="1" stroke="none"/>
<polyline clip-path="url(#clip562)" style="stroke:#800080; stroke-width:4; stroke-opacity:1; fill:none" stroke-dasharray="16, 10" points="
  982.094,1013.72 1024.08,1013.72 
  "/>
<polyline clip-path="url(#clip562)" style="stroke:#800080; stroke-width:4; stroke-opacity:1; fill:none" stroke-dasharray="16, 10" points="
  982.094,986.747 1024.08,986.747 
  "/>
<polyline clip-path="url(#clip562)" style="stroke:#800080; stroke-width:4; stroke-opacity:1; fill:none" stroke-dasharray="16, 10" points="
  982.094,1013.72 982.094,986.747 
  "/>
<polyline clip-path="url(#clip562)" style="stroke:#800080; stroke-width:4; stroke-opacity:1; fill:none" stroke-dasharray="16, 10" points="
  1024.08,1013.72 1024.08,986.747 
  "/>
<path clip-path="url(#clip562)" d="M1002.6 931.368 L986.605 963.368 L1018.6 963.368 L1002.6 931.368 Z" fill="#800080" fill-rule="evenodd" fill-opacity="1" stroke="none"/>
<polyline clip-path="url(#clip562)" style="stroke:#800080; stroke-width:4; stroke-opacity:1; fill:none" stroke-dasharray="16, 10" points="
  984.433,962.013 1020.78,962.013 
  "/>
<polyline clip-path="url(#clip562)" style="stroke:#800080; stroke-width:4; stroke-opacity:1; fill:none" stroke-dasharray="16, 10" points="
  984.433,932.724 1020.78,932.724 
  "/>
<polyline clip-path="url(#clip562)" style="stroke:#800080; stroke-width:4; stroke-opacity:1; fill:none" stroke-dasharray="16, 10" points="
  984.433,962.013 984.433,932.724 
  "/>
<polyline clip-path="url(#clip562)" style="stroke:#800080; stroke-width:4; stroke-opacity:1; fill:none" stroke-dasharray="16, 10" points="
  1020.78,962.013 1020.78,932.724 
  "/>
<path clip-path="url(#clip562)" d="M1071.95 979.113 L1039.95 979.113 L1055.95 1011.11 L1071.95 979.113 Z" fill="#ffa500" fill-rule="evenodd" fill-opacity="1" stroke="none"/>
<polyline clip-path="url(#clip562)" style="stroke:#ffa500; stroke-width:4; stroke-opacity:1; fill:none" stroke-dasharray="16, 10" points="
  1044.91,1007.64 1066.99,1007.64 
  "/>
<polyline clip-path="url(#clip562)" style="stroke:#ffa500; stroke-width:4; stroke-opacity:1; fill:none" stroke-dasharray="16, 10" points="
  1044.91,982.586 1066.99,982.586 
  "/>
<polyline clip-path="url(#clip562)" style="stroke:#ffa500; stroke-width:4; stroke-opacity:1; fill:none" stroke-dasharray="16, 10" points="
  1044.91,1007.64 1044.91,982.586 
  "/>
<polyline clip-path="url(#clip562)" style="stroke:#ffa500; stroke-width:4; stroke-opacity:1; fill:none" stroke-dasharray="16, 10" points="
  1066.99,1007.64 1066.99,982.586 
  "/>
<path clip-path="url(#clip562)" d="M1049.68 938.459 L1033.68 970.459 L1065.68 970.459 L1049.68 938.459 Z" fill="#ffa500" fill-rule="evenodd" fill-opacity="1" stroke="none"/>
<polyline clip-path="url(#clip562)" style="stroke:#ffa500; stroke-width:4; stroke-opacity:1; fill:none" stroke-dasharray="16, 10" points="
  1028.51,969.493 1070.85,969.493 
  "/>
<polyline clip-path="url(#clip562)" style="stroke:#ffa500; stroke-width:4; stroke-opacity:1; fill:none" stroke-dasharray="16, 10" points="
  1028.51,939.426 1070.85,939.426 
  "/>
<polyline clip-path="url(#clip562)" style="stroke:#ffa500; stroke-width:4; stroke-opacity:1; fill:none" stroke-dasharray="16, 10" points="
  1028.51,969.493 1028.51,939.426 
  "/>
<polyline clip-path="url(#clip562)" style="stroke:#ffa500; stroke-width:4; stroke-opacity:1; fill:none" stroke-dasharray="16, 10" points="
  1070.85,969.493 1070.85,939.426 
  "/>
<path clip-path="url(#clip562)" d="M986.847 957.8 L986.847 989.8 L1018.85 989.8 L1018.85 957.8 L986.847 957.8 Z" fill="#800080" fill-rule="evenodd" fill-opacity="1" stroke="none"/>
<polyline clip-path="url(#clip562)" style="stroke:#800080; stroke-width:4; stroke-opacity:1; fill:none" stroke-dasharray="16, 10" points="
  989.447,985.945 1016.25,985.945 
  "/>
<polyline clip-path="url(#clip562)" style="stroke:#800080; stroke-width:4; stroke-opacity:1; fill:none" stroke-dasharray="16, 10" points="
  989.447,961.655 1016.25,961.655 
  "/>
<polyline clip-path="url(#clip562)" style="stroke:#800080; stroke-width:4; stroke-opacity:1; fill:none" stroke-dasharray="16, 10" points="
  989.447,985.945 989.447,961.655 
  "/>
<polyline clip-path="url(#clip562)" style="stroke:#800080; stroke-width:4; stroke-opacity:1; fill:none" stroke-dasharray="16, 10" points="
  1016.25,985.945 1016.25,961.655 
  "/>
<path clip-path="url(#clip562)" d="M1036.81 958.786 L1036.81 990.786 L1068.81 990.786 L1068.81 958.786 L1036.81 958.786 Z" fill="#ffa500" fill-rule="evenodd" fill-opacity="1" stroke="none"/>
<polyline clip-path="url(#clip562)" style="stroke:#ffa500; stroke-width:4; stroke-opacity:1; fill:none" stroke-dasharray="16, 10" points="
  1041.33,986.056 1064.29,986.056 
  "/>
<polyline clip-path="url(#clip562)" style="stroke:#ffa500; stroke-width:4; stroke-opacity:1; fill:none" stroke-dasharray="16, 10" points="
  1041.33,963.516 1064.29,963.516 
  "/>
<polyline clip-path="url(#clip562)" style="stroke:#ffa500; stroke-width:4; stroke-opacity:1; fill:none" stroke-dasharray="16, 10" points="
  1041.33,986.056 1041.33,963.516 
  "/>
<polyline clip-path="url(#clip562)" style="stroke:#ffa500; stroke-width:4; stroke-opacity:1; fill:none" stroke-dasharray="16, 10" points="
  1064.29,986.056 1064.29,963.516 
  "/>
</svg>
