<?xml version="1.0" encoding="utf-8"?>
<svg xmlns="http://www.w3.org/2000/svg" xmlns:xlink="http://www.w3.org/1999/xlink" width="600" height="400" viewBox="0 0 2400 1600">
<defs>
  <clipPath id="clip900">
    <rect x="0" y="0" width="2400" height="1600"/>
  </clipPath>
</defs>
<path clip-path="url(#clip900)" d="
M0 1600 L2400 1600 L2400 0 L0 0  Z
  " fill="#ffffff" fill-rule="evenodd" fill-opacity="1"/>
<defs>
  <clipPath id="clip901">
    <rect x="480" y="0" width="1681" height="1600"/>
  </clipPath>
</defs>
<path clip-path="url(#clip900)" d="
M86.9921 1521.01 L2352.76 1521.01 L2352.76 47.2441 L86.9921 47.2441  Z
  " fill="#ffffff" fill-rule="evenodd" fill-opacity="1"/>
<defs>
  <clipPath id="clip902">
    <rect x="86" y="47" width="2267" height="1475"/>
  </clipPath>
</defs>
<polyline clip-path="url(#clip902)" style="stroke:#000000; stroke-width:2; stroke-opacity:0.1; fill:none" points="
  1542.24,1521.01 1542.24,47.2441 
  "/>
<polyline clip-path="url(#clip902)" style="stroke:#000000; stroke-width:2; stroke-opacity:0.1; fill:none" points="
  86.9921,882.507 2352.76,882.507 
  "/>
<polyline clip-path="url(#clip900)" style="stroke:#000000; stroke-width:4; stroke-opacity:1; fill:none" points="
  86.9921,1521.01 2352.76,1521.01 
  "/>
<polyline clip-path="url(#clip900)" style="stroke:#000000; stroke-width:4; stroke-opacity:1; fill:none" points="
  86.9921,1521.01 86.9921,47.2441 
  "/>
<polyline clip-path="url(#clip900)" style="stroke:#000000; stroke-width:4; stroke-opacity:1; fill:none" points="
  1542.24,1521.01 1542.24,1503.32 
  "/>
<polyline clip-path="url(#clip900)" style="stroke:#000000; stroke-width:4; stroke-opacity:1; fill:none" points="
  86.9921,882.507 114.181,882.507 
  "/>
<path clip-path="url(#clip900)" d="M 0 0 M1542.24 1543 Q1538.63 1543 1536.8 1546.56 Q1534.99 1550.11 1534.99 1557.23 Q1534.99 1564.34 1536.8 1567.91 Q1538.63 1571.45 1542.24 1571.45 Q1545.87 1571.45 1547.68 1567.91 Q1549.51 1564.34 1549.51 1557.23 Q1549.51 1550.11 1547.68 1546.56 Q1545.87 1543 1542.24 1543 M1542.24 1539.29 Q1548.05 1539.29 1551.11 1543.9 Q1554.18 1548.48 1554.18 1557.23 Q1554.18 1565.96 1551.11 1570.57 Q1548.05 1575.15 1542.24 1575.15 Q1536.43 1575.15 1533.35 1570.57 Q1530.3 1565.96 1530.3 1557.23 Q1530.3 1548.48 1533.35 1543.9 Q1536.43 1539.29 1542.24 1539.29 Z" fill="#000000" fill-rule="evenodd" fill-opacity="1" /><path clip-path="url(#clip900)" d="M 0 0 M51.0477 868.306 Q47.4367 868.306 45.608 871.871 Q43.8024 875.412 43.8024 882.542 Q43.8024 889.648 45.608 893.213 Q47.4367 896.755 51.0477 896.755 Q54.682 896.755 56.4875 893.213 Q58.3162 889.648 58.3162 882.542 Q58.3162 875.412 56.4875 871.871 Q54.682 868.306 51.0477 868.306 M51.0477 864.602 Q56.8579 864.602 59.9134 869.209 Q62.9921 873.792 62.9921 882.542 Q62.9921 891.269 59.9134 895.875 Q56.8579 900.458 51.0477 900.458 Q45.2376 900.458 42.1589 895.875 Q39.1034 891.269 39.1034 882.542 Q39.1034 873.792 42.1589 869.209 Q45.2376 864.602 51.0477 864.602 Z" fill="#000000" fill-rule="evenodd" fill-opacity="1" /><circle clip-path="url(#clip902)" cx="1562.86" cy="934.21" r="14" fill="#808080" fill-rule="evenodd" fill-opacity="1" stroke="none"/>
<circle clip-path="url(#clip902)" cx="1510.78" cy="871.466" r="14" fill="#808080" fill-rule="evenodd" fill-opacity="1" stroke="none"/>
<circle clip-path="url(#clip902)" cx="1488.51" cy="892.807" r="14" fill="#808080" fill-rule="evenodd" fill-opacity="1" stroke="none"/>
<circle clip-path="url(#clip902)" cx="1531.89" cy="878.674" r="14" fill="#808080" fill-rule="evenodd" fill-opacity="1" stroke="none"/>
<circle clip-path="url(#clip902)" cx="1351.72" cy="1021.4" r="14" fill="#808080" fill-rule="evenodd" fill-opacity="1" stroke="none"/>
<circle clip-path="url(#clip902)" cx="1454.67" cy="916.997" r="14" fill="#808080" fill-rule="evenodd" fill-opacity="1" stroke="none"/>
<circle clip-path="url(#clip902)" cx="1083.35" cy="1047.69" r="14" fill="#808080" fill-rule="evenodd" fill-opacity="1" stroke="none"/>
<circle clip-path="url(#clip902)" cx="1458.52" cy="886.487" r="14" fill="#808080" fill-rule="evenodd" fill-opacity="1" stroke="none"/>
<circle clip-path="url(#clip902)" cx="1523.54" cy="896.63" r="14" fill="#808080" fill-rule="evenodd" fill-opacity="1" stroke="none"/>
<circle clip-path="url(#clip902)" cx="1498.27" cy="928.158" r="14" fill="#808080" fill-rule="evenodd" fill-opacity="1" stroke="none"/>
<circle clip-path="url(#clip902)" cx="1266.51" cy="791.539" r="14" fill="#808080" fill-rule="evenodd" fill-opacity="1" stroke="none"/>
<circle clip-path="url(#clip902)" cx="1571.32" cy="944.706" r="14" fill="#808080" fill-rule="evenodd" fill-opacity="1" stroke="none"/>
<circle clip-path="url(#clip902)" cx="1461.66" cy="846.973" r="14" fill="#808080" fill-rule="evenodd" fill-opacity="1" stroke="none"/>
<circle clip-path="url(#clip902)" cx="1351.72" cy="1021.4" r="14" fill="#808080" fill-rule="evenodd" fill-opacity="1" stroke="none"/>
<circle clip-path="url(#clip902)" cx="1532.96" cy="872.411" r="14" fill="#808080" fill-rule="evenodd" fill-opacity="1" stroke="none"/>
<circle clip-path="url(#clip902)" cx="1523.42" cy="933.302" r="14" fill="#808080" fill-rule="evenodd" fill-opacity="1" stroke="none"/>
<circle clip-path="url(#clip902)" cx="1469.7" cy="953.398" r="14" fill="#808080" fill-rule="evenodd" fill-opacity="1" stroke="none"/>
<circle clip-path="url(#clip902)" cx="1496.14" cy="976.204" r="14" fill="#808080" fill-rule="evenodd" fill-opacity="1" stroke="none"/>
<circle clip-path="url(#clip902)" cx="1515.16" cy="939.94" r="14" fill="#808080" fill-rule="evenodd" fill-opacity="1" stroke="none"/>
<circle clip-path="url(#clip902)" cx="1534.4" cy="862.114" r="14" fill="#808080" fill-rule="evenodd" fill-opacity="1" stroke="none"/>
<circle clip-path="url(#clip902)" cx="1374.64" cy="1054.83" r="14" fill="#808080" fill-rule="evenodd" fill-opacity="1" stroke="none"/>
<circle clip-path="url(#clip902)" cx="1640.63" cy="934.484" r="14" fill="#808080" fill-rule="evenodd" fill-opacity="1" stroke="none"/>
<circle clip-path="url(#clip902)" cx="1645.58" cy="964.407" r="14" fill="#808080" fill-rule="evenodd" fill-opacity="1" stroke="none"/>
<circle clip-path="url(#clip902)" cx="1644.75" cy="920.094" r="14" fill="#808080" fill-rule="evenodd" fill-opacity="1" stroke="none"/>
<circle clip-path="url(#clip902)" cx="1583.52" cy="938.918" r="14" fill="#808080" fill-rule="evenodd" fill-opacity="1" stroke="none"/>
<circle clip-path="url(#clip902)" cx="1613.61" cy="980.995" r="14" fill="#808080" fill-rule="evenodd" fill-opacity="1" stroke="none"/>
<circle clip-path="url(#clip902)" cx="1466.51" cy="881.406" r="14" fill="#808080" fill-rule="evenodd" fill-opacity="1" stroke="none"/>
<circle clip-path="url(#clip902)" cx="1514.24" cy="827.686" r="14" fill="#808080" fill-rule="evenodd" fill-opacity="1" stroke="none"/>
<circle clip-path="url(#clip902)" cx="1359.02" cy="987.668" r="14" fill="#808080" fill-rule="evenodd" fill-opacity="1" stroke="none"/>
<circle clip-path="url(#clip902)" cx="1527.06" cy="926.007" r="14" fill="#808080" fill-rule="evenodd" fill-opacity="1" stroke="none"/>
<circle clip-path="url(#clip902)" cx="1530.9" cy="854.764" r="14" fill="#808080" fill-rule="evenodd" fill-opacity="1" stroke="none"/>
<circle clip-path="url(#clip902)" cx="1583.65" cy="988.328" r="14" fill="#808080" fill-rule="evenodd" fill-opacity="1" stroke="none"/>
<circle clip-path="url(#clip902)" cx="1502.07" cy="855.407" r="14" fill="#808080" fill-rule="evenodd" fill-opacity="1" stroke="none"/>
<circle clip-path="url(#clip902)" cx="1561.65" cy="904.583" r="14" fill="#808080" fill-rule="evenodd" fill-opacity="1" stroke="none"/>
<circle clip-path="url(#clip902)" cx="1475.68" cy="771.296" r="14" fill="#808080" fill-rule="evenodd" fill-opacity="1" stroke="none"/>
<circle clip-path="url(#clip902)" cx="1449.47" cy="770.273" r="14" fill="#808080" fill-rule="evenodd" fill-opacity="1" stroke="none"/>
<circle clip-path="url(#clip902)" cx="1643.9" cy="826.206" r="14" fill="#808080" fill-rule="evenodd" fill-opacity="1" stroke="none"/>
<circle clip-path="url(#clip902)" cx="1529" cy="752.224" r="14" fill="#808080" fill-rule="evenodd" fill-opacity="1" stroke="none"/>
<circle clip-path="url(#clip902)" cx="1598.02" cy="773.516" r="14" fill="#808080" fill-rule="evenodd" fill-opacity="1" stroke="none"/>
<circle clip-path="url(#clip902)" cx="1699.14" cy="816.094" r="14" fill="#808080" fill-rule="evenodd" fill-opacity="1" stroke="none"/>
<circle clip-path="url(#clip902)" cx="1498.65" cy="756.644" r="14" fill="#808080" fill-rule="evenodd" fill-opacity="1" stroke="none"/>
<circle clip-path="url(#clip902)" cx="1675.12" cy="809.245" r="14" fill="#808080" fill-rule="evenodd" fill-opacity="1" stroke="none"/>
<circle clip-path="url(#clip902)" cx="1446.13" cy="870.117" r="14" fill="#808080" fill-rule="evenodd" fill-opacity="1" stroke="none"/>
<circle clip-path="url(#clip902)" cx="1475.4" cy="782.329" r="14" fill="#808080" fill-rule="evenodd" fill-opacity="1" stroke="none"/>
<circle clip-path="url(#clip902)" cx="1364.87" cy="756.058" r="14" fill="#808080" fill-rule="evenodd" fill-opacity="1" stroke="none"/>
<circle clip-path="url(#clip902)" cx="1269.6" cy="773.967" r="14" fill="#808080" fill-rule="evenodd" fill-opacity="1" stroke="none"/>
<circle clip-path="url(#clip902)" cx="1242.62" cy="903.6" r="14" fill="#808080" fill-rule="evenodd" fill-opacity="1" stroke="none"/>
<circle clip-path="url(#clip902)" cx="1470.69" cy="822.61" r="14" fill="#808080" fill-rule="evenodd" fill-opacity="1" stroke="none"/>
<circle clip-path="url(#clip902)" cx="1446.11" cy="831.932" r="14" fill="#808080" fill-rule="evenodd" fill-opacity="1" stroke="none"/>
<circle clip-path="url(#clip902)" cx="1446.67" cy="750.703" r="14" fill="#808080" fill-rule="evenodd" fill-opacity="1" stroke="none"/>
<circle clip-path="url(#clip902)" cx="1462.06" cy="813.834" r="14" fill="#808080" fill-rule="evenodd" fill-opacity="1" stroke="none"/>
<circle clip-path="url(#clip902)" cx="1421.58" cy="829.604" r="14" fill="#808080" fill-rule="evenodd" fill-opacity="1" stroke="none"/>
<circle clip-path="url(#clip902)" cx="1480.61" cy="981.217" r="14" fill="#808080" fill-rule="evenodd" fill-opacity="1" stroke="none"/>
<circle clip-path="url(#clip902)" cx="1483.53" cy="1043.97" r="14" fill="#808080" fill-rule="evenodd" fill-opacity="1" stroke="none"/>
<circle clip-path="url(#clip902)" cx="1636.68" cy="860.266" r="14" fill="#808080" fill-rule="evenodd" fill-opacity="1" stroke="none"/>
<circle clip-path="url(#clip902)" cx="1530.84" cy="1002.14" r="14" fill="#808080" fill-rule="evenodd" fill-opacity="1" stroke="none"/>
<circle clip-path="url(#clip902)" cx="1708.57" cy="860.266" r="14" fill="#808080" fill-rule="evenodd" fill-opacity="1" stroke="none"/>
<circle clip-path="url(#clip902)" cx="1597.72" cy="905.309" r="14" fill="#808080" fill-rule="evenodd" fill-opacity="1" stroke="none"/>
<circle clip-path="url(#clip902)" cx="1626.14" cy="932.769" r="14" fill="#808080" fill-rule="evenodd" fill-opacity="1" stroke="none"/>
<circle clip-path="url(#clip902)" cx="1615.94" cy="897.316" r="14" fill="#808080" fill-rule="evenodd" fill-opacity="1" stroke="none"/>
<circle clip-path="url(#clip902)" cx="1620.31" cy="949.965" r="14" fill="#808080" fill-rule="evenodd" fill-opacity="1" stroke="none"/>
<circle clip-path="url(#clip902)" cx="1570.7" cy="898.731" r="14" fill="#808080" fill-rule="evenodd" fill-opacity="1" stroke="none"/>
<circle clip-path="url(#clip902)" cx="1637.46" cy="898.259" r="14" fill="#808080" fill-rule="evenodd" fill-opacity="1" stroke="none"/>
<circle clip-path="url(#clip902)" cx="1623.6" cy="869.697" r="14" fill="#808080" fill-rule="evenodd" fill-opacity="1" stroke="none"/>
<circle clip-path="url(#clip902)" cx="1567.36" cy="909.473" r="14" fill="#808080" fill-rule="evenodd" fill-opacity="1" stroke="none"/>
<circle clip-path="url(#clip902)" cx="1634.49" cy="925.412" r="14" fill="#808080" fill-rule="evenodd" fill-opacity="1" stroke="none"/>
<circle clip-path="url(#clip902)" cx="1665.09" cy="918.453" r="14" fill="#808080" fill-rule="evenodd" fill-opacity="1" stroke="none"/>
<circle clip-path="url(#clip902)" cx="1645.9" cy="961.724" r="14" fill="#808080" fill-rule="evenodd" fill-opacity="1" stroke="none"/>
<circle clip-path="url(#clip902)" cx="1656.72" cy="976.272" r="14" fill="#808080" fill-rule="evenodd" fill-opacity="1" stroke="none"/>
<circle clip-path="url(#clip902)" cx="1631.41" cy="962.868" r="14" fill="#808080" fill-rule="evenodd" fill-opacity="1" stroke="none"/>
<circle clip-path="url(#clip902)" cx="1655.93" cy="891.245" r="14" fill="#808080" fill-rule="evenodd" fill-opacity="1" stroke="none"/>
<circle clip-path="url(#clip902)" cx="1585.06" cy="913.065" r="14" fill="#808080" fill-rule="evenodd" fill-opacity="1" stroke="none"/>
<circle clip-path="url(#clip902)" cx="1635.39" cy="909.106" r="14" fill="#808080" fill-rule="evenodd" fill-opacity="1" stroke="none"/>
<circle clip-path="url(#clip902)" cx="1708.01" cy="807.18" r="14" fill="#808080" fill-rule="evenodd" fill-opacity="1" stroke="none"/>
<circle clip-path="url(#clip902)" cx="1721.55" cy="886.65" r="14" fill="#808080" fill-rule="evenodd" fill-opacity="1" stroke="none"/>
<circle clip-path="url(#clip902)" cx="1675.75" cy="893.449" r="14" fill="#808080" fill-rule="evenodd" fill-opacity="1" stroke="none"/>
<circle clip-path="url(#clip902)" cx="1631.38" cy="857.111" r="14" fill="#808080" fill-rule="evenodd" fill-opacity="1" stroke="none"/>
<circle clip-path="url(#clip902)" cx="1626.35" cy="932.34" r="14" fill="#808080" fill-rule="evenodd" fill-opacity="1" stroke="none"/>
<circle clip-path="url(#clip902)" cx="1580.59" cy="909.034" r="14" fill="#808080" fill-rule="evenodd" fill-opacity="1" stroke="none"/>
<circle clip-path="url(#clip902)" cx="1633.52" cy="900.616" r="14" fill="#808080" fill-rule="evenodd" fill-opacity="1" stroke="none"/>
<circle clip-path="url(#clip902)" cx="1603.87" cy="799.093" r="14" fill="#808080" fill-rule="evenodd" fill-opacity="1" stroke="none"/>
<circle clip-path="url(#clip902)" cx="1744.33" cy="804.639" r="14" fill="#808080" fill-rule="evenodd" fill-opacity="1" stroke="none"/>
<circle clip-path="url(#clip902)" cx="1629.99" cy="803.481" r="14" fill="#808080" fill-rule="evenodd" fill-opacity="1" stroke="none"/>
<circle clip-path="url(#clip902)" cx="1747.41" cy="812.487" r="14" fill="#808080" fill-rule="evenodd" fill-opacity="1" stroke="none"/>
<circle clip-path="url(#clip902)" cx="1698.74" cy="855.584" r="14" fill="#808080" fill-rule="evenodd" fill-opacity="1" stroke="none"/>
<circle clip-path="url(#clip902)" cx="1662.84" cy="945.031" r="14" fill="#808080" fill-rule="evenodd" fill-opacity="1" stroke="none"/>
<circle clip-path="url(#clip902)" cx="1696.82" cy="843.121" r="14" fill="#808080" fill-rule="evenodd" fill-opacity="1" stroke="none"/>
<circle clip-path="url(#clip902)" cx="1552.77" cy="788.461" r="14" fill="#808080" fill-rule="evenodd" fill-opacity="1" stroke="none"/>
<circle clip-path="url(#clip902)" cx="1567.1" cy="717.928" r="14" fill="#808080" fill-rule="evenodd" fill-opacity="1" stroke="none"/>
<circle clip-path="url(#clip902)" cx="1533.33" cy="832.13" r="14" fill="#808080" fill-rule="evenodd" fill-opacity="1" stroke="none"/>
<circle clip-path="url(#clip902)" cx="1607.69" cy="730.016" r="14" fill="#808080" fill-rule="evenodd" fill-opacity="1" stroke="none"/>
<circle clip-path="url(#clip902)" cx="1677.98" cy="757.67" r="14" fill="#808080" fill-rule="evenodd" fill-opacity="1" stroke="none"/>
<circle clip-path="url(#clip902)" cx="1438.27" cy="876.6" r="14" fill="#808080" fill-rule="evenodd" fill-opacity="1" stroke="none"/>
<circle clip-path="url(#clip902)" cx="1423.93" cy="926.682" r="14" fill="#808080" fill-rule="evenodd" fill-opacity="1" stroke="none"/>
<circle clip-path="url(#clip902)" cx="1324.83" cy="852.238" r="14" fill="#808080" fill-rule="evenodd" fill-opacity="1" stroke="none"/>
<circle clip-path="url(#clip902)" cx="1408.86" cy="875.288" r="14" fill="#808080" fill-rule="evenodd" fill-opacity="1" stroke="none"/>
<circle clip-path="url(#clip902)" cx="1559.81" cy="927.135" r="14" fill="#800080" fill-rule="evenodd" fill-opacity="1" stroke="none"/>
<circle clip-path="url(#clip902)" cx="1504.35" cy="892.954" r="14" fill="#800080" fill-rule="evenodd" fill-opacity="1" stroke="none"/>
<circle clip-path="url(#clip902)" cx="1496.24" cy="891.763" r="14" fill="#800080" fill-rule="evenodd" fill-opacity="1" stroke="none"/>
<circle clip-path="url(#clip902)" cx="1528.4" cy="890.232" r="14" fill="#800080" fill-rule="evenodd" fill-opacity="1" stroke="none"/>
<circle clip-path="url(#clip902)" cx="1351.72" cy="1021.4" r="14" fill="#800080" fill-rule="evenodd" fill-opacity="1" stroke="none"/>
<circle clip-path="url(#clip902)" cx="1449.59" cy="943.284" r="14" fill="#800080" fill-rule="evenodd" fill-opacity="1" stroke="none"/>
<circle clip-path="url(#clip902)" cx="1132.41" cy="962.172" r="14" fill="#800080" fill-rule="evenodd" fill-opacity="1" stroke="none"/>
<circle clip-path="url(#clip902)" cx="1447.73" cy="898.143" r="14" fill="#800080" fill-rule="evenodd" fill-opacity="1" stroke="none"/>
<circle clip-path="url(#clip902)" cx="1550.31" cy="893.021" r="14" fill="#800080" fill-rule="evenodd" fill-opacity="1" stroke="none"/>
<circle clip-path="url(#clip902)" cx="1496.57" cy="919.192" r="14" fill="#800080" fill-rule="evenodd" fill-opacity="1" stroke="none"/>
<circle clip-path="url(#clip902)" cx="1274.59" cy="548.295" r="14" fill="#800080" fill-rule="evenodd" fill-opacity="1" stroke="none"/>
<circle clip-path="url(#clip902)" cx="1576.12" cy="911.542" r="14" fill="#800080" fill-rule="evenodd" fill-opacity="1" stroke="none"/>
<circle clip-path="url(#clip902)" cx="1455.55" cy="887.006" r="14" fill="#800080" fill-rule="evenodd" fill-opacity="1" stroke="none"/>
<circle clip-path="url(#clip902)" cx="1351.72" cy="1021.4" r="14" fill="#800080" fill-rule="evenodd" fill-opacity="1" stroke="none"/>
<circle clip-path="url(#clip902)" cx="1525.75" cy="888.504" r="14" fill="#800080" fill-rule="evenodd" fill-opacity="1" stroke="none"/>
<circle clip-path="url(#clip902)" cx="1531.22" cy="916.296" r="14" fill="#800080" fill-rule="evenodd" fill-opacity="1" stroke="none"/>
<circle clip-path="url(#clip902)" cx="1460.43" cy="942.273" r="14" fill="#800080" fill-rule="evenodd" fill-opacity="1" stroke="none"/>
<circle clip-path="url(#clip902)" cx="1517.75" cy="966.745" r="14" fill="#800080" fill-rule="evenodd" fill-opacity="1" stroke="none"/>
<circle clip-path="url(#clip902)" cx="1520.6" cy="920.853" r="14" fill="#800080" fill-rule="evenodd" fill-opacity="1" stroke="none"/>
<circle clip-path="url(#clip902)" cx="1509.3" cy="871.136" r="14" fill="#800080" fill-rule="evenodd" fill-opacity="1" stroke="none"/>
<circle clip-path="url(#clip902)" cx="1391.35" cy="1048.65" r="14" fill="#800080" fill-rule="evenodd" fill-opacity="1" stroke="none"/>
<circle clip-path="url(#clip902)" cx="1622.79" cy="925.221" r="14" fill="#800080" fill-rule="evenodd" fill-opacity="1" stroke="none"/>
<circle clip-path="url(#clip902)" cx="1665.6" cy="941.446" r="14" fill="#800080" fill-rule="evenodd" fill-opacity="1" stroke="none"/>
<circle clip-path="url(#clip902)" cx="1607.09" cy="919.66" r="14" fill="#800080" fill-rule="evenodd" fill-opacity="1" stroke="none"/>
<circle clip-path="url(#clip902)" cx="1553.92" cy="951.332" r="14" fill="#800080" fill-rule="evenodd" fill-opacity="1" stroke="none"/>
<circle clip-path="url(#clip902)" cx="1620.46" cy="934.849" r="14" fill="#800080" fill-rule="evenodd" fill-opacity="1" stroke="none"/>
<circle clip-path="url(#clip902)" cx="1458.45" cy="894.903" r="14" fill="#800080" fill-rule="evenodd" fill-opacity="1" stroke="none"/>
<circle clip-path="url(#clip902)" cx="1499.16" cy="848.443" r="14" fill="#800080" fill-rule="evenodd" fill-opacity="1" stroke="none"/>
<circle clip-path="url(#clip902)" cx="1395.6" cy="940.293" r="14" fill="#800080" fill-rule="evenodd" fill-opacity="1" stroke="none"/>
<circle clip-path="url(#clip902)" cx="1502.46" cy="922.384" r="14" fill="#800080" fill-rule="evenodd" fill-opacity="1" stroke="none"/>
<circle clip-path="url(#clip902)" cx="1508.21" cy="872.563" r="14" fill="#800080" fill-rule="evenodd" fill-opacity="1" stroke="none"/>
<circle clip-path="url(#clip902)" cx="1586.99" cy="947.917" r="14" fill="#800080" fill-rule="evenodd" fill-opacity="1" stroke="none"/>
<circle clip-path="url(#clip902)" cx="1499.6" cy="861.1" r="14" fill="#800080" fill-rule="evenodd" fill-opacity="1" stroke="none"/>
<circle clip-path="url(#clip902)" cx="1569.35" cy="873.584" r="14" fill="#800080" fill-rule="evenodd" fill-opacity="1" stroke="none"/>
<circle clip-path="url(#clip902)" cx="1470.66" cy="806.313" r="14" fill="#800080" fill-rule="evenodd" fill-opacity="1" stroke="none"/>
<circle clip-path="url(#clip902)" cx="1436.42" cy="791.177" r="14" fill="#800080" fill-rule="evenodd" fill-opacity="1" stroke="none"/>
<circle clip-path="url(#clip902)" cx="1648.82" cy="843.727" r="14" fill="#800080" fill-rule="evenodd" fill-opacity="1" stroke="none"/>
<circle clip-path="url(#clip902)" cx="1510.9" cy="812.744" r="14" fill="#800080" fill-rule="evenodd" fill-opacity="1" stroke="none"/>
<circle clip-path="url(#clip902)" cx="1580.09" cy="822.159" r="14" fill="#800080" fill-rule="evenodd" fill-opacity="1" stroke="none"/>
<circle clip-path="url(#clip902)" cx="1682.91" cy="840.15" r="14" fill="#800080" fill-rule="evenodd" fill-opacity="1" stroke="none"/>
<circle clip-path="url(#clip902)" cx="1485.42" cy="807.034" r="14" fill="#800080" fill-rule="evenodd" fill-opacity="1" stroke="none"/>
<circle clip-path="url(#clip902)" cx="1660.31" cy="843.549" r="14" fill="#800080" fill-rule="evenodd" fill-opacity="1" stroke="none"/>
<circle clip-path="url(#clip902)" cx="1440.06" cy="900.603" r="14" fill="#800080" fill-rule="evenodd" fill-opacity="1" stroke="none"/>
<circle clip-path="url(#clip902)" cx="1452.65" cy="842.635" r="14" fill="#800080" fill-rule="evenodd" fill-opacity="1" stroke="none"/>
<circle clip-path="url(#clip902)" cx="1366.01" cy="828.546" r="14" fill="#800080" fill-rule="evenodd" fill-opacity="1" stroke="none"/>
<circle clip-path="url(#clip902)" cx="1298.14" cy="823.158" r="14" fill="#800080" fill-rule="evenodd" fill-opacity="1" stroke="none"/>
<circle clip-path="url(#clip902)" cx="1244.07" cy="894.297" r="14" fill="#800080" fill-rule="evenodd" fill-opacity="1" stroke="none"/>
<circle clip-path="url(#clip902)" cx="1459.08" cy="869.464" r="14" fill="#800080" fill-rule="evenodd" fill-opacity="1" stroke="none"/>
<circle clip-path="url(#clip902)" cx="1438.38" cy="863.914" r="14" fill="#800080" fill-rule="evenodd" fill-opacity="1" stroke="none"/>
<circle clip-path="url(#clip902)" cx="1444.06" cy="813.151" r="14" fill="#800080" fill-rule="evenodd" fill-opacity="1" stroke="none"/>
<circle clip-path="url(#clip902)" cx="1469.87" cy="789.11" r="14" fill="#800080" fill-rule="evenodd" fill-opacity="1" stroke="none"/>
<circle clip-path="url(#clip902)" cx="1411.72" cy="873.159" r="14" fill="#800080" fill-rule="evenodd" fill-opacity="1" stroke="none"/>
<circle clip-path="url(#clip902)" cx="1504.61" cy="915.694" r="14" fill="#ffa500" fill-rule="evenodd" fill-opacity="1" stroke="none"/>
<circle clip-path="url(#clip902)" cx="1483.16" cy="997.209" r="14" fill="#ffa500" fill-rule="evenodd" fill-opacity="1" stroke="none"/>
<circle clip-path="url(#clip902)" cx="1599.37" cy="886.537" r="14" fill="#ffa500" fill-rule="evenodd" fill-opacity="1" stroke="none"/>
<circle clip-path="url(#clip902)" cx="1523.51" cy="958.196" r="14" fill="#ffa500" fill-rule="evenodd" fill-opacity="1" stroke="none"/>
<circle clip-path="url(#clip902)" cx="1699.65" cy="858.449" r="14" fill="#ffa500" fill-rule="evenodd" fill-opacity="1" stroke="none"/>
<circle clip-path="url(#clip902)" cx="1608.58" cy="870.442" r="14" fill="#ffa500" fill-rule="evenodd" fill-opacity="1" stroke="none"/>
<circle clip-path="url(#clip902)" cx="1623.41" cy="908.931" r="14" fill="#ffa500" fill-rule="evenodd" fill-opacity="1" stroke="none"/>
<circle clip-path="url(#clip902)" cx="1609.31" cy="891.102" r="14" fill="#ffa500" fill-rule="evenodd" fill-opacity="1" stroke="none"/>
<circle clip-path="url(#clip902)" cx="1641.97" cy="905.176" r="14" fill="#ffa500" fill-rule="evenodd" fill-opacity="1" stroke="none"/>
<circle clip-path="url(#clip902)" cx="1560.67" cy="893.563" r="14" fill="#ffa500" fill-rule="evenodd" fill-opacity="1" stroke="none"/>
<circle clip-path="url(#clip902)" cx="1626.31" cy="884.798" r="14" fill="#ffa500" fill-rule="evenodd" fill-opacity="1" stroke="none"/>
<circle clip-path="url(#clip902)" cx="1625.72" cy="860.31" r="14" fill="#ffa500" fill-rule="evenodd" fill-opacity="1" stroke="none"/>
<circle clip-path="url(#clip902)" cx="1589.72" cy="865.717" r="14" fill="#ffa500" fill-rule="evenodd" fill-opacity="1" stroke="none"/>
<circle clip-path="url(#clip902)" cx="1639.79" cy="898.249" r="14" fill="#ffa500" fill-rule="evenodd" fill-opacity="1" stroke="none"/>
<circle clip-path="url(#clip902)" cx="1685.17" cy="903.049" r="14" fill="#ffa500" fill-rule="evenodd" fill-opacity="1" stroke="none"/>
<circle clip-path="url(#clip902)" cx="1669.79" cy="929.498" r="14" fill="#ffa500" fill-rule="evenodd" fill-opacity="1" stroke="none"/>
<circle clip-path="url(#clip902)" cx="1654.32" cy="950.618" r="14" fill="#ffa500" fill-rule="evenodd" fill-opacity="1" stroke="none"/>
<circle clip-path="url(#clip902)" cx="1632.4" cy="945.838" r="14" fill="#ffa500" fill-rule="evenodd" fill-opacity="1" stroke="none"/>
<circle clip-path="url(#clip902)" cx="1649.98" cy="868.123" r="14" fill="#ffa500" fill-rule="evenodd" fill-opacity="1" stroke="none"/>
<circle clip-path="url(#clip902)" cx="1581.28" cy="883.972" r="14" fill="#ffa500" fill-rule="evenodd" fill-opacity="1" stroke="none"/>
<circle clip-path="url(#clip902)" cx="1626.7" cy="885.231" r="14" fill="#ffa500" fill-rule="evenodd" fill-opacity="1" stroke="none"/>
<circle clip-path="url(#clip902)" cx="1715.95" cy="807.37" r="14" fill="#ffa500" fill-rule="evenodd" fill-opacity="1" stroke="none"/>
<circle clip-path="url(#clip902)" cx="1717.9" cy="886.346" r="14" fill="#ffa500" fill-rule="evenodd" fill-opacity="1" stroke="none"/>
<circle clip-path="url(#clip902)" cx="1671.93" cy="891.676" r="14" fill="#ffa500" fill-rule="evenodd" fill-opacity="1" stroke="none"/>
<circle clip-path="url(#clip902)" cx="1626.69" cy="860.991" r="14" fill="#ffa500" fill-rule="evenodd" fill-opacity="1" stroke="none"/>
<circle clip-path="url(#clip902)" cx="1630.28" cy="922.599" r="14" fill="#ffa500" fill-rule="evenodd" fill-opacity="1" stroke="none"/>
<circle clip-path="url(#clip902)" cx="1582.31" cy="886.35" r="14" fill="#ffa500" fill-rule="evenodd" fill-opacity="1" stroke="none"/>
<circle clip-path="url(#clip902)" cx="1623.77" cy="878.62" r="14" fill="#ffa500" fill-rule="evenodd" fill-opacity="1" stroke="none"/>
<circle clip-path="url(#clip902)" cx="1587.71" cy="826.85" r="14" fill="#ffa500" fill-rule="evenodd" fill-opacity="1" stroke="none"/>
<circle clip-path="url(#clip902)" cx="1765.7" cy="810.987" r="14" fill="#ffa500" fill-rule="evenodd" fill-opacity="1" stroke="none"/>
<circle clip-path="url(#clip902)" cx="1617.22" cy="823.861" r="14" fill="#ffa500" fill-rule="evenodd" fill-opacity="1" stroke="none"/>
<circle clip-path="url(#clip902)" cx="1815.36" cy="809.205" r="14" fill="#ffa500" fill-rule="evenodd" fill-opacity="1" stroke="none"/>
<circle clip-path="url(#clip902)" cx="1697.03" cy="855.135" r="14" fill="#ffa500" fill-rule="evenodd" fill-opacity="1" stroke="none"/>
<circle clip-path="url(#clip902)" cx="1677.91" cy="893.677" r="14" fill="#ffa500" fill-rule="evenodd" fill-opacity="1" stroke="none"/>
<circle clip-path="url(#clip902)" cx="1693.61" cy="836.02" r="14" fill="#ffa500" fill-rule="evenodd" fill-opacity="1" stroke="none"/>
<circle clip-path="url(#clip902)" cx="1553.9" cy="856.992" r="14" fill="#ffa500" fill-rule="evenodd" fill-opacity="1" stroke="none"/>
<circle clip-path="url(#clip902)" cx="1571.39" cy="781.651" r="14" fill="#ffa500" fill-rule="evenodd" fill-opacity="1" stroke="none"/>
<circle clip-path="url(#clip902)" cx="1524.05" cy="888.787" r="14" fill="#ffa500" fill-rule="evenodd" fill-opacity="1" stroke="none"/>
<circle clip-path="url(#clip902)" cx="1627.96" cy="768.273" r="14" fill="#ffa500" fill-rule="evenodd" fill-opacity="1" stroke="none"/>
<circle clip-path="url(#clip902)" cx="1697.07" cy="773.311" r="14" fill="#ffa500" fill-rule="evenodd" fill-opacity="1" stroke="none"/>
<circle clip-path="url(#clip902)" cx="1425.79" cy="911.125" r="14" fill="#ffa500" fill-rule="evenodd" fill-opacity="1" stroke="none"/>
<circle clip-path="url(#clip902)" cx="1398.98" cy="946.107" r="14" fill="#ffa500" fill-rule="evenodd" fill-opacity="1" stroke="none"/>
<circle clip-path="url(#clip902)" cx="1361.59" cy="889.746" r="14" fill="#ffa500" fill-rule="evenodd" fill-opacity="1" stroke="none"/>
<circle clip-path="url(#clip902)" cx="1414.69" cy="893.726" r="14" fill="#ffa500" fill-rule="evenodd" fill-opacity="1" stroke="none"/>
<polyline clip-path="url(#clip902)" style="stroke:#ffa500; stroke-width:0.57127; stroke-opacity:1; fill:none" points="
  797.639,947.267 2288.63,88.9544 
  "/>
<polyline clip-path="url(#clip902)" style="stroke:#ffa500; stroke-width:0.310112; stroke-opacity:1; fill:none" points="
  1302.59,1231.1 1384.02,736.641 
  "/>
<polyline clip-path="url(#clip902)" style="stroke:#ffa500; stroke-width:0.344254; stroke-opacity:1; fill:none" points="
  151.118,819.29 1302.59,1231.1 
  "/>
<polyline clip-path="url(#clip902)" style="stroke:#800080; stroke-width:2.41942; stroke-opacity:1; fill:none" points="
  151.118,819.29 2232.42,1479.3 
  "/>
<polyline clip-path="url(#clip902)" style="stroke:#ffa500; stroke-width:3.09601; stroke-opacity:1; fill:none" points="
  1384.02,736.641 2288.63,88.9544 
  "/>
<polyline clip-path="url(#clip902)" style="stroke:#800080; stroke-width:3.5991; stroke-opacity:1; fill:none" points="
  151.118,819.29 1384.02,736.641 
  "/>
<polyline clip-path="url(#clip902)" style="stroke:#ffa500; stroke-width:4.58072; stroke-opacity:1; fill:none" points="
  1384.02,736.641 2232.42,1479.3 
  "/>
<polyline clip-path="url(#clip902)" style="stroke:#ffa500; stroke-width:1.47784; stroke-opacity:1; fill:none" points="
  1302.59,1231.1 2232.42,1479.3 
  "/>
<polyline clip-path="url(#clip902)" style="stroke:#800080; stroke-width:6.48496; stroke-opacity:1; fill:none" points="
  151.118,819.29 797.639,947.267 
  "/>
<polyline clip-path="url(#clip902)" style="stroke:#ffa500; stroke-width:0.694986; stroke-opacity:1; fill:none" points="
  1302.59,1231.1 2288.63,88.9544 
  "/>
<polyline clip-path="url(#clip902)" style="stroke:#ffa500; stroke-width:8; stroke-opacity:1; fill:none" points="
  2232.42,1479.3 2288.63,88.9544 
  "/>
<polyline clip-path="url(#clip902)" style="stroke:#800080; stroke-width:2.90053; stroke-opacity:1; fill:none" points="
  797.639,947.267 1384.02,736.641 
  "/>
<polyline clip-path="url(#clip902)" style="stroke:#800080; stroke-width:2.12299; stroke-opacity:1; fill:none" points="
  797.639,947.267 1302.59,1231.1 
  "/>
<polyline clip-path="url(#clip902)" style="stroke:#800080; stroke-width:2.00262; stroke-opacity:1; fill:none" points="
  151.118,819.29 2288.63,88.9544 
  "/>
<polyline clip-path="url(#clip902)" style="stroke:#ffa500; stroke-width:0.179937; stroke-opacity:1; fill:none" points="
  797.639,947.267 2232.42,1479.3 
  "/>
<circle clip-path="url(#clip902)" cx="1384.02" cy="736.641" r="23" fill="#000000" fill-rule="evenodd" fill-opacity="1" stroke="none"/>
<circle clip-path="url(#clip902)" cx="797.639" cy="947.267" r="26" fill="#000000" fill-rule="evenodd" fill-opacity="1" stroke="none"/>
<circle clip-path="url(#clip902)" cx="2288.63" cy="88.9544" r="23" fill="#000000" fill-rule="evenodd" fill-opacity="1" stroke="none"/>
<circle clip-path="url(#clip902)" cx="1302.59" cy="1231.1" r="8" fill="#000000" fill-rule="evenodd" fill-opacity="1" stroke="none"/>
<circle clip-path="url(#clip902)" cx="2232.42" cy="1479.3" r="28" fill="#000000" fill-rule="evenodd" fill-opacity="1" stroke="none"/>
<circle clip-path="url(#clip902)" cx="151.118" cy="819.29" r="8" fill="#000000" fill-rule="evenodd" fill-opacity="1" stroke="none"/>
<path clip-path="url(#clip900)" d="M 0 0 M1308.21 713.126 L1308.21 760.157 L1318.09 760.157 Q1330.61 760.157 1336.41 754.486 Q1342.24 748.814 1342.24 736.581 Q1342.24 724.428 1336.41 718.797 Q1330.61 713.126 1318.09 713.126 L1308.21 713.126 M1300.03 706.401 L1316.84 706.401 Q1334.42 706.401 1342.64 713.733 Q1350.87 721.025 1350.87 736.581 Q1350.87 752.217 1342.6 759.549 Q1334.34 766.881 1316.84 766.881 L1300.03 766.881 L1300.03 706.401 Z" fill="#000000" fill-rule="evenodd" fill-opacity="1" /><path clip-path="url(#clip900)" d="M 0 0 M1379.3 744.075 Q1370.27 744.075 1366.79 746.141 Q1363.3 748.207 1363.3 753.189 Q1363.3 757.159 1365.9 759.509 Q1368.53 761.818 1373.03 761.818 Q1379.22 761.818 1382.95 757.443 Q1386.72 753.027 1386.72 745.736 L1386.72 744.075 L1379.3 744.075 M1394.17 740.996 L1394.17 766.881 L1386.72 766.881 L1386.72 759.995 Q1384.17 764.127 1380.36 766.112 Q1376.55 768.056 1371.04 768.056 Q1364.07 768.056 1359.94 764.167 Q1355.85 760.238 1355.85 753.675 Q1355.85 746.019 1360.95 742.13 Q1366.1 738.241 1376.27 738.241 L1386.72 738.241 L1386.72 737.512 Q1386.72 732.368 1383.31 729.572 Q1379.95 726.737 1373.84 726.737 Q1369.95 726.737 1366.26 727.669 Q1362.57 728.6 1359.17 730.464 L1359.17 723.577 Q1363.26 721.997 1367.11 721.228 Q1370.96 720.417 1374.61 720.417 Q1384.45 720.417 1389.31 725.522 Q1394.17 730.626 1394.17 740.996 Z" fill="#000000" fill-rule="evenodd" fill-opacity="1" /><path clip-path="url(#clip900)" d="M 0 0 M1409.36 708.629 L1409.36 721.511 L1424.71 721.511 L1424.71 727.304 L1409.36 727.304 L1409.36 751.933 Q1409.36 757.483 1410.86 759.063 Q1412.4 760.643 1417.06 760.643 L1424.71 760.643 L1424.71 766.881 L1417.06 766.881 Q1408.43 766.881 1405.15 763.681 Q1401.87 760.44 1401.87 751.933 L1401.87 727.304 L1396.4 727.304 L1396.4 721.511 L1401.87 721.511 L1401.87 708.629 L1409.36 708.629 Z" fill="#000000" fill-rule="evenodd" fill-opacity="1" /><path clip-path="url(#clip900)" d="M 0 0 M1453.15 744.075 Q1444.12 744.075 1440.63 746.141 Q1437.15 748.207 1437.15 753.189 Q1437.15 757.159 1439.74 759.509 Q1442.38 761.818 1446.87 761.818 Q1453.07 761.818 1456.8 757.443 Q1460.57 753.027 1460.57 745.736 L1460.57 744.075 L1453.15 744.075 M1468.02 740.996 L1468.02 766.881 L1460.57 766.881 L1460.57 759.995 Q1458.01 764.127 1454.21 766.112 Q1450.4 768.056 1444.89 768.056 Q1437.92 768.056 1433.79 764.167 Q1429.7 760.238 1429.7 753.675 Q1429.7 746.019 1434.8 742.13 Q1439.95 738.241 1450.11 738.241 L1460.57 738.241 L1460.57 737.512 Q1460.57 732.368 1457.16 729.572 Q1453.8 726.737 1447.68 726.737 Q1443.79 726.737 1440.11 727.669 Q1436.42 728.6 1433.02 730.464 L1433.02 723.577 Q1437.11 721.997 1440.96 721.228 Q1444.81 720.417 1448.45 720.417 Q1458.3 720.417 1463.16 725.522 Q1468.02 730.626 1468.02 740.996 Z" fill="#000000" fill-rule="evenodd" fill-opacity="1" /><path clip-path="url(#clip900)" d="M 0 0 M400.306 917.027 L451.469 917.027 L451.469 923.914 L429.999 923.914 L429.999 977.507 L421.776 977.507 L421.776 923.914 L400.306 923.914 L400.306 917.027 Z" fill="#000000" fill-rule="evenodd" fill-opacity="1" /><path clip-path="url(#clip900)" d="M 0 0 M483.998 952.959 L483.998 956.604 L449.727 956.604 Q450.213 964.301 454.345 968.352 Q458.518 972.362 465.931 972.362 Q470.225 972.362 474.235 971.309 Q478.286 970.256 482.256 968.15 L482.256 975.198 Q478.246 976.899 474.033 977.791 Q469.82 978.682 465.485 978.682 Q454.629 978.682 448.269 972.362 Q441.95 966.043 441.95 955.268 Q441.95 944.128 447.945 937.606 Q453.981 931.043 464.189 931.043 Q473.344 931.043 478.651 936.958 Q483.998 942.831 483.998 952.959 M476.544 950.771 Q476.463 944.654 473.101 941.008 Q469.779 937.363 464.27 937.363 Q458.032 937.363 454.264 940.887 Q450.538 944.411 449.97 950.812 L476.544 950.771 Z" fill="#000000" fill-rule="evenodd" fill-opacity="1" /><path clip-path="url(#clip900)" d="M 0 0 M524.467 933.879 L524.467 940.846 Q521.307 939.105 518.107 938.254 Q514.947 937.363 511.706 937.363 Q504.455 937.363 500.445 941.981 Q496.434 946.558 496.434 954.863 Q496.434 963.167 500.445 967.785 Q504.455 972.362 511.706 972.362 Q514.947 972.362 518.107 971.512 Q521.307 970.621 524.467 968.879 L524.467 975.765 Q521.347 977.224 517.985 977.953 Q514.663 978.682 510.896 978.682 Q500.647 978.682 494.611 972.241 Q488.576 965.8 488.576 954.863 Q488.576 943.763 494.652 937.403 Q500.769 931.043 511.382 931.043 Q514.825 931.043 518.107 931.772 Q521.388 932.461 524.467 933.879 Z" fill="#000000" fill-rule="evenodd" fill-opacity="1" /><path clip-path="url(#clip900)" d="M 0 0 M569.999 950.123 L569.999 977.507 L562.545 977.507 L562.545 950.366 Q562.545 943.925 560.033 940.725 Q557.522 937.525 552.499 937.525 Q546.463 937.525 542.979 941.373 Q539.495 945.221 539.495 951.865 L539.495 977.507 L532.001 977.507 L532.001 914.475 L539.495 914.475 L539.495 939.186 Q542.169 935.094 545.774 933.069 Q549.42 931.043 554.16 931.043 Q561.978 931.043 565.988 935.904 Q569.999 940.725 569.999 950.123 Z" fill="#000000" fill-rule="evenodd" fill-opacity="1" /><path clip-path="url(#clip900)" d="M 0 0 M615.531 950.123 L615.531 977.507 L608.077 977.507 L608.077 950.366 Q608.077 943.925 605.566 940.725 Q603.054 937.525 598.031 937.525 Q591.995 937.525 588.511 941.373 Q585.028 945.221 585.028 951.865 L585.028 977.507 L577.533 977.507 L577.533 932.137 L585.028 932.137 L585.028 939.186 Q587.701 935.094 591.306 933.069 Q594.952 931.043 599.692 931.043 Q607.51 931.043 611.52 935.904 Q615.531 940.725 615.531 950.123 Z" fill="#000000" fill-rule="evenodd" fill-opacity="1" /><path clip-path="url(#clip900)" d="M 0 0 M623.349 932.137 L630.803 932.137 L630.803 977.507 L623.349 977.507 L623.349 932.137 M623.349 914.475 L630.803 914.475 L630.803 923.914 L623.349 923.914 L623.349 914.475 Z" fill="#000000" fill-rule="evenodd" fill-opacity="1" /><path clip-path="url(#clip900)" d="M 0 0 M671.271 933.879 L671.271 940.846 Q668.112 939.105 664.911 938.254 Q661.752 937.363 658.511 937.363 Q651.26 937.363 647.249 941.981 Q643.239 946.558 643.239 954.863 Q643.239 963.167 647.249 967.785 Q651.26 972.362 658.511 972.362 Q661.752 972.362 664.911 971.512 Q668.112 970.621 671.271 968.879 L671.271 975.765 Q668.152 977.224 664.79 977.953 Q661.468 978.682 657.701 978.682 Q647.452 978.682 641.416 972.241 Q635.38 965.8 635.38 954.863 Q635.38 943.763 641.457 937.403 Q647.574 931.043 658.187 931.043 Q661.63 931.043 664.911 931.772 Q668.193 932.461 671.271 933.879 Z" fill="#000000" fill-rule="evenodd" fill-opacity="1" /><path clip-path="url(#clip900)" d="M 0 0 M699.709 954.701 Q690.675 954.701 687.191 956.766 Q683.708 958.832 683.708 963.815 Q683.708 967.785 686.3 970.134 Q688.933 972.443 693.43 972.443 Q699.628 972.443 703.354 968.068 Q707.122 963.653 707.122 956.361 L707.122 954.701 L699.709 954.701 M714.575 951.622 L714.575 977.507 L707.122 977.507 L707.122 970.621 Q704.57 974.752 700.762 976.737 Q696.954 978.682 691.445 978.682 Q684.477 978.682 680.345 974.793 Q676.254 970.864 676.254 964.301 Q676.254 956.645 681.358 952.756 Q686.503 948.867 696.67 948.867 L707.122 948.867 L707.122 948.138 Q707.122 942.993 703.719 940.198 Q700.357 937.363 694.24 937.363 Q690.351 937.363 686.665 938.294 Q682.978 939.226 679.576 941.089 L679.576 934.203 Q683.667 932.623 687.515 931.853 Q691.364 931.043 695.01 931.043 Q704.853 931.043 709.714 936.147 Q714.575 941.252 714.575 951.622 Z" fill="#000000" fill-rule="evenodd" fill-opacity="1" /><path clip-path="url(#clip900)" d="M 0 0 M722.394 914.475 L729.847 914.475 L729.847 977.507 L722.394 977.507 L722.394 914.475 Z" fill="#000000" fill-rule="evenodd" fill-opacity="1" /><path clip-path="url(#clip900)" d="M 0 0 M772.139 991.28 L772.139 997.073 L729.037 997.073 L729.037 991.28 L772.139 991.28 Z" fill="#000000" fill-rule="evenodd" fill-opacity="1" /><path clip-path="url(#clip900)" d="M 0 0 M825.57 921.686 L825.57 930.314 Q821.438 926.466 816.739 924.562 Q812.081 922.658 806.815 922.658 Q796.444 922.658 790.935 929.018 Q785.426 935.337 785.426 947.328 Q785.426 959.278 790.935 965.638 Q796.444 971.957 806.815 971.957 Q812.081 971.957 816.739 970.053 Q821.438 968.15 825.57 964.301 L825.57 972.849 Q821.276 975.765 816.456 977.224 Q811.676 978.682 806.328 978.682 Q792.596 978.682 784.697 970.296 Q776.797 961.871 776.797 947.328 Q776.797 932.745 784.697 924.359 Q792.596 915.933 806.328 915.933 Q811.757 915.933 816.537 917.392 Q821.357 918.81 825.57 921.686 Z" fill="#000000" fill-rule="evenodd" fill-opacity="1" /><path clip-path="url(#clip900)" d="M 0 0 M850.969 937.363 Q844.974 937.363 841.49 942.062 Q838.007 946.72 838.007 954.863 Q838.007 963.005 841.45 967.704 Q844.934 972.362 850.969 972.362 Q856.924 972.362 860.408 967.663 Q863.892 962.964 863.892 954.863 Q863.892 946.801 860.408 942.102 Q856.924 937.363 850.969 937.363 M850.969 931.043 Q860.692 931.043 866.241 937.363 Q871.791 943.682 871.791 954.863 Q871.791 966.003 866.241 972.362 Q860.692 978.682 850.969 978.682 Q841.207 978.682 835.657 972.362 Q830.148 966.003 830.148 954.863 Q830.148 943.682 835.657 937.363 Q841.207 931.043 850.969 931.043 Z" fill="#000000" fill-rule="evenodd" fill-opacity="1" /><path clip-path="url(#clip900)" d="M 0 0 M917.323 950.123 L917.323 977.507 L909.87 977.507 L909.87 950.366 Q909.87 943.925 907.358 940.725 Q904.846 937.525 899.823 937.525 Q893.787 937.525 890.304 941.373 Q886.82 945.221 886.82 951.865 L886.82 977.507 L879.326 977.507 L879.326 932.137 L886.82 932.137 L886.82 939.186 Q889.494 935.094 893.099 933.069 Q896.745 931.043 901.484 931.043 Q909.302 931.043 913.313 935.904 Q917.323 940.725 917.323 950.123 Z" fill="#000000" fill-rule="evenodd" fill-opacity="1" /><path clip-path="url(#clip900)" d="M 0 0 M954.065 933.474 L954.065 940.522 Q950.905 938.902 947.502 938.092 Q944.1 937.282 940.454 937.282 Q934.904 937.282 932.109 938.983 Q929.354 940.684 929.354 944.087 Q929.354 946.68 931.339 948.179 Q933.324 949.637 939.32 950.974 L941.872 951.541 Q949.811 953.242 953.133 956.361 Q956.495 959.44 956.495 964.99 Q956.495 971.309 951.472 974.996 Q946.49 978.682 937.74 978.682 Q934.094 978.682 930.124 977.953 Q926.195 977.264 921.82 975.846 L921.82 968.15 Q925.952 970.296 929.962 971.39 Q933.972 972.443 937.902 972.443 Q943.168 972.443 946.004 970.661 Q948.839 968.838 948.839 965.557 Q948.839 962.519 946.773 960.898 Q944.748 959.278 937.821 957.779 L935.228 957.172 Q928.301 955.713 925.222 952.716 Q922.144 949.677 922.144 944.411 Q922.144 938.011 926.681 934.527 Q931.218 931.043 939.563 931.043 Q943.695 931.043 947.34 931.651 Q950.986 932.259 954.065 933.474 Z" fill="#000000" fill-rule="evenodd" fill-opacity="1" /><path clip-path="url(#clip900)" d="M 0 0 M971.686 919.255 L971.686 932.137 L987.039 932.137 L987.039 937.93 L971.686 937.93 L971.686 962.559 Q971.686 968.109 973.185 969.689 Q974.725 971.269 979.383 971.269 L987.039 971.269 L987.039 977.507 L979.383 977.507 Q970.755 977.507 967.473 974.307 Q964.192 971.066 964.192 962.559 L964.192 937.93 L958.723 937.93 L958.723 932.137 L964.192 932.137 L964.192 919.255 L971.686 919.255 Z" fill="#000000" fill-rule="evenodd" fill-opacity="1" /><path clip-path="url(#clip900)" d="M 0 0 M1021.15 939.105 Q1019.89 938.375 1018.39 938.051 Q1016.93 937.687 1015.15 937.687 Q1008.83 937.687 1005.43 941.819 Q1002.07 945.91 1002.07 953.607 L1002.07 977.507 L994.574 977.507 L994.574 932.137 L1002.07 932.137 L1002.07 939.186 Q1004.42 935.054 1008.19 933.069 Q1011.95 931.043 1017.34 931.043 Q1018.11 931.043 1019.04 931.165 Q1019.97 931.246 1021.11 931.448 L1021.15 939.105 Z" fill="#000000" fill-rule="evenodd" fill-opacity="1" /><path clip-path="url(#clip900)" d="M 0 0 M1049.59 954.701 Q1040.55 954.701 1037.07 956.766 Q1033.58 958.832 1033.58 963.815 Q1033.58 967.785 1036.18 970.134 Q1038.81 972.443 1043.31 972.443 Q1049.5 972.443 1053.23 968.068 Q1057 963.653 1057 956.361 L1057 954.701 L1049.59 954.701 M1064.45 951.622 L1064.45 977.507 L1057 977.507 L1057 970.621 Q1054.45 974.752 1050.64 976.737 Q1046.83 978.682 1041.32 978.682 Q1034.35 978.682 1030.22 974.793 Q1026.13 970.864 1026.13 964.301 Q1026.13 956.645 1031.23 952.756 Q1036.38 948.867 1046.55 948.867 L1057 948.867 L1057 948.138 Q1057 942.993 1053.6 940.198 Q1050.23 937.363 1044.12 937.363 Q1040.23 937.363 1036.54 938.294 Q1032.86 939.226 1029.45 941.089 L1029.45 934.203 Q1033.54 932.623 1037.39 931.853 Q1041.24 931.043 1044.89 931.043 Q1054.73 931.043 1059.59 936.147 Q1064.45 941.252 1064.45 951.622 Z" fill="#000000" fill-rule="evenodd" fill-opacity="1" /><path clip-path="url(#clip900)" d="M 0 0 M1072.27 932.137 L1079.72 932.137 L1079.72 977.507 L1072.27 977.507 L1072.27 932.137 M1072.27 914.475 L1079.72 914.475 L1079.72 923.914 L1072.27 923.914 L1072.27 914.475 Z" fill="#000000" fill-rule="evenodd" fill-opacity="1" /><path clip-path="url(#clip900)" d="M 0 0 M1125.26 950.123 L1125.26 977.507 L1117.8 977.507 L1117.8 950.366 Q1117.8 943.925 1115.29 940.725 Q1112.78 937.525 1107.76 937.525 Q1101.72 937.525 1098.24 941.373 Q1094.75 945.221 1094.75 951.865 L1094.75 977.507 L1087.26 977.507 L1087.26 932.137 L1094.75 932.137 L1094.75 939.186 Q1097.43 935.094 1101.03 933.069 Q1104.68 931.043 1109.42 931.043 Q1117.24 931.043 1121.25 935.904 Q1125.26 940.725 1125.26 950.123 Z" fill="#000000" fill-rule="evenodd" fill-opacity="1" /><path clip-path="url(#clip900)" d="M 0 0 M1140.45 919.255 L1140.45 932.137 L1155.8 932.137 L1155.8 937.93 L1140.45 937.93 L1140.45 962.559 Q1140.45 968.109 1141.95 969.689 Q1143.49 971.269 1148.14 971.269 L1155.8 971.269 L1155.8 977.507 L1148.14 977.507 Q1139.52 977.507 1136.23 974.307 Q1132.95 971.066 1132.95 962.559 L1132.95 937.93 L1127.48 937.93 L1127.48 932.137 L1132.95 932.137 L1132.95 919.255 L1140.45 919.255 Z" fill="#000000" fill-rule="evenodd" fill-opacity="1" /><path clip-path="url(#clip900)" d="M 0 0 M1192.54 933.474 L1192.54 940.522 Q1189.38 938.902 1185.98 938.092 Q1182.58 937.282 1178.93 937.282 Q1173.38 937.282 1170.59 938.983 Q1167.83 940.684 1167.83 944.087 Q1167.83 946.68 1169.82 948.179 Q1171.8 949.637 1177.8 950.974 L1180.35 951.541 Q1188.29 953.242 1191.61 956.361 Q1194.97 959.44 1194.97 964.99 Q1194.97 971.309 1189.95 974.996 Q1184.97 978.682 1176.22 978.682 Q1172.57 978.682 1168.6 977.953 Q1164.67 977.264 1160.3 975.846 L1160.3 968.15 Q1164.43 970.296 1168.44 971.39 Q1172.45 972.443 1176.38 972.443 Q1181.64 972.443 1184.48 970.661 Q1187.32 968.838 1187.32 965.557 Q1187.32 962.519 1185.25 960.898 Q1183.22 959.278 1176.3 957.779 L1173.7 957.172 Q1166.78 955.713 1163.7 952.716 Q1160.62 949.677 1160.62 944.411 Q1160.62 938.011 1165.16 934.527 Q1169.69 931.043 1178.04 931.043 Q1182.17 931.043 1185.82 931.651 Q1189.46 932.259 1192.54 933.474 Z" fill="#000000" fill-rule="evenodd" fill-opacity="1" /><path clip-path="url(#clip900)" d="M 0 0 M1820.06 65.4389 L1820.06 88.1645 L1830.35 88.1645 Q1836.06 88.1645 1839.18 85.2073 Q1842.3 82.2501 1842.3 76.7814 Q1842.3 71.3532 1839.18 68.3961 Q1836.06 65.4389 1830.35 65.4389 L1820.06 65.4389 M1811.88 58.7144 L1830.35 58.7144 Q1840.52 58.7144 1845.7 63.3324 Q1850.93 67.9099 1850.93 76.7814 Q1850.93 85.7339 1845.7 90.3114 Q1840.52 94.889 1830.35 94.889 L1820.06 94.889 L1820.06 119.194 L1811.88 119.194 L1811.88 58.7144 Z" fill="#000000" fill-rule="evenodd" fill-opacity="1" /><path clip-path="url(#clip900)" d="M 0 0 M1894.6 94.6459 L1894.6 98.2917 L1860.33 98.2917 Q1860.81 105.988 1864.95 110.039 Q1869.12 114.05 1876.53 114.05 Q1880.83 114.05 1884.84 112.997 Q1888.89 111.943 1892.86 109.837 L1892.86 116.885 Q1888.85 118.587 1884.63 119.478 Q1880.42 120.369 1876.09 120.369 Q1865.23 120.369 1858.87 114.05 Q1852.55 107.73 1852.55 96.9549 Q1852.55 85.8149 1858.55 79.293 Q1864.58 72.7305 1874.79 72.7305 Q1883.95 72.7305 1889.25 78.6448 Q1894.6 84.5187 1894.6 94.6459 M1887.15 92.4584 Q1887.06 86.3416 1883.7 82.6957 Q1880.38 79.0499 1874.87 79.0499 Q1868.63 79.0499 1864.87 82.5742 Q1861.14 86.0985 1860.57 92.4989 L1887.15 92.4584 Z" fill="#000000" fill-rule="evenodd" fill-opacity="1" /><path clip-path="url(#clip900)" d="M 0 0 M1928.71 80.7918 Q1927.45 80.0627 1925.95 79.7386 Q1924.49 79.374 1922.71 79.374 Q1916.39 79.374 1912.99 83.5059 Q1909.63 87.5973 1909.63 95.2941 L1909.63 119.194 L1902.13 119.194 L1902.13 73.8243 L1909.63 73.8243 L1909.63 80.8728 Q1911.98 76.7409 1915.74 74.756 Q1919.51 72.7305 1924.9 72.7305 Q1925.67 72.7305 1926.6 72.852 Q1927.53 72.9331 1928.67 73.1356 L1928.71 80.7918 Z" fill="#000000" fill-rule="evenodd" fill-opacity="1" /><path clip-path="url(#clip900)" d="M 0 0 M1959.49 56.1623 L1959.49 62.3602 L1952.36 62.3602 Q1948.35 62.3602 1946.77 63.9806 Q1945.24 65.6009 1945.24 69.8139 L1945.24 73.8243 L1957.51 73.8243 L1957.51 79.6171 L1945.24 79.6171 L1945.24 119.194 L1937.74 119.194 L1937.74 79.6171 L1930.61 79.6171 L1930.61 73.8243 L1937.74 73.8243 L1937.74 70.6646 Q1937.74 63.0894 1941.27 59.6461 Q1944.79 56.1623 1952.45 56.1623 L1959.49 56.1623 Z" fill="#000000" fill-rule="evenodd" fill-opacity="1" /><path clip-path="url(#clip900)" d="M 0 0 M1984.89 79.0499 Q1978.9 79.0499 1975.41 83.749 Q1971.93 88.4075 1971.93 96.5498 Q1971.93 104.692 1975.37 109.391 Q1978.86 114.05 1984.89 114.05 Q1990.85 114.05 1994.33 109.351 Q1997.82 104.652 1997.82 96.5498 Q1997.82 88.4885 1994.33 83.7895 Q1990.85 79.0499 1984.89 79.0499 M1984.89 72.7305 Q1994.62 72.7305 2000.17 79.0499 Q2005.72 85.3693 2005.72 96.5498 Q2005.72 107.69 2000.17 114.05 Q1994.62 120.369 1984.89 120.369 Q1975.13 120.369 1969.58 114.05 Q1964.07 107.69 1964.07 96.5498 Q1964.07 85.3693 1969.58 79.0499 Q1975.13 72.7305 1984.89 72.7305 Z" fill="#000000" fill-rule="evenodd" fill-opacity="1" /><path clip-path="url(#clip900)" d="M 0 0 M2039.82 80.7918 Q2038.57 80.0627 2037.07 79.7386 Q2035.61 79.374 2033.83 79.374 Q2027.51 79.374 2024.11 83.5059 Q2020.74 87.5973 2020.74 95.2941 L2020.74 119.194 L2013.25 119.194 L2013.25 73.8243 L2020.74 73.8243 L2020.74 80.8728 Q2023.09 76.7409 2026.86 74.756 Q2030.63 72.7305 2036.02 72.7305 Q2036.79 72.7305 2037.72 72.852 Q2038.65 72.9331 2039.78 73.1356 L2039.82 80.7918 Z" fill="#000000" fill-rule="evenodd" fill-opacity="1" /><path clip-path="url(#clip900)" d="M 0 0 M2081.51 82.5337 Q2084.3 77.5106 2088.19 75.1206 Q2092.08 72.7305 2097.35 72.7305 Q2104.44 72.7305 2108.28 77.7131 Q2112.13 82.6552 2112.13 91.8103 L2112.13 119.194 L2104.64 119.194 L2104.64 92.0533 Q2104.64 85.5314 2102.33 82.3717 Q2100.02 79.212 2095.28 79.212 Q2089.49 79.212 2086.13 83.0603 Q2082.76 86.9087 2082.76 93.5522 L2082.76 119.194 L2075.27 119.194 L2075.27 92.0533 Q2075.27 85.4909 2072.96 82.3717 Q2070.65 79.212 2065.83 79.212 Q2060.12 79.212 2056.76 83.1008 Q2053.39 86.9492 2053.39 93.5522 L2053.39 119.194 L2045.9 119.194 L2045.9 73.8243 L2053.39 73.8243 L2053.39 80.8728 Q2055.95 76.7004 2059.51 74.7155 Q2063.08 72.7305 2067.98 72.7305 Q2072.92 72.7305 2076.36 75.2421 Q2079.85 77.7536 2081.51 82.5337 Z" fill="#000000" fill-rule="evenodd" fill-opacity="1" /><path clip-path="url(#clip900)" d="M 0 0 M2140.57 96.3878 Q2131.54 96.3878 2128.05 98.4538 Q2124.57 100.52 2124.57 105.502 Q2124.57 109.472 2127.16 111.822 Q2129.79 114.131 2134.29 114.131 Q2140.49 114.131 2144.22 109.756 Q2147.98 105.34 2147.98 98.0487 L2147.98 96.3878 L2140.57 96.3878 M2155.44 93.3091 L2155.44 119.194 L2147.98 119.194 L2147.98 112.308 Q2145.43 116.44 2141.62 118.425 Q2137.82 120.369 2132.31 120.369 Q2125.34 120.369 2121.21 116.48 Q2117.12 112.551 2117.12 105.988 Q2117.12 98.3322 2122.22 94.4434 Q2127.36 90.5545 2137.53 90.5545 L2147.98 90.5545 L2147.98 89.8253 Q2147.98 84.6807 2144.58 81.8856 Q2141.22 79.0499 2135.1 79.0499 Q2131.21 79.0499 2127.53 79.9816 Q2123.84 80.9133 2120.44 82.7768 L2120.44 75.8902 Q2124.53 74.3104 2128.38 73.5407 Q2132.23 72.7305 2135.87 72.7305 Q2145.71 72.7305 2150.58 77.8347 Q2155.44 82.9388 2155.44 93.3091 Z" fill="#000000" fill-rule="evenodd" fill-opacity="1" /><path clip-path="url(#clip900)" d="M 0 0 M2200.97 91.8103 L2200.97 119.194 L2193.52 119.194 L2193.52 92.0533 Q2193.52 85.6124 2191 82.4122 Q2188.49 79.212 2183.47 79.212 Q2177.43 79.212 2173.95 83.0603 Q2170.47 86.9087 2170.47 93.5522 L2170.47 119.194 L2162.97 119.194 L2162.97 73.8243 L2170.47 73.8243 L2170.47 80.8728 Q2173.14 76.7814 2176.74 74.756 Q2180.39 72.7305 2185.13 72.7305 Q2192.95 72.7305 2196.96 77.5916 Q2200.97 82.4122 2200.97 91.8103 Z" fill="#000000" fill-rule="evenodd" fill-opacity="1" /><path clip-path="url(#clip900)" d="M 0 0 M2241.44 75.5662 L2241.44 82.5337 Q2238.28 80.7918 2235.08 79.9411 Q2231.92 79.0499 2228.68 79.0499 Q2221.43 79.0499 2217.42 83.668 Q2213.41 88.2455 2213.41 96.5498 Q2213.41 104.854 2217.42 109.472 Q2221.43 114.05 2228.68 114.05 Q2231.92 114.05 2235.08 113.199 Q2238.28 112.308 2241.44 110.566 L2241.44 117.453 Q2238.32 118.911 2234.96 119.64 Q2231.63 120.369 2227.87 120.369 Q2217.62 120.369 2211.58 113.928 Q2205.55 107.487 2205.55 96.5498 Q2205.55 85.4504 2211.62 79.0904 Q2217.74 72.7305 2228.35 72.7305 Q2231.8 72.7305 2235.08 73.4597 Q2238.36 74.1483 2241.44 75.5662 Z" fill="#000000" fill-rule="evenodd" fill-opacity="1" /><path clip-path="url(#clip900)" d="M 0 0 M2288.06 94.6459 L2288.06 98.2917 L2253.79 98.2917 Q2254.28 105.988 2258.41 110.039 Q2262.58 114.05 2270 114.05 Q2274.29 114.05 2278.3 112.997 Q2282.35 111.943 2286.32 109.837 L2286.32 116.885 Q2282.31 118.587 2278.1 119.478 Q2273.89 120.369 2269.55 120.369 Q2258.69 120.369 2252.33 114.05 Q2246.02 107.73 2246.02 96.9549 Q2246.02 85.8149 2252.01 79.293 Q2258.05 72.7305 2268.25 72.7305 Q2277.41 72.7305 2282.72 78.6448 Q2288.06 84.5187 2288.06 94.6459 M2280.61 92.4584 Q2280.53 86.3416 2277.17 82.6957 Q2273.84 79.0499 2268.34 79.0499 Q2262.1 79.0499 2258.33 82.5742 Q2254.6 86.0985 2254.04 92.4989 L2280.61 92.4584 Z" fill="#000000" fill-rule="evenodd" fill-opacity="1" /><path clip-path="url(#clip900)" d="M 0 0 M2330.35 132.967 L2330.35 138.76 L2287.25 138.76 L2287.25 132.967 L2330.35 132.967 Z" fill="#000000" fill-rule="evenodd" fill-opacity="1" /><path clip-path="url(#clip900)" d="M 0 0 M2346.68 65.4389 L2346.68 88.1645 L2356.97 88.1645 Q2362.68 88.1645 2365.8 85.2073 Q2368.92 82.2501 2368.92 76.7814 Q2368.92 71.3532 2365.8 68.3961 Q2362.68 65.4389 2356.97 65.4389 L2346.68 65.4389 M2338.5 58.7144 L2356.97 58.7144 Q2367.14 58.7144 2372.32 63.3324 Q2377.55 67.9099 2377.55 76.7814 Q2377.55 85.7339 2372.32 90.3114 Q2367.14 94.889 2356.97 94.889 L2346.68 94.889 L2346.68 119.194 L2338.5 119.194 L2338.5 58.7144 Z" fill="#000000" fill-rule="evenodd" fill-opacity="1" /><path clip-path="url(#clip900)" d="M 0 0 M2402.26 96.3878 Q2393.22 96.3878 2389.74 98.4538 Q2386.26 100.52 2386.26 105.502 Q2386.26 109.472 2388.85 111.822 Q2391.48 114.131 2395.98 114.131 Q2402.18 114.131 2405.9 109.756 Q2409.67 105.34 2409.67 98.0487 L2409.67 96.3878 L2402.26 96.3878 M2417.13 93.3091 L2417.13 119.194 L2409.67 119.194 L2409.67 112.308 Q2407.12 116.44 2403.31 118.425 Q2399.5 120.369 2393.99 120.369 Q2387.03 120.369 2382.9 116.48 Q2378.8 112.551 2378.8 105.988 Q2378.8 98.3322 2383.91 94.4434 Q2389.05 90.5545 2399.22 90.5545 L2409.67 90.5545 L2409.67 89.8253 Q2409.67 84.6807 2406.27 81.8856 Q2402.91 79.0499 2396.79 79.0499 Q2392.9 79.0499 2389.21 79.9816 Q2385.53 80.9133 2382.13 82.7768 L2382.13 75.8902 Q2386.22 74.3104 2390.07 73.5407 Q2393.91 72.7305 2397.56 72.7305 Q2407.4 72.7305 2412.26 77.8347 Q2417.13 82.9388 2417.13 93.3091 Z" fill="#000000" fill-rule="evenodd" fill-opacity="1" /><path clip-path="url(#clip900)" d="M 0 0 M2451.23 80.7918 Q2449.98 80.0627 2448.48 79.7386 Q2447.02 79.374 2445.24 79.374 Q2438.92 79.374 2435.52 83.5059 Q2432.15 87.5973 2432.15 95.2941 L2432.15 119.194 L2424.66 119.194 L2424.66 73.8243 L2432.15 73.8243 L2432.15 80.8728 Q2434.5 76.7409 2438.27 74.756 Q2442.04 72.7305 2447.43 72.7305 Q2448.2 72.7305 2449.13 72.852 Q2450.06 72.9331 2451.19 73.1356 L2451.23 80.7918 Z" fill="#000000" fill-rule="evenodd" fill-opacity="1" /><path clip-path="url(#clip900)" d="M 0 0 M2479.67 96.3878 Q2470.64 96.3878 2467.15 98.4538 Q2463.67 100.52 2463.67 105.502 Q2463.67 109.472 2466.26 111.822 Q2468.9 114.131 2473.39 114.131 Q2479.59 114.131 2483.32 109.756 Q2487.08 105.34 2487.08 98.0487 L2487.08 96.3878 L2479.67 96.3878 M2494.54 93.3091 L2494.54 119.194 L2487.08 119.194 L2487.08 112.308 Q2484.53 116.44 2480.72 118.425 Q2476.92 120.369 2471.41 120.369 Q2464.44 120.369 2460.31 116.48 Q2456.22 112.551 2456.22 105.988 Q2456.22 98.3322 2461.32 94.4434 Q2466.47 90.5545 2476.63 90.5545 L2487.08 90.5545 L2487.08 89.8253 Q2487.08 84.6807 2483.68 81.8856 Q2480.32 79.0499 2474.2 79.0499 Q2470.31 79.0499 2466.63 79.9816 Q2462.94 80.9133 2459.54 82.7768 L2459.54 75.8902 Q2463.63 74.3104 2467.48 73.5407 Q2471.33 72.7305 2474.97 72.7305 Q2484.82 72.7305 2489.68 77.8347 Q2494.54 82.9388 2494.54 93.3091 Z" fill="#000000" fill-rule="evenodd" fill-opacity="1" /><path clip-path="url(#clip900)" d="M 0 0 M2537.68 82.5337 Q2540.48 77.5106 2544.36 75.1206 Q2548.25 72.7305 2553.52 72.7305 Q2560.61 72.7305 2564.46 77.7131 Q2568.3 82.6552 2568.3 91.8103 L2568.3 119.194 L2560.81 119.194 L2560.81 92.0533 Q2560.81 85.5314 2558.5 82.3717 Q2556.19 79.212 2551.45 79.212 Q2545.66 79.212 2542.3 83.0603 Q2538.94 86.9087 2538.94 93.5522 L2538.94 119.194 L2531.44 119.194 L2531.44 92.0533 Q2531.44 85.4909 2529.13 82.3717 Q2526.82 79.212 2522 79.212 Q2516.29 79.212 2512.93 83.1008 Q2509.57 86.9492 2509.57 93.5522 L2509.57 119.194 L2502.07 119.194 L2502.07 73.8243 L2509.57 73.8243 L2509.57 80.8728 Q2512.12 76.7004 2515.68 74.7155 Q2519.25 72.7305 2524.15 72.7305 Q2529.09 72.7305 2532.54 75.2421 Q2536.02 77.7536 2537.68 82.5337 Z" fill="#000000" fill-rule="evenodd" fill-opacity="1" /><path clip-path="url(#clip900)" d="M 0 0 M2614.93 94.6459 L2614.93 98.2917 L2580.66 98.2917 Q2581.15 105.988 2585.28 110.039 Q2589.45 114.05 2596.86 114.05 Q2601.16 114.05 2605.17 112.997 Q2609.22 111.943 2613.19 109.837 L2613.19 116.885 Q2609.18 118.587 2604.97 119.478 Q2600.75 120.369 2596.42 120.369 Q2585.56 120.369 2579.2 114.05 Q2572.88 107.73 2572.88 96.9549 Q2572.88 85.8149 2578.88 79.293 Q2584.91 72.7305 2595.12 72.7305 Q2604.28 72.7305 2609.58 78.6448 Q2614.93 84.5187 2614.93 94.6459 M2607.48 92.4584 Q2607.4 86.3416 2604.03 82.6957 Q2600.71 79.0499 2595.2 79.0499 Q2588.96 79.0499 2585.2 82.5742 Q2581.47 86.0985 2580.9 92.4989 L2607.48 92.4584 Z" fill="#000000" fill-rule="evenodd" fill-opacity="1" /><path clip-path="url(#clip900)" d="M 0 0 M2630.12 60.9424 L2630.12 73.8243 L2645.47 73.8243 L2645.47 79.6171 L2630.12 79.6171 L2630.12 104.247 Q2630.12 109.796 2631.62 111.376 Q2633.16 112.956 2637.82 112.956 L2645.47 112.956 L2645.47 119.194 L2637.82 119.194 Q2629.19 119.194 2625.91 115.994 Q2622.63 112.753 2622.63 104.247 L2622.63 79.6171 L2617.16 79.6171 L2617.16 73.8243 L2622.63 73.8243 L2622.63 60.9424 L2630.12 60.9424 Z" fill="#000000" fill-rule="evenodd" fill-opacity="1" /><path clip-path="url(#clip900)" d="M 0 0 M2692.1 94.6459 L2692.1 98.2917 L2657.83 98.2917 Q2658.32 105.988 2662.45 110.039 Q2666.62 114.05 2674.03 114.05 Q2678.33 114.05 2682.34 112.997 Q2686.39 111.943 2690.36 109.837 L2690.36 116.885 Q2686.35 118.587 2682.14 119.478 Q2677.92 120.369 2673.59 120.369 Q2662.73 120.369 2656.37 114.05 Q2650.05 107.73 2650.05 96.9549 Q2650.05 85.8149 2656.05 79.293 Q2662.08 72.7305 2672.29 72.7305 Q2681.45 72.7305 2686.75 78.6448 Q2692.1 84.5187 2692.1 94.6459 M2684.65 92.4584 Q2684.57 86.3416 2681.2 82.6957 Q2677.88 79.0499 2672.37 79.0499 Q2666.13 79.0499 2662.37 82.5742 Q2658.64 86.0985 2658.07 92.4989 L2684.65 92.4584 Z" fill="#000000" fill-rule="evenodd" fill-opacity="1" /><path clip-path="url(#clip900)" d="M 0 0 M2726.21 80.7918 Q2724.95 80.0627 2723.45 79.7386 Q2722 79.374 2720.21 79.374 Q2713.89 79.374 2710.49 83.5059 Q2707.13 87.5973 2707.13 95.2941 L2707.13 119.194 L2699.64 119.194 L2699.64 73.8243 L2707.13 73.8243 L2707.13 80.8728 Q2709.48 76.7409 2713.25 74.756 Q2717.01 72.7305 2722.4 72.7305 Q2723.17 72.7305 2724.1 72.852 Q2725.03 72.9331 2726.17 73.1356 L2726.21 80.7918 Z" fill="#000000" fill-rule="evenodd" fill-opacity="1" /><path clip-path="url(#clip900)" d="M 0 0 M2762.95 75.1611 L2762.95 82.2096 Q2759.79 80.5893 2756.39 79.7791 Q2752.99 78.9689 2749.34 78.9689 Q2743.79 78.9689 2740.99 80.6703 Q2738.24 82.3717 2738.24 85.7744 Q2738.24 88.367 2740.23 89.8658 Q2742.21 91.3242 2748.21 92.661 L2750.76 93.2281 Q2758.7 94.9295 2762.02 98.0487 Q2765.38 101.127 2765.38 106.677 Q2765.38 112.997 2760.36 116.683 Q2755.38 120.369 2746.63 120.369 Q2742.98 120.369 2739.01 119.64 Q2735.08 118.951 2730.71 117.534 L2730.71 109.837 Q2734.84 111.984 2738.85 113.078 Q2742.86 114.131 2746.79 114.131 Q2752.05 114.131 2754.89 112.348 Q2757.73 110.525 2757.73 107.244 Q2757.73 104.206 2755.66 102.586 Q2753.63 100.965 2746.71 99.4665 L2744.11 98.8589 Q2737.19 97.4005 2734.11 94.4029 Q2731.03 91.3647 2731.03 86.0985 Q2731.03 79.6981 2735.57 76.2143 Q2740.1 72.7305 2748.45 72.7305 Q2752.58 72.7305 2756.23 73.3382 Q2759.87 73.9458 2762.95 75.1611 Z" fill="#000000" fill-rule="evenodd" fill-opacity="1" /><path clip-path="url(#clip900)" d="M 0 0 M750.72 1205.52 L750.72 1214.15 Q746.588 1210.3 741.889 1208.4 Q737.23 1206.49 731.964 1206.49 Q721.594 1206.49 716.084 1212.85 Q710.575 1219.17 710.575 1231.16 Q710.575 1243.12 716.084 1249.47 Q721.594 1255.79 731.964 1255.79 Q737.23 1255.79 741.889 1253.89 Q746.588 1251.99 750.72 1248.14 L750.72 1256.69 Q746.426 1259.6 741.605 1261.06 Q736.825 1262.52 731.478 1262.52 Q717.745 1262.52 709.846 1254.13 Q701.947 1245.71 701.947 1231.16 Q701.947 1216.58 709.846 1208.2 Q717.745 1199.77 731.478 1199.77 Q736.906 1199.77 741.686 1201.23 Q746.507 1202.65 750.72 1205.52 Z" fill="#000000" fill-rule="evenodd" fill-opacity="1" /><path clip-path="url(#clip900)" d="M 0 0 M758.538 1198.31 L765.991 1198.31 L765.991 1261.34 L758.538 1261.34 L758.538 1198.31 Z" fill="#000000" fill-rule="evenodd" fill-opacity="1" /><path clip-path="url(#clip900)" d="M 0 0 M773.81 1215.97 L781.263 1215.97 L781.263 1261.34 L773.81 1261.34 L773.81 1215.97 M773.81 1198.31 L781.263 1198.31 L781.263 1207.75 L773.81 1207.75 L773.81 1198.31 Z" fill="#000000" fill-rule="evenodd" fill-opacity="1" /><path clip-path="url(#clip900)" d="M 0 0 M827.889 1236.8 L827.889 1240.44 L793.619 1240.44 Q794.105 1248.14 798.237 1252.19 Q802.409 1256.2 809.822 1256.2 Q814.116 1256.2 818.127 1255.15 Q822.177 1254.09 826.147 1251.99 L826.147 1259.04 Q822.137 1260.74 817.924 1261.63 Q813.711 1262.52 809.377 1262.52 Q798.52 1262.52 792.16 1256.2 Q785.841 1249.88 785.841 1239.1 Q785.841 1227.96 791.836 1221.44 Q797.872 1214.88 808.08 1214.88 Q817.235 1214.88 822.542 1220.79 Q827.889 1226.67 827.889 1236.8 M820.436 1234.61 Q820.355 1228.49 816.992 1224.85 Q813.671 1221.2 808.161 1221.2 Q801.923 1221.2 798.156 1224.72 Q794.429 1228.25 793.862 1234.65 L820.436 1234.61 Z" fill="#000000" fill-rule="evenodd" fill-opacity="1" /><path clip-path="url(#clip900)" d="M 0 0 M873.421 1233.96 L873.421 1261.34 L865.968 1261.34 L865.968 1234.2 Q865.968 1227.76 863.456 1224.56 Q860.945 1221.36 855.921 1221.36 Q849.886 1221.36 846.402 1225.21 Q842.918 1229.06 842.918 1235.7 L842.918 1261.34 L835.424 1261.34 L835.424 1215.97 L842.918 1215.97 L842.918 1223.02 Q845.592 1218.93 849.197 1216.91 Q852.843 1214.88 857.582 1214.88 Q865.401 1214.88 869.411 1219.74 Q873.421 1224.56 873.421 1233.96 Z" fill="#000000" fill-rule="evenodd" fill-opacity="1" /><path clip-path="url(#clip900)" d="M 0 0 M888.612 1203.09 L888.612 1215.97 L903.965 1215.97 L903.965 1221.77 L888.612 1221.77 L888.612 1246.4 Q888.612 1251.95 890.111 1253.53 Q891.65 1255.11 896.309 1255.11 L903.965 1255.11 L903.965 1261.34 L896.309 1261.34 Q887.681 1261.34 884.399 1258.14 Q881.118 1254.9 881.118 1246.4 L881.118 1221.77 L875.649 1221.77 L875.649 1215.97 L881.118 1215.97 L881.118 1203.09 L888.612 1203.09 Z" fill="#000000" fill-rule="evenodd" fill-opacity="1" /><path clip-path="url(#clip900)" d="M 0 0 M946.257 1275.12 L946.257 1280.91 L903.155 1280.91 L903.155 1275.12 L946.257 1275.12 Z" fill="#000000" fill-rule="evenodd" fill-opacity="1" /><path clip-path="url(#clip900)" d="M 0 0 M974.694 1238.54 Q965.66 1238.54 962.177 1240.6 Q958.693 1242.67 958.693 1247.65 Q958.693 1251.62 961.286 1253.97 Q963.919 1256.28 968.415 1256.28 Q974.613 1256.28 978.34 1251.91 Q982.107 1247.49 982.107 1240.2 L982.107 1238.54 L974.694 1238.54 M989.561 1235.46 L989.561 1261.34 L982.107 1261.34 L982.107 1254.46 Q979.555 1258.59 975.747 1260.57 Q971.939 1262.52 966.43 1262.52 Q959.463 1262.52 955.331 1258.63 Q951.239 1254.7 951.239 1248.14 Q951.239 1240.48 956.343 1236.59 Q961.488 1232.7 971.656 1232.7 L982.107 1232.7 L982.107 1231.98 Q982.107 1226.83 978.704 1224.04 Q975.342 1221.2 969.225 1221.2 Q965.336 1221.2 961.65 1222.13 Q957.964 1223.06 954.561 1224.93 L954.561 1218.04 Q958.652 1216.46 962.501 1215.69 Q966.349 1214.88 969.995 1214.88 Q979.839 1214.88 984.7 1219.98 Q989.561 1225.09 989.561 1235.46 Z" fill="#000000" fill-rule="evenodd" fill-opacity="1" /><path clip-path="url(#clip900)" d="M 0 0 M1035.09 1233.96 L1035.09 1261.34 L1027.64 1261.34 L1027.64 1234.2 Q1027.64 1227.76 1025.13 1224.56 Q1022.62 1221.36 1017.59 1221.36 Q1011.56 1221.36 1008.07 1225.21 Q1004.59 1229.06 1004.59 1235.7 L1004.59 1261.34 L997.095 1261.34 L997.095 1215.97 L1004.59 1215.97 L1004.59 1223.02 Q1007.26 1218.93 1010.87 1216.91 Q1014.51 1214.88 1019.25 1214.88 Q1027.07 1214.88 1031.08 1219.74 Q1035.09 1224.56 1035.09 1233.96 Z" fill="#000000" fill-rule="evenodd" fill-opacity="1" /><path clip-path="url(#clip900)" d="M 0 0 M1072.77 1222.86 L1072.77 1198.31 L1080.22 1198.31 L1080.22 1261.34 L1072.77 1261.34 L1072.77 1254.54 Q1070.42 1258.59 1066.81 1260.57 Q1063.25 1262.52 1058.22 1262.52 Q1050 1262.52 1044.82 1255.96 Q1039.67 1249.39 1039.67 1238.7 Q1039.67 1228.01 1044.82 1221.44 Q1050 1214.88 1058.22 1214.88 Q1063.25 1214.88 1066.81 1216.87 Q1070.42 1218.81 1072.77 1222.86 M1047.37 1238.7 Q1047.37 1246.92 1050.73 1251.62 Q1054.13 1256.28 1060.05 1256.28 Q1065.96 1256.28 1069.36 1251.62 Q1072.77 1246.92 1072.77 1238.7 Q1072.77 1230.48 1069.36 1225.82 Q1065.96 1221.12 1060.05 1221.12 Q1054.13 1221.12 1050.73 1225.82 Q1047.37 1230.48 1047.37 1238.7 Z" fill="#000000" fill-rule="evenodd" fill-opacity="1" /><path clip-path="url(#clip900)" d="M 0 0 M1122.51 1275.12 L1122.51 1280.91 L1079.41 1280.91 L1079.41 1275.12 L1122.51 1275.12 Z" fill="#000000" fill-rule="evenodd" fill-opacity="1" /><path clip-path="url(#clip900)" d="M 0 0 M1175.94 1205.52 L1175.94 1214.15 Q1171.81 1210.3 1167.11 1208.4 Q1162.45 1206.49 1157.19 1206.49 Q1146.82 1206.49 1141.31 1212.85 Q1135.8 1219.17 1135.8 1231.16 Q1135.8 1243.12 1141.31 1249.47 Q1146.82 1255.79 1157.19 1255.79 Q1162.45 1255.79 1167.11 1253.89 Q1171.81 1251.99 1175.94 1248.14 L1175.94 1256.69 Q1171.65 1259.6 1166.83 1261.06 Q1162.05 1262.52 1156.7 1262.52 Q1142.97 1262.52 1135.07 1254.13 Q1127.17 1245.71 1127.17 1231.16 Q1127.17 1216.58 1135.07 1208.2 Q1142.97 1199.77 1156.7 1199.77 Q1162.13 1199.77 1166.91 1201.23 Q1171.73 1202.65 1175.94 1205.52 Z" fill="#000000" fill-rule="evenodd" fill-opacity="1" /><path clip-path="url(#clip900)" d="M 0 0 M1201.34 1221.2 Q1195.35 1221.2 1191.86 1225.9 Q1188.38 1230.56 1188.38 1238.7 Q1188.38 1246.84 1191.82 1251.54 Q1195.31 1256.2 1201.34 1256.2 Q1207.3 1256.2 1210.78 1251.5 Q1214.26 1246.8 1214.26 1238.7 Q1214.26 1230.64 1210.78 1225.94 Q1207.3 1221.2 1201.34 1221.2 M1201.34 1214.88 Q1211.06 1214.88 1216.61 1221.2 Q1222.16 1227.52 1222.16 1238.7 Q1222.16 1249.84 1216.61 1256.2 Q1211.06 1262.52 1201.34 1262.52 Q1191.58 1262.52 1186.03 1256.2 Q1180.52 1249.84 1180.52 1238.7 Q1180.52 1227.52 1186.03 1221.2 Q1191.58 1214.88 1201.34 1214.88 Z" fill="#000000" fill-rule="evenodd" fill-opacity="1" /><path clip-path="url(#clip900)" d="M 0 0 M1267.7 1233.96 L1267.7 1261.34 L1260.24 1261.34 L1260.24 1234.2 Q1260.24 1227.76 1257.73 1224.56 Q1255.22 1221.36 1250.2 1221.36 Q1244.16 1221.36 1240.68 1225.21 Q1237.19 1229.06 1237.19 1235.7 L1237.19 1261.34 L1229.7 1261.34 L1229.7 1215.97 L1237.19 1215.97 L1237.19 1223.02 Q1239.87 1218.93 1243.47 1216.91 Q1247.12 1214.88 1251.86 1214.88 Q1259.68 1214.88 1263.69 1219.74 Q1267.7 1224.56 1267.7 1233.96 Z" fill="#000000" fill-rule="evenodd" fill-opacity="1" /><path clip-path="url(#clip900)" d="M 0 0 M1304.44 1217.31 L1304.44 1224.36 Q1301.28 1222.74 1297.88 1221.93 Q1294.47 1221.12 1290.83 1221.12 Q1285.28 1221.12 1282.48 1222.82 Q1279.73 1224.52 1279.73 1227.92 Q1279.73 1230.52 1281.71 1232.02 Q1283.7 1233.47 1289.69 1234.81 L1292.24 1235.38 Q1300.18 1237.08 1303.51 1240.2 Q1306.87 1243.28 1306.87 1248.83 Q1306.87 1255.15 1301.85 1258.83 Q1296.86 1262.52 1288.11 1262.52 Q1284.47 1262.52 1280.5 1261.79 Q1276.57 1261.1 1272.19 1259.68 L1272.19 1251.99 Q1276.32 1254.13 1280.33 1255.23 Q1284.35 1256.28 1288.27 1256.28 Q1293.54 1256.28 1296.38 1254.5 Q1299.21 1252.68 1299.21 1249.39 Q1299.21 1246.36 1297.15 1244.74 Q1295.12 1243.12 1288.19 1241.62 L1285.6 1241.01 Q1278.67 1239.55 1275.6 1236.55 Q1272.52 1233.51 1272.52 1228.25 Q1272.52 1221.85 1277.05 1218.36 Q1281.59 1214.88 1289.94 1214.88 Q1294.07 1214.88 1297.71 1215.49 Q1301.36 1216.1 1304.44 1217.31 Z" fill="#000000" fill-rule="evenodd" fill-opacity="1" /><path clip-path="url(#clip900)" d="M 0 0 M1313.92 1243.44 L1313.92 1215.97 L1321.37 1215.97 L1321.37 1243.16 Q1321.37 1249.6 1323.88 1252.84 Q1326.39 1256.04 1331.42 1256.04 Q1337.45 1256.04 1340.94 1252.19 Q1344.46 1248.34 1344.46 1241.7 L1344.46 1215.97 L1351.91 1215.97 L1351.91 1261.34 L1344.46 1261.34 L1344.46 1254.38 Q1341.75 1258.51 1338.14 1260.53 Q1334.58 1262.52 1329.84 1262.52 Q1322.02 1262.52 1317.97 1257.66 Q1313.92 1252.8 1313.92 1243.44 M1332.67 1214.88 L1332.67 1214.88 Z" fill="#000000" fill-rule="evenodd" fill-opacity="1" /><path clip-path="url(#clip900)" d="M 0 0 M1359.73 1198.31 L1367.19 1198.31 L1367.19 1261.34 L1359.73 1261.34 L1359.73 1198.31 Z" fill="#000000" fill-rule="evenodd" fill-opacity="1" /><path clip-path="url(#clip900)" d="M 0 0 M1382.38 1203.09 L1382.38 1215.97 L1397.73 1215.97 L1397.73 1221.77 L1382.38 1221.77 L1382.38 1246.4 Q1382.38 1251.95 1383.88 1253.53 Q1385.42 1255.11 1390.07 1255.11 L1397.73 1255.11 L1397.73 1261.34 L1390.07 1261.34 Q1381.45 1261.34 1378.16 1258.14 Q1374.88 1254.9 1374.88 1246.4 L1374.88 1221.77 L1369.41 1221.77 L1369.41 1215.97 L1374.88 1215.97 L1374.88 1203.09 L1382.38 1203.09 Z" fill="#000000" fill-rule="evenodd" fill-opacity="1" /><path clip-path="url(#clip900)" d="M 0 0 M1426.17 1238.54 Q1417.13 1238.54 1413.65 1240.6 Q1410.17 1242.67 1410.17 1247.65 Q1410.17 1251.62 1412.76 1253.97 Q1415.39 1256.28 1419.89 1256.28 Q1426.09 1256.28 1429.81 1251.91 Q1433.58 1247.49 1433.58 1240.2 L1433.58 1238.54 L1426.17 1238.54 M1441.03 1235.46 L1441.03 1261.34 L1433.58 1261.34 L1433.58 1254.46 Q1431.03 1258.59 1427.22 1260.57 Q1423.41 1262.52 1417.9 1262.52 Q1410.94 1262.52 1406.8 1258.63 Q1402.71 1254.7 1402.71 1248.14 Q1402.71 1240.48 1407.82 1236.59 Q1412.96 1232.7 1423.13 1232.7 L1433.58 1232.7 L1433.58 1231.98 Q1433.58 1226.83 1430.18 1224.04 Q1426.82 1221.2 1420.7 1221.2 Q1416.81 1221.2 1413.12 1222.13 Q1409.44 1223.06 1406.03 1224.93 L1406.03 1218.04 Q1410.13 1216.46 1413.97 1215.69 Q1417.82 1214.88 1421.47 1214.88 Q1431.31 1214.88 1436.17 1219.98 Q1441.03 1225.09 1441.03 1235.46 Z" fill="#000000" fill-rule="evenodd" fill-opacity="1" /><path clip-path="url(#clip900)" d="M 0 0 M1486.57 1233.96 L1486.57 1261.34 L1479.11 1261.34 L1479.11 1234.2 Q1479.11 1227.76 1476.6 1224.56 Q1474.09 1221.36 1469.07 1221.36 Q1463.03 1221.36 1459.55 1225.21 Q1456.06 1229.06 1456.06 1235.7 L1456.06 1261.34 L1448.57 1261.34 L1448.57 1215.97 L1456.06 1215.97 L1456.06 1223.02 Q1458.74 1218.93 1462.34 1216.91 Q1465.99 1214.88 1470.73 1214.88 Q1478.55 1214.88 1482.56 1219.74 Q1486.57 1224.56 1486.57 1233.96 Z" fill="#000000" fill-rule="evenodd" fill-opacity="1" /><path clip-path="url(#clip900)" d="M 0 0 M1501.76 1203.09 L1501.76 1215.97 L1517.11 1215.97 L1517.11 1221.77 L1501.76 1221.77 L1501.76 1246.4 Q1501.76 1251.95 1503.26 1253.53 Q1504.8 1255.11 1509.45 1255.11 L1517.11 1255.11 L1517.11 1261.34 L1509.45 1261.34 Q1500.83 1261.34 1497.54 1258.14 Q1494.26 1254.9 1494.26 1246.4 L1494.26 1221.77 L1488.79 1221.77 L1488.79 1215.97 L1494.26 1215.97 L1494.26 1203.09 L1501.76 1203.09 Z" fill="#000000" fill-rule="evenodd" fill-opacity="1" /><path clip-path="url(#clip900)" d="M 0 0 M1559.4 1275.12 L1559.4 1280.91 L1516.3 1280.91 L1516.3 1275.12 L1559.4 1275.12 Z" fill="#000000" fill-rule="evenodd" fill-opacity="1" /><path clip-path="url(#clip900)" d="M 0 0 M1596.22 1232.99 Q1598.86 1233.88 1601.33 1236.8 Q1603.84 1239.71 1606.35 1244.82 L1614.66 1261.34 L1605.87 1261.34 L1598.13 1245.83 Q1595.13 1239.75 1592.29 1237.77 Q1589.5 1235.78 1584.64 1235.78 L1575.73 1235.78 L1575.73 1261.34 L1567.54 1261.34 L1567.54 1200.86 L1586.02 1200.86 Q1596.39 1200.86 1601.49 1205.2 Q1606.59 1209.53 1606.59 1218.28 Q1606.59 1223.99 1603.92 1227.76 Q1601.29 1231.53 1596.22 1232.99 M1575.73 1207.59 L1575.73 1229.06 L1586.02 1229.06 Q1591.93 1229.06 1594.93 1226.34 Q1597.97 1223.59 1597.97 1218.28 Q1597.97 1212.98 1594.93 1210.3 Q1591.93 1207.59 1586.02 1207.59 L1575.73 1207.59 Z" fill="#000000" fill-rule="evenodd" fill-opacity="1" /><path clip-path="url(#clip900)" d="M 0 0 M1657.55 1236.8 L1657.55 1240.44 L1623.28 1240.44 Q1623.77 1248.14 1627.9 1252.19 Q1632.07 1256.2 1639.49 1256.2 Q1643.78 1256.2 1647.79 1255.15 Q1651.84 1254.09 1655.81 1251.99 L1655.81 1259.04 Q1651.8 1260.74 1647.59 1261.63 Q1643.38 1262.52 1639.04 1262.52 Q1628.19 1262.52 1621.83 1256.2 Q1615.51 1249.88 1615.51 1239.1 Q1615.51 1227.96 1621.5 1221.44 Q1627.54 1214.88 1637.75 1214.88 Q1646.9 1214.88 1652.21 1220.79 Q1657.55 1226.67 1657.55 1236.8 M1650.1 1234.61 Q1650.02 1228.49 1646.66 1224.85 Q1643.34 1221.2 1637.83 1221.2 Q1631.59 1221.2 1627.82 1224.72 Q1624.09 1228.25 1623.53 1234.65 L1650.1 1234.61 Z" fill="#000000" fill-rule="evenodd" fill-opacity="1" /><path clip-path="url(#clip900)" d="M 0 0 M1669.83 1238.7 Q1669.83 1246.92 1673.19 1251.62 Q1676.59 1256.28 1682.51 1256.28 Q1688.42 1256.28 1691.83 1251.62 Q1695.23 1246.92 1695.23 1238.7 Q1695.23 1230.48 1691.83 1225.82 Q1688.42 1221.12 1682.51 1221.12 Q1676.59 1221.12 1673.19 1225.82 Q1669.83 1230.48 1669.83 1238.7 M1695.23 1254.54 Q1692.88 1258.59 1689.27 1260.57 Q1685.71 1262.52 1680.69 1262.52 Q1672.46 1262.52 1667.28 1255.96 Q1662.13 1249.39 1662.13 1238.7 Q1662.13 1228.01 1667.28 1221.44 Q1672.46 1214.88 1680.69 1214.88 Q1685.71 1214.88 1689.27 1216.87 Q1692.88 1218.81 1695.23 1222.86 L1695.23 1215.97 L1702.68 1215.97 L1702.68 1278.6 L1695.23 1278.6 L1695.23 1254.54 Z" fill="#000000" fill-rule="evenodd" fill-opacity="1" /><path clip-path="url(#clip900)" d="M 0 0 M1709.73 1243.44 L1709.73 1215.97 L1717.18 1215.97 L1717.18 1243.16 Q1717.18 1249.6 1719.7 1252.84 Q1722.21 1256.04 1727.23 1256.04 Q1733.27 1256.04 1736.75 1252.19 Q1740.27 1248.34 1740.27 1241.7 L1740.27 1215.97 L1747.73 1215.97 L1747.73 1261.34 L1740.27 1261.34 L1740.27 1254.38 Q1737.56 1258.51 1733.95 1260.53 Q1730.39 1262.52 1725.65 1262.52 Q1717.83 1262.52 1713.78 1257.66 Q1709.73 1252.8 1709.73 1243.44 M1728.49 1214.88 L1728.49 1214.88 Z" fill="#000000" fill-rule="evenodd" fill-opacity="1" /><path clip-path="url(#clip900)" d="M 0 0 M1794.35 1236.8 L1794.35 1240.44 L1760.08 1240.44 Q1760.57 1248.14 1764.7 1252.19 Q1768.87 1256.2 1776.29 1256.2 Q1780.58 1256.2 1784.59 1255.15 Q1788.64 1254.09 1792.61 1251.99 L1792.61 1259.04 Q1788.6 1260.74 1784.39 1261.63 Q1780.18 1262.52 1775.84 1262.52 Q1764.98 1262.52 1758.62 1256.2 Q1752.31 1249.88 1752.31 1239.1 Q1752.31 1227.96 1758.3 1221.44 Q1764.34 1214.88 1774.55 1214.88 Q1783.7 1214.88 1789.01 1220.79 Q1794.35 1226.67 1794.35 1236.8 M1786.9 1234.61 Q1786.82 1228.49 1783.46 1224.85 Q1780.14 1221.2 1774.63 1221.2 Q1768.39 1221.2 1764.62 1224.72 Q1760.89 1228.25 1760.33 1234.65 L1786.9 1234.61 Z" fill="#000000" fill-rule="evenodd" fill-opacity="1" /><path clip-path="url(#clip900)" d="M 0 0 M1831.1 1217.31 L1831.1 1224.36 Q1827.94 1222.74 1824.53 1221.93 Q1821.13 1221.12 1817.48 1221.12 Q1811.93 1221.12 1809.14 1222.82 Q1806.39 1224.52 1806.39 1227.92 Q1806.39 1230.52 1808.37 1232.02 Q1810.36 1233.47 1816.35 1234.81 L1818.9 1235.38 Q1826.84 1237.08 1830.16 1240.2 Q1833.53 1243.28 1833.53 1248.83 Q1833.53 1255.15 1828.5 1258.83 Q1823.52 1262.52 1814.77 1262.52 Q1811.12 1262.52 1807.15 1261.79 Q1803.23 1261.1 1798.85 1259.68 L1798.85 1251.99 Q1802.98 1254.13 1806.99 1255.23 Q1811 1256.28 1814.93 1256.28 Q1820.2 1256.28 1823.03 1254.5 Q1825.87 1252.68 1825.87 1249.39 Q1825.87 1246.36 1823.8 1244.74 Q1821.78 1243.12 1814.85 1241.62 L1812.26 1241.01 Q1805.33 1239.55 1802.25 1236.55 Q1799.17 1233.51 1799.17 1228.25 Q1799.17 1221.85 1803.71 1218.36 Q1808.25 1214.88 1816.59 1214.88 Q1820.73 1214.88 1824.37 1215.49 Q1828.02 1216.1 1831.1 1217.31 Z" fill="#000000" fill-rule="evenodd" fill-opacity="1" /><path clip-path="url(#clip900)" d="M 0 0 M1848.72 1203.09 L1848.72 1215.97 L1864.07 1215.97 L1864.07 1221.77 L1848.72 1221.77 L1848.72 1246.4 Q1848.72 1251.95 1850.22 1253.53 Q1851.76 1255.11 1856.41 1255.11 L1864.07 1255.11 L1864.07 1261.34 L1856.41 1261.34 Q1847.79 1261.34 1844.5 1258.14 Q1841.22 1254.9 1841.22 1246.4 L1841.22 1221.77 L1835.75 1221.77 L1835.75 1215.97 L1841.22 1215.97 L1841.22 1203.09 L1848.72 1203.09 Z" fill="#000000" fill-rule="evenodd" fill-opacity="1" /><path clip-path="url(#clip900)" d="M 0 0 M1900.81 1217.31 L1900.81 1224.36 Q1897.65 1222.74 1894.25 1221.93 Q1890.85 1221.12 1887.2 1221.12 Q1881.65 1221.12 1878.86 1222.82 Q1876.1 1224.52 1876.1 1227.92 Q1876.1 1230.52 1878.09 1232.02 Q1880.07 1233.47 1886.07 1234.81 L1888.62 1235.38 Q1896.56 1237.08 1899.88 1240.2 Q1903.24 1243.28 1903.24 1248.83 Q1903.24 1255.15 1898.22 1258.83 Q1893.24 1262.52 1884.49 1262.52 Q1880.84 1262.52 1876.87 1261.79 Q1872.94 1261.1 1868.57 1259.68 L1868.57 1251.99 Q1872.7 1254.13 1876.71 1255.23 Q1880.72 1256.28 1884.65 1256.28 Q1889.91 1256.28 1892.75 1254.5 Q1895.59 1252.68 1895.59 1249.39 Q1895.59 1246.36 1893.52 1244.74 Q1891.49 1243.12 1884.57 1241.62 L1881.98 1241.01 Q1875.05 1239.55 1871.97 1236.55 Q1868.89 1233.51 1868.89 1228.25 Q1868.89 1221.85 1873.43 1218.36 Q1877.96 1214.88 1886.31 1214.88 Q1890.44 1214.88 1894.09 1215.49 Q1897.73 1216.1 1900.81 1217.31 Z" fill="#000000" fill-rule="evenodd" fill-opacity="1" /><path clip-path="url(#clip900)" d="M 0 0 M1909.02 1455.78 L1909.02 1502.81 L1918.9 1502.81 Q1931.42 1502.81 1937.21 1497.14 Q1943.05 1491.47 1943.05 1479.24 Q1943.05 1467.08 1937.21 1461.45 Q1931.42 1455.78 1918.9 1455.78 L1909.02 1455.78 M1900.84 1449.06 L1917.65 1449.06 Q1935.23 1449.06 1943.45 1456.39 Q1951.67 1463.68 1951.67 1479.24 Q1951.67 1494.87 1943.41 1502.21 Q1935.15 1509.54 1917.65 1509.54 L1900.84 1509.54 L1900.84 1449.06 Z" fill="#000000" fill-rule="evenodd" fill-opacity="1" /><path clip-path="url(#clip900)" d="M 0 0 M1998.3 1484.99 L1998.3 1488.63 L1964.03 1488.63 Q1964.52 1496.33 1968.65 1500.38 Q1972.82 1504.39 1980.23 1504.39 Q1984.53 1504.39 1988.54 1503.34 Q1992.59 1502.29 1996.56 1500.18 L1996.56 1507.23 Q1992.55 1508.93 1988.33 1509.82 Q1984.12 1510.71 1979.79 1510.71 Q1968.93 1510.71 1962.57 1504.39 Q1956.25 1498.07 1956.25 1487.3 Q1956.25 1476.16 1962.25 1469.64 Q1968.28 1463.07 1978.49 1463.07 Q1987.65 1463.07 1992.95 1468.99 Q1998.3 1474.86 1998.3 1484.99 M1990.85 1482.8 Q1990.77 1476.68 1987.4 1473.04 Q1984.08 1469.39 1978.57 1469.39 Q1972.33 1469.39 1968.57 1472.92 Q1964.84 1476.44 1964.27 1482.84 L1990.85 1482.8 Z" fill="#000000" fill-rule="evenodd" fill-opacity="1" /><path clip-path="url(#clip900)" d="M 0 0 M2035.04 1465.5 L2035.04 1472.55 Q2031.88 1470.93 2028.48 1470.12 Q2025.08 1469.31 2021.43 1469.31 Q2015.88 1469.31 2013.09 1471.01 Q2010.33 1472.71 2010.33 1476.12 Q2010.33 1478.71 2012.32 1480.21 Q2014.3 1481.67 2020.3 1483 L2022.85 1483.57 Q2030.79 1485.27 2034.11 1488.39 Q2037.47 1491.47 2037.47 1497.02 Q2037.47 1503.34 2032.45 1507.03 Q2027.47 1510.71 2018.72 1510.71 Q2015.07 1510.71 2011.1 1509.98 Q2007.17 1509.29 2002.8 1507.88 L2002.8 1500.18 Q2006.93 1502.33 2010.94 1503.42 Q2014.95 1504.47 2018.88 1504.47 Q2024.14 1504.47 2026.98 1502.69 Q2029.82 1500.87 2029.82 1497.59 Q2029.82 1494.55 2027.75 1492.93 Q2025.72 1491.31 2018.8 1489.81 L2016.2 1489.2 Q2009.28 1487.74 2006.2 1484.75 Q2003.12 1481.71 2003.12 1476.44 Q2003.12 1470.04 2007.66 1466.56 Q2012.19 1463.07 2020.54 1463.07 Q2024.67 1463.07 2028.32 1463.68 Q2031.96 1464.29 2035.04 1465.5 Z" fill="#000000" fill-rule="evenodd" fill-opacity="1" /><path clip-path="url(#clip900)" d="M 0 0 M2045.29 1464.17 L2052.74 1464.17 L2052.74 1509.54 L2045.29 1509.54 L2045.29 1464.17 M2045.29 1446.51 L2052.74 1446.51 L2052.74 1455.94 L2045.29 1455.94 L2045.29 1446.51 Z" fill="#000000" fill-rule="evenodd" fill-opacity="1" /><path clip-path="url(#clip900)" d="M 0 0 M2090.42 1486.33 Q2090.42 1478.22 2087.06 1473.77 Q2083.73 1469.31 2077.7 1469.31 Q2071.7 1469.31 2068.34 1473.77 Q2065.02 1478.22 2065.02 1486.33 Q2065.02 1494.39 2068.34 1498.84 Q2071.7 1503.3 2077.7 1503.3 Q2083.73 1503.3 2087.06 1498.84 Q2090.42 1494.39 2090.42 1486.33 M2097.87 1503.91 Q2097.87 1515.49 2092.73 1521.12 Q2087.58 1526.79 2076.97 1526.79 Q2073.04 1526.79 2069.56 1526.19 Q2066.07 1525.62 2062.79 1524.4 L2062.79 1517.15 Q2066.07 1518.94 2069.27 1519.79 Q2072.47 1520.64 2075.79 1520.64 Q2083.13 1520.64 2086.77 1516.79 Q2090.42 1512.98 2090.42 1505.24 L2090.42 1501.56 Q2088.11 1505.57 2084.5 1507.55 Q2080.9 1509.54 2075.87 1509.54 Q2067.53 1509.54 2062.43 1503.18 Q2057.32 1496.82 2057.32 1486.33 Q2057.32 1475.79 2062.43 1469.43 Q2067.53 1463.07 2075.87 1463.07 Q2080.9 1463.07 2084.5 1465.06 Q2088.11 1467.04 2090.42 1471.05 L2090.42 1464.17 L2097.87 1464.17 L2097.87 1503.91 Z" fill="#000000" fill-rule="evenodd" fill-opacity="1" /><path clip-path="url(#clip900)" d="M 0 0 M2143.4 1482.15 L2143.4 1509.54 L2135.95 1509.54 L2135.95 1482.4 Q2135.95 1475.96 2133.44 1472.76 Q2130.93 1469.56 2125.9 1469.56 Q2119.87 1469.56 2116.38 1473.4 Q2112.9 1477.25 2112.9 1483.9 L2112.9 1509.54 L2105.41 1509.54 L2105.41 1464.17 L2112.9 1464.17 L2112.9 1471.22 Q2115.57 1467.12 2119.18 1465.1 Q2122.82 1463.07 2127.56 1463.07 Q2135.38 1463.07 2139.39 1467.93 Q2143.4 1472.76 2143.4 1482.15 Z" fill="#000000" fill-rule="evenodd" fill-opacity="1" /><path clip-path="url(#clip900)" d="M 0 0 M2185.69 1523.31 L2185.69 1529.1 L2142.59 1529.1 L2142.59 1523.31 L2185.69 1523.31 Z" fill="#000000" fill-rule="evenodd" fill-opacity="1" /><path clip-path="url(#clip900)" d="M 0 0 M2222.52 1481.18 Q2225.15 1482.07 2227.62 1484.99 Q2230.13 1487.91 2232.64 1493.01 L2240.95 1509.54 L2232.16 1509.54 L2224.42 1494.02 Q2221.42 1487.95 2218.59 1485.96 Q2215.79 1483.98 2210.93 1483.98 L2202.02 1483.98 L2202.02 1509.54 L2193.84 1509.54 L2193.84 1449.06 L2212.31 1449.06 Q2222.68 1449.06 2227.78 1453.39 Q2232.89 1457.73 2232.89 1466.48 Q2232.89 1472.19 2230.21 1475.96 Q2227.58 1479.72 2222.52 1481.18 M2202.02 1455.78 L2202.02 1477.25 L2212.31 1477.25 Q2218.22 1477.25 2221.22 1474.54 Q2224.26 1471.78 2224.26 1466.48 Q2224.26 1461.17 2221.22 1458.5 Q2218.22 1455.78 2212.31 1455.78 L2202.02 1455.78 Z" fill="#000000" fill-rule="evenodd" fill-opacity="1" /><path clip-path="url(#clip900)" d="M 0 0 M2283.85 1484.99 L2283.85 1488.63 L2249.58 1488.63 Q2250.06 1496.33 2254.2 1500.38 Q2258.37 1504.39 2265.78 1504.39 Q2270.08 1504.39 2274.09 1503.34 Q2278.14 1502.29 2282.11 1500.18 L2282.11 1507.23 Q2278.1 1508.93 2273.88 1509.82 Q2269.67 1510.71 2265.34 1510.71 Q2254.48 1510.71 2248.12 1504.39 Q2241.8 1498.07 2241.8 1487.3 Q2241.8 1476.16 2247.8 1469.64 Q2253.83 1463.07 2264.04 1463.07 Q2273.19 1463.07 2278.5 1468.99 Q2283.85 1474.86 2283.85 1484.99 M2276.39 1482.8 Q2276.31 1476.68 2272.95 1473.04 Q2269.63 1469.39 2264.12 1469.39 Q2257.88 1469.39 2254.11 1472.92 Q2250.39 1476.44 2249.82 1482.84 L2276.39 1482.8 Z" fill="#000000" fill-rule="evenodd" fill-opacity="1" /><path clip-path="url(#clip900)" d="M 0 0 M2312.29 1486.73 Q2303.25 1486.73 2299.77 1488.8 Q2296.28 1490.86 2296.28 1495.85 Q2296.28 1499.82 2298.88 1502.16 Q2301.51 1504.47 2306.01 1504.47 Q2312.2 1504.47 2315.93 1500.1 Q2319.7 1495.68 2319.7 1488.39 L2319.7 1486.73 L2312.29 1486.73 M2327.15 1483.65 L2327.15 1509.54 L2319.7 1509.54 L2319.7 1502.65 Q2317.15 1506.78 2313.34 1508.77 Q2309.53 1510.71 2304.02 1510.71 Q2297.05 1510.71 2292.92 1506.82 Q2288.83 1502.89 2288.83 1496.33 Q2288.83 1488.68 2293.93 1484.79 Q2299.08 1480.9 2309.25 1480.9 L2319.7 1480.9 L2319.7 1480.17 Q2319.7 1475.02 2316.3 1472.23 Q2312.93 1469.39 2306.82 1469.39 Q2302.93 1469.39 2299.24 1470.32 Q2295.56 1471.26 2292.15 1473.12 L2292.15 1466.23 Q2296.24 1464.65 2300.09 1463.88 Q2303.94 1463.07 2307.59 1463.07 Q2317.43 1463.07 2322.29 1468.18 Q2327.15 1473.28 2327.15 1483.65 Z" fill="#000000" fill-rule="evenodd" fill-opacity="1" /><path clip-path="url(#clip900)" d="M 0 0 M2363.89 1465.5 L2363.89 1472.55 Q2360.73 1470.93 2357.33 1470.12 Q2353.93 1469.31 2350.28 1469.31 Q2344.73 1469.31 2341.94 1471.01 Q2339.18 1472.71 2339.18 1476.12 Q2339.18 1478.71 2341.17 1480.21 Q2343.15 1481.67 2349.15 1483 L2351.7 1483.57 Q2359.64 1485.27 2362.96 1488.39 Q2366.32 1491.47 2366.32 1497.02 Q2366.32 1503.34 2361.3 1507.03 Q2356.32 1510.71 2347.57 1510.71 Q2343.92 1510.71 2339.95 1509.98 Q2336.02 1509.29 2331.65 1507.88 L2331.65 1500.18 Q2335.78 1502.33 2339.79 1503.42 Q2343.8 1504.47 2347.73 1504.47 Q2353 1504.47 2355.83 1502.69 Q2358.67 1500.87 2358.67 1497.59 Q2358.67 1494.55 2356.6 1492.93 Q2354.58 1491.31 2347.65 1489.81 L2345.06 1489.2 Q2338.13 1487.74 2335.05 1484.75 Q2331.97 1481.71 2331.97 1476.44 Q2331.97 1470.04 2336.51 1466.56 Q2341.05 1463.07 2349.39 1463.07 Q2353.52 1463.07 2357.17 1463.68 Q2360.82 1464.29 2363.89 1465.5 Z" fill="#000000" fill-rule="evenodd" fill-opacity="1" /><path clip-path="url(#clip900)" d="M 0 0 M2391.72 1469.39 Q2385.73 1469.39 2382.24 1474.09 Q2378.76 1478.75 2378.76 1486.89 Q2378.76 1495.04 2382.2 1499.73 Q2385.69 1504.39 2391.72 1504.39 Q2397.68 1504.39 2401.16 1499.69 Q2404.65 1494.99 2404.65 1486.89 Q2404.65 1478.83 2401.16 1474.13 Q2397.68 1469.39 2391.72 1469.39 M2391.72 1463.07 Q2401.45 1463.07 2407 1469.39 Q2412.55 1475.71 2412.55 1486.89 Q2412.55 1498.03 2407 1504.39 Q2401.45 1510.71 2391.72 1510.71 Q2381.96 1510.71 2376.41 1504.39 Q2370.9 1498.03 2370.9 1486.89 Q2370.9 1475.71 2376.41 1469.39 Q2381.96 1463.07 2391.72 1463.07 Z" fill="#000000" fill-rule="evenodd" fill-opacity="1" /><path clip-path="url(#clip900)" d="M 0 0 M2458.08 1482.15 L2458.08 1509.54 L2450.62 1509.54 L2450.62 1482.4 Q2450.62 1475.96 2448.11 1472.76 Q2445.6 1469.56 2440.58 1469.56 Q2434.54 1469.56 2431.06 1473.4 Q2427.57 1477.25 2427.57 1483.9 L2427.57 1509.54 L2420.08 1509.54 L2420.08 1464.17 L2427.57 1464.17 L2427.57 1471.22 Q2430.25 1467.12 2433.85 1465.1 Q2437.5 1463.07 2442.24 1463.07 Q2450.06 1463.07 2454.07 1467.93 Q2458.08 1472.76 2458.08 1482.15 Z" fill="#000000" fill-rule="evenodd" fill-opacity="1" /><path clip-path="url(#clip900)" d="M 0 0 M2465.9 1464.17 L2473.35 1464.17 L2473.35 1509.54 L2465.9 1509.54 L2465.9 1464.17 M2465.9 1446.51 L2473.35 1446.51 L2473.35 1455.94 L2465.9 1455.94 L2465.9 1446.51 Z" fill="#000000" fill-rule="evenodd" fill-opacity="1" /><path clip-path="url(#clip900)" d="M 0 0 M2518.88 1482.15 L2518.88 1509.54 L2511.43 1509.54 L2511.43 1482.4 Q2511.43 1475.96 2508.92 1472.76 Q2506.4 1469.56 2501.38 1469.56 Q2495.35 1469.56 2491.86 1473.4 Q2488.38 1477.25 2488.38 1483.9 L2488.38 1509.54 L2480.88 1509.54 L2480.88 1464.17 L2488.38 1464.17 L2488.38 1471.22 Q2491.05 1467.12 2494.66 1465.1 Q2498.3 1463.07 2503.04 1463.07 Q2510.86 1463.07 2514.87 1467.93 Q2518.88 1472.76 2518.88 1482.15 Z" fill="#000000" fill-rule="evenodd" fill-opacity="1" /><path clip-path="url(#clip900)" d="M 0 0 M2556.55 1486.33 Q2556.55 1478.22 2553.19 1473.77 Q2549.87 1469.31 2543.84 1469.31 Q2537.84 1469.31 2534.48 1473.77 Q2531.16 1478.22 2531.16 1486.33 Q2531.16 1494.39 2534.48 1498.84 Q2537.84 1503.3 2543.84 1503.3 Q2549.87 1503.3 2553.19 1498.84 Q2556.55 1494.39 2556.55 1486.33 M2564.01 1503.91 Q2564.01 1515.49 2558.86 1521.12 Q2553.72 1526.79 2543.11 1526.79 Q2539.18 1526.79 2535.69 1526.19 Q2532.21 1525.62 2528.93 1524.4 L2528.93 1517.15 Q2532.21 1518.94 2535.41 1519.79 Q2538.61 1520.64 2541.93 1520.64 Q2549.26 1520.64 2552.91 1516.79 Q2556.55 1512.98 2556.55 1505.24 L2556.55 1501.56 Q2554.25 1505.57 2550.64 1507.55 Q2547.04 1509.54 2542.01 1509.54 Q2533.67 1509.54 2528.56 1503.18 Q2523.46 1496.82 2523.46 1486.33 Q2523.46 1475.79 2528.56 1469.43 Q2533.67 1463.07 2542.01 1463.07 Q2547.04 1463.07 2550.64 1465.06 Q2554.25 1467.04 2556.55 1471.05 L2556.55 1464.17 L2564.01 1464.17 L2564.01 1503.91 Z" fill="#000000" fill-rule="evenodd" fill-opacity="1" /><path clip-path="url(#clip900)" d="M 0 0 M-39.194 793.708 L-39.194 802.337 Q-43.3259 798.488 -48.0249 796.584 Q-52.6835 794.681 -57.9497 794.681 Q-68.32 794.681 -73.8292 801.04 Q-79.3384 807.36 -79.3384 819.351 Q-79.3384 831.301 -73.8292 837.661 Q-68.32 843.98 -57.9497 843.98 Q-52.6835 843.98 -48.0249 842.076 Q-43.3259 840.172 -39.194 836.324 L-39.194 844.871 Q-43.4879 847.788 -48.3085 849.246 Q-53.0886 850.705 -58.4358 850.705 Q-72.1683 850.705 -80.0676 842.319 Q-87.9669 833.893 -87.9669 819.351 Q-87.9669 804.767 -80.0676 796.382 Q-72.1683 787.956 -58.4358 787.956 Q-53.0075 787.956 -48.2275 789.414 Q-43.4069 790.832 -39.194 793.708 Z" fill="#000000" fill-rule="evenodd" fill-opacity="1" /><path clip-path="url(#clip900)" d="M 0 0 M-13.7948 809.385 Q-19.7901 809.385 -23.2739 814.084 Q-26.7577 818.743 -26.7577 826.885 Q-26.7577 835.028 -23.3144 839.727 Q-19.8306 844.385 -13.7948 844.385 Q-7.83997 844.385 -4.35619 839.686 Q-0.87241 834.987 -0.87241 826.885 Q-0.87241 818.824 -4.35619 814.125 Q-7.83997 809.385 -13.7948 809.385 M-13.7948 803.066 Q-4.07262 803.066 1.47711 809.385 Q7.02685 815.705 7.02685 826.885 Q7.02685 838.025 1.47711 844.385 Q-4.07262 850.705 -13.7948 850.705 Q-23.5575 850.705 -29.1072 844.385 Q-34.6164 838.025 -34.6164 826.885 Q-34.6164 815.705 -29.1072 809.385 Q-23.5575 803.066 -13.7948 803.066 Z" fill="#000000" fill-rule="evenodd" fill-opacity="1" /><path clip-path="url(#clip900)" d="M 0 0 M14.8451 786.498 L22.2988 786.498 L22.2988 849.53 L14.8451 849.53 L14.8451 786.498 Z" fill="#000000" fill-rule="evenodd" fill-opacity="1" /><path clip-path="url(#clip900)" d="M 0 0 M30.117 786.498 L37.5707 786.498 L37.5707 849.53 L30.117 849.53 L30.117 786.498 Z" fill="#000000" fill-rule="evenodd" fill-opacity="1" /><path clip-path="url(#clip900)" d="M 0 0 M66.008 826.723 Q56.9745 826.723 53.4907 828.789 Q50.0069 830.855 50.0069 835.838 Q50.0069 839.808 52.5995 842.157 Q55.2326 844.466 59.7291 844.466 Q65.927 844.466 69.6538 840.091 Q73.4212 835.676 73.4212 828.384 L73.4212 826.723 L66.008 826.723 M80.8748 823.645 L80.8748 849.53 L73.4212 849.53 L73.4212 842.643 Q70.8691 846.775 67.0613 848.76 Q63.2534 850.705 57.7442 850.705 Q50.7766 850.705 46.6447 846.816 Q42.5533 842.886 42.5533 836.324 Q42.5533 828.668 47.6574 824.779 Q52.8021 820.89 62.9698 820.89 L73.4212 820.89 L73.4212 820.161 Q73.4212 815.016 70.0184 812.221 Q66.6562 809.385 60.5393 809.385 Q56.6504 809.385 52.9641 810.317 Q49.2778 811.249 45.875 813.112 L45.875 806.226 Q49.9664 804.646 53.8148 803.876 Q57.6632 803.066 61.309 803.066 Q71.1527 803.066 76.0138 808.17 Q80.8748 813.274 80.8748 823.645 Z" fill="#000000" fill-rule="evenodd" fill-opacity="1" /><path clip-path="url(#clip900)" d="M 0 0 M121.262 826.885 Q121.262 818.662 117.86 814.003 Q114.497 809.304 108.583 809.304 Q102.669 809.304 99.2659 814.003 Q95.9037 818.662 95.9037 826.885 Q95.9037 835.109 99.2659 839.808 Q102.669 844.466 108.583 844.466 Q114.497 844.466 117.86 839.808 Q121.262 835.109 121.262 826.885 M95.9037 811.046 Q98.2532 806.995 101.818 805.051 Q105.423 803.066 110.406 803.066 Q118.67 803.066 123.814 809.628 Q129 816.191 129 826.885 Q129 837.58 123.814 844.142 Q118.67 850.705 110.406 850.705 Q105.423 850.705 101.818 848.76 Q98.2532 846.775 95.9037 842.724 L95.9037 849.53 L88.4095 849.53 L88.4095 786.498 L95.9037 786.498 L95.9037 811.046 Z" fill="#000000" fill-rule="evenodd" fill-opacity="1" /><path clip-path="url(#clip900)" d="M 0 0 M154.399 809.385 Q148.403 809.385 144.92 814.084 Q141.436 818.743 141.436 826.885 Q141.436 835.028 144.879 839.727 Q148.363 844.385 154.399 844.385 Q160.354 844.385 163.837 839.686 Q167.321 834.987 167.321 826.885 Q167.321 818.824 163.837 814.125 Q160.354 809.385 154.399 809.385 M154.399 803.066 Q164.121 803.066 169.671 809.385 Q175.22 815.705 175.22 826.885 Q175.22 838.025 169.671 844.385 Q164.121 850.705 154.399 850.705 Q144.636 850.705 139.086 844.385 Q133.577 838.025 133.577 826.885 Q133.577 815.705 139.086 809.385 Q144.636 803.066 154.399 803.066 Z" fill="#000000" fill-rule="evenodd" fill-opacity="1" /><path clip-path="url(#clip900)" d="M 0 0 M209.329 811.127 Q208.073 810.398 206.574 810.074 Q205.116 809.709 203.334 809.709 Q197.014 809.709 193.612 813.841 Q190.249 817.933 190.249 825.629 L190.249 849.53 L182.755 849.53 L182.755 804.16 L190.249 804.16 L190.249 811.208 Q192.599 807.076 196.366 805.091 Q200.133 803.066 205.521 803.066 Q206.291 803.066 207.223 803.187 Q208.154 803.268 209.289 803.471 L209.329 811.127 Z" fill="#000000" fill-rule="evenodd" fill-opacity="1" /><path clip-path="url(#clip900)" d="M 0 0 M237.766 826.723 Q228.733 826.723 225.249 828.789 Q221.765 830.855 221.765 835.838 Q221.765 839.808 224.358 842.157 Q226.991 844.466 231.487 844.466 Q237.685 844.466 241.412 840.091 Q245.18 835.676 245.18 828.384 L245.18 826.723 L237.766 826.723 M252.633 823.645 L252.633 849.53 L245.18 849.53 L245.18 842.643 Q242.627 846.775 238.82 848.76 Q235.012 850.705 229.503 850.705 Q222.535 850.705 218.403 846.816 Q214.312 842.886 214.312 836.324 Q214.312 828.668 219.416 824.779 Q224.56 820.89 234.728 820.89 L245.18 820.89 L245.18 820.161 Q245.18 815.016 241.777 812.221 Q238.415 809.385 232.298 809.385 Q228.409 809.385 224.722 810.317 Q221.036 811.249 217.633 813.112 L217.633 806.226 Q221.725 804.646 225.573 803.876 Q229.421 803.066 233.067 803.066 Q242.911 803.066 247.772 808.17 Q252.633 813.274 252.633 823.645 Z" fill="#000000" fill-rule="evenodd" fill-opacity="1" /><path clip-path="url(#clip900)" d="M 0 0 M267.824 791.278 L267.824 804.16 L283.177 804.16 L283.177 809.952 L267.824 809.952 L267.824 834.582 Q267.824 840.132 269.323 841.712 Q270.862 843.291 275.521 843.291 L283.177 843.291 L283.177 849.53 L275.521 849.53 Q266.892 849.53 263.611 846.33 Q260.33 843.089 260.33 834.582 L260.33 809.952 L254.861 809.952 L254.861 804.16 L260.33 804.16 L260.33 791.278 L267.824 791.278 Z" fill="#000000" fill-rule="evenodd" fill-opacity="1" /><path clip-path="url(#clip900)" d="M 0 0 M290.995 804.16 L298.449 804.16 L298.449 849.53 L290.995 849.53 L290.995 804.16 M290.995 786.498 L298.449 786.498 L298.449 795.936 L290.995 795.936 L290.995 786.498 Z" fill="#000000" fill-rule="evenodd" fill-opacity="1" /><path clip-path="url(#clip900)" d="M 0 0 M323.848 809.385 Q317.853 809.385 314.369 814.084 Q310.885 818.743 310.885 826.885 Q310.885 835.028 314.328 839.727 Q317.812 844.385 323.848 844.385 Q329.803 844.385 333.287 839.686 Q336.77 834.987 336.77 826.885 Q336.77 818.824 333.287 814.125 Q329.803 809.385 323.848 809.385 M323.848 803.066 Q333.57 803.066 339.12 809.385 Q344.67 815.705 344.67 826.885 Q344.67 838.025 339.12 844.385 Q333.57 850.705 323.848 850.705 Q314.085 850.705 308.536 844.385 Q303.026 838.025 303.026 826.885 Q303.026 815.705 308.536 809.385 Q314.085 803.066 323.848 803.066 Z" fill="#000000" fill-rule="evenodd" fill-opacity="1" /><path clip-path="url(#clip900)" d="M 0 0 M390.202 822.146 L390.202 849.53 L382.748 849.53 L382.748 822.389 Q382.748 815.948 380.237 812.748 Q377.725 809.547 372.702 809.547 Q366.666 809.547 363.182 813.396 Q359.699 817.244 359.699 823.888 L359.699 849.53 L352.204 849.53 L352.204 804.16 L359.699 804.16 L359.699 811.208 Q362.372 807.117 365.977 805.091 Q369.623 803.066 374.363 803.066 Q382.181 803.066 386.191 807.927 Q390.202 812.748 390.202 822.146 Z" fill="#000000" fill-rule="evenodd" fill-opacity="1" /></svg>
