<?xml version="1.0" encoding="utf-8"?>
<svg xmlns="http://www.w3.org/2000/svg" xmlns:xlink="http://www.w3.org/1999/xlink" width="600" height="400" viewBox="0 0 2400 1600">
<defs>
  <clipPath id="clip060">
    <rect x="0" y="0" width="2400" height="1600"/>
  </clipPath>
</defs>
<path clip-path="url(#clip060)" d="
M0 1600 L2400 1600 L2400 0 L0 0  Z
  " fill="#ffffff" fill-rule="evenodd" fill-opacity="1"/>
<defs>
  <clipPath id="clip061">
    <rect x="480" y="0" width="1681" height="1600"/>
  </clipPath>
</defs>
<path clip-path="url(#clip060)" d="
M86.9921 1521.01 L2352.76 1521.01 L2352.76 47.2441 L86.9921 47.2441  Z
  " fill="#ffffff" fill-rule="evenodd" fill-opacity="1"/>
<defs>
  <clipPath id="clip062">
    <rect x="86" y="47" width="2267" height="1475"/>
  </clipPath>
</defs>
<polyline clip-path="url(#clip062)" style="stroke:#000000; stroke-width:2; stroke-opacity:0.1; fill:none" points="
  1046.03,1521.01 1046.03,47.2441 
  "/>
<polyline clip-path="url(#clip062)" style="stroke:#000000; stroke-width:2; stroke-opacity:0.1; fill:none" points="
  86.9921,1063.87 2352.76,1063.87 
  "/>
<polyline clip-path="url(#clip060)" style="stroke:#000000; stroke-width:4; stroke-opacity:1; fill:none" points="
  86.9921,1521.01 2352.76,1521.01 
  "/>
<polyline clip-path="url(#clip060)" style="stroke:#000000; stroke-width:4; stroke-opacity:1; fill:none" points="
  86.9921,1521.01 86.9921,47.2441 
  "/>
<polyline clip-path="url(#clip060)" style="stroke:#000000; stroke-width:4; stroke-opacity:1; fill:none" points="
  1046.03,1521.01 1046.03,1503.32 
  "/>
<polyline clip-path="url(#clip060)" style="stroke:#000000; stroke-width:4; stroke-opacity:1; fill:none" points="
  86.9921,1063.87 114.181,1063.87 
  "/>
<path clip-path="url(#clip060)" d="M 0 0 M1046.03 1543 Q1042.42 1543 1040.59 1546.56 Q1038.79 1550.11 1038.79 1557.23 Q1038.79 1564.34 1040.59 1567.91 Q1042.42 1571.45 1046.03 1571.45 Q1049.67 1571.45 1051.47 1567.91 Q1053.3 1564.34 1053.3 1557.23 Q1053.3 1550.11 1051.47 1546.56 Q1049.67 1543 1046.03 1543 M1046.03 1539.29 Q1051.84 1539.29 1054.9 1543.9 Q1057.98 1548.48 1057.98 1557.23 Q1057.98 1565.96 1054.9 1570.57 Q1051.84 1575.15 1046.03 1575.15 Q1040.22 1575.15 1037.14 1570.57 Q1034.09 1565.96 1034.09 1557.23 Q1034.09 1548.48 1037.14 1543.9 Q1040.22 1539.29 1046.03 1539.29 Z" fill="#000000" fill-rule="evenodd" fill-opacity="1" /><path clip-path="url(#clip060)" d="M 0 0 M51.0477 1049.66 Q47.4367 1049.66 45.608 1053.23 Q43.8024 1056.77 43.8024 1063.9 Q43.8024 1071.01 45.608 1074.57 Q47.4367 1078.11 51.0477 1078.11 Q54.682 1078.11 56.4875 1074.57 Q58.3162 1071.01 58.3162 1063.9 Q58.3162 1056.77 56.4875 1053.23 Q54.682 1049.66 51.0477 1049.66 M51.0477 1045.96 Q56.8579 1045.96 59.9134 1050.57 Q62.9921 1055.15 62.9921 1063.9 Q62.9921 1072.63 59.9134 1077.23 Q56.8579 1081.82 51.0477 1081.82 Q45.2376 1081.82 42.1589 1077.23 Q39.1034 1072.63 39.1034 1063.9 Q39.1034 1055.15 42.1589 1050.57 Q45.2376 1045.96 51.0477 1045.96 Z" fill="#000000" fill-rule="evenodd" fill-opacity="1" /><circle clip-path="url(#clip062)" cx="1081.39" cy="1146.62" r="14" fill="#808080" fill-rule="evenodd" fill-opacity="1" stroke="none"/>
<circle clip-path="url(#clip062)" cx="1076.82" cy="1102.24" r="14" fill="#808080" fill-rule="evenodd" fill-opacity="1" stroke="none"/>
<circle clip-path="url(#clip062)" cx="1051.57" cy="1045.78" r="14" fill="#808080" fill-rule="evenodd" fill-opacity="1" stroke="none"/>
<circle clip-path="url(#clip062)" cx="1040.69" cy="1088.96" r="14" fill="#808080" fill-rule="evenodd" fill-opacity="1" stroke="none"/>
<circle clip-path="url(#clip062)" cx="1098.42" cy="1000.91" r="14" fill="#808080" fill-rule="evenodd" fill-opacity="1" stroke="none"/>
<circle clip-path="url(#clip062)" cx="1481.47" cy="847.407" r="14" fill="#808080" fill-rule="evenodd" fill-opacity="1" stroke="none"/>
<circle clip-path="url(#clip062)" cx="1094.91" cy="998.553" r="14" fill="#808080" fill-rule="evenodd" fill-opacity="1" stroke="none"/>
<circle clip-path="url(#clip062)" cx="1035.37" cy="1026.05" r="14" fill="#808080" fill-rule="evenodd" fill-opacity="1" stroke="none"/>
<circle clip-path="url(#clip062)" cx="1053.25" cy="1034.83" r="14" fill="#808080" fill-rule="evenodd" fill-opacity="1" stroke="none"/>
<circle clip-path="url(#clip062)" cx="960.539" cy="725.251" r="14" fill="#808080" fill-rule="evenodd" fill-opacity="1" stroke="none"/>
<circle clip-path="url(#clip062)" cx="1047.78" cy="1122.41" r="14" fill="#808080" fill-rule="evenodd" fill-opacity="1" stroke="none"/>
<circle clip-path="url(#clip062)" cx="1084.23" cy="1036.68" r="14" fill="#808080" fill-rule="evenodd" fill-opacity="1" stroke="none"/>
<circle clip-path="url(#clip062)" cx="1065.28" cy="1065.71" r="14" fill="#808080" fill-rule="evenodd" fill-opacity="1" stroke="none"/>
<circle clip-path="url(#clip062)" cx="1051.97" cy="1163.88" r="14" fill="#808080" fill-rule="evenodd" fill-opacity="1" stroke="none"/>
<circle clip-path="url(#clip062)" cx="1141.94" cy="1135.81" r="14" fill="#808080" fill-rule="evenodd" fill-opacity="1" stroke="none"/>
<circle clip-path="url(#clip062)" cx="1057.58" cy="1147.9" r="14" fill="#808080" fill-rule="evenodd" fill-opacity="1" stroke="none"/>
<circle clip-path="url(#clip062)" cx="1084.07" cy="1181.85" r="14" fill="#808080" fill-rule="evenodd" fill-opacity="1" stroke="none"/>
<circle clip-path="url(#clip062)" cx="1016.49" cy="1119.77" r="14" fill="#808080" fill-rule="evenodd" fill-opacity="1" stroke="none"/>
<circle clip-path="url(#clip062)" cx="1390.1" cy="1085.46" r="14" fill="#808080" fill-rule="evenodd" fill-opacity="1" stroke="none"/>
<circle clip-path="url(#clip062)" cx="971.574" cy="1125.18" r="14" fill="#808080" fill-rule="evenodd" fill-opacity="1" stroke="none"/>
<circle clip-path="url(#clip062)" cx="1043.89" cy="1169.86" r="14" fill="#808080" fill-rule="evenodd" fill-opacity="1" stroke="none"/>
<circle clip-path="url(#clip062)" cx="989.579" cy="1143.94" r="14" fill="#808080" fill-rule="evenodd" fill-opacity="1" stroke="none"/>
<circle clip-path="url(#clip062)" cx="1025" cy="1072.96" r="14" fill="#808080" fill-rule="evenodd" fill-opacity="1" stroke="none"/>
<circle clip-path="url(#clip062)" cx="1029.76" cy="1162.64" r="14" fill="#808080" fill-rule="evenodd" fill-opacity="1" stroke="none"/>
<circle clip-path="url(#clip062)" cx="1126.56" cy="1096.84" r="14" fill="#808080" fill-rule="evenodd" fill-opacity="1" stroke="none"/>
<circle clip-path="url(#clip062)" cx="1042.13" cy="1080.18" r="14" fill="#808080" fill-rule="evenodd" fill-opacity="1" stroke="none"/>
<circle clip-path="url(#clip062)" cx="1344.12" cy="1107.91" r="14" fill="#808080" fill-rule="evenodd" fill-opacity="1" stroke="none"/>
<circle clip-path="url(#clip062)" cx="1162.42" cy="1171.54" r="14" fill="#808080" fill-rule="evenodd" fill-opacity="1" stroke="none"/>
<circle clip-path="url(#clip062)" cx="1045.97" cy="1074.49" r="14" fill="#808080" fill-rule="evenodd" fill-opacity="1" stroke="none"/>
<circle clip-path="url(#clip062)" cx="1095.85" cy="1204.9" r="14" fill="#808080" fill-rule="evenodd" fill-opacity="1" stroke="none"/>
<circle clip-path="url(#clip062)" cx="1074.16" cy="1127.86" r="14" fill="#808080" fill-rule="evenodd" fill-opacity="1" stroke="none"/>
<circle clip-path="url(#clip062)" cx="1095.07" cy="1176.19" r="14" fill="#808080" fill-rule="evenodd" fill-opacity="1" stroke="none"/>
<circle clip-path="url(#clip062)" cx="1025.18" cy="1016.71" r="14" fill="#808080" fill-rule="evenodd" fill-opacity="1" stroke="none"/>
<circle clip-path="url(#clip062)" cx="1048.05" cy="1070.66" r="14" fill="#808080" fill-rule="evenodd" fill-opacity="1" stroke="none"/>
<circle clip-path="url(#clip062)" cx="923.209" cy="1149.72" r="14" fill="#808080" fill-rule="evenodd" fill-opacity="1" stroke="none"/>
<circle clip-path="url(#clip062)" cx="878.436" cy="1037.69" r="14" fill="#808080" fill-rule="evenodd" fill-opacity="1" stroke="none"/>
<circle clip-path="url(#clip062)" cx="863.814" cy="1036.79" r="14" fill="#808080" fill-rule="evenodd" fill-opacity="1" stroke="none"/>
<circle clip-path="url(#clip062)" cx="837.996" cy="1085.13" r="14" fill="#808080" fill-rule="evenodd" fill-opacity="1" stroke="none"/>
<circle clip-path="url(#clip062)" cx="917.344" cy="1036.98" r="14" fill="#808080" fill-rule="evenodd" fill-opacity="1" stroke="none"/>
<circle clip-path="url(#clip062)" cx="847.895" cy="1103.18" r="14" fill="#808080" fill-rule="evenodd" fill-opacity="1" stroke="none"/>
<circle clip-path="url(#clip062)" cx="1202.16" cy="1080.33" r="14" fill="#808080" fill-rule="evenodd" fill-opacity="1" stroke="none"/>
<circle clip-path="url(#clip062)" cx="1101.53" cy="1038.7" r="14" fill="#808080" fill-rule="evenodd" fill-opacity="1" stroke="none"/>
<circle clip-path="url(#clip062)" cx="1130.26" cy="997.455" r="14" fill="#808080" fill-rule="evenodd" fill-opacity="1" stroke="none"/>
<circle clip-path="url(#clip062)" cx="1216.2" cy="950.829" r="14" fill="#808080" fill-rule="evenodd" fill-opacity="1" stroke="none"/>
<circle clip-path="url(#clip062)" cx="1437.12" cy="1046.88" r="14" fill="#808080" fill-rule="evenodd" fill-opacity="1" stroke="none"/>
<circle clip-path="url(#clip062)" cx="1055.01" cy="1043.47" r="14" fill="#808080" fill-rule="evenodd" fill-opacity="1" stroke="none"/>
<circle clip-path="url(#clip062)" cx="1143.22" cy="1091.44" r="14" fill="#808080" fill-rule="evenodd" fill-opacity="1" stroke="none"/>
<circle clip-path="url(#clip062)" cx="1016.47" cy="997.462" r="14" fill="#808080" fill-rule="evenodd" fill-opacity="1" stroke="none"/>
<circle clip-path="url(#clip062)" cx="1130.78" cy="1082.92" r="14" fill="#808080" fill-rule="evenodd" fill-opacity="1" stroke="none"/>
<circle clip-path="url(#clip062)" cx="1074.88" cy="1025.5" r="14" fill="#808080" fill-rule="evenodd" fill-opacity="1" stroke="none"/>
<circle clip-path="url(#clip062)" cx="1205.89" cy="1212.18" r="14" fill="#808080" fill-rule="evenodd" fill-opacity="1" stroke="none"/>
<circle clip-path="url(#clip062)" cx="1256.75" cy="1188.34" r="14" fill="#808080" fill-rule="evenodd" fill-opacity="1" stroke="none"/>
<circle clip-path="url(#clip062)" cx="968.567" cy="1128.31" r="14" fill="#808080" fill-rule="evenodd" fill-opacity="1" stroke="none"/>
<circle clip-path="url(#clip062)" cx="1160.02" cy="1193.15" r="14" fill="#808080" fill-rule="evenodd" fill-opacity="1" stroke="none"/>
<circle clip-path="url(#clip062)" cx="896.295" cy="1115.87" r="14" fill="#808080" fill-rule="evenodd" fill-opacity="1" stroke="none"/>
<circle clip-path="url(#clip062)" cx="1065.76" cy="1165.2" r="14" fill="#808080" fill-rule="evenodd" fill-opacity="1" stroke="none"/>
<circle clip-path="url(#clip062)" cx="1055.47" cy="1172.06" r="14" fill="#808080" fill-rule="evenodd" fill-opacity="1" stroke="none"/>
<circle clip-path="url(#clip062)" cx="996.739" cy="1136.07" r="14" fill="#808080" fill-rule="evenodd" fill-opacity="1" stroke="none"/>
<circle clip-path="url(#clip062)" cx="1051.16" cy="1112.1" r="14" fill="#808080" fill-rule="evenodd" fill-opacity="1" stroke="none"/>
<circle clip-path="url(#clip062)" cx="1100.53" cy="1122.81" r="14" fill="#808080" fill-rule="evenodd" fill-opacity="1" stroke="none"/>
<circle clip-path="url(#clip062)" cx="1016.87" cy="1205.16" r="14" fill="#808080" fill-rule="evenodd" fill-opacity="1" stroke="none"/>
<circle clip-path="url(#clip062)" cx="984.181" cy="1153.82" r="14" fill="#808080" fill-rule="evenodd" fill-opacity="1" stroke="none"/>
<circle clip-path="url(#clip062)" cx="1115.83" cy="1153.47" r="14" fill="#808080" fill-rule="evenodd" fill-opacity="1" stroke="none"/>
<circle clip-path="url(#clip062)" cx="1060.06" cy="1169.83" r="14" fill="#808080" fill-rule="evenodd" fill-opacity="1" stroke="none"/>
<circle clip-path="url(#clip062)" cx="915.152" cy="1185.08" r="14" fill="#808080" fill-rule="evenodd" fill-opacity="1" stroke="none"/>
<circle clip-path="url(#clip062)" cx="1005.49" cy="1203.32" r="14" fill="#808080" fill-rule="evenodd" fill-opacity="1" stroke="none"/>
<circle clip-path="url(#clip062)" cx="1000.22" cy="1175.39" r="14" fill="#808080" fill-rule="evenodd" fill-opacity="1" stroke="none"/>
<circle clip-path="url(#clip062)" cx="1002.89" cy="1178.93" r="14" fill="#808080" fill-rule="evenodd" fill-opacity="1" stroke="none"/>
<circle clip-path="url(#clip062)" cx="916.461" cy="1094.69" r="14" fill="#808080" fill-rule="evenodd" fill-opacity="1" stroke="none"/>
<circle clip-path="url(#clip062)" cx="1048.41" cy="1119.47" r="14" fill="#808080" fill-rule="evenodd" fill-opacity="1" stroke="none"/>
<circle clip-path="url(#clip062)" cx="953.387" cy="1115.55" r="14" fill="#808080" fill-rule="evenodd" fill-opacity="1" stroke="none"/>
<circle clip-path="url(#clip062)" cx="823.489" cy="1095.59" r="14" fill="#808080" fill-rule="evenodd" fill-opacity="1" stroke="none"/>
<circle clip-path="url(#clip062)" cx="896.395" cy="1137.1" r="14" fill="#808080" fill-rule="evenodd" fill-opacity="1" stroke="none"/>
<circle clip-path="url(#clip062)" cx="917.639" cy="1139.93" r="14" fill="#808080" fill-rule="evenodd" fill-opacity="1" stroke="none"/>
<circle clip-path="url(#clip062)" cx="941.158" cy="1061.29" r="14" fill="#808080" fill-rule="evenodd" fill-opacity="1" stroke="none"/>
<circle clip-path="url(#clip062)" cx="1053.32" cy="1085.88" r="14" fill="#808080" fill-rule="evenodd" fill-opacity="1" stroke="none"/>
<circle clip-path="url(#clip062)" cx="948.708" cy="988.617" r="14" fill="#808080" fill-rule="evenodd" fill-opacity="1" stroke="none"/>
<circle clip-path="url(#clip062)" cx="1007.13" cy="1155.03" r="14" fill="#808080" fill-rule="evenodd" fill-opacity="1" stroke="none"/>
<circle clip-path="url(#clip062)" cx="933.682" cy="1083.19" r="14" fill="#808080" fill-rule="evenodd" fill-opacity="1" stroke="none"/>
<circle clip-path="url(#clip062)" cx="824.739" cy="1121.51" r="14" fill="#808080" fill-rule="evenodd" fill-opacity="1" stroke="none"/>
<circle clip-path="url(#clip062)" cx="928.337" cy="1084.67" r="14" fill="#808080" fill-rule="evenodd" fill-opacity="1" stroke="none"/>
<circle clip-path="url(#clip062)" cx="672.803" cy="1054.77" r="14" fill="#808080" fill-rule="evenodd" fill-opacity="1" stroke="none"/>
<circle clip-path="url(#clip062)" cx="880.644" cy="1147.06" r="14" fill="#808080" fill-rule="evenodd" fill-opacity="1" stroke="none"/>
<circle clip-path="url(#clip062)" cx="1013.96" cy="1180.24" r="14" fill="#808080" fill-rule="evenodd" fill-opacity="1" stroke="none"/>
<circle clip-path="url(#clip062)" cx="863.378" cy="1137.45" r="14" fill="#808080" fill-rule="evenodd" fill-opacity="1" stroke="none"/>
<circle clip-path="url(#clip062)" cx="886.863" cy="993.998" r="14" fill="#808080" fill-rule="evenodd" fill-opacity="1" stroke="none"/>
<circle clip-path="url(#clip062)" cx="803.175" cy="977.542" r="14" fill="#808080" fill-rule="evenodd" fill-opacity="1" stroke="none"/>
<circle clip-path="url(#clip062)" cx="924.869" cy="949.219" r="14" fill="#808080" fill-rule="evenodd" fill-opacity="1" stroke="none"/>
<circle clip-path="url(#clip062)" cx="745.749" cy="973.206" r="14" fill="#808080" fill-rule="evenodd" fill-opacity="1" stroke="none"/>
<circle clip-path="url(#clip062)" cx="740.774" cy="1005.56" r="14" fill="#808080" fill-rule="evenodd" fill-opacity="1" stroke="none"/>
<circle clip-path="url(#clip062)" cx="1060.99" cy="973.864" r="14" fill="#808080" fill-rule="evenodd" fill-opacity="1" stroke="none"/>
<circle clip-path="url(#clip062)" cx="1142.39" cy="1087.41" r="14" fill="#808080" fill-rule="evenodd" fill-opacity="1" stroke="none"/>
<circle clip-path="url(#clip062)" cx="1173.85" cy="948.1" r="14" fill="#808080" fill-rule="evenodd" fill-opacity="1" stroke="none"/>
<circle clip-path="url(#clip062)" cx="1136.36" cy="1004.21" r="14" fill="#808080" fill-rule="evenodd" fill-opacity="1" stroke="none"/>
<circle clip-path="url(#clip062)" cx="1082.32" cy="1111.89" r="14" fill="#800080" fill-rule="evenodd" fill-opacity="1" stroke="none"/>
<circle clip-path="url(#clip062)" cx="1096.27" cy="1075.22" r="14" fill="#800080" fill-rule="evenodd" fill-opacity="1" stroke="none"/>
<circle clip-path="url(#clip062)" cx="1064.56" cy="1039.98" r="14" fill="#800080" fill-rule="evenodd" fill-opacity="1" stroke="none"/>
<circle clip-path="url(#clip062)" cx="1051.81" cy="1063.77" r="14" fill="#800080" fill-rule="evenodd" fill-opacity="1" stroke="none"/>
<circle clip-path="url(#clip062)" cx="1140.93" cy="981.806" r="14" fill="#800080" fill-rule="evenodd" fill-opacity="1" stroke="none"/>
<circle clip-path="url(#clip062)" cx="1462.68" cy="877.212" r="14" fill="#800080" fill-rule="evenodd" fill-opacity="1" stroke="none"/>
<circle clip-path="url(#clip062)" cx="1111.34" cy="969.855" r="14" fill="#800080" fill-rule="evenodd" fill-opacity="1" stroke="none"/>
<circle clip-path="url(#clip062)" cx="1043.75" cy="1017.59" r="14" fill="#800080" fill-rule="evenodd" fill-opacity="1" stroke="none"/>
<circle clip-path="url(#clip062)" cx="1055.42" cy="1012.4" r="14" fill="#800080" fill-rule="evenodd" fill-opacity="1" stroke="none"/>
<circle clip-path="url(#clip062)" cx="820.702" cy="581.881" r="14" fill="#800080" fill-rule="evenodd" fill-opacity="1" stroke="none"/>
<circle clip-path="url(#clip062)" cx="1033.27" cy="1086.76" r="14" fill="#800080" fill-rule="evenodd" fill-opacity="1" stroke="none"/>
<circle clip-path="url(#clip062)" cx="1117.55" cy="1004.47" r="14" fill="#800080" fill-rule="evenodd" fill-opacity="1" stroke="none"/>
<circle clip-path="url(#clip062)" cx="1080.39" cy="1041.81" r="14" fill="#800080" fill-rule="evenodd" fill-opacity="1" stroke="none"/>
<circle clip-path="url(#clip062)" cx="1062.29" cy="1139.62" r="14" fill="#800080" fill-rule="evenodd" fill-opacity="1" stroke="none"/>
<circle clip-path="url(#clip062)" cx="1140.84" cy="1096.41" r="14" fill="#800080" fill-rule="evenodd" fill-opacity="1" stroke="none"/>
<circle clip-path="url(#clip062)" cx="1052.11" cy="1133.86" r="14" fill="#800080" fill-rule="evenodd" fill-opacity="1" stroke="none"/>
<circle clip-path="url(#clip062)" cx="1098.81" cy="1161.55" r="14" fill="#800080" fill-rule="evenodd" fill-opacity="1" stroke="none"/>
<circle clip-path="url(#clip062)" cx="1040.78" cy="1071.42" r="14" fill="#800080" fill-rule="evenodd" fill-opacity="1" stroke="none"/>
<circle clip-path="url(#clip062)" cx="1421.83" cy="1110.72" r="14" fill="#800080" fill-rule="evenodd" fill-opacity="1" stroke="none"/>
<circle clip-path="url(#clip062)" cx="992.894" cy="1076.71" r="14" fill="#800080" fill-rule="evenodd" fill-opacity="1" stroke="none"/>
<circle clip-path="url(#clip062)" cx="1046.49" cy="1151.71" r="14" fill="#800080" fill-rule="evenodd" fill-opacity="1" stroke="none"/>
<circle clip-path="url(#clip062)" cx="1025.38" cy="1088.11" r="14" fill="#800080" fill-rule="evenodd" fill-opacity="1" stroke="none"/>
<circle clip-path="url(#clip062)" cx="1058.88" cy="1042.32" r="14" fill="#800080" fill-rule="evenodd" fill-opacity="1" stroke="none"/>
<circle clip-path="url(#clip062)" cx="988.033" cy="1112.69" r="14" fill="#800080" fill-rule="evenodd" fill-opacity="1" stroke="none"/>
<circle clip-path="url(#clip062)" cx="1136.5" cy="1052.54" r="14" fill="#ffa500" fill-rule="evenodd" fill-opacity="1" stroke="none"/>
<circle clip-path="url(#clip062)" cx="1067.51" cy="1042.62" r="14" fill="#ffa500" fill-rule="evenodd" fill-opacity="1" stroke="none"/>
<circle clip-path="url(#clip062)" cx="1312.62" cy="1094.71" r="14" fill="#ffa500" fill-rule="evenodd" fill-opacity="1" stroke="none"/>
<circle clip-path="url(#clip062)" cx="1181.47" cy="1120.92" r="14" fill="#ffa500" fill-rule="evenodd" fill-opacity="1" stroke="none"/>
<circle clip-path="url(#clip062)" cx="1062.77" cy="1027.62" r="14" fill="#ffa500" fill-rule="evenodd" fill-opacity="1" stroke="none"/>
<circle clip-path="url(#clip062)" cx="1094.49" cy="1181.8" r="14" fill="#ffa500" fill-rule="evenodd" fill-opacity="1" stroke="none"/>
<circle clip-path="url(#clip062)" cx="1099.24" cy="1101.15" r="14" fill="#ffa500" fill-rule="evenodd" fill-opacity="1" stroke="none"/>
<circle clip-path="url(#clip062)" cx="1081.38" cy="1148.99" r="14" fill="#ffa500" fill-rule="evenodd" fill-opacity="1" stroke="none"/>
<circle clip-path="url(#clip062)" cx="1062.15" cy="989.259" r="14" fill="#ffa500" fill-rule="evenodd" fill-opacity="1" stroke="none"/>
<circle clip-path="url(#clip062)" cx="1094.06" cy="1042.04" r="14" fill="#ffa500" fill-rule="evenodd" fill-opacity="1" stroke="none"/>
<circle clip-path="url(#clip062)" cx="954.86" cy="1137.02" r="14" fill="#ffa500" fill-rule="evenodd" fill-opacity="1" stroke="none"/>
<circle clip-path="url(#clip062)" cx="971.114" cy="1025.22" r="14" fill="#ffa500" fill-rule="evenodd" fill-opacity="1" stroke="none"/>
<circle clip-path="url(#clip062)" cx="935.539" cy="1022.59" r="14" fill="#ffa500" fill-rule="evenodd" fill-opacity="1" stroke="none"/>
<circle clip-path="url(#clip062)" cx="883.313" cy="1057.69" r="14" fill="#ffa500" fill-rule="evenodd" fill-opacity="1" stroke="none"/>
<circle clip-path="url(#clip062)" cx="1001.96" cy="1027.12" r="14" fill="#ffa500" fill-rule="evenodd" fill-opacity="1" stroke="none"/>
<circle clip-path="url(#clip062)" cx="905.237" cy="1079.42" r="14" fill="#ffa500" fill-rule="evenodd" fill-opacity="1" stroke="none"/>
<circle clip-path="url(#clip062)" cx="1209.3" cy="1055.72" r="14" fill="#ffa500" fill-rule="evenodd" fill-opacity="1" stroke="none"/>
<circle clip-path="url(#clip062)" cx="1143.38" cy="1008.65" r="14" fill="#ffa500" fill-rule="evenodd" fill-opacity="1" stroke="none"/>
<circle clip-path="url(#clip062)" cx="1182.09" cy="990.972" r="14" fill="#ffa500" fill-rule="evenodd" fill-opacity="1" stroke="none"/>
<circle clip-path="url(#clip062)" cx="1223.3" cy="938.643" r="14" fill="#ffa500" fill-rule="evenodd" fill-opacity="1" stroke="none"/>
<circle clip-path="url(#clip062)" cx="1461.15" cy="1037.67" r="14" fill="#ffa500" fill-rule="evenodd" fill-opacity="1" stroke="none"/>
<circle clip-path="url(#clip062)" cx="1102.99" cy="1016.8" r="14" fill="#ffa500" fill-rule="evenodd" fill-opacity="1" stroke="none"/>
<circle clip-path="url(#clip062)" cx="1166.94" cy="1064.49" r="14" fill="#ffa500" fill-rule="evenodd" fill-opacity="1" stroke="none"/>
<circle clip-path="url(#clip062)" cx="1082.7" cy="983.286" r="14" fill="#ffa500" fill-rule="evenodd" fill-opacity="1" stroke="none"/>
<circle clip-path="url(#clip062)" cx="1129.4" cy="1058.13" r="14" fill="#ffa500" fill-rule="evenodd" fill-opacity="1" stroke="none"/>
<circle clip-path="url(#clip062)" cx="1123.88" cy="1003.41" r="14" fill="#ffa500" fill-rule="evenodd" fill-opacity="1" stroke="none"/>
<circle clip-path="url(#clip062)" cx="1188.13" cy="1203.36" r="14" fill="#800080" fill-rule="evenodd" fill-opacity="1" stroke="none"/>
<circle clip-path="url(#clip062)" cx="1241.79" cy="1162.64" r="14" fill="#800080" fill-rule="evenodd" fill-opacity="1" stroke="none"/>
<circle clip-path="url(#clip062)" cx="1012.9" cy="1081.62" r="14" fill="#800080" fill-rule="evenodd" fill-opacity="1" stroke="none"/>
<circle clip-path="url(#clip062)" cx="1141.03" cy="1151.71" r="14" fill="#800080" fill-rule="evenodd" fill-opacity="1" stroke="none"/>
<circle clip-path="url(#clip062)" cx="898.994" cy="1077.53" r="14" fill="#800080" fill-rule="evenodd" fill-opacity="1" stroke="none"/>
<circle clip-path="url(#clip062)" cx="1045.95" cy="1140.04" r="14" fill="#800080" fill-rule="evenodd" fill-opacity="1" stroke="none"/>
<circle clip-path="url(#clip062)" cx="1040.01" cy="1135.71" r="14" fill="#800080" fill-rule="evenodd" fill-opacity="1" stroke="none"/>
<circle clip-path="url(#clip062)" cx="1011.15" cy="1104.97" r="14" fill="#800080" fill-rule="evenodd" fill-opacity="1" stroke="none"/>
<circle clip-path="url(#clip062)" cx="1007.08" cy="1083.48" r="14" fill="#800080" fill-rule="evenodd" fill-opacity="1" stroke="none"/>
<circle clip-path="url(#clip062)" cx="1101.27" cy="1084.62" r="14" fill="#800080" fill-rule="evenodd" fill-opacity="1" stroke="none"/>
<circle clip-path="url(#clip062)" cx="1033.65" cy="1172.8" r="14" fill="#800080" fill-rule="evenodd" fill-opacity="1" stroke="none"/>
<circle clip-path="url(#clip062)" cx="988.701" cy="1126.76" r="14" fill="#800080" fill-rule="evenodd" fill-opacity="1" stroke="none"/>
<circle clip-path="url(#clip062)" cx="1065.71" cy="1123.31" r="14" fill="#800080" fill-rule="evenodd" fill-opacity="1" stroke="none"/>
<circle clip-path="url(#clip062)" cx="1023.39" cy="1138.68" r="14" fill="#800080" fill-rule="evenodd" fill-opacity="1" stroke="none"/>
<circle clip-path="url(#clip062)" cx="910.175" cy="1176.59" r="14" fill="#800080" fill-rule="evenodd" fill-opacity="1" stroke="none"/>
<circle clip-path="url(#clip062)" cx="978.546" cy="1190.63" r="14" fill="#800080" fill-rule="evenodd" fill-opacity="1" stroke="none"/>
<circle clip-path="url(#clip062)" cx="991.022" cy="1143.3" r="14" fill="#800080" fill-rule="evenodd" fill-opacity="1" stroke="none"/>
<circle clip-path="url(#clip062)" cx="996.874" cy="1140.4" r="14" fill="#800080" fill-rule="evenodd" fill-opacity="1" stroke="none"/>
<circle clip-path="url(#clip062)" cx="939.308" cy="1073.49" r="14" fill="#800080" fill-rule="evenodd" fill-opacity="1" stroke="none"/>
<circle clip-path="url(#clip062)" cx="1054.45" cy="1081.46" r="14" fill="#800080" fill-rule="evenodd" fill-opacity="1" stroke="none"/>
<circle clip-path="url(#clip062)" cx="965.19" cy="1079.44" r="14" fill="#800080" fill-rule="evenodd" fill-opacity="1" stroke="none"/>
<circle clip-path="url(#clip062)" cx="856.21" cy="1083.44" r="14" fill="#800080" fill-rule="evenodd" fill-opacity="1" stroke="none"/>
<circle clip-path="url(#clip062)" cx="910.2" cy="1107.07" r="14" fill="#ffa500" fill-rule="evenodd" fill-opacity="1" stroke="none"/>
<circle clip-path="url(#clip062)" cx="944.57" cy="1115.63" r="14" fill="#ffa500" fill-rule="evenodd" fill-opacity="1" stroke="none"/>
<circle clip-path="url(#clip062)" cx="983.89" cy="1034.36" r="14" fill="#ffa500" fill-rule="evenodd" fill-opacity="1" stroke="none"/>
<circle clip-path="url(#clip062)" cx="1039.62" cy="1054.64" r="14" fill="#ffa500" fill-rule="evenodd" fill-opacity="1" stroke="none"/>
<circle clip-path="url(#clip062)" cx="962.727" cy="959.666" r="14" fill="#ffa500" fill-rule="evenodd" fill-opacity="1" stroke="none"/>
<circle clip-path="url(#clip062)" cx="1018.79" cy="1121.73" r="14" fill="#ffa500" fill-rule="evenodd" fill-opacity="1" stroke="none"/>
<circle clip-path="url(#clip062)" cx="982.347" cy="1058.17" r="14" fill="#ffa500" fill-rule="evenodd" fill-opacity="1" stroke="none"/>
<circle clip-path="url(#clip062)" cx="843.581" cy="1106.29" r="14" fill="#ffa500" fill-rule="evenodd" fill-opacity="1" stroke="none"/>
<circle clip-path="url(#clip062)" cx="962.969" cy="1059.32" r="14" fill="#ffa500" fill-rule="evenodd" fill-opacity="1" stroke="none"/>
<circle clip-path="url(#clip062)" cx="656.259" cy="1068.46" r="14" fill="#ffa500" fill-rule="evenodd" fill-opacity="1" stroke="none"/>
<circle clip-path="url(#clip062)" cx="892.668" cy="1124.86" r="14" fill="#ffa500" fill-rule="evenodd" fill-opacity="1" stroke="none"/>
<circle clip-path="url(#clip062)" cx="965.313" cy="1152.91" r="14" fill="#ffa500" fill-rule="evenodd" fill-opacity="1" stroke="none"/>
<circle clip-path="url(#clip062)" cx="874.857" cy="1111.43" r="14" fill="#ffa500" fill-rule="evenodd" fill-opacity="1" stroke="none"/>
<circle clip-path="url(#clip062)" cx="969.947" cy="976.267" r="14" fill="#ffa500" fill-rule="evenodd" fill-opacity="1" stroke="none"/>
<circle clip-path="url(#clip062)" cx="880.922" cy="993.063" r="14" fill="#ffa500" fill-rule="evenodd" fill-opacity="1" stroke="none"/>
<circle clip-path="url(#clip062)" cx="993.073" cy="941.354" r="14" fill="#ffa500" fill-rule="evenodd" fill-opacity="1" stroke="none"/>
<circle clip-path="url(#clip062)" cx="816.511" cy="976.591" r="14" fill="#ffa500" fill-rule="evenodd" fill-opacity="1" stroke="none"/>
<circle clip-path="url(#clip062)" cx="778.202" cy="1004.93" r="14" fill="#ffa500" fill-rule="evenodd" fill-opacity="1" stroke="none"/>
<circle clip-path="url(#clip062)" cx="1097.65" cy="951.905" r="14" fill="#ffa500" fill-rule="evenodd" fill-opacity="1" stroke="none"/>
<circle clip-path="url(#clip062)" cx="1183.11" cy="1042.95" r="14" fill="#ffa500" fill-rule="evenodd" fill-opacity="1" stroke="none"/>
<circle clip-path="url(#clip062)" cx="1169.78" cy="939.752" r="14" fill="#ffa500" fill-rule="evenodd" fill-opacity="1" stroke="none"/>
<circle clip-path="url(#clip062)" cx="1149.73" cy="987.82" r="14" fill="#ffa500" fill-rule="evenodd" fill-opacity="1" stroke="none"/>
<polyline clip-path="url(#clip062)" style="stroke:#ffa500; stroke-width:4.88758; stroke-opacity:1; fill:none" points="
  151.118,753.791 2288.63,1419.45 
  "/>
<polyline clip-path="url(#clip062)" style="stroke:#800080; stroke-width:0.831794; stroke-opacity:1; fill:none" points="
  364.465,902.897 1338.49,693.027 
  "/>
<polyline clip-path="url(#clip062)" style="stroke:#ffa500; stroke-width:0.299089; stroke-opacity:1; fill:none" points="
  1338.49,693.027 1946.52,88.9544 
  "/>
<polyline clip-path="url(#clip062)" style="stroke:#ffa500; stroke-width:0.843251; stroke-opacity:1; fill:none" points="
  827.062,1479.3 1946.52,88.9544 
  "/>
<polyline clip-path="url(#clip062)" style="stroke:#ffa500; stroke-width:4.5444; stroke-opacity:1; fill:none" points="
  151.118,753.791 364.465,902.897 
  "/>
<polyline clip-path="url(#clip062)" style="stroke:#ffa500; stroke-width:2.01037; stroke-opacity:1; fill:none" points="
  364.465,902.897 1946.52,88.9544 
  "/>
<polyline clip-path="url(#clip062)" style="stroke:#800080; stroke-width:0.820338; stroke-opacity:1; fill:none" points="
  364.465,902.897 827.062,1479.3 
  "/>
<polyline clip-path="url(#clip062)" style="stroke:#800080; stroke-width:2.29381; stroke-opacity:1; fill:none" points="
  827.062,1479.3 1338.49,693.027 
  "/>
<polyline clip-path="url(#clip062)" style="stroke:#ffa500; stroke-width:4.41533; stroke-opacity:1; fill:none" points="
  1946.52,88.9544 2288.63,1419.45 
  "/>
<polyline clip-path="url(#clip062)" style="stroke:#800080; stroke-width:1.44165; stroke-opacity:1; fill:none" points="
  151.118,753.791 1338.49,693.027 
  "/>
<polyline clip-path="url(#clip062)" style="stroke:#ffa500; stroke-width:2.26375; stroke-opacity:1; fill:none" points="
  151.118,753.791 827.062,1479.3 
  "/>
<polyline clip-path="url(#clip062)" style="stroke:#ffa500; stroke-width:1.50008; stroke-opacity:1; fill:none" points="
  364.465,902.897 2288.63,1419.45 
  "/>
<polyline clip-path="url(#clip062)" style="stroke:#800080; stroke-width:1.53172; stroke-opacity:1; fill:none" points="
  1338.49,693.027 2288.63,1419.45 
  "/>
<polyline clip-path="url(#clip062)" style="stroke:#ffa500; stroke-width:3.57132; stroke-opacity:1; fill:none" points="
  151.118,753.791 1946.52,88.9544 
  "/>
<polyline clip-path="url(#clip062)" style="stroke:#800080; stroke-width:8; stroke-opacity:1; fill:none" points="
  827.062,1479.3 2288.63,1419.45 
  "/>
<circle clip-path="url(#clip062)" cx="364.465" cy="902.897" r="23" fill="#000000" fill-rule="evenodd" fill-opacity="1" stroke="none"/>
<circle clip-path="url(#clip062)" cx="2288.63" cy="1419.45" r="26" fill="#000000" fill-rule="evenodd" fill-opacity="1" stroke="none"/>
<circle clip-path="url(#clip062)" cx="151.118" cy="753.791" r="23" fill="#000000" fill-rule="evenodd" fill-opacity="1" stroke="none"/>
<circle clip-path="url(#clip062)" cx="1338.49" cy="693.027" r="8" fill="#000000" fill-rule="evenodd" fill-opacity="1" stroke="none"/>
<circle clip-path="url(#clip062)" cx="827.062" cy="1479.3" r="28" fill="#000000" fill-rule="evenodd" fill-opacity="1" stroke="none"/>
<circle clip-path="url(#clip062)" cx="1946.52" cy="88.9544" r="8" fill="#000000" fill-rule="evenodd" fill-opacity="1" stroke="none"/>
<path clip-path="url(#clip060)" d="M 0 0 M288.652 879.382 L288.652 926.413 L298.537 926.413 Q311.054 926.413 316.847 920.742 Q322.68 915.07 322.68 902.837 Q322.68 890.684 316.847 885.053 Q311.054 879.382 298.537 879.382 L288.652 879.382 M280.469 872.657 L297.281 872.657 Q314.862 872.657 323.085 879.99 Q331.308 887.281 331.308 902.837 Q331.308 918.473 323.045 925.805 Q314.781 933.137 297.281 933.137 L280.469 933.137 L280.469 872.657 Z" fill="#000000" fill-rule="evenodd" fill-opacity="1" /><path clip-path="url(#clip060)" d="M 0 0 M359.746 910.331 Q350.712 910.331 347.228 912.397 Q343.745 914.463 343.745 919.445 Q343.745 923.415 346.337 925.765 Q348.97 928.074 353.467 928.074 Q359.665 928.074 363.392 923.699 Q367.159 919.283 367.159 911.992 L367.159 910.331 L359.746 910.331 M374.613 907.252 L374.613 933.137 L367.159 933.137 L367.159 926.251 Q364.607 930.383 360.799 932.368 Q356.991 934.312 351.482 934.312 Q344.514 934.312 340.382 930.423 Q336.291 926.494 336.291 919.931 Q336.291 912.275 341.395 908.386 Q346.54 904.497 356.708 904.497 L367.159 904.497 L367.159 903.768 Q367.159 898.624 363.756 895.829 Q360.394 892.993 354.277 892.993 Q350.388 892.993 346.702 893.925 Q343.015 894.856 339.613 896.72 L339.613 889.833 Q343.704 888.253 347.552 887.484 Q351.401 886.673 355.047 886.673 Q364.89 886.673 369.751 891.778 Q374.613 896.882 374.613 907.252 Z" fill="#000000" fill-rule="evenodd" fill-opacity="1" /><path clip-path="url(#clip060)" d="M 0 0 M389.803 874.885 L389.803 887.767 L405.156 887.767 L405.156 893.56 L389.803 893.56 L389.803 918.19 Q389.803 923.739 391.302 925.319 Q392.842 926.899 397.5 926.899 L405.156 926.899 L405.156 933.137 L397.5 933.137 Q388.872 933.137 385.59 929.937 Q382.309 926.696 382.309 918.19 L382.309 893.56 L376.841 893.56 L376.841 887.767 L382.309 887.767 L382.309 874.885 L389.803 874.885 Z" fill="#000000" fill-rule="evenodd" fill-opacity="1" /><path clip-path="url(#clip060)" d="M 0 0 M433.594 910.331 Q424.56 910.331 421.076 912.397 Q417.593 914.463 417.593 919.445 Q417.593 923.415 420.185 925.765 Q422.818 928.074 427.315 928.074 Q433.513 928.074 437.239 923.699 Q441.007 919.283 441.007 911.992 L441.007 910.331 L433.594 910.331 M448.46 907.252 L448.46 933.137 L441.007 933.137 L441.007 926.251 Q438.455 930.383 434.647 932.368 Q430.839 934.312 425.33 934.312 Q418.362 934.312 414.23 930.423 Q410.139 926.494 410.139 919.931 Q410.139 912.275 415.243 908.386 Q420.388 904.497 430.556 904.497 L441.007 904.497 L441.007 903.768 Q441.007 898.624 437.604 895.829 Q434.242 892.993 428.125 892.993 Q424.236 892.993 420.55 893.925 Q416.863 894.856 413.461 896.72 L413.461 889.833 Q417.552 888.253 421.4 887.484 Q425.249 886.673 428.895 886.673 Q438.738 886.673 443.599 891.778 Q448.46 896.882 448.46 907.252 Z" fill="#000000" fill-rule="evenodd" fill-opacity="1" /><path clip-path="url(#clip060)" d="M 0 0 M1891.3 1389.21 L1942.46 1389.21 L1942.46 1396.1 L1920.99 1396.1 L1920.99 1449.69 L1912.77 1449.69 L1912.77 1396.1 L1891.3 1396.1 L1891.3 1389.21 Z" fill="#000000" fill-rule="evenodd" fill-opacity="1" /><path clip-path="url(#clip060)" d="M 0 0 M1974.99 1425.14 L1974.99 1428.79 L1940.72 1428.79 Q1941.2 1436.48 1945.34 1440.53 Q1949.51 1444.54 1956.92 1444.54 Q1961.22 1444.54 1965.23 1443.49 Q1969.28 1442.44 1973.25 1440.33 L1973.25 1447.38 Q1969.24 1449.08 1965.02 1449.97 Q1960.81 1450.86 1956.48 1450.86 Q1945.62 1450.86 1939.26 1444.54 Q1932.94 1438.23 1932.94 1427.45 Q1932.94 1416.31 1938.94 1409.79 Q1944.97 1403.23 1955.18 1403.23 Q1964.34 1403.23 1969.64 1409.14 Q1974.99 1415.01 1974.99 1425.14 M1967.54 1422.95 Q1967.45 1416.84 1964.09 1413.19 Q1960.77 1409.54 1955.26 1409.54 Q1949.02 1409.54 1945.26 1413.07 Q1941.53 1416.59 1940.96 1422.99 L1967.54 1422.95 Z" fill="#000000" fill-rule="evenodd" fill-opacity="1" /><path clip-path="url(#clip060)" d="M 0 0 M2015.46 1406.06 L2015.46 1413.03 Q2012.3 1411.29 2009.1 1410.44 Q2005.94 1409.54 2002.7 1409.54 Q1995.45 1409.54 1991.44 1414.16 Q1987.43 1418.74 1987.43 1427.04 Q1987.43 1435.35 1991.44 1439.97 Q1995.45 1444.54 2002.7 1444.54 Q2005.94 1444.54 2009.1 1443.69 Q2012.3 1442.8 2015.46 1441.06 L2015.46 1447.95 Q2012.34 1449.41 2008.98 1450.14 Q2005.65 1450.86 2001.89 1450.86 Q1991.64 1450.86 1985.6 1444.42 Q1979.57 1437.98 1979.57 1427.04 Q1979.57 1415.95 1985.64 1409.59 Q1991.76 1403.23 2002.37 1403.23 Q2005.82 1403.23 2009.1 1403.95 Q2012.38 1404.64 2015.46 1406.06 Z" fill="#000000" fill-rule="evenodd" fill-opacity="1" /><path clip-path="url(#clip060)" d="M 0 0 M2060.99 1422.31 L2060.99 1449.69 L2053.54 1449.69 L2053.54 1422.55 Q2053.54 1416.11 2051.02 1412.91 Q2048.51 1409.71 2043.49 1409.71 Q2037.45 1409.71 2033.97 1413.56 Q2030.49 1417.4 2030.49 1424.05 L2030.49 1449.69 L2022.99 1449.69 L2022.99 1386.66 L2030.49 1386.66 L2030.49 1411.37 Q2033.16 1407.28 2036.77 1405.25 Q2040.41 1403.23 2045.15 1403.23 Q2052.97 1403.23 2056.98 1408.09 Q2060.99 1412.91 2060.99 1422.31 Z" fill="#000000" fill-rule="evenodd" fill-opacity="1" /><path clip-path="url(#clip060)" d="M 0 0 M2106.52 1422.31 L2106.52 1449.69 L2099.07 1449.69 L2099.07 1422.55 Q2099.07 1416.11 2096.56 1412.91 Q2094.05 1409.71 2089.02 1409.71 Q2082.99 1409.71 2079.5 1413.56 Q2076.02 1417.4 2076.02 1424.05 L2076.02 1449.69 L2068.52 1449.69 L2068.52 1404.32 L2076.02 1404.32 L2076.02 1411.37 Q2078.69 1407.28 2082.3 1405.25 Q2085.94 1403.23 2090.68 1403.23 Q2098.5 1403.23 2102.51 1408.09 Q2106.52 1412.91 2106.52 1422.31 Z" fill="#000000" fill-rule="evenodd" fill-opacity="1" /><path clip-path="url(#clip060)" d="M 0 0 M2114.34 1404.32 L2121.79 1404.32 L2121.79 1449.69 L2114.34 1449.69 L2114.34 1404.32 M2114.34 1386.66 L2121.79 1386.66 L2121.79 1396.1 L2114.34 1396.1 L2114.34 1386.66 Z" fill="#000000" fill-rule="evenodd" fill-opacity="1" /><path clip-path="url(#clip060)" d="M 0 0 M2162.26 1406.06 L2162.26 1413.03 Q2159.1 1411.29 2155.9 1410.44 Q2152.74 1409.54 2149.5 1409.54 Q2142.25 1409.54 2138.24 1414.16 Q2134.23 1418.74 2134.23 1427.04 Q2134.23 1435.35 2138.24 1439.97 Q2142.25 1444.54 2149.5 1444.54 Q2152.74 1444.54 2155.9 1443.69 Q2159.1 1442.8 2162.26 1441.06 L2162.26 1447.95 Q2159.14 1449.41 2155.78 1450.14 Q2152.46 1450.86 2148.69 1450.86 Q2138.44 1450.86 2132.41 1444.42 Q2126.37 1437.98 2126.37 1427.04 Q2126.37 1415.95 2132.45 1409.59 Q2138.56 1403.23 2149.18 1403.23 Q2152.62 1403.23 2155.9 1403.95 Q2159.18 1404.64 2162.26 1406.06 Z" fill="#000000" fill-rule="evenodd" fill-opacity="1" /><path clip-path="url(#clip060)" d="M 0 0 M2190.7 1426.88 Q2181.67 1426.88 2178.18 1428.95 Q2174.7 1431.01 2174.7 1436 Q2174.7 1439.97 2177.29 1442.32 Q2179.92 1444.63 2184.42 1444.63 Q2190.62 1444.63 2194.35 1440.25 Q2198.11 1435.84 2198.11 1428.54 L2198.11 1426.88 L2190.7 1426.88 M2205.57 1423.8 L2205.57 1449.69 L2198.11 1449.69 L2198.11 1442.8 Q2195.56 1446.93 2191.75 1448.92 Q2187.95 1450.86 2182.44 1450.86 Q2175.47 1450.86 2171.34 1446.98 Q2167.25 1443.05 2167.25 1436.48 Q2167.25 1428.83 2172.35 1424.94 Q2177.49 1421.05 2187.66 1421.05 L2198.11 1421.05 L2198.11 1420.32 Q2198.11 1415.18 2194.71 1412.38 Q2191.35 1409.54 2185.23 1409.54 Q2181.34 1409.54 2177.66 1410.48 Q2173.97 1411.41 2170.57 1413.27 L2170.57 1406.39 Q2174.66 1404.81 2178.51 1404.04 Q2182.36 1403.23 2186 1403.23 Q2195.84 1403.23 2200.71 1408.33 Q2205.57 1413.43 2205.57 1423.8 Z" fill="#000000" fill-rule="evenodd" fill-opacity="1" /><path clip-path="url(#clip060)" d="M 0 0 M2213.38 1386.66 L2220.84 1386.66 L2220.84 1449.69 L2213.38 1449.69 L2213.38 1386.66 Z" fill="#000000" fill-rule="evenodd" fill-opacity="1" /><path clip-path="url(#clip060)" d="M 0 0 M2263.13 1463.46 L2263.13 1469.26 L2220.03 1469.26 L2220.03 1463.46 L2263.13 1463.46 Z" fill="#000000" fill-rule="evenodd" fill-opacity="1" /><path clip-path="url(#clip060)" d="M 0 0 M2316.56 1393.87 L2316.56 1402.5 Q2312.43 1398.65 2307.73 1396.74 Q2303.07 1394.84 2297.81 1394.84 Q2287.44 1394.84 2281.93 1401.2 Q2276.42 1407.52 2276.42 1419.51 Q2276.42 1431.46 2281.93 1437.82 Q2287.44 1444.14 2297.81 1444.14 Q2303.07 1444.14 2307.73 1442.24 Q2312.43 1440.33 2316.56 1436.48 L2316.56 1445.03 Q2312.27 1447.95 2307.45 1449.41 Q2302.67 1450.86 2297.32 1450.86 Q2283.59 1450.86 2275.69 1442.48 Q2267.79 1434.05 2267.79 1419.51 Q2267.79 1404.93 2275.69 1396.54 Q2283.59 1388.12 2297.32 1388.12 Q2302.75 1388.12 2307.53 1389.57 Q2312.35 1390.99 2316.56 1393.87 Z" fill="#000000" fill-rule="evenodd" fill-opacity="1" /><path clip-path="url(#clip060)" d="M 0 0 M2341.96 1409.54 Q2335.97 1409.54 2332.48 1414.24 Q2329 1418.9 2329 1427.04 Q2329 1435.19 2332.44 1439.89 Q2335.92 1444.54 2341.96 1444.54 Q2347.92 1444.54 2351.4 1439.85 Q2354.88 1435.15 2354.88 1427.04 Q2354.88 1418.98 2351.4 1414.28 Q2347.92 1409.54 2341.96 1409.54 M2341.96 1403.23 Q2351.68 1403.23 2357.23 1409.54 Q2362.78 1415.86 2362.78 1427.04 Q2362.78 1438.18 2357.23 1444.54 Q2351.68 1450.86 2341.96 1450.86 Q2332.2 1450.86 2326.65 1444.54 Q2321.14 1438.18 2321.14 1427.04 Q2321.14 1415.86 2326.65 1409.54 Q2332.2 1403.23 2341.96 1403.23 Z" fill="#000000" fill-rule="evenodd" fill-opacity="1" /><path clip-path="url(#clip060)" d="M 0 0 M2408.31 1422.31 L2408.31 1449.69 L2400.86 1449.69 L2400.86 1422.55 Q2400.86 1416.11 2398.35 1412.91 Q2395.84 1409.71 2390.81 1409.71 Q2384.78 1409.71 2381.29 1413.56 Q2377.81 1417.4 2377.81 1424.05 L2377.81 1449.69 L2370.32 1449.69 L2370.32 1404.32 L2377.81 1404.32 L2377.81 1411.37 Q2380.48 1407.28 2384.09 1405.25 Q2387.74 1403.23 2392.48 1403.23 Q2400.29 1403.23 2404.3 1408.09 Q2408.31 1412.91 2408.31 1422.31 Z" fill="#000000" fill-rule="evenodd" fill-opacity="1" /><path clip-path="url(#clip060)" d="M 0 0 M2445.06 1405.66 L2445.06 1412.7 Q2441.9 1411.08 2438.49 1410.27 Q2435.09 1409.46 2431.45 1409.46 Q2425.9 1409.46 2423.1 1411.17 Q2420.35 1412.87 2420.35 1416.27 Q2420.35 1418.86 2422.33 1420.36 Q2424.32 1421.82 2430.31 1423.16 L2432.86 1423.72 Q2440.8 1425.42 2444.12 1428.54 Q2447.49 1431.62 2447.49 1437.17 Q2447.49 1443.49 2442.46 1447.18 Q2437.48 1450.86 2428.73 1450.86 Q2425.09 1450.86 2421.12 1450.14 Q2417.19 1449.45 2412.81 1448.03 L2412.81 1440.33 Q2416.94 1442.48 2420.95 1443.57 Q2424.96 1444.63 2428.89 1444.63 Q2434.16 1444.63 2436.99 1442.84 Q2439.83 1441.02 2439.83 1437.74 Q2439.83 1434.7 2437.76 1433.08 Q2435.74 1431.46 2428.81 1429.96 L2426.22 1429.35 Q2419.29 1427.9 2416.21 1424.9 Q2413.14 1421.86 2413.14 1416.59 Q2413.14 1410.19 2417.67 1406.71 Q2422.21 1403.23 2430.55 1403.23 Q2434.69 1403.23 2438.33 1403.83 Q2441.98 1404.44 2445.06 1405.66 Z" fill="#000000" fill-rule="evenodd" fill-opacity="1" /><path clip-path="url(#clip060)" d="M 0 0 M2462.68 1391.44 L2462.68 1404.32 L2478.03 1404.32 L2478.03 1410.11 L2462.68 1410.11 L2462.68 1434.74 Q2462.68 1440.29 2464.18 1441.87 Q2465.72 1443.45 2470.37 1443.45 L2478.03 1443.45 L2478.03 1449.69 L2470.37 1449.69 Q2461.75 1449.69 2458.46 1446.49 Q2455.18 1443.25 2455.18 1434.74 L2455.18 1410.11 L2449.71 1410.11 L2449.71 1404.32 L2455.18 1404.32 L2455.18 1391.44 L2462.68 1391.44 Z" fill="#000000" fill-rule="evenodd" fill-opacity="1" /><path clip-path="url(#clip060)" d="M 0 0 M2512.14 1411.29 Q2510.88 1410.56 2509.38 1410.23 Q2507.93 1409.87 2506.14 1409.87 Q2499.82 1409.87 2496.42 1414 Q2493.06 1418.09 2493.06 1425.79 L2493.06 1449.69 L2485.57 1449.69 L2485.57 1404.32 L2493.06 1404.32 L2493.06 1411.37 Q2495.41 1407.24 2499.18 1405.25 Q2502.94 1403.23 2508.33 1403.23 Q2509.1 1403.23 2510.03 1403.35 Q2510.96 1403.43 2512.1 1403.63 L2512.14 1411.29 Z" fill="#000000" fill-rule="evenodd" fill-opacity="1" /><path clip-path="url(#clip060)" d="M 0 0 M2540.58 1426.88 Q2531.54 1426.88 2528.06 1428.95 Q2524.58 1431.01 2524.58 1436 Q2524.58 1439.97 2527.17 1442.32 Q2529.8 1444.63 2534.3 1444.63 Q2540.5 1444.63 2544.22 1440.25 Q2547.99 1435.84 2547.99 1428.54 L2547.99 1426.88 L2540.58 1426.88 M2555.44 1423.8 L2555.44 1449.69 L2547.99 1449.69 L2547.99 1442.8 Q2545.44 1446.93 2541.63 1448.92 Q2537.82 1450.86 2532.31 1450.86 Q2525.35 1450.86 2521.21 1446.98 Q2517.12 1443.05 2517.12 1436.48 Q2517.12 1428.83 2522.23 1424.94 Q2527.37 1421.05 2537.54 1421.05 L2547.99 1421.05 L2547.99 1420.32 Q2547.99 1415.18 2544.59 1412.38 Q2541.22 1409.54 2535.11 1409.54 Q2531.22 1409.54 2527.53 1410.48 Q2523.85 1411.41 2520.44 1413.27 L2520.44 1406.39 Q2524.53 1404.81 2528.38 1404.04 Q2532.23 1403.23 2535.88 1403.23 Q2545.72 1403.23 2550.58 1408.33 Q2555.44 1413.43 2555.44 1423.8 Z" fill="#000000" fill-rule="evenodd" fill-opacity="1" /><path clip-path="url(#clip060)" d="M 0 0 M2563.26 1404.32 L2570.72 1404.32 L2570.72 1449.69 L2563.26 1449.69 L2563.26 1404.32 M2563.26 1386.66 L2570.72 1386.66 L2570.72 1396.1 L2563.26 1396.1 L2563.26 1386.66 Z" fill="#000000" fill-rule="evenodd" fill-opacity="1" /><path clip-path="url(#clip060)" d="M 0 0 M2616.25 1422.31 L2616.25 1449.69 L2608.79 1449.69 L2608.79 1422.55 Q2608.79 1416.11 2606.28 1412.91 Q2603.77 1409.71 2598.75 1409.71 Q2592.71 1409.71 2589.23 1413.56 Q2585.74 1417.4 2585.74 1424.05 L2585.74 1449.69 L2578.25 1449.69 L2578.25 1404.32 L2585.74 1404.32 L2585.74 1411.37 Q2588.42 1407.28 2592.02 1405.25 Q2595.67 1403.23 2600.41 1403.23 Q2608.23 1403.23 2612.24 1408.09 Q2616.25 1412.91 2616.25 1422.31 Z" fill="#000000" fill-rule="evenodd" fill-opacity="1" /><path clip-path="url(#clip060)" d="M 0 0 M2631.44 1391.44 L2631.44 1404.32 L2646.79 1404.32 L2646.79 1410.11 L2631.44 1410.11 L2631.44 1434.74 Q2631.44 1440.29 2632.94 1441.87 Q2634.48 1443.45 2639.14 1443.45 L2646.79 1443.45 L2646.79 1449.69 L2639.14 1449.69 Q2630.51 1449.69 2627.23 1446.49 Q2623.94 1443.25 2623.94 1434.74 L2623.94 1410.11 L2618.48 1410.11 L2618.48 1404.32 L2623.94 1404.32 L2623.94 1391.44 L2631.44 1391.44 Z" fill="#000000" fill-rule="evenodd" fill-opacity="1" /><path clip-path="url(#clip060)" d="M 0 0 M2683.53 1405.66 L2683.53 1412.7 Q2680.37 1411.08 2676.97 1410.27 Q2673.57 1409.46 2669.92 1409.46 Q2664.37 1409.46 2661.58 1411.17 Q2658.82 1412.87 2658.82 1416.27 Q2658.82 1418.86 2660.81 1420.36 Q2662.79 1421.82 2668.79 1423.16 L2671.34 1423.72 Q2679.28 1425.42 2682.6 1428.54 Q2685.96 1431.62 2685.96 1437.17 Q2685.96 1443.49 2680.94 1447.18 Q2675.96 1450.86 2667.21 1450.86 Q2663.56 1450.86 2659.59 1450.14 Q2655.66 1449.45 2651.29 1448.03 L2651.29 1440.33 Q2655.42 1442.48 2659.43 1443.57 Q2663.44 1444.63 2667.37 1444.63 Q2672.64 1444.63 2675.47 1442.84 Q2678.31 1441.02 2678.31 1437.74 Q2678.31 1434.7 2676.24 1433.08 Q2674.22 1431.46 2667.29 1429.96 L2664.7 1429.35 Q2657.77 1427.9 2654.69 1424.9 Q2651.61 1421.86 2651.61 1416.59 Q2651.61 1410.19 2656.15 1406.71 Q2660.69 1403.23 2669.03 1403.23 Q2673.16 1403.23 2676.81 1403.83 Q2680.45 1404.44 2683.53 1405.66 Z" fill="#000000" fill-rule="evenodd" fill-opacity="1" /><path clip-path="url(#clip060)" d="M 0 0 M-317.451 730.275 L-317.451 753.001 L-307.161 753.001 Q-301.45 753.001 -298.33 750.044 Q-295.211 747.087 -295.211 741.618 Q-295.211 736.19 -298.33 733.232 Q-301.45 730.275 -307.161 730.275 L-317.451 730.275 M-325.633 723.551 L-307.161 723.551 Q-296.994 723.551 -291.808 728.169 Q-286.583 732.746 -286.583 741.618 Q-286.583 750.57 -291.808 755.148 Q-296.994 759.725 -307.161 759.725 L-317.451 759.725 L-317.451 784.031 L-325.633 784.031 L-325.633 723.551 Z" fill="#000000" fill-rule="evenodd" fill-opacity="1" /><path clip-path="url(#clip060)" d="M 0 0 M-242.914 759.482 L-242.914 763.128 L-277.185 763.128 Q-276.698 770.825 -272.567 774.876 Q-268.394 778.886 -260.981 778.886 Q-256.687 778.886 -252.677 777.833 Q-248.626 776.78 -244.656 774.673 L-244.656 781.722 Q-248.666 783.423 -252.879 784.314 Q-257.092 785.206 -261.427 785.206 Q-272.283 785.206 -278.643 778.886 Q-284.962 772.567 -284.962 761.791 Q-284.962 750.651 -278.967 744.129 Q-272.931 737.567 -262.723 737.567 Q-253.568 737.567 -248.261 743.481 Q-242.914 749.355 -242.914 759.482 M-250.368 757.295 Q-250.449 751.178 -253.811 747.532 Q-257.133 743.886 -262.642 743.886 Q-268.88 743.886 -272.648 747.411 Q-276.374 750.935 -276.942 757.335 L-250.368 757.295 Z" fill="#000000" fill-rule="evenodd" fill-opacity="1" /><path clip-path="url(#clip060)" d="M 0 0 M-208.805 745.628 Q-210.061 744.899 -211.56 744.575 Q-213.018 744.21 -214.801 744.21 Q-221.12 744.21 -224.523 748.342 Q-227.885 752.434 -227.885 760.13 L-227.885 784.031 L-235.379 784.031 L-235.379 738.661 L-227.885 738.661 L-227.885 745.709 Q-225.536 741.577 -221.768 739.592 Q-218.001 737.567 -212.613 737.567 Q-211.844 737.567 -210.912 737.688 Q-209.98 737.769 -208.846 737.972 L-208.805 745.628 Z" fill="#000000" fill-rule="evenodd" fill-opacity="1" /><path clip-path="url(#clip060)" d="M 0 0 M-178.018 720.999 L-178.018 727.197 L-185.148 727.197 Q-189.158 727.197 -190.738 728.817 Q-192.278 730.437 -192.278 734.65 L-192.278 738.661 L-180.003 738.661 L-180.003 744.453 L-192.278 744.453 L-192.278 784.031 L-199.772 784.031 L-199.772 744.453 L-206.901 744.453 L-206.901 738.661 L-199.772 738.661 L-199.772 735.501 Q-199.772 727.926 -196.248 724.482 Q-192.723 720.999 -185.067 720.999 L-178.018 720.999 Z" fill="#000000" fill-rule="evenodd" fill-opacity="1" /><path clip-path="url(#clip060)" d="M 0 0 M-152.619 743.886 Q-158.615 743.886 -162.098 748.585 Q-165.582 753.244 -165.582 761.386 Q-165.582 769.529 -162.139 774.228 Q-158.655 778.886 -152.619 778.886 Q-146.664 778.886 -143.181 774.187 Q-139.697 769.488 -139.697 761.386 Q-139.697 753.325 -143.181 748.626 Q-146.664 743.886 -152.619 743.886 M-152.619 737.567 Q-142.897 737.567 -137.347 743.886 Q-131.798 750.206 -131.798 761.386 Q-131.798 772.526 -137.347 778.886 Q-142.897 785.206 -152.619 785.206 Q-162.382 785.206 -167.932 778.886 Q-173.441 772.526 -173.441 761.386 Q-173.441 750.206 -167.932 743.886 Q-162.382 737.567 -152.619 737.567 Z" fill="#000000" fill-rule="evenodd" fill-opacity="1" /><path clip-path="url(#clip060)" d="M 0 0 M-97.689 745.628 Q-98.9448 744.899 -100.444 744.575 Q-101.902 744.21 -103.684 744.21 Q-110.004 744.21 -113.407 748.342 Q-116.769 752.434 -116.769 760.13 L-116.769 784.031 L-124.263 784.031 L-124.263 738.661 L-116.769 738.661 L-116.769 745.709 Q-114.419 741.577 -110.652 739.592 Q-106.885 737.567 -101.497 737.567 Q-100.727 737.567 -99.7955 737.688 Q-98.8638 737.769 -97.7295 737.972 L-97.689 745.628 Z" fill="#000000" fill-rule="evenodd" fill-opacity="1" /><path clip-path="url(#clip060)" d="M 0 0 M-56.0052 747.37 Q-53.2101 742.347 -49.3212 739.957 Q-45.4324 737.567 -40.1662 737.567 Q-33.0771 737.567 -29.2287 742.549 Q-25.3804 747.492 -25.3804 756.647 L-25.3804 784.031 L-32.8746 784.031 L-32.8746 756.89 Q-32.8746 750.368 -35.1836 747.208 Q-37.4926 744.048 -42.2321 744.048 Q-48.0249 744.048 -51.3872 747.897 Q-54.7494 751.745 -54.7494 758.389 L-54.7494 784.031 L-62.2436 784.031 L-62.2436 756.89 Q-62.2436 750.327 -64.5526 747.208 Q-66.8616 744.048 -71.6822 744.048 Q-77.394 744.048 -80.7562 747.937 Q-84.1185 751.786 -84.1185 758.389 L-84.1185 784.031 L-91.6127 784.031 L-91.6127 738.661 L-84.1185 738.661 L-84.1185 745.709 Q-81.5664 741.537 -78.0016 739.552 Q-74.4368 737.567 -69.5352 737.567 Q-64.5931 737.567 -61.1499 740.078 Q-57.6661 742.59 -56.0052 747.37 Z" fill="#000000" fill-rule="evenodd" fill-opacity="1" /><path clip-path="url(#clip060)" d="M 0 0 M3.05697 761.224 Q-5.97655 761.224 -9.46033 763.29 Q-12.9441 765.356 -12.9441 770.339 Q-12.9441 774.309 -10.3515 776.658 Q-7.71844 778.967 -3.22193 778.967 Q2.97595 778.967 6.70278 774.592 Q10.4701 770.177 10.4701 762.885 L10.4701 761.224 L3.05697 761.224 M17.9238 758.145 L17.9238 784.031 L10.4701 784.031 L10.4701 777.144 Q7.91805 781.276 4.1102 783.261 Q0.302352 785.206 -5.20688 785.206 Q-12.1744 785.206 -16.3064 781.317 Q-20.3978 777.387 -20.3978 770.825 Q-20.3978 763.169 -15.2936 759.28 Q-10.149 755.391 0.0187886 755.391 L10.4701 755.391 L10.4701 754.662 Q10.4701 749.517 7.06736 746.722 Q3.70511 743.886 -2.41175 743.886 Q-6.30062 743.886 -9.98694 744.818 Q-13.6733 745.75 -17.076 747.613 L-17.076 740.727 Q-12.9846 739.147 -9.13625 738.377 Q-5.2879 737.567 -1.64208 737.567 Q8.20162 737.567 13.0627 742.671 Q17.9238 747.775 17.9238 758.145 Z" fill="#000000" fill-rule="evenodd" fill-opacity="1" /><path clip-path="url(#clip060)" d="M 0 0 M63.4559 756.647 L63.4559 784.031 L56.0023 784.031 L56.0023 756.89 Q56.0023 750.449 53.4907 747.249 Q50.9792 744.048 45.956 744.048 Q39.9202 744.048 36.4364 747.897 Q32.9526 751.745 32.9526 758.389 L32.9526 784.031 L25.4585 784.031 L25.4585 738.661 L32.9526 738.661 L32.9526 745.709 Q35.6262 741.618 39.2315 739.592 Q42.8774 737.567 47.6169 737.567 Q55.4352 737.567 59.4456 742.428 Q63.4559 747.249 63.4559 756.647 Z" fill="#000000" fill-rule="evenodd" fill-opacity="1" /><path clip-path="url(#clip060)" d="M 0 0 M103.924 740.403 L103.924 747.37 Q100.765 745.628 97.5646 744.777 Q94.4049 743.886 91.1641 743.886 Q83.913 743.886 79.9026 748.504 Q75.8922 753.082 75.8922 761.386 Q75.8922 769.691 79.9026 774.309 Q83.913 778.886 91.1641 778.886 Q94.4049 778.886 97.5646 778.035 Q100.765 777.144 103.924 775.402 L103.924 782.289 Q100.805 783.747 97.443 784.476 Q94.1213 785.206 90.354 785.206 Q80.1052 785.206 74.0693 778.765 Q68.0335 772.324 68.0335 761.386 Q68.0335 750.287 74.1098 743.927 Q80.2267 737.567 90.8401 737.567 Q94.2833 737.567 97.5646 738.296 Q100.846 738.985 103.924 740.403 Z" fill="#000000" fill-rule="evenodd" fill-opacity="1" /><path clip-path="url(#clip060)" d="M 0 0 M150.55 759.482 L150.55 763.128 L116.28 763.128 Q116.766 770.825 120.898 774.876 Q125.07 778.886 132.483 778.886 Q136.777 778.886 140.788 777.833 Q144.839 776.78 148.809 774.673 L148.809 781.722 Q144.798 783.423 140.585 784.314 Q136.372 785.206 132.038 785.206 Q121.181 785.206 114.821 778.886 Q108.502 772.567 108.502 761.791 Q108.502 750.651 114.497 744.129 Q120.533 737.567 130.741 737.567 Q139.897 737.567 145.203 743.481 Q150.55 749.355 150.55 759.482 M143.097 757.295 Q143.016 751.178 139.653 747.532 Q136.332 743.886 130.822 743.886 Q124.584 743.886 120.817 747.411 Q117.09 750.935 116.523 757.335 L143.097 757.295 Z" fill="#000000" fill-rule="evenodd" fill-opacity="1" /><path clip-path="url(#clip060)" d="M 0 0 M192.842 797.804 L192.842 803.597 L149.74 803.597 L149.74 797.804 L192.842 797.804 Z" fill="#000000" fill-rule="evenodd" fill-opacity="1" /><path clip-path="url(#clip060)" d="M 0 0 M209.167 730.275 L209.167 753.001 L219.456 753.001 Q225.168 753.001 228.287 750.044 Q231.406 747.087 231.406 741.618 Q231.406 736.19 228.287 733.232 Q225.168 730.275 219.456 730.275 L209.167 730.275 M200.984 723.551 L219.456 723.551 Q229.624 723.551 234.809 728.169 Q240.035 732.746 240.035 741.618 Q240.035 750.57 234.809 755.148 Q229.624 759.725 219.456 759.725 L209.167 759.725 L209.167 784.031 L200.984 784.031 L200.984 723.551 Z" fill="#000000" fill-rule="evenodd" fill-opacity="1" /><path clip-path="url(#clip060)" d="M 0 0 M264.745 761.224 Q255.712 761.224 252.228 763.29 Q248.744 765.356 248.744 770.339 Q248.744 774.309 251.337 776.658 Q253.97 778.967 258.466 778.967 Q264.664 778.967 268.391 774.592 Q272.159 770.177 272.159 762.885 L272.159 761.224 L264.745 761.224 M279.612 758.145 L279.612 784.031 L272.159 784.031 L272.159 777.144 Q269.606 781.276 265.799 783.261 Q261.991 785.206 256.482 785.206 Q249.514 785.206 245.382 781.317 Q241.291 777.387 241.291 770.825 Q241.291 763.169 246.395 759.28 Q251.539 755.391 261.707 755.391 L272.159 755.391 L272.159 754.662 Q272.159 749.517 268.756 746.722 Q265.394 743.886 259.277 743.886 Q255.388 743.886 251.701 744.818 Q248.015 745.75 244.612 747.613 L244.612 740.727 Q248.704 739.147 252.552 738.377 Q256.401 737.567 260.046 737.567 Q269.89 737.567 274.751 742.671 Q279.612 747.775 279.612 758.145 Z" fill="#000000" fill-rule="evenodd" fill-opacity="1" /><path clip-path="url(#clip060)" d="M 0 0 M313.721 745.628 Q312.465 744.899 310.966 744.575 Q309.508 744.21 307.725 744.21 Q301.406 744.21 298.003 748.342 Q294.641 752.434 294.641 760.13 L294.641 784.031 L287.147 784.031 L287.147 738.661 L294.641 738.661 L294.641 745.709 Q296.991 741.577 300.758 739.592 Q304.525 737.567 309.913 737.567 Q310.683 737.567 311.614 737.688 Q312.546 737.769 313.68 737.972 L313.721 745.628 Z" fill="#000000" fill-rule="evenodd" fill-opacity="1" /><path clip-path="url(#clip060)" d="M 0 0 M342.158 761.224 Q333.125 761.224 329.641 763.29 Q326.157 765.356 326.157 770.339 Q326.157 774.309 328.75 776.658 Q331.383 778.967 335.879 778.967 Q342.077 778.967 345.804 774.592 Q349.571 770.177 349.571 762.885 L349.571 761.224 L342.158 761.224 M357.025 758.145 L357.025 784.031 L349.571 784.031 L349.571 777.144 Q347.019 781.276 343.211 783.261 Q339.404 785.206 333.894 785.206 Q326.927 785.206 322.795 781.317 Q318.703 777.387 318.703 770.825 Q318.703 763.169 323.808 759.28 Q328.952 755.391 339.12 755.391 L349.571 755.391 L349.571 754.662 Q349.571 749.517 346.169 746.722 Q342.806 743.886 336.689 743.886 Q332.801 743.886 329.114 744.818 Q325.428 745.75 322.025 747.613 L322.025 740.727 Q326.117 739.147 329.965 738.377 Q333.813 737.567 337.459 737.567 Q347.303 737.567 352.164 742.671 Q357.025 747.775 357.025 758.145 Z" fill="#000000" fill-rule="evenodd" fill-opacity="1" /><path clip-path="url(#clip060)" d="M 0 0 M400.167 747.37 Q402.962 742.347 406.851 739.957 Q410.74 737.567 416.006 737.567 Q423.095 737.567 426.944 742.549 Q430.792 747.492 430.792 756.647 L430.792 784.031 L423.298 784.031 L423.298 756.89 Q423.298 750.368 420.989 747.208 Q418.68 744.048 413.94 744.048 Q408.147 744.048 404.785 747.897 Q401.423 751.745 401.423 758.389 L401.423 784.031 L393.929 784.031 L393.929 756.89 Q393.929 750.327 391.62 747.208 Q389.311 744.048 384.49 744.048 Q378.778 744.048 375.416 747.937 Q372.054 751.786 372.054 758.389 L372.054 784.031 L364.56 784.031 L364.56 738.661 L372.054 738.661 L372.054 745.709 Q374.606 741.537 378.171 739.552 Q381.735 737.567 386.637 737.567 Q391.579 737.567 395.022 740.078 Q398.506 742.59 400.167 747.37 Z" fill="#000000" fill-rule="evenodd" fill-opacity="1" /><path clip-path="url(#clip060)" d="M 0 0 M477.418 759.482 L477.418 763.128 L443.147 763.128 Q443.633 770.825 447.765 774.876 Q451.938 778.886 459.351 778.886 Q463.645 778.886 467.655 777.833 Q471.706 776.78 475.676 774.673 L475.676 781.722 Q471.666 783.423 467.453 784.314 Q463.24 785.206 458.905 785.206 Q448.049 785.206 441.689 778.886 Q435.369 772.567 435.369 761.791 Q435.369 750.651 441.365 744.129 Q447.401 737.567 457.609 737.567 Q466.764 737.567 472.071 743.481 Q477.418 749.355 477.418 759.482 M469.964 757.295 Q469.883 751.178 466.521 747.532 Q463.199 743.886 457.69 743.886 Q451.452 743.886 447.684 747.411 Q443.957 750.935 443.39 757.335 L469.964 757.295 Z" fill="#000000" fill-rule="evenodd" fill-opacity="1" /><path clip-path="url(#clip060)" d="M 0 0 M492.609 725.779 L492.609 738.661 L507.962 738.661 L507.962 744.453 L492.609 744.453 L492.609 769.083 Q492.609 774.633 494.108 776.213 Q495.647 777.792 500.305 777.792 L507.962 777.792 L507.962 784.031 L500.305 784.031 Q491.677 784.031 488.396 780.831 Q485.115 777.59 485.115 769.083 L485.115 744.453 L479.646 744.453 L479.646 738.661 L485.115 738.661 L485.115 725.779 L492.609 725.779 Z" fill="#000000" fill-rule="evenodd" fill-opacity="1" /><path clip-path="url(#clip060)" d="M 0 0 M554.588 759.482 L554.588 763.128 L520.317 763.128 Q520.803 770.825 524.935 774.876 Q529.107 778.886 536.521 778.886 Q540.815 778.886 544.825 777.833 Q548.876 776.78 552.846 774.673 L552.846 781.722 Q548.835 783.423 544.622 784.314 Q540.409 785.206 536.075 785.206 Q525.219 785.206 518.859 778.886 Q512.539 772.567 512.539 761.791 Q512.539 750.651 518.535 744.129 Q524.57 737.567 534.779 737.567 Q543.934 737.567 549.24 743.481 Q554.588 749.355 554.588 759.482 M547.134 757.295 Q547.053 751.178 543.691 747.532 Q540.369 743.886 534.86 743.886 Q528.621 743.886 524.854 747.411 Q521.127 750.935 520.56 757.335 L547.134 757.295 Z" fill="#000000" fill-rule="evenodd" fill-opacity="1" /><path clip-path="url(#clip060)" d="M 0 0 M588.696 745.628 Q587.44 744.899 585.942 744.575 Q584.483 744.21 582.701 744.21 Q576.381 744.21 572.979 748.342 Q569.616 752.434 569.616 760.13 L569.616 784.031 L562.122 784.031 L562.122 738.661 L569.616 738.661 L569.616 745.709 Q571.966 741.577 575.733 739.592 Q579.501 737.567 584.888 737.567 Q585.658 737.567 586.59 737.688 Q587.521 737.769 588.656 737.972 L588.696 745.628 Z" fill="#000000" fill-rule="evenodd" fill-opacity="1" /><path clip-path="url(#clip060)" d="M 0 0 M625.438 739.997 L625.438 747.046 Q622.278 745.426 618.875 744.615 Q615.473 743.805 611.827 743.805 Q606.277 743.805 603.482 745.507 Q600.727 747.208 600.727 750.611 Q600.727 753.203 602.712 754.702 Q604.697 756.161 610.693 757.497 L613.245 758.064 Q621.184 759.766 624.506 762.885 Q627.868 765.964 627.868 771.513 Q627.868 777.833 622.845 781.519 Q617.863 785.206 609.113 785.206 Q605.467 785.206 601.497 784.476 Q597.568 783.788 593.193 782.37 L593.193 774.673 Q597.325 776.82 601.335 777.914 Q605.345 778.967 609.275 778.967 Q614.541 778.967 617.377 777.185 Q620.212 775.362 620.212 772.081 Q620.212 769.042 618.146 767.422 Q616.121 765.802 609.194 764.303 L606.601 763.695 Q599.674 762.237 596.595 759.239 Q593.517 756.201 593.517 750.935 Q593.517 744.534 598.054 741.051 Q602.591 737.567 610.936 737.567 Q615.068 737.567 618.713 738.175 Q622.359 738.782 625.438 739.997 Z" fill="#000000" fill-rule="evenodd" fill-opacity="1" /><path clip-path="url(#clip060)" d="M 0 0 M786.616 667.446 L786.616 676.074 Q782.484 672.226 777.785 670.322 Q773.127 668.418 767.861 668.418 Q757.49 668.418 751.981 674.778 Q746.472 681.097 746.472 693.088 Q746.472 705.038 751.981 711.398 Q757.49 717.717 767.861 717.717 Q773.127 717.717 777.785 715.813 Q782.484 713.909 786.616 710.061 L786.616 718.608 Q782.322 721.525 777.502 722.983 Q772.722 724.442 767.375 724.442 Q753.642 724.442 745.743 716.056 Q737.843 707.631 737.843 693.088 Q737.843 678.505 745.743 670.119 Q753.642 661.693 767.375 661.693 Q772.803 661.693 777.583 663.152 Q782.403 664.569 786.616 667.446 Z" fill="#000000" fill-rule="evenodd" fill-opacity="1" /><path clip-path="url(#clip060)" d="M 0 0 M794.435 660.235 L801.888 660.235 L801.888 723.267 L794.435 723.267 L794.435 660.235 Z" fill="#000000" fill-rule="evenodd" fill-opacity="1" /><path clip-path="url(#clip060)" d="M 0 0 M809.706 677.897 L817.16 677.897 L817.16 723.267 L809.706 723.267 L809.706 677.897 M809.706 660.235 L817.16 660.235 L817.16 669.674 L809.706 669.674 L809.706 660.235 Z" fill="#000000" fill-rule="evenodd" fill-opacity="1" /><path clip-path="url(#clip060)" d="M 0 0 M863.786 698.719 L863.786 702.364 L829.515 702.364 Q830.002 710.061 834.133 714.112 Q838.306 718.122 845.719 718.122 Q850.013 718.122 854.023 717.069 Q858.074 716.016 862.044 713.909 L862.044 720.958 Q858.034 722.659 853.821 723.551 Q849.608 724.442 845.273 724.442 Q834.417 724.442 828.057 718.122 Q821.738 711.803 821.738 701.028 Q821.738 689.888 827.733 683.366 Q833.769 676.803 843.977 676.803 Q853.132 676.803 858.439 682.717 Q863.786 688.591 863.786 698.719 M856.332 696.531 Q856.251 690.414 852.889 686.768 Q849.567 683.123 844.058 683.123 Q837.82 683.123 834.052 686.647 Q830.326 690.171 829.758 696.572 L856.332 696.531 Z" fill="#000000" fill-rule="evenodd" fill-opacity="1" /><path clip-path="url(#clip060)" d="M 0 0 M909.318 695.883 L909.318 723.267 L901.865 723.267 L901.865 696.126 Q901.865 689.685 899.353 686.485 Q896.841 683.285 891.818 683.285 Q885.782 683.285 882.299 687.133 Q878.815 690.981 878.815 697.625 L878.815 723.267 L871.321 723.267 L871.321 677.897 L878.815 677.897 L878.815 684.945 Q881.488 680.854 885.094 678.829 Q888.74 676.803 893.479 676.803 Q901.297 676.803 905.308 681.664 Q909.318 686.485 909.318 695.883 Z" fill="#000000" fill-rule="evenodd" fill-opacity="1" /><path clip-path="url(#clip060)" d="M 0 0 M924.509 665.015 L924.509 677.897 L939.862 677.897 L939.862 683.69 L924.509 683.69 L924.509 708.319 Q924.509 713.869 926.008 715.449 Q927.547 717.029 932.206 717.029 L939.862 717.029 L939.862 723.267 L932.206 723.267 Q923.577 723.267 920.296 720.067 Q917.015 716.826 917.015 708.319 L917.015 683.69 L911.546 683.69 L911.546 677.897 L917.015 677.897 L917.015 665.015 L924.509 665.015 Z" fill="#000000" fill-rule="evenodd" fill-opacity="1" /><path clip-path="url(#clip060)" d="M 0 0 M982.153 737.04 L982.153 742.833 L939.052 742.833 L939.052 737.04 L982.153 737.04 Z" fill="#000000" fill-rule="evenodd" fill-opacity="1" /><path clip-path="url(#clip060)" d="M 0 0 M1010.59 700.46 Q1001.56 700.46 998.074 702.526 Q994.59 704.592 994.59 709.575 Q994.59 713.545 997.182 715.894 Q999.815 718.203 1004.31 718.203 Q1010.51 718.203 1014.24 713.828 Q1018 709.413 1018 702.121 L1018 700.46 L1010.59 700.46 M1025.46 697.382 L1025.46 723.267 L1018 723.267 L1018 716.38 Q1015.45 720.512 1011.64 722.497 Q1007.84 724.442 1002.33 724.442 Q995.359 724.442 991.227 720.553 Q987.136 716.624 987.136 710.061 Q987.136 702.405 992.24 698.516 Q997.385 694.627 1007.55 694.627 L1018 694.627 L1018 693.898 Q1018 688.753 1014.6 685.958 Q1011.24 683.123 1005.12 683.123 Q1001.23 683.123 997.547 684.054 Q993.861 684.986 990.458 686.849 L990.458 679.963 Q994.549 678.383 998.398 677.613 Q1002.25 676.803 1005.89 676.803 Q1015.74 676.803 1020.6 681.907 Q1025.46 687.011 1025.46 697.382 Z" fill="#000000" fill-rule="evenodd" fill-opacity="1" /><path clip-path="url(#clip060)" d="M 0 0 M1070.99 695.883 L1070.99 723.267 L1063.54 723.267 L1063.54 696.126 Q1063.54 689.685 1061.02 686.485 Q1058.51 683.285 1053.49 683.285 Q1047.45 683.285 1043.97 687.133 Q1040.49 690.981 1040.49 697.625 L1040.49 723.267 L1032.99 723.267 L1032.99 677.897 L1040.49 677.897 L1040.49 684.945 Q1043.16 680.854 1046.77 678.829 Q1050.41 676.803 1055.15 676.803 Q1062.97 676.803 1066.98 681.664 Q1070.99 686.485 1070.99 695.883 Z" fill="#000000" fill-rule="evenodd" fill-opacity="1" /><path clip-path="url(#clip060)" d="M 0 0 M1108.66 684.783 L1108.66 660.235 L1116.12 660.235 L1116.12 723.267 L1108.66 723.267 L1108.66 716.461 Q1106.31 720.512 1102.71 722.497 Q1099.14 724.442 1094.12 724.442 Q1085.9 724.442 1080.71 717.879 Q1075.57 711.317 1075.57 700.622 Q1075.57 689.928 1080.71 683.366 Q1085.9 676.803 1094.12 676.803 Q1099.14 676.803 1102.71 678.788 Q1106.31 680.732 1108.66 684.783 M1083.26 700.622 Q1083.26 708.846 1086.63 713.545 Q1090.03 718.203 1095.94 718.203 Q1101.86 718.203 1105.26 713.545 Q1108.66 708.846 1108.66 700.622 Q1108.66 692.399 1105.26 687.741 Q1101.86 683.042 1095.94 683.042 Q1090.03 683.042 1086.63 687.741 Q1083.26 692.399 1083.26 700.622 Z" fill="#000000" fill-rule="evenodd" fill-opacity="1" /><path clip-path="url(#clip060)" d="M 0 0 M1158.41 737.04 L1158.41 742.833 L1115.31 742.833 L1115.31 737.04 L1158.41 737.04 Z" fill="#000000" fill-rule="evenodd" fill-opacity="1" /><path clip-path="url(#clip060)" d="M 0 0 M1211.84 667.446 L1211.84 676.074 Q1207.71 672.226 1203.01 670.322 Q1198.35 668.418 1193.08 668.418 Q1182.71 668.418 1177.2 674.778 Q1171.7 681.097 1171.7 693.088 Q1171.7 705.038 1177.2 711.398 Q1182.71 717.717 1193.08 717.717 Q1198.35 717.717 1203.01 715.813 Q1207.71 713.909 1211.84 710.061 L1211.84 718.608 Q1207.55 721.525 1202.73 722.983 Q1197.95 724.442 1192.6 724.442 Q1178.87 724.442 1170.97 716.056 Q1163.07 707.631 1163.07 693.088 Q1163.07 678.505 1170.97 670.119 Q1178.87 661.693 1192.6 661.693 Q1198.03 661.693 1202.81 663.152 Q1207.63 664.569 1211.84 667.446 Z" fill="#000000" fill-rule="evenodd" fill-opacity="1" /><path clip-path="url(#clip060)" d="M 0 0 M1237.24 683.123 Q1231.24 683.123 1227.76 687.822 Q1224.28 692.48 1224.28 700.622 Q1224.28 708.765 1227.72 713.464 Q1231.2 718.122 1237.24 718.122 Q1243.19 718.122 1246.68 713.423 Q1250.16 708.724 1250.16 700.622 Q1250.16 692.561 1246.68 687.862 Q1243.19 683.123 1237.24 683.123 M1237.24 676.803 Q1246.96 676.803 1252.51 683.123 Q1258.06 689.442 1258.06 700.622 Q1258.06 711.762 1252.51 718.122 Q1246.96 724.442 1237.24 724.442 Q1227.48 724.442 1221.93 718.122 Q1216.42 711.762 1216.42 700.622 Q1216.42 689.442 1221.93 683.123 Q1227.48 676.803 1237.24 676.803 Z" fill="#000000" fill-rule="evenodd" fill-opacity="1" /><path clip-path="url(#clip060)" d="M 0 0 M1303.59 695.883 L1303.59 723.267 L1296.14 723.267 L1296.14 696.126 Q1296.14 689.685 1293.63 686.485 Q1291.12 683.285 1286.09 683.285 Q1280.06 683.285 1276.57 687.133 Q1273.09 690.981 1273.09 697.625 L1273.09 723.267 L1265.6 723.267 L1265.6 677.897 L1273.09 677.897 L1273.09 684.945 Q1275.76 680.854 1279.37 678.829 Q1283.01 676.803 1287.75 676.803 Q1295.57 676.803 1299.58 681.664 Q1303.59 686.485 1303.59 695.883 Z" fill="#000000" fill-rule="evenodd" fill-opacity="1" /><path clip-path="url(#clip060)" d="M 0 0 M1340.33 679.234 L1340.33 686.282 Q1337.17 684.662 1333.77 683.852 Q1330.37 683.042 1326.72 683.042 Q1321.17 683.042 1318.38 684.743 Q1315.62 686.444 1315.62 689.847 Q1315.62 692.44 1317.61 693.938 Q1319.59 695.397 1325.59 696.734 L1328.14 697.301 Q1336.08 699.002 1339.4 702.121 Q1342.76 705.2 1342.76 710.75 Q1342.76 717.069 1337.74 720.755 Q1332.76 724.442 1324.01 724.442 Q1320.36 724.442 1316.39 723.713 Q1312.46 723.024 1308.09 721.606 L1308.09 713.909 Q1312.22 716.056 1316.23 717.15 Q1320.24 718.203 1324.17 718.203 Q1329.44 718.203 1332.27 716.421 Q1335.11 714.598 1335.11 711.317 Q1335.11 708.279 1333.04 706.658 Q1331.02 705.038 1324.09 703.539 L1321.5 702.931 Q1314.57 701.473 1311.49 698.475 Q1308.41 695.437 1308.41 690.171 Q1308.41 683.771 1312.95 680.287 Q1317.49 676.803 1325.83 676.803 Q1329.96 676.803 1333.61 677.411 Q1337.26 678.018 1340.33 679.234 Z" fill="#000000" fill-rule="evenodd" fill-opacity="1" /><path clip-path="url(#clip060)" d="M 0 0 M1349.81 705.362 L1349.81 677.897 L1357.27 677.897 L1357.27 705.078 Q1357.27 711.519 1359.78 714.76 Q1362.29 717.96 1367.31 717.96 Q1373.35 717.96 1376.83 714.112 Q1380.36 710.264 1380.36 703.62 L1380.36 677.897 L1387.81 677.897 L1387.81 723.267 L1380.36 723.267 L1380.36 716.299 Q1377.64 720.431 1374.04 722.457 Q1370.47 724.442 1365.73 724.442 Q1357.92 724.442 1353.86 719.581 Q1349.81 714.72 1349.81 705.362 M1368.57 676.803 L1368.57 676.803 Z" fill="#000000" fill-rule="evenodd" fill-opacity="1" /><path clip-path="url(#clip060)" d="M 0 0 M1395.63 660.235 L1403.08 660.235 L1403.08 723.267 L1395.63 723.267 L1395.63 660.235 Z" fill="#000000" fill-rule="evenodd" fill-opacity="1" /><path clip-path="url(#clip060)" d="M 0 0 M1418.27 665.015 L1418.27 677.897 L1433.63 677.897 L1433.63 683.69 L1418.27 683.69 L1418.27 708.319 Q1418.27 713.869 1419.77 715.449 Q1421.31 717.029 1425.97 717.029 L1433.63 717.029 L1433.63 723.267 L1425.97 723.267 Q1417.34 723.267 1414.06 720.067 Q1410.78 716.826 1410.78 708.319 L1410.78 683.69 L1405.31 683.69 L1405.31 677.897 L1410.78 677.897 L1410.78 665.015 L1418.27 665.015 Z" fill="#000000" fill-rule="evenodd" fill-opacity="1" /><path clip-path="url(#clip060)" d="M 0 0 M1462.06 700.46 Q1453.03 700.46 1449.55 702.526 Q1446.06 704.592 1446.06 709.575 Q1446.06 713.545 1448.66 715.894 Q1451.29 718.203 1455.79 718.203 Q1461.98 718.203 1465.71 713.828 Q1469.48 709.413 1469.48 702.121 L1469.48 700.46 L1462.06 700.46 M1476.93 697.382 L1476.93 723.267 L1469.48 723.267 L1469.48 716.38 Q1466.93 720.512 1463.12 722.497 Q1459.31 724.442 1453.8 724.442 Q1446.83 724.442 1442.7 720.553 Q1438.61 716.624 1438.61 710.061 Q1438.61 702.405 1443.71 698.516 Q1448.86 694.627 1459.03 694.627 L1469.48 694.627 L1469.48 693.898 Q1469.48 688.753 1466.07 685.958 Q1462.71 683.123 1456.6 683.123 Q1452.71 683.123 1449.02 684.054 Q1445.33 684.986 1441.93 686.849 L1441.93 679.963 Q1446.02 678.383 1449.87 677.613 Q1453.72 676.803 1457.37 676.803 Q1467.21 676.803 1472.07 681.907 Q1476.93 687.011 1476.93 697.382 Z" fill="#000000" fill-rule="evenodd" fill-opacity="1" /><path clip-path="url(#clip060)" d="M 0 0 M1522.46 695.883 L1522.46 723.267 L1515.01 723.267 L1515.01 696.126 Q1515.01 689.685 1512.5 686.485 Q1509.99 683.285 1504.96 683.285 Q1498.93 683.285 1495.44 687.133 Q1491.96 690.981 1491.96 697.625 L1491.96 723.267 L1484.47 723.267 L1484.47 677.897 L1491.96 677.897 L1491.96 684.945 Q1494.63 680.854 1498.24 678.829 Q1501.88 676.803 1506.62 676.803 Q1514.44 676.803 1518.45 681.664 Q1522.46 686.485 1522.46 695.883 Z" fill="#000000" fill-rule="evenodd" fill-opacity="1" /><path clip-path="url(#clip060)" d="M 0 0 M1537.65 665.015 L1537.65 677.897 L1553.01 677.897 L1553.01 683.69 L1537.65 683.69 L1537.65 708.319 Q1537.65 713.869 1539.15 715.449 Q1540.69 717.029 1545.35 717.029 L1553.01 717.029 L1553.01 723.267 L1545.35 723.267 Q1536.72 723.267 1533.44 720.067 Q1530.16 716.826 1530.16 708.319 L1530.16 683.69 L1524.69 683.69 L1524.69 677.897 L1530.16 677.897 L1530.16 665.015 L1537.65 665.015 Z" fill="#000000" fill-rule="evenodd" fill-opacity="1" /><path clip-path="url(#clip060)" d="M 0 0 M1595.3 737.04 L1595.3 742.833 L1552.2 742.833 L1552.2 737.04 L1595.3 737.04 Z" fill="#000000" fill-rule="evenodd" fill-opacity="1" /><path clip-path="url(#clip060)" d="M 0 0 M1632.12 694.911 Q1634.75 695.802 1637.23 698.719 Q1639.74 701.635 1642.25 706.739 L1650.55 723.267 L1641.76 723.267 L1634.02 707.752 Q1631.03 701.676 1628.19 699.691 Q1625.4 697.706 1620.54 697.706 L1611.62 697.706 L1611.62 723.267 L1603.44 723.267 L1603.44 662.787 L1621.91 662.787 Q1632.28 662.787 1637.39 667.121 Q1642.49 671.456 1642.49 680.206 Q1642.49 685.918 1639.82 689.685 Q1637.18 693.452 1632.12 694.911 M1611.62 669.511 L1611.62 690.981 L1621.91 690.981 Q1627.83 690.981 1630.82 688.267 Q1633.86 685.513 1633.86 680.206 Q1633.86 674.899 1630.82 672.226 Q1627.83 669.511 1621.91 669.511 L1611.62 669.511 Z" fill="#000000" fill-rule="evenodd" fill-opacity="1" /><path clip-path="url(#clip060)" d="M 0 0 M1693.45 698.719 L1693.45 702.364 L1659.18 702.364 Q1659.67 710.061 1663.8 714.112 Q1667.97 718.122 1675.38 718.122 Q1679.68 718.122 1683.69 717.069 Q1687.74 716.016 1691.71 713.909 L1691.71 720.958 Q1687.7 722.659 1683.49 723.551 Q1679.27 724.442 1674.94 724.442 Q1664.08 724.442 1657.72 718.122 Q1651.4 711.803 1651.4 701.028 Q1651.4 689.888 1657.4 683.366 Q1663.43 676.803 1673.64 676.803 Q1682.8 676.803 1688.1 682.717 Q1693.45 688.591 1693.45 698.719 M1686 696.531 Q1685.92 690.414 1682.55 686.768 Q1679.23 683.123 1673.72 683.123 Q1667.49 683.123 1663.72 686.647 Q1659.99 690.171 1659.42 696.572 L1686 696.531 Z" fill="#000000" fill-rule="evenodd" fill-opacity="1" /><path clip-path="url(#clip060)" d="M 0 0 M1705.73 700.622 Q1705.73 708.846 1709.09 713.545 Q1712.49 718.203 1718.41 718.203 Q1724.32 718.203 1727.72 713.545 Q1731.13 708.846 1731.13 700.622 Q1731.13 692.399 1727.72 687.741 Q1724.32 683.042 1718.41 683.042 Q1712.49 683.042 1709.09 687.741 Q1705.73 692.399 1705.73 700.622 M1731.13 716.461 Q1728.78 720.512 1725.17 722.497 Q1721.61 724.442 1716.58 724.442 Q1708.36 724.442 1703.17 717.879 Q1698.03 711.317 1698.03 700.622 Q1698.03 689.928 1703.17 683.366 Q1708.36 676.803 1716.58 676.803 Q1721.61 676.803 1725.17 678.788 Q1728.78 680.732 1731.13 684.783 L1731.13 677.897 L1738.58 677.897 L1738.58 740.524 L1731.13 740.524 L1731.13 716.461 Z" fill="#000000" fill-rule="evenodd" fill-opacity="1" /><path clip-path="url(#clip060)" d="M 0 0 M1745.63 705.362 L1745.63 677.897 L1753.08 677.897 L1753.08 705.078 Q1753.08 711.519 1755.59 714.76 Q1758.1 717.96 1763.13 717.96 Q1769.16 717.96 1772.65 714.112 Q1776.17 710.264 1776.17 703.62 L1776.17 677.897 L1783.62 677.897 L1783.62 723.267 L1776.17 723.267 L1776.17 716.299 Q1773.46 720.431 1769.85 722.457 Q1766.29 724.442 1761.55 724.442 Q1753.73 724.442 1749.68 719.581 Q1745.63 714.72 1745.63 705.362 M1764.38 676.803 L1764.38 676.803 Z" fill="#000000" fill-rule="evenodd" fill-opacity="1" /><path clip-path="url(#clip060)" d="M 0 0 M1830.25 698.719 L1830.25 702.364 L1795.98 702.364 Q1796.47 710.061 1800.6 714.112 Q1804.77 718.122 1812.18 718.122 Q1816.48 718.122 1820.49 717.069 Q1824.54 716.016 1828.51 713.909 L1828.51 720.958 Q1824.5 722.659 1820.29 723.551 Q1816.07 724.442 1811.74 724.442 Q1800.88 724.442 1794.52 718.122 Q1788.2 711.803 1788.2 701.028 Q1788.2 689.888 1794.2 683.366 Q1800.23 676.803 1810.44 676.803 Q1819.6 676.803 1824.9 682.717 Q1830.25 688.591 1830.25 698.719 M1822.8 696.531 Q1822.72 690.414 1819.35 686.768 Q1816.03 683.123 1810.52 683.123 Q1804.28 683.123 1800.52 686.647 Q1796.79 690.171 1796.22 696.572 L1822.8 696.531 Z" fill="#000000" fill-rule="evenodd" fill-opacity="1" /><path clip-path="url(#clip060)" d="M 0 0 M1866.99 679.234 L1866.99 686.282 Q1863.83 684.662 1860.43 683.852 Q1857.03 683.042 1853.38 683.042 Q1847.83 683.042 1845.04 684.743 Q1842.28 686.444 1842.28 689.847 Q1842.28 692.44 1844.27 693.938 Q1846.25 695.397 1852.25 696.734 L1854.8 697.301 Q1862.74 699.002 1866.06 702.121 Q1869.42 705.2 1869.42 710.75 Q1869.42 717.069 1864.4 720.755 Q1859.42 724.442 1850.67 724.442 Q1847.02 724.442 1843.05 723.713 Q1839.12 723.024 1834.75 721.606 L1834.75 713.909 Q1838.88 716.056 1842.89 717.15 Q1846.9 718.203 1850.83 718.203 Q1856.1 718.203 1858.93 716.421 Q1861.77 714.598 1861.77 711.317 Q1861.77 708.279 1859.7 706.658 Q1857.68 705.038 1850.75 703.539 L1848.16 702.931 Q1841.23 701.473 1838.15 698.475 Q1835.07 695.437 1835.07 690.171 Q1835.07 683.771 1839.61 680.287 Q1844.15 676.803 1852.49 676.803 Q1856.62 676.803 1860.27 677.411 Q1863.91 678.018 1866.99 679.234 Z" fill="#000000" fill-rule="evenodd" fill-opacity="1" /><path clip-path="url(#clip060)" d="M 0 0 M1884.61 665.015 L1884.61 677.897 L1899.97 677.897 L1899.97 683.69 L1884.61 683.69 L1884.61 708.319 Q1884.61 713.869 1886.11 715.449 Q1887.65 717.029 1892.31 717.029 L1899.97 717.029 L1899.97 723.267 L1892.31 723.267 Q1883.68 723.267 1880.4 720.067 Q1877.12 716.826 1877.12 708.319 L1877.12 683.69 L1871.65 683.69 L1871.65 677.897 L1877.12 677.897 L1877.12 665.015 L1884.61 665.015 Z" fill="#000000" fill-rule="evenodd" fill-opacity="1" /><path clip-path="url(#clip060)" d="M 0 0 M1936.71 679.234 L1936.71 686.282 Q1933.55 684.662 1930.15 683.852 Q1926.74 683.042 1923.1 683.042 Q1917.55 683.042 1914.75 684.743 Q1912 686.444 1912 689.847 Q1912 692.44 1913.98 693.938 Q1915.97 695.397 1921.96 696.734 L1924.52 697.301 Q1932.46 699.002 1935.78 702.121 Q1939.14 705.2 1939.14 710.75 Q1939.14 717.069 1934.12 720.755 Q1929.13 724.442 1920.38 724.442 Q1916.74 724.442 1912.77 723.713 Q1908.84 723.024 1904.46 721.606 L1904.46 713.909 Q1908.6 716.056 1912.61 717.15 Q1916.62 718.203 1920.55 718.203 Q1925.81 718.203 1928.65 716.421 Q1931.48 714.598 1931.48 711.317 Q1931.48 708.279 1929.42 706.658 Q1927.39 705.038 1920.46 703.539 L1917.87 702.931 Q1910.94 701.473 1907.87 698.475 Q1904.79 695.437 1904.79 690.171 Q1904.79 683.771 1909.32 680.287 Q1913.86 676.803 1922.21 676.803 Q1926.34 676.803 1929.98 677.411 Q1933.63 678.018 1936.71 679.234 Z" fill="#000000" fill-rule="evenodd" fill-opacity="1" /><path clip-path="url(#clip060)" d="M 0 0 M503.658 1455.78 L503.658 1502.81 L513.542 1502.81 Q526.059 1502.81 531.852 1497.14 Q537.686 1491.47 537.686 1479.24 Q537.686 1467.08 531.852 1461.45 Q526.059 1455.78 513.542 1455.78 L503.658 1455.78 M495.475 1449.06 L512.286 1449.06 Q529.867 1449.06 538.091 1456.39 Q546.314 1463.68 546.314 1479.24 Q546.314 1494.87 538.05 1502.21 Q529.786 1509.54 512.286 1509.54 L495.475 1509.54 L495.475 1449.06 Z" fill="#000000" fill-rule="evenodd" fill-opacity="1" /><path clip-path="url(#clip060)" d="M 0 0 M592.94 1484.99 L592.94 1488.63 L558.669 1488.63 Q559.155 1496.33 563.287 1500.38 Q567.46 1504.39 574.873 1504.39 Q579.167 1504.39 583.177 1503.34 Q587.228 1502.29 591.198 1500.18 L591.198 1507.23 Q587.188 1508.93 582.975 1509.82 Q578.762 1510.71 574.427 1510.71 Q563.571 1510.71 557.211 1504.39 Q550.891 1498.07 550.891 1487.3 Q550.891 1476.16 556.887 1469.64 Q562.923 1463.07 573.131 1463.07 Q582.286 1463.07 587.593 1468.99 Q592.94 1474.86 592.94 1484.99 M585.486 1482.8 Q585.405 1476.68 582.043 1473.04 Q578.721 1469.39 573.212 1469.39 Q566.974 1469.39 563.206 1472.92 Q559.479 1476.44 558.912 1482.84 L585.486 1482.8 Z" fill="#000000" fill-rule="evenodd" fill-opacity="1" /><path clip-path="url(#clip060)" d="M 0 0 M629.682 1465.5 L629.682 1472.55 Q626.522 1470.93 623.119 1470.12 Q619.716 1469.31 616.071 1469.31 Q610.521 1469.31 607.726 1471.01 Q604.971 1472.71 604.971 1476.12 Q604.971 1478.71 606.956 1480.21 Q608.941 1481.67 614.936 1483 L617.488 1483.57 Q625.428 1485.27 628.75 1488.39 Q632.112 1491.47 632.112 1497.02 Q632.112 1503.34 627.089 1507.03 Q622.106 1510.71 613.356 1510.71 Q609.711 1510.71 605.741 1509.98 Q601.811 1509.29 597.436 1507.88 L597.436 1500.18 Q601.568 1502.33 605.579 1503.42 Q609.589 1504.47 613.518 1504.47 Q618.785 1504.47 621.62 1502.69 Q624.456 1500.87 624.456 1497.59 Q624.456 1494.55 622.39 1492.93 Q620.364 1491.31 613.437 1489.81 L610.845 1489.2 Q603.918 1487.74 600.839 1484.75 Q597.76 1481.71 597.76 1476.44 Q597.76 1470.04 602.297 1466.56 Q606.834 1463.07 615.179 1463.07 Q619.311 1463.07 622.957 1463.68 Q626.603 1464.29 629.682 1465.5 Z" fill="#000000" fill-rule="evenodd" fill-opacity="1" /><path clip-path="url(#clip060)" d="M 0 0 M639.93 1464.17 L647.384 1464.17 L647.384 1509.54 L639.93 1509.54 L639.93 1464.17 M639.93 1446.51 L647.384 1446.51 L647.384 1455.94 L639.93 1455.94 L639.93 1446.51 Z" fill="#000000" fill-rule="evenodd" fill-opacity="1" /><path clip-path="url(#clip060)" d="M 0 0 M685.057 1486.33 Q685.057 1478.22 681.695 1473.77 Q678.373 1469.31 672.338 1469.31 Q666.342 1469.31 662.98 1473.77 Q659.658 1478.22 659.658 1486.33 Q659.658 1494.39 662.98 1498.84 Q666.342 1503.3 672.338 1503.3 Q678.373 1503.3 681.695 1498.84 Q685.057 1494.39 685.057 1486.33 M692.511 1503.91 Q692.511 1515.49 687.366 1521.12 Q682.222 1526.79 671.608 1526.79 Q667.679 1526.79 664.195 1526.19 Q660.711 1525.62 657.43 1524.4 L657.43 1517.15 Q660.711 1518.94 663.912 1519.79 Q667.112 1520.64 670.434 1520.64 Q677.766 1520.64 681.412 1516.79 Q685.057 1512.98 685.057 1505.24 L685.057 1501.56 Q682.748 1505.57 679.143 1507.55 Q675.538 1509.54 670.515 1509.54 Q662.17 1509.54 657.066 1503.18 Q651.962 1496.82 651.962 1486.33 Q651.962 1475.79 657.066 1469.43 Q662.17 1463.07 670.515 1463.07 Q675.538 1463.07 679.143 1465.06 Q682.748 1467.04 685.057 1471.05 L685.057 1464.17 L692.511 1464.17 L692.511 1503.91 Z" fill="#000000" fill-rule="evenodd" fill-opacity="1" /><path clip-path="url(#clip060)" d="M 0 0 M738.043 1482.15 L738.043 1509.54 L730.59 1509.54 L730.59 1482.4 Q730.59 1475.96 728.078 1472.76 Q725.566 1469.56 720.543 1469.56 Q714.507 1469.56 711.024 1473.4 Q707.54 1477.25 707.54 1483.9 L707.54 1509.54 L700.046 1509.54 L700.046 1464.17 L707.54 1464.17 L707.54 1471.22 Q710.214 1467.12 713.819 1465.1 Q717.465 1463.07 722.204 1463.07 Q730.022 1463.07 734.033 1467.93 Q738.043 1472.76 738.043 1482.15 Z" fill="#000000" fill-rule="evenodd" fill-opacity="1" /><path clip-path="url(#clip060)" d="M 0 0 M780.335 1523.31 L780.335 1529.1 L737.233 1529.1 L737.233 1523.31 L780.335 1523.31 Z" fill="#000000" fill-rule="evenodd" fill-opacity="1" /><path clip-path="url(#clip060)" d="M 0 0 M817.157 1481.18 Q819.79 1482.07 822.262 1484.99 Q824.773 1487.91 827.285 1493.01 L835.589 1509.54 L826.799 1509.54 L819.061 1494.02 Q816.064 1487.95 813.228 1485.96 Q810.433 1483.98 805.572 1483.98 L796.66 1483.98 L796.66 1509.54 L788.477 1509.54 L788.477 1449.06 L806.949 1449.06 Q817.319 1449.06 822.424 1453.39 Q827.528 1457.73 827.528 1466.48 Q827.528 1472.19 824.854 1475.96 Q822.221 1479.72 817.157 1481.18 M796.66 1455.78 L796.66 1477.25 L806.949 1477.25 Q812.863 1477.25 815.861 1474.54 Q818.899 1471.78 818.899 1466.48 Q818.899 1461.17 815.861 1458.5 Q812.863 1455.78 806.949 1455.78 L796.66 1455.78 Z" fill="#000000" fill-rule="evenodd" fill-opacity="1" /><path clip-path="url(#clip060)" d="M 0 0 M878.488 1484.99 L878.488 1488.63 L844.217 1488.63 Q844.704 1496.33 848.835 1500.38 Q853.008 1504.39 860.421 1504.39 Q864.715 1504.39 868.725 1503.34 Q872.776 1502.29 876.746 1500.18 L876.746 1507.23 Q872.736 1508.93 868.523 1509.82 Q864.31 1510.71 859.975 1510.71 Q849.119 1510.71 842.759 1504.39 Q836.44 1498.07 836.44 1487.3 Q836.44 1476.16 842.435 1469.64 Q848.471 1463.07 858.679 1463.07 Q867.834 1463.07 873.141 1468.99 Q878.488 1474.86 878.488 1484.99 M871.034 1482.8 Q870.953 1476.68 867.591 1473.04 Q864.269 1469.39 858.76 1469.39 Q852.522 1469.39 848.754 1472.92 Q845.028 1476.44 844.461 1482.84 L871.034 1482.8 Z" fill="#000000" fill-rule="evenodd" fill-opacity="1" /><path clip-path="url(#clip060)" d="M 0 0 M906.925 1486.73 Q897.892 1486.73 894.408 1488.8 Q890.924 1490.86 890.924 1495.85 Q890.924 1499.82 893.517 1502.16 Q896.15 1504.47 900.647 1504.47 Q906.844 1504.47 910.571 1500.1 Q914.339 1495.68 914.339 1488.39 L914.339 1486.73 L906.925 1486.73 M921.792 1483.65 L921.792 1509.54 L914.339 1509.54 L914.339 1502.65 Q911.787 1506.78 907.979 1508.77 Q904.171 1510.71 898.662 1510.71 Q891.694 1510.71 887.562 1506.82 Q883.471 1502.89 883.471 1496.33 Q883.471 1488.68 888.575 1484.79 Q893.72 1480.9 903.887 1480.9 L914.339 1480.9 L914.339 1480.17 Q914.339 1475.02 910.936 1472.23 Q907.574 1469.39 901.457 1469.39 Q897.568 1469.39 893.882 1470.32 Q890.195 1471.26 886.792 1473.12 L886.792 1466.23 Q890.884 1464.65 894.732 1463.88 Q898.581 1463.07 902.226 1463.07 Q912.07 1463.07 916.931 1468.18 Q921.792 1473.28 921.792 1483.65 Z" fill="#000000" fill-rule="evenodd" fill-opacity="1" /><path clip-path="url(#clip060)" d="M 0 0 M958.534 1465.5 L958.534 1472.55 Q955.374 1470.93 951.972 1470.12 Q948.569 1469.31 944.923 1469.31 Q939.373 1469.31 936.578 1471.01 Q933.823 1472.71 933.823 1476.12 Q933.823 1478.71 935.808 1480.21 Q937.793 1481.67 943.789 1483 L946.341 1483.57 Q954.281 1485.27 957.602 1488.39 Q960.965 1491.47 960.965 1497.02 Q960.965 1503.34 955.941 1507.03 Q950.959 1510.71 942.209 1510.71 Q938.563 1510.71 934.593 1509.98 Q930.664 1509.29 926.289 1507.88 L926.289 1500.18 Q930.421 1502.33 934.431 1503.42 Q938.441 1504.47 942.371 1504.47 Q947.637 1504.47 950.473 1502.69 Q953.308 1500.87 953.308 1497.59 Q953.308 1494.55 951.242 1492.93 Q949.217 1491.31 942.29 1489.81 L939.697 1489.2 Q932.77 1487.74 929.692 1484.75 Q926.613 1481.71 926.613 1476.44 Q926.613 1470.04 931.15 1466.56 Q935.687 1463.07 944.032 1463.07 Q948.164 1463.07 951.809 1463.68 Q955.455 1464.29 958.534 1465.5 Z" fill="#000000" fill-rule="evenodd" fill-opacity="1" /><path clip-path="url(#clip060)" d="M 0 0 M986.364 1469.39 Q980.368 1469.39 976.885 1474.09 Q973.401 1478.75 973.401 1486.89 Q973.401 1495.04 976.844 1499.73 Q980.328 1504.39 986.364 1504.39 Q992.319 1504.39 995.802 1499.69 Q999.286 1494.99 999.286 1486.89 Q999.286 1478.83 995.802 1474.13 Q992.319 1469.39 986.364 1469.39 M986.364 1463.07 Q996.086 1463.07 1001.64 1469.39 Q1007.19 1475.71 1007.19 1486.89 Q1007.19 1498.03 1001.64 1504.39 Q996.086 1510.71 986.364 1510.71 Q976.601 1510.71 971.051 1504.39 Q965.542 1498.03 965.542 1486.89 Q965.542 1475.71 971.051 1469.39 Q976.601 1463.07 986.364 1463.07 Z" fill="#000000" fill-rule="evenodd" fill-opacity="1" /><path clip-path="url(#clip060)" d="M 0 0 M1052.72 1482.15 L1052.72 1509.54 L1045.26 1509.54 L1045.26 1482.4 Q1045.26 1475.96 1042.75 1472.76 Q1040.24 1469.56 1035.22 1469.56 Q1029.18 1469.56 1025.7 1473.4 Q1022.21 1477.25 1022.21 1483.9 L1022.21 1509.54 L1014.72 1509.54 L1014.72 1464.17 L1022.21 1464.17 L1022.21 1471.22 Q1024.89 1467.12 1028.49 1465.1 Q1032.14 1463.07 1036.88 1463.07 Q1044.7 1463.07 1048.71 1467.93 Q1052.72 1472.76 1052.72 1482.15 Z" fill="#000000" fill-rule="evenodd" fill-opacity="1" /><path clip-path="url(#clip060)" d="M 0 0 M1060.54 1464.17 L1067.99 1464.17 L1067.99 1509.54 L1060.54 1509.54 L1060.54 1464.17 M1060.54 1446.51 L1067.99 1446.51 L1067.99 1455.94 L1060.54 1455.94 L1060.54 1446.51 Z" fill="#000000" fill-rule="evenodd" fill-opacity="1" /><path clip-path="url(#clip060)" d="M 0 0 M1113.52 1482.15 L1113.52 1509.54 L1106.07 1509.54 L1106.07 1482.4 Q1106.07 1475.96 1103.56 1472.76 Q1101.04 1469.56 1096.02 1469.56 Q1089.99 1469.56 1086.5 1473.4 Q1083.02 1477.25 1083.02 1483.9 L1083.02 1509.54 L1075.52 1509.54 L1075.52 1464.17 L1083.02 1464.17 L1083.02 1471.22 Q1085.69 1467.12 1089.3 1465.1 Q1092.94 1463.07 1097.68 1463.07 Q1105.5 1463.07 1109.51 1467.93 Q1113.52 1472.76 1113.52 1482.15 Z" fill="#000000" fill-rule="evenodd" fill-opacity="1" /><path clip-path="url(#clip060)" d="M 0 0 M1151.19 1486.33 Q1151.19 1478.22 1147.83 1473.77 Q1144.51 1469.31 1138.48 1469.31 Q1132.48 1469.31 1129.12 1473.77 Q1125.8 1478.22 1125.8 1486.33 Q1125.8 1494.39 1129.12 1498.84 Q1132.48 1503.3 1138.48 1503.3 Q1144.51 1503.3 1147.83 1498.84 Q1151.19 1494.39 1151.19 1486.33 M1158.65 1503.91 Q1158.65 1515.49 1153.5 1521.12 Q1148.36 1526.79 1137.75 1526.79 Q1133.82 1526.79 1130.33 1526.19 Q1126.85 1525.62 1123.57 1524.4 L1123.57 1517.15 Q1126.85 1518.94 1130.05 1519.79 Q1133.25 1520.64 1136.57 1520.64 Q1143.9 1520.64 1147.55 1516.79 Q1151.19 1512.98 1151.19 1505.24 L1151.19 1501.56 Q1148.89 1505.57 1145.28 1507.55 Q1141.68 1509.54 1136.65 1509.54 Q1128.31 1509.54 1123.2 1503.18 Q1118.1 1496.82 1118.1 1486.33 Q1118.1 1475.79 1123.2 1469.43 Q1128.31 1463.07 1136.65 1463.07 Q1141.68 1463.07 1145.28 1465.06 Q1148.89 1467.04 1151.19 1471.05 L1151.19 1464.17 L1158.65 1464.17 L1158.65 1503.91 Z" fill="#000000" fill-rule="evenodd" fill-opacity="1" /><path clip-path="url(#clip060)" d="M 0 0 M1756.21 63.3729 L1756.21 72.0014 Q1752.08 68.153 1747.38 66.2491 Q1742.72 64.3451 1737.46 64.3451 Q1727.09 64.3451 1721.58 70.7051 Q1716.07 77.0245 1716.07 89.0152 Q1716.07 100.965 1721.58 107.325 Q1727.09 113.645 1737.46 113.645 Q1742.72 113.645 1747.38 111.741 Q1752.08 109.837 1756.21 105.988 L1756.21 114.536 Q1751.92 117.453 1747.1 118.911 Q1742.32 120.369 1736.97 120.369 Q1723.24 120.369 1715.34 111.984 Q1707.44 103.558 1707.44 89.0152 Q1707.44 74.4319 1715.34 66.0465 Q1723.24 57.6206 1736.97 57.6206 Q1742.4 57.6206 1747.18 59.079 Q1752 60.4968 1756.21 63.3729 Z" fill="#000000" fill-rule="evenodd" fill-opacity="1" /><path clip-path="url(#clip060)" d="M 0 0 M1781.61 79.0499 Q1775.62 79.0499 1772.13 83.749 Q1768.65 88.4075 1768.65 96.5498 Q1768.65 104.692 1772.09 109.391 Q1775.58 114.05 1781.61 114.05 Q1787.57 114.05 1791.05 109.351 Q1794.53 104.652 1794.53 96.5498 Q1794.53 88.4885 1791.05 83.7895 Q1787.57 79.0499 1781.61 79.0499 M1781.61 72.7305 Q1791.33 72.7305 1796.88 79.0499 Q1802.43 85.3693 1802.43 96.5498 Q1802.43 107.69 1796.88 114.05 Q1791.33 120.369 1781.61 120.369 Q1771.85 120.369 1766.3 114.05 Q1760.79 107.69 1760.79 96.5498 Q1760.79 85.3693 1766.3 79.0499 Q1771.85 72.7305 1781.61 72.7305 Z" fill="#000000" fill-rule="evenodd" fill-opacity="1" /><path clip-path="url(#clip060)" d="M 0 0 M1810.25 56.1623 L1817.71 56.1623 L1817.71 119.194 L1810.25 119.194 L1810.25 56.1623 Z" fill="#000000" fill-rule="evenodd" fill-opacity="1" /><path clip-path="url(#clip060)" d="M 0 0 M1825.52 56.1623 L1832.98 56.1623 L1832.98 119.194 L1825.52 119.194 L1825.52 56.1623 Z" fill="#000000" fill-rule="evenodd" fill-opacity="1" /><path clip-path="url(#clip060)" d="M 0 0 M1861.41 96.3878 Q1852.38 96.3878 1848.9 98.4538 Q1845.41 100.52 1845.41 105.502 Q1845.41 109.472 1848.01 111.822 Q1850.64 114.131 1855.14 114.131 Q1861.33 114.131 1865.06 109.756 Q1868.83 105.34 1868.83 98.0487 L1868.83 96.3878 L1861.41 96.3878 M1876.28 93.3091 L1876.28 119.194 L1868.83 119.194 L1868.83 112.308 Q1866.28 116.44 1862.47 118.425 Q1858.66 120.369 1853.15 120.369 Q1846.18 120.369 1842.05 116.48 Q1837.96 112.551 1837.96 105.988 Q1837.96 98.3322 1843.06 94.4434 Q1848.21 90.5545 1858.38 90.5545 L1868.83 90.5545 L1868.83 89.8253 Q1868.83 84.6807 1865.43 81.8856 Q1862.06 79.0499 1855.95 79.0499 Q1852.06 79.0499 1848.37 79.9816 Q1844.68 80.9133 1841.28 82.7768 L1841.28 75.8902 Q1845.37 74.3104 1849.22 73.5407 Q1853.07 72.7305 1856.72 72.7305 Q1866.56 72.7305 1871.42 77.8347 Q1876.28 82.9388 1876.28 93.3091 Z" fill="#000000" fill-rule="evenodd" fill-opacity="1" /><path clip-path="url(#clip060)" d="M 0 0 M1916.67 96.5498 Q1916.67 88.3265 1913.27 83.668 Q1909.9 78.9689 1903.99 78.9689 Q1898.08 78.9689 1894.67 83.668 Q1891.31 88.3265 1891.31 96.5498 Q1891.31 104.773 1894.67 109.472 Q1898.08 114.131 1903.99 114.131 Q1909.9 114.131 1913.27 109.472 Q1916.67 104.773 1916.67 96.5498 M1891.31 80.7108 Q1893.66 76.6599 1897.22 74.7155 Q1900.83 72.7305 1905.81 72.7305 Q1914.08 72.7305 1919.22 79.293 Q1924.41 85.8554 1924.41 96.5498 Q1924.41 107.244 1919.22 113.807 Q1914.08 120.369 1905.81 120.369 Q1900.83 120.369 1897.22 118.425 Q1893.66 116.44 1891.31 112.389 L1891.31 119.194 L1883.82 119.194 L1883.82 56.1623 L1891.31 56.1623 L1891.31 80.7108 Z" fill="#000000" fill-rule="evenodd" fill-opacity="1" /><path clip-path="url(#clip060)" d="M 0 0 M1949.81 79.0499 Q1943.81 79.0499 1940.33 83.749 Q1936.84 88.4075 1936.84 96.5498 Q1936.84 104.692 1940.29 109.391 Q1943.77 114.05 1949.81 114.05 Q1955.76 114.05 1959.24 109.351 Q1962.73 104.652 1962.73 96.5498 Q1962.73 88.4885 1959.24 83.7895 Q1955.76 79.0499 1949.81 79.0499 M1949.81 72.7305 Q1959.53 72.7305 1965.08 79.0499 Q1970.63 85.3693 1970.63 96.5498 Q1970.63 107.69 1965.08 114.05 Q1959.53 120.369 1949.81 120.369 Q1940.04 120.369 1934.49 114.05 Q1928.98 107.69 1928.98 96.5498 Q1928.98 85.3693 1934.49 79.0499 Q1940.04 72.7305 1949.81 72.7305 Z" fill="#000000" fill-rule="evenodd" fill-opacity="1" /><path clip-path="url(#clip060)" d="M 0 0 M2004.74 80.7918 Q2003.48 80.0627 2001.98 79.7386 Q2000.52 79.374 1998.74 79.374 Q1992.42 79.374 1989.02 83.5059 Q1985.66 87.5973 1985.66 95.2941 L1985.66 119.194 L1978.16 119.194 L1978.16 73.8243 L1985.66 73.8243 L1985.66 80.8728 Q1988.01 76.7409 1991.77 74.756 Q1995.54 72.7305 2000.93 72.7305 Q2001.7 72.7305 2002.63 72.852 Q2003.56 72.9331 2004.7 73.1356 L2004.74 80.7918 Z" fill="#000000" fill-rule="evenodd" fill-opacity="1" /><path clip-path="url(#clip060)" d="M 0 0 M2033.17 96.3878 Q2024.14 96.3878 2020.66 98.4538 Q2017.17 100.52 2017.17 105.502 Q2017.17 109.472 2019.76 111.822 Q2022.4 114.131 2026.89 114.131 Q2033.09 114.131 2036.82 109.756 Q2040.59 105.34 2040.59 98.0487 L2040.59 96.3878 L2033.17 96.3878 M2048.04 93.3091 L2048.04 119.194 L2040.59 119.194 L2040.59 112.308 Q2038.03 116.44 2034.23 118.425 Q2030.42 120.369 2024.91 120.369 Q2017.94 120.369 2013.81 116.48 Q2009.72 112.551 2009.72 105.988 Q2009.72 98.3322 2014.82 94.4434 Q2019.97 90.5545 2030.14 90.5545 L2040.59 90.5545 L2040.59 89.8253 Q2040.59 84.6807 2037.18 81.8856 Q2033.82 79.0499 2027.7 79.0499 Q2023.82 79.0499 2020.13 79.9816 Q2016.44 80.9133 2013.04 82.7768 L2013.04 75.8902 Q2017.13 74.3104 2020.98 73.5407 Q2024.83 72.7305 2028.47 72.7305 Q2038.32 72.7305 2043.18 77.8347 Q2048.04 82.9388 2048.04 93.3091 Z" fill="#000000" fill-rule="evenodd" fill-opacity="1" /><path clip-path="url(#clip060)" d="M 0 0 M2063.23 60.9424 L2063.23 73.8243 L2078.58 73.8243 L2078.58 79.6171 L2063.23 79.6171 L2063.23 104.247 Q2063.23 109.796 2064.73 111.376 Q2066.27 112.956 2070.93 112.956 L2078.58 112.956 L2078.58 119.194 L2070.93 119.194 Q2062.3 119.194 2059.02 115.994 Q2055.74 112.753 2055.74 104.247 L2055.74 79.6171 L2050.27 79.6171 L2050.27 73.8243 L2055.74 73.8243 L2055.74 60.9424 L2063.23 60.9424 Z" fill="#000000" fill-rule="evenodd" fill-opacity="1" /><path clip-path="url(#clip060)" d="M 0 0 M2086.4 73.8243 L2093.86 73.8243 L2093.86 119.194 L2086.4 119.194 L2086.4 73.8243 M2086.4 56.1623 L2093.86 56.1623 L2093.86 65.6009 L2086.4 65.6009 L2086.4 56.1623 Z" fill="#000000" fill-rule="evenodd" fill-opacity="1" /><path clip-path="url(#clip060)" d="M 0 0 M2119.26 79.0499 Q2113.26 79.0499 2109.78 83.749 Q2106.29 88.4075 2106.29 96.5498 Q2106.29 104.692 2109.74 109.391 Q2113.22 114.05 2119.26 114.05 Q2125.21 114.05 2128.69 109.351 Q2132.18 104.652 2132.18 96.5498 Q2132.18 88.4885 2128.69 83.7895 Q2125.21 79.0499 2119.26 79.0499 M2119.26 72.7305 Q2128.98 72.7305 2134.53 79.0499 Q2140.08 85.3693 2140.08 96.5498 Q2140.08 107.69 2134.53 114.05 Q2128.98 120.369 2119.26 120.369 Q2109.49 120.369 2103.94 114.05 Q2098.43 107.69 2098.43 96.5498 Q2098.43 85.3693 2103.94 79.0499 Q2109.49 72.7305 2119.26 72.7305 Z" fill="#000000" fill-rule="evenodd" fill-opacity="1" /><path clip-path="url(#clip060)" d="M 0 0 M2185.61 91.8103 L2185.61 119.194 L2178.16 119.194 L2178.16 92.0533 Q2178.16 85.6124 2175.64 82.4122 Q2173.13 79.212 2168.11 79.212 Q2162.07 79.212 2158.59 83.0603 Q2155.11 86.9087 2155.11 93.5522 L2155.11 119.194 L2147.61 119.194 L2147.61 73.8243 L2155.11 73.8243 L2155.11 80.8728 Q2157.78 76.7814 2161.38 74.756 Q2165.03 72.7305 2169.77 72.7305 Q2177.59 72.7305 2181.6 77.5916 Q2185.61 82.4122 2185.61 91.8103 Z" fill="#000000" fill-rule="evenodd" fill-opacity="1" /></svg>
