<?xml version="1.0" encoding="utf-8"?>
<svg xmlns="http://www.w3.org/2000/svg" xmlns:xlink="http://www.w3.org/1999/xlink" width="500" height="500" viewBox="0 0 2000 2000">
<defs>
  <clipPath id="clip710">
    <rect x="0" y="0" width="2000" height="2000"/>
  </clipPath>
</defs>
<path clip-path="url(#clip710)" d="
M0 2000 L2000 2000 L2000 0 L0 0  Z
  " fill="#ffffff" fill-rule="evenodd" fill-opacity="1"/>
<defs>
  <clipPath id="clip711">
    <rect x="400" y="200" width="1401" height="1401"/>
  </clipPath>
</defs>
<path clip-path="url(#clip710)" d="
M240.472 1759.53 L1811.02 1759.53 L1811.02 188.976 L240.472 188.976  Z
  " fill="#ffffff" fill-rule="evenodd" fill-opacity="1"/>
<defs>
  <clipPath id="clip712">
    <rect x="240" y="188" width="1572" height="1572"/>
  </clipPath>
</defs>
<polyline clip-path="url(#clip712)" style="stroke:#000000; stroke-width:2; stroke-opacity:0.1; fill:none" points="
  240.472,1759.53 240.472,188.976 
  "/>
<polyline clip-path="url(#clip712)" style="stroke:#000000; stroke-width:2; stroke-opacity:0.1; fill:none" points="
  1025.75,1759.53 1025.75,188.976 
  "/>
<polyline clip-path="url(#clip712)" style="stroke:#000000; stroke-width:2; stroke-opacity:0.1; fill:none" points="
  1811.02,1759.53 1811.02,188.976 
  "/>
<polyline clip-path="url(#clip712)" style="stroke:#000000; stroke-width:2; stroke-opacity:0.1; fill:none" points="
  240.472,1759.53 1811.02,1759.53 
  "/>
<polyline clip-path="url(#clip712)" style="stroke:#000000; stroke-width:2; stroke-opacity:0.1; fill:none" points="
  240.472,974.252 1811.02,974.252 
  "/>
<polyline clip-path="url(#clip712)" style="stroke:#000000; stroke-width:2; stroke-opacity:0.1; fill:none" points="
  240.472,188.976 1811.02,188.976 
  "/>
<polyline clip-path="url(#clip710)" style="stroke:#000000; stroke-width:4; stroke-opacity:1; fill:none" points="
  240.472,1759.53 1811.02,1759.53 
  "/>
<polyline clip-path="url(#clip710)" style="stroke:#000000; stroke-width:4; stroke-opacity:1; fill:none" points="
  240.472,1759.53 240.472,188.976 
  "/>
<polyline clip-path="url(#clip710)" style="stroke:#000000; stroke-width:4; stroke-opacity:1; fill:none" points="
  240.472,1759.53 240.472,1740.68 
  "/>
<polyline clip-path="url(#clip710)" style="stroke:#000000; stroke-width:4; stroke-opacity:1; fill:none" points="
  1025.75,1759.53 1025.75,1740.68 
  "/>
<polyline clip-path="url(#clip710)" style="stroke:#000000; stroke-width:4; stroke-opacity:1; fill:none" points="
  1811.02,1759.53 1811.02,1740.68 
  "/>
<polyline clip-path="url(#clip710)" style="stroke:#000000; stroke-width:4; stroke-opacity:1; fill:none" points="
  240.472,1759.53 259.319,1759.53 
  "/>
<polyline clip-path="url(#clip710)" style="stroke:#000000; stroke-width:4; stroke-opacity:1; fill:none" points="
  240.472,974.252 259.319,974.252 
  "/>
<polyline clip-path="url(#clip710)" style="stroke:#000000; stroke-width:4; stroke-opacity:1; fill:none" points="
  240.472,188.976 259.319,188.976 
  "/>
<path clip-path="url(#clip710)" d="M 0 0 M221.341 1796.12 L233.817 1796.12 L233.817 1799.91 L221.341 1799.91 L221.341 1796.12 Z" fill="#000000" fill-rule="evenodd" fill-opacity="1" /><path clip-path="url(#clip710)" d="M 0 0 M239.697 1807.06 L247.336 1807.06 L247.336 1780.7 L239.026 1782.37 L239.026 1778.11 L247.29 1776.44 L251.965 1776.44 L251.965 1807.06 L259.604 1807.06 L259.604 1811 L239.697 1811 L239.697 1807.06 Z" fill="#000000" fill-rule="evenodd" fill-opacity="1" /><path clip-path="url(#clip710)" d="M 0 0 M1025.75 1779.52 Q1022.14 1779.52 1020.31 1783.08 Q1018.5 1786.62 1018.5 1793.75 Q1018.5 1800.86 1020.31 1804.43 Q1022.14 1807.97 1025.75 1807.97 Q1029.38 1807.97 1031.19 1804.43 Q1033.02 1800.86 1033.02 1793.75 Q1033.02 1786.62 1031.19 1783.08 Q1029.38 1779.52 1025.75 1779.52 M1025.75 1775.81 Q1031.56 1775.81 1034.61 1780.42 Q1037.69 1785 1037.69 1793.75 Q1037.69 1802.48 1034.61 1807.09 Q1031.56 1811.67 1025.75 1811.67 Q1019.94 1811.67 1016.86 1807.09 Q1013.8 1802.48 1013.8 1793.75 Q1013.8 1785 1016.86 1780.42 Q1019.94 1775.81 1025.75 1775.81 Z" fill="#000000" fill-rule="evenodd" fill-opacity="1" /><path clip-path="url(#clip710)" d="M 0 0 M1801.41 1807.06 L1809.04 1807.06 L1809.04 1780.7 L1800.73 1782.37 L1800.73 1778.11 L1809 1776.44 L1813.67 1776.44 L1813.67 1807.06 L1821.31 1807.06 L1821.31 1811 L1801.41 1811 L1801.41 1807.06 Z" fill="#000000" fill-rule="evenodd" fill-opacity="1" /><path clip-path="url(#clip710)" d="M 0 0 M182.209 1761.92 L194.686 1761.92 L194.686 1765.72 L182.209 1765.72 L182.209 1761.92 Z" fill="#000000" fill-rule="evenodd" fill-opacity="1" /><path clip-path="url(#clip710)" d="M 0 0 M200.565 1772.87 L208.204 1772.87 L208.204 1746.51 L199.894 1748.17 L199.894 1743.91 L208.158 1742.25 L212.834 1742.25 L212.834 1772.87 L220.472 1772.87 L220.472 1776.81 L200.565 1776.81 L200.565 1772.87 Z" fill="#000000" fill-rule="evenodd" fill-opacity="1" /><path clip-path="url(#clip710)" d="M 0 0 M208.528 960.051 Q204.917 960.051 203.088 963.615 Q201.283 967.157 201.283 974.287 Q201.283 981.393 203.088 984.958 Q204.917 988.5 208.528 988.5 Q212.162 988.5 213.968 984.958 Q215.797 981.393 215.797 974.287 Q215.797 967.157 213.968 963.615 Q212.162 960.051 208.528 960.051 M208.528 956.347 Q214.338 956.347 217.394 960.953 Q220.472 965.537 220.472 974.287 Q220.472 983.013 217.394 987.62 Q214.338 992.203 208.528 992.203 Q202.718 992.203 199.639 987.62 Q196.584 983.013 196.584 974.287 Q196.584 965.537 199.639 960.953 Q202.718 956.347 208.528 956.347 Z" fill="#000000" fill-rule="evenodd" fill-opacity="1" /><path clip-path="url(#clip710)" d="M 0 0 M200.565 202.321 L208.204 202.321 L208.204 175.956 L199.894 177.622 L199.894 173.363 L208.158 171.696 L212.834 171.696 L212.834 202.321 L220.472 202.321 L220.472 206.256 L200.565 206.256 L200.565 202.321 Z" fill="#000000" fill-rule="evenodd" fill-opacity="1" /><path clip-path="url(#clip710)" d="M 0 0 M912.661 1840.87 L919.568 1840.87 L931.376 1858.54 L943.248 1840.87 L950.155 1840.87 L934.878 1863.69 L951.174 1888.39 L944.267 1888.39 L930.899 1868.18 L917.436 1888.39 L910.497 1888.39 L927.462 1863.02 L912.661 1840.87 Z" fill="#000000" fill-rule="evenodd" fill-opacity="1" /><path clip-path="url(#clip710)" d="M 0 0 M992.105 1838.93 Q987.84 1846.25 985.771 1853.41 Q983.703 1860.57 983.703 1867.93 Q983.703 1875.28 985.771 1882.5 Q987.872 1889.7 992.105 1896.99 L987.013 1896.99 Q982.238 1889.51 979.851 1882.28 Q977.496 1875.06 977.496 1867.93 Q977.496 1860.83 979.851 1853.63 Q982.207 1846.44 987.013 1838.93 L992.105 1838.93 Z" fill="#000000" fill-rule="evenodd" fill-opacity="1" /><path clip-path="url(#clip710)" d="M 0 0 M1004.61 1882.98 L1027.05 1882.98 L1027.05 1888.39 L996.88 1888.39 L996.88 1882.98 Q1000.54 1879.19 1006.84 1872.83 Q1013.18 1866.43 1014.8 1864.58 Q1017.89 1861.11 1019.1 1858.73 Q1020.34 1856.31 1020.34 1853.98 Q1020.34 1850.2 1017.66 1847.81 Q1015.02 1845.42 1010.76 1845.42 Q1007.73 1845.42 1004.36 1846.47 Q1001.02 1847.52 997.198 1849.66 L997.198 1843.16 Q1001.08 1841.6 1004.45 1840.81 Q1007.83 1840.01 1010.63 1840.01 Q1018.01 1840.01 1022.41 1843.7 Q1026.8 1847.4 1026.8 1853.57 Q1026.8 1856.5 1025.68 1859.14 Q1024.6 1861.75 1021.71 1865.32 Q1020.91 1866.24 1016.65 1870.66 Q1012.38 1875.06 1004.61 1882.98 Z" fill="#000000" fill-rule="evenodd" fill-opacity="1" /><path clip-path="url(#clip710)" d="M 0 0 M1034.09 1840.87 L1059.33 1840.87 L1059.33 1846.28 L1039.98 1846.28 L1039.98 1857.93 Q1041.38 1857.45 1042.78 1857.23 Q1044.18 1856.98 1045.58 1856.98 Q1053.53 1856.98 1058.18 1861.34 Q1062.83 1865.7 1062.83 1873.15 Q1062.83 1880.82 1058.05 1885.08 Q1053.28 1889.31 1044.59 1889.31 Q1041.6 1889.31 1038.48 1888.81 Q1035.39 1888.3 1032.08 1887.28 L1032.08 1880.82 Q1034.95 1882.38 1038 1883.14 Q1041.06 1883.9 1044.46 1883.9 Q1049.97 1883.9 1053.18 1881.01 Q1056.4 1878.11 1056.4 1873.15 Q1056.4 1868.18 1053.18 1865.28 Q1049.97 1862.39 1044.46 1862.39 Q1041.89 1862.39 1039.31 1862.96 Q1036.76 1863.53 1034.09 1864.74 L1034.09 1840.87 Z" fill="#000000" fill-rule="evenodd" fill-opacity="1" /><path clip-path="url(#clip710)" d="M 0 0 M1110.22 1867.48 Q1107.45 1867.48 1105.86 1869.84 Q1104.3 1872.19 1104.3 1876.39 Q1104.3 1880.53 1105.86 1882.92 Q1107.45 1885.27 1110.22 1885.27 Q1112.93 1885.27 1114.49 1882.92 Q1116.08 1880.53 1116.08 1876.39 Q1116.08 1872.22 1114.49 1869.87 Q1112.93 1867.48 1110.22 1867.48 M1110.22 1863.44 Q1115.25 1863.44 1118.21 1866.94 Q1121.17 1870.44 1121.17 1876.39 Q1121.17 1882.34 1118.18 1885.85 Q1115.22 1889.31 1110.22 1889.31 Q1105.13 1889.31 1102.17 1885.85 Q1099.21 1882.34 1099.21 1876.39 Q1099.21 1870.41 1102.17 1866.94 Q1105.16 1863.44 1110.22 1863.44 M1077.37 1844.05 Q1074.64 1844.05 1073.05 1846.44 Q1071.49 1848.8 1071.49 1852.93 Q1071.49 1857.14 1073.05 1859.49 Q1074.6 1861.85 1077.37 1861.85 Q1080.14 1861.85 1081.7 1859.49 Q1083.29 1857.14 1083.29 1852.93 Q1083.29 1848.83 1081.7 1846.44 Q1080.11 1844.05 1077.37 1844.05 M1106.12 1840.01 L1111.21 1840.01 L1081.48 1889.31 L1076.39 1889.31 L1106.12 1840.01 M1077.37 1840.01 Q1082.4 1840.01 1085.39 1843.51 Q1088.39 1846.98 1088.39 1852.93 Q1088.39 1858.95 1085.39 1862.42 Q1082.43 1865.89 1077.37 1865.89 Q1072.31 1865.89 1069.35 1862.42 Q1066.42 1858.92 1066.42 1852.93 Q1066.42 1847.01 1069.38 1843.51 Q1072.35 1840.01 1077.37 1840.01 Z" fill="#000000" fill-rule="evenodd" fill-opacity="1" /><path clip-path="url(#clip710)" d="M 0 0 M1126.39 1838.93 L1131.48 1838.93 Q1136.26 1846.44 1138.61 1853.63 Q1141 1860.83 1141 1867.93 Q1141 1875.06 1138.61 1882.28 Q1136.26 1889.51 1131.48 1896.99 L1126.39 1896.99 Q1130.62 1889.7 1132.69 1882.5 Q1134.79 1875.28 1134.79 1867.93 Q1134.79 1860.57 1132.69 1853.41 Q1130.62 1846.25 1126.39 1838.93 Z" fill="#000000" fill-rule="evenodd" fill-opacity="1" /><path clip-path="url(#clip710)" d="M 0 0 M100.433 1089.26 L100.433 1082.36 L119.975 1069.18 L100.433 1056.1 L100.433 1049.19 L125.323 1066 L147.953 1066 L147.953 1072.46 L125.323 1072.46 L100.433 1089.26 Z" fill="#000000" fill-rule="evenodd" fill-opacity="1" /><path clip-path="url(#clip710)" d="M 0 0 M98.4912 1008.26 Q105.812 1012.53 112.973 1014.59 Q120.135 1016.66 127.487 1016.66 Q134.839 1016.66 142.064 1014.59 Q149.258 1012.49 156.546 1008.26 L156.546 1013.35 Q149.067 1018.13 141.842 1020.51 Q134.617 1022.87 127.487 1022.87 Q120.389 1022.87 113.196 1020.51 Q106.003 1018.16 98.4912 1013.35 L98.4912 1008.26 Z" fill="#000000" fill-rule="evenodd" fill-opacity="1" /><path clip-path="url(#clip710)" d="M 0 0 M142.542 995.752 L142.542 973.313 L147.953 973.313 L147.953 1003.49 L142.542 1003.49 Q138.754 999.826 132.389 993.524 Q125.991 987.19 124.145 985.567 Q120.676 982.48 118.289 981.27 Q115.87 980.029 113.546 980.029 Q109.759 980.029 107.371 982.702 Q104.984 985.344 104.984 989.609 Q104.984 992.633 106.035 996.007 Q107.085 999.349 109.217 1003.17 L102.724 1003.17 Q101.165 999.285 100.369 995.911 Q99.5734 992.537 99.5734 989.737 Q99.5734 982.352 103.265 977.96 Q106.958 973.568 113.132 973.568 Q116.061 973.568 118.702 974.682 Q121.312 975.764 124.877 978.66 Q125.8 979.456 130.224 983.721 Q134.617 987.986 142.542 995.752 Z" fill="#000000" fill-rule="evenodd" fill-opacity="1" /><path clip-path="url(#clip710)" d="M 0 0 M100.433 967.966 L100.433 937.41 L103.17 937.41 L147.953 954.662 L147.953 961.377 L105.844 945.145 L105.844 967.966 L100.433 967.966 Z" fill="#000000" fill-rule="evenodd" fill-opacity="1" /><path clip-path="url(#clip710)" d="M 0 0 M127.041 890.018 Q127.041 892.787 129.397 894.378 Q131.752 895.938 135.953 895.938 Q140.091 895.938 142.478 894.378 Q144.834 892.787 144.834 890.018 Q144.834 887.312 142.478 885.753 Q140.091 884.161 135.953 884.161 Q131.784 884.161 129.429 885.753 Q127.041 887.312 127.041 890.018 M122.999 890.018 Q122.999 884.989 126.5 882.029 Q130.001 879.069 135.953 879.069 Q141.905 879.069 145.406 882.061 Q148.876 885.021 148.876 890.018 Q148.876 895.11 145.406 898.07 Q141.905 901.03 135.953 901.03 Q129.97 901.03 126.5 898.07 Q122.999 895.078 122.999 890.018 M103.616 922.865 Q103.616 925.602 106.003 927.193 Q108.358 928.753 112.496 928.753 Q116.697 928.753 119.052 927.193 Q121.408 925.634 121.408 922.865 Q121.408 920.096 119.052 918.536 Q116.697 916.945 112.496 916.945 Q108.39 916.945 106.003 918.536 Q103.616 920.128 103.616 922.865 M99.5734 894.124 L99.5734 889.031 L148.876 918.759 L148.876 923.851 L99.5734 894.124 M99.5734 922.865 Q99.5734 917.836 103.075 914.844 Q106.544 911.852 112.496 911.852 Q118.511 911.852 121.981 914.844 Q125.45 917.804 125.45 922.865 Q125.45 927.926 121.981 930.886 Q118.48 933.814 112.496 933.814 Q106.576 933.814 103.075 930.854 Q99.5734 927.894 99.5734 922.865 Z" fill="#000000" fill-rule="evenodd" fill-opacity="1" /><path clip-path="url(#clip710)" d="M 0 0 M98.4912 873.849 L98.4912 868.756 Q106.003 863.982 113.196 861.627 Q120.389 859.24 127.487 859.24 Q134.617 859.24 141.842 861.627 Q149.067 863.982 156.546 868.756 L156.546 873.849 Q149.258 869.616 142.064 867.547 Q134.839 865.446 127.487 865.446 Q120.135 865.446 112.973 867.547 Q105.812 869.616 98.4912 873.849 Z" fill="#000000" fill-rule="evenodd" fill-opacity="1" /><polyline clip-path="url(#clip712)" style="stroke:#800080; stroke-width:0.80967; stroke-opacity:1; fill:none" points="
  583.189,481.926 1438.58,1367.34 
  "/>
<polyline clip-path="url(#clip712)" style="stroke:#800080; stroke-width:0.0637714; stroke-opacity:1; fill:none" points="
  961.106,1130.44 1029.31,1250.8 
  "/>
<polyline clip-path="url(#clip712)" style="stroke:#800080; stroke-width:0.377721; stroke-opacity:1; fill:none" points="
  532.536,1417.74 961.106,1130.44 
  "/>
<polyline clip-path="url(#clip712)" style="stroke:#800080; stroke-width:3.13284; stroke-opacity:1; fill:none" points="
  532.536,1417.74 1431.21,644.067 
  "/>
<polyline clip-path="url(#clip712)" style="stroke:#ffa500; stroke-width:2.35015; stroke-opacity:1; fill:none" points="
  1029.31,1250.8 1438.58,1367.34 
  "/>
<polyline clip-path="url(#clip712)" style="stroke:#800080; stroke-width:3.3424; stroke-opacity:1; fill:none" points="
  532.536,1417.74 1029.31,1250.8 
  "/>
<polyline clip-path="url(#clip712)" style="stroke:#ffa500; stroke-width:3.04111; stroke-opacity:1; fill:none" points="
  1029.31,1250.8 1431.21,644.067 
  "/>
<polyline clip-path="url(#clip712)" style="stroke:#ffa500; stroke-width:1.9577; stroke-opacity:1; fill:none" points="
  961.106,1130.44 1431.21,644.067 
  "/>
<polyline clip-path="url(#clip712)" style="stroke:#800080; stroke-width:6.22728; stroke-opacity:1; fill:none" points="
  532.536,1417.74 583.189,481.926 
  "/>
<polyline clip-path="url(#clip712)" style="stroke:#ffa500; stroke-width:0.218098; stroke-opacity:1; fill:none" points="
  961.106,1130.44 1438.58,1367.34 
  "/>
<polyline clip-path="url(#clip712)" style="stroke:#ffa500; stroke-width:8; stroke-opacity:1; fill:none" points="
  1431.21,644.067 1438.58,1367.34 
  "/>
<polyline clip-path="url(#clip712)" style="stroke:#800080; stroke-width:3.5241; stroke-opacity:1; fill:none" points="
  583.189,481.926 1029.31,1250.8 
  "/>
<polyline clip-path="url(#clip712)" style="stroke:#800080; stroke-width:2.1369; stroke-opacity:1; fill:none" points="
  583.189,481.926 961.106,1130.44 
  "/>
<polyline clip-path="url(#clip712)" style="stroke:#800080; stroke-width:2.2764; stroke-opacity:1; fill:none" points="
  532.536,1417.74 1438.58,1367.34 
  "/>
<polyline clip-path="url(#clip712)" style="stroke:#800080; stroke-width:1.6582; stroke-opacity:1; fill:none" points="
  583.189,481.926 1431.21,644.067 
  "/>
<circle clip-path="url(#clip712)" cx="1029.31" cy="1250.8" r="23" fill="#000000" fill-rule="evenodd" fill-opacity="1" stroke="none"/>
<circle clip-path="url(#clip712)" cx="583.189" cy="481.926" r="26" fill="#000000" fill-rule="evenodd" fill-opacity="1" stroke="none"/>
<circle clip-path="url(#clip712)" cx="1438.58" cy="1367.34" r="23" fill="#000000" fill-rule="evenodd" fill-opacity="1" stroke="none"/>
<circle clip-path="url(#clip712)" cx="961.106" cy="1130.44" r="8" fill="#000000" fill-rule="evenodd" fill-opacity="1" stroke="none"/>
<circle clip-path="url(#clip712)" cx="1431.21" cy="644.067" r="28" fill="#000000" fill-rule="evenodd" fill-opacity="1" stroke="none"/>
<circle clip-path="url(#clip712)" cx="532.536" cy="1417.74" r="8" fill="#000000" fill-rule="evenodd" fill-opacity="1" stroke="none"/>
<path clip-path="url(#clip710)" d="M 0 0 M1002.23 1257.52 L1002.23 1274.31 L1005.76 1274.31 Q1010.23 1274.31 1012.3 1272.29 Q1014.38 1270.26 1014.38 1265.89 Q1014.38 1261.55 1012.3 1259.54 Q1010.23 1257.52 1005.76 1257.52 L1002.23 1257.52 M999.308 1255.12 L1005.31 1255.12 Q1011.59 1255.12 1014.53 1257.73 Q1017.46 1260.34 1017.46 1265.89 Q1017.46 1271.48 1014.51 1274.1 Q1011.56 1276.72 1005.31 1276.72 L999.308 1276.72 L999.308 1255.12 Z" fill="#000000" fill-rule="evenodd" fill-opacity="1" /><path clip-path="url(#clip710)" d="M 0 0 M1027.62 1268.57 Q1024.39 1268.57 1023.15 1269.31 Q1021.91 1270.05 1021.91 1271.83 Q1021.91 1273.24 1022.83 1274.08 Q1023.77 1274.91 1025.38 1274.91 Q1027.59 1274.91 1028.92 1273.34 Q1030.27 1271.77 1030.27 1269.16 L1030.27 1268.57 L1027.62 1268.57 M1032.93 1267.47 L1032.93 1276.72 L1030.27 1276.72 L1030.27 1274.26 Q1029.36 1275.73 1028 1276.44 Q1026.64 1277.13 1024.67 1277.13 Q1022.18 1277.13 1020.7 1275.75 Q1019.24 1274.34 1019.24 1272 Q1019.24 1269.26 1021.07 1267.88 Q1022.9 1266.49 1026.54 1266.49 L1030.27 1266.49 L1030.27 1266.23 Q1030.27 1264.39 1029.05 1263.39 Q1027.85 1262.38 1025.67 1262.38 Q1024.28 1262.38 1022.96 1262.71 Q1021.65 1263.04 1020.43 1263.71 L1020.43 1261.25 Q1021.89 1260.69 1023.27 1260.41 Q1024.64 1260.12 1025.94 1260.12 Q1029.46 1260.12 1031.19 1261.94 Q1032.93 1263.77 1032.93 1267.47 Z" fill="#000000" fill-rule="evenodd" fill-opacity="1" /><path clip-path="url(#clip710)" d="M 0 0 M1038.36 1255.91 L1038.36 1260.51 L1043.84 1260.51 L1043.84 1262.58 L1038.36 1262.58 L1038.36 1271.38 Q1038.36 1273.36 1038.89 1273.92 Q1039.44 1274.49 1041.1 1274.49 L1043.84 1274.49 L1043.84 1276.72 L1041.1 1276.72 Q1038.02 1276.72 1036.85 1275.57 Q1035.68 1274.41 1035.68 1271.38 L1035.68 1262.58 L1033.73 1262.58 L1033.73 1260.51 L1035.68 1260.51 L1035.68 1255.91 L1038.36 1255.91 Z" fill="#000000" fill-rule="evenodd" fill-opacity="1" /><path clip-path="url(#clip710)" d="M 0 0 M1053.99 1268.57 Q1050.77 1268.57 1049.52 1269.31 Q1048.28 1270.05 1048.28 1271.83 Q1048.28 1273.24 1049.21 1274.08 Q1050.15 1274.91 1051.75 1274.91 Q1053.97 1274.91 1055.3 1273.34 Q1056.64 1271.77 1056.64 1269.16 L1056.64 1268.57 L1053.99 1268.57 M1059.3 1267.47 L1059.3 1276.72 L1056.64 1276.72 L1056.64 1274.26 Q1055.73 1275.73 1054.37 1276.44 Q1053.01 1277.13 1051.04 1277.13 Q1048.55 1277.13 1047.08 1275.75 Q1045.62 1274.34 1045.62 1272 Q1045.62 1269.26 1047.44 1267.88 Q1049.28 1266.49 1052.91 1266.49 L1056.64 1266.49 L1056.64 1266.23 Q1056.64 1264.39 1055.43 1263.39 Q1054.23 1262.38 1052.04 1262.38 Q1050.65 1262.38 1049.34 1262.71 Q1048.02 1263.04 1046.8 1263.71 L1046.8 1261.25 Q1048.27 1260.69 1049.64 1260.41 Q1051.01 1260.12 1052.32 1260.12 Q1055.83 1260.12 1057.57 1261.94 Q1059.3 1263.77 1059.3 1267.47 Z" fill="#000000" fill-rule="evenodd" fill-opacity="1" /><path clip-path="url(#clip710)" d="M 0 0 M441.284 486.246 L459.557 486.246 L459.557 488.705 L451.889 488.705 L451.889 507.846 L448.952 507.846 L448.952 488.705 L441.284 488.705 L441.284 486.246 Z" fill="#000000" fill-rule="evenodd" fill-opacity="1" /><path clip-path="url(#clip710)" d="M 0 0 M471.174 499.078 L471.174 500.38 L458.935 500.38 Q459.108 503.129 460.584 504.576 Q462.074 506.008 464.722 506.008 Q466.255 506.008 467.688 505.632 Q469.134 505.256 470.552 504.504 L470.552 507.021 Q469.12 507.629 467.615 507.947 Q466.111 508.265 464.563 508.265 Q460.685 508.265 458.414 506.008 Q456.157 503.751 456.157 499.903 Q456.157 495.924 458.298 493.595 Q460.454 491.251 464.1 491.251 Q467.369 491.251 469.265 493.364 Q471.174 495.461 471.174 499.078 M468.512 498.297 Q468.483 496.113 467.283 494.81 Q466.096 493.508 464.129 493.508 Q461.901 493.508 460.555 494.767 Q459.224 496.026 459.022 498.312 L468.512 498.297 Z" fill="#000000" fill-rule="evenodd" fill-opacity="1" /><path clip-path="url(#clip710)" d="M 0 0 M485.627 492.264 L485.627 494.753 Q484.499 494.13 483.356 493.827 Q482.228 493.508 481.07 493.508 Q478.48 493.508 477.048 495.158 Q475.616 496.792 475.616 499.758 Q475.616 502.724 477.048 504.373 Q478.48 506.008 481.07 506.008 Q482.228 506.008 483.356 505.704 Q484.499 505.386 485.627 504.764 L485.627 507.224 Q484.513 507.744 483.313 508.005 Q482.126 508.265 480.781 508.265 Q477.12 508.265 474.965 505.965 Q472.809 503.665 472.809 499.758 Q472.809 495.794 474.979 493.523 Q477.164 491.251 480.954 491.251 Q482.184 491.251 483.356 491.512 Q484.528 491.758 485.627 492.264 Z" fill="#000000" fill-rule="evenodd" fill-opacity="1" /><path clip-path="url(#clip710)" d="M 0 0 M501.889 498.066 L501.889 507.846 L499.227 507.846 L499.227 498.152 Q499.227 495.852 498.33 494.709 Q497.433 493.566 495.639 493.566 Q493.483 493.566 492.239 494.941 Q490.995 496.315 490.995 498.688 L490.995 507.846 L488.318 507.846 L488.318 485.334 L490.995 485.334 L490.995 494.159 Q491.95 492.698 493.237 491.975 Q494.539 491.251 496.232 491.251 Q499.024 491.251 500.457 492.988 Q501.889 494.709 501.889 498.066 Z" fill="#000000" fill-rule="evenodd" fill-opacity="1" /><path clip-path="url(#clip710)" d="M 0 0 M518.15 498.066 L518.15 507.846 L515.488 507.846 L515.488 498.152 Q515.488 495.852 514.591 494.709 Q513.694 493.566 511.9 493.566 Q509.745 493.566 508.501 494.941 Q507.256 496.315 507.256 498.688 L507.256 507.846 L504.58 507.846 L504.58 491.642 L507.256 491.642 L507.256 494.159 Q508.211 492.698 509.499 491.975 Q510.801 491.251 512.494 491.251 Q515.286 491.251 516.718 492.988 Q518.15 494.709 518.15 498.066 Z" fill="#000000" fill-rule="evenodd" fill-opacity="1" /><path clip-path="url(#clip710)" d="M 0 0 M520.943 491.642 L523.605 491.642 L523.605 507.846 L520.943 507.846 L520.943 491.642 M520.943 485.334 L523.605 485.334 L523.605 488.705 L520.943 488.705 L520.943 485.334 Z" fill="#000000" fill-rule="evenodd" fill-opacity="1" /><path clip-path="url(#clip710)" d="M 0 0 M538.058 492.264 L538.058 494.753 Q536.929 494.13 535.786 493.827 Q534.658 493.508 533.5 493.508 Q530.911 493.508 529.478 495.158 Q528.046 496.792 528.046 499.758 Q528.046 502.724 529.478 504.373 Q530.911 506.008 533.5 506.008 Q534.658 506.008 535.786 505.704 Q536.929 505.386 538.058 504.764 L538.058 507.224 Q536.944 507.744 535.743 508.005 Q534.557 508.265 533.211 508.265 Q529.551 508.265 527.395 505.965 Q525.239 503.665 525.239 499.758 Q525.239 495.794 527.41 493.523 Q529.594 491.251 533.385 491.251 Q534.614 491.251 535.786 491.512 Q536.958 491.758 538.058 492.264 Z" fill="#000000" fill-rule="evenodd" fill-opacity="1" /><path clip-path="url(#clip710)" d="M 0 0 M548.214 499.7 Q544.988 499.7 543.743 500.438 Q542.499 501.176 542.499 502.956 Q542.499 504.373 543.425 505.213 Q544.365 506.037 545.971 506.037 Q548.185 506.037 549.516 504.475 Q550.861 502.898 550.861 500.294 L550.861 499.7 L548.214 499.7 M553.523 498.601 L553.523 507.846 L550.861 507.846 L550.861 505.386 Q549.95 506.862 548.59 507.571 Q547.23 508.265 545.262 508.265 Q542.774 508.265 541.298 506.876 Q539.837 505.473 539.837 503.129 Q539.837 500.395 541.66 499.006 Q543.497 497.617 547.129 497.617 L550.861 497.617 L550.861 497.357 Q550.861 495.519 549.646 494.521 Q548.445 493.508 546.261 493.508 Q544.872 493.508 543.555 493.841 Q542.239 494.174 541.023 494.839 L541.023 492.38 Q542.485 491.816 543.859 491.541 Q545.234 491.251 546.536 491.251 Q550.051 491.251 551.787 493.074 Q553.523 494.897 553.523 498.601 Z" fill="#000000" fill-rule="evenodd" fill-opacity="1" /><path clip-path="url(#clip710)" d="M 0 0 M556.316 485.334 L558.978 485.334 L558.978 507.846 L556.316 507.846 L556.316 485.334 Z" fill="#000000" fill-rule="evenodd" fill-opacity="1" /><path clip-path="url(#clip710)" d="M 0 0 M574.082 512.765 L574.082 514.833 L558.688 514.833 L558.688 512.765 L574.082 512.765 Z" fill="#000000" fill-rule="evenodd" fill-opacity="1" /><path clip-path="url(#clip710)" d="M 0 0 M593.164 487.909 L593.164 490.991 Q591.689 489.617 590.011 488.937 Q588.347 488.257 586.466 488.257 Q582.762 488.257 580.795 490.528 Q578.827 492.785 578.827 497.067 Q578.827 501.335 580.795 503.607 Q582.762 505.864 586.466 505.864 Q588.347 505.864 590.011 505.184 Q591.689 504.504 593.164 503.129 L593.164 506.182 Q591.631 507.224 589.909 507.744 Q588.202 508.265 586.292 508.265 Q581.388 508.265 578.567 505.27 Q575.746 502.261 575.746 497.067 Q575.746 491.859 578.567 488.864 Q581.388 485.855 586.292 485.855 Q588.231 485.855 589.938 486.376 Q591.66 486.882 593.164 487.909 Z" fill="#000000" fill-rule="evenodd" fill-opacity="1" /><path clip-path="url(#clip710)" d="M 0 0 M602.236 493.508 Q600.094 493.508 598.85 495.187 Q597.606 496.85 597.606 499.758 Q597.606 502.666 598.836 504.345 Q600.08 506.008 602.236 506.008 Q604.362 506.008 605.606 504.33 Q606.851 502.652 606.851 499.758 Q606.851 496.879 605.606 495.201 Q604.362 493.508 602.236 493.508 M602.236 491.251 Q605.708 491.251 607.69 493.508 Q609.672 495.765 609.672 499.758 Q609.672 503.737 607.69 506.008 Q605.708 508.265 602.236 508.265 Q598.749 508.265 596.767 506.008 Q594.799 503.737 594.799 499.758 Q594.799 495.765 596.767 493.508 Q598.749 491.251 602.236 491.251 Z" fill="#000000" fill-rule="evenodd" fill-opacity="1" /><path clip-path="url(#clip710)" d="M 0 0 M625.933 498.066 L625.933 507.846 L623.271 507.846 L623.271 498.152 Q623.271 495.852 622.374 494.709 Q621.477 493.566 619.683 493.566 Q617.528 493.566 616.284 494.941 Q615.039 496.315 615.039 498.688 L615.039 507.846 L612.363 507.846 L612.363 491.642 L615.039 491.642 L615.039 494.159 Q615.994 492.698 617.282 491.975 Q618.584 491.251 620.277 491.251 Q623.069 491.251 624.501 492.988 Q625.933 494.709 625.933 498.066 Z" fill="#000000" fill-rule="evenodd" fill-opacity="1" /><path clip-path="url(#clip710)" d="M 0 0 M639.055 492.119 L639.055 494.637 Q637.927 494.058 636.712 493.769 Q635.496 493.479 634.194 493.479 Q632.212 493.479 631.214 494.087 Q630.23 494.695 630.23 495.91 Q630.23 496.836 630.939 497.371 Q631.648 497.892 633.789 498.369 L634.701 498.572 Q637.536 499.18 638.723 500.294 Q639.923 501.393 639.923 503.375 Q639.923 505.632 638.129 506.949 Q636.35 508.265 633.225 508.265 Q631.923 508.265 630.505 508.005 Q629.102 507.759 627.539 507.252 L627.539 504.504 Q629.015 505.27 630.447 505.661 Q631.879 506.037 633.283 506.037 Q635.164 506.037 636.176 505.401 Q637.189 504.75 637.189 503.578 Q637.189 502.493 636.451 501.914 Q635.728 501.335 633.254 500.8 L632.328 500.583 Q629.854 500.062 628.755 498.992 Q627.655 497.906 627.655 496.026 Q627.655 493.74 629.275 492.496 Q630.896 491.251 633.876 491.251 Q635.352 491.251 636.654 491.468 Q637.956 491.685 639.055 492.119 Z" fill="#000000" fill-rule="evenodd" fill-opacity="1" /><path clip-path="url(#clip710)" d="M 0 0 M645.349 487.041 L645.349 491.642 L650.832 491.642 L650.832 493.711 L645.349 493.711 L645.349 502.507 Q645.349 504.489 645.884 505.053 Q646.434 505.618 648.098 505.618 L650.832 505.618 L650.832 507.846 L648.098 507.846 Q645.016 507.846 643.844 506.703 Q642.672 505.545 642.672 502.507 L642.672 493.711 L640.719 493.711 L640.719 491.642 L642.672 491.642 L642.672 487.041 L645.349 487.041 Z" fill="#000000" fill-rule="evenodd" fill-opacity="1" /><path clip-path="url(#clip710)" d="M 0 0 M663.014 494.13 Q662.565 493.87 662.03 493.754 Q661.509 493.624 660.872 493.624 Q658.615 493.624 657.4 495.1 Q656.199 496.561 656.199 499.31 L656.199 507.846 L653.523 507.846 L653.523 491.642 L656.199 491.642 L656.199 494.159 Q657.038 492.684 658.384 491.975 Q659.729 491.251 661.654 491.251 Q661.929 491.251 662.261 491.295 Q662.594 491.324 662.999 491.396 L663.014 494.13 Z" fill="#000000" fill-rule="evenodd" fill-opacity="1" /><path clip-path="url(#clip710)" d="M 0 0 M673.17 499.7 Q669.944 499.7 668.699 500.438 Q667.455 501.176 667.455 502.956 Q667.455 504.373 668.381 505.213 Q669.321 506.037 670.927 506.037 Q673.141 506.037 674.472 504.475 Q675.817 502.898 675.817 500.294 L675.817 499.7 L673.17 499.7 M678.479 498.601 L678.479 507.846 L675.817 507.846 L675.817 505.386 Q674.906 506.862 673.546 507.571 Q672.186 508.265 670.218 508.265 Q667.73 508.265 666.254 506.876 Q664.793 505.473 664.793 503.129 Q664.793 500.395 666.616 499.006 Q668.453 497.617 672.085 497.617 L675.817 497.617 L675.817 497.357 Q675.817 495.519 674.602 494.521 Q673.401 493.508 671.217 493.508 Q669.828 493.508 668.511 493.841 Q667.195 494.174 665.979 494.839 L665.979 492.38 Q667.441 491.816 668.815 491.541 Q670.189 491.251 671.492 491.251 Q675.007 491.251 676.743 493.074 Q678.479 494.897 678.479 498.601 Z" fill="#000000" fill-rule="evenodd" fill-opacity="1" /><path clip-path="url(#clip710)" d="M 0 0 M681.272 491.642 L683.934 491.642 L683.934 507.846 L681.272 507.846 L681.272 491.642 M681.272 485.334 L683.934 485.334 L683.934 488.705 L681.272 488.705 L681.272 485.334 Z" fill="#000000" fill-rule="evenodd" fill-opacity="1" /><path clip-path="url(#clip710)" d="M 0 0 M700.195 498.066 L700.195 507.846 L697.533 507.846 L697.533 498.152 Q697.533 495.852 696.636 494.709 Q695.739 493.566 693.945 493.566 Q691.789 493.566 690.545 494.941 Q689.301 496.315 689.301 498.688 L689.301 507.846 L686.625 507.846 L686.625 491.642 L689.301 491.642 L689.301 494.159 Q690.256 492.698 691.544 491.975 Q692.846 491.251 694.538 491.251 Q697.331 491.251 698.763 492.988 Q700.195 494.709 700.195 498.066 Z" fill="#000000" fill-rule="evenodd" fill-opacity="1" /><path clip-path="url(#clip710)" d="M 0 0 M705.62 487.041 L705.62 491.642 L711.104 491.642 L711.104 493.711 L705.62 493.711 L705.62 502.507 Q705.62 504.489 706.156 505.053 Q706.705 505.618 708.369 505.618 L711.104 505.618 L711.104 507.846 L708.369 507.846 Q705.288 507.846 704.116 506.703 Q702.944 505.545 702.944 502.507 L702.944 493.711 L700.991 493.711 L700.991 491.642 L702.944 491.642 L702.944 487.041 L705.62 487.041 Z" fill="#000000" fill-rule="evenodd" fill-opacity="1" /><path clip-path="url(#clip710)" d="M 0 0 M724.226 492.119 L724.226 494.637 Q723.097 494.058 721.882 493.769 Q720.667 493.479 719.365 493.479 Q717.383 493.479 716.384 494.087 Q715.4 494.695 715.4 495.91 Q715.4 496.836 716.109 497.371 Q716.818 497.892 718.959 498.369 L719.871 498.572 Q722.707 499.18 723.893 500.294 Q725.094 501.393 725.094 503.375 Q725.094 505.632 723.3 506.949 Q721.52 508.265 718.395 508.265 Q717.093 508.265 715.675 508.005 Q714.272 507.759 712.709 507.252 L712.709 504.504 Q714.185 505.27 715.617 505.661 Q717.05 506.037 718.453 506.037 Q720.334 506.037 721.347 505.401 Q722.359 504.75 722.359 503.578 Q722.359 502.493 721.621 501.914 Q720.898 501.335 718.424 500.8 L717.498 500.583 Q715.024 500.062 713.925 498.992 Q712.825 497.906 712.825 496.026 Q712.825 493.74 714.446 492.496 Q716.066 491.251 719.046 491.251 Q720.522 491.251 721.824 491.468 Q723.126 491.685 724.226 492.119 Z" fill="#000000" fill-rule="evenodd" fill-opacity="1" /><path clip-path="url(#clip710)" d="M 0 0 M1271.24 1374.07 L1271.24 1382.18 L1274.91 1382.18 Q1276.95 1382.18 1278.07 1381.13 Q1279.18 1380.07 1279.18 1378.12 Q1279.18 1376.18 1278.07 1375.12 Q1276.95 1374.07 1274.91 1374.07 L1271.24 1374.07 M1268.31 1371.66 L1274.91 1371.66 Q1278.54 1371.66 1280.39 1373.31 Q1282.26 1374.95 1282.26 1378.12 Q1282.26 1381.31 1280.39 1382.95 Q1278.54 1384.58 1274.91 1384.58 L1271.24 1384.58 L1271.24 1393.26 L1268.31 1393.26 L1268.31 1371.66 Z" fill="#000000" fill-rule="evenodd" fill-opacity="1" /><path clip-path="url(#clip710)" d="M 0 0 M1297.86 1384.5 L1297.86 1385.8 L1285.62 1385.8 Q1285.79 1388.55 1287.27 1389.99 Q1288.76 1391.43 1291.4 1391.43 Q1292.94 1391.43 1294.37 1391.05 Q1295.82 1390.67 1297.23 1389.92 L1297.23 1392.44 Q1295.8 1393.05 1294.3 1393.36 Q1292.79 1393.68 1291.25 1393.68 Q1287.37 1393.68 1285.1 1391.43 Q1282.84 1389.17 1282.84 1385.32 Q1282.84 1381.34 1284.98 1379.01 Q1287.14 1376.67 1290.78 1376.67 Q1294.05 1376.67 1295.95 1378.78 Q1297.86 1380.88 1297.86 1384.5 M1295.2 1383.72 Q1295.17 1381.53 1293.97 1380.23 Q1292.78 1378.93 1290.81 1378.93 Q1288.58 1378.93 1287.24 1380.19 Q1285.91 1381.44 1285.7 1383.73 L1295.2 1383.72 Z" fill="#000000" fill-rule="evenodd" fill-opacity="1" /><path clip-path="url(#clip710)" d="M 0 0 M1310.04 1379.55 Q1309.59 1379.29 1309.05 1379.17 Q1308.53 1379.04 1307.9 1379.04 Q1305.64 1379.04 1304.43 1380.52 Q1303.22 1381.98 1303.22 1384.73 L1303.22 1393.26 L1300.55 1393.26 L1300.55 1377.06 L1303.22 1377.06 L1303.22 1379.58 Q1304.06 1378.1 1305.41 1377.39 Q1306.75 1376.67 1308.68 1376.67 Q1308.95 1376.67 1309.29 1376.71 Q1309.62 1376.74 1310.02 1376.81 L1310.04 1379.55 Z" fill="#000000" fill-rule="evenodd" fill-opacity="1" /><path clip-path="url(#clip710)" d="M 0 0 M1321.03 1370.75 L1321.03 1372.97 L1318.49 1372.97 Q1317.06 1372.97 1316.49 1373.54 Q1315.94 1374.12 1315.94 1375.63 L1315.94 1377.06 L1320.33 1377.06 L1320.33 1379.13 L1315.94 1379.13 L1315.94 1393.26 L1313.26 1393.26 L1313.26 1379.13 L1310.72 1379.13 L1310.72 1377.06 L1313.26 1377.06 L1313.26 1375.93 Q1313.26 1373.23 1314.52 1372 Q1315.78 1370.75 1318.52 1370.75 L1321.03 1370.75 Z" fill="#000000" fill-rule="evenodd" fill-opacity="1" /><path clip-path="url(#clip710)" d="M 0 0 M1330.11 1378.93 Q1327.96 1378.93 1326.72 1380.6 Q1325.48 1382.27 1325.48 1385.18 Q1325.48 1388.08 1326.71 1389.76 Q1327.95 1391.43 1330.11 1391.43 Q1332.23 1391.43 1333.48 1389.75 Q1334.72 1388.07 1334.72 1385.18 Q1334.72 1382.3 1333.48 1380.62 Q1332.23 1378.93 1330.11 1378.93 M1330.11 1376.67 Q1333.58 1376.67 1335.56 1378.93 Q1337.54 1381.18 1337.54 1385.18 Q1337.54 1389.15 1335.56 1391.43 Q1333.58 1393.68 1330.11 1393.68 Q1326.62 1393.68 1324.64 1391.43 Q1322.67 1389.15 1322.67 1385.18 Q1322.67 1381.18 1324.64 1378.93 Q1326.62 1376.67 1330.11 1376.67 Z" fill="#000000" fill-rule="evenodd" fill-opacity="1" /><path clip-path="url(#clip710)" d="M 0 0 M1349.72 1379.55 Q1349.27 1379.29 1348.74 1379.17 Q1348.22 1379.04 1347.58 1379.04 Q1345.32 1379.04 1344.11 1380.52 Q1342.91 1381.98 1342.91 1384.73 L1342.91 1393.26 L1340.23 1393.26 L1340.23 1377.06 L1342.91 1377.06 L1342.91 1379.58 Q1343.75 1378.1 1345.09 1377.39 Q1346.44 1376.67 1348.36 1376.67 Q1348.64 1376.67 1348.97 1376.71 Q1349.3 1376.74 1349.71 1376.81 L1349.72 1379.55 Z" fill="#000000" fill-rule="evenodd" fill-opacity="1" /><path clip-path="url(#clip710)" d="M 0 0 M1364.61 1380.17 Q1365.61 1378.38 1367 1377.52 Q1368.39 1376.67 1370.27 1376.67 Q1372.8 1376.67 1374.17 1378.45 Q1375.55 1380.21 1375.55 1383.48 L1375.55 1393.26 L1372.87 1393.26 L1372.87 1383.57 Q1372.87 1381.24 1372.05 1380.11 Q1371.22 1378.98 1369.53 1378.98 Q1367.46 1378.98 1366.26 1380.36 Q1365.06 1381.73 1365.06 1384.11 L1365.06 1393.26 L1362.38 1393.26 L1362.38 1383.57 Q1362.38 1381.23 1361.56 1380.11 Q1360.73 1378.98 1359.01 1378.98 Q1356.97 1378.98 1355.77 1380.37 Q1354.57 1381.75 1354.57 1384.11 L1354.57 1393.26 L1351.89 1393.26 L1351.89 1377.06 L1354.57 1377.06 L1354.57 1379.58 Q1355.48 1378.09 1356.75 1377.38 Q1358.03 1376.67 1359.78 1376.67 Q1361.54 1376.67 1362.77 1377.57 Q1364.02 1378.46 1364.61 1380.17 Z" fill="#000000" fill-rule="evenodd" fill-opacity="1" /><path clip-path="url(#clip710)" d="M 0 0 M1385.7 1385.12 Q1382.48 1385.12 1381.23 1385.86 Q1379.99 1386.59 1379.99 1388.37 Q1379.99 1389.79 1380.92 1390.63 Q1381.86 1391.46 1383.46 1391.46 Q1385.67 1391.46 1387.01 1389.89 Q1388.35 1388.32 1388.35 1385.71 L1388.35 1385.12 L1385.7 1385.12 M1391.01 1384.02 L1391.01 1393.26 L1388.35 1393.26 L1388.35 1390.8 Q1387.44 1392.28 1386.08 1392.99 Q1384.72 1393.68 1382.75 1393.68 Q1380.26 1393.68 1378.79 1392.29 Q1377.33 1390.89 1377.33 1388.55 Q1377.33 1385.81 1379.15 1384.42 Q1380.99 1383.04 1384.62 1383.04 L1388.35 1383.04 L1388.35 1382.77 Q1388.35 1380.94 1387.14 1379.94 Q1385.94 1378.93 1383.75 1378.93 Q1382.36 1378.93 1381.05 1379.26 Q1379.73 1379.59 1378.51 1380.26 L1378.51 1377.8 Q1379.97 1377.23 1381.35 1376.96 Q1382.72 1376.67 1384.03 1376.67 Q1387.54 1376.67 1389.28 1378.49 Q1391.01 1380.32 1391.01 1384.02 Z" fill="#000000" fill-rule="evenodd" fill-opacity="1" /><path clip-path="url(#clip710)" d="M 0 0 M1407.27 1383.48 L1407.27 1393.26 L1404.61 1393.26 L1404.61 1383.57 Q1404.61 1381.27 1403.72 1380.13 Q1402.82 1378.98 1401.02 1378.98 Q1398.87 1378.98 1397.63 1380.36 Q1396.38 1381.73 1396.38 1384.11 L1396.38 1393.26 L1393.7 1393.26 L1393.7 1377.06 L1396.38 1377.06 L1396.38 1379.58 Q1397.34 1378.12 1398.62 1377.39 Q1399.93 1376.67 1401.62 1376.67 Q1404.41 1376.67 1405.84 1378.41 Q1407.27 1380.13 1407.27 1383.48 Z" fill="#000000" fill-rule="evenodd" fill-opacity="1" /><path clip-path="url(#clip710)" d="M 0 0 M1421.73 1377.68 L1421.73 1380.17 Q1420.6 1379.55 1419.46 1379.24 Q1418.33 1378.93 1417.17 1378.93 Q1414.58 1378.93 1413.15 1380.58 Q1411.72 1382.21 1411.72 1385.18 Q1411.72 1388.14 1413.15 1389.79 Q1414.58 1391.43 1417.17 1391.43 Q1418.33 1391.43 1419.46 1391.12 Q1420.6 1390.8 1421.73 1390.18 L1421.73 1392.64 Q1420.61 1393.16 1419.41 1393.42 Q1418.23 1393.68 1416.88 1393.68 Q1413.22 1393.68 1411.07 1391.38 Q1408.91 1389.08 1408.91 1385.18 Q1408.91 1381.21 1411.08 1378.94 Q1413.26 1376.67 1417.05 1376.67 Q1418.28 1376.67 1419.46 1376.93 Q1420.63 1377.18 1421.73 1377.68 Z" fill="#000000" fill-rule="evenodd" fill-opacity="1" /><path clip-path="url(#clip710)" d="M 0 0 M1438.38 1384.5 L1438.38 1385.8 L1426.14 1385.8 Q1426.31 1388.55 1427.79 1389.99 Q1429.28 1391.43 1431.93 1391.43 Q1433.46 1391.43 1434.89 1391.05 Q1436.34 1390.67 1437.76 1389.92 L1437.76 1392.44 Q1436.33 1393.05 1434.82 1393.36 Q1433.32 1393.68 1431.77 1393.68 Q1427.89 1393.68 1425.62 1391.43 Q1423.36 1389.17 1423.36 1385.32 Q1423.36 1381.34 1425.5 1379.01 Q1427.66 1376.67 1431.31 1376.67 Q1434.58 1376.67 1436.47 1378.78 Q1438.38 1380.88 1438.38 1384.5 M1435.72 1383.72 Q1435.69 1381.53 1434.49 1380.23 Q1433.3 1378.93 1431.33 1378.93 Q1429.11 1378.93 1427.76 1380.19 Q1426.43 1381.44 1426.23 1383.73 L1435.72 1383.72 Z" fill="#000000" fill-rule="evenodd" fill-opacity="1" /><path clip-path="url(#clip710)" d="M 0 0 M1453.48 1398.18 L1453.48 1400.25 L1438.09 1400.25 L1438.09 1398.18 L1453.48 1398.18 Z" fill="#000000" fill-rule="evenodd" fill-opacity="1" /><path clip-path="url(#clip710)" d="M 0 0 M1459.31 1374.07 L1459.31 1382.18 L1462.99 1382.18 Q1465.03 1382.18 1466.14 1381.13 Q1467.26 1380.07 1467.26 1378.12 Q1467.26 1376.18 1466.14 1375.12 Q1465.03 1374.07 1462.99 1374.07 L1459.31 1374.07 M1456.39 1371.66 L1462.99 1371.66 Q1466.62 1371.66 1468.47 1373.31 Q1470.34 1374.95 1470.34 1378.12 Q1470.34 1381.31 1468.47 1382.95 Q1466.62 1384.58 1462.99 1384.58 L1459.31 1384.58 L1459.31 1393.26 L1456.39 1393.26 L1456.39 1371.66 Z" fill="#000000" fill-rule="evenodd" fill-opacity="1" /><path clip-path="url(#clip710)" d="M 0 0 M1479.16 1385.12 Q1475.94 1385.12 1474.69 1385.86 Q1473.45 1386.59 1473.45 1388.37 Q1473.45 1389.79 1474.38 1390.63 Q1475.32 1391.46 1476.92 1391.46 Q1479.14 1391.46 1480.47 1389.89 Q1481.81 1388.32 1481.81 1385.71 L1481.81 1385.12 L1479.16 1385.12 M1484.47 1384.02 L1484.47 1393.26 L1481.81 1393.26 L1481.81 1390.8 Q1480.9 1392.28 1479.54 1392.99 Q1478.18 1393.68 1476.21 1393.68 Q1473.72 1393.68 1472.25 1392.29 Q1470.79 1390.89 1470.79 1388.55 Q1470.79 1385.81 1472.61 1384.42 Q1474.45 1383.04 1478.08 1383.04 L1481.81 1383.04 L1481.81 1382.77 Q1481.81 1380.94 1480.6 1379.94 Q1479.4 1378.93 1477.21 1378.93 Q1475.82 1378.93 1474.51 1379.26 Q1473.19 1379.59 1471.97 1380.26 L1471.97 1377.8 Q1473.43 1377.23 1474.81 1376.96 Q1476.18 1376.67 1477.49 1376.67 Q1481 1376.67 1482.74 1378.49 Q1484.47 1380.32 1484.47 1384.02 Z" fill="#000000" fill-rule="evenodd" fill-opacity="1" /><path clip-path="url(#clip710)" d="M 0 0 M1496.66 1379.55 Q1496.21 1379.29 1495.67 1379.17 Q1495.15 1379.04 1494.51 1379.04 Q1492.26 1379.04 1491.04 1380.52 Q1489.84 1381.98 1489.84 1384.73 L1489.84 1393.26 L1487.16 1393.26 L1487.16 1377.06 L1489.84 1377.06 L1489.84 1379.58 Q1490.68 1378.1 1492.03 1377.39 Q1493.37 1376.67 1495.3 1376.67 Q1495.57 1376.67 1495.9 1376.71 Q1496.24 1376.74 1496.64 1376.81 L1496.66 1379.55 Z" fill="#000000" fill-rule="evenodd" fill-opacity="1" /><path clip-path="url(#clip710)" d="M 0 0 M1506.81 1385.12 Q1503.59 1385.12 1502.34 1385.86 Q1501.1 1386.59 1501.1 1388.37 Q1501.1 1389.79 1502.02 1390.63 Q1502.96 1391.46 1504.57 1391.46 Q1506.78 1391.46 1508.11 1389.89 Q1509.46 1388.32 1509.46 1385.71 L1509.46 1385.12 L1506.81 1385.12 M1512.12 1384.02 L1512.12 1393.26 L1509.46 1393.26 L1509.46 1390.8 Q1508.55 1392.28 1507.19 1392.99 Q1505.83 1393.68 1503.86 1393.68 Q1501.37 1393.68 1499.9 1392.29 Q1498.43 1390.89 1498.43 1388.55 Q1498.43 1385.81 1500.26 1384.42 Q1502.09 1383.04 1505.73 1383.04 L1509.46 1383.04 L1509.46 1382.77 Q1509.46 1380.94 1508.24 1379.94 Q1507.04 1378.93 1504.86 1378.93 Q1503.47 1378.93 1502.15 1379.26 Q1500.84 1379.59 1499.62 1380.26 L1499.62 1377.8 Q1501.08 1377.23 1502.46 1376.96 Q1503.83 1376.67 1505.13 1376.67 Q1508.65 1376.67 1510.38 1378.49 Q1512.12 1380.32 1512.12 1384.02 Z" fill="#000000" fill-rule="evenodd" fill-opacity="1" /><path clip-path="url(#clip710)" d="M 0 0 M1527.53 1380.17 Q1528.53 1378.38 1529.92 1377.52 Q1531.3 1376.67 1533.19 1376.67 Q1535.72 1376.67 1537.09 1378.45 Q1538.47 1380.21 1538.47 1383.48 L1538.47 1393.26 L1535.79 1393.26 L1535.79 1383.57 Q1535.79 1381.24 1534.97 1380.11 Q1534.14 1378.98 1532.45 1378.98 Q1530.38 1378.98 1529.18 1380.36 Q1527.98 1381.73 1527.98 1384.11 L1527.98 1393.26 L1525.3 1393.26 L1525.3 1383.57 Q1525.3 1381.23 1524.48 1380.11 Q1523.65 1378.98 1521.93 1378.98 Q1519.89 1378.98 1518.69 1380.37 Q1517.49 1381.75 1517.49 1384.11 L1517.49 1393.26 L1514.81 1393.26 L1514.81 1377.06 L1517.49 1377.06 L1517.49 1379.58 Q1518.4 1378.09 1519.67 1377.38 Q1520.95 1376.67 1522.7 1376.67 Q1524.46 1376.67 1525.69 1377.57 Q1526.94 1378.46 1527.53 1380.17 Z" fill="#000000" fill-rule="evenodd" fill-opacity="1" /><path clip-path="url(#clip710)" d="M 0 0 M1555.12 1384.5 L1555.12 1385.8 L1542.88 1385.8 Q1543.05 1388.55 1544.53 1389.99 Q1546.02 1391.43 1548.67 1391.43 Q1550.2 1391.43 1551.63 1391.05 Q1553.08 1390.67 1554.5 1389.92 L1554.5 1392.44 Q1553.06 1393.05 1551.56 1393.36 Q1550.05 1393.68 1548.51 1393.68 Q1544.63 1393.68 1542.36 1391.43 Q1540.1 1389.17 1540.1 1385.32 Q1540.1 1381.34 1542.24 1379.01 Q1544.4 1376.67 1548.04 1376.67 Q1551.31 1376.67 1553.21 1378.78 Q1555.12 1380.88 1555.12 1384.5 M1552.46 1383.72 Q1552.43 1381.53 1551.23 1380.23 Q1550.04 1378.93 1548.07 1378.93 Q1545.84 1378.93 1544.5 1380.19 Q1543.17 1381.44 1542.97 1383.73 L1552.46 1383.72 Z" fill="#000000" fill-rule="evenodd" fill-opacity="1" /><path clip-path="url(#clip710)" d="M 0 0 M1560.54 1372.46 L1560.54 1377.06 L1566.03 1377.06 L1566.03 1379.13 L1560.54 1379.13 L1560.54 1387.93 Q1560.54 1389.91 1561.08 1390.47 Q1561.63 1391.04 1563.29 1391.04 L1566.03 1391.04 L1566.03 1393.26 L1563.29 1393.26 Q1560.21 1393.26 1559.04 1392.12 Q1557.87 1390.96 1557.87 1387.93 L1557.87 1379.13 L1555.91 1379.13 L1555.91 1377.06 L1557.87 1377.06 L1557.87 1372.46 L1560.54 1372.46 Z" fill="#000000" fill-rule="evenodd" fill-opacity="1" /><path clip-path="url(#clip710)" d="M 0 0 M1582.68 1384.5 L1582.68 1385.8 L1570.44 1385.8 Q1570.61 1388.55 1572.09 1389.99 Q1573.58 1391.43 1576.23 1391.43 Q1577.76 1391.43 1579.19 1391.05 Q1580.64 1390.67 1582.06 1389.92 L1582.06 1392.44 Q1580.62 1393.05 1579.12 1393.36 Q1577.62 1393.68 1576.07 1393.68 Q1572.19 1393.68 1569.92 1391.43 Q1567.66 1389.17 1567.66 1385.32 Q1567.66 1381.34 1569.8 1379.01 Q1571.96 1376.67 1575.6 1376.67 Q1578.87 1376.67 1580.77 1378.78 Q1582.68 1380.88 1582.68 1384.5 M1580.02 1383.72 Q1579.99 1381.53 1578.79 1380.23 Q1577.6 1378.93 1575.63 1378.93 Q1573.41 1378.93 1572.06 1380.19 Q1570.73 1381.44 1570.53 1383.73 L1580.02 1383.72 Z" fill="#000000" fill-rule="evenodd" fill-opacity="1" /><path clip-path="url(#clip710)" d="M 0 0 M1594.86 1379.55 Q1594.41 1379.29 1593.88 1379.17 Q1593.36 1379.04 1592.72 1379.04 Q1590.46 1379.04 1589.25 1380.52 Q1588.05 1381.98 1588.05 1384.73 L1588.05 1393.26 L1585.37 1393.26 L1585.37 1377.06 L1588.05 1377.06 L1588.05 1379.58 Q1588.89 1378.1 1590.23 1377.39 Q1591.58 1376.67 1593.5 1376.67 Q1593.78 1376.67 1594.11 1376.71 Q1594.44 1376.74 1594.85 1376.81 L1594.86 1379.55 Z" fill="#000000" fill-rule="evenodd" fill-opacity="1" /><path clip-path="url(#clip710)" d="M 0 0 M1607.98 1377.54 L1607.98 1380.05 Q1606.85 1379.48 1605.64 1379.19 Q1604.42 1378.9 1603.12 1378.9 Q1601.14 1378.9 1600.14 1379.51 Q1599.16 1380.11 1599.16 1381.33 Q1599.16 1382.25 1599.87 1382.79 Q1600.58 1383.31 1602.72 1383.79 L1603.63 1383.99 Q1606.46 1384.6 1607.65 1385.71 Q1608.85 1386.81 1608.85 1388.79 Q1608.85 1391.05 1607.06 1392.37 Q1605.28 1393.68 1602.15 1393.68 Q1600.85 1393.68 1599.43 1393.42 Q1598.03 1393.18 1596.47 1392.67 L1596.47 1389.92 Q1597.94 1390.69 1599.37 1391.08 Q1600.81 1391.46 1602.21 1391.46 Q1604.09 1391.46 1605.1 1390.82 Q1606.12 1390.17 1606.12 1389 Q1606.12 1387.91 1605.38 1387.33 Q1604.66 1386.75 1602.18 1386.22 L1601.26 1386 Q1598.78 1385.48 1597.68 1384.41 Q1596.58 1383.32 1596.58 1381.44 Q1596.58 1379.16 1598.2 1377.91 Q1599.82 1376.67 1602.8 1376.67 Q1604.28 1376.67 1605.58 1376.89 Q1606.88 1377.1 1607.98 1377.54 Z" fill="#000000" fill-rule="evenodd" fill-opacity="1" /><path clip-path="url(#clip710)" d="M 0 0 M764.008 1136.43 L764.008 1139.51 Q762.533 1138.14 760.854 1137.46 Q759.191 1136.78 757.31 1136.78 Q753.606 1136.78 751.639 1139.05 Q749.671 1141.3 749.671 1145.59 Q749.671 1149.85 751.639 1152.13 Q753.606 1154.38 757.31 1154.38 Q759.191 1154.38 760.854 1153.7 Q762.533 1153.02 764.008 1151.65 L764.008 1154.7 Q762.475 1155.74 760.753 1156.26 Q759.046 1156.78 757.136 1156.78 Q752.232 1156.78 749.411 1153.79 Q746.589 1150.78 746.589 1145.59 Q746.589 1140.38 749.411 1137.38 Q752.232 1134.37 757.136 1134.37 Q759.075 1134.37 760.782 1134.89 Q762.504 1135.4 764.008 1136.43 Z" fill="#000000" fill-rule="evenodd" fill-opacity="1" /><path clip-path="url(#clip710)" d="M 0 0 M766.801 1133.85 L769.463 1133.85 L769.463 1156.36 L766.801 1156.36 L766.801 1133.85 Z" fill="#000000" fill-rule="evenodd" fill-opacity="1" /><path clip-path="url(#clip710)" d="M 0 0 M772.255 1140.16 L774.917 1140.16 L774.917 1156.36 L772.255 1156.36 L772.255 1140.16 M772.255 1133.85 L774.917 1133.85 L774.917 1137.22 L772.255 1137.22 L772.255 1133.85 Z" fill="#000000" fill-rule="evenodd" fill-opacity="1" /><path clip-path="url(#clip710)" d="M 0 0 M791.569 1147.6 L791.569 1148.9 L779.329 1148.9 Q779.503 1151.65 780.979 1153.09 Q782.469 1154.53 785.116 1154.53 Q786.65 1154.53 788.082 1154.15 Q789.529 1153.77 790.947 1153.02 L790.947 1155.54 Q789.515 1156.15 788.01 1156.47 Q786.505 1156.78 784.957 1156.78 Q781.08 1156.78 778.809 1154.53 Q776.552 1152.27 776.552 1148.42 Q776.552 1144.44 778.693 1142.11 Q780.848 1139.77 784.494 1139.77 Q787.764 1139.77 789.659 1141.88 Q791.569 1143.98 791.569 1147.6 M788.907 1146.82 Q788.878 1144.63 787.677 1143.33 Q786.491 1142.03 784.523 1142.03 Q782.295 1142.03 780.95 1143.29 Q779.619 1144.54 779.416 1146.83 L788.907 1146.82 Z" fill="#000000" fill-rule="evenodd" fill-opacity="1" /><path clip-path="url(#clip710)" d="M 0 0 M807.83 1146.58 L807.83 1156.36 L805.168 1156.36 L805.168 1146.67 Q805.168 1144.37 804.271 1143.23 Q803.374 1142.09 801.58 1142.09 Q799.425 1142.09 798.181 1143.46 Q796.936 1144.83 796.936 1147.21 L796.936 1156.36 L794.26 1156.36 L794.26 1140.16 L796.936 1140.16 L796.936 1142.68 Q797.891 1141.22 799.179 1140.49 Q800.481 1139.77 802.174 1139.77 Q804.966 1139.77 806.398 1141.51 Q807.83 1143.23 807.83 1146.58 Z" fill="#000000" fill-rule="evenodd" fill-opacity="1" /><path clip-path="url(#clip710)" d="M 0 0 M813.256 1135.56 L813.256 1140.16 L818.739 1140.16 L818.739 1142.23 L813.256 1142.23 L813.256 1151.03 Q813.256 1153.01 813.791 1153.57 Q814.341 1154.14 816.005 1154.14 L818.739 1154.14 L818.739 1156.36 L816.005 1156.36 Q812.923 1156.36 811.751 1155.22 Q810.579 1154.06 810.579 1151.03 L810.579 1142.23 L808.626 1142.23 L808.626 1140.16 L810.579 1140.16 L810.579 1135.56 L813.256 1135.56 Z" fill="#000000" fill-rule="evenodd" fill-opacity="1" /><path clip-path="url(#clip710)" d="M 0 0 M833.843 1161.28 L833.843 1163.35 L818.45 1163.35 L818.45 1161.28 L833.843 1161.28 Z" fill="#000000" fill-rule="evenodd" fill-opacity="1" /><path clip-path="url(#clip710)" d="M 0 0 M843.999 1148.22 Q840.773 1148.22 839.529 1148.96 Q838.285 1149.69 838.285 1151.47 Q838.285 1152.89 839.21 1153.73 Q840.151 1154.56 841.757 1154.56 Q843.97 1154.56 845.301 1152.99 Q846.647 1151.42 846.647 1148.81 L846.647 1148.22 L843.999 1148.22 M849.309 1147.12 L849.309 1156.36 L846.647 1156.36 L846.647 1153.91 Q845.735 1155.38 844.375 1156.09 Q843.015 1156.78 841.048 1156.78 Q838.559 1156.78 837.084 1155.4 Q835.622 1153.99 835.622 1151.65 Q835.622 1148.91 837.445 1147.52 Q839.283 1146.14 842.914 1146.14 L846.647 1146.14 L846.647 1145.88 Q846.647 1144.04 845.431 1143.04 Q844.231 1142.03 842.046 1142.03 Q840.657 1142.03 839.341 1142.36 Q838.024 1142.69 836.809 1143.36 L836.809 1140.9 Q838.27 1140.33 839.644 1140.06 Q841.019 1139.77 842.321 1139.77 Q845.837 1139.77 847.573 1141.59 Q849.309 1143.42 849.309 1147.12 Z" fill="#000000" fill-rule="evenodd" fill-opacity="1" /><path clip-path="url(#clip710)" d="M 0 0 M865.57 1146.58 L865.57 1156.36 L862.908 1156.36 L862.908 1146.67 Q862.908 1144.37 862.011 1143.23 Q861.114 1142.09 859.32 1142.09 Q857.165 1142.09 855.92 1143.46 Q854.676 1144.83 854.676 1147.21 L854.676 1156.36 L852 1156.36 L852 1140.16 L854.676 1140.16 L854.676 1142.68 Q855.631 1141.22 856.919 1140.49 Q858.221 1139.77 859.913 1139.77 Q862.706 1139.77 864.138 1141.51 Q865.57 1143.23 865.57 1146.58 Z" fill="#000000" fill-rule="evenodd" fill-opacity="1" /><path clip-path="url(#clip710)" d="M 0 0 M879.025 1142.62 L879.025 1133.85 L881.687 1133.85 L881.687 1156.36 L879.025 1156.36 L879.025 1153.93 Q878.186 1155.38 876.898 1156.09 Q875.625 1156.78 873.831 1156.78 Q870.894 1156.78 869.042 1154.44 Q867.205 1152.1 867.205 1148.28 Q867.205 1144.46 869.042 1142.11 Q870.894 1139.77 873.831 1139.77 Q875.625 1139.77 876.898 1140.48 Q878.186 1141.17 879.025 1142.62 M869.954 1148.28 Q869.954 1151.21 871.155 1152.89 Q872.37 1154.56 874.482 1154.56 Q876.594 1154.56 877.81 1152.89 Q879.025 1151.21 879.025 1148.28 Q879.025 1145.34 877.81 1143.68 Q876.594 1142 874.482 1142 Q872.37 1142 871.155 1143.68 Q869.954 1145.34 869.954 1148.28 Z" fill="#000000" fill-rule="evenodd" fill-opacity="1" /><path clip-path="url(#clip710)" d="M 0 0 M896.791 1161.28 L896.791 1163.35 L881.398 1163.35 L881.398 1161.28 L896.791 1161.28 Z" fill="#000000" fill-rule="evenodd" fill-opacity="1" /><path clip-path="url(#clip710)" d="M 0 0 M915.874 1136.43 L915.874 1139.51 Q914.398 1138.14 912.72 1137.46 Q911.056 1136.78 909.175 1136.78 Q905.472 1136.78 903.504 1139.05 Q901.536 1141.3 901.536 1145.59 Q901.536 1149.85 903.504 1152.13 Q905.472 1154.38 909.175 1154.38 Q911.056 1154.38 912.72 1153.7 Q914.398 1153.02 915.874 1151.65 L915.874 1154.7 Q914.34 1155.74 912.619 1156.26 Q910.911 1156.78 909.002 1156.78 Q904.097 1156.78 901.276 1153.79 Q898.455 1150.78 898.455 1145.59 Q898.455 1140.38 901.276 1137.38 Q904.097 1134.37 909.002 1134.37 Q910.94 1134.37 912.648 1134.89 Q914.369 1135.4 915.874 1136.43 Z" fill="#000000" fill-rule="evenodd" fill-opacity="1" /><path clip-path="url(#clip710)" d="M 0 0 M924.945 1142.03 Q922.804 1142.03 921.56 1143.71 Q920.315 1145.37 920.315 1148.28 Q920.315 1151.19 921.545 1152.86 Q922.789 1154.53 924.945 1154.53 Q927.072 1154.53 928.316 1152.85 Q929.56 1151.17 929.56 1148.28 Q929.56 1145.4 928.316 1143.72 Q927.072 1142.03 924.945 1142.03 M924.945 1139.77 Q928.417 1139.77 930.399 1142.03 Q932.381 1144.28 932.381 1148.28 Q932.381 1152.26 930.399 1154.53 Q928.417 1156.78 924.945 1156.78 Q921.458 1156.78 919.476 1154.53 Q917.509 1152.26 917.509 1148.28 Q917.509 1144.28 919.476 1142.03 Q921.458 1139.77 924.945 1139.77 Z" fill="#000000" fill-rule="evenodd" fill-opacity="1" /><path clip-path="url(#clip710)" d="M 0 0 M948.643 1146.58 L948.643 1156.36 L945.981 1156.36 L945.981 1146.67 Q945.981 1144.37 945.084 1143.23 Q944.187 1142.09 942.393 1142.09 Q940.237 1142.09 938.993 1143.46 Q937.749 1144.83 937.749 1147.21 L937.749 1156.36 L935.072 1156.36 L935.072 1140.16 L937.749 1140.16 L937.749 1142.68 Q938.704 1141.22 939.991 1140.49 Q941.293 1139.77 942.986 1139.77 Q945.778 1139.77 947.21 1141.51 Q948.643 1143.23 948.643 1146.58 Z" fill="#000000" fill-rule="evenodd" fill-opacity="1" /><path clip-path="url(#clip710)" d="M 0 0 M961.765 1140.64 L961.765 1143.16 Q960.636 1142.58 959.421 1142.29 Q958.206 1142 956.904 1142 Q954.922 1142 953.923 1142.61 Q952.94 1143.21 952.94 1144.43 Q952.94 1145.35 953.648 1145.89 Q954.357 1146.41 956.499 1146.89 L957.41 1147.09 Q960.246 1147.7 961.432 1148.81 Q962.633 1149.91 962.633 1151.89 Q962.633 1154.15 960.839 1155.47 Q959.059 1156.78 955.934 1156.78 Q954.632 1156.78 953.214 1156.52 Q951.811 1156.28 950.249 1155.77 L950.249 1153.02 Q951.724 1153.79 953.157 1154.18 Q954.589 1154.56 955.992 1154.56 Q957.873 1154.56 958.886 1153.92 Q959.898 1153.27 959.898 1152.1 Q959.898 1151.01 959.161 1150.43 Q958.437 1149.85 955.963 1149.32 L955.037 1149.1 Q952.563 1148.58 951.464 1147.51 Q950.364 1146.43 950.364 1144.54 Q950.364 1142.26 951.985 1141.01 Q953.605 1139.77 956.585 1139.77 Q958.061 1139.77 959.363 1139.99 Q960.665 1140.2 961.765 1140.64 Z" fill="#000000" fill-rule="evenodd" fill-opacity="1" /><path clip-path="url(#clip710)" d="M 0 0 M965.15 1149.97 L965.15 1140.16 L967.812 1140.16 L967.812 1149.87 Q967.812 1152.17 968.709 1153.33 Q969.606 1154.47 971.4 1154.47 Q973.556 1154.47 974.8 1153.09 Q976.059 1151.72 976.059 1149.35 L976.059 1140.16 L978.721 1140.16 L978.721 1156.36 L976.059 1156.36 L976.059 1153.88 Q975.089 1155.35 973.802 1156.08 Q972.529 1156.78 970.836 1156.78 Q968.044 1156.78 966.597 1155.05 Q965.15 1153.31 965.15 1149.97 M971.849 1139.77 L971.849 1139.77 Z" fill="#000000" fill-rule="evenodd" fill-opacity="1" /><path clip-path="url(#clip710)" d="M 0 0 M981.513 1133.85 L984.175 1133.85 L984.175 1156.36 L981.513 1156.36 L981.513 1133.85 Z" fill="#000000" fill-rule="evenodd" fill-opacity="1" /><path clip-path="url(#clip710)" d="M 0 0 M989.6 1135.56 L989.6 1140.16 L995.083 1140.16 L995.083 1142.23 L989.6 1142.23 L989.6 1151.03 Q989.6 1153.01 990.136 1153.57 Q990.685 1154.14 992.349 1154.14 L995.083 1154.14 L995.083 1156.36 L992.349 1156.36 Q989.268 1156.36 988.096 1155.22 Q986.924 1154.06 986.924 1151.03 L986.924 1142.23 L984.971 1142.23 L984.971 1140.16 L986.924 1140.16 L986.924 1135.56 L989.6 1135.56 Z" fill="#000000" fill-rule="evenodd" fill-opacity="1" /><path clip-path="url(#clip710)" d="M 0 0 M1005.24 1148.22 Q1002.01 1148.22 1000.77 1148.96 Q999.525 1149.69 999.525 1151.47 Q999.525 1152.89 1000.45 1153.73 Q1001.39 1154.56 1003 1154.56 Q1005.21 1154.56 1006.54 1152.99 Q1007.89 1151.42 1007.89 1148.81 L1007.89 1148.22 L1005.24 1148.22 M1010.55 1147.12 L1010.55 1156.36 L1007.89 1156.36 L1007.89 1153.91 Q1006.98 1155.38 1005.62 1156.09 Q1004.26 1156.78 1002.29 1156.78 Q999.8 1156.78 998.324 1155.4 Q996.863 1153.99 996.863 1151.65 Q996.863 1148.91 998.686 1147.52 Q1000.52 1146.14 1004.15 1146.14 L1007.89 1146.14 L1007.89 1145.88 Q1007.89 1144.04 1006.67 1143.04 Q1005.47 1142.03 1003.29 1142.03 Q1001.9 1142.03 1000.58 1142.36 Q999.265 1142.69 998.049 1143.36 L998.049 1140.9 Q999.511 1140.33 1000.88 1140.06 Q1002.26 1139.77 1003.56 1139.77 Q1007.08 1139.77 1008.81 1141.59 Q1010.55 1143.42 1010.55 1147.12 Z" fill="#000000" fill-rule="evenodd" fill-opacity="1" /><path clip-path="url(#clip710)" d="M 0 0 M1026.81 1146.58 L1026.81 1156.36 L1024.15 1156.36 L1024.15 1146.67 Q1024.15 1144.37 1023.25 1143.23 Q1022.35 1142.09 1020.56 1142.09 Q1018.41 1142.09 1017.16 1143.46 Q1015.92 1144.83 1015.92 1147.21 L1015.92 1156.36 L1013.24 1156.36 L1013.24 1140.16 L1015.92 1140.16 L1015.92 1142.68 Q1016.87 1141.22 1018.16 1140.49 Q1019.46 1139.77 1021.15 1139.77 Q1023.95 1139.77 1025.38 1141.51 Q1026.81 1143.23 1026.81 1146.58 Z" fill="#000000" fill-rule="evenodd" fill-opacity="1" /><path clip-path="url(#clip710)" d="M 0 0 M1032.24 1135.56 L1032.24 1140.16 L1037.72 1140.16 L1037.72 1142.23 L1032.24 1142.23 L1032.24 1151.03 Q1032.24 1153.01 1032.77 1153.57 Q1033.32 1154.14 1034.98 1154.14 L1037.72 1154.14 L1037.72 1156.36 L1034.98 1156.36 Q1031.9 1156.36 1030.73 1155.22 Q1029.56 1154.06 1029.56 1151.03 L1029.56 1142.23 L1027.61 1142.23 L1027.61 1140.16 L1029.56 1140.16 L1029.56 1135.56 L1032.24 1135.56 Z" fill="#000000" fill-rule="evenodd" fill-opacity="1" /><path clip-path="url(#clip710)" d="M 0 0 M1052.82 1161.28 L1052.82 1163.35 L1037.43 1163.35 L1037.43 1161.28 L1052.82 1161.28 Z" fill="#000000" fill-rule="evenodd" fill-opacity="1" /><path clip-path="url(#clip710)" d="M 0 0 M1065.97 1146.24 Q1066.91 1146.56 1067.8 1147.6 Q1068.69 1148.64 1069.59 1150.46 L1072.56 1156.36 L1069.42 1156.36 L1066.65 1150.82 Q1065.58 1148.65 1064.57 1147.94 Q1063.57 1147.24 1061.84 1147.24 L1058.65 1147.24 L1058.65 1156.36 L1055.73 1156.36 L1055.73 1134.76 L1062.33 1134.76 Q1066.03 1134.76 1067.86 1136.31 Q1069.68 1137.86 1069.68 1140.99 Q1069.68 1143.03 1068.72 1144.37 Q1067.78 1145.72 1065.97 1146.24 M1058.65 1137.17 L1058.65 1144.83 L1062.33 1144.83 Q1064.44 1144.83 1065.51 1143.86 Q1066.6 1142.88 1066.6 1140.99 Q1066.6 1139.09 1065.51 1138.14 Q1064.44 1137.17 1062.33 1137.17 L1058.65 1137.17 Z" fill="#000000" fill-rule="evenodd" fill-opacity="1" /><path clip-path="url(#clip710)" d="M 0 0 M1087.88 1147.6 L1087.88 1148.9 L1075.64 1148.9 Q1075.81 1151.65 1077.29 1153.09 Q1078.78 1154.53 1081.43 1154.53 Q1082.96 1154.53 1084.39 1154.15 Q1085.84 1153.77 1087.26 1153.02 L1087.26 1155.54 Q1085.82 1156.15 1084.32 1156.47 Q1082.81 1156.78 1081.27 1156.78 Q1077.39 1156.78 1075.12 1154.53 Q1072.86 1152.27 1072.86 1148.42 Q1072.86 1144.44 1075 1142.11 Q1077.16 1139.77 1080.8 1139.77 Q1084.07 1139.77 1085.97 1141.88 Q1087.88 1143.98 1087.88 1147.6 M1085.22 1146.82 Q1085.19 1144.63 1083.99 1143.33 Q1082.8 1142.03 1080.83 1142.03 Q1078.6 1142.03 1077.26 1143.29 Q1075.93 1144.54 1075.73 1146.83 L1085.22 1146.82 Z" fill="#000000" fill-rule="evenodd" fill-opacity="1" /><path clip-path="url(#clip710)" d="M 0 0 M1092.26 1148.28 Q1092.26 1151.21 1093.46 1152.89 Q1094.68 1154.56 1096.79 1154.56 Q1098.9 1154.56 1100.12 1152.89 Q1101.33 1151.21 1101.33 1148.28 Q1101.33 1145.34 1100.12 1143.68 Q1098.9 1142 1096.79 1142 Q1094.68 1142 1093.46 1143.68 Q1092.26 1145.34 1092.26 1148.28 M1101.33 1153.93 Q1100.49 1155.38 1099.21 1156.09 Q1097.93 1156.78 1096.14 1156.78 Q1093.2 1156.78 1091.35 1154.44 Q1089.51 1152.1 1089.51 1148.28 Q1089.51 1144.46 1091.35 1142.11 Q1093.2 1139.77 1096.14 1139.77 Q1097.93 1139.77 1099.21 1140.48 Q1100.49 1141.17 1101.33 1142.62 L1101.33 1140.16 L1103.99 1140.16 L1103.99 1162.53 L1101.33 1162.53 L1101.33 1153.93 Z" fill="#000000" fill-rule="evenodd" fill-opacity="1" /><path clip-path="url(#clip710)" d="M 0 0 M1106.51 1149.97 L1106.51 1140.16 L1109.17 1140.16 L1109.17 1149.87 Q1109.17 1152.17 1110.07 1153.33 Q1110.97 1154.47 1112.76 1154.47 Q1114.92 1154.47 1116.16 1153.09 Q1117.42 1151.72 1117.42 1149.35 L1117.42 1140.16 L1120.08 1140.16 L1120.08 1156.36 L1117.42 1156.36 L1117.42 1153.88 Q1116.45 1155.35 1115.16 1156.08 Q1113.89 1156.78 1112.2 1156.78 Q1109.41 1156.78 1107.96 1155.05 Q1106.51 1153.31 1106.51 1149.97 M1113.21 1139.77 L1113.21 1139.77 Z" fill="#000000" fill-rule="evenodd" fill-opacity="1" /><path clip-path="url(#clip710)" d="M 0 0 M1136.73 1147.6 L1136.73 1148.9 L1124.5 1148.9 Q1124.67 1151.65 1126.14 1153.09 Q1127.63 1154.53 1130.28 1154.53 Q1131.82 1154.53 1133.25 1154.15 Q1134.69 1153.77 1136.11 1153.02 L1136.11 1155.54 Q1134.68 1156.15 1133.18 1156.47 Q1131.67 1156.78 1130.12 1156.78 Q1126.25 1156.78 1123.97 1154.53 Q1121.72 1152.27 1121.72 1148.42 Q1121.72 1144.44 1123.86 1142.11 Q1126.01 1139.77 1129.66 1139.77 Q1132.93 1139.77 1134.83 1141.88 Q1136.73 1143.98 1136.73 1147.6 M1134.07 1146.82 Q1134.04 1144.63 1132.84 1143.33 Q1131.66 1142.03 1129.69 1142.03 Q1127.46 1142.03 1126.12 1143.29 Q1124.78 1144.54 1124.58 1146.83 L1134.07 1146.82 Z" fill="#000000" fill-rule="evenodd" fill-opacity="1" /><path clip-path="url(#clip710)" d="M 0 0 M1149.86 1140.64 L1149.86 1143.16 Q1148.73 1142.58 1147.51 1142.29 Q1146.3 1142 1145 1142 Q1143.01 1142 1142.02 1142.61 Q1141.03 1143.21 1141.03 1144.43 Q1141.03 1145.35 1141.74 1145.89 Q1142.45 1146.41 1144.59 1146.89 L1145.5 1147.09 Q1148.34 1147.7 1149.52 1148.81 Q1150.72 1149.91 1150.72 1151.89 Q1150.72 1154.15 1148.93 1155.47 Q1147.15 1156.78 1144.03 1156.78 Q1142.72 1156.78 1141.31 1156.52 Q1139.9 1156.28 1138.34 1155.77 L1138.34 1153.02 Q1139.82 1153.79 1141.25 1154.18 Q1142.68 1154.56 1144.08 1154.56 Q1145.97 1154.56 1146.98 1153.92 Q1147.99 1153.27 1147.99 1152.1 Q1147.99 1151.01 1147.25 1150.43 Q1146.53 1149.85 1144.06 1149.32 L1143.13 1149.1 Q1140.66 1148.58 1139.56 1147.51 Q1138.46 1146.43 1138.46 1144.54 Q1138.46 1142.26 1140.08 1141.01 Q1141.7 1139.77 1144.68 1139.77 Q1146.15 1139.77 1147.46 1139.99 Q1148.76 1140.2 1149.86 1140.64 Z" fill="#000000" fill-rule="evenodd" fill-opacity="1" /><path clip-path="url(#clip710)" d="M 0 0 M1156.15 1135.56 L1156.15 1140.16 L1161.63 1140.16 L1161.63 1142.23 L1156.15 1142.23 L1156.15 1151.03 Q1156.15 1153.01 1156.69 1153.57 Q1157.24 1154.14 1158.9 1154.14 L1161.63 1154.14 L1161.63 1156.36 L1158.9 1156.36 Q1155.82 1156.36 1154.65 1155.22 Q1153.47 1154.06 1153.47 1151.03 L1153.47 1142.23 L1151.52 1142.23 L1151.52 1140.16 L1153.47 1140.16 L1153.47 1135.56 L1156.15 1135.56 Z" fill="#000000" fill-rule="evenodd" fill-opacity="1" /><path clip-path="url(#clip710)" d="M 0 0 M1174.76 1140.64 L1174.76 1143.16 Q1173.63 1142.58 1172.41 1142.29 Q1171.2 1142 1169.89 1142 Q1167.91 1142 1166.91 1142.61 Q1165.93 1143.21 1165.93 1144.43 Q1165.93 1145.35 1166.64 1145.89 Q1167.35 1146.41 1169.49 1146.89 L1170.4 1147.09 Q1173.24 1147.7 1174.42 1148.81 Q1175.62 1149.91 1175.62 1151.89 Q1175.62 1154.15 1173.83 1155.47 Q1172.05 1156.78 1168.93 1156.78 Q1167.62 1156.78 1166.21 1156.52 Q1164.8 1156.28 1163.24 1155.77 L1163.24 1153.02 Q1164.72 1153.79 1166.15 1154.18 Q1167.58 1154.56 1168.98 1154.56 Q1170.86 1154.56 1171.88 1153.92 Q1172.89 1153.27 1172.89 1152.1 Q1172.89 1151.01 1172.15 1150.43 Q1171.43 1149.85 1168.95 1149.32 L1168.03 1149.1 Q1165.55 1148.58 1164.45 1147.51 Q1163.36 1146.43 1163.36 1144.54 Q1163.36 1142.26 1164.98 1141.01 Q1166.6 1139.77 1169.58 1139.77 Q1171.05 1139.77 1172.35 1139.99 Q1173.66 1140.2 1174.76 1140.64 Z" fill="#000000" fill-rule="evenodd" fill-opacity="1" /><path clip-path="url(#clip710)" d="M 0 0 M1315.71 650.789 L1315.71 667.586 L1319.24 667.586 Q1323.71 667.586 1325.78 665.56 Q1327.86 663.535 1327.86 659.166 Q1327.86 654.825 1325.78 652.814 Q1323.71 650.789 1319.24 650.789 L1315.71 650.789 M1312.79 648.387 L1318.79 648.387 Q1325.07 648.387 1328.01 651.006 Q1330.95 653.61 1330.95 659.166 Q1330.95 664.75 1327.99 667.369 Q1325.04 669.987 1318.79 669.987 L1312.79 669.987 L1312.79 648.387 Z" fill="#000000" fill-rule="evenodd" fill-opacity="1" /><path clip-path="url(#clip710)" d="M 0 0 M1347.6 661.22 L1347.6 662.522 L1335.36 662.522 Q1335.53 665.271 1337.01 666.718 Q1338.5 668.15 1341.15 668.15 Q1342.68 668.15 1344.11 667.774 Q1345.56 667.398 1346.98 666.645 L1346.98 669.163 Q1345.54 669.77 1344.04 670.089 Q1342.53 670.407 1340.99 670.407 Q1337.11 670.407 1334.84 668.15 Q1332.58 665.893 1332.58 662.045 Q1332.58 658.066 1334.72 655.737 Q1336.88 653.393 1340.52 653.393 Q1343.79 653.393 1345.69 655.505 Q1347.6 657.603 1347.6 661.22 M1344.94 660.439 Q1344.91 658.254 1343.71 656.952 Q1342.52 655.65 1340.55 655.65 Q1338.32 655.65 1336.98 656.909 Q1335.65 658.167 1335.45 660.453 L1344.94 660.439 Z" fill="#000000" fill-rule="evenodd" fill-opacity="1" /><path clip-path="url(#clip710)" d="M 0 0 M1360.72 654.261 L1360.72 656.778 Q1359.59 656.2 1358.38 655.91 Q1357.16 655.621 1355.86 655.621 Q1353.88 655.621 1352.88 656.229 Q1351.9 656.836 1351.9 658.052 Q1351.9 658.977 1352.6 659.513 Q1353.31 660.034 1355.45 660.511 L1356.37 660.714 Q1359.2 661.321 1360.39 662.435 Q1361.59 663.535 1361.59 665.517 Q1361.59 667.774 1359.79 669.09 Q1358.01 670.407 1354.89 670.407 Q1353.59 670.407 1352.17 670.146 Q1350.77 669.9 1349.2 669.394 L1349.2 666.645 Q1350.68 667.412 1352.11 667.803 Q1353.54 668.179 1354.95 668.179 Q1356.83 668.179 1357.84 667.542 Q1358.85 666.891 1358.85 665.719 Q1358.85 664.634 1358.12 664.056 Q1357.39 663.477 1354.92 662.942 L1353.99 662.725 Q1351.52 662.204 1350.42 661.133 Q1349.32 660.048 1349.32 658.167 Q1349.32 655.881 1350.94 654.637 Q1352.56 653.393 1355.54 653.393 Q1357.02 653.393 1358.32 653.61 Q1359.62 653.827 1360.72 654.261 Z" fill="#000000" fill-rule="evenodd" fill-opacity="1" /><path clip-path="url(#clip710)" d="M 0 0 M1364.38 653.784 L1367.04 653.784 L1367.04 669.987 L1364.38 669.987 L1364.38 653.784 M1364.38 647.476 L1367.04 647.476 L1367.04 650.847 L1364.38 650.847 L1364.38 647.476 Z" fill="#000000" fill-rule="evenodd" fill-opacity="1" /><path clip-path="url(#clip710)" d="M 0 0 M1380.5 661.697 Q1380.5 658.804 1379.3 657.212 Q1378.11 655.621 1375.95 655.621 Q1373.81 655.621 1372.61 657.212 Q1371.43 658.804 1371.43 661.697 Q1371.43 664.576 1372.61 666.168 Q1373.81 667.759 1375.95 667.759 Q1378.11 667.759 1379.3 666.168 Q1380.5 664.576 1380.5 661.697 M1383.16 667.976 Q1383.16 672.114 1381.32 674.125 Q1379.48 676.15 1375.69 676.15 Q1374.29 676.15 1373.05 675.933 Q1371.8 675.731 1370.63 675.297 L1370.63 672.707 Q1371.8 673.344 1372.95 673.648 Q1374.09 673.951 1375.27 673.951 Q1377.89 673.951 1379.2 672.577 Q1380.5 671.217 1380.5 668.454 L1380.5 667.137 Q1379.67 668.569 1378.39 669.278 Q1377.1 669.987 1375.3 669.987 Q1372.32 669.987 1370.5 667.716 Q1368.68 665.444 1368.68 661.697 Q1368.68 657.936 1370.5 655.664 Q1372.32 653.393 1375.3 653.393 Q1377.1 653.393 1378.39 654.102 Q1379.67 654.811 1380.5 656.243 L1380.5 653.784 L1383.16 653.784 L1383.16 667.976 Z" fill="#000000" fill-rule="evenodd" fill-opacity="1" /><path clip-path="url(#clip710)" d="M 0 0 M1399.42 660.207 L1399.42 669.987 L1396.76 669.987 L1396.76 660.294 Q1396.76 657.994 1395.86 656.851 Q1394.96 655.708 1393.17 655.708 Q1391.02 655.708 1389.77 657.082 Q1388.53 658.457 1388.53 660.829 L1388.53 669.987 L1385.85 669.987 L1385.85 653.784 L1388.53 653.784 L1388.53 656.301 Q1389.48 654.84 1390.77 654.116 Q1392.07 653.393 1393.76 653.393 Q1396.56 653.393 1397.99 655.129 Q1399.42 656.851 1399.42 660.207 Z" fill="#000000" fill-rule="evenodd" fill-opacity="1" /><path clip-path="url(#clip710)" d="M 0 0 M1414.53 674.906 L1414.53 676.975 L1399.13 676.975 L1399.13 674.906 L1414.53 674.906 Z" fill="#000000" fill-rule="evenodd" fill-opacity="1" /><path clip-path="url(#clip710)" d="M 0 0 M1427.68 659.86 Q1428.62 660.178 1429.5 661.22 Q1430.4 662.262 1431.29 664.085 L1434.26 669.987 L1431.12 669.987 L1428.36 664.446 Q1427.29 662.276 1426.27 661.567 Q1425.27 660.858 1423.54 660.858 L1420.36 660.858 L1420.36 669.987 L1417.43 669.987 L1417.43 648.387 L1424.03 648.387 Q1427.73 648.387 1429.56 649.935 Q1431.38 651.483 1431.38 654.608 Q1431.38 656.648 1430.42 657.994 Q1429.48 659.339 1427.68 659.86 M1420.36 650.789 L1420.36 658.457 L1424.03 658.457 Q1426.14 658.457 1427.21 657.487 Q1428.3 656.504 1428.3 654.608 Q1428.3 652.713 1427.21 651.758 Q1426.14 650.789 1424.03 650.789 L1420.36 650.789 Z" fill="#000000" fill-rule="evenodd" fill-opacity="1" /><path clip-path="url(#clip710)" d="M 0 0 M1449.58 661.22 L1449.58 662.522 L1437.34 662.522 Q1437.51 665.271 1438.99 666.718 Q1440.48 668.15 1443.13 668.15 Q1444.66 668.15 1446.09 667.774 Q1447.54 667.398 1448.96 666.645 L1448.96 669.163 Q1447.53 669.77 1446.02 670.089 Q1444.52 670.407 1442.97 670.407 Q1439.09 670.407 1436.82 668.15 Q1434.56 665.893 1434.56 662.045 Q1434.56 658.066 1436.7 655.737 Q1438.86 653.393 1442.51 653.393 Q1445.77 653.393 1447.67 655.505 Q1449.58 657.603 1449.58 661.22 M1446.92 660.439 Q1446.89 658.254 1445.69 656.952 Q1444.5 655.65 1442.53 655.65 Q1440.31 655.65 1438.96 656.909 Q1437.63 658.167 1437.43 660.453 L1446.92 660.439 Z" fill="#000000" fill-rule="evenodd" fill-opacity="1" /><path clip-path="url(#clip710)" d="M 0 0 M1459.74 661.842 Q1456.51 661.842 1455.27 662.58 Q1454.02 663.318 1454.02 665.097 Q1454.02 666.515 1454.95 667.354 Q1455.89 668.179 1457.49 668.179 Q1459.71 668.179 1461.04 666.616 Q1462.38 665.039 1462.38 662.435 L1462.38 661.842 L1459.74 661.842 M1465.05 660.743 L1465.05 669.987 L1462.38 669.987 L1462.38 667.528 Q1461.47 669.003 1460.11 669.712 Q1458.75 670.407 1456.78 670.407 Q1454.3 670.407 1452.82 669.018 Q1451.36 667.615 1451.36 665.271 Q1451.36 662.536 1453.18 661.148 Q1455.02 659.759 1458.65 659.759 L1462.38 659.759 L1462.38 659.498 Q1462.38 657.661 1461.17 656.663 Q1459.97 655.65 1457.78 655.65 Q1456.39 655.65 1455.08 655.983 Q1453.76 656.315 1452.55 656.981 L1452.55 654.521 Q1454.01 653.957 1455.38 653.682 Q1456.76 653.393 1458.06 653.393 Q1461.57 653.393 1463.31 655.216 Q1465.05 657.039 1465.05 660.743 Z" fill="#000000" fill-rule="evenodd" fill-opacity="1" /><path clip-path="url(#clip710)" d="M 0 0 M1478.17 654.261 L1478.17 656.778 Q1477.04 656.2 1475.82 655.91 Q1474.61 655.621 1473.31 655.621 Q1471.32 655.621 1470.33 656.229 Q1469.34 656.836 1469.34 658.052 Q1469.34 658.977 1470.05 659.513 Q1470.76 660.034 1472.9 660.511 L1473.81 660.714 Q1476.65 661.321 1477.83 662.435 Q1479.04 663.535 1479.04 665.517 Q1479.04 667.774 1477.24 669.09 Q1475.46 670.407 1472.34 670.407 Q1471.04 670.407 1469.62 670.146 Q1468.21 669.9 1466.65 669.394 L1466.65 666.645 Q1468.13 667.412 1469.56 667.803 Q1470.99 668.179 1472.4 668.179 Q1474.28 668.179 1475.29 667.542 Q1476.3 666.891 1476.3 665.719 Q1476.3 664.634 1475.56 664.056 Q1474.84 663.477 1472.37 662.942 L1471.44 662.725 Q1468.97 662.204 1467.87 661.133 Q1466.77 660.048 1466.77 658.167 Q1466.77 655.881 1468.39 654.637 Q1470.01 653.393 1472.99 653.393 Q1474.46 653.393 1475.77 653.61 Q1477.07 653.827 1478.17 654.261 Z" fill="#000000" fill-rule="evenodd" fill-opacity="1" /><path clip-path="url(#clip710)" d="M 0 0 M1488.11 655.65 Q1485.97 655.65 1484.72 657.328 Q1483.48 658.992 1483.48 661.9 Q1483.48 664.808 1484.71 666.486 Q1485.95 668.15 1488.11 668.15 Q1490.23 668.15 1491.48 666.472 Q1492.72 664.793 1492.72 661.9 Q1492.72 659.021 1491.48 657.343 Q1490.23 655.65 1488.11 655.65 M1488.11 653.393 Q1491.58 653.393 1493.56 655.65 Q1495.54 657.907 1495.54 661.9 Q1495.54 665.878 1493.56 668.15 Q1491.58 670.407 1488.11 670.407 Q1484.62 670.407 1482.64 668.15 Q1480.67 665.878 1480.67 661.9 Q1480.67 657.907 1482.64 655.65 Q1484.62 653.393 1488.11 653.393 Z" fill="#000000" fill-rule="evenodd" fill-opacity="1" /><path clip-path="url(#clip710)" d="M 0 0 M1511.8 660.207 L1511.8 669.987 L1509.14 669.987 L1509.14 660.294 Q1509.14 657.994 1508.25 656.851 Q1507.35 655.708 1505.55 655.708 Q1503.4 655.708 1502.15 657.082 Q1500.91 658.457 1500.91 660.829 L1500.91 669.987 L1498.23 669.987 L1498.23 653.784 L1500.91 653.784 L1500.91 656.301 Q1501.87 654.84 1503.15 654.116 Q1504.46 653.393 1506.15 653.393 Q1508.94 653.393 1510.37 655.129 Q1511.8 656.851 1511.8 660.207 Z" fill="#000000" fill-rule="evenodd" fill-opacity="1" /><path clip-path="url(#clip710)" d="M 0 0 M1514.6 653.784 L1517.26 653.784 L1517.26 669.987 L1514.6 669.987 L1514.6 653.784 M1514.6 647.476 L1517.26 647.476 L1517.26 650.847 L1514.6 650.847 L1514.6 647.476 Z" fill="#000000" fill-rule="evenodd" fill-opacity="1" /><path clip-path="url(#clip710)" d="M 0 0 M1533.52 660.207 L1533.52 669.987 L1530.86 669.987 L1530.86 660.294 Q1530.86 657.994 1529.96 656.851 Q1529.06 655.708 1527.27 655.708 Q1525.11 655.708 1523.87 657.082 Q1522.63 658.457 1522.63 660.829 L1522.63 669.987 L1519.95 669.987 L1519.95 653.784 L1522.63 653.784 L1522.63 656.301 Q1523.58 654.84 1524.87 654.116 Q1526.17 653.393 1527.86 653.393 Q1530.66 653.393 1532.09 655.129 Q1533.52 656.851 1533.52 660.207 Z" fill="#000000" fill-rule="evenodd" fill-opacity="1" /><path clip-path="url(#clip710)" d="M 0 0 M1546.98 661.697 Q1546.98 658.804 1545.77 657.212 Q1544.59 655.621 1542.43 655.621 Q1540.29 655.621 1539.09 657.212 Q1537.9 658.804 1537.9 661.697 Q1537.9 664.576 1539.09 666.168 Q1540.29 667.759 1542.43 667.759 Q1544.59 667.759 1545.77 666.168 Q1546.98 664.576 1546.98 661.697 M1549.64 667.976 Q1549.64 672.114 1547.8 674.125 Q1545.96 676.15 1542.17 676.15 Q1540.77 676.15 1539.52 675.933 Q1538.28 675.731 1537.11 675.297 L1537.11 672.707 Q1538.28 673.344 1539.42 673.648 Q1540.57 673.951 1541.75 673.951 Q1544.37 673.951 1545.67 672.577 Q1546.98 671.217 1546.98 668.454 L1546.98 667.137 Q1546.15 668.569 1544.86 669.278 Q1543.58 669.987 1541.78 669.987 Q1538.8 669.987 1536.98 667.716 Q1535.16 665.444 1535.16 661.697 Q1535.16 657.936 1536.98 655.664 Q1538.8 653.393 1541.78 653.393 Q1543.58 653.393 1544.86 654.102 Q1546.15 654.811 1546.98 656.243 L1546.98 653.784 L1549.64 653.784 L1549.64 667.976 Z" fill="#000000" fill-rule="evenodd" fill-opacity="1" /><path clip-path="url(#clip710)" d="M 0 0 M464.567 1423.73 L464.567 1426.81 Q463.092 1425.43 461.414 1424.75 Q459.75 1424.07 457.869 1424.07 Q454.165 1424.07 452.198 1426.35 Q450.23 1428.6 450.23 1432.88 Q450.23 1437.15 452.198 1439.42 Q454.165 1441.68 457.869 1441.68 Q459.75 1441.68 461.414 1441 Q463.092 1440.32 464.567 1438.95 L464.567 1442 Q463.034 1443.04 461.312 1443.56 Q459.605 1444.08 457.695 1444.08 Q452.791 1444.08 449.97 1441.09 Q447.149 1438.08 447.149 1432.88 Q447.149 1427.68 449.97 1424.68 Q452.791 1421.67 457.695 1421.67 Q459.634 1421.67 461.341 1422.19 Q463.063 1422.7 464.567 1423.73 Z" fill="#000000" fill-rule="evenodd" fill-opacity="1" /><path clip-path="url(#clip710)" d="M 0 0 M473.639 1429.33 Q471.497 1429.33 470.253 1431 Q469.009 1432.67 469.009 1435.58 Q469.009 1438.48 470.239 1440.16 Q471.483 1441.83 473.639 1441.83 Q475.765 1441.83 477.009 1440.15 Q478.254 1438.47 478.254 1435.58 Q478.254 1432.7 477.009 1431.02 Q475.765 1429.33 473.639 1429.33 M473.639 1427.07 Q477.111 1427.07 479.093 1429.33 Q481.075 1431.58 481.075 1435.58 Q481.075 1439.55 479.093 1441.83 Q477.111 1444.08 473.639 1444.08 Q470.152 1444.08 468.17 1441.83 Q466.202 1439.55 466.202 1435.58 Q466.202 1431.58 468.17 1429.33 Q470.152 1427.07 473.639 1427.07 Z" fill="#000000" fill-rule="evenodd" fill-opacity="1" /><path clip-path="url(#clip710)" d="M 0 0 M483.867 1421.15 L486.529 1421.15 L486.529 1443.66 L483.867 1443.66 L483.867 1421.15 Z" fill="#000000" fill-rule="evenodd" fill-opacity="1" /><path clip-path="url(#clip710)" d="M 0 0 M489.321 1421.15 L491.983 1421.15 L491.983 1443.66 L489.321 1443.66 L489.321 1421.15 Z" fill="#000000" fill-rule="evenodd" fill-opacity="1" /><path clip-path="url(#clip710)" d="M 0 0 M502.14 1435.52 Q498.913 1435.52 497.669 1436.26 Q496.425 1436.99 496.425 1438.77 Q496.425 1440.19 497.351 1441.03 Q498.291 1441.85 499.897 1441.85 Q502.111 1441.85 503.442 1440.29 Q504.787 1438.71 504.787 1436.11 L504.787 1435.52 L502.14 1435.52 M507.449 1434.42 L507.449 1443.66 L504.787 1443.66 L504.787 1441.2 Q503.876 1442.68 502.516 1443.39 Q501.156 1444.08 499.188 1444.08 Q496.7 1444.08 495.224 1442.69 Q493.763 1441.29 493.763 1438.95 Q493.763 1436.21 495.586 1434.82 Q497.423 1433.43 501.055 1433.43 L504.787 1433.43 L504.787 1433.17 Q504.787 1431.34 503.572 1430.34 Q502.371 1429.33 500.186 1429.33 Q498.798 1429.33 497.481 1429.66 Q496.164 1429.99 494.949 1430.66 L494.949 1428.2 Q496.41 1427.63 497.785 1427.36 Q499.159 1427.07 500.461 1427.07 Q503.977 1427.07 505.713 1428.89 Q507.449 1430.71 507.449 1434.42 Z" fill="#000000" fill-rule="evenodd" fill-opacity="1" /><path clip-path="url(#clip710)" d="M 0 0 M521.873 1435.58 Q521.873 1432.64 520.658 1430.97 Q519.457 1429.3 517.345 1429.3 Q515.233 1429.3 514.017 1430.97 Q512.817 1432.64 512.817 1435.58 Q512.817 1438.51 514.017 1440.19 Q515.233 1441.85 517.345 1441.85 Q519.457 1441.85 520.658 1440.19 Q521.873 1438.51 521.873 1435.58 M512.817 1429.92 Q513.656 1428.47 514.929 1427.78 Q516.216 1427.07 517.996 1427.07 Q520.947 1427.07 522.785 1429.41 Q524.637 1431.76 524.637 1435.58 Q524.637 1439.39 522.785 1441.74 Q520.947 1444.08 517.996 1444.08 Q516.216 1444.08 514.929 1443.39 Q513.656 1442.68 512.817 1441.23 L512.817 1443.66 L510.14 1443.66 L510.14 1421.15 L512.817 1421.15 L512.817 1429.92 Z" fill="#000000" fill-rule="evenodd" fill-opacity="1" /><path clip-path="url(#clip710)" d="M 0 0 M533.708 1429.33 Q531.566 1429.33 530.322 1431 Q529.078 1432.67 529.078 1435.58 Q529.078 1438.48 530.308 1440.16 Q531.552 1441.83 533.708 1441.83 Q535.834 1441.83 537.079 1440.15 Q538.323 1438.47 538.323 1435.58 Q538.323 1432.7 537.079 1431.02 Q535.834 1429.33 533.708 1429.33 M533.708 1427.07 Q537.18 1427.07 539.162 1429.33 Q541.144 1431.58 541.144 1435.58 Q541.144 1439.55 539.162 1441.83 Q537.18 1444.08 533.708 1444.08 Q530.221 1444.08 528.239 1441.83 Q526.271 1439.55 526.271 1435.58 Q526.271 1431.58 528.239 1429.33 Q530.221 1427.07 533.708 1427.07 Z" fill="#000000" fill-rule="evenodd" fill-opacity="1" /><path clip-path="url(#clip710)" d="M 0 0 M553.326 1429.95 Q552.877 1429.69 552.342 1429.57 Q551.821 1429.44 551.184 1429.44 Q548.928 1429.44 547.712 1430.92 Q546.511 1432.38 546.511 1435.13 L546.511 1443.66 L543.835 1443.66 L543.835 1427.46 L546.511 1427.46 L546.511 1429.98 Q547.351 1428.5 548.696 1427.79 Q550.042 1427.07 551.966 1427.07 Q552.241 1427.07 552.573 1427.11 Q552.906 1427.14 553.311 1427.21 L553.326 1429.95 Z" fill="#000000" fill-rule="evenodd" fill-opacity="1" /><path clip-path="url(#clip710)" d="M 0 0 M563.482 1435.52 Q560.256 1435.52 559.011 1436.26 Q557.767 1436.99 557.767 1438.77 Q557.767 1440.19 558.693 1441.03 Q559.633 1441.85 561.239 1441.85 Q563.453 1441.85 564.784 1440.29 Q566.129 1438.71 566.129 1436.11 L566.129 1435.52 L563.482 1435.52 M568.791 1434.42 L568.791 1443.66 L566.129 1443.66 L566.129 1441.2 Q565.218 1442.68 563.858 1443.39 Q562.498 1444.08 560.53 1444.08 Q558.042 1444.08 556.566 1442.69 Q555.105 1441.29 555.105 1438.95 Q555.105 1436.21 556.928 1434.82 Q558.765 1433.43 562.397 1433.43 L566.129 1433.43 L566.129 1433.17 Q566.129 1431.34 564.914 1430.34 Q563.713 1429.33 561.529 1429.33 Q560.14 1429.33 558.823 1429.66 Q557.507 1429.99 556.291 1430.66 L556.291 1428.2 Q557.753 1427.63 559.127 1427.36 Q560.502 1427.07 561.804 1427.07 Q565.319 1427.07 567.055 1428.89 Q568.791 1430.71 568.791 1434.42 Z" fill="#000000" fill-rule="evenodd" fill-opacity="1" /><path clip-path="url(#clip710)" d="M 0 0 M574.217 1422.86 L574.217 1427.46 L579.7 1427.46 L579.7 1429.53 L574.217 1429.53 L574.217 1438.32 Q574.217 1440.31 574.752 1440.87 Q575.302 1441.43 576.966 1441.43 L579.7 1441.43 L579.7 1443.66 L576.966 1443.66 Q573.884 1443.66 572.712 1442.52 Q571.54 1441.36 571.54 1438.32 L571.54 1429.53 L569.587 1429.53 L569.587 1427.46 L571.54 1427.46 L571.54 1422.86 L574.217 1422.86 Z" fill="#000000" fill-rule="evenodd" fill-opacity="1" /><path clip-path="url(#clip710)" d="M 0 0 M582.492 1427.46 L585.154 1427.46 L585.154 1443.66 L582.492 1443.66 L582.492 1427.46 M582.492 1421.15 L585.154 1421.15 L585.154 1424.52 L582.492 1424.52 L582.492 1421.15 Z" fill="#000000" fill-rule="evenodd" fill-opacity="1" /><path clip-path="url(#clip710)" d="M 0 0 M594.225 1429.33 Q592.084 1429.33 590.84 1431 Q589.596 1432.67 589.596 1435.58 Q589.596 1438.48 590.825 1440.16 Q592.07 1441.83 594.225 1441.83 Q596.352 1441.83 597.596 1440.15 Q598.84 1438.47 598.84 1435.58 Q598.84 1432.7 597.596 1431.02 Q596.352 1429.33 594.225 1429.33 M594.225 1427.07 Q597.698 1427.07 599.68 1429.33 Q601.662 1431.58 601.662 1435.58 Q601.662 1439.55 599.68 1441.83 Q597.698 1444.08 594.225 1444.08 Q590.739 1444.08 588.757 1441.83 Q586.789 1439.55 586.789 1435.58 Q586.789 1431.58 588.757 1429.33 Q590.739 1427.07 594.225 1427.07 Z" fill="#000000" fill-rule="evenodd" fill-opacity="1" /><path clip-path="url(#clip710)" d="M 0 0 M617.923 1433.88 L617.923 1443.66 L615.261 1443.66 L615.261 1433.97 Q615.261 1431.67 614.364 1430.53 Q613.467 1429.38 611.673 1429.38 Q609.517 1429.38 608.273 1430.76 Q607.029 1432.13 607.029 1434.5 L607.029 1443.66 L604.353 1443.66 L604.353 1427.46 L607.029 1427.46 L607.029 1429.98 Q607.984 1428.52 609.272 1427.79 Q610.574 1427.07 612.266 1427.07 Q615.059 1427.07 616.491 1428.8 Q617.923 1430.53 617.923 1433.88 Z" fill="#000000" fill-rule="evenodd" fill-opacity="1" /><path clip-path="url(#clip712)" d="M939.602 958.252 L939.602 990.252 L971.602 990.252 L971.602 958.252 L939.602 958.252 Z" fill="#800080" fill-rule="evenodd" fill-opacity="1" stroke="none"/>
<polyline clip-path="url(#clip712)" style="stroke:#800080; stroke-width:4; stroke-opacity:1; fill:none" stroke-dasharray="16, 10" points="
  917.476,1017.66 993.728,1017.66 
  "/>
<polyline clip-path="url(#clip712)" style="stroke:#800080; stroke-width:4; stroke-opacity:1; fill:none" stroke-dasharray="16, 10" points="
  917.476,930.843 993.728,930.843 
  "/>
<polyline clip-path="url(#clip712)" style="stroke:#800080; stroke-width:4; stroke-opacity:1; fill:none" stroke-dasharray="16, 10" points="
  917.476,1017.66 917.476,930.843 
  "/>
<polyline clip-path="url(#clip712)" style="stroke:#800080; stroke-width:4; stroke-opacity:1; fill:none" stroke-dasharray="16, 10" points="
  993.728,1017.66 993.728,930.843 
  "/>
<path clip-path="url(#clip712)" d="M1089.46 958.252 L1089.46 990.252 L1121.46 990.252 L1121.46 958.252 L1089.46 958.252 Z" fill="#ffa500" fill-rule="evenodd" fill-opacity="1" stroke="none"/>
<polyline clip-path="url(#clip712)" style="stroke:#ffa500; stroke-width:4; stroke-opacity:1; fill:none" stroke-dasharray="16, 10" points="
  1069.43,1020.09 1141.49,1020.09 
  "/>
<polyline clip-path="url(#clip712)" style="stroke:#ffa500; stroke-width:4; stroke-opacity:1; fill:none" stroke-dasharray="16, 10" points="
  1069.43,928.411 1141.49,928.411 
  "/>
<polyline clip-path="url(#clip712)" style="stroke:#ffa500; stroke-width:4; stroke-opacity:1; fill:none" stroke-dasharray="16, 10" points="
  1069.43,1020.09 1069.43,928.411 
  "/>
<polyline clip-path="url(#clip712)" style="stroke:#ffa500; stroke-width:4; stroke-opacity:1; fill:none" stroke-dasharray="16, 10" points="
  1141.49,1020.09 1141.49,928.411 
  "/>
</svg>
