<?xml version="1.0" encoding="utf-8"?>
<svg xmlns="http://www.w3.org/2000/svg" xmlns:xlink="http://www.w3.org/1999/xlink" width="600" height="400" viewBox="0 0 2400 1600">
<defs>
  <clipPath id="clip520">
    <rect x="0" y="0" width="2400" height="1600"/>
  </clipPath>
</defs>
<path clip-path="url(#clip520)" d="
M0 1600 L2400 1600 L2400 0 L0 0  Z
  " fill="#ffffff" fill-rule="evenodd" fill-opacity="1"/>
<defs>
  <clipPath id="clip521">
    <rect x="480" y="0" width="1681" height="1600"/>
  </clipPath>
</defs>
<path clip-path="url(#clip520)" d="
M86.9921 1521.01 L2352.76 1521.01 L2352.76 47.2441 L86.9921 47.2441  Z
  " fill="#ffffff" fill-rule="evenodd" fill-opacity="1"/>
<defs>
  <clipPath id="clip522">
    <rect x="86" y="47" width="2267" height="1475"/>
  </clipPath>
</defs>
<polyline clip-path="url(#clip522)" style="stroke:#000000; stroke-width:2; stroke-opacity:0.1; fill:none" points="
  1342.59,1521.01 1342.59,47.2441 
  "/>
<polyline clip-path="url(#clip522)" style="stroke:#000000; stroke-width:2; stroke-opacity:0.1; fill:none" points="
  86.9921,772.899 2352.76,772.899 
  "/>
<polyline clip-path="url(#clip520)" style="stroke:#000000; stroke-width:4; stroke-opacity:1; fill:none" points="
  86.9921,1521.01 2352.76,1521.01 
  "/>
<polyline clip-path="url(#clip520)" style="stroke:#000000; stroke-width:4; stroke-opacity:1; fill:none" points="
  86.9921,1521.01 86.9921,47.2441 
  "/>
<polyline clip-path="url(#clip520)" style="stroke:#000000; stroke-width:4; stroke-opacity:1; fill:none" points="
  1342.59,1521.01 1342.59,1503.32 
  "/>
<polyline clip-path="url(#clip520)" style="stroke:#000000; stroke-width:4; stroke-opacity:1; fill:none" points="
  86.9921,772.899 114.181,772.899 
  "/>
<path clip-path="url(#clip520)" d="M 0 0 M1342.59 1543 Q1338.98 1543 1337.15 1546.56 Q1335.34 1550.11 1335.34 1557.23 Q1335.34 1564.34 1337.15 1567.91 Q1338.98 1571.45 1342.59 1571.45 Q1346.22 1571.45 1348.03 1567.91 Q1349.86 1564.34 1349.86 1557.23 Q1349.86 1550.11 1348.03 1546.56 Q1346.22 1543 1342.59 1543 M1342.59 1539.29 Q1348.4 1539.29 1351.46 1543.9 Q1354.53 1548.48 1354.53 1557.23 Q1354.53 1565.96 1351.46 1570.57 Q1348.4 1575.15 1342.59 1575.15 Q1336.78 1575.15 1333.7 1570.57 Q1330.64 1565.96 1330.64 1557.23 Q1330.64 1548.48 1333.7 1543.9 Q1336.78 1539.29 1342.59 1539.29 Z" fill="#000000" fill-rule="evenodd" fill-opacity="1" /><path clip-path="url(#clip520)" d="M 0 0 M51.0477 758.698 Q47.4367 758.698 45.608 762.263 Q43.8024 765.805 43.8024 772.934 Q43.8024 780.041 45.608 783.605 Q47.4367 787.147 51.0477 787.147 Q54.682 787.147 56.4875 783.605 Q58.3162 780.041 58.3162 772.934 Q58.3162 765.805 56.4875 762.263 Q54.682 758.698 51.0477 758.698 M51.0477 754.994 Q56.8579 754.994 59.9134 759.601 Q62.9921 764.184 62.9921 772.934 Q62.9921 781.661 59.9134 786.267 Q56.8579 790.851 51.0477 790.851 Q45.2376 790.851 42.1589 786.267 Q39.1034 781.661 39.1034 772.934 Q39.1034 764.184 42.1589 759.601 Q45.2376 754.994 51.0477 754.994 Z" fill="#000000" fill-rule="evenodd" fill-opacity="1" /><circle clip-path="url(#clip522)" cx="1307.37" cy="776.359" r="14" fill="#808080" fill-rule="evenodd" fill-opacity="1" stroke="none"/>
<circle clip-path="url(#clip522)" cx="1288.34" cy="772.236" r="14" fill="#808080" fill-rule="evenodd" fill-opacity="1" stroke="none"/>
<circle clip-path="url(#clip522)" cx="1161.81" cy="841.621" r="14" fill="#808080" fill-rule="evenodd" fill-opacity="1" stroke="none"/>
<circle clip-path="url(#clip522)" cx="1357.93" cy="812.557" r="14" fill="#808080" fill-rule="evenodd" fill-opacity="1" stroke="none"/>
<circle clip-path="url(#clip522)" cx="1224.19" cy="752.233" r="14" fill="#808080" fill-rule="evenodd" fill-opacity="1" stroke="none"/>
<circle clip-path="url(#clip522)" cx="1263.37" cy="825.421" r="14" fill="#808080" fill-rule="evenodd" fill-opacity="1" stroke="none"/>
<circle clip-path="url(#clip522)" cx="1160.45" cy="773.267" r="14" fill="#808080" fill-rule="evenodd" fill-opacity="1" stroke="none"/>
<circle clip-path="url(#clip522)" cx="1282.83" cy="838.893" r="14" fill="#808080" fill-rule="evenodd" fill-opacity="1" stroke="none"/>
<circle clip-path="url(#clip522)" cx="1293.09" cy="867.941" r="14" fill="#808080" fill-rule="evenodd" fill-opacity="1" stroke="none"/>
<circle clip-path="url(#clip522)" cx="1322.71" cy="804.842" r="14" fill="#808080" fill-rule="evenodd" fill-opacity="1" stroke="none"/>
<circle clip-path="url(#clip522)" cx="1338.95" cy="672.325" r="14" fill="#808080" fill-rule="evenodd" fill-opacity="1" stroke="none"/>
<circle clip-path="url(#clip522)" cx="1321.76" cy="775.225" r="14" fill="#808080" fill-rule="evenodd" fill-opacity="1" stroke="none"/>
<circle clip-path="url(#clip522)" cx="1313.87" cy="790.389" r="14" fill="#808080" fill-rule="evenodd" fill-opacity="1" stroke="none"/>
<circle clip-path="url(#clip522)" cx="1210.12" cy="829.513" r="14" fill="#808080" fill-rule="evenodd" fill-opacity="1" stroke="none"/>
<circle clip-path="url(#clip522)" cx="1328.08" cy="822.696" r="14" fill="#808080" fill-rule="evenodd" fill-opacity="1" stroke="none"/>
<circle clip-path="url(#clip522)" cx="1259.98" cy="725.544" r="14" fill="#808080" fill-rule="evenodd" fill-opacity="1" stroke="none"/>
<circle clip-path="url(#clip522)" cx="1246.64" cy="764.578" r="14" fill="#808080" fill-rule="evenodd" fill-opacity="1" stroke="none"/>
<circle clip-path="url(#clip522)" cx="1297.82" cy="688.006" r="14" fill="#808080" fill-rule="evenodd" fill-opacity="1" stroke="none"/>
<circle clip-path="url(#clip522)" cx="1356.31" cy="726.878" r="14" fill="#808080" fill-rule="evenodd" fill-opacity="1" stroke="none"/>
<circle clip-path="url(#clip522)" cx="1148.3" cy="722.621" r="14" fill="#808080" fill-rule="evenodd" fill-opacity="1" stroke="none"/>
<circle clip-path="url(#clip522)" cx="1279.43" cy="682.957" r="14" fill="#808080" fill-rule="evenodd" fill-opacity="1" stroke="none"/>
<circle clip-path="url(#clip522)" cx="1348.85" cy="748.677" r="14" fill="#808080" fill-rule="evenodd" fill-opacity="1" stroke="none"/>
<circle clip-path="url(#clip522)" cx="1283.76" cy="778.526" r="14" fill="#808080" fill-rule="evenodd" fill-opacity="1" stroke="none"/>
<circle clip-path="url(#clip522)" cx="1484.05" cy="780.774" r="14" fill="#808080" fill-rule="evenodd" fill-opacity="1" stroke="none"/>
<circle clip-path="url(#clip522)" cx="1306.31" cy="784.931" r="14" fill="#808080" fill-rule="evenodd" fill-opacity="1" stroke="none"/>
<circle clip-path="url(#clip522)" cx="1272.54" cy="736.377" r="14" fill="#808080" fill-rule="evenodd" fill-opacity="1" stroke="none"/>
<circle clip-path="url(#clip522)" cx="1306.32" cy="661.524" r="14" fill="#808080" fill-rule="evenodd" fill-opacity="1" stroke="none"/>
<circle clip-path="url(#clip522)" cx="1177.5" cy="825.679" r="14" fill="#808080" fill-rule="evenodd" fill-opacity="1" stroke="none"/>
<circle clip-path="url(#clip522)" cx="1482.44" cy="820.945" r="14" fill="#808080" fill-rule="evenodd" fill-opacity="1" stroke="none"/>
<circle clip-path="url(#clip522)" cx="1359.83" cy="680.664" r="14" fill="#808080" fill-rule="evenodd" fill-opacity="1" stroke="none"/>
<circle clip-path="url(#clip522)" cx="1463.47" cy="800.288" r="14" fill="#808080" fill-rule="evenodd" fill-opacity="1" stroke="none"/>
<circle clip-path="url(#clip522)" cx="1327.74" cy="782.924" r="14" fill="#808080" fill-rule="evenodd" fill-opacity="1" stroke="none"/>
<circle clip-path="url(#clip522)" cx="1444.34" cy="733.302" r="14" fill="#808080" fill-rule="evenodd" fill-opacity="1" stroke="none"/>
<circle clip-path="url(#clip522)" cx="1405.82" cy="841.45" r="14" fill="#808080" fill-rule="evenodd" fill-opacity="1" stroke="none"/>
<circle clip-path="url(#clip522)" cx="1494.56" cy="789.274" r="14" fill="#808080" fill-rule="evenodd" fill-opacity="1" stroke="none"/>
<circle clip-path="url(#clip522)" cx="1494.65" cy="799.363" r="14" fill="#808080" fill-rule="evenodd" fill-opacity="1" stroke="none"/>
<circle clip-path="url(#clip522)" cx="1457.98" cy="717.355" r="14" fill="#808080" fill-rule="evenodd" fill-opacity="1" stroke="none"/>
<circle clip-path="url(#clip522)" cx="1314.07" cy="779.967" r="14" fill="#808080" fill-rule="evenodd" fill-opacity="1" stroke="none"/>
<circle clip-path="url(#clip522)" cx="1376.79" cy="725.718" r="14" fill="#808080" fill-rule="evenodd" fill-opacity="1" stroke="none"/>
<circle clip-path="url(#clip522)" cx="1428.85" cy="745.726" r="14" fill="#808080" fill-rule="evenodd" fill-opacity="1" stroke="none"/>
<circle clip-path="url(#clip522)" cx="1431.9" cy="797.45" r="14" fill="#808080" fill-rule="evenodd" fill-opacity="1" stroke="none"/>
<circle clip-path="url(#clip522)" cx="1452.11" cy="794.599" r="14" fill="#808080" fill-rule="evenodd" fill-opacity="1" stroke="none"/>
<circle clip-path="url(#clip522)" cx="1454.76" cy="757.462" r="14" fill="#808080" fill-rule="evenodd" fill-opacity="1" stroke="none"/>
<circle clip-path="url(#clip522)" cx="1441.98" cy="683.283" r="14" fill="#808080" fill-rule="evenodd" fill-opacity="1" stroke="none"/>
<circle clip-path="url(#clip522)" cx="1433.78" cy="854.865" r="14" fill="#808080" fill-rule="evenodd" fill-opacity="1" stroke="none"/>
<circle clip-path="url(#clip522)" cx="1321.41" cy="755.554" r="14" fill="#808080" fill-rule="evenodd" fill-opacity="1" stroke="none"/>
<circle clip-path="url(#clip522)" cx="1415.56" cy="796.354" r="14" fill="#808080" fill-rule="evenodd" fill-opacity="1" stroke="none"/>
<circle clip-path="url(#clip522)" cx="1499.54" cy="860.042" r="14" fill="#808080" fill-rule="evenodd" fill-opacity="1" stroke="none"/>
<circle clip-path="url(#clip522)" cx="1313.34" cy="777.685" r="14" fill="#800080" fill-rule="evenodd" fill-opacity="1" stroke="none"/>
<circle clip-path="url(#clip522)" cx="1290.55" cy="767.31" r="14" fill="#800080" fill-rule="evenodd" fill-opacity="1" stroke="none"/>
<circle clip-path="url(#clip522)" cx="1176.01" cy="837.758" r="14" fill="#800080" fill-rule="evenodd" fill-opacity="1" stroke="none"/>
<circle clip-path="url(#clip522)" cx="1355.06" cy="802.006" r="14" fill="#800080" fill-rule="evenodd" fill-opacity="1" stroke="none"/>
<circle clip-path="url(#clip522)" cx="1219.13" cy="762.371" r="14" fill="#800080" fill-rule="evenodd" fill-opacity="1" stroke="none"/>
<circle clip-path="url(#clip522)" cx="1262.29" cy="810.208" r="14" fill="#800080" fill-rule="evenodd" fill-opacity="1" stroke="none"/>
<circle clip-path="url(#clip522)" cx="1161.19" cy="784.841" r="14" fill="#800080" fill-rule="evenodd" fill-opacity="1" stroke="none"/>
<circle clip-path="url(#clip522)" cx="1276.62" cy="843.351" r="14" fill="#800080" fill-rule="evenodd" fill-opacity="1" stroke="none"/>
<circle clip-path="url(#clip522)" cx="1308.76" cy="854.145" r="14" fill="#800080" fill-rule="evenodd" fill-opacity="1" stroke="none"/>
<circle clip-path="url(#clip522)" cx="1320.56" cy="819.898" r="14" fill="#800080" fill-rule="evenodd" fill-opacity="1" stroke="none"/>
<circle clip-path="url(#clip522)" cx="1333.12" cy="691.793" r="14" fill="#800080" fill-rule="evenodd" fill-opacity="1" stroke="none"/>
<circle clip-path="url(#clip522)" cx="1325.02" cy="781.574" r="14" fill="#800080" fill-rule="evenodd" fill-opacity="1" stroke="none"/>
<circle clip-path="url(#clip522)" cx="1315.4" cy="788.298" r="14" fill="#800080" fill-rule="evenodd" fill-opacity="1" stroke="none"/>
<circle clip-path="url(#clip522)" cx="1203.53" cy="825.194" r="14" fill="#800080" fill-rule="evenodd" fill-opacity="1" stroke="none"/>
<circle clip-path="url(#clip522)" cx="1321.69" cy="809.233" r="14" fill="#800080" fill-rule="evenodd" fill-opacity="1" stroke="none"/>
<circle clip-path="url(#clip522)" cx="1261.83" cy="729.77" r="14" fill="#800080" fill-rule="evenodd" fill-opacity="1" stroke="none"/>
<circle clip-path="url(#clip522)" cx="1244.45" cy="767.297" r="14" fill="#800080" fill-rule="evenodd" fill-opacity="1" stroke="none"/>
<circle clip-path="url(#clip522)" cx="1304.45" cy="680.422" r="14" fill="#800080" fill-rule="evenodd" fill-opacity="1" stroke="none"/>
<circle clip-path="url(#clip522)" cx="1353.87" cy="714.187" r="14" fill="#800080" fill-rule="evenodd" fill-opacity="1" stroke="none"/>
<circle clip-path="url(#clip522)" cx="1142.5" cy="720.793" r="14" fill="#800080" fill-rule="evenodd" fill-opacity="1" stroke="none"/>
<circle clip-path="url(#clip522)" cx="1262.75" cy="674.783" r="14" fill="#800080" fill-rule="evenodd" fill-opacity="1" stroke="none"/>
<circle clip-path="url(#clip522)" cx="1349.55" cy="751.98" r="14" fill="#800080" fill-rule="evenodd" fill-opacity="1" stroke="none"/>
<circle clip-path="url(#clip522)" cx="1283.42" cy="759.044" r="14" fill="#800080" fill-rule="evenodd" fill-opacity="1" stroke="none"/>
<circle clip-path="url(#clip522)" cx="1470.59" cy="787.462" r="14" fill="#800080" fill-rule="evenodd" fill-opacity="1" stroke="none"/>
<circle clip-path="url(#clip522)" cx="1298.02" cy="774.871" r="14" fill="#800080" fill-rule="evenodd" fill-opacity="1" stroke="none"/>
<circle clip-path="url(#clip522)" cx="1271.71" cy="735.704" r="14" fill="#800080" fill-rule="evenodd" fill-opacity="1" stroke="none"/>
<circle clip-path="url(#clip522)" cx="1318.02" cy="656.081" r="14" fill="#ffa500" fill-rule="evenodd" fill-opacity="1" stroke="none"/>
<circle clip-path="url(#clip522)" cx="1200.33" cy="838.812" r="14" fill="#ffa500" fill-rule="evenodd" fill-opacity="1" stroke="none"/>
<circle clip-path="url(#clip522)" cx="1477.29" cy="823.46" r="14" fill="#ffa500" fill-rule="evenodd" fill-opacity="1" stroke="none"/>
<circle clip-path="url(#clip522)" cx="1351.07" cy="690.767" r="14" fill="#ffa500" fill-rule="evenodd" fill-opacity="1" stroke="none"/>
<circle clip-path="url(#clip522)" cx="1461.21" cy="800.785" r="14" fill="#ffa500" fill-rule="evenodd" fill-opacity="1" stroke="none"/>
<circle clip-path="url(#clip522)" cx="1319.11" cy="795.498" r="14" fill="#ffa500" fill-rule="evenodd" fill-opacity="1" stroke="none"/>
<circle clip-path="url(#clip522)" cx="1450.18" cy="729.865" r="14" fill="#ffa500" fill-rule="evenodd" fill-opacity="1" stroke="none"/>
<circle clip-path="url(#clip522)" cx="1399.27" cy="836.621" r="14" fill="#ffa500" fill-rule="evenodd" fill-opacity="1" stroke="none"/>
<circle clip-path="url(#clip522)" cx="1509.65" cy="784.871" r="14" fill="#ffa500" fill-rule="evenodd" fill-opacity="1" stroke="none"/>
<circle clip-path="url(#clip522)" cx="1489.16" cy="792.368" r="14" fill="#ffa500" fill-rule="evenodd" fill-opacity="1" stroke="none"/>
<circle clip-path="url(#clip522)" cx="1458.39" cy="706.956" r="14" fill="#ffa500" fill-rule="evenodd" fill-opacity="1" stroke="none"/>
<circle clip-path="url(#clip522)" cx="1308.65" cy="784.226" r="14" fill="#ffa500" fill-rule="evenodd" fill-opacity="1" stroke="none"/>
<circle clip-path="url(#clip522)" cx="1380.96" cy="723.309" r="14" fill="#ffa500" fill-rule="evenodd" fill-opacity="1" stroke="none"/>
<circle clip-path="url(#clip522)" cx="1440.57" cy="754.695" r="14" fill="#ffa500" fill-rule="evenodd" fill-opacity="1" stroke="none"/>
<circle clip-path="url(#clip522)" cx="1428.98" cy="786.876" r="14" fill="#ffa500" fill-rule="evenodd" fill-opacity="1" stroke="none"/>
<circle clip-path="url(#clip522)" cx="1463.9" cy="799.932" r="14" fill="#ffa500" fill-rule="evenodd" fill-opacity="1" stroke="none"/>
<circle clip-path="url(#clip522)" cx="1458.02" cy="762.534" r="14" fill="#ffa500" fill-rule="evenodd" fill-opacity="1" stroke="none"/>
<circle clip-path="url(#clip522)" cx="1454.97" cy="694.5" r="14" fill="#ffa500" fill-rule="evenodd" fill-opacity="1" stroke="none"/>
<circle clip-path="url(#clip522)" cx="1433.39" cy="850.208" r="14" fill="#ffa500" fill-rule="evenodd" fill-opacity="1" stroke="none"/>
<circle clip-path="url(#clip522)" cx="1318.21" cy="766.756" r="14" fill="#ffa500" fill-rule="evenodd" fill-opacity="1" stroke="none"/>
<circle clip-path="url(#clip522)" cx="1408.87" cy="799.409" r="14" fill="#ffa500" fill-rule="evenodd" fill-opacity="1" stroke="none"/>
<circle clip-path="url(#clip522)" cx="1488.66" cy="868.664" r="14" fill="#ffa500" fill-rule="evenodd" fill-opacity="1" stroke="none"/>
<polyline clip-path="url(#clip522)" style="stroke:#800080; stroke-width:1.58927; stroke-opacity:1; fill:none" points="
  151.118,88.9544 2288.63,1330.66 
  "/>
<polyline clip-path="url(#clip522)" style="stroke:#800080; stroke-width:0.0676008; stroke-opacity:1; fill:none" points="
  1145.66,1090.31 1216.45,1373.79 
  "/>
<polyline clip-path="url(#clip522)" style="stroke:#ffa500; stroke-width:0.138691; stroke-opacity:1; fill:none" points="
  266.578,1479.3 1216.45,1373.79 
  "/>
<polyline clip-path="url(#clip522)" style="stroke:#800080; stroke-width:2.26537; stroke-opacity:1; fill:none" points="
  266.578,1479.3 2200.79,361.855 
  "/>
<polyline clip-path="url(#clip522)" style="stroke:#ffa500; stroke-width:3.18122; stroke-opacity:1; fill:none" points="
  1145.66,1090.31 2288.63,1330.66 
  "/>
<polyline clip-path="url(#clip522)" style="stroke:#800080; stroke-width:3.85717; stroke-opacity:1; fill:none" points="
  266.578,1479.3 1145.66,1090.31 
  "/>
<polyline clip-path="url(#clip522)" style="stroke:#ffa500; stroke-width:3.16451; stroke-opacity:1; fill:none" points="
  1145.66,1090.31 2200.79,361.855 
  "/>
<polyline clip-path="url(#clip522)" style="stroke:#ffa500; stroke-width:0.993154; stroke-opacity:1; fill:none" points="
  1216.45,1373.79 2200.79,361.855 
  "/>
<polyline clip-path="url(#clip522)" style="stroke:#800080; stroke-width:7.92674; stroke-opacity:1; fill:none" points="
  151.118,88.9544 266.578,1479.3 
  "/>
<polyline clip-path="url(#clip522)" style="stroke:#ffa500; stroke-width:1.0527; stroke-opacity:1; fill:none" points="
  1216.45,1373.79 2288.63,1330.66 
  "/>
<polyline clip-path="url(#clip522)" style="stroke:#ffa500; stroke-width:8; stroke-opacity:1; fill:none" points="
  2200.79,361.855 2288.63,1330.66 
  "/>
<polyline clip-path="url(#clip522)" style="stroke:#800080; stroke-width:5.96984; stroke-opacity:1; fill:none" points="
  151.118,88.9544 1145.66,1090.31 
  "/>
<polyline clip-path="url(#clip522)" style="stroke:#800080; stroke-width:2.89668; stroke-opacity:1; fill:none" points="
  151.118,88.9544 1216.45,1373.79 
  "/>
<polyline clip-path="url(#clip522)" style="stroke:#800080; stroke-width:2.5678; stroke-opacity:1; fill:none" points="
  266.578,1479.3 2288.63,1330.66 
  "/>
<polyline clip-path="url(#clip522)" style="stroke:#800080; stroke-width:1.80718; stroke-opacity:1; fill:none" points="
  151.118,88.9544 2200.79,361.855 
  "/>
<circle clip-path="url(#clip522)" cx="1145.66" cy="1090.31" r="23" fill="#000000" fill-rule="evenodd" fill-opacity="1" stroke="none"/>
<circle clip-path="url(#clip522)" cx="151.118" cy="88.9544" r="27" fill="#000000" fill-rule="evenodd" fill-opacity="1" stroke="none"/>
<circle clip-path="url(#clip522)" cx="2288.63" cy="1330.66" r="23" fill="#000000" fill-rule="evenodd" fill-opacity="1" stroke="none"/>
<circle clip-path="url(#clip522)" cx="1216.45" cy="1373.79" r="8" fill="#000000" fill-rule="evenodd" fill-opacity="1" stroke="none"/>
<circle clip-path="url(#clip522)" cx="2200.79" cy="361.855" r="28" fill="#000000" fill-rule="evenodd" fill-opacity="1" stroke="none"/>
<circle clip-path="url(#clip522)" cx="266.578" cy="1479.3" r="7" fill="#000000" fill-rule="evenodd" fill-opacity="1" stroke="none"/>
<path clip-path="url(#clip520)" d="M 0 0 M1069.85 1066.79 L1069.85 1113.83 L1079.73 1113.83 Q1092.25 1113.83 1098.04 1108.15 Q1103.87 1102.48 1103.87 1090.25 Q1103.87 1078.1 1098.04 1072.47 Q1092.25 1066.79 1079.73 1066.79 L1069.85 1066.79 M1061.66 1060.07 L1078.47 1060.07 Q1096.05 1060.07 1104.28 1067.4 Q1112.5 1074.69 1112.5 1090.25 Q1112.5 1105.89 1104.24 1113.22 Q1095.97 1120.55 1078.47 1120.55 L1061.66 1120.55 L1061.66 1060.07 Z" fill="#000000" fill-rule="evenodd" fill-opacity="1" /><path clip-path="url(#clip520)" d="M 0 0 M1140.94 1097.74 Q1131.91 1097.74 1128.42 1099.81 Q1124.94 1101.88 1124.94 1106.86 Q1124.94 1110.83 1127.53 1113.18 Q1130.16 1115.49 1134.66 1115.49 Q1140.86 1115.49 1144.58 1111.11 Q1148.35 1106.7 1148.35 1099.4 L1148.35 1097.74 L1140.94 1097.74 M1155.81 1094.67 L1155.81 1120.55 L1148.35 1120.55 L1148.35 1113.66 Q1145.8 1117.8 1141.99 1119.78 Q1138.18 1121.73 1132.67 1121.73 Q1125.71 1121.73 1121.58 1117.84 Q1117.48 1113.91 1117.48 1107.34 Q1117.48 1099.69 1122.59 1095.8 Q1127.73 1091.91 1137.9 1091.91 L1148.35 1091.91 L1148.35 1091.18 Q1148.35 1086.04 1144.95 1083.24 Q1141.59 1080.41 1135.47 1080.41 Q1131.58 1080.41 1127.89 1081.34 Q1124.21 1082.27 1120.81 1084.13 L1120.81 1077.25 Q1124.9 1075.67 1128.75 1074.9 Q1132.59 1074.09 1136.24 1074.09 Q1146.08 1074.09 1150.94 1079.19 Q1155.81 1084.29 1155.81 1094.67 Z" fill="#000000" fill-rule="evenodd" fill-opacity="1" /><path clip-path="url(#clip520)" d="M 0 0 M1171 1062.3 L1171 1075.18 L1186.35 1075.18 L1186.35 1080.97 L1171 1080.97 L1171 1105.6 Q1171 1111.15 1172.5 1112.73 Q1174.03 1114.31 1178.69 1114.31 L1186.35 1114.31 L1186.35 1120.55 L1178.69 1120.55 Q1170.06 1120.55 1166.78 1117.35 Q1163.5 1114.11 1163.5 1105.6 L1163.5 1080.97 L1158.03 1080.97 L1158.03 1075.18 L1163.5 1075.18 L1163.5 1062.3 L1171 1062.3 Z" fill="#000000" fill-rule="evenodd" fill-opacity="1" /><path clip-path="url(#clip520)" d="M 0 0 M1214.79 1097.74 Q1205.75 1097.74 1202.27 1099.81 Q1198.79 1101.88 1198.79 1106.86 Q1198.79 1110.83 1201.38 1113.18 Q1204.01 1115.49 1208.51 1115.49 Q1214.71 1115.49 1218.43 1111.11 Q1222.2 1106.7 1222.2 1099.4 L1222.2 1097.74 L1214.79 1097.74 M1229.65 1094.67 L1229.65 1120.55 L1222.2 1120.55 L1222.2 1113.66 Q1219.65 1117.8 1215.84 1119.78 Q1212.03 1121.73 1206.52 1121.73 Q1199.56 1121.73 1195.42 1117.84 Q1191.33 1113.91 1191.33 1107.34 Q1191.33 1099.69 1196.44 1095.8 Q1201.58 1091.91 1211.75 1091.91 L1222.2 1091.91 L1222.2 1091.18 Q1222.2 1086.04 1218.8 1083.24 Q1215.43 1080.41 1209.32 1080.41 Q1205.43 1080.41 1201.74 1081.34 Q1198.06 1082.27 1194.65 1084.13 L1194.65 1077.25 Q1198.75 1075.67 1202.59 1074.9 Q1206.44 1074.09 1210.09 1074.09 Q1219.93 1074.09 1224.79 1079.19 Q1229.65 1084.29 1229.65 1094.67 Z" fill="#000000" fill-rule="evenodd" fill-opacity="1" /><path clip-path="url(#clip520)" d="M 0 0 M-246.215 58.7144 L-195.053 58.7144 L-195.053 65.6009 L-216.522 65.6009 L-216.522 119.194 L-224.746 119.194 L-224.746 65.6009 L-246.215 65.6009 L-246.215 58.7144 Z" fill="#000000" fill-rule="evenodd" fill-opacity="1" /><path clip-path="url(#clip520)" d="M 0 0 M-162.524 94.6459 L-162.524 98.2917 L-196.794 98.2917 Q-196.308 105.988 -192.176 110.039 Q-188.004 114.05 -180.591 114.05 Q-176.297 114.05 -172.286 112.997 Q-168.236 111.943 -164.266 109.837 L-164.266 116.885 Q-168.276 118.587 -172.489 119.478 Q-176.702 120.369 -181.036 120.369 Q-191.893 120.369 -198.253 114.05 Q-204.572 107.73 -204.572 96.9549 Q-204.572 85.8149 -198.577 79.293 Q-192.541 72.7305 -182.333 72.7305 Q-173.178 72.7305 -167.871 78.6448 Q-162.524 84.5187 -162.524 94.6459 M-169.977 92.4584 Q-170.058 86.3416 -173.421 82.6957 Q-176.742 79.0499 -182.252 79.0499 Q-188.49 79.0499 -192.257 82.5742 Q-195.984 86.0985 -196.551 92.4989 L-169.977 92.4584 Z" fill="#000000" fill-rule="evenodd" fill-opacity="1" /><path clip-path="url(#clip520)" d="M 0 0 M-122.055 75.5662 L-122.055 82.5337 Q-125.215 80.7918 -128.415 79.9411 Q-131.575 79.0499 -134.816 79.0499 Q-142.067 79.0499 -146.077 83.668 Q-150.087 88.2455 -150.087 96.5498 Q-150.087 104.854 -146.077 109.472 Q-142.067 114.05 -134.816 114.05 Q-131.575 114.05 -128.415 113.199 Q-125.215 112.308 -122.055 110.566 L-122.055 117.453 Q-125.174 118.911 -128.537 119.64 Q-131.858 120.369 -135.626 120.369 Q-145.875 120.369 -151.91 113.928 Q-157.946 107.487 -157.946 96.5498 Q-157.946 85.4504 -151.87 79.0904 Q-145.753 72.7305 -135.14 72.7305 Q-131.696 72.7305 -128.415 73.4597 Q-125.134 74.1483 -122.055 75.5662 Z" fill="#000000" fill-rule="evenodd" fill-opacity="1" /><path clip-path="url(#clip520)" d="M 0 0 M-76.523 91.8103 L-76.523 119.194 L-83.9767 119.194 L-83.9767 92.0533 Q-83.9767 85.6124 -86.4883 82.4122 Q-88.9998 79.212 -94.023 79.212 Q-100.059 79.212 -103.543 83.0603 Q-107.026 86.9087 -107.026 93.5522 L-107.026 119.194 L-114.521 119.194 L-114.521 56.1623 L-107.026 56.1623 L-107.026 80.8728 Q-104.353 76.7814 -100.747 74.756 Q-97.1016 72.7305 -92.3621 72.7305 Q-84.5438 72.7305 -80.5334 77.5916 Q-76.523 82.4122 -76.523 91.8103 Z" fill="#000000" fill-rule="evenodd" fill-opacity="1" /><path clip-path="url(#clip520)" d="M 0 0 M-30.9909 91.8103 L-30.9909 119.194 L-38.4445 119.194 L-38.4445 92.0533 Q-38.4445 85.6124 -40.9561 82.4122 Q-43.4677 79.212 -48.4908 79.212 Q-54.5266 79.212 -58.0104 83.0603 Q-61.4942 86.9087 -61.4942 93.5522 L-61.4942 119.194 L-68.9884 119.194 L-68.9884 73.8243 L-61.4942 73.8243 L-61.4942 80.8728 Q-58.8206 76.7814 -55.2153 74.756 Q-51.5695 72.7305 -46.8299 72.7305 Q-39.0117 72.7305 -35.0013 77.5916 Q-30.9909 82.4122 -30.9909 91.8103 Z" fill="#000000" fill-rule="evenodd" fill-opacity="1" /><path clip-path="url(#clip520)" d="M 0 0 M-23.1726 73.8243 L-15.719 73.8243 L-15.719 119.194 L-23.1726 119.194 L-23.1726 73.8243 M-23.1726 56.1623 L-15.719 56.1623 L-15.719 65.6009 L-23.1726 65.6009 L-23.1726 56.1623 Z" fill="#000000" fill-rule="evenodd" fill-opacity="1" /><path clip-path="url(#clip520)" d="M 0 0 M24.7496 75.5662 L24.7496 82.5337 Q21.5899 80.7918 18.3896 79.9411 Q15.2299 79.0499 11.9892 79.0499 Q4.73809 79.0499 0.727697 83.668 Q-3.2827 88.2455 -3.2827 96.5498 Q-3.2827 104.854 0.727697 109.472 Q4.73809 114.05 11.9892 114.05 Q15.2299 114.05 18.3896 113.199 Q21.5899 112.308 24.7496 110.566 L24.7496 117.453 Q21.6304 118.911 18.2681 119.64 Q14.9464 120.369 11.179 120.369 Q0.930242 120.369 -5.10561 113.928 Q-11.1415 107.487 -11.1415 96.5498 Q-11.1415 85.4504 -5.0651 79.0904 Q1.05177 72.7305 11.6651 72.7305 Q15.1084 72.7305 18.3896 73.4597 Q21.6709 74.1483 24.7496 75.5662 Z" fill="#000000" fill-rule="evenodd" fill-opacity="1" /><path clip-path="url(#clip520)" d="M 0 0 M53.1869 96.3878 Q44.1534 96.3878 40.6696 98.4538 Q37.1858 100.52 37.1858 105.502 Q37.1858 109.472 39.7784 111.822 Q42.4115 114.131 46.908 114.131 Q53.1059 114.131 56.8327 109.756 Q60.6001 105.34 60.6001 98.0487 L60.6001 96.3878 L53.1869 96.3878 M68.0537 93.3091 L68.0537 119.194 L60.6001 119.194 L60.6001 112.308 Q58.048 116.44 54.2401 118.425 Q50.4323 120.369 44.9231 120.369 Q37.9555 120.369 33.8236 116.48 Q29.7322 112.551 29.7322 105.988 Q29.7322 98.3322 34.8363 94.4434 Q39.981 90.5545 50.1487 90.5545 L60.6001 90.5545 L60.6001 89.8253 Q60.6001 84.6807 57.1973 81.8856 Q53.8351 79.0499 47.7182 79.0499 Q43.8293 79.0499 40.143 79.9816 Q36.4567 80.9133 33.0539 82.7768 L33.0539 75.8902 Q37.1453 74.3104 40.9937 73.5407 Q44.842 72.7305 48.4879 72.7305 Q58.3316 72.7305 63.1926 77.8347 Q68.0537 82.9388 68.0537 93.3091 Z" fill="#000000" fill-rule="evenodd" fill-opacity="1" /><path clip-path="url(#clip520)" d="M 0 0 M75.872 56.1623 L83.3256 56.1623 L83.3256 119.194 L75.872 119.194 L75.872 56.1623 Z" fill="#000000" fill-rule="evenodd" fill-opacity="1" /><path clip-path="url(#clip520)" d="M 0 0 M125.617 132.967 L125.617 138.76 L82.5155 138.76 L82.5155 132.967 L125.617 132.967 Z" fill="#000000" fill-rule="evenodd" fill-opacity="1" /><path clip-path="url(#clip520)" d="M 0 0 M179.049 63.3729 L179.049 72.0014 Q174.917 68.153 170.218 66.2491 Q165.559 64.3451 160.293 64.3451 Q149.922 64.3451 144.413 70.7051 Q138.904 77.0245 138.904 89.0152 Q138.904 100.965 144.413 107.325 Q149.922 113.645 160.293 113.645 Q165.559 113.645 170.218 111.741 Q174.917 109.837 179.049 105.988 L179.049 114.536 Q174.755 117.453 169.934 118.911 Q165.154 120.369 159.807 120.369 Q146.074 120.369 138.175 111.984 Q130.276 103.558 130.276 89.0152 Q130.276 74.4319 138.175 66.0465 Q146.074 57.6206 159.807 57.6206 Q165.235 57.6206 170.015 59.079 Q174.836 60.4968 179.049 63.3729 Z" fill="#000000" fill-rule="evenodd" fill-opacity="1" /><path clip-path="url(#clip520)" d="M 0 0 M204.448 79.0499 Q198.452 79.0499 194.969 83.749 Q191.485 88.4075 191.485 96.5498 Q191.485 104.692 194.928 109.391 Q198.412 114.05 204.448 114.05 Q210.402 114.05 213.886 109.351 Q217.37 104.652 217.37 96.5498 Q217.37 88.4885 213.886 83.7895 Q210.402 79.0499 204.448 79.0499 M204.448 72.7305 Q214.17 72.7305 219.72 79.0499 Q225.269 85.3693 225.269 96.5498 Q225.269 107.69 219.72 114.05 Q214.17 120.369 204.448 120.369 Q194.685 120.369 189.135 114.05 Q183.626 107.69 183.626 96.5498 Q183.626 85.3693 189.135 79.0499 Q194.685 72.7305 204.448 72.7305 Z" fill="#000000" fill-rule="evenodd" fill-opacity="1" /><path clip-path="url(#clip520)" d="M 0 0 M270.801 91.8103 L270.801 119.194 L263.348 119.194 L263.348 92.0533 Q263.348 85.6124 260.836 82.4122 Q258.325 79.212 253.302 79.212 Q247.266 79.212 243.782 83.0603 Q240.298 86.9087 240.298 93.5522 L240.298 119.194 L232.804 119.194 L232.804 73.8243 L240.298 73.8243 L240.298 80.8728 Q242.972 76.7814 246.577 74.756 Q250.223 72.7305 254.962 72.7305 Q262.781 72.7305 266.791 77.5916 Q270.801 82.4122 270.801 91.8103 Z" fill="#000000" fill-rule="evenodd" fill-opacity="1" /><path clip-path="url(#clip520)" d="M 0 0 M307.543 75.1611 L307.543 82.2096 Q304.383 80.5893 300.981 79.7791 Q297.578 78.9689 293.932 78.9689 Q288.382 78.9689 285.587 80.6703 Q282.833 82.3717 282.833 85.7744 Q282.833 88.367 284.818 89.8658 Q286.803 91.3242 292.798 92.661 L295.35 93.2281 Q303.29 94.9295 306.611 98.0487 Q309.974 101.127 309.974 106.677 Q309.974 112.997 304.951 116.683 Q299.968 120.369 291.218 120.369 Q287.572 120.369 283.602 119.64 Q279.673 118.951 275.298 117.534 L275.298 109.837 Q279.43 111.984 283.44 113.078 Q287.451 114.131 291.38 114.131 Q296.646 114.131 299.482 112.348 Q302.318 110.525 302.318 107.244 Q302.318 104.206 300.252 102.586 Q298.226 100.965 291.299 99.4665 L288.706 98.8589 Q281.779 97.4005 278.701 94.4029 Q275.622 91.3647 275.622 86.0985 Q275.622 79.6981 280.159 76.2143 Q284.696 72.7305 293.041 72.7305 Q297.173 72.7305 300.819 73.3382 Q304.464 73.9458 307.543 75.1611 Z" fill="#000000" fill-rule="evenodd" fill-opacity="1" /><path clip-path="url(#clip520)" d="M 0 0 M325.165 60.9424 L325.165 73.8243 L340.518 73.8243 L340.518 79.6171 L325.165 79.6171 L325.165 104.247 Q325.165 109.796 326.663 111.376 Q328.203 112.956 332.861 112.956 L340.518 112.956 L340.518 119.194 L332.861 119.194 Q324.233 119.194 320.952 115.994 Q317.67 112.753 317.67 104.247 L317.67 79.6171 L312.202 79.6171 L312.202 73.8243 L317.67 73.8243 L317.67 60.9424 L325.165 60.9424 Z" fill="#000000" fill-rule="evenodd" fill-opacity="1" /><path clip-path="url(#clip520)" d="M 0 0 M374.626 80.7918 Q373.37 80.0627 371.872 79.7386 Q370.413 79.374 368.631 79.374 Q362.311 79.374 358.909 83.5059 Q355.546 87.5973 355.546 95.2941 L355.546 119.194 L348.052 119.194 L348.052 73.8243 L355.546 73.8243 L355.546 80.8728 Q357.896 76.7409 361.663 74.756 Q365.431 72.7305 370.818 72.7305 Q371.588 72.7305 372.52 72.852 Q373.451 72.9331 374.586 73.1356 L374.626 80.7918 Z" fill="#000000" fill-rule="evenodd" fill-opacity="1" /><path clip-path="url(#clip520)" d="M 0 0 M403.064 96.3878 Q394.03 96.3878 390.546 98.4538 Q387.062 100.52 387.062 105.502 Q387.062 109.472 389.655 111.822 Q392.288 114.131 396.785 114.131 Q402.982 114.131 406.709 109.756 Q410.477 105.34 410.477 98.0487 L410.477 96.3878 L403.064 96.3878 M417.93 93.3091 L417.93 119.194 L410.477 119.194 L410.477 112.308 Q407.925 116.44 404.117 118.425 Q400.309 120.369 394.8 120.369 Q387.832 120.369 383.7 116.48 Q379.609 112.551 379.609 105.988 Q379.609 98.3322 384.713 94.4434 Q389.858 90.5545 400.025 90.5545 L410.477 90.5545 L410.477 89.8253 Q410.477 84.6807 407.074 81.8856 Q403.712 79.0499 397.595 79.0499 Q393.706 79.0499 390.02 79.9816 Q386.333 80.9133 382.931 82.7768 L382.931 75.8902 Q387.022 74.3104 390.87 73.5407 Q394.719 72.7305 398.364 72.7305 Q408.208 72.7305 413.069 77.8347 Q417.93 82.9388 417.93 93.3091 Z" fill="#000000" fill-rule="evenodd" fill-opacity="1" /><path clip-path="url(#clip520)" d="M 0 0 M425.749 73.8243 L433.202 73.8243 L433.202 119.194 L425.749 119.194 L425.749 73.8243 M425.749 56.1623 L433.202 56.1623 L433.202 65.6009 L425.749 65.6009 L425.749 56.1623 Z" fill="#000000" fill-rule="evenodd" fill-opacity="1" /><path clip-path="url(#clip520)" d="M 0 0 M478.734 91.8103 L478.734 119.194 L471.281 119.194 L471.281 92.0533 Q471.281 85.6124 468.769 82.4122 Q466.258 79.212 461.234 79.212 Q455.199 79.212 451.715 83.0603 Q448.231 86.9087 448.231 93.5522 L448.231 119.194 L440.737 119.194 L440.737 73.8243 L448.231 73.8243 L448.231 80.8728 Q450.905 76.7814 454.51 74.756 Q458.156 72.7305 462.895 72.7305 Q470.714 72.7305 474.724 77.5916 Q478.734 82.4122 478.734 91.8103 Z" fill="#000000" fill-rule="evenodd" fill-opacity="1" /><path clip-path="url(#clip520)" d="M 0 0 M493.925 60.9424 L493.925 73.8243 L509.278 73.8243 L509.278 79.6171 L493.925 79.6171 L493.925 104.247 Q493.925 109.796 495.424 111.376 Q496.963 112.956 501.622 112.956 L509.278 112.956 L509.278 119.194 L501.622 119.194 Q492.994 119.194 489.712 115.994 Q486.431 112.753 486.431 104.247 L486.431 79.6171 L480.962 79.6171 L480.962 73.8243 L486.431 73.8243 L486.431 60.9424 L493.925 60.9424 Z" fill="#000000" fill-rule="evenodd" fill-opacity="1" /><path clip-path="url(#clip520)" d="M 0 0 M546.02 75.1611 L546.02 82.2096 Q542.86 80.5893 539.457 79.7791 Q536.055 78.9689 532.409 78.9689 Q526.859 78.9689 524.064 80.6703 Q521.309 82.3717 521.309 85.7744 Q521.309 88.367 523.294 89.8658 Q525.279 91.3242 531.275 92.661 L533.827 93.2281 Q541.766 94.9295 545.088 98.0487 Q548.45 101.127 548.45 106.677 Q548.45 112.997 543.427 116.683 Q538.445 120.369 529.695 120.369 Q526.049 120.369 522.079 119.64 Q518.15 118.951 513.775 117.534 L513.775 109.837 Q517.907 111.984 521.917 113.078 Q525.927 114.131 529.857 114.131 Q535.123 114.131 537.959 112.348 Q540.794 110.525 540.794 107.244 Q540.794 104.206 538.728 102.586 Q536.703 100.965 529.776 99.4665 L527.183 98.8589 Q520.256 97.4005 517.177 94.4029 Q514.099 91.3647 514.099 86.0985 Q514.099 79.6981 518.636 76.2143 Q523.173 72.7305 531.518 72.7305 Q535.65 72.7305 539.295 73.3382 Q542.941 73.9458 546.02 75.1611 Z" fill="#000000" fill-rule="evenodd" fill-opacity="1" /><path clip-path="url(#clip520)" d="M 0 0 M1820.06 1307.15 L1820.06 1329.87 L1830.35 1329.87 Q1836.06 1329.87 1839.18 1326.92 Q1842.3 1323.96 1842.3 1318.49 Q1842.3 1313.06 1839.18 1310.11 Q1836.06 1307.15 1830.35 1307.15 L1820.06 1307.15 M1811.88 1300.42 L1830.35 1300.42 Q1840.52 1300.42 1845.7 1305.04 Q1850.93 1309.62 1850.93 1318.49 Q1850.93 1327.44 1845.7 1332.02 Q1840.52 1336.6 1830.35 1336.6 L1820.06 1336.6 L1820.06 1360.9 L1811.88 1360.9 L1811.88 1300.42 Z" fill="#000000" fill-rule="evenodd" fill-opacity="1" /><path clip-path="url(#clip520)" d="M 0 0 M1894.6 1336.36 L1894.6 1340 L1860.33 1340 Q1860.81 1347.7 1864.95 1351.75 Q1869.12 1355.76 1876.53 1355.76 Q1880.83 1355.76 1884.84 1354.71 Q1888.89 1353.65 1892.86 1351.55 L1892.86 1358.59 Q1888.85 1360.3 1884.63 1361.19 Q1880.42 1362.08 1876.09 1362.08 Q1865.23 1362.08 1858.87 1355.76 Q1852.55 1349.44 1852.55 1338.66 Q1852.55 1327.52 1858.55 1321 Q1864.58 1314.44 1874.79 1314.44 Q1883.95 1314.44 1889.25 1320.35 Q1894.6 1326.23 1894.6 1336.36 M1887.15 1334.17 Q1887.06 1328.05 1883.7 1324.41 Q1880.38 1320.76 1874.87 1320.76 Q1868.63 1320.76 1864.87 1324.28 Q1861.14 1327.81 1860.57 1334.21 L1887.15 1334.17 Z" fill="#000000" fill-rule="evenodd" fill-opacity="1" /><path clip-path="url(#clip520)" d="M 0 0 M1928.71 1322.5 Q1927.45 1321.77 1925.95 1321.45 Q1924.49 1321.08 1922.71 1321.08 Q1916.39 1321.08 1912.99 1325.22 Q1909.63 1329.31 1909.63 1337 L1909.63 1360.9 L1902.13 1360.9 L1902.13 1315.53 L1909.63 1315.53 L1909.63 1322.58 Q1911.98 1318.45 1915.74 1316.47 Q1919.51 1314.44 1924.9 1314.44 Q1925.67 1314.44 1926.6 1314.56 Q1927.53 1314.64 1928.67 1314.85 L1928.71 1322.5 Z" fill="#000000" fill-rule="evenodd" fill-opacity="1" /><path clip-path="url(#clip520)" d="M 0 0 M1959.49 1297.87 L1959.49 1304.07 L1952.36 1304.07 Q1948.35 1304.07 1946.77 1305.69 Q1945.24 1307.31 1945.24 1311.52 L1945.24 1315.53 L1957.51 1315.53 L1957.51 1321.33 L1945.24 1321.33 L1945.24 1360.9 L1937.74 1360.9 L1937.74 1321.33 L1930.61 1321.33 L1930.61 1315.53 L1937.74 1315.53 L1937.74 1312.37 Q1937.74 1304.8 1941.27 1301.36 Q1944.79 1297.87 1952.45 1297.87 L1959.49 1297.87 Z" fill="#000000" fill-rule="evenodd" fill-opacity="1" /><path clip-path="url(#clip520)" d="M 0 0 M1984.89 1320.76 Q1978.9 1320.76 1975.41 1325.46 Q1971.93 1330.12 1971.93 1338.26 Q1971.93 1346.4 1975.37 1351.1 Q1978.86 1355.76 1984.89 1355.76 Q1990.85 1355.76 1994.33 1351.06 Q1997.82 1346.36 1997.82 1338.26 Q1997.82 1330.2 1994.33 1325.5 Q1990.85 1320.76 1984.89 1320.76 M1984.89 1314.44 Q1994.62 1314.44 2000.17 1320.76 Q2005.72 1327.08 2005.72 1338.26 Q2005.72 1349.4 2000.17 1355.76 Q1994.62 1362.08 1984.89 1362.08 Q1975.13 1362.08 1969.58 1355.76 Q1964.07 1349.4 1964.07 1338.26 Q1964.07 1327.08 1969.58 1320.76 Q1975.13 1314.44 1984.89 1314.44 Z" fill="#000000" fill-rule="evenodd" fill-opacity="1" /><path clip-path="url(#clip520)" d="M 0 0 M2039.82 1322.5 Q2038.57 1321.77 2037.07 1321.45 Q2035.61 1321.08 2033.83 1321.08 Q2027.51 1321.08 2024.11 1325.22 Q2020.74 1329.31 2020.74 1337 L2020.74 1360.9 L2013.25 1360.9 L2013.25 1315.53 L2020.74 1315.53 L2020.74 1322.58 Q2023.09 1318.45 2026.86 1316.47 Q2030.63 1314.44 2036.02 1314.44 Q2036.79 1314.44 2037.72 1314.56 Q2038.65 1314.64 2039.78 1314.85 L2039.82 1322.5 Z" fill="#000000" fill-rule="evenodd" fill-opacity="1" /><path clip-path="url(#clip520)" d="M 0 0 M2081.51 1324.24 Q2084.3 1319.22 2088.19 1316.83 Q2092.08 1314.44 2097.35 1314.44 Q2104.44 1314.44 2108.28 1319.42 Q2112.13 1324.36 2112.13 1333.52 L2112.13 1360.9 L2104.64 1360.9 L2104.64 1333.76 Q2104.64 1327.24 2102.33 1324.08 Q2100.02 1320.92 2095.28 1320.92 Q2089.49 1320.92 2086.13 1324.77 Q2082.76 1328.62 2082.76 1335.26 L2082.76 1360.9 L2075.27 1360.9 L2075.27 1333.76 Q2075.27 1327.2 2072.96 1324.08 Q2070.65 1320.92 2065.83 1320.92 Q2060.12 1320.92 2056.76 1324.81 Q2053.39 1328.66 2053.39 1335.26 L2053.39 1360.9 L2045.9 1360.9 L2045.9 1315.53 L2053.39 1315.53 L2053.39 1322.58 Q2055.95 1318.41 2059.51 1316.42 Q2063.08 1314.44 2067.98 1314.44 Q2072.92 1314.44 2076.36 1316.95 Q2079.85 1319.46 2081.51 1324.24 Z" fill="#000000" fill-rule="evenodd" fill-opacity="1" /><path clip-path="url(#clip520)" d="M 0 0 M2140.57 1338.1 Q2131.54 1338.1 2128.05 1340.16 Q2124.57 1342.23 2124.57 1347.21 Q2124.57 1351.18 2127.16 1353.53 Q2129.79 1355.84 2134.29 1355.84 Q2140.49 1355.84 2144.22 1351.47 Q2147.98 1347.05 2147.98 1339.76 L2147.98 1338.1 L2140.57 1338.1 M2155.44 1335.02 L2155.44 1360.9 L2147.98 1360.9 L2147.98 1354.02 Q2145.43 1358.15 2141.62 1360.13 Q2137.82 1362.08 2132.31 1362.08 Q2125.34 1362.08 2121.21 1358.19 Q2117.12 1354.26 2117.12 1347.7 Q2117.12 1340.04 2122.22 1336.15 Q2127.36 1332.26 2137.53 1332.26 L2147.98 1332.26 L2147.98 1331.53 Q2147.98 1326.39 2144.58 1323.59 Q2141.22 1320.76 2135.1 1320.76 Q2131.21 1320.76 2127.53 1321.69 Q2123.84 1322.62 2120.44 1324.49 L2120.44 1317.6 Q2124.53 1316.02 2128.38 1315.25 Q2132.23 1314.44 2135.87 1314.44 Q2145.71 1314.44 2150.58 1319.54 Q2155.44 1324.65 2155.44 1335.02 Z" fill="#000000" fill-rule="evenodd" fill-opacity="1" /><path clip-path="url(#clip520)" d="M 0 0 M2200.97 1333.52 L2200.97 1360.9 L2193.52 1360.9 L2193.52 1333.76 Q2193.52 1327.32 2191 1324.12 Q2188.49 1320.92 2183.47 1320.92 Q2177.43 1320.92 2173.95 1324.77 Q2170.47 1328.62 2170.47 1335.26 L2170.47 1360.9 L2162.97 1360.9 L2162.97 1315.53 L2170.47 1315.53 L2170.47 1322.58 Q2173.14 1318.49 2176.74 1316.47 Q2180.39 1314.44 2185.13 1314.44 Q2192.95 1314.44 2196.96 1319.3 Q2200.97 1324.12 2200.97 1333.52 Z" fill="#000000" fill-rule="evenodd" fill-opacity="1" /><path clip-path="url(#clip520)" d="M 0 0 M2241.44 1317.28 L2241.44 1324.24 Q2238.28 1322.5 2235.08 1321.65 Q2231.92 1320.76 2228.68 1320.76 Q2221.43 1320.76 2217.42 1325.38 Q2213.41 1329.95 2213.41 1338.26 Q2213.41 1346.56 2217.42 1351.18 Q2221.43 1355.76 2228.68 1355.76 Q2231.92 1355.76 2235.08 1354.91 Q2238.28 1354.02 2241.44 1352.28 L2241.44 1359.16 Q2238.32 1360.62 2234.96 1361.35 Q2231.63 1362.08 2227.87 1362.08 Q2217.62 1362.08 2211.58 1355.64 Q2205.55 1349.2 2205.55 1338.26 Q2205.55 1327.16 2211.62 1320.8 Q2217.74 1314.44 2228.35 1314.44 Q2231.8 1314.44 2235.08 1315.17 Q2238.36 1315.86 2241.44 1317.28 Z" fill="#000000" fill-rule="evenodd" fill-opacity="1" /><path clip-path="url(#clip520)" d="M 0 0 M2288.06 1336.36 L2288.06 1340 L2253.79 1340 Q2254.28 1347.7 2258.41 1351.75 Q2262.58 1355.76 2270 1355.76 Q2274.29 1355.76 2278.3 1354.71 Q2282.35 1353.65 2286.32 1351.55 L2286.32 1358.59 Q2282.31 1360.3 2278.1 1361.19 Q2273.89 1362.08 2269.55 1362.08 Q2258.69 1362.08 2252.33 1355.76 Q2246.02 1349.44 2246.02 1338.66 Q2246.02 1327.52 2252.01 1321 Q2258.05 1314.44 2268.25 1314.44 Q2277.41 1314.44 2282.72 1320.35 Q2288.06 1326.23 2288.06 1336.36 M2280.61 1334.17 Q2280.53 1328.05 2277.17 1324.41 Q2273.84 1320.76 2268.34 1320.76 Q2262.1 1320.76 2258.33 1324.28 Q2254.6 1327.81 2254.04 1334.21 L2280.61 1334.17 Z" fill="#000000" fill-rule="evenodd" fill-opacity="1" /><path clip-path="url(#clip520)" d="M 0 0 M2330.35 1374.68 L2330.35 1380.47 L2287.25 1380.47 L2287.25 1374.68 L2330.35 1374.68 Z" fill="#000000" fill-rule="evenodd" fill-opacity="1" /><path clip-path="url(#clip520)" d="M 0 0 M2346.68 1307.15 L2346.68 1329.87 L2356.97 1329.87 Q2362.68 1329.87 2365.8 1326.92 Q2368.92 1323.96 2368.92 1318.49 Q2368.92 1313.06 2365.8 1310.11 Q2362.68 1307.15 2356.97 1307.15 L2346.68 1307.15 M2338.5 1300.42 L2356.97 1300.42 Q2367.14 1300.42 2372.32 1305.04 Q2377.55 1309.62 2377.55 1318.49 Q2377.55 1327.44 2372.32 1332.02 Q2367.14 1336.6 2356.97 1336.6 L2346.68 1336.6 L2346.68 1360.9 L2338.5 1360.9 L2338.5 1300.42 Z" fill="#000000" fill-rule="evenodd" fill-opacity="1" /><path clip-path="url(#clip520)" d="M 0 0 M2402.26 1338.1 Q2393.22 1338.1 2389.74 1340.16 Q2386.26 1342.23 2386.26 1347.21 Q2386.26 1351.18 2388.85 1353.53 Q2391.48 1355.84 2395.98 1355.84 Q2402.18 1355.84 2405.9 1351.47 Q2409.67 1347.05 2409.67 1339.76 L2409.67 1338.1 L2402.26 1338.1 M2417.13 1335.02 L2417.13 1360.9 L2409.67 1360.9 L2409.67 1354.02 Q2407.12 1358.15 2403.31 1360.13 Q2399.5 1362.08 2393.99 1362.08 Q2387.03 1362.08 2382.9 1358.19 Q2378.8 1354.26 2378.8 1347.7 Q2378.8 1340.04 2383.91 1336.15 Q2389.05 1332.26 2399.22 1332.26 L2409.67 1332.26 L2409.67 1331.53 Q2409.67 1326.39 2406.27 1323.59 Q2402.91 1320.76 2396.79 1320.76 Q2392.9 1320.76 2389.21 1321.69 Q2385.53 1322.62 2382.13 1324.49 L2382.13 1317.6 Q2386.22 1316.02 2390.07 1315.25 Q2393.91 1314.44 2397.56 1314.44 Q2407.4 1314.44 2412.26 1319.54 Q2417.13 1324.65 2417.13 1335.02 Z" fill="#000000" fill-rule="evenodd" fill-opacity="1" /><path clip-path="url(#clip520)" d="M 0 0 M2451.23 1322.5 Q2449.98 1321.77 2448.48 1321.45 Q2447.02 1321.08 2445.24 1321.08 Q2438.92 1321.08 2435.52 1325.22 Q2432.15 1329.31 2432.15 1337 L2432.15 1360.9 L2424.66 1360.9 L2424.66 1315.53 L2432.15 1315.53 L2432.15 1322.58 Q2434.5 1318.45 2438.27 1316.47 Q2442.04 1314.44 2447.43 1314.44 Q2448.2 1314.44 2449.13 1314.56 Q2450.06 1314.64 2451.19 1314.85 L2451.23 1322.5 Z" fill="#000000" fill-rule="evenodd" fill-opacity="1" /><path clip-path="url(#clip520)" d="M 0 0 M2479.67 1338.1 Q2470.64 1338.1 2467.15 1340.16 Q2463.67 1342.23 2463.67 1347.21 Q2463.67 1351.18 2466.26 1353.53 Q2468.9 1355.84 2473.39 1355.84 Q2479.59 1355.84 2483.32 1351.47 Q2487.08 1347.05 2487.08 1339.76 L2487.08 1338.1 L2479.67 1338.1 M2494.54 1335.02 L2494.54 1360.9 L2487.08 1360.9 L2487.08 1354.02 Q2484.53 1358.15 2480.72 1360.13 Q2476.92 1362.08 2471.41 1362.08 Q2464.44 1362.08 2460.31 1358.19 Q2456.22 1354.26 2456.22 1347.7 Q2456.22 1340.04 2461.32 1336.15 Q2466.47 1332.26 2476.63 1332.26 L2487.08 1332.26 L2487.08 1331.53 Q2487.08 1326.39 2483.68 1323.59 Q2480.32 1320.76 2474.2 1320.76 Q2470.31 1320.76 2466.63 1321.69 Q2462.94 1322.62 2459.54 1324.49 L2459.54 1317.6 Q2463.63 1316.02 2467.48 1315.25 Q2471.33 1314.44 2474.97 1314.44 Q2484.82 1314.44 2489.68 1319.54 Q2494.54 1324.65 2494.54 1335.02 Z" fill="#000000" fill-rule="evenodd" fill-opacity="1" /><path clip-path="url(#clip520)" d="M 0 0 M2537.68 1324.24 Q2540.48 1319.22 2544.36 1316.83 Q2548.25 1314.44 2553.52 1314.44 Q2560.61 1314.44 2564.46 1319.42 Q2568.3 1324.36 2568.3 1333.52 L2568.3 1360.9 L2560.81 1360.9 L2560.81 1333.76 Q2560.81 1327.24 2558.5 1324.08 Q2556.19 1320.92 2551.45 1320.92 Q2545.66 1320.92 2542.3 1324.77 Q2538.94 1328.62 2538.94 1335.26 L2538.94 1360.9 L2531.44 1360.9 L2531.44 1333.76 Q2531.44 1327.2 2529.13 1324.08 Q2526.82 1320.92 2522 1320.92 Q2516.29 1320.92 2512.93 1324.81 Q2509.57 1328.66 2509.57 1335.26 L2509.57 1360.9 L2502.07 1360.9 L2502.07 1315.53 L2509.57 1315.53 L2509.57 1322.58 Q2512.12 1318.41 2515.68 1316.42 Q2519.25 1314.44 2524.15 1314.44 Q2529.09 1314.44 2532.54 1316.95 Q2536.02 1319.46 2537.68 1324.24 Z" fill="#000000" fill-rule="evenodd" fill-opacity="1" /><path clip-path="url(#clip520)" d="M 0 0 M2614.93 1336.36 L2614.93 1340 L2580.66 1340 Q2581.15 1347.7 2585.28 1351.75 Q2589.45 1355.76 2596.86 1355.76 Q2601.16 1355.76 2605.17 1354.71 Q2609.22 1353.65 2613.19 1351.55 L2613.19 1358.59 Q2609.18 1360.3 2604.97 1361.19 Q2600.75 1362.08 2596.42 1362.08 Q2585.56 1362.08 2579.2 1355.76 Q2572.88 1349.44 2572.88 1338.66 Q2572.88 1327.52 2578.88 1321 Q2584.91 1314.44 2595.12 1314.44 Q2604.28 1314.44 2609.58 1320.35 Q2614.93 1326.23 2614.93 1336.36 M2607.48 1334.17 Q2607.4 1328.05 2604.03 1324.41 Q2600.71 1320.76 2595.2 1320.76 Q2588.96 1320.76 2585.2 1324.28 Q2581.47 1327.81 2580.9 1334.21 L2607.48 1334.17 Z" fill="#000000" fill-rule="evenodd" fill-opacity="1" /><path clip-path="url(#clip520)" d="M 0 0 M2630.12 1302.65 L2630.12 1315.53 L2645.47 1315.53 L2645.47 1321.33 L2630.12 1321.33 L2630.12 1345.96 Q2630.12 1351.51 2631.62 1353.09 Q2633.16 1354.67 2637.82 1354.67 L2645.47 1354.67 L2645.47 1360.9 L2637.82 1360.9 Q2629.19 1360.9 2625.91 1357.7 Q2622.63 1354.46 2622.63 1345.96 L2622.63 1321.33 L2617.16 1321.33 L2617.16 1315.53 L2622.63 1315.53 L2622.63 1302.65 L2630.12 1302.65 Z" fill="#000000" fill-rule="evenodd" fill-opacity="1" /><path clip-path="url(#clip520)" d="M 0 0 M2692.1 1336.36 L2692.1 1340 L2657.83 1340 Q2658.32 1347.7 2662.45 1351.75 Q2666.62 1355.76 2674.03 1355.76 Q2678.33 1355.76 2682.34 1354.71 Q2686.39 1353.65 2690.36 1351.55 L2690.36 1358.59 Q2686.35 1360.3 2682.14 1361.19 Q2677.92 1362.08 2673.59 1362.08 Q2662.73 1362.08 2656.37 1355.76 Q2650.05 1349.44 2650.05 1338.66 Q2650.05 1327.52 2656.05 1321 Q2662.08 1314.44 2672.29 1314.44 Q2681.45 1314.44 2686.75 1320.35 Q2692.1 1326.23 2692.1 1336.36 M2684.65 1334.17 Q2684.57 1328.05 2681.2 1324.41 Q2677.88 1320.76 2672.37 1320.76 Q2666.13 1320.76 2662.37 1324.28 Q2658.64 1327.81 2658.07 1334.21 L2684.65 1334.17 Z" fill="#000000" fill-rule="evenodd" fill-opacity="1" /><path clip-path="url(#clip520)" d="M 0 0 M2726.21 1322.5 Q2724.95 1321.77 2723.45 1321.45 Q2722 1321.08 2720.21 1321.08 Q2713.89 1321.08 2710.49 1325.22 Q2707.13 1329.31 2707.13 1337 L2707.13 1360.9 L2699.64 1360.9 L2699.64 1315.53 L2707.13 1315.53 L2707.13 1322.58 Q2709.48 1318.45 2713.25 1316.47 Q2717.01 1314.44 2722.4 1314.44 Q2723.17 1314.44 2724.1 1314.56 Q2725.03 1314.64 2726.17 1314.85 L2726.21 1322.5 Z" fill="#000000" fill-rule="evenodd" fill-opacity="1" /><path clip-path="url(#clip520)" d="M 0 0 M2762.95 1316.87 L2762.95 1323.92 Q2759.79 1322.3 2756.39 1321.49 Q2752.99 1320.68 2749.34 1320.68 Q2743.79 1320.68 2740.99 1322.38 Q2738.24 1324.08 2738.24 1327.48 Q2738.24 1330.08 2740.23 1331.58 Q2742.21 1333.03 2748.21 1334.37 L2750.76 1334.94 Q2758.7 1336.64 2762.02 1339.76 Q2765.38 1342.84 2765.38 1348.39 Q2765.38 1354.71 2760.36 1358.39 Q2755.38 1362.08 2746.63 1362.08 Q2742.98 1362.08 2739.01 1361.35 Q2735.08 1360.66 2730.71 1359.24 L2730.71 1351.55 Q2734.84 1353.69 2738.85 1354.79 Q2742.86 1355.84 2746.79 1355.84 Q2752.05 1355.84 2754.89 1354.06 Q2757.73 1352.23 2757.73 1348.95 Q2757.73 1345.92 2755.66 1344.3 Q2753.63 1342.67 2746.71 1341.18 L2744.11 1340.57 Q2737.19 1339.11 2734.11 1336.11 Q2731.03 1333.07 2731.03 1327.81 Q2731.03 1321.41 2735.57 1317.92 Q2740.1 1314.44 2748.45 1314.44 Q2752.58 1314.44 2756.23 1315.05 Q2759.87 1315.66 2762.95 1316.87 Z" fill="#000000" fill-rule="evenodd" fill-opacity="1" /><path clip-path="url(#clip520)" d="M 0 0 M664.575 1348.21 L664.575 1356.84 Q660.443 1352.99 655.744 1351.08 Q651.085 1349.18 645.819 1349.18 Q635.449 1349.18 629.94 1355.54 Q624.43 1361.86 624.43 1373.85 Q624.43 1385.8 629.94 1392.16 Q635.449 1398.48 645.819 1398.48 Q651.085 1398.48 655.744 1396.58 Q660.443 1394.67 664.575 1390.82 L664.575 1399.37 Q660.281 1402.29 655.46 1403.75 Q650.68 1405.2 645.333 1405.2 Q631.601 1405.2 623.701 1396.82 Q615.802 1388.39 615.802 1373.85 Q615.802 1359.27 623.701 1350.88 Q631.601 1342.46 645.333 1342.46 Q650.761 1342.46 655.541 1343.91 Q660.362 1345.33 664.575 1348.21 Z" fill="#000000" fill-rule="evenodd" fill-opacity="1" /><path clip-path="url(#clip520)" d="M 0 0 M672.393 1341 L679.847 1341 L679.847 1404.03 L672.393 1404.03 L672.393 1341 Z" fill="#000000" fill-rule="evenodd" fill-opacity="1" /><path clip-path="url(#clip520)" d="M 0 0 M687.665 1358.66 L695.119 1358.66 L695.119 1404.03 L687.665 1404.03 L687.665 1358.66 M687.665 1341 L695.119 1341 L695.119 1350.44 L687.665 1350.44 L687.665 1341 Z" fill="#000000" fill-rule="evenodd" fill-opacity="1" /><path clip-path="url(#clip520)" d="M 0 0 M741.745 1379.48 L741.745 1383.13 L707.474 1383.13 Q707.96 1390.82 712.092 1394.87 Q716.264 1398.88 723.678 1398.88 Q727.972 1398.88 731.982 1397.83 Q736.033 1396.78 740.003 1394.67 L740.003 1401.72 Q735.992 1403.42 731.779 1404.31 Q727.567 1405.2 723.232 1405.2 Q712.376 1405.2 706.016 1398.88 Q699.696 1392.57 699.696 1381.79 Q699.696 1370.65 705.692 1364.13 Q711.727 1357.57 721.936 1357.57 Q731.091 1357.57 736.397 1363.48 Q741.745 1369.35 741.745 1379.48 M734.291 1377.29 Q734.21 1371.18 730.848 1367.53 Q727.526 1363.88 722.017 1363.88 Q715.778 1363.88 712.011 1367.41 Q708.284 1370.93 707.717 1377.33 L734.291 1377.29 Z" fill="#000000" fill-rule="evenodd" fill-opacity="1" /><path clip-path="url(#clip520)" d="M 0 0 M787.277 1376.64 L787.277 1404.03 L779.823 1404.03 L779.823 1376.89 Q779.823 1370.45 777.312 1367.25 Q774.8 1364.05 769.777 1364.05 Q763.741 1364.05 760.257 1367.9 Q756.774 1371.74 756.774 1378.39 L756.774 1404.03 L749.279 1404.03 L749.279 1358.66 L756.774 1358.66 L756.774 1365.71 Q759.447 1361.62 763.052 1359.59 Q766.698 1357.57 771.438 1357.57 Q779.256 1357.57 783.266 1362.43 Q787.277 1367.25 787.277 1376.64 Z" fill="#000000" fill-rule="evenodd" fill-opacity="1" /><path clip-path="url(#clip520)" d="M 0 0 M802.468 1345.78 L802.468 1358.66 L817.821 1358.66 L817.821 1364.45 L802.468 1364.45 L802.468 1389.08 Q802.468 1394.63 803.967 1396.21 Q805.506 1397.79 810.164 1397.79 L817.821 1397.79 L817.821 1404.03 L810.164 1404.03 Q801.536 1404.03 798.255 1400.83 Q794.974 1397.59 794.974 1389.08 L794.974 1364.45 L789.505 1364.45 L789.505 1358.66 L794.974 1358.66 L794.974 1345.78 L802.468 1345.78 Z" fill="#000000" fill-rule="evenodd" fill-opacity="1" /><path clip-path="url(#clip520)" d="M 0 0 M860.112 1417.8 L860.112 1423.59 L817.01 1423.59 L817.01 1417.8 L860.112 1417.8 Z" fill="#000000" fill-rule="evenodd" fill-opacity="1" /><path clip-path="url(#clip520)" d="M 0 0 M888.549 1381.22 Q879.516 1381.22 876.032 1383.29 Q872.548 1385.35 872.548 1390.34 Q872.548 1394.31 875.141 1396.66 Q877.774 1398.97 882.271 1398.97 Q888.468 1398.97 892.195 1394.59 Q895.963 1390.18 895.963 1382.88 L895.963 1381.22 L888.549 1381.22 M903.416 1378.14 L903.416 1404.03 L895.963 1404.03 L895.963 1397.14 Q893.411 1401.27 889.603 1403.26 Q885.795 1405.2 880.286 1405.2 Q873.318 1405.2 869.186 1401.32 Q865.095 1397.39 865.095 1390.82 Q865.095 1383.17 870.199 1379.28 Q875.343 1375.39 885.511 1375.39 L895.963 1375.39 L895.963 1374.66 Q895.963 1369.52 892.56 1366.72 Q889.198 1363.88 883.081 1363.88 Q879.192 1363.88 875.506 1364.82 Q871.819 1365.75 868.416 1367.61 L868.416 1360.72 Q872.508 1359.15 876.356 1358.38 Q880.205 1357.57 883.85 1357.57 Q893.694 1357.57 898.555 1362.67 Q903.416 1367.77 903.416 1378.14 Z" fill="#000000" fill-rule="evenodd" fill-opacity="1" /><path clip-path="url(#clip520)" d="M 0 0 M948.948 1376.64 L948.948 1404.03 L941.495 1404.03 L941.495 1376.89 Q941.495 1370.45 938.983 1367.25 Q936.472 1364.05 931.449 1364.05 Q925.413 1364.05 921.929 1367.9 Q918.445 1371.74 918.445 1378.39 L918.445 1404.03 L910.951 1404.03 L910.951 1358.66 L918.445 1358.66 L918.445 1365.71 Q921.119 1361.62 924.724 1359.59 Q928.37 1357.57 933.109 1357.57 Q940.928 1357.57 944.938 1362.43 Q948.948 1367.25 948.948 1376.64 Z" fill="#000000" fill-rule="evenodd" fill-opacity="1" /><path clip-path="url(#clip520)" d="M 0 0 M986.622 1365.55 L986.622 1341 L994.075 1341 L994.075 1404.03 L986.622 1404.03 L986.622 1397.22 Q984.272 1401.27 980.667 1403.26 Q977.102 1405.2 972.079 1405.2 Q963.856 1405.2 958.671 1398.64 Q953.526 1392.08 953.526 1381.38 Q953.526 1370.69 958.671 1364.13 Q963.856 1357.57 972.079 1357.57 Q977.102 1357.57 980.667 1359.55 Q984.272 1361.49 986.622 1365.55 M961.223 1381.38 Q961.223 1389.61 964.585 1394.31 Q967.988 1398.97 973.902 1398.97 Q979.816 1398.97 983.219 1394.31 Q986.622 1389.61 986.622 1381.38 Q986.622 1373.16 983.219 1368.5 Q979.816 1363.8 973.902 1363.8 Q967.988 1363.8 964.585 1368.5 Q961.223 1373.16 961.223 1381.38 Z" fill="#000000" fill-rule="evenodd" fill-opacity="1" /><path clip-path="url(#clip520)" d="M 0 0 M1036.37 1417.8 L1036.37 1423.59 L993.265 1423.59 L993.265 1417.8 L1036.37 1417.8 Z" fill="#000000" fill-rule="evenodd" fill-opacity="1" /><path clip-path="url(#clip520)" d="M 0 0 M1089.8 1348.21 L1089.8 1356.84 Q1085.67 1352.99 1080.97 1351.08 Q1076.31 1349.18 1071.04 1349.18 Q1060.67 1349.18 1055.16 1355.54 Q1049.65 1361.86 1049.65 1373.85 Q1049.65 1385.8 1055.16 1392.16 Q1060.67 1398.48 1071.04 1398.48 Q1076.31 1398.48 1080.97 1396.58 Q1085.67 1394.67 1089.8 1390.82 L1089.8 1399.37 Q1085.5 1402.29 1080.68 1403.75 Q1075.9 1405.2 1070.56 1405.2 Q1056.82 1405.2 1048.92 1396.82 Q1041.03 1388.39 1041.03 1373.85 Q1041.03 1359.27 1048.92 1350.88 Q1056.82 1342.46 1070.56 1342.46 Q1075.98 1342.46 1080.76 1343.91 Q1085.59 1345.33 1089.8 1348.21 Z" fill="#000000" fill-rule="evenodd" fill-opacity="1" /><path clip-path="url(#clip520)" d="M 0 0 M1115.2 1363.88 Q1109.2 1363.88 1105.72 1368.58 Q1102.23 1373.24 1102.23 1381.38 Q1102.23 1389.53 1105.68 1394.23 Q1109.16 1398.88 1115.2 1398.88 Q1121.15 1398.88 1124.64 1394.19 Q1128.12 1389.49 1128.12 1381.38 Q1128.12 1373.32 1124.64 1368.62 Q1121.15 1363.88 1115.2 1363.88 M1115.2 1357.57 Q1124.92 1357.57 1130.47 1363.88 Q1136.02 1370.2 1136.02 1381.38 Q1136.02 1392.52 1130.47 1398.88 Q1124.92 1405.2 1115.2 1405.2 Q1105.43 1405.2 1099.89 1398.88 Q1094.38 1392.52 1094.38 1381.38 Q1094.38 1370.2 1099.89 1363.88 Q1105.43 1357.57 1115.2 1357.57 Z" fill="#000000" fill-rule="evenodd" fill-opacity="1" /><path clip-path="url(#clip520)" d="M 0 0 M1181.55 1376.64 L1181.55 1404.03 L1174.1 1404.03 L1174.1 1376.89 Q1174.1 1370.45 1171.59 1367.25 Q1169.07 1364.05 1164.05 1364.05 Q1158.02 1364.05 1154.53 1367.9 Q1151.05 1371.74 1151.05 1378.39 L1151.05 1404.03 L1143.55 1404.03 L1143.55 1358.66 L1151.05 1358.66 L1151.05 1365.71 Q1153.72 1361.62 1157.33 1359.59 Q1160.97 1357.57 1165.71 1357.57 Q1173.53 1357.57 1177.54 1362.43 Q1181.55 1367.25 1181.55 1376.64 Z" fill="#000000" fill-rule="evenodd" fill-opacity="1" /><path clip-path="url(#clip520)" d="M 0 0 M1218.29 1360 L1218.29 1367.04 Q1215.13 1365.42 1211.73 1364.61 Q1208.33 1363.8 1204.68 1363.8 Q1199.13 1363.8 1196.34 1365.51 Q1193.58 1367.21 1193.58 1370.61 Q1193.58 1373.2 1195.57 1374.7 Q1197.55 1376.16 1203.55 1377.5 L1206.1 1378.06 Q1214.04 1379.76 1217.36 1382.88 Q1220.72 1385.96 1220.72 1391.51 Q1220.72 1397.83 1215.7 1401.52 Q1210.72 1405.2 1201.97 1405.2 Q1198.32 1405.2 1194.35 1404.47 Q1190.42 1403.79 1186.05 1402.37 L1186.05 1394.67 Q1190.18 1396.82 1194.19 1397.91 Q1198.2 1398.97 1202.13 1398.97 Q1207.4 1398.97 1210.23 1397.18 Q1213.07 1395.36 1213.07 1392.08 Q1213.07 1389.04 1211 1387.42 Q1208.98 1385.8 1202.05 1384.3 L1199.46 1383.69 Q1192.53 1382.24 1189.45 1379.24 Q1186.37 1376.2 1186.37 1370.93 Q1186.37 1364.53 1190.91 1361.05 Q1195.45 1357.57 1203.79 1357.57 Q1207.92 1357.57 1211.57 1358.17 Q1215.21 1358.78 1218.29 1360 Z" fill="#000000" fill-rule="evenodd" fill-opacity="1" /><path clip-path="url(#clip520)" d="M 0 0 M1227.77 1386.12 L1227.77 1358.66 L1235.23 1358.66 L1235.23 1385.84 Q1235.23 1392.28 1237.74 1395.52 Q1240.25 1398.72 1245.27 1398.72 Q1251.31 1398.72 1254.79 1394.87 Q1258.32 1391.03 1258.32 1384.38 L1258.32 1358.66 L1265.77 1358.66 L1265.77 1404.03 L1258.32 1404.03 L1258.32 1397.06 Q1255.6 1401.19 1252 1403.22 Q1248.43 1405.2 1243.69 1405.2 Q1235.87 1405.2 1231.82 1400.34 Q1227.77 1395.48 1227.77 1386.12 M1246.53 1357.57 L1246.53 1357.57 Z" fill="#000000" fill-rule="evenodd" fill-opacity="1" /><path clip-path="url(#clip520)" d="M 0 0 M1273.59 1341 L1281.04 1341 L1281.04 1404.03 L1273.59 1404.03 L1273.59 1341 Z" fill="#000000" fill-rule="evenodd" fill-opacity="1" /><path clip-path="url(#clip520)" d="M 0 0 M1296.23 1345.78 L1296.23 1358.66 L1311.59 1358.66 L1311.59 1364.45 L1296.23 1364.45 L1296.23 1389.08 Q1296.23 1394.63 1297.73 1396.21 Q1299.27 1397.79 1303.93 1397.79 L1311.59 1397.79 L1311.59 1404.03 L1303.93 1404.03 Q1295.3 1404.03 1292.02 1400.83 Q1288.74 1397.59 1288.74 1389.08 L1288.74 1364.45 L1283.27 1364.45 L1283.27 1358.66 L1288.74 1358.66 L1288.74 1345.78 L1296.23 1345.78 Z" fill="#000000" fill-rule="evenodd" fill-opacity="1" /><path clip-path="url(#clip520)" d="M 0 0 M1340.02 1381.22 Q1330.99 1381.22 1327.51 1383.29 Q1324.02 1385.35 1324.02 1390.34 Q1324.02 1394.31 1326.61 1396.66 Q1329.25 1398.97 1333.74 1398.97 Q1339.94 1398.97 1343.67 1394.59 Q1347.44 1390.18 1347.44 1382.88 L1347.44 1381.22 L1340.02 1381.22 M1354.89 1378.14 L1354.89 1404.03 L1347.44 1404.03 L1347.44 1397.14 Q1344.88 1401.27 1341.08 1403.26 Q1337.27 1405.2 1331.76 1405.2 Q1324.79 1405.2 1320.66 1401.32 Q1316.57 1397.39 1316.57 1390.82 Q1316.57 1383.17 1321.67 1379.28 Q1326.82 1375.39 1336.98 1375.39 L1347.44 1375.39 L1347.44 1374.66 Q1347.44 1369.52 1344.03 1366.72 Q1340.67 1363.88 1334.55 1363.88 Q1330.67 1363.88 1326.98 1364.82 Q1323.29 1365.75 1319.89 1367.61 L1319.89 1360.72 Q1323.98 1359.15 1327.83 1358.38 Q1331.68 1357.57 1335.32 1357.57 Q1345.17 1357.57 1350.03 1362.67 Q1354.89 1367.77 1354.89 1378.14 Z" fill="#000000" fill-rule="evenodd" fill-opacity="1" /><path clip-path="url(#clip520)" d="M 0 0 M1400.42 1376.64 L1400.42 1404.03 L1392.97 1404.03 L1392.97 1376.89 Q1392.97 1370.45 1390.46 1367.25 Q1387.94 1364.05 1382.92 1364.05 Q1376.89 1364.05 1373.4 1367.9 Q1369.92 1371.74 1369.92 1378.39 L1369.92 1404.03 L1362.42 1404.03 L1362.42 1358.66 L1369.92 1358.66 L1369.92 1365.71 Q1372.59 1361.62 1376.2 1359.59 Q1379.84 1357.57 1384.58 1357.57 Q1392.4 1357.57 1396.41 1362.43 Q1400.42 1367.25 1400.42 1376.64 Z" fill="#000000" fill-rule="evenodd" fill-opacity="1" /><path clip-path="url(#clip520)" d="M 0 0 M1415.61 1345.78 L1415.61 1358.66 L1430.97 1358.66 L1430.97 1364.45 L1415.61 1364.45 L1415.61 1389.08 Q1415.61 1394.63 1417.11 1396.21 Q1418.65 1397.79 1423.31 1397.79 L1430.97 1397.79 L1430.97 1404.03 L1423.31 1404.03 Q1414.68 1404.03 1411.4 1400.83 Q1408.12 1397.59 1408.12 1389.08 L1408.12 1364.45 L1402.65 1364.45 L1402.65 1358.66 L1408.12 1358.66 L1408.12 1345.78 L1415.61 1345.78 Z" fill="#000000" fill-rule="evenodd" fill-opacity="1" /><path clip-path="url(#clip520)" d="M 0 0 M1473.26 1417.8 L1473.26 1423.59 L1430.16 1423.59 L1430.16 1417.8 L1473.26 1417.8 Z" fill="#000000" fill-rule="evenodd" fill-opacity="1" /><path clip-path="url(#clip520)" d="M 0 0 M1510.08 1375.67 Q1512.71 1376.56 1515.18 1379.48 Q1517.7 1382.4 1520.21 1387.5 L1528.51 1404.03 L1519.72 1404.03 L1511.98 1388.51 Q1508.99 1382.44 1506.15 1380.45 Q1503.36 1378.47 1498.49 1378.47 L1489.58 1378.47 L1489.58 1404.03 L1481.4 1404.03 L1481.4 1343.55 L1499.87 1343.55 Q1510.24 1343.55 1515.35 1347.88 Q1520.45 1352.22 1520.45 1360.97 Q1520.45 1366.68 1517.78 1370.45 Q1515.14 1374.21 1510.08 1375.67 M1489.58 1350.27 L1489.58 1371.74 L1499.87 1371.74 Q1505.79 1371.74 1508.78 1369.03 Q1511.82 1366.27 1511.82 1360.97 Q1511.82 1355.66 1508.78 1352.99 Q1505.79 1350.27 1499.87 1350.27 L1489.58 1350.27 Z" fill="#000000" fill-rule="evenodd" fill-opacity="1" /><path clip-path="url(#clip520)" d="M 0 0 M1571.41 1379.48 L1571.41 1383.13 L1537.14 1383.13 Q1537.63 1390.82 1541.76 1394.87 Q1545.93 1398.88 1553.34 1398.88 Q1557.64 1398.88 1561.65 1397.83 Q1565.7 1396.78 1569.67 1394.67 L1569.67 1401.72 Q1565.66 1403.42 1561.45 1404.31 Q1557.23 1405.2 1552.9 1405.2 Q1542.04 1405.2 1535.68 1398.88 Q1529.36 1392.57 1529.36 1381.79 Q1529.36 1370.65 1535.36 1364.13 Q1541.39 1357.57 1551.6 1357.57 Q1560.76 1357.57 1566.06 1363.48 Q1571.41 1369.35 1571.41 1379.48 M1563.96 1377.29 Q1563.88 1371.18 1560.51 1367.53 Q1557.19 1363.88 1551.68 1363.88 Q1545.44 1363.88 1541.68 1367.41 Q1537.95 1370.93 1537.38 1377.33 L1563.96 1377.29 Z" fill="#000000" fill-rule="evenodd" fill-opacity="1" /><path clip-path="url(#clip520)" d="M 0 0 M1583.68 1381.38 Q1583.68 1389.61 1587.05 1394.31 Q1590.45 1398.97 1596.36 1398.97 Q1602.28 1398.97 1605.68 1394.31 Q1609.08 1389.61 1609.08 1381.38 Q1609.08 1373.16 1605.68 1368.5 Q1602.28 1363.8 1596.36 1363.8 Q1590.45 1363.8 1587.05 1368.5 Q1583.68 1373.16 1583.68 1381.38 M1609.08 1397.22 Q1606.73 1401.27 1603.13 1403.26 Q1599.56 1405.2 1594.54 1405.2 Q1586.32 1405.2 1581.13 1398.64 Q1575.99 1392.08 1575.99 1381.38 Q1575.99 1370.69 1581.13 1364.13 Q1586.32 1357.57 1594.54 1357.57 Q1599.56 1357.57 1603.13 1359.55 Q1606.73 1361.49 1609.08 1365.55 L1609.08 1358.66 L1616.54 1358.66 L1616.54 1421.29 L1609.08 1421.29 L1609.08 1397.22 Z" fill="#000000" fill-rule="evenodd" fill-opacity="1" /><path clip-path="url(#clip520)" d="M 0 0 M1623.59 1386.12 L1623.59 1358.66 L1631.04 1358.66 L1631.04 1385.84 Q1631.04 1392.28 1633.55 1395.52 Q1636.06 1398.72 1641.09 1398.72 Q1647.12 1398.72 1650.61 1394.87 Q1654.13 1391.03 1654.13 1384.38 L1654.13 1358.66 L1661.58 1358.66 L1661.58 1404.03 L1654.13 1404.03 L1654.13 1397.06 Q1651.42 1401.19 1647.81 1403.22 Q1644.25 1405.2 1639.51 1405.2 Q1631.69 1405.2 1627.64 1400.34 Q1623.59 1395.48 1623.59 1386.12 M1642.34 1357.57 L1642.34 1357.57 Z" fill="#000000" fill-rule="evenodd" fill-opacity="1" /><path clip-path="url(#clip520)" d="M 0 0 M1708.21 1379.48 L1708.21 1383.13 L1673.94 1383.13 Q1674.42 1390.82 1678.56 1394.87 Q1682.73 1398.88 1690.14 1398.88 Q1694.44 1398.88 1698.45 1397.83 Q1702.5 1396.78 1706.47 1394.67 L1706.47 1401.72 Q1702.46 1403.42 1698.24 1404.31 Q1694.03 1405.2 1689.7 1405.2 Q1678.84 1405.2 1672.48 1398.88 Q1666.16 1392.57 1666.16 1381.79 Q1666.16 1370.65 1672.16 1364.13 Q1678.19 1357.57 1688.4 1357.57 Q1697.56 1357.57 1702.86 1363.48 Q1708.21 1369.35 1708.21 1379.48 M1700.76 1377.29 Q1700.67 1371.18 1697.31 1367.53 Q1693.99 1363.88 1688.48 1363.88 Q1682.24 1363.88 1678.48 1367.41 Q1674.75 1370.93 1674.18 1377.33 L1700.76 1377.29 Z" fill="#000000" fill-rule="evenodd" fill-opacity="1" /><path clip-path="url(#clip520)" d="M 0 0 M1744.95 1360 L1744.95 1367.04 Q1741.79 1365.42 1738.39 1364.61 Q1734.99 1363.8 1731.34 1363.8 Q1725.79 1363.8 1723 1365.51 Q1720.24 1367.21 1720.24 1370.61 Q1720.24 1373.2 1722.23 1374.7 Q1724.21 1376.16 1730.21 1377.5 L1732.76 1378.06 Q1740.7 1379.76 1744.02 1382.88 Q1747.38 1385.96 1747.38 1391.51 Q1747.38 1397.83 1742.36 1401.52 Q1737.38 1405.2 1728.63 1405.2 Q1724.98 1405.2 1721.01 1404.47 Q1717.08 1403.79 1712.71 1402.37 L1712.71 1394.67 Q1716.84 1396.82 1720.85 1397.91 Q1724.86 1398.97 1728.79 1398.97 Q1734.05 1398.97 1736.89 1397.18 Q1739.73 1395.36 1739.73 1392.08 Q1739.73 1389.04 1737.66 1387.42 Q1735.63 1385.8 1728.71 1384.3 L1726.11 1383.69 Q1719.19 1382.24 1716.11 1379.24 Q1713.03 1376.2 1713.03 1370.93 Q1713.03 1364.53 1717.57 1361.05 Q1722.1 1357.57 1730.45 1357.57 Q1734.58 1357.57 1738.23 1358.17 Q1741.87 1358.78 1744.95 1360 Z" fill="#000000" fill-rule="evenodd" fill-opacity="1" /><path clip-path="url(#clip520)" d="M 0 0 M1762.57 1345.78 L1762.57 1358.66 L1777.93 1358.66 L1777.93 1364.45 L1762.57 1364.45 L1762.57 1389.08 Q1762.57 1394.63 1764.07 1396.21 Q1765.61 1397.79 1770.27 1397.79 L1777.93 1397.79 L1777.93 1404.03 L1770.27 1404.03 Q1761.64 1404.03 1758.36 1400.83 Q1755.08 1397.59 1755.08 1389.08 L1755.08 1364.45 L1749.61 1364.45 L1749.61 1358.66 L1755.08 1358.66 L1755.08 1345.78 L1762.57 1345.78 Z" fill="#000000" fill-rule="evenodd" fill-opacity="1" /><path clip-path="url(#clip520)" d="M 0 0 M1814.67 1360 L1814.67 1367.04 Q1811.51 1365.42 1808.1 1364.61 Q1804.7 1363.8 1801.06 1363.8 Q1795.51 1363.8 1792.71 1365.51 Q1789.96 1367.21 1789.96 1370.61 Q1789.96 1373.2 1791.94 1374.7 Q1793.93 1376.16 1799.92 1377.5 L1802.47 1378.06 Q1810.41 1379.76 1813.74 1382.88 Q1817.1 1385.96 1817.1 1391.51 Q1817.1 1397.83 1812.07 1401.52 Q1807.09 1405.2 1798.34 1405.2 Q1794.7 1405.2 1790.73 1404.47 Q1786.8 1403.79 1782.42 1402.37 L1782.42 1394.67 Q1786.55 1396.82 1790.56 1397.91 Q1794.57 1398.97 1798.5 1398.97 Q1803.77 1398.97 1806.61 1397.18 Q1809.44 1395.36 1809.44 1392.08 Q1809.44 1389.04 1807.38 1387.42 Q1805.35 1385.8 1798.42 1384.3 L1795.83 1383.69 Q1788.9 1382.24 1785.82 1379.24 Q1782.75 1376.2 1782.75 1370.93 Q1782.75 1364.53 1787.28 1361.05 Q1791.82 1357.57 1800.16 1357.57 Q1804.3 1357.57 1807.94 1358.17 Q1811.59 1358.78 1814.67 1360 Z" fill="#000000" fill-rule="evenodd" fill-opacity="1" /><path clip-path="url(#clip520)" d="M 0 0 M1877.38 338.339 L1877.38 385.37 L1887.27 385.37 Q1899.78 385.37 1905.58 379.699 Q1911.41 374.028 1911.41 361.794 Q1911.41 349.641 1905.58 344.01 Q1899.78 338.339 1887.27 338.339 L1877.38 338.339 M1869.2 331.615 L1886.01 331.615 Q1903.59 331.615 1911.81 338.947 Q1920.04 346.238 1920.04 361.794 Q1920.04 377.43 1911.77 384.762 Q1903.51 392.095 1886.01 392.095 L1869.2 392.095 L1869.2 331.615 Z" fill="#000000" fill-rule="evenodd" fill-opacity="1" /><path clip-path="url(#clip520)" d="M 0 0 M1966.66 367.546 L1966.66 371.192 L1932.39 371.192 Q1932.88 378.889 1937.01 382.94 Q1941.18 386.95 1948.6 386.95 Q1952.89 386.95 1956.9 385.897 Q1960.95 384.843 1964.92 382.737 L1964.92 389.786 Q1960.91 391.487 1956.7 392.378 Q1952.48 393.269 1948.15 393.269 Q1937.29 393.269 1930.93 386.95 Q1924.61 380.631 1924.61 369.855 Q1924.61 358.715 1930.61 352.193 Q1936.65 345.631 1946.85 345.631 Q1956.01 345.631 1961.32 351.545 Q1966.66 357.419 1966.66 367.546 M1959.21 365.359 Q1959.13 359.242 1955.77 355.596 Q1952.44 351.95 1946.94 351.95 Q1940.7 351.95 1936.93 355.474 Q1933.2 358.999 1932.64 365.399 L1959.21 365.359 Z" fill="#000000" fill-rule="evenodd" fill-opacity="1" /><path clip-path="url(#clip520)" d="M 0 0 M2003.4 348.061 L2003.4 355.11 Q2000.25 353.489 1996.84 352.679 Q1993.44 351.869 1989.79 351.869 Q1984.24 351.869 1981.45 353.57 Q1978.69 355.272 1978.69 358.675 Q1978.69 361.267 1980.68 362.766 Q1982.66 364.224 1988.66 365.561 L1991.21 366.128 Q1999.15 367.83 2002.47 370.949 Q2005.84 374.028 2005.84 379.577 Q2005.84 385.897 2000.81 389.583 Q1995.83 393.269 1987.08 393.269 Q1983.43 393.269 1979.46 392.54 Q1975.53 391.852 1971.16 390.434 L1971.16 382.737 Q1975.29 384.884 1979.3 385.978 Q1983.31 387.031 1987.24 387.031 Q1992.51 387.031 1995.34 385.249 Q1998.18 383.426 1998.18 380.144 Q1998.18 377.106 1996.11 375.486 Q1994.09 373.866 1987.16 372.367 L1984.57 371.759 Q1977.64 370.301 1974.56 367.303 Q1971.48 364.265 1971.48 358.999 Q1971.48 352.598 1976.02 349.114 Q1980.56 345.631 1988.9 345.631 Q1993.03 345.631 1996.68 346.238 Q2000.33 346.846 2003.4 348.061 Z" fill="#000000" fill-rule="evenodd" fill-opacity="1" /><path clip-path="url(#clip520)" d="M 0 0 M2013.65 346.724 L2021.11 346.724 L2021.11 392.095 L2013.65 392.095 L2013.65 346.724 M2013.65 329.063 L2021.11 329.063 L2021.11 338.501 L2013.65 338.501 L2013.65 329.063 Z" fill="#000000" fill-rule="evenodd" fill-opacity="1" /><path clip-path="url(#clip520)" d="M 0 0 M2058.78 368.883 Q2058.78 360.781 2055.42 356.325 Q2052.1 351.869 2046.06 351.869 Q2040.07 351.869 2036.7 356.325 Q2033.38 360.781 2033.38 368.883 Q2033.38 376.944 2036.7 381.4 Q2040.07 385.856 2046.06 385.856 Q2052.1 385.856 2055.42 381.4 Q2058.78 376.944 2058.78 368.883 M2066.23 386.464 Q2066.23 398.049 2061.09 403.68 Q2055.95 409.351 2045.33 409.351 Q2041.4 409.351 2037.92 408.744 Q2034.43 408.177 2031.15 406.961 L2031.15 399.71 Q2034.43 401.493 2037.63 402.343 Q2040.84 403.194 2044.16 403.194 Q2051.49 403.194 2055.13 399.346 Q2058.78 395.538 2058.78 387.801 L2058.78 384.114 Q2056.47 388.125 2052.87 390.11 Q2049.26 392.095 2044.24 392.095 Q2035.89 392.095 2030.79 385.735 Q2025.68 379.375 2025.68 368.883 Q2025.68 358.351 2030.79 351.991 Q2035.89 345.631 2044.24 345.631 Q2049.26 345.631 2052.87 347.616 Q2056.47 349.601 2058.78 353.611 L2058.78 346.724 L2066.23 346.724 L2066.23 386.464 Z" fill="#000000" fill-rule="evenodd" fill-opacity="1" /><path clip-path="url(#clip520)" d="M 0 0 M2111.77 364.71 L2111.77 392.095 L2104.31 392.095 L2104.31 364.954 Q2104.31 358.513 2101.8 355.312 Q2099.29 352.112 2094.27 352.112 Q2088.23 352.112 2084.75 355.961 Q2081.26 359.809 2081.26 366.452 L2081.26 392.095 L2073.77 392.095 L2073.77 346.724 L2081.26 346.724 L2081.26 353.773 Q2083.94 349.682 2087.54 347.656 Q2091.19 345.631 2095.93 345.631 Q2103.75 345.631 2107.76 350.492 Q2111.77 355.312 2111.77 364.71 Z" fill="#000000" fill-rule="evenodd" fill-opacity="1" /><path clip-path="url(#clip520)" d="M 0 0 M2154.06 405.868 L2154.06 411.66 L2110.96 411.66 L2110.96 405.868 L2154.06 405.868 Z" fill="#000000" fill-rule="evenodd" fill-opacity="1" /><path clip-path="url(#clip520)" d="M 0 0 M2190.88 363.738 Q2193.51 364.629 2195.98 367.546 Q2198.5 370.463 2201.01 375.567 L2209.31 392.095 L2200.52 392.095 L2192.78 376.58 Q2189.79 370.503 2186.95 368.518 Q2184.16 366.533 2179.3 366.533 L2170.38 366.533 L2170.38 392.095 L2162.2 392.095 L2162.2 331.615 L2180.67 331.615 Q2191.04 331.615 2196.15 335.949 Q2201.25 340.284 2201.25 349.033 Q2201.25 354.745 2198.58 358.513 Q2195.94 362.28 2190.88 363.738 M2170.38 338.339 L2170.38 359.809 L2180.67 359.809 Q2186.59 359.809 2189.58 357.095 Q2192.62 354.34 2192.62 349.033 Q2192.62 343.727 2189.58 341.053 Q2186.59 338.339 2180.67 338.339 L2170.38 338.339 Z" fill="#000000" fill-rule="evenodd" fill-opacity="1" /><path clip-path="url(#clip520)" d="M 0 0 M2252.21 367.546 L2252.21 371.192 L2217.94 371.192 Q2218.43 378.889 2222.56 382.94 Q2226.73 386.95 2234.14 386.95 Q2238.44 386.95 2242.45 385.897 Q2246.5 384.843 2250.47 382.737 L2250.47 389.786 Q2246.46 391.487 2242.25 392.378 Q2238.03 393.269 2233.7 393.269 Q2222.84 393.269 2216.48 386.95 Q2210.16 380.631 2210.16 369.855 Q2210.16 358.715 2216.16 352.193 Q2222.19 345.631 2232.4 345.631 Q2241.56 345.631 2246.86 351.545 Q2252.21 357.419 2252.21 367.546 M2244.76 365.359 Q2244.68 359.242 2241.31 355.596 Q2237.99 351.95 2232.48 351.95 Q2226.25 351.95 2222.48 355.474 Q2218.75 358.999 2218.18 365.399 L2244.76 365.359 Z" fill="#000000" fill-rule="evenodd" fill-opacity="1" /><path clip-path="url(#clip520)" d="M 0 0 M2280.65 369.288 Q2271.62 369.288 2268.13 371.354 Q2264.65 373.42 2264.65 378.403 Q2264.65 382.372 2267.24 384.722 Q2269.87 387.031 2274.37 387.031 Q2280.57 387.031 2284.29 382.656 Q2288.06 378.24 2288.06 370.949 L2288.06 369.288 L2280.65 369.288 M2295.52 366.209 L2295.52 392.095 L2288.06 392.095 L2288.06 385.208 Q2285.51 389.34 2281.7 391.325 Q2277.89 393.269 2272.38 393.269 Q2265.42 393.269 2261.29 389.38 Q2257.19 385.451 2257.19 378.889 Q2257.19 371.232 2262.3 367.344 Q2267.44 363.455 2277.61 363.455 L2288.06 363.455 L2288.06 362.726 Q2288.06 357.581 2284.66 354.786 Q2281.3 351.95 2275.18 351.95 Q2271.29 351.95 2267.6 352.882 Q2263.92 353.814 2260.52 355.677 L2260.52 348.79 Q2264.61 347.211 2268.46 346.441 Q2272.3 345.631 2275.95 345.631 Q2285.79 345.631 2290.65 350.735 Q2295.52 355.839 2295.52 366.209 Z" fill="#000000" fill-rule="evenodd" fill-opacity="1" /><path clip-path="url(#clip520)" d="M 0 0 M2332.26 348.061 L2332.26 355.11 Q2329.1 353.489 2325.69 352.679 Q2322.29 351.869 2318.65 351.869 Q2313.1 351.869 2310.3 353.57 Q2307.55 355.272 2307.55 358.675 Q2307.55 361.267 2309.53 362.766 Q2311.52 364.224 2317.51 365.561 L2320.06 366.128 Q2328 367.83 2331.33 370.949 Q2334.69 374.028 2334.69 379.577 Q2334.69 385.897 2329.66 389.583 Q2324.68 393.269 2315.93 393.269 Q2312.29 393.269 2308.32 392.54 Q2304.39 391.852 2300.01 390.434 L2300.01 382.737 Q2304.14 384.884 2308.15 385.978 Q2312.16 387.031 2316.09 387.031 Q2321.36 387.031 2324.2 385.249 Q2327.03 383.426 2327.03 380.144 Q2327.03 377.106 2324.97 375.486 Q2322.94 373.866 2316.01 372.367 L2313.42 371.759 Q2306.49 370.301 2303.41 367.303 Q2300.34 364.265 2300.34 358.999 Q2300.34 352.598 2304.87 349.114 Q2309.41 345.631 2317.75 345.631 Q2321.89 345.631 2325.53 346.238 Q2329.18 346.846 2332.26 348.061 Z" fill="#000000" fill-rule="evenodd" fill-opacity="1" /><path clip-path="url(#clip520)" d="M 0 0 M2360.09 351.95 Q2354.09 351.95 2350.61 356.649 Q2347.12 361.308 2347.12 369.45 Q2347.12 377.592 2350.57 382.291 Q2354.05 386.95 2360.09 386.95 Q2366.04 386.95 2369.53 382.251 Q2373.01 377.552 2373.01 369.45 Q2373.01 361.389 2369.53 356.69 Q2366.04 351.95 2360.09 351.95 M2360.09 345.631 Q2369.81 345.631 2375.36 351.95 Q2380.91 358.27 2380.91 369.45 Q2380.91 380.59 2375.36 386.95 Q2369.81 393.269 2360.09 393.269 Q2350.32 393.269 2344.77 386.95 Q2339.27 380.59 2339.27 369.45 Q2339.27 358.27 2344.77 351.95 Q2350.32 345.631 2360.09 345.631 Z" fill="#000000" fill-rule="evenodd" fill-opacity="1" /><path clip-path="url(#clip520)" d="M 0 0 M2426.44 364.71 L2426.44 392.095 L2418.99 392.095 L2418.99 364.954 Q2418.99 358.513 2416.48 355.312 Q2413.96 352.112 2408.94 352.112 Q2402.9 352.112 2399.42 355.961 Q2395.94 359.809 2395.94 366.452 L2395.94 392.095 L2388.44 392.095 L2388.44 346.724 L2395.94 346.724 L2395.94 353.773 Q2398.61 349.682 2402.22 347.656 Q2405.86 345.631 2410.6 345.631 Q2418.42 345.631 2422.43 350.492 Q2426.44 355.312 2426.44 364.71 Z" fill="#000000" fill-rule="evenodd" fill-opacity="1" /><path clip-path="url(#clip520)" d="M 0 0 M2434.26 346.724 L2441.71 346.724 L2441.71 392.095 L2434.26 392.095 L2434.26 346.724 M2434.26 329.063 L2441.71 329.063 L2441.71 338.501 L2434.26 338.501 L2434.26 329.063 Z" fill="#000000" fill-rule="evenodd" fill-opacity="1" /><path clip-path="url(#clip520)" d="M 0 0 M2487.24 364.71 L2487.24 392.095 L2479.79 392.095 L2479.79 364.954 Q2479.79 358.513 2477.28 355.312 Q2474.77 352.112 2469.74 352.112 Q2463.71 352.112 2460.23 355.961 Q2456.74 359.809 2456.74 366.452 L2456.74 392.095 L2449.25 392.095 L2449.25 346.724 L2456.74 346.724 L2456.74 353.773 Q2459.42 349.682 2463.02 347.656 Q2466.67 345.631 2471.41 345.631 Q2479.22 345.631 2483.23 350.492 Q2487.24 355.312 2487.24 364.71 Z" fill="#000000" fill-rule="evenodd" fill-opacity="1" /><path clip-path="url(#clip520)" d="M 0 0 M2524.92 368.883 Q2524.92 360.781 2521.56 356.325 Q2518.23 351.869 2512.2 351.869 Q2506.2 351.869 2502.84 356.325 Q2499.52 360.781 2499.52 368.883 Q2499.52 376.944 2502.84 381.4 Q2506.2 385.856 2512.2 385.856 Q2518.23 385.856 2521.56 381.4 Q2524.92 376.944 2524.92 368.883 M2532.37 386.464 Q2532.37 398.049 2527.23 403.68 Q2522.08 409.351 2511.47 409.351 Q2507.54 409.351 2504.06 408.744 Q2500.57 408.177 2497.29 406.961 L2497.29 399.71 Q2500.57 401.493 2503.77 402.343 Q2506.97 403.194 2510.29 403.194 Q2517.63 403.194 2521.27 399.346 Q2524.92 395.538 2524.92 387.801 L2524.92 384.114 Q2522.61 388.125 2519 390.11 Q2515.4 392.095 2510.38 392.095 Q2502.03 392.095 2496.93 385.735 Q2491.82 379.375 2491.82 368.883 Q2491.82 358.351 2496.93 351.991 Q2502.03 345.631 2510.38 345.631 Q2515.4 345.631 2519 347.616 Q2522.61 349.601 2524.92 353.611 L2524.92 346.724 L2532.37 346.724 L2532.37 386.464 Z" fill="#000000" fill-rule="evenodd" fill-opacity="1" /><path clip-path="url(#clip520)" d="M 0 0 M76.2665 1453.72 L76.2665 1462.34 Q72.1346 1458.5 67.4356 1456.59 Q62.777 1454.69 57.5109 1454.69 Q47.1405 1454.69 41.6313 1461.05 Q36.1221 1467.37 36.1221 1479.36 Q36.1221 1491.31 41.6313 1497.67 Q47.1405 1503.99 57.5109 1503.99 Q62.777 1503.99 67.4356 1502.08 Q72.1346 1500.18 76.2665 1496.33 L76.2665 1504.88 Q71.9726 1507.8 67.152 1509.25 Q62.3719 1510.71 57.0248 1510.71 Q43.2922 1510.71 35.3929 1502.33 Q27.4937 1493.9 27.4937 1479.36 Q27.4937 1464.78 35.3929 1456.39 Q43.2922 1447.96 57.0248 1447.96 Q62.453 1447.96 67.233 1449.42 Q72.0536 1450.84 76.2665 1453.72 Z" fill="#000000" fill-rule="evenodd" fill-opacity="1" /><path clip-path="url(#clip520)" d="M 0 0 M101.666 1469.39 Q95.6704 1469.39 92.1866 1474.09 Q88.7028 1478.75 88.7028 1486.89 Q88.7028 1495.04 92.1461 1499.73 Q95.6299 1504.39 101.666 1504.39 Q107.621 1504.39 111.104 1499.69 Q114.588 1494.99 114.588 1486.89 Q114.588 1478.83 111.104 1474.13 Q107.621 1469.39 101.666 1469.39 M101.666 1463.07 Q111.388 1463.07 116.938 1469.39 Q122.487 1475.71 122.487 1486.89 Q122.487 1498.03 116.938 1504.39 Q111.388 1510.71 101.666 1510.71 Q91.903 1510.71 86.3533 1504.39 Q80.8441 1498.03 80.8441 1486.89 Q80.8441 1475.71 86.3533 1469.39 Q91.903 1463.07 101.666 1463.07 Z" fill="#000000" fill-rule="evenodd" fill-opacity="1" /><path clip-path="url(#clip520)" d="M 0 0 M130.306 1446.51 L137.759 1446.51 L137.759 1509.54 L130.306 1509.54 L130.306 1446.51 Z" fill="#000000" fill-rule="evenodd" fill-opacity="1" /><path clip-path="url(#clip520)" d="M 0 0 M145.578 1446.51 L153.031 1446.51 L153.031 1509.54 L145.578 1509.54 L145.578 1446.51 Z" fill="#000000" fill-rule="evenodd" fill-opacity="1" /><path clip-path="url(#clip520)" d="M 0 0 M181.469 1486.73 Q172.435 1486.73 168.951 1488.8 Q165.467 1490.86 165.467 1495.85 Q165.467 1499.82 168.06 1502.16 Q170.693 1504.47 175.19 1504.47 Q181.388 1504.47 185.114 1500.1 Q188.882 1495.68 188.882 1488.39 L188.882 1486.73 L181.469 1486.73 M196.335 1483.65 L196.335 1509.54 L188.882 1509.54 L188.882 1502.65 Q186.33 1506.78 182.522 1508.77 Q178.714 1510.71 173.205 1510.71 Q166.237 1510.71 162.105 1506.82 Q158.014 1502.89 158.014 1496.33 Q158.014 1488.68 163.118 1484.79 Q168.263 1480.9 178.43 1480.9 L188.882 1480.9 L188.882 1480.17 Q188.882 1475.02 185.479 1472.23 Q182.117 1469.39 176 1469.39 Q172.111 1469.39 168.425 1470.32 Q164.738 1471.26 161.336 1473.12 L161.336 1466.23 Q165.427 1464.65 169.275 1463.88 Q173.124 1463.07 176.769 1463.07 Q186.613 1463.07 191.474 1468.18 Q196.335 1473.28 196.335 1483.65 Z" fill="#000000" fill-rule="evenodd" fill-opacity="1" /><path clip-path="url(#clip520)" d="M 0 0 M236.723 1486.89 Q236.723 1478.67 233.32 1474.01 Q229.958 1469.31 224.044 1469.31 Q218.129 1469.31 214.726 1474.01 Q211.364 1478.67 211.364 1486.89 Q211.364 1495.12 214.726 1499.82 Q218.129 1504.47 224.044 1504.47 Q229.958 1504.47 233.32 1499.82 Q236.723 1495.12 236.723 1486.89 M211.364 1471.05 Q213.714 1467 217.279 1465.06 Q220.884 1463.07 225.866 1463.07 Q234.13 1463.07 239.275 1469.64 Q244.46 1476.2 244.46 1486.89 Q244.46 1497.59 239.275 1504.15 Q234.13 1510.71 225.866 1510.71 Q220.884 1510.71 217.279 1508.77 Q213.714 1506.78 211.364 1502.73 L211.364 1509.54 L203.87 1509.54 L203.87 1446.51 L211.364 1446.51 L211.364 1471.05 Z" fill="#000000" fill-rule="evenodd" fill-opacity="1" /><path clip-path="url(#clip520)" d="M 0 0 M269.859 1469.39 Q263.864 1469.39 260.38 1474.09 Q256.896 1478.75 256.896 1486.89 Q256.896 1495.04 260.34 1499.73 Q263.823 1504.39 269.859 1504.39 Q275.814 1504.39 279.298 1499.69 Q282.782 1494.99 282.782 1486.89 Q282.782 1478.83 279.298 1474.13 Q275.814 1469.39 269.859 1469.39 M269.859 1463.07 Q279.581 1463.07 285.131 1469.39 Q290.681 1475.71 290.681 1486.89 Q290.681 1498.03 285.131 1504.39 Q279.581 1510.71 269.859 1510.71 Q260.097 1510.71 254.547 1504.39 Q249.038 1498.03 249.038 1486.89 Q249.038 1475.71 254.547 1469.39 Q260.097 1463.07 269.859 1463.07 Z" fill="#000000" fill-rule="evenodd" fill-opacity="1" /><path clip-path="url(#clip520)" d="M 0 0 M324.79 1471.14 Q323.534 1470.41 322.035 1470.08 Q320.577 1469.72 318.794 1469.72 Q312.475 1469.72 309.072 1473.85 Q305.71 1477.94 305.71 1485.64 L305.71 1509.54 L298.216 1509.54 L298.216 1464.17 L305.71 1464.17 L305.71 1471.22 Q308.059 1467.08 311.827 1465.1 Q315.594 1463.07 320.982 1463.07 Q321.751 1463.07 322.683 1463.2 Q323.615 1463.28 324.749 1463.48 L324.79 1471.14 Z" fill="#000000" fill-rule="evenodd" fill-opacity="1" /><path clip-path="url(#clip520)" d="M 0 0 M353.227 1486.73 Q344.193 1486.73 340.71 1488.8 Q337.226 1490.86 337.226 1495.85 Q337.226 1499.82 339.818 1502.16 Q342.451 1504.47 346.948 1504.47 Q353.146 1504.47 356.873 1500.1 Q360.64 1495.68 360.64 1488.39 L360.64 1486.73 L353.227 1486.73 M368.094 1483.65 L368.094 1509.54 L360.64 1509.54 L360.64 1502.65 Q358.088 1506.78 354.28 1508.77 Q350.472 1510.71 344.963 1510.71 Q337.995 1510.71 333.864 1506.82 Q329.772 1502.89 329.772 1496.33 Q329.772 1488.68 334.876 1484.79 Q340.021 1480.9 350.189 1480.9 L360.64 1480.9 L360.64 1480.17 Q360.64 1475.02 357.237 1472.23 Q353.875 1469.39 347.758 1469.39 Q343.869 1469.39 340.183 1470.32 Q336.497 1471.26 333.094 1473.12 L333.094 1466.23 Q337.185 1464.65 341.034 1463.88 Q344.882 1463.07 348.528 1463.07 Q358.372 1463.07 363.233 1468.18 Q368.094 1473.28 368.094 1483.65 Z" fill="#000000" fill-rule="evenodd" fill-opacity="1" /><path clip-path="url(#clip520)" d="M 0 0 M383.285 1451.29 L383.285 1464.17 L398.638 1464.17 L398.638 1469.96 L383.285 1469.96 L383.285 1494.59 Q383.285 1500.14 384.783 1501.72 Q386.323 1503.3 390.981 1503.3 L398.638 1503.3 L398.638 1509.54 L390.981 1509.54 Q382.353 1509.54 379.072 1506.34 Q375.79 1503.1 375.79 1494.59 L375.79 1469.96 L370.322 1469.96 L370.322 1464.17 L375.79 1464.17 L375.79 1451.29 L383.285 1451.29 Z" fill="#000000" fill-rule="evenodd" fill-opacity="1" /><path clip-path="url(#clip520)" d="M 0 0 M406.456 1464.17 L413.909 1464.17 L413.909 1509.54 L406.456 1509.54 L406.456 1464.17 M406.456 1446.51 L413.909 1446.51 L413.909 1455.94 L406.456 1455.94 L406.456 1446.51 Z" fill="#000000" fill-rule="evenodd" fill-opacity="1" /><path clip-path="url(#clip520)" d="M 0 0 M439.309 1469.39 Q433.313 1469.39 429.829 1474.09 Q426.346 1478.75 426.346 1486.89 Q426.346 1495.04 429.789 1499.73 Q433.273 1504.39 439.309 1504.39 Q445.263 1504.39 448.747 1499.69 Q452.231 1494.99 452.231 1486.89 Q452.231 1478.83 448.747 1474.13 Q445.263 1469.39 439.309 1469.39 M439.309 1463.07 Q449.031 1463.07 454.58 1469.39 Q460.13 1475.71 460.13 1486.89 Q460.13 1498.03 454.58 1504.39 Q449.031 1510.71 439.309 1510.71 Q429.546 1510.71 423.996 1504.39 Q418.487 1498.03 418.487 1486.89 Q418.487 1475.71 423.996 1469.39 Q429.546 1463.07 439.309 1463.07 Z" fill="#000000" fill-rule="evenodd" fill-opacity="1" /><path clip-path="url(#clip520)" d="M 0 0 M505.662 1482.15 L505.662 1509.54 L498.209 1509.54 L498.209 1482.4 Q498.209 1475.96 495.697 1472.76 Q493.186 1469.56 488.162 1469.56 Q482.127 1469.56 478.643 1473.4 Q475.159 1477.25 475.159 1483.9 L475.159 1509.54 L467.665 1509.54 L467.665 1464.17 L475.159 1464.17 L475.159 1471.22 Q477.833 1467.12 481.438 1465.1 Q485.084 1463.07 489.823 1463.07 Q497.642 1463.07 501.652 1467.93 Q505.662 1472.76 505.662 1482.15 Z" fill="#000000" fill-rule="evenodd" fill-opacity="1" /></svg>
