<?xml version="1.0" encoding="utf-8"?>
<svg xmlns="http://www.w3.org/2000/svg" xmlns:xlink="http://www.w3.org/1999/xlink" width="600" height="400" viewBox="0 0 2400 1600">
<defs>
  <clipPath id="clip970">
    <rect x="0" y="0" width="2400" height="1600"/>
  </clipPath>
</defs>
<path clip-path="url(#clip970)" d="
M0 1600 L2400 1600 L2400 0 L0 0  Z
  " fill="#ffffff" fill-rule="evenodd" fill-opacity="1"/>
<defs>
  <clipPath id="clip971">
    <rect x="480" y="0" width="1681" height="1600"/>
  </clipPath>
</defs>
<path clip-path="url(#clip970)" d="
M86.9921 1521.01 L2352.76 1521.01 L2352.76 47.2441 L86.9921 47.2441  Z
  " fill="#ffffff" fill-rule="evenodd" fill-opacity="1"/>
<defs>
  <clipPath id="clip972">
    <rect x="86" y="47" width="2267" height="1475"/>
  </clipPath>
</defs>
<polyline clip-path="url(#clip972)" style="stroke:#000000; stroke-width:2; stroke-opacity:0.1; fill:none" points="
  1486.24,1521.01 1486.24,47.2441 
  "/>
<polyline clip-path="url(#clip972)" style="stroke:#000000; stroke-width:2; stroke-opacity:0.1; fill:none" points="
  86.9921,896.462 2352.76,896.462 
  "/>
<polyline clip-path="url(#clip970)" style="stroke:#000000; stroke-width:4; stroke-opacity:1; fill:none" points="
  86.9921,1521.01 2352.76,1521.01 
  "/>
<polyline clip-path="url(#clip970)" style="stroke:#000000; stroke-width:4; stroke-opacity:1; fill:none" points="
  86.9921,1521.01 86.9921,47.2441 
  "/>
<polyline clip-path="url(#clip970)" style="stroke:#000000; stroke-width:4; stroke-opacity:1; fill:none" points="
  1486.24,1521.01 1486.24,1503.32 
  "/>
<polyline clip-path="url(#clip970)" style="stroke:#000000; stroke-width:4; stroke-opacity:1; fill:none" points="
  86.9921,896.462 114.181,896.462 
  "/>
<path clip-path="url(#clip970)" d="M 0 0 M1486.24 1543 Q1482.63 1543 1480.8 1546.56 Q1478.99 1550.11 1478.99 1557.23 Q1478.99 1564.34 1480.8 1567.91 Q1482.63 1571.45 1486.24 1571.45 Q1489.87 1571.45 1491.68 1567.91 Q1493.51 1564.34 1493.51 1557.23 Q1493.51 1550.11 1491.68 1546.56 Q1489.87 1543 1486.24 1543 M1486.24 1539.29 Q1492.05 1539.29 1495.1 1543.9 Q1498.18 1548.48 1498.18 1557.23 Q1498.18 1565.96 1495.1 1570.57 Q1492.05 1575.15 1486.24 1575.15 Q1480.43 1575.15 1477.35 1570.57 Q1474.29 1565.96 1474.29 1557.23 Q1474.29 1548.48 1477.35 1543.9 Q1480.43 1539.29 1486.24 1539.29 Z" fill="#000000" fill-rule="evenodd" fill-opacity="1" /><path clip-path="url(#clip970)" d="M 0 0 M51.0477 882.261 Q47.4367 882.261 45.608 885.826 Q43.8024 889.368 43.8024 896.497 Q43.8024 903.604 45.608 907.168 Q47.4367 910.71 51.0477 910.71 Q54.682 910.71 56.4875 907.168 Q58.3162 903.604 58.3162 896.497 Q58.3162 889.368 56.4875 885.826 Q54.682 882.261 51.0477 882.261 M51.0477 878.557 Q56.8579 878.557 59.9134 883.164 Q62.9921 887.747 62.9921 896.497 Q62.9921 905.224 59.9134 909.83 Q56.8579 914.414 51.0477 914.414 Q45.2376 914.414 42.1589 909.83 Q39.1034 905.224 39.1034 896.497 Q39.1034 887.747 42.1589 883.164 Q45.2376 878.557 51.0477 878.557 Z" fill="#000000" fill-rule="evenodd" fill-opacity="1" /><circle clip-path="url(#clip972)" cx="1508.19" cy="909.532" r="14" fill="#808080" fill-rule="evenodd" fill-opacity="1" stroke="none"/>
<circle clip-path="url(#clip972)" cx="1454.1" cy="841.127" r="14" fill="#808080" fill-rule="evenodd" fill-opacity="1" stroke="none"/>
<circle clip-path="url(#clip972)" cx="1440.47" cy="872.143" r="14" fill="#808080" fill-rule="evenodd" fill-opacity="1" stroke="none"/>
<circle clip-path="url(#clip972)" cx="1475.45" cy="848.979" r="14" fill="#808080" fill-rule="evenodd" fill-opacity="1" stroke="none"/>
<circle clip-path="url(#clip972)" cx="1403.4" cy="903.431" r="14" fill="#808080" fill-rule="evenodd" fill-opacity="1" stroke="none"/>
<circle clip-path="url(#clip972)" cx="1072.54" cy="1093.57" r="14" fill="#808080" fill-rule="evenodd" fill-opacity="1" stroke="none"/>
<circle clip-path="url(#clip972)" cx="1403.59" cy="867.322" r="14" fill="#808080" fill-rule="evenodd" fill-opacity="1" stroke="none"/>
<circle clip-path="url(#clip972)" cx="1474.22" cy="876.444" r="14" fill="#808080" fill-rule="evenodd" fill-opacity="1" stroke="none"/>
<circle clip-path="url(#clip972)" cx="1442.8" cy="909.851" r="14" fill="#808080" fill-rule="evenodd" fill-opacity="1" stroke="none"/>
<circle clip-path="url(#clip972)" cx="1294.94" cy="811.73" r="14" fill="#808080" fill-rule="evenodd" fill-opacity="1" stroke="none"/>
<circle clip-path="url(#clip972)" cx="1518.06" cy="922.272" r="14" fill="#808080" fill-rule="evenodd" fill-opacity="1" stroke="none"/>
<circle clip-path="url(#clip972)" cx="1405.02" cy="818.373" r="14" fill="#808080" fill-rule="evenodd" fill-opacity="1" stroke="none"/>
<circle clip-path="url(#clip972)" cx="1477.49" cy="844.555" r="14" fill="#808080" fill-rule="evenodd" fill-opacity="1" stroke="none"/>
<circle clip-path="url(#clip972)" cx="1474.5" cy="909.072" r="14" fill="#808080" fill-rule="evenodd" fill-opacity="1" stroke="none"/>
<circle clip-path="url(#clip972)" cx="1413.62" cy="933.816" r="14" fill="#808080" fill-rule="evenodd" fill-opacity="1" stroke="none"/>
<circle clip-path="url(#clip972)" cx="1450.33" cy="960.818" r="14" fill="#808080" fill-rule="evenodd" fill-opacity="1" stroke="none"/>
<circle clip-path="url(#clip972)" cx="1467.5" cy="916.965" r="14" fill="#808080" fill-rule="evenodd" fill-opacity="1" stroke="none"/>
<circle clip-path="url(#clip972)" cx="1482.95" cy="829.765" r="14" fill="#808080" fill-rule="evenodd" fill-opacity="1" stroke="none"/>
<circle clip-path="url(#clip972)" cx="1356.4" cy="1077.38" r="14" fill="#808080" fill-rule="evenodd" fill-opacity="1" stroke="none"/>
<circle clip-path="url(#clip972)" cx="1592.58" cy="910.392" r="14" fill="#808080" fill-rule="evenodd" fill-opacity="1" stroke="none"/>
<circle clip-path="url(#clip972)" cx="1603.69" cy="945.433" r="14" fill="#808080" fill-rule="evenodd" fill-opacity="1" stroke="none"/>
<circle clip-path="url(#clip972)" cx="1596.11" cy="893.108" r="14" fill="#808080" fill-rule="evenodd" fill-opacity="1" stroke="none"/>
<circle clip-path="url(#clip972)" cx="1535.52" cy="921.285" r="14" fill="#808080" fill-rule="evenodd" fill-opacity="1" stroke="none"/>
<circle clip-path="url(#clip972)" cx="1566.65" cy="962.71" r="14" fill="#808080" fill-rule="evenodd" fill-opacity="1" stroke="none"/>
<circle clip-path="url(#clip972)" cx="1408.19" cy="853.661" r="14" fill="#808080" fill-rule="evenodd" fill-opacity="1" stroke="none"/>
<circle clip-path="url(#clip972)" cx="1458.94" cy="792.483" r="14" fill="#808080" fill-rule="evenodd" fill-opacity="1" stroke="none"/>
<circle clip-path="url(#clip972)" cx="1313.49" cy="985.585" r="14" fill="#808080" fill-rule="evenodd" fill-opacity="1" stroke="none"/>
<circle clip-path="url(#clip972)" cx="1477.49" cy="903.496" r="14" fill="#808080" fill-rule="evenodd" fill-opacity="1" stroke="none"/>
<circle clip-path="url(#clip972)" cx="1474.56" cy="823.196" r="14" fill="#808080" fill-rule="evenodd" fill-opacity="1" stroke="none"/>
<circle clip-path="url(#clip972)" cx="1537.57" cy="970.565" r="14" fill="#808080" fill-rule="evenodd" fill-opacity="1" stroke="none"/>
<circle clip-path="url(#clip972)" cx="1451.26" cy="823.455" r="14" fill="#808080" fill-rule="evenodd" fill-opacity="1" stroke="none"/>
<circle clip-path="url(#clip972)" cx="1514.08" cy="877.429" r="14" fill="#808080" fill-rule="evenodd" fill-opacity="1" stroke="none"/>
<circle clip-path="url(#clip972)" cx="1424.58" cy="734.829" r="14" fill="#808080" fill-rule="evenodd" fill-opacity="1" stroke="none"/>
<circle clip-path="url(#clip972)" cx="1405.13" cy="733.633" r="14" fill="#808080" fill-rule="evenodd" fill-opacity="1" stroke="none"/>
<circle clip-path="url(#clip972)" cx="1602.56" cy="788.01" r="14" fill="#808080" fill-rule="evenodd" fill-opacity="1" stroke="none"/>
<circle clip-path="url(#clip972)" cx="1487.41" cy="711.181" r="14" fill="#808080" fill-rule="evenodd" fill-opacity="1" stroke="none"/>
<circle clip-path="url(#clip972)" cx="1552.88" cy="732.815" r="14" fill="#808080" fill-rule="evenodd" fill-opacity="1" stroke="none"/>
<circle clip-path="url(#clip972)" cx="1662.59" cy="780.03" r="14" fill="#808080" fill-rule="evenodd" fill-opacity="1" stroke="none"/>
<circle clip-path="url(#clip972)" cx="1454.53" cy="716.257" r="14" fill="#808080" fill-rule="evenodd" fill-opacity="1" stroke="none"/>
<circle clip-path="url(#clip972)" cx="1634.75" cy="769.921" r="14" fill="#808080" fill-rule="evenodd" fill-opacity="1" stroke="none"/>
<circle clip-path="url(#clip972)" cx="1393.37" cy="847.192" r="14" fill="#808080" fill-rule="evenodd" fill-opacity="1" stroke="none"/>
<circle clip-path="url(#clip972)" cx="1426.42" cy="749.322" r="14" fill="#808080" fill-rule="evenodd" fill-opacity="1" stroke="none"/>
<circle clip-path="url(#clip972)" cx="1313.69" cy="722.949" r="14" fill="#808080" fill-rule="evenodd" fill-opacity="1" stroke="none"/>
<circle clip-path="url(#clip972)" cx="1220.44" cy="750.609" r="14" fill="#808080" fill-rule="evenodd" fill-opacity="1" stroke="none"/>
<circle clip-path="url(#clip972)" cx="1206.52" cy="903.391" r="14" fill="#808080" fill-rule="evenodd" fill-opacity="1" stroke="none"/>
<circle clip-path="url(#clip972)" cx="1414.46" cy="789.725" r="14" fill="#808080" fill-rule="evenodd" fill-opacity="1" stroke="none"/>
<circle clip-path="url(#clip972)" cx="1392.25" cy="800.807" r="14" fill="#808080" fill-rule="evenodd" fill-opacity="1" stroke="none"/>
<circle clip-path="url(#clip972)" cx="1396.64" cy="713.152" r="14" fill="#808080" fill-rule="evenodd" fill-opacity="1" stroke="none"/>
<circle clip-path="url(#clip972)" cx="1420.53" cy="785.574" r="14" fill="#808080" fill-rule="evenodd" fill-opacity="1" stroke="none"/>
<circle clip-path="url(#clip972)" cx="1364.56" cy="799.339" r="14" fill="#808080" fill-rule="evenodd" fill-opacity="1" stroke="none"/>
<circle clip-path="url(#clip972)" cx="1440.25" cy="968.851" r="14" fill="#808080" fill-rule="evenodd" fill-opacity="1" stroke="none"/>
<circle clip-path="url(#clip972)" cx="1440.74" cy="1042.09" r="14" fill="#808080" fill-rule="evenodd" fill-opacity="1" stroke="none"/>
<circle clip-path="url(#clip972)" cx="1589.13" cy="826.733" r="14" fill="#808080" fill-rule="evenodd" fill-opacity="1" stroke="none"/>
<circle clip-path="url(#clip972)" cx="1480.69" cy="987.569" r="14" fill="#808080" fill-rule="evenodd" fill-opacity="1" stroke="none"/>
<circle clip-path="url(#clip972)" cx="1670.54" cy="828.935" r="14" fill="#808080" fill-rule="evenodd" fill-opacity="1" stroke="none"/>
<circle clip-path="url(#clip972)" cx="1550.55" cy="877.859" r="14" fill="#808080" fill-rule="evenodd" fill-opacity="1" stroke="none"/>
<circle clip-path="url(#clip972)" cx="1577.34" cy="907.471" r="14" fill="#808080" fill-rule="evenodd" fill-opacity="1" stroke="none"/>
<circle clip-path="url(#clip972)" cx="1564.78" cy="867.124" r="14" fill="#808080" fill-rule="evenodd" fill-opacity="1" stroke="none"/>
<circle clip-path="url(#clip972)" cx="1573.22" cy="931.542" r="14" fill="#808080" fill-rule="evenodd" fill-opacity="1" stroke="none"/>
<circle clip-path="url(#clip972)" cx="1519.96" cy="873.312" r="14" fill="#808080" fill-rule="evenodd" fill-opacity="1" stroke="none"/>
<circle clip-path="url(#clip972)" cx="1596.3" cy="868.471" r="14" fill="#808080" fill-rule="evenodd" fill-opacity="1" stroke="none"/>
<circle clip-path="url(#clip972)" cx="1578.46" cy="836.823" r="14" fill="#808080" fill-rule="evenodd" fill-opacity="1" stroke="none"/>
<circle clip-path="url(#clip972)" cx="1521.48" cy="885.801" r="14" fill="#808080" fill-rule="evenodd" fill-opacity="1" stroke="none"/>
<circle clip-path="url(#clip972)" cx="1591.68" cy="902.201" r="14" fill="#808080" fill-rule="evenodd" fill-opacity="1" stroke="none"/>
<circle clip-path="url(#clip972)" cx="1626.72" cy="890.474" r="14" fill="#808080" fill-rule="evenodd" fill-opacity="1" stroke="none"/>
<circle clip-path="url(#clip972)" cx="1602.64" cy="938.585" r="14" fill="#808080" fill-rule="evenodd" fill-opacity="1" stroke="none"/>
<circle clip-path="url(#clip972)" cx="1610.68" cy="955.504" r="14" fill="#808080" fill-rule="evenodd" fill-opacity="1" stroke="none"/>
<circle clip-path="url(#clip972)" cx="1584.14" cy="940.057" r="14" fill="#808080" fill-rule="evenodd" fill-opacity="1" stroke="none"/>
<circle clip-path="url(#clip972)" cx="1613.26" cy="863.933" r="14" fill="#808080" fill-rule="evenodd" fill-opacity="1" stroke="none"/>
<circle clip-path="url(#clip972)" cx="1534.19" cy="887.748" r="14" fill="#808080" fill-rule="evenodd" fill-opacity="1" stroke="none"/>
<circle clip-path="url(#clip972)" cx="1588.5" cy="882.015" r="14" fill="#808080" fill-rule="evenodd" fill-opacity="1" stroke="none"/>
<circle clip-path="url(#clip972)" cx="1672.7" cy="769.026" r="14" fill="#808080" fill-rule="evenodd" fill-opacity="1" stroke="none"/>
<circle clip-path="url(#clip972)" cx="1683.89" cy="857.036" r="14" fill="#808080" fill-rule="evenodd" fill-opacity="1" stroke="none"/>
<circle clip-path="url(#clip972)" cx="1630.76" cy="862.178" r="14" fill="#808080" fill-rule="evenodd" fill-opacity="1" stroke="none"/>
<circle clip-path="url(#clip972)" cx="1588.09" cy="828.505" r="14" fill="#808080" fill-rule="evenodd" fill-opacity="1" stroke="none"/>
<circle clip-path="url(#clip972)" cx="1588.75" cy="917.79" r="14" fill="#808080" fill-rule="evenodd" fill-opacity="1" stroke="none"/>
<circle clip-path="url(#clip972)" cx="1546.13" cy="896.995" r="14" fill="#808080" fill-rule="evenodd" fill-opacity="1" stroke="none"/>
<circle clip-path="url(#clip972)" cx="1586.15" cy="871.347" r="14" fill="#808080" fill-rule="evenodd" fill-opacity="1" stroke="none"/>
<circle clip-path="url(#clip972)" cx="1556.12" cy="759.27" r="14" fill="#808080" fill-rule="evenodd" fill-opacity="1" stroke="none"/>
<circle clip-path="url(#clip972)" cx="1716.36" cy="767.732" r="14" fill="#808080" fill-rule="evenodd" fill-opacity="1" stroke="none"/>
<circle clip-path="url(#clip972)" cx="1586.3" cy="765.507" r="14" fill="#808080" fill-rule="evenodd" fill-opacity="1" stroke="none"/>
<circle clip-path="url(#clip972)" cx="1732.42" cy="782.215" r="14" fill="#808080" fill-rule="evenodd" fill-opacity="1" stroke="none"/>
<circle clip-path="url(#clip972)" cx="1659.76" cy="820.487" r="14" fill="#808080" fill-rule="evenodd" fill-opacity="1" stroke="none"/>
<circle clip-path="url(#clip972)" cx="1622.52" cy="922.791" r="14" fill="#808080" fill-rule="evenodd" fill-opacity="1" stroke="none"/>
<circle clip-path="url(#clip972)" cx="1659.31" cy="807.121" r="14" fill="#808080" fill-rule="evenodd" fill-opacity="1" stroke="none"/>
<circle clip-path="url(#clip972)" cx="1512.46" cy="756.788" r="14" fill="#808080" fill-rule="evenodd" fill-opacity="1" stroke="none"/>
<circle clip-path="url(#clip972)" cx="1535.21" cy="678.49" r="14" fill="#808080" fill-rule="evenodd" fill-opacity="1" stroke="none"/>
<circle clip-path="url(#clip972)" cx="1492" cy="810.069" r="14" fill="#808080" fill-rule="evenodd" fill-opacity="1" stroke="none"/>
<circle clip-path="url(#clip972)" cx="1578.79" cy="691.642" r="14" fill="#808080" fill-rule="evenodd" fill-opacity="1" stroke="none"/>
<circle clip-path="url(#clip972)" cx="1650.8" cy="720.667" r="14" fill="#808080" fill-rule="evenodd" fill-opacity="1" stroke="none"/>
<circle clip-path="url(#clip972)" cx="1384.98" cy="857.872" r="14" fill="#808080" fill-rule="evenodd" fill-opacity="1" stroke="none"/>
<circle clip-path="url(#clip972)" cx="1368.69" cy="907.949" r="14" fill="#808080" fill-rule="evenodd" fill-opacity="1" stroke="none"/>
<circle clip-path="url(#clip972)" cx="1270.33" cy="835.852" r="14" fill="#808080" fill-rule="evenodd" fill-opacity="1" stroke="none"/>
<circle clip-path="url(#clip972)" cx="1350.78" cy="854.035" r="14" fill="#808080" fill-rule="evenodd" fill-opacity="1" stroke="none"/>
<circle clip-path="url(#clip972)" cx="1496.09" cy="939.362" r="14" fill="#800080" fill-rule="evenodd" fill-opacity="1" stroke="none"/>
<circle clip-path="url(#clip972)" cx="1442.59" cy="909.792" r="14" fill="#800080" fill-rule="evenodd" fill-opacity="1" stroke="none"/>
<circle clip-path="url(#clip972)" cx="1422.9" cy="909.813" r="14" fill="#800080" fill-rule="evenodd" fill-opacity="1" stroke="none"/>
<circle clip-path="url(#clip972)" cx="1465.88" cy="907.966" r="14" fill="#800080" fill-rule="evenodd" fill-opacity="1" stroke="none"/>
<circle clip-path="url(#clip972)" cx="1386.28" cy="973.604" r="14" fill="#800080" fill-rule="evenodd" fill-opacity="1" stroke="none"/>
<circle clip-path="url(#clip972)" cx="1070.61" cy="1011.24" r="14" fill="#800080" fill-rule="evenodd" fill-opacity="1" stroke="none"/>
<circle clip-path="url(#clip972)" cx="1386.79" cy="928.498" r="14" fill="#800080" fill-rule="evenodd" fill-opacity="1" stroke="none"/>
<circle clip-path="url(#clip972)" cx="1485.1" cy="913.409" r="14" fill="#800080" fill-rule="evenodd" fill-opacity="1" stroke="none"/>
<circle clip-path="url(#clip972)" cx="1432.04" cy="944.971" r="14" fill="#800080" fill-rule="evenodd" fill-opacity="1" stroke="none"/>
<circle clip-path="url(#clip972)" cx="1237.3" cy="620.784" r="14" fill="#800080" fill-rule="evenodd" fill-opacity="1" stroke="none"/>
<circle clip-path="url(#clip972)" cx="1511.7" cy="925.741" r="14" fill="#800080" fill-rule="evenodd" fill-opacity="1" stroke="none"/>
<circle clip-path="url(#clip972)" cx="1398.27" cy="913.779" r="14" fill="#800080" fill-rule="evenodd" fill-opacity="1" stroke="none"/>
<circle clip-path="url(#clip972)" cx="1465.08" cy="907.855" r="14" fill="#800080" fill-rule="evenodd" fill-opacity="1" stroke="none"/>
<circle clip-path="url(#clip972)" cx="1459.72" cy="925.142" r="14" fill="#800080" fill-rule="evenodd" fill-opacity="1" stroke="none"/>
<circle clip-path="url(#clip972)" cx="1394.59" cy="960.174" r="14" fill="#800080" fill-rule="evenodd" fill-opacity="1" stroke="none"/>
<circle clip-path="url(#clip972)" cx="1449.94" cy="982.073" r="14" fill="#800080" fill-rule="evenodd" fill-opacity="1" stroke="none"/>
<circle clip-path="url(#clip972)" cx="1450.06" cy="927.488" r="14" fill="#800080" fill-rule="evenodd" fill-opacity="1" stroke="none"/>
<circle clip-path="url(#clip972)" cx="1446.37" cy="888.292" r="14" fill="#800080" fill-rule="evenodd" fill-opacity="1" stroke="none"/>
<circle clip-path="url(#clip972)" cx="1352.52" cy="1074.74" r="14" fill="#800080" fill-rule="evenodd" fill-opacity="1" stroke="none"/>
<circle clip-path="url(#clip972)" cx="1564.9" cy="942.149" r="14" fill="#800080" fill-rule="evenodd" fill-opacity="1" stroke="none"/>
<circle clip-path="url(#clip972)" cx="1602.99" cy="946.13" r="14" fill="#800080" fill-rule="evenodd" fill-opacity="1" stroke="none"/>
<circle clip-path="url(#clip972)" cx="1547.36" cy="934.226" r="14" fill="#800080" fill-rule="evenodd" fill-opacity="1" stroke="none"/>
<circle clip-path="url(#clip972)" cx="1492.07" cy="973.718" r="14" fill="#800080" fill-rule="evenodd" fill-opacity="1" stroke="none"/>
<circle clip-path="url(#clip972)" cx="1562.74" cy="949.426" r="14" fill="#800080" fill-rule="evenodd" fill-opacity="1" stroke="none"/>
<circle clip-path="url(#clip972)" cx="1397.43" cy="915.532" r="14" fill="#ffa500" fill-rule="evenodd" fill-opacity="1" stroke="none"/>
<circle clip-path="url(#clip972)" cx="1439.42" cy="867.377" r="14" fill="#ffa500" fill-rule="evenodd" fill-opacity="1" stroke="none"/>
<circle clip-path="url(#clip972)" cx="1323.03" cy="953.334" r="14" fill="#ffa500" fill-rule="evenodd" fill-opacity="1" stroke="none"/>
<circle clip-path="url(#clip972)" cx="1440.9" cy="933.807" r="14" fill="#ffa500" fill-rule="evenodd" fill-opacity="1" stroke="none"/>
<circle clip-path="url(#clip972)" cx="1450.48" cy="894.874" r="14" fill="#ffa500" fill-rule="evenodd" fill-opacity="1" stroke="none"/>
<circle clip-path="url(#clip972)" cx="1522.75" cy="952.649" r="14" fill="#ffa500" fill-rule="evenodd" fill-opacity="1" stroke="none"/>
<circle clip-path="url(#clip972)" cx="1432.82" cy="871.811" r="14" fill="#ffa500" fill-rule="evenodd" fill-opacity="1" stroke="none"/>
<circle clip-path="url(#clip972)" cx="1506.47" cy="878.299" r="14" fill="#ffa500" fill-rule="evenodd" fill-opacity="1" stroke="none"/>
<circle clip-path="url(#clip972)" cx="1412.21" cy="829.756" r="14" fill="#ffa500" fill-rule="evenodd" fill-opacity="1" stroke="none"/>
<circle clip-path="url(#clip972)" cx="1375.42" cy="808.606" r="14" fill="#ffa500" fill-rule="evenodd" fill-opacity="1" stroke="none"/>
<circle clip-path="url(#clip972)" cx="1591.8" cy="849.435" r="14" fill="#ffa500" fill-rule="evenodd" fill-opacity="1" stroke="none"/>
<circle clip-path="url(#clip972)" cx="1450.52" cy="833.66" r="14" fill="#ffa500" fill-rule="evenodd" fill-opacity="1" stroke="none"/>
<circle clip-path="url(#clip972)" cx="1523.38" cy="842.297" r="14" fill="#ffa500" fill-rule="evenodd" fill-opacity="1" stroke="none"/>
<circle clip-path="url(#clip972)" cx="1634.13" cy="856.497" r="14" fill="#ffa500" fill-rule="evenodd" fill-opacity="1" stroke="none"/>
<circle clip-path="url(#clip972)" cx="1423.78" cy="827.334" r="14" fill="#ffa500" fill-rule="evenodd" fill-opacity="1" stroke="none"/>
<circle clip-path="url(#clip972)" cx="1605.12" cy="856.522" r="14" fill="#ffa500" fill-rule="evenodd" fill-opacity="1" stroke="none"/>
<circle clip-path="url(#clip972)" cx="1383.88" cy="921.207" r="14" fill="#ffa500" fill-rule="evenodd" fill-opacity="1" stroke="none"/>
<circle clip-path="url(#clip972)" cx="1397.68" cy="865.856" r="14" fill="#ffa500" fill-rule="evenodd" fill-opacity="1" stroke="none"/>
<circle clip-path="url(#clip972)" cx="1309.27" cy="855.717" r="14" fill="#ffa500" fill-rule="evenodd" fill-opacity="1" stroke="none"/>
<circle clip-path="url(#clip972)" cx="1241.25" cy="857.444" r="14" fill="#ffa500" fill-rule="evenodd" fill-opacity="1" stroke="none"/>
<circle clip-path="url(#clip972)" cx="1188.73" cy="918.73" r="14" fill="#ffa500" fill-rule="evenodd" fill-opacity="1" stroke="none"/>
<circle clip-path="url(#clip972)" cx="1395.12" cy="892.016" r="14" fill="#ffa500" fill-rule="evenodd" fill-opacity="1" stroke="none"/>
<circle clip-path="url(#clip972)" cx="1376.78" cy="881.122" r="14" fill="#ffa500" fill-rule="evenodd" fill-opacity="1" stroke="none"/>
<circle clip-path="url(#clip972)" cx="1381.56" cy="837.159" r="14" fill="#ffa500" fill-rule="evenodd" fill-opacity="1" stroke="none"/>
<circle clip-path="url(#clip972)" cx="1405.05" cy="800.191" r="14" fill="#ffa500" fill-rule="evenodd" fill-opacity="1" stroke="none"/>
<circle clip-path="url(#clip972)" cx="1345.41" cy="898.575" r="14" fill="#ffa500" fill-rule="evenodd" fill-opacity="1" stroke="none"/>
<circle clip-path="url(#clip972)" cx="1436.44" cy="916.293" r="14" fill="#800080" fill-rule="evenodd" fill-opacity="1" stroke="none"/>
<circle clip-path="url(#clip972)" cx="1425.44" cy="1009.98" r="14" fill="#800080" fill-rule="evenodd" fill-opacity="1" stroke="none"/>
<circle clip-path="url(#clip972)" cx="1542.8" cy="901.407" r="14" fill="#800080" fill-rule="evenodd" fill-opacity="1" stroke="none"/>
<circle clip-path="url(#clip972)" cx="1456.32" cy="967.63" r="14" fill="#800080" fill-rule="evenodd" fill-opacity="1" stroke="none"/>
<circle clip-path="url(#clip972)" cx="1648.99" cy="871.932" r="14" fill="#800080" fill-rule="evenodd" fill-opacity="1" stroke="none"/>
<circle clip-path="url(#clip972)" cx="1545.57" cy="874.704" r="14" fill="#800080" fill-rule="evenodd" fill-opacity="1" stroke="none"/>
<circle clip-path="url(#clip972)" cx="1562.16" cy="916.166" r="14" fill="#800080" fill-rule="evenodd" fill-opacity="1" stroke="none"/>
<circle clip-path="url(#clip972)" cx="1546.63" cy="901.535" r="14" fill="#800080" fill-rule="evenodd" fill-opacity="1" stroke="none"/>
<circle clip-path="url(#clip972)" cx="1580.35" cy="917.114" r="14" fill="#800080" fill-rule="evenodd" fill-opacity="1" stroke="none"/>
<circle clip-path="url(#clip972)" cx="1504.51" cy="907.718" r="14" fill="#800080" fill-rule="evenodd" fill-opacity="1" stroke="none"/>
<circle clip-path="url(#clip972)" cx="1566.55" cy="887.399" r="14" fill="#800080" fill-rule="evenodd" fill-opacity="1" stroke="none"/>
<circle clip-path="url(#clip972)" cx="1563.96" cy="866.704" r="14" fill="#800080" fill-rule="evenodd" fill-opacity="1" stroke="none"/>
<circle clip-path="url(#clip972)" cx="1527.53" cy="871.893" r="14" fill="#800080" fill-rule="evenodd" fill-opacity="1" stroke="none"/>
<circle clip-path="url(#clip972)" cx="1584.99" cy="906.207" r="14" fill="#800080" fill-rule="evenodd" fill-opacity="1" stroke="none"/>
<circle clip-path="url(#clip972)" cx="1625.01" cy="907.605" r="14" fill="#800080" fill-rule="evenodd" fill-opacity="1" stroke="none"/>
<circle clip-path="url(#clip972)" cx="1609.1" cy="932.676" r="14" fill="#800080" fill-rule="evenodd" fill-opacity="1" stroke="none"/>
<circle clip-path="url(#clip972)" cx="1588.35" cy="958.491" r="14" fill="#800080" fill-rule="evenodd" fill-opacity="1" stroke="none"/>
<circle clip-path="url(#clip972)" cx="1569.52" cy="955.787" r="14" fill="#800080" fill-rule="evenodd" fill-opacity="1" stroke="none"/>
<circle clip-path="url(#clip972)" cx="1582.23" cy="878.577" r="14" fill="#800080" fill-rule="evenodd" fill-opacity="1" stroke="none"/>
<circle clip-path="url(#clip972)" cx="1517.02" cy="895.664" r="14" fill="#800080" fill-rule="evenodd" fill-opacity="1" stroke="none"/>
<circle clip-path="url(#clip972)" cx="1559.16" cy="896.807" r="14" fill="#800080" fill-rule="evenodd" fill-opacity="1" stroke="none"/>
<circle clip-path="url(#clip972)" cx="1656.81" cy="814.639" r="14" fill="#800080" fill-rule="evenodd" fill-opacity="1" stroke="none"/>
<circle clip-path="url(#clip972)" cx="1660.22" cy="895.118" r="14" fill="#ffa500" fill-rule="evenodd" fill-opacity="1" stroke="none"/>
<circle clip-path="url(#clip972)" cx="1607.98" cy="899.458" r="14" fill="#ffa500" fill-rule="evenodd" fill-opacity="1" stroke="none"/>
<circle clip-path="url(#clip972)" cx="1566.96" cy="876.974" r="14" fill="#ffa500" fill-rule="evenodd" fill-opacity="1" stroke="none"/>
<circle clip-path="url(#clip972)" cx="1575.7" cy="940.234" r="14" fill="#ffa500" fill-rule="evenodd" fill-opacity="1" stroke="none"/>
<circle clip-path="url(#clip972)" cx="1518.64" cy="913.446" r="14" fill="#ffa500" fill-rule="evenodd" fill-opacity="1" stroke="none"/>
<circle clip-path="url(#clip972)" cx="1559.77" cy="884.983" r="14" fill="#ffa500" fill-rule="evenodd" fill-opacity="1" stroke="none"/>
<circle clip-path="url(#clip972)" cx="1529.19" cy="841.064" r="14" fill="#ffa500" fill-rule="evenodd" fill-opacity="1" stroke="none"/>
<circle clip-path="url(#clip972)" cx="1712.65" cy="815.754" r="14" fill="#ffa500" fill-rule="evenodd" fill-opacity="1" stroke="none"/>
<circle clip-path="url(#clip972)" cx="1558.71" cy="836.695" r="14" fill="#ffa500" fill-rule="evenodd" fill-opacity="1" stroke="none"/>
<circle clip-path="url(#clip972)" cx="1761.07" cy="821.253" r="14" fill="#ffa500" fill-rule="evenodd" fill-opacity="1" stroke="none"/>
<circle clip-path="url(#clip972)" cx="1642.09" cy="862.914" r="14" fill="#ffa500" fill-rule="evenodd" fill-opacity="1" stroke="none"/>
<circle clip-path="url(#clip972)" cx="1625.51" cy="900.661" r="14" fill="#ffa500" fill-rule="evenodd" fill-opacity="1" stroke="none"/>
<circle clip-path="url(#clip972)" cx="1640.26" cy="845.167" r="14" fill="#ffa500" fill-rule="evenodd" fill-opacity="1" stroke="none"/>
<circle clip-path="url(#clip972)" cx="1505.19" cy="886.827" r="14" fill="#ffa500" fill-rule="evenodd" fill-opacity="1" stroke="none"/>
<circle clip-path="url(#clip972)" cx="1517.64" cy="805.397" r="14" fill="#ffa500" fill-rule="evenodd" fill-opacity="1" stroke="none"/>
<circle clip-path="url(#clip972)" cx="1469.43" cy="923.15" r="14" fill="#ffa500" fill-rule="evenodd" fill-opacity="1" stroke="none"/>
<circle clip-path="url(#clip972)" cx="1576.4" cy="792.383" r="14" fill="#ffa500" fill-rule="evenodd" fill-opacity="1" stroke="none"/>
<circle clip-path="url(#clip972)" cx="1648.37" cy="793.252" r="14" fill="#ffa500" fill-rule="evenodd" fill-opacity="1" stroke="none"/>
<circle clip-path="url(#clip972)" cx="1362.92" cy="945.333" r="14" fill="#ffa500" fill-rule="evenodd" fill-opacity="1" stroke="none"/>
<circle clip-path="url(#clip972)" cx="1338.42" cy="973.206" r="14" fill="#ffa500" fill-rule="evenodd" fill-opacity="1" stroke="none"/>
<circle clip-path="url(#clip972)" cx="1301.14" cy="925.562" r="14" fill="#ffa500" fill-rule="evenodd" fill-opacity="1" stroke="none"/>
<circle clip-path="url(#clip972)" cx="1350.42" cy="921.528" r="14" fill="#ffa500" fill-rule="evenodd" fill-opacity="1" stroke="none"/>
<polyline clip-path="url(#clip972)" style="stroke:#ffa500; stroke-width:4.88758; stroke-opacity:1; fill:none" points="
  688.931,917.122 2288.63,88.9544 
  "/>
<polyline clip-path="url(#clip972)" style="stroke:#800080; stroke-width:0.831794; stroke-opacity:1; fill:none" points="
  1166.31,1286.34 1272.16,778.467 
  "/>
<polyline clip-path="url(#clip972)" style="stroke:#ffa500; stroke-width:0.299089; stroke-opacity:1; fill:none" points="
  151.118,994.931 1166.31,1286.34 
  "/>
<polyline clip-path="url(#clip972)" style="stroke:#ffa500; stroke-width:0.843251; stroke-opacity:1; fill:none" points="
  151.118,994.931 2216.88,1479.3 
  "/>
<polyline clip-path="url(#clip972)" style="stroke:#ffa500; stroke-width:4.5444; stroke-opacity:1; fill:none" points="
  1272.16,778.467 2288.63,88.9544 
  "/>
<polyline clip-path="url(#clip972)" style="stroke:#ffa500; stroke-width:2.01037; stroke-opacity:1; fill:none" points="
  151.118,994.931 1272.16,778.467 
  "/>
<polyline clip-path="url(#clip972)" style="stroke:#800080; stroke-width:0.820338; stroke-opacity:1; fill:none" points="
  1272.16,778.467 2216.88,1479.3 
  "/>
<polyline clip-path="url(#clip972)" style="stroke:#800080; stroke-width:2.29381; stroke-opacity:1; fill:none" points="
  1166.31,1286.34 2216.88,1479.3 
  "/>
<polyline clip-path="url(#clip972)" style="stroke:#ffa500; stroke-width:4.41533; stroke-opacity:1; fill:none" points="
  151.118,994.931 688.931,917.122 
  "/>
<polyline clip-path="url(#clip972)" style="stroke:#800080; stroke-width:1.44165; stroke-opacity:1; fill:none" points="
  1166.31,1286.34 2288.63,88.9544 
  "/>
<polyline clip-path="url(#clip972)" style="stroke:#ffa500; stroke-width:2.26375; stroke-opacity:1; fill:none" points="
  2216.88,1479.3 2288.63,88.9544 
  "/>
<polyline clip-path="url(#clip972)" style="stroke:#ffa500; stroke-width:1.50008; stroke-opacity:1; fill:none" points="
  688.931,917.122 1272.16,778.467 
  "/>
<polyline clip-path="url(#clip972)" style="stroke:#800080; stroke-width:1.53172; stroke-opacity:1; fill:none" points="
  688.931,917.122 1166.31,1286.34 
  "/>
<polyline clip-path="url(#clip972)" style="stroke:#ffa500; stroke-width:3.57132; stroke-opacity:1; fill:none" points="
  151.118,994.931 2288.63,88.9544 
  "/>
<polyline clip-path="url(#clip972)" style="stroke:#800080; stroke-width:8; stroke-opacity:1; fill:none" points="
  688.931,917.122 2216.88,1479.3 
  "/>
<circle clip-path="url(#clip972)" cx="1272.16" cy="778.467" r="23" fill="#000000" fill-rule="evenodd" fill-opacity="1" stroke="none"/>
<circle clip-path="url(#clip972)" cx="688.931" cy="917.122" r="26" fill="#000000" fill-rule="evenodd" fill-opacity="1" stroke="none"/>
<circle clip-path="url(#clip972)" cx="2288.63" cy="88.9544" r="23" fill="#000000" fill-rule="evenodd" fill-opacity="1" stroke="none"/>
<circle clip-path="url(#clip972)" cx="1166.31" cy="1286.34" r="8" fill="#000000" fill-rule="evenodd" fill-opacity="1" stroke="none"/>
<circle clip-path="url(#clip972)" cx="2216.88" cy="1479.3" r="28" fill="#000000" fill-rule="evenodd" fill-opacity="1" stroke="none"/>
<circle clip-path="url(#clip972)" cx="151.118" cy="994.931" r="8" fill="#000000" fill-rule="evenodd" fill-opacity="1" stroke="none"/>
<path clip-path="url(#clip970)" d="M 0 0 M1196.34 754.952 L1196.34 801.983 L1206.23 801.983 Q1218.74 801.983 1224.54 796.312 Q1230.37 790.64 1230.37 778.407 Q1230.37 766.254 1224.54 760.623 Q1218.74 754.952 1206.23 754.952 L1196.34 754.952 M1188.16 748.227 L1204.97 748.227 Q1222.55 748.227 1230.78 755.56 Q1239 762.851 1239 778.407 Q1239 794.043 1230.74 801.375 Q1222.47 808.707 1204.97 808.707 L1188.16 808.707 L1188.16 748.227 Z" fill="#000000" fill-rule="evenodd" fill-opacity="1" /><path clip-path="url(#clip970)" d="M 0 0 M1267.44 785.901 Q1258.4 785.901 1254.92 787.967 Q1251.44 790.033 1251.44 795.015 Q1251.44 798.985 1254.03 801.335 Q1256.66 803.644 1261.16 803.644 Q1267.36 803.644 1271.08 799.269 Q1274.85 794.853 1274.85 787.562 L1274.85 785.901 L1267.44 785.901 M1282.3 782.822 L1282.3 808.707 L1274.85 808.707 L1274.85 801.821 Q1272.3 805.953 1268.49 807.938 Q1264.68 809.882 1259.17 809.882 Q1252.21 809.882 1248.07 805.993 Q1243.98 802.064 1243.98 795.501 Q1243.98 787.845 1249.09 783.956 Q1254.23 780.068 1264.4 780.068 L1274.85 780.068 L1274.85 779.338 Q1274.85 774.194 1271.45 771.399 Q1268.08 768.563 1261.97 768.563 Q1258.08 768.563 1254.39 769.495 Q1250.71 770.426 1247.3 772.29 L1247.3 765.403 Q1251.4 763.823 1255.24 763.054 Q1259.09 762.244 1262.74 762.244 Q1272.58 762.244 1277.44 767.348 Q1282.3 772.452 1282.3 782.822 Z" fill="#000000" fill-rule="evenodd" fill-opacity="1" /><path clip-path="url(#clip970)" d="M 0 0 M1297.49 750.455 L1297.49 763.337 L1312.85 763.337 L1312.85 769.13 L1297.49 769.13 L1297.49 793.76 Q1297.49 799.309 1298.99 800.889 Q1300.53 802.469 1305.19 802.469 L1312.85 802.469 L1312.85 808.707 L1305.19 808.707 Q1296.56 808.707 1293.28 805.507 Q1290 802.266 1290 793.76 L1290 769.13 L1284.53 769.13 L1284.53 763.337 L1290 763.337 L1290 750.455 L1297.49 750.455 Z" fill="#000000" fill-rule="evenodd" fill-opacity="1" /><path clip-path="url(#clip970)" d="M 0 0 M1341.28 785.901 Q1332.25 785.901 1328.77 787.967 Q1325.28 790.033 1325.28 795.015 Q1325.28 798.985 1327.88 801.335 Q1330.51 803.644 1335.01 803.644 Q1341.2 803.644 1344.93 799.269 Q1348.7 794.853 1348.7 787.562 L1348.7 785.901 L1341.28 785.901 M1356.15 782.822 L1356.15 808.707 L1348.7 808.707 L1348.7 801.821 Q1346.15 805.953 1342.34 807.938 Q1338.53 809.882 1333.02 809.882 Q1326.05 809.882 1321.92 805.993 Q1317.83 802.064 1317.83 795.501 Q1317.83 787.845 1322.93 783.956 Q1328.08 780.068 1338.25 780.068 L1348.7 780.068 L1348.7 779.338 Q1348.7 774.194 1345.3 771.399 Q1341.93 768.563 1335.82 768.563 Q1331.93 768.563 1328.24 769.495 Q1324.55 770.426 1321.15 772.29 L1321.15 765.403 Q1325.24 763.823 1329.09 763.054 Q1332.94 762.244 1336.59 762.244 Q1346.43 762.244 1351.29 767.348 Q1356.15 772.452 1356.15 782.822 Z" fill="#000000" fill-rule="evenodd" fill-opacity="1" /><path clip-path="url(#clip970)" d="M 0 0 M291.598 886.882 L342.761 886.882 L342.761 893.768 L321.291 893.768 L321.291 947.362 L313.067 947.362 L313.067 893.768 L291.598 893.768 L291.598 886.882 Z" fill="#000000" fill-rule="evenodd" fill-opacity="1" /><path clip-path="url(#clip970)" d="M 0 0 M375.289 922.813 L375.289 926.459 L341.019 926.459 Q341.505 934.156 345.637 938.206 Q349.809 942.217 357.222 942.217 Q361.516 942.217 365.527 941.164 Q369.578 940.11 373.547 938.004 L373.547 945.052 Q369.537 946.754 365.324 947.645 Q361.111 948.536 356.777 948.536 Q345.92 948.536 339.56 942.217 Q333.241 935.897 333.241 925.122 Q333.241 913.982 339.236 907.46 Q345.272 900.898 355.48 900.898 Q364.635 900.898 369.942 906.812 Q375.289 912.686 375.289 922.813 M367.836 920.626 Q367.755 914.509 364.392 910.863 Q361.071 907.217 355.561 907.217 Q349.323 907.217 345.556 910.741 Q341.829 914.266 341.262 920.666 L367.836 920.626 Z" fill="#000000" fill-rule="evenodd" fill-opacity="1" /><path clip-path="url(#clip970)" d="M 0 0 M415.758 903.733 L415.758 910.701 Q412.598 908.959 409.398 908.108 Q406.238 907.217 402.998 907.217 Q395.746 907.217 391.736 911.835 Q387.726 916.413 387.726 924.717 Q387.726 933.021 391.736 937.639 Q395.746 942.217 402.998 942.217 Q406.238 942.217 409.398 941.366 Q412.598 940.475 415.758 938.733 L415.758 945.62 Q412.639 947.078 409.276 947.807 Q405.955 948.536 402.187 948.536 Q391.939 948.536 385.903 942.095 Q379.867 935.654 379.867 924.717 Q379.867 913.617 385.943 907.258 Q392.06 900.898 402.673 900.898 Q406.117 900.898 409.398 901.627 Q412.679 902.315 415.758 903.733 Z" fill="#000000" fill-rule="evenodd" fill-opacity="1" /><path clip-path="url(#clip970)" d="M 0 0 M461.29 919.977 L461.29 947.362 L453.836 947.362 L453.836 920.22 Q453.836 913.78 451.325 910.579 Q448.813 907.379 443.79 907.379 Q437.754 907.379 434.27 911.227 Q430.787 915.076 430.787 921.719 L430.787 947.362 L423.293 947.362 L423.293 884.329 L430.787 884.329 L430.787 909.04 Q433.46 904.949 437.066 902.923 Q440.711 900.898 445.451 900.898 Q453.269 900.898 457.28 905.759 Q461.29 910.579 461.29 919.977 Z" fill="#000000" fill-rule="evenodd" fill-opacity="1" /><path clip-path="url(#clip970)" d="M 0 0 M506.822 919.977 L506.822 947.362 L499.369 947.362 L499.369 920.22 Q499.369 913.78 496.857 910.579 Q494.345 907.379 489.322 907.379 Q483.286 907.379 479.803 911.227 Q476.319 915.076 476.319 921.719 L476.319 947.362 L468.825 947.362 L468.825 901.991 L476.319 901.991 L476.319 909.04 Q478.992 904.949 482.598 902.923 Q486.244 900.898 490.983 900.898 Q498.801 900.898 502.812 905.759 Q506.822 910.579 506.822 919.977 Z" fill="#000000" fill-rule="evenodd" fill-opacity="1" /><path clip-path="url(#clip970)" d="M 0 0 M514.64 901.991 L522.094 901.991 L522.094 947.362 L514.64 947.362 L514.64 901.991 M514.64 884.329 L522.094 884.329 L522.094 893.768 L514.64 893.768 L514.64 884.329 Z" fill="#000000" fill-rule="evenodd" fill-opacity="1" /><path clip-path="url(#clip970)" d="M 0 0 M562.563 903.733 L562.563 910.701 Q559.403 908.959 556.203 908.108 Q553.043 907.217 549.802 907.217 Q542.551 907.217 538.541 911.835 Q534.53 916.413 534.53 924.717 Q534.53 933.021 538.541 937.639 Q542.551 942.217 549.802 942.217 Q553.043 942.217 556.203 941.366 Q559.403 940.475 562.563 938.733 L562.563 945.62 Q559.443 947.078 556.081 947.807 Q552.759 948.536 548.992 948.536 Q538.743 948.536 532.707 942.095 Q526.672 935.654 526.672 924.717 Q526.672 913.617 532.748 907.258 Q538.865 900.898 549.478 900.898 Q552.921 900.898 556.203 901.627 Q559.484 902.315 562.563 903.733 Z" fill="#000000" fill-rule="evenodd" fill-opacity="1" /><path clip-path="url(#clip970)" d="M 0 0 M591 924.555 Q581.966 924.555 578.483 926.621 Q574.999 928.687 574.999 933.669 Q574.999 937.639 577.591 939.989 Q580.225 942.298 584.721 942.298 Q590.919 942.298 594.646 937.923 Q598.413 933.507 598.413 926.216 L598.413 924.555 L591 924.555 M605.867 921.476 L605.867 947.362 L598.413 947.362 L598.413 940.475 Q595.861 944.607 592.053 946.592 Q588.245 948.536 582.736 948.536 Q575.769 948.536 571.637 944.647 Q567.545 940.718 567.545 934.156 Q567.545 926.499 572.649 922.61 Q577.794 918.722 587.962 918.722 L598.413 918.722 L598.413 917.992 Q598.413 912.848 595.01 910.053 Q591.648 907.217 585.531 907.217 Q581.642 907.217 577.956 908.149 Q574.27 909.08 570.867 910.944 L570.867 904.057 Q574.958 902.477 578.807 901.708 Q582.655 900.898 586.301 900.898 Q596.145 900.898 601.006 906.002 Q605.867 911.106 605.867 921.476 Z" fill="#000000" fill-rule="evenodd" fill-opacity="1" /><path clip-path="url(#clip970)" d="M 0 0 M613.685 884.329 L621.139 884.329 L621.139 947.362 L613.685 947.362 L613.685 884.329 Z" fill="#000000" fill-rule="evenodd" fill-opacity="1" /><path clip-path="url(#clip970)" d="M 0 0 M663.43 961.135 L663.43 966.927 L620.329 966.927 L620.329 961.135 L663.43 961.135 Z" fill="#000000" fill-rule="evenodd" fill-opacity="1" /><path clip-path="url(#clip970)" d="M 0 0 M716.862 891.54 L716.862 900.168 Q712.73 896.32 708.031 894.416 Q703.372 892.512 698.106 892.512 Q687.736 892.512 682.226 898.872 Q676.717 905.192 676.717 917.182 Q676.717 929.132 682.226 935.492 Q687.736 941.812 698.106 941.812 Q703.372 941.812 708.031 939.908 Q712.73 938.004 716.862 934.156 L716.862 942.703 Q712.568 945.62 707.747 947.078 Q702.967 948.536 697.62 948.536 Q683.887 948.536 675.988 940.151 Q668.089 931.725 668.089 917.182 Q668.089 902.599 675.988 894.214 Q683.887 885.788 697.62 885.788 Q703.048 885.788 707.828 887.246 Q712.649 888.664 716.862 891.54 Z" fill="#000000" fill-rule="evenodd" fill-opacity="1" /><path clip-path="url(#clip970)" d="M 0 0 M742.261 907.217 Q736.265 907.217 732.782 911.916 Q729.298 916.575 729.298 924.717 Q729.298 932.859 732.741 937.558 Q736.225 942.217 742.261 942.217 Q748.216 942.217 751.699 937.518 Q755.183 932.819 755.183 924.717 Q755.183 916.656 751.699 911.957 Q748.216 907.217 742.261 907.217 M742.261 900.898 Q751.983 900.898 757.533 907.217 Q763.082 913.536 763.082 924.717 Q763.082 935.857 757.533 942.217 Q751.983 948.536 742.261 948.536 Q732.498 948.536 726.948 942.217 Q721.439 935.857 721.439 924.717 Q721.439 913.536 726.948 907.217 Q732.498 900.898 742.261 900.898 Z" fill="#000000" fill-rule="evenodd" fill-opacity="1" /><path clip-path="url(#clip970)" d="M 0 0 M808.615 919.977 L808.615 947.362 L801.161 947.362 L801.161 920.22 Q801.161 913.78 798.649 910.579 Q796.138 907.379 791.115 907.379 Q785.079 907.379 781.595 911.227 Q778.111 915.076 778.111 921.719 L778.111 947.362 L770.617 947.362 L770.617 901.991 L778.111 901.991 L778.111 909.04 Q780.785 904.949 784.39 902.923 Q788.036 900.898 792.776 900.898 Q800.594 900.898 804.604 905.759 Q808.615 910.579 808.615 919.977 Z" fill="#000000" fill-rule="evenodd" fill-opacity="1" /><path clip-path="url(#clip970)" d="M 0 0 M845.356 903.328 L845.356 910.377 Q842.197 908.756 838.794 907.946 Q835.391 907.136 831.745 907.136 Q826.195 907.136 823.4 908.837 Q820.646 910.539 820.646 913.942 Q820.646 916.534 822.631 918.033 Q824.616 919.491 830.611 920.828 L833.163 921.395 Q841.103 923.097 844.425 926.216 Q847.787 929.294 847.787 934.844 Q847.787 941.164 842.764 944.85 Q837.781 948.536 829.031 948.536 Q825.385 948.536 821.415 947.807 Q817.486 947.118 813.111 945.701 L813.111 938.004 Q817.243 940.151 821.253 941.245 Q825.264 942.298 829.193 942.298 Q834.459 942.298 837.295 940.515 Q840.131 938.693 840.131 935.411 Q840.131 932.373 838.065 930.753 Q836.039 929.132 829.112 927.634 L826.52 927.026 Q819.593 925.568 816.514 922.57 Q813.435 919.532 813.435 914.266 Q813.435 907.865 817.972 904.381 Q822.509 900.898 830.854 900.898 Q834.986 900.898 838.632 901.505 Q842.278 902.113 845.356 903.328 Z" fill="#000000" fill-rule="evenodd" fill-opacity="1" /><path clip-path="url(#clip970)" d="M 0 0 M862.978 889.11 L862.978 901.991 L878.331 901.991 L878.331 907.784 L862.978 907.784 L862.978 932.414 Q862.978 937.963 864.477 939.543 Q866.016 941.123 870.674 941.123 L878.331 941.123 L878.331 947.362 L870.674 947.362 Q862.046 947.362 858.765 944.161 Q855.484 940.921 855.484 932.414 L855.484 907.784 L850.015 907.784 L850.015 901.991 L855.484 901.991 L855.484 889.11 L862.978 889.11 Z" fill="#000000" fill-rule="evenodd" fill-opacity="1" /><path clip-path="url(#clip970)" d="M 0 0 M912.439 908.959 Q911.183 908.23 909.685 907.906 Q908.226 907.541 906.444 907.541 Q900.124 907.541 896.722 911.673 Q893.359 915.764 893.359 923.461 L893.359 947.362 L885.865 947.362 L885.865 901.991 L893.359 901.991 L893.359 909.04 Q895.709 904.908 899.476 902.923 Q903.244 900.898 908.631 900.898 Q909.401 900.898 910.333 901.019 Q911.264 901.1 912.399 901.303 L912.439 908.959 Z" fill="#000000" fill-rule="evenodd" fill-opacity="1" /><path clip-path="url(#clip970)" d="M 0 0 M940.877 924.555 Q931.843 924.555 928.359 926.621 Q924.876 928.687 924.876 933.669 Q924.876 937.639 927.468 939.989 Q930.101 942.298 934.598 942.298 Q940.796 942.298 944.522 937.923 Q948.29 933.507 948.29 926.216 L948.29 924.555 L940.877 924.555 M955.743 921.476 L955.743 947.362 L948.29 947.362 L948.29 940.475 Q945.738 944.607 941.93 946.592 Q938.122 948.536 932.613 948.536 Q925.645 948.536 921.513 944.647 Q917.422 940.718 917.422 934.156 Q917.422 926.499 922.526 922.61 Q927.671 918.722 937.838 918.722 L948.29 918.722 L948.29 917.992 Q948.29 912.848 944.887 910.053 Q941.525 907.217 935.408 907.217 Q931.519 907.217 927.833 908.149 Q924.146 909.08 920.744 910.944 L920.744 904.057 Q924.835 902.477 928.683 901.708 Q932.532 900.898 936.178 900.898 Q946.021 900.898 950.882 906.002 Q955.743 911.106 955.743 921.476 Z" fill="#000000" fill-rule="evenodd" fill-opacity="1" /><path clip-path="url(#clip970)" d="M 0 0 M963.562 901.991 L971.015 901.991 L971.015 947.362 L963.562 947.362 L963.562 901.991 M963.562 884.329 L971.015 884.329 L971.015 893.768 L963.562 893.768 L963.562 884.329 Z" fill="#000000" fill-rule="evenodd" fill-opacity="1" /><path clip-path="url(#clip970)" d="M 0 0 M1016.55 919.977 L1016.55 947.362 L1009.09 947.362 L1009.09 920.22 Q1009.09 913.78 1006.58 910.579 Q1004.07 907.379 999.048 907.379 Q993.012 907.379 989.528 911.227 Q986.044 915.076 986.044 921.719 L986.044 947.362 L978.55 947.362 L978.55 901.991 L986.044 901.991 L986.044 909.04 Q988.718 904.949 992.323 902.923 Q995.969 900.898 1000.71 900.898 Q1008.53 900.898 1012.54 905.759 Q1016.55 910.579 1016.55 919.977 Z" fill="#000000" fill-rule="evenodd" fill-opacity="1" /><path clip-path="url(#clip970)" d="M 0 0 M1031.74 889.11 L1031.74 901.991 L1047.09 901.991 L1047.09 907.784 L1031.74 907.784 L1031.74 932.414 Q1031.74 937.963 1033.24 939.543 Q1034.78 941.123 1039.44 941.123 L1047.09 941.123 L1047.09 947.362 L1039.44 947.362 Q1030.81 947.362 1027.53 944.161 Q1024.24 940.921 1024.24 932.414 L1024.24 907.784 L1018.78 907.784 L1018.78 901.991 L1024.24 901.991 L1024.24 889.11 L1031.74 889.11 Z" fill="#000000" fill-rule="evenodd" fill-opacity="1" /><path clip-path="url(#clip970)" d="M 0 0 M1083.83 903.328 L1083.83 910.377 Q1080.67 908.756 1077.27 907.946 Q1073.87 907.136 1070.22 907.136 Q1064.67 907.136 1061.88 908.837 Q1059.12 910.539 1059.12 913.942 Q1059.12 916.534 1061.11 918.033 Q1063.09 919.491 1069.09 920.828 L1071.64 921.395 Q1079.58 923.097 1082.9 926.216 Q1086.26 929.294 1086.26 934.844 Q1086.26 941.164 1081.24 944.85 Q1076.26 948.536 1067.51 948.536 Q1063.86 948.536 1059.89 947.807 Q1055.96 947.118 1051.59 945.701 L1051.59 938.004 Q1055.72 940.151 1059.73 941.245 Q1063.74 942.298 1067.67 942.298 Q1072.94 942.298 1075.77 940.515 Q1078.61 938.693 1078.61 935.411 Q1078.61 932.373 1076.54 930.753 Q1074.52 929.132 1067.59 927.634 L1065 927.026 Q1058.07 925.568 1054.99 922.57 Q1051.91 919.532 1051.91 914.266 Q1051.91 907.865 1056.45 904.381 Q1060.99 900.898 1069.33 900.898 Q1073.46 900.898 1077.11 901.505 Q1080.75 902.113 1083.83 903.328 Z" fill="#000000" fill-rule="evenodd" fill-opacity="1" /><path clip-path="url(#clip970)" d="M 0 0 M1820.06 65.4389 L1820.06 88.1645 L1830.35 88.1645 Q1836.06 88.1645 1839.18 85.2073 Q1842.3 82.2501 1842.3 76.7814 Q1842.3 71.3532 1839.18 68.3961 Q1836.06 65.4389 1830.35 65.4389 L1820.06 65.4389 M1811.88 58.7144 L1830.35 58.7144 Q1840.52 58.7144 1845.7 63.3324 Q1850.93 67.9099 1850.93 76.7814 Q1850.93 85.7339 1845.7 90.3114 Q1840.52 94.889 1830.35 94.889 L1820.06 94.889 L1820.06 119.194 L1811.88 119.194 L1811.88 58.7144 Z" fill="#000000" fill-rule="evenodd" fill-opacity="1" /><path clip-path="url(#clip970)" d="M 0 0 M1894.6 94.6459 L1894.6 98.2917 L1860.33 98.2917 Q1860.81 105.988 1864.95 110.039 Q1869.12 114.05 1876.53 114.05 Q1880.83 114.05 1884.84 112.997 Q1888.89 111.943 1892.86 109.837 L1892.86 116.885 Q1888.85 118.587 1884.63 119.478 Q1880.42 120.369 1876.09 120.369 Q1865.23 120.369 1858.87 114.05 Q1852.55 107.73 1852.55 96.9549 Q1852.55 85.8149 1858.55 79.293 Q1864.58 72.7305 1874.79 72.7305 Q1883.95 72.7305 1889.25 78.6448 Q1894.6 84.5187 1894.6 94.6459 M1887.15 92.4584 Q1887.06 86.3416 1883.7 82.6957 Q1880.38 79.0499 1874.87 79.0499 Q1868.63 79.0499 1864.87 82.5742 Q1861.14 86.0985 1860.57 92.4989 L1887.15 92.4584 Z" fill="#000000" fill-rule="evenodd" fill-opacity="1" /><path clip-path="url(#clip970)" d="M 0 0 M1928.71 80.7918 Q1927.45 80.0627 1925.95 79.7386 Q1924.49 79.374 1922.71 79.374 Q1916.39 79.374 1912.99 83.5059 Q1909.63 87.5973 1909.63 95.2941 L1909.63 119.194 L1902.13 119.194 L1902.13 73.8243 L1909.63 73.8243 L1909.63 80.8728 Q1911.98 76.7409 1915.74 74.756 Q1919.51 72.7305 1924.9 72.7305 Q1925.67 72.7305 1926.6 72.852 Q1927.53 72.9331 1928.67 73.1356 L1928.71 80.7918 Z" fill="#000000" fill-rule="evenodd" fill-opacity="1" /><path clip-path="url(#clip970)" d="M 0 0 M1959.49 56.1623 L1959.49 62.3602 L1952.36 62.3602 Q1948.35 62.3602 1946.77 63.9806 Q1945.24 65.6009 1945.24 69.8139 L1945.24 73.8243 L1957.51 73.8243 L1957.51 79.6171 L1945.24 79.6171 L1945.24 119.194 L1937.74 119.194 L1937.74 79.6171 L1930.61 79.6171 L1930.61 73.8243 L1937.74 73.8243 L1937.74 70.6646 Q1937.74 63.0894 1941.27 59.6461 Q1944.79 56.1623 1952.45 56.1623 L1959.49 56.1623 Z" fill="#000000" fill-rule="evenodd" fill-opacity="1" /><path clip-path="url(#clip970)" d="M 0 0 M1984.89 79.0499 Q1978.9 79.0499 1975.41 83.749 Q1971.93 88.4075 1971.93 96.5498 Q1971.93 104.692 1975.37 109.391 Q1978.86 114.05 1984.89 114.05 Q1990.85 114.05 1994.33 109.351 Q1997.82 104.652 1997.82 96.5498 Q1997.82 88.4885 1994.33 83.7895 Q1990.85 79.0499 1984.89 79.0499 M1984.89 72.7305 Q1994.62 72.7305 2000.17 79.0499 Q2005.72 85.3693 2005.72 96.5498 Q2005.72 107.69 2000.17 114.05 Q1994.62 120.369 1984.89 120.369 Q1975.13 120.369 1969.58 114.05 Q1964.07 107.69 1964.07 96.5498 Q1964.07 85.3693 1969.58 79.0499 Q1975.13 72.7305 1984.89 72.7305 Z" fill="#000000" fill-rule="evenodd" fill-opacity="1" /><path clip-path="url(#clip970)" d="M 0 0 M2039.82 80.7918 Q2038.57 80.0627 2037.07 79.7386 Q2035.61 79.374 2033.83 79.374 Q2027.51 79.374 2024.11 83.5059 Q2020.74 87.5973 2020.74 95.2941 L2020.74 119.194 L2013.25 119.194 L2013.25 73.8243 L2020.74 73.8243 L2020.74 80.8728 Q2023.09 76.7409 2026.86 74.756 Q2030.63 72.7305 2036.02 72.7305 Q2036.79 72.7305 2037.72 72.852 Q2038.65 72.9331 2039.78 73.1356 L2039.82 80.7918 Z" fill="#000000" fill-rule="evenodd" fill-opacity="1" /><path clip-path="url(#clip970)" d="M 0 0 M2081.51 82.5337 Q2084.3 77.5106 2088.19 75.1206 Q2092.08 72.7305 2097.35 72.7305 Q2104.44 72.7305 2108.28 77.7131 Q2112.13 82.6552 2112.13 91.8103 L2112.13 119.194 L2104.64 119.194 L2104.64 92.0533 Q2104.64 85.5314 2102.33 82.3717 Q2100.02 79.212 2095.28 79.212 Q2089.49 79.212 2086.13 83.0603 Q2082.76 86.9087 2082.76 93.5522 L2082.76 119.194 L2075.27 119.194 L2075.27 92.0533 Q2075.27 85.4909 2072.96 82.3717 Q2070.65 79.212 2065.83 79.212 Q2060.12 79.212 2056.76 83.1008 Q2053.39 86.9492 2053.39 93.5522 L2053.39 119.194 L2045.9 119.194 L2045.9 73.8243 L2053.39 73.8243 L2053.39 80.8728 Q2055.95 76.7004 2059.51 74.7155 Q2063.08 72.7305 2067.98 72.7305 Q2072.92 72.7305 2076.36 75.2421 Q2079.85 77.7536 2081.51 82.5337 Z" fill="#000000" fill-rule="evenodd" fill-opacity="1" /><path clip-path="url(#clip970)" d="M 0 0 M2140.57 96.3878 Q2131.54 96.3878 2128.05 98.4538 Q2124.57 100.52 2124.57 105.502 Q2124.57 109.472 2127.16 111.822 Q2129.79 114.131 2134.29 114.131 Q2140.49 114.131 2144.22 109.756 Q2147.98 105.34 2147.98 98.0487 L2147.98 96.3878 L2140.57 96.3878 M2155.44 93.3091 L2155.44 119.194 L2147.98 119.194 L2147.98 112.308 Q2145.43 116.44 2141.62 118.425 Q2137.82 120.369 2132.31 120.369 Q2125.34 120.369 2121.21 116.48 Q2117.12 112.551 2117.12 105.988 Q2117.12 98.3322 2122.22 94.4434 Q2127.36 90.5545 2137.53 90.5545 L2147.98 90.5545 L2147.98 89.8253 Q2147.98 84.6807 2144.58 81.8856 Q2141.22 79.0499 2135.1 79.0499 Q2131.21 79.0499 2127.53 79.9816 Q2123.84 80.9133 2120.44 82.7768 L2120.44 75.8902 Q2124.53 74.3104 2128.38 73.5407 Q2132.23 72.7305 2135.87 72.7305 Q2145.71 72.7305 2150.58 77.8347 Q2155.44 82.9388 2155.44 93.3091 Z" fill="#000000" fill-rule="evenodd" fill-opacity="1" /><path clip-path="url(#clip970)" d="M 0 0 M2200.97 91.8103 L2200.97 119.194 L2193.52 119.194 L2193.52 92.0533 Q2193.52 85.6124 2191 82.4122 Q2188.49 79.212 2183.47 79.212 Q2177.43 79.212 2173.95 83.0603 Q2170.47 86.9087 2170.47 93.5522 L2170.47 119.194 L2162.97 119.194 L2162.97 73.8243 L2170.47 73.8243 L2170.47 80.8728 Q2173.14 76.7814 2176.74 74.756 Q2180.39 72.7305 2185.13 72.7305 Q2192.95 72.7305 2196.96 77.5916 Q2200.97 82.4122 2200.97 91.8103 Z" fill="#000000" fill-rule="evenodd" fill-opacity="1" /><path clip-path="url(#clip970)" d="M 0 0 M2241.44 75.5662 L2241.44 82.5337 Q2238.28 80.7918 2235.08 79.9411 Q2231.92 79.0499 2228.68 79.0499 Q2221.43 79.0499 2217.42 83.668 Q2213.41 88.2455 2213.41 96.5498 Q2213.41 104.854 2217.42 109.472 Q2221.43 114.05 2228.68 114.05 Q2231.92 114.05 2235.08 113.199 Q2238.28 112.308 2241.44 110.566 L2241.44 117.453 Q2238.32 118.911 2234.96 119.64 Q2231.63 120.369 2227.87 120.369 Q2217.62 120.369 2211.58 113.928 Q2205.55 107.487 2205.55 96.5498 Q2205.55 85.4504 2211.62 79.0904 Q2217.74 72.7305 2228.35 72.7305 Q2231.8 72.7305 2235.08 73.4597 Q2238.36 74.1483 2241.44 75.5662 Z" fill="#000000" fill-rule="evenodd" fill-opacity="1" /><path clip-path="url(#clip970)" d="M 0 0 M2288.06 94.6459 L2288.06 98.2917 L2253.79 98.2917 Q2254.28 105.988 2258.41 110.039 Q2262.58 114.05 2270 114.05 Q2274.29 114.05 2278.3 112.997 Q2282.35 111.943 2286.32 109.837 L2286.32 116.885 Q2282.31 118.587 2278.1 119.478 Q2273.89 120.369 2269.55 120.369 Q2258.69 120.369 2252.33 114.05 Q2246.02 107.73 2246.02 96.9549 Q2246.02 85.8149 2252.01 79.293 Q2258.05 72.7305 2268.25 72.7305 Q2277.41 72.7305 2282.72 78.6448 Q2288.06 84.5187 2288.06 94.6459 M2280.61 92.4584 Q2280.53 86.3416 2277.17 82.6957 Q2273.84 79.0499 2268.34 79.0499 Q2262.1 79.0499 2258.33 82.5742 Q2254.6 86.0985 2254.04 92.4989 L2280.61 92.4584 Z" fill="#000000" fill-rule="evenodd" fill-opacity="1" /><path clip-path="url(#clip970)" d="M 0 0 M2330.35 132.967 L2330.35 138.76 L2287.25 138.76 L2287.25 132.967 L2330.35 132.967 Z" fill="#000000" fill-rule="evenodd" fill-opacity="1" /><path clip-path="url(#clip970)" d="M 0 0 M2346.68 65.4389 L2346.68 88.1645 L2356.97 88.1645 Q2362.68 88.1645 2365.8 85.2073 Q2368.92 82.2501 2368.92 76.7814 Q2368.92 71.3532 2365.8 68.3961 Q2362.68 65.4389 2356.97 65.4389 L2346.68 65.4389 M2338.5 58.7144 L2356.97 58.7144 Q2367.14 58.7144 2372.32 63.3324 Q2377.55 67.9099 2377.55 76.7814 Q2377.55 85.7339 2372.32 90.3114 Q2367.14 94.889 2356.97 94.889 L2346.68 94.889 L2346.68 119.194 L2338.5 119.194 L2338.5 58.7144 Z" fill="#000000" fill-rule="evenodd" fill-opacity="1" /><path clip-path="url(#clip970)" d="M 0 0 M2402.26 96.3878 Q2393.22 96.3878 2389.74 98.4538 Q2386.26 100.52 2386.26 105.502 Q2386.26 109.472 2388.85 111.822 Q2391.48 114.131 2395.98 114.131 Q2402.18 114.131 2405.9 109.756 Q2409.67 105.34 2409.67 98.0487 L2409.67 96.3878 L2402.26 96.3878 M2417.13 93.3091 L2417.13 119.194 L2409.67 119.194 L2409.67 112.308 Q2407.12 116.44 2403.31 118.425 Q2399.5 120.369 2393.99 120.369 Q2387.03 120.369 2382.9 116.48 Q2378.8 112.551 2378.8 105.988 Q2378.8 98.3322 2383.91 94.4434 Q2389.05 90.5545 2399.22 90.5545 L2409.67 90.5545 L2409.67 89.8253 Q2409.67 84.6807 2406.27 81.8856 Q2402.91 79.0499 2396.79 79.0499 Q2392.9 79.0499 2389.21 79.9816 Q2385.53 80.9133 2382.13 82.7768 L2382.13 75.8902 Q2386.22 74.3104 2390.07 73.5407 Q2393.91 72.7305 2397.56 72.7305 Q2407.4 72.7305 2412.26 77.8347 Q2417.13 82.9388 2417.13 93.3091 Z" fill="#000000" fill-rule="evenodd" fill-opacity="1" /><path clip-path="url(#clip970)" d="M 0 0 M2451.23 80.7918 Q2449.98 80.0627 2448.48 79.7386 Q2447.02 79.374 2445.24 79.374 Q2438.92 79.374 2435.52 83.5059 Q2432.15 87.5973 2432.15 95.2941 L2432.15 119.194 L2424.66 119.194 L2424.66 73.8243 L2432.15 73.8243 L2432.15 80.8728 Q2434.5 76.7409 2438.27 74.756 Q2442.04 72.7305 2447.43 72.7305 Q2448.2 72.7305 2449.13 72.852 Q2450.06 72.9331 2451.19 73.1356 L2451.23 80.7918 Z" fill="#000000" fill-rule="evenodd" fill-opacity="1" /><path clip-path="url(#clip970)" d="M 0 0 M2479.67 96.3878 Q2470.64 96.3878 2467.15 98.4538 Q2463.67 100.52 2463.67 105.502 Q2463.67 109.472 2466.26 111.822 Q2468.9 114.131 2473.39 114.131 Q2479.59 114.131 2483.32 109.756 Q2487.08 105.34 2487.08 98.0487 L2487.08 96.3878 L2479.67 96.3878 M2494.54 93.3091 L2494.54 119.194 L2487.08 119.194 L2487.08 112.308 Q2484.53 116.44 2480.72 118.425 Q2476.92 120.369 2471.41 120.369 Q2464.44 120.369 2460.31 116.48 Q2456.22 112.551 2456.22 105.988 Q2456.22 98.3322 2461.32 94.4434 Q2466.47 90.5545 2476.63 90.5545 L2487.08 90.5545 L2487.08 89.8253 Q2487.08 84.6807 2483.68 81.8856 Q2480.32 79.0499 2474.2 79.0499 Q2470.31 79.0499 2466.63 79.9816 Q2462.94 80.9133 2459.54 82.7768 L2459.54 75.8902 Q2463.63 74.3104 2467.48 73.5407 Q2471.33 72.7305 2474.97 72.7305 Q2484.82 72.7305 2489.68 77.8347 Q2494.54 82.9388 2494.54 93.3091 Z" fill="#000000" fill-rule="evenodd" fill-opacity="1" /><path clip-path="url(#clip970)" d="M 0 0 M2537.68 82.5337 Q2540.48 77.5106 2544.36 75.1206 Q2548.25 72.7305 2553.52 72.7305 Q2560.61 72.7305 2564.46 77.7131 Q2568.3 82.6552 2568.3 91.8103 L2568.3 119.194 L2560.81 119.194 L2560.81 92.0533 Q2560.81 85.5314 2558.5 82.3717 Q2556.19 79.212 2551.45 79.212 Q2545.66 79.212 2542.3 83.0603 Q2538.94 86.9087 2538.94 93.5522 L2538.94 119.194 L2531.44 119.194 L2531.44 92.0533 Q2531.44 85.4909 2529.13 82.3717 Q2526.82 79.212 2522 79.212 Q2516.29 79.212 2512.93 83.1008 Q2509.57 86.9492 2509.57 93.5522 L2509.57 119.194 L2502.07 119.194 L2502.07 73.8243 L2509.57 73.8243 L2509.57 80.8728 Q2512.12 76.7004 2515.68 74.7155 Q2519.25 72.7305 2524.15 72.7305 Q2529.09 72.7305 2532.54 75.2421 Q2536.02 77.7536 2537.68 82.5337 Z" fill="#000000" fill-rule="evenodd" fill-opacity="1" /><path clip-path="url(#clip970)" d="M 0 0 M2614.93 94.6459 L2614.93 98.2917 L2580.66 98.2917 Q2581.15 105.988 2585.28 110.039 Q2589.45 114.05 2596.86 114.05 Q2601.16 114.05 2605.17 112.997 Q2609.22 111.943 2613.19 109.837 L2613.19 116.885 Q2609.18 118.587 2604.97 119.478 Q2600.75 120.369 2596.42 120.369 Q2585.56 120.369 2579.2 114.05 Q2572.88 107.73 2572.88 96.9549 Q2572.88 85.8149 2578.88 79.293 Q2584.91 72.7305 2595.12 72.7305 Q2604.28 72.7305 2609.58 78.6448 Q2614.93 84.5187 2614.93 94.6459 M2607.48 92.4584 Q2607.4 86.3416 2604.03 82.6957 Q2600.71 79.0499 2595.2 79.0499 Q2588.96 79.0499 2585.2 82.5742 Q2581.47 86.0985 2580.9 92.4989 L2607.48 92.4584 Z" fill="#000000" fill-rule="evenodd" fill-opacity="1" /><path clip-path="url(#clip970)" d="M 0 0 M2630.12 60.9424 L2630.12 73.8243 L2645.47 73.8243 L2645.47 79.6171 L2630.12 79.6171 L2630.12 104.247 Q2630.12 109.796 2631.62 111.376 Q2633.16 112.956 2637.82 112.956 L2645.47 112.956 L2645.47 119.194 L2637.82 119.194 Q2629.19 119.194 2625.91 115.994 Q2622.63 112.753 2622.63 104.247 L2622.63 79.6171 L2617.16 79.6171 L2617.16 73.8243 L2622.63 73.8243 L2622.63 60.9424 L2630.12 60.9424 Z" fill="#000000" fill-rule="evenodd" fill-opacity="1" /><path clip-path="url(#clip970)" d="M 0 0 M2692.1 94.6459 L2692.1 98.2917 L2657.83 98.2917 Q2658.32 105.988 2662.45 110.039 Q2666.62 114.05 2674.03 114.05 Q2678.33 114.05 2682.34 112.997 Q2686.39 111.943 2690.36 109.837 L2690.36 116.885 Q2686.35 118.587 2682.14 119.478 Q2677.92 120.369 2673.59 120.369 Q2662.73 120.369 2656.37 114.05 Q2650.05 107.73 2650.05 96.9549 Q2650.05 85.8149 2656.05 79.293 Q2662.08 72.7305 2672.29 72.7305 Q2681.45 72.7305 2686.75 78.6448 Q2692.1 84.5187 2692.1 94.6459 M2684.65 92.4584 Q2684.57 86.3416 2681.2 82.6957 Q2677.88 79.0499 2672.37 79.0499 Q2666.13 79.0499 2662.37 82.5742 Q2658.64 86.0985 2658.07 92.4989 L2684.65 92.4584 Z" fill="#000000" fill-rule="evenodd" fill-opacity="1" /><path clip-path="url(#clip970)" d="M 0 0 M2726.21 80.7918 Q2724.95 80.0627 2723.45 79.7386 Q2722 79.374 2720.21 79.374 Q2713.89 79.374 2710.49 83.5059 Q2707.13 87.5973 2707.13 95.2941 L2707.13 119.194 L2699.64 119.194 L2699.64 73.8243 L2707.13 73.8243 L2707.13 80.8728 Q2709.48 76.7409 2713.25 74.756 Q2717.01 72.7305 2722.4 72.7305 Q2723.17 72.7305 2724.1 72.852 Q2725.03 72.9331 2726.17 73.1356 L2726.21 80.7918 Z" fill="#000000" fill-rule="evenodd" fill-opacity="1" /><path clip-path="url(#clip970)" d="M 0 0 M2762.95 75.1611 L2762.95 82.2096 Q2759.79 80.5893 2756.39 79.7791 Q2752.99 78.9689 2749.34 78.9689 Q2743.79 78.9689 2740.99 80.6703 Q2738.24 82.3717 2738.24 85.7744 Q2738.24 88.367 2740.23 89.8658 Q2742.21 91.3242 2748.21 92.661 L2750.76 93.2281 Q2758.7 94.9295 2762.02 98.0487 Q2765.38 101.127 2765.38 106.677 Q2765.38 112.997 2760.36 116.683 Q2755.38 120.369 2746.63 120.369 Q2742.98 120.369 2739.01 119.64 Q2735.08 118.951 2730.71 117.534 L2730.71 109.837 Q2734.84 111.984 2738.85 113.078 Q2742.86 114.131 2746.79 114.131 Q2752.05 114.131 2754.89 112.348 Q2757.73 110.525 2757.73 107.244 Q2757.73 104.206 2755.66 102.586 Q2753.63 100.965 2746.71 99.4665 L2744.11 98.8589 Q2737.19 97.4005 2734.11 94.4029 Q2731.03 91.3647 2731.03 86.0985 Q2731.03 79.6981 2735.57 76.2143 Q2740.1 72.7305 2748.45 72.7305 Q2752.58 72.7305 2756.23 73.3382 Q2759.87 73.9458 2762.95 75.1611 Z" fill="#000000" fill-rule="evenodd" fill-opacity="1" /><path clip-path="url(#clip970)" d="M 0 0 M614.431 1260.76 L614.431 1269.38 Q610.299 1265.54 605.6 1263.63 Q600.941 1261.73 595.675 1261.73 Q585.305 1261.73 579.795 1268.09 Q574.286 1274.41 574.286 1286.4 Q574.286 1298.35 579.795 1304.71 Q585.305 1311.03 595.675 1311.03 Q600.941 1311.03 605.6 1309.12 Q610.299 1307.22 614.431 1303.37 L614.431 1311.92 Q610.137 1314.84 605.316 1316.29 Q600.536 1317.75 595.189 1317.75 Q581.456 1317.75 573.557 1309.37 Q565.658 1300.94 565.658 1286.4 Q565.658 1271.82 573.557 1263.43 Q581.456 1255 595.189 1255 Q600.617 1255 605.397 1256.46 Q610.218 1257.88 614.431 1260.76 Z" fill="#000000" fill-rule="evenodd" fill-opacity="1" /><path clip-path="url(#clip970)" d="M 0 0 M622.249 1253.55 L629.702 1253.55 L629.702 1316.58 L622.249 1316.58 L622.249 1253.55 Z" fill="#000000" fill-rule="evenodd" fill-opacity="1" /><path clip-path="url(#clip970)" d="M 0 0 M637.521 1271.21 L644.974 1271.21 L644.974 1316.58 L637.521 1316.58 L637.521 1271.21 M637.521 1253.55 L644.974 1253.55 L644.974 1262.98 L637.521 1262.98 L637.521 1253.55 Z" fill="#000000" fill-rule="evenodd" fill-opacity="1" /><path clip-path="url(#clip970)" d="M 0 0 M691.6 1292.03 L691.6 1295.68 L657.33 1295.68 Q657.816 1303.37 661.948 1307.42 Q666.12 1311.43 673.533 1311.43 Q677.827 1311.43 681.838 1310.38 Q685.889 1309.33 689.858 1307.22 L689.858 1314.27 Q685.848 1315.97 681.635 1316.86 Q677.422 1317.75 673.088 1317.75 Q662.231 1317.75 655.871 1311.43 Q649.552 1305.11 649.552 1294.34 Q649.552 1283.2 655.547 1276.68 Q661.583 1270.11 671.791 1270.11 Q680.946 1270.11 686.253 1276.03 Q691.6 1281.9 691.6 1292.03 M684.147 1289.84 Q684.066 1283.73 680.703 1280.08 Q677.382 1276.43 671.872 1276.43 Q665.634 1276.43 661.867 1279.96 Q658.14 1283.48 657.573 1289.88 L684.147 1289.84 Z" fill="#000000" fill-rule="evenodd" fill-opacity="1" /><path clip-path="url(#clip970)" d="M 0 0 M737.132 1289.19 L737.132 1316.58 L729.679 1316.58 L729.679 1289.44 Q729.679 1283 727.167 1279.8 Q724.656 1276.6 719.633 1276.6 Q713.597 1276.6 710.113 1280.44 Q706.629 1284.29 706.629 1290.94 L706.629 1316.58 L699.135 1316.58 L699.135 1271.21 L706.629 1271.21 L706.629 1278.26 Q709.303 1274.16 712.908 1272.14 Q716.554 1270.11 721.293 1270.11 Q729.112 1270.11 733.122 1274.98 Q737.132 1279.8 737.132 1289.19 Z" fill="#000000" fill-rule="evenodd" fill-opacity="1" /><path clip-path="url(#clip970)" d="M 0 0 M752.323 1258.33 L752.323 1271.21 L767.676 1271.21 L767.676 1277 L752.323 1277 L752.323 1301.63 Q752.323 1307.18 753.822 1308.76 Q755.362 1310.34 760.02 1310.34 L767.676 1310.34 L767.676 1316.58 L760.02 1316.58 Q751.392 1316.58 748.11 1313.38 Q744.829 1310.14 744.829 1301.63 L744.829 1277 L739.36 1277 L739.36 1271.21 L744.829 1271.21 L744.829 1258.33 L752.323 1258.33 Z" fill="#000000" fill-rule="evenodd" fill-opacity="1" /><path clip-path="url(#clip970)" d="M 0 0 M809.968 1330.35 L809.968 1336.14 L766.866 1336.14 L766.866 1330.35 L809.968 1330.35 Z" fill="#000000" fill-rule="evenodd" fill-opacity="1" /><path clip-path="url(#clip970)" d="M 0 0 M838.405 1293.77 Q829.372 1293.77 825.888 1295.84 Q822.404 1297.9 822.404 1302.89 Q822.404 1306.86 824.997 1309.21 Q827.63 1311.51 832.126 1311.51 Q838.324 1311.51 842.051 1307.14 Q845.818 1302.72 845.818 1295.43 L845.818 1293.77 L838.405 1293.77 M853.272 1290.69 L853.272 1316.58 L845.818 1316.58 L845.818 1309.69 Q843.266 1313.82 839.458 1315.81 Q835.65 1317.75 830.141 1317.75 Q823.174 1317.75 819.042 1313.86 Q814.95 1309.93 814.95 1303.37 Q814.95 1295.72 820.054 1291.83 Q825.199 1287.94 835.367 1287.94 L845.818 1287.94 L845.818 1287.21 Q845.818 1282.06 842.415 1279.27 Q839.053 1276.43 832.936 1276.43 Q829.047 1276.43 825.361 1277.37 Q821.675 1278.3 818.272 1280.16 L818.272 1273.27 Q822.364 1271.69 826.212 1270.92 Q830.06 1270.11 833.706 1270.11 Q843.55 1270.11 848.411 1275.22 Q853.272 1280.32 853.272 1290.69 Z" fill="#000000" fill-rule="evenodd" fill-opacity="1" /><path clip-path="url(#clip970)" d="M 0 0 M898.804 1289.19 L898.804 1316.58 L891.35 1316.58 L891.35 1289.44 Q891.35 1283 888.839 1279.8 Q886.327 1276.6 881.304 1276.6 Q875.268 1276.6 871.785 1280.44 Q868.301 1284.29 868.301 1290.94 L868.301 1316.58 L860.807 1316.58 L860.807 1271.21 L868.301 1271.21 L868.301 1278.26 Q870.974 1274.16 874.58 1272.14 Q878.225 1270.11 882.965 1270.11 Q890.783 1270.11 894.794 1274.98 Q898.804 1279.8 898.804 1289.19 Z" fill="#000000" fill-rule="evenodd" fill-opacity="1" /><path clip-path="url(#clip970)" d="M 0 0 M936.477 1278.09 L936.477 1253.55 L943.931 1253.55 L943.931 1316.58 L936.477 1316.58 L936.477 1309.77 Q934.128 1313.82 930.523 1315.81 Q926.958 1317.75 921.935 1317.75 Q913.711 1317.75 908.526 1311.19 Q903.382 1304.63 903.382 1293.93 Q903.382 1283.24 908.526 1276.68 Q913.711 1270.11 921.935 1270.11 Q926.958 1270.11 930.523 1272.1 Q934.128 1274.04 936.477 1278.09 M911.078 1293.93 Q911.078 1302.16 914.441 1306.86 Q917.843 1311.51 923.758 1311.51 Q929.672 1311.51 933.075 1306.86 Q936.477 1302.16 936.477 1293.93 Q936.477 1285.71 933.075 1281.05 Q929.672 1276.35 923.758 1276.35 Q917.843 1276.35 914.441 1281.05 Q911.078 1285.71 911.078 1293.93 Z" fill="#000000" fill-rule="evenodd" fill-opacity="1" /><path clip-path="url(#clip970)" d="M 0 0 M986.223 1330.35 L986.223 1336.14 L943.121 1336.14 L943.121 1330.35 L986.223 1330.35 Z" fill="#000000" fill-rule="evenodd" fill-opacity="1" /><path clip-path="url(#clip970)" d="M 0 0 M1039.65 1260.76 L1039.65 1269.38 Q1035.52 1265.54 1030.82 1263.63 Q1026.16 1261.73 1020.9 1261.73 Q1010.53 1261.73 1005.02 1268.09 Q999.51 1274.41 999.51 1286.4 Q999.51 1298.35 1005.02 1304.71 Q1010.53 1311.03 1020.9 1311.03 Q1026.16 1311.03 1030.82 1309.12 Q1035.52 1307.22 1039.65 1303.37 L1039.65 1311.92 Q1035.36 1314.84 1030.54 1316.29 Q1025.76 1317.75 1020.41 1317.75 Q1006.68 1317.75 998.78 1309.37 Q990.881 1300.94 990.881 1286.4 Q990.881 1271.82 998.78 1263.43 Q1006.68 1255 1020.41 1255 Q1025.84 1255 1030.62 1256.46 Q1035.44 1257.88 1039.65 1260.76 Z" fill="#000000" fill-rule="evenodd" fill-opacity="1" /><path clip-path="url(#clip970)" d="M 0 0 M1065.05 1276.43 Q1059.06 1276.43 1055.57 1281.13 Q1052.09 1285.79 1052.09 1293.93 Q1052.09 1302.08 1055.53 1306.77 Q1059.02 1311.43 1065.05 1311.43 Q1071.01 1311.43 1074.49 1306.73 Q1077.98 1302.04 1077.98 1293.93 Q1077.98 1285.87 1074.49 1281.17 Q1071.01 1276.43 1065.05 1276.43 M1065.05 1270.11 Q1074.78 1270.11 1080.33 1276.43 Q1085.87 1282.75 1085.87 1293.93 Q1085.87 1305.07 1080.33 1311.43 Q1074.78 1317.75 1065.05 1317.75 Q1055.29 1317.75 1049.74 1311.43 Q1044.23 1305.07 1044.23 1293.93 Q1044.23 1282.75 1049.74 1276.43 Q1055.29 1270.11 1065.05 1270.11 Z" fill="#000000" fill-rule="evenodd" fill-opacity="1" /><path clip-path="url(#clip970)" d="M 0 0 M1131.41 1289.19 L1131.41 1316.58 L1123.95 1316.58 L1123.95 1289.44 Q1123.95 1283 1121.44 1279.8 Q1118.93 1276.6 1113.91 1276.6 Q1107.87 1276.6 1104.39 1280.44 Q1100.9 1284.29 1100.9 1290.94 L1100.9 1316.58 L1093.41 1316.58 L1093.41 1271.21 L1100.9 1271.21 L1100.9 1278.26 Q1103.58 1274.16 1107.18 1272.14 Q1110.83 1270.11 1115.57 1270.11 Q1123.39 1270.11 1127.4 1274.98 Q1131.41 1279.8 1131.41 1289.19 Z" fill="#000000" fill-rule="evenodd" fill-opacity="1" /><path clip-path="url(#clip970)" d="M 0 0 M1168.15 1272.54 L1168.15 1279.59 Q1164.99 1277.97 1161.59 1277.16 Q1158.18 1276.35 1154.54 1276.35 Q1148.99 1276.35 1146.19 1278.05 Q1143.44 1279.76 1143.44 1283.16 Q1143.44 1285.75 1145.42 1287.25 Q1147.41 1288.71 1153.4 1290.04 L1155.96 1290.61 Q1163.9 1292.31 1167.22 1295.43 Q1170.58 1298.51 1170.58 1304.06 Q1170.58 1310.38 1165.56 1314.07 Q1160.57 1317.75 1151.82 1317.75 Q1148.18 1317.75 1144.21 1317.02 Q1140.28 1316.33 1135.9 1314.92 L1135.9 1307.22 Q1140.04 1309.37 1144.05 1310.46 Q1148.06 1311.51 1151.99 1311.51 Q1157.25 1311.51 1160.09 1309.73 Q1162.92 1307.91 1162.92 1304.63 Q1162.92 1301.59 1160.86 1299.97 Q1158.83 1298.35 1151.9 1296.85 L1149.31 1296.24 Q1142.38 1294.78 1139.31 1291.79 Q1136.23 1288.75 1136.23 1283.48 Q1136.23 1277.08 1140.76 1273.6 Q1145.3 1270.11 1153.65 1270.11 Q1157.78 1270.11 1161.42 1270.72 Q1165.07 1271.33 1168.15 1272.54 Z" fill="#000000" fill-rule="evenodd" fill-opacity="1" /><path clip-path="url(#clip970)" d="M 0 0 M1177.63 1298.67 L1177.63 1271.21 L1185.08 1271.21 L1185.08 1298.39 Q1185.08 1304.83 1187.59 1308.07 Q1190.1 1311.27 1195.13 1311.27 Q1201.16 1311.27 1204.65 1307.42 Q1208.17 1303.57 1208.17 1296.93 L1208.17 1271.21 L1215.63 1271.21 L1215.63 1316.58 L1208.17 1316.58 L1208.17 1309.61 Q1205.46 1313.74 1201.85 1315.77 Q1198.29 1317.75 1193.55 1317.75 Q1185.73 1317.75 1181.68 1312.89 Q1177.63 1308.03 1177.63 1298.67 M1196.38 1270.11 L1196.38 1270.11 Z" fill="#000000" fill-rule="evenodd" fill-opacity="1" /><path clip-path="url(#clip970)" d="M 0 0 M1223.44 1253.55 L1230.9 1253.55 L1230.9 1316.58 L1223.44 1316.58 L1223.44 1253.55 Z" fill="#000000" fill-rule="evenodd" fill-opacity="1" /><path clip-path="url(#clip970)" d="M 0 0 M1246.09 1258.33 L1246.09 1271.21 L1261.44 1271.21 L1261.44 1277 L1246.09 1277 L1246.09 1301.63 Q1246.09 1307.18 1247.59 1308.76 Q1249.13 1310.34 1253.78 1310.34 L1261.44 1310.34 L1261.44 1316.58 L1253.78 1316.58 Q1245.16 1316.58 1241.88 1313.38 Q1238.59 1310.14 1238.59 1301.63 L1238.59 1277 L1233.13 1277 L1233.13 1271.21 L1238.59 1271.21 L1238.59 1258.33 L1246.09 1258.33 Z" fill="#000000" fill-rule="evenodd" fill-opacity="1" /><path clip-path="url(#clip970)" d="M 0 0 M1289.88 1293.77 Q1280.84 1293.77 1277.36 1295.84 Q1273.88 1297.9 1273.88 1302.89 Q1273.88 1306.86 1276.47 1309.21 Q1279.1 1311.51 1283.6 1311.51 Q1289.8 1311.51 1293.52 1307.14 Q1297.29 1302.72 1297.29 1295.43 L1297.29 1293.77 L1289.88 1293.77 M1304.75 1290.69 L1304.75 1316.58 L1297.29 1316.58 L1297.29 1309.69 Q1294.74 1313.82 1290.93 1315.81 Q1287.12 1317.75 1281.61 1317.75 Q1274.65 1317.75 1270.52 1313.86 Q1266.42 1309.93 1266.42 1303.37 Q1266.42 1295.72 1271.53 1291.83 Q1276.67 1287.94 1286.84 1287.94 L1297.29 1287.94 L1297.29 1287.21 Q1297.29 1282.06 1293.89 1279.27 Q1290.53 1276.43 1284.41 1276.43 Q1280.52 1276.43 1276.83 1277.37 Q1273.15 1278.3 1269.75 1280.16 L1269.75 1273.27 Q1273.84 1271.69 1277.69 1270.92 Q1281.53 1270.11 1285.18 1270.11 Q1295.02 1270.11 1299.88 1275.22 Q1304.75 1280.32 1304.75 1290.69 Z" fill="#000000" fill-rule="evenodd" fill-opacity="1" /><path clip-path="url(#clip970)" d="M 0 0 M1350.28 1289.19 L1350.28 1316.58 L1342.82 1316.58 L1342.82 1289.44 Q1342.82 1283 1340.31 1279.8 Q1337.8 1276.6 1332.78 1276.6 Q1326.74 1276.6 1323.26 1280.44 Q1319.77 1284.29 1319.77 1290.94 L1319.77 1316.58 L1312.28 1316.58 L1312.28 1271.21 L1319.77 1271.21 L1319.77 1278.26 Q1322.45 1274.16 1326.05 1272.14 Q1329.7 1270.11 1334.44 1270.11 Q1342.26 1270.11 1346.27 1274.98 Q1350.28 1279.8 1350.28 1289.19 Z" fill="#000000" fill-rule="evenodd" fill-opacity="1" /><path clip-path="url(#clip970)" d="M 0 0 M1365.47 1258.33 L1365.47 1271.21 L1380.82 1271.21 L1380.82 1277 L1365.47 1277 L1365.47 1301.63 Q1365.47 1307.18 1366.97 1308.76 Q1368.51 1310.34 1373.16 1310.34 L1380.82 1310.34 L1380.82 1316.58 L1373.16 1316.58 Q1364.54 1316.58 1361.26 1313.38 Q1357.97 1310.14 1357.97 1301.63 L1357.97 1277 L1352.51 1277 L1352.51 1271.21 L1357.97 1271.21 L1357.97 1258.33 L1365.47 1258.33 Z" fill="#000000" fill-rule="evenodd" fill-opacity="1" /><path clip-path="url(#clip970)" d="M 0 0 M1423.11 1330.35 L1423.11 1336.14 L1380.01 1336.14 L1380.01 1330.35 L1423.11 1330.35 Z" fill="#000000" fill-rule="evenodd" fill-opacity="1" /><path clip-path="url(#clip970)" d="M 0 0 M1459.94 1288.22 Q1462.57 1289.11 1465.04 1292.03 Q1467.55 1294.95 1470.06 1300.05 L1478.37 1316.58 L1469.58 1316.58 L1461.84 1301.06 Q1458.84 1294.99 1456.01 1293 Q1453.21 1291.02 1448.35 1291.02 L1439.44 1291.02 L1439.44 1316.58 L1431.25 1316.58 L1431.25 1256.1 L1449.73 1256.1 Q1460.1 1256.1 1465.2 1260.43 Q1470.31 1264.77 1470.31 1273.52 Q1470.31 1279.23 1467.63 1283 Q1465 1286.76 1459.94 1288.22 M1439.44 1262.82 L1439.44 1284.29 L1449.73 1284.29 Q1455.64 1284.29 1458.64 1281.58 Q1461.68 1278.82 1461.68 1273.52 Q1461.68 1268.21 1458.64 1265.54 Q1455.64 1262.82 1449.73 1262.82 L1439.44 1262.82 Z" fill="#000000" fill-rule="evenodd" fill-opacity="1" /><path clip-path="url(#clip970)" d="M 0 0 M1521.27 1292.03 L1521.27 1295.68 L1487 1295.68 Q1487.48 1303.37 1491.61 1307.42 Q1495.79 1311.43 1503.2 1311.43 Q1507.49 1311.43 1511.5 1310.38 Q1515.55 1309.33 1519.52 1307.22 L1519.52 1314.27 Q1515.51 1315.97 1511.3 1316.86 Q1507.09 1317.75 1502.75 1317.75 Q1491.9 1317.75 1485.54 1311.43 Q1479.22 1305.11 1479.22 1294.34 Q1479.22 1283.2 1485.21 1276.68 Q1491.25 1270.11 1501.46 1270.11 Q1510.61 1270.11 1515.92 1276.03 Q1521.27 1281.9 1521.27 1292.03 M1513.81 1289.84 Q1513.73 1283.73 1510.37 1280.08 Q1507.05 1276.43 1501.54 1276.43 Q1495.3 1276.43 1491.53 1279.96 Q1487.81 1283.48 1487.24 1289.88 L1513.81 1289.84 Z" fill="#000000" fill-rule="evenodd" fill-opacity="1" /><path clip-path="url(#clip970)" d="M 0 0 M1533.54 1293.93 Q1533.54 1302.16 1536.9 1306.86 Q1540.31 1311.51 1546.22 1311.51 Q1552.13 1311.51 1555.54 1306.86 Q1558.94 1302.16 1558.94 1293.93 Q1558.94 1285.71 1555.54 1281.05 Q1552.13 1276.35 1546.22 1276.35 Q1540.31 1276.35 1536.9 1281.05 Q1533.54 1285.71 1533.54 1293.93 M1558.94 1309.77 Q1556.59 1313.82 1552.98 1315.81 Q1549.42 1317.75 1544.4 1317.75 Q1536.17 1317.75 1530.99 1311.19 Q1525.84 1304.63 1525.84 1293.93 Q1525.84 1283.24 1530.99 1276.68 Q1536.17 1270.11 1544.4 1270.11 Q1549.42 1270.11 1552.98 1272.1 Q1556.59 1274.04 1558.94 1278.09 L1558.94 1271.21 L1566.39 1271.21 L1566.39 1333.83 L1558.94 1333.83 L1558.94 1309.77 Z" fill="#000000" fill-rule="evenodd" fill-opacity="1" /><path clip-path="url(#clip970)" d="M 0 0 M1573.44 1298.67 L1573.44 1271.21 L1580.9 1271.21 L1580.9 1298.39 Q1580.9 1304.83 1583.41 1308.07 Q1585.92 1311.27 1590.94 1311.27 Q1596.98 1311.27 1600.46 1307.42 Q1603.99 1303.57 1603.99 1296.93 L1603.99 1271.21 L1611.44 1271.21 L1611.44 1316.58 L1603.99 1316.58 L1603.99 1309.61 Q1601.27 1313.74 1597.67 1315.77 Q1594.1 1317.75 1589.36 1317.75 Q1581.54 1317.75 1577.49 1312.89 Q1573.44 1308.03 1573.44 1298.67 M1592.2 1270.11 L1592.2 1270.11 Z" fill="#000000" fill-rule="evenodd" fill-opacity="1" /><path clip-path="url(#clip970)" d="M 0 0 M1658.07 1292.03 L1658.07 1295.68 L1623.79 1295.68 Q1624.28 1303.37 1628.41 1307.42 Q1632.58 1311.43 1640 1311.43 Q1644.29 1311.43 1648.3 1310.38 Q1652.35 1309.33 1656.32 1307.22 L1656.32 1314.27 Q1652.31 1315.97 1648.1 1316.86 Q1643.89 1317.75 1639.55 1317.75 Q1628.7 1317.75 1622.34 1311.43 Q1616.02 1305.11 1616.02 1294.34 Q1616.02 1283.2 1622.01 1276.68 Q1628.05 1270.11 1638.26 1270.11 Q1647.41 1270.11 1652.72 1276.03 Q1658.07 1281.9 1658.07 1292.03 M1650.61 1289.84 Q1650.53 1283.73 1647.17 1280.08 Q1643.85 1276.43 1638.34 1276.43 Q1632.1 1276.43 1628.33 1279.96 Q1624.6 1283.48 1624.04 1289.88 L1650.61 1289.84 Z" fill="#000000" fill-rule="evenodd" fill-opacity="1" /><path clip-path="url(#clip970)" d="M 0 0 M1694.81 1272.54 L1694.81 1279.59 Q1691.65 1277.97 1688.24 1277.16 Q1684.84 1276.35 1681.2 1276.35 Q1675.65 1276.35 1672.85 1278.05 Q1670.1 1279.76 1670.1 1283.16 Q1670.1 1285.75 1672.08 1287.25 Q1674.07 1288.71 1680.06 1290.04 L1682.61 1290.61 Q1690.55 1292.31 1693.88 1295.43 Q1697.24 1298.51 1697.24 1304.06 Q1697.24 1310.38 1692.21 1314.07 Q1687.23 1317.75 1678.48 1317.75 Q1674.84 1317.75 1670.87 1317.02 Q1666.94 1316.33 1662.56 1314.92 L1662.56 1307.22 Q1666.69 1309.37 1670.7 1310.46 Q1674.71 1311.51 1678.64 1311.51 Q1683.91 1311.51 1686.75 1309.73 Q1689.58 1307.91 1689.58 1304.63 Q1689.58 1301.59 1687.52 1299.97 Q1685.49 1298.35 1678.56 1296.85 L1675.97 1296.24 Q1669.04 1294.78 1665.96 1291.79 Q1662.89 1288.75 1662.89 1283.48 Q1662.89 1277.08 1667.42 1273.6 Q1671.96 1270.11 1680.3 1270.11 Q1684.44 1270.11 1688.08 1270.72 Q1691.73 1271.33 1694.81 1272.54 Z" fill="#000000" fill-rule="evenodd" fill-opacity="1" /><path clip-path="url(#clip970)" d="M 0 0 M1712.43 1258.33 L1712.43 1271.21 L1727.78 1271.21 L1727.78 1277 L1712.43 1277 L1712.43 1301.63 Q1712.43 1307.18 1713.93 1308.76 Q1715.47 1310.34 1720.12 1310.34 L1727.78 1310.34 L1727.78 1316.58 L1720.12 1316.58 Q1711.5 1316.58 1708.22 1313.38 Q1704.93 1310.14 1704.93 1301.63 L1704.93 1277 L1699.47 1277 L1699.47 1271.21 L1704.93 1271.21 L1704.93 1258.33 L1712.43 1258.33 Z" fill="#000000" fill-rule="evenodd" fill-opacity="1" /><path clip-path="url(#clip970)" d="M 0 0 M1764.52 1272.54 L1764.52 1279.59 Q1761.36 1277.97 1757.96 1277.16 Q1754.56 1276.35 1750.91 1276.35 Q1745.36 1276.35 1742.57 1278.05 Q1739.81 1279.76 1739.81 1283.16 Q1739.81 1285.75 1741.8 1287.25 Q1743.78 1288.71 1749.78 1290.04 L1752.33 1290.61 Q1760.27 1292.31 1763.59 1295.43 Q1766.95 1298.51 1766.95 1304.06 Q1766.95 1310.38 1761.93 1314.07 Q1756.95 1317.75 1748.2 1317.75 Q1744.55 1317.75 1740.58 1317.02 Q1736.65 1316.33 1732.28 1314.92 L1732.28 1307.22 Q1736.41 1309.37 1740.42 1310.46 Q1744.43 1311.51 1748.36 1311.51 Q1753.63 1311.51 1756.46 1309.73 Q1759.3 1307.91 1759.3 1304.63 Q1759.3 1301.59 1757.23 1299.97 Q1755.21 1298.35 1748.28 1296.85 L1745.69 1296.24 Q1738.76 1294.78 1735.68 1291.79 Q1732.6 1288.75 1732.6 1283.48 Q1732.6 1277.08 1737.14 1273.6 Q1741.68 1270.11 1750.02 1270.11 Q1754.15 1270.11 1757.8 1270.72 Q1761.44 1271.33 1764.52 1272.54 Z" fill="#000000" fill-rule="evenodd" fill-opacity="1" /><path clip-path="url(#clip970)" d="M 0 0 M1893.48 1455.78 L1893.48 1502.81 L1903.36 1502.81 Q1915.88 1502.81 1921.67 1497.14 Q1927.51 1491.47 1927.51 1479.24 Q1927.51 1467.08 1921.67 1461.45 Q1915.88 1455.78 1903.36 1455.78 L1893.48 1455.78 M1885.3 1449.06 L1902.11 1449.06 Q1919.69 1449.06 1927.91 1456.39 Q1936.14 1463.68 1936.14 1479.24 Q1936.14 1494.87 1927.87 1502.21 Q1919.61 1509.54 1902.11 1509.54 L1885.3 1509.54 L1885.3 1449.06 Z" fill="#000000" fill-rule="evenodd" fill-opacity="1" /><path clip-path="url(#clip970)" d="M 0 0 M1982.76 1484.99 L1982.76 1488.63 L1948.49 1488.63 Q1948.98 1496.33 1953.11 1500.38 Q1957.28 1504.39 1964.69 1504.39 Q1968.99 1504.39 1973 1503.34 Q1977.05 1502.29 1981.02 1500.18 L1981.02 1507.23 Q1977.01 1508.93 1972.8 1509.82 Q1968.58 1510.71 1964.25 1510.71 Q1953.39 1510.71 1947.03 1504.39 Q1940.71 1498.07 1940.71 1487.3 Q1940.71 1476.16 1946.71 1469.64 Q1952.74 1463.07 1962.95 1463.07 Q1972.11 1463.07 1977.41 1468.99 Q1982.76 1474.86 1982.76 1484.99 M1975.31 1482.8 Q1975.23 1476.68 1971.86 1473.04 Q1968.54 1469.39 1963.03 1469.39 Q1956.79 1469.39 1953.03 1472.92 Q1949.3 1476.44 1948.73 1482.84 L1975.31 1482.8 Z" fill="#000000" fill-rule="evenodd" fill-opacity="1" /><path clip-path="url(#clip970)" d="M 0 0 M2019.5 1465.5 L2019.5 1472.55 Q2016.34 1470.93 2012.94 1470.12 Q2009.54 1469.31 2005.89 1469.31 Q2000.34 1469.31 1997.55 1471.01 Q1994.79 1472.71 1994.79 1476.12 Q1994.79 1478.71 1996.78 1480.21 Q1998.76 1481.67 2004.76 1483 L2007.31 1483.57 Q2015.25 1485.27 2018.57 1488.39 Q2021.93 1491.47 2021.93 1497.02 Q2021.93 1503.34 2016.91 1507.03 Q2011.93 1510.71 2003.18 1510.71 Q1999.53 1510.71 1995.56 1509.98 Q1991.63 1509.29 1987.26 1507.88 L1987.26 1500.18 Q1991.39 1502.33 1995.4 1503.42 Q1999.41 1504.47 2003.34 1504.47 Q2008.61 1504.47 2011.44 1502.69 Q2014.28 1500.87 2014.28 1497.59 Q2014.28 1494.55 2012.21 1492.93 Q2010.19 1491.31 2003.26 1489.81 L2000.67 1489.2 Q1993.74 1487.74 1990.66 1484.75 Q1987.58 1481.71 1987.58 1476.44 Q1987.58 1470.04 1992.12 1466.56 Q1996.66 1463.07 2005 1463.07 Q2009.13 1463.07 2012.78 1463.68 Q2016.42 1464.29 2019.5 1465.5 Z" fill="#000000" fill-rule="evenodd" fill-opacity="1" /><path clip-path="url(#clip970)" d="M 0 0 M2029.75 1464.17 L2037.21 1464.17 L2037.21 1509.54 L2029.75 1509.54 L2029.75 1464.17 M2029.75 1446.51 L2037.21 1446.51 L2037.21 1455.94 L2029.75 1455.94 L2029.75 1446.51 Z" fill="#000000" fill-rule="evenodd" fill-opacity="1" /><path clip-path="url(#clip970)" d="M 0 0 M2074.88 1486.33 Q2074.88 1478.22 2071.52 1473.77 Q2068.19 1469.31 2062.16 1469.31 Q2056.16 1469.31 2052.8 1473.77 Q2049.48 1478.22 2049.48 1486.33 Q2049.48 1494.39 2052.8 1498.84 Q2056.16 1503.3 2062.16 1503.3 Q2068.19 1503.3 2071.52 1498.84 Q2074.88 1494.39 2074.88 1486.33 M2082.33 1503.91 Q2082.33 1515.49 2077.19 1521.12 Q2072.04 1526.79 2061.43 1526.79 Q2057.5 1526.79 2054.02 1526.19 Q2050.53 1525.62 2047.25 1524.4 L2047.25 1517.15 Q2050.53 1518.94 2053.73 1519.79 Q2056.93 1520.64 2060.25 1520.64 Q2067.59 1520.64 2071.23 1516.79 Q2074.88 1512.98 2074.88 1505.24 L2074.88 1501.56 Q2072.57 1505.57 2068.96 1507.55 Q2065.36 1509.54 2060.34 1509.54 Q2051.99 1509.54 2046.89 1503.18 Q2041.78 1496.82 2041.78 1486.33 Q2041.78 1475.79 2046.89 1469.43 Q2051.99 1463.07 2060.34 1463.07 Q2065.36 1463.07 2068.96 1465.06 Q2072.57 1467.04 2074.88 1471.05 L2074.88 1464.17 L2082.33 1464.17 L2082.33 1503.91 Z" fill="#000000" fill-rule="evenodd" fill-opacity="1" /><path clip-path="url(#clip970)" d="M 0 0 M2127.86 1482.15 L2127.86 1509.54 L2120.41 1509.54 L2120.41 1482.4 Q2120.41 1475.96 2117.9 1472.76 Q2115.39 1469.56 2110.36 1469.56 Q2104.33 1469.56 2100.84 1473.4 Q2097.36 1477.25 2097.36 1483.9 L2097.36 1509.54 L2089.87 1509.54 L2089.87 1464.17 L2097.36 1464.17 L2097.36 1471.22 Q2100.03 1467.12 2103.64 1465.1 Q2107.29 1463.07 2112.03 1463.07 Q2119.84 1463.07 2123.85 1467.93 Q2127.86 1472.76 2127.86 1482.15 Z" fill="#000000" fill-rule="evenodd" fill-opacity="1" /><path clip-path="url(#clip970)" d="M 0 0 M2170.16 1523.31 L2170.16 1529.1 L2127.05 1529.1 L2127.05 1523.31 L2170.16 1523.31 Z" fill="#000000" fill-rule="evenodd" fill-opacity="1" /><path clip-path="url(#clip970)" d="M 0 0 M2206.98 1481.18 Q2209.61 1482.07 2212.08 1484.99 Q2214.59 1487.91 2217.11 1493.01 L2225.41 1509.54 L2216.62 1509.54 L2208.88 1494.02 Q2205.88 1487.95 2203.05 1485.96 Q2200.25 1483.98 2195.39 1483.98 L2186.48 1483.98 L2186.48 1509.54 L2178.3 1509.54 L2178.3 1449.06 L2196.77 1449.06 Q2207.14 1449.06 2212.24 1453.39 Q2217.35 1457.73 2217.35 1466.48 Q2217.35 1472.19 2214.68 1475.96 Q2212.04 1479.72 2206.98 1481.18 M2186.48 1455.78 L2186.48 1477.25 L2196.77 1477.25 Q2202.68 1477.25 2205.68 1474.54 Q2208.72 1471.78 2208.72 1466.48 Q2208.72 1461.17 2205.68 1458.5 Q2202.68 1455.78 2196.77 1455.78 L2186.48 1455.78 Z" fill="#000000" fill-rule="evenodd" fill-opacity="1" /><path clip-path="url(#clip970)" d="M 0 0 M2268.31 1484.99 L2268.31 1488.63 L2234.04 1488.63 Q2234.52 1496.33 2238.66 1500.38 Q2242.83 1504.39 2250.24 1504.39 Q2254.54 1504.39 2258.55 1503.34 Q2262.6 1502.29 2266.57 1500.18 L2266.57 1507.23 Q2262.56 1508.93 2258.34 1509.82 Q2254.13 1510.71 2249.8 1510.71 Q2238.94 1510.71 2232.58 1504.39 Q2226.26 1498.07 2226.26 1487.3 Q2226.26 1476.16 2232.26 1469.64 Q2238.29 1463.07 2248.5 1463.07 Q2257.66 1463.07 2262.96 1468.99 Q2268.31 1474.86 2268.31 1484.99 M2260.86 1482.8 Q2260.77 1476.68 2257.41 1473.04 Q2254.09 1469.39 2248.58 1469.39 Q2242.34 1469.39 2238.58 1472.92 Q2234.85 1476.44 2234.28 1482.84 L2260.86 1482.8 Z" fill="#000000" fill-rule="evenodd" fill-opacity="1" /><path clip-path="url(#clip970)" d="M 0 0 M2296.75 1486.73 Q2287.71 1486.73 2284.23 1488.8 Q2280.75 1490.86 2280.75 1495.85 Q2280.75 1499.82 2283.34 1502.16 Q2285.97 1504.47 2290.47 1504.47 Q2296.67 1504.47 2300.39 1500.1 Q2304.16 1495.68 2304.16 1488.39 L2304.16 1486.73 L2296.75 1486.73 M2311.61 1483.65 L2311.61 1509.54 L2304.16 1509.54 L2304.16 1502.65 Q2301.61 1506.78 2297.8 1508.77 Q2293.99 1510.71 2288.48 1510.71 Q2281.52 1510.71 2277.38 1506.82 Q2273.29 1502.89 2273.29 1496.33 Q2273.29 1488.68 2278.4 1484.79 Q2283.54 1480.9 2293.71 1480.9 L2304.16 1480.9 L2304.16 1480.17 Q2304.16 1475.02 2300.76 1472.23 Q2297.39 1469.39 2291.28 1469.39 Q2287.39 1469.39 2283.7 1470.32 Q2280.02 1471.26 2276.61 1473.12 L2276.61 1466.23 Q2280.7 1464.65 2284.55 1463.88 Q2288.4 1463.07 2292.05 1463.07 Q2301.89 1463.07 2306.75 1468.18 Q2311.61 1473.28 2311.61 1483.65 Z" fill="#000000" fill-rule="evenodd" fill-opacity="1" /><path clip-path="url(#clip970)" d="M 0 0 M2348.36 1465.5 L2348.36 1472.55 Q2345.2 1470.93 2341.79 1470.12 Q2338.39 1469.31 2334.74 1469.31 Q2329.19 1469.31 2326.4 1471.01 Q2323.64 1472.71 2323.64 1476.12 Q2323.64 1478.71 2325.63 1480.21 Q2327.61 1481.67 2333.61 1483 L2336.16 1483.57 Q2344.1 1485.27 2347.42 1488.39 Q2350.79 1491.47 2350.79 1497.02 Q2350.79 1503.34 2345.76 1507.03 Q2340.78 1510.71 2332.03 1510.71 Q2328.38 1510.71 2324.41 1509.98 Q2320.48 1509.29 2316.11 1507.88 L2316.11 1500.18 Q2320.24 1502.33 2324.25 1503.42 Q2328.26 1504.47 2332.19 1504.47 Q2337.46 1504.47 2340.29 1502.69 Q2343.13 1500.87 2343.13 1497.59 Q2343.13 1494.55 2341.06 1492.93 Q2339.04 1491.31 2332.11 1489.81 L2329.52 1489.2 Q2322.59 1487.74 2319.51 1484.75 Q2316.43 1481.71 2316.43 1476.44 Q2316.43 1470.04 2320.97 1466.56 Q2325.51 1463.07 2333.85 1463.07 Q2337.98 1463.07 2341.63 1463.68 Q2345.28 1464.29 2348.36 1465.5 Z" fill="#000000" fill-rule="evenodd" fill-opacity="1" /><path clip-path="url(#clip970)" d="M 0 0 M2376.18 1469.39 Q2370.19 1469.39 2366.71 1474.09 Q2363.22 1478.75 2363.22 1486.89 Q2363.22 1495.04 2366.67 1499.73 Q2370.15 1504.39 2376.18 1504.39 Q2382.14 1504.39 2385.62 1499.69 Q2389.11 1494.99 2389.11 1486.89 Q2389.11 1478.83 2385.62 1474.13 Q2382.14 1469.39 2376.18 1469.39 M2376.18 1463.07 Q2385.91 1463.07 2391.46 1469.39 Q2397.01 1475.71 2397.01 1486.89 Q2397.01 1498.03 2391.46 1504.39 Q2385.91 1510.71 2376.18 1510.71 Q2366.42 1510.71 2360.87 1504.39 Q2355.36 1498.03 2355.36 1486.89 Q2355.36 1475.71 2360.87 1469.39 Q2366.42 1463.07 2376.18 1463.07 Z" fill="#000000" fill-rule="evenodd" fill-opacity="1" /><path clip-path="url(#clip970)" d="M 0 0 M2442.54 1482.15 L2442.54 1509.54 L2435.08 1509.54 L2435.08 1482.4 Q2435.08 1475.96 2432.57 1472.76 Q2430.06 1469.56 2425.04 1469.56 Q2419 1469.56 2415.52 1473.4 Q2412.04 1477.25 2412.04 1483.9 L2412.04 1509.54 L2404.54 1509.54 L2404.54 1464.17 L2412.04 1464.17 L2412.04 1471.22 Q2414.71 1467.12 2418.31 1465.1 Q2421.96 1463.07 2426.7 1463.07 Q2434.52 1463.07 2438.53 1467.93 Q2442.54 1472.76 2442.54 1482.15 Z" fill="#000000" fill-rule="evenodd" fill-opacity="1" /><path clip-path="url(#clip970)" d="M 0 0 M2450.36 1464.17 L2457.81 1464.17 L2457.81 1509.54 L2450.36 1509.54 L2450.36 1464.17 M2450.36 1446.51 L2457.81 1446.51 L2457.81 1455.94 L2450.36 1455.94 L2450.36 1446.51 Z" fill="#000000" fill-rule="evenodd" fill-opacity="1" /><path clip-path="url(#clip970)" d="M 0 0 M2503.34 1482.15 L2503.34 1509.54 L2495.89 1509.54 L2495.89 1482.4 Q2495.89 1475.96 2493.38 1472.76 Q2490.87 1469.56 2485.84 1469.56 Q2479.81 1469.56 2476.32 1473.4 Q2472.84 1477.25 2472.84 1483.9 L2472.84 1509.54 L2465.35 1509.54 L2465.35 1464.17 L2472.84 1464.17 L2472.84 1471.22 Q2475.51 1467.12 2479.12 1465.1 Q2482.76 1463.07 2487.5 1463.07 Q2495.32 1463.07 2499.33 1467.93 Q2503.34 1472.76 2503.34 1482.15 Z" fill="#000000" fill-rule="evenodd" fill-opacity="1" /><path clip-path="url(#clip970)" d="M 0 0 M2541.02 1486.33 Q2541.02 1478.22 2537.65 1473.77 Q2534.33 1469.31 2528.3 1469.31 Q2522.3 1469.31 2518.94 1473.77 Q2515.62 1478.22 2515.62 1486.33 Q2515.62 1494.39 2518.94 1498.84 Q2522.3 1503.3 2528.3 1503.3 Q2534.33 1503.3 2537.65 1498.84 Q2541.02 1494.39 2541.02 1486.33 M2548.47 1503.91 Q2548.47 1515.49 2543.33 1521.12 Q2538.18 1526.79 2527.57 1526.79 Q2523.64 1526.79 2520.15 1526.19 Q2516.67 1525.62 2513.39 1524.4 L2513.39 1517.15 Q2516.67 1518.94 2519.87 1519.79 Q2523.07 1520.64 2526.39 1520.64 Q2533.72 1520.64 2537.37 1516.79 Q2541.02 1512.98 2541.02 1505.24 L2541.02 1501.56 Q2538.71 1505.57 2535.1 1507.55 Q2531.5 1509.54 2526.47 1509.54 Q2518.13 1509.54 2513.02 1503.18 Q2507.92 1496.82 2507.92 1486.33 Q2507.92 1475.79 2513.02 1469.43 Q2518.13 1463.07 2526.47 1463.07 Q2531.5 1463.07 2535.1 1465.06 Q2538.71 1467.04 2541.02 1471.05 L2541.02 1464.17 L2548.47 1464.17 L2548.47 1503.91 Z" fill="#000000" fill-rule="evenodd" fill-opacity="1" /><path clip-path="url(#clip970)" d="M 0 0 M-39.194 969.35 L-39.194 977.978 Q-43.3259 974.13 -48.0249 972.226 Q-52.6835 970.322 -57.9497 970.322 Q-68.32 970.322 -73.8292 976.682 Q-79.3384 983.002 -79.3384 994.992 Q-79.3384 1006.94 -73.8292 1013.3 Q-68.32 1019.62 -57.9497 1019.62 Q-52.6835 1019.62 -48.0249 1017.72 Q-43.3259 1015.81 -39.194 1011.97 L-39.194 1020.51 Q-43.4879 1023.43 -48.3085 1024.89 Q-53.0886 1026.35 -58.4358 1026.35 Q-72.1683 1026.35 -80.0676 1017.96 Q-87.9669 1009.53 -87.9669 994.992 Q-87.9669 980.409 -80.0676 972.024 Q-72.1683 963.598 -58.4358 963.598 Q-53.0075 963.598 -48.2275 965.056 Q-43.4069 966.474 -39.194 969.35 Z" fill="#000000" fill-rule="evenodd" fill-opacity="1" /><path clip-path="url(#clip970)" d="M 0 0 M-13.7948 985.027 Q-19.7901 985.027 -23.2739 989.726 Q-26.7577 994.385 -26.7577 1002.53 Q-26.7577 1010.67 -23.3144 1015.37 Q-19.8306 1020.03 -13.7948 1020.03 Q-7.83997 1020.03 -4.35619 1015.33 Q-0.87241 1010.63 -0.87241 1002.53 Q-0.87241 994.466 -4.35619 989.767 Q-7.83997 985.027 -13.7948 985.027 M-13.7948 978.708 Q-4.07262 978.708 1.47711 985.027 Q7.02685 991.346 7.02685 1002.53 Q7.02685 1013.67 1.47711 1020.03 Q-4.07262 1026.35 -13.7948 1026.35 Q-23.5575 1026.35 -29.1072 1020.03 Q-34.6164 1013.67 -34.6164 1002.53 Q-34.6164 991.346 -29.1072 985.027 Q-23.5575 978.708 -13.7948 978.708 Z" fill="#000000" fill-rule="evenodd" fill-opacity="1" /><path clip-path="url(#clip970)" d="M 0 0 M14.8451 962.139 L22.2988 962.139 L22.2988 1025.17 L14.8451 1025.17 L14.8451 962.139 Z" fill="#000000" fill-rule="evenodd" fill-opacity="1" /><path clip-path="url(#clip970)" d="M 0 0 M30.117 962.139 L37.5707 962.139 L37.5707 1025.17 L30.117 1025.17 L30.117 962.139 Z" fill="#000000" fill-rule="evenodd" fill-opacity="1" /><path clip-path="url(#clip970)" d="M 0 0 M66.008 1002.36 Q56.9745 1002.36 53.4907 1004.43 Q50.0069 1006.5 50.0069 1011.48 Q50.0069 1015.45 52.5995 1017.8 Q55.2326 1020.11 59.7291 1020.11 Q65.927 1020.11 69.6538 1015.73 Q73.4212 1011.32 73.4212 1004.03 L73.4212 1002.36 L66.008 1002.36 M80.8748 999.286 L80.8748 1025.17 L73.4212 1025.17 L73.4212 1018.28 Q70.8691 1022.42 67.0613 1024.4 Q63.2534 1026.35 57.7442 1026.35 Q50.7766 1026.35 46.6447 1022.46 Q42.5533 1018.53 42.5533 1011.97 Q42.5533 1004.31 47.6574 1000.42 Q52.8021 996.532 62.9698 996.532 L73.4212 996.532 L73.4212 995.802 Q73.4212 990.658 70.0184 987.863 Q66.6562 985.027 60.5393 985.027 Q56.6504 985.027 52.9641 985.959 Q49.2778 986.89 45.875 988.754 L45.875 981.867 Q49.9664 980.287 53.8148 979.518 Q57.6632 978.708 61.309 978.708 Q71.1527 978.708 76.0138 983.812 Q80.8748 988.916 80.8748 999.286 Z" fill="#000000" fill-rule="evenodd" fill-opacity="1" /><path clip-path="url(#clip970)" d="M 0 0 M121.262 1002.53 Q121.262 994.304 117.86 989.645 Q114.497 984.946 108.583 984.946 Q102.669 984.946 99.2659 989.645 Q95.9037 994.304 95.9037 1002.53 Q95.9037 1010.75 99.2659 1015.45 Q102.669 1020.11 108.583 1020.11 Q114.497 1020.11 117.86 1015.45 Q121.262 1010.75 121.262 1002.53 M95.9037 986.688 Q98.2532 982.637 101.818 980.693 Q105.423 978.708 110.406 978.708 Q118.67 978.708 123.814 985.27 Q129 991.832 129 1002.53 Q129 1013.22 123.814 1019.78 Q118.67 1026.35 110.406 1026.35 Q105.423 1026.35 101.818 1024.4 Q98.2532 1022.42 95.9037 1018.37 L95.9037 1025.17 L88.4095 1025.17 L88.4095 962.139 L95.9037 962.139 L95.9037 986.688 Z" fill="#000000" fill-rule="evenodd" fill-opacity="1" /><path clip-path="url(#clip970)" d="M 0 0 M154.399 985.027 Q148.403 985.027 144.92 989.726 Q141.436 994.385 141.436 1002.53 Q141.436 1010.67 144.879 1015.37 Q148.363 1020.03 154.399 1020.03 Q160.354 1020.03 163.837 1015.33 Q167.321 1010.63 167.321 1002.53 Q167.321 994.466 163.837 989.767 Q160.354 985.027 154.399 985.027 M154.399 978.708 Q164.121 978.708 169.671 985.027 Q175.22 991.346 175.22 1002.53 Q175.22 1013.67 169.671 1020.03 Q164.121 1026.35 154.399 1026.35 Q144.636 1026.35 139.086 1020.03 Q133.577 1013.67 133.577 1002.53 Q133.577 991.346 139.086 985.027 Q144.636 978.708 154.399 978.708 Z" fill="#000000" fill-rule="evenodd" fill-opacity="1" /><path clip-path="url(#clip970)" d="M 0 0 M209.329 986.769 Q208.073 986.04 206.574 985.716 Q205.116 985.351 203.334 985.351 Q197.014 985.351 193.612 989.483 Q190.249 993.574 190.249 1001.27 L190.249 1025.17 L182.755 1025.17 L182.755 979.801 L190.249 979.801 L190.249 986.85 Q192.599 982.718 196.366 980.733 Q200.133 978.708 205.521 978.708 Q206.291 978.708 207.223 978.829 Q208.154 978.91 209.289 979.113 L209.329 986.769 Z" fill="#000000" fill-rule="evenodd" fill-opacity="1" /><path clip-path="url(#clip970)" d="M 0 0 M237.766 1002.36 Q228.733 1002.36 225.249 1004.43 Q221.765 1006.5 221.765 1011.48 Q221.765 1015.45 224.358 1017.8 Q226.991 1020.11 231.487 1020.11 Q237.685 1020.11 241.412 1015.73 Q245.18 1011.32 245.18 1004.03 L245.18 1002.36 L237.766 1002.36 M252.633 999.286 L252.633 1025.17 L245.18 1025.17 L245.18 1018.28 Q242.627 1022.42 238.82 1024.4 Q235.012 1026.35 229.503 1026.35 Q222.535 1026.35 218.403 1022.46 Q214.312 1018.53 214.312 1011.97 Q214.312 1004.31 219.416 1000.42 Q224.56 996.532 234.728 996.532 L245.18 996.532 L245.18 995.802 Q245.18 990.658 241.777 987.863 Q238.415 985.027 232.298 985.027 Q228.409 985.027 224.722 985.959 Q221.036 986.89 217.633 988.754 L217.633 981.867 Q221.725 980.287 225.573 979.518 Q229.421 978.708 233.067 978.708 Q242.911 978.708 247.772 983.812 Q252.633 988.916 252.633 999.286 Z" fill="#000000" fill-rule="evenodd" fill-opacity="1" /><path clip-path="url(#clip970)" d="M 0 0 M267.824 966.919 L267.824 979.801 L283.177 979.801 L283.177 985.594 L267.824 985.594 L267.824 1010.22 Q267.824 1015.77 269.323 1017.35 Q270.862 1018.93 275.521 1018.93 L283.177 1018.93 L283.177 1025.17 L275.521 1025.17 Q266.892 1025.17 263.611 1021.97 Q260.33 1018.73 260.33 1010.22 L260.33 985.594 L254.861 985.594 L254.861 979.801 L260.33 979.801 L260.33 966.919 L267.824 966.919 Z" fill="#000000" fill-rule="evenodd" fill-opacity="1" /><path clip-path="url(#clip970)" d="M 0 0 M290.995 979.801 L298.449 979.801 L298.449 1025.17 L290.995 1025.17 L290.995 979.801 M290.995 962.139 L298.449 962.139 L298.449 971.578 L290.995 971.578 L290.995 962.139 Z" fill="#000000" fill-rule="evenodd" fill-opacity="1" /><path clip-path="url(#clip970)" d="M 0 0 M323.848 985.027 Q317.853 985.027 314.369 989.726 Q310.885 994.385 310.885 1002.53 Q310.885 1010.67 314.328 1015.37 Q317.812 1020.03 323.848 1020.03 Q329.803 1020.03 333.287 1015.33 Q336.77 1010.63 336.77 1002.53 Q336.77 994.466 333.287 989.767 Q329.803 985.027 323.848 985.027 M323.848 978.708 Q333.57 978.708 339.12 985.027 Q344.67 991.346 344.67 1002.53 Q344.67 1013.67 339.12 1020.03 Q333.57 1026.35 323.848 1026.35 Q314.085 1026.35 308.536 1020.03 Q303.026 1013.67 303.026 1002.53 Q303.026 991.346 308.536 985.027 Q314.085 978.708 323.848 978.708 Z" fill="#000000" fill-rule="evenodd" fill-opacity="1" /><path clip-path="url(#clip970)" d="M 0 0 M390.202 997.787 L390.202 1025.17 L382.748 1025.17 L382.748 998.03 Q382.748 991.589 380.237 988.389 Q377.725 985.189 372.702 985.189 Q366.666 985.189 363.182 989.037 Q359.699 992.886 359.699 999.529 L359.699 1025.17 L352.204 1025.17 L352.204 979.801 L359.699 979.801 L359.699 986.85 Q362.372 982.758 365.977 980.733 Q369.623 978.708 374.363 978.708 Q382.181 978.708 386.191 983.569 Q390.202 988.389 390.202 997.787 Z" fill="#000000" fill-rule="evenodd" fill-opacity="1" /></svg>
