<?xml version="1.0" encoding="utf-8"?>
<svg xmlns="http://www.w3.org/2000/svg" xmlns:xlink="http://www.w3.org/1999/xlink" width="600" height="400" viewBox="0 0 2400 1600">
<defs>
  <clipPath id="clip480">
    <rect x="0" y="0" width="2400" height="1600"/>
  </clipPath>
</defs>
<path clip-path="url(#clip480)" d="
M0 1600 L2400 1600 L2400 0 L0 0  Z
  " fill="#ffffff" fill-rule="evenodd" fill-opacity="1"/>
<defs>
  <clipPath id="clip481">
    <rect x="480" y="0" width="1681" height="1600"/>
  </clipPath>
</defs>
<path clip-path="url(#clip480)" d="
M86.9921 1521.01 L2352.76 1521.01 L2352.76 47.2441 L86.9921 47.2441  Z
  " fill="#ffffff" fill-rule="evenodd" fill-opacity="1"/>
<defs>
  <clipPath id="clip482">
    <rect x="86" y="47" width="2267" height="1475"/>
  </clipPath>
</defs>
<polyline clip-path="url(#clip482)" style="stroke:#000000; stroke-width:2; stroke-opacity:0.1; fill:none" points="
  1063.03,1521.01 1063.03,47.2441 
  "/>
<polyline clip-path="url(#clip482)" style="stroke:#000000; stroke-width:2; stroke-opacity:0.1; fill:none" points="
  86.9921,1101.02 2352.76,1101.02 
  "/>
<polyline clip-path="url(#clip480)" style="stroke:#000000; stroke-width:4; stroke-opacity:1; fill:none" points="
  86.9921,1521.01 2352.76,1521.01 
  "/>
<polyline clip-path="url(#clip480)" style="stroke:#000000; stroke-width:4; stroke-opacity:1; fill:none" points="
  86.9921,1521.01 86.9921,47.2441 
  "/>
<polyline clip-path="url(#clip480)" style="stroke:#000000; stroke-width:4; stroke-opacity:1; fill:none" points="
  1063.03,1521.01 1063.03,1503.32 
  "/>
<polyline clip-path="url(#clip480)" style="stroke:#000000; stroke-width:4; stroke-opacity:1; fill:none" points="
  86.9921,1101.02 114.181,1101.02 
  "/>
<path clip-path="url(#clip480)" d="M 0 0 M1063.03 1543 Q1059.42 1543 1057.59 1546.56 Q1055.78 1550.11 1055.78 1557.23 Q1055.78 1564.34 1057.59 1567.91 Q1059.42 1571.45 1063.03 1571.45 Q1066.66 1571.45 1068.47 1567.91 Q1070.3 1564.34 1070.3 1557.23 Q1070.3 1550.11 1068.47 1546.56 Q1066.66 1543 1063.03 1543 M1063.03 1539.29 Q1068.84 1539.29 1071.89 1543.9 Q1074.97 1548.48 1074.97 1557.23 Q1074.97 1565.96 1071.89 1570.57 Q1068.84 1575.15 1063.03 1575.15 Q1057.22 1575.15 1054.14 1570.57 Q1051.08 1565.96 1051.08 1557.23 Q1051.08 1548.48 1054.14 1543.9 Q1057.22 1539.29 1063.03 1539.29 Z" fill="#000000" fill-rule="evenodd" fill-opacity="1" /><path clip-path="url(#clip480)" d="M 0 0 M51.0477 1086.82 Q47.4367 1086.82 45.608 1090.38 Q43.8024 1093.92 43.8024 1101.05 Q43.8024 1108.16 45.608 1111.73 Q47.4367 1115.27 51.0477 1115.27 Q54.682 1115.27 56.4875 1111.73 Q58.3162 1108.16 58.3162 1101.05 Q58.3162 1093.92 56.4875 1090.38 Q54.682 1086.82 51.0477 1086.82 M51.0477 1083.11 Q56.8579 1083.11 59.9134 1087.72 Q62.9921 1092.3 62.9921 1101.05 Q62.9921 1109.78 59.9134 1114.39 Q56.8579 1118.97 51.0477 1118.97 Q45.2376 1118.97 42.1589 1114.39 Q39.1034 1109.78 39.1034 1101.05 Q39.1034 1092.3 42.1589 1087.72 Q45.2376 1083.11 51.0477 1083.11 Z" fill="#000000" fill-rule="evenodd" fill-opacity="1" /><polyline clip-path="url(#clip482)" style="stroke:#ffa500; stroke-width:4.88758; stroke-opacity:1; fill:none" points="
  755.967,586.858 2288.63,1411.84 
  "/>
<polyline clip-path="url(#clip482)" style="stroke:#800080; stroke-width:0.831794; stroke-opacity:1; fill:none" points="
  626.865,781.44 1315.96,1369.85 
  "/>
<polyline clip-path="url(#clip482)" style="stroke:#ffa500; stroke-width:0.299089; stroke-opacity:1; fill:none" points="
  626.865,781.44 1576.37,88.9544 
  "/>
<polyline clip-path="url(#clip482)" style="stroke:#ffa500; stroke-width:0.843251; stroke-opacity:1; fill:none" points="
  151.118,1479.3 1576.37,88.9544 
  "/>
<polyline clip-path="url(#clip482)" style="stroke:#ffa500; stroke-width:4.5444; stroke-opacity:1; fill:none" points="
  1315.96,1369.85 2288.63,1411.84 
  "/>
<polyline clip-path="url(#clip482)" style="stroke:#ffa500; stroke-width:2.01037; stroke-opacity:1; fill:none" points="
  1315.96,1369.85 1576.37,88.9544 
  "/>
<polyline clip-path="url(#clip482)" style="stroke:#800080; stroke-width:0.820338; stroke-opacity:1; fill:none" points="
  151.118,1479.3 1315.96,1369.85 
  "/>
<polyline clip-path="url(#clip482)" style="stroke:#800080; stroke-width:2.29381; stroke-opacity:1; fill:none" points="
  151.118,1479.3 626.865,781.44 
  "/>
<polyline clip-path="url(#clip482)" style="stroke:#ffa500; stroke-width:4.41533; stroke-opacity:1; fill:none" points="
  755.967,586.858 1576.37,88.9544 
  "/>
<polyline clip-path="url(#clip482)" style="stroke:#800080; stroke-width:1.44165; stroke-opacity:1; fill:none" points="
  626.865,781.44 2288.63,1411.84 
  "/>
<polyline clip-path="url(#clip482)" style="stroke:#ffa500; stroke-width:2.26375; stroke-opacity:1; fill:none" points="
  151.118,1479.3 2288.63,1411.84 
  "/>
<polyline clip-path="url(#clip482)" style="stroke:#ffa500; stroke-width:1.50008; stroke-opacity:1; fill:none" points="
  755.967,586.858 1315.96,1369.85 
  "/>
<polyline clip-path="url(#clip482)" style="stroke:#800080; stroke-width:1.53172; stroke-opacity:1; fill:none" points="
  626.865,781.44 755.967,586.858 
  "/>
<polyline clip-path="url(#clip482)" style="stroke:#ffa500; stroke-width:3.57132; stroke-opacity:1; fill:none" points="
  1576.37,88.9544 2288.63,1411.84 
  "/>
<polyline clip-path="url(#clip482)" style="stroke:#800080; stroke-width:8; stroke-opacity:1; fill:none" points="
  151.118,1479.3 755.967,586.858 
  "/>
<circle clip-path="url(#clip482)" cx="1315.96" cy="1369.85" r="23" fill="#000000" fill-rule="evenodd" fill-opacity="1" stroke="none"/>
<circle clip-path="url(#clip482)" cx="755.967" cy="586.858" r="26" fill="#000000" fill-rule="evenodd" fill-opacity="1" stroke="none"/>
<circle clip-path="url(#clip482)" cx="2288.63" cy="1411.84" r="23" fill="#000000" fill-rule="evenodd" fill-opacity="1" stroke="none"/>
<circle clip-path="url(#clip482)" cx="626.865" cy="781.44" r="8" fill="#000000" fill-rule="evenodd" fill-opacity="1" stroke="none"/>
<circle clip-path="url(#clip482)" cx="151.118" cy="1479.3" r="28" fill="#000000" fill-rule="evenodd" fill-opacity="1" stroke="none"/>
<circle clip-path="url(#clip482)" cx="1576.37" cy="88.9544" r="8" fill="#000000" fill-rule="evenodd" fill-opacity="1" stroke="none"/>
<path clip-path="url(#clip480)" d="M 0 0 M1240.15 1346.34 L1240.15 1393.37 L1250.04 1393.37 Q1262.55 1393.37 1268.35 1387.7 Q1274.18 1382.02 1274.18 1369.79 Q1274.18 1357.64 1268.35 1352.01 Q1262.55 1346.34 1250.04 1346.34 L1240.15 1346.34 M1231.97 1339.61 L1248.78 1339.61 Q1266.36 1339.61 1274.58 1346.94 Q1282.81 1354.24 1282.81 1369.79 Q1282.81 1385.43 1274.54 1392.76 Q1266.28 1400.09 1248.78 1400.09 L1231.97 1400.09 L1231.97 1339.61 Z" fill="#000000" fill-rule="evenodd" fill-opacity="1" /><path clip-path="url(#clip480)" d="M 0 0 M1311.24 1377.28 Q1302.21 1377.28 1298.73 1379.35 Q1295.24 1381.42 1295.24 1386.4 Q1295.24 1390.37 1297.84 1392.72 Q1300.47 1395.03 1304.97 1395.03 Q1311.16 1395.03 1314.89 1390.65 Q1318.66 1386.24 1318.66 1378.95 L1318.66 1377.28 L1311.24 1377.28 M1326.11 1374.21 L1326.11 1400.09 L1318.66 1400.09 L1318.66 1393.2 Q1316.11 1397.34 1312.3 1399.32 Q1308.49 1401.27 1302.98 1401.27 Q1296.01 1401.27 1291.88 1397.38 Q1287.79 1393.45 1287.79 1386.89 Q1287.79 1379.23 1292.89 1375.34 Q1298.04 1371.45 1308.21 1371.45 L1318.66 1371.45 L1318.66 1370.72 Q1318.66 1365.58 1315.26 1362.78 Q1311.89 1359.95 1305.78 1359.95 Q1301.89 1359.95 1298.2 1360.88 Q1294.51 1361.81 1291.11 1363.67 L1291.11 1356.79 Q1295.2 1355.21 1299.05 1354.44 Q1302.9 1353.63 1306.55 1353.63 Q1316.39 1353.63 1321.25 1358.73 Q1326.11 1363.84 1326.11 1374.21 Z" fill="#000000" fill-rule="evenodd" fill-opacity="1" /><path clip-path="url(#clip480)" d="M 0 0 M1341.3 1341.84 L1341.3 1354.72 L1356.66 1354.72 L1356.66 1360.51 L1341.3 1360.51 L1341.3 1385.14 Q1341.3 1390.69 1342.8 1392.27 Q1344.34 1393.85 1349 1393.85 L1356.66 1393.85 L1356.66 1400.09 L1349 1400.09 Q1340.37 1400.09 1337.09 1396.89 Q1333.81 1393.65 1333.81 1385.14 L1333.81 1360.51 L1328.34 1360.51 L1328.34 1354.72 L1333.81 1354.72 L1333.81 1341.84 L1341.3 1341.84 Z" fill="#000000" fill-rule="evenodd" fill-opacity="1" /><path clip-path="url(#clip480)" d="M 0 0 M1385.09 1377.28 Q1376.06 1377.28 1372.58 1379.35 Q1369.09 1381.42 1369.09 1386.4 Q1369.09 1390.37 1371.68 1392.72 Q1374.32 1395.03 1378.81 1395.03 Q1385.01 1395.03 1388.74 1390.65 Q1392.51 1386.24 1392.51 1378.95 L1392.51 1377.28 L1385.09 1377.28 M1399.96 1374.21 L1399.96 1400.09 L1392.51 1400.09 L1392.51 1393.2 Q1389.95 1397.34 1386.15 1399.32 Q1382.34 1401.27 1376.83 1401.27 Q1369.86 1401.27 1365.73 1397.38 Q1361.64 1393.45 1361.64 1386.89 Q1361.64 1379.23 1366.74 1375.34 Q1371.89 1371.45 1382.05 1371.45 L1392.51 1371.45 L1392.51 1370.72 Q1392.51 1365.58 1389.1 1362.78 Q1385.74 1359.95 1379.62 1359.95 Q1375.74 1359.95 1372.05 1360.88 Q1368.36 1361.81 1364.96 1363.67 L1364.96 1356.79 Q1369.05 1355.21 1372.9 1354.44 Q1376.75 1353.63 1380.39 1353.63 Q1390.24 1353.63 1395.1 1358.73 Q1399.96 1363.84 1399.96 1374.21 Z" fill="#000000" fill-rule="evenodd" fill-opacity="1" /><path clip-path="url(#clip480)" d="M 0 0 M358.634 556.618 L409.797 556.618 L409.797 563.504 L388.327 563.504 L388.327 617.098 L380.104 617.098 L380.104 563.504 L358.634 563.504 L358.634 556.618 Z" fill="#000000" fill-rule="evenodd" fill-opacity="1" /><path clip-path="url(#clip480)" d="M 0 0 M442.326 592.549 L442.326 596.195 L408.055 596.195 Q408.541 603.892 412.673 607.943 Q416.845 611.953 424.259 611.953 Q428.553 611.953 432.563 610.9 Q436.614 609.847 440.584 607.74 L440.584 614.789 Q436.573 616.49 432.36 617.381 Q428.147 618.273 423.813 618.273 Q412.957 618.273 406.597 611.953 Q400.277 605.634 400.277 594.858 Q400.277 583.718 406.273 577.196 Q412.308 570.634 422.517 570.634 Q431.672 570.634 436.978 576.548 Q442.326 582.422 442.326 592.549 M434.872 590.362 Q434.791 584.245 431.429 580.599 Q428.107 576.953 422.598 576.953 Q416.359 576.953 412.592 580.478 Q408.865 584.002 408.298 590.402 L434.872 590.362 Z" fill="#000000" fill-rule="evenodd" fill-opacity="1" /><path clip-path="url(#clip480)" d="M 0 0 M482.794 573.47 L482.794 580.437 Q479.634 578.695 476.434 577.844 Q473.275 576.953 470.034 576.953 Q462.783 576.953 458.772 581.571 Q454.762 586.149 454.762 594.453 Q454.762 602.758 458.772 607.376 Q462.783 611.953 470.034 611.953 Q473.275 611.953 476.434 611.102 Q479.634 610.211 482.794 608.469 L482.794 615.356 Q479.675 616.814 476.313 617.543 Q472.991 618.273 469.224 618.273 Q458.975 618.273 452.939 611.832 Q446.903 605.391 446.903 594.453 Q446.903 583.354 452.98 576.994 Q459.096 570.634 469.71 570.634 Q473.153 570.634 476.434 571.363 Q479.716 572.052 482.794 573.47 Z" fill="#000000" fill-rule="evenodd" fill-opacity="1" /><path clip-path="url(#clip480)" d="M 0 0 M528.326 589.714 L528.326 617.098 L520.873 617.098 L520.873 589.957 Q520.873 583.516 518.361 580.316 Q515.85 577.115 510.826 577.115 Q504.791 577.115 501.307 580.964 Q497.823 584.812 497.823 591.456 L497.823 617.098 L490.329 617.098 L490.329 554.066 L497.823 554.066 L497.823 578.776 Q500.497 574.685 504.102 572.659 Q507.748 570.634 512.487 570.634 Q520.306 570.634 524.316 575.495 Q528.326 580.316 528.326 589.714 Z" fill="#000000" fill-rule="evenodd" fill-opacity="1" /><path clip-path="url(#clip480)" d="M 0 0 M573.859 589.714 L573.859 617.098 L566.405 617.098 L566.405 589.957 Q566.405 583.516 563.893 580.316 Q561.382 577.115 556.359 577.115 Q550.323 577.115 546.839 580.964 Q543.355 584.812 543.355 591.456 L543.355 617.098 L535.861 617.098 L535.861 571.728 L543.355 571.728 L543.355 578.776 Q546.029 574.685 549.634 572.659 Q553.28 570.634 558.019 570.634 Q565.838 570.634 569.848 575.495 Q573.859 580.316 573.859 589.714 Z" fill="#000000" fill-rule="evenodd" fill-opacity="1" /><path clip-path="url(#clip480)" d="M 0 0 M581.677 571.728 L589.13 571.728 L589.13 617.098 L581.677 617.098 L581.677 571.728 M581.677 554.066 L589.13 554.066 L589.13 563.504 L581.677 563.504 L581.677 554.066 Z" fill="#000000" fill-rule="evenodd" fill-opacity="1" /><path clip-path="url(#clip480)" d="M 0 0 M629.599 573.47 L629.599 580.437 Q626.439 578.695 623.239 577.844 Q620.079 576.953 616.839 576.953 Q609.587 576.953 605.577 581.571 Q601.567 586.149 601.567 594.453 Q601.567 602.758 605.577 607.376 Q609.587 611.953 616.839 611.953 Q620.079 611.953 623.239 611.102 Q626.439 610.211 629.599 608.469 L629.599 615.356 Q626.48 616.814 623.118 617.543 Q619.796 618.273 616.028 618.273 Q605.78 618.273 599.744 611.832 Q593.708 605.391 593.708 594.453 Q593.708 583.354 599.784 576.994 Q605.901 570.634 616.515 570.634 Q619.958 570.634 623.239 571.363 Q626.52 572.052 629.599 573.47 Z" fill="#000000" fill-rule="evenodd" fill-opacity="1" /><path clip-path="url(#clip480)" d="M 0 0 M658.036 594.291 Q649.003 594.291 645.519 596.357 Q642.035 598.423 642.035 603.406 Q642.035 607.376 644.628 609.725 Q647.261 612.034 651.757 612.034 Q657.955 612.034 661.682 607.659 Q665.449 603.244 665.449 595.952 L665.449 594.291 L658.036 594.291 M672.903 591.212 L672.903 617.098 L665.449 617.098 L665.449 610.211 Q662.897 614.343 659.09 616.328 Q655.282 618.273 649.772 618.273 Q642.805 618.273 638.673 614.384 Q634.582 610.454 634.582 603.892 Q634.582 596.236 639.686 592.347 Q644.83 588.458 654.998 588.458 L665.449 588.458 L665.449 587.729 Q665.449 582.584 662.047 579.789 Q658.684 576.953 652.568 576.953 Q648.679 576.953 644.992 577.885 Q641.306 578.817 637.903 580.68 L637.903 573.794 Q641.995 572.214 645.843 571.444 Q649.691 570.634 653.337 570.634 Q663.181 570.634 668.042 575.738 Q672.903 580.842 672.903 591.212 Z" fill="#000000" fill-rule="evenodd" fill-opacity="1" /><path clip-path="url(#clip480)" d="M 0 0 M680.721 554.066 L688.175 554.066 L688.175 617.098 L680.721 617.098 L680.721 554.066 Z" fill="#000000" fill-rule="evenodd" fill-opacity="1" /><path clip-path="url(#clip480)" d="M 0 0 M730.466 630.871 L730.466 636.664 L687.365 636.664 L687.365 630.871 L730.466 630.871 Z" fill="#000000" fill-rule="evenodd" fill-opacity="1" /><path clip-path="url(#clip480)" d="M 0 0 M783.898 561.276 L783.898 569.905 Q779.766 566.056 775.067 564.152 Q770.408 562.249 765.142 562.249 Q754.772 562.249 749.263 568.608 Q743.753 574.928 743.753 586.919 Q743.753 598.869 749.263 605.229 Q754.772 611.548 765.142 611.548 Q770.408 611.548 775.067 609.644 Q779.766 607.74 783.898 603.892 L783.898 612.439 Q779.604 615.356 774.783 616.814 Q770.003 618.273 764.656 618.273 Q750.924 618.273 743.024 609.887 Q735.125 601.461 735.125 586.919 Q735.125 572.335 743.024 563.95 Q750.924 555.524 764.656 555.524 Q770.084 555.524 774.864 556.982 Q779.685 558.4 783.898 561.276 Z" fill="#000000" fill-rule="evenodd" fill-opacity="1" /><path clip-path="url(#clip480)" d="M 0 0 M809.297 576.953 Q803.302 576.953 799.818 581.652 Q796.334 586.311 796.334 594.453 Q796.334 602.596 799.777 607.295 Q803.261 611.953 809.297 611.953 Q815.252 611.953 818.736 607.254 Q822.219 602.555 822.219 594.453 Q822.219 586.392 818.736 581.693 Q815.252 576.953 809.297 576.953 M809.297 570.634 Q819.019 570.634 824.569 576.953 Q830.119 583.273 830.119 594.453 Q830.119 605.593 824.569 611.953 Q819.019 618.273 809.297 618.273 Q799.534 618.273 793.985 611.953 Q788.475 605.593 788.475 594.453 Q788.475 583.273 793.985 576.953 Q799.534 570.634 809.297 570.634 Z" fill="#000000" fill-rule="evenodd" fill-opacity="1" /><path clip-path="url(#clip480)" d="M 0 0 M875.651 589.714 L875.651 617.098 L868.197 617.098 L868.197 589.957 Q868.197 583.516 865.686 580.316 Q863.174 577.115 858.151 577.115 Q852.115 577.115 848.631 580.964 Q845.148 584.812 845.148 591.456 L845.148 617.098 L837.653 617.098 L837.653 571.728 L845.148 571.728 L845.148 578.776 Q847.821 574.685 851.426 572.659 Q855.072 570.634 859.812 570.634 Q867.63 570.634 871.64 575.495 Q875.651 580.316 875.651 589.714 Z" fill="#000000" fill-rule="evenodd" fill-opacity="1" /><path clip-path="url(#clip480)" d="M 0 0 M912.393 573.064 L912.393 580.113 Q909.233 578.493 905.83 577.682 Q902.427 576.872 898.782 576.872 Q893.232 576.872 890.437 578.574 Q887.682 580.275 887.682 583.678 Q887.682 586.27 889.667 587.769 Q891.652 589.228 897.647 590.564 L900.199 591.131 Q908.139 592.833 911.461 595.952 Q914.823 599.031 914.823 604.58 Q914.823 610.9 909.8 614.586 Q904.817 618.273 896.067 618.273 Q892.422 618.273 888.452 617.543 Q884.522 616.855 880.147 615.437 L880.147 607.74 Q884.279 609.887 888.29 610.981 Q892.3 612.034 896.229 612.034 Q901.496 612.034 904.331 610.252 Q907.167 608.429 907.167 605.148 Q907.167 602.109 905.101 600.489 Q903.076 598.869 896.148 597.37 L893.556 596.762 Q886.629 595.304 883.55 592.306 Q880.471 589.268 880.471 584.002 Q880.471 577.601 885.008 574.118 Q889.545 570.634 897.89 570.634 Q902.022 570.634 905.668 571.242 Q909.314 571.849 912.393 573.064 Z" fill="#000000" fill-rule="evenodd" fill-opacity="1" /><path clip-path="url(#clip480)" d="M 0 0 M930.014 558.846 L930.014 571.728 L945.367 571.728 L945.367 577.52 L930.014 577.52 L930.014 602.15 Q930.014 607.7 931.513 609.28 Q933.052 610.859 937.711 610.859 L945.367 610.859 L945.367 617.098 L937.711 617.098 Q929.082 617.098 925.801 613.898 Q922.52 610.657 922.52 602.15 L922.52 577.52 L917.051 577.52 L917.051 571.728 L922.52 571.728 L922.52 558.846 L930.014 558.846 Z" fill="#000000" fill-rule="evenodd" fill-opacity="1" /><path clip-path="url(#clip480)" d="M 0 0 M979.476 578.695 Q978.22 577.966 976.721 577.642 Q975.263 577.277 973.48 577.277 Q967.161 577.277 963.758 581.409 Q960.396 585.501 960.396 593.197 L960.396 617.098 L952.902 617.098 L952.902 571.728 L960.396 571.728 L960.396 578.776 Q962.745 574.644 966.513 572.659 Q970.28 570.634 975.668 570.634 Q976.437 570.634 977.369 570.755 Q978.301 570.836 979.435 571.039 L979.476 578.695 Z" fill="#000000" fill-rule="evenodd" fill-opacity="1" /><path clip-path="url(#clip480)" d="M 0 0 M1007.91 594.291 Q998.879 594.291 995.396 596.357 Q991.912 598.423 991.912 603.406 Q991.912 607.376 994.504 609.725 Q997.138 612.034 1001.63 612.034 Q1007.83 612.034 1011.56 607.659 Q1015.33 603.244 1015.33 595.952 L1015.33 594.291 L1007.91 594.291 M1022.78 591.212 L1022.78 617.098 L1015.33 617.098 L1015.33 610.211 Q1012.77 614.343 1008.97 616.328 Q1005.16 618.273 999.649 618.273 Q992.682 618.273 988.55 614.384 Q984.458 610.454 984.458 603.892 Q984.458 596.236 989.562 592.347 Q994.707 588.458 1004.87 588.458 L1015.33 588.458 L1015.33 587.729 Q1015.33 582.584 1011.92 579.789 Q1008.56 576.953 1002.44 576.953 Q998.555 576.953 994.869 577.885 Q991.183 578.817 987.78 580.68 L987.78 573.794 Q991.871 572.214 995.72 571.444 Q999.568 570.634 1003.21 570.634 Q1013.06 570.634 1017.92 575.738 Q1022.78 580.842 1022.78 591.212 Z" fill="#000000" fill-rule="evenodd" fill-opacity="1" /><path clip-path="url(#clip480)" d="M 0 0 M1030.6 571.728 L1038.05 571.728 L1038.05 617.098 L1030.6 617.098 L1030.6 571.728 M1030.6 554.066 L1038.05 554.066 L1038.05 563.504 L1030.6 563.504 L1030.6 554.066 Z" fill="#000000" fill-rule="evenodd" fill-opacity="1" /><path clip-path="url(#clip480)" d="M 0 0 M1083.58 589.714 L1083.58 617.098 L1076.13 617.098 L1076.13 589.957 Q1076.13 583.516 1073.62 580.316 Q1071.11 577.115 1066.08 577.115 Q1060.05 577.115 1056.56 580.964 Q1053.08 584.812 1053.08 591.456 L1053.08 617.098 L1045.59 617.098 L1045.59 571.728 L1053.08 571.728 L1053.08 578.776 Q1055.75 574.685 1059.36 572.659 Q1063.01 570.634 1067.74 570.634 Q1075.56 570.634 1079.57 575.495 Q1083.58 580.316 1083.58 589.714 Z" fill="#000000" fill-rule="evenodd" fill-opacity="1" /><path clip-path="url(#clip480)" d="M 0 0 M1098.77 558.846 L1098.77 571.728 L1114.13 571.728 L1114.13 577.52 L1098.77 577.52 L1098.77 602.15 Q1098.77 607.7 1100.27 609.28 Q1101.81 610.859 1106.47 610.859 L1114.13 610.859 L1114.13 617.098 L1106.47 617.098 Q1097.84 617.098 1094.56 613.898 Q1091.28 610.657 1091.28 602.15 L1091.28 577.52 L1085.81 577.52 L1085.81 571.728 L1091.28 571.728 L1091.28 558.846 L1098.77 558.846 Z" fill="#000000" fill-rule="evenodd" fill-opacity="1" /><path clip-path="url(#clip480)" d="M 0 0 M1150.87 573.064 L1150.87 580.113 Q1147.71 578.493 1144.31 577.682 Q1140.9 576.872 1137.26 576.872 Q1131.71 576.872 1128.91 578.574 Q1126.16 580.275 1126.16 583.678 Q1126.16 586.27 1128.14 587.769 Q1130.13 589.228 1136.12 590.564 L1138.68 591.131 Q1146.62 592.833 1149.94 595.952 Q1153.3 599.031 1153.3 604.58 Q1153.3 610.9 1148.28 614.586 Q1143.29 618.273 1134.54 618.273 Q1130.9 618.273 1126.93 617.543 Q1123 616.855 1118.62 615.437 L1118.62 607.74 Q1122.76 609.887 1126.77 610.981 Q1130.78 612.034 1134.71 612.034 Q1139.97 612.034 1142.81 610.252 Q1145.64 608.429 1145.64 605.148 Q1145.64 602.109 1143.58 600.489 Q1141.55 598.869 1134.63 597.37 L1132.03 596.762 Q1125.11 595.304 1122.03 592.306 Q1118.95 589.268 1118.95 584.002 Q1118.95 577.601 1123.49 574.118 Q1128.02 570.634 1136.37 570.634 Q1140.5 570.634 1144.14 571.242 Q1147.79 571.849 1150.87 573.064 Z" fill="#000000" fill-rule="evenodd" fill-opacity="1" /><path clip-path="url(#clip480)" d="M 0 0 M1820.06 1388.33 L1820.06 1411.05 L1830.35 1411.05 Q1836.06 1411.05 1839.18 1408.09 Q1842.3 1405.14 1842.3 1399.67 Q1842.3 1394.24 1839.18 1391.28 Q1836.06 1388.33 1830.35 1388.33 L1820.06 1388.33 M1811.88 1381.6 L1830.35 1381.6 Q1840.52 1381.6 1845.7 1386.22 Q1850.93 1390.8 1850.93 1399.67 Q1850.93 1408.62 1845.7 1413.2 Q1840.52 1417.78 1830.35 1417.78 L1820.06 1417.78 L1820.06 1442.08 L1811.88 1442.08 L1811.88 1381.6 Z" fill="#000000" fill-rule="evenodd" fill-opacity="1" /><path clip-path="url(#clip480)" d="M 0 0 M1894.6 1417.53 L1894.6 1421.18 L1860.33 1421.18 Q1860.81 1428.88 1864.95 1432.93 Q1869.12 1436.94 1876.53 1436.94 Q1880.83 1436.94 1884.84 1435.88 Q1888.89 1434.83 1892.86 1432.72 L1892.86 1439.77 Q1888.85 1441.47 1884.63 1442.36 Q1880.42 1443.26 1876.09 1443.26 Q1865.23 1443.26 1858.87 1436.94 Q1852.55 1430.62 1852.55 1419.84 Q1852.55 1408.7 1858.55 1402.18 Q1864.58 1395.62 1874.79 1395.62 Q1883.95 1395.62 1889.25 1401.53 Q1894.6 1407.41 1894.6 1417.53 M1887.15 1415.35 Q1887.06 1409.23 1883.7 1405.58 Q1880.38 1401.94 1874.87 1401.94 Q1868.63 1401.94 1864.87 1405.46 Q1861.14 1408.99 1860.57 1415.39 L1887.15 1415.35 Z" fill="#000000" fill-rule="evenodd" fill-opacity="1" /><path clip-path="url(#clip480)" d="M 0 0 M1928.71 1403.68 Q1927.45 1402.95 1925.95 1402.63 Q1924.49 1402.26 1922.71 1402.26 Q1916.39 1402.26 1912.99 1406.39 Q1909.63 1410.48 1909.63 1418.18 L1909.63 1442.08 L1902.13 1442.08 L1902.13 1396.71 L1909.63 1396.71 L1909.63 1403.76 Q1911.98 1399.63 1915.74 1397.64 Q1919.51 1395.62 1924.9 1395.62 Q1925.67 1395.62 1926.6 1395.74 Q1927.53 1395.82 1928.67 1396.02 L1928.71 1403.68 Z" fill="#000000" fill-rule="evenodd" fill-opacity="1" /><path clip-path="url(#clip480)" d="M 0 0 M1959.49 1379.05 L1959.49 1385.25 L1952.36 1385.25 Q1948.35 1385.25 1946.77 1386.87 Q1945.24 1388.49 1945.24 1392.7 L1945.24 1396.71 L1957.51 1396.71 L1957.51 1402.5 L1945.24 1402.5 L1945.24 1442.08 L1937.74 1442.08 L1937.74 1402.5 L1930.61 1402.5 L1930.61 1396.71 L1937.74 1396.71 L1937.74 1393.55 Q1937.74 1385.98 1941.27 1382.53 Q1944.79 1379.05 1952.45 1379.05 L1959.49 1379.05 Z" fill="#000000" fill-rule="evenodd" fill-opacity="1" /><path clip-path="url(#clip480)" d="M 0 0 M1984.89 1401.94 Q1978.9 1401.94 1975.41 1406.64 Q1971.93 1411.29 1971.93 1419.44 Q1971.93 1427.58 1975.37 1432.28 Q1978.86 1436.94 1984.89 1436.94 Q1990.85 1436.94 1994.33 1432.24 Q1997.82 1427.54 1997.82 1419.44 Q1997.82 1411.38 1994.33 1406.68 Q1990.85 1401.94 1984.89 1401.94 M1984.89 1395.62 Q1994.62 1395.62 2000.17 1401.94 Q2005.72 1408.26 2005.72 1419.44 Q2005.72 1430.58 2000.17 1436.94 Q1994.62 1443.26 1984.89 1443.26 Q1975.13 1443.26 1969.58 1436.94 Q1964.07 1430.58 1964.07 1419.44 Q1964.07 1408.26 1969.58 1401.94 Q1975.13 1395.62 1984.89 1395.62 Z" fill="#000000" fill-rule="evenodd" fill-opacity="1" /><path clip-path="url(#clip480)" d="M 0 0 M2039.82 1403.68 Q2038.57 1402.95 2037.07 1402.63 Q2035.61 1402.26 2033.83 1402.26 Q2027.51 1402.26 2024.11 1406.39 Q2020.74 1410.48 2020.74 1418.18 L2020.74 1442.08 L2013.25 1442.08 L2013.25 1396.71 L2020.74 1396.71 L2020.74 1403.76 Q2023.09 1399.63 2026.86 1397.64 Q2030.63 1395.62 2036.02 1395.62 Q2036.79 1395.62 2037.72 1395.74 Q2038.65 1395.82 2039.78 1396.02 L2039.82 1403.68 Z" fill="#000000" fill-rule="evenodd" fill-opacity="1" /><path clip-path="url(#clip480)" d="M 0 0 M2081.51 1405.42 Q2084.3 1400.4 2088.19 1398.01 Q2092.08 1395.62 2097.35 1395.62 Q2104.44 1395.62 2108.28 1400.6 Q2112.13 1405.54 2112.13 1414.7 L2112.13 1442.08 L2104.64 1442.08 L2104.64 1414.94 Q2104.64 1408.42 2102.33 1405.26 Q2100.02 1402.1 2095.28 1402.1 Q2089.49 1402.1 2086.13 1405.95 Q2082.76 1409.8 2082.76 1416.44 L2082.76 1442.08 L2075.27 1442.08 L2075.27 1414.94 Q2075.27 1408.38 2072.96 1405.26 Q2070.65 1402.1 2065.83 1402.1 Q2060.12 1402.1 2056.76 1405.99 Q2053.39 1409.84 2053.39 1416.44 L2053.39 1442.08 L2045.9 1442.08 L2045.9 1396.71 L2053.39 1396.71 L2053.39 1403.76 Q2055.95 1399.59 2059.51 1397.6 Q2063.08 1395.62 2067.98 1395.62 Q2072.92 1395.62 2076.36 1398.13 Q2079.85 1400.64 2081.51 1405.42 Z" fill="#000000" fill-rule="evenodd" fill-opacity="1" /><path clip-path="url(#clip480)" d="M 0 0 M2140.57 1419.27 Q2131.54 1419.27 2128.05 1421.34 Q2124.57 1423.41 2124.57 1428.39 Q2124.57 1432.36 2127.16 1434.71 Q2129.79 1437.02 2134.29 1437.02 Q2140.49 1437.02 2144.22 1432.64 Q2147.98 1428.23 2147.98 1420.94 L2147.98 1419.27 L2140.57 1419.27 M2155.44 1416.2 L2155.44 1442.08 L2147.98 1442.08 L2147.98 1435.19 Q2145.43 1439.33 2141.62 1441.31 Q2137.82 1443.26 2132.31 1443.26 Q2125.34 1443.26 2121.21 1439.37 Q2117.12 1435.44 2117.12 1428.88 Q2117.12 1421.22 2122.22 1417.33 Q2127.36 1413.44 2137.53 1413.44 L2147.98 1413.44 L2147.98 1412.71 Q2147.98 1407.57 2144.58 1404.77 Q2141.22 1401.94 2135.1 1401.94 Q2131.21 1401.94 2127.53 1402.87 Q2123.84 1403.8 2120.44 1405.66 L2120.44 1398.78 Q2124.53 1397.2 2128.38 1396.43 Q2132.23 1395.62 2135.87 1395.62 Q2145.71 1395.62 2150.58 1400.72 Q2155.44 1405.83 2155.44 1416.2 Z" fill="#000000" fill-rule="evenodd" fill-opacity="1" /><path clip-path="url(#clip480)" d="M 0 0 M2200.97 1414.7 L2200.97 1442.08 L2193.52 1442.08 L2193.52 1414.94 Q2193.52 1408.5 2191 1405.3 Q2188.49 1402.1 2183.47 1402.1 Q2177.43 1402.1 2173.95 1405.95 Q2170.47 1409.8 2170.47 1416.44 L2170.47 1442.08 L2162.97 1442.08 L2162.97 1396.71 L2170.47 1396.71 L2170.47 1403.76 Q2173.14 1399.67 2176.74 1397.64 Q2180.39 1395.62 2185.13 1395.62 Q2192.95 1395.62 2196.96 1400.48 Q2200.97 1405.3 2200.97 1414.7 Z" fill="#000000" fill-rule="evenodd" fill-opacity="1" /><path clip-path="url(#clip480)" d="M 0 0 M2241.44 1398.45 L2241.44 1405.42 Q2238.28 1403.68 2235.08 1402.83 Q2231.92 1401.94 2228.68 1401.94 Q2221.43 1401.94 2217.42 1406.55 Q2213.41 1411.13 2213.41 1419.44 Q2213.41 1427.74 2217.42 1432.36 Q2221.43 1436.94 2228.68 1436.94 Q2231.92 1436.94 2235.08 1436.09 Q2238.28 1435.19 2241.44 1433.45 L2241.44 1440.34 Q2238.32 1441.8 2234.96 1442.53 Q2231.63 1443.26 2227.87 1443.26 Q2217.62 1443.26 2211.58 1436.81 Q2205.55 1430.37 2205.55 1419.44 Q2205.55 1408.34 2211.62 1401.98 Q2217.74 1395.62 2228.35 1395.62 Q2231.8 1395.62 2235.08 1396.35 Q2238.36 1397.04 2241.44 1398.45 Z" fill="#000000" fill-rule="evenodd" fill-opacity="1" /><path clip-path="url(#clip480)" d="M 0 0 M2288.06 1417.53 L2288.06 1421.18 L2253.79 1421.18 Q2254.28 1428.88 2258.41 1432.93 Q2262.58 1436.94 2270 1436.94 Q2274.29 1436.94 2278.3 1435.88 Q2282.35 1434.83 2286.32 1432.72 L2286.32 1439.77 Q2282.31 1441.47 2278.1 1442.36 Q2273.89 1443.26 2269.55 1443.26 Q2258.69 1443.26 2252.33 1436.94 Q2246.02 1430.62 2246.02 1419.84 Q2246.02 1408.7 2252.01 1402.18 Q2258.05 1395.62 2268.25 1395.62 Q2277.41 1395.62 2282.72 1401.53 Q2288.06 1407.41 2288.06 1417.53 M2280.61 1415.35 Q2280.53 1409.23 2277.17 1405.58 Q2273.84 1401.94 2268.34 1401.94 Q2262.1 1401.94 2258.33 1405.46 Q2254.6 1408.99 2254.04 1415.39 L2280.61 1415.35 Z" fill="#000000" fill-rule="evenodd" fill-opacity="1" /><path clip-path="url(#clip480)" d="M 0 0 M2330.35 1455.85 L2330.35 1461.65 L2287.25 1461.65 L2287.25 1455.85 L2330.35 1455.85 Z" fill="#000000" fill-rule="evenodd" fill-opacity="1" /><path clip-path="url(#clip480)" d="M 0 0 M2346.68 1388.33 L2346.68 1411.05 L2356.97 1411.05 Q2362.68 1411.05 2365.8 1408.09 Q2368.92 1405.14 2368.92 1399.67 Q2368.92 1394.24 2365.8 1391.28 Q2362.68 1388.33 2356.97 1388.33 L2346.68 1388.33 M2338.5 1381.6 L2356.97 1381.6 Q2367.14 1381.6 2372.32 1386.22 Q2377.55 1390.8 2377.55 1399.67 Q2377.55 1408.62 2372.32 1413.2 Q2367.14 1417.78 2356.97 1417.78 L2346.68 1417.78 L2346.68 1442.08 L2338.5 1442.08 L2338.5 1381.6 Z" fill="#000000" fill-rule="evenodd" fill-opacity="1" /><path clip-path="url(#clip480)" d="M 0 0 M2402.26 1419.27 Q2393.22 1419.27 2389.74 1421.34 Q2386.26 1423.41 2386.26 1428.39 Q2386.26 1432.36 2388.85 1434.71 Q2391.48 1437.02 2395.98 1437.02 Q2402.18 1437.02 2405.9 1432.64 Q2409.67 1428.23 2409.67 1420.94 L2409.67 1419.27 L2402.26 1419.27 M2417.13 1416.2 L2417.13 1442.08 L2409.67 1442.08 L2409.67 1435.19 Q2407.12 1439.33 2403.31 1441.31 Q2399.5 1443.26 2393.99 1443.26 Q2387.03 1443.26 2382.9 1439.37 Q2378.8 1435.44 2378.8 1428.88 Q2378.8 1421.22 2383.91 1417.33 Q2389.05 1413.44 2399.22 1413.44 L2409.67 1413.44 L2409.67 1412.71 Q2409.67 1407.57 2406.27 1404.77 Q2402.91 1401.94 2396.79 1401.94 Q2392.9 1401.94 2389.21 1402.87 Q2385.53 1403.8 2382.13 1405.66 L2382.13 1398.78 Q2386.22 1397.2 2390.07 1396.43 Q2393.91 1395.62 2397.56 1395.62 Q2407.4 1395.62 2412.26 1400.72 Q2417.13 1405.83 2417.13 1416.2 Z" fill="#000000" fill-rule="evenodd" fill-opacity="1" /><path clip-path="url(#clip480)" d="M 0 0 M2451.23 1403.68 Q2449.98 1402.95 2448.48 1402.63 Q2447.02 1402.26 2445.24 1402.26 Q2438.92 1402.26 2435.52 1406.39 Q2432.15 1410.48 2432.15 1418.18 L2432.15 1442.08 L2424.66 1442.08 L2424.66 1396.71 L2432.15 1396.71 L2432.15 1403.76 Q2434.5 1399.63 2438.27 1397.64 Q2442.04 1395.62 2447.43 1395.62 Q2448.2 1395.62 2449.13 1395.74 Q2450.06 1395.82 2451.19 1396.02 L2451.23 1403.68 Z" fill="#000000" fill-rule="evenodd" fill-opacity="1" /><path clip-path="url(#clip480)" d="M 0 0 M2479.67 1419.27 Q2470.64 1419.27 2467.15 1421.34 Q2463.67 1423.41 2463.67 1428.39 Q2463.67 1432.36 2466.26 1434.71 Q2468.9 1437.02 2473.39 1437.02 Q2479.59 1437.02 2483.32 1432.64 Q2487.08 1428.23 2487.08 1420.94 L2487.08 1419.27 L2479.67 1419.27 M2494.54 1416.2 L2494.54 1442.08 L2487.08 1442.08 L2487.08 1435.19 Q2484.53 1439.33 2480.72 1441.31 Q2476.92 1443.26 2471.41 1443.26 Q2464.44 1443.26 2460.31 1439.37 Q2456.22 1435.44 2456.22 1428.88 Q2456.22 1421.22 2461.32 1417.33 Q2466.47 1413.44 2476.63 1413.44 L2487.08 1413.44 L2487.08 1412.71 Q2487.08 1407.57 2483.68 1404.77 Q2480.32 1401.94 2474.2 1401.94 Q2470.31 1401.94 2466.63 1402.87 Q2462.94 1403.8 2459.54 1405.66 L2459.54 1398.78 Q2463.63 1397.2 2467.48 1396.43 Q2471.33 1395.62 2474.97 1395.62 Q2484.82 1395.62 2489.68 1400.72 Q2494.54 1405.83 2494.54 1416.2 Z" fill="#000000" fill-rule="evenodd" fill-opacity="1" /><path clip-path="url(#clip480)" d="M 0 0 M2537.68 1405.42 Q2540.48 1400.4 2544.36 1398.01 Q2548.25 1395.62 2553.52 1395.62 Q2560.61 1395.62 2564.46 1400.6 Q2568.3 1405.54 2568.3 1414.7 L2568.3 1442.08 L2560.81 1442.08 L2560.81 1414.94 Q2560.81 1408.42 2558.5 1405.26 Q2556.19 1402.1 2551.45 1402.1 Q2545.66 1402.1 2542.3 1405.95 Q2538.94 1409.8 2538.94 1416.44 L2538.94 1442.08 L2531.44 1442.08 L2531.44 1414.94 Q2531.44 1408.38 2529.13 1405.26 Q2526.82 1402.1 2522 1402.1 Q2516.29 1402.1 2512.93 1405.99 Q2509.57 1409.84 2509.57 1416.44 L2509.57 1442.08 L2502.07 1442.08 L2502.07 1396.71 L2509.57 1396.71 L2509.57 1403.76 Q2512.12 1399.59 2515.68 1397.6 Q2519.25 1395.62 2524.15 1395.62 Q2529.09 1395.62 2532.54 1398.13 Q2536.02 1400.64 2537.68 1405.42 Z" fill="#000000" fill-rule="evenodd" fill-opacity="1" /><path clip-path="url(#clip480)" d="M 0 0 M2614.93 1417.53 L2614.93 1421.18 L2580.66 1421.18 Q2581.15 1428.88 2585.28 1432.93 Q2589.45 1436.94 2596.86 1436.94 Q2601.16 1436.94 2605.17 1435.88 Q2609.22 1434.83 2613.19 1432.72 L2613.19 1439.77 Q2609.18 1441.47 2604.97 1442.36 Q2600.75 1443.26 2596.42 1443.26 Q2585.56 1443.26 2579.2 1436.94 Q2572.88 1430.62 2572.88 1419.84 Q2572.88 1408.7 2578.88 1402.18 Q2584.91 1395.62 2595.12 1395.62 Q2604.28 1395.62 2609.58 1401.53 Q2614.93 1407.41 2614.93 1417.53 M2607.48 1415.35 Q2607.4 1409.23 2604.03 1405.58 Q2600.71 1401.94 2595.2 1401.94 Q2588.96 1401.94 2585.2 1405.46 Q2581.47 1408.99 2580.9 1415.39 L2607.48 1415.35 Z" fill="#000000" fill-rule="evenodd" fill-opacity="1" /><path clip-path="url(#clip480)" d="M 0 0 M2630.12 1383.83 L2630.12 1396.71 L2645.47 1396.71 L2645.47 1402.5 L2630.12 1402.5 L2630.12 1427.13 Q2630.12 1432.68 2631.62 1434.26 Q2633.16 1435.84 2637.82 1435.84 L2645.47 1435.84 L2645.47 1442.08 L2637.82 1442.08 Q2629.19 1442.08 2625.91 1438.88 Q2622.63 1435.64 2622.63 1427.13 L2622.63 1402.5 L2617.16 1402.5 L2617.16 1396.71 L2622.63 1396.71 L2622.63 1383.83 L2630.12 1383.83 Z" fill="#000000" fill-rule="evenodd" fill-opacity="1" /><path clip-path="url(#clip480)" d="M 0 0 M2692.1 1417.53 L2692.1 1421.18 L2657.83 1421.18 Q2658.32 1428.88 2662.45 1432.93 Q2666.62 1436.94 2674.03 1436.94 Q2678.33 1436.94 2682.34 1435.88 Q2686.39 1434.83 2690.36 1432.72 L2690.36 1439.77 Q2686.35 1441.47 2682.14 1442.36 Q2677.92 1443.26 2673.59 1443.26 Q2662.73 1443.26 2656.37 1436.94 Q2650.05 1430.62 2650.05 1419.84 Q2650.05 1408.7 2656.05 1402.18 Q2662.08 1395.62 2672.29 1395.62 Q2681.45 1395.62 2686.75 1401.53 Q2692.1 1407.41 2692.1 1417.53 M2684.65 1415.35 Q2684.57 1409.23 2681.2 1405.58 Q2677.88 1401.94 2672.37 1401.94 Q2666.13 1401.94 2662.37 1405.46 Q2658.64 1408.99 2658.07 1415.39 L2684.65 1415.35 Z" fill="#000000" fill-rule="evenodd" fill-opacity="1" /><path clip-path="url(#clip480)" d="M 0 0 M2726.21 1403.68 Q2724.95 1402.95 2723.45 1402.63 Q2722 1402.26 2720.21 1402.26 Q2713.89 1402.26 2710.49 1406.39 Q2707.13 1410.48 2707.13 1418.18 L2707.13 1442.08 L2699.64 1442.08 L2699.64 1396.71 L2707.13 1396.71 L2707.13 1403.76 Q2709.48 1399.63 2713.25 1397.64 Q2717.01 1395.62 2722.4 1395.62 Q2723.17 1395.62 2724.1 1395.74 Q2725.03 1395.82 2726.17 1396.02 L2726.21 1403.68 Z" fill="#000000" fill-rule="evenodd" fill-opacity="1" /><path clip-path="url(#clip480)" d="M 0 0 M2762.95 1398.05 L2762.95 1405.1 Q2759.79 1403.48 2756.39 1402.67 Q2752.99 1401.86 2749.34 1401.86 Q2743.79 1401.86 2740.99 1403.56 Q2738.24 1405.26 2738.24 1408.66 Q2738.24 1411.25 2740.23 1412.75 Q2742.21 1414.21 2748.21 1415.55 L2750.76 1416.11 Q2758.7 1417.82 2762.02 1420.94 Q2765.38 1424.01 2765.38 1429.56 Q2765.38 1435.88 2760.36 1439.57 Q2755.38 1443.26 2746.63 1443.26 Q2742.98 1443.26 2739.01 1442.53 Q2735.08 1441.84 2730.71 1440.42 L2730.71 1432.72 Q2734.84 1434.87 2738.85 1435.96 Q2742.86 1437.02 2746.79 1437.02 Q2752.05 1437.02 2754.89 1435.24 Q2757.73 1433.41 2757.73 1430.13 Q2757.73 1427.09 2755.66 1425.47 Q2753.63 1423.85 2746.71 1422.35 L2744.11 1421.75 Q2737.19 1420.29 2734.11 1417.29 Q2731.03 1414.25 2731.03 1408.99 Q2731.03 1402.58 2735.57 1399.1 Q2740.1 1395.62 2748.45 1395.62 Q2752.58 1395.62 2756.23 1396.22 Q2759.87 1396.83 2762.95 1398.05 Z" fill="#000000" fill-rule="evenodd" fill-opacity="1" /><path clip-path="url(#clip480)" d="M 0 0 M74.9896 755.859 L74.9896 764.487 Q70.8577 760.639 66.1586 758.735 Q61.5001 756.831 56.2339 756.831 Q45.8636 756.831 40.3544 763.191 Q34.8451 769.51 34.8451 781.501 Q34.8451 793.451 40.3544 799.811 Q45.8636 806.131 56.2339 806.131 Q61.5001 806.131 66.1586 804.227 Q70.8577 802.323 74.9896 798.474 L74.9896 807.022 Q70.6957 809.938 65.8751 811.397 Q61.095 812.855 55.7478 812.855 Q42.0152 812.855 34.116 804.47 Q26.2167 796.044 26.2167 781.501 Q26.2167 766.918 34.116 758.532 Q42.0152 750.107 55.7478 750.107 Q61.176 750.107 65.9561 751.565 Q70.7767 752.983 74.9896 755.859 Z" fill="#000000" fill-rule="evenodd" fill-opacity="1" /><path clip-path="url(#clip480)" d="M 0 0 M82.8079 748.648 L90.2615 748.648 L90.2615 811.68 L82.8079 811.68 L82.8079 748.648 Z" fill="#000000" fill-rule="evenodd" fill-opacity="1" /><path clip-path="url(#clip480)" d="M 0 0 M98.0798 766.31 L105.533 766.31 L105.533 811.68 L98.0798 811.68 L98.0798 766.31 M98.0798 748.648 L105.533 748.648 L105.533 758.087 L98.0798 758.087 L98.0798 748.648 Z" fill="#000000" fill-rule="evenodd" fill-opacity="1" /><path clip-path="url(#clip480)" d="M 0 0 M152.159 787.132 L152.159 790.778 L117.889 790.778 Q118.375 798.474 122.507 802.525 Q126.679 806.536 134.092 806.536 Q138.386 806.536 142.397 805.482 Q146.448 804.429 150.417 802.323 L150.417 809.371 Q146.407 811.073 142.194 811.964 Q137.981 812.855 133.647 812.855 Q122.79 812.855 116.43 806.536 Q110.111 800.216 110.111 789.441 Q110.111 778.301 116.106 771.779 Q122.142 765.216 132.35 765.216 Q141.505 765.216 146.812 771.131 Q152.159 777.005 152.159 787.132 M144.706 784.944 Q144.625 778.828 141.262 775.182 Q137.941 771.536 132.431 771.536 Q126.193 771.536 122.426 775.06 Q118.699 778.584 118.132 784.985 L144.706 784.944 Z" fill="#000000" fill-rule="evenodd" fill-opacity="1" /><path clip-path="url(#clip480)" d="M 0 0 M197.691 784.296 L197.691 811.68 L190.238 811.68 L190.238 784.539 Q190.238 778.098 187.726 774.898 Q185.215 771.698 180.192 771.698 Q174.156 771.698 170.672 775.546 Q167.188 779.395 167.188 786.038 L167.188 811.68 L159.694 811.68 L159.694 766.31 L167.188 766.31 L167.188 773.359 Q169.862 769.267 173.467 767.242 Q177.113 765.216 181.852 765.216 Q189.671 765.216 193.681 770.078 Q197.691 774.898 197.691 784.296 Z" fill="#000000" fill-rule="evenodd" fill-opacity="1" /><path clip-path="url(#clip480)" d="M 0 0 M212.882 753.428 L212.882 766.31 L228.235 766.31 L228.235 772.103 L212.882 772.103 L212.882 796.733 Q212.882 802.282 214.381 803.862 Q215.921 805.442 220.579 805.442 L228.235 805.442 L228.235 811.68 L220.579 811.68 Q211.951 811.68 208.669 808.48 Q205.388 805.239 205.388 796.733 L205.388 772.103 L199.919 772.103 L199.919 766.31 L205.388 766.31 L205.388 753.428 L212.882 753.428 Z" fill="#000000" fill-rule="evenodd" fill-opacity="1" /><path clip-path="url(#clip480)" d="M 0 0 M270.527 825.453 L270.527 831.246 L227.425 831.246 L227.425 825.453 L270.527 825.453 Z" fill="#000000" fill-rule="evenodd" fill-opacity="1" /><path clip-path="url(#clip480)" d="M 0 0 M298.964 788.874 Q289.931 788.874 286.447 790.94 Q282.963 793.006 282.963 797.988 Q282.963 801.958 285.556 804.308 Q288.189 806.617 292.685 806.617 Q298.883 806.617 302.61 802.242 Q306.377 797.826 306.377 790.535 L306.377 788.874 L298.964 788.874 M313.831 785.795 L313.831 811.68 L306.377 811.68 L306.377 804.794 Q303.825 808.926 300.017 810.911 Q296.209 812.855 290.7 812.855 Q283.733 812.855 279.601 808.966 Q275.509 805.037 275.509 798.474 Q275.509 790.818 280.614 786.929 Q285.758 783.04 295.926 783.04 L306.377 783.04 L306.377 782.311 Q306.377 777.167 302.974 774.372 Q299.612 771.536 293.495 771.536 Q289.607 771.536 285.92 772.468 Q282.234 773.399 278.831 775.263 L278.831 768.376 Q282.923 766.796 286.771 766.027 Q290.619 765.216 294.265 765.216 Q304.109 765.216 308.97 770.321 Q313.831 775.425 313.831 785.795 Z" fill="#000000" fill-rule="evenodd" fill-opacity="1" /><path clip-path="url(#clip480)" d="M 0 0 M359.363 784.296 L359.363 811.68 L351.909 811.68 L351.909 784.539 Q351.909 778.098 349.398 774.898 Q346.886 771.698 341.863 771.698 Q335.827 771.698 332.344 775.546 Q328.86 779.395 328.86 786.038 L328.86 811.68 L321.366 811.68 L321.366 766.31 L328.86 766.31 L328.86 773.359 Q331.533 769.267 335.139 767.242 Q338.784 765.216 343.524 765.216 Q351.342 765.216 355.353 770.078 Q359.363 774.898 359.363 784.296 Z" fill="#000000" fill-rule="evenodd" fill-opacity="1" /><path clip-path="url(#clip480)" d="M 0 0 M397.036 773.197 L397.036 748.648 L404.49 748.648 L404.49 811.68 L397.036 811.68 L397.036 804.875 Q394.687 808.926 391.082 810.911 Q387.517 812.855 382.494 812.855 Q374.27 812.855 369.085 806.293 Q363.941 799.73 363.941 789.036 Q363.941 778.341 369.085 771.779 Q374.27 765.216 382.494 765.216 Q387.517 765.216 391.082 767.201 Q394.687 769.146 397.036 773.197 M371.637 789.036 Q371.637 797.259 375 801.958 Q378.402 806.617 384.317 806.617 Q390.231 806.617 393.634 801.958 Q397.036 797.259 397.036 789.036 Q397.036 780.812 393.634 776.154 Q390.231 771.455 384.317 771.455 Q378.402 771.455 375 776.154 Q371.637 780.812 371.637 789.036 Z" fill="#000000" fill-rule="evenodd" fill-opacity="1" /><path clip-path="url(#clip480)" d="M 0 0 M446.782 825.453 L446.782 831.246 L403.68 831.246 L403.68 825.453 L446.782 825.453 Z" fill="#000000" fill-rule="evenodd" fill-opacity="1" /><path clip-path="url(#clip480)" d="M 0 0 M500.213 755.859 L500.213 764.487 Q496.081 760.639 491.382 758.735 Q486.724 756.831 481.457 756.831 Q471.087 756.831 465.578 763.191 Q460.069 769.51 460.069 781.501 Q460.069 793.451 465.578 799.811 Q471.087 806.131 481.457 806.131 Q486.724 806.131 491.382 804.227 Q496.081 802.323 500.213 798.474 L500.213 807.022 Q495.919 809.938 491.098 811.397 Q486.318 812.855 480.971 812.855 Q467.239 812.855 459.339 804.47 Q451.44 796.044 451.44 781.501 Q451.44 766.918 459.339 758.532 Q467.239 750.107 480.971 750.107 Q486.399 750.107 491.18 751.565 Q496 752.983 500.213 755.859 Z" fill="#000000" fill-rule="evenodd" fill-opacity="1" /><path clip-path="url(#clip480)" d="M 0 0 M525.612 771.536 Q519.617 771.536 516.133 776.235 Q512.649 780.893 512.649 789.036 Q512.649 797.178 516.093 801.877 Q519.576 806.536 525.612 806.536 Q531.567 806.536 535.051 801.837 Q538.535 797.138 538.535 789.036 Q538.535 780.974 535.051 776.275 Q531.567 771.536 525.612 771.536 M525.612 765.216 Q535.334 765.216 540.884 771.536 Q546.434 777.855 546.434 789.036 Q546.434 800.176 540.884 806.536 Q535.334 812.855 525.612 812.855 Q515.85 812.855 510.3 806.536 Q504.791 800.176 504.791 789.036 Q504.791 777.855 510.3 771.536 Q515.85 765.216 525.612 765.216 Z" fill="#000000" fill-rule="evenodd" fill-opacity="1" /><path clip-path="url(#clip480)" d="M 0 0 M591.966 784.296 L591.966 811.68 L584.512 811.68 L584.512 784.539 Q584.512 778.098 582.001 774.898 Q579.489 771.698 574.466 771.698 Q568.43 771.698 564.946 775.546 Q561.463 779.395 561.463 786.038 L561.463 811.68 L553.969 811.68 L553.969 766.31 L561.463 766.31 L561.463 773.359 Q564.136 769.267 567.742 767.242 Q571.387 765.216 576.127 765.216 Q583.945 765.216 587.956 770.078 Q591.966 774.898 591.966 784.296 Z" fill="#000000" fill-rule="evenodd" fill-opacity="1" /><path clip-path="url(#clip480)" d="M 0 0 M628.708 767.647 L628.708 774.696 Q625.548 773.075 622.145 772.265 Q618.742 771.455 615.097 771.455 Q609.547 771.455 606.752 773.156 Q603.997 774.858 603.997 778.26 Q603.997 780.853 605.982 782.352 Q607.967 783.81 613.962 785.147 L616.514 785.714 Q624.454 787.415 627.776 790.535 Q631.138 793.613 631.138 799.163 Q631.138 805.482 626.115 809.169 Q621.133 812.855 612.383 812.855 Q608.737 812.855 604.767 812.126 Q600.837 811.437 596.463 810.019 L596.463 802.323 Q600.594 804.47 604.605 805.563 Q608.615 806.617 612.545 806.617 Q617.811 806.617 620.646 804.834 Q623.482 803.011 623.482 799.73 Q623.482 796.692 621.416 795.072 Q619.391 793.451 612.464 791.952 L609.871 791.345 Q602.944 789.886 599.865 786.889 Q596.787 783.851 596.787 778.584 Q596.787 772.184 601.324 768.7 Q605.861 765.216 614.205 765.216 Q618.337 765.216 621.983 765.824 Q625.629 766.432 628.708 767.647 Z" fill="#000000" fill-rule="evenodd" fill-opacity="1" /><path clip-path="url(#clip480)" d="M 0 0 M638.187 793.775 L638.187 766.31 L645.64 766.31 L645.64 793.492 Q645.64 799.933 648.152 803.173 Q650.664 806.374 655.687 806.374 Q661.723 806.374 665.206 802.525 Q668.731 798.677 668.731 792.033 L668.731 766.31 L676.184 766.31 L676.184 811.68 L668.731 811.68 L668.731 804.713 Q666.017 808.845 662.411 810.87 Q658.846 812.855 654.107 812.855 Q646.289 812.855 642.238 807.994 Q638.187 803.133 638.187 793.775 M656.943 765.216 L656.943 765.216 Z" fill="#000000" fill-rule="evenodd" fill-opacity="1" /><path clip-path="url(#clip480)" d="M 0 0 M684.003 748.648 L691.456 748.648 L691.456 811.68 L684.003 811.68 L684.003 748.648 Z" fill="#000000" fill-rule="evenodd" fill-opacity="1" /><path clip-path="url(#clip480)" d="M 0 0 M706.647 753.428 L706.647 766.31 L722 766.31 L722 772.103 L706.647 772.103 L706.647 796.733 Q706.647 802.282 708.146 803.862 Q709.685 805.442 714.344 805.442 L722 805.442 L722 811.68 L714.344 811.68 Q705.715 811.68 702.434 808.48 Q699.153 805.239 699.153 796.733 L699.153 772.103 L693.684 772.103 L693.684 766.31 L699.153 766.31 L699.153 753.428 L706.647 753.428 Z" fill="#000000" fill-rule="evenodd" fill-opacity="1" /><path clip-path="url(#clip480)" d="M 0 0 M750.437 788.874 Q741.404 788.874 737.92 790.94 Q734.436 793.006 734.436 797.988 Q734.436 801.958 737.029 804.308 Q739.662 806.617 744.158 806.617 Q750.356 806.617 754.083 802.242 Q757.851 797.826 757.851 790.535 L757.851 788.874 L750.437 788.874 M765.304 785.795 L765.304 811.68 L757.851 811.68 L757.851 804.794 Q755.298 808.926 751.491 810.911 Q747.683 812.855 742.174 812.855 Q735.206 812.855 731.074 808.966 Q726.983 805.037 726.983 798.474 Q726.983 790.818 732.087 786.929 Q737.231 783.04 747.399 783.04 L757.851 783.04 L757.851 782.311 Q757.851 777.167 754.448 774.372 Q751.086 771.536 744.969 771.536 Q741.08 771.536 737.393 772.468 Q733.707 773.399 730.304 775.263 L730.304 768.376 Q734.396 766.796 738.244 766.027 Q742.093 765.216 745.738 765.216 Q755.582 765.216 760.443 770.321 Q765.304 775.425 765.304 785.795 Z" fill="#000000" fill-rule="evenodd" fill-opacity="1" /><path clip-path="url(#clip480)" d="M 0 0 M810.836 784.296 L810.836 811.68 L803.383 811.68 L803.383 784.539 Q803.383 778.098 800.871 774.898 Q798.36 771.698 793.336 771.698 Q787.301 771.698 783.817 775.546 Q780.333 779.395 780.333 786.038 L780.333 811.68 L772.839 811.68 L772.839 766.31 L780.333 766.31 L780.333 773.359 Q783.007 769.267 786.612 767.242 Q790.258 765.216 794.997 765.216 Q802.816 765.216 806.826 770.078 Q810.836 774.898 810.836 784.296 Z" fill="#000000" fill-rule="evenodd" fill-opacity="1" /><path clip-path="url(#clip480)" d="M 0 0 M826.027 753.428 L826.027 766.31 L841.38 766.31 L841.38 772.103 L826.027 772.103 L826.027 796.733 Q826.027 802.282 827.526 803.862 Q829.065 805.442 833.724 805.442 L841.38 805.442 L841.38 811.68 L833.724 811.68 Q825.096 811.68 821.814 808.48 Q818.533 805.239 818.533 796.733 L818.533 772.103 L813.064 772.103 L813.064 766.31 L818.533 766.31 L818.533 753.428 L826.027 753.428 Z" fill="#000000" fill-rule="evenodd" fill-opacity="1" /><path clip-path="url(#clip480)" d="M 0 0 M883.672 825.453 L883.672 831.246 L840.57 831.246 L840.57 825.453 L883.672 825.453 Z" fill="#000000" fill-rule="evenodd" fill-opacity="1" /><path clip-path="url(#clip480)" d="M 0 0 M920.494 783.324 Q923.127 784.215 925.598 787.132 Q928.11 790.049 930.622 795.153 L938.926 811.68 L930.135 811.68 L922.398 796.165 Q919.401 790.089 916.565 788.104 Q913.77 786.119 908.909 786.119 L899.997 786.119 L899.997 811.68 L891.814 811.68 L891.814 751.2 L910.286 751.2 Q920.656 751.2 925.761 755.535 Q930.865 759.869 930.865 768.619 Q930.865 774.331 928.191 778.098 Q925.558 781.866 920.494 783.324 M899.997 757.925 L899.997 779.395 L910.286 779.395 Q916.2 779.395 919.198 776.681 Q922.236 773.926 922.236 768.619 Q922.236 763.313 919.198 760.639 Q916.2 757.925 910.286 757.925 L899.997 757.925 Z" fill="#000000" fill-rule="evenodd" fill-opacity="1" /><path clip-path="url(#clip480)" d="M 0 0 M981.825 787.132 L981.825 790.778 L947.554 790.778 Q948.04 798.474 952.172 802.525 Q956.345 806.536 963.758 806.536 Q968.052 806.536 972.062 805.482 Q976.113 804.429 980.083 802.323 L980.083 809.371 Q976.073 811.073 971.86 811.964 Q967.647 812.855 963.312 812.855 Q952.456 812.855 946.096 806.536 Q939.777 800.216 939.777 789.441 Q939.777 778.301 945.772 771.779 Q951.808 765.216 962.016 765.216 Q971.171 765.216 976.478 771.131 Q981.825 777.005 981.825 787.132 M974.371 784.944 Q974.29 778.828 970.928 775.182 Q967.606 771.536 962.097 771.536 Q955.859 771.536 952.091 775.06 Q948.365 778.584 947.797 784.985 L974.371 784.944 Z" fill="#000000" fill-rule="evenodd" fill-opacity="1" /><path clip-path="url(#clip480)" d="M 0 0 M994.099 789.036 Q994.099 797.259 997.462 801.958 Q1000.86 806.617 1006.78 806.617 Q1012.69 806.617 1016.1 801.958 Q1019.5 797.259 1019.5 789.036 Q1019.5 780.812 1016.1 776.154 Q1012.69 771.455 1006.78 771.455 Q1000.86 771.455 997.462 776.154 Q994.099 780.812 994.099 789.036 M1019.5 804.875 Q1017.15 808.926 1013.54 810.911 Q1009.98 812.855 1004.96 812.855 Q996.732 812.855 991.547 806.293 Q986.403 799.73 986.403 789.036 Q986.403 778.341 991.547 771.779 Q996.732 765.216 1004.96 765.216 Q1009.98 765.216 1013.54 767.201 Q1017.15 769.146 1019.5 773.197 L1019.5 766.31 L1026.95 766.31 L1026.95 828.937 L1019.5 828.937 L1019.5 804.875 Z" fill="#000000" fill-rule="evenodd" fill-opacity="1" /><path clip-path="url(#clip480)" d="M 0 0 M1034 793.775 L1034 766.31 L1041.45 766.31 L1041.45 793.492 Q1041.45 799.933 1043.97 803.173 Q1046.48 806.374 1051.5 806.374 Q1057.54 806.374 1061.02 802.525 Q1064.54 798.677 1064.54 792.033 L1064.54 766.31 L1072 766.31 L1072 811.68 L1064.54 811.68 L1064.54 804.713 Q1061.83 808.845 1058.23 810.87 Q1054.66 812.855 1049.92 812.855 Q1042.1 812.855 1038.05 807.994 Q1034 803.133 1034 793.775 M1052.76 765.216 L1052.76 765.216 Z" fill="#000000" fill-rule="evenodd" fill-opacity="1" /><path clip-path="url(#clip480)" d="M 0 0 M1118.62 787.132 L1118.62 790.778 L1084.35 790.778 Q1084.84 798.474 1088.97 802.525 Q1093.14 806.536 1100.56 806.536 Q1104.85 806.536 1108.86 805.482 Q1112.91 804.429 1116.88 802.323 L1116.88 809.371 Q1112.87 811.073 1108.66 811.964 Q1104.45 812.855 1100.11 812.855 Q1089.26 812.855 1082.9 806.536 Q1076.58 800.216 1076.58 789.441 Q1076.58 778.301 1082.57 771.779 Q1088.61 765.216 1098.82 765.216 Q1107.97 765.216 1113.28 771.131 Q1118.62 777.005 1118.62 787.132 M1111.17 784.944 Q1111.09 778.828 1107.73 775.182 Q1104.41 771.536 1098.9 771.536 Q1092.66 771.536 1088.89 775.06 Q1085.16 778.584 1084.6 784.985 L1111.17 784.944 Z" fill="#000000" fill-rule="evenodd" fill-opacity="1" /><path clip-path="url(#clip480)" d="M 0 0 M1155.37 767.647 L1155.37 774.696 Q1152.21 773.075 1148.8 772.265 Q1145.4 771.455 1141.75 771.455 Q1136.2 771.455 1133.41 773.156 Q1130.66 774.858 1130.66 778.26 Q1130.66 780.853 1132.64 782.352 Q1134.63 783.81 1140.62 785.147 L1143.17 785.714 Q1151.11 787.415 1154.43 790.535 Q1157.8 793.613 1157.8 799.163 Q1157.8 805.482 1152.77 809.169 Q1147.79 812.855 1139.04 812.855 Q1135.39 812.855 1131.42 812.126 Q1127.5 811.437 1123.12 810.019 L1123.12 802.323 Q1127.25 804.47 1131.26 805.563 Q1135.27 806.617 1139.2 806.617 Q1144.47 806.617 1147.3 804.834 Q1150.14 803.011 1150.14 799.73 Q1150.14 796.692 1148.07 795.072 Q1146.05 793.451 1139.12 791.952 L1136.53 791.345 Q1129.6 789.886 1126.52 786.889 Q1123.44 783.851 1123.44 778.584 Q1123.44 772.184 1127.98 768.7 Q1132.52 765.216 1140.86 765.216 Q1145 765.216 1148.64 765.824 Q1152.29 766.432 1155.37 767.647 Z" fill="#000000" fill-rule="evenodd" fill-opacity="1" /><path clip-path="url(#clip480)" d="M 0 0 M1172.99 753.428 L1172.99 766.31 L1188.34 766.31 L1188.34 772.103 L1172.99 772.103 L1172.99 796.733 Q1172.99 802.282 1174.49 803.862 Q1176.03 805.442 1180.68 805.442 L1188.34 805.442 L1188.34 811.68 L1180.68 811.68 Q1172.06 811.68 1168.77 808.48 Q1165.49 805.239 1165.49 796.733 L1165.49 772.103 L1160.02 772.103 L1160.02 766.31 L1165.49 766.31 L1165.49 753.428 L1172.99 753.428 Z" fill="#000000" fill-rule="evenodd" fill-opacity="1" /><path clip-path="url(#clip480)" d="M 0 0 M1225.08 767.647 L1225.08 774.696 Q1221.92 773.075 1218.52 772.265 Q1215.12 771.455 1211.47 771.455 Q1205.92 771.455 1203.13 773.156 Q1200.37 774.858 1200.37 778.26 Q1200.37 780.853 1202.36 782.352 Q1204.34 783.81 1210.34 785.147 L1212.89 785.714 Q1220.83 787.415 1224.15 790.535 Q1227.51 793.613 1227.51 799.163 Q1227.51 805.482 1222.49 809.169 Q1217.51 812.855 1208.76 812.855 Q1205.11 812.855 1201.14 812.126 Q1197.21 811.437 1192.84 810.019 L1192.84 802.323 Q1196.97 804.47 1200.98 805.563 Q1204.99 806.617 1208.92 806.617 Q1214.18 806.617 1217.02 804.834 Q1219.86 803.011 1219.86 799.73 Q1219.86 796.692 1217.79 795.072 Q1215.76 793.451 1208.84 791.952 L1206.25 791.345 Q1199.32 789.886 1196.24 786.889 Q1193.16 783.851 1193.16 778.584 Q1193.16 772.184 1197.7 768.7 Q1202.23 765.216 1210.58 765.216 Q1214.71 765.216 1218.36 765.824 Q1222 766.432 1225.08 767.647 Z" fill="#000000" fill-rule="evenodd" fill-opacity="1" /><path clip-path="url(#clip480)" d="M 0 0 M-172.286 1455.78 L-172.286 1502.81 L-162.402 1502.81 Q-149.885 1502.81 -144.092 1497.14 Q-138.259 1491.47 -138.259 1479.24 Q-138.259 1467.08 -144.092 1461.45 Q-149.885 1455.78 -162.402 1455.78 L-172.286 1455.78 M-180.469 1449.06 L-163.658 1449.06 Q-146.077 1449.06 -137.854 1456.39 Q-129.63 1463.68 -129.63 1479.24 Q-129.63 1494.87 -137.894 1502.21 Q-146.158 1509.54 -163.658 1509.54 L-180.469 1509.54 L-180.469 1449.06 Z" fill="#000000" fill-rule="evenodd" fill-opacity="1" /><path clip-path="url(#clip480)" d="M 0 0 M-83.0045 1484.99 L-83.0045 1488.63 L-117.275 1488.63 Q-116.789 1496.33 -112.657 1500.38 Q-108.485 1504.39 -101.072 1504.39 Q-96.7776 1504.39 -92.7672 1503.34 Q-88.7163 1502.29 -84.7464 1500.18 L-84.7464 1507.23 Q-88.7568 1508.93 -92.9697 1509.82 Q-97.1827 1510.71 -101.517 1510.71 Q-112.374 1510.71 -118.733 1504.39 Q-125.053 1498.07 -125.053 1487.3 Q-125.053 1476.16 -119.058 1469.64 Q-113.022 1463.07 -102.813 1463.07 Q-93.6584 1463.07 -88.3517 1468.99 Q-83.0045 1474.86 -83.0045 1484.99 M-90.4582 1482.8 Q-90.5392 1476.68 -93.9014 1473.04 Q-97.2232 1469.39 -102.732 1469.39 Q-108.971 1469.39 -112.738 1472.92 Q-116.465 1476.44 -117.032 1482.84 L-90.4582 1482.8 Z" fill="#000000" fill-rule="evenodd" fill-opacity="1" /><path clip-path="url(#clip480)" d="M 0 0 M-46.2628 1465.5 L-46.2628 1472.55 Q-49.4225 1470.93 -52.8253 1470.12 Q-56.228 1469.31 -59.8738 1469.31 Q-65.4236 1469.31 -68.2187 1471.01 Q-70.9733 1472.71 -70.9733 1476.12 Q-70.9733 1478.71 -68.9884 1480.21 Q-67.0034 1481.67 -61.0081 1483 L-58.456 1483.57 Q-50.5162 1485.27 -47.1945 1488.39 Q-43.8322 1491.47 -43.8322 1497.02 Q-43.8322 1503.34 -48.8554 1507.03 Q-53.838 1510.71 -62.5879 1510.71 Q-66.2337 1510.71 -70.2036 1509.98 Q-74.133 1509.29 -78.508 1507.88 L-78.508 1500.18 Q-74.3761 1502.33 -70.3657 1503.42 Q-66.3553 1504.47 -62.4259 1504.47 Q-57.1597 1504.47 -54.3241 1502.69 Q-51.4885 1500.87 -51.4885 1497.59 Q-51.4885 1494.55 -53.5544 1492.93 Q-55.5799 1491.31 -62.5069 1489.81 L-65.0995 1489.2 Q-72.0265 1487.74 -75.1052 1484.75 Q-78.1839 1481.71 -78.1839 1476.44 Q-78.1839 1470.04 -73.6469 1466.56 Q-69.1099 1463.07 -60.765 1463.07 Q-56.6331 1463.07 -52.9873 1463.68 Q-49.3415 1464.29 -46.2628 1465.5 Z" fill="#000000" fill-rule="evenodd" fill-opacity="1" /><path clip-path="url(#clip480)" d="M 0 0 M-36.014 1464.17 L-28.5603 1464.17 L-28.5603 1509.54 L-36.014 1509.54 L-36.014 1464.17 M-36.014 1446.51 L-28.5603 1446.51 L-28.5603 1455.94 L-36.014 1455.94 L-36.014 1446.51 Z" fill="#000000" fill-rule="evenodd" fill-opacity="1" /><path clip-path="url(#clip480)" d="M 0 0 M9.11307 1486.33 Q9.11307 1478.22 5.75082 1473.77 Q2.42908 1469.31 -3.60677 1469.31 Q-9.60211 1469.31 -12.9644 1473.77 Q-16.2861 1478.22 -16.2861 1486.33 Q-16.2861 1494.39 -12.9644 1498.84 Q-9.60211 1503.3 -3.60677 1503.3 Q2.42908 1503.3 5.75082 1498.84 Q9.11307 1494.39 9.11307 1486.33 M16.5667 1503.91 Q16.5667 1515.49 11.4221 1521.12 Q6.27744 1526.79 -4.33593 1526.79 Q-8.26531 1526.79 -11.7491 1526.19 Q-15.2329 1525.62 -18.5141 1524.4 L-18.5141 1517.15 Q-15.2329 1518.94 -12.0327 1519.79 Q-8.83244 1520.64 -5.5107 1520.64 Q1.82144 1520.64 5.46725 1516.79 Q9.11307 1512.98 9.11307 1505.24 L9.11307 1501.56 Q6.80405 1505.57 3.19875 1507.55 Q-0.406556 1509.54 -5.42968 1509.54 Q-13.7745 1509.54 -18.8787 1503.18 Q-23.9828 1496.82 -23.9828 1486.33 Q-23.9828 1475.79 -18.8787 1469.43 Q-13.7745 1463.07 -5.42968 1463.07 Q-0.406556 1463.07 3.19875 1465.06 Q6.80405 1467.04 9.11307 1471.05 L9.11307 1464.17 L16.5667 1464.17 L16.5667 1503.91 Z" fill="#000000" fill-rule="evenodd" fill-opacity="1" /><path clip-path="url(#clip480)" d="M 0 0 M62.0989 1482.15 L62.0989 1509.54 L54.6452 1509.54 L54.6452 1482.4 Q54.6452 1475.96 52.1337 1472.76 Q49.6221 1469.56 44.599 1469.56 Q38.5631 1469.56 35.0794 1473.4 Q31.5956 1477.25 31.5956 1483.9 L31.5956 1509.54 L24.1014 1509.54 L24.1014 1464.17 L31.5956 1464.17 L31.5956 1471.22 Q34.2692 1467.12 37.8745 1465.1 Q41.5203 1463.07 46.2599 1463.07 Q54.0781 1463.07 58.0885 1467.93 Q62.0989 1472.76 62.0989 1482.15 Z" fill="#000000" fill-rule="evenodd" fill-opacity="1" /><path clip-path="url(#clip480)" d="M 0 0 M104.39 1523.31 L104.39 1529.1 L61.2887 1529.1 L61.2887 1523.31 L104.39 1523.31 Z" fill="#000000" fill-rule="evenodd" fill-opacity="1" /><path clip-path="url(#clip480)" d="M 0 0 M141.213 1481.18 Q143.846 1482.07 146.317 1484.99 Q148.829 1487.91 151.34 1493.01 L159.645 1509.54 L150.854 1509.54 L143.117 1494.02 Q140.119 1487.95 137.284 1485.96 Q134.489 1483.98 129.627 1483.98 L120.715 1483.98 L120.715 1509.54 L112.533 1509.54 L112.533 1449.06 L131.005 1449.06 Q141.375 1449.06 146.479 1453.39 Q151.583 1457.73 151.583 1466.48 Q151.583 1472.19 148.91 1475.96 Q146.277 1479.72 141.213 1481.18 M120.715 1455.78 L120.715 1477.25 L131.005 1477.25 Q136.919 1477.25 139.917 1474.54 Q142.955 1471.78 142.955 1466.48 Q142.955 1461.17 139.917 1458.5 Q136.919 1455.78 131.005 1455.78 L120.715 1455.78 Z" fill="#000000" fill-rule="evenodd" fill-opacity="1" /><path clip-path="url(#clip480)" d="M 0 0 M202.544 1484.99 L202.544 1488.63 L168.273 1488.63 Q168.759 1496.33 172.891 1500.38 Q177.064 1504.39 184.477 1504.39 Q188.771 1504.39 192.781 1503.34 Q196.832 1502.29 200.802 1500.18 L200.802 1507.23 Q196.791 1508.93 192.579 1509.82 Q188.366 1510.71 184.031 1510.71 Q173.175 1510.71 166.815 1504.39 Q160.495 1498.07 160.495 1487.3 Q160.495 1476.16 166.491 1469.64 Q172.527 1463.07 182.735 1463.07 Q191.89 1463.07 197.197 1468.99 Q202.544 1474.86 202.544 1484.99 M195.09 1482.8 Q195.009 1476.68 191.647 1473.04 Q188.325 1469.39 182.816 1469.39 Q176.577 1469.39 172.81 1472.92 Q169.083 1476.44 168.516 1482.84 L195.09 1482.8 Z" fill="#000000" fill-rule="evenodd" fill-opacity="1" /><path clip-path="url(#clip480)" d="M 0 0 M230.981 1486.73 Q221.948 1486.73 218.464 1488.8 Q214.98 1490.86 214.98 1495.85 Q214.98 1499.82 217.573 1502.16 Q220.206 1504.47 224.702 1504.47 Q230.9 1504.47 234.627 1500.1 Q238.394 1495.68 238.394 1488.39 L238.394 1486.73 L230.981 1486.73 M245.848 1483.65 L245.848 1509.54 L238.394 1509.54 L238.394 1502.65 Q235.842 1506.78 232.034 1508.77 Q228.226 1510.71 222.717 1510.71 Q215.75 1510.71 211.618 1506.82 Q207.526 1502.89 207.526 1496.33 Q207.526 1488.68 212.63 1484.79 Q217.775 1480.9 227.943 1480.9 L238.394 1480.9 L238.394 1480.17 Q238.394 1475.02 234.991 1472.23 Q231.629 1469.39 225.512 1469.39 Q221.624 1469.39 217.937 1470.32 Q214.251 1471.26 210.848 1473.12 L210.848 1466.23 Q214.94 1464.65 218.788 1463.88 Q222.636 1463.07 226.282 1463.07 Q236.126 1463.07 240.987 1468.18 Q245.848 1473.28 245.848 1483.65 Z" fill="#000000" fill-rule="evenodd" fill-opacity="1" /><path clip-path="url(#clip480)" d="M 0 0 M282.59 1465.5 L282.59 1472.55 Q279.43 1470.93 276.027 1470.12 Q272.624 1469.31 268.979 1469.31 Q263.429 1469.31 260.634 1471.01 Q257.879 1472.71 257.879 1476.12 Q257.879 1478.71 259.864 1480.21 Q261.849 1481.67 267.844 1483 L270.396 1483.57 Q278.336 1485.27 281.658 1488.39 Q285.02 1491.47 285.02 1497.02 Q285.02 1503.34 279.997 1507.03 Q275.014 1510.71 266.264 1510.71 Q262.619 1510.71 258.649 1509.98 Q254.719 1509.29 250.344 1507.88 L250.344 1500.18 Q254.476 1502.33 258.487 1503.42 Q262.497 1504.47 266.427 1504.47 Q271.693 1504.47 274.528 1502.69 Q277.364 1500.87 277.364 1497.59 Q277.364 1494.55 275.298 1492.93 Q273.273 1491.31 266.345 1489.81 L263.753 1489.2 Q256.826 1487.74 253.747 1484.75 Q250.668 1481.71 250.668 1476.44 Q250.668 1470.04 255.205 1466.56 Q259.743 1463.07 268.087 1463.07 Q272.219 1463.07 275.865 1463.68 Q279.511 1464.29 282.59 1465.5 Z" fill="#000000" fill-rule="evenodd" fill-opacity="1" /><path clip-path="url(#clip480)" d="M 0 0 M310.419 1469.39 Q304.424 1469.39 300.94 1474.09 Q297.456 1478.75 297.456 1486.89 Q297.456 1495.04 300.9 1499.73 Q304.383 1504.39 310.419 1504.39 Q316.374 1504.39 319.858 1499.69 Q323.342 1494.99 323.342 1486.89 Q323.342 1478.83 319.858 1474.13 Q316.374 1469.39 310.419 1469.39 M310.419 1463.07 Q320.141 1463.07 325.691 1469.39 Q331.241 1475.71 331.241 1486.89 Q331.241 1498.03 325.691 1504.39 Q320.141 1510.71 310.419 1510.71 Q300.657 1510.71 295.107 1504.39 Q289.598 1498.03 289.598 1486.89 Q289.598 1475.71 295.107 1469.39 Q300.657 1463.07 310.419 1463.07 Z" fill="#000000" fill-rule="evenodd" fill-opacity="1" /><path clip-path="url(#clip480)" d="M 0 0 M376.773 1482.15 L376.773 1509.54 L369.319 1509.54 L369.319 1482.4 Q369.319 1475.96 366.808 1472.76 Q364.296 1469.56 359.273 1469.56 Q353.237 1469.56 349.754 1473.4 Q346.27 1477.25 346.27 1483.9 L346.27 1509.54 L338.776 1509.54 L338.776 1464.17 L346.27 1464.17 L346.27 1471.22 Q348.943 1467.12 352.549 1465.1 Q356.195 1463.07 360.934 1463.07 Q368.752 1463.07 372.763 1467.93 Q376.773 1472.76 376.773 1482.15 Z" fill="#000000" fill-rule="evenodd" fill-opacity="1" /><path clip-path="url(#clip480)" d="M 0 0 M384.591 1464.17 L392.045 1464.17 L392.045 1509.54 L384.591 1509.54 L384.591 1464.17 M384.591 1446.51 L392.045 1446.51 L392.045 1455.94 L384.591 1455.94 L384.591 1446.51 Z" fill="#000000" fill-rule="evenodd" fill-opacity="1" /><path clip-path="url(#clip480)" d="M 0 0 M437.577 1482.15 L437.577 1509.54 L430.124 1509.54 L430.124 1482.4 Q430.124 1475.96 427.612 1472.76 Q425.1 1469.56 420.077 1469.56 Q414.041 1469.56 410.558 1473.4 Q407.074 1477.25 407.074 1483.9 L407.074 1509.54 L399.58 1509.54 L399.58 1464.17 L407.074 1464.17 L407.074 1471.22 Q409.747 1467.12 413.353 1465.1 Q416.999 1463.07 421.738 1463.07 Q429.556 1463.07 433.567 1467.93 Q437.577 1472.76 437.577 1482.15 Z" fill="#000000" fill-rule="evenodd" fill-opacity="1" /><path clip-path="url(#clip480)" d="M 0 0 M475.251 1486.33 Q475.251 1478.22 471.888 1473.77 Q468.567 1469.31 462.531 1469.31 Q456.535 1469.31 453.173 1473.77 Q449.851 1478.22 449.851 1486.33 Q449.851 1494.39 453.173 1498.84 Q456.535 1503.3 462.531 1503.3 Q468.567 1503.3 471.888 1498.84 Q475.251 1494.39 475.251 1486.33 M482.704 1503.91 Q482.704 1515.49 477.56 1521.12 Q472.415 1526.79 461.802 1526.79 Q457.872 1526.79 454.388 1526.19 Q450.905 1525.62 447.623 1524.4 L447.623 1517.15 Q450.905 1518.94 454.105 1519.79 Q457.305 1520.64 460.627 1520.64 Q467.959 1520.64 471.605 1516.79 Q475.251 1512.98 475.251 1505.24 L475.251 1501.56 Q472.942 1505.57 469.336 1507.55 Q465.731 1509.54 460.708 1509.54 Q452.363 1509.54 447.259 1503.18 Q442.155 1496.82 442.155 1486.33 Q442.155 1475.79 447.259 1469.43 Q452.363 1463.07 460.708 1463.07 Q465.731 1463.07 469.336 1465.06 Q472.942 1467.04 475.251 1471.05 L475.251 1464.17 L482.704 1464.17 L482.704 1503.91 Z" fill="#000000" fill-rule="evenodd" fill-opacity="1" /><path clip-path="url(#clip480)" d="M 0 0 M1386.05 63.3729 L1386.05 72.0014 Q1381.92 68.153 1377.22 66.2491 Q1372.57 64.3451 1367.3 64.3451 Q1356.93 64.3451 1351.42 70.7051 Q1345.91 77.0245 1345.91 89.0152 Q1345.91 100.965 1351.42 107.325 Q1356.93 113.645 1367.3 113.645 Q1372.57 113.645 1377.22 111.741 Q1381.92 109.837 1386.05 105.988 L1386.05 114.536 Q1381.76 117.453 1376.94 118.911 Q1372.16 120.369 1366.81 120.369 Q1353.08 120.369 1345.18 111.984 Q1337.28 103.558 1337.28 89.0152 Q1337.28 74.4319 1345.18 66.0465 Q1353.08 57.6206 1366.81 57.6206 Q1372.24 57.6206 1377.02 59.079 Q1381.84 60.4968 1386.05 63.3729 Z" fill="#000000" fill-rule="evenodd" fill-opacity="1" /><path clip-path="url(#clip480)" d="M 0 0 M1411.45 79.0499 Q1405.46 79.0499 1401.97 83.749 Q1398.49 88.4075 1398.49 96.5498 Q1398.49 104.692 1401.93 109.391 Q1405.42 114.05 1411.45 114.05 Q1417.41 114.05 1420.89 109.351 Q1424.38 104.652 1424.38 96.5498 Q1424.38 88.4885 1420.89 83.7895 Q1417.41 79.0499 1411.45 79.0499 M1411.45 72.7305 Q1421.18 72.7305 1426.73 79.0499 Q1432.28 85.3693 1432.28 96.5498 Q1432.28 107.69 1426.73 114.05 Q1421.18 120.369 1411.45 120.369 Q1401.69 120.369 1396.14 114.05 Q1390.63 107.69 1390.63 96.5498 Q1390.63 85.3693 1396.14 79.0499 Q1401.69 72.7305 1411.45 72.7305 Z" fill="#000000" fill-rule="evenodd" fill-opacity="1" /><path clip-path="url(#clip480)" d="M 0 0 M1440.09 56.1623 L1447.55 56.1623 L1447.55 119.194 L1440.09 119.194 L1440.09 56.1623 Z" fill="#000000" fill-rule="evenodd" fill-opacity="1" /><path clip-path="url(#clip480)" d="M 0 0 M1455.37 56.1623 L1462.82 56.1623 L1462.82 119.194 L1455.37 119.194 L1455.37 56.1623 Z" fill="#000000" fill-rule="evenodd" fill-opacity="1" /><path clip-path="url(#clip480)" d="M 0 0 M1491.26 96.3878 Q1482.22 96.3878 1478.74 98.4538 Q1475.26 100.52 1475.26 105.502 Q1475.26 109.472 1477.85 111.822 Q1480.48 114.131 1484.98 114.131 Q1491.18 114.131 1494.9 109.756 Q1498.67 105.34 1498.67 98.0487 L1498.67 96.3878 L1491.26 96.3878 M1506.12 93.3091 L1506.12 119.194 L1498.67 119.194 L1498.67 112.308 Q1496.12 116.44 1492.31 118.425 Q1488.5 120.369 1482.99 120.369 Q1476.03 120.369 1471.89 116.48 Q1467.8 112.551 1467.8 105.988 Q1467.8 98.3322 1472.91 94.4434 Q1478.05 90.5545 1488.22 90.5545 L1498.67 90.5545 L1498.67 89.8253 Q1498.67 84.6807 1495.27 81.8856 Q1491.9 79.0499 1485.79 79.0499 Q1481.9 79.0499 1478.21 79.9816 Q1474.53 80.9133 1471.12 82.7768 L1471.12 75.8902 Q1475.22 74.3104 1479.06 73.5407 Q1482.91 72.7305 1486.56 72.7305 Q1496.4 72.7305 1501.26 77.8347 Q1506.12 82.9388 1506.12 93.3091 Z" fill="#000000" fill-rule="evenodd" fill-opacity="1" /><path clip-path="url(#clip480)" d="M 0 0 M1546.51 96.5498 Q1546.51 88.3265 1543.11 83.668 Q1539.75 78.9689 1533.83 78.9689 Q1527.92 78.9689 1524.51 83.668 Q1521.15 88.3265 1521.15 96.5498 Q1521.15 104.773 1524.51 109.472 Q1527.92 114.131 1533.83 114.131 Q1539.75 114.131 1543.11 109.472 Q1546.51 104.773 1546.51 96.5498 M1521.15 80.7108 Q1523.5 76.6599 1527.07 74.7155 Q1530.67 72.7305 1535.65 72.7305 Q1543.92 72.7305 1549.06 79.293 Q1554.25 85.8554 1554.25 96.5498 Q1554.25 107.244 1549.06 113.807 Q1543.92 120.369 1535.65 120.369 Q1530.67 120.369 1527.07 118.425 Q1523.5 116.44 1521.15 112.389 L1521.15 119.194 L1513.66 119.194 L1513.66 56.1623 L1521.15 56.1623 L1521.15 80.7108 Z" fill="#000000" fill-rule="evenodd" fill-opacity="1" /><path clip-path="url(#clip480)" d="M 0 0 M1579.65 79.0499 Q1573.65 79.0499 1570.17 83.749 Q1566.68 88.4075 1566.68 96.5498 Q1566.68 104.692 1570.13 109.391 Q1573.61 114.05 1579.65 114.05 Q1585.6 114.05 1589.09 109.351 Q1592.57 104.652 1592.57 96.5498 Q1592.57 88.4885 1589.09 83.7895 Q1585.6 79.0499 1579.65 79.0499 M1579.65 72.7305 Q1589.37 72.7305 1594.92 79.0499 Q1600.47 85.3693 1600.47 96.5498 Q1600.47 107.69 1594.92 114.05 Q1589.37 120.369 1579.65 120.369 Q1569.88 120.369 1564.33 114.05 Q1558.83 107.69 1558.83 96.5498 Q1558.83 85.3693 1564.33 79.0499 Q1569.88 72.7305 1579.65 72.7305 Z" fill="#000000" fill-rule="evenodd" fill-opacity="1" /><path clip-path="url(#clip480)" d="M 0 0 M1634.58 80.7918 Q1633.32 80.0627 1631.82 79.7386 Q1630.36 79.374 1628.58 79.374 Q1622.26 79.374 1618.86 83.5059 Q1615.5 87.5973 1615.5 95.2941 L1615.5 119.194 L1608 119.194 L1608 73.8243 L1615.5 73.8243 L1615.5 80.8728 Q1617.85 76.7409 1621.61 74.756 Q1625.38 72.7305 1630.77 72.7305 Q1631.54 72.7305 1632.47 72.852 Q1633.4 72.9331 1634.54 73.1356 L1634.58 80.7918 Z" fill="#000000" fill-rule="evenodd" fill-opacity="1" /><path clip-path="url(#clip480)" d="M 0 0 M1663.01 96.3878 Q1653.98 96.3878 1650.5 98.4538 Q1647.01 100.52 1647.01 105.502 Q1647.01 109.472 1649.61 111.822 Q1652.24 114.131 1656.74 114.131 Q1662.93 114.131 1666.66 109.756 Q1670.43 105.34 1670.43 98.0487 L1670.43 96.3878 L1663.01 96.3878 M1677.88 93.3091 L1677.88 119.194 L1670.43 119.194 L1670.43 112.308 Q1667.88 116.44 1664.07 118.425 Q1660.26 120.369 1654.75 120.369 Q1647.78 120.369 1643.65 116.48 Q1639.56 112.551 1639.56 105.988 Q1639.56 98.3322 1644.66 94.4434 Q1649.81 90.5545 1659.98 90.5545 L1670.43 90.5545 L1670.43 89.8253 Q1670.43 84.6807 1667.03 81.8856 Q1663.66 79.0499 1657.55 79.0499 Q1653.66 79.0499 1649.97 79.9816 Q1646.28 80.9133 1642.88 82.7768 L1642.88 75.8902 Q1646.97 74.3104 1650.82 73.5407 Q1654.67 72.7305 1658.32 72.7305 Q1668.16 72.7305 1673.02 77.8347 Q1677.88 82.9388 1677.88 93.3091 Z" fill="#000000" fill-rule="evenodd" fill-opacity="1" /><path clip-path="url(#clip480)" d="M 0 0 M1693.07 60.9424 L1693.07 73.8243 L1708.43 73.8243 L1708.43 79.6171 L1693.07 79.6171 L1693.07 104.247 Q1693.07 109.796 1694.57 111.376 Q1696.11 112.956 1700.77 112.956 L1708.43 112.956 L1708.43 119.194 L1700.77 119.194 Q1692.14 119.194 1688.86 115.994 Q1685.58 112.753 1685.58 104.247 L1685.58 79.6171 L1680.11 79.6171 L1680.11 73.8243 L1685.58 73.8243 L1685.58 60.9424 L1693.07 60.9424 Z" fill="#000000" fill-rule="evenodd" fill-opacity="1" /><path clip-path="url(#clip480)" d="M 0 0 M1716.24 73.8243 L1723.7 73.8243 L1723.7 119.194 L1716.24 119.194 L1716.24 73.8243 M1716.24 56.1623 L1723.7 56.1623 L1723.7 65.6009 L1716.24 65.6009 L1716.24 56.1623 Z" fill="#000000" fill-rule="evenodd" fill-opacity="1" /><path clip-path="url(#clip480)" d="M 0 0 M1749.1 79.0499 Q1743.1 79.0499 1739.62 83.749 Q1736.13 88.4075 1736.13 96.5498 Q1736.13 104.692 1739.58 109.391 Q1743.06 114.05 1749.1 114.05 Q1755.05 114.05 1758.54 109.351 Q1762.02 104.652 1762.02 96.5498 Q1762.02 88.4885 1758.54 83.7895 Q1755.05 79.0499 1749.1 79.0499 M1749.1 72.7305 Q1758.82 72.7305 1764.37 79.0499 Q1769.92 85.3693 1769.92 96.5498 Q1769.92 107.69 1764.37 114.05 Q1758.82 120.369 1749.1 120.369 Q1739.33 120.369 1733.78 114.05 Q1728.28 107.69 1728.28 96.5498 Q1728.28 85.3693 1733.78 79.0499 Q1739.33 72.7305 1749.1 72.7305 Z" fill="#000000" fill-rule="evenodd" fill-opacity="1" /><path clip-path="url(#clip480)" d="M 0 0 M1815.45 91.8103 L1815.45 119.194 L1808 119.194 L1808 92.0533 Q1808 85.6124 1805.49 82.4122 Q1802.97 79.212 1797.95 79.212 Q1791.91 79.212 1788.43 83.0603 Q1784.95 86.9087 1784.95 93.5522 L1784.95 119.194 L1777.45 119.194 L1777.45 73.8243 L1784.95 73.8243 L1784.95 80.8728 Q1787.62 76.7814 1791.23 74.756 Q1794.87 72.7305 1799.61 72.7305 Q1807.43 72.7305 1811.44 77.5916 Q1815.45 82.4122 1815.45 91.8103 Z" fill="#000000" fill-rule="evenodd" fill-opacity="1" /><path clip-path="url(#clip482)" d="M1047.08 1053.27 L1015.08 1053.27 L1031.08 1085.27 L1047.08 1053.27 Z" fill="#800080" fill-rule="evenodd" fill-opacity="1" stroke="none"/>
<polyline clip-path="url(#clip482)" style="stroke:#800080; stroke-width:4; stroke-opacity:1; fill:none" stroke-dasharray="16, 10" points="
  964.124,1105.31 1098.04,1105.31 
  "/>
<polyline clip-path="url(#clip482)" style="stroke:#800080; stroke-width:4; stroke-opacity:1; fill:none" stroke-dasharray="16, 10" points="
  964.124,1033.24 1098.04,1033.24 
  "/>
<polyline clip-path="url(#clip482)" style="stroke:#800080; stroke-width:4; stroke-opacity:1; fill:none" stroke-dasharray="16, 10" points="
  964.124,1105.31 964.124,1033.24 
  "/>
<polyline clip-path="url(#clip482)" style="stroke:#800080; stroke-width:4; stroke-opacity:1; fill:none" stroke-dasharray="16, 10" points="
  1098.04,1105.31 1098.04,1033.24 
  "/>
<path clip-path="url(#clip482)" d="M1012.26 1131.26 L996.26 1163.26 L1028.26 1163.26 L1012.26 1131.26 Z" fill="#800080" fill-rule="evenodd" fill-opacity="1" stroke="none"/>
<polyline clip-path="url(#clip482)" style="stroke:#800080; stroke-width:4; stroke-opacity:1; fill:none" stroke-dasharray="16, 10" points="
  983.369,1167.1 1041.15,1167.1 
  "/>
<polyline clip-path="url(#clip482)" style="stroke:#800080; stroke-width:4; stroke-opacity:1; fill:none" stroke-dasharray="16, 10" points="
  983.369,1127.42 1041.15,1127.42 
  "/>
<polyline clip-path="url(#clip482)" style="stroke:#800080; stroke-width:4; stroke-opacity:1; fill:none" stroke-dasharray="16, 10" points="
  983.369,1167.1 983.369,1127.42 
  "/>
<polyline clip-path="url(#clip482)" style="stroke:#800080; stroke-width:4; stroke-opacity:1; fill:none" stroke-dasharray="16, 10" points="
  1041.15,1167.1 1041.15,1127.42 
  "/>
<path clip-path="url(#clip482)" d="M1116.46 1044.26 L1084.46 1044.26 L1100.46 1076.26 L1116.46 1044.26 Z" fill="#ffa500" fill-rule="evenodd" fill-opacity="1" stroke="none"/>
<polyline clip-path="url(#clip482)" style="stroke:#ffa500; stroke-width:4; stroke-opacity:1; fill:none" stroke-dasharray="16, 10" points="
  1069.82,1091.53 1131.11,1091.53 
  "/>
<polyline clip-path="url(#clip482)" style="stroke:#ffa500; stroke-width:4; stroke-opacity:1; fill:none" stroke-dasharray="16, 10" points="
  1069.82,1028.99 1131.11,1028.99 
  "/>
<polyline clip-path="url(#clip482)" style="stroke:#ffa500; stroke-width:4; stroke-opacity:1; fill:none" stroke-dasharray="16, 10" points="
  1069.82,1091.53 1069.82,1028.99 
  "/>
<polyline clip-path="url(#clip482)" style="stroke:#ffa500; stroke-width:4; stroke-opacity:1; fill:none" stroke-dasharray="16, 10" points="
  1131.11,1091.53 1131.11,1028.99 
  "/>
<path clip-path="url(#clip482)" d="M1104.4 1121.58 L1088.4 1153.58 L1120.4 1153.58 L1104.4 1121.58 Z" fill="#ffa500" fill-rule="evenodd" fill-opacity="1" stroke="none"/>
<polyline clip-path="url(#clip482)" style="stroke:#ffa500; stroke-width:4; stroke-opacity:1; fill:none" stroke-dasharray="16, 10" points="
  1070.56,1175.83 1138.24,1175.83 
  "/>
<polyline clip-path="url(#clip482)" style="stroke:#ffa500; stroke-width:4; stroke-opacity:1; fill:none" stroke-dasharray="16, 10" points="
  1070.56,1099.32 1138.24,1099.32 
  "/>
<polyline clip-path="url(#clip482)" style="stroke:#ffa500; stroke-width:4; stroke-opacity:1; fill:none" stroke-dasharray="16, 10" points="
  1070.56,1175.83 1070.56,1099.32 
  "/>
<polyline clip-path="url(#clip482)" style="stroke:#ffa500; stroke-width:4; stroke-opacity:1; fill:none" stroke-dasharray="16, 10" points="
  1138.24,1175.83 1138.24,1099.32 
  "/>
<path clip-path="url(#clip482)" d="M1006.08 1090.57 L1006.08 1122.57 L1038.08 1122.57 L1038.08 1090.57 L1006.08 1090.57 Z" fill="#800080" fill-rule="evenodd" fill-opacity="1" stroke="none"/>
<polyline clip-path="url(#clip482)" style="stroke:#800080; stroke-width:4; stroke-opacity:1; fill:none" stroke-dasharray="16, 10" points="
  985.803,1129.97 1058.36,1129.97 
  "/>
<polyline clip-path="url(#clip482)" style="stroke:#800080; stroke-width:4; stroke-opacity:1; fill:none" stroke-dasharray="16, 10" points="
  985.803,1083.17 1058.36,1083.17 
  "/>
<polyline clip-path="url(#clip482)" style="stroke:#800080; stroke-width:4; stroke-opacity:1; fill:none" stroke-dasharray="16, 10" points="
  985.803,1129.97 985.803,1083.17 
  "/>
<polyline clip-path="url(#clip482)" style="stroke:#800080; stroke-width:4; stroke-opacity:1; fill:none" stroke-dasharray="16, 10" points="
  1058.36,1129.97 1058.36,1083.17 
  "/>
<path clip-path="url(#clip482)" d="M1086.27 1079.7 L1086.27 1111.7 L1118.27 1111.7 L1118.27 1079.7 L1086.27 1079.7 Z" fill="#ffa500" fill-rule="evenodd" fill-opacity="1" stroke="none"/>
<polyline clip-path="url(#clip482)" style="stroke:#ffa500; stroke-width:4; stroke-opacity:1; fill:none" stroke-dasharray="16, 10" points="
  1080.41,1121.72 1124.13,1121.72 
  "/>
<polyline clip-path="url(#clip482)" style="stroke:#ffa500; stroke-width:4; stroke-opacity:1; fill:none" stroke-dasharray="16, 10" points="
  1080.41,1069.68 1124.13,1069.68 
  "/>
<polyline clip-path="url(#clip482)" style="stroke:#ffa500; stroke-width:4; stroke-opacity:1; fill:none" stroke-dasharray="16, 10" points="
  1080.41,1121.72 1080.41,1069.68 
  "/>
<polyline clip-path="url(#clip482)" style="stroke:#ffa500; stroke-width:4; stroke-opacity:1; fill:none" stroke-dasharray="16, 10" points="
  1124.13,1121.72 1124.13,1069.68 
  "/>
</svg>
