<?xml version="1.0" encoding="utf-8"?>
<svg xmlns="http://www.w3.org/2000/svg" xmlns:xlink="http://www.w3.org/1999/xlink" width="600" height="400" viewBox="0 0 2400 1600">
<defs>
  <clipPath id="clip090">
    <rect x="0" y="0" width="2400" height="1600"/>
  </clipPath>
</defs>
<path clip-path="url(#clip090)" d="
M0 1600 L2400 1600 L2400 0 L0 0  Z
  " fill="#ffffff" fill-rule="evenodd" fill-opacity="1"/>
<defs>
  <clipPath id="clip091">
    <rect x="480" y="0" width="1681" height="1600"/>
  </clipPath>
</defs>
<path clip-path="url(#clip090)" d="
M86.9921 1521.01 L2352.76 1521.01 L2352.76 47.2441 L86.9921 47.2441  Z
  " fill="#ffffff" fill-rule="evenodd" fill-opacity="1"/>
<defs>
  <clipPath id="clip092">
    <rect x="86" y="47" width="2267" height="1475"/>
  </clipPath>
</defs>
<polyline clip-path="url(#clip092)" style="stroke:#000000; stroke-width:2; stroke-opacity:0.1; fill:none" points="
  1416.7,1521.01 1416.7,47.2441 
  "/>
<polyline clip-path="url(#clip092)" style="stroke:#000000; stroke-width:2; stroke-opacity:0.1; fill:none" points="
  86.9921,721.396 2352.76,721.396 
  "/>
<polyline clip-path="url(#clip090)" style="stroke:#000000; stroke-width:4; stroke-opacity:1; fill:none" points="
  86.9921,1521.01 2352.76,1521.01 
  "/>
<polyline clip-path="url(#clip090)" style="stroke:#000000; stroke-width:4; stroke-opacity:1; fill:none" points="
  86.9921,1521.01 86.9921,47.2441 
  "/>
<polyline clip-path="url(#clip090)" style="stroke:#000000; stroke-width:4; stroke-opacity:1; fill:none" points="
  1416.7,1521.01 1416.7,1503.32 
  "/>
<polyline clip-path="url(#clip090)" style="stroke:#000000; stroke-width:4; stroke-opacity:1; fill:none" points="
  86.9921,721.396 114.181,721.396 
  "/>
<path clip-path="url(#clip090)" d="M 0 0 M1416.7 1543 Q1413.09 1543 1411.26 1546.56 Q1409.45 1550.11 1409.45 1557.23 Q1409.45 1564.34 1411.26 1567.91 Q1413.09 1571.45 1416.7 1571.45 Q1420.33 1571.45 1422.14 1567.91 Q1423.97 1564.34 1423.97 1557.23 Q1423.97 1550.11 1422.14 1546.56 Q1420.33 1543 1416.7 1543 M1416.7 1539.29 Q1422.51 1539.29 1425.56 1543.9 Q1428.64 1548.48 1428.64 1557.23 Q1428.64 1565.96 1425.56 1570.57 Q1422.51 1575.15 1416.7 1575.15 Q1410.89 1575.15 1407.81 1570.57 Q1404.75 1565.96 1404.75 1557.23 Q1404.75 1548.48 1407.81 1543.9 Q1410.89 1539.29 1416.7 1539.29 Z" fill="#000000" fill-rule="evenodd" fill-opacity="1" /><path clip-path="url(#clip090)" d="M 0 0 M51.0477 707.194 Q47.4367 707.194 45.608 710.759 Q43.8024 714.301 43.8024 721.43 Q43.8024 728.537 45.608 732.102 Q47.4367 735.643 51.0477 735.643 Q54.682 735.643 56.4875 732.102 Q58.3162 728.537 58.3162 721.43 Q58.3162 714.301 56.4875 710.759 Q54.682 707.194 51.0477 707.194 M51.0477 703.491 Q56.8579 703.491 59.9134 708.097 Q62.9921 712.68 62.9921 721.43 Q62.9921 730.157 59.9134 734.764 Q56.8579 739.347 51.0477 739.347 Q45.2376 739.347 42.1589 734.764 Q39.1034 730.157 39.1034 721.43 Q39.1034 712.68 42.1589 708.097 Q45.2376 703.491 51.0477 703.491 Z" fill="#000000" fill-rule="evenodd" fill-opacity="1" /><circle clip-path="url(#clip092)" cx="1428.76" cy="814.686" r="14" fill="#808080" fill-rule="evenodd" fill-opacity="1" stroke="none"/>
<circle clip-path="url(#clip092)" cx="1369.55" cy="767.264" r="14" fill="#808080" fill-rule="evenodd" fill-opacity="1" stroke="none"/>
<circle clip-path="url(#clip092)" cx="1376.23" cy="705.814" r="14" fill="#808080" fill-rule="evenodd" fill-opacity="1" stroke="none"/>
<circle clip-path="url(#clip092)" cx="1401.56" cy="742.578" r="14" fill="#808080" fill-rule="evenodd" fill-opacity="1" stroke="none"/>
<circle clip-path="url(#clip092)" cx="1358.97" cy="682.423" r="14" fill="#808080" fill-rule="evenodd" fill-opacity="1" stroke="none"/>
<circle clip-path="url(#clip092)" cx="1017.47" cy="668.792" r="14" fill="#808080" fill-rule="evenodd" fill-opacity="1" stroke="none"/>
<circle clip-path="url(#clip092)" cx="1349.33" cy="677.036" r="14" fill="#808080" fill-rule="evenodd" fill-opacity="1" stroke="none"/>
<circle clip-path="url(#clip092)" cx="1424.06" cy="684.649" r="14" fill="#808080" fill-rule="evenodd" fill-opacity="1" stroke="none"/>
<circle clip-path="url(#clip092)" cx="1391.48" cy="696.781" r="14" fill="#808080" fill-rule="evenodd" fill-opacity="1" stroke="none"/>
<circle clip-path="url(#clip092)" cx="1256.51" cy="356.917" r="14" fill="#808080" fill-rule="evenodd" fill-opacity="1" stroke="none"/>
<circle clip-path="url(#clip092)" cx="1445.54" cy="779.086" r="14" fill="#808080" fill-rule="evenodd" fill-opacity="1" stroke="none"/>
<circle clip-path="url(#clip092)" cx="1335.77" cy="708.051" r="14" fill="#808080" fill-rule="evenodd" fill-opacity="1" stroke="none"/>
<circle clip-path="url(#clip092)" cx="1408.27" cy="731.582" r="14" fill="#808080" fill-rule="evenodd" fill-opacity="1" stroke="none"/>
<circle clip-path="url(#clip092)" cx="1383.79" cy="815.693" r="14" fill="#808080" fill-rule="evenodd" fill-opacity="1" stroke="none"/>
<circle clip-path="url(#clip092)" cx="1325.78" cy="821.939" r="14" fill="#808080" fill-rule="evenodd" fill-opacity="1" stroke="none"/>
<circle clip-path="url(#clip092)" cx="1372.71" cy="802.105" r="14" fill="#808080" fill-rule="evenodd" fill-opacity="1" stroke="none"/>
<circle clip-path="url(#clip092)" cx="1369.64" cy="844.292" r="14" fill="#808080" fill-rule="evenodd" fill-opacity="1" stroke="none"/>
<circle clip-path="url(#clip092)" cx="1396.72" cy="760.598" r="14" fill="#808080" fill-rule="evenodd" fill-opacity="1" stroke="none"/>
<circle clip-path="url(#clip092)" cx="1278.36" cy="870.671" r="14" fill="#808080" fill-rule="evenodd" fill-opacity="1" stroke="none"/>
<circle clip-path="url(#clip092)" cx="1542.41" cy="758.651" r="14" fill="#808080" fill-rule="evenodd" fill-opacity="1" stroke="none"/>
<circle clip-path="url(#clip092)" cx="1535.71" cy="829.025" r="14" fill="#808080" fill-rule="evenodd" fill-opacity="1" stroke="none"/>
<circle clip-path="url(#clip092)" cx="1532.41" cy="782.159" r="14" fill="#808080" fill-rule="evenodd" fill-opacity="1" stroke="none"/>
<circle clip-path="url(#clip092)" cx="1494.17" cy="728.923" r="14" fill="#808080" fill-rule="evenodd" fill-opacity="1" stroke="none"/>
<circle clip-path="url(#clip092)" cx="1502.59" cy="813.355" r="14" fill="#808080" fill-rule="evenodd" fill-opacity="1" stroke="none"/>
<circle clip-path="url(#clip092)" cx="1319.26" cy="779.223" r="14" fill="#808080" fill-rule="evenodd" fill-opacity="1" stroke="none"/>
<circle clip-path="url(#clip092)" cx="1373.84" cy="732.978" r="14" fill="#808080" fill-rule="evenodd" fill-opacity="1" stroke="none"/>
<circle clip-path="url(#clip092)" cx="1207.26" cy="869.852" r="14" fill="#808080" fill-rule="evenodd" fill-opacity="1" stroke="none"/>
<circle clip-path="url(#clip092)" cx="1379.23" cy="867.178" r="14" fill="#808080" fill-rule="evenodd" fill-opacity="1" stroke="none"/>
<circle clip-path="url(#clip092)" cx="1400.41" cy="731.018" r="14" fill="#808080" fill-rule="evenodd" fill-opacity="1" stroke="none"/>
<circle clip-path="url(#clip092)" cx="1447.72" cy="875.179" r="14" fill="#808080" fill-rule="evenodd" fill-opacity="1" stroke="none"/>
<circle clip-path="url(#clip092)" cx="1348.47" cy="788.203" r="14" fill="#808080" fill-rule="evenodd" fill-opacity="1" stroke="none"/>
<circle clip-path="url(#clip092)" cx="1409.15" cy="844.797" r="14" fill="#808080" fill-rule="evenodd" fill-opacity="1" stroke="none"/>
<circle clip-path="url(#clip092)" cx="1339.71" cy="664.072" r="14" fill="#808080" fill-rule="evenodd" fill-opacity="1" stroke="none"/>
<circle clip-path="url(#clip092)" cx="1294.02" cy="719.924" r="14" fill="#808080" fill-rule="evenodd" fill-opacity="1" stroke="none"/>
<circle clip-path="url(#clip092)" cx="1517.91" cy="758.588" r="14" fill="#808080" fill-rule="evenodd" fill-opacity="1" stroke="none"/>
<circle clip-path="url(#clip092)" cx="1411.22" cy="629.666" r="14" fill="#808080" fill-rule="evenodd" fill-opacity="1" stroke="none"/>
<circle clip-path="url(#clip092)" cx="1492.51" cy="628.506" r="14" fill="#808080" fill-rule="evenodd" fill-opacity="1" stroke="none"/>
<circle clip-path="url(#clip092)" cx="1611.88" cy="670.853" r="14" fill="#808080" fill-rule="evenodd" fill-opacity="1" stroke="none"/>
<circle clip-path="url(#clip092)" cx="1372.05" cy="642.176" r="14" fill="#808080" fill-rule="evenodd" fill-opacity="1" stroke="none"/>
<circle clip-path="url(#clip092)" cx="1574.93" cy="689.658" r="14" fill="#808080" fill-rule="evenodd" fill-opacity="1" stroke="none"/>
<circle clip-path="url(#clip092)" cx="1300.83" cy="792.8" r="14" fill="#808080" fill-rule="evenodd" fill-opacity="1" stroke="none"/>
<circle clip-path="url(#clip092)" cx="1335.89" cy="715.347" r="14" fill="#808080" fill-rule="evenodd" fill-opacity="1" stroke="none"/>
<circle clip-path="url(#clip092)" cx="1217.09" cy="681.033" r="14" fill="#808080" fill-rule="evenodd" fill-opacity="1" stroke="none"/>
<circle clip-path="url(#clip092)" cx="1123.38" cy="665.867" r="14" fill="#808080" fill-rule="evenodd" fill-opacity="1" stroke="none"/>
<circle clip-path="url(#clip092)" cx="1081.86" cy="840.262" r="14" fill="#808080" fill-rule="evenodd" fill-opacity="1" stroke="none"/>
<circle clip-path="url(#clip092)" cx="1337.82" cy="702.587" r="14" fill="#808080" fill-rule="evenodd" fill-opacity="1" stroke="none"/>
<circle clip-path="url(#clip092)" cx="1288.39" cy="778.34" r="14" fill="#808080" fill-rule="evenodd" fill-opacity="1" stroke="none"/>
<circle clip-path="url(#clip092)" cx="1313.74" cy="641.943" r="14" fill="#808080" fill-rule="evenodd" fill-opacity="1" stroke="none"/>
<circle clip-path="url(#clip092)" cx="1305.41" cy="765.005" r="14" fill="#808080" fill-rule="evenodd" fill-opacity="1" stroke="none"/>
<circle clip-path="url(#clip092)" cx="1285.03" cy="690.097" r="14" fill="#808080" fill-rule="evenodd" fill-opacity="1" stroke="none"/>
<circle clip-path="url(#clip092)" cx="1321.1" cy="916.795" r="14" fill="#808080" fill-rule="evenodd" fill-opacity="1" stroke="none"/>
<circle clip-path="url(#clip092)" cx="1347.12" cy="917.51" r="14" fill="#808080" fill-rule="evenodd" fill-opacity="1" stroke="none"/>
<circle clip-path="url(#clip092)" cx="1517.58" cy="757.588" r="14" fill="#808080" fill-rule="evenodd" fill-opacity="1" stroke="none"/>
<circle clip-path="url(#clip092)" cx="1386.05" cy="885.98" r="14" fill="#808080" fill-rule="evenodd" fill-opacity="1" stroke="none"/>
<circle clip-path="url(#clip092)" cx="1614.74" cy="722.982" r="14" fill="#808080" fill-rule="evenodd" fill-opacity="1" stroke="none"/>
<circle clip-path="url(#clip092)" cx="1455.94" cy="826.197" r="14" fill="#808080" fill-rule="evenodd" fill-opacity="1" stroke="none"/>
<circle clip-path="url(#clip092)" cx="1494.99" cy="831.571" r="14" fill="#808080" fill-rule="evenodd" fill-opacity="1" stroke="none"/>
<circle clip-path="url(#clip092)" cx="1491.72" cy="774.711" r="14" fill="#808080" fill-rule="evenodd" fill-opacity="1" stroke="none"/>
<circle clip-path="url(#clip092)" cx="1512.15" cy="775.535" r="14" fill="#808080" fill-rule="evenodd" fill-opacity="1" stroke="none"/>
<circle clip-path="url(#clip092)" cx="1436.77" cy="799.88" r="14" fill="#808080" fill-rule="evenodd" fill-opacity="1" stroke="none"/>
<circle clip-path="url(#clip092)" cx="1500" cy="846.618" r="14" fill="#808080" fill-rule="evenodd" fill-opacity="1" stroke="none"/>
<circle clip-path="url(#clip092)" cx="1488.5" cy="784.66" r="14" fill="#808080" fill-rule="evenodd" fill-opacity="1" stroke="none"/>
<circle clip-path="url(#clip092)" cx="1422.28" cy="832.806" r="14" fill="#808080" fill-rule="evenodd" fill-opacity="1" stroke="none"/>
<circle clip-path="url(#clip092)" cx="1504.09" cy="830.614" r="14" fill="#808080" fill-rule="evenodd" fill-opacity="1" stroke="none"/>
<circle clip-path="url(#clip092)" cx="1554.56" cy="791.182" r="14" fill="#808080" fill-rule="evenodd" fill-opacity="1" stroke="none"/>
<circle clip-path="url(#clip092)" cx="1521.44" cy="842.073" r="14" fill="#808080" fill-rule="evenodd" fill-opacity="1" stroke="none"/>
<circle clip-path="url(#clip092)" cx="1546.25" cy="816.717" r="14" fill="#808080" fill-rule="evenodd" fill-opacity="1" stroke="none"/>
<circle clip-path="url(#clip092)" cx="1511.91" cy="818.175" r="14" fill="#808080" fill-rule="evenodd" fill-opacity="1" stroke="none"/>
<circle clip-path="url(#clip092)" cx="1560.03" cy="708.726" r="14" fill="#808080" fill-rule="evenodd" fill-opacity="1" stroke="none"/>
<circle clip-path="url(#clip092)" cx="1457.24" cy="777.441" r="14" fill="#808080" fill-rule="evenodd" fill-opacity="1" stroke="none"/>
<circle clip-path="url(#clip092)" cx="1525.3" cy="740.351" r="14" fill="#808080" fill-rule="evenodd" fill-opacity="1" stroke="none"/>
<circle clip-path="url(#clip092)" cx="1612.77" cy="674.718" r="14" fill="#808080" fill-rule="evenodd" fill-opacity="1" stroke="none"/>
<circle clip-path="url(#clip092)" cx="1629.15" cy="744.653" r="14" fill="#808080" fill-rule="evenodd" fill-opacity="1" stroke="none"/>
<circle clip-path="url(#clip092)" cx="1567.43" cy="751.762" r="14" fill="#808080" fill-rule="evenodd" fill-opacity="1" stroke="none"/>
<circle clip-path="url(#clip092)" cx="1536.12" cy="686.085" r="14" fill="#808080" fill-rule="evenodd" fill-opacity="1" stroke="none"/>
<circle clip-path="url(#clip092)" cx="1535.69" cy="753.76" r="14" fill="#808080" fill-rule="evenodd" fill-opacity="1" stroke="none"/>
<circle clip-path="url(#clip092)" cx="1524.47" cy="621.308" r="14" fill="#808080" fill-rule="evenodd" fill-opacity="1" stroke="none"/>
<circle clip-path="url(#clip092)" cx="1507.58" cy="797.42" r="14" fill="#808080" fill-rule="evenodd" fill-opacity="1" stroke="none"/>
<circle clip-path="url(#clip092)" cx="1481.76" cy="699.271" r="14" fill="#808080" fill-rule="evenodd" fill-opacity="1" stroke="none"/>
<circle clip-path="url(#clip092)" cx="1654.9" cy="702.094" r="14" fill="#808080" fill-rule="evenodd" fill-opacity="1" stroke="none"/>
<circle clip-path="url(#clip092)" cx="1516.03" cy="700.941" r="14" fill="#808080" fill-rule="evenodd" fill-opacity="1" stroke="none"/>
<circle clip-path="url(#clip092)" cx="1703.68" cy="581.93" r="14" fill="#808080" fill-rule="evenodd" fill-opacity="1" stroke="none"/>
<circle clip-path="url(#clip092)" cx="1592.65" cy="744.308" r="14" fill="#808080" fill-rule="evenodd" fill-opacity="1" stroke="none"/>
<circle clip-path="url(#clip092)" cx="1544.1" cy="824.675" r="14" fill="#808080" fill-rule="evenodd" fill-opacity="1" stroke="none"/>
<circle clip-path="url(#clip092)" cx="1590.33" cy="727.749" r="14" fill="#808080" fill-rule="evenodd" fill-opacity="1" stroke="none"/>
<circle clip-path="url(#clip092)" cx="1469.19" cy="596.405" r="14" fill="#808080" fill-rule="evenodd" fill-opacity="1" stroke="none"/>
<circle clip-path="url(#clip092)" cx="1477.68" cy="546.89" r="14" fill="#808080" fill-rule="evenodd" fill-opacity="1" stroke="none"/>
<circle clip-path="url(#clip092)" cx="1468.91" cy="570.806" r="14" fill="#808080" fill-rule="evenodd" fill-opacity="1" stroke="none"/>
<circle clip-path="url(#clip092)" cx="1538.14" cy="524.437" r="14" fill="#808080" fill-rule="evenodd" fill-opacity="1" stroke="none"/>
<circle clip-path="url(#clip092)" cx="1611.1" cy="556.808" r="14" fill="#808080" fill-rule="evenodd" fill-opacity="1" stroke="none"/>
<circle clip-path="url(#clip092)" cx="1339.57" cy="640.107" r="14" fill="#808080" fill-rule="evenodd" fill-opacity="1" stroke="none"/>
<circle clip-path="url(#clip092)" cx="1290.36" cy="775.042" r="14" fill="#808080" fill-rule="evenodd" fill-opacity="1" stroke="none"/>
<circle clip-path="url(#clip092)" cx="1207.23" cy="652.585" r="14" fill="#808080" fill-rule="evenodd" fill-opacity="1" stroke="none"/>
<circle clip-path="url(#clip092)" cx="1284.36" cy="695.368" r="14" fill="#808080" fill-rule="evenodd" fill-opacity="1" stroke="none"/>
<circle clip-path="url(#clip092)" cx="1422.97" cy="781.68" r="14" fill="#800080" fill-rule="evenodd" fill-opacity="1" stroke="none"/>
<circle clip-path="url(#clip092)" cx="1363.75" cy="748.668" r="14" fill="#800080" fill-rule="evenodd" fill-opacity="1" stroke="none"/>
<circle clip-path="url(#clip092)" cx="1357.09" cy="703.75" r="14" fill="#800080" fill-rule="evenodd" fill-opacity="1" stroke="none"/>
<circle clip-path="url(#clip092)" cx="1396.74" cy="722.491" r="14" fill="#800080" fill-rule="evenodd" fill-opacity="1" stroke="none"/>
<circle clip-path="url(#clip092)" cx="1344.09" cy="679.772" r="14" fill="#800080" fill-rule="evenodd" fill-opacity="1" stroke="none"/>
<circle clip-path="url(#clip092)" cx="1004.18" cy="689.128" r="14" fill="#800080" fill-rule="evenodd" fill-opacity="1" stroke="none"/>
<circle clip-path="url(#clip092)" cx="1337.42" cy="655.604" r="14" fill="#800080" fill-rule="evenodd" fill-opacity="1" stroke="none"/>
<circle clip-path="url(#clip092)" cx="1436.15" cy="679.777" r="14" fill="#800080" fill-rule="evenodd" fill-opacity="1" stroke="none"/>
<circle clip-path="url(#clip092)" cx="1384.82" cy="676.096" r="14" fill="#800080" fill-rule="evenodd" fill-opacity="1" stroke="none"/>
<circle clip-path="url(#clip092)" cx="1218.56" cy="165.38" r="14" fill="#800080" fill-rule="evenodd" fill-opacity="1" stroke="none"/>
<circle clip-path="url(#clip092)" cx="1448.53" cy="740.342" r="14" fill="#800080" fill-rule="evenodd" fill-opacity="1" stroke="none"/>
<circle clip-path="url(#clip092)" cx="1334.23" cy="689.42" r="14" fill="#800080" fill-rule="evenodd" fill-opacity="1" stroke="none"/>
<circle clip-path="url(#clip092)" cx="1400.48" cy="713.967" r="14" fill="#800080" fill-rule="evenodd" fill-opacity="1" stroke="none"/>
<circle clip-path="url(#clip092)" cx="1371.51" cy="795.882" r="14" fill="#800080" fill-rule="evenodd" fill-opacity="1" stroke="none"/>
<circle clip-path="url(#clip092)" cx="1313.87" cy="783.458" r="14" fill="#800080" fill-rule="evenodd" fill-opacity="1" stroke="none"/>
<circle clip-path="url(#clip092)" cx="1377.83" cy="786.993" r="14" fill="#800080" fill-rule="evenodd" fill-opacity="1" stroke="none"/>
<circle clip-path="url(#clip092)" cx="1351.45" cy="829.455" r="14" fill="#800080" fill-rule="evenodd" fill-opacity="1" stroke="none"/>
<circle clip-path="url(#clip092)" cx="1367.29" cy="722.744" r="14" fill="#800080" fill-rule="evenodd" fill-opacity="1" stroke="none"/>
<circle clip-path="url(#clip092)" cx="1268.21" cy="906.254" r="14" fill="#800080" fill-rule="evenodd" fill-opacity="1" stroke="none"/>
<circle clip-path="url(#clip092)" cx="1518.56" cy="719.354" r="14" fill="#800080" fill-rule="evenodd" fill-opacity="1" stroke="none"/>
<circle clip-path="url(#clip092)" cx="1536.85" cy="812.302" r="14" fill="#800080" fill-rule="evenodd" fill-opacity="1" stroke="none"/>
<circle clip-path="url(#clip092)" cx="1490.84" cy="741.163" r="14" fill="#800080" fill-rule="evenodd" fill-opacity="1" stroke="none"/>
<circle clip-path="url(#clip092)" cx="1451.26" cy="710.073" r="14" fill="#800080" fill-rule="evenodd" fill-opacity="1" stroke="none"/>
<circle clip-path="url(#clip092)" cx="1506.91" cy="749.781" r="14" fill="#800080" fill-rule="evenodd" fill-opacity="1" stroke="none"/>
<circle clip-path="url(#clip092)" cx="1317.96" cy="740.683" r="14" fill="#ffa500" fill-rule="evenodd" fill-opacity="1" stroke="none"/>
<circle clip-path="url(#clip092)" cx="1360.22" cy="706.062" r="14" fill="#ffa500" fill-rule="evenodd" fill-opacity="1" stroke="none"/>
<circle clip-path="url(#clip092)" cx="1220.47" cy="845.499" r="14" fill="#ffa500" fill-rule="evenodd" fill-opacity="1" stroke="none"/>
<circle clip-path="url(#clip092)" cx="1348.17" cy="824.621" r="14" fill="#ffa500" fill-rule="evenodd" fill-opacity="1" stroke="none"/>
<circle clip-path="url(#clip092)" cx="1385.2" cy="692.172" r="14" fill="#ffa500" fill-rule="evenodd" fill-opacity="1" stroke="none"/>
<circle clip-path="url(#clip092)" cx="1434.22" cy="852.203" r="14" fill="#ffa500" fill-rule="evenodd" fill-opacity="1" stroke="none"/>
<circle clip-path="url(#clip092)" cx="1334.63" cy="771.812" r="14" fill="#ffa500" fill-rule="evenodd" fill-opacity="1" stroke="none"/>
<circle clip-path="url(#clip092)" cx="1405.94" cy="813.742" r="14" fill="#ffa500" fill-rule="evenodd" fill-opacity="1" stroke="none"/>
<circle clip-path="url(#clip092)" cx="1335.67" cy="652.348" r="14" fill="#ffa500" fill-rule="evenodd" fill-opacity="1" stroke="none"/>
<circle clip-path="url(#clip092)" cx="1269.19" cy="709.216" r="14" fill="#ffa500" fill-rule="evenodd" fill-opacity="1" stroke="none"/>
<circle clip-path="url(#clip092)" cx="1506.74" cy="757.867" r="14" fill="#ffa500" fill-rule="evenodd" fill-opacity="1" stroke="none"/>
<circle clip-path="url(#clip092)" cx="1375.71" cy="651.641" r="14" fill="#ffa500" fill-rule="evenodd" fill-opacity="1" stroke="none"/>
<circle clip-path="url(#clip092)" cx="1464.05" cy="641.034" r="14" fill="#ffa500" fill-rule="evenodd" fill-opacity="1" stroke="none"/>
<circle clip-path="url(#clip092)" cx="1585.52" cy="660.618" r="14" fill="#ffa500" fill-rule="evenodd" fill-opacity="1" stroke="none"/>
<circle clip-path="url(#clip092)" cx="1340.9" cy="663.441" r="14" fill="#ffa500" fill-rule="evenodd" fill-opacity="1" stroke="none"/>
<circle clip-path="url(#clip092)" cx="1545.27" cy="687.207" r="14" fill="#ffa500" fill-rule="evenodd" fill-opacity="1" stroke="none"/>
<circle clip-path="url(#clip092)" cx="1297.06" cy="771.343" r="14" fill="#ffa500" fill-rule="evenodd" fill-opacity="1" stroke="none"/>
<circle clip-path="url(#clip092)" cx="1316.67" cy="701.92" r="14" fill="#ffa500" fill-rule="evenodd" fill-opacity="1" stroke="none"/>
<circle clip-path="url(#clip092)" cx="1215.92" cy="693.936" r="14" fill="#ffa500" fill-rule="evenodd" fill-opacity="1" stroke="none"/>
<circle clip-path="url(#clip092)" cx="1152.4" cy="657.695" r="14" fill="#ffa500" fill-rule="evenodd" fill-opacity="1" stroke="none"/>
<circle clip-path="url(#clip092)" cx="1061.38" cy="839.665" r="14" fill="#ffa500" fill-rule="evenodd" fill-opacity="1" stroke="none"/>
<circle clip-path="url(#clip092)" cx="1323.07" cy="694.48" r="14" fill="#ffa500" fill-rule="evenodd" fill-opacity="1" stroke="none"/>
<circle clip-path="url(#clip092)" cx="1279" cy="761.013" r="14" fill="#ffa500" fill-rule="evenodd" fill-opacity="1" stroke="none"/>
<circle clip-path="url(#clip092)" cx="1304.01" cy="653.27" r="14" fill="#ffa500" fill-rule="evenodd" fill-opacity="1" stroke="none"/>
<circle clip-path="url(#clip092)" cx="1294.17" cy="740.624" r="14" fill="#ffa500" fill-rule="evenodd" fill-opacity="1" stroke="none"/>
<circle clip-path="url(#clip092)" cx="1271.29" cy="687.026" r="14" fill="#ffa500" fill-rule="evenodd" fill-opacity="1" stroke="none"/>
<circle clip-path="url(#clip092)" cx="1312.88" cy="901.308" r="14" fill="#800080" fill-rule="evenodd" fill-opacity="1" stroke="none"/>
<circle clip-path="url(#clip092)" cx="1333.42" cy="886.887" r="14" fill="#800080" fill-rule="evenodd" fill-opacity="1" stroke="none"/>
<circle clip-path="url(#clip092)" cx="1478.71" cy="728.632" r="14" fill="#800080" fill-rule="evenodd" fill-opacity="1" stroke="none"/>
<circle clip-path="url(#clip092)" cx="1369.36" cy="838.923" r="14" fill="#800080" fill-rule="evenodd" fill-opacity="1" stroke="none"/>
<circle clip-path="url(#clip092)" cx="1599.88" cy="686.699" r="14" fill="#800080" fill-rule="evenodd" fill-opacity="1" stroke="none"/>
<circle clip-path="url(#clip092)" cx="1455.02" cy="794.674" r="14" fill="#800080" fill-rule="evenodd" fill-opacity="1" stroke="none"/>
<circle clip-path="url(#clip092)" cx="1486.95" cy="790.8" r="14" fill="#800080" fill-rule="evenodd" fill-opacity="1" stroke="none"/>
<circle clip-path="url(#clip092)" cx="1477.14" cy="749.932" r="14" fill="#800080" fill-rule="evenodd" fill-opacity="1" stroke="none"/>
<circle clip-path="url(#clip092)" cx="1527.02" cy="732.171" r="14" fill="#800080" fill-rule="evenodd" fill-opacity="1" stroke="none"/>
<circle clip-path="url(#clip092)" cx="1429.61" cy="763.776" r="14" fill="#800080" fill-rule="evenodd" fill-opacity="1" stroke="none"/>
<circle clip-path="url(#clip092)" cx="1472.26" cy="821.011" r="14" fill="#800080" fill-rule="evenodd" fill-opacity="1" stroke="none"/>
<circle clip-path="url(#clip092)" cx="1481.68" cy="760.883" r="14" fill="#800080" fill-rule="evenodd" fill-opacity="1" stroke="none"/>
<circle clip-path="url(#clip092)" cx="1437.39" cy="785.866" r="14" fill="#800080" fill-rule="evenodd" fill-opacity="1" stroke="none"/>
<circle clip-path="url(#clip092)" cx="1509.11" cy="787.756" r="14" fill="#800080" fill-rule="evenodd" fill-opacity="1" stroke="none"/>
<circle clip-path="url(#clip092)" cx="1552.03" cy="780.315" r="14" fill="#800080" fill-rule="evenodd" fill-opacity="1" stroke="none"/>
<circle clip-path="url(#clip092)" cx="1531.81" cy="819.894" r="14" fill="#800080" fill-rule="evenodd" fill-opacity="1" stroke="none"/>
<circle clip-path="url(#clip092)" cx="1530.63" cy="781.86" r="14" fill="#800080" fill-rule="evenodd" fill-opacity="1" stroke="none"/>
<circle clip-path="url(#clip092)" cx="1508.15" cy="779.583" r="14" fill="#800080" fill-rule="evenodd" fill-opacity="1" stroke="none"/>
<circle clip-path="url(#clip092)" cx="1527.53" cy="695.607" r="14" fill="#800080" fill-rule="evenodd" fill-opacity="1" stroke="none"/>
<circle clip-path="url(#clip092)" cx="1446.51" cy="743.674" r="14" fill="#800080" fill-rule="evenodd" fill-opacity="1" stroke="none"/>
<circle clip-path="url(#clip092)" cx="1502.47" cy="709.909" r="14" fill="#800080" fill-rule="evenodd" fill-opacity="1" stroke="none"/>
<circle clip-path="url(#clip092)" cx="1595.76" cy="674.73" r="14" fill="#800080" fill-rule="evenodd" fill-opacity="1" stroke="none"/>
<circle clip-path="url(#clip092)" cx="1610.56" cy="720.161" r="14" fill="#ffa500" fill-rule="evenodd" fill-opacity="1" stroke="none"/>
<circle clip-path="url(#clip092)" cx="1548.22" cy="738.034" r="14" fill="#ffa500" fill-rule="evenodd" fill-opacity="1" stroke="none"/>
<circle clip-path="url(#clip092)" cx="1517.33" cy="676.134" r="14" fill="#ffa500" fill-rule="evenodd" fill-opacity="1" stroke="none"/>
<circle clip-path="url(#clip092)" cx="1533.6" cy="718.825" r="14" fill="#ffa500" fill-rule="evenodd" fill-opacity="1" stroke="none"/>
<circle clip-path="url(#clip092)" cx="1498.18" cy="597.737" r="14" fill="#ffa500" fill-rule="evenodd" fill-opacity="1" stroke="none"/>
<circle clip-path="url(#clip092)" cx="1482.03" cy="768.874" r="14" fill="#ffa500" fill-rule="evenodd" fill-opacity="1" stroke="none"/>
<circle clip-path="url(#clip092)" cx="1456.28" cy="692.559" r="14" fill="#ffa500" fill-rule="evenodd" fill-opacity="1" stroke="none"/>
<circle clip-path="url(#clip092)" cx="1652.31" cy="694.362" r="14" fill="#ffa500" fill-rule="evenodd" fill-opacity="1" stroke="none"/>
<circle clip-path="url(#clip092)" cx="1489.84" cy="688.19" r="14" fill="#ffa500" fill-rule="evenodd" fill-opacity="1" stroke="none"/>
<circle clip-path="url(#clip092)" cx="1734.21" cy="589.323" r="14" fill="#ffa500" fill-rule="evenodd" fill-opacity="1" stroke="none"/>
<circle clip-path="url(#clip092)" cx="1575.72" cy="726.35" r="14" fill="#ffa500" fill-rule="evenodd" fill-opacity="1" stroke="none"/>
<circle clip-path="url(#clip092)" cx="1552.84" cy="780.227" r="14" fill="#ffa500" fill-rule="evenodd" fill-opacity="1" stroke="none"/>
<circle clip-path="url(#clip092)" cx="1573.82" cy="706.257" r="14" fill="#ffa500" fill-rule="evenodd" fill-opacity="1" stroke="none"/>
<circle clip-path="url(#clip092)" cx="1466.3" cy="612.069" r="14" fill="#ffa500" fill-rule="evenodd" fill-opacity="1" stroke="none"/>
<circle clip-path="url(#clip092)" cx="1459.64" cy="590.617" r="14" fill="#ffa500" fill-rule="evenodd" fill-opacity="1" stroke="none"/>
<circle clip-path="url(#clip092)" cx="1446.28" cy="588.579" r="14" fill="#ffa500" fill-rule="evenodd" fill-opacity="1" stroke="none"/>
<circle clip-path="url(#clip092)" cx="1532.47" cy="554.279" r="14" fill="#ffa500" fill-rule="evenodd" fill-opacity="1" stroke="none"/>
<circle clip-path="url(#clip092)" cx="1608.11" cy="570.224" r="14" fill="#ffa500" fill-rule="evenodd" fill-opacity="1" stroke="none"/>
<circle clip-path="url(#clip092)" cx="1321.79" cy="632.589" r="14" fill="#ffa500" fill-rule="evenodd" fill-opacity="1" stroke="none"/>
<circle clip-path="url(#clip092)" cx="1266.17" cy="747.375" r="14" fill="#ffa500" fill-rule="evenodd" fill-opacity="1" stroke="none"/>
<circle clip-path="url(#clip092)" cx="1243.99" cy="644.588" r="14" fill="#ffa500" fill-rule="evenodd" fill-opacity="1" stroke="none"/>
<circle clip-path="url(#clip092)" cx="1286.21" cy="684.278" r="14" fill="#ffa500" fill-rule="evenodd" fill-opacity="1" stroke="none"/>
<polyline clip-path="url(#clip092)" style="stroke:#ffa500; stroke-width:4.88758; stroke-opacity:1; fill:none" points="
  322.494,1479.3 2257.84,121.193 
  "/>
<polyline clip-path="url(#clip092)" style="stroke:#800080; stroke-width:0.831794; stroke-opacity:1; fill:none" points="
  1246.73,285.992 1273.75,497.409 
  "/>
<polyline clip-path="url(#clip092)" style="stroke:#ffa500; stroke-width:0.299089; stroke-opacity:1; fill:none" points="
  151.118,88.9544 1273.75,497.409 
  "/>
<polyline clip-path="url(#clip092)" style="stroke:#ffa500; stroke-width:0.843251; stroke-opacity:1; fill:none" points="
  151.118,88.9544 2288.63,1081.39 
  "/>
<polyline clip-path="url(#clip092)" style="stroke:#ffa500; stroke-width:4.5444; stroke-opacity:1; fill:none" points="
  1246.73,285.992 2257.84,121.193 
  "/>
<polyline clip-path="url(#clip092)" style="stroke:#ffa500; stroke-width:2.01037; stroke-opacity:1; fill:none" points="
  151.118,88.9544 1246.73,285.992 
  "/>
<polyline clip-path="url(#clip092)" style="stroke:#800080; stroke-width:0.820338; stroke-opacity:1; fill:none" points="
  1246.73,285.992 2288.63,1081.39 
  "/>
<polyline clip-path="url(#clip092)" style="stroke:#800080; stroke-width:2.29381; stroke-opacity:1; fill:none" points="
  1273.75,497.409 2288.63,1081.39 
  "/>
<polyline clip-path="url(#clip092)" style="stroke:#ffa500; stroke-width:4.41533; stroke-opacity:1; fill:none" points="
  151.118,88.9544 322.494,1479.3 
  "/>
<polyline clip-path="url(#clip092)" style="stroke:#800080; stroke-width:1.44165; stroke-opacity:1; fill:none" points="
  1273.75,497.409 2257.84,121.193 
  "/>
<polyline clip-path="url(#clip092)" style="stroke:#ffa500; stroke-width:2.26375; stroke-opacity:1; fill:none" points="
  2257.84,121.193 2288.63,1081.39 
  "/>
<polyline clip-path="url(#clip092)" style="stroke:#ffa500; stroke-width:1.50008; stroke-opacity:1; fill:none" points="
  322.494,1479.3 1246.73,285.992 
  "/>
<polyline clip-path="url(#clip092)" style="stroke:#800080; stroke-width:1.53172; stroke-opacity:1; fill:none" points="
  322.494,1479.3 1273.75,497.409 
  "/>
<polyline clip-path="url(#clip092)" style="stroke:#ffa500; stroke-width:3.57132; stroke-opacity:1; fill:none" points="
  151.118,88.9544 2257.84,121.193 
  "/>
<polyline clip-path="url(#clip092)" style="stroke:#800080; stroke-width:8; stroke-opacity:1; fill:none" points="
  322.494,1479.3 2288.63,1081.39 
  "/>
<circle clip-path="url(#clip092)" cx="1246.73" cy="285.992" r="23" fill="#000000" fill-rule="evenodd" fill-opacity="1" stroke="none"/>
<circle clip-path="url(#clip092)" cx="322.494" cy="1479.3" r="26" fill="#000000" fill-rule="evenodd" fill-opacity="1" stroke="none"/>
<circle clip-path="url(#clip092)" cx="2257.84" cy="121.193" r="23" fill="#000000" fill-rule="evenodd" fill-opacity="1" stroke="none"/>
<circle clip-path="url(#clip092)" cx="1273.75" cy="497.409" r="8" fill="#000000" fill-rule="evenodd" fill-opacity="1" stroke="none"/>
<circle clip-path="url(#clip092)" cx="2288.63" cy="1081.39" r="28" fill="#000000" fill-rule="evenodd" fill-opacity="1" stroke="none"/>
<circle clip-path="url(#clip092)" cx="151.118" cy="88.9544" r="8" fill="#000000" fill-rule="evenodd" fill-opacity="1" stroke="none"/>
<path clip-path="url(#clip090)" d="M 0 0 M1170.92 262.477 L1170.92 309.508 L1180.8 309.508 Q1193.32 309.508 1199.11 303.837 Q1204.95 298.165 1204.95 285.932 Q1204.95 273.779 1199.11 268.148 Q1193.32 262.477 1180.8 262.477 L1170.92 262.477 M1162.74 255.752 L1179.55 255.752 Q1197.13 255.752 1205.35 263.085 Q1213.58 270.376 1213.58 285.932 Q1213.58 301.568 1205.31 308.9 Q1197.05 316.232 1179.55 316.232 L1162.74 316.232 L1162.74 255.752 Z" fill="#000000" fill-rule="evenodd" fill-opacity="1" /><path clip-path="url(#clip090)" d="M 0 0 M1242.01 293.426 Q1232.98 293.426 1229.5 295.492 Q1226.01 297.558 1226.01 302.54 Q1226.01 306.51 1228.61 308.86 Q1231.24 311.169 1235.73 311.169 Q1241.93 311.169 1245.66 306.794 Q1249.43 302.378 1249.43 295.087 L1249.43 293.426 L1242.01 293.426 M1256.88 290.347 L1256.88 316.232 L1249.43 316.232 L1249.43 309.346 Q1246.87 313.478 1243.07 315.463 Q1239.26 317.407 1233.75 317.407 Q1226.78 317.407 1222.65 313.518 Q1218.56 309.589 1218.56 303.026 Q1218.56 295.37 1223.66 291.481 Q1228.81 287.592 1238.98 287.592 L1249.43 287.592 L1249.43 286.863 Q1249.43 281.719 1246.02 278.924 Q1242.66 276.088 1236.55 276.088 Q1232.66 276.088 1228.97 277.02 Q1225.28 277.951 1221.88 279.815 L1221.88 272.928 Q1225.97 271.348 1229.82 270.579 Q1233.67 269.769 1237.31 269.769 Q1247.16 269.769 1252.02 274.873 Q1256.88 279.977 1256.88 290.347 Z" fill="#000000" fill-rule="evenodd" fill-opacity="1" /><path clip-path="url(#clip090)" d="M 0 0 M1272.07 257.98 L1272.07 270.862 L1287.42 270.862 L1287.42 276.655 L1272.07 276.655 L1272.07 301.285 Q1272.07 306.834 1273.57 308.414 Q1275.11 309.994 1279.77 309.994 L1287.42 309.994 L1287.42 316.232 L1279.77 316.232 Q1271.14 316.232 1267.86 313.032 Q1264.58 309.791 1264.58 301.285 L1264.58 276.655 L1259.11 276.655 L1259.11 270.862 L1264.58 270.862 L1264.58 257.98 L1272.07 257.98 Z" fill="#000000" fill-rule="evenodd" fill-opacity="1" /><path clip-path="url(#clip090)" d="M 0 0 M1315.86 293.426 Q1306.83 293.426 1303.34 295.492 Q1299.86 297.558 1299.86 302.54 Q1299.86 306.51 1302.45 308.86 Q1305.09 311.169 1309.58 311.169 Q1315.78 311.169 1319.51 306.794 Q1323.28 302.378 1323.28 295.087 L1323.28 293.426 L1315.86 293.426 M1330.73 290.347 L1330.73 316.232 L1323.28 316.232 L1323.28 309.346 Q1320.72 313.478 1316.92 315.463 Q1313.11 317.407 1307.6 317.407 Q1300.63 317.407 1296.5 313.518 Q1292.41 309.589 1292.41 303.026 Q1292.41 295.37 1297.51 291.481 Q1302.66 287.592 1312.82 287.592 L1323.28 287.592 L1323.28 286.863 Q1323.28 281.719 1319.87 278.924 Q1316.51 276.088 1310.39 276.088 Q1306.5 276.088 1302.82 277.02 Q1299.13 277.951 1295.73 279.815 L1295.73 272.928 Q1299.82 271.348 1303.67 270.579 Q1307.52 269.769 1311.16 269.769 Q1321.01 269.769 1325.87 274.873 Q1330.73 279.977 1330.73 290.347 Z" fill="#000000" fill-rule="evenodd" fill-opacity="1" /><path clip-path="url(#clip090)" d="M 0 0 M-74.8393 1449.06 L-23.6764 1449.06 L-23.6764 1455.94 L-45.1462 1455.94 L-45.1462 1509.54 L-53.3695 1509.54 L-53.3695 1455.94 L-74.8393 1455.94 L-74.8393 1449.06 Z" fill="#000000" fill-rule="evenodd" fill-opacity="1" /><path clip-path="url(#clip090)" d="M 0 0 M8.85238 1484.99 L8.85238 1488.63 L-25.4183 1488.63 Q-24.9322 1496.33 -20.8002 1500.38 Q-16.6278 1504.39 -9.21466 1504.39 Q-4.9207 1504.39 -0.910304 1503.34 Q3.1406 1502.29 7.11049 1500.18 L7.11049 1507.23 Q3.10009 1508.93 -1.11285 1509.82 Q-5.32579 1510.71 -9.66026 1510.71 Q-20.5167 1510.71 -26.8766 1504.39 Q-33.196 1498.07 -33.196 1487.3 Q-33.196 1476.16 -27.2007 1469.64 Q-21.1648 1463.07 -10.9565 1463.07 Q-1.8015 1463.07 3.50518 1468.99 Q8.85238 1474.86 8.85238 1484.99 M1.39871 1482.8 Q1.31769 1476.68 -2.04456 1473.04 Q-5.3663 1469.39 -10.8755 1469.39 Q-17.1139 1469.39 -20.8813 1472.92 Q-24.6081 1476.44 -25.1752 1482.84 L1.39871 1482.8 Z" fill="#000000" fill-rule="evenodd" fill-opacity="1" /><path clip-path="url(#clip090)" d="M 0 0 M49.3209 1465.91 L49.3209 1472.88 Q46.1612 1471.14 42.961 1470.28 Q39.8013 1469.39 36.5606 1469.39 Q29.3094 1469.39 25.299 1474.01 Q21.2887 1478.59 21.2887 1486.89 Q21.2887 1495.2 25.299 1499.82 Q29.3094 1504.39 36.5606 1504.39 Q39.8013 1504.39 42.961 1503.54 Q46.1612 1502.65 49.3209 1500.91 L49.3209 1507.8 Q46.2017 1509.25 42.8395 1509.98 Q39.5177 1510.71 35.7504 1510.71 Q25.5016 1510.71 19.4657 1504.27 Q13.4299 1497.83 13.4299 1486.89 Q13.4299 1475.79 19.5063 1469.43 Q25.6231 1463.07 36.2365 1463.07 Q39.6798 1463.07 42.961 1463.8 Q46.2422 1464.49 49.3209 1465.91 Z" fill="#000000" fill-rule="evenodd" fill-opacity="1" /><path clip-path="url(#clip090)" d="M 0 0 M94.8531 1482.15 L94.8531 1509.54 L87.3994 1509.54 L87.3994 1482.4 Q87.3994 1475.96 84.8878 1472.76 Q82.3763 1469.56 77.3532 1469.56 Q71.3173 1469.56 67.8335 1473.4 Q64.3498 1477.25 64.3498 1483.9 L64.3498 1509.54 L56.8556 1509.54 L56.8556 1446.51 L64.3498 1446.51 L64.3498 1471.22 Q67.0234 1467.12 70.6287 1465.1 Q74.2745 1463.07 79.014 1463.07 Q86.8323 1463.07 90.8427 1467.93 Q94.8531 1472.76 94.8531 1482.15 Z" fill="#000000" fill-rule="evenodd" fill-opacity="1" /><path clip-path="url(#clip090)" d="M 0 0 M140.385 1482.15 L140.385 1509.54 L132.932 1509.54 L132.932 1482.4 Q132.932 1475.96 130.42 1472.76 Q127.908 1469.56 122.885 1469.56 Q116.849 1469.56 113.366 1473.4 Q109.882 1477.25 109.882 1483.9 L109.882 1509.54 L102.388 1509.54 L102.388 1464.17 L109.882 1464.17 L109.882 1471.22 Q112.556 1467.12 116.161 1465.1 Q119.807 1463.07 124.546 1463.07 Q132.364 1463.07 136.375 1467.93 Q140.385 1472.76 140.385 1482.15 Z" fill="#000000" fill-rule="evenodd" fill-opacity="1" /><path clip-path="url(#clip090)" d="M 0 0 M148.203 1464.17 L155.657 1464.17 L155.657 1509.54 L148.203 1509.54 L148.203 1464.17 M148.203 1446.51 L155.657 1446.51 L155.657 1455.94 L148.203 1455.94 L148.203 1446.51 Z" fill="#000000" fill-rule="evenodd" fill-opacity="1" /><path clip-path="url(#clip090)" d="M 0 0 M196.126 1465.91 L196.126 1472.88 Q192.966 1471.14 189.766 1470.28 Q186.606 1469.39 183.365 1469.39 Q176.114 1469.39 172.104 1474.01 Q168.093 1478.59 168.093 1486.89 Q168.093 1495.2 172.104 1499.82 Q176.114 1504.39 183.365 1504.39 Q186.606 1504.39 189.766 1503.54 Q192.966 1502.65 196.126 1500.91 L196.126 1507.8 Q193.006 1509.25 189.644 1509.98 Q186.322 1510.71 182.555 1510.71 Q172.306 1510.71 166.271 1504.27 Q160.235 1497.83 160.235 1486.89 Q160.235 1475.79 166.311 1469.43 Q172.428 1463.07 183.041 1463.07 Q186.485 1463.07 189.766 1463.8 Q193.047 1464.49 196.126 1465.91 Z" fill="#000000" fill-rule="evenodd" fill-opacity="1" /><path clip-path="url(#clip090)" d="M 0 0 M224.563 1486.73 Q215.53 1486.73 212.046 1488.8 Q208.562 1490.86 208.562 1495.85 Q208.562 1499.82 211.155 1502.16 Q213.788 1504.47 218.284 1504.47 Q224.482 1504.47 228.209 1500.1 Q231.976 1495.68 231.976 1488.39 L231.976 1486.73 L224.563 1486.73 M239.43 1483.65 L239.43 1509.54 L231.976 1509.54 L231.976 1502.65 Q229.424 1506.78 225.616 1508.77 Q221.808 1510.71 216.299 1510.71 Q209.332 1510.71 205.2 1506.82 Q201.108 1502.89 201.108 1496.33 Q201.108 1488.68 206.212 1484.79 Q211.357 1480.9 221.525 1480.9 L231.976 1480.9 L231.976 1480.17 Q231.976 1475.02 228.573 1472.23 Q225.211 1469.39 219.094 1469.39 Q215.205 1469.39 211.519 1470.32 Q207.833 1471.26 204.43 1473.12 L204.43 1466.23 Q208.521 1464.65 212.37 1463.88 Q216.218 1463.07 219.864 1463.07 Q229.708 1463.07 234.569 1468.18 Q239.43 1473.28 239.43 1483.65 Z" fill="#000000" fill-rule="evenodd" fill-opacity="1" /><path clip-path="url(#clip090)" d="M 0 0 M247.248 1446.51 L254.702 1446.51 L254.702 1509.54 L247.248 1509.54 L247.248 1446.51 Z" fill="#000000" fill-rule="evenodd" fill-opacity="1" /><path clip-path="url(#clip090)" d="M 0 0 M296.993 1523.31 L296.993 1529.1 L253.892 1529.1 L253.892 1523.31 L296.993 1523.31 Z" fill="#000000" fill-rule="evenodd" fill-opacity="1" /><path clip-path="url(#clip090)" d="M 0 0 M350.425 1453.72 L350.425 1462.34 Q346.293 1458.5 341.594 1456.59 Q336.935 1454.69 331.669 1454.69 Q321.299 1454.69 315.789 1461.05 Q310.28 1467.37 310.28 1479.36 Q310.28 1491.31 315.789 1497.67 Q321.299 1503.99 331.669 1503.99 Q336.935 1503.99 341.594 1502.08 Q346.293 1500.18 350.425 1496.33 L350.425 1504.88 Q346.131 1507.8 341.31 1509.25 Q336.53 1510.71 331.183 1510.71 Q317.45 1510.71 309.551 1502.33 Q301.652 1493.9 301.652 1479.36 Q301.652 1464.78 309.551 1456.39 Q317.45 1447.96 331.183 1447.96 Q336.611 1447.96 341.391 1449.42 Q346.212 1450.84 350.425 1453.72 Z" fill="#000000" fill-rule="evenodd" fill-opacity="1" /><path clip-path="url(#clip090)" d="M 0 0 M375.824 1469.39 Q369.828 1469.39 366.345 1474.09 Q362.861 1478.75 362.861 1486.89 Q362.861 1495.04 366.304 1499.73 Q369.788 1504.39 375.824 1504.39 Q381.779 1504.39 385.262 1499.69 Q388.746 1494.99 388.746 1486.89 Q388.746 1478.83 385.262 1474.13 Q381.779 1469.39 375.824 1469.39 M375.824 1463.07 Q385.546 1463.07 391.096 1469.39 Q396.645 1475.71 396.645 1486.89 Q396.645 1498.03 391.096 1504.39 Q385.546 1510.71 375.824 1510.71 Q366.061 1510.71 360.511 1504.39 Q355.002 1498.03 355.002 1486.89 Q355.002 1475.71 360.511 1469.39 Q366.061 1463.07 375.824 1463.07 Z" fill="#000000" fill-rule="evenodd" fill-opacity="1" /><path clip-path="url(#clip090)" d="M 0 0 M442.178 1482.15 L442.178 1509.54 L434.724 1509.54 L434.724 1482.4 Q434.724 1475.96 432.212 1472.76 Q429.701 1469.56 424.678 1469.56 Q418.642 1469.56 415.158 1473.4 Q411.674 1477.25 411.674 1483.9 L411.674 1509.54 L404.18 1509.54 L404.18 1464.17 L411.674 1464.17 L411.674 1471.22 Q414.348 1467.12 417.953 1465.1 Q421.599 1463.07 426.339 1463.07 Q434.157 1463.07 438.167 1467.93 Q442.178 1472.76 442.178 1482.15 Z" fill="#000000" fill-rule="evenodd" fill-opacity="1" /><path clip-path="url(#clip090)" d="M 0 0 M478.919 1465.5 L478.919 1472.55 Q475.76 1470.93 472.357 1470.12 Q468.954 1469.31 465.308 1469.31 Q459.759 1469.31 456.963 1471.01 Q454.209 1472.71 454.209 1476.12 Q454.209 1478.71 456.194 1480.21 Q458.179 1481.67 464.174 1483 L466.726 1483.57 Q474.666 1485.27 477.988 1488.39 Q481.35 1491.47 481.35 1497.02 Q481.35 1503.34 476.327 1507.03 Q471.344 1510.71 462.594 1510.71 Q458.948 1510.71 454.978 1509.98 Q451.049 1509.29 446.674 1507.88 L446.674 1500.18 Q450.806 1502.33 454.816 1503.42 Q458.827 1504.47 462.756 1504.47 Q468.022 1504.47 470.858 1502.69 Q473.694 1500.87 473.694 1497.59 Q473.694 1494.55 471.628 1492.93 Q469.602 1491.31 462.675 1489.81 L460.083 1489.2 Q453.156 1487.74 450.077 1484.75 Q446.998 1481.71 446.998 1476.44 Q446.998 1470.04 451.535 1466.56 Q456.072 1463.07 464.417 1463.07 Q468.549 1463.07 472.195 1463.68 Q475.841 1464.29 478.919 1465.5 Z" fill="#000000" fill-rule="evenodd" fill-opacity="1" /><path clip-path="url(#clip090)" d="M 0 0 M496.541 1451.29 L496.541 1464.17 L511.894 1464.17 L511.894 1469.96 L496.541 1469.96 L496.541 1494.59 Q496.541 1500.14 498.04 1501.72 Q499.579 1503.3 504.237 1503.3 L511.894 1503.3 L511.894 1509.54 L504.237 1509.54 Q495.609 1509.54 492.328 1506.34 Q489.047 1503.1 489.047 1494.59 L489.047 1469.96 L483.578 1469.96 L483.578 1464.17 L489.047 1464.17 L489.047 1451.29 L496.541 1451.29 Z" fill="#000000" fill-rule="evenodd" fill-opacity="1" /><path clip-path="url(#clip090)" d="M 0 0 M546.002 1471.14 Q544.746 1470.41 543.248 1470.08 Q541.789 1469.72 540.007 1469.72 Q533.688 1469.72 530.285 1473.85 Q526.923 1477.94 526.923 1485.64 L526.923 1509.54 L519.428 1509.54 L519.428 1464.17 L526.923 1464.17 L526.923 1471.22 Q529.272 1467.08 533.039 1465.1 Q536.807 1463.07 542.194 1463.07 Q542.964 1463.07 543.896 1463.2 Q544.828 1463.28 545.962 1463.48 L546.002 1471.14 Z" fill="#000000" fill-rule="evenodd" fill-opacity="1" /><path clip-path="url(#clip090)" d="M 0 0 M574.44 1486.73 Q565.406 1486.73 561.922 1488.8 Q558.439 1490.86 558.439 1495.85 Q558.439 1499.82 561.031 1502.16 Q563.664 1504.47 568.161 1504.47 Q574.359 1504.47 578.085 1500.1 Q581.853 1495.68 581.853 1488.39 L581.853 1486.73 L574.44 1486.73 M589.306 1483.65 L589.306 1509.54 L581.853 1509.54 L581.853 1502.65 Q579.301 1506.78 575.493 1508.77 Q571.685 1510.71 566.176 1510.71 Q559.208 1510.71 555.076 1506.82 Q550.985 1502.89 550.985 1496.33 Q550.985 1488.68 556.089 1484.79 Q561.234 1480.9 571.401 1480.9 L581.853 1480.9 L581.853 1480.17 Q581.853 1475.02 578.45 1472.23 Q575.088 1469.39 568.971 1469.39 Q565.082 1469.39 561.396 1470.32 Q557.709 1471.26 554.307 1473.12 L554.307 1466.23 Q558.398 1464.65 562.246 1463.88 Q566.095 1463.07 569.741 1463.07 Q579.584 1463.07 584.445 1468.18 Q589.306 1473.28 589.306 1483.65 Z" fill="#000000" fill-rule="evenodd" fill-opacity="1" /><path clip-path="url(#clip090)" d="M 0 0 M597.125 1464.17 L604.578 1464.17 L604.578 1509.54 L597.125 1509.54 L597.125 1464.17 M597.125 1446.51 L604.578 1446.51 L604.578 1455.94 L597.125 1455.94 L597.125 1446.51 Z" fill="#000000" fill-rule="evenodd" fill-opacity="1" /><path clip-path="url(#clip090)" d="M 0 0 M650.111 1482.15 L650.111 1509.54 L642.657 1509.54 L642.657 1482.4 Q642.657 1475.96 640.145 1472.76 Q637.634 1469.56 632.611 1469.56 Q626.575 1469.56 623.091 1473.4 Q619.607 1477.25 619.607 1483.9 L619.607 1509.54 L612.113 1509.54 L612.113 1464.17 L619.607 1464.17 L619.607 1471.22 Q622.281 1467.12 625.886 1465.1 Q629.532 1463.07 634.271 1463.07 Q642.09 1463.07 646.1 1467.93 Q650.111 1472.76 650.111 1482.15 Z" fill="#000000" fill-rule="evenodd" fill-opacity="1" /><path clip-path="url(#clip090)" d="M 0 0 M665.301 1451.29 L665.301 1464.17 L680.654 1464.17 L680.654 1469.96 L665.301 1469.96 L665.301 1494.59 Q665.301 1500.14 666.8 1501.72 Q668.34 1503.3 672.998 1503.3 L680.654 1503.3 L680.654 1509.54 L672.998 1509.54 Q664.37 1509.54 661.088 1506.34 Q657.807 1503.1 657.807 1494.59 L657.807 1469.96 L652.339 1469.96 L652.339 1464.17 L657.807 1464.17 L657.807 1451.29 L665.301 1451.29 Z" fill="#000000" fill-rule="evenodd" fill-opacity="1" /><path clip-path="url(#clip090)" d="M 0 0 M717.396 1465.5 L717.396 1472.55 Q714.236 1470.93 710.834 1470.12 Q707.431 1469.31 703.785 1469.31 Q698.235 1469.31 695.44 1471.01 Q692.686 1472.71 692.686 1476.12 Q692.686 1478.71 694.67 1480.21 Q696.655 1481.67 702.651 1483 L705.203 1483.57 Q713.143 1485.27 716.464 1488.39 Q719.827 1491.47 719.827 1497.02 Q719.827 1503.34 714.803 1507.03 Q709.821 1510.71 701.071 1510.71 Q697.425 1510.71 693.455 1509.98 Q689.526 1509.29 685.151 1507.88 L685.151 1500.18 Q689.283 1502.33 693.293 1503.42 Q697.304 1504.47 701.233 1504.47 Q706.499 1504.47 709.335 1502.69 Q712.17 1500.87 712.17 1497.59 Q712.17 1494.55 710.104 1492.93 Q708.079 1491.31 701.152 1489.81 L698.559 1489.2 Q691.632 1487.74 688.554 1484.75 Q685.475 1481.71 685.475 1476.44 Q685.475 1470.04 690.012 1466.56 Q694.549 1463.07 702.894 1463.07 Q707.026 1463.07 710.672 1463.68 Q714.317 1464.29 717.396 1465.5 Z" fill="#000000" fill-rule="evenodd" fill-opacity="1" /><path clip-path="url(#clip090)" d="M 0 0 M1789.27 97.678 L1789.27 120.404 L1799.56 120.404 Q1805.28 120.404 1808.4 117.446 Q1811.51 114.489 1811.51 109.02 Q1811.51 103.592 1808.4 100.635 Q1805.28 97.678 1799.56 97.678 L1789.27 97.678 M1781.09 90.9535 L1799.56 90.9535 Q1809.73 90.9535 1814.92 95.5715 Q1820.14 100.149 1820.14 109.02 Q1820.14 117.973 1814.92 122.551 Q1809.73 127.128 1799.56 127.128 L1789.27 127.128 L1789.27 151.433 L1781.09 151.433 L1781.09 90.9535 Z" fill="#000000" fill-rule="evenodd" fill-opacity="1" /><path clip-path="url(#clip090)" d="M 0 0 M1863.81 126.885 L1863.81 130.531 L1829.54 130.531 Q1830.03 138.228 1834.16 142.278 Q1838.33 146.289 1845.74 146.289 Q1850.04 146.289 1854.05 145.236 Q1858.1 144.182 1862.07 142.076 L1862.07 149.124 Q1858.06 150.826 1853.85 151.717 Q1849.63 152.608 1845.3 152.608 Q1834.44 152.608 1828.08 146.289 Q1821.76 139.969 1821.76 129.194 Q1821.76 118.054 1827.76 111.532 Q1833.79 104.97 1844 104.97 Q1853.16 104.97 1858.46 110.884 Q1863.81 116.758 1863.81 126.885 M1856.36 124.697 Q1856.28 118.581 1852.91 114.935 Q1849.59 111.289 1844.08 111.289 Q1837.85 111.289 1834.08 114.813 Q1830.35 118.338 1829.78 124.738 L1856.36 124.697 Z" fill="#000000" fill-rule="evenodd" fill-opacity="1" /><path clip-path="url(#clip090)" d="M 0 0 M1897.92 113.031 Q1896.66 112.302 1895.17 111.978 Q1893.71 111.613 1891.92 111.613 Q1885.61 111.613 1882.2 115.745 Q1878.84 119.836 1878.84 127.533 L1878.84 151.433 L1871.35 151.433 L1871.35 106.063 L1878.84 106.063 L1878.84 113.112 Q1881.19 108.98 1884.96 106.995 Q1888.72 104.97 1894.11 104.97 Q1894.88 104.97 1895.81 105.091 Q1896.75 105.172 1897.88 105.375 L1897.92 113.031 Z" fill="#000000" fill-rule="evenodd" fill-opacity="1" /><path clip-path="url(#clip090)" d="M 0 0 M1928.71 88.4014 L1928.71 94.5993 L1921.58 94.5993 Q1917.57 94.5993 1915.99 96.2196 Q1914.45 97.84 1914.45 102.053 L1914.45 106.063 L1926.72 106.063 L1926.72 111.856 L1914.45 111.856 L1914.45 151.433 L1906.95 151.433 L1906.95 111.856 L1899.82 111.856 L1899.82 106.063 L1906.95 106.063 L1906.95 102.904 Q1906.95 95.3284 1910.48 91.8852 Q1914 88.4014 1921.66 88.4014 L1928.71 88.4014 Z" fill="#000000" fill-rule="evenodd" fill-opacity="1" /><path clip-path="url(#clip090)" d="M 0 0 M1954.11 111.289 Q1948.11 111.289 1944.63 115.988 Q1941.14 120.647 1941.14 128.789 Q1941.14 136.931 1944.59 141.63 Q1948.07 146.289 1954.11 146.289 Q1960.06 146.289 1963.54 141.59 Q1967.03 136.891 1967.03 128.789 Q1967.03 120.728 1963.54 116.029 Q1960.06 111.289 1954.11 111.289 M1954.11 104.97 Q1963.83 104.97 1969.38 111.289 Q1974.93 117.608 1974.93 128.789 Q1974.93 139.929 1969.38 146.289 Q1963.83 152.608 1954.11 152.608 Q1944.34 152.608 1938.79 146.289 Q1933.28 139.929 1933.28 128.789 Q1933.28 117.608 1938.79 111.289 Q1944.34 104.97 1954.11 104.97 Z" fill="#000000" fill-rule="evenodd" fill-opacity="1" /><path clip-path="url(#clip090)" d="M 0 0 M2009.04 113.031 Q2007.78 112.302 2006.28 111.978 Q2004.82 111.613 2003.04 111.613 Q1996.72 111.613 1993.32 115.745 Q1989.96 119.836 1989.96 127.533 L1989.96 151.433 L1982.46 151.433 L1982.46 106.063 L1989.96 106.063 L1989.96 113.112 Q1992.31 108.98 1996.07 106.995 Q1999.84 104.97 2005.23 104.97 Q2006 104.97 2006.93 105.091 Q2007.86 105.172 2009 105.375 L2009.04 113.031 Z" fill="#000000" fill-rule="evenodd" fill-opacity="1" /><path clip-path="url(#clip090)" d="M 0 0 M2050.72 114.773 Q2053.52 109.75 2057.4 107.36 Q2061.29 104.97 2066.56 104.97 Q2073.65 104.97 2077.5 109.952 Q2081.35 114.894 2081.35 124.049 L2081.35 151.433 L2073.85 151.433 L2073.85 124.292 Q2073.85 117.77 2071.54 114.611 Q2069.23 111.451 2064.49 111.451 Q2058.7 111.451 2055.34 115.299 Q2051.98 119.148 2051.98 125.791 L2051.98 151.433 L2044.48 151.433 L2044.48 124.292 Q2044.48 117.73 2042.17 114.611 Q2039.86 111.451 2035.04 111.451 Q2029.33 111.451 2025.97 115.34 Q2022.61 119.188 2022.61 125.791 L2022.61 151.433 L2015.11 151.433 L2015.11 106.063 L2022.61 106.063 L2022.61 113.112 Q2025.16 108.939 2028.72 106.955 Q2032.29 104.97 2037.19 104.97 Q2042.13 104.97 2045.58 107.481 Q2049.06 109.993 2050.72 114.773 Z" fill="#000000" fill-rule="evenodd" fill-opacity="1" /><path clip-path="url(#clip090)" d="M 0 0 M2109.78 128.627 Q2100.75 128.627 2097.27 130.693 Q2093.78 132.759 2093.78 137.741 Q2093.78 141.711 2096.37 144.061 Q2099.01 146.37 2103.5 146.37 Q2109.7 146.37 2113.43 141.995 Q2117.2 137.579 2117.2 130.288 L2117.2 128.627 L2109.78 128.627 M2124.65 125.548 L2124.65 151.433 L2117.2 151.433 L2117.2 144.547 Q2114.64 148.679 2110.84 150.664 Q2107.03 152.608 2101.52 152.608 Q2094.55 152.608 2090.42 148.719 Q2086.33 144.79 2086.33 138.228 Q2086.33 130.571 2091.43 126.682 Q2096.58 122.794 2106.74 122.794 L2117.2 122.794 L2117.2 122.064 Q2117.2 116.92 2113.79 114.125 Q2110.43 111.289 2104.31 111.289 Q2100.42 111.289 2096.74 112.221 Q2093.05 113.152 2089.65 115.016 L2089.65 108.129 Q2093.74 106.549 2097.59 105.78 Q2101.44 104.97 2105.08 104.97 Q2114.93 104.97 2119.79 110.074 Q2124.65 115.178 2124.65 125.548 Z" fill="#000000" fill-rule="evenodd" fill-opacity="1" /><path clip-path="url(#clip090)" d="M 0 0 M2170.18 124.049 L2170.18 151.433 L2162.73 151.433 L2162.73 124.292 Q2162.73 117.851 2160.22 114.651 Q2157.7 111.451 2152.68 111.451 Q2146.65 111.451 2143.16 115.299 Q2139.68 119.148 2139.68 125.791 L2139.68 151.433 L2132.18 151.433 L2132.18 106.063 L2139.68 106.063 L2139.68 113.112 Q2142.35 109.02 2145.96 106.995 Q2149.6 104.97 2154.34 104.97 Q2162.16 104.97 2166.17 109.831 Q2170.18 114.651 2170.18 124.049 Z" fill="#000000" fill-rule="evenodd" fill-opacity="1" /><path clip-path="url(#clip090)" d="M 0 0 M2210.65 107.805 L2210.65 114.773 Q2207.49 113.031 2204.29 112.18 Q2201.13 111.289 2197.89 111.289 Q2190.64 111.289 2186.63 115.907 Q2182.62 120.485 2182.62 128.789 Q2182.62 137.093 2186.63 141.711 Q2190.64 146.289 2197.89 146.289 Q2201.13 146.289 2204.29 145.438 Q2207.49 144.547 2210.65 142.805 L2210.65 149.692 Q2207.53 151.15 2204.17 151.879 Q2200.85 152.608 2197.08 152.608 Q2186.83 152.608 2180.79 146.167 Q2174.76 139.726 2174.76 128.789 Q2174.76 117.689 2180.84 111.33 Q2186.95 104.97 2197.57 104.97 Q2201.01 104.97 2204.29 105.699 Q2207.57 106.387 2210.65 107.805 Z" fill="#000000" fill-rule="evenodd" fill-opacity="1" /><path clip-path="url(#clip090)" d="M 0 0 M2257.28 126.885 L2257.28 130.531 L2223.01 130.531 Q2223.49 138.228 2227.62 142.278 Q2231.8 146.289 2239.21 146.289 Q2243.5 146.289 2247.51 145.236 Q2251.56 144.182 2255.53 142.076 L2255.53 149.124 Q2251.52 150.826 2247.31 151.717 Q2243.1 152.608 2238.76 152.608 Q2227.91 152.608 2221.55 146.289 Q2215.23 139.969 2215.23 129.194 Q2215.23 118.054 2221.22 111.532 Q2227.26 104.97 2237.47 104.97 Q2246.62 104.97 2251.93 110.884 Q2257.28 116.758 2257.28 126.885 M2249.82 124.697 Q2249.74 118.581 2246.38 114.935 Q2243.06 111.289 2237.55 111.289 Q2231.31 111.289 2227.54 114.813 Q2223.82 118.338 2223.25 124.738 L2249.82 124.697 Z" fill="#000000" fill-rule="evenodd" fill-opacity="1" /><path clip-path="url(#clip090)" d="M 0 0 M2299.57 165.207 L2299.57 170.999 L2256.47 170.999 L2256.47 165.207 L2299.57 165.207 Z" fill="#000000" fill-rule="evenodd" fill-opacity="1" /><path clip-path="url(#clip090)" d="M 0 0 M2315.89 97.678 L2315.89 120.404 L2326.18 120.404 Q2331.89 120.404 2335.01 117.446 Q2338.13 114.489 2338.13 109.02 Q2338.13 103.592 2335.01 100.635 Q2331.89 97.678 2326.18 97.678 L2315.89 97.678 M2307.71 90.9535 L2326.18 90.9535 Q2336.35 90.9535 2341.53 95.5715 Q2346.76 100.149 2346.76 109.02 Q2346.76 117.973 2341.53 122.551 Q2336.35 127.128 2326.18 127.128 L2315.89 127.128 L2315.89 151.433 L2307.71 151.433 L2307.71 90.9535 Z" fill="#000000" fill-rule="evenodd" fill-opacity="1" /><path clip-path="url(#clip090)" d="M 0 0 M2371.47 128.627 Q2362.44 128.627 2358.95 130.693 Q2355.47 132.759 2355.47 137.741 Q2355.47 141.711 2358.06 144.061 Q2360.7 146.37 2365.19 146.37 Q2371.39 146.37 2375.12 141.995 Q2378.88 137.579 2378.88 130.288 L2378.88 128.627 L2371.47 128.627 M2386.34 125.548 L2386.34 151.433 L2378.88 151.433 L2378.88 144.547 Q2376.33 148.679 2372.52 150.664 Q2368.72 152.608 2363.21 152.608 Q2356.24 152.608 2352.11 148.719 Q2348.02 144.79 2348.02 138.228 Q2348.02 130.571 2353.12 126.682 Q2358.26 122.794 2368.43 122.794 L2378.88 122.794 L2378.88 122.064 Q2378.88 116.92 2375.48 114.125 Q2372.12 111.289 2366 111.289 Q2362.11 111.289 2358.43 112.221 Q2354.74 113.152 2351.34 115.016 L2351.34 108.129 Q2355.43 106.549 2359.28 105.78 Q2363.13 104.97 2366.77 104.97 Q2376.62 104.97 2381.48 110.074 Q2386.34 115.178 2386.34 125.548 Z" fill="#000000" fill-rule="evenodd" fill-opacity="1" /><path clip-path="url(#clip090)" d="M 0 0 M2420.45 113.031 Q2419.19 112.302 2417.69 111.978 Q2416.23 111.613 2414.45 111.613 Q2408.13 111.613 2404.73 115.745 Q2401.37 119.836 2401.37 127.533 L2401.37 151.433 L2393.87 151.433 L2393.87 106.063 L2401.37 106.063 L2401.37 113.112 Q2403.72 108.98 2407.48 106.995 Q2411.25 104.97 2416.64 104.97 Q2417.41 104.97 2418.34 105.091 Q2419.27 105.172 2420.41 105.375 L2420.45 113.031 Z" fill="#000000" fill-rule="evenodd" fill-opacity="1" /><path clip-path="url(#clip090)" d="M 0 0 M2448.88 128.627 Q2439.85 128.627 2436.37 130.693 Q2432.88 132.759 2432.88 137.741 Q2432.88 141.711 2435.48 144.061 Q2438.11 146.37 2442.6 146.37 Q2448.8 146.37 2452.53 141.995 Q2456.3 137.579 2456.3 130.288 L2456.3 128.627 L2448.88 128.627 M2463.75 125.548 L2463.75 151.433 L2456.3 151.433 L2456.3 144.547 Q2453.74 148.679 2449.94 150.664 Q2446.13 152.608 2440.62 152.608 Q2433.65 152.608 2429.52 148.719 Q2425.43 144.79 2425.43 138.228 Q2425.43 130.571 2430.53 126.682 Q2435.68 122.794 2445.85 122.794 L2456.3 122.794 L2456.3 122.064 Q2456.3 116.92 2452.89 114.125 Q2449.53 111.289 2443.41 111.289 Q2439.53 111.289 2435.84 112.221 Q2432.15 113.152 2428.75 115.016 L2428.75 108.129 Q2432.84 106.549 2436.69 105.78 Q2440.54 104.97 2444.18 104.97 Q2454.03 104.97 2458.89 110.074 Q2463.75 115.178 2463.75 125.548 Z" fill="#000000" fill-rule="evenodd" fill-opacity="1" /><path clip-path="url(#clip090)" d="M 0 0 M2506.89 114.773 Q2509.69 109.75 2513.58 107.36 Q2517.47 104.97 2522.73 104.97 Q2529.82 104.97 2533.67 109.952 Q2537.52 114.894 2537.52 124.049 L2537.52 151.433 L2530.02 151.433 L2530.02 124.292 Q2530.02 117.77 2527.71 114.611 Q2525.41 111.451 2520.67 111.451 Q2514.87 111.451 2511.51 115.299 Q2508.15 119.148 2508.15 125.791 L2508.15 151.433 L2500.65 151.433 L2500.65 124.292 Q2500.65 117.73 2498.35 114.611 Q2496.04 111.451 2491.22 111.451 Q2485.5 111.451 2482.14 115.34 Q2478.78 119.188 2478.78 125.791 L2478.78 151.433 L2471.29 151.433 L2471.29 106.063 L2478.78 106.063 L2478.78 113.112 Q2481.33 108.939 2484.9 106.955 Q2488.46 104.97 2493.36 104.97 Q2498.3 104.97 2501.75 107.481 Q2505.23 109.993 2506.89 114.773 Z" fill="#000000" fill-rule="evenodd" fill-opacity="1" /><path clip-path="url(#clip090)" d="M 0 0 M2584.14 126.885 L2584.14 130.531 L2549.87 130.531 Q2550.36 138.228 2554.49 142.278 Q2558.66 146.289 2566.08 146.289 Q2570.37 146.289 2574.38 145.236 Q2578.43 144.182 2582.4 142.076 L2582.4 149.124 Q2578.39 150.826 2574.18 151.717 Q2569.97 152.608 2565.63 152.608 Q2554.77 152.608 2548.41 146.289 Q2542.1 139.969 2542.1 129.194 Q2542.1 118.054 2548.09 111.532 Q2554.13 104.97 2564.33 104.97 Q2573.49 104.97 2578.8 110.884 Q2584.14 116.758 2584.14 126.885 M2576.69 124.697 Q2576.61 118.581 2573.25 114.935 Q2569.92 111.289 2564.42 111.289 Q2558.18 111.289 2554.41 114.813 Q2550.68 118.338 2550.12 124.738 L2576.69 124.697 Z" fill="#000000" fill-rule="evenodd" fill-opacity="1" /><path clip-path="url(#clip090)" d="M 0 0 M2599.33 93.1815 L2599.33 106.063 L2614.69 106.063 L2614.69 111.856 L2599.33 111.856 L2599.33 136.486 Q2599.33 142.035 2600.83 143.615 Q2602.37 145.195 2607.03 145.195 L2614.69 145.195 L2614.69 151.433 L2607.03 151.433 Q2598.4 151.433 2595.12 148.233 Q2591.84 144.993 2591.84 136.486 L2591.84 111.856 L2586.37 111.856 L2586.37 106.063 L2591.84 106.063 L2591.84 93.1815 L2599.33 93.1815 Z" fill="#000000" fill-rule="evenodd" fill-opacity="1" /><path clip-path="url(#clip090)" d="M 0 0 M2661.31 126.885 L2661.31 130.531 L2627.04 130.531 Q2627.53 138.228 2631.66 142.278 Q2635.83 146.289 2643.25 146.289 Q2647.54 146.289 2651.55 145.236 Q2655.6 144.182 2659.57 142.076 L2659.57 149.124 Q2655.56 150.826 2651.35 151.717 Q2647.13 152.608 2642.8 152.608 Q2631.94 152.608 2625.58 146.289 Q2619.26 139.969 2619.26 129.194 Q2619.26 118.054 2625.26 111.532 Q2631.3 104.97 2641.5 104.97 Q2650.66 104.97 2655.97 110.884 Q2661.31 116.758 2661.31 126.885 M2653.86 124.697 Q2653.78 118.581 2650.42 114.935 Q2647.09 111.289 2641.59 111.289 Q2635.35 111.289 2631.58 114.813 Q2627.85 118.338 2627.29 124.738 L2653.86 124.697 Z" fill="#000000" fill-rule="evenodd" fill-opacity="1" /><path clip-path="url(#clip090)" d="M 0 0 M2695.42 113.031 Q2694.17 112.302 2692.67 111.978 Q2691.21 111.613 2689.43 111.613 Q2683.11 111.613 2679.7 115.745 Q2676.34 119.836 2676.34 127.533 L2676.34 151.433 L2668.85 151.433 L2668.85 106.063 L2676.34 106.063 L2676.34 113.112 Q2678.69 108.98 2682.46 106.995 Q2686.23 104.97 2691.61 104.97 Q2692.38 104.97 2693.32 105.091 Q2694.25 105.172 2695.38 105.375 L2695.42 113.031 Z" fill="#000000" fill-rule="evenodd" fill-opacity="1" /><path clip-path="url(#clip090)" d="M 0 0 M2732.16 107.4 L2732.16 114.449 Q2729 112.828 2725.6 112.018 Q2722.2 111.208 2718.55 111.208 Q2713 111.208 2710.21 112.909 Q2707.45 114.611 2707.45 118.013 Q2707.45 120.606 2709.44 122.105 Q2711.42 123.563 2717.42 124.9 L2719.97 125.467 Q2727.91 127.169 2731.23 130.288 Q2734.59 133.366 2734.59 138.916 Q2734.59 145.236 2729.57 148.922 Q2724.59 152.608 2715.84 152.608 Q2712.19 152.608 2708.22 151.879 Q2704.29 151.19 2699.92 149.773 L2699.92 142.076 Q2704.05 144.223 2708.06 145.317 Q2712.07 146.37 2716 146.37 Q2721.27 146.37 2724.1 144.587 Q2726.94 142.765 2726.94 139.483 Q2726.94 136.445 2724.87 134.825 Q2722.85 133.204 2715.92 131.706 L2713.33 131.098 Q2706.4 129.64 2703.32 126.642 Q2700.24 123.604 2700.24 118.338 Q2700.24 111.937 2704.78 108.453 Q2709.32 104.97 2717.66 104.97 Q2721.79 104.97 2725.44 105.577 Q2729.08 106.185 2732.16 107.4 Z" fill="#000000" fill-rule="evenodd" fill-opacity="1" /><path clip-path="url(#clip090)" d="M 0 0 M721.878 471.828 L721.878 480.456 Q717.746 476.608 713.047 474.704 Q708.388 472.8 703.122 472.8 Q692.752 472.8 687.243 479.16 Q681.733 485.479 681.733 497.47 Q681.733 509.42 687.243 515.78 Q692.752 522.099 703.122 522.099 Q708.388 522.099 713.047 520.195 Q717.746 518.291 721.878 514.443 L721.878 522.991 Q717.584 525.907 712.763 527.366 Q707.983 528.824 702.636 528.824 Q688.904 528.824 681.004 520.438 Q673.105 512.013 673.105 497.47 Q673.105 482.887 681.004 474.501 Q688.904 466.075 702.636 466.075 Q708.064 466.075 712.844 467.534 Q717.665 468.951 721.878 471.828 Z" fill="#000000" fill-rule="evenodd" fill-opacity="1" /><path clip-path="url(#clip090)" d="M 0 0 M729.696 464.617 L737.15 464.617 L737.15 527.649 L729.696 527.649 L729.696 464.617 Z" fill="#000000" fill-rule="evenodd" fill-opacity="1" /><path clip-path="url(#clip090)" d="M 0 0 M744.968 482.279 L752.422 482.279 L752.422 527.649 L744.968 527.649 L744.968 482.279 M744.968 464.617 L752.422 464.617 L752.422 474.056 L744.968 474.056 L744.968 464.617 Z" fill="#000000" fill-rule="evenodd" fill-opacity="1" /><path clip-path="url(#clip090)" d="M 0 0 M799.048 503.101 L799.048 506.746 L764.777 506.746 Q765.263 514.443 769.395 518.494 Q773.567 522.504 780.981 522.504 Q785.275 522.504 789.285 521.451 Q793.336 520.398 797.306 518.291 L797.306 525.34 Q793.295 527.041 789.082 527.933 Q784.869 528.824 780.535 528.824 Q769.679 528.824 763.319 522.504 Q756.999 516.185 756.999 505.41 Q756.999 494.27 762.995 487.748 Q769.03 481.185 779.239 481.185 Q788.394 481.185 793.7 487.1 Q799.048 492.973 799.048 503.101 M791.594 500.913 Q791.513 494.796 788.151 491.15 Q784.829 487.505 779.32 487.505 Q773.081 487.505 769.314 491.029 Q765.587 494.553 765.02 500.954 L791.594 500.913 Z" fill="#000000" fill-rule="evenodd" fill-opacity="1" /><path clip-path="url(#clip090)" d="M 0 0 M844.58 500.265 L844.58 527.649 L837.126 527.649 L837.126 500.508 Q837.126 494.067 834.615 490.867 Q832.103 487.667 827.08 487.667 Q821.044 487.667 817.56 491.515 Q814.076 495.363 814.076 502.007 L814.076 527.649 L806.582 527.649 L806.582 482.279 L814.076 482.279 L814.076 489.328 Q816.75 485.236 820.355 483.211 Q824.001 481.185 828.741 481.185 Q836.559 481.185 840.569 486.046 Q844.58 490.867 844.58 500.265 Z" fill="#000000" fill-rule="evenodd" fill-opacity="1" /><path clip-path="url(#clip090)" d="M 0 0 M859.771 469.397 L859.771 482.279 L875.124 482.279 L875.124 488.072 L859.771 488.072 L859.771 512.701 Q859.771 518.251 861.27 519.831 Q862.809 521.411 867.467 521.411 L875.124 521.411 L875.124 527.649 L867.467 527.649 Q858.839 527.649 855.558 524.449 Q852.277 521.208 852.277 512.701 L852.277 488.072 L846.808 488.072 L846.808 482.279 L852.277 482.279 L852.277 469.397 L859.771 469.397 Z" fill="#000000" fill-rule="evenodd" fill-opacity="1" /><path clip-path="url(#clip090)" d="M 0 0 M917.415 541.422 L917.415 547.215 L874.313 547.215 L874.313 541.422 L917.415 541.422 Z" fill="#000000" fill-rule="evenodd" fill-opacity="1" /><path clip-path="url(#clip090)" d="M 0 0 M945.852 504.842 Q936.819 504.842 933.335 506.908 Q929.851 508.974 929.851 513.957 Q929.851 517.927 932.444 520.276 Q935.077 522.585 939.574 522.585 Q945.771 522.585 949.498 518.21 Q953.266 513.795 953.266 506.503 L953.266 504.842 L945.852 504.842 M960.719 501.764 L960.719 527.649 L953.266 527.649 L953.266 520.763 Q950.713 524.894 946.906 526.879 Q943.098 528.824 937.589 528.824 Q930.621 528.824 926.489 524.935 Q922.398 521.006 922.398 514.443 Q922.398 506.787 927.502 502.898 Q932.646 499.009 942.814 499.009 L953.266 499.009 L953.266 498.28 Q953.266 493.135 949.863 490.34 Q946.501 487.505 940.384 487.505 Q936.495 487.505 932.808 488.436 Q929.122 489.368 925.719 491.231 L925.719 484.345 Q929.811 482.765 933.659 481.995 Q937.508 481.185 941.153 481.185 Q950.997 481.185 955.858 486.289 Q960.719 491.393 960.719 501.764 Z" fill="#000000" fill-rule="evenodd" fill-opacity="1" /><path clip-path="url(#clip090)" d="M 0 0 M1006.25 500.265 L1006.25 527.649 L998.798 527.649 L998.798 500.508 Q998.798 494.067 996.286 490.867 Q993.775 487.667 988.751 487.667 Q982.716 487.667 979.232 491.515 Q975.748 495.363 975.748 502.007 L975.748 527.649 L968.254 527.649 L968.254 482.279 L975.748 482.279 L975.748 489.328 Q978.422 485.236 982.027 483.211 Q985.673 481.185 990.412 481.185 Q998.231 481.185 1002.24 486.046 Q1006.25 490.867 1006.25 500.265 Z" fill="#000000" fill-rule="evenodd" fill-opacity="1" /><path clip-path="url(#clip090)" d="M 0 0 M1043.92 489.165 L1043.92 464.617 L1051.38 464.617 L1051.38 527.649 L1043.92 527.649 L1043.92 520.844 Q1041.58 524.894 1037.97 526.879 Q1034.41 528.824 1029.38 528.824 Q1021.16 528.824 1015.97 522.261 Q1010.83 515.699 1010.83 505.005 Q1010.83 494.31 1015.97 487.748 Q1021.16 481.185 1029.38 481.185 Q1034.41 481.185 1037.97 483.17 Q1041.58 485.115 1043.92 489.165 M1018.53 505.005 Q1018.53 513.228 1021.89 517.927 Q1025.29 522.585 1031.2 522.585 Q1037.12 522.585 1040.52 517.927 Q1043.92 513.228 1043.92 505.005 Q1043.92 496.781 1040.52 492.123 Q1037.12 487.424 1031.2 487.424 Q1025.29 487.424 1021.89 492.123 Q1018.53 496.781 1018.53 505.005 Z" fill="#000000" fill-rule="evenodd" fill-opacity="1" /><path clip-path="url(#clip090)" d="M 0 0 M1093.67 541.422 L1093.67 547.215 L1050.57 547.215 L1050.57 541.422 L1093.67 541.422 Z" fill="#000000" fill-rule="evenodd" fill-opacity="1" /><path clip-path="url(#clip090)" d="M 0 0 M1147.1 471.828 L1147.1 480.456 Q1142.97 476.608 1138.27 474.704 Q1133.61 472.8 1128.35 472.8 Q1117.98 472.8 1112.47 479.16 Q1106.96 485.479 1106.96 497.47 Q1106.96 509.42 1112.47 515.78 Q1117.98 522.099 1128.35 522.099 Q1133.61 522.099 1138.27 520.195 Q1142.97 518.291 1147.1 514.443 L1147.1 522.991 Q1142.81 525.907 1137.99 527.366 Q1133.21 528.824 1127.86 528.824 Q1114.13 528.824 1106.23 520.438 Q1098.33 512.013 1098.33 497.47 Q1098.33 482.887 1106.23 474.501 Q1114.13 466.075 1127.86 466.075 Q1133.29 466.075 1138.07 467.534 Q1142.89 468.951 1147.1 471.828 Z" fill="#000000" fill-rule="evenodd" fill-opacity="1" /><path clip-path="url(#clip090)" d="M 0 0 M1172.5 487.505 Q1166.51 487.505 1163.02 492.204 Q1159.54 496.862 1159.54 505.005 Q1159.54 513.147 1162.98 517.846 Q1166.46 522.504 1172.5 522.504 Q1178.46 522.504 1181.94 517.805 Q1185.42 513.106 1185.42 505.005 Q1185.42 496.943 1181.94 492.244 Q1178.46 487.505 1172.5 487.505 M1172.5 481.185 Q1182.22 481.185 1187.77 487.505 Q1193.32 493.824 1193.32 505.005 Q1193.32 516.145 1187.77 522.504 Q1182.22 528.824 1172.5 528.824 Q1162.74 528.824 1157.19 522.504 Q1151.68 516.145 1151.68 505.005 Q1151.68 493.824 1157.19 487.505 Q1162.74 481.185 1172.5 481.185 Z" fill="#000000" fill-rule="evenodd" fill-opacity="1" /><path clip-path="url(#clip090)" d="M 0 0 M1238.85 500.265 L1238.85 527.649 L1231.4 527.649 L1231.4 500.508 Q1231.4 494.067 1228.89 490.867 Q1226.38 487.667 1221.35 487.667 Q1215.32 487.667 1211.83 491.515 Q1208.35 495.363 1208.35 502.007 L1208.35 527.649 L1200.86 527.649 L1200.86 482.279 L1208.35 482.279 L1208.35 489.328 Q1211.02 485.236 1214.63 483.211 Q1218.28 481.185 1223.02 481.185 Q1230.83 481.185 1234.84 486.046 Q1238.85 490.867 1238.85 500.265 Z" fill="#000000" fill-rule="evenodd" fill-opacity="1" /><path clip-path="url(#clip090)" d="M 0 0 M1275.6 483.616 L1275.6 490.664 Q1272.44 489.044 1269.03 488.234 Q1265.63 487.424 1261.98 487.424 Q1256.44 487.424 1253.64 489.125 Q1250.89 490.826 1250.89 494.229 Q1250.89 496.822 1252.87 498.321 Q1254.86 499.779 1260.85 501.116 L1263.4 501.683 Q1271.34 503.384 1274.66 506.503 Q1278.03 509.582 1278.03 515.132 Q1278.03 521.451 1273 525.138 Q1268.02 528.824 1259.27 528.824 Q1255.63 528.824 1251.66 528.095 Q1247.73 527.406 1243.35 525.988 L1243.35 518.291 Q1247.48 520.438 1251.49 521.532 Q1255.5 522.585 1259.43 522.585 Q1264.7 522.585 1267.53 520.803 Q1270.37 518.98 1270.37 515.699 Q1270.37 512.661 1268.3 511.04 Q1266.28 509.42 1259.35 507.921 L1256.76 507.314 Q1249.83 505.855 1246.75 502.858 Q1243.67 499.819 1243.67 494.553 Q1243.67 488.153 1248.21 484.669 Q1252.75 481.185 1261.09 481.185 Q1265.23 481.185 1268.87 481.793 Q1272.52 482.4 1275.6 483.616 Z" fill="#000000" fill-rule="evenodd" fill-opacity="1" /><path clip-path="url(#clip090)" d="M 0 0 M1285.08 509.744 L1285.08 482.279 L1292.53 482.279 L1292.53 509.461 Q1292.53 515.901 1295.04 519.142 Q1297.55 522.342 1302.58 522.342 Q1308.61 522.342 1312.09 518.494 Q1315.62 514.646 1315.62 508.002 L1315.62 482.279 L1323.07 482.279 L1323.07 527.649 L1315.62 527.649 L1315.62 520.682 Q1312.9 524.813 1309.3 526.839 Q1305.73 528.824 1301 528.824 Q1293.18 528.824 1289.13 523.963 Q1285.08 519.102 1285.08 509.744 M1303.83 481.185 L1303.83 481.185 Z" fill="#000000" fill-rule="evenodd" fill-opacity="1" /><path clip-path="url(#clip090)" d="M 0 0 M1330.89 464.617 L1338.34 464.617 L1338.34 527.649 L1330.89 527.649 L1330.89 464.617 Z" fill="#000000" fill-rule="evenodd" fill-opacity="1" /><path clip-path="url(#clip090)" d="M 0 0 M1353.54 469.397 L1353.54 482.279 L1368.89 482.279 L1368.89 488.072 L1353.54 488.072 L1353.54 512.701 Q1353.54 518.251 1355.03 519.831 Q1356.57 521.411 1361.23 521.411 L1368.89 521.411 L1368.89 527.649 L1361.23 527.649 Q1352.6 527.649 1349.32 524.449 Q1346.04 521.208 1346.04 512.701 L1346.04 488.072 L1340.57 488.072 L1340.57 482.279 L1346.04 482.279 L1346.04 469.397 L1353.54 469.397 Z" fill="#000000" fill-rule="evenodd" fill-opacity="1" /><path clip-path="url(#clip090)" d="M 0 0 M1397.33 504.842 Q1388.29 504.842 1384.81 506.908 Q1381.32 508.974 1381.32 513.957 Q1381.32 517.927 1383.92 520.276 Q1386.55 522.585 1391.05 522.585 Q1397.24 522.585 1400.97 518.21 Q1404.74 513.795 1404.74 506.503 L1404.74 504.842 L1397.33 504.842 M1412.19 501.764 L1412.19 527.649 L1404.74 527.649 L1404.74 520.763 Q1402.19 524.894 1398.38 526.879 Q1394.57 528.824 1389.06 528.824 Q1382.09 528.824 1377.96 524.935 Q1373.87 521.006 1373.87 514.443 Q1373.87 506.787 1378.98 502.898 Q1384.12 499.009 1394.29 499.009 L1404.74 499.009 L1404.74 498.28 Q1404.74 493.135 1401.34 490.34 Q1397.97 487.505 1391.86 487.505 Q1387.97 487.505 1384.28 488.436 Q1380.6 489.368 1377.19 491.231 L1377.19 484.345 Q1381.28 482.765 1385.13 481.995 Q1388.98 481.185 1392.63 481.185 Q1402.47 481.185 1407.33 486.289 Q1412.19 491.393 1412.19 501.764 Z" fill="#000000" fill-rule="evenodd" fill-opacity="1" /><path clip-path="url(#clip090)" d="M 0 0 M1457.72 500.265 L1457.72 527.649 L1450.27 527.649 L1450.27 500.508 Q1450.27 494.067 1447.76 490.867 Q1445.25 487.667 1440.22 487.667 Q1434.19 487.667 1430.71 491.515 Q1427.22 495.363 1427.22 502.007 L1427.22 527.649 L1419.73 527.649 L1419.73 482.279 L1427.22 482.279 L1427.22 489.328 Q1429.89 485.236 1433.5 483.211 Q1437.15 481.185 1441.89 481.185 Q1449.7 481.185 1453.71 486.046 Q1457.72 490.867 1457.72 500.265 Z" fill="#000000" fill-rule="evenodd" fill-opacity="1" /><path clip-path="url(#clip090)" d="M 0 0 M1472.92 469.397 L1472.92 482.279 L1488.27 482.279 L1488.27 488.072 L1472.92 488.072 L1472.92 512.701 Q1472.92 518.251 1474.41 519.831 Q1475.95 521.411 1480.61 521.411 L1488.27 521.411 L1488.27 527.649 L1480.61 527.649 Q1471.98 527.649 1468.7 524.449 Q1465.42 521.208 1465.42 512.701 L1465.42 488.072 L1459.95 488.072 L1459.95 482.279 L1465.42 482.279 L1465.42 469.397 L1472.92 469.397 Z" fill="#000000" fill-rule="evenodd" fill-opacity="1" /><path clip-path="url(#clip090)" d="M 0 0 M1530.56 541.422 L1530.56 547.215 L1487.46 547.215 L1487.46 541.422 L1530.56 541.422 Z" fill="#000000" fill-rule="evenodd" fill-opacity="1" /><path clip-path="url(#clip090)" d="M 0 0 M1567.38 499.293 Q1570.02 500.184 1572.49 503.101 Q1575 506.017 1577.51 511.121 L1585.81 527.649 L1577.02 527.649 L1569.29 512.134 Q1566.29 506.058 1563.45 504.073 Q1560.66 502.088 1555.8 502.088 L1546.89 502.088 L1546.89 527.649 L1538.7 527.649 L1538.7 467.169 L1557.17 467.169 Q1567.54 467.169 1572.65 471.504 Q1577.75 475.838 1577.75 484.588 Q1577.75 490.3 1575.08 494.067 Q1572.45 497.834 1567.38 499.293 M1546.89 473.894 L1546.89 495.363 L1557.17 495.363 Q1563.09 495.363 1566.09 492.649 Q1569.12 489.895 1569.12 484.588 Q1569.12 479.281 1566.09 476.608 Q1563.09 473.894 1557.17 473.894 L1546.89 473.894 Z" fill="#000000" fill-rule="evenodd" fill-opacity="1" /><path clip-path="url(#clip090)" d="M 0 0 M1628.71 503.101 L1628.71 506.746 L1594.44 506.746 Q1594.93 514.443 1599.06 518.494 Q1603.23 522.504 1610.65 522.504 Q1614.94 522.504 1618.95 521.451 Q1623 520.398 1626.97 518.291 L1626.97 525.34 Q1622.96 527.041 1618.75 527.933 Q1614.54 528.824 1610.2 528.824 Q1599.34 528.824 1592.98 522.504 Q1586.66 516.185 1586.66 505.41 Q1586.66 494.27 1592.66 487.748 Q1598.7 481.185 1608.9 481.185 Q1618.06 481.185 1623.37 487.1 Q1628.71 492.973 1628.71 503.101 M1621.26 500.913 Q1621.18 494.796 1617.82 491.15 Q1614.49 487.505 1608.99 487.505 Q1602.75 487.505 1598.98 491.029 Q1595.25 494.553 1594.69 500.954 L1621.26 500.913 Z" fill="#000000" fill-rule="evenodd" fill-opacity="1" /><path clip-path="url(#clip090)" d="M 0 0 M1640.99 505.005 Q1640.99 513.228 1644.35 517.927 Q1647.75 522.585 1653.67 522.585 Q1659.58 522.585 1662.98 517.927 Q1666.39 513.228 1666.39 505.005 Q1666.39 496.781 1662.98 492.123 Q1659.58 487.424 1653.67 487.424 Q1647.75 487.424 1644.35 492.123 Q1640.99 496.781 1640.99 505.005 M1666.39 520.844 Q1664.04 524.894 1660.43 526.879 Q1656.87 528.824 1651.84 528.824 Q1643.62 528.824 1638.44 522.261 Q1633.29 515.699 1633.29 505.005 Q1633.29 494.31 1638.44 487.748 Q1643.62 481.185 1651.84 481.185 Q1656.87 481.185 1660.43 483.17 Q1664.04 485.115 1666.39 489.165 L1666.39 482.279 L1673.84 482.279 L1673.84 544.906 L1666.39 544.906 L1666.39 520.844 Z" fill="#000000" fill-rule="evenodd" fill-opacity="1" /><path clip-path="url(#clip090)" d="M 0 0 M1680.89 509.744 L1680.89 482.279 L1688.34 482.279 L1688.34 509.461 Q1688.34 515.901 1690.85 519.142 Q1693.37 522.342 1698.39 522.342 Q1704.42 522.342 1707.91 518.494 Q1711.43 514.646 1711.43 508.002 L1711.43 482.279 L1718.89 482.279 L1718.89 527.649 L1711.43 527.649 L1711.43 520.682 Q1708.72 524.813 1705.11 526.839 Q1701.55 528.824 1696.81 528.824 Q1688.99 528.824 1684.94 523.963 Q1680.89 519.102 1680.89 509.744 M1699.64 481.185 L1699.64 481.185 Z" fill="#000000" fill-rule="evenodd" fill-opacity="1" /><path clip-path="url(#clip090)" d="M 0 0 M1765.51 503.101 L1765.51 506.746 L1731.24 506.746 Q1731.73 514.443 1735.86 518.494 Q1740.03 522.504 1747.45 522.504 Q1751.74 522.504 1755.75 521.451 Q1759.8 520.398 1763.77 518.291 L1763.77 525.34 Q1759.76 527.041 1755.55 527.933 Q1751.33 528.824 1747 528.824 Q1736.14 528.824 1729.78 522.504 Q1723.46 516.185 1723.46 505.41 Q1723.46 494.27 1729.46 487.748 Q1735.5 481.185 1745.7 481.185 Q1754.86 481.185 1760.17 487.1 Q1765.51 492.973 1765.51 503.101 M1758.06 500.913 Q1757.98 494.796 1754.62 491.15 Q1751.29 487.505 1745.78 487.505 Q1739.55 487.505 1735.78 491.029 Q1732.05 494.553 1731.48 500.954 L1758.06 500.913 Z" fill="#000000" fill-rule="evenodd" fill-opacity="1" /><path clip-path="url(#clip090)" d="M 0 0 M1802.25 483.616 L1802.25 490.664 Q1799.09 489.044 1795.69 488.234 Q1792.29 487.424 1788.64 487.424 Q1783.09 487.424 1780.3 489.125 Q1777.54 490.826 1777.54 494.229 Q1777.54 496.822 1779.53 498.321 Q1781.51 499.779 1787.51 501.116 L1790.06 501.683 Q1798 503.384 1801.32 506.503 Q1804.68 509.582 1804.68 515.132 Q1804.68 521.451 1799.66 525.138 Q1794.68 528.824 1785.93 528.824 Q1782.28 528.824 1778.31 528.095 Q1774.38 527.406 1770.01 525.988 L1770.01 518.291 Q1774.14 520.438 1778.15 521.532 Q1782.16 522.585 1786.09 522.585 Q1791.36 522.585 1794.19 520.803 Q1797.03 518.98 1797.03 515.699 Q1797.03 512.661 1794.96 511.04 Q1792.94 509.42 1786.01 507.921 L1783.42 507.314 Q1776.49 505.855 1773.41 502.858 Q1770.33 499.819 1770.33 494.553 Q1770.33 488.153 1774.87 484.669 Q1779.41 481.185 1787.75 481.185 Q1791.88 481.185 1795.53 481.793 Q1799.18 482.4 1802.25 483.616 Z" fill="#000000" fill-rule="evenodd" fill-opacity="1" /><path clip-path="url(#clip090)" d="M 0 0 M1819.88 469.397 L1819.88 482.279 L1835.23 482.279 L1835.23 488.072 L1819.88 488.072 L1819.88 512.701 Q1819.88 518.251 1821.37 519.831 Q1822.91 521.411 1827.57 521.411 L1835.23 521.411 L1835.23 527.649 L1827.57 527.649 Q1818.94 527.649 1815.66 524.449 Q1812.38 521.208 1812.38 512.701 L1812.38 488.072 L1806.91 488.072 L1806.91 482.279 L1812.38 482.279 L1812.38 469.397 L1819.88 469.397 Z" fill="#000000" fill-rule="evenodd" fill-opacity="1" /><path clip-path="url(#clip090)" d="M 0 0 M1871.97 483.616 L1871.97 490.664 Q1868.81 489.044 1865.41 488.234 Q1862 487.424 1858.36 487.424 Q1852.81 487.424 1850.01 489.125 Q1847.26 490.826 1847.26 494.229 Q1847.26 496.822 1849.24 498.321 Q1851.23 499.779 1857.22 501.116 L1859.78 501.683 Q1867.72 503.384 1871.04 506.503 Q1874.4 509.582 1874.4 515.132 Q1874.4 521.451 1869.38 525.138 Q1864.39 528.824 1855.64 528.824 Q1852 528.824 1848.03 528.095 Q1844.1 527.406 1839.72 525.988 L1839.72 518.291 Q1843.86 520.438 1847.87 521.532 Q1851.88 522.585 1855.81 522.585 Q1861.07 522.585 1863.91 520.803 Q1866.74 518.98 1866.74 515.699 Q1866.74 512.661 1864.68 511.04 Q1862.65 509.42 1855.73 507.921 L1853.13 507.314 Q1846.21 505.855 1843.13 502.858 Q1840.05 499.819 1840.05 494.553 Q1840.05 488.153 1844.59 484.669 Q1849.12 481.185 1857.47 481.185 Q1861.6 481.185 1865.25 481.793 Q1868.89 482.4 1871.97 483.616 Z" fill="#000000" fill-rule="evenodd" fill-opacity="1" /><path clip-path="url(#clip090)" d="M 0 0 M1965.23 1057.87 L1965.23 1104.9 L1975.11 1104.9 Q1987.63 1104.9 1993.42 1099.23 Q1999.25 1093.56 1999.25 1081.33 Q1999.25 1069.17 1993.42 1063.54 Q1987.63 1057.87 1975.11 1057.87 L1965.23 1057.87 M1957.04 1051.15 L1973.86 1051.15 Q1991.44 1051.15 1999.66 1058.48 Q2007.88 1065.77 2007.88 1081.33 Q2007.88 1096.96 1999.62 1104.3 Q1991.35 1111.63 1973.86 1111.63 L1957.04 1111.63 L1957.04 1051.15 Z" fill="#000000" fill-rule="evenodd" fill-opacity="1" /><path clip-path="url(#clip090)" d="M 0 0 M2054.51 1087.08 L2054.51 1090.72 L2020.24 1090.72 Q2020.72 1098.42 2024.86 1102.47 Q2029.03 1106.48 2036.44 1106.48 Q2040.74 1106.48 2044.75 1105.43 Q2048.8 1104.38 2052.77 1102.27 L2052.77 1109.32 Q2048.76 1111.02 2044.54 1111.91 Q2040.33 1112.8 2036 1112.8 Q2025.14 1112.8 2018.78 1106.48 Q2012.46 1100.16 2012.46 1089.39 Q2012.46 1078.25 2018.46 1071.73 Q2024.49 1065.16 2034.7 1065.16 Q2043.85 1065.16 2049.16 1071.08 Q2054.51 1076.95 2054.51 1087.08 M2047.05 1084.89 Q2046.97 1078.77 2043.61 1075.13 Q2040.29 1071.48 2034.78 1071.48 Q2028.54 1071.48 2024.77 1075.01 Q2021.05 1078.53 2020.48 1084.93 L2047.05 1084.89 Z" fill="#000000" fill-rule="evenodd" fill-opacity="1" /><path clip-path="url(#clip090)" d="M 0 0 M2091.25 1067.59 L2091.25 1074.64 Q2088.09 1073.02 2084.69 1072.21 Q2081.28 1071.4 2077.64 1071.4 Q2072.09 1071.4 2069.29 1073.1 Q2066.54 1074.8 2066.54 1078.21 Q2066.54 1080.8 2068.52 1082.3 Q2070.51 1083.76 2076.5 1085.09 L2079.06 1085.66 Q2087 1087.36 2090.32 1090.48 Q2093.68 1093.56 2093.68 1099.11 Q2093.68 1105.43 2088.66 1109.12 Q2083.68 1112.8 2074.93 1112.8 Q2071.28 1112.8 2067.31 1112.07 Q2063.38 1111.38 2059.01 1109.97 L2059.01 1102.27 Q2063.14 1104.42 2067.15 1105.51 Q2071.16 1106.56 2075.09 1106.56 Q2080.35 1106.56 2083.19 1104.78 Q2086.02 1102.96 2086.02 1099.68 Q2086.02 1096.64 2083.96 1095.02 Q2081.93 1093.4 2075.01 1091.9 L2072.41 1091.29 Q2065.49 1089.83 2062.41 1086.84 Q2059.33 1083.8 2059.33 1078.53 Q2059.33 1072.13 2063.87 1068.65 Q2068.4 1065.16 2076.75 1065.16 Q2080.88 1065.16 2084.53 1065.77 Q2088.17 1066.38 2091.25 1067.59 Z" fill="#000000" fill-rule="evenodd" fill-opacity="1" /><path clip-path="url(#clip090)" d="M 0 0 M2101.5 1066.26 L2108.95 1066.26 L2108.95 1111.63 L2101.5 1111.63 L2101.5 1066.26 M2101.5 1048.6 L2108.95 1048.6 L2108.95 1058.03 L2101.5 1058.03 L2101.5 1048.6 Z" fill="#000000" fill-rule="evenodd" fill-opacity="1" /><path clip-path="url(#clip090)" d="M 0 0 M2146.63 1088.42 Q2146.63 1080.31 2143.26 1075.86 Q2139.94 1071.4 2133.91 1071.4 Q2127.91 1071.4 2124.55 1075.86 Q2121.23 1080.31 2121.23 1088.42 Q2121.23 1096.48 2124.55 1100.93 Q2127.91 1105.39 2133.91 1105.39 Q2139.94 1105.39 2143.26 1100.93 Q2146.63 1096.48 2146.63 1088.42 M2154.08 1106 Q2154.08 1117.58 2148.94 1123.21 Q2143.79 1128.88 2133.18 1128.88 Q2129.25 1128.88 2125.76 1128.28 Q2122.28 1127.71 2119 1126.49 L2119 1119.24 Q2122.28 1121.03 2125.48 1121.88 Q2128.68 1122.73 2132 1122.73 Q2139.33 1122.73 2142.98 1118.88 Q2146.63 1115.07 2146.63 1107.33 L2146.63 1103.65 Q2144.32 1107.66 2140.71 1109.64 Q2137.11 1111.63 2132.08 1111.63 Q2123.74 1111.63 2118.63 1105.27 Q2113.53 1098.91 2113.53 1088.42 Q2113.53 1077.88 2118.63 1071.52 Q2123.74 1065.16 2132.08 1065.16 Q2137.11 1065.16 2140.71 1067.15 Q2144.32 1069.13 2146.63 1073.14 L2146.63 1066.26 L2154.08 1066.26 L2154.08 1106 Z" fill="#000000" fill-rule="evenodd" fill-opacity="1" /><path clip-path="url(#clip090)" d="M 0 0 M2199.61 1084.24 L2199.61 1111.63 L2192.16 1111.63 L2192.16 1084.49 Q2192.16 1078.05 2189.65 1074.85 Q2187.14 1071.64 2182.11 1071.64 Q2176.08 1071.64 2172.59 1075.49 Q2169.11 1079.34 2169.11 1085.99 L2169.11 1111.63 L2161.61 1111.63 L2161.61 1066.26 L2169.11 1066.26 L2169.11 1073.31 Q2171.78 1069.21 2175.39 1067.19 Q2179.03 1065.16 2183.77 1065.16 Q2191.59 1065.16 2195.6 1070.02 Q2199.61 1074.85 2199.61 1084.24 Z" fill="#000000" fill-rule="evenodd" fill-opacity="1" /><path clip-path="url(#clip090)" d="M 0 0 M2241.9 1125.4 L2241.9 1131.19 L2198.8 1131.19 L2198.8 1125.4 L2241.9 1125.4 Z" fill="#000000" fill-rule="evenodd" fill-opacity="1" /><path clip-path="url(#clip090)" d="M 0 0 M2278.73 1083.27 Q2281.36 1084.16 2283.83 1087.08 Q2286.34 1090 2288.85 1095.1 L2297.16 1111.63 L2288.37 1111.63 L2280.63 1096.11 Q2277.63 1090.04 2274.8 1088.05 Q2272 1086.07 2267.14 1086.07 L2258.23 1086.07 L2258.23 1111.63 L2250.05 1111.63 L2250.05 1051.15 L2268.52 1051.15 Q2278.89 1051.15 2283.99 1055.48 Q2289.1 1059.82 2289.1 1068.57 Q2289.1 1074.28 2286.42 1078.05 Q2283.79 1081.81 2278.73 1083.27 M2258.23 1057.87 L2258.23 1079.34 L2268.52 1079.34 Q2274.43 1079.34 2277.43 1076.63 Q2280.47 1073.87 2280.47 1068.57 Q2280.47 1063.26 2277.43 1060.59 Q2274.43 1057.87 2268.52 1057.87 L2258.23 1057.87 Z" fill="#000000" fill-rule="evenodd" fill-opacity="1" /><path clip-path="url(#clip090)" d="M 0 0 M2340.06 1087.08 L2340.06 1090.72 L2305.79 1090.72 Q2306.27 1098.42 2310.4 1102.47 Q2314.58 1106.48 2321.99 1106.48 Q2326.28 1106.48 2330.29 1105.43 Q2334.34 1104.38 2338.31 1102.27 L2338.31 1109.32 Q2334.3 1111.02 2330.09 1111.91 Q2325.88 1112.8 2321.54 1112.8 Q2310.69 1112.8 2304.33 1106.48 Q2298.01 1100.16 2298.01 1089.39 Q2298.01 1078.25 2304 1071.73 Q2310.04 1065.16 2320.25 1065.16 Q2329.4 1065.16 2334.71 1071.08 Q2340.06 1076.95 2340.06 1087.08 M2332.6 1084.89 Q2332.52 1078.77 2329.16 1075.13 Q2325.84 1071.48 2320.33 1071.48 Q2314.09 1071.48 2310.32 1075.01 Q2306.6 1078.53 2306.03 1084.93 L2332.6 1084.89 Z" fill="#000000" fill-rule="evenodd" fill-opacity="1" /><path clip-path="url(#clip090)" d="M 0 0 M2368.49 1088.82 Q2359.46 1088.82 2355.98 1090.89 Q2352.49 1092.95 2352.49 1097.94 Q2352.49 1101.91 2355.09 1104.25 Q2357.72 1106.56 2362.22 1106.56 Q2368.41 1106.56 2372.14 1102.19 Q2375.91 1097.77 2375.91 1090.48 L2375.91 1088.82 L2368.49 1088.82 M2383.36 1085.74 L2383.36 1111.63 L2375.91 1111.63 L2375.91 1104.74 Q2373.36 1108.87 2369.55 1110.86 Q2365.74 1112.8 2360.23 1112.8 Q2353.26 1112.8 2349.13 1108.91 Q2345.04 1104.98 2345.04 1098.42 Q2345.04 1090.77 2350.14 1086.88 Q2355.29 1082.99 2365.46 1082.99 L2375.91 1082.99 L2375.91 1082.26 Q2375.91 1077.11 2372.5 1074.32 Q2369.14 1071.48 2363.03 1071.48 Q2359.14 1071.48 2355.45 1072.41 Q2351.76 1073.35 2348.36 1075.21 L2348.36 1068.32 Q2352.45 1066.74 2356.3 1065.97 Q2360.15 1065.16 2363.8 1065.16 Q2373.64 1065.16 2378.5 1070.27 Q2383.36 1075.37 2383.36 1085.74 Z" fill="#000000" fill-rule="evenodd" fill-opacity="1" /><path clip-path="url(#clip090)" d="M 0 0 M2420.1 1067.59 L2420.1 1074.64 Q2416.94 1073.02 2413.54 1072.21 Q2410.14 1071.4 2406.49 1071.4 Q2400.94 1071.4 2398.15 1073.1 Q2395.39 1074.8 2395.39 1078.21 Q2395.39 1080.8 2397.38 1082.3 Q2399.36 1083.76 2405.36 1085.09 L2407.91 1085.66 Q2415.85 1087.36 2419.17 1090.48 Q2422.53 1093.56 2422.53 1099.11 Q2422.53 1105.43 2417.51 1109.12 Q2412.53 1112.8 2403.78 1112.8 Q2400.13 1112.8 2396.16 1112.07 Q2392.23 1111.38 2387.86 1109.97 L2387.86 1102.27 Q2391.99 1104.42 2396 1105.51 Q2400.01 1106.56 2403.94 1106.56 Q2409.21 1106.56 2412.04 1104.78 Q2414.88 1102.96 2414.88 1099.68 Q2414.88 1096.64 2412.81 1095.02 Q2410.79 1093.4 2403.86 1091.9 L2401.27 1091.29 Q2394.34 1089.83 2391.26 1086.84 Q2388.18 1083.8 2388.18 1078.53 Q2388.18 1072.13 2392.72 1068.65 Q2397.26 1065.16 2405.6 1065.16 Q2409.73 1065.16 2413.38 1065.77 Q2417.02 1066.38 2420.1 1067.59 Z" fill="#000000" fill-rule="evenodd" fill-opacity="1" /><path clip-path="url(#clip090)" d="M 0 0 M2447.93 1071.48 Q2441.94 1071.48 2438.45 1076.18 Q2434.97 1080.84 2434.97 1088.98 Q2434.97 1097.13 2438.41 1101.82 Q2441.9 1106.48 2447.93 1106.48 Q2453.89 1106.48 2457.37 1101.78 Q2460.85 1097.08 2460.85 1088.98 Q2460.85 1080.92 2457.37 1076.22 Q2453.89 1071.48 2447.93 1071.48 M2447.93 1065.16 Q2457.65 1065.16 2463.2 1071.48 Q2468.75 1077.8 2468.75 1088.98 Q2468.75 1100.12 2463.2 1106.48 Q2457.65 1112.8 2447.93 1112.8 Q2438.17 1112.8 2432.62 1106.48 Q2427.11 1100.12 2427.11 1088.98 Q2427.11 1077.8 2432.62 1071.48 Q2438.17 1065.16 2447.93 1065.16 Z" fill="#000000" fill-rule="evenodd" fill-opacity="1" /><path clip-path="url(#clip090)" d="M 0 0 M2514.29 1084.24 L2514.29 1111.63 L2506.83 1111.63 L2506.83 1084.49 Q2506.83 1078.05 2504.32 1074.85 Q2501.81 1071.64 2496.79 1071.64 Q2490.75 1071.64 2487.27 1075.49 Q2483.78 1079.34 2483.78 1085.99 L2483.78 1111.63 L2476.29 1111.63 L2476.29 1066.26 L2483.78 1066.26 L2483.78 1073.31 Q2486.46 1069.21 2490.06 1067.19 Q2493.71 1065.16 2498.45 1065.16 Q2506.27 1065.16 2510.28 1070.02 Q2514.29 1074.85 2514.29 1084.24 Z" fill="#000000" fill-rule="evenodd" fill-opacity="1" /><path clip-path="url(#clip090)" d="M 0 0 M2522.1 1066.26 L2529.56 1066.26 L2529.56 1111.63 L2522.1 1111.63 L2522.1 1066.26 M2522.1 1048.6 L2529.56 1048.6 L2529.56 1058.03 L2522.1 1058.03 L2522.1 1048.6 Z" fill="#000000" fill-rule="evenodd" fill-opacity="1" /><path clip-path="url(#clip090)" d="M 0 0 M2575.09 1084.24 L2575.09 1111.63 L2567.64 1111.63 L2567.64 1084.49 Q2567.64 1078.05 2565.12 1074.85 Q2562.61 1071.64 2557.59 1071.64 Q2551.55 1071.64 2548.07 1075.49 Q2544.59 1079.34 2544.59 1085.99 L2544.59 1111.63 L2537.09 1111.63 L2537.09 1066.26 L2544.59 1066.26 L2544.59 1073.31 Q2547.26 1069.21 2550.87 1067.19 Q2554.51 1065.16 2559.25 1065.16 Q2567.07 1065.16 2571.08 1070.02 Q2575.09 1074.85 2575.09 1084.24 Z" fill="#000000" fill-rule="evenodd" fill-opacity="1" /><path clip-path="url(#clip090)" d="M 0 0 M2612.76 1088.42 Q2612.76 1080.31 2609.4 1075.86 Q2606.08 1071.4 2600.04 1071.4 Q2594.05 1071.4 2590.69 1075.86 Q2587.36 1080.31 2587.36 1088.42 Q2587.36 1096.48 2590.69 1100.93 Q2594.05 1105.39 2600.04 1105.39 Q2606.08 1105.39 2609.4 1100.93 Q2612.76 1096.48 2612.76 1088.42 M2620.22 1106 Q2620.22 1117.58 2615.07 1123.21 Q2609.93 1128.88 2599.31 1128.88 Q2595.39 1128.88 2591.9 1128.28 Q2588.42 1127.71 2585.14 1126.49 L2585.14 1119.24 Q2588.42 1121.03 2591.62 1121.88 Q2594.82 1122.73 2598.14 1122.73 Q2605.47 1122.73 2609.12 1118.88 Q2612.76 1115.07 2612.76 1107.33 L2612.76 1103.65 Q2610.45 1107.66 2606.85 1109.64 Q2603.24 1111.63 2598.22 1111.63 Q2589.88 1111.63 2584.77 1105.27 Q2579.67 1098.91 2579.67 1088.42 Q2579.67 1077.88 2584.77 1071.52 Q2589.88 1065.16 2598.22 1065.16 Q2603.24 1065.16 2606.85 1067.15 Q2610.45 1069.13 2612.76 1073.14 L2612.76 1066.26 L2620.22 1066.26 L2620.22 1106 Z" fill="#000000" fill-rule="evenodd" fill-opacity="1" /><path clip-path="url(#clip090)" d="M 0 0 M-39.194 63.3729 L-39.194 72.0014 Q-43.3259 68.153 -48.0249 66.2491 Q-52.6835 64.3451 -57.9497 64.3451 Q-68.32 64.3451 -73.8292 70.7051 Q-79.3384 77.0245 -79.3384 89.0152 Q-79.3384 100.965 -73.8292 107.325 Q-68.32 113.645 -57.9497 113.645 Q-52.6835 113.645 -48.0249 111.741 Q-43.3259 109.837 -39.194 105.988 L-39.194 114.536 Q-43.4879 117.453 -48.3085 118.911 Q-53.0886 120.369 -58.4358 120.369 Q-72.1683 120.369 -80.0676 111.984 Q-87.9669 103.558 -87.9669 89.0152 Q-87.9669 74.4319 -80.0676 66.0465 Q-72.1683 57.6206 -58.4358 57.6206 Q-53.0075 57.6206 -48.2275 59.079 Q-43.4069 60.4968 -39.194 63.3729 Z" fill="#000000" fill-rule="evenodd" fill-opacity="1" /><path clip-path="url(#clip090)" d="M 0 0 M-13.7948 79.0499 Q-19.7901 79.0499 -23.2739 83.749 Q-26.7577 88.4075 -26.7577 96.5498 Q-26.7577 104.692 -23.3144 109.391 Q-19.8306 114.05 -13.7948 114.05 Q-7.83997 114.05 -4.35619 109.351 Q-0.87241 104.652 -0.87241 96.5498 Q-0.87241 88.4885 -4.35619 83.7895 Q-7.83997 79.0499 -13.7948 79.0499 M-13.7948 72.7305 Q-4.07262 72.7305 1.47711 79.0499 Q7.02685 85.3693 7.02685 96.5498 Q7.02685 107.69 1.47711 114.05 Q-4.07262 120.369 -13.7948 120.369 Q-23.5575 120.369 -29.1072 114.05 Q-34.6164 107.69 -34.6164 96.5498 Q-34.6164 85.3693 -29.1072 79.0499 Q-23.5575 72.7305 -13.7948 72.7305 Z" fill="#000000" fill-rule="evenodd" fill-opacity="1" /><path clip-path="url(#clip090)" d="M 0 0 M14.8451 56.1623 L22.2988 56.1623 L22.2988 119.194 L14.8451 119.194 L14.8451 56.1623 Z" fill="#000000" fill-rule="evenodd" fill-opacity="1" /><path clip-path="url(#clip090)" d="M 0 0 M30.117 56.1623 L37.5707 56.1623 L37.5707 119.194 L30.117 119.194 L30.117 56.1623 Z" fill="#000000" fill-rule="evenodd" fill-opacity="1" /><path clip-path="url(#clip090)" d="M 0 0 M66.008 96.3878 Q56.9745 96.3878 53.4907 98.4538 Q50.0069 100.52 50.0069 105.502 Q50.0069 109.472 52.5995 111.822 Q55.2326 114.131 59.7291 114.131 Q65.927 114.131 69.6538 109.756 Q73.4212 105.34 73.4212 98.0487 L73.4212 96.3878 L66.008 96.3878 M80.8748 93.3091 L80.8748 119.194 L73.4212 119.194 L73.4212 112.308 Q70.8691 116.44 67.0613 118.425 Q63.2534 120.369 57.7442 120.369 Q50.7766 120.369 46.6447 116.48 Q42.5533 112.551 42.5533 105.988 Q42.5533 98.3322 47.6574 94.4434 Q52.8021 90.5545 62.9698 90.5545 L73.4212 90.5545 L73.4212 89.8253 Q73.4212 84.6807 70.0184 81.8856 Q66.6562 79.0499 60.5393 79.0499 Q56.6504 79.0499 52.9641 79.9816 Q49.2778 80.9133 45.875 82.7768 L45.875 75.8902 Q49.9664 74.3104 53.8148 73.5407 Q57.6632 72.7305 61.309 72.7305 Q71.1527 72.7305 76.0138 77.8347 Q80.8748 82.9388 80.8748 93.3091 Z" fill="#000000" fill-rule="evenodd" fill-opacity="1" /><path clip-path="url(#clip090)" d="M 0 0 M121.262 96.5498 Q121.262 88.3265 117.86 83.668 Q114.497 78.9689 108.583 78.9689 Q102.669 78.9689 99.2659 83.668 Q95.9037 88.3265 95.9037 96.5498 Q95.9037 104.773 99.2659 109.472 Q102.669 114.131 108.583 114.131 Q114.497 114.131 117.86 109.472 Q121.262 104.773 121.262 96.5498 M95.9037 80.7108 Q98.2532 76.6599 101.818 74.7155 Q105.423 72.7305 110.406 72.7305 Q118.67 72.7305 123.814 79.293 Q129 85.8554 129 96.5498 Q129 107.244 123.814 113.807 Q118.67 120.369 110.406 120.369 Q105.423 120.369 101.818 118.425 Q98.2532 116.44 95.9037 112.389 L95.9037 119.194 L88.4095 119.194 L88.4095 56.1623 L95.9037 56.1623 L95.9037 80.7108 Z" fill="#000000" fill-rule="evenodd" fill-opacity="1" /><path clip-path="url(#clip090)" d="M 0 0 M154.399 79.0499 Q148.403 79.0499 144.92 83.749 Q141.436 88.4075 141.436 96.5498 Q141.436 104.692 144.879 109.391 Q148.363 114.05 154.399 114.05 Q160.354 114.05 163.837 109.351 Q167.321 104.652 167.321 96.5498 Q167.321 88.4885 163.837 83.7895 Q160.354 79.0499 154.399 79.0499 M154.399 72.7305 Q164.121 72.7305 169.671 79.0499 Q175.22 85.3693 175.22 96.5498 Q175.22 107.69 169.671 114.05 Q164.121 120.369 154.399 120.369 Q144.636 120.369 139.086 114.05 Q133.577 107.69 133.577 96.5498 Q133.577 85.3693 139.086 79.0499 Q144.636 72.7305 154.399 72.7305 Z" fill="#000000" fill-rule="evenodd" fill-opacity="1" /><path clip-path="url(#clip090)" d="M 0 0 M209.329 80.7918 Q208.073 80.0627 206.574 79.7386 Q205.116 79.374 203.334 79.374 Q197.014 79.374 193.612 83.5059 Q190.249 87.5973 190.249 95.2941 L190.249 119.194 L182.755 119.194 L182.755 73.8243 L190.249 73.8243 L190.249 80.8728 Q192.599 76.7409 196.366 74.756 Q200.133 72.7305 205.521 72.7305 Q206.291 72.7305 207.223 72.852 Q208.154 72.9331 209.289 73.1356 L209.329 80.7918 Z" fill="#000000" fill-rule="evenodd" fill-opacity="1" /><path clip-path="url(#clip090)" d="M 0 0 M237.766 96.3878 Q228.733 96.3878 225.249 98.4538 Q221.765 100.52 221.765 105.502 Q221.765 109.472 224.358 111.822 Q226.991 114.131 231.487 114.131 Q237.685 114.131 241.412 109.756 Q245.18 105.34 245.18 98.0487 L245.18 96.3878 L237.766 96.3878 M252.633 93.3091 L252.633 119.194 L245.18 119.194 L245.18 112.308 Q242.627 116.44 238.82 118.425 Q235.012 120.369 229.503 120.369 Q222.535 120.369 218.403 116.48 Q214.312 112.551 214.312 105.988 Q214.312 98.3322 219.416 94.4434 Q224.56 90.5545 234.728 90.5545 L245.18 90.5545 L245.18 89.8253 Q245.18 84.6807 241.777 81.8856 Q238.415 79.0499 232.298 79.0499 Q228.409 79.0499 224.722 79.9816 Q221.036 80.9133 217.633 82.7768 L217.633 75.8902 Q221.725 74.3104 225.573 73.5407 Q229.421 72.7305 233.067 72.7305 Q242.911 72.7305 247.772 77.8347 Q252.633 82.9388 252.633 93.3091 Z" fill="#000000" fill-rule="evenodd" fill-opacity="1" /><path clip-path="url(#clip090)" d="M 0 0 M267.824 60.9424 L267.824 73.8243 L283.177 73.8243 L283.177 79.6171 L267.824 79.6171 L267.824 104.247 Q267.824 109.796 269.323 111.376 Q270.862 112.956 275.521 112.956 L283.177 112.956 L283.177 119.194 L275.521 119.194 Q266.892 119.194 263.611 115.994 Q260.33 112.753 260.33 104.247 L260.33 79.6171 L254.861 79.6171 L254.861 73.8243 L260.33 73.8243 L260.33 60.9424 L267.824 60.9424 Z" fill="#000000" fill-rule="evenodd" fill-opacity="1" /><path clip-path="url(#clip090)" d="M 0 0 M290.995 73.8243 L298.449 73.8243 L298.449 119.194 L290.995 119.194 L290.995 73.8243 M290.995 56.1623 L298.449 56.1623 L298.449 65.6009 L290.995 65.6009 L290.995 56.1623 Z" fill="#000000" fill-rule="evenodd" fill-opacity="1" /><path clip-path="url(#clip090)" d="M 0 0 M323.848 79.0499 Q317.853 79.0499 314.369 83.749 Q310.885 88.4075 310.885 96.5498 Q310.885 104.692 314.328 109.391 Q317.812 114.05 323.848 114.05 Q329.803 114.05 333.287 109.351 Q336.77 104.652 336.77 96.5498 Q336.77 88.4885 333.287 83.7895 Q329.803 79.0499 323.848 79.0499 M323.848 72.7305 Q333.57 72.7305 339.12 79.0499 Q344.67 85.3693 344.67 96.5498 Q344.67 107.69 339.12 114.05 Q333.57 120.369 323.848 120.369 Q314.085 120.369 308.536 114.05 Q303.026 107.69 303.026 96.5498 Q303.026 85.3693 308.536 79.0499 Q314.085 72.7305 323.848 72.7305 Z" fill="#000000" fill-rule="evenodd" fill-opacity="1" /><path clip-path="url(#clip090)" d="M 0 0 M390.202 91.8103 L390.202 119.194 L382.748 119.194 L382.748 92.0533 Q382.748 85.6124 380.237 82.4122 Q377.725 79.212 372.702 79.212 Q366.666 79.212 363.182 83.0603 Q359.699 86.9087 359.699 93.5522 L359.699 119.194 L352.204 119.194 L352.204 73.8243 L359.699 73.8243 L359.699 80.8728 Q362.372 76.7814 365.977 74.756 Q369.623 72.7305 374.363 72.7305 Q382.181 72.7305 386.191 77.5916 Q390.202 82.4122 390.202 91.8103 Z" fill="#000000" fill-rule="evenodd" fill-opacity="1" /></svg>
