<?xml version="1.0" encoding="utf-8"?>
<svg xmlns="http://www.w3.org/2000/svg" xmlns:xlink="http://www.w3.org/1999/xlink" width="500" height="500" viewBox="0 0 2000 2000">
<defs>
  <clipPath id="clip770">
    <rect x="0" y="0" width="2000" height="2000"/>
  </clipPath>
</defs>
<path clip-path="url(#clip770)" d="
M0 2000 L2000 2000 L2000 0 L0 0  Z
  " fill="#ffffff" fill-rule="evenodd" fill-opacity="1"/>
<defs>
  <clipPath id="clip771">
    <rect x="400" y="200" width="1401" height="1401"/>
  </clipPath>
</defs>
<path clip-path="url(#clip770)" d="
M240.472 1759.53 L1811.02 1759.53 L1811.02 188.976 L240.472 188.976  Z
  " fill="#ffffff" fill-rule="evenodd" fill-opacity="1"/>
<defs>
  <clipPath id="clip772">
    <rect x="240" y="188" width="1572" height="1572"/>
  </clipPath>
</defs>
<polyline clip-path="url(#clip772)" style="stroke:#000000; stroke-width:2; stroke-opacity:0.1; fill:none" points="
  240.472,1759.53 240.472,188.976 
  "/>
<polyline clip-path="url(#clip772)" style="stroke:#000000; stroke-width:2; stroke-opacity:0.1; fill:none" points="
  1025.75,1759.53 1025.75,188.976 
  "/>
<polyline clip-path="url(#clip772)" style="stroke:#000000; stroke-width:2; stroke-opacity:0.1; fill:none" points="
  1811.02,1759.53 1811.02,188.976 
  "/>
<polyline clip-path="url(#clip772)" style="stroke:#000000; stroke-width:2; stroke-opacity:0.1; fill:none" points="
  240.472,1759.53 1811.02,1759.53 
  "/>
<polyline clip-path="url(#clip772)" style="stroke:#000000; stroke-width:2; stroke-opacity:0.1; fill:none" points="
  240.472,974.252 1811.02,974.252 
  "/>
<polyline clip-path="url(#clip772)" style="stroke:#000000; stroke-width:2; stroke-opacity:0.1; fill:none" points="
  240.472,188.976 1811.02,188.976 
  "/>
<polyline clip-path="url(#clip770)" style="stroke:#000000; stroke-width:4; stroke-opacity:1; fill:none" points="
  240.472,1759.53 1811.02,1759.53 
  "/>
<polyline clip-path="url(#clip770)" style="stroke:#000000; stroke-width:4; stroke-opacity:1; fill:none" points="
  240.472,1759.53 240.472,188.976 
  "/>
<polyline clip-path="url(#clip770)" style="stroke:#000000; stroke-width:4; stroke-opacity:1; fill:none" points="
  240.472,1759.53 240.472,1740.68 
  "/>
<polyline clip-path="url(#clip770)" style="stroke:#000000; stroke-width:4; stroke-opacity:1; fill:none" points="
  1025.75,1759.53 1025.75,1740.68 
  "/>
<polyline clip-path="url(#clip770)" style="stroke:#000000; stroke-width:4; stroke-opacity:1; fill:none" points="
  1811.02,1759.53 1811.02,1740.68 
  "/>
<polyline clip-path="url(#clip770)" style="stroke:#000000; stroke-width:4; stroke-opacity:1; fill:none" points="
  240.472,1759.53 259.319,1759.53 
  "/>
<polyline clip-path="url(#clip770)" style="stroke:#000000; stroke-width:4; stroke-opacity:1; fill:none" points="
  240.472,974.252 259.319,974.252 
  "/>
<polyline clip-path="url(#clip770)" style="stroke:#000000; stroke-width:4; stroke-opacity:1; fill:none" points="
  240.472,188.976 259.319,188.976 
  "/>
<path clip-path="url(#clip770)" d="M 0 0 M221.341 1796.12 L233.817 1796.12 L233.817 1799.91 L221.341 1799.91 L221.341 1796.12 Z" fill="#000000" fill-rule="evenodd" fill-opacity="1" /><path clip-path="url(#clip770)" d="M 0 0 M239.697 1807.06 L247.336 1807.06 L247.336 1780.7 L239.026 1782.37 L239.026 1778.11 L247.29 1776.44 L251.965 1776.44 L251.965 1807.06 L259.604 1807.06 L259.604 1811 L239.697 1811 L239.697 1807.06 Z" fill="#000000" fill-rule="evenodd" fill-opacity="1" /><path clip-path="url(#clip770)" d="M 0 0 M1025.75 1779.52 Q1022.14 1779.52 1020.31 1783.08 Q1018.5 1786.62 1018.5 1793.75 Q1018.5 1800.86 1020.31 1804.43 Q1022.14 1807.97 1025.75 1807.97 Q1029.38 1807.97 1031.19 1804.43 Q1033.02 1800.86 1033.02 1793.75 Q1033.02 1786.62 1031.19 1783.08 Q1029.38 1779.52 1025.75 1779.52 M1025.75 1775.81 Q1031.56 1775.81 1034.61 1780.42 Q1037.69 1785 1037.69 1793.75 Q1037.69 1802.48 1034.61 1807.09 Q1031.56 1811.67 1025.75 1811.67 Q1019.94 1811.67 1016.86 1807.09 Q1013.8 1802.48 1013.8 1793.75 Q1013.8 1785 1016.86 1780.42 Q1019.94 1775.81 1025.75 1775.81 Z" fill="#000000" fill-rule="evenodd" fill-opacity="1" /><path clip-path="url(#clip770)" d="M 0 0 M1801.41 1807.06 L1809.04 1807.06 L1809.04 1780.7 L1800.73 1782.37 L1800.73 1778.11 L1809 1776.44 L1813.67 1776.44 L1813.67 1807.06 L1821.31 1807.06 L1821.31 1811 L1801.41 1811 L1801.41 1807.06 Z" fill="#000000" fill-rule="evenodd" fill-opacity="1" /><path clip-path="url(#clip770)" d="M 0 0 M182.209 1761.92 L194.686 1761.92 L194.686 1765.72 L182.209 1765.72 L182.209 1761.92 Z" fill="#000000" fill-rule="evenodd" fill-opacity="1" /><path clip-path="url(#clip770)" d="M 0 0 M200.565 1772.87 L208.204 1772.87 L208.204 1746.51 L199.894 1748.17 L199.894 1743.91 L208.158 1742.25 L212.834 1742.25 L212.834 1772.87 L220.472 1772.87 L220.472 1776.81 L200.565 1776.81 L200.565 1772.87 Z" fill="#000000" fill-rule="evenodd" fill-opacity="1" /><path clip-path="url(#clip770)" d="M 0 0 M208.528 960.051 Q204.917 960.051 203.088 963.615 Q201.283 967.157 201.283 974.287 Q201.283 981.393 203.088 984.958 Q204.917 988.5 208.528 988.5 Q212.162 988.5 213.968 984.958 Q215.797 981.393 215.797 974.287 Q215.797 967.157 213.968 963.615 Q212.162 960.051 208.528 960.051 M208.528 956.347 Q214.338 956.347 217.394 960.953 Q220.472 965.537 220.472 974.287 Q220.472 983.013 217.394 987.62 Q214.338 992.203 208.528 992.203 Q202.718 992.203 199.639 987.62 Q196.584 983.013 196.584 974.287 Q196.584 965.537 199.639 960.953 Q202.718 956.347 208.528 956.347 Z" fill="#000000" fill-rule="evenodd" fill-opacity="1" /><path clip-path="url(#clip770)" d="M 0 0 M200.565 202.321 L208.204 202.321 L208.204 175.956 L199.894 177.622 L199.894 173.363 L208.158 171.696 L212.834 171.696 L212.834 202.321 L220.472 202.321 L220.472 206.256 L200.565 206.256 L200.565 202.321 Z" fill="#000000" fill-rule="evenodd" fill-opacity="1" /><path clip-path="url(#clip770)" d="M 0 0 M911.866 1840.87 L918.772 1840.87 L930.581 1858.54 L942.453 1840.87 L949.36 1840.87 L934.082 1863.69 L950.378 1888.39 L943.471 1888.39 L930.103 1868.18 L916.64 1888.39 L909.701 1888.39 L926.666 1863.02 L911.866 1840.87 Z" fill="#000000" fill-rule="evenodd" fill-opacity="1" /><path clip-path="url(#clip770)" d="M 0 0 M991.31 1838.93 Q987.045 1846.25 984.976 1853.41 Q982.907 1860.57 982.907 1867.93 Q982.907 1875.28 984.976 1882.5 Q987.076 1889.7 991.31 1896.99 L986.217 1896.99 Q981.443 1889.51 979.056 1882.28 Q976.7 1875.06 976.7 1867.93 Q976.7 1860.83 979.056 1853.63 Q981.411 1846.44 986.217 1838.93 L991.31 1838.93 Z" fill="#000000" fill-rule="evenodd" fill-opacity="1" /><path clip-path="url(#clip770)" d="M 0 0 M1003.82 1882.98 L1026.26 1882.98 L1026.26 1888.39 L996.084 1888.39 L996.084 1882.98 Q999.744 1879.19 1006.05 1872.83 Q1012.38 1866.43 1014 1864.58 Q1017.09 1861.11 1018.3 1858.73 Q1019.54 1856.31 1019.54 1853.98 Q1019.54 1850.2 1016.87 1847.81 Q1014.23 1845.42 1009.96 1845.42 Q1006.94 1845.42 1003.56 1846.47 Q1000.22 1847.52 996.402 1849.66 L996.402 1843.16 Q1000.29 1841.6 1003.66 1840.81 Q1007.03 1840.01 1009.83 1840.01 Q1017.22 1840.01 1021.61 1843.7 Q1026 1847.4 1026 1853.57 Q1026 1856.5 1024.89 1859.14 Q1023.81 1861.75 1020.91 1865.32 Q1020.11 1866.24 1015.85 1870.66 Q1011.58 1875.06 1003.82 1882.98 Z" fill="#000000" fill-rule="evenodd" fill-opacity="1" /><path clip-path="url(#clip770)" d="M 0 0 M1047.77 1862.07 Q1043.44 1862.07 1040.9 1865.03 Q1038.38 1867.99 1038.38 1873.15 Q1038.38 1878.27 1040.9 1881.26 Q1043.44 1884.22 1047.77 1884.22 Q1052.1 1884.22 1054.62 1881.26 Q1057.16 1878.27 1057.16 1873.15 Q1057.16 1867.99 1054.62 1865.03 Q1052.1 1862.07 1047.77 1862.07 M1060.54 1841.92 L1060.54 1847.78 Q1058.12 1846.63 1055.64 1846.03 Q1053.18 1845.42 1050.77 1845.42 Q1044.4 1845.42 1041.03 1849.72 Q1037.68 1854.02 1037.21 1862.71 Q1039.08 1859.94 1041.92 1858.47 Q1044.75 1856.98 1048.16 1856.98 Q1055.32 1856.98 1059.45 1861.34 Q1063.62 1865.67 1063.62 1873.15 Q1063.62 1880.47 1059.3 1884.89 Q1054.97 1889.31 1047.77 1889.31 Q1039.53 1889.31 1035.17 1883.01 Q1030.81 1876.68 1030.81 1864.68 Q1030.81 1853.41 1036.16 1846.73 Q1041.5 1840.01 1050.51 1840.01 Q1052.93 1840.01 1055.38 1840.49 Q1057.86 1840.97 1060.54 1841.92 Z" fill="#000000" fill-rule="evenodd" fill-opacity="1" /><path clip-path="url(#clip770)" d="M 0 0 M1111.02 1867.48 Q1108.25 1867.48 1106.66 1869.84 Q1105.1 1872.19 1105.1 1876.39 Q1105.1 1880.53 1106.66 1882.92 Q1108.25 1885.27 1111.02 1885.27 Q1113.72 1885.27 1115.28 1882.92 Q1116.87 1880.53 1116.87 1876.39 Q1116.87 1872.22 1115.28 1869.87 Q1113.72 1867.48 1111.02 1867.48 M1111.02 1863.44 Q1116.05 1863.44 1119.01 1866.94 Q1121.97 1870.44 1121.97 1876.39 Q1121.97 1882.34 1118.97 1885.85 Q1116.01 1889.31 1111.02 1889.31 Q1105.92 1889.31 1102.96 1885.85 Q1100 1882.34 1100 1876.39 Q1100 1870.41 1102.96 1866.94 Q1105.96 1863.44 1111.02 1863.44 M1078.17 1844.05 Q1075.43 1844.05 1073.84 1846.44 Q1072.28 1848.8 1072.28 1852.93 Q1072.28 1857.14 1073.84 1859.49 Q1075.4 1861.85 1078.17 1861.85 Q1080.94 1861.85 1082.5 1859.49 Q1084.09 1857.14 1084.09 1852.93 Q1084.09 1848.83 1082.5 1846.44 Q1080.91 1844.05 1078.17 1844.05 M1106.91 1840.01 L1112 1840.01 L1082.28 1889.31 L1077.18 1889.31 L1106.91 1840.01 M1078.17 1840.01 Q1083.2 1840.01 1086.19 1843.51 Q1089.18 1846.98 1089.18 1852.93 Q1089.18 1858.95 1086.19 1862.42 Q1083.23 1865.89 1078.17 1865.89 Q1073.11 1865.89 1070.15 1862.42 Q1067.22 1858.92 1067.22 1852.93 Q1067.22 1847.01 1070.18 1843.51 Q1073.14 1840.01 1078.17 1840.01 Z" fill="#000000" fill-rule="evenodd" fill-opacity="1" /><path clip-path="url(#clip770)" d="M 0 0 M1127.19 1838.93 L1132.28 1838.93 Q1137.05 1846.44 1139.41 1853.63 Q1141.79 1860.83 1141.79 1867.93 Q1141.79 1875.06 1139.41 1882.28 Q1137.05 1889.51 1132.28 1896.99 L1127.19 1896.99 Q1131.42 1889.7 1133.49 1882.5 Q1135.59 1875.28 1135.59 1867.93 Q1135.59 1860.57 1133.49 1853.41 Q1131.42 1846.25 1127.19 1838.93 Z" fill="#000000" fill-rule="evenodd" fill-opacity="1" /><path clip-path="url(#clip770)" d="M 0 0 M100.433 1090.08 L100.433 1083.17 L119.975 1069.99 L100.433 1056.91 L100.433 1050 L125.323 1066.81 L147.953 1066.81 L147.953 1073.27 L125.323 1073.27 L100.433 1090.08 Z" fill="#000000" fill-rule="evenodd" fill-opacity="1" /><path clip-path="url(#clip770)" d="M 0 0 M98.4912 1009.07 Q105.812 1013.34 112.973 1015.41 Q120.135 1017.48 127.487 1017.48 Q134.839 1017.48 142.064 1015.41 Q149.258 1013.31 156.546 1009.07 L156.546 1014.16 Q149.067 1018.94 141.842 1021.33 Q134.617 1023.68 127.487 1023.68 Q120.389 1023.68 113.196 1021.33 Q106.003 1018.97 98.4912 1014.16 L98.4912 1009.07 Z" fill="#000000" fill-rule="evenodd" fill-opacity="1" /><path clip-path="url(#clip770)" d="M 0 0 M142.542 1000.99 L142.542 990.485 L106.289 990.485 L108.581 1001.91 L102.724 1001.91 L100.433 990.548 L100.433 984.119 L142.542 984.119 L142.542 973.615 L147.953 973.615 L147.953 1000.99 L142.542 1000.99 Z" fill="#000000" fill-rule="evenodd" fill-opacity="1" /><path clip-path="url(#clip770)" d="M 0 0 M125.386 952.895 Q125.386 957.478 127.837 960.12 Q130.288 962.73 134.585 962.73 Q138.882 962.73 141.332 960.12 Q143.783 957.478 143.783 952.895 Q143.783 948.312 141.332 945.67 Q138.85 943.028 134.585 943.028 Q130.288 943.028 127.837 945.67 Q125.386 948.28 125.386 952.895 M122.649 959.324 Q121.631 963.462 118.798 965.786 Q115.965 968.077 111.891 968.077 Q106.194 968.077 102.884 964.035 Q99.5734 959.961 99.5734 952.895 Q99.5734 945.797 102.884 941.755 Q106.194 937.713 111.891 937.713 Q115.965 937.713 118.798 940.036 Q121.631 942.328 122.649 946.434 Q123.731 941.787 126.882 939.209 Q130.033 936.599 134.585 936.599 Q141.492 936.599 145.184 940.832 Q148.876 945.033 148.876 952.895 Q148.876 960.757 145.184 964.99 Q141.492 969.191 134.585 969.191 Q130.033 969.191 126.882 966.581 Q123.731 963.971 122.649 959.324 M112.496 961.68 Q116.188 961.68 118.257 959.388 Q120.326 957.065 120.326 952.895 Q120.326 948.757 118.257 946.434 Q116.188 944.079 112.496 944.079 Q108.804 944.079 106.735 946.434 Q104.666 948.757 104.666 952.895 Q104.666 957.065 106.735 959.388 Q108.804 961.68 112.496 961.68 Z" fill="#000000" fill-rule="evenodd" fill-opacity="1" /><path clip-path="url(#clip770)" d="M 0 0 M127.041 889.206 Q127.041 891.975 129.397 893.567 Q131.752 895.126 135.953 895.126 Q140.091 895.126 142.478 893.567 Q144.834 891.975 144.834 889.206 Q144.834 886.501 142.478 884.941 Q140.091 883.35 135.953 883.35 Q131.784 883.35 129.429 884.941 Q127.041 886.501 127.041 889.206 M122.999 889.206 Q122.999 884.177 126.5 881.217 Q130.001 878.257 135.953 878.257 Q141.905 878.257 145.406 881.249 Q148.876 884.209 148.876 889.206 Q148.876 894.299 145.406 897.259 Q141.905 900.219 135.953 900.219 Q129.97 900.219 126.5 897.259 Q122.999 894.267 122.999 889.206 M103.616 922.053 Q103.616 924.79 106.003 926.382 Q108.358 927.941 112.496 927.941 Q116.697 927.941 119.052 926.382 Q121.408 924.822 121.408 922.053 Q121.408 919.284 119.052 917.724 Q116.697 916.133 112.496 916.133 Q108.39 916.133 106.003 917.724 Q103.616 919.316 103.616 922.053 M99.5734 893.312 L99.5734 888.219 L148.876 917.947 L148.876 923.04 L99.5734 893.312 M99.5734 922.053 Q99.5734 917.024 103.075 914.032 Q106.544 911.041 112.496 911.041 Q118.511 911.041 121.981 914.032 Q125.45 916.992 125.45 922.053 Q125.45 927.114 121.981 930.074 Q118.48 933.002 112.496 933.002 Q106.576 933.002 103.075 930.042 Q99.5734 927.082 99.5734 922.053 Z" fill="#000000" fill-rule="evenodd" fill-opacity="1" /><path clip-path="url(#clip770)" d="M 0 0 M98.4912 873.037 L98.4912 867.945 Q106.003 863.17 113.196 860.815 Q120.389 858.428 127.487 858.428 Q134.617 858.428 141.842 860.815 Q149.067 863.17 156.546 867.945 L156.546 873.037 Q149.258 868.804 142.064 866.735 Q134.839 864.635 127.487 864.635 Q120.135 864.635 112.973 866.735 Q105.812 868.804 98.4912 873.037 Z" fill="#000000" fill-rule="evenodd" fill-opacity="1" /><polyline clip-path="url(#clip772)" style="stroke:#800080; stroke-width:7.81528; stroke-opacity:1; fill:none" points="
  684.962,985.314 1462.18,276.092 
  "/>
<polyline clip-path="url(#clip772)" style="stroke:#0000ff; stroke-width:2.46548; stroke-opacity:1; fill:none" points="
  883.491,1316.21 1011.19,770.156 
  "/>
<polyline clip-path="url(#clip772)" style="stroke:#0000ff; stroke-width:1.42949; stroke-opacity:1; fill:none" points="
  466.682,743.517 883.491,1316.21 
  "/>
<polyline clip-path="url(#clip772)" style="stroke:#0000ff; stroke-width:3.87335; stroke-opacity:1; fill:none" points="
  466.682,743.517 1421.86,1264.77 
  "/>
<polyline clip-path="url(#clip772)" style="stroke:#ffa500; stroke-width:6.21389; stroke-opacity:1; fill:none" points="
  1011.19,770.156 1462.18,276.092 
  "/>
<polyline clip-path="url(#clip772)" style="stroke:#800080; stroke-width:2.34544; stroke-opacity:1; fill:none" points="
  466.682,743.517 1011.19,770.156 
  "/>
<polyline clip-path="url(#clip772)" style="stroke:#ffa500; stroke-width:2.74276; stroke-opacity:1; fill:none" points="
  1011.19,770.156 1421.86,1264.77 
  "/>
<polyline clip-path="url(#clip772)" style="stroke:#0000ff; stroke-width:3.20838; stroke-opacity:1; fill:none" points="
  883.491,1316.21 1421.86,1264.77 
  "/>
<polyline clip-path="url(#clip772)" style="stroke:#800080; stroke-width:7.46577; stroke-opacity:1; fill:none" points="
  466.682,743.517 684.962,985.314 
  "/>
<polyline clip-path="url(#clip772)" style="stroke:#0000ff; stroke-width:2.36118; stroke-opacity:1; fill:none" points="
  883.491,1316.21 1462.18,276.092 
  "/>
<polyline clip-path="url(#clip772)" style="stroke:#ffa500; stroke-width:8; stroke-opacity:1; fill:none" points="
  1421.86,1264.77 1462.18,276.092 
  "/>
<polyline clip-path="url(#clip772)" style="stroke:#800080; stroke-width:5.64436; stroke-opacity:1; fill:none" points="
  684.962,985.314 1011.19,770.156 
  "/>
<polyline clip-path="url(#clip772)" style="stroke:#0000ff; stroke-width:3.44717; stroke-opacity:1; fill:none" points="
  684.962,985.314 883.491,1316.21 
  "/>
<polyline clip-path="url(#clip772)" style="stroke:#800080; stroke-width:3.33246; stroke-opacity:1; fill:none" points="
  466.682,743.517 1462.18,276.092 
  "/>
<polyline clip-path="url(#clip772)" style="stroke:#008000; stroke-width:7.16919; stroke-opacity:1; fill:none" points="
  684.962,985.314 1421.86,1264.77 
  "/>
<circle clip-path="url(#clip772)" cx="1011.19" cy="770.156" r="23" fill="#000000" fill-rule="evenodd" fill-opacity="1" stroke="none"/>
<circle clip-path="url(#clip772)" cx="684.962" cy="985.314" r="26" fill="#000000" fill-rule="evenodd" fill-opacity="1" stroke="none"/>
<circle clip-path="url(#clip772)" cx="1462.18" cy="276.092" r="23" fill="#000000" fill-rule="evenodd" fill-opacity="1" stroke="none"/>
<circle clip-path="url(#clip772)" cx="883.491" cy="1316.21" r="8" fill="#000000" fill-rule="evenodd" fill-opacity="1" stroke="none"/>
<circle clip-path="url(#clip772)" cx="1421.86" cy="1264.77" r="28" fill="#000000" fill-rule="evenodd" fill-opacity="1" stroke="none"/>
<circle clip-path="url(#clip772)" cx="466.682" cy="743.517" r="8" fill="#000000" fill-rule="evenodd" fill-opacity="1" stroke="none"/>
<path clip-path="url(#clip770)" d="M 0 0 M984.112 776.878 L984.112 793.675 L987.642 793.675 Q992.113 793.675 994.182 791.649 Q996.265 789.624 996.265 785.254 Q996.265 780.914 994.182 778.903 Q992.113 776.878 987.642 776.878 L984.112 776.878 M981.19 774.476 L987.194 774.476 Q993.473 774.476 996.41 777.095 Q999.346 779.699 999.346 785.254 Q999.346 790.839 996.395 793.458 Q993.444 796.076 987.194 796.076 L981.19 796.076 L981.19 774.476 Z" fill="#000000" fill-rule="evenodd" fill-opacity="1" /><path clip-path="url(#clip770)" d="M 0 0 M1009.5 787.931 Q1006.28 787.931 1005.03 788.669 Q1003.79 789.407 1003.79 791.186 Q1003.79 792.604 1004.71 793.443 Q1005.65 794.268 1007.26 794.268 Q1009.47 794.268 1010.8 792.705 Q1012.15 791.128 1012.15 788.524 L1012.15 787.931 L1009.5 787.931 M1014.81 786.831 L1014.81 796.076 L1012.15 796.076 L1012.15 793.617 Q1011.24 795.092 1009.88 795.801 Q1008.52 796.496 1006.55 796.496 Q1004.06 796.496 1002.59 795.107 Q1001.13 793.703 1001.13 791.36 Q1001.13 788.625 1002.95 787.236 Q1004.79 785.848 1008.42 785.848 L1012.15 785.848 L1012.15 785.587 Q1012.15 783.75 1010.93 782.752 Q1009.73 781.739 1007.55 781.739 Q1006.16 781.739 1004.84 782.072 Q1003.53 782.404 1002.31 783.07 L1002.31 780.61 Q1003.77 780.046 1005.15 779.771 Q1006.52 779.482 1007.82 779.482 Q1011.34 779.482 1013.08 781.305 Q1014.81 783.128 1014.81 786.831 Z" fill="#000000" fill-rule="evenodd" fill-opacity="1" /><path clip-path="url(#clip770)" d="M 0 0 M1020.24 775.272 L1020.24 779.873 L1025.72 779.873 L1025.72 781.941 L1020.24 781.941 L1020.24 790.738 Q1020.24 792.72 1020.77 793.284 Q1021.32 793.848 1022.99 793.848 L1025.72 793.848 L1025.72 796.076 L1022.99 796.076 Q1019.9 796.076 1018.73 794.933 Q1017.56 793.776 1017.56 790.738 L1017.56 781.941 L1015.61 781.941 L1015.61 779.873 L1017.56 779.873 L1017.56 775.272 L1020.24 775.272 Z" fill="#000000" fill-rule="evenodd" fill-opacity="1" /><path clip-path="url(#clip770)" d="M 0 0 M1035.88 787.931 Q1032.65 787.931 1031.41 788.669 Q1030.16 789.407 1030.16 791.186 Q1030.16 792.604 1031.09 793.443 Q1032.03 794.268 1033.63 794.268 Q1035.85 794.268 1037.18 792.705 Q1038.52 791.128 1038.52 788.524 L1038.52 787.931 L1035.88 787.931 M1041.19 786.831 L1041.19 796.076 L1038.52 796.076 L1038.52 793.617 Q1037.61 795.092 1036.25 795.801 Q1034.89 796.496 1032.93 796.496 Q1030.44 796.496 1028.96 795.107 Q1027.5 793.703 1027.5 791.36 Q1027.5 788.625 1029.32 787.236 Q1031.16 785.848 1034.79 785.848 L1038.52 785.848 L1038.52 785.587 Q1038.52 783.75 1037.31 782.752 Q1036.11 781.739 1033.92 781.739 Q1032.53 781.739 1031.22 782.072 Q1029.9 782.404 1028.69 783.07 L1028.69 780.61 Q1030.15 780.046 1031.52 779.771 Q1032.9 779.482 1034.2 779.482 Q1037.71 779.482 1039.45 781.305 Q1041.19 783.128 1041.19 786.831 Z" fill="#000000" fill-rule="evenodd" fill-opacity="1" /><path clip-path="url(#clip770)" d="M 0 0 M543.057 989.634 L561.33 989.634 L561.33 992.094 L553.662 992.094 L553.662 1011.23 L550.725 1011.23 L550.725 992.094 L543.057 992.094 L543.057 989.634 Z" fill="#000000" fill-rule="evenodd" fill-opacity="1" /><path clip-path="url(#clip770)" d="M 0 0 M572.947 1002.47 L572.947 1003.77 L560.708 1003.77 Q560.881 1006.52 562.357 1007.96 Q563.847 1009.4 566.495 1009.4 Q568.028 1009.4 569.461 1009.02 Q570.907 1008.64 572.325 1007.89 L572.325 1010.41 Q570.893 1011.02 569.388 1011.34 Q567.884 1011.65 566.336 1011.65 Q562.458 1011.65 560.187 1009.4 Q557.93 1007.14 557.93 1003.29 Q557.93 999.313 560.071 996.984 Q562.227 994.64 565.873 994.64 Q569.142 994.64 571.038 996.752 Q572.947 998.85 572.947 1002.47 M570.285 1001.69 Q570.256 999.501 569.056 998.199 Q567.869 996.897 565.902 996.897 Q563.674 996.897 562.328 998.156 Q560.997 999.414 560.795 1001.7 L570.285 1001.69 Z" fill="#000000" fill-rule="evenodd" fill-opacity="1" /><path clip-path="url(#clip770)" d="M 0 0 M587.4 995.653 L587.4 998.141 Q586.272 997.519 585.129 997.215 Q584.001 996.897 582.843 996.897 Q580.253 996.897 578.821 998.546 Q577.389 1000.18 577.389 1003.15 Q577.389 1006.11 578.821 1007.76 Q580.253 1009.4 582.843 1009.4 Q584.001 1009.4 585.129 1009.09 Q586.272 1008.77 587.4 1008.15 L587.4 1010.61 Q586.286 1011.13 585.086 1011.39 Q583.899 1011.65 582.554 1011.65 Q578.893 1011.65 576.738 1009.35 Q574.582 1007.05 574.582 1003.15 Q574.582 999.183 576.752 996.911 Q578.937 994.64 582.727 994.64 Q583.957 994.64 585.129 994.9 Q586.301 995.146 587.4 995.653 Z" fill="#000000" fill-rule="evenodd" fill-opacity="1" /><path clip-path="url(#clip770)" d="M 0 0 M603.662 1001.45 L603.662 1011.23 L601 1011.23 L601 1001.54 Q601 999.241 600.103 998.098 Q599.206 996.955 597.412 996.955 Q595.256 996.955 594.012 998.329 Q592.768 999.704 592.768 1002.08 L592.768 1011.23 L590.091 1011.23 L590.091 988.723 L592.768 988.723 L592.768 997.548 Q593.723 996.087 595.01 995.363 Q596.312 994.64 598.005 994.64 Q600.797 994.64 602.23 996.376 Q603.662 998.098 603.662 1001.45 Z" fill="#000000" fill-rule="evenodd" fill-opacity="1" /><path clip-path="url(#clip770)" d="M 0 0 M619.923 1001.45 L619.923 1011.23 L617.261 1011.23 L617.261 1001.54 Q617.261 999.241 616.364 998.098 Q615.467 996.955 613.673 996.955 Q611.518 996.955 610.274 998.329 Q609.029 999.704 609.029 1002.08 L609.029 1011.23 L606.353 1011.23 L606.353 995.031 L609.029 995.031 L609.029 997.548 Q609.984 996.087 611.272 995.363 Q612.574 994.64 614.267 994.64 Q617.059 994.64 618.491 996.376 Q619.923 998.098 619.923 1001.45 Z" fill="#000000" fill-rule="evenodd" fill-opacity="1" /><path clip-path="url(#clip770)" d="M 0 0 M622.716 995.031 L625.378 995.031 L625.378 1011.23 L622.716 1011.23 L622.716 995.031 M622.716 988.723 L625.378 988.723 L625.378 992.094 L622.716 992.094 L622.716 988.723 Z" fill="#000000" fill-rule="evenodd" fill-opacity="1" /><path clip-path="url(#clip770)" d="M 0 0 M639.831 995.653 L639.831 998.141 Q638.702 997.519 637.559 997.215 Q636.431 996.897 635.273 996.897 Q632.684 996.897 631.251 998.546 Q629.819 1000.18 629.819 1003.15 Q629.819 1006.11 631.251 1007.76 Q632.684 1009.4 635.273 1009.4 Q636.431 1009.4 637.559 1009.09 Q638.702 1008.77 639.831 1008.15 L639.831 1010.61 Q638.717 1011.13 637.516 1011.39 Q636.33 1011.65 634.984 1011.65 Q631.324 1011.65 629.168 1009.35 Q627.012 1007.05 627.012 1003.15 Q627.012 999.183 629.183 996.911 Q631.367 994.64 635.158 994.64 Q636.387 994.64 637.559 994.9 Q638.731 995.146 639.831 995.653 Z" fill="#000000" fill-rule="evenodd" fill-opacity="1" /><path clip-path="url(#clip770)" d="M 0 0 M649.987 1003.09 Q646.761 1003.09 645.516 1003.83 Q644.272 1004.56 644.272 1006.34 Q644.272 1007.76 645.198 1008.6 Q646.138 1009.43 647.744 1009.43 Q649.958 1009.43 651.289 1007.86 Q652.634 1006.29 652.634 1003.68 L652.634 1003.09 L649.987 1003.09 M655.296 1001.99 L655.296 1011.23 L652.634 1011.23 L652.634 1008.77 Q651.723 1010.25 650.363 1010.96 Q649.003 1011.65 647.035 1011.65 Q644.547 1011.65 643.071 1010.26 Q641.61 1008.86 641.61 1006.52 Q641.61 1003.78 643.433 1002.39 Q645.27 1001.01 648.902 1001.01 L652.634 1001.01 L652.634 1000.75 Q652.634 998.908 651.419 997.91 Q650.218 996.897 648.034 996.897 Q646.645 996.897 645.328 997.23 Q644.012 997.562 642.796 998.228 L642.796 995.769 Q644.258 995.204 645.632 994.929 Q647.007 994.64 648.309 994.64 Q651.824 994.64 653.56 996.463 Q655.296 998.286 655.296 1001.99 Z" fill="#000000" fill-rule="evenodd" fill-opacity="1" /><path clip-path="url(#clip770)" d="M 0 0 M658.089 988.723 L660.751 988.723 L660.751 1011.23 L658.089 1011.23 L658.089 988.723 Z" fill="#000000" fill-rule="evenodd" fill-opacity="1" /><path clip-path="url(#clip770)" d="M 0 0 M675.855 1016.15 L675.855 1018.22 L660.461 1018.22 L660.461 1016.15 L675.855 1016.15 Z" fill="#000000" fill-rule="evenodd" fill-opacity="1" /><path clip-path="url(#clip770)" d="M 0 0 M694.937 991.298 L694.937 994.38 Q693.462 993.005 691.783 992.325 Q690.12 991.645 688.239 991.645 Q684.535 991.645 682.568 993.917 Q680.6 996.174 680.6 1000.46 Q680.6 1004.72 682.568 1007 Q684.535 1009.25 688.239 1009.25 Q690.12 1009.25 691.783 1008.57 Q693.462 1007.89 694.937 1006.52 L694.937 1009.57 Q693.404 1010.61 691.682 1011.13 Q689.975 1011.65 688.065 1011.65 Q683.161 1011.65 680.34 1008.66 Q677.519 1005.65 677.519 1000.46 Q677.519 995.248 680.34 992.253 Q683.161 989.244 688.065 989.244 Q690.004 989.244 691.711 989.765 Q693.433 990.271 694.937 991.298 Z" fill="#000000" fill-rule="evenodd" fill-opacity="1" /><path clip-path="url(#clip770)" d="M 0 0 M704.009 996.897 Q701.867 996.897 700.623 998.575 Q699.379 1000.24 699.379 1003.15 Q699.379 1006.05 700.609 1007.73 Q701.853 1009.4 704.009 1009.4 Q706.135 1009.4 707.379 1007.72 Q708.624 1006.04 708.624 1003.15 Q708.624 1000.27 707.379 998.59 Q706.135 996.897 704.009 996.897 M704.009 994.64 Q707.481 994.64 709.463 996.897 Q711.445 999.154 711.445 1003.15 Q711.445 1007.13 709.463 1009.4 Q707.481 1011.65 704.009 1011.65 Q700.522 1011.65 698.54 1009.4 Q696.572 1007.13 696.572 1003.15 Q696.572 999.154 698.54 996.897 Q700.522 994.64 704.009 994.64 Z" fill="#000000" fill-rule="evenodd" fill-opacity="1" /><path clip-path="url(#clip770)" d="M 0 0 M727.706 1001.45 L727.706 1011.23 L725.044 1011.23 L725.044 1001.54 Q725.044 999.241 724.147 998.098 Q723.25 996.955 721.456 996.955 Q719.301 996.955 718.056 998.329 Q716.812 999.704 716.812 1002.08 L716.812 1011.23 L714.136 1011.23 L714.136 995.031 L716.812 995.031 L716.812 997.548 Q717.767 996.087 719.055 995.363 Q720.357 994.64 722.05 994.64 Q724.842 994.64 726.274 996.376 Q727.706 998.098 727.706 1001.45 Z" fill="#000000" fill-rule="evenodd" fill-opacity="1" /><path clip-path="url(#clip770)" d="M 0 0 M740.828 995.508 L740.828 998.025 Q739.7 997.447 738.485 997.157 Q737.269 996.868 735.967 996.868 Q733.985 996.868 732.987 997.476 Q732.003 998.083 732.003 999.299 Q732.003 1000.22 732.712 1000.76 Q733.421 1001.28 735.562 1001.76 L736.474 1001.96 Q739.309 1002.57 740.496 1003.68 Q741.696 1004.78 741.696 1006.76 Q741.696 1009.02 739.902 1010.34 Q738.123 1011.65 734.998 1011.65 Q733.696 1011.65 732.278 1011.39 Q730.875 1011.15 729.312 1010.64 L729.312 1007.89 Q730.788 1008.66 732.22 1009.05 Q733.652 1009.43 735.056 1009.43 Q736.937 1009.43 737.949 1008.79 Q738.962 1008.14 738.962 1006.97 Q738.962 1005.88 738.224 1005.3 Q737.501 1004.72 735.027 1004.19 L734.101 1003.97 Q731.627 1003.45 730.527 1002.38 Q729.428 1001.3 729.428 999.414 Q729.428 997.128 731.048 995.884 Q732.669 994.64 735.649 994.64 Q737.125 994.64 738.427 994.857 Q739.729 995.074 740.828 995.508 Z" fill="#000000" fill-rule="evenodd" fill-opacity="1" /><path clip-path="url(#clip770)" d="M 0 0 M747.122 990.43 L747.122 995.031 L752.605 995.031 L752.605 997.1 L747.122 997.1 L747.122 1005.9 Q747.122 1007.88 747.657 1008.44 Q748.207 1009.01 749.871 1009.01 L752.605 1009.01 L752.605 1011.23 L749.871 1011.23 Q746.789 1011.23 745.617 1010.09 Q744.445 1008.93 744.445 1005.9 L744.445 997.1 L742.492 997.1 L742.492 995.031 L744.445 995.031 L744.445 990.43 L747.122 990.43 Z" fill="#000000" fill-rule="evenodd" fill-opacity="1" /><path clip-path="url(#clip770)" d="M 0 0 M764.787 997.519 Q764.338 997.259 763.803 997.143 Q763.282 997.013 762.645 997.013 Q760.388 997.013 759.173 998.488 Q757.972 999.95 757.972 1002.7 L757.972 1011.23 L755.296 1011.23 L755.296 995.031 L757.972 995.031 L757.972 997.548 Q758.811 996.072 760.157 995.363 Q761.502 994.64 763.427 994.64 Q763.702 994.64 764.034 994.683 Q764.367 994.712 764.772 994.785 L764.787 997.519 Z" fill="#000000" fill-rule="evenodd" fill-opacity="1" /><path clip-path="url(#clip770)" d="M 0 0 M774.943 1003.09 Q771.717 1003.09 770.472 1003.83 Q769.228 1004.56 769.228 1006.34 Q769.228 1007.76 770.154 1008.6 Q771.094 1009.43 772.7 1009.43 Q774.914 1009.43 776.245 1007.86 Q777.59 1006.29 777.59 1003.68 L777.59 1003.09 L774.943 1003.09 M780.252 1001.99 L780.252 1011.23 L777.59 1011.23 L777.59 1008.77 Q776.679 1010.25 775.319 1010.96 Q773.959 1011.65 771.991 1011.65 Q769.503 1011.65 768.027 1010.26 Q766.566 1008.86 766.566 1006.52 Q766.566 1003.78 768.389 1002.39 Q770.226 1001.01 773.858 1001.01 L777.59 1001.01 L777.59 1000.75 Q777.59 998.908 776.375 997.91 Q775.174 996.897 772.99 996.897 Q771.601 996.897 770.284 997.23 Q768.968 997.562 767.752 998.228 L767.752 995.769 Q769.214 995.204 770.588 994.929 Q771.962 994.64 773.265 994.64 Q776.78 994.64 778.516 996.463 Q780.252 998.286 780.252 1001.99 Z" fill="#000000" fill-rule="evenodd" fill-opacity="1" /><path clip-path="url(#clip770)" d="M 0 0 M783.045 995.031 L785.707 995.031 L785.707 1011.23 L783.045 1011.23 L783.045 995.031 M783.045 988.723 L785.707 988.723 L785.707 992.094 L783.045 992.094 L783.045 988.723 Z" fill="#000000" fill-rule="evenodd" fill-opacity="1" /><path clip-path="url(#clip770)" d="M 0 0 M801.968 1001.45 L801.968 1011.23 L799.306 1011.23 L799.306 1001.54 Q799.306 999.241 798.409 998.098 Q797.512 996.955 795.718 996.955 Q793.562 996.955 792.318 998.329 Q791.074 999.704 791.074 1002.08 L791.074 1011.23 L788.398 1011.23 L788.398 995.031 L791.074 995.031 L791.074 997.548 Q792.029 996.087 793.317 995.363 Q794.619 994.64 796.311 994.64 Q799.104 994.64 800.536 996.376 Q801.968 998.098 801.968 1001.45 Z" fill="#000000" fill-rule="evenodd" fill-opacity="1" /><path clip-path="url(#clip770)" d="M 0 0 M807.393 990.43 L807.393 995.031 L812.877 995.031 L812.877 997.1 L807.393 997.1 L807.393 1005.9 Q807.393 1007.88 807.929 1008.44 Q808.478 1009.01 810.142 1009.01 L812.877 1009.01 L812.877 1011.23 L810.142 1011.23 Q807.061 1011.23 805.889 1010.09 Q804.717 1008.93 804.717 1005.9 L804.717 997.1 L802.764 997.1 L802.764 995.031 L804.717 995.031 L804.717 990.43 L807.393 990.43 Z" fill="#000000" fill-rule="evenodd" fill-opacity="1" /><path clip-path="url(#clip770)" d="M 0 0 M825.999 995.508 L825.999 998.025 Q824.87 997.447 823.655 997.157 Q822.44 996.868 821.138 996.868 Q819.155 996.868 818.157 997.476 Q817.173 998.083 817.173 999.299 Q817.173 1000.22 817.882 1000.76 Q818.591 1001.28 820.732 1001.76 L821.644 1001.96 Q824.48 1002.57 825.666 1003.68 Q826.867 1004.78 826.867 1006.76 Q826.867 1009.02 825.073 1010.34 Q823.293 1011.65 820.168 1011.65 Q818.866 1011.65 817.448 1011.39 Q816.045 1011.15 814.482 1010.64 L814.482 1007.89 Q815.958 1008.66 817.39 1009.05 Q818.823 1009.43 820.226 1009.43 Q822.107 1009.43 823.12 1008.79 Q824.132 1008.14 824.132 1006.97 Q824.132 1005.88 823.394 1005.3 Q822.671 1004.72 820.197 1004.19 L819.271 1003.97 Q816.797 1003.45 815.698 1002.38 Q814.598 1001.3 814.598 999.414 Q814.598 997.128 816.219 995.884 Q817.839 994.64 820.819 994.64 Q822.295 994.64 823.597 994.857 Q824.899 995.074 825.999 995.508 Z" fill="#000000" fill-rule="evenodd" fill-opacity="1" /><path clip-path="url(#clip770)" d="M 0 0 M1294.83 282.814 L1294.83 290.93 L1298.51 290.93 Q1300.55 290.93 1301.66 289.874 Q1302.77 288.818 1302.77 286.865 Q1302.77 284.926 1301.66 283.87 Q1300.55 282.814 1298.51 282.814 L1294.83 282.814 M1291.91 280.412 L1298.51 280.412 Q1302.14 280.412 1303.99 282.062 Q1305.86 283.696 1305.86 286.865 Q1305.86 290.062 1303.99 291.697 Q1302.14 293.332 1298.51 293.332 L1294.83 293.332 L1294.83 302.012 L1291.91 302.012 L1291.91 280.412 Z" fill="#000000" fill-rule="evenodd" fill-opacity="1" /><path clip-path="url(#clip770)" d="M 0 0 M1321.45 293.245 L1321.45 294.547 L1309.21 294.547 Q1309.39 297.296 1310.86 298.743 Q1312.35 300.175 1315 300.175 Q1316.53 300.175 1317.97 299.799 Q1319.41 299.423 1320.83 298.67 L1320.83 301.188 Q1319.4 301.795 1317.89 302.114 Q1316.39 302.432 1314.84 302.432 Q1310.96 302.432 1308.69 300.175 Q1306.43 297.918 1306.43 294.07 Q1306.43 290.091 1308.58 287.762 Q1310.73 285.418 1314.38 285.418 Q1317.65 285.418 1319.54 287.53 Q1321.45 289.628 1321.45 293.245 M1318.79 292.464 Q1318.76 290.279 1317.56 288.977 Q1316.37 287.675 1314.41 287.675 Q1312.18 287.675 1310.83 288.934 Q1309.5 290.192 1309.3 292.478 L1318.79 292.464 Z" fill="#000000" fill-rule="evenodd" fill-opacity="1" /><path clip-path="url(#clip770)" d="M 0 0 M1333.63 288.297 Q1333.19 288.037 1332.65 287.921 Q1332.13 287.791 1331.49 287.791 Q1329.24 287.791 1328.02 289.266 Q1326.82 290.728 1326.82 293.476 L1326.82 302.012 L1324.14 302.012 L1324.14 285.809 L1326.82 285.809 L1326.82 288.326 Q1327.66 286.85 1329 286.141 Q1330.35 285.418 1332.27 285.418 Q1332.55 285.418 1332.88 285.461 Q1333.21 285.49 1333.62 285.563 L1333.63 288.297 Z" fill="#000000" fill-rule="evenodd" fill-opacity="1" /><path clip-path="url(#clip770)" d="M 0 0 M1344.63 279.501 L1344.63 281.714 L1342.08 281.714 Q1340.65 281.714 1340.09 282.293 Q1339.54 282.872 1339.54 284.376 L1339.54 285.809 L1343.92 285.809 L1343.92 287.878 L1339.54 287.878 L1339.54 302.012 L1336.86 302.012 L1336.86 287.878 L1334.31 287.878 L1334.31 285.809 L1336.86 285.809 L1336.86 284.68 Q1336.86 281.975 1338.12 280.745 Q1339.38 279.501 1342.11 279.501 L1344.63 279.501 Z" fill="#000000" fill-rule="evenodd" fill-opacity="1" /><path clip-path="url(#clip770)" d="M 0 0 M1353.7 287.675 Q1351.56 287.675 1350.31 289.353 Q1349.07 291.017 1349.07 293.925 Q1349.07 296.833 1350.3 298.511 Q1351.54 300.175 1353.7 300.175 Q1355.83 300.175 1357.07 298.497 Q1358.32 296.818 1358.32 293.925 Q1358.32 291.046 1357.07 289.368 Q1355.83 287.675 1353.7 287.675 M1353.7 285.418 Q1357.17 285.418 1359.15 287.675 Q1361.14 289.932 1361.14 293.925 Q1361.14 297.904 1359.15 300.175 Q1357.17 302.432 1353.7 302.432 Q1350.21 302.432 1348.23 300.175 Q1346.26 297.904 1346.26 293.925 Q1346.26 289.932 1348.23 287.675 Q1350.21 285.418 1353.7 285.418 Z" fill="#000000" fill-rule="evenodd" fill-opacity="1" /><path clip-path="url(#clip770)" d="M 0 0 M1373.32 288.297 Q1372.87 288.037 1372.33 287.921 Q1371.81 287.791 1371.18 287.791 Q1368.92 287.791 1367.7 289.266 Q1366.5 290.728 1366.5 293.476 L1366.5 302.012 L1363.83 302.012 L1363.83 285.809 L1366.5 285.809 L1366.5 288.326 Q1367.34 286.85 1368.69 286.141 Q1370.03 285.418 1371.96 285.418 Q1372.23 285.418 1372.57 285.461 Q1372.9 285.49 1373.3 285.563 L1373.32 288.297 Z" fill="#000000" fill-rule="evenodd" fill-opacity="1" /><path clip-path="url(#clip770)" d="M 0 0 M1388.21 288.919 Q1389.2 287.125 1390.59 286.272 Q1391.98 285.418 1393.86 285.418 Q1396.39 285.418 1397.77 287.198 Q1399.14 288.963 1399.14 292.232 L1399.14 302.012 L1396.47 302.012 L1396.47 292.319 Q1396.47 289.99 1395.64 288.861 Q1394.82 287.733 1393.12 287.733 Q1391.06 287.733 1389.85 289.107 Q1388.65 290.482 1388.65 292.854 L1388.65 302.012 L1385.98 302.012 L1385.98 292.319 Q1385.98 289.975 1385.15 288.861 Q1384.33 287.733 1382.61 287.733 Q1380.57 287.733 1379.37 289.122 Q1378.16 290.496 1378.16 292.854 L1378.16 302.012 L1375.49 302.012 L1375.49 285.809 L1378.16 285.809 L1378.16 288.326 Q1379.08 286.836 1380.35 286.127 Q1381.62 285.418 1383.37 285.418 Q1385.14 285.418 1386.37 286.315 Q1387.61 287.212 1388.21 288.919 Z" fill="#000000" fill-rule="evenodd" fill-opacity="1" /><path clip-path="url(#clip770)" d="M 0 0 M1409.3 293.867 Q1406.07 293.867 1404.83 294.605 Q1403.58 295.343 1403.58 297.122 Q1403.58 298.54 1404.51 299.379 Q1405.45 300.204 1407.06 300.204 Q1409.27 300.204 1410.6 298.641 Q1411.95 297.064 1411.95 294.46 L1411.95 293.867 L1409.3 293.867 M1414.61 292.768 L1414.61 302.012 L1411.95 302.012 L1411.95 299.553 Q1411.04 301.028 1409.68 301.737 Q1408.32 302.432 1406.35 302.432 Q1403.86 302.432 1402.38 301.043 Q1400.92 299.64 1400.92 297.296 Q1400.92 294.562 1402.75 293.173 Q1404.58 291.784 1408.21 291.784 L1411.95 291.784 L1411.95 291.523 Q1411.95 289.686 1410.73 288.688 Q1409.53 287.675 1407.35 287.675 Q1405.96 287.675 1404.64 288.008 Q1403.32 288.34 1402.11 289.006 L1402.11 286.547 Q1403.57 285.982 1404.94 285.707 Q1406.32 285.418 1407.62 285.418 Q1411.14 285.418 1412.87 287.241 Q1414.61 289.064 1414.61 292.768 Z" fill="#000000" fill-rule="evenodd" fill-opacity="1" /><path clip-path="url(#clip770)" d="M 0 0 M1430.87 292.232 L1430.87 302.012 L1428.21 302.012 L1428.21 292.319 Q1428.21 290.019 1427.31 288.876 Q1426.41 287.733 1424.62 287.733 Q1422.46 287.733 1421.22 289.107 Q1419.98 290.482 1419.98 292.854 L1419.98 302.012 L1417.3 302.012 L1417.3 285.809 L1419.98 285.809 L1419.98 288.326 Q1420.93 286.865 1422.22 286.141 Q1423.52 285.418 1425.21 285.418 Q1428.01 285.418 1429.44 287.154 Q1430.87 288.876 1430.87 292.232 Z" fill="#000000" fill-rule="evenodd" fill-opacity="1" /><path clip-path="url(#clip770)" d="M 0 0 M1445.32 286.431 L1445.32 288.919 Q1444.19 288.297 1443.05 287.993 Q1441.92 287.675 1440.77 287.675 Q1438.18 287.675 1436.74 289.324 Q1435.31 290.959 1435.31 293.925 Q1435.31 296.891 1436.74 298.54 Q1438.18 300.175 1440.77 300.175 Q1441.92 300.175 1443.05 299.871 Q1444.19 299.553 1445.32 298.931 L1445.32 301.39 Q1444.21 301.911 1443.01 302.171 Q1441.82 302.432 1440.48 302.432 Q1436.82 302.432 1434.66 300.132 Q1432.5 297.831 1432.5 293.925 Q1432.5 289.961 1434.67 287.689 Q1436.86 285.418 1440.65 285.418 Q1441.88 285.418 1443.05 285.678 Q1444.22 285.924 1445.32 286.431 Z" fill="#000000" fill-rule="evenodd" fill-opacity="1" /><path clip-path="url(#clip770)" d="M 0 0 M1461.98 293.245 L1461.98 294.547 L1449.74 294.547 Q1449.91 297.296 1451.38 298.743 Q1452.88 300.175 1455.52 300.175 Q1457.06 300.175 1458.49 299.799 Q1459.94 299.423 1461.35 298.67 L1461.35 301.188 Q1459.92 301.795 1458.42 302.114 Q1456.91 302.432 1455.36 302.432 Q1451.49 302.432 1449.21 300.175 Q1446.96 297.918 1446.96 294.07 Q1446.96 290.091 1449.1 287.762 Q1451.25 285.418 1454.9 285.418 Q1458.17 285.418 1460.07 287.53 Q1461.98 289.628 1461.98 293.245 M1459.31 292.464 Q1459.28 290.279 1458.08 288.977 Q1456.9 287.675 1454.93 287.675 Q1452.7 287.675 1451.36 288.934 Q1450.03 290.192 1449.82 292.478 L1459.31 292.464 Z" fill="#000000" fill-rule="evenodd" fill-opacity="1" /><path clip-path="url(#clip770)" d="M 0 0 M1477.08 306.931 L1477.08 309 L1461.69 309 L1461.69 306.931 L1477.08 306.931 Z" fill="#000000" fill-rule="evenodd" fill-opacity="1" /><path clip-path="url(#clip770)" d="M 0 0 M1482.91 282.814 L1482.91 290.93 L1486.58 290.93 Q1488.62 290.93 1489.74 289.874 Q1490.85 288.818 1490.85 286.865 Q1490.85 284.926 1489.74 283.87 Q1488.62 282.814 1486.58 282.814 L1482.91 282.814 M1479.99 280.412 L1486.58 280.412 Q1490.22 280.412 1492.07 282.062 Q1493.93 283.696 1493.93 286.865 Q1493.93 290.062 1492.07 291.697 Q1490.22 293.332 1486.58 293.332 L1482.91 293.332 L1482.91 302.012 L1479.99 302.012 L1479.99 280.412 Z" fill="#000000" fill-rule="evenodd" fill-opacity="1" /><path clip-path="url(#clip770)" d="M 0 0 M1502.76 293.867 Q1499.53 293.867 1498.29 294.605 Q1497.04 295.343 1497.04 297.122 Q1497.04 298.54 1497.97 299.379 Q1498.91 300.204 1500.52 300.204 Q1502.73 300.204 1504.06 298.641 Q1505.41 297.064 1505.41 294.46 L1505.41 293.867 L1502.76 293.867 M1508.07 292.768 L1508.07 302.012 L1505.41 302.012 L1505.41 299.553 Q1504.5 301.028 1503.14 301.737 Q1501.78 302.432 1499.81 302.432 Q1497.32 302.432 1495.84 301.043 Q1494.38 299.64 1494.38 297.296 Q1494.38 294.562 1496.21 293.173 Q1498.04 291.784 1501.67 291.784 L1505.41 291.784 L1505.41 291.523 Q1505.41 289.686 1504.19 288.688 Q1502.99 287.675 1500.81 287.675 Q1499.42 287.675 1498.1 288.008 Q1496.78 288.34 1495.57 289.006 L1495.57 286.547 Q1497.03 285.982 1498.4 285.707 Q1499.78 285.418 1501.08 285.418 Q1504.6 285.418 1506.33 287.241 Q1508.07 289.064 1508.07 292.768 Z" fill="#000000" fill-rule="evenodd" fill-opacity="1" /><path clip-path="url(#clip770)" d="M 0 0 M1520.25 288.297 Q1519.8 288.037 1519.27 287.921 Q1518.75 287.791 1518.11 287.791 Q1515.85 287.791 1514.64 289.266 Q1513.44 290.728 1513.44 293.476 L1513.44 302.012 L1510.76 302.012 L1510.76 285.809 L1513.44 285.809 L1513.44 288.326 Q1514.28 286.85 1515.62 286.141 Q1516.97 285.418 1518.89 285.418 Q1519.17 285.418 1519.5 285.461 Q1519.83 285.49 1520.24 285.563 L1520.25 288.297 Z" fill="#000000" fill-rule="evenodd" fill-opacity="1" /><path clip-path="url(#clip770)" d="M 0 0 M1530.41 293.867 Q1527.18 293.867 1525.94 294.605 Q1524.69 295.343 1524.69 297.122 Q1524.69 298.54 1525.62 299.379 Q1526.56 300.204 1528.16 300.204 Q1530.38 300.204 1531.71 298.641 Q1533.05 297.064 1533.05 294.46 L1533.05 293.867 L1530.41 293.867 M1535.72 292.768 L1535.72 302.012 L1533.05 302.012 L1533.05 299.553 Q1532.14 301.028 1530.78 301.737 Q1529.42 302.432 1527.46 302.432 Q1524.97 302.432 1523.49 301.043 Q1522.03 299.64 1522.03 297.296 Q1522.03 294.562 1523.85 293.173 Q1525.69 291.784 1529.32 291.784 L1533.05 291.784 L1533.05 291.523 Q1533.05 289.686 1531.84 288.688 Q1530.64 287.675 1528.45 287.675 Q1527.06 287.675 1525.75 288.008 Q1524.43 288.34 1523.22 289.006 L1523.22 286.547 Q1524.68 285.982 1526.05 285.707 Q1527.43 285.418 1528.73 285.418 Q1532.24 285.418 1533.98 287.241 Q1535.72 289.064 1535.72 292.768 Z" fill="#000000" fill-rule="evenodd" fill-opacity="1" /><path clip-path="url(#clip770)" d="M 0 0 M1551.12 288.919 Q1552.12 287.125 1553.51 286.272 Q1554.9 285.418 1556.78 285.418 Q1559.31 285.418 1560.69 287.198 Q1562.06 288.963 1562.06 292.232 L1562.06 302.012 L1559.38 302.012 L1559.38 292.319 Q1559.38 289.99 1558.56 288.861 Q1557.74 287.733 1556.04 287.733 Q1553.97 287.733 1552.77 289.107 Q1551.57 290.482 1551.57 292.854 L1551.57 302.012 L1548.9 302.012 L1548.9 292.319 Q1548.9 289.975 1548.07 288.861 Q1547.25 287.733 1545.53 287.733 Q1543.49 287.733 1542.28 289.122 Q1541.08 290.496 1541.08 292.854 L1541.08 302.012 L1538.41 302.012 L1538.41 285.809 L1541.08 285.809 L1541.08 288.326 Q1541.99 286.836 1543.27 286.127 Q1544.54 285.418 1546.29 285.418 Q1548.06 285.418 1549.29 286.315 Q1550.53 287.212 1551.12 288.919 Z" fill="#000000" fill-rule="evenodd" fill-opacity="1" /><path clip-path="url(#clip770)" d="M 0 0 M1578.71 293.245 L1578.71 294.547 L1566.47 294.547 Q1566.65 297.296 1568.12 298.743 Q1569.61 300.175 1572.26 300.175 Q1573.79 300.175 1575.23 299.799 Q1576.67 299.423 1578.09 298.67 L1578.09 301.188 Q1576.66 301.795 1575.15 302.114 Q1573.65 302.432 1572.1 302.432 Q1568.22 302.432 1565.95 300.175 Q1563.7 297.918 1563.7 294.07 Q1563.7 290.091 1565.84 287.762 Q1567.99 285.418 1571.64 285.418 Q1574.91 285.418 1576.8 287.53 Q1578.71 289.628 1578.71 293.245 M1576.05 292.464 Q1576.02 290.279 1574.82 288.977 Q1573.64 287.675 1571.67 287.675 Q1569.44 287.675 1568.09 288.934 Q1566.76 290.192 1566.56 292.478 L1576.05 292.464 Z" fill="#000000" fill-rule="evenodd" fill-opacity="1" /><path clip-path="url(#clip770)" d="M 0 0 M1584.14 281.208 L1584.14 285.809 L1589.62 285.809 L1589.62 287.878 L1584.14 287.878 L1584.14 296.674 Q1584.14 298.656 1584.67 299.22 Q1585.22 299.784 1586.89 299.784 L1589.62 299.784 L1589.62 302.012 L1586.89 302.012 Q1583.81 302.012 1582.63 300.869 Q1581.46 299.712 1581.46 296.674 L1581.46 287.878 L1579.51 287.878 L1579.51 285.809 L1581.46 285.809 L1581.46 281.208 L1584.14 281.208 Z" fill="#000000" fill-rule="evenodd" fill-opacity="1" /><path clip-path="url(#clip770)" d="M 0 0 M1606.27 293.245 L1606.27 294.547 L1594.03 294.547 Q1594.21 297.296 1595.68 298.743 Q1597.17 300.175 1599.82 300.175 Q1601.36 300.175 1602.79 299.799 Q1604.23 299.423 1605.65 298.67 L1605.65 301.188 Q1604.22 301.795 1602.72 302.114 Q1601.21 302.432 1599.66 302.432 Q1595.79 302.432 1593.51 300.175 Q1591.26 297.918 1591.26 294.07 Q1591.26 290.091 1593.4 287.762 Q1595.55 285.418 1599.2 285.418 Q1602.47 285.418 1604.36 287.53 Q1606.27 289.628 1606.27 293.245 M1603.61 292.464 Q1603.58 290.279 1602.38 288.977 Q1601.2 287.675 1599.23 287.675 Q1597 287.675 1595.66 288.934 Q1594.32 290.192 1594.12 292.478 L1603.61 292.464 Z" fill="#000000" fill-rule="evenodd" fill-opacity="1" /><path clip-path="url(#clip770)" d="M 0 0 M1618.46 288.297 Q1618.01 288.037 1617.47 287.921 Q1616.95 287.791 1616.31 287.791 Q1614.06 287.791 1612.84 289.266 Q1611.64 290.728 1611.64 293.476 L1611.64 302.012 L1608.97 302.012 L1608.97 285.809 L1611.64 285.809 L1611.64 288.326 Q1612.48 286.85 1613.83 286.141 Q1615.17 285.418 1617.1 285.418 Q1617.37 285.418 1617.7 285.461 Q1618.04 285.49 1618.44 285.563 L1618.46 288.297 Z" fill="#000000" fill-rule="evenodd" fill-opacity="1" /><path clip-path="url(#clip770)" d="M 0 0 M1631.58 286.286 L1631.58 288.803 Q1630.45 288.225 1629.23 287.935 Q1628.02 287.646 1626.72 287.646 Q1624.73 287.646 1623.74 288.254 Q1622.75 288.861 1622.75 290.077 Q1622.75 291.003 1623.46 291.538 Q1624.17 292.059 1626.31 292.536 L1627.22 292.739 Q1630.06 293.346 1631.25 294.46 Q1632.45 295.56 1632.45 297.542 Q1632.45 299.799 1630.65 301.115 Q1628.87 302.432 1625.75 302.432 Q1624.45 302.432 1623.03 302.171 Q1621.62 301.925 1620.06 301.419 L1620.06 298.67 Q1621.54 299.437 1622.97 299.828 Q1624.4 300.204 1625.81 300.204 Q1627.69 300.204 1628.7 299.567 Q1629.71 298.916 1629.71 297.744 Q1629.71 296.659 1628.97 296.081 Q1628.25 295.502 1625.78 294.967 L1624.85 294.75 Q1622.38 294.229 1621.28 293.158 Q1620.18 292.073 1620.18 290.192 Q1620.18 287.906 1621.8 286.662 Q1623.42 285.418 1626.4 285.418 Q1627.87 285.418 1629.18 285.635 Q1630.48 285.852 1631.58 286.286 Z" fill="#000000" fill-rule="evenodd" fill-opacity="1" /><path clip-path="url(#clip770)" d="M 0 0 M686.393 1322.19 L686.393 1325.27 Q684.917 1323.9 683.239 1323.22 Q681.575 1322.54 679.695 1322.54 Q675.991 1322.54 674.023 1324.81 Q672.056 1327.07 672.056 1331.35 Q672.056 1335.62 674.023 1337.89 Q675.991 1340.14 679.695 1340.14 Q681.575 1340.14 683.239 1339.46 Q684.917 1338.78 686.393 1337.41 L686.393 1340.46 Q684.859 1341.5 683.138 1342.02 Q681.431 1342.55 679.521 1342.55 Q674.616 1342.55 671.795 1339.55 Q668.974 1336.54 668.974 1331.35 Q668.974 1326.14 671.795 1323.14 Q674.616 1320.14 679.521 1320.14 Q681.46 1320.14 683.167 1320.66 Q684.888 1321.16 686.393 1322.19 Z" fill="#000000" fill-rule="evenodd" fill-opacity="1" /><path clip-path="url(#clip770)" d="M 0 0 M689.185 1319.61 L691.847 1319.61 L691.847 1342.13 L689.185 1342.13 L689.185 1319.61 Z" fill="#000000" fill-rule="evenodd" fill-opacity="1" /><path clip-path="url(#clip770)" d="M 0 0 M694.639 1325.92 L697.301 1325.92 L697.301 1342.13 L694.639 1342.13 L694.639 1325.92 M694.639 1319.61 L697.301 1319.61 L697.301 1322.99 L694.639 1322.99 L694.639 1319.61 Z" fill="#000000" fill-rule="evenodd" fill-opacity="1" /><path clip-path="url(#clip770)" d="M 0 0 M713.954 1333.36 L713.954 1334.66 L701.714 1334.66 Q701.888 1337.41 703.363 1338.86 Q704.854 1340.29 707.501 1340.29 Q709.035 1340.29 710.467 1339.91 Q711.914 1339.54 713.331 1338.78 L713.331 1341.3 Q711.899 1341.91 710.395 1342.23 Q708.89 1342.55 707.342 1342.55 Q703.465 1342.55 701.193 1340.29 Q698.936 1338.03 698.936 1334.18 Q698.936 1330.2 701.077 1327.88 Q703.233 1325.53 706.879 1325.53 Q710.149 1325.53 712.044 1327.64 Q713.954 1329.74 713.954 1333.36 M711.292 1332.58 Q711.263 1330.39 710.062 1329.09 Q708.875 1327.79 706.908 1327.79 Q704.68 1327.79 703.334 1329.05 Q702.003 1330.31 701.801 1332.59 L711.292 1332.58 Z" fill="#000000" fill-rule="evenodd" fill-opacity="1" /><path clip-path="url(#clip770)" d="M 0 0 M730.215 1332.35 L730.215 1342.13 L727.553 1342.13 L727.553 1332.43 Q727.553 1330.13 726.656 1328.99 Q725.759 1327.85 723.965 1327.85 Q721.809 1327.85 720.565 1329.22 Q719.321 1330.6 719.321 1332.97 L719.321 1342.13 L716.645 1342.13 L716.645 1325.92 L719.321 1325.92 L719.321 1328.44 Q720.276 1326.98 721.564 1326.26 Q722.866 1325.53 724.558 1325.53 Q727.351 1325.53 728.783 1327.27 Q730.215 1328.99 730.215 1332.35 Z" fill="#000000" fill-rule="evenodd" fill-opacity="1" /><path clip-path="url(#clip770)" d="M 0 0 M735.64 1321.32 L735.64 1325.92 L741.124 1325.92 L741.124 1327.99 L735.64 1327.99 L735.64 1336.79 Q735.64 1338.77 736.176 1339.33 Q736.725 1339.9 738.389 1339.9 L741.124 1339.9 L741.124 1342.13 L738.389 1342.13 Q735.308 1342.13 734.136 1340.98 Q732.964 1339.83 732.964 1336.79 L732.964 1327.99 L731.011 1327.99 L731.011 1325.92 L732.964 1325.92 L732.964 1321.32 L735.64 1321.32 Z" fill="#000000" fill-rule="evenodd" fill-opacity="1" /><path clip-path="url(#clip770)" d="M 0 0 M756.228 1347.05 L756.228 1349.11 L740.834 1349.11 L740.834 1347.05 L756.228 1347.05 Z" fill="#000000" fill-rule="evenodd" fill-opacity="1" /><path clip-path="url(#clip770)" d="M 0 0 M766.384 1333.98 Q763.158 1333.98 761.913 1334.72 Q760.669 1335.46 760.669 1337.24 Q760.669 1338.65 761.595 1339.49 Q762.536 1340.32 764.141 1340.32 Q766.355 1340.32 767.686 1338.76 Q769.031 1337.18 769.031 1334.57 L769.031 1333.98 L766.384 1333.98 M771.693 1332.88 L771.693 1342.13 L769.031 1342.13 L769.031 1339.67 Q768.12 1341.14 766.76 1341.85 Q765.4 1342.55 763.432 1342.55 Q760.944 1342.55 759.468 1341.16 Q758.007 1339.75 758.007 1337.41 Q758.007 1334.68 759.83 1333.29 Q761.667 1331.9 765.299 1331.9 L769.031 1331.9 L769.031 1331.64 Q769.031 1329.8 767.816 1328.8 Q766.615 1327.79 764.431 1327.79 Q763.042 1327.79 761.725 1328.12 Q760.409 1328.45 759.194 1329.12 L759.194 1326.66 Q760.655 1326.1 762.029 1325.82 Q763.404 1325.53 764.706 1325.53 Q768.221 1325.53 769.957 1327.35 Q771.693 1329.18 771.693 1332.88 Z" fill="#000000" fill-rule="evenodd" fill-opacity="1" /><path clip-path="url(#clip770)" d="M 0 0 M787.955 1332.35 L787.955 1342.13 L785.293 1342.13 L785.293 1332.43 Q785.293 1330.13 784.396 1328.99 Q783.499 1327.85 781.705 1327.85 Q779.549 1327.85 778.305 1329.22 Q777.061 1330.6 777.061 1332.97 L777.061 1342.13 L774.384 1342.13 L774.384 1325.92 L777.061 1325.92 L777.061 1328.44 Q778.016 1326.98 779.303 1326.26 Q780.605 1325.53 782.298 1325.53 Q785.09 1325.53 786.523 1327.27 Q787.955 1328.99 787.955 1332.35 Z" fill="#000000" fill-rule="evenodd" fill-opacity="1" /><path clip-path="url(#clip770)" d="M 0 0 M801.41 1328.38 L801.41 1319.61 L804.072 1319.61 L804.072 1342.13 L801.41 1342.13 L801.41 1339.7 Q800.571 1341.14 799.283 1341.85 Q798.01 1342.55 796.216 1342.55 Q793.279 1342.55 791.427 1340.2 Q789.59 1337.86 789.59 1334.04 Q789.59 1330.22 791.427 1327.88 Q793.279 1325.53 796.216 1325.53 Q798.01 1325.53 799.283 1326.24 Q800.571 1326.94 801.41 1328.38 M792.339 1334.04 Q792.339 1336.98 793.539 1338.65 Q794.755 1340.32 796.867 1340.32 Q798.979 1340.32 800.194 1338.65 Q801.41 1336.98 801.41 1334.04 Q801.41 1331.1 800.194 1329.44 Q798.979 1327.76 796.867 1327.76 Q794.755 1327.76 793.539 1329.44 Q792.339 1331.1 792.339 1334.04 Z" fill="#000000" fill-rule="evenodd" fill-opacity="1" /><path clip-path="url(#clip770)" d="M 0 0 M819.176 1347.05 L819.176 1349.11 L803.782 1349.11 L803.782 1347.05 L819.176 1347.05 Z" fill="#000000" fill-rule="evenodd" fill-opacity="1" /><path clip-path="url(#clip770)" d="M 0 0 M838.258 1322.19 L838.258 1325.27 Q836.783 1323.9 835.105 1323.22 Q833.441 1322.54 831.56 1322.54 Q827.856 1322.54 825.889 1324.81 Q823.921 1327.07 823.921 1331.35 Q823.921 1335.62 825.889 1337.89 Q827.856 1340.14 831.56 1340.14 Q833.441 1340.14 835.105 1339.46 Q836.783 1338.78 838.258 1337.41 L838.258 1340.46 Q836.725 1341.5 835.003 1342.02 Q833.296 1342.55 831.386 1342.55 Q826.482 1342.55 823.661 1339.55 Q820.84 1336.54 820.84 1331.35 Q820.84 1326.14 823.661 1323.14 Q826.482 1320.14 831.386 1320.14 Q833.325 1320.14 835.032 1320.66 Q836.754 1321.16 838.258 1322.19 Z" fill="#000000" fill-rule="evenodd" fill-opacity="1" /><path clip-path="url(#clip770)" d="M 0 0 M847.33 1327.79 Q845.188 1327.79 843.944 1329.47 Q842.7 1331.13 842.7 1334.04 Q842.7 1336.95 843.93 1338.62 Q845.174 1340.29 847.33 1340.29 Q849.456 1340.29 850.701 1338.61 Q851.945 1336.93 851.945 1334.04 Q851.945 1331.16 850.701 1329.48 Q849.456 1327.79 847.33 1327.79 M847.33 1325.53 Q850.802 1325.53 852.784 1327.79 Q854.766 1330.05 854.766 1334.04 Q854.766 1338.02 852.784 1340.29 Q850.802 1342.55 847.33 1342.55 Q843.843 1342.55 841.861 1340.29 Q839.893 1338.02 839.893 1334.04 Q839.893 1330.05 841.861 1327.79 Q843.843 1325.53 847.33 1325.53 Z" fill="#000000" fill-rule="evenodd" fill-opacity="1" /><path clip-path="url(#clip770)" d="M 0 0 M871.027 1332.35 L871.027 1342.13 L868.365 1342.13 L868.365 1332.43 Q868.365 1330.13 867.468 1328.99 Q866.571 1327.85 864.777 1327.85 Q862.622 1327.85 861.378 1329.22 Q860.133 1330.6 860.133 1332.97 L860.133 1342.13 L857.457 1342.13 L857.457 1325.92 L860.133 1325.92 L860.133 1328.44 Q861.088 1326.98 862.376 1326.26 Q863.678 1325.53 865.371 1325.53 Q868.163 1325.53 869.595 1327.27 Q871.027 1328.99 871.027 1332.35 Z" fill="#000000" fill-rule="evenodd" fill-opacity="1" /><path clip-path="url(#clip770)" d="M 0 0 M884.149 1326.4 L884.149 1328.92 Q883.021 1328.34 881.806 1328.05 Q880.59 1327.76 879.288 1327.76 Q877.306 1327.76 876.308 1328.37 Q875.324 1328.98 875.324 1330.19 Q875.324 1331.12 876.033 1331.65 Q876.742 1332.17 878.883 1332.65 L879.795 1332.85 Q882.63 1333.46 883.817 1334.57 Q885.017 1335.67 885.017 1337.66 Q885.017 1339.91 883.224 1341.23 Q881.444 1342.55 878.319 1342.55 Q877.017 1342.55 875.599 1342.29 Q874.196 1342.04 872.633 1341.53 L872.633 1338.78 Q874.109 1339.55 875.541 1339.94 Q876.974 1340.32 878.377 1340.32 Q880.258 1340.32 881.27 1339.68 Q882.283 1339.03 882.283 1337.86 Q882.283 1336.77 881.545 1336.19 Q880.822 1335.62 878.348 1335.08 L877.422 1334.86 Q874.948 1334.34 873.849 1333.27 Q872.749 1332.19 872.749 1330.31 Q872.749 1328.02 874.369 1326.78 Q875.99 1325.53 878.97 1325.53 Q880.446 1325.53 881.748 1325.75 Q883.05 1325.97 884.149 1326.4 Z" fill="#000000" fill-rule="evenodd" fill-opacity="1" /><path clip-path="url(#clip770)" d="M 0 0 M887.535 1335.73 L887.535 1325.92 L890.197 1325.92 L890.197 1335.63 Q890.197 1337.93 891.094 1339.09 Q891.991 1340.23 893.785 1340.23 Q895.94 1340.23 897.185 1338.86 Q898.443 1337.48 898.443 1335.11 L898.443 1325.92 L901.105 1325.92 L901.105 1342.13 L898.443 1342.13 L898.443 1339.64 Q897.474 1341.11 896.186 1341.84 Q894.913 1342.55 893.221 1342.55 Q890.428 1342.55 888.982 1340.81 Q887.535 1339.07 887.535 1335.73 M894.233 1325.53 L894.233 1325.53 Z" fill="#000000" fill-rule="evenodd" fill-opacity="1" /><path clip-path="url(#clip770)" d="M 0 0 M903.898 1319.61 L906.56 1319.61 L906.56 1342.13 L903.898 1342.13 L903.898 1319.61 Z" fill="#000000" fill-rule="evenodd" fill-opacity="1" /><path clip-path="url(#clip770)" d="M 0 0 M911.985 1321.32 L911.985 1325.92 L917.468 1325.92 L917.468 1327.99 L911.985 1327.99 L911.985 1336.79 Q911.985 1338.77 912.52 1339.33 Q913.07 1339.9 914.734 1339.9 L917.468 1339.9 L917.468 1342.13 L914.734 1342.13 Q911.652 1342.13 910.48 1340.98 Q909.308 1339.83 909.308 1336.79 L909.308 1327.99 L907.355 1327.99 L907.355 1325.92 L909.308 1325.92 L909.308 1321.32 L911.985 1321.32 Z" fill="#000000" fill-rule="evenodd" fill-opacity="1" /><path clip-path="url(#clip770)" d="M 0 0 M927.624 1333.98 Q924.398 1333.98 923.154 1334.72 Q921.91 1335.46 921.91 1337.24 Q921.91 1338.65 922.836 1339.49 Q923.776 1340.32 925.382 1340.32 Q927.595 1340.32 928.926 1338.76 Q930.272 1337.18 930.272 1334.57 L930.272 1333.98 L927.624 1333.98 M932.934 1332.88 L932.934 1342.13 L930.272 1342.13 L930.272 1339.67 Q929.36 1341.14 928 1341.85 Q926.641 1342.55 924.673 1342.55 Q922.185 1342.55 920.709 1341.16 Q919.248 1339.75 919.248 1337.41 Q919.248 1334.68 921.071 1333.29 Q922.908 1331.9 926.539 1331.9 L930.272 1331.9 L930.272 1331.64 Q930.272 1329.8 929.057 1328.8 Q927.856 1327.79 925.671 1327.79 Q924.282 1327.79 922.966 1328.12 Q921.649 1328.45 920.434 1329.12 L920.434 1326.66 Q921.895 1326.1 923.27 1325.82 Q924.644 1325.53 925.946 1325.53 Q929.462 1325.53 931.198 1327.35 Q932.934 1329.18 932.934 1332.88 Z" fill="#000000" fill-rule="evenodd" fill-opacity="1" /><path clip-path="url(#clip770)" d="M 0 0 M949.195 1332.35 L949.195 1342.13 L946.533 1342.13 L946.533 1332.43 Q946.533 1330.13 945.636 1328.99 Q944.739 1327.85 942.945 1327.85 Q940.79 1327.85 939.546 1329.22 Q938.301 1330.6 938.301 1332.97 L938.301 1342.13 L935.625 1342.13 L935.625 1325.92 L938.301 1325.92 L938.301 1328.44 Q939.256 1326.98 940.544 1326.26 Q941.846 1325.53 943.539 1325.53 Q946.331 1325.53 947.763 1327.27 Q949.195 1328.99 949.195 1332.35 Z" fill="#000000" fill-rule="evenodd" fill-opacity="1" /><path clip-path="url(#clip770)" d="M 0 0 M954.621 1321.32 L954.621 1325.92 L960.104 1325.92 L960.104 1327.99 L954.621 1327.99 L954.621 1336.79 Q954.621 1338.77 955.156 1339.33 Q955.706 1339.9 957.37 1339.9 L960.104 1339.9 L960.104 1342.13 L957.37 1342.13 Q954.288 1342.13 953.116 1340.98 Q951.944 1339.83 951.944 1336.79 L951.944 1327.99 L949.991 1327.99 L949.991 1325.92 L951.944 1325.92 L951.944 1321.32 L954.621 1321.32 Z" fill="#000000" fill-rule="evenodd" fill-opacity="1" /><path clip-path="url(#clip770)" d="M 0 0 M975.208 1347.05 L975.208 1349.11 L959.815 1349.11 L959.815 1347.05 L975.208 1347.05 Z" fill="#000000" fill-rule="evenodd" fill-opacity="1" /><path clip-path="url(#clip770)" d="M 0 0 M988.359 1332 Q989.299 1332.32 990.182 1333.36 Q991.079 1334.4 991.976 1336.22 L994.942 1342.13 L991.802 1342.13 L989.039 1336.59 Q987.968 1334.41 986.956 1333.71 Q985.957 1333 984.221 1333 L981.038 1333 L981.038 1342.13 L978.116 1342.13 L978.116 1320.53 L984.713 1320.53 Q988.417 1320.53 990.24 1322.07 Q992.063 1323.62 992.063 1326.75 Q992.063 1328.79 991.108 1330.13 Q990.167 1331.48 988.359 1332 M981.038 1322.93 L981.038 1330.6 L984.713 1330.6 Q986.825 1330.6 987.896 1329.63 Q988.981 1328.64 988.981 1326.75 Q988.981 1324.85 987.896 1323.9 Q986.825 1322.93 984.713 1322.93 L981.038 1322.93 Z" fill="#000000" fill-rule="evenodd" fill-opacity="1" /><path clip-path="url(#clip770)" d="M 0 0 M1010.26 1333.36 L1010.26 1334.66 L998.023 1334.66 Q998.197 1337.41 999.673 1338.86 Q1001.16 1340.29 1003.81 1340.29 Q1005.34 1340.29 1006.78 1339.91 Q1008.22 1339.54 1009.64 1338.78 L1009.64 1341.3 Q1008.21 1341.91 1006.7 1342.23 Q1005.2 1342.55 1003.65 1342.55 Q999.774 1342.55 997.502 1340.29 Q995.245 1338.03 995.245 1334.18 Q995.245 1330.2 997.387 1327.88 Q999.542 1325.53 1003.19 1325.53 Q1006.46 1325.53 1008.35 1327.64 Q1010.26 1329.74 1010.26 1333.36 M1007.6 1332.58 Q1007.57 1330.39 1006.37 1329.09 Q1005.18 1327.79 1003.22 1327.79 Q1000.99 1327.79 999.644 1329.05 Q998.313 1330.31 998.11 1332.59 L1007.6 1332.58 Z" fill="#000000" fill-rule="evenodd" fill-opacity="1" /><path clip-path="url(#clip770)" d="M 0 0 M1014.65 1334.04 Q1014.65 1336.98 1015.85 1338.65 Q1017.06 1340.32 1019.17 1340.32 Q1021.29 1340.32 1022.5 1338.65 Q1023.72 1336.98 1023.72 1334.04 Q1023.72 1331.1 1022.5 1329.44 Q1021.29 1327.76 1019.17 1327.76 Q1017.06 1327.76 1015.85 1329.44 Q1014.65 1331.1 1014.65 1334.04 M1023.72 1339.7 Q1022.88 1341.14 1021.59 1341.85 Q1020.32 1342.55 1018.52 1342.55 Q1015.59 1342.55 1013.73 1340.2 Q1011.9 1337.86 1011.9 1334.04 Q1011.9 1330.22 1013.73 1327.88 Q1015.59 1325.53 1018.52 1325.53 Q1020.32 1325.53 1021.59 1326.24 Q1022.88 1326.94 1023.72 1328.38 L1023.72 1325.92 L1026.38 1325.92 L1026.38 1348.29 L1023.72 1348.29 L1023.72 1339.7 Z" fill="#000000" fill-rule="evenodd" fill-opacity="1" /><path clip-path="url(#clip770)" d="M 0 0 M1028.9 1335.73 L1028.9 1325.92 L1031.56 1325.92 L1031.56 1335.63 Q1031.56 1337.93 1032.46 1339.09 Q1033.35 1340.23 1035.15 1340.23 Q1037.3 1340.23 1038.55 1338.86 Q1039.81 1337.48 1039.81 1335.11 L1039.81 1325.92 L1042.47 1325.92 L1042.47 1342.13 L1039.81 1342.13 L1039.81 1339.64 Q1038.84 1341.11 1037.55 1341.84 Q1036.28 1342.55 1034.58 1342.55 Q1031.79 1342.55 1030.34 1340.81 Q1028.9 1339.07 1028.9 1335.73 M1035.6 1325.53 L1035.6 1325.53 Z" fill="#000000" fill-rule="evenodd" fill-opacity="1" /><path clip-path="url(#clip770)" d="M 0 0 M1059.12 1333.36 L1059.12 1334.66 L1046.88 1334.66 Q1047.05 1337.41 1048.53 1338.86 Q1050.02 1340.29 1052.67 1340.29 Q1054.2 1340.29 1055.63 1339.91 Q1057.08 1339.54 1058.5 1338.78 L1058.5 1341.3 Q1057.07 1341.91 1055.56 1342.23 Q1054.06 1342.55 1052.51 1342.55 Q1048.63 1342.55 1046.36 1340.29 Q1044.1 1338.03 1044.1 1334.18 Q1044.1 1330.2 1046.24 1327.88 Q1048.4 1325.53 1052.04 1325.53 Q1055.31 1325.53 1057.21 1327.64 Q1059.12 1329.74 1059.12 1333.36 M1056.46 1332.58 Q1056.43 1330.39 1055.23 1329.09 Q1054.04 1327.79 1052.07 1327.79 Q1049.85 1327.79 1048.5 1329.05 Q1047.17 1330.31 1046.97 1332.59 L1056.46 1332.58 Z" fill="#000000" fill-rule="evenodd" fill-opacity="1" /><path clip-path="url(#clip770)" d="M 0 0 M1072.24 1326.4 L1072.24 1328.92 Q1071.11 1328.34 1069.9 1328.05 Q1068.68 1327.76 1067.38 1327.76 Q1065.4 1327.76 1064.4 1328.37 Q1063.42 1328.98 1063.42 1330.19 Q1063.42 1331.12 1064.13 1331.65 Q1064.83 1332.17 1066.98 1332.65 L1067.89 1332.85 Q1070.72 1333.46 1071.91 1334.57 Q1073.11 1335.67 1073.11 1337.66 Q1073.11 1339.91 1071.32 1341.23 Q1069.54 1342.55 1066.41 1342.55 Q1065.11 1342.55 1063.69 1342.29 Q1062.29 1342.04 1060.73 1341.53 L1060.73 1338.78 Q1062.2 1339.55 1063.63 1339.94 Q1065.07 1340.32 1066.47 1340.32 Q1068.35 1340.32 1069.36 1339.68 Q1070.38 1339.03 1070.38 1337.86 Q1070.38 1336.77 1069.64 1336.19 Q1068.91 1335.62 1066.44 1335.08 L1065.51 1334.86 Q1063.04 1334.34 1061.94 1333.27 Q1060.84 1332.19 1060.84 1330.31 Q1060.84 1328.02 1062.46 1326.78 Q1064.08 1325.53 1067.06 1325.53 Q1068.54 1325.53 1069.84 1325.75 Q1071.14 1325.97 1072.24 1326.4 Z" fill="#000000" fill-rule="evenodd" fill-opacity="1" /><path clip-path="url(#clip770)" d="M 0 0 M1078.53 1321.32 L1078.53 1325.92 L1084.02 1325.92 L1084.02 1327.99 L1078.53 1327.99 L1078.53 1336.79 Q1078.53 1338.77 1079.07 1339.33 Q1079.62 1339.9 1081.28 1339.9 L1084.02 1339.9 L1084.02 1342.13 L1081.28 1342.13 Q1078.2 1342.13 1077.03 1340.98 Q1075.86 1339.83 1075.86 1336.79 L1075.86 1327.99 L1073.91 1327.99 L1073.91 1325.92 L1075.86 1325.92 L1075.86 1321.32 L1078.53 1321.32 Z" fill="#000000" fill-rule="evenodd" fill-opacity="1" /><path clip-path="url(#clip770)" d="M 0 0 M1097.14 1326.4 L1097.14 1328.92 Q1096.01 1328.34 1094.8 1328.05 Q1093.58 1327.76 1092.28 1327.76 Q1090.3 1327.76 1089.3 1328.37 Q1088.32 1328.98 1088.32 1330.19 Q1088.32 1331.12 1089.02 1331.65 Q1089.73 1332.17 1091.87 1332.65 L1092.79 1332.85 Q1095.62 1333.46 1096.81 1334.57 Q1098.01 1335.67 1098.01 1337.66 Q1098.01 1339.91 1096.21 1341.23 Q1094.43 1342.55 1091.31 1342.55 Q1090.01 1342.55 1088.59 1342.29 Q1087.19 1342.04 1085.62 1341.53 L1085.62 1338.78 Q1087.1 1339.55 1088.53 1339.94 Q1089.96 1340.32 1091.37 1340.32 Q1093.25 1340.32 1094.26 1339.68 Q1095.27 1339.03 1095.27 1337.86 Q1095.27 1336.77 1094.54 1336.19 Q1093.81 1335.62 1091.34 1335.08 L1090.41 1334.86 Q1087.94 1334.34 1086.84 1333.27 Q1085.74 1332.19 1085.74 1330.31 Q1085.74 1328.02 1087.36 1326.78 Q1088.98 1325.53 1091.96 1325.53 Q1093.44 1325.53 1094.74 1325.75 Q1096.04 1325.97 1097.14 1326.4 Z" fill="#000000" fill-rule="evenodd" fill-opacity="1" /><path clip-path="url(#clip770)" d="M 0 0 M1306.36 1271.5 L1306.36 1288.29 L1309.89 1288.29 Q1314.36 1288.29 1316.43 1286.27 Q1318.52 1284.24 1318.52 1279.87 Q1318.52 1275.53 1316.43 1273.52 Q1314.36 1271.5 1309.89 1271.5 L1306.36 1271.5 M1303.44 1269.09 L1309.45 1269.09 Q1315.72 1269.09 1318.66 1271.71 Q1321.6 1274.32 1321.6 1279.87 Q1321.6 1285.46 1318.65 1288.08 Q1315.7 1290.69 1309.45 1290.69 L1303.44 1290.69 L1303.44 1269.09 Z" fill="#000000" fill-rule="evenodd" fill-opacity="1" /><path clip-path="url(#clip770)" d="M 0 0 M1338.25 1281.93 L1338.25 1283.23 L1326.01 1283.23 Q1326.18 1285.98 1327.66 1287.43 Q1329.15 1288.86 1331.8 1288.86 Q1333.33 1288.86 1334.76 1288.48 Q1336.21 1288.11 1337.63 1287.35 L1337.63 1289.87 Q1336.2 1290.48 1334.69 1290.8 Q1333.19 1291.11 1331.64 1291.11 Q1327.76 1291.11 1325.49 1288.86 Q1323.23 1286.6 1323.23 1282.75 Q1323.23 1278.77 1325.37 1276.44 Q1327.53 1274.1 1331.18 1274.1 Q1334.45 1274.1 1336.34 1276.21 Q1338.25 1278.31 1338.25 1281.93 M1335.59 1281.15 Q1335.56 1278.96 1334.36 1277.66 Q1333.17 1276.36 1331.2 1276.36 Q1328.98 1276.36 1327.63 1277.62 Q1326.3 1278.87 1326.1 1281.16 L1335.59 1281.15 Z" fill="#000000" fill-rule="evenodd" fill-opacity="1" /><path clip-path="url(#clip770)" d="M 0 0 M1351.37 1274.97 L1351.37 1277.49 Q1350.24 1276.91 1349.03 1276.62 Q1347.81 1276.33 1346.51 1276.33 Q1344.53 1276.33 1343.53 1276.94 Q1342.55 1277.54 1342.55 1278.76 Q1342.55 1279.68 1343.26 1280.22 Q1343.96 1280.74 1346.11 1281.22 L1347.02 1281.42 Q1349.85 1282.03 1351.04 1283.14 Q1352.24 1284.24 1352.24 1286.22 Q1352.24 1288.48 1350.45 1289.8 Q1348.67 1291.11 1345.54 1291.11 Q1344.24 1291.11 1342.82 1290.85 Q1341.42 1290.61 1339.86 1290.1 L1339.86 1287.35 Q1341.33 1288.12 1342.76 1288.51 Q1344.2 1288.89 1345.6 1288.89 Q1347.48 1288.89 1348.49 1288.25 Q1349.51 1287.6 1349.51 1286.43 Q1349.51 1285.34 1348.77 1284.76 Q1348.04 1284.18 1345.57 1283.65 L1344.64 1283.43 Q1342.17 1282.91 1341.07 1281.84 Q1339.97 1280.76 1339.97 1278.87 Q1339.97 1276.59 1341.59 1275.34 Q1343.21 1274.1 1346.19 1274.1 Q1347.67 1274.1 1348.97 1274.32 Q1350.27 1274.53 1351.37 1274.97 Z" fill="#000000" fill-rule="evenodd" fill-opacity="1" /><path clip-path="url(#clip770)" d="M 0 0 M1355.03 1274.49 L1357.69 1274.49 L1357.69 1290.69 L1355.03 1290.69 L1355.03 1274.49 M1355.03 1268.18 L1357.69 1268.18 L1357.69 1271.55 L1355.03 1271.55 L1355.03 1268.18 Z" fill="#000000" fill-rule="evenodd" fill-opacity="1" /><path clip-path="url(#clip770)" d="M 0 0 M1371.15 1282.4 Q1371.15 1279.51 1369.95 1277.92 Q1368.76 1276.33 1366.61 1276.33 Q1364.47 1276.33 1363.26 1277.92 Q1362.08 1279.51 1362.08 1282.4 Q1362.08 1285.28 1363.26 1286.88 Q1364.47 1288.47 1366.61 1288.47 Q1368.76 1288.47 1369.95 1286.88 Q1371.15 1285.28 1371.15 1282.4 M1373.81 1288.68 Q1373.81 1292.82 1371.97 1294.83 Q1370.14 1296.86 1366.35 1296.86 Q1364.94 1296.86 1363.7 1296.64 Q1362.45 1296.44 1361.28 1296 L1361.28 1293.41 Q1362.45 1294.05 1363.6 1294.36 Q1364.74 1294.66 1365.93 1294.66 Q1368.54 1294.66 1369.85 1293.28 Q1371.15 1291.92 1371.15 1289.16 L1371.15 1287.84 Q1370.32 1289.28 1369.04 1289.99 Q1367.75 1290.69 1365.96 1290.69 Q1362.97 1290.69 1361.15 1288.42 Q1359.33 1286.15 1359.33 1282.4 Q1359.33 1278.64 1361.15 1276.37 Q1362.97 1274.1 1365.96 1274.1 Q1367.75 1274.1 1369.04 1274.81 Q1370.32 1275.52 1371.15 1276.95 L1371.15 1274.49 L1373.81 1274.49 L1373.81 1288.68 Z" fill="#000000" fill-rule="evenodd" fill-opacity="1" /><path clip-path="url(#clip770)" d="M 0 0 M1390.07 1280.91 L1390.07 1290.69 L1387.41 1290.69 L1387.41 1281 Q1387.41 1278.7 1386.51 1277.56 Q1385.62 1276.42 1383.82 1276.42 Q1381.67 1276.42 1380.42 1277.79 Q1379.18 1279.16 1379.18 1281.54 L1379.18 1290.69 L1376.5 1290.69 L1376.5 1274.49 L1379.18 1274.49 L1379.18 1277.01 Q1380.13 1275.55 1381.42 1274.82 Q1382.72 1274.1 1384.42 1274.1 Q1387.21 1274.1 1388.64 1275.84 Q1390.07 1277.56 1390.07 1280.91 Z" fill="#000000" fill-rule="evenodd" fill-opacity="1" /><path clip-path="url(#clip770)" d="M 0 0 M1405.18 1295.61 L1405.18 1297.68 L1389.78 1297.68 L1389.78 1295.61 L1405.18 1295.61 Z" fill="#000000" fill-rule="evenodd" fill-opacity="1" /><path clip-path="url(#clip770)" d="M 0 0 M1418.33 1280.57 Q1419.27 1280.89 1420.15 1281.93 Q1421.05 1282.97 1421.94 1284.79 L1424.91 1290.69 L1421.77 1290.69 L1419.01 1285.15 Q1417.94 1282.98 1416.92 1282.27 Q1415.93 1281.57 1414.19 1281.57 L1411.01 1281.57 L1411.01 1290.69 L1408.08 1290.69 L1408.08 1269.09 L1414.68 1269.09 Q1418.39 1269.09 1420.21 1270.64 Q1422.03 1272.19 1422.03 1275.32 Q1422.03 1277.36 1421.08 1278.7 Q1420.14 1280.05 1418.33 1280.57 M1411.01 1271.5 L1411.01 1279.16 L1414.68 1279.16 Q1416.79 1279.16 1417.86 1278.19 Q1418.95 1277.21 1418.95 1275.32 Q1418.95 1273.42 1417.86 1272.47 Q1416.79 1271.5 1414.68 1271.5 L1411.01 1271.5 Z" fill="#000000" fill-rule="evenodd" fill-opacity="1" /><path clip-path="url(#clip770)" d="M 0 0 M1440.23 1281.93 L1440.23 1283.23 L1427.99 1283.23 Q1428.17 1285.98 1429.64 1287.43 Q1431.13 1288.86 1433.78 1288.86 Q1435.31 1288.86 1436.74 1288.48 Q1438.19 1288.11 1439.61 1287.35 L1439.61 1289.87 Q1438.18 1290.48 1436.67 1290.8 Q1435.17 1291.11 1433.62 1291.11 Q1429.74 1291.11 1427.47 1288.86 Q1425.21 1286.6 1425.21 1282.75 Q1425.21 1278.77 1427.36 1276.44 Q1429.51 1274.1 1433.16 1274.1 Q1436.43 1274.1 1438.32 1276.21 Q1440.23 1278.31 1440.23 1281.93 M1437.57 1281.15 Q1437.54 1278.96 1436.34 1277.66 Q1435.15 1276.36 1433.19 1276.36 Q1430.96 1276.36 1429.61 1277.62 Q1428.28 1278.87 1428.08 1281.16 L1437.57 1281.15 Z" fill="#000000" fill-rule="evenodd" fill-opacity="1" /><path clip-path="url(#clip770)" d="M 0 0 M1450.39 1282.55 Q1447.16 1282.55 1445.92 1283.29 Q1444.67 1284.03 1444.67 1285.8 Q1444.67 1287.22 1445.6 1288.06 Q1446.54 1288.89 1448.15 1288.89 Q1450.36 1288.89 1451.69 1287.32 Q1453.04 1285.75 1453.04 1283.14 L1453.04 1282.55 L1450.39 1282.55 M1455.7 1281.45 L1455.7 1290.69 L1453.04 1290.69 L1453.04 1288.24 Q1452.12 1289.71 1450.76 1290.42 Q1449.4 1291.11 1447.44 1291.11 Q1444.95 1291.11 1443.47 1289.73 Q1442.01 1288.32 1442.01 1285.98 Q1442.01 1283.24 1443.83 1281.86 Q1445.67 1280.47 1449.3 1280.47 L1453.04 1280.47 L1453.04 1280.21 Q1453.04 1278.37 1451.82 1277.37 Q1450.62 1276.36 1448.43 1276.36 Q1447.05 1276.36 1445.73 1276.69 Q1444.41 1277.02 1443.2 1277.69 L1443.2 1275.23 Q1444.66 1274.66 1446.03 1274.39 Q1447.41 1274.1 1448.71 1274.1 Q1452.23 1274.1 1453.96 1275.92 Q1455.7 1277.75 1455.7 1281.45 Z" fill="#000000" fill-rule="evenodd" fill-opacity="1" /><path clip-path="url(#clip770)" d="M 0 0 M1468.82 1274.97 L1468.82 1277.49 Q1467.69 1276.91 1466.48 1276.62 Q1465.26 1276.33 1463.96 1276.33 Q1461.98 1276.33 1460.98 1276.94 Q1459.99 1277.54 1459.99 1278.76 Q1459.99 1279.68 1460.7 1280.22 Q1461.41 1280.74 1463.55 1281.22 L1464.46 1281.42 Q1467.3 1282.03 1468.49 1283.14 Q1469.69 1284.24 1469.69 1286.22 Q1469.69 1288.48 1467.89 1289.8 Q1466.11 1291.11 1462.99 1291.11 Q1461.69 1291.11 1460.27 1290.85 Q1458.87 1290.61 1457.3 1290.1 L1457.3 1287.35 Q1458.78 1288.12 1460.21 1288.51 Q1461.64 1288.89 1463.05 1288.89 Q1464.93 1288.89 1465.94 1288.25 Q1466.95 1287.6 1466.95 1286.43 Q1466.95 1285.34 1466.22 1284.76 Q1465.49 1284.18 1463.02 1283.65 L1462.09 1283.43 Q1459.62 1282.91 1458.52 1281.84 Q1457.42 1280.76 1457.42 1278.87 Q1457.42 1276.59 1459.04 1275.34 Q1460.66 1274.1 1463.64 1274.1 Q1465.12 1274.1 1466.42 1274.32 Q1467.72 1274.53 1468.82 1274.97 Z" fill="#000000" fill-rule="evenodd" fill-opacity="1" /><path clip-path="url(#clip770)" d="M 0 0 M1478.76 1276.36 Q1476.62 1276.36 1475.37 1278.04 Q1474.13 1279.7 1474.13 1282.61 Q1474.13 1285.52 1475.36 1287.19 Q1476.6 1288.86 1478.76 1288.86 Q1480.89 1288.86 1482.13 1287.18 Q1483.37 1285.5 1483.37 1282.61 Q1483.37 1279.73 1482.13 1278.05 Q1480.89 1276.36 1478.76 1276.36 M1478.76 1274.1 Q1482.23 1274.1 1484.21 1276.36 Q1486.19 1278.61 1486.19 1282.61 Q1486.19 1286.59 1484.21 1288.86 Q1482.23 1291.11 1478.76 1291.11 Q1475.27 1291.11 1473.29 1288.86 Q1471.32 1286.59 1471.32 1282.61 Q1471.32 1278.61 1473.29 1276.36 Q1475.27 1274.1 1478.76 1274.1 Z" fill="#000000" fill-rule="evenodd" fill-opacity="1" /><path clip-path="url(#clip770)" d="M 0 0 M1502.46 1280.91 L1502.46 1290.69 L1499.79 1290.69 L1499.79 1281 Q1499.79 1278.7 1498.9 1277.56 Q1498 1276.42 1496.21 1276.42 Q1494.05 1276.42 1492.81 1277.79 Q1491.56 1279.16 1491.56 1281.54 L1491.56 1290.69 L1488.89 1290.69 L1488.89 1274.49 L1491.56 1274.49 L1491.56 1277.01 Q1492.52 1275.55 1493.8 1274.82 Q1495.11 1274.1 1496.8 1274.1 Q1499.59 1274.1 1501.02 1275.84 Q1502.46 1277.56 1502.46 1280.91 Z" fill="#000000" fill-rule="evenodd" fill-opacity="1" /><path clip-path="url(#clip770)" d="M 0 0 M1505.25 1274.49 L1507.91 1274.49 L1507.91 1290.69 L1505.25 1290.69 L1505.25 1274.49 M1505.25 1268.18 L1507.91 1268.18 L1507.91 1271.55 L1505.25 1271.55 L1505.25 1268.18 Z" fill="#000000" fill-rule="evenodd" fill-opacity="1" /><path clip-path="url(#clip770)" d="M 0 0 M1524.17 1280.91 L1524.17 1290.69 L1521.51 1290.69 L1521.51 1281 Q1521.51 1278.7 1520.61 1277.56 Q1519.72 1276.42 1517.92 1276.42 Q1515.77 1276.42 1514.52 1277.79 Q1513.28 1279.16 1513.28 1281.54 L1513.28 1290.69 L1510.6 1290.69 L1510.6 1274.49 L1513.28 1274.49 L1513.28 1277.01 Q1514.23 1275.55 1515.52 1274.82 Q1516.82 1274.1 1518.52 1274.1 Q1521.31 1274.1 1522.74 1275.84 Q1524.17 1277.56 1524.17 1280.91 Z" fill="#000000" fill-rule="evenodd" fill-opacity="1" /><path clip-path="url(#clip770)" d="M 0 0 M1537.63 1282.4 Q1537.63 1279.51 1536.43 1277.92 Q1535.24 1276.33 1533.08 1276.33 Q1530.94 1276.33 1529.74 1277.92 Q1528.56 1279.51 1528.56 1282.4 Q1528.56 1285.28 1529.74 1286.88 Q1530.94 1288.47 1533.08 1288.47 Q1535.24 1288.47 1536.43 1286.88 Q1537.63 1285.28 1537.63 1282.4 M1540.29 1288.68 Q1540.29 1292.82 1538.45 1294.83 Q1536.61 1296.86 1532.82 1296.86 Q1531.42 1296.86 1530.18 1296.64 Q1528.93 1296.44 1527.76 1296 L1527.76 1293.41 Q1528.93 1294.05 1530.07 1294.36 Q1531.22 1294.66 1532.4 1294.66 Q1535.02 1294.66 1536.32 1293.28 Q1537.63 1291.92 1537.63 1289.16 L1537.63 1287.84 Q1536.8 1289.28 1535.51 1289.99 Q1534.23 1290.69 1532.43 1290.69 Q1529.45 1290.69 1527.63 1288.42 Q1525.81 1286.15 1525.81 1282.4 Q1525.81 1278.64 1527.63 1276.37 Q1529.45 1274.1 1532.43 1274.1 Q1534.23 1274.1 1535.51 1274.81 Q1536.8 1275.52 1537.63 1276.95 L1537.63 1274.49 L1540.29 1274.49 L1540.29 1288.68 Z" fill="#000000" fill-rule="evenodd" fill-opacity="1" /><path clip-path="url(#clip770)" d="M 0 0 M398.714 749.5 L398.714 752.582 Q397.238 751.208 395.56 750.528 Q393.896 749.848 392.015 749.848 Q388.312 749.848 386.344 752.119 Q384.376 754.376 384.376 758.658 Q384.376 762.926 386.344 765.198 Q388.312 767.455 392.015 767.455 Q393.896 767.455 395.56 766.775 Q397.238 766.095 398.714 764.72 L398.714 767.773 Q397.18 768.815 395.458 769.335 Q393.751 769.856 391.842 769.856 Q386.937 769.856 384.116 766.862 Q381.295 763.852 381.295 758.658 Q381.295 753.45 384.116 750.455 Q386.937 747.446 391.842 747.446 Q393.78 747.446 395.487 747.967 Q397.209 748.473 398.714 749.5 Z" fill="#000000" fill-rule="evenodd" fill-opacity="1" /><path clip-path="url(#clip770)" d="M 0 0 M407.785 755.099 Q405.644 755.099 404.399 756.778 Q403.155 758.441 403.155 761.349 Q403.155 764.257 404.385 765.936 Q405.629 767.599 407.785 767.599 Q409.912 767.599 411.156 765.921 Q412.4 764.243 412.4 761.349 Q412.4 758.47 411.156 756.792 Q409.912 755.099 407.785 755.099 M407.785 752.842 Q411.257 752.842 413.239 755.099 Q415.221 757.356 415.221 761.349 Q415.221 765.328 413.239 767.599 Q411.257 769.856 407.785 769.856 Q404.298 769.856 402.316 767.599 Q400.349 765.328 400.349 761.349 Q400.349 757.356 402.316 755.099 Q404.298 752.842 407.785 752.842 Z" fill="#000000" fill-rule="evenodd" fill-opacity="1" /><path clip-path="url(#clip770)" d="M 0 0 M418.013 746.925 L420.675 746.925 L420.675 769.437 L418.013 769.437 L418.013 746.925 Z" fill="#000000" fill-rule="evenodd" fill-opacity="1" /><path clip-path="url(#clip770)" d="M 0 0 M423.468 746.925 L426.13 746.925 L426.13 769.437 L423.468 769.437 L423.468 746.925 Z" fill="#000000" fill-rule="evenodd" fill-opacity="1" /><path clip-path="url(#clip770)" d="M 0 0 M436.286 761.292 Q433.06 761.292 431.815 762.029 Q430.571 762.767 430.571 764.547 Q430.571 765.965 431.497 766.804 Q432.437 767.628 434.043 767.628 Q436.257 767.628 437.588 766.066 Q438.933 764.489 438.933 761.885 L438.933 761.292 L436.286 761.292 M441.595 760.192 L441.595 769.437 L438.933 769.437 L438.933 766.977 Q438.022 768.453 436.662 769.162 Q435.302 769.856 433.334 769.856 Q430.846 769.856 429.37 768.467 Q427.909 767.064 427.909 764.72 Q427.909 761.986 429.732 760.597 Q431.569 759.208 435.201 759.208 L438.933 759.208 L438.933 758.948 Q438.933 757.11 437.718 756.112 Q436.517 755.099 434.333 755.099 Q432.944 755.099 431.627 755.432 Q430.311 755.765 429.095 756.43 L429.095 753.971 Q430.557 753.407 431.931 753.132 Q433.306 752.842 434.608 752.842 Q438.123 752.842 439.859 754.665 Q441.595 756.488 441.595 760.192 Z" fill="#000000" fill-rule="evenodd" fill-opacity="1" /><path clip-path="url(#clip770)" d="M 0 0 M456.02 761.349 Q456.02 758.412 454.804 756.749 Q453.603 755.07 451.491 755.07 Q449.379 755.07 448.164 756.749 Q446.963 758.412 446.963 761.349 Q446.963 764.286 448.164 765.965 Q449.379 767.628 451.491 767.628 Q453.603 767.628 454.804 765.965 Q456.02 764.286 456.02 761.349 M446.963 755.693 Q447.802 754.246 449.075 753.551 Q450.363 752.842 452.142 752.842 Q455.094 752.842 456.931 755.186 Q458.783 757.53 458.783 761.349 Q458.783 765.169 456.931 767.513 Q455.094 769.856 452.142 769.856 Q450.363 769.856 449.075 769.162 Q447.802 768.453 446.963 767.006 L446.963 769.437 L444.286 769.437 L444.286 746.925 L446.963 746.925 L446.963 755.693 Z" fill="#000000" fill-rule="evenodd" fill-opacity="1" /><path clip-path="url(#clip770)" d="M 0 0 M467.854 755.099 Q465.713 755.099 464.469 756.778 Q463.224 758.441 463.224 761.349 Q463.224 764.257 464.454 765.936 Q465.698 767.599 467.854 767.599 Q469.981 767.599 471.225 765.921 Q472.469 764.243 472.469 761.349 Q472.469 758.47 471.225 756.792 Q469.981 755.099 467.854 755.099 M467.854 752.842 Q471.326 752.842 473.308 755.099 Q475.29 757.356 475.29 761.349 Q475.29 765.328 473.308 767.599 Q471.326 769.856 467.854 769.856 Q464.367 769.856 462.385 767.599 Q460.418 765.328 460.418 761.349 Q460.418 757.356 462.385 755.099 Q464.367 752.842 467.854 752.842 Z" fill="#000000" fill-rule="evenodd" fill-opacity="1" /><path clip-path="url(#clip770)" d="M 0 0 M487.472 755.722 Q487.023 755.461 486.488 755.345 Q485.967 755.215 485.331 755.215 Q483.074 755.215 481.858 756.691 Q480.658 758.152 480.658 760.901 L480.658 769.437 L477.981 769.437 L477.981 753.233 L480.658 753.233 L480.658 755.75 Q481.497 754.275 482.842 753.566 Q484.188 752.842 486.112 752.842 Q486.387 752.842 486.72 752.886 Q487.052 752.915 487.457 752.987 L487.472 755.722 Z" fill="#000000" fill-rule="evenodd" fill-opacity="1" /><path clip-path="url(#clip770)" d="M 0 0 M497.628 761.292 Q494.402 761.292 493.158 762.029 Q491.913 762.767 491.913 764.547 Q491.913 765.965 492.839 766.804 Q493.78 767.628 495.386 767.628 Q497.599 767.628 498.93 766.066 Q500.276 764.489 500.276 761.885 L500.276 761.292 L497.628 761.292 M502.938 760.192 L502.938 769.437 L500.276 769.437 L500.276 766.977 Q499.364 768.453 498.004 769.162 Q496.644 769.856 494.677 769.856 Q492.188 769.856 490.713 768.467 Q489.251 767.064 489.251 764.72 Q489.251 761.986 491.074 760.597 Q492.912 759.208 496.543 759.208 L500.276 759.208 L500.276 758.948 Q500.276 757.11 499.06 756.112 Q497.86 755.099 495.675 755.099 Q494.286 755.099 492.97 755.432 Q491.653 755.765 490.438 756.43 L490.438 753.971 Q491.899 753.407 493.273 753.132 Q494.648 752.842 495.95 752.842 Q499.465 752.842 501.202 754.665 Q502.938 756.488 502.938 760.192 Z" fill="#000000" fill-rule="evenodd" fill-opacity="1" /><path clip-path="url(#clip770)" d="M 0 0 M508.363 748.632 L508.363 753.233 L513.846 753.233 L513.846 755.302 L508.363 755.302 L508.363 764.098 Q508.363 766.08 508.898 766.644 Q509.448 767.209 511.112 767.209 L513.846 767.209 L513.846 769.437 L511.112 769.437 Q508.03 769.437 506.858 768.294 Q505.686 767.136 505.686 764.098 L505.686 755.302 L503.733 755.302 L503.733 753.233 L505.686 753.233 L505.686 748.632 L508.363 748.632 Z" fill="#000000" fill-rule="evenodd" fill-opacity="1" /><path clip-path="url(#clip770)" d="M 0 0 M516.638 753.233 L519.3 753.233 L519.3 769.437 L516.638 769.437 L516.638 753.233 M516.638 746.925 L519.3 746.925 L519.3 750.296 L516.638 750.296 L516.638 746.925 Z" fill="#000000" fill-rule="evenodd" fill-opacity="1" /><path clip-path="url(#clip770)" d="M 0 0 M528.372 755.099 Q526.23 755.099 524.986 756.778 Q523.742 758.441 523.742 761.349 Q523.742 764.257 524.972 765.936 Q526.216 767.599 528.372 767.599 Q530.498 767.599 531.742 765.921 Q532.987 764.243 532.987 761.349 Q532.987 758.47 531.742 756.792 Q530.498 755.099 528.372 755.099 M528.372 752.842 Q531.844 752.842 533.826 755.099 Q535.808 757.356 535.808 761.349 Q535.808 765.328 533.826 767.599 Q531.844 769.856 528.372 769.856 Q524.885 769.856 522.903 767.599 Q520.935 765.328 520.935 761.349 Q520.935 757.356 522.903 755.099 Q524.885 752.842 528.372 752.842 Z" fill="#000000" fill-rule="evenodd" fill-opacity="1" /><path clip-path="url(#clip770)" d="M 0 0 M552.069 759.657 L552.069 769.437 L549.407 769.437 L549.407 759.743 Q549.407 757.443 548.51 756.3 Q547.613 755.157 545.819 755.157 Q543.664 755.157 542.42 756.532 Q541.175 757.906 541.175 760.279 L541.175 769.437 L538.499 769.437 L538.499 753.233 L541.175 753.233 L541.175 755.75 Q542.13 754.289 543.418 753.566 Q544.72 752.842 546.413 752.842 Q549.205 752.842 550.637 754.579 Q552.069 756.3 552.069 759.657 Z" fill="#000000" fill-rule="evenodd" fill-opacity="1" /><path clip-path="url(#clip772)" d="M956.714 1028.76 L956.714 1060.76 L988.714 1060.76 L988.714 1028.76 L956.714 1028.76 Z" fill="#0000ff" fill-rule="evenodd" fill-opacity="1" stroke="none"/>
<polyline clip-path="url(#clip772)" style="stroke:#0000ff; stroke-width:4; stroke-opacity:1; fill:none" stroke-dasharray="16, 10" points="
  915.992,1097.54 1029.44,1097.54 
  "/>
<polyline clip-path="url(#clip772)" style="stroke:#0000ff; stroke-width:4; stroke-opacity:1; fill:none" stroke-dasharray="16, 10" points="
  915.992,991.977 1029.44,991.977 
  "/>
<polyline clip-path="url(#clip772)" style="stroke:#0000ff; stroke-width:4; stroke-opacity:1; fill:none" stroke-dasharray="16, 10" points="
  915.992,1097.54 915.992,991.977 
  "/>
<polyline clip-path="url(#clip772)" style="stroke:#0000ff; stroke-width:4; stroke-opacity:1; fill:none" stroke-dasharray="16, 10" points="
  1029.44,1097.54 1029.44,991.977 
  "/>
<path clip-path="url(#clip772)" d="M925.733 888.389 L925.733 920.389 L957.733 920.389 L957.733 888.389 L925.733 888.389 Z" fill="#800080" fill-rule="evenodd" fill-opacity="1" stroke="none"/>
<polyline clip-path="url(#clip772)" style="stroke:#800080; stroke-width:4; stroke-opacity:1; fill:none" stroke-dasharray="16, 10" points="
  886.551,949.84 996.915,949.84 
  "/>
<polyline clip-path="url(#clip772)" style="stroke:#800080; stroke-width:4; stroke-opacity:1; fill:none" stroke-dasharray="16, 10" points="
  886.551,858.937 996.915,858.937 
  "/>
<polyline clip-path="url(#clip772)" style="stroke:#800080; stroke-width:4; stroke-opacity:1; fill:none" stroke-dasharray="16, 10" points="
  886.551,949.84 886.551,858.937 
  "/>
<polyline clip-path="url(#clip772)" style="stroke:#800080; stroke-width:4; stroke-opacity:1; fill:none" stroke-dasharray="16, 10" points="
  996.915,949.84 996.915,858.937 
  "/>
<path clip-path="url(#clip772)" d="M1090.73 1015.77 L1090.73 1047.77 L1122.73 1047.77 L1122.73 1015.77 L1090.73 1015.77 Z" fill="#008000" fill-rule="evenodd" fill-opacity="1" stroke="none"/>
<polyline clip-path="url(#clip772)" style="stroke:#008000; stroke-width:4; stroke-opacity:1; fill:none" stroke-dasharray="16, 10" points="
  1071.29,1069.06 1142.18,1069.06 
  "/>
<polyline clip-path="url(#clip772)" style="stroke:#008000; stroke-width:4; stroke-opacity:1; fill:none" stroke-dasharray="16, 10" points="
  1071.29,994.477 1142.18,994.477 
  "/>
<polyline clip-path="url(#clip772)" style="stroke:#008000; stroke-width:4; stroke-opacity:1; fill:none" stroke-dasharray="16, 10" points="
  1071.29,1069.06 1071.29,994.477 
  "/>
<polyline clip-path="url(#clip772)" style="stroke:#008000; stroke-width:4; stroke-opacity:1; fill:none" stroke-dasharray="16, 10" points="
  1142.18,1069.06 1142.18,994.477 
  "/>
<path clip-path="url(#clip772)" d="M1085.91 906.383 L1085.91 938.383 L1117.91 938.383 L1117.91 906.383 L1085.91 906.383 Z" fill="#ffa500" fill-rule="evenodd" fill-opacity="1" stroke="none"/>
<polyline clip-path="url(#clip772)" style="stroke:#ffa500; stroke-width:4; stroke-opacity:1; fill:none" stroke-dasharray="16, 10" points="
  1034.09,968.624 1169.72,968.624 
  "/>
<polyline clip-path="url(#clip772)" style="stroke:#ffa500; stroke-width:4; stroke-opacity:1; fill:none" stroke-dasharray="16, 10" points="
  1034.09,876.142 1169.72,876.142 
  "/>
<polyline clip-path="url(#clip772)" style="stroke:#ffa500; stroke-width:4; stroke-opacity:1; fill:none" stroke-dasharray="16, 10" points="
  1034.09,968.624 1034.09,876.142 
  "/>
<polyline clip-path="url(#clip772)" style="stroke:#ffa500; stroke-width:4; stroke-opacity:1; fill:none" stroke-dasharray="16, 10" points="
  1169.72,968.624 1169.72,876.142 
  "/>
</svg>
