<?xml version="1.0" encoding="utf-8"?>
<svg xmlns="http://www.w3.org/2000/svg" xmlns:xlink="http://www.w3.org/1999/xlink" width="600" height="400" viewBox="0 0 2400 1600">
<defs>
  <clipPath id="clip140">
    <rect x="0" y="0" width="2400" height="1600"/>
  </clipPath>
</defs>
<path clip-path="url(#clip140)" d="
M0 1600 L2400 1600 L2400 0 L0 0  Z
  " fill="#ffffff" fill-rule="evenodd" fill-opacity="1"/>
<defs>
  <clipPath id="clip141">
    <rect x="480" y="0" width="1681" height="1600"/>
  </clipPath>
</defs>
<path clip-path="url(#clip140)" d="
M86.9921 1521.01 L2352.76 1521.01 L2352.76 47.2441 L86.9921 47.2441  Z
  " fill="#ffffff" fill-rule="evenodd" fill-opacity="1"/>
<defs>
  <clipPath id="clip142">
    <rect x="86" y="47" width="2267" height="1475"/>
  </clipPath>
</defs>
<polyline clip-path="url(#clip142)" style="stroke:#000000; stroke-width:2; stroke-opacity:0.1; fill:none" points="
  1479.23,1521.01 1479.23,47.2441 
  "/>
<polyline clip-path="url(#clip142)" style="stroke:#000000; stroke-width:2; stroke-opacity:0.1; fill:none" points="
  86.9921,877.545 2352.76,877.545 
  "/>
<polyline clip-path="url(#clip140)" style="stroke:#000000; stroke-width:4; stroke-opacity:1; fill:none" points="
  86.9921,1521.01 2352.76,1521.01 
  "/>
<polyline clip-path="url(#clip140)" style="stroke:#000000; stroke-width:4; stroke-opacity:1; fill:none" points="
  86.9921,1521.01 86.9921,47.2441 
  "/>
<polyline clip-path="url(#clip140)" style="stroke:#000000; stroke-width:4; stroke-opacity:1; fill:none" points="
  1479.23,1521.01 1479.23,1503.32 
  "/>
<polyline clip-path="url(#clip140)" style="stroke:#000000; stroke-width:4; stroke-opacity:1; fill:none" points="
  86.9921,877.545 114.181,877.545 
  "/>
<path clip-path="url(#clip140)" d="M 0 0 M1479.23 1543 Q1475.62 1543 1473.79 1546.56 Q1471.98 1550.11 1471.98 1557.23 Q1471.98 1564.34 1473.79 1567.91 Q1475.62 1571.45 1479.23 1571.45 Q1482.86 1571.45 1484.67 1567.91 Q1486.49 1564.34 1486.49 1557.23 Q1486.49 1550.11 1484.67 1546.56 Q1482.86 1543 1479.23 1543 M1479.23 1539.29 Q1485.04 1539.29 1488.09 1543.9 Q1491.17 1548.48 1491.17 1557.23 Q1491.17 1565.96 1488.09 1570.57 Q1485.04 1575.15 1479.23 1575.15 Q1473.42 1575.15 1470.34 1570.57 Q1467.28 1565.96 1467.28 1557.23 Q1467.28 1548.48 1470.34 1543.9 Q1473.42 1539.29 1479.23 1539.29 Z" fill="#000000" fill-rule="evenodd" fill-opacity="1" /><path clip-path="url(#clip140)" d="M 0 0 M51.0477 863.344 Q47.4367 863.344 45.608 866.909 Q43.8024 870.45 43.8024 877.58 Q43.8024 884.686 45.608 888.251 Q47.4367 891.793 51.0477 891.793 Q54.682 891.793 56.4875 888.251 Q58.3162 884.686 58.3162 877.58 Q58.3162 870.45 56.4875 866.909 Q54.682 863.344 51.0477 863.344 M51.0477 859.64 Q56.8579 859.64 59.9134 864.247 Q62.9921 868.83 62.9921 877.58 Q62.9921 886.307 59.9134 890.913 Q56.8579 895.496 51.0477 895.496 Q45.2376 895.496 42.1589 890.913 Q39.1034 886.307 39.1034 877.58 Q39.1034 868.83 42.1589 864.247 Q45.2376 859.64 51.0477 859.64 Z" fill="#000000" fill-rule="evenodd" fill-opacity="1" /><polyline clip-path="url(#clip142)" style="stroke:#ffa500; stroke-width:0.57127; stroke-opacity:1; fill:none" points="
  465.783,88.9544 2283.84,1452.45 
  "/>
<polyline clip-path="url(#clip142)" style="stroke:#ffa500; stroke-width:0.310112; stroke-opacity:1; fill:none" points="
  1353.8,1216.81 1377.54,1093.65 
  "/>
<polyline clip-path="url(#clip142)" style="stroke:#ffa500; stroke-width:0.344254; stroke-opacity:1; fill:none" points="
  151.118,1479.3 1377.54,1093.65 
  "/>
<polyline clip-path="url(#clip142)" style="stroke:#800080; stroke-width:2.41942; stroke-opacity:1; fill:none" points="
  151.118,1479.3 2288.63,640.967 
  "/>
<polyline clip-path="url(#clip142)" style="stroke:#ffa500; stroke-width:3.09601; stroke-opacity:1; fill:none" points="
  1353.8,1216.81 2283.84,1452.45 
  "/>
<polyline clip-path="url(#clip142)" style="stroke:#800080; stroke-width:3.5991; stroke-opacity:1; fill:none" points="
  151.118,1479.3 1353.8,1216.81 
  "/>
<polyline clip-path="url(#clip142)" style="stroke:#ffa500; stroke-width:4.58072; stroke-opacity:1; fill:none" points="
  1353.8,1216.81 2288.63,640.967 
  "/>
<polyline clip-path="url(#clip142)" style="stroke:#ffa500; stroke-width:1.47784; stroke-opacity:1; fill:none" points="
  1377.54,1093.65 2288.63,640.967 
  "/>
<polyline clip-path="url(#clip142)" style="stroke:#800080; stroke-width:6.48496; stroke-opacity:1; fill:none" points="
  151.118,1479.3 465.783,88.9544 
  "/>
<polyline clip-path="url(#clip142)" style="stroke:#ffa500; stroke-width:0.694986; stroke-opacity:1; fill:none" points="
  1377.54,1093.65 2283.84,1452.45 
  "/>
<polyline clip-path="url(#clip142)" style="stroke:#ffa500; stroke-width:8; stroke-opacity:1; fill:none" points="
  2283.84,1452.45 2288.63,640.967 
  "/>
<polyline clip-path="url(#clip142)" style="stroke:#800080; stroke-width:2.90053; stroke-opacity:1; fill:none" points="
  465.783,88.9544 1353.8,1216.81 
  "/>
<polyline clip-path="url(#clip142)" style="stroke:#800080; stroke-width:2.12299; stroke-opacity:1; fill:none" points="
  465.783,88.9544 1377.54,1093.65 
  "/>
<polyline clip-path="url(#clip142)" style="stroke:#800080; stroke-width:2.00262; stroke-opacity:1; fill:none" points="
  151.118,1479.3 2283.84,1452.45 
  "/>
<polyline clip-path="url(#clip142)" style="stroke:#ffa500; stroke-width:0.179937; stroke-opacity:1; fill:none" points="
  465.783,88.9544 2288.63,640.967 
  "/>
<circle clip-path="url(#clip142)" cx="1353.8" cy="1216.81" r="23" fill="#000000" fill-rule="evenodd" fill-opacity="1" stroke="none"/>
<circle clip-path="url(#clip142)" cx="465.783" cy="88.9544" r="26" fill="#000000" fill-rule="evenodd" fill-opacity="1" stroke="none"/>
<circle clip-path="url(#clip142)" cx="2283.84" cy="1452.45" r="23" fill="#000000" fill-rule="evenodd" fill-opacity="1" stroke="none"/>
<circle clip-path="url(#clip142)" cx="1377.54" cy="1093.65" r="8" fill="#000000" fill-rule="evenodd" fill-opacity="1" stroke="none"/>
<circle clip-path="url(#clip142)" cx="2288.63" cy="640.967" r="28" fill="#000000" fill-rule="evenodd" fill-opacity="1" stroke="none"/>
<circle clip-path="url(#clip142)" cx="151.118" cy="1479.3" r="8" fill="#000000" fill-rule="evenodd" fill-opacity="1" stroke="none"/>
<path clip-path="url(#clip140)" d="M 0 0 M1277.98 1193.29 L1277.98 1240.32 L1287.87 1240.32 Q1300.38 1240.32 1306.18 1234.65 Q1312.01 1228.98 1312.01 1216.75 Q1312.01 1204.59 1306.18 1198.96 Q1300.38 1193.29 1287.87 1193.29 L1277.98 1193.29 M1269.8 1186.57 L1286.61 1186.57 Q1304.19 1186.57 1312.42 1193.9 Q1320.64 1201.19 1320.64 1216.75 Q1320.64 1232.38 1312.38 1239.72 Q1304.11 1247.05 1286.61 1247.05 L1269.8 1247.05 L1269.8 1186.57 Z" fill="#000000" fill-rule="evenodd" fill-opacity="1" /><path clip-path="url(#clip140)" d="M 0 0 M1349.08 1224.24 Q1340.04 1224.24 1336.56 1226.31 Q1333.08 1228.37 1333.08 1233.36 Q1333.08 1237.33 1335.67 1239.67 Q1338.3 1241.98 1342.8 1241.98 Q1349 1241.98 1352.72 1237.61 Q1356.49 1233.19 1356.49 1225.9 L1356.49 1224.24 L1349.08 1224.24 M1363.94 1221.16 L1363.94 1247.05 L1356.49 1247.05 L1356.49 1240.16 Q1353.94 1244.29 1350.13 1246.28 Q1346.32 1248.22 1340.81 1248.22 Q1333.85 1248.22 1329.71 1244.33 Q1325.62 1240.4 1325.62 1233.84 Q1325.62 1226.19 1330.73 1222.3 Q1335.87 1218.41 1346.04 1218.41 L1356.49 1218.41 L1356.49 1217.68 Q1356.49 1212.53 1353.09 1209.74 Q1349.72 1206.9 1343.61 1206.9 Q1339.72 1206.9 1336.03 1207.83 Q1332.35 1208.77 1328.94 1210.63 L1328.94 1203.74 Q1333.04 1202.16 1336.88 1201.39 Q1340.73 1200.58 1344.38 1200.58 Q1354.22 1200.58 1359.08 1205.69 Q1363.94 1210.79 1363.94 1221.16 Z" fill="#000000" fill-rule="evenodd" fill-opacity="1" /><path clip-path="url(#clip140)" d="M 0 0 M1379.13 1188.8 L1379.13 1201.68 L1394.49 1201.68 L1394.49 1207.47 L1379.13 1207.47 L1379.13 1232.1 Q1379.13 1237.65 1380.63 1239.23 Q1382.17 1240.81 1386.83 1240.81 L1394.49 1240.81 L1394.49 1247.05 L1386.83 1247.05 Q1378.2 1247.05 1374.92 1243.85 Q1371.64 1240.61 1371.64 1232.1 L1371.64 1207.47 L1366.17 1207.47 L1366.17 1201.68 L1371.64 1201.68 L1371.64 1188.8 L1379.13 1188.8 Z" fill="#000000" fill-rule="evenodd" fill-opacity="1" /><path clip-path="url(#clip140)" d="M 0 0 M1422.92 1224.24 Q1413.89 1224.24 1410.41 1226.31 Q1406.92 1228.37 1406.92 1233.36 Q1406.92 1237.33 1409.52 1239.67 Q1412.15 1241.98 1416.65 1241.98 Q1422.84 1241.98 1426.57 1237.61 Q1430.34 1233.19 1430.34 1225.9 L1430.34 1224.24 L1422.92 1224.24 M1437.79 1221.16 L1437.79 1247.05 L1430.34 1247.05 L1430.34 1240.16 Q1427.79 1244.29 1423.98 1246.28 Q1420.17 1248.22 1414.66 1248.22 Q1407.69 1248.22 1403.56 1244.33 Q1399.47 1240.4 1399.47 1233.84 Q1399.47 1226.19 1404.57 1222.3 Q1409.72 1218.41 1419.89 1218.41 L1430.34 1218.41 L1430.34 1217.68 Q1430.34 1212.53 1426.94 1209.74 Q1423.57 1206.9 1417.46 1206.9 Q1413.57 1206.9 1409.88 1207.83 Q1406.19 1208.77 1402.79 1210.63 L1402.79 1203.74 Q1406.88 1202.16 1410.73 1201.39 Q1414.58 1200.58 1418.23 1200.58 Q1428.07 1200.58 1432.93 1205.69 Q1437.79 1210.79 1437.79 1221.16 Z" fill="#000000" fill-rule="evenodd" fill-opacity="1" /><path clip-path="url(#clip140)" d="M 0 0 M68.4498 58.7144 L119.613 58.7144 L119.613 65.6009 L98.1429 65.6009 L98.1429 119.194 L89.9196 119.194 L89.9196 65.6009 L68.4498 65.6009 L68.4498 58.7144 Z" fill="#000000" fill-rule="evenodd" fill-opacity="1" /><path clip-path="url(#clip140)" d="M 0 0 M152.141 94.6459 L152.141 98.2917 L117.871 98.2917 Q118.357 105.988 122.489 110.039 Q126.661 114.05 134.074 114.05 Q138.368 114.05 142.379 112.997 Q146.43 111.943 150.4 109.837 L150.4 116.885 Q146.389 118.587 142.176 119.478 Q137.963 120.369 133.629 120.369 Q122.772 120.369 116.412 114.05 Q110.093 107.73 110.093 96.9549 Q110.093 85.8149 116.088 79.293 Q122.124 72.7305 132.333 72.7305 Q141.488 72.7305 146.794 78.6448 Q152.141 84.5187 152.141 94.6459 M144.688 92.4584 Q144.607 86.3416 141.245 82.6957 Q137.923 79.0499 132.414 79.0499 Q126.175 79.0499 122.408 82.5742 Q118.681 86.0985 118.114 92.4989 L144.688 92.4584 Z" fill="#000000" fill-rule="evenodd" fill-opacity="1" /><path clip-path="url(#clip140)" d="M 0 0 M192.61 75.5662 L192.61 82.5337 Q189.45 80.7918 186.25 79.9411 Q183.09 79.0499 179.85 79.0499 Q172.599 79.0499 168.588 83.668 Q164.578 88.2455 164.578 96.5498 Q164.578 104.854 168.588 109.472 Q172.599 114.05 179.85 114.05 Q183.09 114.05 186.25 113.199 Q189.45 112.308 192.61 110.566 L192.61 117.453 Q189.491 118.911 186.129 119.64 Q182.807 120.369 179.039 120.369 Q168.791 120.369 162.755 113.928 Q156.719 107.487 156.719 96.5498 Q156.719 85.4504 162.795 79.0904 Q168.912 72.7305 179.526 72.7305 Q182.969 72.7305 186.25 73.4597 Q189.531 74.1483 192.61 75.5662 Z" fill="#000000" fill-rule="evenodd" fill-opacity="1" /><path clip-path="url(#clip140)" d="M 0 0 M238.142 91.8103 L238.142 119.194 L230.688 119.194 L230.688 92.0533 Q230.688 85.6124 228.177 82.4122 Q225.665 79.212 220.642 79.212 Q214.606 79.212 211.123 83.0603 Q207.639 86.9087 207.639 93.5522 L207.639 119.194 L200.145 119.194 L200.145 56.1623 L207.639 56.1623 L207.639 80.8728 Q210.312 76.7814 213.918 74.756 Q217.564 72.7305 222.303 72.7305 Q230.121 72.7305 234.132 77.5916 Q238.142 82.4122 238.142 91.8103 Z" fill="#000000" fill-rule="evenodd" fill-opacity="1" /><path clip-path="url(#clip140)" d="M 0 0 M283.674 91.8103 L283.674 119.194 L276.221 119.194 L276.221 92.0533 Q276.221 85.6124 273.709 82.4122 Q271.198 79.212 266.174 79.212 Q260.139 79.212 256.655 83.0603 Q253.171 86.9087 253.171 93.5522 L253.171 119.194 L245.677 119.194 L245.677 73.8243 L253.171 73.8243 L253.171 80.8728 Q255.845 76.7814 259.45 74.756 Q263.096 72.7305 267.835 72.7305 Q275.654 72.7305 279.664 77.5916 Q283.674 82.4122 283.674 91.8103 Z" fill="#000000" fill-rule="evenodd" fill-opacity="1" /><path clip-path="url(#clip140)" d="M 0 0 M291.493 73.8243 L298.946 73.8243 L298.946 119.194 L291.493 119.194 L291.493 73.8243 M291.493 56.1623 L298.946 56.1623 L298.946 65.6009 L291.493 65.6009 L291.493 56.1623 Z" fill="#000000" fill-rule="evenodd" fill-opacity="1" /><path clip-path="url(#clip140)" d="M 0 0 M339.415 75.5662 L339.415 82.5337 Q336.255 80.7918 333.055 79.9411 Q329.895 79.0499 326.654 79.0499 Q319.403 79.0499 315.393 83.668 Q311.382 88.2455 311.382 96.5498 Q311.382 104.854 315.393 109.472 Q319.403 114.05 326.654 114.05 Q329.895 114.05 333.055 113.199 Q336.255 112.308 339.415 110.566 L339.415 117.453 Q336.296 118.911 332.933 119.64 Q329.612 120.369 325.844 120.369 Q315.595 120.369 309.56 113.928 Q303.524 107.487 303.524 96.5498 Q303.524 85.4504 309.6 79.0904 Q315.717 72.7305 326.33 72.7305 Q329.774 72.7305 333.055 73.4597 Q336.336 74.1483 339.415 75.5662 Z" fill="#000000" fill-rule="evenodd" fill-opacity="1" /><path clip-path="url(#clip140)" d="M 0 0 M367.852 96.3878 Q358.819 96.3878 355.335 98.4538 Q351.851 100.52 351.851 105.502 Q351.851 109.472 354.444 111.822 Q357.077 114.131 361.573 114.131 Q367.771 114.131 371.498 109.756 Q375.265 105.34 375.265 98.0487 L375.265 96.3878 L367.852 96.3878 M382.719 93.3091 L382.719 119.194 L375.265 119.194 L375.265 112.308 Q372.713 116.44 368.905 118.425 Q365.097 120.369 359.588 120.369 Q352.621 120.369 348.489 116.48 Q344.397 112.551 344.397 105.988 Q344.397 98.3322 349.502 94.4434 Q354.646 90.5545 364.814 90.5545 L375.265 90.5545 L375.265 89.8253 Q375.265 84.6807 371.862 81.8856 Q368.5 79.0499 362.383 79.0499 Q358.495 79.0499 354.808 79.9816 Q351.122 80.9133 347.719 82.7768 L347.719 75.8902 Q351.811 74.3104 355.659 73.5407 Q359.507 72.7305 363.153 72.7305 Q372.997 72.7305 377.858 77.8347 Q382.719 82.9388 382.719 93.3091 Z" fill="#000000" fill-rule="evenodd" fill-opacity="1" /><path clip-path="url(#clip140)" d="M 0 0 M390.537 56.1623 L397.991 56.1623 L397.991 119.194 L390.537 119.194 L390.537 56.1623 Z" fill="#000000" fill-rule="evenodd" fill-opacity="1" /><path clip-path="url(#clip140)" d="M 0 0 M440.282 132.967 L440.282 138.76 L397.181 138.76 L397.181 132.967 L440.282 132.967 Z" fill="#000000" fill-rule="evenodd" fill-opacity="1" /><path clip-path="url(#clip140)" d="M 0 0 M493.714 63.3729 L493.714 72.0014 Q489.582 68.153 484.883 66.2491 Q480.224 64.3451 474.958 64.3451 Q464.588 64.3451 459.078 70.7051 Q453.569 77.0245 453.569 89.0152 Q453.569 100.965 459.078 107.325 Q464.588 113.645 474.958 113.645 Q480.224 113.645 484.883 111.741 Q489.582 109.837 493.714 105.988 L493.714 114.536 Q489.42 117.453 484.599 118.911 Q479.819 120.369 474.472 120.369 Q460.739 120.369 452.84 111.984 Q444.941 103.558 444.941 89.0152 Q444.941 74.4319 452.84 66.0465 Q460.739 57.6206 474.472 57.6206 Q479.9 57.6206 484.68 59.079 Q489.501 60.4968 493.714 63.3729 Z" fill="#000000" fill-rule="evenodd" fill-opacity="1" /><path clip-path="url(#clip140)" d="M 0 0 M519.113 79.0499 Q513.118 79.0499 509.634 83.749 Q506.15 88.4075 506.15 96.5498 Q506.15 104.692 509.593 109.391 Q513.077 114.05 519.113 114.05 Q525.068 114.05 528.551 109.351 Q532.035 104.652 532.035 96.5498 Q532.035 88.4885 528.551 83.7895 Q525.068 79.0499 519.113 79.0499 M519.113 72.7305 Q528.835 72.7305 534.385 79.0499 Q539.935 85.3693 539.935 96.5498 Q539.935 107.69 534.385 114.05 Q528.835 120.369 519.113 120.369 Q509.35 120.369 503.8 114.05 Q498.291 107.69 498.291 96.5498 Q498.291 85.3693 503.8 79.0499 Q509.35 72.7305 519.113 72.7305 Z" fill="#000000" fill-rule="evenodd" fill-opacity="1" /><path clip-path="url(#clip140)" d="M 0 0 M585.467 91.8103 L585.467 119.194 L578.013 119.194 L578.013 92.0533 Q578.013 85.6124 575.501 82.4122 Q572.99 79.212 567.967 79.212 Q561.931 79.212 558.447 83.0603 Q554.963 86.9087 554.963 93.5522 L554.963 119.194 L547.469 119.194 L547.469 73.8243 L554.963 73.8243 L554.963 80.8728 Q557.637 76.7814 561.242 74.756 Q564.888 72.7305 569.628 72.7305 Q577.446 72.7305 581.456 77.5916 Q585.467 82.4122 585.467 91.8103 Z" fill="#000000" fill-rule="evenodd" fill-opacity="1" /><path clip-path="url(#clip140)" d="M 0 0 M622.208 75.1611 L622.208 82.2096 Q619.049 80.5893 615.646 79.7791 Q612.243 78.9689 608.597 78.9689 Q603.048 78.9689 600.252 80.6703 Q597.498 82.3717 597.498 85.7744 Q597.498 88.367 599.483 89.8658 Q601.468 91.3242 607.463 92.661 L610.015 93.2281 Q617.955 94.9295 621.277 98.0487 Q624.639 101.127 624.639 106.677 Q624.639 112.997 619.616 116.683 Q614.633 120.369 605.883 120.369 Q602.237 120.369 598.268 119.64 Q594.338 118.951 589.963 117.534 L589.963 109.837 Q594.095 111.984 598.105 113.078 Q602.116 114.131 606.045 114.131 Q611.311 114.131 614.147 112.348 Q616.983 110.525 616.983 107.244 Q616.983 104.206 614.917 102.586 Q612.891 100.965 605.964 99.4665 L603.372 98.8589 Q596.445 97.4005 593.366 94.4029 Q590.287 91.3647 590.287 86.0985 Q590.287 79.6981 594.824 76.2143 Q599.361 72.7305 607.706 72.7305 Q611.838 72.7305 615.484 73.3382 Q619.13 73.9458 622.208 75.1611 Z" fill="#000000" fill-rule="evenodd" fill-opacity="1" /><path clip-path="url(#clip140)" d="M 0 0 M639.83 60.9424 L639.83 73.8243 L655.183 73.8243 L655.183 79.6171 L639.83 79.6171 L639.83 104.247 Q639.83 109.796 641.329 111.376 Q642.868 112.956 647.527 112.956 L655.183 112.956 L655.183 119.194 L647.527 119.194 Q638.898 119.194 635.617 115.994 Q632.336 112.753 632.336 104.247 L632.336 79.6171 L626.867 79.6171 L626.867 73.8243 L632.336 73.8243 L632.336 60.9424 L639.83 60.9424 Z" fill="#000000" fill-rule="evenodd" fill-opacity="1" /><path clip-path="url(#clip140)" d="M 0 0 M689.291 80.7918 Q688.036 80.0627 686.537 79.7386 Q685.078 79.374 683.296 79.374 Q676.977 79.374 673.574 83.5059 Q670.212 87.5973 670.212 95.2941 L670.212 119.194 L662.717 119.194 L662.717 73.8243 L670.212 73.8243 L670.212 80.8728 Q672.561 76.7409 676.328 74.756 Q680.096 72.7305 685.483 72.7305 Q686.253 72.7305 687.185 72.852 Q688.117 72.9331 689.251 73.1356 L689.291 80.7918 Z" fill="#000000" fill-rule="evenodd" fill-opacity="1" /><path clip-path="url(#clip140)" d="M 0 0 M717.729 96.3878 Q708.695 96.3878 705.211 98.4538 Q701.728 100.52 701.728 105.502 Q701.728 109.472 704.32 111.822 Q706.953 114.131 711.45 114.131 Q717.648 114.131 721.375 109.756 Q725.142 105.34 725.142 98.0487 L725.142 96.3878 L717.729 96.3878 M732.596 93.3091 L732.596 119.194 L725.142 119.194 L725.142 112.308 Q722.59 116.44 718.782 118.425 Q714.974 120.369 709.465 120.369 Q702.497 120.369 698.365 116.48 Q694.274 112.551 694.274 105.988 Q694.274 98.3322 699.378 94.4434 Q704.523 90.5545 714.691 90.5545 L725.142 90.5545 L725.142 89.8253 Q725.142 84.6807 721.739 81.8856 Q718.377 79.0499 712.26 79.0499 Q708.371 79.0499 704.685 79.9816 Q700.998 80.9133 697.596 82.7768 L697.596 75.8902 Q701.687 74.3104 705.535 73.5407 Q709.384 72.7305 713.03 72.7305 Q722.873 72.7305 727.734 77.8347 Q732.596 82.9388 732.596 93.3091 Z" fill="#000000" fill-rule="evenodd" fill-opacity="1" /><path clip-path="url(#clip140)" d="M 0 0 M740.414 73.8243 L747.867 73.8243 L747.867 119.194 L740.414 119.194 L740.414 73.8243 M740.414 56.1623 L747.867 56.1623 L747.867 65.6009 L740.414 65.6009 L740.414 56.1623 Z" fill="#000000" fill-rule="evenodd" fill-opacity="1" /><path clip-path="url(#clip140)" d="M 0 0 M793.4 91.8103 L793.4 119.194 L785.946 119.194 L785.946 92.0533 Q785.946 85.6124 783.434 82.4122 Q780.923 79.212 775.9 79.212 Q769.864 79.212 766.38 83.0603 Q762.896 86.9087 762.896 93.5522 L762.896 119.194 L755.402 119.194 L755.402 73.8243 L762.896 73.8243 L762.896 80.8728 Q765.57 76.7814 769.175 74.756 Q772.821 72.7305 777.561 72.7305 Q785.379 72.7305 789.389 77.5916 Q793.4 82.4122 793.4 91.8103 Z" fill="#000000" fill-rule="evenodd" fill-opacity="1" /><path clip-path="url(#clip140)" d="M 0 0 M808.59 60.9424 L808.59 73.8243 L823.943 73.8243 L823.943 79.6171 L808.59 79.6171 L808.59 104.247 Q808.59 109.796 810.089 111.376 Q811.629 112.956 816.287 112.956 L823.943 112.956 L823.943 119.194 L816.287 119.194 Q807.659 119.194 804.378 115.994 Q801.096 112.753 801.096 104.247 L801.096 79.6171 L795.628 79.6171 L795.628 73.8243 L801.096 73.8243 L801.096 60.9424 L808.59 60.9424 Z" fill="#000000" fill-rule="evenodd" fill-opacity="1" /><path clip-path="url(#clip140)" d="M 0 0 M860.685 75.1611 L860.685 82.2096 Q857.525 80.5893 854.123 79.7791 Q850.72 78.9689 847.074 78.9689 Q841.524 78.9689 838.729 80.6703 Q835.975 82.3717 835.975 85.7744 Q835.975 88.367 837.96 89.8658 Q839.944 91.3242 845.94 92.661 L848.492 93.2281 Q856.432 94.9295 859.753 98.0487 Q863.116 101.127 863.116 106.677 Q863.116 112.997 858.093 116.683 Q853.11 120.369 844.36 120.369 Q840.714 120.369 836.744 119.64 Q832.815 118.951 828.44 117.534 L828.44 109.837 Q832.572 111.984 836.582 113.078 Q840.593 114.131 844.522 114.131 Q849.788 114.131 852.624 112.348 Q855.459 110.525 855.459 107.244 Q855.459 104.206 853.393 102.586 Q851.368 100.965 844.441 99.4665 L841.848 98.8589 Q834.921 97.4005 831.843 94.4029 Q828.764 91.3647 828.764 86.0985 Q828.764 79.6981 833.301 76.2143 Q837.838 72.7305 846.183 72.7305 Q850.315 72.7305 853.961 73.3382 Q857.606 73.9458 860.685 75.1611 Z" fill="#000000" fill-rule="evenodd" fill-opacity="1" /><path clip-path="url(#clip140)" d="M 0 0 M1815.27 1428.94 L1815.27 1451.66 L1825.56 1451.66 Q1831.27 1451.66 1834.39 1448.71 Q1837.51 1445.75 1837.51 1440.28 Q1837.51 1434.85 1834.39 1431.9 Q1831.27 1428.94 1825.56 1428.94 L1815.27 1428.94 M1807.09 1422.21 L1825.56 1422.21 Q1835.73 1422.21 1840.91 1426.83 Q1846.14 1431.41 1846.14 1440.28 Q1846.14 1449.23 1840.91 1453.81 Q1835.73 1458.39 1825.56 1458.39 L1815.27 1458.39 L1815.27 1482.69 L1807.09 1482.69 L1807.09 1422.21 Z" fill="#000000" fill-rule="evenodd" fill-opacity="1" /><path clip-path="url(#clip140)" d="M 0 0 M1889.8 1458.15 L1889.8 1461.79 L1855.53 1461.79 Q1856.02 1469.49 1860.15 1473.54 Q1864.32 1477.55 1871.74 1477.55 Q1876.03 1477.55 1880.04 1476.5 Q1884.09 1475.44 1888.06 1473.34 L1888.06 1480.39 Q1884.05 1482.09 1879.84 1482.98 Q1875.63 1483.87 1871.29 1483.87 Q1860.44 1483.87 1854.08 1477.55 Q1847.76 1471.23 1847.76 1460.45 Q1847.76 1449.31 1853.75 1442.79 Q1859.79 1436.23 1870 1436.23 Q1879.15 1436.23 1884.46 1442.14 Q1889.8 1448.02 1889.8 1458.15 M1882.35 1455.96 Q1882.27 1449.84 1878.91 1446.2 Q1875.59 1442.55 1870.08 1442.55 Q1863.84 1442.55 1860.07 1446.07 Q1856.34 1449.6 1855.78 1456 L1882.35 1455.96 Z" fill="#000000" fill-rule="evenodd" fill-opacity="1" /><path clip-path="url(#clip140)" d="M 0 0 M1923.91 1444.29 Q1922.66 1443.56 1921.16 1443.24 Q1919.7 1442.87 1917.92 1442.87 Q1911.6 1442.87 1908.2 1447.01 Q1904.83 1451.1 1904.83 1458.79 L1904.83 1482.69 L1897.34 1482.69 L1897.34 1437.32 L1904.83 1437.32 L1904.83 1444.37 Q1907.18 1440.24 1910.95 1438.26 Q1914.72 1436.23 1920.11 1436.23 Q1920.88 1436.23 1921.81 1436.35 Q1922.74 1436.43 1923.87 1436.64 L1923.91 1444.29 Z" fill="#000000" fill-rule="evenodd" fill-opacity="1" /><path clip-path="url(#clip140)" d="M 0 0 M1954.7 1419.66 L1954.7 1425.86 L1947.57 1425.86 Q1943.56 1425.86 1941.98 1427.48 Q1940.44 1429.1 1940.44 1433.31 L1940.44 1437.32 L1952.72 1437.32 L1952.72 1443.12 L1940.44 1443.12 L1940.44 1482.69 L1932.95 1482.69 L1932.95 1443.12 L1925.82 1443.12 L1925.82 1437.32 L1932.95 1437.32 L1932.95 1434.16 Q1932.95 1426.59 1936.47 1423.15 Q1940 1419.66 1947.65 1419.66 L1954.7 1419.66 Z" fill="#000000" fill-rule="evenodd" fill-opacity="1" /><path clip-path="url(#clip140)" d="M 0 0 M1980.1 1442.55 Q1974.1 1442.55 1970.62 1447.25 Q1967.14 1451.91 1967.14 1460.05 Q1967.14 1468.19 1970.58 1472.89 Q1974.06 1477.55 1980.1 1477.55 Q1986.05 1477.55 1989.54 1472.85 Q1993.02 1468.15 1993.02 1460.05 Q1993.02 1451.99 1989.54 1447.29 Q1986.05 1442.55 1980.1 1442.55 M1980.1 1436.23 Q1989.82 1436.23 1995.37 1442.55 Q2000.92 1448.87 2000.92 1460.05 Q2000.92 1471.19 1995.37 1477.55 Q1989.82 1483.87 1980.1 1483.87 Q1970.34 1483.87 1964.79 1477.55 Q1959.28 1471.19 1959.28 1460.05 Q1959.28 1448.87 1964.79 1442.55 Q1970.34 1436.23 1980.1 1436.23 Z" fill="#000000" fill-rule="evenodd" fill-opacity="1" /><path clip-path="url(#clip140)" d="M 0 0 M2035.03 1444.29 Q2033.77 1443.56 2032.28 1443.24 Q2030.82 1442.87 2029.03 1442.87 Q2022.72 1442.87 2019.31 1447.01 Q2015.95 1451.1 2015.95 1458.79 L2015.95 1482.69 L2008.46 1482.69 L2008.46 1437.32 L2015.95 1437.32 L2015.95 1444.37 Q2018.3 1440.24 2022.07 1438.26 Q2025.83 1436.23 2031.22 1436.23 Q2031.99 1436.23 2032.92 1436.35 Q2033.86 1436.43 2034.99 1436.64 L2035.03 1444.29 Z" fill="#000000" fill-rule="evenodd" fill-opacity="1" /><path clip-path="url(#clip140)" d="M 0 0 M2076.71 1446.03 Q2079.51 1441.01 2083.4 1438.62 Q2087.29 1436.23 2092.55 1436.23 Q2099.64 1436.23 2103.49 1441.21 Q2107.34 1446.16 2107.34 1455.31 L2107.34 1482.69 L2099.84 1482.69 L2099.84 1455.55 Q2099.84 1449.03 2097.54 1445.87 Q2095.23 1442.71 2090.49 1442.71 Q2084.69 1442.71 2081.33 1446.56 Q2077.97 1450.41 2077.97 1457.05 L2077.97 1482.69 L2070.48 1482.69 L2070.48 1455.55 Q2070.48 1448.99 2068.17 1445.87 Q2065.86 1442.71 2061.04 1442.71 Q2055.32 1442.71 2051.96 1446.6 Q2048.6 1450.45 2048.6 1457.05 L2048.6 1482.69 L2041.11 1482.69 L2041.11 1437.32 L2048.6 1437.32 L2048.6 1444.37 Q2051.15 1440.2 2054.72 1438.22 Q2058.28 1436.23 2063.18 1436.23 Q2068.13 1436.23 2071.57 1438.74 Q2075.05 1441.25 2076.71 1446.03 Z" fill="#000000" fill-rule="evenodd" fill-opacity="1" /><path clip-path="url(#clip140)" d="M 0 0 M2135.78 1459.89 Q2126.74 1459.89 2123.26 1461.95 Q2119.77 1464.02 2119.77 1469 Q2119.77 1472.97 2122.37 1475.32 Q2125 1477.63 2129.5 1477.63 Q2135.69 1477.63 2139.42 1473.26 Q2143.19 1468.84 2143.19 1461.55 L2143.19 1459.89 L2135.78 1459.89 M2150.64 1456.81 L2150.64 1482.69 L2143.19 1482.69 L2143.19 1475.81 Q2140.64 1479.94 2136.83 1481.92 Q2133.02 1483.87 2127.51 1483.87 Q2120.54 1483.87 2116.41 1479.98 Q2112.32 1476.05 2112.32 1469.49 Q2112.32 1461.83 2117.43 1457.94 Q2122.57 1454.05 2132.74 1454.05 L2143.19 1454.05 L2143.19 1453.33 Q2143.19 1448.18 2139.79 1445.39 Q2136.42 1442.55 2130.31 1442.55 Q2126.42 1442.55 2122.73 1443.48 Q2119.05 1444.41 2115.64 1446.28 L2115.64 1439.39 Q2119.73 1437.81 2123.58 1437.04 Q2127.43 1436.23 2131.08 1436.23 Q2140.92 1436.23 2145.78 1441.33 Q2150.64 1446.44 2150.64 1456.81 Z" fill="#000000" fill-rule="evenodd" fill-opacity="1" /><path clip-path="url(#clip140)" d="M 0 0 M2196.17 1455.31 L2196.17 1482.69 L2188.72 1482.69 L2188.72 1455.55 Q2188.72 1449.11 2186.21 1445.91 Q2183.7 1442.71 2178.67 1442.71 Q2172.64 1442.71 2169.16 1446.56 Q2165.67 1450.41 2165.67 1457.05 L2165.67 1482.69 L2158.18 1482.69 L2158.18 1437.32 L2165.67 1437.32 L2165.67 1444.37 Q2168.35 1440.28 2171.95 1438.26 Q2175.6 1436.23 2180.34 1436.23 Q2188.15 1436.23 2192.16 1441.09 Q2196.17 1445.91 2196.17 1455.31 Z" fill="#000000" fill-rule="evenodd" fill-opacity="1" /><path clip-path="url(#clip140)" d="M 0 0 M2236.64 1439.07 L2236.64 1446.03 Q2233.48 1444.29 2230.28 1443.44 Q2227.12 1442.55 2223.88 1442.55 Q2216.63 1442.55 2212.62 1447.17 Q2208.61 1451.75 2208.61 1460.05 Q2208.61 1468.35 2212.62 1472.97 Q2216.63 1477.55 2223.88 1477.55 Q2227.12 1477.55 2230.28 1476.7 Q2233.48 1475.81 2236.64 1474.07 L2236.64 1480.95 Q2233.52 1482.41 2230.16 1483.14 Q2226.84 1483.87 2223.07 1483.87 Q2212.82 1483.87 2206.79 1477.43 Q2200.75 1470.99 2200.75 1460.05 Q2200.75 1448.95 2206.83 1442.59 Q2212.95 1436.23 2223.56 1436.23 Q2227 1436.23 2230.28 1436.96 Q2233.56 1437.65 2236.64 1439.07 Z" fill="#000000" fill-rule="evenodd" fill-opacity="1" /><path clip-path="url(#clip140)" d="M 0 0 M2283.27 1458.15 L2283.27 1461.79 L2249 1461.79 Q2249.48 1469.49 2253.62 1473.54 Q2257.79 1477.55 2265.2 1477.55 Q2269.5 1477.55 2273.51 1476.5 Q2277.56 1475.44 2281.53 1473.34 L2281.53 1480.39 Q2277.52 1482.09 2273.3 1482.98 Q2269.09 1483.87 2264.76 1483.87 Q2253.9 1483.87 2247.54 1477.55 Q2241.22 1471.23 2241.22 1460.45 Q2241.22 1449.31 2247.22 1442.79 Q2253.25 1436.23 2263.46 1436.23 Q2272.62 1436.23 2277.92 1442.14 Q2283.27 1448.02 2283.27 1458.15 M2275.82 1455.96 Q2275.73 1449.84 2272.37 1446.2 Q2269.05 1442.55 2263.54 1442.55 Q2257.3 1442.55 2253.54 1446.07 Q2249.81 1449.6 2249.24 1456 L2275.82 1455.96 Z" fill="#000000" fill-rule="evenodd" fill-opacity="1" /><path clip-path="url(#clip140)" d="M 0 0 M2325.56 1496.47 L2325.56 1502.26 L2282.46 1502.26 L2282.46 1496.47 L2325.56 1496.47 Z" fill="#000000" fill-rule="evenodd" fill-opacity="1" /><path clip-path="url(#clip140)" d="M 0 0 M2341.89 1428.94 L2341.89 1451.66 L2352.18 1451.66 Q2357.89 1451.66 2361.01 1448.71 Q2364.13 1445.75 2364.13 1440.28 Q2364.13 1434.85 2361.01 1431.9 Q2357.89 1428.94 2352.18 1428.94 L2341.89 1428.94 M2333.7 1422.21 L2352.18 1422.21 Q2362.34 1422.21 2367.53 1426.83 Q2372.75 1431.41 2372.75 1440.28 Q2372.75 1449.23 2367.53 1453.81 Q2362.34 1458.39 2352.18 1458.39 L2341.89 1458.39 L2341.89 1482.69 L2333.7 1482.69 L2333.7 1422.21 Z" fill="#000000" fill-rule="evenodd" fill-opacity="1" /><path clip-path="url(#clip140)" d="M 0 0 M2397.46 1459.89 Q2388.43 1459.89 2384.95 1461.95 Q2381.46 1464.02 2381.46 1469 Q2381.46 1472.97 2384.06 1475.32 Q2386.69 1477.63 2391.19 1477.63 Q2397.38 1477.63 2401.11 1473.26 Q2404.88 1468.84 2404.88 1461.55 L2404.88 1459.89 L2397.46 1459.89 M2412.33 1456.81 L2412.33 1482.69 L2404.88 1482.69 L2404.88 1475.81 Q2402.33 1479.94 2398.52 1481.92 Q2394.71 1483.87 2389.2 1483.87 Q2382.23 1483.87 2378.1 1479.98 Q2374.01 1476.05 2374.01 1469.49 Q2374.01 1461.83 2379.11 1457.94 Q2384.26 1454.05 2394.43 1454.05 L2404.88 1454.05 L2404.88 1453.33 Q2404.88 1448.18 2401.47 1445.39 Q2398.11 1442.55 2392 1442.55 Q2388.11 1442.55 2384.42 1443.48 Q2380.73 1444.41 2377.33 1446.28 L2377.33 1439.39 Q2381.42 1437.81 2385.27 1437.04 Q2389.12 1436.23 2392.77 1436.23 Q2402.61 1436.23 2407.47 1441.33 Q2412.33 1446.44 2412.33 1456.81 Z" fill="#000000" fill-rule="evenodd" fill-opacity="1" /><path clip-path="url(#clip140)" d="M 0 0 M2446.44 1444.29 Q2445.18 1443.56 2443.69 1443.24 Q2442.23 1442.87 2440.44 1442.87 Q2434.12 1442.87 2430.72 1447.01 Q2427.36 1451.1 2427.36 1458.79 L2427.36 1482.69 L2419.87 1482.69 L2419.87 1437.32 L2427.36 1437.32 L2427.36 1444.37 Q2429.71 1440.24 2433.48 1438.26 Q2437.24 1436.23 2442.63 1436.23 Q2443.4 1436.23 2444.33 1436.35 Q2445.26 1436.43 2446.4 1436.64 L2446.44 1444.29 Z" fill="#000000" fill-rule="evenodd" fill-opacity="1" /><path clip-path="url(#clip140)" d="M 0 0 M2474.88 1459.89 Q2465.84 1459.89 2462.36 1461.95 Q2458.88 1464.02 2458.88 1469 Q2458.88 1472.97 2461.47 1475.32 Q2464.1 1477.63 2468.6 1477.63 Q2474.8 1477.63 2478.52 1473.26 Q2482.29 1468.84 2482.29 1461.55 L2482.29 1459.89 L2474.88 1459.89 M2489.74 1456.81 L2489.74 1482.69 L2482.29 1482.69 L2482.29 1475.81 Q2479.74 1479.94 2475.93 1481.92 Q2472.12 1483.87 2466.61 1483.87 Q2459.65 1483.87 2455.51 1479.98 Q2451.42 1476.05 2451.42 1469.49 Q2451.42 1461.83 2456.53 1457.94 Q2461.67 1454.05 2471.84 1454.05 L2482.29 1454.05 L2482.29 1453.33 Q2482.29 1448.18 2478.89 1445.39 Q2475.53 1442.55 2469.41 1442.55 Q2465.52 1442.55 2461.83 1443.48 Q2458.15 1444.41 2454.74 1446.28 L2454.74 1439.39 Q2458.84 1437.81 2462.68 1437.04 Q2466.53 1436.23 2470.18 1436.23 Q2480.02 1436.23 2484.88 1441.33 Q2489.74 1446.44 2489.74 1456.81 Z" fill="#000000" fill-rule="evenodd" fill-opacity="1" /><path clip-path="url(#clip140)" d="M 0 0 M2532.89 1446.03 Q2535.68 1441.01 2539.57 1438.62 Q2543.46 1436.23 2548.73 1436.23 Q2555.81 1436.23 2559.66 1441.21 Q2563.51 1446.16 2563.51 1455.31 L2563.51 1482.69 L2556.02 1482.69 L2556.02 1455.55 Q2556.02 1449.03 2553.71 1445.87 Q2551.4 1442.71 2546.66 1442.71 Q2540.87 1442.71 2537.5 1446.56 Q2534.14 1450.41 2534.14 1457.05 L2534.14 1482.69 L2526.65 1482.69 L2526.65 1455.55 Q2526.65 1448.99 2524.34 1445.87 Q2522.03 1442.71 2517.21 1442.71 Q2511.5 1442.71 2508.14 1446.6 Q2504.77 1450.45 2504.77 1457.05 L2504.77 1482.69 L2497.28 1482.69 L2497.28 1437.32 L2504.77 1437.32 L2504.77 1444.37 Q2507.32 1440.2 2510.89 1438.22 Q2514.45 1436.23 2519.36 1436.23 Q2524.3 1436.23 2527.74 1438.74 Q2531.23 1441.25 2532.89 1446.03 Z" fill="#000000" fill-rule="evenodd" fill-opacity="1" /><path clip-path="url(#clip140)" d="M 0 0 M2610.14 1458.15 L2610.14 1461.79 L2575.87 1461.79 Q2576.35 1469.49 2580.48 1473.54 Q2584.66 1477.55 2592.07 1477.55 Q2596.36 1477.55 2600.37 1476.5 Q2604.42 1475.44 2608.39 1473.34 L2608.39 1480.39 Q2604.38 1482.09 2600.17 1482.98 Q2595.96 1483.87 2591.62 1483.87 Q2580.77 1483.87 2574.41 1477.55 Q2568.09 1471.23 2568.09 1460.45 Q2568.09 1449.31 2574.08 1442.79 Q2580.12 1436.23 2590.33 1436.23 Q2599.48 1436.23 2604.79 1442.14 Q2610.14 1448.02 2610.14 1458.15 M2602.68 1455.96 Q2602.6 1449.84 2599.24 1446.2 Q2595.92 1442.55 2590.41 1442.55 Q2584.17 1442.55 2580.4 1446.07 Q2576.68 1449.6 2576.11 1456 L2602.68 1455.96 Z" fill="#000000" fill-rule="evenodd" fill-opacity="1" /><path clip-path="url(#clip140)" d="M 0 0 M2625.33 1424.44 L2625.33 1437.32 L2640.68 1437.32 L2640.68 1443.12 L2625.33 1443.12 L2625.33 1467.75 Q2625.33 1473.3 2626.83 1474.88 Q2628.37 1476.46 2633.02 1476.46 L2640.68 1476.46 L2640.68 1482.69 L2633.02 1482.69 Q2624.4 1482.69 2621.11 1479.49 Q2617.83 1476.25 2617.83 1467.75 L2617.83 1443.12 L2612.36 1443.12 L2612.36 1437.32 L2617.83 1437.32 L2617.83 1424.44 L2625.33 1424.44 Z" fill="#000000" fill-rule="evenodd" fill-opacity="1" /><path clip-path="url(#clip140)" d="M 0 0 M2687.31 1458.15 L2687.31 1461.79 L2653.04 1461.79 Q2653.52 1469.49 2657.65 1473.54 Q2661.83 1477.55 2669.24 1477.55 Q2673.53 1477.55 2677.54 1476.5 Q2681.59 1475.44 2685.56 1473.34 L2685.56 1480.39 Q2681.55 1482.09 2677.34 1482.98 Q2673.13 1483.87 2668.79 1483.87 Q2657.94 1483.87 2651.58 1477.55 Q2645.26 1471.23 2645.26 1460.45 Q2645.26 1449.31 2651.25 1442.79 Q2657.29 1436.23 2667.5 1436.23 Q2676.65 1436.23 2681.96 1442.14 Q2687.31 1448.02 2687.31 1458.15 M2679.85 1455.96 Q2679.77 1449.84 2676.41 1446.2 Q2673.09 1442.55 2667.58 1442.55 Q2661.34 1442.55 2657.57 1446.07 Q2653.85 1449.6 2653.28 1456 L2679.85 1455.96 Z" fill="#000000" fill-rule="evenodd" fill-opacity="1" /><path clip-path="url(#clip140)" d="M 0 0 M2721.42 1444.29 Q2720.16 1443.56 2718.66 1443.24 Q2717.2 1442.87 2715.42 1442.87 Q2709.1 1442.87 2705.7 1447.01 Q2702.34 1451.1 2702.34 1458.79 L2702.34 1482.69 L2694.84 1482.69 L2694.84 1437.32 L2702.34 1437.32 L2702.34 1444.37 Q2704.68 1440.24 2708.45 1438.26 Q2712.22 1436.23 2717.61 1436.23 Q2718.38 1436.23 2719.31 1436.35 Q2720.24 1436.43 2721.37 1436.64 L2721.42 1444.29 Z" fill="#000000" fill-rule="evenodd" fill-opacity="1" /><path clip-path="url(#clip140)" d="M 0 0 M2758.16 1438.66 L2758.16 1445.71 Q2755 1444.09 2751.59 1443.28 Q2748.19 1442.47 2744.55 1442.47 Q2739 1442.47 2736.2 1444.17 Q2733.45 1445.87 2733.45 1449.27 Q2733.45 1451.87 2735.43 1453.37 Q2737.42 1454.82 2743.41 1456.16 L2745.96 1456.73 Q2753.9 1458.43 2757.23 1461.55 Q2760.59 1464.63 2760.59 1470.18 Q2760.59 1476.5 2755.56 1480.18 Q2750.58 1483.87 2741.83 1483.87 Q2738.19 1483.87 2734.22 1483.14 Q2730.29 1482.45 2725.91 1481.03 L2725.91 1473.34 Q2730.04 1475.48 2734.05 1476.58 Q2738.06 1477.63 2741.99 1477.63 Q2747.26 1477.63 2750.1 1475.85 Q2752.93 1474.03 2752.93 1470.74 Q2752.93 1467.71 2750.87 1466.09 Q2748.84 1464.47 2741.91 1462.97 L2739.32 1462.36 Q2732.39 1460.9 2729.31 1457.9 Q2726.24 1454.86 2726.24 1449.6 Q2726.24 1443.2 2730.77 1439.71 Q2735.31 1436.23 2743.65 1436.23 Q2747.79 1436.23 2751.43 1436.84 Q2755.08 1437.45 2758.16 1438.66 Z" fill="#000000" fill-rule="evenodd" fill-opacity="1" /><path clip-path="url(#clip140)" d="M 0 0 M825.669 1068.07 L825.669 1076.7 Q821.537 1072.85 816.838 1070.95 Q812.179 1069.04 806.913 1069.04 Q796.543 1069.04 791.033 1075.4 Q785.524 1081.72 785.524 1093.71 Q785.524 1105.66 791.033 1112.02 Q796.543 1118.34 806.913 1118.34 Q812.179 1118.34 816.838 1116.44 Q821.537 1114.53 825.669 1110.69 L825.669 1119.23 Q821.375 1122.15 816.554 1123.61 Q811.774 1125.07 806.427 1125.07 Q792.694 1125.07 784.795 1116.68 Q776.896 1108.25 776.896 1093.71 Q776.896 1079.13 784.795 1070.74 Q792.694 1062.32 806.427 1062.32 Q811.855 1062.32 816.635 1063.78 Q821.456 1065.19 825.669 1068.07 Z" fill="#000000" fill-rule="evenodd" fill-opacity="1" /><path clip-path="url(#clip140)" d="M 0 0 M833.487 1060.86 L840.94 1060.86 L840.94 1123.89 L833.487 1123.89 L833.487 1060.86 Z" fill="#000000" fill-rule="evenodd" fill-opacity="1" /><path clip-path="url(#clip140)" d="M 0 0 M848.759 1078.52 L856.212 1078.52 L856.212 1123.89 L848.759 1123.89 L848.759 1078.52 M848.759 1060.86 L856.212 1060.86 L856.212 1070.3 L848.759 1070.3 L848.759 1060.86 Z" fill="#000000" fill-rule="evenodd" fill-opacity="1" /><path clip-path="url(#clip140)" d="M 0 0 M902.838 1099.34 L902.838 1102.99 L868.568 1102.99 Q869.054 1110.69 873.186 1114.74 Q877.358 1118.75 884.771 1118.75 Q889.065 1118.75 893.076 1117.69 Q897.127 1116.64 901.096 1114.53 L901.096 1121.58 Q897.086 1123.28 892.873 1124.17 Q888.66 1125.07 884.326 1125.07 Q873.469 1125.07 867.109 1118.75 Q860.79 1112.43 860.79 1101.65 Q860.79 1090.51 866.785 1083.99 Q872.821 1077.43 883.029 1077.43 Q892.184 1077.43 897.491 1083.34 Q902.838 1089.22 902.838 1099.34 M895.385 1097.16 Q895.304 1091.04 891.941 1087.39 Q888.62 1083.75 883.11 1083.75 Q876.872 1083.75 873.105 1087.27 Q869.378 1090.8 868.811 1097.2 L895.385 1097.16 Z" fill="#000000" fill-rule="evenodd" fill-opacity="1" /><path clip-path="url(#clip140)" d="M 0 0 M948.37 1096.51 L948.37 1123.89 L940.917 1123.89 L940.917 1096.75 Q940.917 1090.31 938.405 1087.11 Q935.894 1083.91 930.871 1083.91 Q924.835 1083.91 921.351 1087.76 Q917.867 1091.61 917.867 1098.25 L917.867 1123.89 L910.373 1123.89 L910.373 1078.52 L917.867 1078.52 L917.867 1085.57 Q920.541 1081.48 924.146 1079.45 Q927.792 1077.43 932.531 1077.43 Q940.35 1077.43 944.36 1082.29 Q948.37 1087.11 948.37 1096.51 Z" fill="#000000" fill-rule="evenodd" fill-opacity="1" /><path clip-path="url(#clip140)" d="M 0 0 M963.561 1065.64 L963.561 1078.52 L978.914 1078.52 L978.914 1084.31 L963.561 1084.31 L963.561 1108.94 Q963.561 1114.49 965.06 1116.07 Q966.6 1117.65 971.258 1117.65 L978.914 1117.65 L978.914 1123.89 L971.258 1123.89 Q962.63 1123.89 959.348 1120.69 Q956.067 1117.45 956.067 1108.94 L956.067 1084.31 L950.598 1084.31 L950.598 1078.52 L956.067 1078.52 L956.067 1065.64 L963.561 1065.64 Z" fill="#000000" fill-rule="evenodd" fill-opacity="1" /><path clip-path="url(#clip140)" d="M 0 0 M1021.21 1137.66 L1021.21 1143.46 L978.104 1143.46 L978.104 1137.66 L1021.21 1137.66 Z" fill="#000000" fill-rule="evenodd" fill-opacity="1" /><path clip-path="url(#clip140)" d="M 0 0 M1049.64 1101.08 Q1040.61 1101.08 1037.13 1103.15 Q1033.64 1105.22 1033.64 1110.2 Q1033.64 1114.17 1036.23 1116.52 Q1038.87 1118.83 1043.36 1118.83 Q1049.56 1118.83 1053.29 1114.45 Q1057.06 1110.04 1057.06 1102.75 L1057.06 1101.08 L1049.64 1101.08 M1064.51 1098.01 L1064.51 1123.89 L1057.06 1123.89 L1057.06 1117 Q1054.5 1121.14 1050.7 1123.12 Q1046.89 1125.07 1041.38 1125.07 Q1034.41 1125.07 1030.28 1121.18 Q1026.19 1117.25 1026.19 1110.69 Q1026.19 1103.03 1031.29 1099.14 Q1036.44 1095.25 1046.6 1095.25 L1057.06 1095.25 L1057.06 1094.52 Q1057.06 1089.38 1053.65 1086.58 Q1050.29 1083.75 1044.17 1083.75 Q1040.29 1083.75 1036.6 1084.68 Q1032.91 1085.61 1029.51 1087.47 L1029.51 1080.59 Q1033.6 1079.01 1037.45 1078.24 Q1041.3 1077.43 1044.94 1077.43 Q1054.79 1077.43 1059.65 1082.53 Q1064.51 1087.64 1064.51 1098.01 Z" fill="#000000" fill-rule="evenodd" fill-opacity="1" /><path clip-path="url(#clip140)" d="M 0 0 M1110.04 1096.51 L1110.04 1123.89 L1102.59 1123.89 L1102.59 1096.75 Q1102.59 1090.31 1100.08 1087.11 Q1097.57 1083.91 1092.54 1083.91 Q1086.51 1083.91 1083.02 1087.76 Q1079.54 1091.61 1079.54 1098.25 L1079.54 1123.89 L1072.04 1123.89 L1072.04 1078.52 L1079.54 1078.52 L1079.54 1085.57 Q1082.21 1081.48 1085.82 1079.45 Q1089.46 1077.43 1094.2 1077.43 Q1102.02 1077.43 1106.03 1082.29 Q1110.04 1087.11 1110.04 1096.51 Z" fill="#000000" fill-rule="evenodd" fill-opacity="1" /><path clip-path="url(#clip140)" d="M 0 0 M1147.72 1085.41 L1147.72 1060.86 L1155.17 1060.86 L1155.17 1123.89 L1147.72 1123.89 L1147.72 1117.09 Q1145.37 1121.14 1141.76 1123.12 Q1138.2 1125.07 1133.17 1125.07 Q1124.95 1125.07 1119.76 1118.5 Q1114.62 1111.94 1114.62 1101.25 Q1114.62 1090.55 1119.76 1083.99 Q1124.95 1077.43 1133.17 1077.43 Q1138.2 1077.43 1141.76 1079.41 Q1145.37 1081.36 1147.72 1085.41 M1122.32 1101.25 Q1122.32 1109.47 1125.68 1114.17 Q1129.08 1118.83 1135 1118.83 Q1140.91 1118.83 1144.31 1114.17 Q1147.72 1109.47 1147.72 1101.25 Q1147.72 1093.02 1144.31 1088.36 Q1140.91 1083.67 1135 1083.67 Q1129.08 1083.67 1125.68 1088.36 Q1122.32 1093.02 1122.32 1101.25 Z" fill="#000000" fill-rule="evenodd" fill-opacity="1" /><path clip-path="url(#clip140)" d="M 0 0 M1197.46 1137.66 L1197.46 1143.46 L1154.36 1143.46 L1154.36 1137.66 L1197.46 1137.66 Z" fill="#000000" fill-rule="evenodd" fill-opacity="1" /><path clip-path="url(#clip140)" d="M 0 0 M1250.89 1068.07 L1250.89 1076.7 Q1246.76 1072.85 1242.06 1070.95 Q1237.4 1069.04 1232.14 1069.04 Q1221.77 1069.04 1216.26 1075.4 Q1210.75 1081.72 1210.75 1093.71 Q1210.75 1105.66 1216.26 1112.02 Q1221.77 1118.34 1232.14 1118.34 Q1237.4 1118.34 1242.06 1116.44 Q1246.76 1114.53 1250.89 1110.69 L1250.89 1119.23 Q1246.6 1122.15 1241.78 1123.61 Q1237 1125.07 1231.65 1125.07 Q1217.92 1125.07 1210.02 1116.68 Q1202.12 1108.25 1202.12 1093.71 Q1202.12 1079.13 1210.02 1070.74 Q1217.92 1062.32 1231.65 1062.32 Q1237.08 1062.32 1241.86 1063.78 Q1246.68 1065.19 1250.89 1068.07 Z" fill="#000000" fill-rule="evenodd" fill-opacity="1" /><path clip-path="url(#clip140)" d="M 0 0 M1276.29 1083.75 Q1270.3 1083.75 1266.81 1088.45 Q1263.33 1093.1 1263.33 1101.25 Q1263.33 1109.39 1266.77 1114.09 Q1270.26 1118.75 1276.29 1118.75 Q1282.25 1118.75 1285.73 1114.05 Q1289.21 1109.35 1289.21 1101.25 Q1289.21 1093.19 1285.73 1088.49 Q1282.25 1083.75 1276.29 1083.75 M1276.29 1077.43 Q1286.01 1077.43 1291.56 1083.75 Q1297.11 1090.07 1297.11 1101.25 Q1297.11 1112.39 1291.56 1118.75 Q1286.01 1125.07 1276.29 1125.07 Q1266.53 1125.07 1260.98 1118.75 Q1255.47 1112.39 1255.47 1101.25 Q1255.47 1090.07 1260.98 1083.75 Q1266.53 1077.43 1276.29 1077.43 Z" fill="#000000" fill-rule="evenodd" fill-opacity="1" /><path clip-path="url(#clip140)" d="M 0 0 M1342.64 1096.51 L1342.64 1123.89 L1335.19 1123.89 L1335.19 1096.75 Q1335.19 1090.31 1332.68 1087.11 Q1330.17 1083.91 1325.15 1083.91 Q1319.11 1083.91 1315.63 1087.76 Q1312.14 1091.61 1312.14 1098.25 L1312.14 1123.89 L1304.65 1123.89 L1304.65 1078.52 L1312.14 1078.52 L1312.14 1085.57 Q1314.82 1081.48 1318.42 1079.45 Q1322.07 1077.43 1326.81 1077.43 Q1334.62 1077.43 1338.63 1082.29 Q1342.64 1087.11 1342.64 1096.51 Z" fill="#000000" fill-rule="evenodd" fill-opacity="1" /><path clip-path="url(#clip140)" d="M 0 0 M1379.39 1079.86 L1379.39 1086.91 Q1376.23 1085.29 1372.82 1084.48 Q1369.42 1083.67 1365.78 1083.67 Q1360.23 1083.67 1357.43 1085.37 Q1354.68 1087.07 1354.68 1090.47 Q1354.68 1093.06 1356.66 1094.56 Q1358.65 1096.02 1364.64 1097.36 L1367.19 1097.93 Q1375.13 1099.63 1378.45 1102.75 Q1381.82 1105.82 1381.82 1111.37 Q1381.82 1117.69 1376.79 1121.38 Q1371.81 1125.07 1363.06 1125.07 Q1359.42 1125.07 1355.45 1124.34 Q1351.52 1123.65 1347.14 1122.23 L1347.14 1114.53 Q1351.27 1116.68 1355.28 1117.77 Q1359.29 1118.83 1363.22 1118.83 Q1368.49 1118.83 1371.33 1117.05 Q1374.16 1115.22 1374.16 1111.94 Q1374.16 1108.9 1372.1 1107.28 Q1370.07 1105.66 1363.14 1104.16 L1360.55 1103.56 Q1353.62 1102.1 1350.54 1099.1 Q1347.47 1096.06 1347.47 1090.8 Q1347.47 1084.4 1352 1080.91 Q1356.54 1077.43 1364.88 1077.43 Q1369.02 1077.43 1372.66 1078.04 Q1376.31 1078.64 1379.39 1079.86 Z" fill="#000000" fill-rule="evenodd" fill-opacity="1" /><path clip-path="url(#clip140)" d="M 0 0 M1388.87 1105.99 L1388.87 1078.52 L1396.32 1078.52 L1396.32 1105.7 Q1396.32 1112.14 1398.83 1115.38 Q1401.34 1118.58 1406.37 1118.58 Q1412.4 1118.58 1415.89 1114.74 Q1419.41 1110.89 1419.41 1104.24 L1419.41 1078.52 L1426.86 1078.52 L1426.86 1123.89 L1419.41 1123.89 L1419.41 1116.92 Q1416.7 1121.06 1413.09 1123.08 Q1409.53 1125.07 1404.79 1125.07 Q1396.97 1125.07 1392.92 1120.21 Q1388.87 1115.34 1388.87 1105.99 M1407.62 1077.43 L1407.62 1077.43 Z" fill="#000000" fill-rule="evenodd" fill-opacity="1" /><path clip-path="url(#clip140)" d="M 0 0 M1434.68 1060.86 L1442.14 1060.86 L1442.14 1123.89 L1434.68 1123.89 L1434.68 1060.86 Z" fill="#000000" fill-rule="evenodd" fill-opacity="1" /><path clip-path="url(#clip140)" d="M 0 0 M1457.33 1065.64 L1457.33 1078.52 L1472.68 1078.52 L1472.68 1084.31 L1457.33 1084.31 L1457.33 1108.94 Q1457.33 1114.49 1458.82 1116.07 Q1460.36 1117.65 1465.02 1117.65 L1472.68 1117.65 L1472.68 1123.89 L1465.02 1123.89 Q1456.39 1123.89 1453.11 1120.69 Q1449.83 1117.45 1449.83 1108.94 L1449.83 1084.31 L1444.36 1084.31 L1444.36 1078.52 L1449.83 1078.52 L1449.83 1065.64 L1457.33 1065.64 Z" fill="#000000" fill-rule="evenodd" fill-opacity="1" /><path clip-path="url(#clip140)" d="M 0 0 M1501.12 1101.08 Q1492.08 1101.08 1488.6 1103.15 Q1485.12 1105.22 1485.12 1110.2 Q1485.12 1114.17 1487.71 1116.52 Q1490.34 1118.83 1494.84 1118.83 Q1501.04 1118.83 1504.76 1114.45 Q1508.53 1110.04 1508.53 1102.75 L1508.53 1101.08 L1501.12 1101.08 M1515.98 1098.01 L1515.98 1123.89 L1508.53 1123.89 L1508.53 1117 Q1505.98 1121.14 1502.17 1123.12 Q1498.36 1125.07 1492.85 1125.07 Q1485.88 1125.07 1481.75 1121.18 Q1477.66 1117.25 1477.66 1110.69 Q1477.66 1103.03 1482.77 1099.14 Q1487.91 1095.25 1498.08 1095.25 L1508.53 1095.25 L1508.53 1094.52 Q1508.53 1089.38 1505.13 1086.58 Q1501.76 1083.75 1495.65 1083.75 Q1491.76 1083.75 1488.07 1084.68 Q1484.39 1085.61 1480.98 1087.47 L1480.98 1080.59 Q1485.07 1079.01 1488.92 1078.24 Q1492.77 1077.43 1496.42 1077.43 Q1506.26 1077.43 1511.12 1082.53 Q1515.98 1087.64 1515.98 1098.01 Z" fill="#000000" fill-rule="evenodd" fill-opacity="1" /><path clip-path="url(#clip140)" d="M 0 0 M1561.52 1096.51 L1561.52 1123.89 L1554.06 1123.89 L1554.06 1096.75 Q1554.06 1090.31 1551.55 1087.11 Q1549.04 1083.91 1544.02 1083.91 Q1537.98 1083.91 1534.5 1087.76 Q1531.01 1091.61 1531.01 1098.25 L1531.01 1123.89 L1523.52 1123.89 L1523.52 1078.52 L1531.01 1078.52 L1531.01 1085.57 Q1533.69 1081.48 1537.29 1079.45 Q1540.94 1077.43 1545.68 1077.43 Q1553.49 1077.43 1557.5 1082.29 Q1561.52 1087.11 1561.52 1096.51 Z" fill="#000000" fill-rule="evenodd" fill-opacity="1" /><path clip-path="url(#clip140)" d="M 0 0 M1576.71 1065.64 L1576.71 1078.52 L1592.06 1078.52 L1592.06 1084.31 L1576.71 1084.31 L1576.71 1108.94 Q1576.71 1114.49 1578.21 1116.07 Q1579.74 1117.65 1584.4 1117.65 L1592.06 1117.65 L1592.06 1123.89 L1584.4 1123.89 Q1575.77 1123.89 1572.49 1120.69 Q1569.21 1117.45 1569.21 1108.94 L1569.21 1084.31 L1563.74 1084.31 L1563.74 1078.52 L1569.21 1078.52 L1569.21 1065.64 L1576.71 1065.64 Z" fill="#000000" fill-rule="evenodd" fill-opacity="1" /><path clip-path="url(#clip140)" d="M 0 0 M1634.35 1137.66 L1634.35 1143.46 L1591.25 1143.46 L1591.25 1137.66 L1634.35 1137.66 Z" fill="#000000" fill-rule="evenodd" fill-opacity="1" /><path clip-path="url(#clip140)" d="M 0 0 M1671.17 1095.54 Q1673.81 1096.43 1676.28 1099.34 Q1678.79 1102.26 1681.3 1107.36 L1689.6 1123.89 L1680.81 1123.89 L1673.08 1108.38 Q1670.08 1102.3 1667.24 1100.32 Q1664.45 1098.33 1659.59 1098.33 L1650.68 1098.33 L1650.68 1123.89 L1642.49 1123.89 L1642.49 1063.41 L1660.97 1063.41 Q1671.34 1063.41 1676.44 1067.75 Q1681.54 1072.08 1681.54 1080.83 Q1681.54 1086.54 1678.87 1090.31 Q1676.24 1094.08 1671.17 1095.54 M1650.68 1070.14 L1650.68 1091.61 L1660.97 1091.61 Q1666.88 1091.61 1669.88 1088.89 Q1672.92 1086.14 1672.92 1080.83 Q1672.92 1075.52 1669.88 1072.85 Q1666.88 1070.14 1660.97 1070.14 L1650.68 1070.14 Z" fill="#000000" fill-rule="evenodd" fill-opacity="1" /><path clip-path="url(#clip140)" d="M 0 0 M1732.5 1099.34 L1732.5 1102.99 L1698.23 1102.99 Q1698.72 1110.69 1702.85 1114.74 Q1707.02 1118.75 1714.44 1118.75 Q1718.73 1118.75 1722.74 1117.69 Q1726.79 1116.64 1730.76 1114.53 L1730.76 1121.58 Q1726.75 1123.28 1722.54 1124.17 Q1718.33 1125.07 1713.99 1125.07 Q1703.13 1125.07 1696.78 1118.75 Q1690.46 1112.43 1690.46 1101.65 Q1690.46 1090.51 1696.45 1083.99 Q1702.49 1077.43 1712.7 1077.43 Q1721.85 1077.43 1727.16 1083.34 Q1732.5 1089.22 1732.5 1099.34 M1725.05 1097.16 Q1724.97 1091.04 1721.61 1087.39 Q1718.29 1083.75 1712.78 1083.75 Q1706.54 1083.75 1702.77 1087.27 Q1699.04 1090.8 1698.48 1097.2 L1725.05 1097.16 Z" fill="#000000" fill-rule="evenodd" fill-opacity="1" /><path clip-path="url(#clip140)" d="M 0 0 M1744.78 1101.25 Q1744.78 1109.47 1748.14 1114.17 Q1751.54 1118.83 1757.46 1118.83 Q1763.37 1118.83 1766.77 1114.17 Q1770.18 1109.47 1770.18 1101.25 Q1770.18 1093.02 1766.77 1088.36 Q1763.37 1083.67 1757.46 1083.67 Q1751.54 1083.67 1748.14 1088.36 Q1744.78 1093.02 1744.78 1101.25 M1770.18 1117.09 Q1767.83 1121.14 1764.22 1123.12 Q1760.66 1125.07 1755.63 1125.07 Q1747.41 1125.07 1742.23 1118.5 Q1737.08 1111.94 1737.08 1101.25 Q1737.08 1090.55 1742.23 1083.99 Q1747.41 1077.43 1755.63 1077.43 Q1760.66 1077.43 1764.22 1079.41 Q1767.83 1081.36 1770.18 1085.41 L1770.18 1078.52 L1777.63 1078.52 L1777.63 1141.15 L1770.18 1141.15 L1770.18 1117.09 Z" fill="#000000" fill-rule="evenodd" fill-opacity="1" /><path clip-path="url(#clip140)" d="M 0 0 M1784.68 1105.99 L1784.68 1078.52 L1792.13 1078.52 L1792.13 1105.7 Q1792.13 1112.14 1794.64 1115.38 Q1797.16 1118.58 1802.18 1118.58 Q1808.22 1118.58 1811.7 1114.74 Q1815.22 1110.89 1815.22 1104.24 L1815.22 1078.52 L1822.68 1078.52 L1822.68 1123.89 L1815.22 1123.89 L1815.22 1116.92 Q1812.51 1121.06 1808.9 1123.08 Q1805.34 1125.07 1800.6 1125.07 Q1792.78 1125.07 1788.73 1120.21 Q1784.68 1115.34 1784.68 1105.99 M1803.44 1077.43 L1803.44 1077.43 Z" fill="#000000" fill-rule="evenodd" fill-opacity="1" /><path clip-path="url(#clip140)" d="M 0 0 M1869.3 1099.34 L1869.3 1102.99 L1835.03 1102.99 Q1835.52 1110.69 1839.65 1114.74 Q1843.82 1118.75 1851.24 1118.75 Q1855.53 1118.75 1859.54 1117.69 Q1863.59 1116.64 1867.56 1114.53 L1867.56 1121.58 Q1863.55 1123.28 1859.34 1124.17 Q1855.12 1125.07 1850.79 1125.07 Q1839.93 1125.07 1833.57 1118.75 Q1827.25 1112.43 1827.25 1101.65 Q1827.25 1090.51 1833.25 1083.99 Q1839.29 1077.43 1849.49 1077.43 Q1858.65 1077.43 1863.96 1083.34 Q1869.3 1089.22 1869.3 1099.34 M1861.85 1097.16 Q1861.77 1091.04 1858.41 1087.39 Q1855.08 1083.75 1849.58 1083.75 Q1843.34 1083.75 1839.57 1087.27 Q1835.84 1090.8 1835.28 1097.2 L1861.85 1097.16 Z" fill="#000000" fill-rule="evenodd" fill-opacity="1" /><path clip-path="url(#clip140)" d="M 0 0 M1906.04 1079.86 L1906.04 1086.91 Q1902.89 1085.29 1899.48 1084.48 Q1896.08 1083.67 1892.43 1083.67 Q1886.88 1083.67 1884.09 1085.37 Q1881.33 1087.07 1881.33 1090.47 Q1881.33 1093.06 1883.32 1094.56 Q1885.3 1096.02 1891.3 1097.36 L1893.85 1097.93 Q1901.79 1099.63 1905.11 1102.75 Q1908.48 1105.82 1908.48 1111.37 Q1908.48 1117.69 1903.45 1121.38 Q1898.47 1125.07 1889.72 1125.07 Q1886.07 1125.07 1882.1 1124.34 Q1878.17 1123.65 1873.8 1122.23 L1873.8 1114.53 Q1877.93 1116.68 1881.94 1117.77 Q1885.95 1118.83 1889.88 1118.83 Q1895.15 1118.83 1897.98 1117.05 Q1900.82 1115.22 1900.82 1111.94 Q1900.82 1108.9 1898.75 1107.28 Q1896.73 1105.66 1889.8 1104.16 L1887.21 1103.56 Q1880.28 1102.1 1877.2 1099.1 Q1874.12 1096.06 1874.12 1090.8 Q1874.12 1084.4 1878.66 1080.91 Q1883.2 1077.43 1891.54 1077.43 Q1895.67 1077.43 1899.32 1078.04 Q1902.97 1078.64 1906.04 1079.86 Z" fill="#000000" fill-rule="evenodd" fill-opacity="1" /><path clip-path="url(#clip140)" d="M 0 0 M1923.67 1065.64 L1923.67 1078.52 L1939.02 1078.52 L1939.02 1084.31 L1923.67 1084.31 L1923.67 1108.94 Q1923.67 1114.49 1925.17 1116.07 Q1926.7 1117.65 1931.36 1117.65 L1939.02 1117.65 L1939.02 1123.89 L1931.36 1123.89 Q1922.73 1123.89 1919.45 1120.69 Q1916.17 1117.45 1916.17 1108.94 L1916.17 1084.31 L1910.7 1084.31 L1910.7 1078.52 L1916.17 1078.52 L1916.17 1065.64 L1923.67 1065.64 Z" fill="#000000" fill-rule="evenodd" fill-opacity="1" /><path clip-path="url(#clip140)" d="M 0 0 M1975.76 1079.86 L1975.76 1086.91 Q1972.6 1085.29 1969.2 1084.48 Q1965.8 1083.67 1962.15 1083.67 Q1956.6 1083.67 1953.8 1085.37 Q1951.05 1087.07 1951.05 1090.47 Q1951.05 1093.06 1953.04 1094.56 Q1955.02 1096.02 1961.02 1097.36 L1963.57 1097.93 Q1971.51 1099.63 1974.83 1102.75 Q1978.19 1105.82 1978.19 1111.37 Q1978.19 1117.69 1973.17 1121.38 Q1968.19 1125.07 1959.44 1125.07 Q1955.79 1125.07 1951.82 1124.34 Q1947.89 1123.65 1943.52 1122.23 L1943.52 1114.53 Q1947.65 1116.68 1951.66 1117.77 Q1955.67 1118.83 1959.6 1118.83 Q1964.86 1118.83 1967.7 1117.05 Q1970.54 1115.22 1970.54 1111.94 Q1970.54 1108.9 1968.47 1107.28 Q1966.44 1105.66 1959.52 1104.16 L1956.92 1103.56 Q1950 1102.1 1946.92 1099.1 Q1943.84 1096.06 1943.84 1090.8 Q1943.84 1084.4 1948.38 1080.91 Q1952.91 1077.43 1961.26 1077.43 Q1965.39 1077.43 1969.04 1078.04 Q1972.68 1078.64 1975.76 1079.86 Z" fill="#000000" fill-rule="evenodd" fill-opacity="1" /><path clip-path="url(#clip140)" d="M 0 0 M1965.23 617.451 L1965.23 664.482 L1975.11 664.482 Q1987.63 664.482 1993.42 658.811 Q1999.25 653.14 1999.25 640.906 Q1999.25 628.754 1993.42 623.123 Q1987.63 617.451 1975.11 617.451 L1965.23 617.451 M1957.04 610.727 L1973.86 610.727 Q1991.44 610.727 1999.66 618.059 Q2007.88 625.351 2007.88 640.906 Q2007.88 656.543 1999.62 663.875 Q1991.35 671.207 1973.86 671.207 L1957.04 671.207 L1957.04 610.727 Z" fill="#000000" fill-rule="evenodd" fill-opacity="1" /><path clip-path="url(#clip140)" d="M 0 0 M2054.51 646.659 L2054.51 650.304 L2020.24 650.304 Q2020.72 658.001 2024.86 662.052 Q2029.03 666.062 2036.44 666.062 Q2040.74 666.062 2044.75 665.009 Q2048.8 663.956 2052.77 661.849 L2052.77 668.898 Q2048.76 670.599 2044.54 671.491 Q2040.33 672.382 2036 672.382 Q2025.14 672.382 2018.78 666.062 Q2012.46 659.743 2012.46 648.968 Q2012.46 637.828 2018.46 631.306 Q2024.49 624.743 2034.7 624.743 Q2043.85 624.743 2049.16 630.657 Q2054.51 636.531 2054.51 646.659 M2047.05 644.471 Q2046.97 638.354 2043.61 634.708 Q2040.29 631.063 2034.78 631.063 Q2028.54 631.063 2024.77 634.587 Q2021.05 638.111 2020.48 644.512 L2047.05 644.471 Z" fill="#000000" fill-rule="evenodd" fill-opacity="1" /><path clip-path="url(#clip140)" d="M 0 0 M2091.25 627.174 L2091.25 634.222 Q2088.09 632.602 2084.69 631.792 Q2081.28 630.982 2077.64 630.982 Q2072.09 630.982 2069.29 632.683 Q2066.54 634.384 2066.54 637.787 Q2066.54 640.38 2068.52 641.878 Q2070.51 643.337 2076.5 644.674 L2079.06 645.241 Q2087 646.942 2090.32 650.061 Q2093.68 653.14 2093.68 658.69 Q2093.68 665.009 2088.66 668.695 Q2083.68 672.382 2074.93 672.382 Q2071.28 672.382 2067.31 671.653 Q2063.38 670.964 2059.01 669.546 L2059.01 661.849 Q2063.14 663.996 2067.15 665.09 Q2071.16 666.143 2075.09 666.143 Q2080.35 666.143 2083.19 664.361 Q2086.02 662.538 2086.02 659.257 Q2086.02 656.219 2083.96 654.598 Q2081.93 652.978 2075.01 651.479 L2072.41 650.871 Q2065.49 649.413 2062.41 646.415 Q2059.33 643.377 2059.33 638.111 Q2059.33 631.711 2063.87 628.227 Q2068.4 624.743 2076.75 624.743 Q2080.88 624.743 2084.53 625.351 Q2088.17 625.958 2091.25 627.174 Z" fill="#000000" fill-rule="evenodd" fill-opacity="1" /><path clip-path="url(#clip140)" d="M 0 0 M2101.5 625.837 L2108.95 625.837 L2108.95 671.207 L2101.5 671.207 L2101.5 625.837 M2101.5 608.175 L2108.95 608.175 L2108.95 617.614 L2101.5 617.614 L2101.5 608.175 Z" fill="#000000" fill-rule="evenodd" fill-opacity="1" /><path clip-path="url(#clip140)" d="M 0 0 M2146.63 647.995 Q2146.63 639.894 2143.26 635.438 Q2139.94 630.982 2133.91 630.982 Q2127.91 630.982 2124.55 635.438 Q2121.23 639.894 2121.23 647.995 Q2121.23 656.057 2124.55 660.513 Q2127.91 664.969 2133.91 664.969 Q2139.94 664.969 2143.26 660.513 Q2146.63 656.057 2146.63 647.995 M2154.08 665.576 Q2154.08 677.162 2148.94 682.793 Q2143.79 688.464 2133.18 688.464 Q2129.25 688.464 2125.76 687.856 Q2122.28 687.289 2119 686.074 L2119 678.823 Q2122.28 680.605 2125.48 681.456 Q2128.68 682.306 2132 682.306 Q2139.33 682.306 2142.98 678.458 Q2146.63 674.65 2146.63 666.913 L2146.63 663.227 Q2144.32 667.237 2140.71 669.222 Q2137.11 671.207 2132.08 671.207 Q2123.74 671.207 2118.63 664.847 Q2113.53 658.487 2113.53 647.995 Q2113.53 637.463 2118.63 631.103 Q2123.74 624.743 2132.08 624.743 Q2137.11 624.743 2140.71 626.728 Q2144.32 628.713 2146.63 632.723 L2146.63 625.837 L2154.08 625.837 L2154.08 665.576 Z" fill="#000000" fill-rule="evenodd" fill-opacity="1" /><path clip-path="url(#clip140)" d="M 0 0 M2199.61 643.823 L2199.61 671.207 L2192.16 671.207 L2192.16 644.066 Q2192.16 637.625 2189.65 634.425 Q2187.14 631.225 2182.11 631.225 Q2176.08 631.225 2172.59 635.073 Q2169.11 638.921 2169.11 645.565 L2169.11 671.207 L2161.61 671.207 L2161.61 625.837 L2169.11 625.837 L2169.11 632.885 Q2171.78 628.794 2175.39 626.769 Q2179.03 624.743 2183.77 624.743 Q2191.59 624.743 2195.6 629.604 Q2199.61 634.425 2199.61 643.823 Z" fill="#000000" fill-rule="evenodd" fill-opacity="1" /><path clip-path="url(#clip140)" d="M 0 0 M2241.9 684.98 L2241.9 690.773 L2198.8 690.773 L2198.8 684.98 L2241.9 684.98 Z" fill="#000000" fill-rule="evenodd" fill-opacity="1" /><path clip-path="url(#clip140)" d="M 0 0 M2278.73 642.851 Q2281.36 643.742 2283.83 646.659 Q2286.34 649.575 2288.85 654.679 L2297.16 671.207 L2288.37 671.207 L2280.63 655.692 Q2277.63 649.616 2274.8 647.631 Q2272 645.646 2267.14 645.646 L2258.23 645.646 L2258.23 671.207 L2250.05 671.207 L2250.05 610.727 L2268.52 610.727 Q2278.89 610.727 2283.99 615.061 Q2289.1 619.396 2289.1 628.146 Q2289.1 633.858 2286.42 637.625 Q2283.79 641.392 2278.73 642.851 M2258.23 617.451 L2258.23 638.921 L2268.52 638.921 Q2274.43 638.921 2277.43 636.207 Q2280.47 633.453 2280.47 628.146 Q2280.47 622.839 2277.43 620.166 Q2274.43 617.451 2268.52 617.451 L2258.23 617.451 Z" fill="#000000" fill-rule="evenodd" fill-opacity="1" /><path clip-path="url(#clip140)" d="M 0 0 M2340.06 646.659 L2340.06 650.304 L2305.79 650.304 Q2306.27 658.001 2310.4 662.052 Q2314.58 666.062 2321.99 666.062 Q2326.28 666.062 2330.29 665.009 Q2334.34 663.956 2338.31 661.849 L2338.31 668.898 Q2334.3 670.599 2330.09 671.491 Q2325.88 672.382 2321.54 672.382 Q2310.69 672.382 2304.33 666.062 Q2298.01 659.743 2298.01 648.968 Q2298.01 637.828 2304 631.306 Q2310.04 624.743 2320.25 624.743 Q2329.4 624.743 2334.71 630.657 Q2340.06 636.531 2340.06 646.659 M2332.6 644.471 Q2332.52 638.354 2329.16 634.708 Q2325.84 631.063 2320.33 631.063 Q2314.09 631.063 2310.32 634.587 Q2306.6 638.111 2306.03 644.512 L2332.6 644.471 Z" fill="#000000" fill-rule="evenodd" fill-opacity="1" /><path clip-path="url(#clip140)" d="M 0 0 M2368.49 648.4 Q2359.46 648.4 2355.98 650.466 Q2352.49 652.532 2352.49 657.515 Q2352.49 661.485 2355.09 663.834 Q2357.72 666.143 2362.22 666.143 Q2368.41 666.143 2372.14 661.768 Q2375.91 657.353 2375.91 650.061 L2375.91 648.4 L2368.49 648.4 M2383.36 645.322 L2383.36 671.207 L2375.91 671.207 L2375.91 664.32 Q2373.36 668.452 2369.55 670.437 Q2365.74 672.382 2360.23 672.382 Q2353.26 672.382 2349.13 668.493 Q2345.04 664.564 2345.04 658.001 Q2345.04 650.345 2350.14 646.456 Q2355.29 642.567 2365.46 642.567 L2375.91 642.567 L2375.91 641.838 Q2375.91 636.693 2372.5 633.898 Q2369.14 631.063 2363.03 631.063 Q2359.14 631.063 2355.45 631.994 Q2351.76 632.926 2348.36 634.789 L2348.36 627.903 Q2352.45 626.323 2356.3 625.553 Q2360.15 624.743 2363.8 624.743 Q2373.64 624.743 2378.5 629.847 Q2383.36 634.951 2383.36 645.322 Z" fill="#000000" fill-rule="evenodd" fill-opacity="1" /><path clip-path="url(#clip140)" d="M 0 0 M2420.1 627.174 L2420.1 634.222 Q2416.94 632.602 2413.54 631.792 Q2410.14 630.982 2406.49 630.982 Q2400.94 630.982 2398.15 632.683 Q2395.39 634.384 2395.39 637.787 Q2395.39 640.38 2397.38 641.878 Q2399.36 643.337 2405.36 644.674 L2407.91 645.241 Q2415.85 646.942 2419.17 650.061 Q2422.53 653.14 2422.53 658.69 Q2422.53 665.009 2417.51 668.695 Q2412.53 672.382 2403.78 672.382 Q2400.13 672.382 2396.16 671.653 Q2392.23 670.964 2387.86 669.546 L2387.86 661.849 Q2391.99 663.996 2396 665.09 Q2400.01 666.143 2403.94 666.143 Q2409.21 666.143 2412.04 664.361 Q2414.88 662.538 2414.88 659.257 Q2414.88 656.219 2412.81 654.598 Q2410.79 652.978 2403.86 651.479 L2401.27 650.871 Q2394.34 649.413 2391.26 646.415 Q2388.18 643.377 2388.18 638.111 Q2388.18 631.711 2392.72 628.227 Q2397.26 624.743 2405.6 624.743 Q2409.73 624.743 2413.38 625.351 Q2417.02 625.958 2420.1 627.174 Z" fill="#000000" fill-rule="evenodd" fill-opacity="1" /><path clip-path="url(#clip140)" d="M 0 0 M2447.93 631.063 Q2441.94 631.063 2438.45 635.762 Q2434.97 640.42 2434.97 648.562 Q2434.97 656.705 2438.41 661.404 Q2441.9 666.062 2447.93 666.062 Q2453.89 666.062 2457.37 661.363 Q2460.85 656.664 2460.85 648.562 Q2460.85 640.501 2457.37 635.802 Q2453.89 631.063 2447.93 631.063 M2447.93 624.743 Q2457.65 624.743 2463.2 631.063 Q2468.75 637.382 2468.75 648.562 Q2468.75 659.702 2463.2 666.062 Q2457.65 672.382 2447.93 672.382 Q2438.17 672.382 2432.62 666.062 Q2427.11 659.702 2427.11 648.562 Q2427.11 637.382 2432.62 631.063 Q2438.17 624.743 2447.93 624.743 Z" fill="#000000" fill-rule="evenodd" fill-opacity="1" /><path clip-path="url(#clip140)" d="M 0 0 M2514.29 643.823 L2514.29 671.207 L2506.83 671.207 L2506.83 644.066 Q2506.83 637.625 2504.32 634.425 Q2501.81 631.225 2496.79 631.225 Q2490.75 631.225 2487.27 635.073 Q2483.78 638.921 2483.78 645.565 L2483.78 671.207 L2476.29 671.207 L2476.29 625.837 L2483.78 625.837 L2483.78 632.885 Q2486.46 628.794 2490.06 626.769 Q2493.71 624.743 2498.45 624.743 Q2506.27 624.743 2510.28 629.604 Q2514.29 634.425 2514.29 643.823 Z" fill="#000000" fill-rule="evenodd" fill-opacity="1" /><path clip-path="url(#clip140)" d="M 0 0 M2522.1 625.837 L2529.56 625.837 L2529.56 671.207 L2522.1 671.207 L2522.1 625.837 M2522.1 608.175 L2529.56 608.175 L2529.56 617.614 L2522.1 617.614 L2522.1 608.175 Z" fill="#000000" fill-rule="evenodd" fill-opacity="1" /><path clip-path="url(#clip140)" d="M 0 0 M2575.09 643.823 L2575.09 671.207 L2567.64 671.207 L2567.64 644.066 Q2567.64 637.625 2565.12 634.425 Q2562.61 631.225 2557.59 631.225 Q2551.55 631.225 2548.07 635.073 Q2544.59 638.921 2544.59 645.565 L2544.59 671.207 L2537.09 671.207 L2537.09 625.837 L2544.59 625.837 L2544.59 632.885 Q2547.26 628.794 2550.87 626.769 Q2554.51 624.743 2559.25 624.743 Q2567.07 624.743 2571.08 629.604 Q2575.09 634.425 2575.09 643.823 Z" fill="#000000" fill-rule="evenodd" fill-opacity="1" /><path clip-path="url(#clip140)" d="M 0 0 M2612.76 647.995 Q2612.76 639.894 2609.4 635.438 Q2606.08 630.982 2600.04 630.982 Q2594.05 630.982 2590.69 635.438 Q2587.36 639.894 2587.36 647.995 Q2587.36 656.057 2590.69 660.513 Q2594.05 664.969 2600.04 664.969 Q2606.08 664.969 2609.4 660.513 Q2612.76 656.057 2612.76 647.995 M2620.22 665.576 Q2620.22 677.162 2615.07 682.793 Q2609.93 688.464 2599.31 688.464 Q2595.39 688.464 2591.9 687.856 Q2588.42 687.289 2585.14 686.074 L2585.14 678.823 Q2588.42 680.605 2591.62 681.456 Q2594.82 682.306 2598.14 682.306 Q2605.47 682.306 2609.12 678.458 Q2612.76 674.65 2612.76 666.913 L2612.76 663.227 Q2610.45 667.237 2606.85 669.222 Q2603.24 671.207 2598.22 671.207 Q2589.88 671.207 2584.77 664.847 Q2579.67 658.487 2579.67 647.995 Q2579.67 637.463 2584.77 631.103 Q2589.88 624.743 2598.22 624.743 Q2603.24 624.743 2606.85 626.728 Q2610.45 628.713 2612.76 632.723 L2612.76 625.837 L2620.22 625.837 L2620.22 665.576 Z" fill="#000000" fill-rule="evenodd" fill-opacity="1" /><path clip-path="url(#clip140)" d="M 0 0 M-39.194 1453.72 L-39.194 1462.34 Q-43.3259 1458.5 -48.0249 1456.59 Q-52.6835 1454.69 -57.9497 1454.69 Q-68.32 1454.69 -73.8292 1461.05 Q-79.3384 1467.37 -79.3384 1479.36 Q-79.3384 1491.31 -73.8292 1497.67 Q-68.32 1503.99 -57.9497 1503.99 Q-52.6835 1503.99 -48.0249 1502.08 Q-43.3259 1500.18 -39.194 1496.33 L-39.194 1504.88 Q-43.4879 1507.8 -48.3085 1509.25 Q-53.0886 1510.71 -58.4358 1510.71 Q-72.1683 1510.71 -80.0676 1502.33 Q-87.9669 1493.9 -87.9669 1479.36 Q-87.9669 1464.78 -80.0676 1456.39 Q-72.1683 1447.96 -58.4358 1447.96 Q-53.0075 1447.96 -48.2275 1449.42 Q-43.4069 1450.84 -39.194 1453.72 Z" fill="#000000" fill-rule="evenodd" fill-opacity="1" /><path clip-path="url(#clip140)" d="M 0 0 M-13.7948 1469.39 Q-19.7901 1469.39 -23.2739 1474.09 Q-26.7577 1478.75 -26.7577 1486.89 Q-26.7577 1495.04 -23.3144 1499.73 Q-19.8306 1504.39 -13.7948 1504.39 Q-7.83997 1504.39 -4.35619 1499.69 Q-0.87241 1494.99 -0.87241 1486.89 Q-0.87241 1478.83 -4.35619 1474.13 Q-7.83997 1469.39 -13.7948 1469.39 M-13.7948 1463.07 Q-4.07262 1463.07 1.47711 1469.39 Q7.02685 1475.71 7.02685 1486.89 Q7.02685 1498.03 1.47711 1504.39 Q-4.07262 1510.71 -13.7948 1510.71 Q-23.5575 1510.71 -29.1072 1504.39 Q-34.6164 1498.03 -34.6164 1486.89 Q-34.6164 1475.71 -29.1072 1469.39 Q-23.5575 1463.07 -13.7948 1463.07 Z" fill="#000000" fill-rule="evenodd" fill-opacity="1" /><path clip-path="url(#clip140)" d="M 0 0 M14.8451 1446.51 L22.2988 1446.51 L22.2988 1509.54 L14.8451 1509.54 L14.8451 1446.51 Z" fill="#000000" fill-rule="evenodd" fill-opacity="1" /><path clip-path="url(#clip140)" d="M 0 0 M30.117 1446.51 L37.5707 1446.51 L37.5707 1509.54 L30.117 1509.54 L30.117 1446.51 Z" fill="#000000" fill-rule="evenodd" fill-opacity="1" /><path clip-path="url(#clip140)" d="M 0 0 M66.008 1486.73 Q56.9745 1486.73 53.4907 1488.8 Q50.0069 1490.86 50.0069 1495.85 Q50.0069 1499.82 52.5995 1502.16 Q55.2326 1504.47 59.7291 1504.47 Q65.927 1504.47 69.6538 1500.1 Q73.4212 1495.68 73.4212 1488.39 L73.4212 1486.73 L66.008 1486.73 M80.8748 1483.65 L80.8748 1509.54 L73.4212 1509.54 L73.4212 1502.65 Q70.8691 1506.78 67.0613 1508.77 Q63.2534 1510.71 57.7442 1510.71 Q50.7766 1510.71 46.6447 1506.82 Q42.5533 1502.89 42.5533 1496.33 Q42.5533 1488.68 47.6574 1484.79 Q52.8021 1480.9 62.9698 1480.9 L73.4212 1480.9 L73.4212 1480.17 Q73.4212 1475.02 70.0184 1472.23 Q66.6562 1469.39 60.5393 1469.39 Q56.6504 1469.39 52.9641 1470.32 Q49.2778 1471.26 45.875 1473.12 L45.875 1466.23 Q49.9664 1464.65 53.8148 1463.88 Q57.6632 1463.07 61.309 1463.07 Q71.1527 1463.07 76.0138 1468.18 Q80.8748 1473.28 80.8748 1483.65 Z" fill="#000000" fill-rule="evenodd" fill-opacity="1" /><path clip-path="url(#clip140)" d="M 0 0 M121.262 1486.89 Q121.262 1478.67 117.86 1474.01 Q114.497 1469.31 108.583 1469.31 Q102.669 1469.31 99.2659 1474.01 Q95.9037 1478.67 95.9037 1486.89 Q95.9037 1495.12 99.2659 1499.82 Q102.669 1504.47 108.583 1504.47 Q114.497 1504.47 117.86 1499.82 Q121.262 1495.12 121.262 1486.89 M95.9037 1471.05 Q98.2532 1467 101.818 1465.06 Q105.423 1463.07 110.406 1463.07 Q118.67 1463.07 123.814 1469.64 Q129 1476.2 129 1486.89 Q129 1497.59 123.814 1504.15 Q118.67 1510.71 110.406 1510.71 Q105.423 1510.71 101.818 1508.77 Q98.2532 1506.78 95.9037 1502.73 L95.9037 1509.54 L88.4095 1509.54 L88.4095 1446.51 L95.9037 1446.51 L95.9037 1471.05 Z" fill="#000000" fill-rule="evenodd" fill-opacity="1" /><path clip-path="url(#clip140)" d="M 0 0 M154.399 1469.39 Q148.403 1469.39 144.92 1474.09 Q141.436 1478.75 141.436 1486.89 Q141.436 1495.04 144.879 1499.73 Q148.363 1504.39 154.399 1504.39 Q160.354 1504.39 163.837 1499.69 Q167.321 1494.99 167.321 1486.89 Q167.321 1478.83 163.837 1474.13 Q160.354 1469.39 154.399 1469.39 M154.399 1463.07 Q164.121 1463.07 169.671 1469.39 Q175.22 1475.71 175.22 1486.89 Q175.22 1498.03 169.671 1504.39 Q164.121 1510.71 154.399 1510.71 Q144.636 1510.71 139.086 1504.39 Q133.577 1498.03 133.577 1486.89 Q133.577 1475.71 139.086 1469.39 Q144.636 1463.07 154.399 1463.07 Z" fill="#000000" fill-rule="evenodd" fill-opacity="1" /><path clip-path="url(#clip140)" d="M 0 0 M209.329 1471.14 Q208.073 1470.41 206.574 1470.08 Q205.116 1469.72 203.334 1469.72 Q197.014 1469.72 193.612 1473.85 Q190.249 1477.94 190.249 1485.64 L190.249 1509.54 L182.755 1509.54 L182.755 1464.17 L190.249 1464.17 L190.249 1471.22 Q192.599 1467.08 196.366 1465.1 Q200.133 1463.07 205.521 1463.07 Q206.291 1463.07 207.223 1463.2 Q208.154 1463.28 209.289 1463.48 L209.329 1471.14 Z" fill="#000000" fill-rule="evenodd" fill-opacity="1" /><path clip-path="url(#clip140)" d="M 0 0 M237.766 1486.73 Q228.733 1486.73 225.249 1488.8 Q221.765 1490.86 221.765 1495.85 Q221.765 1499.82 224.358 1502.16 Q226.991 1504.47 231.487 1504.47 Q237.685 1504.47 241.412 1500.1 Q245.18 1495.68 245.18 1488.39 L245.18 1486.73 L237.766 1486.73 M252.633 1483.65 L252.633 1509.54 L245.18 1509.54 L245.18 1502.65 Q242.627 1506.78 238.82 1508.77 Q235.012 1510.71 229.503 1510.71 Q222.535 1510.71 218.403 1506.82 Q214.312 1502.89 214.312 1496.33 Q214.312 1488.68 219.416 1484.79 Q224.56 1480.9 234.728 1480.9 L245.18 1480.9 L245.18 1480.17 Q245.18 1475.02 241.777 1472.23 Q238.415 1469.39 232.298 1469.39 Q228.409 1469.39 224.722 1470.32 Q221.036 1471.26 217.633 1473.12 L217.633 1466.23 Q221.725 1464.65 225.573 1463.88 Q229.421 1463.07 233.067 1463.07 Q242.911 1463.07 247.772 1468.18 Q252.633 1473.28 252.633 1483.65 Z" fill="#000000" fill-rule="evenodd" fill-opacity="1" /><path clip-path="url(#clip140)" d="M 0 0 M267.824 1451.29 L267.824 1464.17 L283.177 1464.17 L283.177 1469.96 L267.824 1469.96 L267.824 1494.59 Q267.824 1500.14 269.323 1501.72 Q270.862 1503.3 275.521 1503.3 L283.177 1503.3 L283.177 1509.54 L275.521 1509.54 Q266.892 1509.54 263.611 1506.34 Q260.33 1503.1 260.33 1494.59 L260.33 1469.96 L254.861 1469.96 L254.861 1464.17 L260.33 1464.17 L260.33 1451.29 L267.824 1451.29 Z" fill="#000000" fill-rule="evenodd" fill-opacity="1" /><path clip-path="url(#clip140)" d="M 0 0 M290.995 1464.17 L298.449 1464.17 L298.449 1509.54 L290.995 1509.54 L290.995 1464.17 M290.995 1446.51 L298.449 1446.51 L298.449 1455.94 L290.995 1455.94 L290.995 1446.51 Z" fill="#000000" fill-rule="evenodd" fill-opacity="1" /><path clip-path="url(#clip140)" d="M 0 0 M323.848 1469.39 Q317.853 1469.39 314.369 1474.09 Q310.885 1478.75 310.885 1486.89 Q310.885 1495.04 314.328 1499.73 Q317.812 1504.39 323.848 1504.39 Q329.803 1504.39 333.287 1499.69 Q336.77 1494.99 336.77 1486.89 Q336.77 1478.83 333.287 1474.13 Q329.803 1469.39 323.848 1469.39 M323.848 1463.07 Q333.57 1463.07 339.12 1469.39 Q344.67 1475.71 344.67 1486.89 Q344.67 1498.03 339.12 1504.39 Q333.57 1510.71 323.848 1510.71 Q314.085 1510.71 308.536 1504.39 Q303.026 1498.03 303.026 1486.89 Q303.026 1475.71 308.536 1469.39 Q314.085 1463.07 323.848 1463.07 Z" fill="#000000" fill-rule="evenodd" fill-opacity="1" /><path clip-path="url(#clip140)" d="M 0 0 M390.202 1482.15 L390.202 1509.54 L382.748 1509.54 L382.748 1482.4 Q382.748 1475.96 380.237 1472.76 Q377.725 1469.56 372.702 1469.56 Q366.666 1469.56 363.182 1473.4 Q359.699 1477.25 359.699 1483.9 L359.699 1509.54 L352.204 1509.54 L352.204 1464.17 L359.699 1464.17 L359.699 1471.22 Q362.372 1467.12 365.977 1465.1 Q369.623 1463.07 374.363 1463.07 Q382.181 1463.07 386.191 1467.93 Q390.202 1472.76 390.202 1482.15 Z" fill="#000000" fill-rule="evenodd" fill-opacity="1" /><path clip-path="url(#clip142)" d="M1447.24 875.46 L1415.24 875.46 L1431.24 907.46 L1447.24 875.46 Z" fill="#800080" fill-rule="evenodd" fill-opacity="1" stroke="none"/>
<polyline clip-path="url(#clip142)" style="stroke:#800080; stroke-width:4; stroke-opacity:1; fill:none" stroke-dasharray="16, 10" points="
  1385.72,940.975 1476.76,940.975 
  "/>
<polyline clip-path="url(#clip142)" style="stroke:#800080; stroke-width:4; stroke-opacity:1; fill:none" stroke-dasharray="16, 10" points="
  1385.72,841.945 1476.76,841.945 
  "/>
<polyline clip-path="url(#clip142)" style="stroke:#800080; stroke-width:4; stroke-opacity:1; fill:none" stroke-dasharray="16, 10" points="
  1385.72,940.975 1385.72,841.945 
  "/>
<polyline clip-path="url(#clip142)" style="stroke:#800080; stroke-width:4; stroke-opacity:1; fill:none" stroke-dasharray="16, 10" points="
  1476.76,940.975 1476.76,841.945 
  "/>
<path clip-path="url(#clip142)" d="M1404.66 848.727 L1388.66 880.727 L1420.66 880.727 L1404.66 848.727 Z" fill="#800080" fill-rule="evenodd" fill-opacity="1" stroke="none"/>
<polyline clip-path="url(#clip142)" style="stroke:#800080; stroke-width:4; stroke-opacity:1; fill:none" stroke-dasharray="16, 10" points="
  1359.57,890.009 1449.76,890.009 
  "/>
<polyline clip-path="url(#clip142)" style="stroke:#800080; stroke-width:4; stroke-opacity:1; fill:none" stroke-dasharray="16, 10" points="
  1359.57,839.446 1449.76,839.446 
  "/>
<polyline clip-path="url(#clip142)" style="stroke:#800080; stroke-width:4; stroke-opacity:1; fill:none" stroke-dasharray="16, 10" points="
  1359.57,890.009 1359.57,839.446 
  "/>
<polyline clip-path="url(#clip142)" style="stroke:#800080; stroke-width:4; stroke-opacity:1; fill:none" stroke-dasharray="16, 10" points="
  1449.76,890.009 1449.76,839.446 
  "/>
<path clip-path="url(#clip142)" d="M1564 810.946 L1532 810.946 L1548 842.946 L1564 810.946 Z" fill="#ffa500" fill-rule="evenodd" fill-opacity="1" stroke="none"/>
<polyline clip-path="url(#clip142)" style="stroke:#ffa500; stroke-width:4; stroke-opacity:1; fill:none" stroke-dasharray="16, 10" points="
  1516.57,852.128 1579.43,852.128 
  "/>
<polyline clip-path="url(#clip142)" style="stroke:#ffa500; stroke-width:4; stroke-opacity:1; fill:none" stroke-dasharray="16, 10" points="
  1516.57,801.764 1579.43,801.764 
  "/>
<polyline clip-path="url(#clip142)" style="stroke:#ffa500; stroke-width:4; stroke-opacity:1; fill:none" stroke-dasharray="16, 10" points="
  1516.57,852.128 1516.57,801.764 
  "/>
<polyline clip-path="url(#clip142)" style="stroke:#ffa500; stroke-width:4; stroke-opacity:1; fill:none" stroke-dasharray="16, 10" points="
  1579.43,852.128 1579.43,801.764 
  "/>
<path clip-path="url(#clip142)" d="M1555.28 910.848 L1539.28 942.848 L1571.28 942.848 L1555.28 910.848 Z" fill="#ffa500" fill-rule="evenodd" fill-opacity="1" stroke="none"/>
<polyline clip-path="url(#clip142)" style="stroke:#ffa500; stroke-width:4; stroke-opacity:1; fill:none" stroke-dasharray="16, 10" points="
  1500.84,955.254 1609.72,955.254 
  "/>
<polyline clip-path="url(#clip142)" style="stroke:#ffa500; stroke-width:4; stroke-opacity:1; fill:none" stroke-dasharray="16, 10" points="
  1500.84,898.443 1609.72,898.443 
  "/>
<polyline clip-path="url(#clip142)" style="stroke:#ffa500; stroke-width:4; stroke-opacity:1; fill:none" stroke-dasharray="16, 10" points="
  1500.84,955.254 1500.84,898.443 
  "/>
<polyline clip-path="url(#clip142)" style="stroke:#ffa500; stroke-width:4; stroke-opacity:1; fill:none" stroke-dasharray="16, 10" points="
  1609.72,955.254 1609.72,898.443 
  "/>
<path clip-path="url(#clip142)" d="M1401.95 862.094 L1401.95 894.094 L1433.95 894.094 L1433.95 862.094 L1401.95 862.094 Z" fill="#800080" fill-rule="evenodd" fill-opacity="1" stroke="none"/>
<polyline clip-path="url(#clip142)" style="stroke:#800080; stroke-width:4; stroke-opacity:1; fill:none" stroke-dasharray="16, 10" points="
  1386.81,905.185 1449.1,905.185 
  "/>
<polyline clip-path="url(#clip142)" style="stroke:#800080; stroke-width:4; stroke-opacity:1; fill:none" stroke-dasharray="16, 10" points="
  1386.81,851.002 1449.1,851.002 
  "/>
<polyline clip-path="url(#clip142)" style="stroke:#800080; stroke-width:4; stroke-opacity:1; fill:none" stroke-dasharray="16, 10" points="
  1386.81,905.185 1386.81,851.002 
  "/>
<polyline clip-path="url(#clip142)" style="stroke:#800080; stroke-width:4; stroke-opacity:1; fill:none" stroke-dasharray="16, 10" points="
  1449.1,905.185 1449.1,851.002 
  "/>
<path clip-path="url(#clip142)" d="M1535.64 860.897 L1535.64 892.897 L1567.64 892.897 L1567.64 860.897 L1535.64 860.897 Z" fill="#ffa500" fill-rule="evenodd" fill-opacity="1" stroke="none"/>
<polyline clip-path="url(#clip142)" style="stroke:#ffa500; stroke-width:4; stroke-opacity:1; fill:none" stroke-dasharray="16, 10" points="
  1521.5,900.707 1581.78,900.707 
  "/>
<polyline clip-path="url(#clip142)" style="stroke:#ffa500; stroke-width:4; stroke-opacity:1; fill:none" stroke-dasharray="16, 10" points="
  1521.5,853.088 1581.78,853.088 
  "/>
<polyline clip-path="url(#clip142)" style="stroke:#ffa500; stroke-width:4; stroke-opacity:1; fill:none" stroke-dasharray="16, 10" points="
  1521.5,900.707 1521.5,853.088 
  "/>
<polyline clip-path="url(#clip142)" style="stroke:#ffa500; stroke-width:4; stroke-opacity:1; fill:none" stroke-dasharray="16, 10" points="
  1581.78,900.707 1581.78,853.088 
  "/>
</svg>
