<?xml version="1.0" encoding="utf-8"?>
<svg xmlns="http://www.w3.org/2000/svg" xmlns:xlink="http://www.w3.org/1999/xlink" width="500" height="500" viewBox="0 0 2000 2000">
<defs>
  <clipPath id="clip900">
    <rect x="0" y="0" width="2000" height="2000"/>
  </clipPath>
</defs>
<path clip-path="url(#clip900)" d="
M0 2000 L2000 2000 L2000 0 L0 0  Z
  " fill="#ffffff" fill-rule="evenodd" fill-opacity="1"/>
<defs>
  <clipPath id="clip901">
    <rect x="400" y="200" width="1401" height="1401"/>
  </clipPath>
</defs>
<path clip-path="url(#clip900)" d="
M240.472 1759.53 L1811.02 1759.53 L1811.02 188.976 L240.472 188.976  Z
  " fill="#ffffff" fill-rule="evenodd" fill-opacity="1"/>
<defs>
  <clipPath id="clip902">
    <rect x="240" y="188" width="1572" height="1572"/>
  </clipPath>
</defs>
<polyline clip-path="url(#clip902)" style="stroke:#000000; stroke-width:2; stroke-opacity:0.1; fill:none" points="
  240.472,1759.53 240.472,188.976 
  "/>
<polyline clip-path="url(#clip902)" style="stroke:#000000; stroke-width:2; stroke-opacity:0.1; fill:none" points="
  1025.75,1759.53 1025.75,188.976 
  "/>
<polyline clip-path="url(#clip902)" style="stroke:#000000; stroke-width:2; stroke-opacity:0.1; fill:none" points="
  1811.02,1759.53 1811.02,188.976 
  "/>
<polyline clip-path="url(#clip902)" style="stroke:#000000; stroke-width:2; stroke-opacity:0.1; fill:none" points="
  240.472,1759.53 1811.02,1759.53 
  "/>
<polyline clip-path="url(#clip902)" style="stroke:#000000; stroke-width:2; stroke-opacity:0.1; fill:none" points="
  240.472,974.252 1811.02,974.252 
  "/>
<polyline clip-path="url(#clip902)" style="stroke:#000000; stroke-width:2; stroke-opacity:0.1; fill:none" points="
  240.472,188.976 1811.02,188.976 
  "/>
<polyline clip-path="url(#clip900)" style="stroke:#000000; stroke-width:4; stroke-opacity:1; fill:none" points="
  240.472,1759.53 1811.02,1759.53 
  "/>
<polyline clip-path="url(#clip900)" style="stroke:#000000; stroke-width:4; stroke-opacity:1; fill:none" points="
  240.472,1759.53 240.472,188.976 
  "/>
<polyline clip-path="url(#clip900)" style="stroke:#000000; stroke-width:4; stroke-opacity:1; fill:none" points="
  240.472,1759.53 240.472,1740.68 
  "/>
<polyline clip-path="url(#clip900)" style="stroke:#000000; stroke-width:4; stroke-opacity:1; fill:none" points="
  1025.75,1759.53 1025.75,1740.68 
  "/>
<polyline clip-path="url(#clip900)" style="stroke:#000000; stroke-width:4; stroke-opacity:1; fill:none" points="
  1811.02,1759.53 1811.02,1740.68 
  "/>
<polyline clip-path="url(#clip900)" style="stroke:#000000; stroke-width:4; stroke-opacity:1; fill:none" points="
  240.472,1759.53 259.319,1759.53 
  "/>
<polyline clip-path="url(#clip900)" style="stroke:#000000; stroke-width:4; stroke-opacity:1; fill:none" points="
  240.472,974.252 259.319,974.252 
  "/>
<polyline clip-path="url(#clip900)" style="stroke:#000000; stroke-width:4; stroke-opacity:1; fill:none" points="
  240.472,188.976 259.319,188.976 
  "/>
<path clip-path="url(#clip900)" d="M 0 0 M221.341 1796.12 L233.817 1796.12 L233.817 1799.91 L221.341 1799.91 L221.341 1796.12 Z" fill="#000000" fill-rule="evenodd" fill-opacity="1" /><path clip-path="url(#clip900)" d="M 0 0 M239.697 1807.06 L247.336 1807.06 L247.336 1780.7 L239.026 1782.37 L239.026 1778.11 L247.29 1776.44 L251.965 1776.44 L251.965 1807.06 L259.604 1807.06 L259.604 1811 L239.697 1811 L239.697 1807.06 Z" fill="#000000" fill-rule="evenodd" fill-opacity="1" /><path clip-path="url(#clip900)" d="M 0 0 M1025.75 1779.52 Q1022.14 1779.52 1020.31 1783.08 Q1018.5 1786.62 1018.5 1793.75 Q1018.5 1800.86 1020.31 1804.43 Q1022.14 1807.97 1025.75 1807.97 Q1029.38 1807.97 1031.19 1804.43 Q1033.02 1800.86 1033.02 1793.75 Q1033.02 1786.62 1031.19 1783.08 Q1029.38 1779.52 1025.75 1779.52 M1025.75 1775.81 Q1031.56 1775.81 1034.61 1780.42 Q1037.69 1785 1037.69 1793.75 Q1037.69 1802.48 1034.61 1807.09 Q1031.56 1811.67 1025.75 1811.67 Q1019.94 1811.67 1016.86 1807.09 Q1013.8 1802.48 1013.8 1793.75 Q1013.8 1785 1016.86 1780.42 Q1019.94 1775.81 1025.75 1775.81 Z" fill="#000000" fill-rule="evenodd" fill-opacity="1" /><path clip-path="url(#clip900)" d="M 0 0 M1801.41 1807.06 L1809.04 1807.06 L1809.04 1780.7 L1800.73 1782.37 L1800.73 1778.11 L1809 1776.44 L1813.67 1776.44 L1813.67 1807.06 L1821.31 1807.06 L1821.31 1811 L1801.41 1811 L1801.41 1807.06 Z" fill="#000000" fill-rule="evenodd" fill-opacity="1" /><path clip-path="url(#clip900)" d="M 0 0 M182.209 1761.92 L194.686 1761.92 L194.686 1765.72 L182.209 1765.72 L182.209 1761.92 Z" fill="#000000" fill-rule="evenodd" fill-opacity="1" /><path clip-path="url(#clip900)" d="M 0 0 M200.565 1772.87 L208.204 1772.87 L208.204 1746.51 L199.894 1748.17 L199.894 1743.91 L208.158 1742.25 L212.834 1742.25 L212.834 1772.87 L220.472 1772.87 L220.472 1776.81 L200.565 1776.81 L200.565 1772.87 Z" fill="#000000" fill-rule="evenodd" fill-opacity="1" /><path clip-path="url(#clip900)" d="M 0 0 M208.528 960.051 Q204.917 960.051 203.088 963.615 Q201.283 967.157 201.283 974.287 Q201.283 981.393 203.088 984.958 Q204.917 988.5 208.528 988.5 Q212.162 988.5 213.968 984.958 Q215.797 981.393 215.797 974.287 Q215.797 967.157 213.968 963.615 Q212.162 960.051 208.528 960.051 M208.528 956.347 Q214.338 956.347 217.394 960.953 Q220.472 965.537 220.472 974.287 Q220.472 983.013 217.394 987.62 Q214.338 992.203 208.528 992.203 Q202.718 992.203 199.639 987.62 Q196.584 983.013 196.584 974.287 Q196.584 965.537 199.639 960.953 Q202.718 956.347 208.528 956.347 Z" fill="#000000" fill-rule="evenodd" fill-opacity="1" /><path clip-path="url(#clip900)" d="M 0 0 M200.565 202.321 L208.204 202.321 L208.204 175.956 L199.894 177.622 L199.894 173.363 L208.158 171.696 L212.834 171.696 L212.834 202.321 L220.472 202.321 L220.472 206.256 L200.565 206.256 L200.565 202.321 Z" fill="#000000" fill-rule="evenodd" fill-opacity="1" /><path clip-path="url(#clip900)" d="M 0 0 M912.82 1840.87 L919.727 1840.87 L931.536 1858.54 L943.408 1840.87 L950.314 1840.87 L935.037 1863.69 L951.333 1888.39 L944.426 1888.39 L931.058 1868.18 L917.595 1888.39 L910.656 1888.39 L927.621 1863.02 L912.82 1840.87 Z" fill="#000000" fill-rule="evenodd" fill-opacity="1" /><path clip-path="url(#clip900)" d="M 0 0 M992.264 1838.93 Q987.999 1846.25 985.931 1853.41 Q983.862 1860.57 983.862 1867.93 Q983.862 1875.28 985.931 1882.5 Q988.031 1889.7 992.264 1896.99 L987.172 1896.99 Q982.398 1889.51 980.01 1882.28 Q977.655 1875.06 977.655 1867.93 Q977.655 1860.83 980.01 1853.63 Q982.366 1846.44 987.172 1838.93 L992.264 1838.93 Z" fill="#000000" fill-rule="evenodd" fill-opacity="1" /><path clip-path="url(#clip900)" d="M 0 0 M1004.77 1882.98 L1027.21 1882.98 L1027.21 1888.39 L997.039 1888.39 L997.039 1882.98 Q1000.7 1879.19 1007 1872.83 Q1013.33 1866.43 1014.96 1864.58 Q1018.05 1861.11 1019.26 1858.73 Q1020.5 1856.31 1020.5 1853.98 Q1020.5 1850.2 1017.82 1847.81 Q1015.18 1845.42 1010.92 1845.42 Q1007.89 1845.42 1004.52 1846.47 Q1001.18 1847.52 997.357 1849.66 L997.357 1843.16 Q1001.24 1841.6 1004.61 1840.81 Q1007.99 1840.01 1010.79 1840.01 Q1018.17 1840.01 1022.57 1843.7 Q1026.96 1847.4 1026.96 1853.57 Q1026.96 1856.5 1025.84 1859.14 Q1024.76 1861.75 1021.86 1865.32 Q1021.07 1866.24 1016.8 1870.66 Q1012.54 1875.06 1004.77 1882.98 Z" fill="#000000" fill-rule="evenodd" fill-opacity="1" /><path clip-path="url(#clip900)" d="M 0 0 M1035.3 1882.98 L1045.8 1882.98 L1045.8 1846.73 L1034.37 1849.02 L1034.37 1843.16 L1045.74 1840.87 L1052.17 1840.87 L1052.17 1882.98 L1062.67 1882.98 L1062.67 1888.39 L1035.3 1888.39 L1035.3 1882.98 Z" fill="#000000" fill-rule="evenodd" fill-opacity="1" /><path clip-path="url(#clip900)" d="M 0 0 M1110.06 1867.48 Q1107.29 1867.48 1105.7 1869.84 Q1104.14 1872.19 1104.14 1876.39 Q1104.14 1880.53 1105.7 1882.92 Q1107.29 1885.27 1110.06 1885.27 Q1112.77 1885.27 1114.33 1882.92 Q1115.92 1880.53 1115.92 1876.39 Q1115.92 1872.22 1114.33 1869.87 Q1112.77 1867.48 1110.06 1867.48 M1110.06 1863.44 Q1115.09 1863.44 1118.05 1866.94 Q1121.01 1870.44 1121.01 1876.39 Q1121.01 1882.34 1118.02 1885.85 Q1115.06 1889.31 1110.06 1889.31 Q1104.97 1889.31 1102.01 1885.85 Q1099.05 1882.34 1099.05 1876.39 Q1099.05 1870.41 1102.01 1866.94 Q1105 1863.44 1110.06 1863.44 M1077.21 1844.05 Q1074.48 1844.05 1072.89 1846.44 Q1071.33 1848.8 1071.33 1852.93 Q1071.33 1857.14 1072.89 1859.49 Q1074.45 1861.85 1077.21 1861.85 Q1079.98 1861.85 1081.54 1859.49 Q1083.13 1857.14 1083.13 1852.93 Q1083.13 1848.83 1081.54 1846.44 Q1079.95 1844.05 1077.21 1844.05 M1105.96 1840.01 L1111.05 1840.01 L1081.32 1889.31 L1076.23 1889.31 L1105.96 1840.01 M1077.21 1840.01 Q1082.24 1840.01 1085.24 1843.51 Q1088.23 1846.98 1088.23 1852.93 Q1088.23 1858.95 1085.24 1862.42 Q1082.28 1865.89 1077.21 1865.89 Q1072.15 1865.89 1069.19 1862.42 Q1066.27 1858.92 1066.27 1852.93 Q1066.27 1847.01 1069.23 1843.51 Q1072.19 1840.01 1077.21 1840.01 Z" fill="#000000" fill-rule="evenodd" fill-opacity="1" /><path clip-path="url(#clip900)" d="M 0 0 M1126.23 1838.93 L1131.32 1838.93 Q1136.1 1846.44 1138.45 1853.63 Q1140.84 1860.83 1140.84 1867.93 Q1140.84 1875.06 1138.45 1882.28 Q1136.1 1889.51 1131.32 1896.99 L1126.23 1896.99 Q1130.46 1889.7 1132.53 1882.5 Q1134.63 1875.28 1134.63 1867.93 Q1134.63 1860.57 1132.53 1853.41 Q1130.46 1846.25 1126.23 1838.93 Z" fill="#000000" fill-rule="evenodd" fill-opacity="1" /><path clip-path="url(#clip900)" d="M 0 0 M100.433 1089.69 L100.433 1082.79 L119.975 1069.61 L100.433 1056.53 L100.433 1049.62 L125.323 1066.43 L147.953 1066.43 L147.953 1072.89 L125.323 1072.89 L100.433 1089.69 Z" fill="#000000" fill-rule="evenodd" fill-opacity="1" /><path clip-path="url(#clip900)" d="M 0 0 M98.4912 1008.69 Q105.812 1012.96 112.973 1015.02 Q120.135 1017.09 127.487 1017.09 Q134.839 1017.09 142.064 1015.02 Q149.258 1012.92 156.546 1008.69 L156.546 1013.78 Q149.067 1018.56 141.842 1020.94 Q134.617 1023.3 127.487 1023.3 Q120.389 1023.3 113.196 1020.94 Q106.003 1018.59 98.4912 1013.78 L98.4912 1008.69 Z" fill="#000000" fill-rule="evenodd" fill-opacity="1" /><path clip-path="url(#clip900)" d="M 0 0 M142.542 1000.61 L142.542 990.103 L106.289 990.103 L108.581 1001.53 L102.724 1001.53 L100.433 990.166 L100.433 983.737 L142.542 983.737 L142.542 973.233 L147.953 973.233 L147.953 1000.61 L142.542 1000.61 Z" fill="#000000" fill-rule="evenodd" fill-opacity="1" /><path clip-path="url(#clip900)" d="M 0 0 M122.331 946.784 Q123.317 942.169 126.437 939.591 Q129.556 936.981 134.139 936.981 Q141.173 936.981 145.025 941.819 Q148.876 946.657 148.876 955.569 Q148.876 958.561 148.271 961.743 Q147.698 964.894 146.52 968.268 L140.314 968.268 Q141.874 965.595 142.669 962.412 Q143.465 959.229 143.465 955.76 Q143.465 949.712 141.078 946.561 Q138.691 943.378 134.139 943.378 Q129.938 943.378 127.582 946.338 Q125.195 949.267 125.195 954.518 L125.195 960.056 L119.912 960.056 L119.912 954.264 Q119.912 949.521 118.034 947.007 Q116.124 944.492 112.559 944.492 Q108.899 944.492 106.958 947.102 Q104.984 949.68 104.984 954.518 Q104.984 957.16 105.557 960.184 Q106.13 963.207 107.34 966.836 L101.61 966.836 Q100.592 963.176 100.083 959.993 Q99.5734 956.778 99.5734 953.945 Q99.5734 946.625 102.915 942.36 Q106.226 938.095 111.891 938.095 Q115.838 938.095 118.575 940.355 Q121.28 942.614 122.331 946.784 Z" fill="#000000" fill-rule="evenodd" fill-opacity="1" /><path clip-path="url(#clip900)" d="M 0 0 M127.041 889.588 Q127.041 892.357 129.397 893.949 Q131.752 895.508 135.953 895.508 Q140.091 895.508 142.478 893.949 Q144.834 892.357 144.834 889.588 Q144.834 886.883 142.478 885.323 Q140.091 883.732 135.953 883.732 Q131.784 883.732 129.429 885.323 Q127.041 886.883 127.041 889.588 M122.999 889.588 Q122.999 884.559 126.5 881.599 Q130.001 878.639 135.953 878.639 Q141.905 878.639 145.406 881.631 Q148.876 884.591 148.876 889.588 Q148.876 894.681 145.406 897.641 Q141.905 900.601 135.953 900.601 Q129.97 900.601 126.5 897.641 Q122.999 894.649 122.999 889.588 M103.616 922.435 Q103.616 925.172 106.003 926.764 Q108.358 928.323 112.496 928.323 Q116.697 928.323 119.052 926.764 Q121.408 925.204 121.408 922.435 Q121.408 919.666 119.052 918.106 Q116.697 916.515 112.496 916.515 Q108.39 916.515 106.003 918.106 Q103.616 919.698 103.616 922.435 M99.5734 893.694 L99.5734 888.601 L148.876 918.329 L148.876 923.422 L99.5734 893.694 M99.5734 922.435 Q99.5734 917.406 103.075 914.414 Q106.544 911.422 112.496 911.422 Q118.511 911.422 121.981 914.414 Q125.45 917.374 125.45 922.435 Q125.45 927.496 121.981 930.456 Q118.48 933.384 112.496 933.384 Q106.576 933.384 103.075 930.424 Q99.5734 927.464 99.5734 922.435 Z" fill="#000000" fill-rule="evenodd" fill-opacity="1" /><path clip-path="url(#clip900)" d="M 0 0 M98.4912 873.419 L98.4912 868.327 Q106.003 863.552 113.196 861.197 Q120.389 858.81 127.487 858.81 Q134.617 858.81 141.842 861.197 Q149.067 863.552 156.546 868.327 L156.546 873.419 Q149.258 869.186 142.064 867.117 Q134.839 865.016 127.487 865.016 Q120.135 865.016 112.973 867.117 Q105.812 869.186 98.4912 873.419 Z" fill="#000000" fill-rule="evenodd" fill-opacity="1" /><polyline clip-path="url(#clip902)" style="stroke:#800080; stroke-width:6.34319; stroke-opacity:1; fill:none" points="
  794.664,975.594 1415.81,377.72 
  "/>
<polyline clip-path="url(#clip902)" style="stroke:#0000ff; stroke-width:1.41694; stroke-opacity:1; fill:none" points="
  887.616,1284.9 1060.88,751.317 
  "/>
<polyline clip-path="url(#clip902)" style="stroke:#ffa500; stroke-width:0.534044; stroke-opacity:1; fill:none" points="
  390.19,816.4 887.616,1284.9 
  "/>
<polyline clip-path="url(#clip902)" style="stroke:#0000ff; stroke-width:3.96424; stroke-opacity:1; fill:none" points="
  390.19,816.4 1381.12,1231.33 
  "/>
<polyline clip-path="url(#clip902)" style="stroke:#ffa500; stroke-width:5.72724; stroke-opacity:1; fill:none" points="
  1060.88,751.317 1415.81,377.72 
  "/>
<polyline clip-path="url(#clip902)" style="stroke:#0000ff; stroke-width:2.45247; stroke-opacity:1; fill:none" points="
  390.19,816.4 1060.88,751.317 
  "/>
<polyline clip-path="url(#clip902)" style="stroke:#ffa500; stroke-width:2.14813; stroke-opacity:1; fill:none" points="
  1060.88,751.317 1381.12,1231.33 
  "/>
<polyline clip-path="url(#clip902)" style="stroke:#0000ff; stroke-width:2.57629; stroke-opacity:1; fill:none" points="
  887.616,1284.9 1381.12,1231.33 
  "/>
<polyline clip-path="url(#clip902)" style="stroke:#800080; stroke-width:8; stroke-opacity:1; fill:none" points="
  390.19,816.4 794.664,975.594 
  "/>
<polyline clip-path="url(#clip902)" style="stroke:#0000ff; stroke-width:1.79685; stroke-opacity:1; fill:none" points="
  887.616,1284.9 1415.81,377.72 
  "/>
<polyline clip-path="url(#clip902)" style="stroke:#ffa500; stroke-width:6.50001; stroke-opacity:1; fill:none" points="
  1381.12,1231.33 1415.81,377.72 
  "/>
<polyline clip-path="url(#clip902)" style="stroke:#800080; stroke-width:4.72186; stroke-opacity:1; fill:none" points="
  794.664,975.594 1060.88,751.317 
  "/>
<polyline clip-path="url(#clip902)" style="stroke:#0000ff; stroke-width:2.76824; stroke-opacity:1; fill:none" points="
  794.664,975.594 887.616,1284.9 
  "/>
<polyline clip-path="url(#clip902)" style="stroke:#800080; stroke-width:2.38327; stroke-opacity:1; fill:none" points="
  390.19,816.4 1415.81,377.72 
  "/>
<polyline clip-path="url(#clip902)" style="stroke:#008000; stroke-width:7.28547; stroke-opacity:1; fill:none" points="
  794.664,975.594 1381.12,1231.33 
  "/>
<circle clip-path="url(#clip902)" cx="1060.88" cy="751.317" r="23" fill="#000000" fill-rule="evenodd" fill-opacity="1" stroke="none"/>
<circle clip-path="url(#clip902)" cx="794.664" cy="975.594" r="26" fill="#000000" fill-rule="evenodd" fill-opacity="1" stroke="none"/>
<circle clip-path="url(#clip902)" cx="1415.81" cy="377.72" r="23" fill="#000000" fill-rule="evenodd" fill-opacity="1" stroke="none"/>
<circle clip-path="url(#clip902)" cx="887.616" cy="1284.9" r="8" fill="#000000" fill-rule="evenodd" fill-opacity="1" stroke="none"/>
<circle clip-path="url(#clip902)" cx="1381.12" cy="1231.33" r="28" fill="#000000" fill-rule="evenodd" fill-opacity="1" stroke="none"/>
<circle clip-path="url(#clip902)" cx="390.19" cy="816.4" r="8" fill="#000000" fill-rule="evenodd" fill-opacity="1" stroke="none"/>
<path clip-path="url(#clip900)" d="M 0 0 M1033.8 758.039 L1033.8 774.836 L1037.33 774.836 Q1041.8 774.836 1043.87 772.81 Q1045.95 770.785 1045.95 766.416 Q1045.95 762.076 1043.87 760.065 Q1041.8 758.039 1037.33 758.039 L1033.8 758.039 M1030.88 755.637 L1036.88 755.637 Q1043.16 755.637 1046.1 758.256 Q1049.04 760.86 1049.04 766.416 Q1049.04 772 1046.08 774.619 Q1043.13 777.237 1036.88 777.237 L1030.88 777.237 L1030.88 755.637 Z" fill="#000000" fill-rule="evenodd" fill-opacity="1" /><path clip-path="url(#clip900)" d="M 0 0 M1059.19 769.092 Q1055.97 769.092 1054.72 769.83 Q1053.48 770.568 1053.48 772.347 Q1053.48 773.765 1054.4 774.604 Q1055.34 775.429 1056.95 775.429 Q1059.16 775.429 1060.49 773.867 Q1061.84 772.29 1061.84 769.685 L1061.84 769.092 L1059.19 769.092 M1064.5 767.993 L1064.5 777.237 L1061.84 777.237 L1061.84 774.778 Q1060.93 776.254 1059.57 776.963 Q1058.21 777.657 1056.24 777.657 Q1053.75 777.657 1052.28 776.268 Q1050.82 774.865 1050.82 772.521 Q1050.82 769.787 1052.64 768.398 Q1054.48 767.009 1058.11 767.009 L1061.84 767.009 L1061.84 766.749 Q1061.84 764.911 1060.62 763.913 Q1059.42 762.9 1057.24 762.9 Q1055.85 762.9 1054.53 763.233 Q1053.22 763.566 1052 764.231 L1052 761.772 Q1053.46 761.207 1054.84 760.933 Q1056.21 760.643 1057.51 760.643 Q1061.03 760.643 1062.77 762.466 Q1064.5 764.289 1064.5 767.993 Z" fill="#000000" fill-rule="evenodd" fill-opacity="1" /><path clip-path="url(#clip900)" d="M 0 0 M1069.93 756.433 L1069.93 761.034 L1075.41 761.034 L1075.41 763.103 L1069.93 763.103 L1069.93 771.899 Q1069.93 773.881 1070.46 774.445 Q1071.01 775.009 1072.68 775.009 L1075.41 775.009 L1075.41 777.237 L1072.68 777.237 Q1069.59 777.237 1068.42 776.095 Q1067.25 774.937 1067.25 771.899 L1067.25 763.103 L1065.3 763.103 L1065.3 761.034 L1067.25 761.034 L1067.25 756.433 L1069.93 756.433 Z" fill="#000000" fill-rule="evenodd" fill-opacity="1" /><path clip-path="url(#clip900)" d="M 0 0 M1085.57 769.092 Q1082.34 769.092 1081.1 769.83 Q1079.85 770.568 1079.85 772.347 Q1079.85 773.765 1080.78 774.604 Q1081.72 775.429 1083.32 775.429 Q1085.54 775.429 1086.87 773.867 Q1088.21 772.29 1088.21 769.685 L1088.21 769.092 L1085.57 769.092 M1090.88 767.993 L1090.88 777.237 L1088.21 777.237 L1088.21 774.778 Q1087.3 776.254 1085.94 776.963 Q1084.58 777.657 1082.61 777.657 Q1080.13 777.657 1078.65 776.268 Q1077.19 774.865 1077.19 772.521 Q1077.19 769.787 1079.01 768.398 Q1080.85 767.009 1084.48 767.009 L1088.21 767.009 L1088.21 766.749 Q1088.21 764.911 1087 763.913 Q1085.8 762.9 1083.61 762.9 Q1082.22 762.9 1080.91 763.233 Q1079.59 763.566 1078.38 764.231 L1078.38 761.772 Q1079.84 761.207 1081.21 760.933 Q1082.59 760.643 1083.89 760.643 Q1087.4 760.643 1089.14 762.466 Q1090.88 764.289 1090.88 767.993 Z" fill="#000000" fill-rule="evenodd" fill-opacity="1" /><path clip-path="url(#clip900)" d="M 0 0 M652.759 979.914 L671.032 979.914 L671.032 982.374 L663.364 982.374 L663.364 1001.51 L660.427 1001.51 L660.427 982.374 L652.759 982.374 L652.759 979.914 Z" fill="#000000" fill-rule="evenodd" fill-opacity="1" /><path clip-path="url(#clip900)" d="M 0 0 M682.649 992.747 L682.649 994.049 L670.41 994.049 Q670.583 996.798 672.059 998.245 Q673.549 999.677 676.197 999.677 Q677.73 999.677 679.162 999.301 Q680.609 998.924 682.027 998.172 L682.027 1000.69 Q680.595 1001.3 679.09 1001.62 Q677.586 1001.93 676.037 1001.93 Q672.16 1001.93 669.889 999.677 Q667.632 997.42 667.632 993.571 Q667.632 989.593 669.773 987.264 Q671.929 984.92 675.575 984.92 Q678.844 984.92 680.739 987.032 Q682.649 989.13 682.649 992.747 M679.987 991.966 Q679.958 989.781 678.757 988.479 Q677.571 987.177 675.603 987.177 Q673.375 987.177 672.03 988.436 Q670.699 989.694 670.496 991.98 L679.987 991.966 Z" fill="#000000" fill-rule="evenodd" fill-opacity="1" /><path clip-path="url(#clip900)" d="M 0 0 M697.102 985.933 L697.102 988.421 Q695.974 987.799 694.831 987.495 Q693.702 987.177 692.545 987.177 Q689.955 987.177 688.523 988.826 Q687.091 990.461 687.091 993.427 Q687.091 996.393 688.523 998.042 Q689.955 999.677 692.545 999.677 Q693.702 999.677 694.831 999.373 Q695.974 999.055 697.102 998.433 L697.102 1000.89 Q695.988 1001.41 694.787 1001.67 Q693.601 1001.93 692.256 1001.93 Q688.595 1001.93 686.44 999.633 Q684.284 997.333 684.284 993.427 Q684.284 989.463 686.454 987.191 Q688.639 984.92 692.429 984.92 Q693.659 984.92 694.831 985.18 Q696.003 985.426 697.102 985.933 Z" fill="#000000" fill-rule="evenodd" fill-opacity="1" /><path clip-path="url(#clip900)" d="M 0 0 M713.364 991.734 L713.364 1001.51 L710.702 1001.51 L710.702 991.821 Q710.702 989.521 709.805 988.378 Q708.908 987.235 707.114 987.235 Q704.958 987.235 703.714 988.609 Q702.47 989.984 702.47 992.356 L702.47 1001.51 L699.793 1001.51 L699.793 979.003 L702.47 979.003 L702.47 987.828 Q703.424 986.367 704.712 985.643 Q706.014 984.92 707.707 984.92 Q710.499 984.92 711.931 986.656 Q713.364 988.378 713.364 991.734 Z" fill="#000000" fill-rule="evenodd" fill-opacity="1" /><path clip-path="url(#clip900)" d="M 0 0 M729.625 991.734 L729.625 1001.51 L726.963 1001.51 L726.963 991.821 Q726.963 989.521 726.066 988.378 Q725.169 987.235 723.375 987.235 Q721.22 987.235 719.975 988.609 Q718.731 989.984 718.731 992.356 L718.731 1001.51 L716.055 1001.51 L716.055 985.311 L718.731 985.311 L718.731 987.828 Q719.686 986.367 720.974 985.643 Q722.276 984.92 723.968 984.92 Q726.761 984.92 728.193 986.656 Q729.625 988.378 729.625 991.734 Z" fill="#000000" fill-rule="evenodd" fill-opacity="1" /><path clip-path="url(#clip900)" d="M 0 0 M732.417 985.311 L735.079 985.311 L735.079 1001.51 L732.417 1001.51 L732.417 985.311 M732.417 979.003 L735.079 979.003 L735.079 982.374 L732.417 982.374 L732.417 979.003 Z" fill="#000000" fill-rule="evenodd" fill-opacity="1" /><path clip-path="url(#clip900)" d="M 0 0 M749.532 985.933 L749.532 988.421 Q748.404 987.799 747.261 987.495 Q746.133 987.177 744.975 987.177 Q742.386 987.177 740.953 988.826 Q739.521 990.461 739.521 993.427 Q739.521 996.393 740.953 998.042 Q742.386 999.677 744.975 999.677 Q746.133 999.677 747.261 999.373 Q748.404 999.055 749.532 998.433 L749.532 1000.89 Q748.418 1001.41 747.218 1001.67 Q746.031 1001.93 744.686 1001.93 Q741.026 1001.93 738.87 999.633 Q736.714 997.333 736.714 993.427 Q736.714 989.463 738.884 987.191 Q741.069 984.92 744.859 984.92 Q746.089 984.92 747.261 985.18 Q748.433 985.426 749.532 985.933 Z" fill="#000000" fill-rule="evenodd" fill-opacity="1" /><path clip-path="url(#clip900)" d="M 0 0 M759.689 993.369 Q756.462 993.369 755.218 994.107 Q753.974 994.845 753.974 996.624 Q753.974 998.042 754.9 998.881 Q755.84 999.706 757.446 999.706 Q759.66 999.706 760.991 998.143 Q762.336 996.566 762.336 993.962 L762.336 993.369 L759.689 993.369 M764.998 992.269 L764.998 1001.51 L762.336 1001.51 L762.336 999.055 Q761.425 1000.53 760.065 1001.24 Q758.705 1001.93 756.737 1001.93 Q754.249 1001.93 752.773 1000.54 Q751.312 999.141 751.312 996.798 Q751.312 994.063 753.135 992.675 Q754.972 991.286 758.604 991.286 L762.336 991.286 L762.336 991.025 Q762.336 989.188 761.121 988.19 Q759.92 987.177 757.736 987.177 Q756.347 987.177 755.03 987.51 Q753.714 987.842 752.498 988.508 L752.498 986.048 Q753.96 985.484 755.334 985.209 Q756.708 984.92 758.01 984.92 Q761.526 984.92 763.262 986.743 Q764.998 988.566 764.998 992.269 Z" fill="#000000" fill-rule="evenodd" fill-opacity="1" /><path clip-path="url(#clip900)" d="M 0 0 M767.79 979.003 L770.452 979.003 L770.452 1001.51 L767.79 1001.51 L767.79 979.003 Z" fill="#000000" fill-rule="evenodd" fill-opacity="1" /><path clip-path="url(#clip900)" d="M 0 0 M785.557 1006.43 L785.557 1008.5 L770.163 1008.5 L770.163 1006.43 L785.557 1006.43 Z" fill="#000000" fill-rule="evenodd" fill-opacity="1" /><path clip-path="url(#clip900)" d="M 0 0 M804.639 981.578 L804.639 984.66 Q803.164 983.285 801.485 982.605 Q799.822 981.925 797.941 981.925 Q794.237 981.925 792.27 984.197 Q790.302 986.453 790.302 990.736 Q790.302 995.004 792.27 997.275 Q794.237 999.532 797.941 999.532 Q799.822 999.532 801.485 998.852 Q803.164 998.172 804.639 996.798 L804.639 999.85 Q803.106 1000.89 801.384 1001.41 Q799.677 1001.93 797.767 1001.93 Q792.863 1001.93 790.042 998.939 Q787.22 995.93 787.22 990.736 Q787.22 985.528 790.042 982.533 Q792.863 979.524 797.767 979.524 Q799.706 979.524 801.413 980.044 Q803.135 980.551 804.639 981.578 Z" fill="#000000" fill-rule="evenodd" fill-opacity="1" /><path clip-path="url(#clip900)" d="M 0 0 M813.71 987.177 Q811.569 987.177 810.325 988.855 Q809.081 990.519 809.081 993.427 Q809.081 996.335 810.31 998.013 Q811.555 999.677 813.71 999.677 Q815.837 999.677 817.081 997.999 Q818.326 996.32 818.326 993.427 Q818.326 990.548 817.081 988.87 Q815.837 987.177 813.71 987.177 M813.71 984.92 Q817.183 984.92 819.165 987.177 Q821.147 989.434 821.147 993.427 Q821.147 997.405 819.165 999.677 Q817.183 1001.93 813.71 1001.93 Q810.224 1001.93 808.242 999.677 Q806.274 997.405 806.274 993.427 Q806.274 989.434 808.242 987.177 Q810.224 984.92 813.71 984.92 Z" fill="#000000" fill-rule="evenodd" fill-opacity="1" /><path clip-path="url(#clip900)" d="M 0 0 M837.408 991.734 L837.408 1001.51 L834.746 1001.51 L834.746 991.821 Q834.746 989.521 833.849 988.378 Q832.952 987.235 831.158 987.235 Q829.003 987.235 827.758 988.609 Q826.514 989.984 826.514 992.356 L826.514 1001.51 L823.838 1001.51 L823.838 985.311 L826.514 985.311 L826.514 987.828 Q827.469 986.367 828.757 985.643 Q830.059 984.92 831.751 984.92 Q834.544 984.92 835.976 986.656 Q837.408 988.378 837.408 991.734 Z" fill="#000000" fill-rule="evenodd" fill-opacity="1" /><path clip-path="url(#clip900)" d="M 0 0 M850.53 985.788 L850.53 988.305 Q849.402 987.727 848.186 987.437 Q846.971 987.148 845.669 987.148 Q843.687 987.148 842.689 987.756 Q841.705 988.363 841.705 989.578 Q841.705 990.504 842.414 991.04 Q843.123 991.561 845.264 992.038 L846.175 992.24 Q849.011 992.848 850.197 993.962 Q851.398 995.062 851.398 997.044 Q851.398 999.301 849.604 1000.62 Q847.825 1001.93 844.7 1001.93 Q843.398 1001.93 841.98 1001.67 Q840.577 1001.43 839.014 1000.92 L839.014 998.172 Q840.49 998.939 841.922 999.33 Q843.354 999.706 844.758 999.706 Q846.638 999.706 847.651 999.069 Q848.664 998.418 848.664 997.246 Q848.664 996.161 847.926 995.582 Q847.203 995.004 844.729 994.468 L843.803 994.251 Q841.329 993.731 840.229 992.66 Q839.13 991.575 839.13 989.694 Q839.13 987.408 840.75 986.164 Q842.371 984.92 845.351 984.92 Q846.827 984.92 848.129 985.137 Q849.431 985.354 850.53 985.788 Z" fill="#000000" fill-rule="evenodd" fill-opacity="1" /><path clip-path="url(#clip900)" d="M 0 0 M856.824 980.71 L856.824 985.311 L862.307 985.311 L862.307 987.379 L856.824 987.379 L856.824 996.176 Q856.824 998.158 857.359 998.722 Q857.909 999.286 859.572 999.286 L862.307 999.286 L862.307 1001.51 L859.572 1001.51 Q856.491 1001.51 855.319 1000.37 Q854.147 999.214 854.147 996.176 L854.147 987.379 L852.194 987.379 L852.194 985.311 L854.147 985.311 L854.147 980.71 L856.824 980.71 Z" fill="#000000" fill-rule="evenodd" fill-opacity="1" /><path clip-path="url(#clip900)" d="M 0 0 M874.488 987.799 Q874.04 987.539 873.505 987.423 Q872.984 987.293 872.347 987.293 Q870.09 987.293 868.875 988.768 Q867.674 990.23 867.674 992.978 L867.674 1001.51 L864.998 1001.51 L864.998 985.311 L867.674 985.311 L867.674 987.828 Q868.513 986.352 869.859 985.643 Q871.204 984.92 873.128 984.92 Q873.403 984.92 873.736 984.963 Q874.069 984.992 874.474 985.065 L874.488 987.799 Z" fill="#000000" fill-rule="evenodd" fill-opacity="1" /><path clip-path="url(#clip900)" d="M 0 0 M884.645 993.369 Q881.418 993.369 880.174 994.107 Q878.93 994.845 878.93 996.624 Q878.93 998.042 879.856 998.881 Q880.796 999.706 882.402 999.706 Q884.616 999.706 885.947 998.143 Q887.292 996.566 887.292 993.962 L887.292 993.369 L884.645 993.369 M889.954 992.269 L889.954 1001.51 L887.292 1001.51 L887.292 999.055 Q886.381 1000.53 885.021 1001.24 Q883.661 1001.93 881.693 1001.93 Q879.205 1001.93 877.729 1000.54 Q876.268 999.141 876.268 996.798 Q876.268 994.063 878.091 992.675 Q879.928 991.286 883.56 991.286 L887.292 991.286 L887.292 991.025 Q887.292 989.188 886.077 988.19 Q884.876 987.177 882.691 987.177 Q881.303 987.177 879.986 987.51 Q878.67 987.842 877.454 988.508 L877.454 986.048 Q878.915 985.484 880.29 985.209 Q881.664 984.92 882.966 984.92 Q886.482 984.92 888.218 986.743 Q889.954 988.566 889.954 992.269 Z" fill="#000000" fill-rule="evenodd" fill-opacity="1" /><path clip-path="url(#clip900)" d="M 0 0 M892.746 985.311 L895.408 985.311 L895.408 1001.51 L892.746 1001.51 L892.746 985.311 M892.746 979.003 L895.408 979.003 L895.408 982.374 L892.746 982.374 L892.746 979.003 Z" fill="#000000" fill-rule="evenodd" fill-opacity="1" /><path clip-path="url(#clip900)" d="M 0 0 M911.67 991.734 L911.67 1001.51 L909.008 1001.51 L909.008 991.821 Q909.008 989.521 908.111 988.378 Q907.214 987.235 905.42 987.235 Q903.264 987.235 902.02 988.609 Q900.776 989.984 900.776 992.356 L900.776 1001.51 L898.099 1001.51 L898.099 985.311 L900.776 985.311 L900.776 987.828 Q901.731 986.367 903.018 985.643 Q904.32 984.92 906.013 984.92 Q908.805 984.92 910.238 986.656 Q911.67 988.378 911.67 991.734 Z" fill="#000000" fill-rule="evenodd" fill-opacity="1" /><path clip-path="url(#clip900)" d="M 0 0 M917.095 980.71 L917.095 985.311 L922.578 985.311 L922.578 987.379 L917.095 987.379 L917.095 996.176 Q917.095 998.158 917.631 998.722 Q918.18 999.286 919.844 999.286 L922.578 999.286 L922.578 1001.51 L919.844 1001.51 Q916.762 1001.51 915.591 1000.37 Q914.419 999.214 914.419 996.176 L914.419 987.379 L912.466 987.379 L912.466 985.311 L914.419 985.311 L914.419 980.71 L917.095 980.71 Z" fill="#000000" fill-rule="evenodd" fill-opacity="1" /><path clip-path="url(#clip900)" d="M 0 0 M935.7 985.788 L935.7 988.305 Q934.572 987.727 933.357 987.437 Q932.141 987.148 930.839 987.148 Q928.857 987.148 927.859 987.756 Q926.875 988.363 926.875 989.578 Q926.875 990.504 927.584 991.04 Q928.293 991.561 930.434 992.038 L931.346 992.24 Q934.181 992.848 935.368 993.962 Q936.569 995.062 936.569 997.044 Q936.569 999.301 934.775 1000.62 Q932.995 1001.93 929.87 1001.93 Q928.568 1001.93 927.15 1001.67 Q925.747 1001.43 924.184 1000.92 L924.184 998.172 Q925.66 998.939 927.092 999.33 Q928.525 999.706 929.928 999.706 Q931.809 999.706 932.821 999.069 Q933.834 998.418 933.834 997.246 Q933.834 996.161 933.096 995.582 Q932.373 995.004 929.899 994.468 L928.973 994.251 Q926.499 993.731 925.4 992.66 Q924.3 991.575 924.3 989.694 Q924.3 987.408 925.92 986.164 Q927.541 984.92 930.521 984.92 Q931.997 984.92 933.299 985.137 Q934.601 985.354 935.7 985.788 Z" fill="#000000" fill-rule="evenodd" fill-opacity="1" /><path clip-path="url(#clip900)" d="M 0 0 M1248.46 384.442 L1248.46 392.558 L1252.14 392.558 Q1254.18 392.558 1255.29 391.502 Q1256.4 390.446 1256.4 388.493 Q1256.4 386.554 1255.29 385.498 Q1254.18 384.442 1252.14 384.442 L1248.46 384.442 M1245.54 382.04 L1252.14 382.04 Q1255.77 382.04 1257.62 383.69 Q1259.49 385.324 1259.49 388.493 Q1259.49 391.69 1257.62 393.325 Q1255.77 394.96 1252.14 394.96 L1248.46 394.96 L1248.46 403.64 L1245.54 403.64 L1245.54 382.04 Z" fill="#000000" fill-rule="evenodd" fill-opacity="1" /><path clip-path="url(#clip900)" d="M 0 0 M1275.08 394.873 L1275.08 396.175 L1262.84 396.175 Q1263.02 398.924 1264.49 400.371 Q1265.98 401.803 1268.63 401.803 Q1270.16 401.803 1271.59 401.427 Q1273.04 401.051 1274.46 400.298 L1274.46 402.816 Q1273.03 403.423 1271.52 403.742 Q1270.02 404.06 1268.47 404.06 Q1264.59 404.06 1262.32 401.803 Q1260.06 399.546 1260.06 395.698 Q1260.06 391.719 1262.2 389.39 Q1264.36 387.046 1268.01 387.046 Q1271.28 387.046 1273.17 389.158 Q1275.08 391.256 1275.08 394.873 M1272.42 394.092 Q1272.39 391.907 1271.19 390.605 Q1270 389.303 1268.04 389.303 Q1265.81 389.303 1264.46 390.562 Q1263.13 391.82 1262.93 394.106 L1272.42 394.092 Z" fill="#000000" fill-rule="evenodd" fill-opacity="1" /><path clip-path="url(#clip900)" d="M 0 0 M1287.26 389.925 Q1286.81 389.665 1286.28 389.549 Q1285.76 389.419 1285.12 389.419 Q1282.86 389.419 1281.65 390.894 Q1280.45 392.356 1280.45 395.104 L1280.45 403.64 L1277.77 403.64 L1277.77 387.437 L1280.45 387.437 L1280.45 389.954 Q1281.29 388.478 1282.63 387.769 Q1283.98 387.046 1285.9 387.046 Q1286.18 387.046 1286.51 387.089 Q1286.84 387.118 1287.25 387.191 L1287.26 389.925 Z" fill="#000000" fill-rule="evenodd" fill-opacity="1" /><path clip-path="url(#clip900)" d="M 0 0 M1298.26 381.129 L1298.26 383.342 L1295.71 383.342 Q1294.28 383.342 1293.72 383.921 Q1293.17 384.5 1293.17 386.004 L1293.17 387.437 L1297.55 387.437 L1297.55 389.505 L1293.17 389.505 L1293.17 403.64 L1290.49 403.64 L1290.49 389.505 L1287.94 389.505 L1287.94 387.437 L1290.49 387.437 L1290.49 386.308 Q1290.49 383.603 1291.75 382.373 Q1293.01 381.129 1295.74 381.129 L1298.26 381.129 Z" fill="#000000" fill-rule="evenodd" fill-opacity="1" /><path clip-path="url(#clip900)" d="M 0 0 M1307.33 389.303 Q1305.19 389.303 1303.94 390.981 Q1302.7 392.645 1302.7 395.553 Q1302.7 398.461 1303.93 400.139 Q1305.17 401.803 1307.33 401.803 Q1309.46 401.803 1310.7 400.125 Q1311.94 398.446 1311.94 395.553 Q1311.94 392.674 1310.7 390.996 Q1309.46 389.303 1307.33 389.303 M1307.33 387.046 Q1310.8 387.046 1312.78 389.303 Q1314.77 391.56 1314.77 395.553 Q1314.77 399.531 1312.78 401.803 Q1310.8 404.06 1307.33 404.06 Q1303.84 404.06 1301.86 401.803 Q1299.89 399.531 1299.89 395.553 Q1299.89 391.56 1301.86 389.303 Q1303.84 387.046 1307.33 387.046 Z" fill="#000000" fill-rule="evenodd" fill-opacity="1" /><path clip-path="url(#clip900)" d="M 0 0 M1326.95 389.925 Q1326.5 389.665 1325.96 389.549 Q1325.44 389.419 1324.81 389.419 Q1322.55 389.419 1321.33 390.894 Q1320.13 392.356 1320.13 395.104 L1320.13 403.64 L1317.46 403.64 L1317.46 387.437 L1320.13 387.437 L1320.13 389.954 Q1320.97 388.478 1322.32 387.769 Q1323.66 387.046 1325.59 387.046 Q1325.86 387.046 1326.19 387.089 Q1326.53 387.118 1326.93 387.191 L1326.95 389.925 Z" fill="#000000" fill-rule="evenodd" fill-opacity="1" /><path clip-path="url(#clip900)" d="M 0 0 M1341.83 390.547 Q1342.83 388.753 1344.22 387.9 Q1345.61 387.046 1347.49 387.046 Q1350.02 387.046 1351.4 388.826 Q1352.77 390.591 1352.77 393.86 L1352.77 403.64 L1350.1 403.64 L1350.1 393.947 Q1350.1 391.618 1349.27 390.489 Q1348.45 389.361 1346.75 389.361 Q1344.68 389.361 1343.48 390.735 Q1342.28 392.11 1342.28 394.482 L1342.28 403.64 L1339.61 403.64 L1339.61 393.947 Q1339.61 391.603 1338.78 390.489 Q1337.96 389.361 1336.24 389.361 Q1334.2 389.361 1332.99 390.75 Q1331.79 392.124 1331.79 394.482 L1331.79 403.64 L1329.12 403.64 L1329.12 387.437 L1331.79 387.437 L1331.79 389.954 Q1332.71 388.464 1333.98 387.755 Q1335.25 387.046 1337 387.046 Q1338.77 387.046 1340 387.943 Q1341.24 388.84 1341.83 390.547 Z" fill="#000000" fill-rule="evenodd" fill-opacity="1" /><path clip-path="url(#clip900)" d="M 0 0 M1362.93 395.495 Q1359.7 395.495 1358.46 396.233 Q1357.21 396.971 1357.21 398.75 Q1357.21 400.168 1358.14 401.007 Q1359.08 401.832 1360.69 401.832 Q1362.9 401.832 1364.23 400.269 Q1365.58 398.692 1365.58 396.088 L1365.58 395.495 L1362.93 395.495 M1368.24 394.395 L1368.24 403.64 L1365.58 403.64 L1365.58 401.181 Q1364.66 402.656 1363.3 403.365 Q1361.94 404.06 1359.98 404.06 Q1357.49 404.06 1356.01 402.671 Q1354.55 401.268 1354.55 398.924 Q1354.55 396.189 1356.37 394.801 Q1358.21 393.412 1361.84 393.412 L1365.58 393.412 L1365.58 393.151 Q1365.58 391.314 1364.36 390.316 Q1363.16 389.303 1360.97 389.303 Q1359.59 389.303 1358.27 389.636 Q1356.95 389.968 1355.74 390.634 L1355.74 388.174 Q1357.2 387.61 1358.57 387.335 Q1359.95 387.046 1361.25 387.046 Q1364.77 387.046 1366.5 388.869 Q1368.24 390.692 1368.24 394.395 Z" fill="#000000" fill-rule="evenodd" fill-opacity="1" /><path clip-path="url(#clip900)" d="M 0 0 M1384.5 393.86 L1384.5 403.64 L1381.84 403.64 L1381.84 393.947 Q1381.84 391.647 1380.94 390.504 Q1380.04 389.361 1378.25 389.361 Q1376.09 389.361 1374.85 390.735 Q1373.6 392.11 1373.6 394.482 L1373.6 403.64 L1370.93 403.64 L1370.93 387.437 L1373.6 387.437 L1373.6 389.954 Q1374.56 388.493 1375.85 387.769 Q1377.15 387.046 1378.84 387.046 Q1381.63 387.046 1383.07 388.782 Q1384.5 390.504 1384.5 393.86 Z" fill="#000000" fill-rule="evenodd" fill-opacity="1" /><path clip-path="url(#clip900)" d="M 0 0 M1398.95 388.059 L1398.95 390.547 Q1397.82 389.925 1396.68 389.621 Q1395.55 389.303 1394.39 389.303 Q1391.8 389.303 1390.37 390.952 Q1388.94 392.587 1388.94 395.553 Q1388.94 398.519 1390.37 400.168 Q1391.8 401.803 1394.39 401.803 Q1395.55 401.803 1396.68 401.499 Q1397.82 401.181 1398.95 400.559 L1398.95 403.018 Q1397.84 403.539 1396.64 403.799 Q1395.45 404.06 1394.11 404.06 Q1390.44 404.06 1388.29 401.759 Q1386.13 399.459 1386.13 395.553 Q1386.13 391.589 1388.3 389.317 Q1390.49 387.046 1394.28 387.046 Q1395.51 387.046 1396.68 387.306 Q1397.85 387.552 1398.95 388.059 Z" fill="#000000" fill-rule="evenodd" fill-opacity="1" /><path clip-path="url(#clip900)" d="M 0 0 M1415.6 394.873 L1415.6 396.175 L1403.36 396.175 Q1403.54 398.924 1405.01 400.371 Q1406.5 401.803 1409.15 401.803 Q1410.69 401.803 1412.12 401.427 Q1413.56 401.051 1414.98 400.298 L1414.98 402.816 Q1413.55 403.423 1412.04 403.742 Q1410.54 404.06 1408.99 404.06 Q1405.12 404.06 1402.84 401.803 Q1400.59 399.546 1400.59 395.698 Q1400.59 391.719 1402.73 389.39 Q1404.88 387.046 1408.53 387.046 Q1411.8 387.046 1413.69 389.158 Q1415.6 391.256 1415.6 394.873 M1412.94 394.092 Q1412.91 391.907 1411.71 390.605 Q1410.53 389.303 1408.56 389.303 Q1406.33 389.303 1404.98 390.562 Q1403.65 391.82 1403.45 394.106 L1412.94 394.092 Z" fill="#000000" fill-rule="evenodd" fill-opacity="1" /><path clip-path="url(#clip900)" d="M 0 0 M1430.71 408.559 L1430.71 410.628 L1415.31 410.628 L1415.31 408.559 L1430.71 408.559 Z" fill="#000000" fill-rule="evenodd" fill-opacity="1" /><path clip-path="url(#clip900)" d="M 0 0 M1436.54 384.442 L1436.54 392.558 L1440.21 392.558 Q1442.25 392.558 1443.37 391.502 Q1444.48 390.446 1444.48 388.493 Q1444.48 386.554 1443.37 385.498 Q1442.25 384.442 1440.21 384.442 L1436.54 384.442 M1433.62 382.04 L1440.21 382.04 Q1443.84 382.04 1445.7 383.69 Q1447.56 385.324 1447.56 388.493 Q1447.56 391.69 1445.7 393.325 Q1443.84 394.96 1440.21 394.96 L1436.54 394.96 L1436.54 403.64 L1433.62 403.64 L1433.62 382.04 Z" fill="#000000" fill-rule="evenodd" fill-opacity="1" /><path clip-path="url(#clip900)" d="M 0 0 M1456.39 395.495 Q1453.16 395.495 1451.92 396.233 Q1450.67 396.971 1450.67 398.75 Q1450.67 400.168 1451.6 401.007 Q1452.54 401.832 1454.15 401.832 Q1456.36 401.832 1457.69 400.269 Q1459.04 398.692 1459.04 396.088 L1459.04 395.495 L1456.39 395.495 M1461.7 394.395 L1461.7 403.64 L1459.04 403.64 L1459.04 401.181 Q1458.12 402.656 1456.76 403.365 Q1455.4 404.06 1453.44 404.06 Q1450.95 404.06 1449.47 402.671 Q1448.01 401.268 1448.01 398.924 Q1448.01 396.189 1449.83 394.801 Q1451.67 393.412 1455.3 393.412 L1459.04 393.412 L1459.04 393.151 Q1459.04 391.314 1457.82 390.316 Q1456.62 389.303 1454.43 389.303 Q1453.05 389.303 1451.73 389.636 Q1450.41 389.968 1449.2 390.634 L1449.2 388.174 Q1450.66 387.61 1452.03 387.335 Q1453.41 387.046 1454.71 387.046 Q1458.23 387.046 1459.96 388.869 Q1461.7 390.692 1461.7 394.395 Z" fill="#000000" fill-rule="evenodd" fill-opacity="1" /><path clip-path="url(#clip900)" d="M 0 0 M1473.88 389.925 Q1473.43 389.665 1472.9 389.549 Q1472.37 389.419 1471.74 389.419 Q1469.48 389.419 1468.27 390.894 Q1467.06 392.356 1467.06 395.104 L1467.06 403.64 L1464.39 403.64 L1464.39 387.437 L1467.06 387.437 L1467.06 389.954 Q1467.9 388.478 1469.25 387.769 Q1470.6 387.046 1472.52 387.046 Q1472.79 387.046 1473.13 387.089 Q1473.46 387.118 1473.86 387.191 L1473.88 389.925 Z" fill="#000000" fill-rule="evenodd" fill-opacity="1" /><path clip-path="url(#clip900)" d="M 0 0 M1484.04 395.495 Q1480.81 395.495 1479.56 396.233 Q1478.32 396.971 1478.32 398.75 Q1478.32 400.168 1479.25 401.007 Q1480.19 401.832 1481.79 401.832 Q1484.01 401.832 1485.34 400.269 Q1486.68 398.692 1486.68 396.088 L1486.68 395.495 L1484.04 395.495 M1489.34 394.395 L1489.34 403.64 L1486.68 403.64 L1486.68 401.181 Q1485.77 402.656 1484.41 403.365 Q1483.05 404.06 1481.08 404.06 Q1478.6 404.06 1477.12 402.671 Q1475.66 401.268 1475.66 398.924 Q1475.66 396.189 1477.48 394.801 Q1479.32 393.412 1482.95 393.412 L1486.68 393.412 L1486.68 393.151 Q1486.68 391.314 1485.47 390.316 Q1484.27 389.303 1482.08 389.303 Q1480.69 389.303 1479.38 389.636 Q1478.06 389.968 1476.84 390.634 L1476.84 388.174 Q1478.31 387.61 1479.68 387.335 Q1481.06 387.046 1482.36 387.046 Q1485.87 387.046 1487.61 388.869 Q1489.34 390.692 1489.34 394.395 Z" fill="#000000" fill-rule="evenodd" fill-opacity="1" /><path clip-path="url(#clip900)" d="M 0 0 M1504.75 390.547 Q1505.75 388.753 1507.14 387.9 Q1508.53 387.046 1510.41 387.046 Q1512.94 387.046 1514.32 388.826 Q1515.69 390.591 1515.69 393.86 L1515.69 403.64 L1513.01 403.64 L1513.01 393.947 Q1513.01 391.618 1512.19 390.489 Q1511.36 389.361 1509.67 389.361 Q1507.6 389.361 1506.4 390.735 Q1505.2 392.11 1505.2 394.482 L1505.2 403.64 L1502.52 403.64 L1502.52 393.947 Q1502.52 391.603 1501.7 390.489 Q1500.88 389.361 1499.15 389.361 Q1497.11 389.361 1495.91 390.75 Q1494.71 392.124 1494.71 394.482 L1494.71 403.64 L1492.04 403.64 L1492.04 387.437 L1494.71 387.437 L1494.71 389.954 Q1495.62 388.464 1496.9 387.755 Q1498.17 387.046 1499.92 387.046 Q1501.69 387.046 1502.92 387.943 Q1504.16 388.84 1504.75 390.547 Z" fill="#000000" fill-rule="evenodd" fill-opacity="1" /><path clip-path="url(#clip900)" d="M 0 0 M1532.34 394.873 L1532.34 396.175 L1520.1 396.175 Q1520.28 398.924 1521.75 400.371 Q1523.24 401.803 1525.89 401.803 Q1527.42 401.803 1528.86 401.427 Q1530.3 401.051 1531.72 400.298 L1531.72 402.816 Q1530.29 403.423 1528.78 403.742 Q1527.28 404.06 1525.73 404.06 Q1521.85 404.06 1519.58 401.803 Q1517.33 399.546 1517.33 395.698 Q1517.33 391.719 1519.47 389.39 Q1521.62 387.046 1525.27 387.046 Q1528.54 387.046 1530.43 389.158 Q1532.34 391.256 1532.34 394.873 M1529.68 394.092 Q1529.65 391.907 1528.45 390.605 Q1527.26 389.303 1525.3 389.303 Q1523.07 389.303 1521.72 390.562 Q1520.39 391.82 1520.19 394.106 L1529.68 394.092 Z" fill="#000000" fill-rule="evenodd" fill-opacity="1" /><path clip-path="url(#clip900)" d="M 0 0 M1537.77 382.836 L1537.77 387.437 L1543.25 387.437 L1543.25 389.505 L1537.77 389.505 L1537.77 398.302 Q1537.77 400.284 1538.3 400.848 Q1538.85 401.412 1540.52 401.412 L1543.25 401.412 L1543.25 403.64 L1540.52 403.64 Q1537.43 403.64 1536.26 402.497 Q1535.09 401.34 1535.09 398.302 L1535.09 389.505 L1533.14 389.505 L1533.14 387.437 L1535.09 387.437 L1535.09 382.836 L1537.77 382.836 Z" fill="#000000" fill-rule="evenodd" fill-opacity="1" /><path clip-path="url(#clip900)" d="M 0 0 M1559.9 394.873 L1559.9 396.175 L1547.66 396.175 Q1547.84 398.924 1549.31 400.371 Q1550.8 401.803 1553.45 401.803 Q1554.98 401.803 1556.42 401.427 Q1557.86 401.051 1559.28 400.298 L1559.28 402.816 Q1557.85 403.423 1556.34 403.742 Q1554.84 404.06 1553.29 404.06 Q1549.41 404.06 1547.14 401.803 Q1544.89 399.546 1544.89 395.698 Q1544.89 391.719 1547.03 389.39 Q1549.18 387.046 1552.83 387.046 Q1556.1 387.046 1557.99 389.158 Q1559.9 391.256 1559.9 394.873 M1557.24 394.092 Q1557.21 391.907 1556.01 390.605 Q1554.82 389.303 1552.86 389.303 Q1550.63 389.303 1549.28 390.562 Q1547.95 391.82 1547.75 394.106 L1557.24 394.092 Z" fill="#000000" fill-rule="evenodd" fill-opacity="1" /><path clip-path="url(#clip900)" d="M 0 0 M1572.08 389.925 Q1571.64 389.665 1571.1 389.549 Q1570.58 389.419 1569.94 389.419 Q1567.69 389.419 1566.47 390.894 Q1565.27 392.356 1565.27 395.104 L1565.27 403.64 L1562.59 403.64 L1562.59 387.437 L1565.27 387.437 L1565.27 389.954 Q1566.11 388.478 1567.46 387.769 Q1568.8 387.046 1570.72 387.046 Q1571 387.046 1571.33 387.089 Q1571.67 387.118 1572.07 387.191 L1572.08 389.925 Z" fill="#000000" fill-rule="evenodd" fill-opacity="1" /><path clip-path="url(#clip900)" d="M 0 0 M1585.21 387.914 L1585.21 390.431 Q1584.08 389.853 1582.86 389.563 Q1581.65 389.274 1580.35 389.274 Q1578.36 389.274 1577.37 389.882 Q1576.38 390.489 1576.38 391.705 Q1576.38 392.63 1577.09 393.166 Q1577.8 393.687 1579.94 394.164 L1580.85 394.367 Q1583.69 394.974 1584.87 396.088 Q1586.07 397.188 1586.07 399.17 Q1586.07 401.427 1584.28 402.743 Q1582.5 404.06 1579.38 404.06 Q1578.07 404.06 1576.66 403.799 Q1575.25 403.553 1573.69 403.047 L1573.69 400.298 Q1575.17 401.065 1576.6 401.456 Q1578.03 401.832 1579.43 401.832 Q1581.31 401.832 1582.33 401.195 Q1583.34 400.544 1583.34 399.372 Q1583.34 398.287 1582.6 397.709 Q1581.88 397.13 1579.41 396.595 L1578.48 396.378 Q1576.01 395.857 1574.91 394.786 Q1573.81 393.701 1573.81 391.82 Q1573.81 389.534 1575.43 388.29 Q1577.05 387.046 1580.03 387.046 Q1581.5 387.046 1582.81 387.263 Q1584.11 387.48 1585.21 387.914 Z" fill="#000000" fill-rule="evenodd" fill-opacity="1" /><path clip-path="url(#clip900)" d="M 0 0 M690.517 1290.88 L690.517 1293.96 Q689.042 1292.59 687.364 1291.91 Q685.7 1291.23 683.819 1291.23 Q680.115 1291.23 678.148 1293.5 Q676.18 1295.76 676.18 1300.04 Q676.18 1304.31 678.148 1306.58 Q680.115 1308.84 683.819 1308.84 Q685.7 1308.84 687.364 1308.16 Q689.042 1307.48 690.517 1306.1 L690.517 1309.15 Q688.984 1310.2 687.262 1310.72 Q685.555 1311.24 683.645 1311.24 Q678.741 1311.24 675.92 1308.24 Q673.099 1305.23 673.099 1300.04 Q673.099 1294.83 675.92 1291.84 Q678.741 1288.83 683.645 1288.83 Q685.584 1288.83 687.291 1289.35 Q689.013 1289.85 690.517 1290.88 Z" fill="#000000" fill-rule="evenodd" fill-opacity="1" /><path clip-path="url(#clip900)" d="M 0 0 M693.31 1288.31 L695.972 1288.31 L695.972 1310.82 L693.31 1310.82 L693.31 1288.31 Z" fill="#000000" fill-rule="evenodd" fill-opacity="1" /><path clip-path="url(#clip900)" d="M 0 0 M698.764 1294.61 L701.426 1294.61 L701.426 1310.82 L698.764 1310.82 L698.764 1294.61 M698.764 1288.31 L701.426 1288.31 L701.426 1291.68 L698.764 1291.68 L698.764 1288.31 Z" fill="#000000" fill-rule="evenodd" fill-opacity="1" /><path clip-path="url(#clip900)" d="M 0 0 M718.078 1302.05 L718.078 1303.35 L705.839 1303.35 Q706.012 1306.1 707.488 1307.55 Q708.978 1308.98 711.626 1308.98 Q713.159 1308.98 714.591 1308.6 Q716.038 1308.23 717.456 1307.48 L717.456 1309.99 Q716.024 1310.6 714.519 1310.92 Q713.014 1311.24 711.466 1311.24 Q707.589 1311.24 705.318 1308.98 Q703.061 1306.72 703.061 1302.88 Q703.061 1298.9 705.202 1296.57 Q707.358 1294.22 711.003 1294.22 Q714.273 1294.22 716.168 1296.34 Q718.078 1298.43 718.078 1302.05 M715.416 1301.27 Q715.387 1299.09 714.186 1297.78 Q713 1296.48 711.032 1296.48 Q708.804 1296.48 707.459 1297.74 Q706.128 1299 705.925 1301.28 L715.416 1301.27 Z" fill="#000000" fill-rule="evenodd" fill-opacity="1" /><path clip-path="url(#clip900)" d="M 0 0 M734.34 1301.04 L734.34 1310.82 L731.678 1310.82 L731.678 1301.12 Q731.678 1298.82 730.781 1297.68 Q729.884 1296.54 728.09 1296.54 Q725.934 1296.54 724.69 1297.91 Q723.446 1299.29 723.446 1301.66 L723.446 1310.82 L720.769 1310.82 L720.769 1294.61 L723.446 1294.61 L723.446 1297.13 Q724.4 1295.67 725.688 1294.95 Q726.99 1294.22 728.683 1294.22 Q731.475 1294.22 732.907 1295.96 Q734.34 1297.68 734.34 1301.04 Z" fill="#000000" fill-rule="evenodd" fill-opacity="1" /><path clip-path="url(#clip900)" d="M 0 0 M739.765 1290.01 L739.765 1294.61 L745.248 1294.61 L745.248 1296.68 L739.765 1296.68 L739.765 1305.48 Q739.765 1307.46 740.3 1308.03 Q740.85 1308.59 742.514 1308.59 L745.248 1308.59 L745.248 1310.82 L742.514 1310.82 Q739.432 1310.82 738.26 1309.68 Q737.088 1308.52 737.088 1305.48 L737.088 1296.68 L735.135 1296.68 L735.135 1294.61 L737.088 1294.61 L737.088 1290.01 L739.765 1290.01 Z" fill="#000000" fill-rule="evenodd" fill-opacity="1" /><path clip-path="url(#clip900)" d="M 0 0 M760.352 1315.74 L760.352 1317.81 L744.959 1317.81 L744.959 1315.74 L760.352 1315.74 Z" fill="#000000" fill-rule="evenodd" fill-opacity="1" /><path clip-path="url(#clip900)" d="M 0 0 M770.508 1302.67 Q767.282 1302.67 766.038 1303.41 Q764.794 1304.15 764.794 1305.93 Q764.794 1307.35 765.72 1308.19 Q766.66 1309.01 768.266 1309.01 Q770.479 1309.01 771.81 1307.45 Q773.156 1305.87 773.156 1303.27 L773.156 1302.67 L770.508 1302.67 M775.818 1301.57 L775.818 1310.82 L773.156 1310.82 L773.156 1308.36 Q772.244 1309.83 770.885 1310.54 Q769.525 1311.24 767.557 1311.24 Q765.069 1311.24 763.593 1309.85 Q762.132 1308.45 762.132 1306.1 Q762.132 1303.37 763.955 1301.98 Q765.792 1300.59 769.423 1300.59 L773.156 1300.59 L773.156 1300.33 Q773.156 1298.49 771.941 1297.49 Q770.74 1296.48 768.555 1296.48 Q767.166 1296.48 765.85 1296.81 Q764.533 1297.15 763.318 1297.81 L763.318 1295.35 Q764.779 1294.79 766.154 1294.51 Q767.528 1294.22 768.83 1294.22 Q772.346 1294.22 774.082 1296.05 Q775.818 1297.87 775.818 1301.57 Z" fill="#000000" fill-rule="evenodd" fill-opacity="1" /><path clip-path="url(#clip900)" d="M 0 0 M792.079 1301.04 L792.079 1310.82 L789.417 1310.82 L789.417 1301.12 Q789.417 1298.82 788.52 1297.68 Q787.623 1296.54 785.829 1296.54 Q783.674 1296.54 782.43 1297.91 Q781.185 1299.29 781.185 1301.66 L781.185 1310.82 L778.509 1310.82 L778.509 1294.61 L781.185 1294.61 L781.185 1297.13 Q782.14 1295.67 783.428 1294.95 Q784.73 1294.22 786.423 1294.22 Q789.215 1294.22 790.647 1295.96 Q792.079 1297.68 792.079 1301.04 Z" fill="#000000" fill-rule="evenodd" fill-opacity="1" /><path clip-path="url(#clip900)" d="M 0 0 M805.534 1297.07 L805.534 1288.31 L808.196 1288.31 L808.196 1310.82 L805.534 1310.82 L805.534 1308.39 Q804.695 1309.83 803.408 1310.54 Q802.134 1311.24 800.34 1311.24 Q797.403 1311.24 795.552 1308.89 Q793.714 1306.55 793.714 1302.73 Q793.714 1298.91 795.552 1296.57 Q797.403 1294.22 800.34 1294.22 Q802.134 1294.22 803.408 1294.93 Q804.695 1295.63 805.534 1297.07 M796.463 1302.73 Q796.463 1305.67 797.664 1307.35 Q798.879 1309.01 800.991 1309.01 Q803.104 1309.01 804.319 1307.35 Q805.534 1305.67 805.534 1302.73 Q805.534 1299.79 804.319 1298.13 Q803.104 1296.45 800.991 1296.45 Q798.879 1296.45 797.664 1298.13 Q796.463 1299.79 796.463 1302.73 Z" fill="#000000" fill-rule="evenodd" fill-opacity="1" /><path clip-path="url(#clip900)" d="M 0 0 M823.3 1315.74 L823.3 1317.81 L807.907 1317.81 L807.907 1315.74 L823.3 1315.74 Z" fill="#000000" fill-rule="evenodd" fill-opacity="1" /><path clip-path="url(#clip900)" d="M 0 0 M842.383 1290.88 L842.383 1293.96 Q840.907 1292.59 839.229 1291.91 Q837.565 1291.23 835.685 1291.23 Q831.981 1291.23 830.013 1293.5 Q828.046 1295.76 828.046 1300.04 Q828.046 1304.31 830.013 1306.58 Q831.981 1308.84 835.685 1308.84 Q837.565 1308.84 839.229 1308.16 Q840.907 1307.48 842.383 1306.1 L842.383 1309.15 Q840.849 1310.2 839.128 1310.72 Q837.421 1311.24 835.511 1311.24 Q830.606 1311.24 827.785 1308.24 Q824.964 1305.23 824.964 1300.04 Q824.964 1294.83 827.785 1291.84 Q830.606 1288.83 835.511 1288.83 Q837.45 1288.83 839.157 1289.35 Q840.878 1289.85 842.383 1290.88 Z" fill="#000000" fill-rule="evenodd" fill-opacity="1" /><path clip-path="url(#clip900)" d="M 0 0 M851.454 1296.48 Q849.313 1296.48 848.069 1298.16 Q846.825 1299.82 846.825 1302.73 Q846.825 1305.64 848.054 1307.32 Q849.298 1308.98 851.454 1308.98 Q853.581 1308.98 854.825 1307.3 Q856.069 1305.62 856.069 1302.73 Q856.069 1299.85 854.825 1298.17 Q853.581 1296.48 851.454 1296.48 M851.454 1294.22 Q854.926 1294.22 856.908 1296.48 Q858.89 1298.74 858.89 1302.73 Q858.89 1306.71 856.908 1308.98 Q854.926 1311.24 851.454 1311.24 Q847.967 1311.24 845.985 1308.98 Q844.018 1306.71 844.018 1302.73 Q844.018 1298.74 845.985 1296.48 Q847.967 1294.22 851.454 1294.22 Z" fill="#000000" fill-rule="evenodd" fill-opacity="1" /><path clip-path="url(#clip900)" d="M 0 0 M875.152 1301.04 L875.152 1310.82 L872.49 1310.82 L872.49 1301.12 Q872.49 1298.82 871.593 1297.68 Q870.696 1296.54 868.902 1296.54 Q866.746 1296.54 865.502 1297.91 Q864.258 1299.29 864.258 1301.66 L864.258 1310.82 L861.581 1310.82 L861.581 1294.61 L864.258 1294.61 L864.258 1297.13 Q865.213 1295.67 866.5 1294.95 Q867.802 1294.22 869.495 1294.22 Q872.287 1294.22 873.72 1295.96 Q875.152 1297.68 875.152 1301.04 Z" fill="#000000" fill-rule="evenodd" fill-opacity="1" /><path clip-path="url(#clip900)" d="M 0 0 M888.274 1295.09 L888.274 1297.61 Q887.145 1297.03 885.93 1296.74 Q884.715 1296.45 883.413 1296.45 Q881.431 1296.45 880.433 1297.06 Q879.449 1297.67 879.449 1298.88 Q879.449 1299.81 880.158 1300.34 Q880.867 1300.86 883.008 1301.34 L883.919 1301.54 Q886.755 1302.15 887.941 1303.27 Q889.142 1304.37 889.142 1306.35 Q889.142 1308.6 887.348 1309.92 Q885.569 1311.24 882.444 1311.24 Q881.141 1311.24 879.724 1310.98 Q878.32 1310.73 876.758 1310.23 L876.758 1307.48 Q878.234 1308.24 879.666 1308.63 Q881.098 1309.01 882.501 1309.01 Q884.382 1309.01 885.395 1308.37 Q886.408 1307.72 886.408 1306.55 Q886.408 1305.47 885.67 1304.89 Q884.946 1304.31 882.472 1303.77 L881.547 1303.56 Q879.073 1303.03 877.973 1301.96 Q876.874 1300.88 876.874 1299 Q876.874 1296.71 878.494 1295.47 Q880.114 1294.22 883.095 1294.22 Q884.57 1294.22 885.872 1294.44 Q887.174 1294.66 888.274 1295.09 Z" fill="#000000" fill-rule="evenodd" fill-opacity="1" /><path clip-path="url(#clip900)" d="M 0 0 M891.659 1304.42 L891.659 1294.61 L894.321 1294.61 L894.321 1304.32 Q894.321 1306.62 895.218 1307.78 Q896.115 1308.92 897.909 1308.92 Q900.065 1308.92 901.309 1307.55 Q902.568 1306.17 902.568 1303.8 L902.568 1294.61 L905.23 1294.61 L905.23 1310.82 L902.568 1310.82 L902.568 1308.33 Q901.599 1309.81 900.311 1310.53 Q899.038 1311.24 897.345 1311.24 Q894.553 1311.24 893.106 1309.5 Q891.659 1307.77 891.659 1304.42 M898.358 1294.22 L898.358 1294.22 Z" fill="#000000" fill-rule="evenodd" fill-opacity="1" /><path clip-path="url(#clip900)" d="M 0 0 M908.022 1288.31 L910.684 1288.31 L910.684 1310.82 L908.022 1310.82 L908.022 1288.31 Z" fill="#000000" fill-rule="evenodd" fill-opacity="1" /><path clip-path="url(#clip900)" d="M 0 0 M916.109 1290.01 L916.109 1294.61 L921.593 1294.61 L921.593 1296.68 L916.109 1296.68 L916.109 1305.48 Q916.109 1307.46 916.645 1308.03 Q917.195 1308.59 918.858 1308.59 L921.593 1308.59 L921.593 1310.82 L918.858 1310.82 Q915.777 1310.82 914.605 1309.68 Q913.433 1308.52 913.433 1305.48 L913.433 1296.68 L911.48 1296.68 L911.48 1294.61 L913.433 1294.61 L913.433 1290.01 L916.109 1290.01 Z" fill="#000000" fill-rule="evenodd" fill-opacity="1" /><path clip-path="url(#clip900)" d="M 0 0 M931.749 1302.67 Q928.523 1302.67 927.278 1303.41 Q926.034 1304.15 926.034 1305.93 Q926.034 1307.35 926.96 1308.19 Q927.9 1309.01 929.506 1309.01 Q931.72 1309.01 933.051 1307.45 Q934.396 1305.87 934.396 1303.27 L934.396 1302.67 L931.749 1302.67 M937.058 1301.57 L937.058 1310.82 L934.396 1310.82 L934.396 1308.36 Q933.485 1309.83 932.125 1310.54 Q930.765 1311.24 928.797 1311.24 Q926.309 1311.24 924.833 1309.85 Q923.372 1308.45 923.372 1306.1 Q923.372 1303.37 925.195 1301.98 Q927.032 1300.59 930.664 1300.59 L934.396 1300.59 L934.396 1300.33 Q934.396 1298.49 933.181 1297.49 Q931.98 1296.48 929.796 1296.48 Q928.407 1296.48 927.09 1296.81 Q925.774 1297.15 924.558 1297.81 L924.558 1295.35 Q926.02 1294.79 927.394 1294.51 Q928.769 1294.22 930.071 1294.22 Q933.586 1294.22 935.322 1296.05 Q937.058 1297.87 937.058 1301.57 Z" fill="#000000" fill-rule="evenodd" fill-opacity="1" /><path clip-path="url(#clip900)" d="M 0 0 M953.32 1301.04 L953.32 1310.82 L950.658 1310.82 L950.658 1301.12 Q950.658 1298.82 949.761 1297.68 Q948.864 1296.54 947.07 1296.54 Q944.914 1296.54 943.67 1297.91 Q942.426 1299.29 942.426 1301.66 L942.426 1310.82 L939.749 1310.82 L939.749 1294.61 L942.426 1294.61 L942.426 1297.13 Q943.381 1295.67 944.668 1294.95 Q945.97 1294.22 947.663 1294.22 Q950.455 1294.22 951.888 1295.96 Q953.32 1297.68 953.32 1301.04 Z" fill="#000000" fill-rule="evenodd" fill-opacity="1" /><path clip-path="url(#clip900)" d="M 0 0 M958.745 1290.01 L958.745 1294.61 L964.228 1294.61 L964.228 1296.68 L958.745 1296.68 L958.745 1305.48 Q958.745 1307.46 959.281 1308.03 Q959.83 1308.59 961.494 1308.59 L964.228 1308.59 L964.228 1310.82 L961.494 1310.82 Q958.412 1310.82 957.241 1309.68 Q956.069 1308.52 956.069 1305.48 L956.069 1296.68 L954.116 1296.68 L954.116 1294.61 L956.069 1294.61 L956.069 1290.01 L958.745 1290.01 Z" fill="#000000" fill-rule="evenodd" fill-opacity="1" /><path clip-path="url(#clip900)" d="M 0 0 M979.332 1315.74 L979.332 1317.81 L963.939 1317.81 L963.939 1315.74 L979.332 1315.74 Z" fill="#000000" fill-rule="evenodd" fill-opacity="1" /><path clip-path="url(#clip900)" d="M 0 0 M992.483 1300.69 Q993.424 1301.01 994.306 1302.05 Q995.203 1303.09 996.1 1304.92 L999.066 1310.82 L995.927 1310.82 L993.163 1305.28 Q992.093 1303.11 991.08 1302.4 Q990.082 1301.69 988.346 1301.69 L985.163 1301.69 L985.163 1310.82 L982.24 1310.82 L982.24 1289.22 L988.838 1289.22 Q992.541 1289.22 994.364 1290.77 Q996.187 1292.31 996.187 1295.44 Q996.187 1297.48 995.232 1298.82 Q994.292 1300.17 992.483 1300.69 M985.163 1291.62 L985.163 1299.29 L988.838 1299.29 Q990.95 1299.29 992.021 1298.32 Q993.106 1297.33 993.106 1295.44 Q993.106 1293.54 992.021 1292.59 Q990.95 1291.62 988.838 1291.62 L985.163 1291.62 Z" fill="#000000" fill-rule="evenodd" fill-opacity="1" /><path clip-path="url(#clip900)" d="M 0 0 M1014.39 1302.05 L1014.39 1303.35 L1002.15 1303.35 Q1002.32 1306.1 1003.8 1307.55 Q1005.29 1308.98 1007.93 1308.98 Q1009.47 1308.98 1010.9 1308.6 Q1012.35 1308.23 1013.77 1307.48 L1013.77 1309.99 Q1012.33 1310.6 1010.83 1310.92 Q1009.32 1311.24 1007.78 1311.24 Q1003.9 1311.24 1001.63 1308.98 Q999.37 1306.72 999.37 1302.88 Q999.37 1298.9 1001.51 1296.57 Q1003.67 1294.22 1007.31 1294.22 Q1010.58 1294.22 1012.48 1296.34 Q1014.39 1298.43 1014.39 1302.05 M1011.73 1301.27 Q1011.7 1299.09 1010.5 1297.78 Q1009.31 1296.48 1007.34 1296.48 Q1005.11 1296.48 1003.77 1297.74 Q1002.44 1299 1002.23 1301.28 L1011.73 1301.27 Z" fill="#000000" fill-rule="evenodd" fill-opacity="1" /><path clip-path="url(#clip900)" d="M 0 0 M1018.77 1302.73 Q1018.77 1305.67 1019.97 1307.35 Q1021.19 1309.01 1023.3 1309.01 Q1025.41 1309.01 1026.63 1307.35 Q1027.84 1305.67 1027.84 1302.73 Q1027.84 1299.79 1026.63 1298.13 Q1025.41 1296.45 1023.3 1296.45 Q1021.19 1296.45 1019.97 1298.13 Q1018.77 1299.79 1018.77 1302.73 M1027.84 1308.39 Q1027 1309.83 1025.72 1310.54 Q1024.44 1311.24 1022.65 1311.24 Q1019.71 1311.24 1017.86 1308.89 Q1016.02 1306.55 1016.02 1302.73 Q1016.02 1298.91 1017.86 1296.57 Q1019.71 1294.22 1022.65 1294.22 Q1024.44 1294.22 1025.72 1294.93 Q1027 1295.63 1027.84 1297.07 L1027.84 1294.61 L1030.5 1294.61 L1030.5 1316.98 L1027.84 1316.98 L1027.84 1308.39 Z" fill="#000000" fill-rule="evenodd" fill-opacity="1" /><path clip-path="url(#clip900)" d="M 0 0 M1033.02 1304.42 L1033.02 1294.61 L1035.68 1294.61 L1035.68 1304.32 Q1035.68 1306.62 1036.58 1307.78 Q1037.48 1308.92 1039.27 1308.92 Q1041.43 1308.92 1042.67 1307.55 Q1043.93 1306.17 1043.93 1303.8 L1043.93 1294.61 L1046.59 1294.61 L1046.59 1310.82 L1043.93 1310.82 L1043.93 1308.33 Q1042.96 1309.81 1041.67 1310.53 Q1040.4 1311.24 1038.71 1311.24 Q1035.91 1311.24 1034.47 1309.5 Q1033.02 1307.77 1033.02 1304.42 M1039.72 1294.22 L1039.72 1294.22 Z" fill="#000000" fill-rule="evenodd" fill-opacity="1" /><path clip-path="url(#clip900)" d="M 0 0 M1063.24 1302.05 L1063.24 1303.35 L1051 1303.35 Q1051.18 1306.1 1052.65 1307.55 Q1054.14 1308.98 1056.79 1308.98 Q1058.33 1308.98 1059.76 1308.6 Q1061.2 1308.23 1062.62 1307.48 L1062.62 1309.99 Q1061.19 1310.6 1059.69 1310.92 Q1058.18 1311.24 1056.63 1311.24 Q1052.76 1311.24 1050.48 1308.98 Q1048.23 1306.72 1048.23 1302.88 Q1048.23 1298.9 1050.37 1296.57 Q1052.52 1294.22 1056.17 1294.22 Q1059.44 1294.22 1061.33 1296.34 Q1063.24 1298.43 1063.24 1302.05 M1060.58 1301.27 Q1060.55 1299.09 1059.35 1297.78 Q1058.17 1296.48 1056.2 1296.48 Q1053.97 1296.48 1052.62 1297.74 Q1051.29 1299 1051.09 1301.28 L1060.58 1301.27 Z" fill="#000000" fill-rule="evenodd" fill-opacity="1" /><path clip-path="url(#clip900)" d="M 0 0 M1076.37 1295.09 L1076.37 1297.61 Q1075.24 1297.03 1074.02 1296.74 Q1072.81 1296.45 1071.51 1296.45 Q1069.52 1296.45 1068.52 1297.06 Q1067.54 1297.67 1067.54 1298.88 Q1067.54 1299.81 1068.25 1300.34 Q1068.96 1300.86 1071.1 1301.34 L1072.01 1301.54 Q1074.85 1302.15 1076.03 1303.27 Q1077.23 1304.37 1077.23 1306.35 Q1077.23 1308.6 1075.44 1309.92 Q1073.66 1311.24 1070.54 1311.24 Q1069.23 1311.24 1067.82 1310.98 Q1066.41 1310.73 1064.85 1310.23 L1064.85 1307.48 Q1066.33 1308.24 1067.76 1308.63 Q1069.19 1309.01 1070.59 1309.01 Q1072.47 1309.01 1073.49 1308.37 Q1074.5 1307.72 1074.5 1306.55 Q1074.5 1305.47 1073.76 1304.89 Q1073.04 1304.31 1070.56 1303.77 L1069.64 1303.56 Q1067.16 1303.03 1066.07 1301.96 Q1064.97 1300.88 1064.97 1299 Q1064.97 1296.71 1066.59 1295.47 Q1068.21 1294.22 1071.19 1294.22 Q1072.66 1294.22 1073.96 1294.44 Q1075.27 1294.66 1076.37 1295.09 Z" fill="#000000" fill-rule="evenodd" fill-opacity="1" /><path clip-path="url(#clip900)" d="M 0 0 M1082.66 1290.01 L1082.66 1294.61 L1088.14 1294.61 L1088.14 1296.68 L1082.66 1296.68 L1082.66 1305.48 Q1082.66 1307.46 1083.19 1308.03 Q1083.74 1308.59 1085.41 1308.59 L1088.14 1308.59 L1088.14 1310.82 L1085.41 1310.82 Q1082.33 1310.82 1081.15 1309.68 Q1079.98 1308.52 1079.98 1305.48 L1079.98 1296.68 L1078.03 1296.68 L1078.03 1294.61 L1079.98 1294.61 L1079.98 1290.01 L1082.66 1290.01 Z" fill="#000000" fill-rule="evenodd" fill-opacity="1" /><path clip-path="url(#clip900)" d="M 0 0 M1101.26 1295.09 L1101.26 1297.61 Q1100.14 1297.03 1098.92 1296.74 Q1097.71 1296.45 1096.4 1296.45 Q1094.42 1296.45 1093.42 1297.06 Q1092.44 1297.67 1092.44 1298.88 Q1092.44 1299.81 1093.15 1300.34 Q1093.86 1300.86 1096 1301.34 L1096.91 1301.54 Q1099.75 1302.15 1100.93 1303.27 Q1102.13 1304.37 1102.13 1306.35 Q1102.13 1308.6 1100.34 1309.92 Q1098.56 1311.24 1095.43 1311.24 Q1094.13 1311.24 1092.71 1310.98 Q1091.31 1310.73 1089.75 1310.23 L1089.75 1307.48 Q1091.22 1308.24 1092.66 1308.63 Q1094.09 1309.01 1095.49 1309.01 Q1097.37 1309.01 1098.39 1308.37 Q1099.4 1307.72 1099.4 1306.55 Q1099.4 1305.47 1098.66 1304.89 Q1097.94 1304.31 1095.46 1303.77 L1094.54 1303.56 Q1092.06 1303.03 1090.96 1301.96 Q1089.86 1300.88 1089.86 1299 Q1089.86 1296.71 1091.48 1295.47 Q1093.11 1294.22 1096.09 1294.22 Q1097.56 1294.22 1098.86 1294.44 Q1100.17 1294.66 1101.26 1295.09 Z" fill="#000000" fill-rule="evenodd" fill-opacity="1" /><path clip-path="url(#clip900)" d="M 0 0 M1265.62 1238.05 L1265.62 1254.84 L1269.15 1254.84 Q1273.62 1254.84 1275.69 1252.82 Q1277.77 1250.79 1277.77 1246.42 Q1277.77 1242.08 1275.69 1240.07 Q1273.62 1238.05 1269.15 1238.05 L1265.62 1238.05 M1262.7 1235.65 L1268.7 1235.65 Q1274.98 1235.65 1277.92 1238.26 Q1280.85 1240.87 1280.85 1246.42 Q1280.85 1252.01 1277.9 1254.63 Q1274.95 1257.25 1268.7 1257.25 L1262.7 1257.25 L1262.7 1235.65 Z" fill="#000000" fill-rule="evenodd" fill-opacity="1" /><path clip-path="url(#clip900)" d="M 0 0 M1297.5 1248.48 L1297.5 1249.78 L1285.26 1249.78 Q1285.44 1252.53 1286.91 1253.98 Q1288.4 1255.41 1291.05 1255.41 Q1292.59 1255.41 1294.02 1255.03 Q1295.46 1254.66 1296.88 1253.9 L1296.88 1256.42 Q1295.45 1257.03 1293.95 1257.35 Q1292.44 1257.66 1290.89 1257.66 Q1287.02 1257.66 1284.74 1255.41 Q1282.49 1253.15 1282.49 1249.3 Q1282.49 1245.32 1284.63 1242.99 Q1286.78 1240.65 1290.43 1240.65 Q1293.7 1240.65 1295.59 1242.76 Q1297.5 1244.86 1297.5 1248.48 M1294.84 1247.7 Q1294.81 1245.51 1293.61 1244.21 Q1292.43 1242.91 1290.46 1242.91 Q1288.23 1242.91 1286.89 1244.17 Q1285.55 1245.43 1285.35 1247.71 L1294.84 1247.7 Z" fill="#000000" fill-rule="evenodd" fill-opacity="1" /><path clip-path="url(#clip900)" d="M 0 0 M1310.63 1241.52 L1310.63 1244.04 Q1309.5 1243.46 1308.28 1243.17 Q1307.07 1242.88 1305.77 1242.88 Q1303.78 1242.88 1302.79 1243.49 Q1301.8 1244.09 1301.8 1245.31 Q1301.8 1246.24 1302.51 1246.77 Q1303.22 1247.29 1305.36 1247.77 L1306.27 1247.97 Q1309.11 1248.58 1310.29 1249.69 Q1311.49 1250.79 1311.49 1252.77 Q1311.49 1255.03 1309.7 1256.35 Q1307.92 1257.66 1304.8 1257.66 Q1303.49 1257.66 1302.08 1257.4 Q1300.67 1257.16 1299.11 1256.65 L1299.11 1253.9 Q1300.59 1254.67 1302.02 1255.06 Q1303.45 1255.44 1304.85 1255.44 Q1306.73 1255.44 1307.75 1254.8 Q1308.76 1254.15 1308.76 1252.98 Q1308.76 1251.89 1308.02 1251.31 Q1307.3 1250.74 1304.83 1250.2 L1303.9 1249.98 Q1301.43 1249.46 1300.33 1248.39 Q1299.23 1247.31 1299.23 1245.43 Q1299.23 1243.14 1300.85 1241.9 Q1302.47 1240.65 1305.45 1240.65 Q1306.92 1240.65 1308.22 1240.87 Q1309.53 1241.09 1310.63 1241.52 Z" fill="#000000" fill-rule="evenodd" fill-opacity="1" /><path clip-path="url(#clip900)" d="M 0 0 M1314.29 1241.04 L1316.95 1241.04 L1316.95 1257.25 L1314.29 1257.25 L1314.29 1241.04 M1314.29 1234.73 L1316.95 1234.73 L1316.95 1238.1 L1314.29 1238.1 L1314.29 1234.73 Z" fill="#000000" fill-rule="evenodd" fill-opacity="1" /><path clip-path="url(#clip900)" d="M 0 0 M1330.4 1248.96 Q1330.4 1246.06 1329.2 1244.47 Q1328.02 1242.88 1325.86 1242.88 Q1323.72 1242.88 1322.52 1244.47 Q1321.33 1246.06 1321.33 1248.96 Q1321.33 1251.83 1322.52 1253.43 Q1323.72 1255.02 1325.86 1255.02 Q1328.02 1255.02 1329.2 1253.43 Q1330.4 1251.83 1330.4 1248.96 M1333.07 1255.23 Q1333.07 1259.37 1331.23 1261.38 Q1329.39 1263.41 1325.6 1263.41 Q1324.2 1263.41 1322.95 1263.19 Q1321.71 1262.99 1320.54 1262.55 L1320.54 1259.97 Q1321.71 1260.6 1322.85 1260.91 Q1323.99 1261.21 1325.18 1261.21 Q1327.8 1261.21 1329.1 1259.84 Q1330.4 1258.48 1330.4 1255.71 L1330.4 1254.4 Q1329.58 1255.83 1328.29 1256.54 Q1327 1257.25 1325.21 1257.25 Q1322.23 1257.25 1320.41 1254.97 Q1318.58 1252.7 1318.58 1248.96 Q1318.58 1245.19 1320.41 1242.92 Q1322.23 1240.65 1325.21 1240.65 Q1327 1240.65 1328.29 1241.36 Q1329.58 1242.07 1330.4 1243.5 L1330.4 1241.04 L1333.07 1241.04 L1333.07 1255.23 Z" fill="#000000" fill-rule="evenodd" fill-opacity="1" /><path clip-path="url(#clip900)" d="M 0 0 M1349.33 1247.47 L1349.33 1257.25 L1346.67 1257.25 L1346.67 1247.55 Q1346.67 1245.25 1345.77 1244.11 Q1344.87 1242.97 1343.08 1242.97 Q1340.92 1242.97 1339.68 1244.34 Q1338.43 1245.71 1338.43 1248.09 L1338.43 1257.25 L1335.76 1257.25 L1335.76 1241.04 L1338.43 1241.04 L1338.43 1243.56 Q1339.39 1242.1 1340.68 1241.37 Q1341.98 1240.65 1343.67 1240.65 Q1346.46 1240.65 1347.89 1242.39 Q1349.33 1244.11 1349.33 1247.47 Z" fill="#000000" fill-rule="evenodd" fill-opacity="1" /><path clip-path="url(#clip900)" d="M 0 0 M1364.43 1262.16 L1364.43 1264.23 L1349.04 1264.23 L1349.04 1262.16 L1364.43 1262.16 Z" fill="#000000" fill-rule="evenodd" fill-opacity="1" /><path clip-path="url(#clip900)" d="M 0 0 M1377.58 1247.12 Q1378.52 1247.44 1379.41 1248.48 Q1380.3 1249.52 1381.2 1251.34 L1384.16 1257.25 L1381.03 1257.25 L1378.26 1251.7 Q1377.19 1249.53 1376.18 1248.83 Q1375.18 1248.12 1373.44 1248.12 L1370.26 1248.12 L1370.26 1257.25 L1367.34 1257.25 L1367.34 1235.65 L1373.94 1235.65 Q1377.64 1235.65 1379.46 1237.19 Q1381.29 1238.74 1381.29 1241.87 Q1381.29 1243.91 1380.33 1245.25 Q1379.39 1246.6 1377.58 1247.12 M1370.26 1238.05 L1370.26 1245.71 L1373.94 1245.71 Q1376.05 1245.71 1377.12 1244.75 Q1378.2 1243.76 1378.2 1241.87 Q1378.2 1239.97 1377.12 1239.02 Q1376.05 1238.05 1373.94 1238.05 L1370.26 1238.05 Z" fill="#000000" fill-rule="evenodd" fill-opacity="1" /><path clip-path="url(#clip900)" d="M 0 0 M1399.49 1248.48 L1399.49 1249.78 L1387.25 1249.78 Q1387.42 1252.53 1388.9 1253.98 Q1390.39 1255.41 1393.03 1255.41 Q1394.57 1255.41 1396 1255.03 Q1397.45 1254.66 1398.86 1253.9 L1398.86 1256.42 Q1397.43 1257.03 1395.93 1257.35 Q1394.42 1257.66 1392.87 1257.66 Q1389 1257.66 1386.73 1255.41 Q1384.47 1253.15 1384.47 1249.3 Q1384.47 1245.32 1386.61 1242.99 Q1388.77 1240.65 1392.41 1240.65 Q1395.68 1240.65 1397.58 1242.76 Q1399.49 1244.86 1399.49 1248.48 M1396.82 1247.7 Q1396.8 1245.51 1395.59 1244.21 Q1394.41 1242.91 1392.44 1242.91 Q1390.21 1242.91 1388.87 1244.17 Q1387.54 1245.43 1387.33 1247.71 L1396.82 1247.7 Z" fill="#000000" fill-rule="evenodd" fill-opacity="1" /><path clip-path="url(#clip900)" d="M 0 0 M1409.64 1249.1 Q1406.42 1249.1 1405.17 1249.84 Q1403.93 1250.58 1403.93 1252.36 Q1403.93 1253.77 1404.85 1254.61 Q1405.79 1255.44 1407.4 1255.44 Q1409.61 1255.44 1410.94 1253.87 Q1412.29 1252.3 1412.29 1249.69 L1412.29 1249.1 L1409.64 1249.1 M1414.95 1248 L1414.95 1257.25 L1412.29 1257.25 L1412.29 1254.79 Q1411.38 1256.26 1410.02 1256.97 Q1408.66 1257.66 1406.69 1257.66 Q1404.2 1257.66 1402.73 1256.28 Q1401.27 1254.87 1401.27 1252.53 Q1401.27 1249.79 1403.09 1248.41 Q1404.93 1247.02 1408.56 1247.02 L1412.29 1247.02 L1412.29 1246.76 Q1412.29 1244.92 1411.07 1243.92 Q1409.87 1242.91 1407.69 1242.91 Q1406.3 1242.91 1404.98 1243.24 Q1403.67 1243.57 1402.45 1244.24 L1402.45 1241.78 Q1403.91 1241.22 1405.29 1240.94 Q1406.66 1240.65 1407.96 1240.65 Q1411.48 1240.65 1413.22 1242.47 Q1414.95 1244.3 1414.95 1248 Z" fill="#000000" fill-rule="evenodd" fill-opacity="1" /><path clip-path="url(#clip900)" d="M 0 0 M1428.07 1241.52 L1428.07 1244.04 Q1426.95 1243.46 1425.73 1243.17 Q1424.51 1242.88 1423.21 1242.88 Q1421.23 1242.88 1420.23 1243.49 Q1419.25 1244.09 1419.25 1245.31 Q1419.25 1246.24 1419.96 1246.77 Q1420.67 1247.29 1422.81 1247.77 L1423.72 1247.97 Q1426.55 1248.58 1427.74 1249.69 Q1428.94 1250.79 1428.94 1252.77 Q1428.94 1255.03 1427.15 1256.35 Q1425.37 1257.66 1422.24 1257.66 Q1420.94 1257.66 1419.52 1257.4 Q1418.12 1257.16 1416.56 1256.65 L1416.56 1253.9 Q1418.03 1254.67 1419.47 1255.06 Q1420.9 1255.44 1422.3 1255.44 Q1424.18 1255.44 1425.19 1254.8 Q1426.21 1254.15 1426.21 1252.98 Q1426.21 1251.89 1425.47 1251.31 Q1424.75 1250.74 1422.27 1250.2 L1421.35 1249.98 Q1418.87 1249.46 1417.77 1248.39 Q1416.67 1247.31 1416.67 1245.43 Q1416.67 1243.14 1418.29 1241.9 Q1419.91 1240.65 1422.89 1240.65 Q1424.37 1240.65 1425.67 1240.87 Q1426.97 1241.09 1428.07 1241.52 Z" fill="#000000" fill-rule="evenodd" fill-opacity="1" /><path clip-path="url(#clip900)" d="M 0 0 M1438.01 1242.91 Q1435.87 1242.91 1434.63 1244.59 Q1433.38 1246.25 1433.38 1249.16 Q1433.38 1252.07 1434.61 1253.74 Q1435.86 1255.41 1438.01 1255.41 Q1440.14 1255.41 1441.38 1253.73 Q1442.63 1252.05 1442.63 1249.16 Q1442.63 1246.28 1441.38 1244.6 Q1440.14 1242.91 1438.01 1242.91 M1438.01 1240.65 Q1441.49 1240.65 1443.47 1242.91 Q1445.45 1245.17 1445.45 1249.16 Q1445.45 1253.14 1443.47 1255.41 Q1441.49 1257.66 1438.01 1257.66 Q1434.53 1257.66 1432.54 1255.41 Q1430.58 1253.14 1430.58 1249.16 Q1430.58 1245.17 1432.54 1242.91 Q1434.53 1240.65 1438.01 1240.65 Z" fill="#000000" fill-rule="evenodd" fill-opacity="1" /><path clip-path="url(#clip900)" d="M 0 0 M1461.71 1247.47 L1461.71 1257.25 L1459.05 1257.25 L1459.05 1247.55 Q1459.05 1245.25 1458.15 1244.11 Q1457.25 1242.97 1455.46 1242.97 Q1453.31 1242.97 1452.06 1244.34 Q1450.82 1245.71 1450.82 1248.09 L1450.82 1257.25 L1448.14 1257.25 L1448.14 1241.04 L1450.82 1241.04 L1450.82 1243.56 Q1451.77 1242.1 1453.06 1241.37 Q1454.36 1240.65 1456.05 1240.65 Q1458.85 1240.65 1460.28 1242.39 Q1461.71 1244.11 1461.71 1247.47 Z" fill="#000000" fill-rule="evenodd" fill-opacity="1" /><path clip-path="url(#clip900)" d="M 0 0 M1464.5 1241.04 L1467.17 1241.04 L1467.17 1257.25 L1464.5 1257.25 L1464.5 1241.04 M1464.5 1234.73 L1467.17 1234.73 L1467.17 1238.1 L1464.5 1238.1 L1464.5 1234.73 Z" fill="#000000" fill-rule="evenodd" fill-opacity="1" /><path clip-path="url(#clip900)" d="M 0 0 M1483.43 1247.47 L1483.43 1257.25 L1480.76 1257.25 L1480.76 1247.55 Q1480.76 1245.25 1479.87 1244.11 Q1478.97 1242.97 1477.18 1242.97 Q1475.02 1242.97 1473.78 1244.34 Q1472.53 1245.71 1472.53 1248.09 L1472.53 1257.25 L1469.86 1257.25 L1469.86 1241.04 L1472.53 1241.04 L1472.53 1243.56 Q1473.49 1242.1 1474.77 1241.37 Q1476.08 1240.65 1477.77 1240.65 Q1480.56 1240.65 1481.99 1242.39 Q1483.43 1244.11 1483.43 1247.47 Z" fill="#000000" fill-rule="evenodd" fill-opacity="1" /><path clip-path="url(#clip900)" d="M 0 0 M1496.88 1248.96 Q1496.88 1246.06 1495.68 1244.47 Q1494.49 1242.88 1492.34 1242.88 Q1490.2 1242.88 1489 1244.47 Q1487.81 1246.06 1487.81 1248.96 Q1487.81 1251.83 1489 1253.43 Q1490.2 1255.02 1492.34 1255.02 Q1494.49 1255.02 1495.68 1253.43 Q1496.88 1251.83 1496.88 1248.96 M1499.54 1255.23 Q1499.54 1259.37 1497.71 1261.38 Q1495.87 1263.41 1492.08 1263.41 Q1490.67 1263.41 1489.43 1263.19 Q1488.19 1262.99 1487.01 1262.55 L1487.01 1259.97 Q1488.19 1260.6 1489.33 1260.91 Q1490.47 1261.21 1491.66 1261.21 Q1494.28 1261.21 1495.58 1259.84 Q1496.88 1258.48 1496.88 1255.71 L1496.88 1254.4 Q1496.06 1255.83 1494.77 1256.54 Q1493.48 1257.25 1491.69 1257.25 Q1488.71 1257.25 1486.88 1254.97 Q1485.06 1252.7 1485.06 1248.96 Q1485.06 1245.19 1486.88 1242.92 Q1488.71 1240.65 1491.69 1240.65 Q1493.48 1240.65 1494.77 1241.36 Q1496.06 1242.07 1496.88 1243.5 L1496.88 1241.04 L1499.54 1241.04 L1499.54 1255.23 Z" fill="#000000" fill-rule="evenodd" fill-opacity="1" /><path clip-path="url(#clip900)" d="M 0 0 M322.222 822.384 L322.222 825.466 Q320.746 824.091 319.068 823.411 Q317.404 822.731 315.523 822.731 Q311.819 822.731 309.852 825.003 Q307.884 827.26 307.884 831.542 Q307.884 835.81 309.852 838.081 Q311.819 840.338 315.523 840.338 Q317.404 840.338 319.068 839.658 Q320.746 838.978 322.222 837.604 L322.222 840.657 Q320.688 841.698 318.966 842.219 Q317.259 842.74 315.349 842.74 Q310.445 842.74 307.624 839.745 Q304.803 836.736 304.803 831.542 Q304.803 826.334 307.624 823.339 Q310.445 820.33 315.349 820.33 Q317.288 820.33 318.995 820.851 Q320.717 821.357 322.222 822.384 Z" fill="#000000" fill-rule="evenodd" fill-opacity="1" /><path clip-path="url(#clip900)" d="M 0 0 M331.293 827.983 Q329.151 827.983 327.907 829.661 Q326.663 831.325 326.663 834.233 Q326.663 837.141 327.893 838.819 Q329.137 840.483 331.293 840.483 Q333.419 840.483 334.664 838.805 Q335.908 837.126 335.908 834.233 Q335.908 831.354 334.664 829.676 Q333.419 827.983 331.293 827.983 M331.293 825.726 Q334.765 825.726 336.747 827.983 Q338.729 830.24 338.729 834.233 Q338.729 838.212 336.747 840.483 Q334.765 842.74 331.293 842.74 Q327.806 842.74 325.824 840.483 Q323.856 838.212 323.856 834.233 Q323.856 830.24 325.824 827.983 Q327.806 825.726 331.293 825.726 Z" fill="#000000" fill-rule="evenodd" fill-opacity="1" /><path clip-path="url(#clip900)" d="M 0 0 M341.521 819.809 L344.183 819.809 L344.183 842.32 L341.521 842.32 L341.521 819.809 Z" fill="#000000" fill-rule="evenodd" fill-opacity="1" /><path clip-path="url(#clip900)" d="M 0 0 M346.975 819.809 L349.637 819.809 L349.637 842.32 L346.975 842.32 L346.975 819.809 Z" fill="#000000" fill-rule="evenodd" fill-opacity="1" /><path clip-path="url(#clip900)" d="M 0 0 M359.794 834.175 Q356.567 834.175 355.323 834.913 Q354.079 835.651 354.079 837.43 Q354.079 838.848 355.005 839.687 Q355.945 840.512 357.551 840.512 Q359.765 840.512 361.096 838.949 Q362.441 837.372 362.441 834.768 L362.441 834.175 L359.794 834.175 M365.103 833.076 L365.103 842.32 L362.441 842.32 L362.441 839.861 Q361.53 841.337 360.17 842.045 Q358.81 842.74 356.842 842.74 Q354.354 842.74 352.878 841.351 Q351.417 839.948 351.417 837.604 Q351.417 834.87 353.24 833.481 Q355.077 832.092 358.709 832.092 L362.441 832.092 L362.441 831.831 Q362.441 829.994 361.226 828.996 Q360.025 827.983 357.841 827.983 Q356.452 827.983 355.135 828.316 Q353.819 828.649 352.603 829.314 L352.603 826.855 Q354.065 826.29 355.439 826.015 Q356.813 825.726 358.115 825.726 Q361.631 825.726 363.367 827.549 Q365.103 829.372 365.103 833.076 Z" fill="#000000" fill-rule="evenodd" fill-opacity="1" /><path clip-path="url(#clip900)" d="M 0 0 M379.527 834.233 Q379.527 831.296 378.312 829.632 Q377.111 827.954 374.999 827.954 Q372.887 827.954 371.672 829.632 Q370.471 831.296 370.471 834.233 Q370.471 837.17 371.672 838.848 Q372.887 840.512 374.999 840.512 Q377.111 840.512 378.312 838.848 Q379.527 837.17 379.527 834.233 M370.471 828.576 Q371.31 827.129 372.583 826.435 Q373.871 825.726 375.65 825.726 Q378.601 825.726 380.439 828.07 Q382.291 830.414 382.291 834.233 Q382.291 838.052 380.439 840.396 Q378.601 842.74 375.65 842.74 Q373.871 842.74 372.583 842.045 Q371.31 841.337 370.471 839.89 L370.471 842.32 L367.794 842.32 L367.794 819.809 L370.471 819.809 L370.471 828.576 Z" fill="#000000" fill-rule="evenodd" fill-opacity="1" /><path clip-path="url(#clip900)" d="M 0 0 M391.362 827.983 Q389.221 827.983 387.976 829.661 Q386.732 831.325 386.732 834.233 Q386.732 837.141 387.962 838.819 Q389.206 840.483 391.362 840.483 Q393.489 840.483 394.733 838.805 Q395.977 837.126 395.977 834.233 Q395.977 831.354 394.733 829.676 Q393.489 827.983 391.362 827.983 M391.362 825.726 Q394.834 825.726 396.816 827.983 Q398.798 830.24 398.798 834.233 Q398.798 838.212 396.816 840.483 Q394.834 842.74 391.362 842.74 Q387.875 842.74 385.893 840.483 Q383.926 838.212 383.926 834.233 Q383.926 830.24 385.893 827.983 Q387.875 825.726 391.362 825.726 Z" fill="#000000" fill-rule="evenodd" fill-opacity="1" /><path clip-path="url(#clip900)" d="M 0 0 M410.98 828.605 Q410.531 828.345 409.996 828.229 Q409.475 828.099 408.839 828.099 Q406.582 828.099 405.366 829.574 Q404.166 831.036 404.166 833.784 L404.166 842.32 L401.489 842.32 L401.489 826.117 L404.166 826.117 L404.166 828.634 Q405.005 827.158 406.35 826.449 Q407.696 825.726 409.62 825.726 Q409.895 825.726 410.227 825.769 Q410.56 825.798 410.965 825.871 L410.98 828.605 Z" fill="#000000" fill-rule="evenodd" fill-opacity="1" /><path clip-path="url(#clip900)" d="M 0 0 M421.136 834.175 Q417.91 834.175 416.665 834.913 Q415.421 835.651 415.421 837.43 Q415.421 838.848 416.347 839.687 Q417.288 840.512 418.893 840.512 Q421.107 840.512 422.438 838.949 Q423.784 837.372 423.784 834.768 L423.784 834.175 L421.136 834.175 M426.446 833.076 L426.446 842.32 L423.784 842.32 L423.784 839.861 Q422.872 841.337 421.512 842.045 Q420.152 842.74 418.185 842.74 Q415.696 842.74 414.22 841.351 Q412.759 839.948 412.759 837.604 Q412.759 834.87 414.582 833.481 Q416.42 832.092 420.051 832.092 L423.784 832.092 L423.784 831.831 Q423.784 829.994 422.568 828.996 Q421.367 827.983 419.183 827.983 Q417.794 827.983 416.477 828.316 Q415.161 828.649 413.946 829.314 L413.946 826.855 Q415.407 826.29 416.781 826.015 Q418.156 825.726 419.458 825.726 Q422.973 825.726 424.709 827.549 Q426.446 829.372 426.446 833.076 Z" fill="#000000" fill-rule="evenodd" fill-opacity="1" /><path clip-path="url(#clip900)" d="M 0 0 M431.871 821.516 L431.871 826.117 L437.354 826.117 L437.354 828.186 L431.871 828.186 L431.871 836.982 Q431.871 838.964 432.406 839.528 Q432.956 840.092 434.62 840.092 L437.354 840.092 L437.354 842.32 L434.62 842.32 Q431.538 842.32 430.366 841.177 Q429.194 840.02 429.194 836.982 L429.194 828.186 L427.241 828.186 L427.241 826.117 L429.194 826.117 L429.194 821.516 L431.871 821.516 Z" fill="#000000" fill-rule="evenodd" fill-opacity="1" /><path clip-path="url(#clip900)" d="M 0 0 M440.146 826.117 L442.808 826.117 L442.808 842.32 L440.146 842.32 L440.146 826.117 M440.146 819.809 L442.808 819.809 L442.808 823.18 L440.146 823.18 L440.146 819.809 Z" fill="#000000" fill-rule="evenodd" fill-opacity="1" /><path clip-path="url(#clip900)" d="M 0 0 M451.879 827.983 Q449.738 827.983 448.494 829.661 Q447.25 831.325 447.25 834.233 Q447.25 837.141 448.48 838.819 Q449.724 840.483 451.879 840.483 Q454.006 840.483 455.25 838.805 Q456.495 837.126 456.495 834.233 Q456.495 831.354 455.25 829.676 Q454.006 827.983 451.879 827.983 M451.879 825.726 Q455.352 825.726 457.334 827.983 Q459.316 830.24 459.316 834.233 Q459.316 838.212 457.334 840.483 Q455.352 842.74 451.879 842.74 Q448.393 842.74 446.411 840.483 Q444.443 838.212 444.443 834.233 Q444.443 830.24 446.411 827.983 Q448.393 825.726 451.879 825.726 Z" fill="#000000" fill-rule="evenodd" fill-opacity="1" /><path clip-path="url(#clip900)" d="M 0 0 M475.577 832.54 L475.577 842.32 L472.915 842.32 L472.915 832.627 Q472.915 830.327 472.018 829.184 Q471.121 828.041 469.327 828.041 Q467.172 828.041 465.927 829.415 Q464.683 830.79 464.683 833.162 L464.683 842.32 L462.007 842.32 L462.007 826.117 L464.683 826.117 L464.683 828.634 Q465.638 827.173 466.926 826.449 Q468.228 825.726 469.92 825.726 Q472.713 825.726 474.145 827.462 Q475.577 829.184 475.577 832.54 Z" fill="#000000" fill-rule="evenodd" fill-opacity="1" /><path clip-path="url(#clip902)" d="M943.179 1039.28 L943.179 1071.28 L975.179 1071.28 L975.179 1039.28 L943.179 1039.28 Z" fill="#0000ff" fill-rule="evenodd" fill-opacity="1" stroke="none"/>
<polyline clip-path="url(#clip902)" style="stroke:#0000ff; stroke-width:4; stroke-opacity:1; fill:none" stroke-dasharray="16, 10" points="
  897.906,1096.53 1020.45,1096.53 
  "/>
<polyline clip-path="url(#clip902)" style="stroke:#0000ff; stroke-width:4; stroke-opacity:1; fill:none" stroke-dasharray="16, 10" points="
  897.906,1014.04 1020.45,1014.04 
  "/>
<polyline clip-path="url(#clip902)" style="stroke:#0000ff; stroke-width:4; stroke-opacity:1; fill:none" stroke-dasharray="16, 10" points="
  897.906,1096.53 897.906,1014.04 
  "/>
<polyline clip-path="url(#clip902)" style="stroke:#0000ff; stroke-width:4; stroke-opacity:1; fill:none" stroke-dasharray="16, 10" points="
  1020.45,1096.53 1020.45,1014.04 
  "/>
<path clip-path="url(#clip902)" d="M940.431 873.048 L940.431 905.048 L972.431 905.048 L972.431 873.048 L940.431 873.048 Z" fill="#800080" fill-rule="evenodd" fill-opacity="1" stroke="none"/>
<polyline clip-path="url(#clip902)" style="stroke:#800080; stroke-width:4; stroke-opacity:1; fill:none" stroke-dasharray="16, 10" points="
  902.078,933.213 1010.78,933.213 
  "/>
<polyline clip-path="url(#clip902)" style="stroke:#800080; stroke-width:4; stroke-opacity:1; fill:none" stroke-dasharray="16, 10" points="
  902.078,844.882 1010.78,844.882 
  "/>
<polyline clip-path="url(#clip902)" style="stroke:#800080; stroke-width:4; stroke-opacity:1; fill:none" stroke-dasharray="16, 10" points="
  902.078,933.213 902.078,844.882 
  "/>
<polyline clip-path="url(#clip902)" style="stroke:#800080; stroke-width:4; stroke-opacity:1; fill:none" stroke-dasharray="16, 10" points="
  1010.78,933.213 1010.78,844.882 
  "/>
<path clip-path="url(#clip902)" d="M1111.13 1015.66 L1111.13 1047.66 L1143.13 1047.66 L1143.13 1015.66 L1111.13 1015.66 Z" fill="#008000" fill-rule="evenodd" fill-opacity="1" stroke="none"/>
<polyline clip-path="url(#clip902)" style="stroke:#008000; stroke-width:4; stroke-opacity:1; fill:none" stroke-dasharray="16, 10" points="
  1095.77,1068.28 1158.5,1068.28 
  "/>
<polyline clip-path="url(#clip902)" style="stroke:#008000; stroke-width:4; stroke-opacity:1; fill:none" stroke-dasharray="16, 10" points="
  1095.77,995.039 1158.5,995.039 
  "/>
<polyline clip-path="url(#clip902)" style="stroke:#008000; stroke-width:4; stroke-opacity:1; fill:none" stroke-dasharray="16, 10" points="
  1095.77,1068.28 1095.77,995.039 
  "/>
<polyline clip-path="url(#clip902)" style="stroke:#008000; stroke-width:4; stroke-opacity:1; fill:none" stroke-dasharray="16, 10" points="
  1158.5,1068.28 1158.5,995.039 
  "/>
<path clip-path="url(#clip902)" d="M1068.96 905.775 L1068.96 937.775 L1100.96 937.775 L1100.96 905.775 L1068.96 905.775 Z" fill="#ffa500" fill-rule="evenodd" fill-opacity="1" stroke="none"/>
<polyline clip-path="url(#clip902)" style="stroke:#ffa500; stroke-width:4; stroke-opacity:1; fill:none" stroke-dasharray="16, 10" points="
  1015.17,969.082 1154.74,969.082 
  "/>
<polyline clip-path="url(#clip902)" style="stroke:#ffa500; stroke-width:4; stroke-opacity:1; fill:none" stroke-dasharray="16, 10" points="
  1015.17,874.467 1154.74,874.467 
  "/>
<polyline clip-path="url(#clip902)" style="stroke:#ffa500; stroke-width:4; stroke-opacity:1; fill:none" stroke-dasharray="16, 10" points="
  1015.17,969.082 1015.17,874.467 
  "/>
<polyline clip-path="url(#clip902)" style="stroke:#ffa500; stroke-width:4; stroke-opacity:1; fill:none" stroke-dasharray="16, 10" points="
  1154.74,969.082 1154.74,874.467 
  "/>
</svg>
