<?xml version="1.0" encoding="utf-8"?>
<svg xmlns="http://www.w3.org/2000/svg" xmlns:xlink="http://www.w3.org/1999/xlink" width="600" height="400" viewBox="0 0 2400 1600">
<defs>
  <clipPath id="clip240">
    <rect x="0" y="0" width="2400" height="1600"/>
  </clipPath>
</defs>
<path clip-path="url(#clip240)" d="
M0 1600 L2400 1600 L2400 0 L0 0  Z
  " fill="#ffffff" fill-rule="evenodd" fill-opacity="1"/>
<defs>
  <clipPath id="clip241">
    <rect x="480" y="0" width="1681" height="1600"/>
  </clipPath>
</defs>
<path clip-path="url(#clip240)" d="
M228.724 1379.28 L2211.02 1379.28 L2211.02 188.976 L228.724 188.976  Z
  " fill="#ffffff" fill-rule="evenodd" fill-opacity="1"/>
<defs>
  <clipPath id="clip242">
    <rect x="228" y="188" width="1983" height="1191"/>
  </clipPath>
</defs>
<polyline clip-path="url(#clip242)" style="stroke:#000000; stroke-width:2; stroke-opacity:0.1; fill:none" points="
  1219.87,1379.28 1219.87,188.976 
  "/>
<polyline clip-path="url(#clip242)" style="stroke:#000000; stroke-width:2; stroke-opacity:0.1; fill:none" points="
  228.724,784.126 2211.02,784.126 
  "/>
<polyline clip-path="url(#clip240)" style="stroke:#000000; stroke-width:4; stroke-opacity:1; fill:none" points="
  228.724,1379.28 2211.02,1379.28 
  "/>
<polyline clip-path="url(#clip240)" style="stroke:#000000; stroke-width:4; stroke-opacity:1; fill:none" points="
  228.724,1379.28 228.724,188.976 
  "/>
<polyline clip-path="url(#clip240)" style="stroke:#000000; stroke-width:4; stroke-opacity:1; fill:none" points="
  1219.87,1379.28 1219.87,1364.99 
  "/>
<polyline clip-path="url(#clip240)" style="stroke:#000000; stroke-width:4; stroke-opacity:1; fill:none" points="
  228.724,784.126 252.512,784.126 
  "/>
<path clip-path="url(#clip240)" d="M 0 0 M1219.87 1401.27 Q1216.26 1401.27 1214.43 1404.83 Q1212.63 1408.37 1212.63 1415.5 Q1212.63 1422.61 1214.43 1426.17 Q1216.26 1429.72 1219.87 1429.72 Q1223.51 1429.72 1225.31 1426.17 Q1227.14 1422.61 1227.14 1415.5 Q1227.14 1408.37 1225.31 1404.83 Q1223.51 1401.27 1219.87 1401.27 M1219.87 1397.56 Q1225.68 1397.56 1228.74 1402.17 Q1231.82 1406.75 1231.82 1415.5 Q1231.82 1424.23 1228.74 1428.84 Q1225.68 1433.42 1219.87 1433.42 Q1214.06 1433.42 1210.99 1428.84 Q1207.93 1424.23 1207.93 1415.5 Q1207.93 1406.75 1210.99 1402.17 Q1214.06 1397.56 1219.87 1397.56 Z" fill="#000000" fill-rule="evenodd" fill-opacity="1" /><path clip-path="url(#clip240)" d="M 0 0 M192.78 769.925 Q189.169 769.925 187.34 773.489 Q185.535 777.031 185.535 784.161 Q185.535 791.267 187.34 794.832 Q189.169 798.374 192.78 798.374 Q196.414 798.374 198.22 794.832 Q200.049 791.267 200.049 784.161 Q200.049 777.031 198.22 773.489 Q196.414 769.925 192.78 769.925 M192.78 766.221 Q198.59 766.221 201.646 770.827 Q204.724 775.411 204.724 784.161 Q204.724 792.888 201.646 797.494 Q198.59 802.077 192.78 802.077 Q186.97 802.077 183.891 797.494 Q180.836 792.888 180.836 784.161 Q180.836 775.411 183.891 770.827 Q186.97 766.221 192.78 766.221 Z" fill="#000000" fill-rule="evenodd" fill-opacity="1" /><circle clip-path="url(#clip242)" cx="1226.08" cy="751.353" r="14" fill="#808080" fill-rule="evenodd" fill-opacity="1" stroke="none"/>
<circle clip-path="url(#clip242)" cx="1198.46" cy="767.634" r="14" fill="#808080" fill-rule="evenodd" fill-opacity="1" stroke="none"/>
<circle clip-path="url(#clip242)" cx="1196.46" cy="795.951" r="14" fill="#808080" fill-rule="evenodd" fill-opacity="1" stroke="none"/>
<circle clip-path="url(#clip242)" cx="1213.58" cy="778.435" r="14" fill="#808080" fill-rule="evenodd" fill-opacity="1" stroke="none"/>
<circle clip-path="url(#clip242)" cx="1138.55" cy="851.583" r="14" fill="#808080" fill-rule="evenodd" fill-opacity="1" stroke="none"/>
<circle clip-path="url(#clip242)" cx="1187.77" cy="806.703" r="14" fill="#808080" fill-rule="evenodd" fill-opacity="1" stroke="none"/>
<circle clip-path="url(#clip242)" cx="998.581" cy="820.576" r="14" fill="#808080" fill-rule="evenodd" fill-opacity="1" stroke="none"/>
<circle clip-path="url(#clip242)" cx="1185.54" cy="806.399" r="14" fill="#808080" fill-rule="evenodd" fill-opacity="1" stroke="none"/>
<circle clip-path="url(#clip242)" cx="1219.98" cy="806.08" r="14" fill="#808080" fill-rule="evenodd" fill-opacity="1" stroke="none"/>
<circle clip-path="url(#clip242)" cx="1206.14" cy="798.976" r="14" fill="#808080" fill-rule="evenodd" fill-opacity="1" stroke="none"/>
<circle clip-path="url(#clip242)" cx="1102.48" cy="949.969" r="14" fill="#808080" fill-rule="evenodd" fill-opacity="1" stroke="none"/>
<circle clip-path="url(#clip242)" cx="1233.27" cy="766.056" r="14" fill="#808080" fill-rule="evenodd" fill-opacity="1" stroke="none"/>
<circle clip-path="url(#clip242)" cx="1180.92" cy="792.245" r="14" fill="#808080" fill-rule="evenodd" fill-opacity="1" stroke="none"/>
<circle clip-path="url(#clip242)" cx="1138.55" cy="851.583" r="14" fill="#808080" fill-rule="evenodd" fill-opacity="1" stroke="none"/>
<circle clip-path="url(#clip242)" cx="1216.29" cy="783.951" r="14" fill="#808080" fill-rule="evenodd" fill-opacity="1" stroke="none"/>
<circle clip-path="url(#clip242)" cx="1201.8" cy="750.335" r="14" fill="#808080" fill-rule="evenodd" fill-opacity="1" stroke="none"/>
<circle clip-path="url(#clip242)" cx="1175.6" cy="746.567" r="14" fill="#808080" fill-rule="evenodd" fill-opacity="1" stroke="none"/>
<circle clip-path="url(#clip242)" cx="1193.58" cy="757.464" r="14" fill="#808080" fill-rule="evenodd" fill-opacity="1" stroke="none"/>
<circle clip-path="url(#clip242)" cx="1194.54" cy="738.935" r="14" fill="#808080" fill-rule="evenodd" fill-opacity="1" stroke="none"/>
<circle clip-path="url(#clip242)" cx="1209.92" cy="770.914" r="14" fill="#808080" fill-rule="evenodd" fill-opacity="1" stroke="none"/>
<circle clip-path="url(#clip242)" cx="1133.42" cy="739.905" r="14" fill="#808080" fill-rule="evenodd" fill-opacity="1" stroke="none"/>
<circle clip-path="url(#clip242)" cx="1278.05" cy="778.293" r="14" fill="#808080" fill-rule="evenodd" fill-opacity="1" stroke="none"/>
<circle clip-path="url(#clip242)" cx="1272.74" cy="751.668" r="14" fill="#808080" fill-rule="evenodd" fill-opacity="1" stroke="none"/>
<circle clip-path="url(#clip242)" cx="1274.33" cy="767.509" r="14" fill="#808080" fill-rule="evenodd" fill-opacity="1" stroke="none"/>
<circle clip-path="url(#clip242)" cx="1253.35" cy="790.827" r="14" fill="#808080" fill-rule="evenodd" fill-opacity="1" stroke="none"/>
<circle clip-path="url(#clip242)" cx="1258.01" cy="755.816" r="14" fill="#808080" fill-rule="evenodd" fill-opacity="1" stroke="none"/>
<circle clip-path="url(#clip242)" cx="1174.24" cy="762.266" r="14" fill="#808080" fill-rule="evenodd" fill-opacity="1" stroke="none"/>
<circle clip-path="url(#clip242)" cx="1200.53" cy="781.007" r="14" fill="#808080" fill-rule="evenodd" fill-opacity="1" stroke="none"/>
<circle clip-path="url(#clip242)" cx="1112.53" cy="729.894" r="14" fill="#808080" fill-rule="evenodd" fill-opacity="1" stroke="none"/>
<circle clip-path="url(#clip242)" cx="1200.36" cy="730.617" r="14" fill="#808080" fill-rule="evenodd" fill-opacity="1" stroke="none"/>
<circle clip-path="url(#clip242)" cx="1213.26" cy="782.986" r="14" fill="#808080" fill-rule="evenodd" fill-opacity="1" stroke="none"/>
<circle clip-path="url(#clip242)" cx="1231.75" cy="729.379" r="14" fill="#808080" fill-rule="evenodd" fill-opacity="1" stroke="none"/>
<circle clip-path="url(#clip242)" cx="1186.66" cy="758.83" r="14" fill="#808080" fill-rule="evenodd" fill-opacity="1" stroke="none"/>
<circle clip-path="url(#clip242)" cx="1215.07" cy="738.273" r="14" fill="#808080" fill-rule="evenodd" fill-opacity="1" stroke="none"/>
<circle clip-path="url(#clip242)" cx="1182.28" cy="807.953" r="14" fill="#808080" fill-rule="evenodd" fill-opacity="1" stroke="none"/>
<circle clip-path="url(#clip242)" cx="1158.13" cy="784.897" r="14" fill="#808080" fill-rule="evenodd" fill-opacity="1" stroke="none"/>
<circle clip-path="url(#clip242)" cx="1266.26" cy="774.791" r="14" fill="#808080" fill-rule="evenodd" fill-opacity="1" stroke="none"/>
<circle clip-path="url(#clip242)" cx="1213.45" cy="824.008" r="14" fill="#808080" fill-rule="evenodd" fill-opacity="1" stroke="none"/>
<circle clip-path="url(#clip242)" cx="1254.36" cy="826.139" r="14" fill="#808080" fill-rule="evenodd" fill-opacity="1" stroke="none"/>
<circle clip-path="url(#clip242)" cx="1309.04" cy="814.131" r="14" fill="#808080" fill-rule="evenodd" fill-opacity="1" stroke="none"/>
<circle clip-path="url(#clip242)" cx="1195.36" cy="817.907" r="14" fill="#808080" fill-rule="evenodd" fill-opacity="1" stroke="none"/>
<circle clip-path="url(#clip242)" cx="1292.94" cy="804.642" r="14" fill="#808080" fill-rule="evenodd" fill-opacity="1" stroke="none"/>
<circle clip-path="url(#clip242)" cx="1162.94" cy="758.35" r="14" fill="#808080" fill-rule="evenodd" fill-opacity="1" stroke="none"/>
<circle clip-path="url(#clip242)" cx="1179.66" cy="788.766" r="14" fill="#808080" fill-rule="evenodd" fill-opacity="1" stroke="none"/>
<circle clip-path="url(#clip242)" cx="1122.03" cy="799.803" r="14" fill="#808080" fill-rule="evenodd" fill-opacity="1" stroke="none"/>
<circle clip-path="url(#clip242)" cx="1074.18" cy="805.971" r="14" fill="#808080" fill-rule="evenodd" fill-opacity="1" stroke="none"/>
<circle clip-path="url(#clip242)" cx="1047.89" cy="740.281" r="14" fill="#808080" fill-rule="evenodd" fill-opacity="1" stroke="none"/>
<circle clip-path="url(#clip242)" cx="1182.5" cy="793.373" r="14" fill="#808080" fill-rule="evenodd" fill-opacity="1" stroke="none"/>
<circle clip-path="url(#clip242)" cx="1158.36" cy="761.711" r="14" fill="#808080" fill-rule="evenodd" fill-opacity="1" stroke="none"/>
<circle clip-path="url(#clip242)" cx="1168.96" cy="816.927" r="14" fill="#808080" fill-rule="evenodd" fill-opacity="1" stroke="none"/>
<circle clip-path="url(#clip242)" cx="1162.32" cy="768.684" r="14" fill="#808080" fill-rule="evenodd" fill-opacity="1" stroke="none"/>
<circle clip-path="url(#clip242)" cx="1156.6" cy="797.24" r="14" fill="#808080" fill-rule="evenodd" fill-opacity="1" stroke="none"/>
<circle clip-path="url(#clip242)" cx="1167.93" cy="710.764" r="14" fill="#808080" fill-rule="evenodd" fill-opacity="1" stroke="none"/>
<circle clip-path="url(#clip242)" cx="1179.67" cy="713.656" r="14" fill="#808080" fill-rule="evenodd" fill-opacity="1" stroke="none"/>
<circle clip-path="url(#clip242)" cx="1267.63" cy="775.794" r="14" fill="#808080" fill-rule="evenodd" fill-opacity="1" stroke="none"/>
<circle clip-path="url(#clip242)" cx="1202.91" cy="723.509" r="14" fill="#808080" fill-rule="evenodd" fill-opacity="1" stroke="none"/>
<circle clip-path="url(#clip242)" cx="1310.93" cy="793.732" r="14" fill="#808080" fill-rule="evenodd" fill-opacity="1" stroke="none"/>
<circle clip-path="url(#clip242)" cx="1237.6" cy="747.073" r="14" fill="#808080" fill-rule="evenodd" fill-opacity="1" stroke="none"/>
<circle clip-path="url(#clip242)" cx="1256.73" cy="746.417" r="14" fill="#808080" fill-rule="evenodd" fill-opacity="1" stroke="none"/>
<circle clip-path="url(#clip242)" cx="1255.98" cy="768.235" r="14" fill="#808080" fill-rule="evenodd" fill-opacity="1" stroke="none"/>
<circle clip-path="url(#clip242)" cx="1263.02" cy="771.14" r="14" fill="#808080" fill-rule="evenodd" fill-opacity="1" stroke="none"/>
<circle clip-path="url(#clip242)" cx="1228.98" cy="757.738" r="14" fill="#808080" fill-rule="evenodd" fill-opacity="1" stroke="none"/>
<circle clip-path="url(#clip242)" cx="1257.12" cy="740.454" r="14" fill="#808080" fill-rule="evenodd" fill-opacity="1" stroke="none"/>
<circle clip-path="url(#clip242)" cx="1253.08" cy="763.568" r="14" fill="#808080" fill-rule="evenodd" fill-opacity="1" stroke="none"/>
<circle clip-path="url(#clip242)" cx="1220.47" cy="744.324" r="14" fill="#808080" fill-rule="evenodd" fill-opacity="1" stroke="none"/>
<circle clip-path="url(#clip242)" cx="1259.03" cy="747.547" r="14" fill="#808080" fill-rule="evenodd" fill-opacity="1" stroke="none"/>
<circle clip-path="url(#clip242)" cx="1281.39" cy="765.004" r="14" fill="#808080" fill-rule="evenodd" fill-opacity="1" stroke="none"/>
<circle clip-path="url(#clip242)" cx="1267.07" cy="743.68" r="14" fill="#808080" fill-rule="evenodd" fill-opacity="1" stroke="none"/>
<circle clip-path="url(#clip242)" cx="1279.47" cy="755.227" r="14" fill="#808080" fill-rule="evenodd" fill-opacity="1" stroke="none"/>
<circle clip-path="url(#clip242)" cx="1263.52" cy="752.777" r="14" fill="#808080" fill-rule="evenodd" fill-opacity="1" stroke="none"/>
<circle clip-path="url(#clip242)" cx="1285.16" cy="798.312" r="14" fill="#808080" fill-rule="evenodd" fill-opacity="1" stroke="none"/>
<circle clip-path="url(#clip242)" cx="1238.7" cy="767.025" r="14" fill="#808080" fill-rule="evenodd" fill-opacity="1" stroke="none"/>
<circle clip-path="url(#clip242)" cx="1270.1" cy="783.786" r="14" fill="#808080" fill-rule="evenodd" fill-opacity="1" stroke="none"/>
<circle clip-path="url(#clip242)" cx="1309.62" cy="811.923" r="14" fill="#808080" fill-rule="evenodd" fill-opacity="1" stroke="none"/>
<circle clip-path="url(#clip242)" cx="1317.59" cy="786.122" r="14" fill="#808080" fill-rule="evenodd" fill-opacity="1" stroke="none"/>
<circle clip-path="url(#clip242)" cx="1290.48" cy="780.046" r="14" fill="#808080" fill-rule="evenodd" fill-opacity="1" stroke="none"/>
<circle clip-path="url(#clip242)" cx="1273.82" cy="806.96" r="14" fill="#808080" fill-rule="evenodd" fill-opacity="1" stroke="none"/>
<circle clip-path="url(#clip242)" cx="1270.28" cy="783.243" r="14" fill="#808080" fill-rule="evenodd" fill-opacity="1" stroke="none"/>
<circle clip-path="url(#clip242)" cx="1261.61" cy="837.623" r="14" fill="#808080" fill-rule="evenodd" fill-opacity="1" stroke="none"/>
<circle clip-path="url(#clip242)" cx="1262.52" cy="760.143" r="14" fill="#808080" fill-rule="evenodd" fill-opacity="1" stroke="none"/>
<circle clip-path="url(#clip242)" cx="1250.72" cy="797.298" r="14" fill="#808080" fill-rule="evenodd" fill-opacity="1" stroke="none"/>
<circle clip-path="url(#clip242)" cx="1327.53" cy="803.491" r="14" fill="#808080" fill-rule="evenodd" fill-opacity="1" stroke="none"/>
<circle clip-path="url(#clip242)" cx="1265.73" cy="798.571" r="14" fill="#808080" fill-rule="evenodd" fill-opacity="1" stroke="none"/>
<circle clip-path="url(#clip242)" cx="1344.01" cy="855.825" r="14" fill="#808080" fill-rule="evenodd" fill-opacity="1" stroke="none"/>
<circle clip-path="url(#clip242)" cx="1301.08" cy="783.571" r="14" fill="#808080" fill-rule="evenodd" fill-opacity="1" stroke="none"/>
<circle clip-path="url(#clip242)" cx="1277.1" cy="751.623" r="14" fill="#808080" fill-rule="evenodd" fill-opacity="1" stroke="none"/>
<circle clip-path="url(#clip242)" cx="1299.54" cy="789.905" r="14" fill="#808080" fill-rule="evenodd" fill-opacity="1" stroke="none"/>
<circle clip-path="url(#clip242)" cx="1239.36" cy="841.255" r="14" fill="#808080" fill-rule="evenodd" fill-opacity="1" stroke="none"/>
<circle clip-path="url(#clip242)" cx="1241.57" cy="860.182" r="14" fill="#808080" fill-rule="evenodd" fill-opacity="1" stroke="none"/>
<circle clip-path="url(#clip242)" cx="1237.91" cy="853.687" r="14" fill="#808080" fill-rule="evenodd" fill-opacity="1" stroke="none"/>
<circle clip-path="url(#clip242)" cx="1269.24" cy="871.819" r="14" fill="#808080" fill-rule="evenodd" fill-opacity="1" stroke="none"/>
<circle clip-path="url(#clip242)" cx="1304.51" cy="860.619" r="14" fill="#808080" fill-rule="evenodd" fill-opacity="1" stroke="none"/>
<circle clip-path="url(#clip242)" cx="1179.5" cy="821.472" r="14" fill="#808080" fill-rule="evenodd" fill-opacity="1" stroke="none"/>
<circle clip-path="url(#clip242)" cx="1157.27" cy="765.497" r="14" fill="#808080" fill-rule="evenodd" fill-opacity="1" stroke="none"/>
<circle clip-path="url(#clip242)" cx="1115.38" cy="813.798" r="14" fill="#808080" fill-rule="evenodd" fill-opacity="1" stroke="none"/>
<circle clip-path="url(#clip242)" cx="1155.39" cy="797.107" r="14" fill="#808080" fill-rule="evenodd" fill-opacity="1" stroke="none"/>
<circle clip-path="url(#clip242)" cx="1226.16" cy="759.175" r="14" fill="#800080" fill-rule="evenodd" fill-opacity="1" stroke="none"/>
<circle clip-path="url(#clip242)" cx="1196.4" cy="770.728" r="14" fill="#800080" fill-rule="evenodd" fill-opacity="1" stroke="none"/>
<circle clip-path="url(#clip242)" cx="1197.34" cy="786.284" r="14" fill="#800080" fill-rule="evenodd" fill-opacity="1" stroke="none"/>
<circle clip-path="url(#clip242)" cx="1212.59" cy="781.544" r="14" fill="#800080" fill-rule="evenodd" fill-opacity="1" stroke="none"/>
<circle clip-path="url(#clip242)" cx="1138.55" cy="851.583" r="14" fill="#800080" fill-rule="evenodd" fill-opacity="1" stroke="none"/>
<circle clip-path="url(#clip242)" cx="1184.43" cy="801.652" r="14" fill="#800080" fill-rule="evenodd" fill-opacity="1" stroke="none"/>
<circle clip-path="url(#clip242)" cx="1015.45" cy="795.201" r="14" fill="#800080" fill-rule="evenodd" fill-opacity="1" stroke="none"/>
<circle clip-path="url(#clip242)" cx="1180.92" cy="809.88" r="14" fill="#800080" fill-rule="evenodd" fill-opacity="1" stroke="none"/>
<circle clip-path="url(#clip242)" cx="1232.16" cy="800.279" r="14" fill="#800080" fill-rule="evenodd" fill-opacity="1" stroke="none"/>
<circle clip-path="url(#clip242)" cx="1205.82" cy="801.38" r="14" fill="#800080" fill-rule="evenodd" fill-opacity="1" stroke="none"/>
<circle clip-path="url(#clip242)" cx="1112.24" cy="998.882" r="14" fill="#800080" fill-rule="evenodd" fill-opacity="1" stroke="none"/>
<circle clip-path="url(#clip242)" cx="1238.72" cy="775.613" r="14" fill="#800080" fill-rule="evenodd" fill-opacity="1" stroke="none"/>
<circle clip-path="url(#clip242)" cx="1178.77" cy="796.017" r="14" fill="#800080" fill-rule="evenodd" fill-opacity="1" stroke="none"/>
<circle clip-path="url(#clip242)" cx="1138.55" cy="851.583" r="14" fill="#800080" fill-rule="evenodd" fill-opacity="1" stroke="none"/>
<circle clip-path="url(#clip242)" cx="1213.39" cy="786.32" r="14" fill="#800080" fill-rule="evenodd" fill-opacity="1" stroke="none"/>
<circle clip-path="url(#clip242)" cx="1204.93" cy="748.966" r="14" fill="#800080" fill-rule="evenodd" fill-opacity="1" stroke="none"/>
<circle clip-path="url(#clip242)" cx="1172.92" cy="756.253" r="14" fill="#800080" fill-rule="evenodd" fill-opacity="1" stroke="none"/>
<circle clip-path="url(#clip242)" cx="1204.9" cy="755.092" r="14" fill="#800080" fill-rule="evenodd" fill-opacity="1" stroke="none"/>
<circle clip-path="url(#clip242)" cx="1195.13" cy="735.368" r="14" fill="#800080" fill-rule="evenodd" fill-opacity="1" stroke="none"/>
<circle clip-path="url(#clip242)" cx="1198.86" cy="779.44" r="14" fill="#800080" fill-rule="evenodd" fill-opacity="1" stroke="none"/>
<circle clip-path="url(#clip242)" cx="1137.56" cy="718.945" r="14" fill="#800080" fill-rule="evenodd" fill-opacity="1" stroke="none"/>
<circle clip-path="url(#clip242)" cx="1269.58" cy="787.626" r="14" fill="#800080" fill-rule="evenodd" fill-opacity="1" stroke="none"/>
<circle clip-path="url(#clip242)" cx="1281.99" cy="749.907" r="14" fill="#800080" fill-rule="evenodd" fill-opacity="1" stroke="none"/>
<circle clip-path="url(#clip242)" cx="1257.28" cy="777.732" r="14" fill="#800080" fill-rule="evenodd" fill-opacity="1" stroke="none"/>
<circle clip-path="url(#clip242)" cx="1237.13" cy="790.982" r="14" fill="#800080" fill-rule="evenodd" fill-opacity="1" stroke="none"/>
<circle clip-path="url(#clip242)" cx="1264.19" cy="774.599" r="14" fill="#800080" fill-rule="evenodd" fill-opacity="1" stroke="none"/>
<circle clip-path="url(#clip242)" cx="1173.22" cy="773.778" r="14" fill="#800080" fill-rule="evenodd" fill-opacity="1" stroke="none"/>
<circle clip-path="url(#clip242)" cx="1194.17" cy="786.828" r="14" fill="#800080" fill-rule="evenodd" fill-opacity="1" stroke="none"/>
<circle clip-path="url(#clip242)" cx="1130.8" cy="729.778" r="14" fill="#800080" fill-rule="evenodd" fill-opacity="1" stroke="none"/>
<circle clip-path="url(#clip242)" cx="1189.2" cy="741.277" r="14" fill="#800080" fill-rule="evenodd" fill-opacity="1" stroke="none"/>
<circle clip-path="url(#clip242)" cx="1204.63" cy="794.632" r="14" fill="#800080" fill-rule="evenodd" fill-opacity="1" stroke="none"/>
<circle clip-path="url(#clip242)" cx="1232.8" cy="730.645" r="14" fill="#800080" fill-rule="evenodd" fill-opacity="1" stroke="none"/>
<circle clip-path="url(#clip242)" cx="1185.62" cy="757.961" r="14" fill="#800080" fill-rule="evenodd" fill-opacity="1" stroke="none"/>
<circle clip-path="url(#clip242)" cx="1219.56" cy="743.427" r="14" fill="#800080" fill-rule="evenodd" fill-opacity="1" stroke="none"/>
<circle clip-path="url(#clip242)" cx="1181.57" cy="807.425" r="14" fill="#800080" fill-rule="evenodd" fill-opacity="1" stroke="none"/>
<circle clip-path="url(#clip242)" cx="1151.55" cy="780.918" r="14" fill="#800080" fill-rule="evenodd" fill-opacity="1" stroke="none"/>
<circle clip-path="url(#clip242)" cx="1266.56" cy="767.472" r="14" fill="#800080" fill-rule="evenodd" fill-opacity="1" stroke="none"/>
<circle clip-path="url(#clip242)" cx="1202.18" cy="806.597" r="14" fill="#800080" fill-rule="evenodd" fill-opacity="1" stroke="none"/>
<circle clip-path="url(#clip242)" cx="1243.61" cy="814.248" r="14" fill="#800080" fill-rule="evenodd" fill-opacity="1" stroke="none"/>
<circle clip-path="url(#clip242)" cx="1299.93" cy="810.997" r="14" fill="#800080" fill-rule="evenodd" fill-opacity="1" stroke="none"/>
<circle clip-path="url(#clip242)" cx="1185.94" cy="800.762" r="14" fill="#800080" fill-rule="evenodd" fill-opacity="1" stroke="none"/>
<circle clip-path="url(#clip242)" cx="1283.35" cy="797.753" r="14" fill="#800080" fill-rule="evenodd" fill-opacity="1" stroke="none"/>
<circle clip-path="url(#clip242)" cx="1161.12" cy="763.13" r="14" fill="#800080" fill-rule="evenodd" fill-opacity="1" stroke="none"/>
<circle clip-path="url(#clip242)" cx="1170.52" cy="789.8" r="14" fill="#800080" fill-rule="evenodd" fill-opacity="1" stroke="none"/>
<circle clip-path="url(#clip242)" cx="1121.9" cy="789.893" r="14" fill="#800080" fill-rule="evenodd" fill-opacity="1" stroke="none"/>
<circle clip-path="url(#clip242)" cx="1090" cy="803.879" r="14" fill="#800080" fill-rule="evenodd" fill-opacity="1" stroke="none"/>
<circle clip-path="url(#clip242)" cx="1045.8" cy="732.578" r="14" fill="#800080" fill-rule="evenodd" fill-opacity="1" stroke="none"/>
<circle clip-path="url(#clip242)" cx="1176.83" cy="791.189" r="14" fill="#800080" fill-rule="evenodd" fill-opacity="1" stroke="none"/>
<circle clip-path="url(#clip242)" cx="1155.52" cy="763.493" r="14" fill="#800080" fill-rule="evenodd" fill-opacity="1" stroke="none"/>
<circle clip-path="url(#clip242)" cx="1167.54" cy="805.881" r="14" fill="#800080" fill-rule="evenodd" fill-opacity="1" stroke="none"/>
<circle clip-path="url(#clip242)" cx="1166.09" cy="768.553" r="14" fill="#800080" fill-rule="evenodd" fill-opacity="1" stroke="none"/>
<circle clip-path="url(#clip242)" cx="1152.09" cy="792.746" r="14" fill="#800080" fill-rule="evenodd" fill-opacity="1" stroke="none"/>
<circle clip-path="url(#clip242)" cx="1176.54" cy="706.27" r="14" fill="#ffa500" fill-rule="evenodd" fill-opacity="1" stroke="none"/>
<circle clip-path="url(#clip242)" cx="1179.38" cy="719.241" r="14" fill="#ffa500" fill-rule="evenodd" fill-opacity="1" stroke="none"/>
<circle clip-path="url(#clip242)" cx="1250.62" cy="781.847" r="14" fill="#ffa500" fill-rule="evenodd" fill-opacity="1" stroke="none"/>
<circle clip-path="url(#clip242)" cx="1201.52" cy="734.963" r="14" fill="#ffa500" fill-rule="evenodd" fill-opacity="1" stroke="none"/>
<circle clip-path="url(#clip242)" cx="1307.81" cy="801.085" r="14" fill="#ffa500" fill-rule="evenodd" fill-opacity="1" stroke="none"/>
<circle clip-path="url(#clip242)" cx="1243.53" cy="752.13" r="14" fill="#ffa500" fill-rule="evenodd" fill-opacity="1" stroke="none"/>
<circle clip-path="url(#clip242)" cx="1257.34" cy="756.33" r="14" fill="#ffa500" fill-rule="evenodd" fill-opacity="1" stroke="none"/>
<circle clip-path="url(#clip242)" cx="1252.84" cy="771.654" r="14" fill="#ffa500" fill-rule="evenodd" fill-opacity="1" stroke="none"/>
<circle clip-path="url(#clip242)" cx="1276.14" cy="781.437" r="14" fill="#ffa500" fill-rule="evenodd" fill-opacity="1" stroke="none"/>
<circle clip-path="url(#clip242)" cx="1226.6" cy="767.88" r="14" fill="#ffa500" fill-rule="evenodd" fill-opacity="1" stroke="none"/>
<circle clip-path="url(#clip242)" cx="1250.79" cy="742.409" r="14" fill="#ffa500" fill-rule="evenodd" fill-opacity="1" stroke="none"/>
<circle clip-path="url(#clip242)" cx="1255.81" cy="765.784" r="14" fill="#ffa500" fill-rule="evenodd" fill-opacity="1" stroke="none"/>
<circle clip-path="url(#clip242)" cx="1234.39" cy="755.762" r="14" fill="#ffa500" fill-rule="evenodd" fill-opacity="1" stroke="none"/>
<circle clip-path="url(#clip242)" cx="1265.69" cy="758.913" r="14" fill="#ffa500" fill-rule="evenodd" fill-opacity="1" stroke="none"/>
<circle clip-path="url(#clip242)" cx="1289.18" cy="759.712" r="14" fill="#ffa500" fill-rule="evenodd" fill-opacity="1" stroke="none"/>
<circle clip-path="url(#clip242)" cx="1279.39" cy="744.797" r="14" fill="#ffa500" fill-rule="evenodd" fill-opacity="1" stroke="none"/>
<circle clip-path="url(#clip242)" cx="1279.68" cy="760.767" r="14" fill="#ffa500" fill-rule="evenodd" fill-opacity="1" stroke="none"/>
<circle clip-path="url(#clip242)" cx="1267.35" cy="761.582" r="14" fill="#ffa500" fill-rule="evenodd" fill-opacity="1" stroke="none"/>
<circle clip-path="url(#clip242)" cx="1279.5" cy="792.717" r="14" fill="#ffa500" fill-rule="evenodd" fill-opacity="1" stroke="none"/>
<circle clip-path="url(#clip242)" cx="1238.41" cy="773.796" r="14" fill="#ffa500" fill-rule="evenodd" fill-opacity="1" stroke="none"/>
<circle clip-path="url(#clip242)" cx="1266.86" cy="787.083" r="14" fill="#ffa500" fill-rule="evenodd" fill-opacity="1" stroke="none"/>
<circle clip-path="url(#clip242)" cx="1310.74" cy="801.509" r="14" fill="#ffa500" fill-rule="evenodd" fill-opacity="1" stroke="none"/>
<circle clip-path="url(#clip242)" cx="1316.03" cy="787.084" r="14" fill="#ffa500" fill-rule="evenodd" fill-opacity="1" stroke="none"/>
<circle clip-path="url(#clip242)" cx="1288.26" cy="777.177" r="14" fill="#ffa500" fill-rule="evenodd" fill-opacity="1" stroke="none"/>
<circle clip-path="url(#clip242)" cx="1270.64" cy="803.127" r="14" fill="#ffa500" fill-rule="evenodd" fill-opacity="1" stroke="none"/>
<circle clip-path="url(#clip242)" cx="1275.44" cy="790.136" r="14" fill="#ffa500" fill-rule="evenodd" fill-opacity="1" stroke="none"/>
<circle clip-path="url(#clip242)" cx="1260.65" cy="835.1" r="14" fill="#ffa500" fill-rule="evenodd" fill-opacity="1" stroke="none"/>
<circle clip-path="url(#clip242)" cx="1256.54" cy="763.333" r="14" fill="#ffa500" fill-rule="evenodd" fill-opacity="1" stroke="none"/>
<circle clip-path="url(#clip242)" cx="1241.4" cy="793.186" r="14" fill="#ffa500" fill-rule="evenodd" fill-opacity="1" stroke="none"/>
<circle clip-path="url(#clip242)" cx="1336.23" cy="796.179" r="14" fill="#ffa500" fill-rule="evenodd" fill-opacity="1" stroke="none"/>
<circle clip-path="url(#clip242)" cx="1257.93" cy="795.588" r="14" fill="#ffa500" fill-rule="evenodd" fill-opacity="1" stroke="none"/>
<circle clip-path="url(#clip242)" cx="1375.42" cy="838.29" r="14" fill="#ffa500" fill-rule="evenodd" fill-opacity="1" stroke="none"/>
<circle clip-path="url(#clip242)" cx="1298.76" cy="782.363" r="14" fill="#ffa500" fill-rule="evenodd" fill-opacity="1" stroke="none"/>
<circle clip-path="url(#clip242)" cx="1286.28" cy="762.449" r="14" fill="#ffa500" fill-rule="evenodd" fill-opacity="1" stroke="none"/>
<circle clip-path="url(#clip242)" cx="1297.28" cy="790.031" r="14" fill="#ffa500" fill-rule="evenodd" fill-opacity="1" stroke="none"/>
<circle clip-path="url(#clip242)" cx="1239.56" cy="830.215" r="14" fill="#ffa500" fill-rule="evenodd" fill-opacity="1" stroke="none"/>
<circle clip-path="url(#clip242)" cx="1240.36" cy="833.282" r="14" fill="#ffa500" fill-rule="evenodd" fill-opacity="1" stroke="none"/>
<circle clip-path="url(#clip242)" cx="1230.86" cy="839.891" r="14" fill="#ffa500" fill-rule="evenodd" fill-opacity="1" stroke="none"/>
<circle clip-path="url(#clip242)" cx="1274.98" cy="849.491" r="14" fill="#ffa500" fill-rule="evenodd" fill-opacity="1" stroke="none"/>
<circle clip-path="url(#clip242)" cx="1311.22" cy="845.11" r="14" fill="#ffa500" fill-rule="evenodd" fill-opacity="1" stroke="none"/>
<circle clip-path="url(#clip242)" cx="1173.29" cy="818.757" r="14" fill="#ffa500" fill-rule="evenodd" fill-opacity="1" stroke="none"/>
<circle clip-path="url(#clip242)" cx="1146.19" cy="772.148" r="14" fill="#ffa500" fill-rule="evenodd" fill-opacity="1" stroke="none"/>
<circle clip-path="url(#clip242)" cx="1134.63" cy="812.653" r="14" fill="#ffa500" fill-rule="evenodd" fill-opacity="1" stroke="none"/>
<circle clip-path="url(#clip242)" cx="1157.83" cy="796.168" r="14" fill="#ffa500" fill-rule="evenodd" fill-opacity="1" stroke="none"/>
<polyline clip-path="url(#clip242)" style="stroke:#ffa500; stroke-width:0.57127; stroke-opacity:1; fill:none" points="
  715.599,448.975 1620.24,1028.46 
  "/>
<polyline clip-path="url(#clip242)" style="stroke:#ffa500; stroke-width:0.310112; stroke-opacity:1; fill:none" points="
  1157.46,928.312 1169.28,875.971 
  "/>
<polyline clip-path="url(#clip242)" style="stroke:#ffa500; stroke-width:0.344254; stroke-opacity:1; fill:none" points="
  559.026,1039.87 1169.28,875.971 
  "/>
<polyline clip-path="url(#clip242)" style="stroke:#800080; stroke-width:2.41942; stroke-opacity:1; fill:none" points="
  559.026,1039.87 1622.62,683.58 
  "/>
<polyline clip-path="url(#clip242)" style="stroke:#ffa500; stroke-width:3.09601; stroke-opacity:1; fill:none" points="
  1157.46,928.312 1620.24,1028.46 
  "/>
<polyline clip-path="url(#clip242)" style="stroke:#800080; stroke-width:3.5991; stroke-opacity:1; fill:none" points="
  559.026,1039.87 1157.46,928.312 
  "/>
<polyline clip-path="url(#clip242)" style="stroke:#ffa500; stroke-width:4.58072; stroke-opacity:1; fill:none" points="
  1157.46,928.312 1622.62,683.58 
  "/>
<polyline clip-path="url(#clip242)" style="stroke:#ffa500; stroke-width:1.47784; stroke-opacity:1; fill:none" points="
  1169.28,875.971 1622.62,683.58 
  "/>
<polyline clip-path="url(#clip242)" style="stroke:#800080; stroke-width:6.48496; stroke-opacity:1; fill:none" points="
  559.026,1039.87 715.599,448.975 
  "/>
<polyline clip-path="url(#clip242)" style="stroke:#ffa500; stroke-width:0.694986; stroke-opacity:1; fill:none" points="
  1169.28,875.971 1620.24,1028.46 
  "/>
<polyline clip-path="url(#clip242)" style="stroke:#ffa500; stroke-width:8; stroke-opacity:1; fill:none" points="
  1620.24,1028.46 1622.62,683.58 
  "/>
<polyline clip-path="url(#clip242)" style="stroke:#800080; stroke-width:2.90053; stroke-opacity:1; fill:none" points="
  715.599,448.975 1157.46,928.312 
  "/>
<polyline clip-path="url(#clip242)" style="stroke:#800080; stroke-width:2.12299; stroke-opacity:1; fill:none" points="
  715.599,448.975 1169.28,875.971 
  "/>
<polyline clip-path="url(#clip242)" style="stroke:#800080; stroke-width:2.00262; stroke-opacity:1; fill:none" points="
  559.026,1039.87 1620.24,1028.46 
  "/>
<polyline clip-path="url(#clip242)" style="stroke:#ffa500; stroke-width:0.179937; stroke-opacity:1; fill:none" points="
  715.599,448.975 1622.62,683.58 
  "/>
<circle clip-path="url(#clip242)" cx="1157.46" cy="928.312" r="23" fill="#000000" fill-rule="evenodd" fill-opacity="1" stroke="none"/>
<circle clip-path="url(#clip242)" cx="715.599" cy="448.975" r="26" fill="#000000" fill-rule="evenodd" fill-opacity="1" stroke="none"/>
<circle clip-path="url(#clip242)" cx="1620.24" cy="1028.46" r="23" fill="#000000" fill-rule="evenodd" fill-opacity="1" stroke="none"/>
<circle clip-path="url(#clip242)" cx="1169.28" cy="875.971" r="8" fill="#000000" fill-rule="evenodd" fill-opacity="1" stroke="none"/>
<circle clip-path="url(#clip242)" cx="1622.62" cy="683.58" r="28" fill="#000000" fill-rule="evenodd" fill-opacity="1" stroke="none"/>
<circle clip-path="url(#clip242)" cx="559.026" cy="1039.87" r="8" fill="#000000" fill-rule="evenodd" fill-opacity="1" stroke="none"/>
<path clip-path="url(#clip240)" d="M 0 0 M1130.39 919.914 L1130.39 936.711 L1133.92 936.711 Q1138.39 936.711 1140.46 934.685 Q1142.54 932.66 1142.54 928.291 Q1142.54 923.95 1140.46 921.939 Q1138.39 919.914 1133.92 919.914 L1130.39 919.914 M1127.46 917.512 L1133.47 917.512 Q1139.75 917.512 1142.68 920.131 Q1145.62 922.735 1145.62 928.291 Q1145.62 933.875 1142.67 936.494 Q1139.72 939.112 1133.47 939.112 L1127.46 939.112 L1127.46 917.512 Z" fill="#000000" fill-rule="evenodd" fill-opacity="1" /><path clip-path="url(#clip240)" d="M 0 0 M1155.78 930.967 Q1152.55 930.967 1151.31 931.705 Q1150.06 932.443 1150.06 934.222 Q1150.06 935.64 1150.99 936.479 Q1151.93 937.304 1153.53 937.304 Q1155.75 937.304 1157.08 935.741 Q1158.42 934.165 1158.42 931.56 L1158.42 930.967 L1155.78 930.967 M1161.09 929.868 L1161.09 939.112 L1158.42 939.112 L1158.42 936.653 Q1157.51 938.129 1156.15 938.838 Q1154.79 939.532 1152.82 939.532 Q1150.34 939.532 1148.86 938.143 Q1147.4 936.74 1147.4 934.396 Q1147.4 931.662 1149.22 930.273 Q1151.06 928.884 1154.69 928.884 L1158.42 928.884 L1158.42 928.623 Q1158.42 926.786 1157.21 925.788 Q1156.01 924.775 1153.82 924.775 Q1152.43 924.775 1151.12 925.108 Q1149.8 925.441 1148.59 926.106 L1148.59 923.647 Q1150.05 923.082 1151.42 922.808 Q1152.8 922.518 1154.1 922.518 Q1157.61 922.518 1159.35 924.341 Q1161.09 926.164 1161.09 929.868 Z" fill="#000000" fill-rule="evenodd" fill-opacity="1" /><path clip-path="url(#clip240)" d="M 0 0 M1166.51 918.308 L1166.51 922.909 L1171.99 922.909 L1171.99 924.978 L1166.51 924.978 L1166.51 933.774 Q1166.51 935.756 1167.05 936.32 Q1167.6 936.884 1169.26 936.884 L1171.99 936.884 L1171.99 939.112 L1169.26 939.112 Q1166.18 939.112 1165.01 937.969 Q1163.83 936.812 1163.83 933.774 L1163.83 924.978 L1161.88 924.978 L1161.88 922.909 L1163.83 922.909 L1163.83 918.308 L1166.51 918.308 Z" fill="#000000" fill-rule="evenodd" fill-opacity="1" /><path clip-path="url(#clip240)" d="M 0 0 M1182.15 930.967 Q1178.92 930.967 1177.68 931.705 Q1176.44 932.443 1176.44 934.222 Q1176.44 935.64 1177.36 936.479 Q1178.3 937.304 1179.91 937.304 Q1182.12 937.304 1183.45 935.741 Q1184.8 934.165 1184.8 931.56 L1184.8 930.967 L1182.15 930.967 M1187.46 929.868 L1187.46 939.112 L1184.8 939.112 L1184.8 936.653 Q1183.89 938.129 1182.53 938.838 Q1181.17 939.532 1179.2 939.532 Q1176.71 939.532 1175.23 938.143 Q1173.77 936.74 1173.77 934.396 Q1173.77 931.662 1175.6 930.273 Q1177.43 928.884 1181.07 928.884 L1184.8 928.884 L1184.8 928.623 Q1184.8 926.786 1183.58 925.788 Q1182.38 924.775 1180.2 924.775 Q1178.81 924.775 1177.49 925.108 Q1176.18 925.441 1174.96 926.106 L1174.96 923.647 Q1176.42 923.082 1177.8 922.808 Q1179.17 922.518 1180.47 922.518 Q1183.99 922.518 1185.72 924.341 Q1187.46 926.164 1187.46 929.868 Z" fill="#000000" fill-rule="evenodd" fill-opacity="1" /><path clip-path="url(#clip240)" d="M 0 0 M573.694 438.175 L591.967 438.175 L591.967 440.634 L584.299 440.634 L584.299 459.775 L581.362 459.775 L581.362 440.634 L573.694 440.634 L573.694 438.175 Z" fill="#000000" fill-rule="evenodd" fill-opacity="1" /><path clip-path="url(#clip240)" d="M 0 0 M603.584 451.008 L603.584 452.31 L591.345 452.31 Q591.518 455.059 592.994 456.505 Q594.484 457.938 597.132 457.938 Q598.665 457.938 600.097 457.561 Q601.544 457.185 602.962 456.433 L602.962 458.95 Q601.53 459.558 600.025 459.876 Q598.521 460.195 596.972 460.195 Q593.095 460.195 590.824 457.938 Q588.567 455.681 588.567 451.832 Q588.567 447.854 590.708 445.525 Q592.864 443.181 596.51 443.181 Q599.779 443.181 601.674 445.293 Q603.584 447.391 603.584 451.008 M600.922 450.226 Q600.893 448.042 599.692 446.74 Q598.506 445.438 596.538 445.438 Q594.31 445.438 592.965 446.696 Q591.634 447.955 591.431 450.241 L600.922 450.226 Z" fill="#000000" fill-rule="evenodd" fill-opacity="1" /><path clip-path="url(#clip240)" d="M 0 0 M618.037 444.193 L618.037 446.682 Q616.909 446.06 615.766 445.756 Q614.637 445.438 613.48 445.438 Q610.89 445.438 609.458 447.087 Q608.026 448.722 608.026 451.688 Q608.026 454.654 609.458 456.303 Q610.89 457.938 613.48 457.938 Q614.637 457.938 615.766 457.634 Q616.909 457.316 618.037 456.693 L618.037 459.153 Q616.923 459.674 615.722 459.934 Q614.536 460.195 613.191 460.195 Q609.53 460.195 607.375 457.894 Q605.219 455.594 605.219 451.688 Q605.219 447.724 607.389 445.452 Q609.574 443.181 613.364 443.181 Q614.594 443.181 615.766 443.441 Q616.938 443.687 618.037 444.193 Z" fill="#000000" fill-rule="evenodd" fill-opacity="1" /><path clip-path="url(#clip240)" d="M 0 0 M634.299 449.995 L634.299 459.775 L631.637 459.775 L631.637 450.082 Q631.637 447.781 630.74 446.639 Q629.843 445.496 628.049 445.496 Q625.893 445.496 624.649 446.87 Q623.405 448.244 623.405 450.617 L623.405 459.775 L620.728 459.775 L620.728 437.264 L623.405 437.264 L623.405 446.089 Q624.359 444.628 625.647 443.904 Q626.949 443.181 628.642 443.181 Q631.434 443.181 632.866 444.917 Q634.299 446.639 634.299 449.995 Z" fill="#000000" fill-rule="evenodd" fill-opacity="1" /><path clip-path="url(#clip240)" d="M 0 0 M650.56 449.995 L650.56 459.775 L647.898 459.775 L647.898 450.082 Q647.898 447.781 647.001 446.639 Q646.104 445.496 644.31 445.496 Q642.155 445.496 640.91 446.87 Q639.666 448.244 639.666 450.617 L639.666 459.775 L636.99 459.775 L636.99 443.571 L639.666 443.571 L639.666 446.089 Q640.621 444.628 641.909 443.904 Q643.211 443.181 644.903 443.181 Q647.696 443.181 649.128 444.917 Q650.56 446.639 650.56 449.995 Z" fill="#000000" fill-rule="evenodd" fill-opacity="1" /><path clip-path="url(#clip240)" d="M 0 0 M653.352 443.571 L656.014 443.571 L656.014 459.775 L653.352 459.775 L653.352 443.571 M653.352 437.264 L656.014 437.264 L656.014 440.634 L653.352 440.634 L653.352 437.264 Z" fill="#000000" fill-rule="evenodd" fill-opacity="1" /><path clip-path="url(#clip240)" d="M 0 0 M670.467 444.193 L670.467 446.682 Q669.339 446.06 668.196 445.756 Q667.068 445.438 665.91 445.438 Q663.321 445.438 661.888 447.087 Q660.456 448.722 660.456 451.688 Q660.456 454.654 661.888 456.303 Q663.321 457.938 665.91 457.938 Q667.068 457.938 668.196 457.634 Q669.339 457.316 670.467 456.693 L670.467 459.153 Q669.353 459.674 668.153 459.934 Q666.966 460.195 665.621 460.195 Q661.961 460.195 659.805 457.894 Q657.649 455.594 657.649 451.688 Q657.649 447.724 659.819 445.452 Q662.004 443.181 665.794 443.181 Q667.024 443.181 668.196 443.441 Q669.368 443.687 670.467 444.193 Z" fill="#000000" fill-rule="evenodd" fill-opacity="1" /><path clip-path="url(#clip240)" d="M 0 0 M680.624 451.63 Q677.397 451.63 676.153 452.368 Q674.909 453.105 674.909 454.885 Q674.909 456.303 675.835 457.142 Q676.775 457.967 678.381 457.967 Q680.595 457.967 681.926 456.404 Q683.271 454.827 683.271 452.223 L683.271 451.63 L680.624 451.63 M685.933 450.53 L685.933 459.775 L683.271 459.775 L683.271 457.316 Q682.36 458.791 681 459.5 Q679.64 460.195 677.672 460.195 Q675.184 460.195 673.708 458.806 Q672.247 457.402 672.247 455.059 Q672.247 452.324 674.07 450.935 Q675.907 449.546 679.539 449.546 L683.271 449.546 L683.271 449.286 Q683.271 447.449 682.056 446.45 Q680.855 445.438 678.671 445.438 Q677.282 445.438 675.965 445.77 Q674.649 446.103 673.433 446.769 L673.433 444.309 Q674.895 443.745 676.269 443.47 Q677.643 443.181 678.945 443.181 Q682.461 443.181 684.197 445.004 Q685.933 446.827 685.933 450.53 Z" fill="#000000" fill-rule="evenodd" fill-opacity="1" /><path clip-path="url(#clip240)" d="M 0 0 M688.725 437.264 L691.387 437.264 L691.387 459.775 L688.725 459.775 L688.725 437.264 Z" fill="#000000" fill-rule="evenodd" fill-opacity="1" /><path clip-path="url(#clip240)" d="M 0 0 M706.492 464.694 L706.492 466.763 L691.098 466.763 L691.098 464.694 L706.492 464.694 Z" fill="#000000" fill-rule="evenodd" fill-opacity="1" /><path clip-path="url(#clip240)" d="M 0 0 M725.574 439.839 L725.574 442.92 Q724.099 441.546 722.42 440.866 Q720.757 440.186 718.876 440.186 Q715.172 440.186 713.204 442.457 Q711.237 444.714 711.237 448.997 Q711.237 453.265 713.204 455.536 Q715.172 457.793 718.876 457.793 Q720.757 457.793 722.42 457.113 Q724.099 456.433 725.574 455.059 L725.574 458.111 Q724.041 459.153 722.319 459.674 Q720.612 460.195 718.702 460.195 Q713.798 460.195 710.976 457.2 Q708.155 454.191 708.155 448.997 Q708.155 443.788 710.976 440.794 Q713.798 437.784 718.702 437.784 Q720.641 437.784 722.348 438.305 Q724.07 438.812 725.574 439.839 Z" fill="#000000" fill-rule="evenodd" fill-opacity="1" /><path clip-path="url(#clip240)" d="M 0 0 M734.645 445.438 Q732.504 445.438 731.26 447.116 Q730.016 448.78 730.016 451.688 Q730.016 454.596 731.245 456.274 Q732.49 457.938 734.645 457.938 Q736.772 457.938 738.016 456.259 Q739.26 454.581 739.26 451.688 Q739.26 448.809 738.016 447.13 Q736.772 445.438 734.645 445.438 M734.645 443.181 Q738.118 443.181 740.1 445.438 Q742.082 447.695 742.082 451.688 Q742.082 455.666 740.1 457.938 Q738.118 460.195 734.645 460.195 Q731.159 460.195 729.177 457.938 Q727.209 455.666 727.209 451.688 Q727.209 447.695 729.177 445.438 Q731.159 443.181 734.645 443.181 Z" fill="#000000" fill-rule="evenodd" fill-opacity="1" /><path clip-path="url(#clip240)" d="M 0 0 M758.343 449.995 L758.343 459.775 L755.681 459.775 L755.681 450.082 Q755.681 447.781 754.784 446.639 Q753.887 445.496 752.093 445.496 Q749.938 445.496 748.693 446.87 Q747.449 448.244 747.449 450.617 L747.449 459.775 L744.773 459.775 L744.773 443.571 L747.449 443.571 L747.449 446.089 Q748.404 444.628 749.692 443.904 Q750.994 443.181 752.686 443.181 Q755.479 443.181 756.911 444.917 Q758.343 446.639 758.343 449.995 Z" fill="#000000" fill-rule="evenodd" fill-opacity="1" /><path clip-path="url(#clip240)" d="M 0 0 M771.465 444.049 L771.465 446.566 Q770.337 445.987 769.121 445.698 Q767.906 445.409 766.604 445.409 Q764.622 445.409 763.624 446.016 Q762.64 446.624 762.64 447.839 Q762.64 448.765 763.349 449.301 Q764.058 449.821 766.199 450.299 L767.11 450.501 Q769.946 451.109 771.132 452.223 Q772.333 453.322 772.333 455.305 Q772.333 457.561 770.539 458.878 Q768.76 460.195 765.635 460.195 Q764.333 460.195 762.915 459.934 Q761.512 459.688 759.949 459.182 L759.949 456.433 Q761.425 457.2 762.857 457.59 Q764.289 457.967 765.693 457.967 Q767.573 457.967 768.586 457.33 Q769.599 456.679 769.599 455.507 Q769.599 454.422 768.861 453.843 Q768.138 453.265 765.664 452.729 L764.738 452.512 Q762.264 451.991 761.164 450.921 Q760.065 449.836 760.065 447.955 Q760.065 445.669 761.685 444.425 Q763.306 443.181 766.286 443.181 Q767.761 443.181 769.064 443.398 Q770.366 443.615 771.465 444.049 Z" fill="#000000" fill-rule="evenodd" fill-opacity="1" /><path clip-path="url(#clip240)" d="M 0 0 M777.759 438.971 L777.759 443.571 L783.242 443.571 L783.242 445.64 L777.759 445.64 L777.759 454.436 Q777.759 456.419 778.294 456.983 Q778.844 457.547 780.507 457.547 L783.242 457.547 L783.242 459.775 L780.507 459.775 Q777.426 459.775 776.254 458.632 Q775.082 457.475 775.082 454.436 L775.082 445.64 L773.129 445.64 L773.129 443.571 L775.082 443.571 L775.082 438.971 L777.759 438.971 Z" fill="#000000" fill-rule="evenodd" fill-opacity="1" /><path clip-path="url(#clip240)" d="M 0 0 M795.423 446.06 Q794.975 445.799 794.44 445.684 Q793.919 445.553 793.282 445.553 Q791.025 445.553 789.81 447.029 Q788.609 448.49 788.609 451.239 L788.609 459.775 L785.933 459.775 L785.933 443.571 L788.609 443.571 L788.609 446.089 Q789.448 444.613 790.794 443.904 Q792.139 443.181 794.063 443.181 Q794.338 443.181 794.671 443.224 Q795.004 443.253 795.409 443.325 L795.423 446.06 Z" fill="#000000" fill-rule="evenodd" fill-opacity="1" /><path clip-path="url(#clip240)" d="M 0 0 M805.58 451.63 Q802.353 451.63 801.109 452.368 Q799.865 453.105 799.865 454.885 Q799.865 456.303 800.791 457.142 Q801.731 457.967 803.337 457.967 Q805.551 457.967 806.882 456.404 Q808.227 454.827 808.227 452.223 L808.227 451.63 L805.58 451.63 M810.889 450.53 L810.889 459.775 L808.227 459.775 L808.227 457.316 Q807.316 458.791 805.956 459.5 Q804.596 460.195 802.628 460.195 Q800.14 460.195 798.664 458.806 Q797.203 457.402 797.203 455.059 Q797.203 452.324 799.026 450.935 Q800.863 449.546 804.495 449.546 L808.227 449.546 L808.227 449.286 Q808.227 447.449 807.012 446.45 Q805.811 445.438 803.626 445.438 Q802.238 445.438 800.921 445.77 Q799.604 446.103 798.389 446.769 L798.389 444.309 Q799.85 443.745 801.225 443.47 Q802.599 443.181 803.901 443.181 Q807.417 443.181 809.153 445.004 Q810.889 446.827 810.889 450.53 Z" fill="#000000" fill-rule="evenodd" fill-opacity="1" /><path clip-path="url(#clip240)" d="M 0 0 M813.681 443.571 L816.343 443.571 L816.343 459.775 L813.681 459.775 L813.681 443.571 M813.681 437.264 L816.343 437.264 L816.343 440.634 L813.681 440.634 L813.681 437.264 Z" fill="#000000" fill-rule="evenodd" fill-opacity="1" /><path clip-path="url(#clip240)" d="M 0 0 M832.605 449.995 L832.605 459.775 L829.943 459.775 L829.943 450.082 Q829.943 447.781 829.046 446.639 Q828.149 445.496 826.355 445.496 Q824.199 445.496 822.955 446.87 Q821.711 448.244 821.711 450.617 L821.711 459.775 L819.034 459.775 L819.034 443.571 L821.711 443.571 L821.711 446.089 Q822.666 444.628 823.953 443.904 Q825.255 443.181 826.948 443.181 Q829.74 443.181 831.173 444.917 Q832.605 446.639 832.605 449.995 Z" fill="#000000" fill-rule="evenodd" fill-opacity="1" /><path clip-path="url(#clip240)" d="M 0 0 M838.03 438.971 L838.03 443.571 L843.513 443.571 L843.513 445.64 L838.03 445.64 L838.03 454.436 Q838.03 456.419 838.566 456.983 Q839.115 457.547 840.779 457.547 L843.513 457.547 L843.513 459.775 L840.779 459.775 Q837.697 459.775 836.526 458.632 Q835.354 457.475 835.354 454.436 L835.354 445.64 L833.401 445.64 L833.401 443.571 L835.354 443.571 L835.354 438.971 L838.03 438.971 Z" fill="#000000" fill-rule="evenodd" fill-opacity="1" /><path clip-path="url(#clip240)" d="M 0 0 M856.635 444.049 L856.635 446.566 Q855.507 445.987 854.292 445.698 Q853.076 445.409 851.774 445.409 Q849.792 445.409 848.794 446.016 Q847.81 446.624 847.81 447.839 Q847.81 448.765 848.519 449.301 Q849.228 449.821 851.369 450.299 L852.281 450.501 Q855.116 451.109 856.303 452.223 Q857.503 453.322 857.503 455.305 Q857.503 457.561 855.71 458.878 Q853.93 460.195 850.805 460.195 Q849.503 460.195 848.085 459.934 Q846.682 459.688 845.119 459.182 L845.119 456.433 Q846.595 457.2 848.027 457.59 Q849.46 457.967 850.863 457.967 Q852.744 457.967 853.756 457.33 Q854.769 456.679 854.769 455.507 Q854.769 454.422 854.031 453.843 Q853.308 453.265 850.834 452.729 L849.908 452.512 Q847.434 451.991 846.335 450.921 Q845.235 449.836 845.235 447.955 Q845.235 445.669 846.855 444.425 Q848.476 443.181 851.456 443.181 Q852.932 443.181 854.234 443.398 Q855.536 443.615 856.635 444.049 Z" fill="#000000" fill-rule="evenodd" fill-opacity="1" /><path clip-path="url(#clip240)" d="M 0 0 M1452.89 1020.06 L1452.89 1028.18 L1456.57 1028.18 Q1458.61 1028.18 1459.72 1027.12 Q1460.83 1026.07 1460.83 1024.11 Q1460.83 1022.18 1459.72 1021.12 Q1458.61 1020.06 1456.57 1020.06 L1452.89 1020.06 M1449.97 1017.66 L1456.57 1017.66 Q1460.2 1017.66 1462.05 1019.31 Q1463.91 1020.95 1463.91 1024.11 Q1463.91 1027.31 1462.05 1028.95 Q1460.2 1030.58 1456.57 1030.58 L1452.89 1030.58 L1452.89 1039.26 L1449.97 1039.26 L1449.97 1017.66 Z" fill="#000000" fill-rule="evenodd" fill-opacity="1" /><path clip-path="url(#clip240)" d="M 0 0 M1479.51 1030.49 L1479.51 1031.8 L1467.27 1031.8 Q1467.44 1034.55 1468.92 1035.99 Q1470.41 1037.42 1473.06 1037.42 Q1474.59 1037.42 1476.02 1037.05 Q1477.47 1036.67 1478.89 1035.92 L1478.89 1038.44 Q1477.46 1039.05 1475.95 1039.36 Q1474.45 1039.68 1472.9 1039.68 Q1469.02 1039.68 1466.75 1037.42 Q1464.49 1035.17 1464.49 1031.32 Q1464.49 1027.34 1466.63 1025.01 Q1468.79 1022.67 1472.44 1022.67 Q1475.71 1022.67 1477.6 1024.78 Q1479.51 1026.88 1479.51 1030.49 M1476.85 1029.71 Q1476.82 1027.53 1475.62 1026.23 Q1474.43 1024.92 1472.47 1024.92 Q1470.24 1024.92 1468.89 1026.18 Q1467.56 1027.44 1467.36 1029.73 L1476.85 1029.71 Z" fill="#000000" fill-rule="evenodd" fill-opacity="1" /><path clip-path="url(#clip240)" d="M 0 0 M1491.69 1025.55 Q1491.24 1025.29 1490.71 1025.17 Q1490.19 1025.04 1489.55 1025.04 Q1487.29 1025.04 1486.08 1026.52 Q1484.88 1027.98 1484.88 1030.73 L1484.88 1039.26 L1482.2 1039.26 L1482.2 1023.06 L1484.88 1023.06 L1484.88 1025.58 Q1485.72 1024.1 1487.06 1023.39 Q1488.41 1022.67 1490.33 1022.67 Q1490.61 1022.67 1490.94 1022.71 Q1491.27 1022.74 1491.68 1022.81 L1491.69 1025.55 Z" fill="#000000" fill-rule="evenodd" fill-opacity="1" /><path clip-path="url(#clip240)" d="M 0 0 M1502.69 1016.75 L1502.69 1018.96 L1500.14 1018.96 Q1498.71 1018.96 1498.15 1019.54 Q1497.6 1020.12 1497.6 1021.63 L1497.6 1023.06 L1501.98 1023.06 L1501.98 1025.13 L1497.6 1025.13 L1497.6 1039.26 L1494.92 1039.26 L1494.92 1025.13 L1492.37 1025.13 L1492.37 1023.06 L1494.92 1023.06 L1494.92 1021.93 Q1494.92 1019.22 1496.18 1018 Q1497.44 1016.75 1500.17 1016.75 L1502.69 1016.75 Z" fill="#000000" fill-rule="evenodd" fill-opacity="1" /><path clip-path="url(#clip240)" d="M 0 0 M1511.76 1024.92 Q1509.62 1024.92 1508.37 1026.6 Q1507.13 1028.27 1507.13 1031.17 Q1507.13 1034.08 1508.36 1035.76 Q1509.6 1037.42 1511.76 1037.42 Q1513.89 1037.42 1515.13 1035.75 Q1516.37 1034.07 1516.37 1031.17 Q1516.37 1028.3 1515.13 1026.62 Q1513.89 1024.92 1511.76 1024.92 M1511.76 1022.67 Q1515.23 1022.67 1517.21 1024.92 Q1519.2 1027.18 1519.2 1031.17 Q1519.2 1035.15 1517.21 1037.42 Q1515.23 1039.68 1511.76 1039.68 Q1508.27 1039.68 1506.29 1037.42 Q1504.32 1035.15 1504.32 1031.17 Q1504.32 1027.18 1506.29 1024.92 Q1508.27 1022.67 1511.76 1022.67 Z" fill="#000000" fill-rule="evenodd" fill-opacity="1" /><path clip-path="url(#clip240)" d="M 0 0 M1531.38 1025.55 Q1530.93 1025.29 1530.39 1025.17 Q1529.87 1025.04 1529.24 1025.04 Q1526.98 1025.04 1525.76 1026.52 Q1524.56 1027.98 1524.56 1030.73 L1524.56 1039.26 L1521.89 1039.26 L1521.89 1023.06 L1524.56 1023.06 L1524.56 1025.58 Q1525.4 1024.1 1526.75 1023.39 Q1528.09 1022.67 1530.02 1022.67 Q1530.29 1022.67 1530.62 1022.71 Q1530.96 1022.74 1531.36 1022.81 L1531.38 1025.55 Z" fill="#000000" fill-rule="evenodd" fill-opacity="1" /><path clip-path="url(#clip240)" d="M 0 0 M1546.26 1026.17 Q1547.26 1024.38 1548.65 1023.52 Q1550.04 1022.67 1551.92 1022.67 Q1554.45 1022.67 1555.83 1024.45 Q1557.2 1026.21 1557.2 1029.48 L1557.2 1039.26 L1554.52 1039.26 L1554.52 1029.57 Q1554.52 1027.24 1553.7 1026.11 Q1552.88 1024.98 1551.18 1024.98 Q1549.11 1024.98 1547.91 1026.36 Q1546.71 1027.73 1546.71 1030.1 L1546.71 1039.26 L1544.04 1039.26 L1544.04 1029.57 Q1544.04 1027.23 1543.21 1026.11 Q1542.39 1024.98 1540.67 1024.98 Q1538.63 1024.98 1537.42 1026.37 Q1536.22 1027.75 1536.22 1030.1 L1536.22 1039.26 L1533.55 1039.26 L1533.55 1023.06 L1536.22 1023.06 L1536.22 1025.58 Q1537.14 1024.09 1538.41 1023.38 Q1539.68 1022.67 1541.43 1022.67 Q1543.2 1022.67 1544.43 1023.57 Q1545.67 1024.46 1546.26 1026.17 Z" fill="#000000" fill-rule="evenodd" fill-opacity="1" /><path clip-path="url(#clip240)" d="M 0 0 M1567.36 1031.12 Q1564.13 1031.12 1562.89 1031.85 Q1561.64 1032.59 1561.64 1034.37 Q1561.64 1035.79 1562.57 1036.63 Q1563.51 1037.45 1565.12 1037.45 Q1567.33 1037.45 1568.66 1035.89 Q1570.01 1034.31 1570.01 1031.71 L1570.01 1031.12 L1567.36 1031.12 M1572.67 1030.02 L1572.67 1039.26 L1570.01 1039.26 L1570.01 1036.8 Q1569.09 1038.28 1567.73 1038.99 Q1566.37 1039.68 1564.41 1039.68 Q1561.92 1039.68 1560.44 1038.29 Q1558.98 1036.89 1558.98 1034.55 Q1558.98 1031.81 1560.8 1030.42 Q1562.64 1029.03 1566.27 1029.03 L1570.01 1029.03 L1570.01 1028.77 Q1570.01 1026.94 1568.79 1025.94 Q1567.59 1024.92 1565.4 1024.92 Q1564.02 1024.92 1562.7 1025.26 Q1561.38 1025.59 1560.17 1026.26 L1560.17 1023.8 Q1561.63 1023.23 1563 1022.96 Q1564.38 1022.67 1565.68 1022.67 Q1569.2 1022.67 1570.93 1024.49 Q1572.67 1026.31 1572.67 1030.02 Z" fill="#000000" fill-rule="evenodd" fill-opacity="1" /><path clip-path="url(#clip240)" d="M 0 0 M1588.93 1029.48 L1588.93 1039.26 L1586.27 1039.26 L1586.27 1029.57 Q1586.27 1027.27 1585.37 1026.13 Q1584.47 1024.98 1582.68 1024.98 Q1580.52 1024.98 1579.28 1026.36 Q1578.03 1027.73 1578.03 1030.1 L1578.03 1039.26 L1575.36 1039.26 L1575.36 1023.06 L1578.03 1023.06 L1578.03 1025.58 Q1578.99 1024.11 1580.28 1023.39 Q1581.58 1022.67 1583.27 1022.67 Q1586.06 1022.67 1587.5 1024.4 Q1588.93 1026.13 1588.93 1029.48 Z" fill="#000000" fill-rule="evenodd" fill-opacity="1" /><path clip-path="url(#clip240)" d="M 0 0 M1603.38 1023.68 L1603.38 1026.17 Q1602.25 1025.55 1601.11 1025.24 Q1599.98 1024.92 1598.82 1024.92 Q1596.23 1024.92 1594.8 1026.57 Q1593.37 1028.21 1593.37 1031.17 Q1593.37 1034.14 1594.8 1035.79 Q1596.23 1037.42 1598.82 1037.42 Q1599.98 1037.42 1601.11 1037.12 Q1602.25 1036.8 1603.38 1036.18 L1603.38 1038.64 Q1602.27 1039.16 1601.07 1039.42 Q1599.88 1039.68 1598.54 1039.68 Q1594.87 1039.68 1592.72 1037.38 Q1590.56 1035.08 1590.56 1031.17 Q1590.56 1027.21 1592.73 1024.94 Q1594.92 1022.67 1598.71 1022.67 Q1599.94 1022.67 1601.11 1022.93 Q1602.28 1023.17 1603.38 1023.68 Z" fill="#000000" fill-rule="evenodd" fill-opacity="1" /><path clip-path="url(#clip240)" d="M 0 0 M1620.03 1030.49 L1620.03 1031.8 L1607.79 1031.8 Q1607.97 1034.55 1609.44 1035.99 Q1610.93 1037.42 1613.58 1037.42 Q1615.11 1037.42 1616.55 1037.05 Q1617.99 1036.67 1619.41 1035.92 L1619.41 1038.44 Q1617.98 1039.05 1616.47 1039.36 Q1614.97 1039.68 1613.42 1039.68 Q1609.54 1039.68 1607.27 1037.42 Q1605.02 1035.17 1605.02 1031.32 Q1605.02 1027.34 1607.16 1025.01 Q1609.31 1022.67 1612.96 1022.67 Q1616.23 1022.67 1618.12 1024.78 Q1620.03 1026.88 1620.03 1030.49 M1617.37 1029.71 Q1617.34 1027.53 1616.14 1026.23 Q1614.96 1024.92 1612.99 1024.92 Q1610.76 1024.92 1609.41 1026.18 Q1608.08 1027.44 1607.88 1029.73 L1617.37 1029.71 Z" fill="#000000" fill-rule="evenodd" fill-opacity="1" /><path clip-path="url(#clip240)" d="M 0 0 M1635.14 1044.18 L1635.14 1046.25 L1619.74 1046.25 L1619.74 1044.18 L1635.14 1044.18 Z" fill="#000000" fill-rule="evenodd" fill-opacity="1" /><path clip-path="url(#clip240)" d="M 0 0 M1640.97 1020.06 L1640.97 1028.18 L1644.64 1028.18 Q1646.68 1028.18 1647.8 1027.12 Q1648.91 1026.07 1648.91 1024.11 Q1648.91 1022.18 1647.8 1021.12 Q1646.68 1020.06 1644.64 1020.06 L1640.97 1020.06 M1638.05 1017.66 L1644.64 1017.66 Q1648.27 1017.66 1650.13 1019.31 Q1651.99 1020.95 1651.99 1024.11 Q1651.99 1027.31 1650.13 1028.95 Q1648.27 1030.58 1644.64 1030.58 L1640.97 1030.58 L1640.97 1039.26 L1638.05 1039.26 L1638.05 1017.66 Z" fill="#000000" fill-rule="evenodd" fill-opacity="1" /><path clip-path="url(#clip240)" d="M 0 0 M1660.82 1031.12 Q1657.59 1031.12 1656.35 1031.85 Q1655.1 1032.59 1655.1 1034.37 Q1655.1 1035.79 1656.03 1036.63 Q1656.97 1037.45 1658.58 1037.45 Q1660.79 1037.45 1662.12 1035.89 Q1663.47 1034.31 1663.47 1031.71 L1663.47 1031.12 L1660.82 1031.12 M1666.13 1030.02 L1666.13 1039.26 L1663.47 1039.26 L1663.47 1036.8 Q1662.55 1038.28 1661.19 1038.99 Q1659.83 1039.68 1657.87 1039.68 Q1655.38 1039.68 1653.9 1038.29 Q1652.44 1036.89 1652.44 1034.55 Q1652.44 1031.81 1654.26 1030.42 Q1656.1 1029.03 1659.73 1029.03 L1663.47 1029.03 L1663.47 1028.77 Q1663.47 1026.94 1662.25 1025.94 Q1661.05 1024.92 1658.86 1024.92 Q1657.48 1024.92 1656.16 1025.26 Q1654.84 1025.59 1653.63 1026.26 L1653.63 1023.8 Q1655.09 1023.23 1656.46 1022.96 Q1657.84 1022.67 1659.14 1022.67 Q1662.66 1022.67 1664.39 1024.49 Q1666.13 1026.31 1666.13 1030.02 Z" fill="#000000" fill-rule="evenodd" fill-opacity="1" /><path clip-path="url(#clip240)" d="M 0 0 M1678.31 1025.55 Q1677.86 1025.29 1677.33 1025.17 Q1676.8 1025.04 1676.17 1025.04 Q1673.91 1025.04 1672.7 1026.52 Q1671.49 1027.98 1671.49 1030.73 L1671.49 1039.26 L1668.82 1039.26 L1668.82 1023.06 L1671.49 1023.06 L1671.49 1025.58 Q1672.33 1024.1 1673.68 1023.39 Q1675.02 1022.67 1676.95 1022.67 Q1677.22 1022.67 1677.56 1022.71 Q1677.89 1022.74 1678.29 1022.81 L1678.31 1025.55 Z" fill="#000000" fill-rule="evenodd" fill-opacity="1" /><path clip-path="url(#clip240)" d="M 0 0 M1688.47 1031.12 Q1685.24 1031.12 1683.99 1031.85 Q1682.75 1032.59 1682.75 1034.37 Q1682.75 1035.79 1683.68 1036.63 Q1684.62 1037.45 1686.22 1037.45 Q1688.44 1037.45 1689.77 1035.89 Q1691.11 1034.31 1691.11 1031.71 L1691.11 1031.12 L1688.47 1031.12 M1693.77 1030.02 L1693.77 1039.26 L1691.11 1039.26 L1691.11 1036.8 Q1690.2 1038.28 1688.84 1038.99 Q1687.48 1039.68 1685.51 1039.68 Q1683.03 1039.68 1681.55 1038.29 Q1680.09 1036.89 1680.09 1034.55 Q1680.09 1031.81 1681.91 1030.42 Q1683.75 1029.03 1687.38 1029.03 L1691.11 1029.03 L1691.11 1028.77 Q1691.11 1026.94 1689.9 1025.94 Q1688.7 1024.92 1686.51 1024.92 Q1685.12 1024.92 1683.81 1025.26 Q1682.49 1025.59 1681.27 1026.26 L1681.27 1023.8 Q1682.74 1023.23 1684.11 1022.96 Q1685.48 1022.67 1686.79 1022.67 Q1690.3 1022.67 1692.04 1024.49 Q1693.77 1026.31 1693.77 1030.02 Z" fill="#000000" fill-rule="evenodd" fill-opacity="1" /><path clip-path="url(#clip240)" d="M 0 0 M1709.18 1026.17 Q1710.18 1024.38 1711.57 1023.52 Q1712.96 1022.67 1714.84 1022.67 Q1717.37 1022.67 1718.75 1024.45 Q1720.12 1026.21 1720.12 1029.48 L1720.12 1039.26 L1717.44 1039.26 L1717.44 1029.57 Q1717.44 1027.24 1716.62 1026.11 Q1715.79 1024.98 1714.1 1024.98 Q1712.03 1024.98 1710.83 1026.36 Q1709.63 1027.73 1709.63 1030.1 L1709.63 1039.26 L1706.95 1039.26 L1706.95 1029.57 Q1706.95 1027.23 1706.13 1026.11 Q1705.31 1024.98 1703.58 1024.98 Q1701.54 1024.98 1700.34 1026.37 Q1699.14 1027.75 1699.14 1030.1 L1699.14 1039.26 L1696.47 1039.26 L1696.47 1023.06 L1699.14 1023.06 L1699.14 1025.58 Q1700.05 1024.09 1701.33 1023.38 Q1702.6 1022.67 1704.35 1022.67 Q1706.12 1022.67 1707.35 1023.57 Q1708.59 1024.46 1709.18 1026.17 Z" fill="#000000" fill-rule="evenodd" fill-opacity="1" /><path clip-path="url(#clip240)" d="M 0 0 M1736.77 1030.49 L1736.77 1031.8 L1724.53 1031.8 Q1724.71 1034.55 1726.18 1035.99 Q1727.67 1037.42 1730.32 1037.42 Q1731.85 1037.42 1733.29 1037.05 Q1734.73 1036.67 1736.15 1035.92 L1736.15 1038.44 Q1734.72 1039.05 1733.21 1039.36 Q1731.71 1039.68 1730.16 1039.68 Q1726.28 1039.68 1724.01 1037.42 Q1721.75 1035.17 1721.75 1031.32 Q1721.75 1027.34 1723.9 1025.01 Q1726.05 1022.67 1729.7 1022.67 Q1732.97 1022.67 1734.86 1024.78 Q1736.77 1026.88 1736.77 1030.49 M1734.11 1029.71 Q1734.08 1027.53 1732.88 1026.23 Q1731.69 1024.92 1729.73 1024.92 Q1727.5 1024.92 1726.15 1026.18 Q1724.82 1027.44 1724.62 1029.73 L1734.11 1029.71 Z" fill="#000000" fill-rule="evenodd" fill-opacity="1" /><path clip-path="url(#clip240)" d="M 0 0 M1742.2 1018.46 L1742.2 1023.06 L1747.68 1023.06 L1747.68 1025.13 L1742.2 1025.13 L1742.2 1033.92 Q1742.2 1035.91 1742.73 1036.47 Q1743.28 1037.03 1744.95 1037.03 L1747.68 1037.03 L1747.68 1039.26 L1744.95 1039.26 Q1741.86 1039.26 1740.69 1038.12 Q1739.52 1036.96 1739.52 1033.92 L1739.52 1025.13 L1737.57 1025.13 L1737.57 1023.06 L1739.52 1023.06 L1739.52 1018.46 L1742.2 1018.46 Z" fill="#000000" fill-rule="evenodd" fill-opacity="1" /><path clip-path="url(#clip240)" d="M 0 0 M1764.33 1030.49 L1764.33 1031.8 L1752.09 1031.8 Q1752.27 1034.55 1753.74 1035.99 Q1755.23 1037.42 1757.88 1037.42 Q1759.41 1037.42 1760.85 1037.05 Q1762.29 1036.67 1763.71 1035.92 L1763.71 1038.44 Q1762.28 1039.05 1760.77 1039.36 Q1759.27 1039.68 1757.72 1039.68 Q1753.84 1039.68 1751.57 1037.42 Q1749.32 1035.17 1749.32 1031.32 Q1749.32 1027.34 1751.46 1025.01 Q1753.61 1022.67 1757.26 1022.67 Q1760.53 1022.67 1762.42 1024.78 Q1764.33 1026.88 1764.33 1030.49 M1761.67 1029.71 Q1761.64 1027.53 1760.44 1026.23 Q1759.25 1024.92 1757.29 1024.92 Q1755.06 1024.92 1753.71 1026.18 Q1752.38 1027.44 1752.18 1029.73 L1761.67 1029.71 Z" fill="#000000" fill-rule="evenodd" fill-opacity="1" /><path clip-path="url(#clip240)" d="M 0 0 M1776.51 1025.55 Q1776.07 1025.29 1775.53 1025.17 Q1775.01 1025.04 1774.37 1025.04 Q1772.12 1025.04 1770.9 1026.52 Q1769.7 1027.98 1769.7 1030.73 L1769.7 1039.26 L1767.02 1039.26 L1767.02 1023.06 L1769.7 1023.06 L1769.7 1025.58 Q1770.54 1024.1 1771.88 1023.39 Q1773.23 1022.67 1775.15 1022.67 Q1775.43 1022.67 1775.76 1022.71 Q1776.09 1022.74 1776.5 1022.81 L1776.51 1025.55 Z" fill="#000000" fill-rule="evenodd" fill-opacity="1" /><path clip-path="url(#clip240)" d="M 0 0 M1789.64 1023.54 L1789.64 1026.05 Q1788.51 1025.47 1787.29 1025.19 Q1786.08 1024.9 1784.78 1024.9 Q1782.79 1024.9 1781.8 1025.5 Q1780.81 1026.11 1780.81 1027.33 Q1780.81 1028.25 1781.52 1028.79 Q1782.23 1029.31 1784.37 1029.79 L1785.28 1029.99 Q1788.12 1030.6 1789.3 1031.71 Q1790.5 1032.81 1790.5 1034.79 Q1790.5 1037.05 1788.71 1038.37 Q1786.93 1039.68 1783.81 1039.68 Q1782.5 1039.68 1781.09 1039.42 Q1779.68 1039.18 1778.12 1038.67 L1778.12 1035.92 Q1779.6 1036.69 1781.03 1037.08 Q1782.46 1037.45 1783.86 1037.45 Q1785.74 1037.45 1786.76 1036.82 Q1787.77 1036.17 1787.77 1034.99 Q1787.77 1033.91 1787.03 1033.33 Q1786.31 1032.75 1783.84 1032.22 L1782.91 1032 Q1780.44 1031.48 1779.34 1030.41 Q1778.24 1029.32 1778.24 1027.44 Q1778.24 1025.16 1779.86 1023.91 Q1781.48 1022.67 1784.46 1022.67 Q1785.93 1022.67 1787.23 1022.89 Q1788.54 1023.1 1789.64 1023.54 Z" fill="#000000" fill-rule="evenodd" fill-opacity="1" /><path clip-path="url(#clip240)" d="M 0 0 M972.18 866.835 L972.18 869.916 Q970.704 868.542 969.026 867.862 Q967.362 867.182 965.481 867.182 Q961.778 867.182 959.81 869.453 Q957.843 871.71 957.843 875.993 Q957.843 880.261 959.81 882.532 Q961.778 884.789 965.481 884.789 Q967.362 884.789 969.026 884.109 Q970.704 883.429 972.18 882.055 L972.18 885.107 Q970.646 886.149 968.925 886.67 Q967.217 887.191 965.308 887.191 Q960.403 887.191 957.582 884.196 Q954.761 881.187 954.761 875.993 Q954.761 870.784 957.582 867.79 Q960.403 864.78 965.308 864.78 Q967.246 864.78 968.954 865.301 Q970.675 865.808 972.18 866.835 Z" fill="#000000" fill-rule="evenodd" fill-opacity="1" /><path clip-path="url(#clip240)" d="M 0 0 M974.972 864.26 L977.634 864.26 L977.634 886.771 L974.972 886.771 L974.972 864.26 Z" fill="#000000" fill-rule="evenodd" fill-opacity="1" /><path clip-path="url(#clip240)" d="M 0 0 M980.426 870.567 L983.088 870.567 L983.088 886.771 L980.426 886.771 L980.426 870.567 M980.426 864.26 L983.088 864.26 L983.088 867.631 L980.426 867.631 L980.426 864.26 Z" fill="#000000" fill-rule="evenodd" fill-opacity="1" /><path clip-path="url(#clip240)" d="M 0 0 M999.74 878.004 L999.74 879.306 L987.501 879.306 Q987.675 882.055 989.15 883.501 Q990.64 884.934 993.288 884.934 Q994.821 884.934 996.254 884.558 Q997.701 884.181 999.118 883.429 L999.118 885.946 Q997.686 886.554 996.181 886.872 Q994.677 887.191 993.129 887.191 Q989.252 887.191 986.98 884.934 Q984.723 882.677 984.723 878.828 Q984.723 874.85 986.864 872.521 Q989.02 870.177 992.666 870.177 Q995.935 870.177 997.831 872.289 Q999.74 874.387 999.74 878.004 M997.078 877.223 Q997.049 875.038 995.849 873.736 Q994.662 872.434 992.695 872.434 Q990.467 872.434 989.121 873.692 Q987.79 874.951 987.588 877.237 L997.078 877.223 Z" fill="#000000" fill-rule="evenodd" fill-opacity="1" /><path clip-path="url(#clip240)" d="M 0 0 M1016 876.991 L1016 886.771 L1013.34 886.771 L1013.34 877.078 Q1013.34 874.778 1012.44 873.635 Q1011.55 872.492 1009.75 872.492 Q1007.6 872.492 1006.35 873.866 Q1005.11 875.24 1005.11 877.613 L1005.11 886.771 L1002.43 886.771 L1002.43 870.567 L1005.11 870.567 L1005.11 873.085 Q1006.06 871.624 1007.35 870.9 Q1008.65 870.177 1010.35 870.177 Q1013.14 870.177 1014.57 871.913 Q1016 873.635 1016 876.991 Z" fill="#000000" fill-rule="evenodd" fill-opacity="1" /><path clip-path="url(#clip240)" d="M 0 0 M1021.43 865.967 L1021.43 870.567 L1026.91 870.567 L1026.91 872.636 L1021.43 872.636 L1021.43 881.433 Q1021.43 883.415 1021.96 883.979 Q1022.51 884.543 1024.18 884.543 L1026.91 884.543 L1026.91 886.771 L1024.18 886.771 Q1021.09 886.771 1019.92 885.628 Q1018.75 884.471 1018.75 881.433 L1018.75 872.636 L1016.8 872.636 L1016.8 870.567 L1018.75 870.567 L1018.75 865.967 L1021.43 865.967 Z" fill="#000000" fill-rule="evenodd" fill-opacity="1" /><path clip-path="url(#clip240)" d="M 0 0 M1042.01 891.69 L1042.01 893.759 L1026.62 893.759 L1026.62 891.69 L1042.01 891.69 Z" fill="#000000" fill-rule="evenodd" fill-opacity="1" /><path clip-path="url(#clip240)" d="M 0 0 M1052.17 878.626 Q1048.94 878.626 1047.7 879.364 Q1046.46 880.102 1046.46 881.881 Q1046.46 883.299 1047.38 884.138 Q1048.32 884.963 1049.93 884.963 Q1052.14 884.963 1053.47 883.4 Q1054.82 881.823 1054.82 879.219 L1054.82 878.626 L1052.17 878.626 M1057.48 877.526 L1057.48 886.771 L1054.82 886.771 L1054.82 884.312 Q1053.91 885.787 1052.55 886.496 Q1051.19 887.191 1049.22 887.191 Q1046.73 887.191 1045.26 885.802 Q1043.79 884.398 1043.79 882.055 Q1043.79 879.32 1045.62 877.931 Q1047.45 876.543 1051.09 876.543 L1054.82 876.543 L1054.82 876.282 Q1054.82 874.445 1053.6 873.447 Q1052.4 872.434 1050.22 872.434 Q1048.83 872.434 1047.51 872.767 Q1046.2 873.099 1044.98 873.765 L1044.98 871.305 Q1046.44 870.741 1047.82 870.466 Q1049.19 870.177 1050.49 870.177 Q1054.01 870.177 1055.74 872 Q1057.48 873.823 1057.48 877.526 Z" fill="#000000" fill-rule="evenodd" fill-opacity="1" /><path clip-path="url(#clip240)" d="M 0 0 M1073.74 876.991 L1073.74 886.771 L1071.08 886.771 L1071.08 877.078 Q1071.08 874.778 1070.18 873.635 Q1069.29 872.492 1067.49 872.492 Q1065.34 872.492 1064.09 873.866 Q1062.85 875.24 1062.85 877.613 L1062.85 886.771 L1060.17 886.771 L1060.17 870.567 L1062.85 870.567 L1062.85 873.085 Q1063.8 871.624 1065.09 870.9 Q1066.39 870.177 1068.08 870.177 Q1070.88 870.177 1072.31 871.913 Q1073.74 873.635 1073.74 876.991 Z" fill="#000000" fill-rule="evenodd" fill-opacity="1" /><path clip-path="url(#clip240)" d="M 0 0 M1087.2 873.027 L1087.2 864.26 L1089.86 864.26 L1089.86 886.771 L1087.2 886.771 L1087.2 884.341 Q1086.36 885.787 1085.07 886.496 Q1083.8 887.191 1082 887.191 Q1079.07 887.191 1077.21 884.847 Q1075.38 882.503 1075.38 878.684 Q1075.38 874.864 1077.21 872.521 Q1079.07 870.177 1082 870.177 Q1083.8 870.177 1085.07 870.886 Q1086.36 871.58 1087.2 873.027 M1078.13 878.684 Q1078.13 881.621 1079.33 883.299 Q1080.54 884.963 1082.65 884.963 Q1084.77 884.963 1085.98 883.299 Q1087.2 881.621 1087.2 878.684 Q1087.2 875.747 1085.98 874.083 Q1084.77 872.405 1082.65 872.405 Q1080.54 872.405 1079.33 874.083 Q1078.13 875.747 1078.13 878.684 Z" fill="#000000" fill-rule="evenodd" fill-opacity="1" /><path clip-path="url(#clip240)" d="M 0 0 M1104.96 891.69 L1104.96 893.759 L1089.57 893.759 L1089.57 891.69 L1104.96 891.69 Z" fill="#000000" fill-rule="evenodd" fill-opacity="1" /><path clip-path="url(#clip240)" d="M 0 0 M1124.05 866.835 L1124.05 869.916 Q1122.57 868.542 1120.89 867.862 Q1119.23 867.182 1117.35 867.182 Q1113.64 867.182 1111.68 869.453 Q1109.71 871.71 1109.71 875.993 Q1109.71 880.261 1111.68 882.532 Q1113.64 884.789 1117.35 884.789 Q1119.23 884.789 1120.89 884.109 Q1122.57 883.429 1124.05 882.055 L1124.05 885.107 Q1122.51 886.149 1120.79 886.67 Q1119.08 887.191 1117.17 887.191 Q1112.27 887.191 1109.45 884.196 Q1106.63 881.187 1106.63 875.993 Q1106.63 870.784 1109.45 867.79 Q1112.27 864.78 1117.17 864.78 Q1119.11 864.78 1120.82 865.301 Q1122.54 865.808 1124.05 866.835 Z" fill="#000000" fill-rule="evenodd" fill-opacity="1" /><path clip-path="url(#clip240)" d="M 0 0 M1133.12 872.434 Q1130.98 872.434 1129.73 874.112 Q1128.49 875.776 1128.49 878.684 Q1128.49 881.592 1129.72 883.27 Q1130.96 884.934 1133.12 884.934 Q1135.24 884.934 1136.49 883.255 Q1137.73 881.577 1137.73 878.684 Q1137.73 875.805 1136.49 874.126 Q1135.24 872.434 1133.12 872.434 M1133.12 870.177 Q1136.59 870.177 1138.57 872.434 Q1140.55 874.691 1140.55 878.684 Q1140.55 882.662 1138.57 884.934 Q1136.59 887.191 1133.12 887.191 Q1129.63 887.191 1127.65 884.934 Q1125.68 882.662 1125.68 878.684 Q1125.68 874.691 1127.65 872.434 Q1129.63 870.177 1133.12 870.177 Z" fill="#000000" fill-rule="evenodd" fill-opacity="1" /><path clip-path="url(#clip240)" d="M 0 0 M1156.81 876.991 L1156.81 886.771 L1154.15 886.771 L1154.15 877.078 Q1154.15 874.778 1153.26 873.635 Q1152.36 872.492 1150.56 872.492 Q1148.41 872.492 1147.16 873.866 Q1145.92 875.24 1145.92 877.613 L1145.92 886.771 L1143.24 886.771 L1143.24 870.567 L1145.92 870.567 L1145.92 873.085 Q1146.88 871.624 1148.16 870.9 Q1149.46 870.177 1151.16 870.177 Q1153.95 870.177 1155.38 871.913 Q1156.81 873.635 1156.81 876.991 Z" fill="#000000" fill-rule="evenodd" fill-opacity="1" /><path clip-path="url(#clip240)" d="M 0 0 M1169.94 871.045 L1169.94 873.562 Q1168.81 872.984 1167.59 872.694 Q1166.38 872.405 1165.08 872.405 Q1163.09 872.405 1162.09 873.012 Q1161.11 873.62 1161.11 874.835 Q1161.11 875.761 1161.82 876.297 Q1162.53 876.817 1164.67 877.295 L1165.58 877.497 Q1168.42 878.105 1169.6 879.219 Q1170.8 880.319 1170.8 882.301 Q1170.8 884.558 1169.01 885.874 Q1167.23 887.191 1164.11 887.191 Q1162.8 887.191 1161.39 886.93 Q1159.98 886.684 1158.42 886.178 L1158.42 883.429 Q1159.9 884.196 1161.33 884.586 Q1162.76 884.963 1164.16 884.963 Q1166.04 884.963 1167.06 884.326 Q1168.07 883.675 1168.07 882.503 Q1168.07 881.418 1167.33 880.839 Q1166.61 880.261 1164.13 879.725 L1163.21 879.508 Q1160.73 878.988 1159.64 877.917 Q1158.54 876.832 1158.54 874.951 Q1158.54 872.665 1160.16 871.421 Q1161.78 870.177 1164.76 870.177 Q1166.23 870.177 1167.53 870.394 Q1168.84 870.611 1169.94 871.045 Z" fill="#000000" fill-rule="evenodd" fill-opacity="1" /><path clip-path="url(#clip240)" d="M 0 0 M1173.32 880.376 L1173.32 870.567 L1175.98 870.567 L1175.98 880.275 Q1175.98 882.576 1176.88 883.733 Q1177.78 884.876 1179.57 884.876 Q1181.73 884.876 1182.97 883.501 Q1184.23 882.127 1184.23 879.754 L1184.23 870.567 L1186.89 870.567 L1186.89 886.771 L1184.23 886.771 L1184.23 884.283 Q1183.26 885.758 1181.97 886.482 Q1180.7 887.191 1179.01 887.191 Q1176.22 887.191 1174.77 885.455 Q1173.32 883.718 1173.32 880.376 M1180.02 870.177 L1180.02 870.177 Z" fill="#000000" fill-rule="evenodd" fill-opacity="1" /><path clip-path="url(#clip240)" d="M 0 0 M1189.68 864.26 L1192.35 864.26 L1192.35 886.771 L1189.68 886.771 L1189.68 864.26 Z" fill="#000000" fill-rule="evenodd" fill-opacity="1" /><path clip-path="url(#clip240)" d="M 0 0 M1197.77 865.967 L1197.77 870.567 L1203.25 870.567 L1203.25 872.636 L1197.77 872.636 L1197.77 881.433 Q1197.77 883.415 1198.31 883.979 Q1198.86 884.543 1200.52 884.543 L1203.25 884.543 L1203.25 886.771 L1200.52 886.771 Q1197.44 886.771 1196.27 885.628 Q1195.1 884.471 1195.1 881.433 L1195.1 872.636 L1193.14 872.636 L1193.14 870.567 L1195.1 870.567 L1195.1 865.967 L1197.77 865.967 Z" fill="#000000" fill-rule="evenodd" fill-opacity="1" /><path clip-path="url(#clip240)" d="M 0 0 M1213.41 878.626 Q1210.18 878.626 1208.94 879.364 Q1207.7 880.102 1207.7 881.881 Q1207.7 883.299 1208.62 884.138 Q1209.56 884.963 1211.17 884.963 Q1213.38 884.963 1214.71 883.4 Q1216.06 881.823 1216.06 879.219 L1216.06 878.626 L1213.41 878.626 M1218.72 877.526 L1218.72 886.771 L1216.06 886.771 L1216.06 884.312 Q1215.15 885.787 1213.79 886.496 Q1212.43 887.191 1210.46 887.191 Q1207.97 887.191 1206.5 885.802 Q1205.03 884.398 1205.03 882.055 Q1205.03 879.32 1206.86 877.931 Q1208.69 876.543 1212.33 876.543 L1216.06 876.543 L1216.06 876.282 Q1216.06 874.445 1214.84 873.447 Q1213.64 872.434 1211.46 872.434 Q1210.07 872.434 1208.75 872.767 Q1207.44 873.099 1206.22 873.765 L1206.22 871.305 Q1207.68 870.741 1209.06 870.466 Q1210.43 870.177 1211.73 870.177 Q1215.25 870.177 1216.98 872 Q1218.72 873.823 1218.72 877.526 Z" fill="#000000" fill-rule="evenodd" fill-opacity="1" /><path clip-path="url(#clip240)" d="M 0 0 M1234.98 876.991 L1234.98 886.771 L1232.32 886.771 L1232.32 877.078 Q1232.32 874.778 1231.42 873.635 Q1230.53 872.492 1228.73 872.492 Q1226.58 872.492 1225.33 873.866 Q1224.09 875.24 1224.09 877.613 L1224.09 886.771 L1221.41 886.771 L1221.41 870.567 L1224.09 870.567 L1224.09 873.085 Q1225.04 871.624 1226.33 870.9 Q1227.63 870.177 1229.33 870.177 Q1232.12 870.177 1233.55 871.913 Q1234.98 873.635 1234.98 876.991 Z" fill="#000000" fill-rule="evenodd" fill-opacity="1" /><path clip-path="url(#clip240)" d="M 0 0 M1240.41 865.967 L1240.41 870.567 L1245.89 870.567 L1245.89 872.636 L1240.41 872.636 L1240.41 881.433 Q1240.41 883.415 1240.94 883.979 Q1241.49 884.543 1243.16 884.543 L1245.89 884.543 L1245.89 886.771 L1243.16 886.771 Q1240.07 886.771 1238.9 885.628 Q1237.73 884.471 1237.73 881.433 L1237.73 872.636 L1235.78 872.636 L1235.78 870.567 L1237.73 870.567 L1237.73 865.967 L1240.41 865.967 Z" fill="#000000" fill-rule="evenodd" fill-opacity="1" /><path clip-path="url(#clip240)" d="M 0 0 M1260.99 891.69 L1260.99 893.759 L1245.6 893.759 L1245.6 891.69 L1260.99 891.69 Z" fill="#000000" fill-rule="evenodd" fill-opacity="1" /><path clip-path="url(#clip240)" d="M 0 0 M1274.15 876.644 Q1275.09 876.962 1275.97 878.004 Q1276.87 879.045 1277.76 880.868 L1280.73 886.771 L1277.59 886.771 L1274.83 881.23 Q1273.76 879.06 1272.74 878.351 Q1271.74 877.642 1270.01 877.642 L1266.83 877.642 L1266.83 886.771 L1263.9 886.771 L1263.9 865.171 L1270.5 865.171 Q1274.2 865.171 1276.03 866.719 Q1277.85 868.267 1277.85 871.392 Q1277.85 873.432 1276.89 874.778 Q1275.95 876.123 1274.15 876.644 M1266.83 867.573 L1266.83 875.24 L1270.5 875.24 Q1272.61 875.24 1273.68 874.271 Q1274.77 873.287 1274.77 871.392 Q1274.77 869.497 1273.68 868.542 Q1272.61 867.573 1270.5 867.573 L1266.83 867.573 Z" fill="#000000" fill-rule="evenodd" fill-opacity="1" /><path clip-path="url(#clip240)" d="M 0 0 M1296.05 878.004 L1296.05 879.306 L1283.81 879.306 Q1283.98 882.055 1285.46 883.501 Q1286.95 884.934 1289.6 884.934 Q1291.13 884.934 1292.56 884.558 Q1294.01 884.181 1295.43 883.429 L1295.43 885.946 Q1294 886.554 1292.49 886.872 Q1290.99 887.191 1289.44 887.191 Q1285.56 887.191 1283.29 884.934 Q1281.03 882.677 1281.03 878.828 Q1281.03 874.85 1283.17 872.521 Q1285.33 870.177 1288.98 870.177 Q1292.24 870.177 1294.14 872.289 Q1296.05 874.387 1296.05 878.004 M1293.39 877.223 Q1293.36 875.038 1292.16 873.736 Q1290.97 872.434 1289 872.434 Q1286.78 872.434 1285.43 873.692 Q1284.1 874.951 1283.9 877.237 L1293.39 877.223 Z" fill="#000000" fill-rule="evenodd" fill-opacity="1" /><path clip-path="url(#clip240)" d="M 0 0 M1300.43 878.684 Q1300.43 881.621 1301.63 883.299 Q1302.85 884.963 1304.96 884.963 Q1307.07 884.963 1308.29 883.299 Q1309.5 881.621 1309.5 878.684 Q1309.5 875.747 1308.29 874.083 Q1307.07 872.405 1304.96 872.405 Q1302.85 872.405 1301.63 874.083 Q1300.43 875.747 1300.43 878.684 M1309.5 884.341 Q1308.67 885.787 1307.38 886.496 Q1306.1 887.191 1304.31 887.191 Q1301.37 887.191 1299.52 884.847 Q1297.68 882.503 1297.68 878.684 Q1297.68 874.864 1299.52 872.521 Q1301.37 870.177 1304.31 870.177 Q1306.1 870.177 1307.38 870.886 Q1308.67 871.58 1309.5 873.027 L1309.5 870.567 L1312.17 870.567 L1312.17 892.934 L1309.5 892.934 L1309.5 884.341 Z" fill="#000000" fill-rule="evenodd" fill-opacity="1" /><path clip-path="url(#clip240)" d="M 0 0 M1314.68 880.376 L1314.68 870.567 L1317.35 870.567 L1317.35 880.275 Q1317.35 882.576 1318.24 883.733 Q1319.14 884.876 1320.93 884.876 Q1323.09 884.876 1324.33 883.501 Q1325.59 882.127 1325.59 879.754 L1325.59 870.567 L1328.25 870.567 L1328.25 886.771 L1325.59 886.771 L1325.59 884.283 Q1324.62 885.758 1323.34 886.482 Q1322.06 887.191 1320.37 887.191 Q1317.58 887.191 1316.13 885.455 Q1314.68 883.718 1314.68 880.376 M1321.38 870.177 L1321.38 870.177 Z" fill="#000000" fill-rule="evenodd" fill-opacity="1" /><path clip-path="url(#clip240)" d="M 0 0 M1344.91 878.004 L1344.91 879.306 L1332.67 879.306 Q1332.84 882.055 1334.32 883.501 Q1335.81 884.934 1338.45 884.934 Q1339.99 884.934 1341.42 884.558 Q1342.87 884.181 1344.28 883.429 L1344.28 885.946 Q1342.85 886.554 1341.35 886.872 Q1339.84 887.191 1338.29 887.191 Q1334.42 887.191 1332.15 884.934 Q1329.89 882.677 1329.89 878.828 Q1329.89 874.85 1332.03 872.521 Q1334.19 870.177 1337.83 870.177 Q1341.1 870.177 1343 872.289 Q1344.91 874.387 1344.91 878.004 M1342.24 877.223 Q1342.22 875.038 1341.01 873.736 Q1339.83 872.434 1337.86 872.434 Q1335.63 872.434 1334.29 873.692 Q1332.96 874.951 1332.75 877.237 L1342.24 877.223 Z" fill="#000000" fill-rule="evenodd" fill-opacity="1" /><path clip-path="url(#clip240)" d="M 0 0 M1358.03 871.045 L1358.03 873.562 Q1356.9 872.984 1355.68 872.694 Q1354.47 872.405 1353.17 872.405 Q1351.19 872.405 1350.19 873.012 Q1349.2 873.62 1349.2 874.835 Q1349.2 875.761 1349.91 876.297 Q1350.62 876.817 1352.76 877.295 L1353.67 877.497 Q1356.51 878.105 1357.7 879.219 Q1358.9 880.319 1358.9 882.301 Q1358.9 884.558 1357.1 885.874 Q1355.32 887.191 1352.2 887.191 Q1350.9 887.191 1349.48 886.93 Q1348.07 886.684 1346.51 886.178 L1346.51 883.429 Q1347.99 884.196 1349.42 884.586 Q1350.85 884.963 1352.26 884.963 Q1354.14 884.963 1355.15 884.326 Q1356.16 883.675 1356.16 882.503 Q1356.16 881.418 1355.42 880.839 Q1354.7 880.261 1352.23 879.725 L1351.3 879.508 Q1348.83 878.988 1347.73 877.917 Q1346.63 876.832 1346.63 874.951 Q1346.63 872.665 1348.25 871.421 Q1349.87 870.177 1352.85 870.177 Q1354.32 870.177 1355.63 870.394 Q1356.93 870.611 1358.03 871.045 Z" fill="#000000" fill-rule="evenodd" fill-opacity="1" /><path clip-path="url(#clip240)" d="M 0 0 M1364.32 865.967 L1364.32 870.567 L1369.81 870.567 L1369.81 872.636 L1364.32 872.636 L1364.32 881.433 Q1364.32 883.415 1364.86 883.979 Q1365.41 884.543 1367.07 884.543 L1369.81 884.543 L1369.81 886.771 L1367.07 886.771 Q1363.99 886.771 1362.82 885.628 Q1361.65 884.471 1361.65 881.433 L1361.65 872.636 L1359.69 872.636 L1359.69 870.567 L1361.65 870.567 L1361.65 865.967 L1364.32 865.967 Z" fill="#000000" fill-rule="evenodd" fill-opacity="1" /><path clip-path="url(#clip240)" d="M 0 0 M1382.93 871.045 L1382.93 873.562 Q1381.8 872.984 1380.58 872.694 Q1379.37 872.405 1378.07 872.405 Q1376.08 872.405 1375.09 873.012 Q1374.1 873.62 1374.1 874.835 Q1374.1 875.761 1374.81 876.297 Q1375.52 876.817 1377.66 877.295 L1378.57 877.497 Q1381.41 878.105 1382.59 879.219 Q1383.8 880.319 1383.8 882.301 Q1383.8 884.558 1382 885.874 Q1380.22 887.191 1377.1 887.191 Q1375.79 887.191 1374.38 886.93 Q1372.97 886.684 1371.41 886.178 L1371.41 883.429 Q1372.89 884.196 1374.32 884.586 Q1375.75 884.963 1377.15 884.963 Q1379.04 884.963 1380.05 884.326 Q1381.06 883.675 1381.06 882.503 Q1381.06 881.418 1380.32 880.839 Q1379.6 880.261 1377.13 879.725 L1376.2 879.508 Q1373.73 878.988 1372.63 877.917 Q1371.53 876.832 1371.53 874.951 Q1371.53 872.665 1373.15 871.421 Q1374.77 870.177 1377.75 870.177 Q1379.22 870.177 1380.53 870.394 Q1381.83 870.611 1382.93 871.045 Z" fill="#000000" fill-rule="evenodd" fill-opacity="1" /><path clip-path="url(#clip240)" d="M 0 0 M1507.12 675.182 L1507.12 691.979 L1510.65 691.979 Q1515.12 691.979 1517.19 689.953 Q1519.27 687.928 1519.27 683.559 Q1519.27 679.218 1517.19 677.207 Q1515.12 675.182 1510.65 675.182 L1507.12 675.182 M1504.2 672.78 L1510.2 672.78 Q1516.48 672.78 1519.42 675.399 Q1522.35 678.003 1522.35 683.559 Q1522.35 689.143 1519.4 691.762 Q1516.45 694.38 1510.2 694.38 L1504.2 694.38 L1504.2 672.78 Z" fill="#000000" fill-rule="evenodd" fill-opacity="1" /><path clip-path="url(#clip240)" d="M 0 0 M1539.01 685.613 L1539.01 686.915 L1526.77 686.915 Q1526.94 689.664 1528.42 691.111 Q1529.91 692.543 1532.55 692.543 Q1534.09 692.543 1535.52 692.167 Q1536.97 691.791 1538.38 691.038 L1538.38 693.556 Q1536.95 694.163 1535.45 694.482 Q1533.94 694.8 1532.4 694.8 Q1528.52 694.8 1526.25 692.543 Q1523.99 690.286 1523.99 686.438 Q1523.99 682.459 1526.13 680.13 Q1528.29 677.786 1531.93 677.786 Q1535.2 677.786 1537.1 679.898 Q1539.01 681.996 1539.01 685.613 M1536.34 684.832 Q1536.32 682.647 1535.12 681.345 Q1533.93 680.043 1531.96 680.043 Q1529.73 680.043 1528.39 681.302 Q1527.06 682.56 1526.85 684.846 L1536.34 684.832 Z" fill="#000000" fill-rule="evenodd" fill-opacity="1" /><path clip-path="url(#clip240)" d="M 0 0 M1552.13 678.654 L1552.13 681.171 Q1551 680.593 1549.79 680.303 Q1548.57 680.014 1547.27 680.014 Q1545.29 680.014 1544.29 680.622 Q1543.3 681.229 1543.3 682.445 Q1543.3 683.371 1544.01 683.906 Q1544.72 684.427 1546.86 684.904 L1547.77 685.107 Q1550.61 685.714 1551.8 686.828 Q1553 687.928 1553 689.91 Q1553 692.167 1551.2 693.483 Q1549.42 694.8 1546.3 694.8 Q1545 694.8 1543.58 694.539 Q1542.18 694.293 1540.61 693.787 L1540.61 691.038 Q1542.09 691.805 1543.52 692.196 Q1544.95 692.572 1546.36 692.572 Q1548.24 692.572 1549.25 691.935 Q1550.26 691.284 1550.26 690.112 Q1550.26 689.027 1549.52 688.449 Q1548.8 687.87 1546.33 687.335 L1545.4 687.118 Q1542.93 686.597 1541.83 685.526 Q1540.73 684.441 1540.73 682.56 Q1540.73 680.274 1542.35 679.03 Q1543.97 677.786 1546.95 677.786 Q1548.43 677.786 1549.73 678.003 Q1551.03 678.22 1552.13 678.654 Z" fill="#000000" fill-rule="evenodd" fill-opacity="1" /><path clip-path="url(#clip240)" d="M 0 0 M1555.79 678.177 L1558.45 678.177 L1558.45 694.38 L1555.79 694.38 L1555.79 678.177 M1555.79 671.869 L1558.45 671.869 L1558.45 675.24 L1555.79 675.24 L1555.79 671.869 Z" fill="#000000" fill-rule="evenodd" fill-opacity="1" /><path clip-path="url(#clip240)" d="M 0 0 M1571.91 686.09 Q1571.91 683.197 1570.71 681.605 Q1569.52 680.014 1567.36 680.014 Q1565.22 680.014 1564.02 681.605 Q1562.83 683.197 1562.83 686.09 Q1562.83 688.969 1564.02 690.561 Q1565.22 692.152 1567.36 692.152 Q1569.52 692.152 1570.71 690.561 Q1571.91 688.969 1571.91 686.09 M1574.57 692.369 Q1574.57 696.507 1572.73 698.518 Q1570.89 700.543 1567.1 700.543 Q1565.7 700.543 1564.46 700.326 Q1563.21 700.124 1562.04 699.69 L1562.04 697.1 Q1563.21 697.737 1564.35 698.041 Q1565.5 698.344 1566.68 698.344 Q1569.3 698.344 1570.6 696.97 Q1571.91 695.61 1571.91 692.847 L1571.91 691.53 Q1571.08 692.962 1569.79 693.671 Q1568.51 694.38 1566.71 694.38 Q1563.73 694.38 1561.91 692.109 Q1560.09 689.837 1560.09 686.09 Q1560.09 682.329 1561.91 680.057 Q1563.73 677.786 1566.71 677.786 Q1568.51 677.786 1569.79 678.495 Q1571.08 679.204 1571.91 680.636 L1571.91 678.177 L1574.57 678.177 L1574.57 692.369 Z" fill="#000000" fill-rule="evenodd" fill-opacity="1" /><path clip-path="url(#clip240)" d="M 0 0 M1590.83 684.6 L1590.83 694.38 L1588.17 694.38 L1588.17 684.687 Q1588.17 682.387 1587.27 681.244 Q1586.37 680.101 1584.58 680.101 Q1582.42 680.101 1581.18 681.475 Q1579.94 682.85 1579.94 685.222 L1579.94 694.38 L1577.26 694.38 L1577.26 678.177 L1579.94 678.177 L1579.94 680.694 Q1580.89 679.233 1582.18 678.509 Q1583.48 677.786 1585.17 677.786 Q1587.96 677.786 1589.4 679.522 Q1590.83 681.244 1590.83 684.6 Z" fill="#000000" fill-rule="evenodd" fill-opacity="1" /><path clip-path="url(#clip240)" d="M 0 0 M1605.93 699.299 L1605.93 701.368 L1590.54 701.368 L1590.54 699.299 L1605.93 699.299 Z" fill="#000000" fill-rule="evenodd" fill-opacity="1" /><path clip-path="url(#clip240)" d="M 0 0 M1619.08 684.253 Q1620.02 684.571 1620.91 685.613 Q1621.8 686.655 1622.7 688.478 L1625.67 694.38 L1622.53 694.38 L1619.76 688.839 Q1618.69 686.669 1617.68 685.96 Q1616.68 685.251 1614.95 685.251 L1611.76 685.251 L1611.76 694.38 L1608.84 694.38 L1608.84 672.78 L1615.44 672.78 Q1619.14 672.78 1620.97 674.328 Q1622.79 675.876 1622.79 679.001 Q1622.79 681.041 1621.83 682.387 Q1620.89 683.732 1619.08 684.253 M1611.76 675.182 L1611.76 682.85 L1615.44 682.85 Q1617.55 682.85 1618.62 681.88 Q1619.71 680.897 1619.71 679.001 Q1619.71 677.106 1618.62 676.151 Q1617.55 675.182 1615.44 675.182 L1611.76 675.182 Z" fill="#000000" fill-rule="evenodd" fill-opacity="1" /><path clip-path="url(#clip240)" d="M 0 0 M1640.99 685.613 L1640.99 686.915 L1628.75 686.915 Q1628.92 689.664 1630.4 691.111 Q1631.89 692.543 1634.54 692.543 Q1636.07 692.543 1637.5 692.167 Q1638.95 691.791 1640.37 691.038 L1640.37 693.556 Q1638.93 694.163 1637.43 694.482 Q1635.92 694.8 1634.38 694.8 Q1630.5 694.8 1628.23 692.543 Q1625.97 690.286 1625.97 686.438 Q1625.97 682.459 1628.11 680.13 Q1630.27 677.786 1633.91 677.786 Q1637.18 677.786 1639.08 679.898 Q1640.99 681.996 1640.99 685.613 M1638.33 684.832 Q1638.3 682.647 1637.1 681.345 Q1635.91 680.043 1633.94 680.043 Q1631.71 680.043 1630.37 681.302 Q1629.04 682.56 1628.84 684.846 L1638.33 684.832 Z" fill="#000000" fill-rule="evenodd" fill-opacity="1" /><path clip-path="url(#clip240)" d="M 0 0 M1651.14 686.235 Q1647.92 686.235 1646.67 686.973 Q1645.43 687.711 1645.43 689.49 Q1645.43 690.908 1646.36 691.747 Q1647.3 692.572 1648.9 692.572 Q1651.12 692.572 1652.45 691.009 Q1653.79 689.432 1653.79 686.828 L1653.79 686.235 L1651.14 686.235 M1656.45 685.136 L1656.45 694.38 L1653.79 694.38 L1653.79 691.921 Q1652.88 693.396 1651.52 694.105 Q1650.16 694.8 1648.19 694.8 Q1645.7 694.8 1644.23 693.411 Q1642.77 692.008 1642.77 689.664 Q1642.77 686.93 1644.59 685.541 Q1646.43 684.152 1650.06 684.152 L1653.79 684.152 L1653.79 683.891 Q1653.79 682.054 1652.58 681.056 Q1651.38 680.043 1649.19 680.043 Q1647.8 680.043 1646.49 680.376 Q1645.17 680.708 1643.95 681.374 L1643.95 678.915 Q1645.42 678.35 1646.79 678.075 Q1648.16 677.786 1649.47 677.786 Q1652.98 677.786 1654.72 679.609 Q1656.45 681.432 1656.45 685.136 Z" fill="#000000" fill-rule="evenodd" fill-opacity="1" /><path clip-path="url(#clip240)" d="M 0 0 M1669.58 678.654 L1669.58 681.171 Q1668.45 680.593 1667.23 680.303 Q1666.02 680.014 1664.72 680.014 Q1662.73 680.014 1661.73 680.622 Q1660.75 681.229 1660.75 682.445 Q1660.75 683.371 1661.46 683.906 Q1662.17 684.427 1664.31 684.904 L1665.22 685.107 Q1668.06 685.714 1669.24 686.828 Q1670.44 687.928 1670.44 689.91 Q1670.44 692.167 1668.65 693.483 Q1666.87 694.8 1663.75 694.8 Q1662.44 694.8 1661.03 694.539 Q1659.62 694.293 1658.06 693.787 L1658.06 691.038 Q1659.54 691.805 1660.97 692.196 Q1662.4 692.572 1663.8 692.572 Q1665.68 692.572 1666.7 691.935 Q1667.71 691.284 1667.71 690.112 Q1667.71 689.027 1666.97 688.449 Q1666.25 687.87 1663.77 687.335 L1662.85 687.118 Q1660.37 686.597 1659.28 685.526 Q1658.18 684.441 1658.18 682.56 Q1658.18 680.274 1659.8 679.03 Q1661.42 677.786 1664.4 677.786 Q1665.87 677.786 1667.17 678.003 Q1668.48 678.22 1669.58 678.654 Z" fill="#000000" fill-rule="evenodd" fill-opacity="1" /><path clip-path="url(#clip240)" d="M 0 0 M1679.52 680.043 Q1677.37 680.043 1676.13 681.721 Q1674.89 683.385 1674.89 686.293 Q1674.89 689.201 1676.12 690.879 Q1677.36 692.543 1679.52 692.543 Q1681.64 692.543 1682.89 690.865 Q1684.13 689.186 1684.13 686.293 Q1684.13 683.414 1682.89 681.736 Q1681.64 680.043 1679.52 680.043 M1679.52 677.786 Q1682.99 677.786 1684.97 680.043 Q1686.95 682.3 1686.95 686.293 Q1686.95 690.272 1684.97 692.543 Q1682.99 694.8 1679.52 694.8 Q1676.03 694.8 1674.05 692.543 Q1672.08 690.272 1672.08 686.293 Q1672.08 682.3 1674.05 680.043 Q1676.03 677.786 1679.52 677.786 Z" fill="#000000" fill-rule="evenodd" fill-opacity="1" /><path clip-path="url(#clip240)" d="M 0 0 M1703.21 684.6 L1703.21 694.38 L1700.55 694.38 L1700.55 684.687 Q1700.55 682.387 1699.65 681.244 Q1698.76 680.101 1696.96 680.101 Q1694.81 680.101 1693.56 681.475 Q1692.32 682.85 1692.32 685.222 L1692.32 694.38 L1689.64 694.38 L1689.64 678.177 L1692.32 678.177 L1692.32 680.694 Q1693.27 679.233 1694.56 678.509 Q1695.86 677.786 1697.56 677.786 Q1700.35 677.786 1701.78 679.522 Q1703.21 681.244 1703.21 684.6 Z" fill="#000000" fill-rule="evenodd" fill-opacity="1" /><path clip-path="url(#clip240)" d="M 0 0 M1706.01 678.177 L1708.67 678.177 L1708.67 694.38 L1706.01 694.38 L1706.01 678.177 M1706.01 671.869 L1708.67 671.869 L1708.67 675.24 L1706.01 675.24 L1706.01 671.869 Z" fill="#000000" fill-rule="evenodd" fill-opacity="1" /><path clip-path="url(#clip240)" d="M 0 0 M1724.93 684.6 L1724.93 694.38 L1722.27 694.38 L1722.27 684.687 Q1722.27 682.387 1721.37 681.244 Q1720.47 680.101 1718.68 680.101 Q1716.52 680.101 1715.28 681.475 Q1714.03 682.85 1714.03 685.222 L1714.03 694.38 L1711.36 694.38 L1711.36 678.177 L1714.03 678.177 L1714.03 680.694 Q1714.99 679.233 1716.28 678.509 Q1717.58 677.786 1719.27 677.786 Q1722.06 677.786 1723.5 679.522 Q1724.93 681.244 1724.93 684.6 Z" fill="#000000" fill-rule="evenodd" fill-opacity="1" /><path clip-path="url(#clip240)" d="M 0 0 M1738.38 686.09 Q1738.38 683.197 1737.18 681.605 Q1736 680.014 1733.84 680.014 Q1731.7 680.014 1730.5 681.605 Q1729.31 683.197 1729.31 686.09 Q1729.31 688.969 1730.5 690.561 Q1731.7 692.152 1733.84 692.152 Q1736 692.152 1737.18 690.561 Q1738.38 688.969 1738.38 686.09 M1741.05 692.369 Q1741.05 696.507 1739.21 698.518 Q1737.37 700.543 1733.58 700.543 Q1732.18 700.543 1730.93 700.326 Q1729.69 700.124 1728.52 699.69 L1728.52 697.1 Q1729.69 697.737 1730.83 698.041 Q1731.97 698.344 1733.16 698.344 Q1735.78 698.344 1737.08 696.97 Q1738.38 695.61 1738.38 692.847 L1738.38 691.53 Q1737.56 692.962 1736.27 693.671 Q1734.98 694.38 1733.19 694.38 Q1730.21 694.38 1728.39 692.109 Q1726.56 689.837 1726.56 686.09 Q1726.56 682.329 1728.39 680.057 Q1730.21 677.786 1733.19 677.786 Q1734.98 677.786 1736.27 678.495 Q1737.56 679.204 1738.38 680.636 L1738.38 678.177 L1741.05 678.177 L1741.05 692.369 Z" fill="#000000" fill-rule="evenodd" fill-opacity="1" /><path clip-path="url(#clip240)" d="M 0 0 M491.058 1030.73 L491.058 1033.82 Q489.582 1032.44 487.904 1031.76 Q486.24 1031.08 484.359 1031.08 Q480.655 1031.08 478.688 1033.35 Q476.72 1035.61 476.72 1039.89 Q476.72 1044.16 478.688 1046.43 Q480.655 1048.69 484.359 1048.69 Q486.24 1048.69 487.904 1048.01 Q489.582 1047.33 491.058 1045.95 L491.058 1049.01 Q489.524 1050.05 487.802 1050.57 Q486.095 1051.09 484.186 1051.09 Q479.281 1051.09 476.46 1048.1 Q473.639 1045.09 473.639 1039.89 Q473.639 1034.68 476.46 1031.69 Q479.281 1028.68 484.186 1028.68 Q486.124 1028.68 487.831 1029.2 Q489.553 1029.71 491.058 1030.73 Z" fill="#000000" fill-rule="evenodd" fill-opacity="1" /><path clip-path="url(#clip240)" d="M 0 0 M500.129 1036.33 Q497.988 1036.33 496.743 1038.01 Q495.499 1039.68 495.499 1042.58 Q495.499 1045.49 496.729 1047.17 Q497.973 1048.83 500.129 1048.83 Q502.255 1048.83 503.5 1047.16 Q504.744 1045.48 504.744 1042.58 Q504.744 1039.7 503.5 1038.03 Q502.255 1036.33 500.129 1036.33 M500.129 1034.08 Q503.601 1034.08 505.583 1036.33 Q507.565 1038.59 507.565 1042.58 Q507.565 1046.56 505.583 1048.83 Q503.601 1051.09 500.129 1051.09 Q496.642 1051.09 494.66 1048.83 Q492.692 1046.56 492.692 1042.58 Q492.692 1038.59 494.66 1036.33 Q496.642 1034.08 500.129 1034.08 Z" fill="#000000" fill-rule="evenodd" fill-opacity="1" /><path clip-path="url(#clip240)" d="M 0 0 M510.357 1028.16 L513.019 1028.16 L513.019 1050.67 L510.357 1050.67 L510.357 1028.16 Z" fill="#000000" fill-rule="evenodd" fill-opacity="1" /><path clip-path="url(#clip240)" d="M 0 0 M515.812 1028.16 L518.474 1028.16 L518.474 1050.67 L515.812 1050.67 L515.812 1028.16 Z" fill="#000000" fill-rule="evenodd" fill-opacity="1" /><path clip-path="url(#clip240)" d="M 0 0 M528.63 1042.53 Q525.403 1042.53 524.159 1043.26 Q522.915 1044 522.915 1045.78 Q522.915 1047.2 523.841 1048.04 Q524.781 1048.86 526.387 1048.86 Q528.601 1048.86 529.932 1047.3 Q531.277 1045.72 531.277 1043.12 L531.277 1042.53 L528.63 1042.53 M533.939 1041.43 L533.939 1050.67 L531.277 1050.67 L531.277 1048.21 Q530.366 1049.69 529.006 1050.4 Q527.646 1051.09 525.678 1051.09 Q523.19 1051.09 521.714 1049.7 Q520.253 1048.3 520.253 1045.95 Q520.253 1043.22 522.076 1041.83 Q523.913 1040.44 527.545 1040.44 L531.277 1040.44 L531.277 1040.18 Q531.277 1038.34 530.062 1037.35 Q528.861 1036.33 526.677 1036.33 Q525.288 1036.33 523.971 1036.67 Q522.655 1037 521.439 1037.66 L521.439 1035.2 Q522.901 1034.64 524.275 1034.37 Q525.649 1034.08 526.951 1034.08 Q530.467 1034.08 532.203 1035.9 Q533.939 1037.72 533.939 1041.43 Z" fill="#000000" fill-rule="evenodd" fill-opacity="1" /><path clip-path="url(#clip240)" d="M 0 0 M548.363 1042.58 Q548.363 1039.65 547.148 1037.98 Q545.947 1036.3 543.835 1036.3 Q541.723 1036.3 540.508 1037.98 Q539.307 1039.65 539.307 1042.58 Q539.307 1045.52 540.508 1047.2 Q541.723 1048.86 543.835 1048.86 Q545.947 1048.86 547.148 1047.2 Q548.363 1045.52 548.363 1042.58 M539.307 1036.93 Q540.146 1035.48 541.419 1034.79 Q542.707 1034.08 544.486 1034.08 Q547.437 1034.08 549.275 1036.42 Q551.127 1038.76 551.127 1042.58 Q551.127 1046.4 549.275 1048.75 Q547.437 1051.09 544.486 1051.09 Q542.707 1051.09 541.419 1050.4 Q540.146 1049.69 539.307 1048.24 L539.307 1050.67 L536.63 1050.67 L536.63 1028.16 L539.307 1028.16 L539.307 1036.93 Z" fill="#000000" fill-rule="evenodd" fill-opacity="1" /><path clip-path="url(#clip240)" d="M 0 0 M560.198 1036.33 Q558.057 1036.33 556.812 1038.01 Q555.568 1039.68 555.568 1042.58 Q555.568 1045.49 556.798 1047.17 Q558.042 1048.83 560.198 1048.83 Q562.325 1048.83 563.569 1047.16 Q564.813 1045.48 564.813 1042.58 Q564.813 1039.7 563.569 1038.03 Q562.325 1036.33 560.198 1036.33 M560.198 1034.08 Q563.67 1034.08 565.652 1036.33 Q567.634 1038.59 567.634 1042.58 Q567.634 1046.56 565.652 1048.83 Q563.67 1051.09 560.198 1051.09 Q556.711 1051.09 554.729 1048.83 Q552.762 1046.56 552.762 1042.58 Q552.762 1038.59 554.729 1036.33 Q556.711 1034.08 560.198 1034.08 Z" fill="#000000" fill-rule="evenodd" fill-opacity="1" /><path clip-path="url(#clip240)" d="M 0 0 M579.816 1036.96 Q579.367 1036.7 578.832 1036.58 Q578.311 1036.45 577.675 1036.45 Q575.418 1036.45 574.202 1037.92 Q573.002 1039.39 573.002 1042.13 L573.002 1050.67 L570.325 1050.67 L570.325 1034.47 L573.002 1034.47 L573.002 1036.98 Q573.841 1035.51 575.186 1034.8 Q576.532 1034.08 578.456 1034.08 Q578.731 1034.08 579.063 1034.12 Q579.396 1034.15 579.801 1034.22 L579.816 1036.96 Z" fill="#000000" fill-rule="evenodd" fill-opacity="1" /><path clip-path="url(#clip240)" d="M 0 0 M589.972 1042.53 Q586.746 1042.53 585.502 1043.26 Q584.257 1044 584.257 1045.78 Q584.257 1047.2 585.183 1048.04 Q586.124 1048.86 587.73 1048.86 Q589.943 1048.86 591.274 1047.3 Q592.62 1045.72 592.62 1043.12 L592.62 1042.53 L589.972 1042.53 M595.282 1041.43 L595.282 1050.67 L592.62 1050.67 L592.62 1048.21 Q591.708 1049.69 590.348 1050.4 Q588.988 1051.09 587.021 1051.09 Q584.532 1051.09 583.057 1049.7 Q581.595 1048.3 581.595 1045.95 Q581.595 1043.22 583.418 1041.83 Q585.256 1040.44 588.887 1040.44 L592.62 1040.44 L592.62 1040.18 Q592.62 1038.34 591.404 1037.35 Q590.203 1036.33 588.019 1036.33 Q586.63 1036.33 585.313 1036.67 Q583.997 1037 582.782 1037.66 L582.782 1035.2 Q584.243 1034.64 585.617 1034.37 Q586.992 1034.08 588.294 1034.08 Q591.809 1034.08 593.545 1035.9 Q595.282 1037.72 595.282 1041.43 Z" fill="#000000" fill-rule="evenodd" fill-opacity="1" /><path clip-path="url(#clip240)" d="M 0 0 M600.707 1029.87 L600.707 1034.47 L606.19 1034.47 L606.19 1036.54 L600.707 1036.54 L600.707 1045.33 Q600.707 1047.31 601.242 1047.88 Q601.792 1048.44 603.456 1048.44 L606.19 1048.44 L606.19 1050.67 L603.456 1050.67 Q600.374 1050.67 599.202 1049.53 Q598.03 1048.37 598.03 1045.33 L598.03 1036.54 L596.077 1036.54 L596.077 1034.47 L598.03 1034.47 L598.03 1029.87 L600.707 1029.87 Z" fill="#000000" fill-rule="evenodd" fill-opacity="1" /><path clip-path="url(#clip240)" d="M 0 0 M608.982 1034.47 L611.644 1034.47 L611.644 1050.67 L608.982 1050.67 L608.982 1034.47 M608.982 1028.16 L611.644 1028.16 L611.644 1031.53 L608.982 1031.53 L608.982 1028.16 Z" fill="#000000" fill-rule="evenodd" fill-opacity="1" /><path clip-path="url(#clip240)" d="M 0 0 M620.715 1036.33 Q618.574 1036.33 617.33 1038.01 Q616.086 1039.68 616.086 1042.58 Q616.086 1045.49 617.316 1047.17 Q618.56 1048.83 620.715 1048.83 Q622.842 1048.83 624.086 1047.16 Q625.331 1045.48 625.331 1042.58 Q625.331 1039.7 624.086 1038.03 Q622.842 1036.33 620.715 1036.33 M620.715 1034.08 Q624.188 1034.08 626.17 1036.33 Q628.152 1038.59 628.152 1042.58 Q628.152 1046.56 626.17 1048.83 Q624.188 1051.09 620.715 1051.09 Q617.229 1051.09 615.247 1048.83 Q613.279 1046.56 613.279 1042.58 Q613.279 1038.59 615.247 1036.33 Q617.229 1034.08 620.715 1034.08 Z" fill="#000000" fill-rule="evenodd" fill-opacity="1" /><path clip-path="url(#clip240)" d="M 0 0 M644.413 1040.89 L644.413 1050.67 L641.751 1050.67 L641.751 1040.98 Q641.751 1038.68 640.854 1037.53 Q639.957 1036.39 638.163 1036.39 Q636.008 1036.39 634.763 1037.77 Q633.519 1039.14 633.519 1041.51 L633.519 1050.67 L630.843 1050.67 L630.843 1034.47 L633.519 1034.47 L633.519 1036.98 Q634.474 1035.52 635.762 1034.8 Q637.064 1034.08 638.756 1034.08 Q641.549 1034.08 642.981 1035.81 Q644.413 1037.53 644.413 1040.89 Z" fill="#000000" fill-rule="evenodd" fill-opacity="1" /></svg>
