<?xml version="1.0" encoding="utf-8"?>
<svg xmlns="http://www.w3.org/2000/svg" xmlns:xlink="http://www.w3.org/1999/xlink" width="500" height="500" viewBox="0 0 2000 2000">
<defs>
  <clipPath id="clip150">
    <rect x="0" y="0" width="2000" height="2000"/>
  </clipPath>
</defs>
<path clip-path="url(#clip150)" d="
M0 2000 L2000 2000 L2000 0 L0 0  Z
  " fill="#ffffff" fill-rule="evenodd" fill-opacity="1"/>
<defs>
  <clipPath id="clip151">
    <rect x="400" y="200" width="1401" height="1401"/>
  </clipPath>
</defs>
<path clip-path="url(#clip150)" d="
M240.472 1759.53 L1811.02 1759.53 L1811.02 188.976 L240.472 188.976  Z
  " fill="#ffffff" fill-rule="evenodd" fill-opacity="1"/>
<defs>
  <clipPath id="clip152">
    <rect x="240" y="188" width="1572" height="1572"/>
  </clipPath>
</defs>
<polyline clip-path="url(#clip152)" style="stroke:#000000; stroke-width:2; stroke-opacity:0.1; fill:none" points="
  240.472,1759.53 240.472,188.976 
  "/>
<polyline clip-path="url(#clip152)" style="stroke:#000000; stroke-width:2; stroke-opacity:0.1; fill:none" points="
  1025.75,1759.53 1025.75,188.976 
  "/>
<polyline clip-path="url(#clip152)" style="stroke:#000000; stroke-width:2; stroke-opacity:0.1; fill:none" points="
  1811.02,1759.53 1811.02,188.976 
  "/>
<polyline clip-path="url(#clip152)" style="stroke:#000000; stroke-width:2; stroke-opacity:0.1; fill:none" points="
  240.472,1759.53 1811.02,1759.53 
  "/>
<polyline clip-path="url(#clip152)" style="stroke:#000000; stroke-width:2; stroke-opacity:0.1; fill:none" points="
  240.472,974.252 1811.02,974.252 
  "/>
<polyline clip-path="url(#clip152)" style="stroke:#000000; stroke-width:2; stroke-opacity:0.1; fill:none" points="
  240.472,188.976 1811.02,188.976 
  "/>
<polyline clip-path="url(#clip150)" style="stroke:#000000; stroke-width:4; stroke-opacity:1; fill:none" points="
  240.472,1759.53 1811.02,1759.53 
  "/>
<polyline clip-path="url(#clip150)" style="stroke:#000000; stroke-width:4; stroke-opacity:1; fill:none" points="
  240.472,1759.53 240.472,188.976 
  "/>
<polyline clip-path="url(#clip150)" style="stroke:#000000; stroke-width:4; stroke-opacity:1; fill:none" points="
  240.472,1759.53 240.472,1740.68 
  "/>
<polyline clip-path="url(#clip150)" style="stroke:#000000; stroke-width:4; stroke-opacity:1; fill:none" points="
  1025.75,1759.53 1025.75,1740.68 
  "/>
<polyline clip-path="url(#clip150)" style="stroke:#000000; stroke-width:4; stroke-opacity:1; fill:none" points="
  1811.02,1759.53 1811.02,1740.68 
  "/>
<polyline clip-path="url(#clip150)" style="stroke:#000000; stroke-width:4; stroke-opacity:1; fill:none" points="
  240.472,1759.53 259.319,1759.53 
  "/>
<polyline clip-path="url(#clip150)" style="stroke:#000000; stroke-width:4; stroke-opacity:1; fill:none" points="
  240.472,974.252 259.319,974.252 
  "/>
<polyline clip-path="url(#clip150)" style="stroke:#000000; stroke-width:4; stroke-opacity:1; fill:none" points="
  240.472,188.976 259.319,188.976 
  "/>
<path clip-path="url(#clip150)" d="M 0 0 M221.341 1796.12 L233.817 1796.12 L233.817 1799.91 L221.341 1799.91 L221.341 1796.12 Z" fill="#000000" fill-rule="evenodd" fill-opacity="1" /><path clip-path="url(#clip150)" d="M 0 0 M239.697 1807.06 L247.336 1807.06 L247.336 1780.7 L239.026 1782.37 L239.026 1778.11 L247.29 1776.44 L251.965 1776.44 L251.965 1807.06 L259.604 1807.06 L259.604 1811 L239.697 1811 L239.697 1807.06 Z" fill="#000000" fill-rule="evenodd" fill-opacity="1" /><path clip-path="url(#clip150)" d="M 0 0 M1025.75 1779.52 Q1022.14 1779.52 1020.31 1783.08 Q1018.5 1786.62 1018.5 1793.75 Q1018.5 1800.86 1020.31 1804.43 Q1022.14 1807.97 1025.75 1807.97 Q1029.38 1807.97 1031.19 1804.43 Q1033.02 1800.86 1033.02 1793.75 Q1033.02 1786.62 1031.19 1783.08 Q1029.38 1779.52 1025.75 1779.52 M1025.75 1775.81 Q1031.56 1775.81 1034.61 1780.42 Q1037.69 1785 1037.69 1793.75 Q1037.69 1802.48 1034.61 1807.09 Q1031.56 1811.67 1025.75 1811.67 Q1019.94 1811.67 1016.86 1807.09 Q1013.8 1802.48 1013.8 1793.75 Q1013.8 1785 1016.86 1780.42 Q1019.94 1775.81 1025.75 1775.81 Z" fill="#000000" fill-rule="evenodd" fill-opacity="1" /><path clip-path="url(#clip150)" d="M 0 0 M1801.41 1807.06 L1809.04 1807.06 L1809.04 1780.7 L1800.73 1782.37 L1800.73 1778.11 L1809 1776.44 L1813.67 1776.44 L1813.67 1807.06 L1821.31 1807.06 L1821.31 1811 L1801.41 1811 L1801.41 1807.06 Z" fill="#000000" fill-rule="evenodd" fill-opacity="1" /><path clip-path="url(#clip150)" d="M 0 0 M182.209 1761.92 L194.686 1761.92 L194.686 1765.72 L182.209 1765.72 L182.209 1761.92 Z" fill="#000000" fill-rule="evenodd" fill-opacity="1" /><path clip-path="url(#clip150)" d="M 0 0 M200.565 1772.87 L208.204 1772.87 L208.204 1746.51 L199.894 1748.17 L199.894 1743.91 L208.158 1742.25 L212.834 1742.25 L212.834 1772.87 L220.472 1772.87 L220.472 1776.81 L200.565 1776.81 L200.565 1772.87 Z" fill="#000000" fill-rule="evenodd" fill-opacity="1" /><path clip-path="url(#clip150)" d="M 0 0 M208.528 960.051 Q204.917 960.051 203.088 963.615 Q201.283 967.157 201.283 974.287 Q201.283 981.393 203.088 984.958 Q204.917 988.5 208.528 988.5 Q212.162 988.5 213.968 984.958 Q215.797 981.393 215.797 974.287 Q215.797 967.157 213.968 963.615 Q212.162 960.051 208.528 960.051 M208.528 956.347 Q214.338 956.347 217.394 960.953 Q220.472 965.537 220.472 974.287 Q220.472 983.013 217.394 987.62 Q214.338 992.203 208.528 992.203 Q202.718 992.203 199.639 987.62 Q196.584 983.013 196.584 974.287 Q196.584 965.537 199.639 960.953 Q202.718 956.347 208.528 956.347 Z" fill="#000000" fill-rule="evenodd" fill-opacity="1" /><path clip-path="url(#clip150)" d="M 0 0 M200.565 202.321 L208.204 202.321 L208.204 175.956 L199.894 177.622 L199.894 173.363 L208.158 171.696 L212.834 171.696 L212.834 202.321 L220.472 202.321 L220.472 206.256 L200.565 206.256 L200.565 202.321 Z" fill="#000000" fill-rule="evenodd" fill-opacity="1" /><path clip-path="url(#clip150)" d="M 0 0 M911.977 1840.87 L918.884 1840.87 L930.692 1858.54 L942.564 1840.87 L949.471 1840.87 L934.193 1863.69 L950.489 1888.39 L943.583 1888.39 L930.215 1868.18 L916.751 1888.39 L909.813 1888.39 L926.777 1863.02 L911.977 1840.87 Z" fill="#000000" fill-rule="evenodd" fill-opacity="1" /><path clip-path="url(#clip150)" d="M 0 0 M991.421 1838.93 Q987.156 1846.25 985.087 1853.41 Q983.018 1860.57 983.018 1867.93 Q983.018 1875.28 985.087 1882.5 Q987.188 1889.7 991.421 1896.99 L986.328 1896.99 Q981.554 1889.51 979.167 1882.28 Q976.812 1875.06 976.812 1867.93 Q976.812 1860.83 979.167 1853.63 Q981.522 1846.44 986.328 1838.93 L991.421 1838.93 Z" fill="#000000" fill-rule="evenodd" fill-opacity="1" /><path clip-path="url(#clip150)" d="M 0 0 M1003.93 1882.98 L1026.37 1882.98 L1026.37 1888.39 L996.195 1888.39 L996.195 1882.98 Q999.856 1879.19 1006.16 1872.83 Q1012.49 1866.43 1014.11 1864.58 Q1017.2 1861.11 1018.41 1858.73 Q1019.65 1856.31 1019.65 1853.98 Q1019.65 1850.2 1016.98 1847.81 Q1014.34 1845.42 1010.07 1845.42 Q1007.05 1845.42 1003.67 1846.47 Q1000.33 1847.52 996.514 1849.66 L996.514 1843.16 Q1000.4 1841.6 1003.77 1840.81 Q1007.14 1840.01 1009.95 1840.01 Q1017.33 1840.01 1021.72 1843.7 Q1026.11 1847.4 1026.11 1853.57 Q1026.11 1856.5 1025 1859.14 Q1023.92 1861.75 1021.02 1865.32 Q1020.23 1866.24 1015.96 1870.66 Q1011.7 1875.06 1003.93 1882.98 Z" fill="#000000" fill-rule="evenodd" fill-opacity="1" /><path clip-path="url(#clip150)" d="M 0 0 M1047.09 1845.1 Q1042.12 1845.1 1039.61 1850.01 Q1037.13 1854.88 1037.13 1864.68 Q1037.13 1874.45 1039.61 1879.35 Q1042.12 1884.22 1047.09 1884.22 Q1052.09 1884.22 1054.57 1879.35 Q1057.08 1874.45 1057.08 1864.68 Q1057.08 1854.88 1054.57 1850.01 Q1052.09 1845.1 1047.09 1845.1 M1047.09 1840.01 Q1055.08 1840.01 1059.28 1846.35 Q1063.51 1852.65 1063.51 1864.68 Q1063.51 1876.68 1059.28 1883.01 Q1055.08 1889.31 1047.09 1889.31 Q1039.1 1889.31 1034.87 1883.01 Q1030.67 1876.68 1030.67 1864.68 Q1030.67 1852.65 1034.87 1846.35 Q1039.1 1840.01 1047.09 1840.01 Z" fill="#000000" fill-rule="evenodd" fill-opacity="1" /><path clip-path="url(#clip150)" d="M 0 0 M1110.91 1867.48 Q1108.14 1867.48 1106.54 1869.84 Q1104.99 1872.19 1104.99 1876.39 Q1104.99 1880.53 1106.54 1882.92 Q1108.14 1885.27 1110.91 1885.27 Q1113.61 1885.27 1115.17 1882.92 Q1116.76 1880.53 1116.76 1876.39 Q1116.76 1872.22 1115.17 1869.87 Q1113.61 1867.48 1110.91 1867.48 M1110.91 1863.44 Q1115.93 1863.44 1118.89 1866.94 Q1121.85 1870.44 1121.85 1876.39 Q1121.85 1882.34 1118.86 1885.85 Q1115.9 1889.31 1110.91 1889.31 Q1105.81 1889.31 1102.85 1885.85 Q1099.89 1882.34 1099.89 1876.39 Q1099.89 1870.41 1102.85 1866.94 Q1105.84 1863.44 1110.91 1863.44 M1078.06 1844.05 Q1075.32 1844.05 1073.73 1846.44 Q1072.17 1848.8 1072.17 1852.93 Q1072.17 1857.14 1073.73 1859.49 Q1075.29 1861.85 1078.06 1861.85 Q1080.83 1861.85 1082.39 1859.49 Q1083.98 1857.14 1083.98 1852.93 Q1083.98 1848.83 1082.39 1846.44 Q1080.8 1844.05 1078.06 1844.05 M1106.8 1840.01 L1111.89 1840.01 L1082.16 1889.31 L1077.07 1889.31 L1106.8 1840.01 M1078.06 1840.01 Q1083.09 1840.01 1086.08 1843.51 Q1089.07 1846.98 1089.07 1852.93 Q1089.07 1858.95 1086.08 1862.42 Q1083.12 1865.89 1078.06 1865.89 Q1073 1865.89 1070.04 1862.42 Q1067.11 1858.92 1067.11 1852.93 Q1067.11 1847.01 1070.07 1843.51 Q1073.03 1840.01 1078.06 1840.01 Z" fill="#000000" fill-rule="evenodd" fill-opacity="1" /><path clip-path="url(#clip150)" d="M 0 0 M1127.07 1838.93 L1132.17 1838.93 Q1136.94 1846.44 1139.3 1853.63 Q1141.68 1860.83 1141.68 1867.93 Q1141.68 1875.06 1139.3 1882.28 Q1136.94 1889.51 1132.17 1896.99 L1127.07 1896.99 Q1131.31 1889.7 1133.38 1882.5 Q1135.48 1875.28 1135.48 1867.93 Q1135.48 1860.57 1133.38 1853.41 Q1131.31 1846.25 1127.07 1838.93 Z" fill="#000000" fill-rule="evenodd" fill-opacity="1" /><path clip-path="url(#clip150)" d="M 0 0 M100.433 1088.79 L100.433 1081.88 L119.975 1068.7 L100.433 1055.62 L100.433 1048.71 L125.323 1065.52 L147.953 1065.52 L147.953 1071.98 L125.323 1071.98 L100.433 1088.79 Z" fill="#000000" fill-rule="evenodd" fill-opacity="1" /><path clip-path="url(#clip150)" d="M 0 0 M98.4912 1007.78 Q105.812 1012.05 112.973 1014.12 Q120.135 1016.19 127.487 1016.19 Q134.839 1016.19 142.064 1014.12 Q149.258 1012.02 156.546 1007.78 L156.546 1012.88 Q149.067 1017.65 141.842 1020.04 Q134.617 1022.39 127.487 1022.39 Q120.389 1022.39 113.196 1020.04 Q106.003 1017.68 98.4912 1012.88 L98.4912 1007.78 Z" fill="#000000" fill-rule="evenodd" fill-opacity="1" /><path clip-path="url(#clip150)" d="M 0 0 M142.542 995.275 L142.542 972.836 L147.953 972.836 L147.953 1003.01 L142.542 1003.01 Q138.754 999.349 132.389 993.047 Q125.991 986.713 124.145 985.09 Q120.676 982.002 118.289 980.793 Q115.87 979.551 113.546 979.551 Q109.759 979.551 107.371 982.225 Q104.984 984.867 104.984 989.132 Q104.984 992.156 106.035 995.529 Q107.085 998.871 109.217 1002.69 L102.724 1002.69 Q101.165 998.808 100.369 995.434 Q99.5734 992.06 99.5734 989.259 Q99.5734 981.875 103.265 977.483 Q106.958 973.09 113.132 973.09 Q116.061 973.09 118.702 974.204 Q121.312 975.286 124.877 978.183 Q125.8 978.979 130.224 983.244 Q134.617 987.509 142.542 995.275 Z" fill="#000000" fill-rule="evenodd" fill-opacity="1" /><path clip-path="url(#clip150)" d="M 0 0 M142.542 960.327 L142.542 937.888 L147.953 937.888 L147.953 968.061 L142.542 968.061 Q138.754 964.401 132.389 958.099 Q125.991 951.765 124.145 950.142 Q120.676 947.054 118.289 945.845 Q115.87 944.604 113.546 944.604 Q109.759 944.604 107.371 947.277 Q104.984 949.919 104.984 954.184 Q104.984 957.208 106.035 960.582 Q107.085 963.924 109.217 967.743 L102.724 967.743 Q101.165 963.86 100.369 960.486 Q99.5734 957.112 99.5734 954.311 Q99.5734 946.927 103.265 942.535 Q106.958 938.142 113.132 938.142 Q116.061 938.142 118.702 939.256 Q121.312 940.339 124.877 943.235 Q125.8 944.031 130.224 948.296 Q134.617 952.561 142.542 960.327 Z" fill="#000000" fill-rule="evenodd" fill-opacity="1" /><path clip-path="url(#clip150)" d="M 0 0 M127.041 890.495 Q127.041 893.264 129.397 894.856 Q131.752 896.415 135.953 896.415 Q140.091 896.415 142.478 894.856 Q144.834 893.264 144.834 890.495 Q144.834 887.79 142.478 886.23 Q140.091 884.639 135.953 884.639 Q131.784 884.639 129.429 886.23 Q127.041 887.79 127.041 890.495 M122.999 890.495 Q122.999 885.466 126.5 882.506 Q130.001 879.546 135.953 879.546 Q141.905 879.546 145.406 882.538 Q148.876 885.498 148.876 890.495 Q148.876 895.588 145.406 898.548 Q141.905 901.508 135.953 901.508 Q129.97 901.508 126.5 898.548 Q122.999 895.556 122.999 890.495 M103.616 923.342 Q103.616 926.079 106.003 927.671 Q108.358 929.231 112.496 929.231 Q116.697 929.231 119.052 927.671 Q121.408 926.111 121.408 923.342 Q121.408 920.573 119.052 919.014 Q116.697 917.422 112.496 917.422 Q108.39 917.422 106.003 919.014 Q103.616 920.605 103.616 923.342 M99.5734 894.601 L99.5734 889.508 L148.876 919.236 L148.876 924.329 L99.5734 894.601 M99.5734 923.342 Q99.5734 918.313 103.075 915.321 Q106.544 912.33 112.496 912.33 Q118.511 912.33 121.981 915.321 Q125.45 918.281 125.45 923.342 Q125.45 928.403 121.981 931.363 Q118.48 934.291 112.496 934.291 Q106.576 934.291 103.075 931.331 Q99.5734 928.371 99.5734 923.342 Z" fill="#000000" fill-rule="evenodd" fill-opacity="1" /><path clip-path="url(#clip150)" d="M 0 0 M98.4912 874.326 L98.4912 869.234 Q106.003 864.459 113.196 862.104 Q120.389 859.717 127.487 859.717 Q134.617 859.717 141.842 862.104 Q149.067 864.459 156.546 869.234 L156.546 874.326 Q149.258 870.093 142.064 868.024 Q134.839 865.924 127.487 865.924 Q120.135 865.924 112.973 868.024 Q105.812 870.093 98.4912 874.326 Z" fill="#000000" fill-rule="evenodd" fill-opacity="1" /><polyline clip-path="url(#clip152)" style="stroke:#800080; stroke-width:6.4458; stroke-opacity:1; fill:none" points="
  -172.845,-352.402 1977.35,1941.43 
  "/>
<polyline clip-path="url(#clip152)" style="stroke:#0000ff; stroke-width:1.34407; stroke-opacity:1; fill:none" points="
  877.402,1545 905.488,1337.81 
  "/>
<polyline clip-path="url(#clip152)" style="stroke:#ffa500; stroke-width:1.08133; stroke-opacity:1; fill:none" points="
  -544.997,1986.59 905.488,1337.81 
  "/>
<polyline clip-path="url(#clip152)" style="stroke:#0000ff; stroke-width:2.79825; stroke-opacity:1; fill:none" points="
  -544.997,1986.59 1983.02,576.254 
  "/>
<polyline clip-path="url(#clip152)" style="stroke:#ffa500; stroke-width:4.84926; stroke-opacity:1; fill:none" points="
  877.402,1545 1977.35,1941.43 
  "/>
<polyline clip-path="url(#clip152)" style="stroke:#0000ff; stroke-width:2.01475; stroke-opacity:1; fill:none" points="
  -544.997,1986.59 877.402,1545 
  "/>
<polyline clip-path="url(#clip152)" style="stroke:#ffa500; stroke-width:2.84333; stroke-opacity:1; fill:none" points="
  877.402,1545 1983.02,576.254 
  "/>
<polyline clip-path="url(#clip152)" style="stroke:#0000ff; stroke-width:2.12183; stroke-opacity:1; fill:none" points="
  905.488,1337.81 1983.02,576.254 
  "/>
<polyline clip-path="url(#clip152)" style="stroke:#800080; stroke-width:6.83051; stroke-opacity:1; fill:none" points="
  -544.997,1986.59 -172.845,-352.402 
  "/>
<polyline clip-path="url(#clip152)" style="stroke:#0000ff; stroke-width:1.42233; stroke-opacity:1; fill:none" points="
  905.488,1337.81 1977.35,1941.43 
  "/>
<polyline clip-path="url(#clip152)" style="stroke:#ffa500; stroke-width:7.4663; stroke-opacity:1; fill:none" points="
  1977.35,1941.43 1983.02,576.254 
  "/>
<polyline clip-path="url(#clip152)" style="stroke:#800080; stroke-width:4.92063; stroke-opacity:1; fill:none" points="
  -172.845,-352.402 877.402,1545 
  "/>
<polyline clip-path="url(#clip152)" style="stroke:#0000ff; stroke-width:2.42394; stroke-opacity:1; fill:none" points="
  -172.845,-352.402 905.488,1337.81 
  "/>
<polyline clip-path="url(#clip152)" style="stroke:#800080; stroke-width:2.74383; stroke-opacity:1; fill:none" points="
  -544.997,1986.59 1977.35,1941.43 
  "/>
<polyline clip-path="url(#clip152)" style="stroke:#008000; stroke-width:8; stroke-opacity:1; fill:none" points="
  -172.845,-352.402 1983.02,576.254 
  "/>
<circle clip-path="url(#clip152)" cx="877.402" cy="1545" r="23" fill="#000000" fill-rule="evenodd" fill-opacity="1" stroke="none"/>
<circle clip-path="url(#clip152)" cx="905.488" cy="1337.81" r="8" fill="#000000" fill-rule="evenodd" fill-opacity="1" stroke="none"/>
<path clip-path="url(#clip150)" d="M 0 0 M850.326 1551.72 L850.326 1568.51 L853.856 1568.51 Q858.327 1568.51 860.396 1566.49 Q862.479 1564.46 862.479 1560.09 Q862.479 1555.75 860.396 1553.74 Q858.327 1551.72 853.856 1551.72 L850.326 1551.72 M847.404 1549.32 L853.408 1549.32 Q859.687 1549.32 862.624 1551.93 Q865.561 1554.54 865.561 1560.09 Q865.561 1565.68 862.609 1568.3 Q859.658 1570.92 853.408 1570.92 L847.404 1570.92 L847.404 1549.32 Z" fill="#000000" fill-rule="evenodd" fill-opacity="1" /><path clip-path="url(#clip150)" d="M 0 0 M875.717 1562.77 Q872.491 1562.77 871.246 1563.51 Q870.002 1564.25 870.002 1566.03 Q870.002 1567.44 870.928 1568.28 Q871.868 1569.11 873.474 1569.11 Q875.688 1569.11 877.019 1567.55 Q878.364 1565.97 878.364 1563.36 L878.364 1562.77 L875.717 1562.77 M881.026 1561.67 L881.026 1570.92 L878.364 1570.92 L878.364 1568.46 Q877.453 1569.93 876.093 1570.64 Q874.733 1571.34 872.765 1571.34 Q870.277 1571.34 868.801 1569.95 Q867.34 1568.54 867.34 1566.2 Q867.34 1563.47 869.163 1562.08 Q871 1560.69 874.632 1560.69 L878.364 1560.69 L878.364 1560.43 Q878.364 1558.59 877.149 1557.59 Q875.948 1556.58 873.764 1556.58 Q872.375 1556.58 871.058 1556.91 Q869.742 1557.24 868.526 1557.91 L868.526 1555.45 Q869.988 1554.89 871.362 1554.61 Q872.737 1554.32 874.039 1554.32 Q877.554 1554.32 879.29 1556.14 Q881.026 1557.97 881.026 1561.67 Z" fill="#000000" fill-rule="evenodd" fill-opacity="1" /><path clip-path="url(#clip150)" d="M 0 0 M886.452 1550.11 L886.452 1554.71 L891.935 1554.71 L891.935 1556.78 L886.452 1556.78 L886.452 1565.58 Q886.452 1567.56 886.987 1568.12 Q887.537 1568.69 889.201 1568.69 L891.935 1568.69 L891.935 1570.92 L889.201 1570.92 Q886.119 1570.92 884.947 1569.77 Q883.775 1568.62 883.775 1565.58 L883.775 1556.78 L881.822 1556.78 L881.822 1554.71 L883.775 1554.71 L883.775 1550.11 L886.452 1550.11 Z" fill="#000000" fill-rule="evenodd" fill-opacity="1" /><path clip-path="url(#clip150)" d="M 0 0 M902.091 1562.77 Q898.865 1562.77 897.621 1563.51 Q896.376 1564.25 896.376 1566.03 Q896.376 1567.44 897.302 1568.28 Q898.243 1569.11 899.849 1569.11 Q902.062 1569.11 903.393 1567.55 Q904.739 1565.97 904.739 1563.36 L904.739 1562.77 L902.091 1562.77 M907.401 1561.67 L907.401 1570.92 L904.739 1570.92 L904.739 1568.46 Q903.827 1569.93 902.467 1570.64 Q901.107 1571.34 899.14 1571.34 Q896.651 1571.34 895.176 1569.95 Q893.714 1568.54 893.714 1566.2 Q893.714 1563.47 895.537 1562.08 Q897.375 1560.69 901.006 1560.69 L904.739 1560.69 L904.739 1560.43 Q904.739 1558.59 903.523 1557.59 Q902.323 1556.58 900.138 1556.58 Q898.749 1556.58 897.433 1556.91 Q896.116 1557.24 894.901 1557.91 L894.901 1555.45 Q896.362 1554.89 897.736 1554.61 Q899.111 1554.32 900.413 1554.32 Q903.928 1554.32 905.665 1556.14 Q907.401 1557.97 907.401 1561.67 Z" fill="#000000" fill-rule="evenodd" fill-opacity="1" /><path clip-path="url(#clip150)" d="M 0 0 M-314.749 -348.082 L-296.477 -348.082 L-296.477 -345.623 L-304.145 -345.623 L-304.145 -326.482 L-307.082 -326.482 L-307.082 -345.623 L-314.749 -345.623 L-314.749 -348.082 Z" fill="#000000" fill-rule="evenodd" fill-opacity="1" /><path clip-path="url(#clip150)" d="M 0 0 M-284.86 -335.249 L-284.86 -333.947 L-297.099 -333.947 Q-296.926 -331.199 -295.45 -329.752 Q-293.96 -328.319 -291.312 -328.319 Q-289.779 -328.319 -288.346 -328.696 Q-286.9 -329.072 -285.482 -329.824 L-285.482 -327.307 Q-286.914 -326.699 -288.419 -326.381 Q-289.923 -326.063 -291.471 -326.063 Q-295.349 -326.063 -297.62 -328.319 Q-299.877 -330.576 -299.877 -334.425 Q-299.877 -338.403 -297.736 -340.733 Q-295.58 -343.076 -291.934 -343.076 Q-288.665 -343.076 -286.769 -340.964 Q-284.86 -338.866 -284.86 -335.249 M-287.522 -336.031 Q-287.551 -338.215 -288.751 -339.517 Q-289.938 -340.819 -291.905 -340.819 Q-294.133 -340.819 -295.479 -339.561 Q-296.81 -338.302 -297.012 -336.016 L-287.522 -336.031 Z" fill="#000000" fill-rule="evenodd" fill-opacity="1" /><path clip-path="url(#clip150)" d="M 0 0 M-270.407 -342.064 L-270.407 -339.575 Q-271.535 -340.197 -272.678 -340.501 Q-273.806 -340.819 -274.964 -340.819 Q-277.554 -340.819 -278.986 -339.17 Q-280.418 -337.535 -280.418 -334.569 Q-280.418 -331.604 -278.986 -329.954 Q-277.554 -328.319 -274.964 -328.319 Q-273.806 -328.319 -272.678 -328.623 Q-271.535 -328.942 -270.407 -329.564 L-270.407 -327.104 Q-271.521 -326.583 -272.721 -326.323 Q-273.908 -326.063 -275.253 -326.063 Q-278.913 -326.063 -281.069 -328.363 Q-283.225 -330.663 -283.225 -334.569 Q-283.225 -338.534 -281.055 -340.805 Q-278.87 -343.076 -275.08 -343.076 Q-273.85 -343.076 -272.678 -342.816 Q-271.506 -342.57 -270.407 -342.064 Z" fill="#000000" fill-rule="evenodd" fill-opacity="1" /><path clip-path="url(#clip150)" d="M 0 0 M-254.145 -336.262 L-254.145 -326.482 L-256.807 -326.482 L-256.807 -336.175 Q-256.807 -338.476 -257.704 -339.619 Q-258.601 -340.762 -260.395 -340.762 Q-262.551 -340.762 -263.795 -339.387 Q-265.039 -338.013 -265.039 -335.64 L-265.039 -326.482 L-267.716 -326.482 L-267.716 -348.994 L-265.039 -348.994 L-265.039 -340.168 Q-264.084 -341.63 -262.797 -342.353 Q-261.495 -343.076 -259.802 -343.076 Q-257.01 -343.076 -255.577 -341.34 Q-254.145 -339.619 -254.145 -336.262 Z" fill="#000000" fill-rule="evenodd" fill-opacity="1" /><path clip-path="url(#clip150)" d="M 0 0 M-237.884 -336.262 L-237.884 -326.482 L-240.546 -326.482 L-240.546 -336.175 Q-240.546 -338.476 -241.443 -339.619 Q-242.34 -340.762 -244.134 -340.762 Q-246.289 -340.762 -247.533 -339.387 Q-248.778 -338.013 -248.778 -335.64 L-248.778 -326.482 L-251.454 -326.482 L-251.454 -342.686 L-248.778 -342.686 L-248.778 -340.168 Q-247.823 -341.63 -246.535 -342.353 Q-245.233 -343.076 -243.54 -343.076 Q-240.748 -343.076 -239.316 -341.34 Q-237.884 -339.619 -237.884 -336.262 Z" fill="#000000" fill-rule="evenodd" fill-opacity="1" /><path clip-path="url(#clip150)" d="M 0 0 M-235.091 -342.686 L-232.429 -342.686 L-232.429 -326.482 L-235.091 -326.482 L-235.091 -342.686 M-235.091 -348.994 L-232.429 -348.994 L-232.429 -345.623 L-235.091 -345.623 L-235.091 -348.994 Z" fill="#000000" fill-rule="evenodd" fill-opacity="1" /><path clip-path="url(#clip150)" d="M 0 0 M-217.976 -342.064 L-217.976 -339.575 Q-219.105 -340.197 -220.248 -340.501 Q-221.376 -340.819 -222.534 -340.819 Q-225.123 -340.819 -226.556 -339.17 Q-227.988 -337.535 -227.988 -334.569 Q-227.988 -331.604 -226.556 -329.954 Q-225.123 -328.319 -222.534 -328.319 Q-221.376 -328.319 -220.248 -328.623 Q-219.105 -328.942 -217.976 -329.564 L-217.976 -327.104 Q-219.09 -326.583 -220.291 -326.323 Q-221.477 -326.063 -222.823 -326.063 Q-226.483 -326.063 -228.639 -328.363 Q-230.795 -330.663 -230.795 -334.569 Q-230.795 -338.534 -228.624 -340.805 Q-226.44 -343.076 -222.649 -343.076 Q-221.42 -343.076 -220.248 -342.816 Q-219.076 -342.57 -217.976 -342.064 Z" fill="#000000" fill-rule="evenodd" fill-opacity="1" /><path clip-path="url(#clip150)" d="M 0 0 M-207.82 -334.627 Q-211.046 -334.627 -212.291 -333.889 Q-213.535 -333.152 -213.535 -331.372 Q-213.535 -329.954 -212.609 -329.115 Q-211.668 -328.291 -210.063 -328.291 Q-207.849 -328.291 -206.518 -329.853 Q-205.173 -331.43 -205.173 -334.034 L-205.173 -334.627 L-207.82 -334.627 M-202.511 -335.727 L-202.511 -326.482 L-205.173 -326.482 L-205.173 -328.942 Q-206.084 -327.466 -207.444 -326.757 Q-208.804 -326.063 -210.771 -326.063 Q-213.26 -326.063 -214.736 -327.451 Q-216.197 -328.855 -216.197 -331.199 Q-216.197 -333.933 -214.374 -335.322 Q-212.537 -336.711 -208.905 -336.711 L-205.173 -336.711 L-205.173 -336.971 Q-205.173 -338.808 -206.388 -339.807 Q-207.589 -340.819 -209.773 -340.819 Q-211.162 -340.819 -212.479 -340.487 Q-213.795 -340.154 -215.01 -339.488 L-215.01 -341.948 Q-213.549 -342.512 -212.175 -342.787 Q-210.8 -343.076 -209.498 -343.076 Q-205.983 -343.076 -204.247 -341.253 Q-202.511 -339.431 -202.511 -335.727 Z" fill="#000000" fill-rule="evenodd" fill-opacity="1" /><path clip-path="url(#clip150)" d="M 0 0 M-199.718 -348.994 L-197.056 -348.994 L-197.056 -326.482 L-199.718 -326.482 L-199.718 -348.994 Z" fill="#000000" fill-rule="evenodd" fill-opacity="1" /><path clip-path="url(#clip150)" d="M 0 0 M-181.952 -321.563 L-181.952 -319.494 L-197.346 -319.494 L-197.346 -321.563 L-181.952 -321.563 Z" fill="#000000" fill-rule="evenodd" fill-opacity="1" /><path clip-path="url(#clip150)" d="M 0 0 M-162.87 -346.418 L-162.87 -343.337 Q-164.345 -344.711 -166.023 -345.391 Q-167.687 -346.071 -169.568 -346.071 Q-173.272 -346.071 -175.239 -343.8 Q-177.207 -341.543 -177.207 -337.26 Q-177.207 -332.992 -175.239 -330.721 Q-173.272 -328.464 -169.568 -328.464 Q-167.687 -328.464 -166.023 -329.144 Q-164.345 -329.824 -162.87 -331.199 L-162.87 -328.146 Q-164.403 -327.104 -166.125 -326.583 Q-167.832 -326.063 -169.742 -326.063 Q-174.646 -326.063 -177.467 -329.057 Q-180.288 -332.067 -180.288 -337.26 Q-180.288 -342.469 -177.467 -345.463 Q-174.646 -348.473 -169.742 -348.473 Q-167.803 -348.473 -166.096 -347.952 Q-164.374 -347.446 -162.87 -346.418 Z" fill="#000000" fill-rule="evenodd" fill-opacity="1" /><path clip-path="url(#clip150)" d="M 0 0 M-153.798 -340.819 Q-155.94 -340.819 -157.184 -339.141 Q-158.428 -337.477 -158.428 -334.569 Q-158.428 -331.661 -157.198 -329.983 Q-155.954 -328.319 -153.798 -328.319 Q-151.672 -328.319 -150.427 -329.998 Q-149.183 -331.676 -149.183 -334.569 Q-149.183 -337.448 -150.427 -339.127 Q-151.672 -340.819 -153.798 -340.819 M-153.798 -343.076 Q-150.326 -343.076 -148.344 -340.819 Q-146.362 -338.562 -146.362 -334.569 Q-146.362 -330.591 -148.344 -328.319 Q-150.326 -326.063 -153.798 -326.063 Q-157.285 -326.063 -159.267 -328.319 Q-161.235 -330.591 -161.235 -334.569 Q-161.235 -338.562 -159.267 -340.819 Q-157.285 -343.076 -153.798 -343.076 Z" fill="#000000" fill-rule="evenodd" fill-opacity="1" /><path clip-path="url(#clip150)" d="M 0 0 M-130.101 -336.262 L-130.101 -326.482 L-132.763 -326.482 L-132.763 -336.175 Q-132.763 -338.476 -133.66 -339.619 Q-134.557 -340.762 -136.351 -340.762 Q-138.506 -340.762 -139.75 -339.387 Q-140.995 -338.013 -140.995 -335.64 L-140.995 -326.482 L-143.671 -326.482 L-143.671 -342.686 L-140.995 -342.686 L-140.995 -340.168 Q-140.04 -341.63 -138.752 -342.353 Q-137.45 -343.076 -135.757 -343.076 Q-132.965 -343.076 -131.533 -341.34 Q-130.101 -339.619 -130.101 -336.262 Z" fill="#000000" fill-rule="evenodd" fill-opacity="1" /><path clip-path="url(#clip150)" d="M 0 0 M-116.979 -342.208 L-116.979 -339.691 Q-118.107 -340.27 -119.322 -340.559 Q-120.538 -340.848 -121.84 -340.848 Q-123.822 -340.848 -124.82 -340.241 Q-125.804 -339.633 -125.804 -338.418 Q-125.804 -337.492 -125.095 -336.957 Q-124.386 -336.436 -122.245 -335.958 L-121.333 -335.756 Q-118.498 -335.148 -117.311 -334.034 Q-116.111 -332.935 -116.111 -330.953 Q-116.111 -328.696 -117.904 -327.379 Q-119.684 -326.063 -122.809 -326.063 Q-124.111 -326.063 -125.529 -326.323 Q-126.932 -326.569 -128.495 -327.075 L-128.495 -329.824 Q-127.019 -329.057 -125.587 -328.667 Q-124.154 -328.291 -122.751 -328.291 Q-120.87 -328.291 -119.858 -328.927 Q-118.845 -329.578 -118.845 -330.75 Q-118.845 -331.835 -119.583 -332.414 Q-120.306 -332.992 -122.78 -333.528 L-123.706 -333.745 Q-126.18 -334.266 -127.279 -335.336 Q-128.379 -336.421 -128.379 -338.302 Q-128.379 -340.588 -126.759 -341.832 Q-125.138 -343.076 -122.158 -343.076 Q-120.682 -343.076 -119.38 -342.859 Q-118.078 -342.642 -116.979 -342.208 Z" fill="#000000" fill-rule="evenodd" fill-opacity="1" /><path clip-path="url(#clip150)" d="M 0 0 M-110.685 -347.286 L-110.685 -342.686 L-105.202 -342.686 L-105.202 -340.617 L-110.685 -340.617 L-110.685 -331.821 Q-110.685 -329.839 -110.15 -329.274 Q-109.6 -328.71 -107.936 -328.71 L-105.202 -328.71 L-105.202 -326.482 L-107.936 -326.482 Q-111.018 -326.482 -112.19 -327.625 Q-113.362 -328.782 -113.362 -331.821 L-113.362 -340.617 L-115.315 -340.617 L-115.315 -342.686 L-113.362 -342.686 L-113.362 -347.286 L-110.685 -347.286 Z" fill="#000000" fill-rule="evenodd" fill-opacity="1" /><path clip-path="url(#clip150)" d="M 0 0 M-93.0204 -340.197 Q-93.4689 -340.458 -94.0042 -340.573 Q-94.525 -340.704 -95.1616 -340.704 Q-97.4185 -340.704 -98.6338 -339.228 Q-99.8346 -337.767 -99.8346 -335.018 L-99.8346 -326.482 L-102.511 -326.482 L-102.511 -342.686 L-99.8346 -342.686 L-99.8346 -340.168 Q-98.9954 -341.644 -97.65 -342.353 Q-96.3045 -343.076 -94.3803 -343.076 Q-94.1054 -343.076 -93.7727 -343.033 Q-93.4399 -343.004 -93.0348 -342.932 L-93.0204 -340.197 Z" fill="#000000" fill-rule="evenodd" fill-opacity="1" /><path clip-path="url(#clip150)" d="M 0 0 M-82.8642 -334.627 Q-86.0904 -334.627 -87.3346 -333.889 Q-88.5788 -333.152 -88.5788 -331.372 Q-88.5788 -329.954 -87.6529 -329.115 Q-86.7125 -328.291 -85.1066 -328.291 Q-82.8931 -328.291 -81.5621 -329.853 Q-80.2166 -331.43 -80.2166 -334.034 L-80.2166 -334.627 L-82.8642 -334.627 M-77.5546 -335.727 L-77.5546 -326.482 L-80.2166 -326.482 L-80.2166 -328.942 Q-81.1281 -327.466 -82.488 -326.757 Q-83.848 -326.063 -85.8155 -326.063 Q-88.304 -326.063 -89.7796 -327.451 Q-91.2409 -328.855 -91.2409 -331.199 Q-91.2409 -333.933 -89.418 -335.322 Q-87.5806 -336.711 -83.9492 -336.711 L-80.2166 -336.711 L-80.2166 -336.971 Q-80.2166 -338.808 -81.4319 -339.807 Q-82.6327 -340.819 -84.8173 -340.819 Q-86.2062 -340.819 -87.5227 -340.487 Q-88.8392 -340.154 -90.0545 -339.488 L-90.0545 -341.948 Q-88.5933 -342.512 -87.2189 -342.787 Q-85.8445 -343.076 -84.5424 -343.076 Q-81.0268 -343.076 -79.2907 -341.253 Q-77.5546 -339.431 -77.5546 -335.727 Z" fill="#000000" fill-rule="evenodd" fill-opacity="1" /><path clip-path="url(#clip150)" d="M 0 0 M-74.7624 -342.686 L-72.1003 -342.686 L-72.1003 -326.482 L-74.7624 -326.482 L-74.7624 -342.686 M-74.7624 -348.994 L-72.1003 -348.994 L-72.1003 -345.623 L-74.7624 -345.623 L-74.7624 -348.994 Z" fill="#000000" fill-rule="evenodd" fill-opacity="1" /><path clip-path="url(#clip150)" d="M 0 0 M-55.8388 -336.262 L-55.8388 -326.482 L-58.5009 -326.482 L-58.5009 -336.175 Q-58.5009 -338.476 -59.3979 -339.619 Q-60.2948 -340.762 -62.0888 -340.762 Q-64.2445 -340.762 -65.4887 -339.387 Q-66.7329 -338.013 -66.7329 -335.64 L-66.7329 -326.482 L-69.4094 -326.482 L-69.4094 -342.686 L-66.7329 -342.686 L-66.7329 -340.168 Q-65.778 -341.63 -64.4904 -342.353 Q-63.1883 -343.076 -61.4956 -343.076 Q-58.7034 -343.076 -57.2711 -341.34 Q-55.8388 -339.619 -55.8388 -336.262 Z" fill="#000000" fill-rule="evenodd" fill-opacity="1" /><path clip-path="url(#clip150)" d="M 0 0 M-50.4135 -347.286 L-50.4135 -342.686 L-44.9303 -342.686 L-44.9303 -340.617 L-50.4135 -340.617 L-50.4135 -331.821 Q-50.4135 -329.839 -49.8782 -329.274 Q-49.3285 -328.71 -47.6647 -328.71 L-44.9303 -328.71 L-44.9303 -326.482 L-47.6647 -326.482 Q-50.7463 -326.482 -51.9182 -327.625 Q-53.09 -328.782 -53.09 -331.821 L-53.09 -340.617 L-55.0431 -340.617 L-55.0431 -342.686 L-53.09 -342.686 L-53.09 -347.286 L-50.4135 -347.286 Z" fill="#000000" fill-rule="evenodd" fill-opacity="1" /><path clip-path="url(#clip150)" d="M 0 0 M-31.8083 -342.208 L-31.8083 -339.691 Q-32.9368 -340.27 -34.152 -340.559 Q-35.3673 -340.848 -36.6694 -340.848 Q-38.6514 -340.848 -39.6497 -340.241 Q-40.6335 -339.633 -40.6335 -338.418 Q-40.6335 -337.492 -39.9246 -336.957 Q-39.2157 -336.436 -37.0745 -335.958 L-36.163 -335.756 Q-33.3274 -335.148 -32.1411 -334.034 Q-30.9403 -332.935 -30.9403 -330.953 Q-30.9403 -328.696 -32.7342 -327.379 Q-34.5137 -326.063 -37.6387 -326.063 Q-38.9408 -326.063 -40.3586 -326.323 Q-41.762 -326.569 -43.3244 -327.075 L-43.3244 -329.824 Q-41.8488 -329.057 -40.4165 -328.667 Q-38.9842 -328.291 -37.5808 -328.291 Q-35.7001 -328.291 -34.6873 -328.927 Q-33.6746 -329.578 -33.6746 -330.75 Q-33.6746 -331.835 -34.4125 -332.414 Q-35.1358 -332.992 -37.6098 -333.528 L-38.5357 -333.745 Q-41.0096 -334.266 -42.1092 -335.336 Q-43.2087 -336.421 -43.2087 -338.302 Q-43.2087 -340.588 -41.5883 -341.832 Q-39.968 -343.076 -36.9877 -343.076 Q-35.512 -343.076 -34.2099 -342.859 Q-32.9078 -342.642 -31.8083 -342.208 Z" fill="#000000" fill-rule="evenodd" fill-opacity="1" /><path clip-path="url(#clip150)" d="M 0 0 M1810.01 1948.15 L1810.01 1956.27 L1813.68 1956.27 Q1815.72 1956.27 1816.84 1955.21 Q1817.95 1954.15 1817.95 1952.2 Q1817.95 1950.26 1816.84 1949.21 Q1815.72 1948.15 1813.68 1948.15 L1810.01 1948.15 M1807.09 1945.75 L1813.68 1945.75 Q1817.31 1945.75 1819.17 1947.4 Q1821.03 1949.03 1821.03 1952.2 Q1821.03 1955.4 1819.17 1957.03 Q1817.31 1958.67 1813.68 1958.67 L1810.01 1958.67 L1810.01 1967.35 L1807.09 1967.35 L1807.09 1945.75 Z" fill="#000000" fill-rule="evenodd" fill-opacity="1" /><path clip-path="url(#clip150)" d="M 0 0 M1836.63 1958.58 L1836.63 1959.88 L1824.39 1959.88 Q1824.56 1962.63 1826.04 1964.08 Q1827.53 1965.51 1830.18 1965.51 Q1831.71 1965.51 1833.14 1965.13 Q1834.59 1964.76 1836.01 1964.01 L1836.01 1966.52 Q1834.57 1967.13 1833.07 1967.45 Q1831.57 1967.77 1830.02 1967.77 Q1826.14 1967.77 1823.87 1965.51 Q1821.61 1963.25 1821.61 1959.4 Q1821.61 1955.43 1823.75 1953.1 Q1825.91 1950.75 1829.55 1950.75 Q1832.82 1950.75 1834.72 1952.87 Q1836.63 1954.96 1836.63 1958.58 M1833.97 1957.8 Q1833.94 1955.61 1832.74 1954.31 Q1831.55 1953.01 1829.58 1953.01 Q1827.36 1953.01 1826.01 1954.27 Q1824.68 1955.53 1824.48 1957.81 L1833.97 1957.8 Z" fill="#000000" fill-rule="evenodd" fill-opacity="1" /><path clip-path="url(#clip150)" d="M 0 0 M1848.81 1953.63 Q1848.36 1953.37 1847.83 1953.26 Q1847.31 1953.13 1846.67 1953.13 Q1844.41 1953.13 1843.2 1954.6 Q1842 1956.06 1842 1958.81 L1842 1967.35 L1839.32 1967.35 L1839.32 1951.14 L1842 1951.14 L1842 1953.66 Q1842.84 1952.19 1844.18 1951.48 Q1845.53 1950.75 1847.45 1950.75 Q1847.73 1950.75 1848.06 1950.8 Q1848.39 1950.83 1848.8 1950.9 L1848.81 1953.63 Z" fill="#000000" fill-rule="evenodd" fill-opacity="1" /><path clip-path="url(#clip150)" d="M 0 0 M1859.81 1944.84 L1859.81 1947.05 L1857.26 1947.05 Q1855.83 1947.05 1855.26 1947.63 Q1854.71 1948.21 1854.71 1949.71 L1854.71 1951.14 L1859.1 1951.14 L1859.1 1953.21 L1854.71 1953.21 L1854.71 1967.35 L1852.04 1967.35 L1852.04 1953.21 L1849.49 1953.21 L1849.49 1951.14 L1852.04 1951.14 L1852.04 1950.02 Q1852.04 1947.31 1853.3 1946.08 Q1854.55 1944.84 1857.29 1944.84 L1859.81 1944.84 Z" fill="#000000" fill-rule="evenodd" fill-opacity="1" /><path clip-path="url(#clip150)" d="M 0 0 M1868.88 1953.01 Q1866.74 1953.01 1865.49 1954.69 Q1864.25 1956.35 1864.25 1959.26 Q1864.25 1962.17 1865.48 1963.85 Q1866.72 1965.51 1868.88 1965.51 Q1871 1965.51 1872.25 1963.83 Q1873.49 1962.15 1873.49 1959.26 Q1873.49 1956.38 1872.25 1954.7 Q1871 1953.01 1868.88 1953.01 M1868.88 1950.75 Q1872.35 1950.75 1874.33 1953.01 Q1876.31 1955.27 1876.31 1959.26 Q1876.31 1963.24 1874.33 1965.51 Q1872.35 1967.77 1868.88 1967.77 Q1865.39 1967.77 1863.41 1965.51 Q1861.44 1963.24 1861.44 1959.26 Q1861.44 1955.27 1863.41 1953.01 Q1865.39 1950.75 1868.88 1950.75 Z" fill="#000000" fill-rule="evenodd" fill-opacity="1" /><path clip-path="url(#clip150)" d="M 0 0 M1888.5 1953.63 Q1888.05 1953.37 1887.51 1953.26 Q1886.99 1953.13 1886.35 1953.13 Q1884.1 1953.13 1882.88 1954.6 Q1881.68 1956.06 1881.68 1958.81 L1881.68 1967.35 L1879 1967.35 L1879 1951.14 L1881.68 1951.14 L1881.68 1953.66 Q1882.52 1952.19 1883.87 1951.48 Q1885.21 1950.75 1887.14 1950.75 Q1887.41 1950.75 1887.74 1950.8 Q1888.08 1950.83 1888.48 1950.9 L1888.5 1953.63 Z" fill="#000000" fill-rule="evenodd" fill-opacity="1" /><path clip-path="url(#clip150)" d="M 0 0 M1903.38 1954.25 Q1904.38 1952.46 1905.77 1951.61 Q1907.16 1950.75 1909.04 1950.75 Q1911.57 1950.75 1912.95 1952.53 Q1914.32 1954.3 1914.32 1957.57 L1914.32 1967.35 L1911.64 1967.35 L1911.64 1957.65 Q1911.64 1955.32 1910.82 1954.2 Q1909.99 1953.07 1908.3 1953.07 Q1906.23 1953.07 1905.03 1954.44 Q1903.83 1955.82 1903.83 1958.19 L1903.83 1967.35 L1901.15 1967.35 L1901.15 1957.65 Q1901.15 1955.31 1900.33 1954.2 Q1899.5 1953.07 1897.78 1953.07 Q1895.74 1953.07 1894.54 1954.46 Q1893.34 1955.83 1893.34 1958.19 L1893.34 1967.35 L1890.67 1967.35 L1890.67 1951.14 L1893.34 1951.14 L1893.34 1953.66 Q1894.25 1952.17 1895.53 1951.46 Q1896.8 1950.75 1898.55 1950.75 Q1900.32 1950.75 1901.54 1951.65 Q1902.79 1952.55 1903.38 1954.25 Z" fill="#000000" fill-rule="evenodd" fill-opacity="1" /><path clip-path="url(#clip150)" d="M 0 0 M1924.48 1959.2 Q1921.25 1959.2 1920.01 1959.94 Q1918.76 1960.68 1918.76 1962.46 Q1918.76 1963.88 1919.69 1964.71 Q1920.63 1965.54 1922.23 1965.54 Q1924.45 1965.54 1925.78 1963.98 Q1927.12 1962.4 1927.12 1959.8 L1927.12 1959.2 L1924.48 1959.2 M1929.79 1958.1 L1929.79 1967.35 L1927.12 1967.35 L1927.12 1964.89 Q1926.21 1966.36 1924.85 1967.07 Q1923.49 1967.77 1921.52 1967.77 Q1919.04 1967.77 1917.56 1966.38 Q1916.1 1964.97 1916.1 1962.63 Q1916.1 1959.9 1917.92 1958.51 Q1919.76 1957.12 1923.39 1957.12 L1927.12 1957.12 L1927.12 1956.86 Q1927.12 1955.02 1925.91 1954.02 Q1924.71 1953.01 1922.52 1953.01 Q1921.13 1953.01 1919.82 1953.34 Q1918.5 1953.68 1917.29 1954.34 L1917.29 1951.88 Q1918.75 1951.32 1920.12 1951.04 Q1921.5 1950.75 1922.8 1950.75 Q1926.31 1950.75 1928.05 1952.58 Q1929.79 1954.4 1929.79 1958.1 Z" fill="#000000" fill-rule="evenodd" fill-opacity="1" /><path clip-path="url(#clip150)" d="M 0 0 M1946.05 1957.57 L1946.05 1967.35 L1943.38 1967.35 L1943.38 1957.65 Q1943.38 1955.35 1942.49 1954.21 Q1941.59 1953.07 1939.8 1953.07 Q1937.64 1953.07 1936.4 1954.44 Q1935.15 1955.82 1935.15 1958.19 L1935.15 1967.35 L1932.48 1967.35 L1932.48 1951.14 L1935.15 1951.14 L1935.15 1953.66 Q1936.11 1952.2 1937.4 1951.48 Q1938.7 1950.75 1940.39 1950.75 Q1943.18 1950.75 1944.61 1952.49 Q1946.05 1954.21 1946.05 1957.57 Z" fill="#000000" fill-rule="evenodd" fill-opacity="1" /><path clip-path="url(#clip150)" d="M 0 0 M1960.5 1951.77 L1960.5 1954.25 Q1959.37 1953.63 1958.23 1953.33 Q1957.1 1953.01 1955.94 1953.01 Q1953.35 1953.01 1951.92 1954.66 Q1950.49 1956.29 1950.49 1959.26 Q1950.49 1962.23 1951.92 1963.88 Q1953.35 1965.51 1955.94 1965.51 Q1957.1 1965.51 1958.23 1965.21 Q1959.37 1964.89 1960.5 1964.27 L1960.5 1966.73 Q1959.39 1967.25 1958.19 1967.51 Q1957 1967.77 1955.65 1967.77 Q1951.99 1967.77 1949.84 1965.47 Q1947.68 1963.17 1947.68 1959.26 Q1947.68 1955.3 1949.85 1953.02 Q1952.04 1950.75 1955.83 1950.75 Q1957.06 1950.75 1958.23 1951.01 Q1959.4 1951.26 1960.5 1951.77 Z" fill="#000000" fill-rule="evenodd" fill-opacity="1" /><path clip-path="url(#clip150)" d="M 0 0 M1977.15 1958.58 L1977.15 1959.88 L1964.91 1959.88 Q1965.09 1962.63 1966.56 1964.08 Q1968.05 1965.51 1970.7 1965.51 Q1972.23 1965.51 1973.67 1965.13 Q1975.11 1964.76 1976.53 1964.01 L1976.53 1966.52 Q1975.1 1967.13 1973.59 1967.45 Q1972.09 1967.77 1970.54 1967.77 Q1966.66 1967.77 1964.39 1965.51 Q1962.13 1963.25 1962.13 1959.4 Q1962.13 1955.43 1964.28 1953.1 Q1966.43 1950.75 1970.08 1950.75 Q1973.35 1950.75 1975.24 1952.87 Q1977.15 1954.96 1977.15 1958.58 M1974.49 1957.8 Q1974.46 1955.61 1973.26 1954.31 Q1972.07 1953.01 1970.11 1953.01 Q1967.88 1953.01 1966.53 1954.27 Q1965.2 1955.53 1965 1957.81 L1974.49 1957.8 Z" fill="#000000" fill-rule="evenodd" fill-opacity="1" /><path clip-path="url(#clip150)" d="M 0 0 M1992.26 1972.27 L1992.26 1974.34 L1976.86 1974.34 L1976.86 1972.27 L1992.26 1972.27 Z" fill="#000000" fill-rule="evenodd" fill-opacity="1" /><path clip-path="url(#clip150)" d="M 0 0 M1998.09 1948.15 L1998.09 1956.27 L2001.76 1956.27 Q2003.8 1956.27 2004.92 1955.21 Q2006.03 1954.15 2006.03 1952.2 Q2006.03 1950.26 2004.92 1949.21 Q2003.8 1948.15 2001.76 1948.15 L1998.09 1948.15 M1995.16 1945.75 L2001.76 1945.75 Q2005.39 1945.75 2007.24 1947.4 Q2009.11 1949.03 2009.11 1952.2 Q2009.11 1955.4 2007.24 1957.03 Q2005.39 1958.67 2001.76 1958.67 L1998.09 1958.67 L1998.09 1967.35 L1995.16 1967.35 L1995.16 1945.75 Z" fill="#000000" fill-rule="evenodd" fill-opacity="1" /><path clip-path="url(#clip150)" d="M 0 0 M2017.94 1959.2 Q2014.71 1959.2 2013.47 1959.94 Q2012.22 1960.68 2012.22 1962.46 Q2012.22 1963.88 2013.15 1964.71 Q2014.09 1965.54 2015.69 1965.54 Q2017.91 1965.54 2019.24 1963.98 Q2020.58 1962.4 2020.58 1959.8 L2020.58 1959.2 L2017.94 1959.2 M2023.25 1958.1 L2023.25 1967.35 L2020.58 1967.35 L2020.58 1964.89 Q2019.67 1966.36 2018.31 1967.07 Q2016.95 1967.77 2014.98 1967.77 Q2012.5 1967.77 2011.02 1966.38 Q2009.56 1964.97 2009.56 1962.63 Q2009.56 1959.9 2011.38 1958.51 Q2013.22 1957.12 2016.85 1957.12 L2020.58 1957.12 L2020.58 1956.86 Q2020.58 1955.02 2019.37 1954.02 Q2018.17 1953.01 2015.98 1953.01 Q2014.59 1953.01 2013.28 1953.34 Q2011.96 1953.68 2010.75 1954.34 L2010.75 1951.88 Q2012.21 1951.32 2013.58 1951.04 Q2014.96 1950.75 2016.26 1950.75 Q2019.77 1950.75 2021.51 1952.58 Q2023.25 1954.4 2023.25 1958.1 Z" fill="#000000" fill-rule="evenodd" fill-opacity="1" /><path clip-path="url(#clip150)" d="M 0 0 M2035.43 1953.63 Q2034.98 1953.37 2034.44 1953.26 Q2033.92 1953.13 2033.29 1953.13 Q2031.03 1953.13 2029.81 1954.6 Q2028.61 1956.06 2028.61 1958.81 L2028.61 1967.35 L2025.94 1967.35 L2025.94 1951.14 L2028.61 1951.14 L2028.61 1953.66 Q2029.45 1952.19 2030.8 1951.48 Q2032.14 1950.75 2034.07 1950.75 Q2034.34 1950.75 2034.67 1950.8 Q2035.01 1950.83 2035.41 1950.9 L2035.43 1953.63 Z" fill="#000000" fill-rule="evenodd" fill-opacity="1" /><path clip-path="url(#clip150)" d="M 0 0 M2045.58 1959.2 Q2042.36 1959.2 2041.11 1959.94 Q2039.87 1960.68 2039.87 1962.46 Q2039.87 1963.88 2040.79 1964.71 Q2041.74 1965.54 2043.34 1965.54 Q2045.55 1965.54 2046.89 1963.98 Q2048.23 1962.4 2048.23 1959.8 L2048.23 1959.2 L2045.58 1959.2 M2050.89 1958.1 L2050.89 1967.35 L2048.23 1967.35 L2048.23 1964.89 Q2047.32 1966.36 2045.96 1967.07 Q2044.6 1967.77 2042.63 1967.77 Q2040.14 1967.77 2038.67 1966.38 Q2037.21 1964.97 2037.21 1962.63 Q2037.21 1959.9 2039.03 1958.51 Q2040.87 1957.12 2044.5 1957.12 L2048.23 1957.12 L2048.23 1956.86 Q2048.23 1955.02 2047.02 1954.02 Q2045.81 1953.01 2043.63 1953.01 Q2042.24 1953.01 2040.92 1953.34 Q2039.61 1953.68 2038.39 1954.34 L2038.39 1951.88 Q2039.85 1951.32 2041.23 1951.04 Q2042.6 1950.75 2043.91 1950.75 Q2047.42 1950.75 2049.16 1952.58 Q2050.89 1954.4 2050.89 1958.1 Z" fill="#000000" fill-rule="evenodd" fill-opacity="1" /><path clip-path="url(#clip150)" d="M 0 0 M2066.3 1954.25 Q2067.3 1952.46 2068.69 1951.61 Q2070.08 1950.75 2071.96 1950.75 Q2074.49 1950.75 2075.86 1952.53 Q2077.24 1954.3 2077.24 1957.57 L2077.24 1967.35 L2074.56 1967.35 L2074.56 1957.65 Q2074.56 1955.32 2073.74 1954.2 Q2072.91 1953.07 2071.22 1953.07 Q2069.15 1953.07 2067.95 1954.44 Q2066.75 1955.82 2066.75 1958.19 L2066.75 1967.35 L2064.07 1967.35 L2064.07 1957.65 Q2064.07 1955.31 2063.25 1954.2 Q2062.42 1953.07 2060.7 1953.07 Q2058.66 1953.07 2057.46 1954.46 Q2056.26 1955.83 2056.26 1958.19 L2056.26 1967.35 L2053.58 1967.35 L2053.58 1951.14 L2056.26 1951.14 L2056.26 1953.66 Q2057.17 1952.17 2058.45 1951.46 Q2059.72 1950.75 2061.47 1950.75 Q2063.23 1950.75 2064.46 1951.65 Q2065.71 1952.55 2066.3 1954.25 Z" fill="#000000" fill-rule="evenodd" fill-opacity="1" /><path clip-path="url(#clip150)" d="M 0 0 M2093.89 1958.58 L2093.89 1959.88 L2081.65 1959.88 Q2081.82 1962.63 2083.3 1964.08 Q2084.79 1965.51 2087.44 1965.51 Q2088.97 1965.51 2090.4 1965.13 Q2091.85 1964.76 2093.27 1964.01 L2093.27 1966.52 Q2091.84 1967.13 2090.33 1967.45 Q2088.83 1967.77 2087.28 1967.77 Q2083.4 1967.77 2081.13 1965.51 Q2078.87 1963.25 2078.87 1959.4 Q2078.87 1955.43 2081.01 1953.1 Q2083.17 1950.75 2086.82 1950.75 Q2090.09 1950.75 2091.98 1952.87 Q2093.89 1954.96 2093.89 1958.58 M2091.23 1957.8 Q2091.2 1955.61 2090 1954.31 Q2088.81 1953.01 2086.84 1953.01 Q2084.62 1953.01 2083.27 1954.27 Q2081.94 1955.53 2081.74 1957.81 L2091.23 1957.8 Z" fill="#000000" fill-rule="evenodd" fill-opacity="1" /><path clip-path="url(#clip150)" d="M 0 0 M2099.32 1946.54 L2099.32 1951.14 L2104.8 1951.14 L2104.8 1953.21 L2099.32 1953.21 L2099.32 1962.01 Q2099.32 1963.99 2099.85 1964.56 Q2100.4 1965.12 2102.06 1965.12 L2104.8 1965.12 L2104.8 1967.35 L2102.06 1967.35 Q2098.98 1967.35 2097.81 1966.2 Q2096.64 1965.05 2096.64 1962.01 L2096.64 1953.21 L2094.69 1953.21 L2094.69 1951.14 L2096.64 1951.14 L2096.64 1946.54 L2099.32 1946.54 Z" fill="#000000" fill-rule="evenodd" fill-opacity="1" /><path clip-path="url(#clip150)" d="M 0 0 M2121.45 1958.58 L2121.45 1959.88 L2109.21 1959.88 Q2109.39 1962.63 2110.86 1964.08 Q2112.35 1965.51 2115 1965.51 Q2116.53 1965.51 2117.96 1965.13 Q2119.41 1964.76 2120.83 1964.01 L2120.83 1966.52 Q2119.4 1967.13 2117.89 1967.45 Q2116.39 1967.77 2114.84 1967.77 Q2110.96 1967.77 2108.69 1965.51 Q2106.43 1963.25 2106.43 1959.4 Q2106.43 1955.43 2108.57 1953.1 Q2110.73 1950.75 2114.38 1950.75 Q2117.65 1950.75 2119.54 1952.87 Q2121.45 1954.96 2121.45 1958.58 M2118.79 1957.8 Q2118.76 1955.61 2117.56 1954.31 Q2116.37 1953.01 2114.41 1953.01 Q2112.18 1953.01 2110.83 1954.27 Q2109.5 1955.53 2109.3 1957.81 L2118.79 1957.8 Z" fill="#000000" fill-rule="evenodd" fill-opacity="1" /><path clip-path="url(#clip150)" d="M 0 0 M2133.63 1953.63 Q2133.18 1953.37 2132.65 1953.26 Q2132.13 1953.13 2131.49 1953.13 Q2129.23 1953.13 2128.02 1954.6 Q2126.82 1956.06 2126.82 1958.81 L2126.82 1967.35 L2124.14 1967.35 L2124.14 1951.14 L2126.82 1951.14 L2126.82 1953.66 Q2127.66 1952.19 2129 1951.48 Q2130.35 1950.75 2132.27 1950.75 Q2132.55 1950.75 2132.88 1950.8 Q2133.21 1950.83 2133.62 1950.9 L2133.63 1953.63 Z" fill="#000000" fill-rule="evenodd" fill-opacity="1" /><path clip-path="url(#clip150)" d="M 0 0 M2146.75 1951.62 L2146.75 1954.14 Q2145.63 1953.56 2144.41 1953.27 Q2143.2 1952.98 2141.89 1952.98 Q2139.91 1952.98 2138.91 1953.59 Q2137.93 1954.2 2137.93 1955.41 Q2137.93 1956.34 2138.64 1956.87 Q2139.35 1957.39 2141.49 1957.87 L2142.4 1958.07 Q2145.24 1958.68 2146.42 1959.8 Q2147.62 1960.89 2147.62 1962.88 Q2147.62 1965.13 2145.83 1966.45 Q2144.05 1967.77 2140.92 1967.77 Q2139.62 1967.77 2138.2 1967.51 Q2136.8 1967.26 2135.24 1966.75 L2135.24 1964.01 Q2136.71 1964.77 2138.15 1965.16 Q2139.58 1965.54 2140.98 1965.54 Q2142.86 1965.54 2143.88 1964.9 Q2144.89 1964.25 2144.89 1963.08 Q2144.89 1961.99 2144.15 1961.42 Q2143.43 1960.84 2140.95 1960.3 L2140.03 1960.08 Q2137.55 1959.56 2136.45 1958.49 Q2135.35 1957.41 2135.35 1955.53 Q2135.35 1953.24 2136.97 1952 Q2138.6 1950.75 2141.58 1950.75 Q2143.05 1950.75 2144.35 1950.97 Q2145.66 1951.19 2146.75 1951.62 Z" fill="#000000" fill-rule="evenodd" fill-opacity="1" /><path clip-path="url(#clip150)" d="M 0 0 M708.39 1343.79 L708.39 1346.87 Q706.914 1345.5 705.236 1344.82 Q703.572 1344.14 701.692 1344.14 Q697.988 1344.14 696.02 1346.41 Q694.053 1348.67 694.053 1352.95 Q694.053 1357.22 696.02 1359.49 Q697.988 1361.75 701.692 1361.75 Q703.572 1361.75 705.236 1361.07 Q706.914 1360.39 708.39 1359.01 L708.39 1362.07 Q706.857 1363.11 705.135 1363.63 Q703.428 1364.15 701.518 1364.15 Q696.614 1364.15 693.792 1361.15 Q690.971 1358.15 690.971 1352.95 Q690.971 1347.74 693.792 1344.75 Q696.614 1341.74 701.518 1341.74 Q703.457 1341.74 705.164 1342.26 Q706.885 1342.77 708.39 1343.79 Z" fill="#000000" fill-rule="evenodd" fill-opacity="1" /><path clip-path="url(#clip150)" d="M 0 0 M711.182 1341.22 L713.844 1341.22 L713.844 1363.73 L711.182 1363.73 L711.182 1341.22 Z" fill="#000000" fill-rule="evenodd" fill-opacity="1" /><path clip-path="url(#clip150)" d="M 0 0 M716.637 1347.53 L719.299 1347.53 L719.299 1363.73 L716.637 1363.73 L716.637 1347.53 M716.637 1341.22 L719.299 1341.22 L719.299 1344.59 L716.637 1344.59 L716.637 1341.22 Z" fill="#000000" fill-rule="evenodd" fill-opacity="1" /><path clip-path="url(#clip150)" d="M 0 0 M735.951 1354.96 L735.951 1356.26 L723.711 1356.26 Q723.885 1359.01 725.36 1360.46 Q726.851 1361.89 729.498 1361.89 Q731.032 1361.89 732.464 1361.52 Q733.911 1361.14 735.329 1360.39 L735.329 1362.9 Q733.896 1363.51 732.392 1363.83 Q730.887 1364.15 729.339 1364.15 Q725.462 1364.15 723.19 1361.89 Q720.933 1359.64 720.933 1355.79 Q720.933 1351.81 723.075 1349.48 Q725.23 1347.14 728.876 1347.14 Q732.146 1347.14 734.041 1349.25 Q735.951 1351.35 735.951 1354.96 M733.289 1354.18 Q733.26 1352 732.059 1350.69 Q730.873 1349.39 728.905 1349.39 Q726.677 1349.39 725.332 1350.65 Q724.001 1351.91 723.798 1354.2 L733.289 1354.18 Z" fill="#000000" fill-rule="evenodd" fill-opacity="1" /><path clip-path="url(#clip150)" d="M 0 0 M752.212 1353.95 L752.212 1363.73 L749.55 1363.73 L749.55 1354.04 Q749.55 1351.74 748.653 1350.59 Q747.756 1349.45 745.962 1349.45 Q743.807 1349.45 742.562 1350.82 Q741.318 1352.2 741.318 1354.57 L741.318 1363.73 L738.642 1363.73 L738.642 1347.53 L741.318 1347.53 L741.318 1350.04 Q742.273 1348.58 743.561 1347.86 Q744.863 1347.14 746.555 1347.14 Q749.348 1347.14 750.78 1348.87 Q752.212 1350.59 752.212 1353.95 Z" fill="#000000" fill-rule="evenodd" fill-opacity="1" /><path clip-path="url(#clip150)" d="M 0 0 M757.638 1342.93 L757.638 1347.53 L763.121 1347.53 L763.121 1349.59 L757.638 1349.59 L757.638 1358.39 Q757.638 1360.37 758.173 1360.94 Q758.723 1361.5 760.386 1361.5 L763.121 1361.5 L763.121 1363.73 L760.386 1363.73 Q757.305 1363.73 756.133 1362.59 Q754.961 1361.43 754.961 1358.39 L754.961 1349.59 L753.008 1349.59 L753.008 1347.53 L754.961 1347.53 L754.961 1342.93 L757.638 1342.93 Z" fill="#000000" fill-rule="evenodd" fill-opacity="1" /><path clip-path="url(#clip150)" d="M 0 0 M778.225 1368.65 L778.225 1370.72 L762.831 1370.72 L762.831 1368.65 L778.225 1368.65 Z" fill="#000000" fill-rule="evenodd" fill-opacity="1" /><path clip-path="url(#clip150)" d="M 0 0 M788.381 1355.58 Q785.155 1355.58 783.911 1356.32 Q782.666 1357.06 782.666 1358.84 Q782.666 1360.26 783.592 1361.1 Q784.533 1361.92 786.139 1361.92 Q788.352 1361.92 789.683 1360.36 Q791.029 1358.78 791.029 1356.18 L791.029 1355.58 L788.381 1355.58 M793.691 1354.48 L793.691 1363.73 L791.029 1363.73 L791.029 1361.27 Q790.117 1362.75 788.757 1363.45 Q787.397 1364.15 785.43 1364.15 Q782.941 1364.15 781.466 1362.76 Q780.004 1361.36 780.004 1359.01 Q780.004 1356.28 781.827 1354.89 Q783.665 1353.5 787.296 1353.5 L791.029 1353.5 L791.029 1353.24 Q791.029 1351.4 789.813 1350.4 Q788.612 1349.39 786.428 1349.39 Q785.039 1349.39 783.722 1349.72 Q782.406 1350.06 781.191 1350.72 L781.191 1348.26 Q782.652 1347.7 784.026 1347.42 Q785.401 1347.14 786.703 1347.14 Q790.218 1347.14 791.954 1348.96 Q793.691 1350.78 793.691 1354.48 Z" fill="#000000" fill-rule="evenodd" fill-opacity="1" /><path clip-path="url(#clip150)" d="M 0 0 M809.952 1353.95 L809.952 1363.73 L807.29 1363.73 L807.29 1354.04 Q807.29 1351.74 806.393 1350.59 Q805.496 1349.45 803.702 1349.45 Q801.546 1349.45 800.302 1350.82 Q799.058 1352.2 799.058 1354.57 L799.058 1363.73 L796.382 1363.73 L796.382 1347.53 L799.058 1347.53 L799.058 1350.04 Q800.013 1348.58 801.3 1347.86 Q802.603 1347.14 804.295 1347.14 Q807.087 1347.14 808.52 1348.87 Q809.952 1350.59 809.952 1353.95 Z" fill="#000000" fill-rule="evenodd" fill-opacity="1" /><path clip-path="url(#clip150)" d="M 0 0 M823.407 1349.99 L823.407 1341.22 L826.069 1341.22 L826.069 1363.73 L823.407 1363.73 L823.407 1361.3 Q822.568 1362.75 821.28 1363.45 Q820.007 1364.15 818.213 1364.15 Q815.276 1364.15 813.424 1361.81 Q811.587 1359.46 811.587 1355.64 Q811.587 1351.82 813.424 1349.48 Q815.276 1347.14 818.213 1347.14 Q820.007 1347.14 821.28 1347.84 Q822.568 1348.54 823.407 1349.99 M814.336 1355.64 Q814.336 1358.58 815.537 1360.26 Q816.752 1361.92 818.864 1361.92 Q820.976 1361.92 822.192 1360.26 Q823.407 1358.58 823.407 1355.64 Q823.407 1352.71 822.192 1351.04 Q820.976 1349.36 818.864 1349.36 Q816.752 1349.36 815.537 1351.04 Q814.336 1352.71 814.336 1355.64 Z" fill="#000000" fill-rule="evenodd" fill-opacity="1" /><path clip-path="url(#clip150)" d="M 0 0 M841.173 1368.65 L841.173 1370.72 L825.78 1370.72 L825.78 1368.65 L841.173 1368.65 Z" fill="#000000" fill-rule="evenodd" fill-opacity="1" /><path clip-path="url(#clip150)" d="M 0 0 M860.256 1343.79 L860.256 1346.87 Q858.78 1345.5 857.102 1344.82 Q855.438 1344.14 853.557 1344.14 Q849.853 1344.14 847.886 1346.41 Q845.918 1348.67 845.918 1352.95 Q845.918 1357.22 847.886 1359.49 Q849.853 1361.75 853.557 1361.75 Q855.438 1361.75 857.102 1361.07 Q858.78 1360.39 860.256 1359.01 L860.256 1362.07 Q858.722 1363.11 857 1363.63 Q855.293 1364.15 853.384 1364.15 Q848.479 1364.15 845.658 1361.15 Q842.837 1358.15 842.837 1352.95 Q842.837 1347.74 845.658 1344.75 Q848.479 1341.74 853.384 1341.74 Q855.322 1341.74 857.029 1342.26 Q858.751 1342.77 860.256 1343.79 Z" fill="#000000" fill-rule="evenodd" fill-opacity="1" /><path clip-path="url(#clip150)" d="M 0 0 M869.327 1349.39 Q867.186 1349.39 865.941 1351.07 Q864.697 1352.73 864.697 1355.64 Q864.697 1358.55 865.927 1360.23 Q867.171 1361.89 869.327 1361.89 Q871.453 1361.89 872.698 1360.21 Q873.942 1358.54 873.942 1355.64 Q873.942 1352.76 872.698 1351.08 Q871.453 1349.39 869.327 1349.39 M869.327 1347.14 Q872.799 1347.14 874.781 1349.39 Q876.763 1351.65 876.763 1355.64 Q876.763 1359.62 874.781 1361.89 Q872.799 1364.15 869.327 1364.15 Q865.84 1364.15 863.858 1361.89 Q861.89 1359.62 861.89 1355.64 Q861.89 1351.65 863.858 1349.39 Q865.84 1347.14 869.327 1347.14 Z" fill="#000000" fill-rule="evenodd" fill-opacity="1" /><path clip-path="url(#clip150)" d="M 0 0 M893.025 1353.95 L893.025 1363.73 L890.363 1363.73 L890.363 1354.04 Q890.363 1351.74 889.466 1350.59 Q888.569 1349.45 886.775 1349.45 Q884.619 1349.45 883.375 1350.82 Q882.13 1352.2 882.13 1354.57 L882.13 1363.73 L879.454 1363.73 L879.454 1347.53 L882.13 1347.53 L882.13 1350.04 Q883.085 1348.58 884.373 1347.86 Q885.675 1347.14 887.368 1347.14 Q890.16 1347.14 891.592 1348.87 Q893.025 1350.59 893.025 1353.95 Z" fill="#000000" fill-rule="evenodd" fill-opacity="1" /><path clip-path="url(#clip150)" d="M 0 0 M906.147 1348 L906.147 1350.52 Q905.018 1349.94 903.803 1349.65 Q902.588 1349.36 901.285 1349.36 Q899.303 1349.36 898.305 1349.97 Q897.321 1350.58 897.321 1351.79 Q897.321 1352.72 898.03 1353.26 Q898.739 1353.78 900.88 1354.25 L901.792 1354.46 Q904.627 1355.06 905.814 1356.18 Q907.015 1357.28 907.015 1359.26 Q907.015 1361.52 905.221 1362.83 Q903.441 1364.15 900.316 1364.15 Q899.014 1364.15 897.596 1363.89 Q896.193 1363.64 894.63 1363.14 L894.63 1360.39 Q896.106 1361.15 897.538 1361.54 Q898.971 1361.92 900.374 1361.92 Q902.255 1361.92 903.268 1361.28 Q904.28 1360.63 904.28 1359.46 Q904.28 1358.38 903.542 1357.8 Q902.819 1357.22 900.345 1356.68 L899.419 1356.47 Q896.945 1355.95 895.846 1354.88 Q894.746 1353.79 894.746 1351.91 Q894.746 1349.62 896.367 1348.38 Q897.987 1347.14 900.967 1347.14 Q902.443 1347.14 903.745 1347.35 Q905.047 1347.57 906.147 1348 Z" fill="#000000" fill-rule="evenodd" fill-opacity="1" /><path clip-path="url(#clip150)" d="M 0 0 M909.532 1357.33 L909.532 1347.53 L912.194 1347.53 L912.194 1357.23 Q912.194 1359.53 913.091 1360.69 Q913.988 1361.83 915.782 1361.83 Q917.938 1361.83 919.182 1360.46 Q920.44 1359.09 920.44 1356.71 L920.44 1347.53 L923.102 1347.53 L923.102 1363.73 L920.44 1363.73 L920.44 1361.24 Q919.471 1362.72 918.184 1363.44 Q916.91 1364.15 915.218 1364.15 Q912.425 1364.15 910.979 1362.41 Q909.532 1360.68 909.532 1357.33 M916.23 1347.14 L916.23 1347.14 Z" fill="#000000" fill-rule="evenodd" fill-opacity="1" /><path clip-path="url(#clip150)" d="M 0 0 M925.895 1341.22 L928.557 1341.22 L928.557 1363.73 L925.895 1363.73 L925.895 1341.22 Z" fill="#000000" fill-rule="evenodd" fill-opacity="1" /><path clip-path="url(#clip150)" d="M 0 0 M933.982 1342.93 L933.982 1347.53 L939.465 1347.53 L939.465 1349.59 L933.982 1349.59 L933.982 1358.39 Q933.982 1360.37 934.517 1360.94 Q935.067 1361.5 936.731 1361.5 L939.465 1361.5 L939.465 1363.73 L936.731 1363.73 Q933.649 1363.73 932.477 1362.59 Q931.306 1361.43 931.306 1358.39 L931.306 1349.59 L929.352 1349.59 L929.352 1347.53 L931.306 1347.53 L931.306 1342.93 L933.982 1342.93 Z" fill="#000000" fill-rule="evenodd" fill-opacity="1" /><path clip-path="url(#clip150)" d="M 0 0 M949.621 1355.58 Q946.395 1355.58 945.151 1356.32 Q943.907 1357.06 943.907 1358.84 Q943.907 1360.26 944.833 1361.1 Q945.773 1361.92 947.379 1361.92 Q949.593 1361.92 950.924 1360.36 Q952.269 1358.78 952.269 1356.18 L952.269 1355.58 L949.621 1355.58 M954.931 1354.48 L954.931 1363.73 L952.269 1363.73 L952.269 1361.27 Q951.358 1362.75 949.998 1363.45 Q948.638 1364.15 946.67 1364.15 Q944.182 1364.15 942.706 1362.76 Q941.245 1361.36 941.245 1359.01 Q941.245 1356.28 943.068 1354.89 Q944.905 1353.5 948.536 1353.5 L952.269 1353.5 L952.269 1353.24 Q952.269 1351.4 951.054 1350.4 Q949.853 1349.39 947.668 1349.39 Q946.279 1349.39 944.963 1349.72 Q943.646 1350.06 942.431 1350.72 L942.431 1348.26 Q943.892 1347.7 945.267 1347.42 Q946.641 1347.14 947.943 1347.14 Q951.459 1347.14 953.195 1348.96 Q954.931 1350.78 954.931 1354.48 Z" fill="#000000" fill-rule="evenodd" fill-opacity="1" /><path clip-path="url(#clip150)" d="M 0 0 M971.193 1353.95 L971.193 1363.73 L968.53 1363.73 L968.53 1354.04 Q968.53 1351.74 967.634 1350.59 Q966.737 1349.45 964.943 1349.45 Q962.787 1349.45 961.543 1350.82 Q960.298 1352.2 960.298 1354.57 L960.298 1363.73 L957.622 1363.73 L957.622 1347.53 L960.298 1347.53 L960.298 1350.04 Q961.253 1348.58 962.541 1347.86 Q963.843 1347.14 965.536 1347.14 Q968.328 1347.14 969.76 1348.87 Q971.193 1350.59 971.193 1353.95 Z" fill="#000000" fill-rule="evenodd" fill-opacity="1" /><path clip-path="url(#clip150)" d="M 0 0 M976.618 1342.93 L976.618 1347.53 L982.101 1347.53 L982.101 1349.59 L976.618 1349.59 L976.618 1358.39 Q976.618 1360.37 977.153 1360.94 Q977.703 1361.5 979.367 1361.5 L982.101 1361.5 L982.101 1363.73 L979.367 1363.73 Q976.285 1363.73 975.113 1362.59 Q973.941 1361.43 973.941 1358.39 L973.941 1349.59 L971.988 1349.59 L971.988 1347.53 L973.941 1347.53 L973.941 1342.93 L976.618 1342.93 Z" fill="#000000" fill-rule="evenodd" fill-opacity="1" /><path clip-path="url(#clip150)" d="M 0 0 M997.205 1368.65 L997.205 1370.72 L981.812 1370.72 L981.812 1368.65 L997.205 1368.65 Z" fill="#000000" fill-rule="evenodd" fill-opacity="1" /><path clip-path="url(#clip150)" d="M 0 0 M1010.36 1353.6 Q1011.3 1353.92 1012.18 1354.96 Q1013.08 1356 1013.97 1357.83 L1016.94 1363.73 L1013.8 1363.73 L1011.04 1358.19 Q1009.97 1356.02 1008.95 1355.31 Q1007.95 1354.6 1006.22 1354.6 L1003.04 1354.6 L1003.04 1363.73 L1000.11 1363.73 L1000.11 1342.13 L1006.71 1342.13 Q1010.41 1342.13 1012.24 1343.68 Q1014.06 1345.23 1014.06 1348.35 Q1014.06 1350.39 1013.1 1351.74 Q1012.16 1353.08 1010.36 1353.6 M1003.04 1344.53 L1003.04 1352.2 L1006.71 1352.2 Q1008.82 1352.2 1009.89 1351.23 Q1010.98 1350.25 1010.98 1348.35 Q1010.98 1346.46 1009.89 1345.5 Q1008.82 1344.53 1006.71 1344.53 L1003.04 1344.53 Z" fill="#000000" fill-rule="evenodd" fill-opacity="1" /><path clip-path="url(#clip150)" d="M 0 0 M1032.26 1354.96 L1032.26 1356.26 L1020.02 1356.26 Q1020.19 1359.01 1021.67 1360.46 Q1023.16 1361.89 1025.81 1361.89 Q1027.34 1361.89 1028.77 1361.52 Q1030.22 1361.14 1031.64 1360.39 L1031.64 1362.9 Q1030.21 1363.51 1028.7 1363.83 Q1027.2 1364.15 1025.65 1364.15 Q1021.77 1364.15 1019.5 1361.89 Q1017.24 1359.64 1017.24 1355.79 Q1017.24 1351.81 1019.38 1349.48 Q1021.54 1347.14 1025.19 1347.14 Q1028.45 1347.14 1030.35 1349.25 Q1032.26 1351.35 1032.26 1354.96 M1029.6 1354.18 Q1029.57 1352 1028.37 1350.69 Q1027.18 1349.39 1025.21 1349.39 Q1022.99 1349.39 1021.64 1350.65 Q1020.31 1351.91 1020.11 1354.2 L1029.6 1354.18 Z" fill="#000000" fill-rule="evenodd" fill-opacity="1" /><path clip-path="url(#clip150)" d="M 0 0 M1036.64 1355.64 Q1036.64 1358.58 1037.84 1360.26 Q1039.06 1361.92 1041.17 1361.92 Q1043.28 1361.92 1044.5 1360.26 Q1045.71 1358.58 1045.71 1355.64 Q1045.71 1352.71 1044.5 1351.04 Q1043.28 1349.36 1041.17 1349.36 Q1039.06 1349.36 1037.84 1351.04 Q1036.64 1352.71 1036.64 1355.64 M1045.71 1361.3 Q1044.88 1362.75 1043.59 1363.45 Q1042.31 1364.15 1040.52 1364.15 Q1037.58 1364.15 1035.73 1361.81 Q1033.89 1359.46 1033.89 1355.64 Q1033.89 1351.82 1035.73 1349.48 Q1037.58 1347.14 1040.52 1347.14 Q1042.31 1347.14 1043.59 1347.84 Q1044.88 1348.54 1045.71 1349.99 L1045.71 1347.53 L1048.38 1347.53 L1048.38 1369.89 L1045.71 1369.89 L1045.71 1361.3 Z" fill="#000000" fill-rule="evenodd" fill-opacity="1" /><path clip-path="url(#clip150)" d="M 0 0 M1050.89 1357.33 L1050.89 1347.53 L1053.56 1347.53 L1053.56 1357.23 Q1053.56 1359.53 1054.45 1360.69 Q1055.35 1361.83 1057.14 1361.83 Q1059.3 1361.83 1060.54 1360.46 Q1061.8 1359.09 1061.8 1356.71 L1061.8 1347.53 L1064.46 1347.53 L1064.46 1363.73 L1061.8 1363.73 L1061.8 1361.24 Q1060.83 1362.72 1059.55 1363.44 Q1058.27 1364.15 1056.58 1364.15 Q1053.79 1364.15 1052.34 1362.41 Q1050.89 1360.68 1050.89 1357.33 M1057.59 1347.14 L1057.59 1347.14 Z" fill="#000000" fill-rule="evenodd" fill-opacity="1" /><path clip-path="url(#clip150)" d="M 0 0 M1081.12 1354.96 L1081.12 1356.26 L1068.88 1356.26 Q1069.05 1359.01 1070.53 1360.46 Q1072.02 1361.89 1074.66 1361.89 Q1076.2 1361.89 1077.63 1361.52 Q1079.08 1361.14 1080.49 1360.39 L1080.49 1362.9 Q1079.06 1363.51 1077.56 1363.83 Q1076.05 1364.15 1074.51 1364.15 Q1070.63 1364.15 1068.36 1361.89 Q1066.1 1359.64 1066.1 1355.79 Q1066.1 1351.81 1068.24 1349.48 Q1070.4 1347.14 1074.04 1347.14 Q1077.31 1347.14 1079.21 1349.25 Q1081.12 1351.35 1081.12 1354.96 M1078.45 1354.18 Q1078.43 1352 1077.22 1350.69 Q1076.04 1349.39 1074.07 1349.39 Q1071.84 1349.39 1070.5 1350.65 Q1069.17 1351.91 1068.96 1354.2 L1078.45 1354.18 Z" fill="#000000" fill-rule="evenodd" fill-opacity="1" /><path clip-path="url(#clip150)" d="M 0 0 M1094.24 1348 L1094.24 1350.52 Q1093.11 1349.94 1091.89 1349.65 Q1090.68 1349.36 1089.38 1349.36 Q1087.4 1349.36 1086.4 1349.97 Q1085.41 1350.58 1085.41 1351.79 Q1085.41 1352.72 1086.12 1353.26 Q1086.83 1353.78 1088.97 1354.25 L1089.88 1354.46 Q1092.72 1355.06 1093.91 1356.18 Q1095.11 1357.28 1095.11 1359.26 Q1095.11 1361.52 1093.31 1362.83 Q1091.53 1364.15 1088.41 1364.15 Q1087.11 1364.15 1085.69 1363.89 Q1084.29 1363.64 1082.72 1363.14 L1082.72 1360.39 Q1084.2 1361.15 1085.63 1361.54 Q1087.06 1361.92 1088.47 1361.92 Q1090.35 1361.92 1091.36 1361.28 Q1092.37 1360.63 1092.37 1359.46 Q1092.37 1358.38 1091.63 1357.8 Q1090.91 1357.22 1088.44 1356.68 L1087.51 1356.47 Q1085.04 1355.95 1083.94 1354.88 Q1082.84 1353.79 1082.84 1351.91 Q1082.84 1349.62 1084.46 1348.38 Q1086.08 1347.14 1089.06 1347.14 Q1090.54 1347.14 1091.84 1347.35 Q1093.14 1347.57 1094.24 1348 Z" fill="#000000" fill-rule="evenodd" fill-opacity="1" /><path clip-path="url(#clip150)" d="M 0 0 M1100.53 1342.93 L1100.53 1347.53 L1106.02 1347.53 L1106.02 1349.59 L1100.53 1349.59 L1100.53 1358.39 Q1100.53 1360.37 1101.07 1360.94 Q1101.62 1361.5 1103.28 1361.5 L1106.02 1361.5 L1106.02 1363.73 L1103.28 1363.73 Q1100.2 1363.73 1099.03 1362.59 Q1097.86 1361.43 1097.86 1358.39 L1097.86 1349.59 L1095.9 1349.59 L1095.9 1347.53 L1097.86 1347.53 L1097.86 1342.93 L1100.53 1342.93 Z" fill="#000000" fill-rule="evenodd" fill-opacity="1" /><path clip-path="url(#clip150)" d="M 0 0 M1119.14 1348 L1119.14 1350.52 Q1118.01 1349.94 1116.79 1349.65 Q1115.58 1349.36 1114.28 1349.36 Q1112.29 1349.36 1111.3 1349.97 Q1110.31 1350.58 1110.31 1351.79 Q1110.31 1352.72 1111.02 1353.26 Q1111.73 1353.78 1113.87 1354.25 L1114.78 1354.46 Q1117.62 1355.06 1118.8 1356.18 Q1120.01 1357.28 1120.01 1359.26 Q1120.01 1361.52 1118.21 1362.83 Q1116.43 1364.15 1113.31 1364.15 Q1112 1364.15 1110.59 1363.89 Q1109.18 1363.64 1107.62 1363.14 L1107.62 1360.39 Q1109.1 1361.15 1110.53 1361.54 Q1111.96 1361.92 1113.36 1361.92 Q1115.25 1361.92 1116.26 1361.28 Q1117.27 1360.63 1117.27 1359.46 Q1117.27 1358.38 1116.53 1357.8 Q1115.81 1357.22 1113.34 1356.68 L1112.41 1356.47 Q1109.94 1355.95 1108.84 1354.88 Q1107.74 1353.79 1107.74 1351.91 Q1107.74 1349.62 1109.36 1348.38 Q1110.98 1347.14 1113.96 1347.14 Q1115.43 1347.14 1116.74 1347.35 Q1118.04 1347.57 1119.14 1348 Z" fill="#000000" fill-rule="evenodd" fill-opacity="1" /><path clip-path="url(#clip150)" d="M 0 0 M1867.52 582.976 L1867.52 599.773 L1871.05 599.773 Q1875.52 599.773 1877.59 597.747 Q1879.68 595.722 1879.68 591.352 Q1879.68 587.012 1877.59 585.001 Q1875.52 582.976 1871.05 582.976 L1867.52 582.976 M1864.6 580.574 L1870.6 580.574 Q1876.88 580.574 1879.82 583.193 Q1882.76 585.797 1882.76 591.352 Q1882.76 596.937 1879.81 599.556 Q1876.85 602.174 1870.6 602.174 L1864.6 602.174 L1864.6 580.574 Z" fill="#000000" fill-rule="evenodd" fill-opacity="1" /><path clip-path="url(#clip150)" d="M 0 0 M1899.41 593.407 L1899.41 594.709 L1887.17 594.709 Q1887.34 597.458 1888.82 598.904 Q1890.31 600.337 1892.96 600.337 Q1894.49 600.337 1895.92 599.961 Q1897.37 599.584 1898.79 598.832 L1898.79 601.349 Q1897.36 601.957 1895.85 602.275 Q1894.35 602.594 1892.8 602.594 Q1888.92 602.594 1886.65 600.337 Q1884.39 598.08 1884.39 594.231 Q1884.39 590.253 1886.53 587.924 Q1888.69 585.58 1892.33 585.58 Q1895.6 585.58 1897.5 587.692 Q1899.41 589.79 1899.41 593.407 M1896.75 592.626 Q1896.72 590.441 1895.52 589.139 Q1894.33 587.837 1892.36 587.837 Q1890.14 587.837 1888.79 589.096 Q1887.46 590.354 1887.26 592.64 L1896.75 592.626 Z" fill="#000000" fill-rule="evenodd" fill-opacity="1" /><path clip-path="url(#clip150)" d="M 0 0 M1912.53 586.448 L1912.53 588.965 Q1911.4 588.387 1910.19 588.097 Q1908.97 587.808 1907.67 587.808 Q1905.69 587.808 1904.69 588.416 Q1903.71 589.023 1903.71 590.238 Q1903.71 591.164 1904.42 591.7 Q1905.12 592.22 1907.27 592.698 L1908.18 592.9 Q1911.01 593.508 1912.2 594.622 Q1913.4 595.722 1913.4 597.704 Q1913.4 599.961 1911.61 601.277 Q1909.83 602.594 1906.7 602.594 Q1905.4 602.594 1903.98 602.333 Q1902.58 602.087 1901.02 601.581 L1901.02 598.832 Q1902.49 599.599 1903.92 599.99 Q1905.36 600.366 1906.76 600.366 Q1908.64 600.366 1909.65 599.729 Q1910.67 599.078 1910.67 597.906 Q1910.67 596.821 1909.93 596.242 Q1909.2 595.664 1906.73 595.128 L1905.8 594.911 Q1903.33 594.391 1902.23 593.32 Q1901.13 592.235 1901.13 590.354 Q1901.13 588.068 1902.75 586.824 Q1904.37 585.58 1907.35 585.58 Q1908.83 585.58 1910.13 585.797 Q1911.43 586.014 1912.53 586.448 Z" fill="#000000" fill-rule="evenodd" fill-opacity="1" /><path clip-path="url(#clip150)" d="M 0 0 M1916.19 585.971 L1918.85 585.971 L1918.85 602.174 L1916.19 602.174 L1916.19 585.971 M1916.19 579.663 L1918.85 579.663 L1918.85 583.034 L1916.19 583.034 L1916.19 579.663 Z" fill="#000000" fill-rule="evenodd" fill-opacity="1" /><path clip-path="url(#clip150)" d="M 0 0 M1932.31 593.884 Q1932.31 590.991 1931.11 589.399 Q1929.92 587.808 1927.77 587.808 Q1925.62 587.808 1924.42 589.399 Q1923.24 590.991 1923.24 593.884 Q1923.24 596.763 1924.42 598.355 Q1925.62 599.946 1927.77 599.946 Q1929.92 599.946 1931.11 598.355 Q1932.31 596.763 1932.31 593.884 M1934.97 600.163 Q1934.97 604.301 1933.13 606.312 Q1931.3 608.337 1927.51 608.337 Q1926.1 608.337 1924.86 608.12 Q1923.61 607.918 1922.44 607.484 L1922.44 604.894 Q1923.61 605.531 1924.76 605.834 Q1925.9 606.138 1927.09 606.138 Q1929.7 606.138 1931.01 604.764 Q1932.31 603.404 1932.31 600.641 L1932.31 599.324 Q1931.48 600.756 1930.2 601.465 Q1928.91 602.174 1927.11 602.174 Q1924.13 602.174 1922.31 599.903 Q1920.49 597.631 1920.49 593.884 Q1920.49 590.123 1922.31 587.851 Q1924.13 585.58 1927.11 585.58 Q1928.91 585.58 1930.2 586.289 Q1931.48 586.998 1932.31 588.43 L1932.31 585.971 L1934.97 585.971 L1934.97 600.163 Z" fill="#000000" fill-rule="evenodd" fill-opacity="1" /><path clip-path="url(#clip150)" d="M 0 0 M1951.23 592.394 L1951.23 602.174 L1948.57 602.174 L1948.57 592.481 Q1948.57 590.181 1947.67 589.038 Q1946.78 587.895 1944.98 587.895 Q1942.83 587.895 1941.58 589.269 Q1940.34 590.644 1940.34 593.016 L1940.34 602.174 L1937.66 602.174 L1937.66 585.971 L1940.34 585.971 L1940.34 588.488 Q1941.29 587.027 1942.58 586.303 Q1943.88 585.58 1945.58 585.58 Q1948.37 585.58 1949.8 587.316 Q1951.23 589.038 1951.23 592.394 Z" fill="#000000" fill-rule="evenodd" fill-opacity="1" /><path clip-path="url(#clip150)" d="M 0 0 M1966.34 607.093 L1966.34 609.162 L1950.94 609.162 L1950.94 607.093 L1966.34 607.093 Z" fill="#000000" fill-rule="evenodd" fill-opacity="1" /><path clip-path="url(#clip150)" d="M 0 0 M1979.49 592.047 Q1980.43 592.365 1981.31 593.407 Q1982.21 594.448 1983.1 596.271 L1986.07 602.174 L1982.93 602.174 L1980.17 596.633 Q1979.1 594.463 1978.08 593.754 Q1977.09 593.045 1975.35 593.045 L1972.17 593.045 L1972.17 602.174 L1969.24 602.174 L1969.24 580.574 L1975.84 580.574 Q1979.55 580.574 1981.37 582.122 Q1983.19 583.67 1983.19 586.795 Q1983.19 588.835 1982.24 590.181 Q1981.3 591.526 1979.49 592.047 M1972.17 582.976 L1972.17 590.644 L1975.84 590.644 Q1977.95 590.644 1979.02 589.674 Q1980.11 588.69 1980.11 586.795 Q1980.11 584.9 1979.02 583.945 Q1977.95 582.976 1975.84 582.976 L1972.17 582.976 Z" fill="#000000" fill-rule="evenodd" fill-opacity="1" /><path clip-path="url(#clip150)" d="M 0 0 M2001.39 593.407 L2001.39 594.709 L1989.15 594.709 Q1989.33 597.458 1990.8 598.904 Q1992.29 600.337 1994.94 600.337 Q1996.47 600.337 1997.9 599.961 Q1999.35 599.584 2000.77 598.832 L2000.77 601.349 Q1999.34 601.957 1997.83 602.275 Q1996.33 602.594 1994.78 602.594 Q1990.9 602.594 1988.63 600.337 Q1986.37 598.08 1986.37 594.231 Q1986.37 590.253 1988.51 587.924 Q1990.67 585.58 1994.32 585.58 Q1997.59 585.58 1999.48 587.692 Q2001.39 589.79 2001.39 593.407 M1998.73 592.626 Q1998.7 590.441 1997.5 589.139 Q1996.31 587.837 1994.35 587.837 Q1992.12 587.837 1990.77 589.096 Q1989.44 590.354 1989.24 592.64 L1998.73 592.626 Z" fill="#000000" fill-rule="evenodd" fill-opacity="1" /><path clip-path="url(#clip150)" d="M 0 0 M2011.55 594.029 Q2008.32 594.029 2007.08 594.767 Q2005.83 595.505 2005.83 597.284 Q2005.83 598.702 2006.76 599.541 Q2007.7 600.366 2009.3 600.366 Q2011.52 600.366 2012.85 598.803 Q2014.19 597.226 2014.19 594.622 L2014.19 594.029 L2011.55 594.029 M2016.86 592.929 L2016.86 602.174 L2014.19 602.174 L2014.19 599.715 Q2013.28 601.19 2011.92 601.899 Q2010.56 602.594 2008.6 602.594 Q2006.11 602.594 2004.63 601.205 Q2003.17 599.801 2003.17 597.458 Q2003.17 594.723 2004.99 593.334 Q2006.83 591.946 2010.46 591.946 L2014.19 591.946 L2014.19 591.685 Q2014.19 589.848 2012.98 588.85 Q2011.78 587.837 2009.59 587.837 Q2008.21 587.837 2006.89 588.17 Q2005.57 588.502 2004.36 589.168 L2004.36 586.708 Q2005.82 586.144 2007.19 585.869 Q2008.57 585.58 2009.87 585.58 Q2013.38 585.58 2015.12 587.403 Q2016.86 589.226 2016.86 592.929 Z" fill="#000000" fill-rule="evenodd" fill-opacity="1" /><path clip-path="url(#clip150)" d="M 0 0 M2029.98 586.448 L2029.98 588.965 Q2028.85 588.387 2027.64 588.097 Q2026.42 587.808 2025.12 587.808 Q2023.14 587.808 2022.14 588.416 Q2021.15 589.023 2021.15 590.238 Q2021.15 591.164 2021.86 591.7 Q2022.57 592.22 2024.71 592.698 L2025.62 592.9 Q2028.46 593.508 2029.65 594.622 Q2030.85 595.722 2030.85 597.704 Q2030.85 599.961 2029.05 601.277 Q2027.27 602.594 2024.15 602.594 Q2022.85 602.594 2021.43 602.333 Q2020.03 602.087 2018.46 601.581 L2018.46 598.832 Q2019.94 599.599 2021.37 599.99 Q2022.8 600.366 2024.21 600.366 Q2026.09 600.366 2027.1 599.729 Q2028.11 599.078 2028.11 597.906 Q2028.11 596.821 2027.37 596.242 Q2026.65 595.664 2024.18 595.128 L2023.25 594.911 Q2020.78 594.391 2019.68 593.32 Q2018.58 592.235 2018.58 590.354 Q2018.58 588.068 2020.2 586.824 Q2021.82 585.58 2024.8 585.58 Q2026.28 585.58 2027.58 585.797 Q2028.88 586.014 2029.98 586.448 Z" fill="#000000" fill-rule="evenodd" fill-opacity="1" /><path clip-path="url(#clip150)" d="M 0 0 M2039.92 587.837 Q2037.78 587.837 2036.53 589.515 Q2035.29 591.179 2035.29 594.087 Q2035.29 596.995 2036.52 598.673 Q2037.76 600.337 2039.92 600.337 Q2042.04 600.337 2043.29 598.659 Q2044.53 596.98 2044.53 594.087 Q2044.53 591.208 2043.29 589.53 Q2042.04 587.837 2039.92 587.837 M2039.92 585.58 Q2043.39 585.58 2045.37 587.837 Q2047.35 590.094 2047.35 594.087 Q2047.35 598.065 2045.37 600.337 Q2043.39 602.594 2039.92 602.594 Q2036.43 602.594 2034.45 600.337 Q2032.48 598.065 2032.48 594.087 Q2032.48 590.094 2034.45 587.837 Q2036.43 585.58 2039.92 585.58 Z" fill="#000000" fill-rule="evenodd" fill-opacity="1" /><path clip-path="url(#clip150)" d="M 0 0 M2063.62 592.394 L2063.62 602.174 L2060.95 602.174 L2060.95 592.481 Q2060.95 590.181 2060.06 589.038 Q2059.16 587.895 2057.37 587.895 Q2055.21 587.895 2053.97 589.269 Q2052.72 590.644 2052.72 593.016 L2052.72 602.174 L2050.05 602.174 L2050.05 585.971 L2052.72 585.971 L2052.72 588.488 Q2053.68 587.027 2054.96 586.303 Q2056.27 585.58 2057.96 585.58 Q2060.75 585.58 2062.18 587.316 Q2063.62 589.038 2063.62 592.394 Z" fill="#000000" fill-rule="evenodd" fill-opacity="1" /><path clip-path="url(#clip150)" d="M 0 0 M2066.41 585.971 L2069.07 585.971 L2069.07 602.174 L2066.41 602.174 L2066.41 585.971 M2066.41 579.663 L2069.07 579.663 L2069.07 583.034 L2066.41 583.034 L2066.41 579.663 Z" fill="#000000" fill-rule="evenodd" fill-opacity="1" /><path clip-path="url(#clip150)" d="M 0 0 M2085.33 592.394 L2085.33 602.174 L2082.67 602.174 L2082.67 592.481 Q2082.67 590.181 2081.77 589.038 Q2080.88 587.895 2079.08 587.895 Q2076.93 587.895 2075.68 589.269 Q2074.44 590.644 2074.44 593.016 L2074.44 602.174 L2071.76 602.174 L2071.76 585.971 L2074.44 585.971 L2074.44 588.488 Q2075.39 587.027 2076.68 586.303 Q2077.98 585.58 2079.67 585.58 Q2082.47 585.58 2083.9 587.316 Q2085.33 589.038 2085.33 592.394 Z" fill="#000000" fill-rule="evenodd" fill-opacity="1" /><path clip-path="url(#clip150)" d="M 0 0 M2098.79 593.884 Q2098.79 590.991 2097.59 589.399 Q2096.4 587.808 2094.24 587.808 Q2092.1 587.808 2090.9 589.399 Q2089.72 590.991 2089.72 593.884 Q2089.72 596.763 2090.9 598.355 Q2092.1 599.946 2094.24 599.946 Q2096.4 599.946 2097.59 598.355 Q2098.79 596.763 2098.79 593.884 M2101.45 600.163 Q2101.45 604.301 2099.61 606.312 Q2097.77 608.337 2093.98 608.337 Q2092.58 608.337 2091.34 608.12 Q2090.09 607.918 2088.92 607.484 L2088.92 604.894 Q2090.09 605.531 2091.23 605.834 Q2092.38 606.138 2093.56 606.138 Q2096.18 606.138 2097.48 604.764 Q2098.79 603.404 2098.79 600.641 L2098.79 599.324 Q2097.96 600.756 2096.67 601.465 Q2095.39 602.174 2093.59 602.174 Q2090.61 602.174 2088.79 599.903 Q2086.97 597.631 2086.97 593.884 Q2086.97 590.123 2088.79 587.851 Q2090.61 585.58 2093.59 585.58 Q2095.39 585.58 2096.67 586.289 Q2097.96 586.998 2098.79 588.43 L2098.79 585.971 L2101.45 585.971 L2101.45 600.163 Z" fill="#000000" fill-rule="evenodd" fill-opacity="1" /><path clip-path="url(#clip150)" d="M 0 0 M-612.966 1992.57 L-612.966 1995.65 Q-614.441 1994.28 -616.12 1993.6 Q-617.783 1992.92 -619.664 1992.92 Q-623.368 1992.92 -625.335 1995.19 Q-627.303 1997.45 -627.303 2001.73 Q-627.303 2006 -625.335 2008.27 Q-623.368 2010.52 -619.664 2010.52 Q-617.783 2010.52 -616.12 2009.84 Q-614.441 2009.16 -612.966 2007.79 L-612.966 2010.84 Q-614.499 2011.88 -616.221 2012.4 Q-617.928 2012.93 -619.838 2012.93 Q-624.742 2012.93 -627.563 2009.93 Q-630.384 2006.92 -630.384 2001.73 Q-630.384 1996.52 -627.563 1993.52 Q-624.742 1990.52 -619.838 1990.52 Q-617.899 1990.52 -616.192 1991.04 Q-614.47 1991.54 -612.966 1992.57 Z" fill="#000000" fill-rule="evenodd" fill-opacity="1" /><path clip-path="url(#clip150)" d="M 0 0 M-603.894 1998.17 Q-606.036 1998.17 -607.28 1999.85 Q-608.524 2001.51 -608.524 2004.42 Q-608.524 2007.33 -607.294 2009 Q-606.05 2010.67 -603.894 2010.67 Q-601.768 2010.67 -600.524 2008.99 Q-599.279 2007.31 -599.279 2004.42 Q-599.279 2001.54 -600.524 1999.86 Q-601.768 1998.17 -603.894 1998.17 M-603.894 1995.91 Q-600.422 1995.91 -598.44 1998.17 Q-596.458 2000.43 -596.458 2004.42 Q-596.458 2008.4 -598.44 2010.67 Q-600.422 2012.93 -603.894 2012.93 Q-607.381 2012.93 -609.363 2010.67 Q-611.331 2008.4 -611.331 2004.42 Q-611.331 2000.43 -609.363 1998.17 Q-607.381 1995.91 -603.894 1995.91 Z" fill="#000000" fill-rule="evenodd" fill-opacity="1" /><path clip-path="url(#clip150)" d="M 0 0 M-593.666 1989.99 L-591.004 1989.99 L-591.004 2012.51 L-593.666 2012.51 L-593.666 1989.99 Z" fill="#000000" fill-rule="evenodd" fill-opacity="1" /><path clip-path="url(#clip150)" d="M 0 0 M-588.212 1989.99 L-585.55 1989.99 L-585.55 2012.51 L-588.212 2012.51 L-588.212 1989.99 Z" fill="#000000" fill-rule="evenodd" fill-opacity="1" /><path clip-path="url(#clip150)" d="M 0 0 M-575.393 2004.36 Q-578.62 2004.36 -579.864 2005.1 Q-581.108 2005.84 -581.108 2007.62 Q-581.108 2009.03 -580.182 2009.87 Q-579.242 2010.7 -577.636 2010.7 Q-575.422 2010.7 -574.091 2009.13 Q-572.746 2007.56 -572.746 2004.95 L-572.746 2004.36 L-575.393 2004.36 M-570.084 2003.26 L-570.084 2012.51 L-572.746 2012.51 L-572.746 2010.05 Q-573.657 2011.52 -575.017 2012.23 Q-576.377 2012.93 -578.345 2012.93 Q-580.833 2012.93 -582.309 2011.54 Q-583.77 2010.13 -583.77 2007.79 Q-583.77 2005.06 -581.947 2003.67 Q-580.11 2002.28 -576.479 2002.28 L-572.746 2002.28 L-572.746 2002.02 Q-572.746 2000.18 -573.961 1999.18 Q-575.162 1998.17 -577.347 1998.17 Q-578.735 1998.17 -580.052 1998.5 Q-581.369 1998.83 -582.584 1999.5 L-582.584 1997.04 Q-581.123 1996.48 -579.748 1996.2 Q-578.374 1995.91 -577.072 1995.91 Q-573.556 1995.91 -571.82 1997.73 Q-570.084 1999.56 -570.084 2003.26 Z" fill="#000000" fill-rule="evenodd" fill-opacity="1" /><path clip-path="url(#clip150)" d="M 0 0 M-555.66 2004.42 Q-555.66 2001.48 -556.875 1999.82 Q-558.076 1998.14 -560.188 1998.14 Q-562.3 1998.14 -563.516 1999.82 Q-564.716 2001.48 -564.716 2004.42 Q-564.716 2007.36 -563.516 2009.03 Q-562.3 2010.7 -560.188 2010.7 Q-558.076 2010.7 -556.875 2009.03 Q-555.66 2007.36 -555.66 2004.42 M-564.716 1998.76 Q-563.877 1997.32 -562.604 1996.62 Q-561.317 1995.91 -559.537 1995.91 Q-556.586 1995.91 -554.748 1998.26 Q-552.896 2000.6 -552.896 2004.42 Q-552.896 2008.24 -554.748 2010.58 Q-556.586 2012.93 -559.537 2012.93 Q-561.317 2012.93 -562.604 2012.23 Q-563.877 2011.52 -564.716 2010.08 L-564.716 2012.51 L-567.393 2012.51 L-567.393 1989.99 L-564.716 1989.99 L-564.716 1998.76 Z" fill="#000000" fill-rule="evenodd" fill-opacity="1" /><path clip-path="url(#clip150)" d="M 0 0 M-543.825 1998.17 Q-545.967 1998.17 -547.211 1999.85 Q-548.455 2001.51 -548.455 2004.42 Q-548.455 2007.33 -547.225 2009 Q-545.981 2010.67 -543.825 2010.67 Q-541.699 2010.67 -540.454 2008.99 Q-539.21 2007.31 -539.21 2004.42 Q-539.21 2001.54 -540.454 1999.86 Q-541.699 1998.17 -543.825 1998.17 M-543.825 1995.91 Q-540.353 1995.91 -538.371 1998.17 Q-536.389 2000.43 -536.389 2004.42 Q-536.389 2008.4 -538.371 2010.67 Q-540.353 2012.93 -543.825 2012.93 Q-547.312 2012.93 -549.294 2010.67 Q-551.262 2008.4 -551.262 2004.42 Q-551.262 2000.43 -549.294 1998.17 Q-547.312 1995.91 -543.825 1995.91 Z" fill="#000000" fill-rule="evenodd" fill-opacity="1" /><path clip-path="url(#clip150)" d="M 0 0 M-524.207 1998.79 Q-524.656 1998.53 -525.191 1998.41 Q-525.712 1998.28 -526.349 1998.28 Q-528.606 1998.28 -529.821 1999.76 Q-531.022 2001.22 -531.022 2003.97 L-531.022 2012.51 L-533.698 2012.51 L-533.698 1996.3 L-531.022 1996.3 L-531.022 1998.82 Q-530.182 1997.34 -528.837 1996.64 Q-527.492 1995.91 -525.567 1995.91 Q-525.292 1995.91 -524.96 1995.96 Q-524.627 1995.98 -524.222 1996.06 L-524.207 1998.79 Z" fill="#000000" fill-rule="evenodd" fill-opacity="1" /><path clip-path="url(#clip150)" d="M 0 0 M-514.051 2004.36 Q-517.277 2004.36 -518.522 2005.1 Q-519.766 2005.84 -519.766 2007.62 Q-519.766 2009.03 -518.84 2009.87 Q-517.9 2010.7 -516.294 2010.7 Q-514.08 2010.7 -512.749 2009.13 Q-511.404 2007.56 -511.404 2004.95 L-511.404 2004.36 L-514.051 2004.36 M-508.742 2003.26 L-508.742 2012.51 L-511.404 2012.51 L-511.404 2010.05 Q-512.315 2011.52 -513.675 2012.23 Q-515.035 2012.93 -517.003 2012.93 Q-519.491 2012.93 -520.967 2011.54 Q-522.428 2010.13 -522.428 2007.79 Q-522.428 2005.06 -520.605 2003.67 Q-518.768 2002.28 -515.136 2002.28 L-511.404 2002.28 L-511.404 2002.02 Q-511.404 2000.18 -512.619 1999.18 Q-513.82 1998.17 -516.004 1998.17 Q-517.393 1998.17 -518.71 1998.5 Q-520.026 1998.83 -521.242 1999.5 L-521.242 1997.04 Q-519.78 1996.48 -518.406 1996.2 Q-517.031 1995.91 -515.729 1995.91 Q-512.214 1995.91 -510.478 1997.73 Q-508.742 1999.56 -508.742 2003.26 Z" fill="#000000" fill-rule="evenodd" fill-opacity="1" /><path clip-path="url(#clip150)" d="M 0 0 M-503.316 1991.7 L-503.316 1996.3 L-497.833 1996.3 L-497.833 1998.37 L-503.316 1998.37 L-503.316 2007.17 Q-503.316 2009.15 -502.781 2009.71 Q-502.231 2010.28 -500.567 2010.28 L-497.833 2010.28 L-497.833 2012.51 L-500.567 2012.51 Q-503.649 2012.51 -504.821 2011.36 Q-505.993 2010.21 -505.993 2007.17 L-505.993 1998.37 L-507.946 1998.37 L-507.946 1996.3 L-505.993 1996.3 L-505.993 1991.7 L-503.316 1991.7 Z" fill="#000000" fill-rule="evenodd" fill-opacity="1" /><path clip-path="url(#clip150)" d="M 0 0 M-495.041 1996.3 L-492.379 1996.3 L-492.379 2012.51 L-495.041 2012.51 L-495.041 1996.3 M-495.041 1989.99 L-492.379 1989.99 L-492.379 1993.37 L-495.041 1993.37 L-495.041 1989.99 Z" fill="#000000" fill-rule="evenodd" fill-opacity="1" /><path clip-path="url(#clip150)" d="M 0 0 M-483.308 1998.17 Q-485.449 1998.17 -486.693 1999.85 Q-487.937 2001.51 -487.937 2004.42 Q-487.937 2007.33 -486.708 2009 Q-485.463 2010.67 -483.308 2010.67 Q-481.181 2010.67 -479.937 2008.99 Q-478.693 2007.31 -478.693 2004.42 Q-478.693 2001.54 -479.937 1999.86 Q-481.181 1998.17 -483.308 1998.17 M-483.308 1995.91 Q-479.836 1995.91 -477.853 1998.17 Q-475.871 2000.43 -475.871 2004.42 Q-475.871 2008.4 -477.853 2010.67 Q-479.836 2012.93 -483.308 2012.93 Q-486.794 2012.93 -488.776 2010.67 Q-490.744 2008.4 -490.744 2004.42 Q-490.744 2000.43 -488.776 1998.17 Q-486.794 1995.91 -483.308 1995.91 Z" fill="#000000" fill-rule="evenodd" fill-opacity="1" /><path clip-path="url(#clip150)" d="M 0 0 M-459.61 2002.73 L-459.61 2012.51 L-462.272 2012.51 L-462.272 2002.81 Q-462.272 2000.51 -463.169 1999.37 Q-464.066 1998.23 -465.86 1998.23 Q-468.016 1998.23 -469.26 1999.6 Q-470.504 2000.98 -470.504 2003.35 L-470.504 2012.51 L-473.18 2012.51 L-473.18 1996.3 L-470.504 1996.3 L-470.504 1998.82 Q-469.549 1997.36 -468.262 1996.64 Q-466.959 1995.91 -465.267 1995.91 Q-462.474 1995.91 -461.042 1997.65 Q-459.61 1999.37 -459.61 2002.73 Z" fill="#000000" fill-rule="evenodd" fill-opacity="1" /><path clip-path="url(#clip152)" d="M952.269 971.718 L952.269 1003.72 L984.269 1003.72 L984.269 971.718 L952.269 971.718 Z" fill="#0000ff" fill-rule="evenodd" fill-opacity="1" stroke="none"/>
<polyline clip-path="url(#clip152)" style="stroke:#0000ff; stroke-width:4; stroke-opacity:1; fill:none" stroke-dasharray="16, 10" points="
  911.027,1059.86 1025.51,1059.86 
  "/>
<polyline clip-path="url(#clip152)" style="stroke:#0000ff; stroke-width:4; stroke-opacity:1; fill:none" stroke-dasharray="16, 10" points="
  911.027,915.578 1025.51,915.578 
  "/>
<polyline clip-path="url(#clip152)" style="stroke:#0000ff; stroke-width:4; stroke-opacity:1; fill:none" stroke-dasharray="16, 10" points="
  911.027,1059.86 911.027,915.578 
  "/>
<polyline clip-path="url(#clip152)" style="stroke:#0000ff; stroke-width:4; stroke-opacity:1; fill:none" stroke-dasharray="16, 10" points="
  1025.51,1059.86 1025.51,915.578 
  "/>
<path clip-path="url(#clip152)" d="M927.926 944.786 L927.926 976.786 L959.926 976.786 L959.926 944.786 L927.926 944.786 Z" fill="#800080" fill-rule="evenodd" fill-opacity="1" stroke="none"/>
<polyline clip-path="url(#clip152)" style="stroke:#800080; stroke-width:4; stroke-opacity:1; fill:none" stroke-dasharray="16, 10" points="
  887.07,1009.92 1000.78,1009.92 
  "/>
<polyline clip-path="url(#clip152)" style="stroke:#800080; stroke-width:4; stroke-opacity:1; fill:none" stroke-dasharray="16, 10" points="
  887.07,911.651 1000.78,911.651 
  "/>
<polyline clip-path="url(#clip152)" style="stroke:#800080; stroke-width:4; stroke-opacity:1; fill:none" stroke-dasharray="16, 10" points="
  887.07,1009.92 887.07,911.651 
  "/>
<polyline clip-path="url(#clip152)" style="stroke:#800080; stroke-width:4; stroke-opacity:1; fill:none" stroke-dasharray="16, 10" points="
  1000.78,1009.92 1000.78,911.651 
  "/>
<path clip-path="url(#clip152)" d="M1087.42 855.859 L1087.42 887.859 L1119.42 887.859 L1119.42 855.859 L1087.42 855.859 Z" fill="#008000" fill-rule="evenodd" fill-opacity="1" stroke="none"/>
<polyline clip-path="url(#clip152)" style="stroke:#008000; stroke-width:4; stroke-opacity:1; fill:none" stroke-dasharray="16, 10" points="
  1065.43,916.708 1141.4,916.708 
  "/>
<polyline clip-path="url(#clip152)" style="stroke:#008000; stroke-width:4; stroke-opacity:1; fill:none" stroke-dasharray="16, 10" points="
  1065.43,827.009 1141.4,827.009 
  "/>
<polyline clip-path="url(#clip152)" style="stroke:#008000; stroke-width:4; stroke-opacity:1; fill:none" stroke-dasharray="16, 10" points="
  1065.43,916.708 1065.43,827.009 
  "/>
<polyline clip-path="url(#clip152)" style="stroke:#008000; stroke-width:4; stroke-opacity:1; fill:none" stroke-dasharray="16, 10" points="
  1141.4,916.708 1141.4,827.009 
  "/>
<path clip-path="url(#clip152)" d="M1096.71 1060.65 L1096.71 1092.65 L1128.71 1092.65 L1128.71 1060.65 L1096.71 1060.65 Z" fill="#ffa500" fill-rule="evenodd" fill-opacity="1" stroke="none"/>
<polyline clip-path="url(#clip152)" style="stroke:#ffa500; stroke-width:4; stroke-opacity:1; fill:none" stroke-dasharray="16, 10" points="
  1051.1,1138.95 1174.32,1138.95 
  "/>
<polyline clip-path="url(#clip152)" style="stroke:#ffa500; stroke-width:4; stroke-opacity:1; fill:none" stroke-dasharray="16, 10" points="
  1051.1,1014.34 1174.32,1014.34 
  "/>
<polyline clip-path="url(#clip152)" style="stroke:#ffa500; stroke-width:4; stroke-opacity:1; fill:none" stroke-dasharray="16, 10" points="
  1051.1,1138.95 1051.1,1014.34 
  "/>
<polyline clip-path="url(#clip152)" style="stroke:#ffa500; stroke-width:4; stroke-opacity:1; fill:none" stroke-dasharray="16, 10" points="
  1174.32,1138.95 1174.32,1014.34 
  "/>
</svg>
