<?xml version="1.0" encoding="utf-8"?>
<svg xmlns="http://www.w3.org/2000/svg" xmlns:xlink="http://www.w3.org/1999/xlink" width="600" height="400" viewBox="0 0 2400 1600">
<defs>
  <clipPath id="clip520">
    <rect x="0" y="0" width="2400" height="1600"/>
  </clipPath>
</defs>
<path clip-path="url(#clip520)" d="
M0 1600 L2400 1600 L2400 0 L0 0  Z
  " fill="#ffffff" fill-rule="evenodd" fill-opacity="1"/>
<defs>
  <clipPath id="clip521">
    <rect x="480" y="0" width="1681" height="1600"/>
  </clipPath>
</defs>
<path clip-path="url(#clip520)" d="
M86.9921 1521.01 L2352.76 1521.01 L2352.76 47.2441 L86.9921 47.2441  Z
  " fill="#ffffff" fill-rule="evenodd" fill-opacity="1"/>
<defs>
  <clipPath id="clip522">
    <rect x="86" y="47" width="2267" height="1475"/>
  </clipPath>
</defs>
<polyline clip-path="url(#clip522)" style="stroke:#000000; stroke-width:2; stroke-opacity:0.1; fill:none" points="
  1416.7,1521.01 1416.7,47.2441 
  "/>
<polyline clip-path="url(#clip522)" style="stroke:#000000; stroke-width:2; stroke-opacity:0.1; fill:none" points="
  86.9921,1021.54 2352.76,1021.54 
  "/>
<polyline clip-path="url(#clip520)" style="stroke:#000000; stroke-width:4; stroke-opacity:1; fill:none" points="
  86.9921,1521.01 2352.76,1521.01 
  "/>
<polyline clip-path="url(#clip520)" style="stroke:#000000; stroke-width:4; stroke-opacity:1; fill:none" points="
  86.9921,1521.01 86.9921,47.2441 
  "/>
<polyline clip-path="url(#clip520)" style="stroke:#000000; stroke-width:4; stroke-opacity:1; fill:none" points="
  1416.7,1521.01 1416.7,1503.32 
  "/>
<polyline clip-path="url(#clip520)" style="stroke:#000000; stroke-width:4; stroke-opacity:1; fill:none" points="
  86.9921,1021.54 114.181,1021.54 
  "/>
<path clip-path="url(#clip520)" d="M 0 0 M1416.7 1543 Q1413.09 1543 1411.26 1546.56 Q1409.45 1550.11 1409.45 1557.23 Q1409.45 1564.34 1411.26 1567.91 Q1413.09 1571.45 1416.7 1571.45 Q1420.33 1571.45 1422.14 1567.91 Q1423.97 1564.34 1423.97 1557.23 Q1423.97 1550.11 1422.14 1546.56 Q1420.33 1543 1416.7 1543 M1416.7 1539.29 Q1422.51 1539.29 1425.56 1543.9 Q1428.64 1548.48 1428.64 1557.23 Q1428.64 1565.96 1425.56 1570.57 Q1422.51 1575.15 1416.7 1575.15 Q1410.89 1575.15 1407.81 1570.57 Q1404.75 1565.96 1404.75 1557.23 Q1404.75 1548.48 1407.81 1543.9 Q1410.89 1539.29 1416.7 1539.29 Z" fill="#000000" fill-rule="evenodd" fill-opacity="1" /><path clip-path="url(#clip520)" d="M 0 0 M51.0477 1007.34 Q47.4367 1007.34 45.608 1010.9 Q43.8024 1014.44 43.8024 1021.57 Q43.8024 1028.68 45.608 1032.25 Q47.4367 1035.79 51.0477 1035.79 Q54.682 1035.79 56.4875 1032.25 Q58.3162 1028.68 58.3162 1021.57 Q58.3162 1014.44 56.4875 1010.9 Q54.682 1007.34 51.0477 1007.34 M51.0477 1003.63 Q56.8579 1003.63 59.9134 1008.24 Q62.9921 1012.82 62.9921 1021.57 Q62.9921 1030.3 59.9134 1034.91 Q56.8579 1039.49 51.0477 1039.49 Q45.2376 1039.49 42.1589 1034.91 Q39.1034 1030.3 39.1034 1021.57 Q39.1034 1012.82 42.1589 1008.24 Q45.2376 1003.63 51.0477 1003.63 Z" fill="#000000" fill-rule="evenodd" fill-opacity="1" /><circle clip-path="url(#clip522)" cx="1428.76" cy="1209.7" r="14" fill="#808080" fill-rule="evenodd" fill-opacity="1" stroke="none"/>
<circle clip-path="url(#clip522)" cx="1369.55" cy="1224.65" r="14" fill="#808080" fill-rule="evenodd" fill-opacity="1" stroke="none"/>
<circle clip-path="url(#clip522)" cx="1376.23" cy="1155.89" r="14" fill="#808080" fill-rule="evenodd" fill-opacity="1" stroke="none"/>
<circle clip-path="url(#clip522)" cx="1401.56" cy="1221.58" r="14" fill="#808080" fill-rule="evenodd" fill-opacity="1" stroke="none"/>
<circle clip-path="url(#clip522)" cx="1358.97" cy="1139.4" r="14" fill="#808080" fill-rule="evenodd" fill-opacity="1" stroke="none"/>
<circle clip-path="url(#clip522)" cx="1017.47" cy="772.703" r="14" fill="#808080" fill-rule="evenodd" fill-opacity="1" stroke="none"/>
<circle clip-path="url(#clip522)" cx="1349.33" cy="1168.92" r="14" fill="#808080" fill-rule="evenodd" fill-opacity="1" stroke="none"/>
<circle clip-path="url(#clip522)" cx="1424.06" cy="1156.64" r="14" fill="#808080" fill-rule="evenodd" fill-opacity="1" stroke="none"/>
<circle clip-path="url(#clip522)" cx="1391.48" cy="1179.62" r="14" fill="#808080" fill-rule="evenodd" fill-opacity="1" stroke="none"/>
<circle clip-path="url(#clip522)" cx="1256.51" cy="670.754" r="14" fill="#808080" fill-rule="evenodd" fill-opacity="1" stroke="none"/>
<circle clip-path="url(#clip522)" cx="1445.54" cy="1197.17" r="14" fill="#808080" fill-rule="evenodd" fill-opacity="1" stroke="none"/>
<circle clip-path="url(#clip522)" cx="1335.77" cy="1207.78" r="14" fill="#808080" fill-rule="evenodd" fill-opacity="1" stroke="none"/>
<circle clip-path="url(#clip522)" cx="1408.27" cy="1206.36" r="14" fill="#808080" fill-rule="evenodd" fill-opacity="1" stroke="none"/>
<circle clip-path="url(#clip522)" cx="1383.79" cy="1191.58" r="14" fill="#808080" fill-rule="evenodd" fill-opacity="1" stroke="none"/>
<circle clip-path="url(#clip522)" cx="1325.78" cy="1200.81" r="14" fill="#808080" fill-rule="evenodd" fill-opacity="1" stroke="none"/>
<circle clip-path="url(#clip522)" cx="1372.71" cy="1152.28" r="14" fill="#808080" fill-rule="evenodd" fill-opacity="1" stroke="none"/>
<circle clip-path="url(#clip522)" cx="1369.64" cy="1184.05" r="14" fill="#808080" fill-rule="evenodd" fill-opacity="1" stroke="none"/>
<circle clip-path="url(#clip522)" cx="1396.72" cy="1213.07" r="14" fill="#808080" fill-rule="evenodd" fill-opacity="1" stroke="none"/>
<circle clip-path="url(#clip522)" cx="1278.36" cy="901.466" r="14" fill="#808080" fill-rule="evenodd" fill-opacity="1" stroke="none"/>
<circle clip-path="url(#clip522)" cx="1542.41" cy="1178.6" r="14" fill="#808080" fill-rule="evenodd" fill-opacity="1" stroke="none"/>
<circle clip-path="url(#clip522)" cx="1535.71" cy="1144.9" r="14" fill="#808080" fill-rule="evenodd" fill-opacity="1" stroke="none"/>
<circle clip-path="url(#clip522)" cx="1532.41" cy="1190.85" r="14" fill="#808080" fill-rule="evenodd" fill-opacity="1" stroke="none"/>
<circle clip-path="url(#clip522)" cx="1494.17" cy="1149.99" r="14" fill="#808080" fill-rule="evenodd" fill-opacity="1" stroke="none"/>
<circle clip-path="url(#clip522)" cx="1502.59" cy="1164.81" r="14" fill="#808080" fill-rule="evenodd" fill-opacity="1" stroke="none"/>
<circle clip-path="url(#clip522)" cx="1319.26" cy="1223.29" r="14" fill="#808080" fill-rule="evenodd" fill-opacity="1" stroke="none"/>
<circle clip-path="url(#clip522)" cx="1373.84" cy="1228.66" r="14" fill="#808080" fill-rule="evenodd" fill-opacity="1" stroke="none"/>
<circle clip-path="url(#clip522)" cx="1207.26" cy="1098.23" r="14" fill="#808080" fill-rule="evenodd" fill-opacity="1" stroke="none"/>
<circle clip-path="url(#clip522)" cx="1379.23" cy="1181.45" r="14" fill="#808080" fill-rule="evenodd" fill-opacity="1" stroke="none"/>
<circle clip-path="url(#clip522)" cx="1400.41" cy="1221.66" r="14" fill="#808080" fill-rule="evenodd" fill-opacity="1" stroke="none"/>
<circle clip-path="url(#clip522)" cx="1447.72" cy="1166" r="14" fill="#808080" fill-rule="evenodd" fill-opacity="1" stroke="none"/>
<circle clip-path="url(#clip522)" cx="1348.47" cy="1209.92" r="14" fill="#808080" fill-rule="evenodd" fill-opacity="1" stroke="none"/>
<circle clip-path="url(#clip522)" cx="1409.15" cy="1189.6" r="14" fill="#808080" fill-rule="evenodd" fill-opacity="1" stroke="none"/>
<circle clip-path="url(#clip522)" cx="1339.71" cy="1202.84" r="14" fill="#808080" fill-rule="evenodd" fill-opacity="1" stroke="none"/>
<circle clip-path="url(#clip522)" cx="1294.02" cy="1184.55" r="14" fill="#808080" fill-rule="evenodd" fill-opacity="1" stroke="none"/>
<circle clip-path="url(#clip522)" cx="1517.91" cy="1190.16" r="14" fill="#808080" fill-rule="evenodd" fill-opacity="1" stroke="none"/>
<circle clip-path="url(#clip522)" cx="1411.22" cy="1184.77" r="14" fill="#808080" fill-rule="evenodd" fill-opacity="1" stroke="none"/>
<circle clip-path="url(#clip522)" cx="1492.51" cy="1197.43" r="14" fill="#808080" fill-rule="evenodd" fill-opacity="1" stroke="none"/>
<circle clip-path="url(#clip522)" cx="1611.88" cy="1154.59" r="14" fill="#808080" fill-rule="evenodd" fill-opacity="1" stroke="none"/>
<circle clip-path="url(#clip522)" cx="1372.05" cy="1193.49" r="14" fill="#808080" fill-rule="evenodd" fill-opacity="1" stroke="none"/>
<circle clip-path="url(#clip522)" cx="1574.93" cy="1183.46" r="14" fill="#808080" fill-rule="evenodd" fill-opacity="1" stroke="none"/>
<circle clip-path="url(#clip522)" cx="1300.83" cy="1176.66" r="14" fill="#808080" fill-rule="evenodd" fill-opacity="1" stroke="none"/>
<circle clip-path="url(#clip522)" cx="1335.89" cy="1181.9" r="14" fill="#808080" fill-rule="evenodd" fill-opacity="1" stroke="none"/>
<circle clip-path="url(#clip522)" cx="1217.09" cy="1186.3" r="14" fill="#808080" fill-rule="evenodd" fill-opacity="1" stroke="none"/>
<circle clip-path="url(#clip522)" cx="1123.38" cy="1141.88" r="14" fill="#808080" fill-rule="evenodd" fill-opacity="1" stroke="none"/>
<circle clip-path="url(#clip522)" cx="1081.86" cy="1031.63" r="14" fill="#808080" fill-rule="evenodd" fill-opacity="1" stroke="none"/>
<circle clip-path="url(#clip522)" cx="1337.82" cy="1220.19" r="14" fill="#808080" fill-rule="evenodd" fill-opacity="1" stroke="none"/>
<circle clip-path="url(#clip522)" cx="1288.39" cy="1209.48" r="14" fill="#808080" fill-rule="evenodd" fill-opacity="1" stroke="none"/>
<circle clip-path="url(#clip522)" cx="1313.74" cy="1199.02" r="14" fill="#808080" fill-rule="evenodd" fill-opacity="1" stroke="none"/>
<circle clip-path="url(#clip522)" cx="1305.41" cy="1148.4" r="14" fill="#808080" fill-rule="evenodd" fill-opacity="1" stroke="none"/>
<circle clip-path="url(#clip522)" cx="1285.03" cy="1215.34" r="14" fill="#808080" fill-rule="evenodd" fill-opacity="1" stroke="none"/>
<circle clip-path="url(#clip522)" cx="1321.1" cy="1124.27" r="14" fill="#808080" fill-rule="evenodd" fill-opacity="1" stroke="none"/>
<circle clip-path="url(#clip522)" cx="1347.12" cy="1099.39" r="14" fill="#808080" fill-rule="evenodd" fill-opacity="1" stroke="none"/>
<circle clip-path="url(#clip522)" cx="1517.58" cy="1199.17" r="14" fill="#808080" fill-rule="evenodd" fill-opacity="1" stroke="none"/>
<circle clip-path="url(#clip522)" cx="1386.05" cy="1171.38" r="14" fill="#808080" fill-rule="evenodd" fill-opacity="1" stroke="none"/>
<circle clip-path="url(#clip522)" cx="1614.74" cy="1151.71" r="14" fill="#808080" fill-rule="evenodd" fill-opacity="1" stroke="none"/>
<circle clip-path="url(#clip522)" cx="1455.94" cy="1187.52" r="14" fill="#808080" fill-rule="evenodd" fill-opacity="1" stroke="none"/>
<circle clip-path="url(#clip522)" cx="1494.99" cy="1189.81" r="14" fill="#808080" fill-rule="evenodd" fill-opacity="1" stroke="none"/>
<circle clip-path="url(#clip522)" cx="1491.72" cy="1209.57" r="14" fill="#808080" fill-rule="evenodd" fill-opacity="1" stroke="none"/>
<circle clip-path="url(#clip522)" cx="1512.15" cy="1154.92" r="14" fill="#808080" fill-rule="evenodd" fill-opacity="1" stroke="none"/>
<circle clip-path="url(#clip522)" cx="1436.77" cy="1186.65" r="14" fill="#808080" fill-rule="evenodd" fill-opacity="1" stroke="none"/>
<circle clip-path="url(#clip522)" cx="1500" cy="1174.68" r="14" fill="#808080" fill-rule="evenodd" fill-opacity="1" stroke="none"/>
<circle clip-path="url(#clip522)" cx="1488.5" cy="1193.86" r="14" fill="#808080" fill-rule="evenodd" fill-opacity="1" stroke="none"/>
<circle clip-path="url(#clip522)" cx="1422.28" cy="1167.43" r="14" fill="#808080" fill-rule="evenodd" fill-opacity="1" stroke="none"/>
<circle clip-path="url(#clip522)" cx="1504.09" cy="1156.5" r="14" fill="#808080" fill-rule="evenodd" fill-opacity="1" stroke="none"/>
<circle clip-path="url(#clip522)" cx="1554.56" cy="1161.13" r="14" fill="#808080" fill-rule="evenodd" fill-opacity="1" stroke="none"/>
<circle clip-path="url(#clip522)" cx="1521.44" cy="1170.23" r="14" fill="#808080" fill-rule="evenodd" fill-opacity="1" stroke="none"/>
<circle clip-path="url(#clip522)" cx="1546.25" cy="1171.65" r="14" fill="#808080" fill-rule="evenodd" fill-opacity="1" stroke="none"/>
<circle clip-path="url(#clip522)" cx="1511.91" cy="1182.57" r="14" fill="#808080" fill-rule="evenodd" fill-opacity="1" stroke="none"/>
<circle clip-path="url(#clip522)" cx="1560.03" cy="1162.32" r="14" fill="#808080" fill-rule="evenodd" fill-opacity="1" stroke="none"/>
<circle clip-path="url(#clip522)" cx="1457.24" cy="1191.96" r="14" fill="#808080" fill-rule="evenodd" fill-opacity="1" stroke="none"/>
<circle clip-path="url(#clip522)" cx="1525.3" cy="1183.29" r="14" fill="#808080" fill-rule="evenodd" fill-opacity="1" stroke="none"/>
<circle clip-path="url(#clip522)" cx="1612.77" cy="1159.26" r="14" fill="#808080" fill-rule="evenodd" fill-opacity="1" stroke="none"/>
<circle clip-path="url(#clip522)" cx="1629.15" cy="1151.49" r="14" fill="#808080" fill-rule="evenodd" fill-opacity="1" stroke="none"/>
<circle clip-path="url(#clip522)" cx="1567.43" cy="1190.11" r="14" fill="#808080" fill-rule="evenodd" fill-opacity="1" stroke="none"/>
<circle clip-path="url(#clip522)" cx="1536.12" cy="1158.98" r="14" fill="#808080" fill-rule="evenodd" fill-opacity="1" stroke="none"/>
<circle clip-path="url(#clip522)" cx="1535.69" cy="1096.22" r="14" fill="#808080" fill-rule="evenodd" fill-opacity="1" stroke="none"/>
<circle clip-path="url(#clip522)" cx="1524.47" cy="1065.8" r="14" fill="#808080" fill-rule="evenodd" fill-opacity="1" stroke="none"/>
<circle clip-path="url(#clip522)" cx="1507.58" cy="1193.03" r="14" fill="#808080" fill-rule="evenodd" fill-opacity="1" stroke="none"/>
<circle clip-path="url(#clip522)" cx="1481.76" cy="1211.4" r="14" fill="#808080" fill-rule="evenodd" fill-opacity="1" stroke="none"/>
<circle clip-path="url(#clip522)" cx="1654.9" cy="1125.45" r="14" fill="#808080" fill-rule="evenodd" fill-opacity="1" stroke="none"/>
<circle clip-path="url(#clip522)" cx="1516.03" cy="1188.61" r="14" fill="#808080" fill-rule="evenodd" fill-opacity="1" stroke="none"/>
<circle clip-path="url(#clip522)" cx="1703.68" cy="1050.51" r="14" fill="#808080" fill-rule="evenodd" fill-opacity="1" stroke="none"/>
<circle clip-path="url(#clip522)" cx="1592.65" cy="1173.71" r="14" fill="#808080" fill-rule="evenodd" fill-opacity="1" stroke="none"/>
<circle clip-path="url(#clip522)" cx="1544.1" cy="1148.17" r="14" fill="#808080" fill-rule="evenodd" fill-opacity="1" stroke="none"/>
<circle clip-path="url(#clip522)" cx="1590.33" cy="1169.38" r="14" fill="#808080" fill-rule="evenodd" fill-opacity="1" stroke="none"/>
<circle clip-path="url(#clip522)" cx="1469.19" cy="1141.36" r="14" fill="#808080" fill-rule="evenodd" fill-opacity="1" stroke="none"/>
<circle clip-path="url(#clip522)" cx="1477.68" cy="1128.58" r="14" fill="#808080" fill-rule="evenodd" fill-opacity="1" stroke="none"/>
<circle clip-path="url(#clip522)" cx="1468.91" cy="1111.95" r="14" fill="#808080" fill-rule="evenodd" fill-opacity="1" stroke="none"/>
<circle clip-path="url(#clip522)" cx="1538.14" cy="1114.3" r="14" fill="#808080" fill-rule="evenodd" fill-opacity="1" stroke="none"/>
<circle clip-path="url(#clip522)" cx="1611.1" cy="1108.18" r="14" fill="#808080" fill-rule="evenodd" fill-opacity="1" stroke="none"/>
<circle clip-path="url(#clip522)" cx="1339.57" cy="1157.84" r="14" fill="#808080" fill-rule="evenodd" fill-opacity="1" stroke="none"/>
<circle clip-path="url(#clip522)" cx="1290.36" cy="1185.1" r="14" fill="#808080" fill-rule="evenodd" fill-opacity="1" stroke="none"/>
<circle clip-path="url(#clip522)" cx="1207.23" cy="1147.19" r="14" fill="#808080" fill-rule="evenodd" fill-opacity="1" stroke="none"/>
<circle clip-path="url(#clip522)" cx="1284.36" cy="1189.3" r="14" fill="#808080" fill-rule="evenodd" fill-opacity="1" stroke="none"/>
<circle clip-path="url(#clip522)" cx="1422.97" cy="1069.7" r="14" fill="#800080" fill-rule="evenodd" fill-opacity="1" stroke="none"/>
<circle clip-path="url(#clip522)" cx="1363.75" cy="1034.08" r="14" fill="#800080" fill-rule="evenodd" fill-opacity="1" stroke="none"/>
<circle clip-path="url(#clip522)" cx="1357.09" cy="1068.56" r="14" fill="#800080" fill-rule="evenodd" fill-opacity="1" stroke="none"/>
<circle clip-path="url(#clip522)" cx="1396.74" cy="1030.38" r="14" fill="#800080" fill-rule="evenodd" fill-opacity="1" stroke="none"/>
<circle clip-path="url(#clip522)" cx="1344.09" cy="988.848" r="14" fill="#800080" fill-rule="evenodd" fill-opacity="1" stroke="none"/>
<circle clip-path="url(#clip522)" cx="1004.18" cy="912.945" r="14" fill="#800080" fill-rule="evenodd" fill-opacity="1" stroke="none"/>
<circle clip-path="url(#clip522)" cx="1337.42" cy="968.324" r="14" fill="#800080" fill-rule="evenodd" fill-opacity="1" stroke="none"/>
<circle clip-path="url(#clip522)" cx="1436.15" cy="1024.88" r="14" fill="#800080" fill-rule="evenodd" fill-opacity="1" stroke="none"/>
<circle clip-path="url(#clip522)" cx="1384.82" cy="1007.43" r="14" fill="#800080" fill-rule="evenodd" fill-opacity="1" stroke="none"/>
<circle clip-path="url(#clip522)" cx="1218.56" cy="593.708" r="14" fill="#800080" fill-rule="evenodd" fill-opacity="1" stroke="none"/>
<circle clip-path="url(#clip522)" cx="1448.53" cy="1057.35" r="14" fill="#800080" fill-rule="evenodd" fill-opacity="1" stroke="none"/>
<circle clip-path="url(#clip522)" cx="1334.23" cy="970.036" r="14" fill="#800080" fill-rule="evenodd" fill-opacity="1" stroke="none"/>
<circle clip-path="url(#clip522)" cx="1400.48" cy="1014.59" r="14" fill="#800080" fill-rule="evenodd" fill-opacity="1" stroke="none"/>
<circle clip-path="url(#clip522)" cx="1371.51" cy="1113.63" r="14" fill="#800080" fill-rule="evenodd" fill-opacity="1" stroke="none"/>
<circle clip-path="url(#clip522)" cx="1313.87" cy="1059.87" r="14" fill="#800080" fill-rule="evenodd" fill-opacity="1" stroke="none"/>
<circle clip-path="url(#clip522)" cx="1377.83" cy="1084.48" r="14" fill="#800080" fill-rule="evenodd" fill-opacity="1" stroke="none"/>
<circle clip-path="url(#clip522)" cx="1351.45" cy="1122.89" r="14" fill="#800080" fill-rule="evenodd" fill-opacity="1" stroke="none"/>
<circle clip-path="url(#clip522)" cx="1367.29" cy="1031.22" r="14" fill="#800080" fill-rule="evenodd" fill-opacity="1" stroke="none"/>
<circle clip-path="url(#clip522)" cx="1268.21" cy="955.314" r="14" fill="#800080" fill-rule="evenodd" fill-opacity="1" stroke="none"/>
<circle clip-path="url(#clip522)" cx="1518.56" cy="1022.11" r="14" fill="#800080" fill-rule="evenodd" fill-opacity="1" stroke="none"/>
<circle clip-path="url(#clip522)" cx="1536.85" cy="1099.98" r="14" fill="#800080" fill-rule="evenodd" fill-opacity="1" stroke="none"/>
<circle clip-path="url(#clip522)" cx="1490.84" cy="1039.26" r="14" fill="#800080" fill-rule="evenodd" fill-opacity="1" stroke="none"/>
<circle clip-path="url(#clip522)" cx="1451.26" cy="1019.73" r="14" fill="#800080" fill-rule="evenodd" fill-opacity="1" stroke="none"/>
<circle clip-path="url(#clip522)" cx="1506.91" cy="1036.85" r="14" fill="#800080" fill-rule="evenodd" fill-opacity="1" stroke="none"/>
<circle clip-path="url(#clip522)" cx="1317.96" cy="1015.75" r="14" fill="#ffa500" fill-rule="evenodd" fill-opacity="1" stroke="none"/>
<circle clip-path="url(#clip522)" cx="1360.22" cy="1004.62" r="14" fill="#ffa500" fill-rule="evenodd" fill-opacity="1" stroke="none"/>
<circle clip-path="url(#clip522)" cx="1220.47" cy="1107.65" r="14" fill="#ffa500" fill-rule="evenodd" fill-opacity="1" stroke="none"/>
<circle clip-path="url(#clip522)" cx="1348.17" cy="1067.34" r="14" fill="#ffa500" fill-rule="evenodd" fill-opacity="1" stroke="none"/>
<circle clip-path="url(#clip522)" cx="1385.2" cy="986.956" r="14" fill="#ffa500" fill-rule="evenodd" fill-opacity="1" stroke="none"/>
<circle clip-path="url(#clip522)" cx="1434.22" cy="1113.11" r="14" fill="#ffa500" fill-rule="evenodd" fill-opacity="1" stroke="none"/>
<circle clip-path="url(#clip522)" cx="1334.63" cy="1073.39" r="14" fill="#ffa500" fill-rule="evenodd" fill-opacity="1" stroke="none"/>
<circle clip-path="url(#clip522)" cx="1405.94" cy="1088.58" r="14" fill="#ffa500" fill-rule="evenodd" fill-opacity="1" stroke="none"/>
<circle clip-path="url(#clip522)" cx="1335.67" cy="967.483" r="14" fill="#ffa500" fill-rule="evenodd" fill-opacity="1" stroke="none"/>
<circle clip-path="url(#clip522)" cx="1269.19" cy="1004.73" r="14" fill="#ffa500" fill-rule="evenodd" fill-opacity="1" stroke="none"/>
<circle clip-path="url(#clip522)" cx="1506.74" cy="1051.28" r="14" fill="#ffa500" fill-rule="evenodd" fill-opacity="1" stroke="none"/>
<circle clip-path="url(#clip522)" cx="1375.71" cy="988.037" r="14" fill="#ffa500" fill-rule="evenodd" fill-opacity="1" stroke="none"/>
<circle clip-path="url(#clip522)" cx="1464.05" cy="976.92" r="14" fill="#ffa500" fill-rule="evenodd" fill-opacity="1" stroke="none"/>
<circle clip-path="url(#clip522)" cx="1585.52" cy="966.709" r="14" fill="#ffa500" fill-rule="evenodd" fill-opacity="1" stroke="none"/>
<circle clip-path="url(#clip522)" cx="1340.9" cy="995.19" r="14" fill="#ffa500" fill-rule="evenodd" fill-opacity="1" stroke="none"/>
<circle clip-path="url(#clip522)" cx="1545.27" cy="1008.23" r="14" fill="#ffa500" fill-rule="evenodd" fill-opacity="1" stroke="none"/>
<circle clip-path="url(#clip522)" cx="1297.06" cy="1000.55" r="14" fill="#ffa500" fill-rule="evenodd" fill-opacity="1" stroke="none"/>
<circle clip-path="url(#clip522)" cx="1316.67" cy="966.651" r="14" fill="#ffa500" fill-rule="evenodd" fill-opacity="1" stroke="none"/>
<circle clip-path="url(#clip522)" cx="1215.92" cy="955.238" r="14" fill="#ffa500" fill-rule="evenodd" fill-opacity="1" stroke="none"/>
<circle clip-path="url(#clip522)" cx="1152.4" cy="922.748" r="14" fill="#ffa500" fill-rule="evenodd" fill-opacity="1" stroke="none"/>
<circle clip-path="url(#clip522)" cx="1061.38" cy="986.667" r="14" fill="#ffa500" fill-rule="evenodd" fill-opacity="1" stroke="none"/>
<circle clip-path="url(#clip522)" cx="1323.07" cy="1009.31" r="14" fill="#ffa500" fill-rule="evenodd" fill-opacity="1" stroke="none"/>
<circle clip-path="url(#clip522)" cx="1279" cy="1026.96" r="14" fill="#ffa500" fill-rule="evenodd" fill-opacity="1" stroke="none"/>
<circle clip-path="url(#clip522)" cx="1304.01" cy="982.187" r="14" fill="#ffa500" fill-rule="evenodd" fill-opacity="1" stroke="none"/>
<circle clip-path="url(#clip522)" cx="1294.17" cy="1045.26" r="14" fill="#ffa500" fill-rule="evenodd" fill-opacity="1" stroke="none"/>
<circle clip-path="url(#clip522)" cx="1271.29" cy="1007.52" r="14" fill="#ffa500" fill-rule="evenodd" fill-opacity="1" stroke="none"/>
<circle clip-path="url(#clip522)" cx="1312.88" cy="1142.92" r="14" fill="#800080" fill-rule="evenodd" fill-opacity="1" stroke="none"/>
<circle clip-path="url(#clip522)" cx="1333.42" cy="1069.55" r="14" fill="#800080" fill-rule="evenodd" fill-opacity="1" stroke="none"/>
<circle clip-path="url(#clip522)" cx="1478.71" cy="1018.27" r="14" fill="#800080" fill-rule="evenodd" fill-opacity="1" stroke="none"/>
<circle clip-path="url(#clip522)" cx="1369.36" cy="1106.62" r="14" fill="#800080" fill-rule="evenodd" fill-opacity="1" stroke="none"/>
<circle clip-path="url(#clip522)" cx="1599.88" cy="991.127" r="14" fill="#800080" fill-rule="evenodd" fill-opacity="1" stroke="none"/>
<circle clip-path="url(#clip522)" cx="1455.02" cy="1087.82" r="14" fill="#800080" fill-rule="evenodd" fill-opacity="1" stroke="none"/>
<circle clip-path="url(#clip522)" cx="1486.95" cy="1076.86" r="14" fill="#800080" fill-rule="evenodd" fill-opacity="1" stroke="none"/>
<circle clip-path="url(#clip522)" cx="1477.14" cy="1062.25" r="14" fill="#800080" fill-rule="evenodd" fill-opacity="1" stroke="none"/>
<circle clip-path="url(#clip522)" cx="1527.02" cy="1052.15" r="14" fill="#800080" fill-rule="evenodd" fill-opacity="1" stroke="none"/>
<circle clip-path="url(#clip522)" cx="1429.61" cy="1023.46" r="14" fill="#800080" fill-rule="evenodd" fill-opacity="1" stroke="none"/>
<circle clip-path="url(#clip522)" cx="1472.26" cy="1088.33" r="14" fill="#800080" fill-rule="evenodd" fill-opacity="1" stroke="none"/>
<circle clip-path="url(#clip522)" cx="1481.68" cy="1069.85" r="14" fill="#800080" fill-rule="evenodd" fill-opacity="1" stroke="none"/>
<circle clip-path="url(#clip522)" cx="1437.39" cy="1074.99" r="14" fill="#800080" fill-rule="evenodd" fill-opacity="1" stroke="none"/>
<circle clip-path="url(#clip522)" cx="1509.11" cy="1047.03" r="14" fill="#800080" fill-rule="evenodd" fill-opacity="1" stroke="none"/>
<circle clip-path="url(#clip522)" cx="1552.03" cy="1083.48" r="14" fill="#800080" fill-rule="evenodd" fill-opacity="1" stroke="none"/>
<circle clip-path="url(#clip522)" cx="1531.81" cy="1099.48" r="14" fill="#800080" fill-rule="evenodd" fill-opacity="1" stroke="none"/>
<circle clip-path="url(#clip522)" cx="1530.63" cy="1100.65" r="14" fill="#800080" fill-rule="evenodd" fill-opacity="1" stroke="none"/>
<circle clip-path="url(#clip522)" cx="1508.15" cy="1079.98" r="14" fill="#800080" fill-rule="evenodd" fill-opacity="1" stroke="none"/>
<circle clip-path="url(#clip522)" cx="1527.53" cy="1070.96" r="14" fill="#800080" fill-rule="evenodd" fill-opacity="1" stroke="none"/>
<circle clip-path="url(#clip522)" cx="1446.51" cy="1060.31" r="14" fill="#800080" fill-rule="evenodd" fill-opacity="1" stroke="none"/>
<circle clip-path="url(#clip522)" cx="1502.47" cy="1070.94" r="14" fill="#800080" fill-rule="evenodd" fill-opacity="1" stroke="none"/>
<circle clip-path="url(#clip522)" cx="1595.76" cy="1036.4" r="14" fill="#800080" fill-rule="evenodd" fill-opacity="1" stroke="none"/>
<circle clip-path="url(#clip522)" cx="1610.56" cy="1045.33" r="14" fill="#ffa500" fill-rule="evenodd" fill-opacity="1" stroke="none"/>
<circle clip-path="url(#clip522)" cx="1548.22" cy="1076.52" r="14" fill="#ffa500" fill-rule="evenodd" fill-opacity="1" stroke="none"/>
<circle clip-path="url(#clip522)" cx="1517.33" cy="1014.02" r="14" fill="#ffa500" fill-rule="evenodd" fill-opacity="1" stroke="none"/>
<circle clip-path="url(#clip522)" cx="1533.6" cy="1004.25" r="14" fill="#ffa500" fill-rule="evenodd" fill-opacity="1" stroke="none"/>
<circle clip-path="url(#clip522)" cx="1498.18" cy="982.792" r="14" fill="#ffa500" fill-rule="evenodd" fill-opacity="1" stroke="none"/>
<circle clip-path="url(#clip522)" cx="1482.03" cy="1082.25" r="14" fill="#ffa500" fill-rule="evenodd" fill-opacity="1" stroke="none"/>
<circle clip-path="url(#clip522)" cx="1456.28" cy="1012.6" r="14" fill="#ffa500" fill-rule="evenodd" fill-opacity="1" stroke="none"/>
<circle clip-path="url(#clip522)" cx="1652.31" cy="1025.32" r="14" fill="#ffa500" fill-rule="evenodd" fill-opacity="1" stroke="none"/>
<circle clip-path="url(#clip522)" cx="1489.84" cy="1016.58" r="14" fill="#ffa500" fill-rule="evenodd" fill-opacity="1" stroke="none"/>
<circle clip-path="url(#clip522)" cx="1734.21" cy="993.005" r="14" fill="#ffa500" fill-rule="evenodd" fill-opacity="1" stroke="none"/>
<circle clip-path="url(#clip522)" cx="1575.72" cy="1034.42" r="14" fill="#ffa500" fill-rule="evenodd" fill-opacity="1" stroke="none"/>
<circle clip-path="url(#clip522)" cx="1552.84" cy="1040.78" r="14" fill="#ffa500" fill-rule="evenodd" fill-opacity="1" stroke="none"/>
<circle clip-path="url(#clip522)" cx="1573.82" cy="1017.2" r="14" fill="#ffa500" fill-rule="evenodd" fill-opacity="1" stroke="none"/>
<circle clip-path="url(#clip522)" cx="1466.3" cy="911.74" r="14" fill="#ffa500" fill-rule="evenodd" fill-opacity="1" stroke="none"/>
<circle clip-path="url(#clip522)" cx="1459.64" cy="938.922" r="14" fill="#ffa500" fill-rule="evenodd" fill-opacity="1" stroke="none"/>
<circle clip-path="url(#clip522)" cx="1446.28" cy="920.116" r="14" fill="#ffa500" fill-rule="evenodd" fill-opacity="1" stroke="none"/>
<circle clip-path="url(#clip522)" cx="1532.47" cy="922.342" r="14" fill="#ffa500" fill-rule="evenodd" fill-opacity="1" stroke="none"/>
<circle clip-path="url(#clip522)" cx="1608.11" cy="930.178" r="14" fill="#ffa500" fill-rule="evenodd" fill-opacity="1" stroke="none"/>
<circle clip-path="url(#clip522)" cx="1321.79" cy="961.545" r="14" fill="#ffa500" fill-rule="evenodd" fill-opacity="1" stroke="none"/>
<circle clip-path="url(#clip522)" cx="1266.17" cy="1000.36" r="14" fill="#ffa500" fill-rule="evenodd" fill-opacity="1" stroke="none"/>
<circle clip-path="url(#clip522)" cx="1243.99" cy="942.489" r="14" fill="#ffa500" fill-rule="evenodd" fill-opacity="1" stroke="none"/>
<circle clip-path="url(#clip522)" cx="1286.21" cy="993.329" r="14" fill="#ffa500" fill-rule="evenodd" fill-opacity="1" stroke="none"/>
<polyline clip-path="url(#clip522)" style="stroke:#ffa500; stroke-width:4.88758; stroke-opacity:1; fill:none" points="
  322.494,1479.3 2257.84,627.523 
  "/>
<polyline clip-path="url(#clip522)" style="stroke:#800080; stroke-width:0.831794; stroke-opacity:1; fill:none" points="
  1246.73,1064.65 1273.75,1201.75 
  "/>
<polyline clip-path="url(#clip522)" style="stroke:#ffa500; stroke-width:0.299089; stroke-opacity:1; fill:none" points="
  151.118,88.9544 1273.75,1201.75 
  "/>
<polyline clip-path="url(#clip522)" style="stroke:#ffa500; stroke-width:0.843251; stroke-opacity:1; fill:none" points="
  151.118,88.9544 2288.63,1077.45 
  "/>
<polyline clip-path="url(#clip522)" style="stroke:#ffa500; stroke-width:4.5444; stroke-opacity:1; fill:none" points="
  1246.73,1064.65 2257.84,627.523 
  "/>
<polyline clip-path="url(#clip522)" style="stroke:#ffa500; stroke-width:2.01037; stroke-opacity:1; fill:none" points="
  151.118,88.9544 1246.73,1064.65 
  "/>
<polyline clip-path="url(#clip522)" style="stroke:#800080; stroke-width:0.820338; stroke-opacity:1; fill:none" points="
  1246.73,1064.65 2288.63,1077.45 
  "/>
<polyline clip-path="url(#clip522)" style="stroke:#800080; stroke-width:2.29381; stroke-opacity:1; fill:none" points="
  1273.75,1201.75 2288.63,1077.45 
  "/>
<polyline clip-path="url(#clip522)" style="stroke:#ffa500; stroke-width:4.41533; stroke-opacity:1; fill:none" points="
  151.118,88.9544 322.494,1479.3 
  "/>
<polyline clip-path="url(#clip522)" style="stroke:#800080; stroke-width:1.44165; stroke-opacity:1; fill:none" points="
  1273.75,1201.75 2257.84,627.523 
  "/>
<polyline clip-path="url(#clip522)" style="stroke:#ffa500; stroke-width:2.26375; stroke-opacity:1; fill:none" points="
  2257.84,627.523 2288.63,1077.45 
  "/>
<polyline clip-path="url(#clip522)" style="stroke:#ffa500; stroke-width:1.50008; stroke-opacity:1; fill:none" points="
  322.494,1479.3 1246.73,1064.65 
  "/>
<polyline clip-path="url(#clip522)" style="stroke:#800080; stroke-width:1.53172; stroke-opacity:1; fill:none" points="
  322.494,1479.3 1273.75,1201.75 
  "/>
<polyline clip-path="url(#clip522)" style="stroke:#ffa500; stroke-width:3.57132; stroke-opacity:1; fill:none" points="
  151.118,88.9544 2257.84,627.523 
  "/>
<polyline clip-path="url(#clip522)" style="stroke:#800080; stroke-width:8; stroke-opacity:1; fill:none" points="
  322.494,1479.3 2288.63,1077.45 
  "/>
<circle clip-path="url(#clip522)" cx="1246.73" cy="1064.65" r="23" fill="#000000" fill-rule="evenodd" fill-opacity="1" stroke="none"/>
<circle clip-path="url(#clip522)" cx="322.494" cy="1479.3" r="26" fill="#000000" fill-rule="evenodd" fill-opacity="1" stroke="none"/>
<circle clip-path="url(#clip522)" cx="2257.84" cy="627.523" r="23" fill="#000000" fill-rule="evenodd" fill-opacity="1" stroke="none"/>
<circle clip-path="url(#clip522)" cx="1273.75" cy="1201.75" r="8" fill="#000000" fill-rule="evenodd" fill-opacity="1" stroke="none"/>
<circle clip-path="url(#clip522)" cx="2288.63" cy="1077.45" r="28" fill="#000000" fill-rule="evenodd" fill-opacity="1" stroke="none"/>
<circle clip-path="url(#clip522)" cx="151.118" cy="88.9544" r="8" fill="#000000" fill-rule="evenodd" fill-opacity="1" stroke="none"/>
<path clip-path="url(#clip520)" d="M 0 0 M1170.92 1041.13 L1170.92 1088.16 L1180.8 1088.16 Q1193.32 1088.16 1199.11 1082.49 Q1204.95 1076.82 1204.95 1064.59 Q1204.95 1052.43 1199.11 1046.8 Q1193.32 1041.13 1180.8 1041.13 L1170.92 1041.13 M1162.74 1034.41 L1179.55 1034.41 Q1197.13 1034.41 1205.35 1041.74 Q1213.58 1049.03 1213.58 1064.59 Q1213.58 1080.22 1205.31 1087.56 Q1197.05 1094.89 1179.55 1094.89 L1162.74 1094.89 L1162.74 1034.41 Z" fill="#000000" fill-rule="evenodd" fill-opacity="1" /><path clip-path="url(#clip520)" d="M 0 0 M1242.01 1072.08 Q1232.98 1072.08 1229.5 1074.15 Q1226.01 1076.21 1226.01 1081.2 Q1226.01 1085.17 1228.61 1087.51 Q1231.24 1089.82 1235.73 1089.82 Q1241.93 1089.82 1245.66 1085.45 Q1249.43 1081.03 1249.43 1073.74 L1249.43 1072.08 L1242.01 1072.08 M1256.88 1069 L1256.88 1094.89 L1249.43 1094.89 L1249.43 1088 Q1246.87 1092.13 1243.07 1094.12 Q1239.26 1096.06 1233.75 1096.06 Q1226.78 1096.06 1222.65 1092.17 Q1218.56 1088.24 1218.56 1081.68 Q1218.56 1074.03 1223.66 1070.14 Q1228.81 1066.25 1238.98 1066.25 L1249.43 1066.25 L1249.43 1065.52 Q1249.43 1060.37 1246.02 1057.58 Q1242.66 1054.74 1236.55 1054.74 Q1232.66 1054.74 1228.97 1055.67 Q1225.28 1056.61 1221.88 1058.47 L1221.88 1051.58 Q1225.97 1050 1229.82 1049.23 Q1233.67 1048.42 1237.31 1048.42 Q1247.16 1048.42 1252.02 1053.53 Q1256.88 1058.63 1256.88 1069 Z" fill="#000000" fill-rule="evenodd" fill-opacity="1" /><path clip-path="url(#clip520)" d="M 0 0 M1272.07 1036.64 L1272.07 1049.52 L1287.42 1049.52 L1287.42 1055.31 L1272.07 1055.31 L1272.07 1079.94 Q1272.07 1085.49 1273.57 1087.07 Q1275.11 1088.65 1279.77 1088.65 L1287.42 1088.65 L1287.42 1094.89 L1279.77 1094.89 Q1271.14 1094.89 1267.86 1091.69 Q1264.58 1088.45 1264.58 1079.94 L1264.58 1055.31 L1259.11 1055.31 L1259.11 1049.52 L1264.58 1049.52 L1264.58 1036.64 L1272.07 1036.64 Z" fill="#000000" fill-rule="evenodd" fill-opacity="1" /><path clip-path="url(#clip520)" d="M 0 0 M1315.86 1072.08 Q1306.83 1072.08 1303.34 1074.15 Q1299.86 1076.21 1299.86 1081.2 Q1299.86 1085.17 1302.45 1087.51 Q1305.09 1089.82 1309.58 1089.82 Q1315.78 1089.82 1319.51 1085.45 Q1323.28 1081.03 1323.28 1073.74 L1323.28 1072.08 L1315.86 1072.08 M1330.73 1069 L1330.73 1094.89 L1323.28 1094.89 L1323.28 1088 Q1320.72 1092.13 1316.92 1094.12 Q1313.11 1096.06 1307.6 1096.06 Q1300.63 1096.06 1296.5 1092.17 Q1292.41 1088.24 1292.41 1081.68 Q1292.41 1074.03 1297.51 1070.14 Q1302.66 1066.25 1312.82 1066.25 L1323.28 1066.25 L1323.28 1065.52 Q1323.28 1060.37 1319.87 1057.58 Q1316.51 1054.74 1310.39 1054.74 Q1306.5 1054.74 1302.82 1055.67 Q1299.13 1056.61 1295.73 1058.47 L1295.73 1051.58 Q1299.82 1050 1303.67 1049.23 Q1307.52 1048.42 1311.16 1048.42 Q1321.01 1048.42 1325.87 1053.53 Q1330.73 1058.63 1330.73 1069 Z" fill="#000000" fill-rule="evenodd" fill-opacity="1" /><path clip-path="url(#clip520)" d="M 0 0 M-74.8393 1449.06 L-23.6764 1449.06 L-23.6764 1455.94 L-45.1462 1455.94 L-45.1462 1509.54 L-53.3695 1509.54 L-53.3695 1455.94 L-74.8393 1455.94 L-74.8393 1449.06 Z" fill="#000000" fill-rule="evenodd" fill-opacity="1" /><path clip-path="url(#clip520)" d="M 0 0 M8.85238 1484.99 L8.85238 1488.63 L-25.4183 1488.63 Q-24.9322 1496.33 -20.8002 1500.38 Q-16.6278 1504.39 -9.21466 1504.39 Q-4.9207 1504.39 -0.910304 1503.34 Q3.1406 1502.29 7.11049 1500.18 L7.11049 1507.23 Q3.10009 1508.93 -1.11285 1509.82 Q-5.32579 1510.71 -9.66026 1510.71 Q-20.5167 1510.71 -26.8766 1504.39 Q-33.196 1498.07 -33.196 1487.3 Q-33.196 1476.16 -27.2007 1469.64 Q-21.1648 1463.07 -10.9565 1463.07 Q-1.8015 1463.07 3.50518 1468.99 Q8.85238 1474.86 8.85238 1484.99 M1.39871 1482.8 Q1.31769 1476.68 -2.04456 1473.04 Q-5.3663 1469.39 -10.8755 1469.39 Q-17.1139 1469.39 -20.8813 1472.92 Q-24.6081 1476.44 -25.1752 1482.84 L1.39871 1482.8 Z" fill="#000000" fill-rule="evenodd" fill-opacity="1" /><path clip-path="url(#clip520)" d="M 0 0 M49.3209 1465.91 L49.3209 1472.88 Q46.1612 1471.14 42.961 1470.28 Q39.8013 1469.39 36.5606 1469.39 Q29.3094 1469.39 25.299 1474.01 Q21.2887 1478.59 21.2887 1486.89 Q21.2887 1495.2 25.299 1499.82 Q29.3094 1504.39 36.5606 1504.39 Q39.8013 1504.39 42.961 1503.54 Q46.1612 1502.65 49.3209 1500.91 L49.3209 1507.8 Q46.2017 1509.25 42.8395 1509.98 Q39.5177 1510.71 35.7504 1510.71 Q25.5016 1510.71 19.4657 1504.27 Q13.4299 1497.83 13.4299 1486.89 Q13.4299 1475.79 19.5063 1469.43 Q25.6231 1463.07 36.2365 1463.07 Q39.6798 1463.07 42.961 1463.8 Q46.2422 1464.49 49.3209 1465.91 Z" fill="#000000" fill-rule="evenodd" fill-opacity="1" /><path clip-path="url(#clip520)" d="M 0 0 M94.8531 1482.15 L94.8531 1509.54 L87.3994 1509.54 L87.3994 1482.4 Q87.3994 1475.96 84.8878 1472.76 Q82.3763 1469.56 77.3532 1469.56 Q71.3173 1469.56 67.8335 1473.4 Q64.3498 1477.25 64.3498 1483.9 L64.3498 1509.54 L56.8556 1509.54 L56.8556 1446.51 L64.3498 1446.51 L64.3498 1471.22 Q67.0234 1467.12 70.6287 1465.1 Q74.2745 1463.07 79.014 1463.07 Q86.8323 1463.07 90.8427 1467.93 Q94.8531 1472.76 94.8531 1482.15 Z" fill="#000000" fill-rule="evenodd" fill-opacity="1" /><path clip-path="url(#clip520)" d="M 0 0 M140.385 1482.15 L140.385 1509.54 L132.932 1509.54 L132.932 1482.4 Q132.932 1475.96 130.42 1472.76 Q127.908 1469.56 122.885 1469.56 Q116.849 1469.56 113.366 1473.4 Q109.882 1477.25 109.882 1483.9 L109.882 1509.54 L102.388 1509.54 L102.388 1464.17 L109.882 1464.17 L109.882 1471.22 Q112.556 1467.12 116.161 1465.1 Q119.807 1463.07 124.546 1463.07 Q132.364 1463.07 136.375 1467.93 Q140.385 1472.76 140.385 1482.15 Z" fill="#000000" fill-rule="evenodd" fill-opacity="1" /><path clip-path="url(#clip520)" d="M 0 0 M148.203 1464.17 L155.657 1464.17 L155.657 1509.54 L148.203 1509.54 L148.203 1464.17 M148.203 1446.51 L155.657 1446.51 L155.657 1455.94 L148.203 1455.94 L148.203 1446.51 Z" fill="#000000" fill-rule="evenodd" fill-opacity="1" /><path clip-path="url(#clip520)" d="M 0 0 M196.126 1465.91 L196.126 1472.88 Q192.966 1471.14 189.766 1470.28 Q186.606 1469.39 183.365 1469.39 Q176.114 1469.39 172.104 1474.01 Q168.093 1478.59 168.093 1486.89 Q168.093 1495.2 172.104 1499.82 Q176.114 1504.39 183.365 1504.39 Q186.606 1504.39 189.766 1503.54 Q192.966 1502.65 196.126 1500.91 L196.126 1507.8 Q193.006 1509.25 189.644 1509.98 Q186.322 1510.71 182.555 1510.71 Q172.306 1510.71 166.271 1504.27 Q160.235 1497.83 160.235 1486.89 Q160.235 1475.79 166.311 1469.43 Q172.428 1463.07 183.041 1463.07 Q186.485 1463.07 189.766 1463.8 Q193.047 1464.49 196.126 1465.91 Z" fill="#000000" fill-rule="evenodd" fill-opacity="1" /><path clip-path="url(#clip520)" d="M 0 0 M224.563 1486.73 Q215.53 1486.73 212.046 1488.8 Q208.562 1490.86 208.562 1495.85 Q208.562 1499.82 211.155 1502.16 Q213.788 1504.47 218.284 1504.47 Q224.482 1504.47 228.209 1500.1 Q231.976 1495.68 231.976 1488.39 L231.976 1486.73 L224.563 1486.73 M239.43 1483.65 L239.43 1509.54 L231.976 1509.54 L231.976 1502.65 Q229.424 1506.78 225.616 1508.77 Q221.808 1510.71 216.299 1510.71 Q209.332 1510.71 205.2 1506.82 Q201.108 1502.89 201.108 1496.33 Q201.108 1488.68 206.212 1484.79 Q211.357 1480.9 221.525 1480.9 L231.976 1480.9 L231.976 1480.17 Q231.976 1475.02 228.573 1472.23 Q225.211 1469.39 219.094 1469.39 Q215.205 1469.39 211.519 1470.32 Q207.833 1471.26 204.43 1473.12 L204.43 1466.23 Q208.521 1464.65 212.37 1463.88 Q216.218 1463.07 219.864 1463.07 Q229.708 1463.07 234.569 1468.18 Q239.43 1473.28 239.43 1483.65 Z" fill="#000000" fill-rule="evenodd" fill-opacity="1" /><path clip-path="url(#clip520)" d="M 0 0 M247.248 1446.51 L254.702 1446.51 L254.702 1509.54 L247.248 1509.54 L247.248 1446.51 Z" fill="#000000" fill-rule="evenodd" fill-opacity="1" /><path clip-path="url(#clip520)" d="M 0 0 M296.993 1523.31 L296.993 1529.1 L253.892 1529.1 L253.892 1523.31 L296.993 1523.31 Z" fill="#000000" fill-rule="evenodd" fill-opacity="1" /><path clip-path="url(#clip520)" d="M 0 0 M350.425 1453.72 L350.425 1462.34 Q346.293 1458.5 341.594 1456.59 Q336.935 1454.69 331.669 1454.69 Q321.299 1454.69 315.789 1461.05 Q310.28 1467.37 310.28 1479.36 Q310.28 1491.31 315.789 1497.67 Q321.299 1503.99 331.669 1503.99 Q336.935 1503.99 341.594 1502.08 Q346.293 1500.18 350.425 1496.33 L350.425 1504.88 Q346.131 1507.8 341.31 1509.25 Q336.53 1510.71 331.183 1510.71 Q317.45 1510.71 309.551 1502.33 Q301.652 1493.9 301.652 1479.36 Q301.652 1464.78 309.551 1456.39 Q317.45 1447.96 331.183 1447.96 Q336.611 1447.96 341.391 1449.42 Q346.212 1450.84 350.425 1453.72 Z" fill="#000000" fill-rule="evenodd" fill-opacity="1" /><path clip-path="url(#clip520)" d="M 0 0 M375.824 1469.39 Q369.828 1469.39 366.345 1474.09 Q362.861 1478.75 362.861 1486.89 Q362.861 1495.04 366.304 1499.73 Q369.788 1504.39 375.824 1504.39 Q381.779 1504.39 385.262 1499.69 Q388.746 1494.99 388.746 1486.89 Q388.746 1478.83 385.262 1474.13 Q381.779 1469.39 375.824 1469.39 M375.824 1463.07 Q385.546 1463.07 391.096 1469.39 Q396.645 1475.71 396.645 1486.89 Q396.645 1498.03 391.096 1504.39 Q385.546 1510.71 375.824 1510.71 Q366.061 1510.71 360.511 1504.39 Q355.002 1498.03 355.002 1486.89 Q355.002 1475.71 360.511 1469.39 Q366.061 1463.07 375.824 1463.07 Z" fill="#000000" fill-rule="evenodd" fill-opacity="1" /><path clip-path="url(#clip520)" d="M 0 0 M442.178 1482.15 L442.178 1509.54 L434.724 1509.54 L434.724 1482.4 Q434.724 1475.96 432.212 1472.76 Q429.701 1469.56 424.678 1469.56 Q418.642 1469.56 415.158 1473.4 Q411.674 1477.25 411.674 1483.9 L411.674 1509.54 L404.18 1509.54 L404.18 1464.17 L411.674 1464.17 L411.674 1471.22 Q414.348 1467.12 417.953 1465.1 Q421.599 1463.07 426.339 1463.07 Q434.157 1463.07 438.167 1467.93 Q442.178 1472.76 442.178 1482.15 Z" fill="#000000" fill-rule="evenodd" fill-opacity="1" /><path clip-path="url(#clip520)" d="M 0 0 M478.919 1465.5 L478.919 1472.55 Q475.76 1470.93 472.357 1470.12 Q468.954 1469.31 465.308 1469.31 Q459.759 1469.31 456.963 1471.01 Q454.209 1472.71 454.209 1476.12 Q454.209 1478.71 456.194 1480.21 Q458.179 1481.67 464.174 1483 L466.726 1483.57 Q474.666 1485.27 477.988 1488.39 Q481.35 1491.47 481.35 1497.02 Q481.35 1503.34 476.327 1507.03 Q471.344 1510.71 462.594 1510.71 Q458.948 1510.71 454.978 1509.98 Q451.049 1509.29 446.674 1507.88 L446.674 1500.18 Q450.806 1502.33 454.816 1503.42 Q458.827 1504.47 462.756 1504.47 Q468.022 1504.47 470.858 1502.69 Q473.694 1500.87 473.694 1497.59 Q473.694 1494.55 471.628 1492.93 Q469.602 1491.31 462.675 1489.81 L460.083 1489.2 Q453.156 1487.74 450.077 1484.75 Q446.998 1481.71 446.998 1476.44 Q446.998 1470.04 451.535 1466.56 Q456.072 1463.07 464.417 1463.07 Q468.549 1463.07 472.195 1463.68 Q475.841 1464.29 478.919 1465.5 Z" fill="#000000" fill-rule="evenodd" fill-opacity="1" /><path clip-path="url(#clip520)" d="M 0 0 M496.541 1451.29 L496.541 1464.17 L511.894 1464.17 L511.894 1469.96 L496.541 1469.96 L496.541 1494.59 Q496.541 1500.14 498.04 1501.72 Q499.579 1503.3 504.237 1503.3 L511.894 1503.3 L511.894 1509.54 L504.237 1509.54 Q495.609 1509.54 492.328 1506.34 Q489.047 1503.1 489.047 1494.59 L489.047 1469.96 L483.578 1469.96 L483.578 1464.17 L489.047 1464.17 L489.047 1451.29 L496.541 1451.29 Z" fill="#000000" fill-rule="evenodd" fill-opacity="1" /><path clip-path="url(#clip520)" d="M 0 0 M546.002 1471.14 Q544.746 1470.41 543.248 1470.08 Q541.789 1469.72 540.007 1469.72 Q533.688 1469.72 530.285 1473.85 Q526.923 1477.94 526.923 1485.64 L526.923 1509.54 L519.428 1509.54 L519.428 1464.17 L526.923 1464.17 L526.923 1471.22 Q529.272 1467.08 533.039 1465.1 Q536.807 1463.07 542.194 1463.07 Q542.964 1463.07 543.896 1463.2 Q544.828 1463.28 545.962 1463.48 L546.002 1471.14 Z" fill="#000000" fill-rule="evenodd" fill-opacity="1" /><path clip-path="url(#clip520)" d="M 0 0 M574.44 1486.73 Q565.406 1486.73 561.922 1488.8 Q558.439 1490.86 558.439 1495.85 Q558.439 1499.82 561.031 1502.16 Q563.664 1504.47 568.161 1504.47 Q574.359 1504.47 578.085 1500.1 Q581.853 1495.68 581.853 1488.39 L581.853 1486.73 L574.44 1486.73 M589.306 1483.65 L589.306 1509.54 L581.853 1509.54 L581.853 1502.65 Q579.301 1506.78 575.493 1508.77 Q571.685 1510.71 566.176 1510.71 Q559.208 1510.71 555.076 1506.82 Q550.985 1502.89 550.985 1496.33 Q550.985 1488.68 556.089 1484.79 Q561.234 1480.9 571.401 1480.9 L581.853 1480.9 L581.853 1480.17 Q581.853 1475.02 578.45 1472.23 Q575.088 1469.39 568.971 1469.39 Q565.082 1469.39 561.396 1470.32 Q557.709 1471.26 554.307 1473.12 L554.307 1466.23 Q558.398 1464.65 562.246 1463.88 Q566.095 1463.07 569.741 1463.07 Q579.584 1463.07 584.445 1468.18 Q589.306 1473.28 589.306 1483.65 Z" fill="#000000" fill-rule="evenodd" fill-opacity="1" /><path clip-path="url(#clip520)" d="M 0 0 M597.125 1464.17 L604.578 1464.17 L604.578 1509.54 L597.125 1509.54 L597.125 1464.17 M597.125 1446.51 L604.578 1446.51 L604.578 1455.94 L597.125 1455.94 L597.125 1446.51 Z" fill="#000000" fill-rule="evenodd" fill-opacity="1" /><path clip-path="url(#clip520)" d="M 0 0 M650.111 1482.15 L650.111 1509.54 L642.657 1509.54 L642.657 1482.4 Q642.657 1475.96 640.145 1472.76 Q637.634 1469.56 632.611 1469.56 Q626.575 1469.56 623.091 1473.4 Q619.607 1477.25 619.607 1483.9 L619.607 1509.54 L612.113 1509.54 L612.113 1464.17 L619.607 1464.17 L619.607 1471.22 Q622.281 1467.12 625.886 1465.1 Q629.532 1463.07 634.271 1463.07 Q642.09 1463.07 646.1 1467.93 Q650.111 1472.76 650.111 1482.15 Z" fill="#000000" fill-rule="evenodd" fill-opacity="1" /><path clip-path="url(#clip520)" d="M 0 0 M665.301 1451.29 L665.301 1464.17 L680.654 1464.17 L680.654 1469.96 L665.301 1469.96 L665.301 1494.59 Q665.301 1500.14 666.8 1501.72 Q668.34 1503.3 672.998 1503.3 L680.654 1503.3 L680.654 1509.54 L672.998 1509.54 Q664.37 1509.54 661.088 1506.34 Q657.807 1503.1 657.807 1494.59 L657.807 1469.96 L652.339 1469.96 L652.339 1464.17 L657.807 1464.17 L657.807 1451.29 L665.301 1451.29 Z" fill="#000000" fill-rule="evenodd" fill-opacity="1" /><path clip-path="url(#clip520)" d="M 0 0 M717.396 1465.5 L717.396 1472.55 Q714.236 1470.93 710.834 1470.12 Q707.431 1469.31 703.785 1469.31 Q698.235 1469.31 695.44 1471.01 Q692.686 1472.71 692.686 1476.12 Q692.686 1478.71 694.67 1480.21 Q696.655 1481.67 702.651 1483 L705.203 1483.57 Q713.143 1485.27 716.464 1488.39 Q719.827 1491.47 719.827 1497.02 Q719.827 1503.34 714.803 1507.03 Q709.821 1510.71 701.071 1510.71 Q697.425 1510.71 693.455 1509.98 Q689.526 1509.29 685.151 1507.88 L685.151 1500.18 Q689.283 1502.33 693.293 1503.42 Q697.304 1504.47 701.233 1504.47 Q706.499 1504.47 709.335 1502.69 Q712.17 1500.87 712.17 1497.59 Q712.17 1494.55 710.104 1492.93 Q708.079 1491.31 701.152 1489.81 L698.559 1489.2 Q691.632 1487.74 688.554 1484.75 Q685.475 1481.71 685.475 1476.44 Q685.475 1470.04 690.012 1466.56 Q694.549 1463.07 702.894 1463.07 Q707.026 1463.07 710.672 1463.68 Q714.317 1464.29 717.396 1465.5 Z" fill="#000000" fill-rule="evenodd" fill-opacity="1" /><path clip-path="url(#clip520)" d="M 0 0 M1789.27 604.008 L1789.27 626.734 L1799.56 626.734 Q1805.28 626.734 1808.4 623.776 Q1811.51 620.819 1811.51 615.35 Q1811.51 609.922 1808.4 606.965 Q1805.28 604.008 1799.56 604.008 L1789.27 604.008 M1781.09 597.283 L1799.56 597.283 Q1809.73 597.283 1814.92 601.901 Q1820.14 606.479 1820.14 615.35 Q1820.14 624.303 1814.92 628.88 Q1809.73 633.458 1799.56 633.458 L1789.27 633.458 L1789.27 657.763 L1781.09 657.763 L1781.09 597.283 Z" fill="#000000" fill-rule="evenodd" fill-opacity="1" /><path clip-path="url(#clip520)" d="M 0 0 M1863.81 633.215 L1863.81 636.861 L1829.54 636.861 Q1830.03 644.557 1834.16 648.608 Q1838.33 652.619 1845.74 652.619 Q1850.04 652.619 1854.05 651.566 Q1858.1 650.512 1862.07 648.406 L1862.07 655.454 Q1858.06 657.156 1853.85 658.047 Q1849.63 658.938 1845.3 658.938 Q1834.44 658.938 1828.08 652.619 Q1821.76 646.299 1821.76 635.524 Q1821.76 624.384 1827.76 617.862 Q1833.79 611.3 1844 611.3 Q1853.16 611.3 1858.46 617.214 Q1863.81 623.088 1863.81 633.215 M1856.36 631.027 Q1856.28 624.911 1852.91 621.265 Q1849.59 617.619 1844.08 617.619 Q1837.85 617.619 1834.08 621.143 Q1830.35 624.668 1829.78 631.068 L1856.36 631.027 Z" fill="#000000" fill-rule="evenodd" fill-opacity="1" /><path clip-path="url(#clip520)" d="M 0 0 M1897.92 619.361 Q1896.66 618.632 1895.17 618.308 Q1893.71 617.943 1891.92 617.943 Q1885.61 617.943 1882.2 622.075 Q1878.84 626.166 1878.84 633.863 L1878.84 657.763 L1871.35 657.763 L1871.35 612.393 L1878.84 612.393 L1878.84 619.442 Q1881.19 615.31 1884.96 613.325 Q1888.72 611.3 1894.11 611.3 Q1894.88 611.3 1895.81 611.421 Q1896.75 611.502 1897.88 611.705 L1897.92 619.361 Z" fill="#000000" fill-rule="evenodd" fill-opacity="1" /><path clip-path="url(#clip520)" d="M 0 0 M1928.71 594.731 L1928.71 600.929 L1921.58 600.929 Q1917.57 600.929 1915.99 602.55 Q1914.45 604.17 1914.45 608.383 L1914.45 612.393 L1926.72 612.393 L1926.72 618.186 L1914.45 618.186 L1914.45 657.763 L1906.95 657.763 L1906.95 618.186 L1899.82 618.186 L1899.82 612.393 L1906.95 612.393 L1906.95 609.234 Q1906.95 601.658 1910.48 598.215 Q1914 594.731 1921.66 594.731 L1928.71 594.731 Z" fill="#000000" fill-rule="evenodd" fill-opacity="1" /><path clip-path="url(#clip520)" d="M 0 0 M1954.11 617.619 Q1948.11 617.619 1944.63 622.318 Q1941.14 626.977 1941.14 635.119 Q1941.14 643.261 1944.59 647.96 Q1948.07 652.619 1954.11 652.619 Q1960.06 652.619 1963.54 647.92 Q1967.03 643.221 1967.03 635.119 Q1967.03 627.058 1963.54 622.359 Q1960.06 617.619 1954.11 617.619 M1954.11 611.3 Q1963.83 611.3 1969.38 617.619 Q1974.93 623.938 1974.93 635.119 Q1974.93 646.259 1969.38 652.619 Q1963.83 658.938 1954.11 658.938 Q1944.34 658.938 1938.79 652.619 Q1933.28 646.259 1933.28 635.119 Q1933.28 623.938 1938.79 617.619 Q1944.34 611.3 1954.11 611.3 Z" fill="#000000" fill-rule="evenodd" fill-opacity="1" /><path clip-path="url(#clip520)" d="M 0 0 M2009.04 619.361 Q2007.78 618.632 2006.28 618.308 Q2004.82 617.943 2003.04 617.943 Q1996.72 617.943 1993.32 622.075 Q1989.96 626.166 1989.96 633.863 L1989.96 657.763 L1982.46 657.763 L1982.46 612.393 L1989.96 612.393 L1989.96 619.442 Q1992.31 615.31 1996.07 613.325 Q1999.84 611.3 2005.23 611.3 Q2006 611.3 2006.93 611.421 Q2007.86 611.502 2009 611.705 L2009.04 619.361 Z" fill="#000000" fill-rule="evenodd" fill-opacity="1" /><path clip-path="url(#clip520)" d="M 0 0 M2050.72 621.103 Q2053.52 616.08 2057.4 613.69 Q2061.29 611.3 2066.56 611.3 Q2073.65 611.3 2077.5 616.282 Q2081.35 621.224 2081.35 630.379 L2081.35 657.763 L2073.85 657.763 L2073.85 630.622 Q2073.85 624.1 2071.54 620.941 Q2069.23 617.781 2064.49 617.781 Q2058.7 617.781 2055.34 621.629 Q2051.98 625.478 2051.98 632.121 L2051.98 657.763 L2044.48 657.763 L2044.48 630.622 Q2044.48 624.06 2042.17 620.941 Q2039.86 617.781 2035.04 617.781 Q2029.33 617.781 2025.97 621.67 Q2022.61 625.518 2022.61 632.121 L2022.61 657.763 L2015.11 657.763 L2015.11 612.393 L2022.61 612.393 L2022.61 619.442 Q2025.16 615.269 2028.72 613.285 Q2032.29 611.3 2037.19 611.3 Q2042.13 611.3 2045.58 613.811 Q2049.06 616.323 2050.72 621.103 Z" fill="#000000" fill-rule="evenodd" fill-opacity="1" /><path clip-path="url(#clip520)" d="M 0 0 M2109.78 634.957 Q2100.75 634.957 2097.27 637.023 Q2093.78 639.089 2093.78 644.071 Q2093.78 648.041 2096.37 650.391 Q2099.01 652.7 2103.5 652.7 Q2109.7 652.7 2113.43 648.325 Q2117.2 643.909 2117.2 636.618 L2117.2 634.957 L2109.78 634.957 M2124.65 631.878 L2124.65 657.763 L2117.2 657.763 L2117.2 650.877 Q2114.64 655.009 2110.84 656.994 Q2107.03 658.938 2101.52 658.938 Q2094.55 658.938 2090.42 655.049 Q2086.33 651.12 2086.33 644.557 Q2086.33 636.901 2091.43 633.012 Q2096.58 629.124 2106.74 629.124 L2117.2 629.124 L2117.2 628.394 Q2117.2 623.25 2113.79 620.455 Q2110.43 617.619 2104.31 617.619 Q2100.42 617.619 2096.74 618.551 Q2093.05 619.482 2089.65 621.346 L2089.65 614.459 Q2093.74 612.879 2097.59 612.11 Q2101.44 611.3 2105.08 611.3 Q2114.93 611.3 2119.79 616.404 Q2124.65 621.508 2124.65 631.878 Z" fill="#000000" fill-rule="evenodd" fill-opacity="1" /><path clip-path="url(#clip520)" d="M 0 0 M2170.18 630.379 L2170.18 657.763 L2162.73 657.763 L2162.73 630.622 Q2162.73 624.181 2160.22 620.981 Q2157.7 617.781 2152.68 617.781 Q2146.65 617.781 2143.16 621.629 Q2139.68 625.478 2139.68 632.121 L2139.68 657.763 L2132.18 657.763 L2132.18 612.393 L2139.68 612.393 L2139.68 619.442 Q2142.35 615.35 2145.96 613.325 Q2149.6 611.3 2154.34 611.3 Q2162.16 611.3 2166.17 616.161 Q2170.18 620.981 2170.18 630.379 Z" fill="#000000" fill-rule="evenodd" fill-opacity="1" /><path clip-path="url(#clip520)" d="M 0 0 M2210.65 614.135 L2210.65 621.103 Q2207.49 619.361 2204.29 618.51 Q2201.13 617.619 2197.89 617.619 Q2190.64 617.619 2186.63 622.237 Q2182.62 626.815 2182.62 635.119 Q2182.62 643.423 2186.63 648.041 Q2190.64 652.619 2197.89 652.619 Q2201.13 652.619 2204.29 651.768 Q2207.49 650.877 2210.65 649.135 L2210.65 656.022 Q2207.53 657.48 2204.17 658.209 Q2200.85 658.938 2197.08 658.938 Q2186.83 658.938 2180.79 652.497 Q2174.76 646.056 2174.76 635.119 Q2174.76 624.019 2180.84 617.659 Q2186.95 611.3 2197.57 611.3 Q2201.01 611.3 2204.29 612.029 Q2207.57 612.717 2210.65 614.135 Z" fill="#000000" fill-rule="evenodd" fill-opacity="1" /><path clip-path="url(#clip520)" d="M 0 0 M2257.28 633.215 L2257.28 636.861 L2223.01 636.861 Q2223.49 644.557 2227.62 648.608 Q2231.8 652.619 2239.21 652.619 Q2243.5 652.619 2247.51 651.566 Q2251.56 650.512 2255.53 648.406 L2255.53 655.454 Q2251.52 657.156 2247.31 658.047 Q2243.1 658.938 2238.76 658.938 Q2227.91 658.938 2221.55 652.619 Q2215.23 646.299 2215.23 635.524 Q2215.23 624.384 2221.22 617.862 Q2227.26 611.3 2237.47 611.3 Q2246.62 611.3 2251.93 617.214 Q2257.28 623.088 2257.28 633.215 M2249.82 631.027 Q2249.74 624.911 2246.38 621.265 Q2243.06 617.619 2237.55 617.619 Q2231.31 617.619 2227.54 621.143 Q2223.82 624.668 2223.25 631.068 L2249.82 631.027 Z" fill="#000000" fill-rule="evenodd" fill-opacity="1" /><path clip-path="url(#clip520)" d="M 0 0 M2299.57 671.537 L2299.57 677.329 L2256.47 677.329 L2256.47 671.537 L2299.57 671.537 Z" fill="#000000" fill-rule="evenodd" fill-opacity="1" /><path clip-path="url(#clip520)" d="M 0 0 M2315.89 604.008 L2315.89 626.734 L2326.18 626.734 Q2331.89 626.734 2335.01 623.776 Q2338.13 620.819 2338.13 615.35 Q2338.13 609.922 2335.01 606.965 Q2331.89 604.008 2326.18 604.008 L2315.89 604.008 M2307.71 597.283 L2326.18 597.283 Q2336.35 597.283 2341.53 601.901 Q2346.76 606.479 2346.76 615.35 Q2346.76 624.303 2341.53 628.88 Q2336.35 633.458 2326.18 633.458 L2315.89 633.458 L2315.89 657.763 L2307.71 657.763 L2307.71 597.283 Z" fill="#000000" fill-rule="evenodd" fill-opacity="1" /><path clip-path="url(#clip520)" d="M 0 0 M2371.47 634.957 Q2362.44 634.957 2358.95 637.023 Q2355.47 639.089 2355.47 644.071 Q2355.47 648.041 2358.06 650.391 Q2360.7 652.7 2365.19 652.7 Q2371.39 652.7 2375.12 648.325 Q2378.88 643.909 2378.88 636.618 L2378.88 634.957 L2371.47 634.957 M2386.34 631.878 L2386.34 657.763 L2378.88 657.763 L2378.88 650.877 Q2376.33 655.009 2372.52 656.994 Q2368.72 658.938 2363.21 658.938 Q2356.24 658.938 2352.11 655.049 Q2348.02 651.12 2348.02 644.557 Q2348.02 636.901 2353.12 633.012 Q2358.26 629.124 2368.43 629.124 L2378.88 629.124 L2378.88 628.394 Q2378.88 623.25 2375.48 620.455 Q2372.12 617.619 2366 617.619 Q2362.11 617.619 2358.43 618.551 Q2354.74 619.482 2351.34 621.346 L2351.34 614.459 Q2355.43 612.879 2359.28 612.11 Q2363.13 611.3 2366.77 611.3 Q2376.62 611.3 2381.48 616.404 Q2386.34 621.508 2386.34 631.878 Z" fill="#000000" fill-rule="evenodd" fill-opacity="1" /><path clip-path="url(#clip520)" d="M 0 0 M2420.45 619.361 Q2419.19 618.632 2417.69 618.308 Q2416.23 617.943 2414.45 617.943 Q2408.13 617.943 2404.73 622.075 Q2401.37 626.166 2401.37 633.863 L2401.37 657.763 L2393.87 657.763 L2393.87 612.393 L2401.37 612.393 L2401.37 619.442 Q2403.72 615.31 2407.48 613.325 Q2411.25 611.3 2416.64 611.3 Q2417.41 611.3 2418.34 611.421 Q2419.27 611.502 2420.41 611.705 L2420.45 619.361 Z" fill="#000000" fill-rule="evenodd" fill-opacity="1" /><path clip-path="url(#clip520)" d="M 0 0 M2448.88 634.957 Q2439.85 634.957 2436.37 637.023 Q2432.88 639.089 2432.88 644.071 Q2432.88 648.041 2435.48 650.391 Q2438.11 652.7 2442.6 652.7 Q2448.8 652.7 2452.53 648.325 Q2456.3 643.909 2456.3 636.618 L2456.3 634.957 L2448.88 634.957 M2463.75 631.878 L2463.75 657.763 L2456.3 657.763 L2456.3 650.877 Q2453.74 655.009 2449.94 656.994 Q2446.13 658.938 2440.62 658.938 Q2433.65 658.938 2429.52 655.049 Q2425.43 651.12 2425.43 644.557 Q2425.43 636.901 2430.53 633.012 Q2435.68 629.124 2445.85 629.124 L2456.3 629.124 L2456.3 628.394 Q2456.3 623.25 2452.89 620.455 Q2449.53 617.619 2443.41 617.619 Q2439.53 617.619 2435.84 618.551 Q2432.15 619.482 2428.75 621.346 L2428.75 614.459 Q2432.84 612.879 2436.69 612.11 Q2440.54 611.3 2444.18 611.3 Q2454.03 611.3 2458.89 616.404 Q2463.75 621.508 2463.75 631.878 Z" fill="#000000" fill-rule="evenodd" fill-opacity="1" /><path clip-path="url(#clip520)" d="M 0 0 M2506.89 621.103 Q2509.69 616.08 2513.58 613.69 Q2517.47 611.3 2522.73 611.3 Q2529.82 611.3 2533.67 616.282 Q2537.52 621.224 2537.52 630.379 L2537.52 657.763 L2530.02 657.763 L2530.02 630.622 Q2530.02 624.1 2527.71 620.941 Q2525.41 617.781 2520.67 617.781 Q2514.87 617.781 2511.51 621.629 Q2508.15 625.478 2508.15 632.121 L2508.15 657.763 L2500.65 657.763 L2500.65 630.622 Q2500.65 624.06 2498.35 620.941 Q2496.04 617.781 2491.22 617.781 Q2485.5 617.781 2482.14 621.67 Q2478.78 625.518 2478.78 632.121 L2478.78 657.763 L2471.29 657.763 L2471.29 612.393 L2478.78 612.393 L2478.78 619.442 Q2481.33 615.269 2484.9 613.285 Q2488.46 611.3 2493.36 611.3 Q2498.3 611.3 2501.75 613.811 Q2505.23 616.323 2506.89 621.103 Z" fill="#000000" fill-rule="evenodd" fill-opacity="1" /><path clip-path="url(#clip520)" d="M 0 0 M2584.14 633.215 L2584.14 636.861 L2549.87 636.861 Q2550.36 644.557 2554.49 648.608 Q2558.66 652.619 2566.08 652.619 Q2570.37 652.619 2574.38 651.566 Q2578.43 650.512 2582.4 648.406 L2582.4 655.454 Q2578.39 657.156 2574.18 658.047 Q2569.97 658.938 2565.63 658.938 Q2554.77 658.938 2548.41 652.619 Q2542.1 646.299 2542.1 635.524 Q2542.1 624.384 2548.09 617.862 Q2554.13 611.3 2564.33 611.3 Q2573.49 611.3 2578.8 617.214 Q2584.14 623.088 2584.14 633.215 M2576.69 631.027 Q2576.61 624.911 2573.25 621.265 Q2569.92 617.619 2564.42 617.619 Q2558.18 617.619 2554.41 621.143 Q2550.68 624.668 2550.12 631.068 L2576.69 631.027 Z" fill="#000000" fill-rule="evenodd" fill-opacity="1" /><path clip-path="url(#clip520)" d="M 0 0 M2599.33 599.511 L2599.33 612.393 L2614.69 612.393 L2614.69 618.186 L2599.33 618.186 L2599.33 642.816 Q2599.33 648.365 2600.83 649.945 Q2602.37 651.525 2607.03 651.525 L2614.69 651.525 L2614.69 657.763 L2607.03 657.763 Q2598.4 657.763 2595.12 654.563 Q2591.84 651.322 2591.84 642.816 L2591.84 618.186 L2586.37 618.186 L2586.37 612.393 L2591.84 612.393 L2591.84 599.511 L2599.33 599.511 Z" fill="#000000" fill-rule="evenodd" fill-opacity="1" /><path clip-path="url(#clip520)" d="M 0 0 M2661.31 633.215 L2661.31 636.861 L2627.04 636.861 Q2627.53 644.557 2631.66 648.608 Q2635.83 652.619 2643.25 652.619 Q2647.54 652.619 2651.55 651.566 Q2655.6 650.512 2659.57 648.406 L2659.57 655.454 Q2655.56 657.156 2651.35 658.047 Q2647.13 658.938 2642.8 658.938 Q2631.94 658.938 2625.58 652.619 Q2619.26 646.299 2619.26 635.524 Q2619.26 624.384 2625.26 617.862 Q2631.3 611.3 2641.5 611.3 Q2650.66 611.3 2655.97 617.214 Q2661.31 623.088 2661.31 633.215 M2653.86 631.027 Q2653.78 624.911 2650.42 621.265 Q2647.09 617.619 2641.59 617.619 Q2635.35 617.619 2631.58 621.143 Q2627.85 624.668 2627.29 631.068 L2653.86 631.027 Z" fill="#000000" fill-rule="evenodd" fill-opacity="1" /><path clip-path="url(#clip520)" d="M 0 0 M2695.42 619.361 Q2694.17 618.632 2692.67 618.308 Q2691.21 617.943 2689.43 617.943 Q2683.11 617.943 2679.7 622.075 Q2676.34 626.166 2676.34 633.863 L2676.34 657.763 L2668.85 657.763 L2668.85 612.393 L2676.34 612.393 L2676.34 619.442 Q2678.69 615.31 2682.46 613.325 Q2686.23 611.3 2691.61 611.3 Q2692.38 611.3 2693.32 611.421 Q2694.25 611.502 2695.38 611.705 L2695.42 619.361 Z" fill="#000000" fill-rule="evenodd" fill-opacity="1" /><path clip-path="url(#clip520)" d="M 0 0 M2732.16 613.73 L2732.16 620.779 Q2729 619.158 2725.6 618.348 Q2722.2 617.538 2718.55 617.538 Q2713 617.538 2710.21 619.239 Q2707.45 620.941 2707.45 624.343 Q2707.45 626.936 2709.44 628.435 Q2711.42 629.893 2717.42 631.23 L2719.97 631.797 Q2727.91 633.499 2731.23 636.618 Q2734.59 639.696 2734.59 645.246 Q2734.59 651.566 2729.57 655.252 Q2724.59 658.938 2715.84 658.938 Q2712.19 658.938 2708.22 658.209 Q2704.29 657.52 2699.92 656.103 L2699.92 648.406 Q2704.05 650.553 2708.06 651.647 Q2712.07 652.7 2716 652.7 Q2721.27 652.7 2724.1 650.917 Q2726.94 649.095 2726.94 645.813 Q2726.94 642.775 2724.87 641.155 Q2722.85 639.534 2715.92 638.036 L2713.33 637.428 Q2706.4 635.97 2703.32 632.972 Q2700.24 629.934 2700.24 624.668 Q2700.24 618.267 2704.78 614.783 Q2709.32 611.3 2717.66 611.3 Q2721.79 611.3 2725.44 611.907 Q2729.08 612.515 2732.16 613.73 Z" fill="#000000" fill-rule="evenodd" fill-opacity="1" /><path clip-path="url(#clip520)" d="M 0 0 M721.878 1176.17 L721.878 1184.8 Q717.746 1180.95 713.047 1179.05 Q708.388 1177.14 703.122 1177.14 Q692.752 1177.14 687.243 1183.5 Q681.733 1189.82 681.733 1201.81 Q681.733 1213.76 687.243 1220.12 Q692.752 1226.44 703.122 1226.44 Q708.388 1226.44 713.047 1224.54 Q717.746 1222.63 721.878 1218.78 L721.878 1227.33 Q717.584 1230.25 712.763 1231.71 Q707.983 1233.17 702.636 1233.17 Q688.904 1233.17 681.004 1224.78 Q673.105 1216.35 673.105 1201.81 Q673.105 1187.23 681.004 1178.84 Q688.904 1170.42 702.636 1170.42 Q708.064 1170.42 712.844 1171.88 Q717.665 1173.29 721.878 1176.17 Z" fill="#000000" fill-rule="evenodd" fill-opacity="1" /><path clip-path="url(#clip520)" d="M 0 0 M729.696 1168.96 L737.15 1168.96 L737.15 1231.99 L729.696 1231.99 L729.696 1168.96 Z" fill="#000000" fill-rule="evenodd" fill-opacity="1" /><path clip-path="url(#clip520)" d="M 0 0 M744.968 1186.62 L752.422 1186.62 L752.422 1231.99 L744.968 1231.99 L744.968 1186.62 M744.968 1168.96 L752.422 1168.96 L752.422 1178.4 L744.968 1178.4 L744.968 1168.96 Z" fill="#000000" fill-rule="evenodd" fill-opacity="1" /><path clip-path="url(#clip520)" d="M 0 0 M799.048 1207.44 L799.048 1211.09 L764.777 1211.09 Q765.263 1218.78 769.395 1222.84 Q773.567 1226.85 780.981 1226.85 Q785.275 1226.85 789.285 1225.79 Q793.336 1224.74 797.306 1222.63 L797.306 1229.68 Q793.295 1231.38 789.082 1232.27 Q784.869 1233.17 780.535 1233.17 Q769.679 1233.17 763.319 1226.85 Q756.999 1220.53 756.999 1209.75 Q756.999 1198.61 762.995 1192.09 Q769.03 1185.53 779.239 1185.53 Q788.394 1185.53 793.7 1191.44 Q799.048 1197.31 799.048 1207.44 M791.594 1205.25 Q791.513 1199.14 788.151 1195.49 Q784.829 1191.85 779.32 1191.85 Q773.081 1191.85 769.314 1195.37 Q765.587 1198.89 765.02 1205.29 L791.594 1205.25 Z" fill="#000000" fill-rule="evenodd" fill-opacity="1" /><path clip-path="url(#clip520)" d="M 0 0 M844.58 1204.61 L844.58 1231.99 L837.126 1231.99 L837.126 1204.85 Q837.126 1198.41 834.615 1195.21 Q832.103 1192.01 827.08 1192.01 Q821.044 1192.01 817.56 1195.86 Q814.076 1199.7 814.076 1206.35 L814.076 1231.99 L806.582 1231.99 L806.582 1186.62 L814.076 1186.62 L814.076 1193.67 Q816.75 1189.58 820.355 1187.55 Q824.001 1185.53 828.741 1185.53 Q836.559 1185.53 840.569 1190.39 Q844.58 1195.21 844.58 1204.61 Z" fill="#000000" fill-rule="evenodd" fill-opacity="1" /><path clip-path="url(#clip520)" d="M 0 0 M859.771 1173.74 L859.771 1186.62 L875.124 1186.62 L875.124 1192.41 L859.771 1192.41 L859.771 1217.04 Q859.771 1222.59 861.27 1224.17 Q862.809 1225.75 867.467 1225.75 L875.124 1225.75 L875.124 1231.99 L867.467 1231.99 Q858.839 1231.99 855.558 1228.79 Q852.277 1225.55 852.277 1217.04 L852.277 1192.41 L846.808 1192.41 L846.808 1186.62 L852.277 1186.62 L852.277 1173.74 L859.771 1173.74 Z" fill="#000000" fill-rule="evenodd" fill-opacity="1" /><path clip-path="url(#clip520)" d="M 0 0 M917.415 1245.76 L917.415 1251.56 L874.313 1251.56 L874.313 1245.76 L917.415 1245.76 Z" fill="#000000" fill-rule="evenodd" fill-opacity="1" /><path clip-path="url(#clip520)" d="M 0 0 M945.852 1209.18 Q936.819 1209.18 933.335 1211.25 Q929.851 1213.32 929.851 1218.3 Q929.851 1222.27 932.444 1224.62 Q935.077 1226.93 939.574 1226.93 Q945.771 1226.93 949.498 1222.55 Q953.266 1218.14 953.266 1210.84 L953.266 1209.18 L945.852 1209.18 M960.719 1206.11 L960.719 1231.99 L953.266 1231.99 L953.266 1225.1 Q950.713 1229.24 946.906 1231.22 Q943.098 1233.17 937.589 1233.17 Q930.621 1233.17 926.489 1229.28 Q922.398 1225.35 922.398 1218.78 Q922.398 1211.13 927.502 1207.24 Q932.646 1203.35 942.814 1203.35 L953.266 1203.35 L953.266 1202.62 Q953.266 1197.48 949.863 1194.68 Q946.501 1191.85 940.384 1191.85 Q936.495 1191.85 932.808 1192.78 Q929.122 1193.71 925.719 1195.57 L925.719 1188.69 Q929.811 1187.11 933.659 1186.34 Q937.508 1185.53 941.153 1185.53 Q950.997 1185.53 955.858 1190.63 Q960.719 1195.73 960.719 1206.11 Z" fill="#000000" fill-rule="evenodd" fill-opacity="1" /><path clip-path="url(#clip520)" d="M 0 0 M1006.25 1204.61 L1006.25 1231.99 L998.798 1231.99 L998.798 1204.85 Q998.798 1198.41 996.286 1195.21 Q993.775 1192.01 988.751 1192.01 Q982.716 1192.01 979.232 1195.86 Q975.748 1199.7 975.748 1206.35 L975.748 1231.99 L968.254 1231.99 L968.254 1186.62 L975.748 1186.62 L975.748 1193.67 Q978.422 1189.58 982.027 1187.55 Q985.673 1185.53 990.412 1185.53 Q998.231 1185.53 1002.24 1190.39 Q1006.25 1195.21 1006.25 1204.61 Z" fill="#000000" fill-rule="evenodd" fill-opacity="1" /><path clip-path="url(#clip520)" d="M 0 0 M1043.92 1193.51 L1043.92 1168.96 L1051.38 1168.96 L1051.38 1231.99 L1043.92 1231.99 L1043.92 1225.18 Q1041.58 1229.24 1037.97 1231.22 Q1034.41 1233.17 1029.38 1233.17 Q1021.16 1233.17 1015.97 1226.6 Q1010.83 1220.04 1010.83 1209.35 Q1010.83 1198.65 1015.97 1192.09 Q1021.16 1185.53 1029.38 1185.53 Q1034.41 1185.53 1037.97 1187.51 Q1041.58 1189.46 1043.92 1193.51 M1018.53 1209.35 Q1018.53 1217.57 1021.89 1222.27 Q1025.29 1226.93 1031.2 1226.93 Q1037.12 1226.93 1040.52 1222.27 Q1043.92 1217.57 1043.92 1209.35 Q1043.92 1201.12 1040.52 1196.46 Q1037.12 1191.76 1031.2 1191.76 Q1025.29 1191.76 1021.89 1196.46 Q1018.53 1201.12 1018.53 1209.35 Z" fill="#000000" fill-rule="evenodd" fill-opacity="1" /><path clip-path="url(#clip520)" d="M 0 0 M1093.67 1245.76 L1093.67 1251.56 L1050.57 1251.56 L1050.57 1245.76 L1093.67 1245.76 Z" fill="#000000" fill-rule="evenodd" fill-opacity="1" /><path clip-path="url(#clip520)" d="M 0 0 M1147.1 1176.17 L1147.1 1184.8 Q1142.97 1180.95 1138.27 1179.05 Q1133.61 1177.14 1128.35 1177.14 Q1117.98 1177.14 1112.47 1183.5 Q1106.96 1189.82 1106.96 1201.81 Q1106.96 1213.76 1112.47 1220.12 Q1117.98 1226.44 1128.35 1226.44 Q1133.61 1226.44 1138.27 1224.54 Q1142.97 1222.63 1147.1 1218.78 L1147.1 1227.33 Q1142.81 1230.25 1137.99 1231.71 Q1133.21 1233.17 1127.86 1233.17 Q1114.13 1233.17 1106.23 1224.78 Q1098.33 1216.35 1098.33 1201.81 Q1098.33 1187.23 1106.23 1178.84 Q1114.13 1170.42 1127.86 1170.42 Q1133.29 1170.42 1138.07 1171.88 Q1142.89 1173.29 1147.1 1176.17 Z" fill="#000000" fill-rule="evenodd" fill-opacity="1" /><path clip-path="url(#clip520)" d="M 0 0 M1172.5 1191.85 Q1166.51 1191.85 1163.02 1196.55 Q1159.54 1201.2 1159.54 1209.35 Q1159.54 1217.49 1162.98 1222.19 Q1166.46 1226.85 1172.5 1226.85 Q1178.46 1226.85 1181.94 1222.15 Q1185.42 1217.45 1185.42 1209.35 Q1185.42 1201.28 1181.94 1196.59 Q1178.46 1191.85 1172.5 1191.85 M1172.5 1185.53 Q1182.22 1185.53 1187.77 1191.85 Q1193.32 1198.17 1193.32 1209.35 Q1193.32 1220.49 1187.77 1226.85 Q1182.22 1233.17 1172.5 1233.17 Q1162.74 1233.17 1157.19 1226.85 Q1151.68 1220.49 1151.68 1209.35 Q1151.68 1198.17 1157.19 1191.85 Q1162.74 1185.53 1172.5 1185.53 Z" fill="#000000" fill-rule="evenodd" fill-opacity="1" /><path clip-path="url(#clip520)" d="M 0 0 M1238.85 1204.61 L1238.85 1231.99 L1231.4 1231.99 L1231.4 1204.85 Q1231.4 1198.41 1228.89 1195.21 Q1226.38 1192.01 1221.35 1192.01 Q1215.32 1192.01 1211.83 1195.86 Q1208.35 1199.7 1208.35 1206.35 L1208.35 1231.99 L1200.86 1231.99 L1200.86 1186.62 L1208.35 1186.62 L1208.35 1193.67 Q1211.02 1189.58 1214.63 1187.55 Q1218.28 1185.53 1223.02 1185.53 Q1230.83 1185.53 1234.84 1190.39 Q1238.85 1195.21 1238.85 1204.61 Z" fill="#000000" fill-rule="evenodd" fill-opacity="1" /><path clip-path="url(#clip520)" d="M 0 0 M1275.6 1187.96 L1275.6 1195.01 Q1272.44 1193.39 1269.03 1192.58 Q1265.63 1191.76 1261.98 1191.76 Q1256.44 1191.76 1253.64 1193.47 Q1250.89 1195.17 1250.89 1198.57 Q1250.89 1201.16 1252.87 1202.66 Q1254.86 1204.12 1260.85 1205.46 L1263.4 1206.02 Q1271.34 1207.73 1274.66 1210.84 Q1278.03 1213.92 1278.03 1219.47 Q1278.03 1225.79 1273 1229.48 Q1268.02 1233.17 1259.27 1233.17 Q1255.63 1233.17 1251.66 1232.44 Q1247.73 1231.75 1243.35 1230.33 L1243.35 1222.63 Q1247.48 1224.78 1251.49 1225.87 Q1255.5 1226.93 1259.43 1226.93 Q1264.7 1226.93 1267.53 1225.14 Q1270.37 1223.32 1270.37 1220.04 Q1270.37 1217 1268.3 1215.38 Q1266.28 1213.76 1259.35 1212.26 L1256.76 1211.65 Q1249.83 1210.2 1246.75 1207.2 Q1243.67 1204.16 1243.67 1198.89 Q1243.67 1192.49 1248.21 1189.01 Q1252.75 1185.53 1261.09 1185.53 Q1265.23 1185.53 1268.87 1186.13 Q1272.52 1186.74 1275.6 1187.96 Z" fill="#000000" fill-rule="evenodd" fill-opacity="1" /><path clip-path="url(#clip520)" d="M 0 0 M1285.08 1214.09 L1285.08 1186.62 L1292.53 1186.62 L1292.53 1213.8 Q1292.53 1220.24 1295.04 1223.48 Q1297.55 1226.68 1302.58 1226.68 Q1308.61 1226.68 1312.09 1222.84 Q1315.62 1218.99 1315.62 1212.34 L1315.62 1186.62 L1323.07 1186.62 L1323.07 1231.99 L1315.62 1231.99 L1315.62 1225.02 Q1312.9 1229.15 1309.3 1231.18 Q1305.73 1233.17 1301 1233.17 Q1293.18 1233.17 1289.13 1228.3 Q1285.08 1223.44 1285.08 1214.09 M1303.83 1185.53 L1303.83 1185.53 Z" fill="#000000" fill-rule="evenodd" fill-opacity="1" /><path clip-path="url(#clip520)" d="M 0 0 M1330.89 1168.96 L1338.34 1168.96 L1338.34 1231.99 L1330.89 1231.99 L1330.89 1168.96 Z" fill="#000000" fill-rule="evenodd" fill-opacity="1" /><path clip-path="url(#clip520)" d="M 0 0 M1353.54 1173.74 L1353.54 1186.62 L1368.89 1186.62 L1368.89 1192.41 L1353.54 1192.41 L1353.54 1217.04 Q1353.54 1222.59 1355.03 1224.17 Q1356.57 1225.75 1361.23 1225.75 L1368.89 1225.75 L1368.89 1231.99 L1361.23 1231.99 Q1352.6 1231.99 1349.32 1228.79 Q1346.04 1225.55 1346.04 1217.04 L1346.04 1192.41 L1340.57 1192.41 L1340.57 1186.62 L1346.04 1186.62 L1346.04 1173.74 L1353.54 1173.74 Z" fill="#000000" fill-rule="evenodd" fill-opacity="1" /><path clip-path="url(#clip520)" d="M 0 0 M1397.33 1209.18 Q1388.29 1209.18 1384.81 1211.25 Q1381.32 1213.32 1381.32 1218.3 Q1381.32 1222.27 1383.92 1224.62 Q1386.55 1226.93 1391.05 1226.93 Q1397.24 1226.93 1400.97 1222.55 Q1404.74 1218.14 1404.74 1210.84 L1404.74 1209.18 L1397.33 1209.18 M1412.19 1206.11 L1412.19 1231.99 L1404.74 1231.99 L1404.74 1225.1 Q1402.19 1229.24 1398.38 1231.22 Q1394.57 1233.17 1389.06 1233.17 Q1382.09 1233.17 1377.96 1229.28 Q1373.87 1225.35 1373.87 1218.78 Q1373.87 1211.13 1378.98 1207.24 Q1384.12 1203.35 1394.29 1203.35 L1404.74 1203.35 L1404.74 1202.62 Q1404.74 1197.48 1401.34 1194.68 Q1397.97 1191.85 1391.86 1191.85 Q1387.97 1191.85 1384.28 1192.78 Q1380.6 1193.71 1377.19 1195.57 L1377.19 1188.69 Q1381.28 1187.11 1385.13 1186.34 Q1388.98 1185.53 1392.63 1185.53 Q1402.47 1185.53 1407.33 1190.63 Q1412.19 1195.73 1412.19 1206.11 Z" fill="#000000" fill-rule="evenodd" fill-opacity="1" /><path clip-path="url(#clip520)" d="M 0 0 M1457.72 1204.61 L1457.72 1231.99 L1450.27 1231.99 L1450.27 1204.85 Q1450.27 1198.41 1447.76 1195.21 Q1445.25 1192.01 1440.22 1192.01 Q1434.19 1192.01 1430.71 1195.86 Q1427.22 1199.7 1427.22 1206.35 L1427.22 1231.99 L1419.73 1231.99 L1419.73 1186.62 L1427.22 1186.62 L1427.22 1193.67 Q1429.89 1189.58 1433.5 1187.55 Q1437.15 1185.53 1441.89 1185.53 Q1449.7 1185.53 1453.71 1190.39 Q1457.72 1195.21 1457.72 1204.61 Z" fill="#000000" fill-rule="evenodd" fill-opacity="1" /><path clip-path="url(#clip520)" d="M 0 0 M1472.92 1173.74 L1472.92 1186.62 L1488.27 1186.62 L1488.27 1192.41 L1472.92 1192.41 L1472.92 1217.04 Q1472.92 1222.59 1474.41 1224.17 Q1475.95 1225.75 1480.61 1225.75 L1488.27 1225.75 L1488.27 1231.99 L1480.61 1231.99 Q1471.98 1231.99 1468.7 1228.79 Q1465.42 1225.55 1465.42 1217.04 L1465.42 1192.41 L1459.95 1192.41 L1459.95 1186.62 L1465.42 1186.62 L1465.42 1173.74 L1472.92 1173.74 Z" fill="#000000" fill-rule="evenodd" fill-opacity="1" /><path clip-path="url(#clip520)" d="M 0 0 M1530.56 1245.76 L1530.56 1251.56 L1487.46 1251.56 L1487.46 1245.76 L1530.56 1245.76 Z" fill="#000000" fill-rule="evenodd" fill-opacity="1" /><path clip-path="url(#clip520)" d="M 0 0 M1567.38 1203.63 Q1570.02 1204.53 1572.49 1207.44 Q1575 1210.36 1577.51 1215.46 L1585.81 1231.99 L1577.02 1231.99 L1569.29 1216.48 Q1566.29 1210.4 1563.45 1208.41 Q1560.66 1206.43 1555.8 1206.43 L1546.89 1206.43 L1546.89 1231.99 L1538.7 1231.99 L1538.7 1171.51 L1557.17 1171.51 Q1567.54 1171.51 1572.65 1175.84 Q1577.75 1180.18 1577.75 1188.93 Q1577.75 1194.64 1575.08 1198.41 Q1572.45 1202.18 1567.38 1203.63 M1546.89 1178.23 L1546.89 1199.7 L1557.17 1199.7 Q1563.09 1199.7 1566.09 1196.99 Q1569.12 1194.24 1569.12 1188.93 Q1569.12 1183.62 1566.09 1180.95 Q1563.09 1178.23 1557.17 1178.23 L1546.89 1178.23 Z" fill="#000000" fill-rule="evenodd" fill-opacity="1" /><path clip-path="url(#clip520)" d="M 0 0 M1628.71 1207.44 L1628.71 1211.09 L1594.44 1211.09 Q1594.93 1218.78 1599.06 1222.84 Q1603.23 1226.85 1610.65 1226.85 Q1614.94 1226.85 1618.95 1225.79 Q1623 1224.74 1626.97 1222.63 L1626.97 1229.68 Q1622.96 1231.38 1618.75 1232.27 Q1614.54 1233.17 1610.2 1233.17 Q1599.34 1233.17 1592.98 1226.85 Q1586.66 1220.53 1586.66 1209.75 Q1586.66 1198.61 1592.66 1192.09 Q1598.7 1185.53 1608.9 1185.53 Q1618.06 1185.53 1623.37 1191.44 Q1628.71 1197.31 1628.71 1207.44 M1621.26 1205.25 Q1621.18 1199.14 1617.82 1195.49 Q1614.49 1191.85 1608.99 1191.85 Q1602.75 1191.85 1598.98 1195.37 Q1595.25 1198.89 1594.69 1205.29 L1621.26 1205.25 Z" fill="#000000" fill-rule="evenodd" fill-opacity="1" /><path clip-path="url(#clip520)" d="M 0 0 M1640.99 1209.35 Q1640.99 1217.57 1644.35 1222.27 Q1647.75 1226.93 1653.67 1226.93 Q1659.58 1226.93 1662.98 1222.27 Q1666.39 1217.57 1666.39 1209.35 Q1666.39 1201.12 1662.98 1196.46 Q1659.58 1191.76 1653.67 1191.76 Q1647.75 1191.76 1644.35 1196.46 Q1640.99 1201.12 1640.99 1209.35 M1666.39 1225.18 Q1664.04 1229.24 1660.43 1231.22 Q1656.87 1233.17 1651.84 1233.17 Q1643.62 1233.17 1638.44 1226.6 Q1633.29 1220.04 1633.29 1209.35 Q1633.29 1198.65 1638.44 1192.09 Q1643.62 1185.53 1651.84 1185.53 Q1656.87 1185.53 1660.43 1187.51 Q1664.04 1189.46 1666.39 1193.51 L1666.39 1186.62 L1673.84 1186.62 L1673.84 1249.25 L1666.39 1249.25 L1666.39 1225.18 Z" fill="#000000" fill-rule="evenodd" fill-opacity="1" /><path clip-path="url(#clip520)" d="M 0 0 M1680.89 1214.09 L1680.89 1186.62 L1688.34 1186.62 L1688.34 1213.8 Q1688.34 1220.24 1690.85 1223.48 Q1693.37 1226.68 1698.39 1226.68 Q1704.42 1226.68 1707.91 1222.84 Q1711.43 1218.99 1711.43 1212.34 L1711.43 1186.62 L1718.89 1186.62 L1718.89 1231.99 L1711.43 1231.99 L1711.43 1225.02 Q1708.72 1229.15 1705.11 1231.18 Q1701.55 1233.17 1696.81 1233.17 Q1688.99 1233.17 1684.94 1228.3 Q1680.89 1223.44 1680.89 1214.09 M1699.64 1185.53 L1699.64 1185.53 Z" fill="#000000" fill-rule="evenodd" fill-opacity="1" /><path clip-path="url(#clip520)" d="M 0 0 M1765.51 1207.44 L1765.51 1211.09 L1731.24 1211.09 Q1731.73 1218.78 1735.86 1222.84 Q1740.03 1226.85 1747.45 1226.85 Q1751.74 1226.85 1755.75 1225.79 Q1759.8 1224.74 1763.77 1222.63 L1763.77 1229.68 Q1759.76 1231.38 1755.55 1232.27 Q1751.33 1233.17 1747 1233.17 Q1736.14 1233.17 1729.78 1226.85 Q1723.46 1220.53 1723.46 1209.75 Q1723.46 1198.61 1729.46 1192.09 Q1735.5 1185.53 1745.7 1185.53 Q1754.86 1185.53 1760.17 1191.44 Q1765.51 1197.31 1765.51 1207.44 M1758.06 1205.25 Q1757.98 1199.14 1754.62 1195.49 Q1751.29 1191.85 1745.78 1191.85 Q1739.55 1191.85 1735.78 1195.37 Q1732.05 1198.89 1731.48 1205.29 L1758.06 1205.25 Z" fill="#000000" fill-rule="evenodd" fill-opacity="1" /><path clip-path="url(#clip520)" d="M 0 0 M1802.25 1187.96 L1802.25 1195.01 Q1799.09 1193.39 1795.69 1192.58 Q1792.29 1191.76 1788.64 1191.76 Q1783.09 1191.76 1780.3 1193.47 Q1777.54 1195.17 1777.54 1198.57 Q1777.54 1201.16 1779.53 1202.66 Q1781.51 1204.12 1787.51 1205.46 L1790.06 1206.02 Q1798 1207.73 1801.32 1210.84 Q1804.68 1213.92 1804.68 1219.47 Q1804.68 1225.79 1799.66 1229.48 Q1794.68 1233.17 1785.93 1233.17 Q1782.28 1233.17 1778.31 1232.44 Q1774.38 1231.75 1770.01 1230.33 L1770.01 1222.63 Q1774.14 1224.78 1778.15 1225.87 Q1782.16 1226.93 1786.09 1226.93 Q1791.36 1226.93 1794.19 1225.14 Q1797.03 1223.32 1797.03 1220.04 Q1797.03 1217 1794.96 1215.38 Q1792.94 1213.76 1786.01 1212.26 L1783.42 1211.65 Q1776.49 1210.2 1773.41 1207.2 Q1770.33 1204.16 1770.33 1198.89 Q1770.33 1192.49 1774.87 1189.01 Q1779.41 1185.53 1787.75 1185.53 Q1791.88 1185.53 1795.53 1186.13 Q1799.18 1186.74 1802.25 1187.96 Z" fill="#000000" fill-rule="evenodd" fill-opacity="1" /><path clip-path="url(#clip520)" d="M 0 0 M1819.88 1173.74 L1819.88 1186.62 L1835.23 1186.62 L1835.23 1192.41 L1819.88 1192.41 L1819.88 1217.04 Q1819.88 1222.59 1821.37 1224.17 Q1822.91 1225.75 1827.57 1225.75 L1835.23 1225.75 L1835.23 1231.99 L1827.57 1231.99 Q1818.94 1231.99 1815.66 1228.79 Q1812.38 1225.55 1812.38 1217.04 L1812.38 1192.41 L1806.91 1192.41 L1806.91 1186.62 L1812.38 1186.62 L1812.38 1173.74 L1819.88 1173.74 Z" fill="#000000" fill-rule="evenodd" fill-opacity="1" /><path clip-path="url(#clip520)" d="M 0 0 M1871.97 1187.96 L1871.97 1195.01 Q1868.81 1193.39 1865.41 1192.58 Q1862 1191.76 1858.36 1191.76 Q1852.81 1191.76 1850.01 1193.47 Q1847.26 1195.17 1847.26 1198.57 Q1847.26 1201.16 1849.24 1202.66 Q1851.23 1204.12 1857.22 1205.46 L1859.78 1206.02 Q1867.72 1207.73 1871.04 1210.84 Q1874.4 1213.92 1874.4 1219.47 Q1874.4 1225.79 1869.38 1229.48 Q1864.39 1233.17 1855.64 1233.17 Q1852 1233.17 1848.03 1232.44 Q1844.1 1231.75 1839.72 1230.33 L1839.72 1222.63 Q1843.86 1224.78 1847.87 1225.87 Q1851.88 1226.93 1855.81 1226.93 Q1861.07 1226.93 1863.91 1225.14 Q1866.74 1223.32 1866.74 1220.04 Q1866.74 1217 1864.68 1215.38 Q1862.65 1213.76 1855.73 1212.26 L1853.13 1211.65 Q1846.21 1210.2 1843.13 1207.2 Q1840.05 1204.16 1840.05 1198.89 Q1840.05 1192.49 1844.59 1189.01 Q1849.12 1185.53 1857.47 1185.53 Q1861.6 1185.53 1865.25 1186.13 Q1868.89 1186.74 1871.97 1187.96 Z" fill="#000000" fill-rule="evenodd" fill-opacity="1" /><path clip-path="url(#clip520)" d="M 0 0 M1965.23 1053.94 L1965.23 1100.97 L1975.11 1100.97 Q1987.63 1100.97 1993.42 1095.3 Q1999.25 1089.63 1999.25 1077.39 Q1999.25 1065.24 1993.42 1059.61 Q1987.63 1053.94 1975.11 1053.94 L1965.23 1053.94 M1957.04 1047.21 L1973.86 1047.21 Q1991.44 1047.21 1999.66 1054.55 Q2007.88 1061.84 2007.88 1077.39 Q2007.88 1093.03 1999.62 1100.36 Q1991.35 1107.69 1973.86 1107.69 L1957.04 1107.69 L1957.04 1047.21 Z" fill="#000000" fill-rule="evenodd" fill-opacity="1" /><path clip-path="url(#clip520)" d="M 0 0 M2054.51 1083.15 L2054.51 1086.79 L2020.24 1086.79 Q2020.72 1094.49 2024.86 1098.54 Q2029.03 1102.55 2036.44 1102.55 Q2040.74 1102.55 2044.75 1101.5 Q2048.8 1100.44 2052.77 1098.34 L2052.77 1105.39 Q2048.76 1107.09 2044.54 1107.98 Q2040.33 1108.87 2036 1108.87 Q2025.14 1108.87 2018.78 1102.55 Q2012.46 1096.23 2012.46 1085.45 Q2012.46 1074.31 2018.46 1067.79 Q2024.49 1061.23 2034.7 1061.23 Q2043.85 1061.23 2049.16 1067.14 Q2054.51 1073.02 2054.51 1083.15 M2047.05 1080.96 Q2046.97 1074.84 2043.61 1071.2 Q2040.29 1067.55 2034.78 1067.55 Q2028.54 1067.55 2024.77 1071.07 Q2021.05 1074.6 2020.48 1081 L2047.05 1080.96 Z" fill="#000000" fill-rule="evenodd" fill-opacity="1" /><path clip-path="url(#clip520)" d="M 0 0 M2091.25 1063.66 L2091.25 1070.71 Q2088.09 1069.09 2084.69 1068.28 Q2081.28 1067.47 2077.64 1067.47 Q2072.09 1067.47 2069.29 1069.17 Q2066.54 1070.87 2066.54 1074.27 Q2066.54 1076.87 2068.52 1078.37 Q2070.51 1079.82 2076.5 1081.16 L2079.06 1081.73 Q2087 1083.43 2090.32 1086.55 Q2093.68 1089.63 2093.68 1095.18 Q2093.68 1101.5 2088.66 1105.18 Q2083.68 1108.87 2074.93 1108.87 Q2071.28 1108.87 2067.31 1108.14 Q2063.38 1107.45 2059.01 1106.03 L2059.01 1098.34 Q2063.14 1100.48 2067.15 1101.58 Q2071.16 1102.63 2075.09 1102.63 Q2080.35 1102.63 2083.19 1100.85 Q2086.02 1099.03 2086.02 1095.74 Q2086.02 1092.71 2083.96 1091.09 Q2081.93 1089.46 2075.01 1087.97 L2072.41 1087.36 Q2065.49 1085.9 2062.41 1082.9 Q2059.33 1079.86 2059.33 1074.6 Q2059.33 1068.2 2063.87 1064.71 Q2068.4 1061.23 2076.75 1061.23 Q2080.88 1061.23 2084.53 1061.84 Q2088.17 1062.45 2091.25 1063.66 Z" fill="#000000" fill-rule="evenodd" fill-opacity="1" /><path clip-path="url(#clip520)" d="M 0 0 M2101.5 1062.32 L2108.95 1062.32 L2108.95 1107.69 L2101.5 1107.69 L2101.5 1062.32 M2101.5 1044.66 L2108.95 1044.66 L2108.95 1054.1 L2101.5 1054.1 L2101.5 1044.66 Z" fill="#000000" fill-rule="evenodd" fill-opacity="1" /><path clip-path="url(#clip520)" d="M 0 0 M2146.63 1084.48 Q2146.63 1076.38 2143.26 1071.92 Q2139.94 1067.47 2133.91 1067.47 Q2127.91 1067.47 2124.55 1071.92 Q2121.23 1076.38 2121.23 1084.48 Q2121.23 1092.54 2124.55 1097 Q2127.91 1101.46 2133.91 1101.46 Q2139.94 1101.46 2143.26 1097 Q2146.63 1092.54 2146.63 1084.48 M2154.08 1102.06 Q2154.08 1113.65 2148.94 1119.28 Q2143.79 1124.95 2133.18 1124.95 Q2129.25 1124.95 2125.76 1124.34 Q2122.28 1123.78 2119 1122.56 L2119 1115.31 Q2122.28 1117.09 2125.48 1117.94 Q2128.68 1118.79 2132 1118.79 Q2139.33 1118.79 2142.98 1114.95 Q2146.63 1111.14 2146.63 1103.4 L2146.63 1099.71 Q2144.32 1103.72 2140.71 1105.71 Q2137.11 1107.69 2132.08 1107.69 Q2123.74 1107.69 2118.63 1101.33 Q2113.53 1094.97 2113.53 1084.48 Q2113.53 1073.95 2118.63 1067.59 Q2123.74 1061.23 2132.08 1061.23 Q2137.11 1061.23 2140.71 1063.22 Q2144.32 1065.2 2146.63 1069.21 L2146.63 1062.32 L2154.08 1062.32 L2154.08 1102.06 Z" fill="#000000" fill-rule="evenodd" fill-opacity="1" /><path clip-path="url(#clip520)" d="M 0 0 M2199.61 1080.31 L2199.61 1107.69 L2192.16 1107.69 L2192.16 1080.55 Q2192.16 1074.11 2189.65 1070.91 Q2187.14 1067.71 2182.11 1067.71 Q2176.08 1067.71 2172.59 1071.56 Q2169.11 1075.41 2169.11 1082.05 L2169.11 1107.69 L2161.61 1107.69 L2161.61 1062.32 L2169.11 1062.32 L2169.11 1069.37 Q2171.78 1065.28 2175.39 1063.26 Q2179.03 1061.23 2183.77 1061.23 Q2191.59 1061.23 2195.6 1066.09 Q2199.61 1070.91 2199.61 1080.31 Z" fill="#000000" fill-rule="evenodd" fill-opacity="1" /><path clip-path="url(#clip520)" d="M 0 0 M2241.9 1121.47 L2241.9 1127.26 L2198.8 1127.26 L2198.8 1121.47 L2241.9 1121.47 Z" fill="#000000" fill-rule="evenodd" fill-opacity="1" /><path clip-path="url(#clip520)" d="M 0 0 M2278.73 1079.34 Q2281.36 1080.23 2283.83 1083.15 Q2286.34 1086.06 2288.85 1091.17 L2297.16 1107.69 L2288.37 1107.69 L2280.63 1092.18 Q2277.63 1086.1 2274.8 1084.12 Q2272 1082.13 2267.14 1082.13 L2258.23 1082.13 L2258.23 1107.69 L2250.05 1107.69 L2250.05 1047.21 L2268.52 1047.21 Q2278.89 1047.21 2283.99 1051.55 Q2289.1 1055.88 2289.1 1064.63 Q2289.1 1070.34 2286.42 1074.11 Q2283.79 1077.88 2278.73 1079.34 M2258.23 1053.94 L2258.23 1075.41 L2268.52 1075.41 Q2274.43 1075.41 2277.43 1072.69 Q2280.47 1069.94 2280.47 1064.63 Q2280.47 1059.33 2277.43 1056.65 Q2274.43 1053.94 2268.52 1053.94 L2258.23 1053.94 Z" fill="#000000" fill-rule="evenodd" fill-opacity="1" /><path clip-path="url(#clip520)" d="M 0 0 M2340.06 1083.15 L2340.06 1086.79 L2305.79 1086.79 Q2306.27 1094.49 2310.4 1098.54 Q2314.58 1102.55 2321.99 1102.55 Q2326.28 1102.55 2330.29 1101.5 Q2334.34 1100.44 2338.31 1098.34 L2338.31 1105.39 Q2334.3 1107.09 2330.09 1107.98 Q2325.88 1108.87 2321.54 1108.87 Q2310.69 1108.87 2304.33 1102.55 Q2298.01 1096.23 2298.01 1085.45 Q2298.01 1074.31 2304 1067.79 Q2310.04 1061.23 2320.25 1061.23 Q2329.4 1061.23 2334.71 1067.14 Q2340.06 1073.02 2340.06 1083.15 M2332.6 1080.96 Q2332.52 1074.84 2329.16 1071.2 Q2325.84 1067.55 2320.33 1067.55 Q2314.09 1067.55 2310.32 1071.07 Q2306.6 1074.6 2306.03 1081 L2332.6 1080.96 Z" fill="#000000" fill-rule="evenodd" fill-opacity="1" /><path clip-path="url(#clip520)" d="M 0 0 M2368.49 1084.89 Q2359.46 1084.89 2355.98 1086.95 Q2352.49 1089.02 2352.49 1094 Q2352.49 1097.97 2355.09 1100.32 Q2357.72 1102.63 2362.22 1102.63 Q2368.41 1102.63 2372.14 1098.26 Q2375.91 1093.84 2375.91 1086.55 L2375.91 1084.89 L2368.49 1084.89 M2383.36 1081.81 L2383.36 1107.69 L2375.91 1107.69 L2375.91 1100.81 Q2373.36 1104.94 2369.55 1106.92 Q2365.74 1108.87 2360.23 1108.87 Q2353.26 1108.87 2349.13 1104.98 Q2345.04 1101.05 2345.04 1094.49 Q2345.04 1086.83 2350.14 1082.94 Q2355.29 1079.05 2365.46 1079.05 L2375.91 1079.05 L2375.91 1078.32 Q2375.91 1073.18 2372.5 1070.39 Q2369.14 1067.55 2363.03 1067.55 Q2359.14 1067.55 2355.45 1068.48 Q2351.76 1069.41 2348.36 1071.28 L2348.36 1064.39 Q2352.45 1062.81 2356.3 1062.04 Q2360.15 1061.23 2363.8 1061.23 Q2373.64 1061.23 2378.5 1066.33 Q2383.36 1071.44 2383.36 1081.81 Z" fill="#000000" fill-rule="evenodd" fill-opacity="1" /><path clip-path="url(#clip520)" d="M 0 0 M2420.1 1063.66 L2420.1 1070.71 Q2416.94 1069.09 2413.54 1068.28 Q2410.14 1067.47 2406.49 1067.47 Q2400.94 1067.47 2398.15 1069.17 Q2395.39 1070.87 2395.39 1074.27 Q2395.39 1076.87 2397.38 1078.37 Q2399.36 1079.82 2405.36 1081.16 L2407.91 1081.73 Q2415.85 1083.43 2419.17 1086.55 Q2422.53 1089.63 2422.53 1095.18 Q2422.53 1101.5 2417.51 1105.18 Q2412.53 1108.87 2403.78 1108.87 Q2400.13 1108.87 2396.16 1108.14 Q2392.23 1107.45 2387.86 1106.03 L2387.86 1098.34 Q2391.99 1100.48 2396 1101.58 Q2400.01 1102.63 2403.94 1102.63 Q2409.21 1102.63 2412.04 1100.85 Q2414.88 1099.03 2414.88 1095.74 Q2414.88 1092.71 2412.81 1091.09 Q2410.79 1089.46 2403.86 1087.97 L2401.27 1087.36 Q2394.34 1085.9 2391.26 1082.9 Q2388.18 1079.86 2388.18 1074.6 Q2388.18 1068.2 2392.72 1064.71 Q2397.26 1061.23 2405.6 1061.23 Q2409.73 1061.23 2413.38 1061.84 Q2417.02 1062.45 2420.1 1063.66 Z" fill="#000000" fill-rule="evenodd" fill-opacity="1" /><path clip-path="url(#clip520)" d="M 0 0 M2447.93 1067.55 Q2441.94 1067.55 2438.45 1072.25 Q2434.97 1076.91 2434.97 1085.05 Q2434.97 1093.19 2438.41 1097.89 Q2441.9 1102.55 2447.93 1102.55 Q2453.89 1102.55 2457.37 1097.85 Q2460.85 1093.15 2460.85 1085.05 Q2460.85 1076.99 2457.37 1072.29 Q2453.89 1067.55 2447.93 1067.55 M2447.93 1061.23 Q2457.65 1061.23 2463.2 1067.55 Q2468.75 1073.87 2468.75 1085.05 Q2468.75 1096.19 2463.2 1102.55 Q2457.65 1108.87 2447.93 1108.87 Q2438.17 1108.87 2432.62 1102.55 Q2427.11 1096.19 2427.11 1085.05 Q2427.11 1073.87 2432.62 1067.55 Q2438.17 1061.23 2447.93 1061.23 Z" fill="#000000" fill-rule="evenodd" fill-opacity="1" /><path clip-path="url(#clip520)" d="M 0 0 M2514.29 1080.31 L2514.29 1107.69 L2506.83 1107.69 L2506.83 1080.55 Q2506.83 1074.11 2504.32 1070.91 Q2501.81 1067.71 2496.79 1067.71 Q2490.75 1067.71 2487.27 1071.56 Q2483.78 1075.41 2483.78 1082.05 L2483.78 1107.69 L2476.29 1107.69 L2476.29 1062.32 L2483.78 1062.32 L2483.78 1069.37 Q2486.46 1065.28 2490.06 1063.26 Q2493.71 1061.23 2498.45 1061.23 Q2506.27 1061.23 2510.28 1066.09 Q2514.29 1070.91 2514.29 1080.31 Z" fill="#000000" fill-rule="evenodd" fill-opacity="1" /><path clip-path="url(#clip520)" d="M 0 0 M2522.1 1062.32 L2529.56 1062.32 L2529.56 1107.69 L2522.1 1107.69 L2522.1 1062.32 M2522.1 1044.66 L2529.56 1044.66 L2529.56 1054.1 L2522.1 1054.1 L2522.1 1044.66 Z" fill="#000000" fill-rule="evenodd" fill-opacity="1" /><path clip-path="url(#clip520)" d="M 0 0 M2575.09 1080.31 L2575.09 1107.69 L2567.64 1107.69 L2567.64 1080.55 Q2567.64 1074.11 2565.12 1070.91 Q2562.61 1067.71 2557.59 1067.71 Q2551.55 1067.71 2548.07 1071.56 Q2544.59 1075.41 2544.59 1082.05 L2544.59 1107.69 L2537.09 1107.69 L2537.09 1062.32 L2544.59 1062.32 L2544.59 1069.37 Q2547.26 1065.28 2550.87 1063.26 Q2554.51 1061.23 2559.25 1061.23 Q2567.07 1061.23 2571.08 1066.09 Q2575.09 1070.91 2575.09 1080.31 Z" fill="#000000" fill-rule="evenodd" fill-opacity="1" /><path clip-path="url(#clip520)" d="M 0 0 M2612.76 1084.48 Q2612.76 1076.38 2609.4 1071.92 Q2606.08 1067.47 2600.04 1067.47 Q2594.05 1067.47 2590.69 1071.92 Q2587.36 1076.38 2587.36 1084.48 Q2587.36 1092.54 2590.69 1097 Q2594.05 1101.46 2600.04 1101.46 Q2606.08 1101.46 2609.4 1097 Q2612.76 1092.54 2612.76 1084.48 M2620.22 1102.06 Q2620.22 1113.65 2615.07 1119.28 Q2609.93 1124.95 2599.31 1124.95 Q2595.39 1124.95 2591.9 1124.34 Q2588.42 1123.78 2585.14 1122.56 L2585.14 1115.31 Q2588.42 1117.09 2591.62 1117.94 Q2594.82 1118.79 2598.14 1118.79 Q2605.47 1118.79 2609.12 1114.95 Q2612.76 1111.14 2612.76 1103.4 L2612.76 1099.71 Q2610.45 1103.72 2606.85 1105.71 Q2603.24 1107.69 2598.22 1107.69 Q2589.88 1107.69 2584.77 1101.33 Q2579.67 1094.97 2579.67 1084.48 Q2579.67 1073.95 2584.77 1067.59 Q2589.88 1061.23 2598.22 1061.23 Q2603.24 1061.23 2606.85 1063.22 Q2610.45 1065.2 2612.76 1069.21 L2612.76 1062.32 L2620.22 1062.32 L2620.22 1102.06 Z" fill="#000000" fill-rule="evenodd" fill-opacity="1" /><path clip-path="url(#clip520)" d="M 0 0 M-39.194 63.3729 L-39.194 72.0014 Q-43.3259 68.153 -48.0249 66.2491 Q-52.6835 64.3451 -57.9497 64.3451 Q-68.32 64.3451 -73.8292 70.7051 Q-79.3384 77.0245 -79.3384 89.0152 Q-79.3384 100.965 -73.8292 107.325 Q-68.32 113.645 -57.9497 113.645 Q-52.6835 113.645 -48.0249 111.741 Q-43.3259 109.837 -39.194 105.988 L-39.194 114.536 Q-43.4879 117.453 -48.3085 118.911 Q-53.0886 120.369 -58.4358 120.369 Q-72.1683 120.369 -80.0676 111.984 Q-87.9669 103.558 -87.9669 89.0152 Q-87.9669 74.4319 -80.0676 66.0465 Q-72.1683 57.6206 -58.4358 57.6206 Q-53.0075 57.6206 -48.2275 59.079 Q-43.4069 60.4968 -39.194 63.3729 Z" fill="#000000" fill-rule="evenodd" fill-opacity="1" /><path clip-path="url(#clip520)" d="M 0 0 M-13.7948 79.0499 Q-19.7901 79.0499 -23.2739 83.749 Q-26.7577 88.4075 -26.7577 96.5498 Q-26.7577 104.692 -23.3144 109.391 Q-19.8306 114.05 -13.7948 114.05 Q-7.83997 114.05 -4.35619 109.351 Q-0.87241 104.652 -0.87241 96.5498 Q-0.87241 88.4885 -4.35619 83.7895 Q-7.83997 79.0499 -13.7948 79.0499 M-13.7948 72.7305 Q-4.07262 72.7305 1.47711 79.0499 Q7.02685 85.3693 7.02685 96.5498 Q7.02685 107.69 1.47711 114.05 Q-4.07262 120.369 -13.7948 120.369 Q-23.5575 120.369 -29.1072 114.05 Q-34.6164 107.69 -34.6164 96.5498 Q-34.6164 85.3693 -29.1072 79.0499 Q-23.5575 72.7305 -13.7948 72.7305 Z" fill="#000000" fill-rule="evenodd" fill-opacity="1" /><path clip-path="url(#clip520)" d="M 0 0 M14.8451 56.1623 L22.2988 56.1623 L22.2988 119.194 L14.8451 119.194 L14.8451 56.1623 Z" fill="#000000" fill-rule="evenodd" fill-opacity="1" /><path clip-path="url(#clip520)" d="M 0 0 M30.117 56.1623 L37.5707 56.1623 L37.5707 119.194 L30.117 119.194 L30.117 56.1623 Z" fill="#000000" fill-rule="evenodd" fill-opacity="1" /><path clip-path="url(#clip520)" d="M 0 0 M66.008 96.3878 Q56.9745 96.3878 53.4907 98.4538 Q50.0069 100.52 50.0069 105.502 Q50.0069 109.472 52.5995 111.822 Q55.2326 114.131 59.7291 114.131 Q65.927 114.131 69.6538 109.756 Q73.4212 105.34 73.4212 98.0487 L73.4212 96.3878 L66.008 96.3878 M80.8748 93.3091 L80.8748 119.194 L73.4212 119.194 L73.4212 112.308 Q70.8691 116.44 67.0613 118.425 Q63.2534 120.369 57.7442 120.369 Q50.7766 120.369 46.6447 116.48 Q42.5533 112.551 42.5533 105.988 Q42.5533 98.3322 47.6574 94.4434 Q52.8021 90.5545 62.9698 90.5545 L73.4212 90.5545 L73.4212 89.8253 Q73.4212 84.6807 70.0184 81.8856 Q66.6562 79.0499 60.5393 79.0499 Q56.6504 79.0499 52.9641 79.9816 Q49.2778 80.9133 45.875 82.7768 L45.875 75.8902 Q49.9664 74.3104 53.8148 73.5407 Q57.6632 72.7305 61.309 72.7305 Q71.1527 72.7305 76.0138 77.8347 Q80.8748 82.9388 80.8748 93.3091 Z" fill="#000000" fill-rule="evenodd" fill-opacity="1" /><path clip-path="url(#clip520)" d="M 0 0 M121.262 96.5498 Q121.262 88.3265 117.86 83.668 Q114.497 78.9689 108.583 78.9689 Q102.669 78.9689 99.2659 83.668 Q95.9037 88.3265 95.9037 96.5498 Q95.9037 104.773 99.2659 109.472 Q102.669 114.131 108.583 114.131 Q114.497 114.131 117.86 109.472 Q121.262 104.773 121.262 96.5498 M95.9037 80.7108 Q98.2532 76.6599 101.818 74.7155 Q105.423 72.7305 110.406 72.7305 Q118.67 72.7305 123.814 79.293 Q129 85.8554 129 96.5498 Q129 107.244 123.814 113.807 Q118.67 120.369 110.406 120.369 Q105.423 120.369 101.818 118.425 Q98.2532 116.44 95.9037 112.389 L95.9037 119.194 L88.4095 119.194 L88.4095 56.1623 L95.9037 56.1623 L95.9037 80.7108 Z" fill="#000000" fill-rule="evenodd" fill-opacity="1" /><path clip-path="url(#clip520)" d="M 0 0 M154.399 79.0499 Q148.403 79.0499 144.92 83.749 Q141.436 88.4075 141.436 96.5498 Q141.436 104.692 144.879 109.391 Q148.363 114.05 154.399 114.05 Q160.354 114.05 163.837 109.351 Q167.321 104.652 167.321 96.5498 Q167.321 88.4885 163.837 83.7895 Q160.354 79.0499 154.399 79.0499 M154.399 72.7305 Q164.121 72.7305 169.671 79.0499 Q175.22 85.3693 175.22 96.5498 Q175.22 107.69 169.671 114.05 Q164.121 120.369 154.399 120.369 Q144.636 120.369 139.086 114.05 Q133.577 107.69 133.577 96.5498 Q133.577 85.3693 139.086 79.0499 Q144.636 72.7305 154.399 72.7305 Z" fill="#000000" fill-rule="evenodd" fill-opacity="1" /><path clip-path="url(#clip520)" d="M 0 0 M209.329 80.7918 Q208.073 80.0627 206.574 79.7386 Q205.116 79.374 203.334 79.374 Q197.014 79.374 193.612 83.5059 Q190.249 87.5973 190.249 95.2941 L190.249 119.194 L182.755 119.194 L182.755 73.8243 L190.249 73.8243 L190.249 80.8728 Q192.599 76.7409 196.366 74.756 Q200.133 72.7305 205.521 72.7305 Q206.291 72.7305 207.223 72.852 Q208.154 72.9331 209.289 73.1356 L209.329 80.7918 Z" fill="#000000" fill-rule="evenodd" fill-opacity="1" /><path clip-path="url(#clip520)" d="M 0 0 M237.766 96.3878 Q228.733 96.3878 225.249 98.4538 Q221.765 100.52 221.765 105.502 Q221.765 109.472 224.358 111.822 Q226.991 114.131 231.487 114.131 Q237.685 114.131 241.412 109.756 Q245.18 105.34 245.18 98.0487 L245.18 96.3878 L237.766 96.3878 M252.633 93.3091 L252.633 119.194 L245.18 119.194 L245.18 112.308 Q242.627 116.44 238.82 118.425 Q235.012 120.369 229.503 120.369 Q222.535 120.369 218.403 116.48 Q214.312 112.551 214.312 105.988 Q214.312 98.3322 219.416 94.4434 Q224.56 90.5545 234.728 90.5545 L245.18 90.5545 L245.18 89.8253 Q245.18 84.6807 241.777 81.8856 Q238.415 79.0499 232.298 79.0499 Q228.409 79.0499 224.722 79.9816 Q221.036 80.9133 217.633 82.7768 L217.633 75.8902 Q221.725 74.3104 225.573 73.5407 Q229.421 72.7305 233.067 72.7305 Q242.911 72.7305 247.772 77.8347 Q252.633 82.9388 252.633 93.3091 Z" fill="#000000" fill-rule="evenodd" fill-opacity="1" /><path clip-path="url(#clip520)" d="M 0 0 M267.824 60.9424 L267.824 73.8243 L283.177 73.8243 L283.177 79.6171 L267.824 79.6171 L267.824 104.247 Q267.824 109.796 269.323 111.376 Q270.862 112.956 275.521 112.956 L283.177 112.956 L283.177 119.194 L275.521 119.194 Q266.892 119.194 263.611 115.994 Q260.33 112.753 260.33 104.247 L260.33 79.6171 L254.861 79.6171 L254.861 73.8243 L260.33 73.8243 L260.33 60.9424 L267.824 60.9424 Z" fill="#000000" fill-rule="evenodd" fill-opacity="1" /><path clip-path="url(#clip520)" d="M 0 0 M290.995 73.8243 L298.449 73.8243 L298.449 119.194 L290.995 119.194 L290.995 73.8243 M290.995 56.1623 L298.449 56.1623 L298.449 65.6009 L290.995 65.6009 L290.995 56.1623 Z" fill="#000000" fill-rule="evenodd" fill-opacity="1" /><path clip-path="url(#clip520)" d="M 0 0 M323.848 79.0499 Q317.853 79.0499 314.369 83.749 Q310.885 88.4075 310.885 96.5498 Q310.885 104.692 314.328 109.391 Q317.812 114.05 323.848 114.05 Q329.803 114.05 333.287 109.351 Q336.77 104.652 336.77 96.5498 Q336.77 88.4885 333.287 83.7895 Q329.803 79.0499 323.848 79.0499 M323.848 72.7305 Q333.57 72.7305 339.12 79.0499 Q344.67 85.3693 344.67 96.5498 Q344.67 107.69 339.12 114.05 Q333.57 120.369 323.848 120.369 Q314.085 120.369 308.536 114.05 Q303.026 107.69 303.026 96.5498 Q303.026 85.3693 308.536 79.0499 Q314.085 72.7305 323.848 72.7305 Z" fill="#000000" fill-rule="evenodd" fill-opacity="1" /><path clip-path="url(#clip520)" d="M 0 0 M390.202 91.8103 L390.202 119.194 L382.748 119.194 L382.748 92.0533 Q382.748 85.6124 380.237 82.4122 Q377.725 79.212 372.702 79.212 Q366.666 79.212 363.182 83.0603 Q359.699 86.9087 359.699 93.5522 L359.699 119.194 L352.204 119.194 L352.204 73.8243 L359.699 73.8243 L359.699 80.8728 Q362.372 76.7814 365.977 74.756 Q369.623 72.7305 374.363 72.7305 Q382.181 72.7305 386.191 77.5916 Q390.202 82.4122 390.202 91.8103 Z" fill="#000000" fill-rule="evenodd" fill-opacity="1" /></svg>
