<?xml version="1.0" encoding="utf-8"?>
<svg xmlns="http://www.w3.org/2000/svg" xmlns:xlink="http://www.w3.org/1999/xlink" width="500" height="500" viewBox="0 0 2000 2000">
<defs>
  <clipPath id="clip460">
    <rect x="0" y="0" width="2000" height="2000"/>
  </clipPath>
</defs>
<path clip-path="url(#clip460)" d="
M0 2000 L2000 2000 L2000 0 L0 0  Z
  " fill="#ffffff" fill-rule="evenodd" fill-opacity="1"/>
<defs>
  <clipPath id="clip461">
    <rect x="400" y="200" width="1401" height="1401"/>
  </clipPath>
</defs>
<path clip-path="url(#clip460)" d="
M240.472 1759.53 L1811.02 1759.53 L1811.02 188.976 L240.472 188.976  Z
  " fill="#ffffff" fill-rule="evenodd" fill-opacity="1"/>
<defs>
  <clipPath id="clip462">
    <rect x="240" y="188" width="1572" height="1572"/>
  </clipPath>
</defs>
<polyline clip-path="url(#clip462)" style="stroke:#000000; stroke-width:2; stroke-opacity:0.1; fill:none" points="
  240.472,1759.53 240.472,188.976 
  "/>
<polyline clip-path="url(#clip462)" style="stroke:#000000; stroke-width:2; stroke-opacity:0.1; fill:none" points="
  1025.75,1759.53 1025.75,188.976 
  "/>
<polyline clip-path="url(#clip462)" style="stroke:#000000; stroke-width:2; stroke-opacity:0.1; fill:none" points="
  1811.02,1759.53 1811.02,188.976 
  "/>
<polyline clip-path="url(#clip462)" style="stroke:#000000; stroke-width:2; stroke-opacity:0.1; fill:none" points="
  240.472,1759.53 1811.02,1759.53 
  "/>
<polyline clip-path="url(#clip462)" style="stroke:#000000; stroke-width:2; stroke-opacity:0.1; fill:none" points="
  240.472,974.252 1811.02,974.252 
  "/>
<polyline clip-path="url(#clip462)" style="stroke:#000000; stroke-width:2; stroke-opacity:0.1; fill:none" points="
  240.472,188.976 1811.02,188.976 
  "/>
<polyline clip-path="url(#clip460)" style="stroke:#000000; stroke-width:4; stroke-opacity:1; fill:none" points="
  240.472,1759.53 1811.02,1759.53 
  "/>
<polyline clip-path="url(#clip460)" style="stroke:#000000; stroke-width:4; stroke-opacity:1; fill:none" points="
  240.472,1759.53 240.472,188.976 
  "/>
<polyline clip-path="url(#clip460)" style="stroke:#000000; stroke-width:4; stroke-opacity:1; fill:none" points="
  240.472,1759.53 240.472,1740.68 
  "/>
<polyline clip-path="url(#clip460)" style="stroke:#000000; stroke-width:4; stroke-opacity:1; fill:none" points="
  1025.75,1759.53 1025.75,1740.68 
  "/>
<polyline clip-path="url(#clip460)" style="stroke:#000000; stroke-width:4; stroke-opacity:1; fill:none" points="
  1811.02,1759.53 1811.02,1740.68 
  "/>
<polyline clip-path="url(#clip460)" style="stroke:#000000; stroke-width:4; stroke-opacity:1; fill:none" points="
  240.472,1759.53 259.319,1759.53 
  "/>
<polyline clip-path="url(#clip460)" style="stroke:#000000; stroke-width:4; stroke-opacity:1; fill:none" points="
  240.472,974.252 259.319,974.252 
  "/>
<polyline clip-path="url(#clip460)" style="stroke:#000000; stroke-width:4; stroke-opacity:1; fill:none" points="
  240.472,188.976 259.319,188.976 
  "/>
<path clip-path="url(#clip460)" d="M 0 0 M221.341 1796.12 L233.817 1796.12 L233.817 1799.91 L221.341 1799.91 L221.341 1796.12 Z" fill="#000000" fill-rule="evenodd" fill-opacity="1" /><path clip-path="url(#clip460)" d="M 0 0 M239.697 1807.06 L247.336 1807.06 L247.336 1780.7 L239.026 1782.37 L239.026 1778.11 L247.29 1776.44 L251.965 1776.44 L251.965 1807.06 L259.604 1807.06 L259.604 1811 L239.697 1811 L239.697 1807.06 Z" fill="#000000" fill-rule="evenodd" fill-opacity="1" /><path clip-path="url(#clip460)" d="M 0 0 M1025.75 1779.52 Q1022.14 1779.52 1020.31 1783.08 Q1018.5 1786.62 1018.5 1793.75 Q1018.5 1800.86 1020.31 1804.43 Q1022.14 1807.97 1025.75 1807.97 Q1029.38 1807.97 1031.19 1804.43 Q1033.02 1800.86 1033.02 1793.75 Q1033.02 1786.62 1031.19 1783.08 Q1029.38 1779.52 1025.75 1779.52 M1025.75 1775.81 Q1031.56 1775.81 1034.61 1780.42 Q1037.69 1785 1037.69 1793.75 Q1037.69 1802.48 1034.61 1807.09 Q1031.56 1811.67 1025.75 1811.67 Q1019.94 1811.67 1016.86 1807.09 Q1013.8 1802.48 1013.8 1793.75 Q1013.8 1785 1016.86 1780.42 Q1019.94 1775.81 1025.75 1775.81 Z" fill="#000000" fill-rule="evenodd" fill-opacity="1" /><path clip-path="url(#clip460)" d="M 0 0 M1801.41 1807.06 L1809.04 1807.06 L1809.04 1780.7 L1800.73 1782.37 L1800.73 1778.11 L1809 1776.44 L1813.67 1776.44 L1813.67 1807.06 L1821.31 1807.06 L1821.31 1811 L1801.41 1811 L1801.41 1807.06 Z" fill="#000000" fill-rule="evenodd" fill-opacity="1" /><path clip-path="url(#clip460)" d="M 0 0 M182.209 1761.92 L194.686 1761.92 L194.686 1765.72 L182.209 1765.72 L182.209 1761.92 Z" fill="#000000" fill-rule="evenodd" fill-opacity="1" /><path clip-path="url(#clip460)" d="M 0 0 M200.565 1772.87 L208.204 1772.87 L208.204 1746.51 L199.894 1748.17 L199.894 1743.91 L208.158 1742.25 L212.834 1742.25 L212.834 1772.87 L220.472 1772.87 L220.472 1776.81 L200.565 1776.81 L200.565 1772.87 Z" fill="#000000" fill-rule="evenodd" fill-opacity="1" /><path clip-path="url(#clip460)" d="M 0 0 M208.528 960.051 Q204.917 960.051 203.088 963.615 Q201.283 967.157 201.283 974.287 Q201.283 981.393 203.088 984.958 Q204.917 988.5 208.528 988.5 Q212.162 988.5 213.968 984.958 Q215.797 981.393 215.797 974.287 Q215.797 967.157 213.968 963.615 Q212.162 960.051 208.528 960.051 M208.528 956.347 Q214.338 956.347 217.394 960.953 Q220.472 965.537 220.472 974.287 Q220.472 983.013 217.394 987.62 Q214.338 992.203 208.528 992.203 Q202.718 992.203 199.639 987.62 Q196.584 983.013 196.584 974.287 Q196.584 965.537 199.639 960.953 Q202.718 956.347 208.528 956.347 Z" fill="#000000" fill-rule="evenodd" fill-opacity="1" /><path clip-path="url(#clip460)" d="M 0 0 M200.565 202.321 L208.204 202.321 L208.204 175.956 L199.894 177.622 L199.894 173.363 L208.158 171.696 L212.834 171.696 L212.834 202.321 L220.472 202.321 L220.472 206.256 L200.565 206.256 L200.565 202.321 Z" fill="#000000" fill-rule="evenodd" fill-opacity="1" /><path clip-path="url(#clip460)" d="M 0 0 M912.104 1840.87 L919.011 1840.87 L930.819 1858.54 L942.691 1840.87 L949.598 1840.87 L934.321 1863.69 L950.617 1888.39 L943.71 1888.39 L930.342 1868.18 L916.879 1888.39 L909.94 1888.39 L926.905 1863.02 L912.104 1840.87 Z" fill="#000000" fill-rule="evenodd" fill-opacity="1" /><path clip-path="url(#clip460)" d="M 0 0 M991.548 1838.93 Q987.283 1846.25 985.214 1853.41 Q983.146 1860.57 983.146 1867.93 Q983.146 1875.28 985.214 1882.5 Q987.315 1889.7 991.548 1896.99 L986.456 1896.99 Q981.681 1889.51 979.294 1882.28 Q976.939 1875.06 976.939 1867.93 Q976.939 1860.83 979.294 1853.63 Q981.65 1846.44 986.456 1838.93 L991.548 1838.93 Z" fill="#000000" fill-rule="evenodd" fill-opacity="1" /><path clip-path="url(#clip460)" d="M 0 0 M1004.06 1882.98 L1026.5 1882.98 L1026.5 1888.39 L996.323 1888.39 L996.323 1882.98 Q999.983 1879.19 1006.28 1872.83 Q1012.62 1866.43 1014.24 1864.58 Q1017.33 1861.11 1018.54 1858.73 Q1019.78 1856.31 1019.78 1853.98 Q1019.78 1850.2 1017.11 1847.81 Q1014.46 1845.42 1010.2 1845.42 Q1007.18 1845.42 1003.8 1846.47 Q1000.46 1847.52 996.641 1849.66 L996.641 1843.16 Q1000.52 1841.6 1003.9 1840.81 Q1007.27 1840.01 1010.07 1840.01 Q1017.46 1840.01 1021.85 1843.7 Q1026.24 1847.4 1026.24 1853.57 Q1026.24 1856.5 1025.13 1859.14 Q1024.05 1861.75 1021.15 1865.32 Q1020.35 1866.24 1016.09 1870.66 Q1011.82 1875.06 1004.06 1882.98 Z" fill="#000000" fill-rule="evenodd" fill-opacity="1" /><path clip-path="url(#clip460)" d="M 0 0 M1033.66 1887.4 L1033.66 1881.55 Q1036.08 1882.69 1038.56 1883.3 Q1041.04 1883.9 1043.43 1883.9 Q1049.79 1883.9 1053.14 1879.64 Q1056.51 1875.34 1056.99 1866.62 Q1055.14 1869.36 1052.31 1870.82 Q1049.48 1872.29 1046.04 1872.29 Q1038.91 1872.29 1034.74 1867.99 Q1030.6 1863.66 1030.6 1856.18 Q1030.6 1848.86 1034.93 1844.44 Q1039.26 1840.01 1046.45 1840.01 Q1054.7 1840.01 1059.02 1846.35 Q1063.39 1852.65 1063.39 1864.68 Q1063.39 1875.91 1058.04 1882.63 Q1052.72 1889.31 1043.72 1889.31 Q1041.3 1889.31 1038.81 1888.84 Q1036.33 1888.36 1033.66 1887.4 M1046.45 1867.26 Q1050.78 1867.26 1053.3 1864.3 Q1055.84 1861.34 1055.84 1856.18 Q1055.84 1851.06 1053.3 1848.1 Q1050.78 1845.1 1046.45 1845.1 Q1042.12 1845.1 1039.58 1848.1 Q1037.06 1851.06 1037.06 1856.18 Q1037.06 1861.34 1039.58 1864.3 Q1042.12 1867.26 1046.45 1867.26 Z" fill="#000000" fill-rule="evenodd" fill-opacity="1" /><path clip-path="url(#clip460)" d="M 0 0 M1110.78 1867.48 Q1108.01 1867.48 1106.42 1869.84 Q1104.86 1872.19 1104.86 1876.39 Q1104.86 1880.53 1106.42 1882.92 Q1108.01 1885.27 1110.78 1885.27 Q1113.48 1885.27 1115.04 1882.92 Q1116.63 1880.53 1116.63 1876.39 Q1116.63 1872.22 1115.04 1869.87 Q1113.48 1867.48 1110.78 1867.48 M1110.78 1863.44 Q1115.81 1863.44 1118.77 1866.94 Q1121.73 1870.44 1121.73 1876.39 Q1121.73 1882.34 1118.74 1885.85 Q1115.78 1889.31 1110.78 1889.31 Q1105.69 1889.31 1102.73 1885.85 Q1099.77 1882.34 1099.77 1876.39 Q1099.77 1870.41 1102.73 1866.94 Q1105.72 1863.44 1110.78 1863.44 M1077.93 1844.05 Q1075.19 1844.05 1073.6 1846.44 Q1072.04 1848.8 1072.04 1852.93 Q1072.04 1857.14 1073.6 1859.49 Q1075.16 1861.85 1077.93 1861.85 Q1080.7 1861.85 1082.26 1859.49 Q1083.85 1857.14 1083.85 1852.93 Q1083.85 1848.83 1082.26 1846.44 Q1080.67 1844.05 1077.93 1844.05 M1106.67 1840.01 L1111.76 1840.01 L1082.04 1889.31 L1076.94 1889.31 L1106.67 1840.01 M1077.93 1840.01 Q1082.96 1840.01 1085.95 1843.51 Q1088.94 1846.98 1088.94 1852.93 Q1088.94 1858.95 1085.95 1862.42 Q1082.99 1865.89 1077.93 1865.89 Q1072.87 1865.89 1069.91 1862.42 Q1066.98 1858.92 1066.98 1852.93 Q1066.98 1847.01 1069.94 1843.51 Q1072.9 1840.01 1077.93 1840.01 Z" fill="#000000" fill-rule="evenodd" fill-opacity="1" /><path clip-path="url(#clip460)" d="M 0 0 M1126.95 1838.93 L1132.04 1838.93 Q1136.81 1846.44 1139.17 1853.63 Q1141.56 1860.83 1141.56 1867.93 Q1141.56 1875.06 1139.17 1882.28 Q1136.81 1889.51 1132.04 1896.99 L1126.95 1896.99 Q1131.18 1889.7 1133.25 1882.5 Q1135.35 1875.28 1135.35 1867.93 Q1135.35 1860.57 1133.25 1853.41 Q1131.18 1846.25 1126.95 1838.93 Z" fill="#000000" fill-rule="evenodd" fill-opacity="1" /><path clip-path="url(#clip460)" d="M 0 0 M100.433 1090 L100.433 1083.09 L119.975 1069.91 L100.433 1056.83 L100.433 1049.92 L125.323 1066.73 L147.953 1066.73 L147.953 1073.19 L125.323 1073.19 L100.433 1090 Z" fill="#000000" fill-rule="evenodd" fill-opacity="1" /><path clip-path="url(#clip460)" d="M 0 0 M98.4912 1008.99 Q105.812 1013.26 112.973 1015.33 Q120.135 1017.4 127.487 1017.4 Q134.839 1017.4 142.064 1015.33 Q149.258 1013.23 156.546 1008.99 L156.546 1014.09 Q149.067 1018.86 141.842 1021.25 Q134.617 1023.6 127.487 1023.6 Q120.389 1023.6 113.196 1021.25 Q106.003 1018.89 98.4912 1014.09 L98.4912 1008.99 Z" fill="#000000" fill-rule="evenodd" fill-opacity="1" /><path clip-path="url(#clip460)" d="M 0 0 M142.542 996.484 L142.542 974.045 L147.953 974.045 L147.953 1004.22 L142.542 1004.22 Q138.754 1000.56 132.389 994.256 Q125.991 987.922 124.145 986.299 Q120.676 983.212 118.289 982.002 Q115.87 980.761 113.546 980.761 Q109.759 980.761 107.371 983.435 Q104.984 986.076 104.984 990.341 Q104.984 993.365 106.035 996.739 Q107.085 1000.08 109.217 1003.9 L102.724 1003.9 Q101.165 1000.02 100.369 996.643 Q99.5734 993.27 99.5734 990.469 Q99.5734 983.084 103.265 978.692 Q106.958 974.3 113.132 974.3 Q116.061 974.3 118.702 975.414 Q121.312 976.496 124.877 979.392 Q125.8 980.188 130.224 984.453 Q134.617 988.718 142.542 996.484 Z" fill="#000000" fill-rule="evenodd" fill-opacity="1" /><path clip-path="url(#clip460)" d="M 0 0 M121.631 952.529 Q121.631 956.858 124.591 959.404 Q127.551 961.918 132.707 961.918 Q137.831 961.918 140.823 959.404 Q143.783 956.858 143.783 952.529 Q143.783 948.2 140.823 945.686 Q137.831 943.14 132.707 943.14 Q127.551 943.14 124.591 945.686 Q121.631 948.2 121.631 952.529 M101.483 939.766 L107.34 939.766 Q106.194 942.185 105.589 944.667 Q104.984 947.118 104.984 949.537 Q104.984 955.903 109.281 959.277 Q113.578 962.619 122.267 963.096 Q119.498 961.218 118.034 958.385 Q116.538 955.553 116.538 952.147 Q116.538 944.986 120.899 940.848 Q125.227 936.678 132.707 936.678 Q140.027 936.678 144.452 941.007 Q148.876 945.336 148.876 952.529 Q148.876 960.773 142.574 965.133 Q136.24 969.494 124.24 969.494 Q112.973 969.494 106.289 964.146 Q99.5734 958.799 99.5734 949.792 Q99.5734 947.373 100.051 944.922 Q100.528 942.439 101.483 939.766 Z" fill="#000000" fill-rule="evenodd" fill-opacity="1" /><path clip-path="url(#clip460)" d="M 0 0 M127.041 889.286 Q127.041 892.055 129.397 893.646 Q131.752 895.206 135.953 895.206 Q140.091 895.206 142.478 893.646 Q144.834 892.055 144.834 889.286 Q144.834 886.58 142.478 885.021 Q140.091 883.429 135.953 883.429 Q131.784 883.429 129.429 885.021 Q127.041 886.58 127.041 889.286 M122.999 889.286 Q122.999 884.257 126.5 881.297 Q130.001 878.337 135.953 878.337 Q141.905 878.337 145.406 881.329 Q148.876 884.289 148.876 889.286 Q148.876 894.378 145.406 897.338 Q141.905 900.298 135.953 900.298 Q129.97 900.298 126.5 897.338 Q122.999 894.346 122.999 889.286 M103.616 922.133 Q103.616 924.87 106.003 926.461 Q108.358 928.021 112.496 928.021 Q116.697 928.021 119.052 926.461 Q121.408 924.902 121.408 922.133 Q121.408 919.364 119.052 917.804 Q116.697 916.213 112.496 916.213 Q108.39 916.213 106.003 917.804 Q103.616 919.395 103.616 922.133 M99.5734 893.392 L99.5734 888.299 L148.876 918.027 L148.876 923.119 L99.5734 893.392 M99.5734 922.133 Q99.5734 917.104 103.075 914.112 Q106.544 911.12 112.496 911.12 Q118.511 911.12 121.981 914.112 Q125.45 917.072 125.45 922.133 Q125.45 927.193 121.981 930.154 Q118.48 933.082 112.496 933.082 Q106.576 933.082 103.075 930.122 Q99.5734 927.162 99.5734 922.133 Z" fill="#000000" fill-rule="evenodd" fill-opacity="1" /><path clip-path="url(#clip460)" d="M 0 0 M98.4912 873.117 L98.4912 868.024 Q106.003 863.25 113.196 860.895 Q120.389 858.508 127.487 858.508 Q134.617 858.508 141.842 860.895 Q149.067 863.25 156.546 868.024 L156.546 873.117 Q149.258 868.884 142.064 866.815 Q134.839 864.714 127.487 864.714 Q120.135 864.714 112.973 866.815 Q105.812 868.884 98.4912 873.117 Z" fill="#000000" fill-rule="evenodd" fill-opacity="1" /><polyline clip-path="url(#clip462)" style="stroke:#800080; stroke-width:0.80967; stroke-opacity:1; fill:none" points="
  798.696,795.489 1274.45,1087.5 
  "/>
<polyline clip-path="url(#clip462)" style="stroke:#800080; stroke-width:0.0637714; stroke-opacity:1; fill:none" points="
  917.698,1112.04 1254.65,1020.26 
  "/>
<polyline clip-path="url(#clip462)" style="stroke:#800080; stroke-width:0.377721; stroke-opacity:1; fill:none" points="
  859.425,1281 917.698,1112.04 
  "/>
<polyline clip-path="url(#clip462)" style="stroke:#800080; stroke-width:3.13284; stroke-opacity:1; fill:none" points="
  859.425,1281 1122.22,762.493 
  "/>
<polyline clip-path="url(#clip462)" style="stroke:#ffa500; stroke-width:2.35015; stroke-opacity:1; fill:none" points="
  1254.65,1020.26 1274.45,1087.5 
  "/>
<polyline clip-path="url(#clip462)" style="stroke:#800080; stroke-width:3.3424; stroke-opacity:1; fill:none" points="
  859.425,1281 1254.65,1020.26 
  "/>
<polyline clip-path="url(#clip462)" style="stroke:#ffa500; stroke-width:3.04111; stroke-opacity:1; fill:none" points="
  1122.22,762.493 1254.65,1020.26 
  "/>
<polyline clip-path="url(#clip462)" style="stroke:#ffa500; stroke-width:1.9577; stroke-opacity:1; fill:none" points="
  917.698,1112.04 1122.22,762.493 
  "/>
<polyline clip-path="url(#clip462)" style="stroke:#800080; stroke-width:6.22728; stroke-opacity:1; fill:none" points="
  798.696,795.489 859.425,1281 
  "/>
<polyline clip-path="url(#clip462)" style="stroke:#ffa500; stroke-width:0.218098; stroke-opacity:1; fill:none" points="
  917.698,1112.04 1274.45,1087.5 
  "/>
<polyline clip-path="url(#clip462)" style="stroke:#ffa500; stroke-width:8; stroke-opacity:1; fill:none" points="
  1122.22,762.493 1274.45,1087.5 
  "/>
<polyline clip-path="url(#clip462)" style="stroke:#800080; stroke-width:3.5241; stroke-opacity:1; fill:none" points="
  798.696,795.489 1254.65,1020.26 
  "/>
<polyline clip-path="url(#clip462)" style="stroke:#800080; stroke-width:2.1369; stroke-opacity:1; fill:none" points="
  798.696,795.489 917.698,1112.04 
  "/>
<polyline clip-path="url(#clip462)" style="stroke:#800080; stroke-width:2.2764; stroke-opacity:1; fill:none" points="
  859.425,1281 1274.45,1087.5 
  "/>
<polyline clip-path="url(#clip462)" style="stroke:#800080; stroke-width:1.6582; stroke-opacity:1; fill:none" points="
  798.696,795.489 1122.22,762.493 
  "/>
<circle clip-path="url(#clip462)" cx="1254.65" cy="1020.26" r="23" fill="#000000" fill-rule="evenodd" fill-opacity="1" stroke="none"/>
<circle clip-path="url(#clip462)" cx="798.696" cy="795.489" r="26" fill="#000000" fill-rule="evenodd" fill-opacity="1" stroke="none"/>
<circle clip-path="url(#clip462)" cx="1274.45" cy="1087.5" r="23" fill="#000000" fill-rule="evenodd" fill-opacity="1" stroke="none"/>
<circle clip-path="url(#clip462)" cx="917.698" cy="1112.04" r="8" fill="#000000" fill-rule="evenodd" fill-opacity="1" stroke="none"/>
<circle clip-path="url(#clip462)" cx="1122.22" cy="762.493" r="28" fill="#000000" fill-rule="evenodd" fill-opacity="1" stroke="none"/>
<circle clip-path="url(#clip462)" cx="859.425" cy="1281" r="8" fill="#000000" fill-rule="evenodd" fill-opacity="1" stroke="none"/>
<path clip-path="url(#clip460)" d="M 0 0 M1227.58 1026.99 L1227.58 1043.78 L1231.11 1043.78 Q1235.58 1043.78 1237.65 1041.76 Q1239.73 1039.73 1239.73 1035.36 Q1239.73 1031.02 1237.65 1029.01 Q1235.58 1026.99 1231.11 1026.99 L1227.58 1026.99 M1224.65 1024.58 L1230.66 1024.58 Q1236.94 1024.58 1239.87 1027.2 Q1242.81 1029.81 1242.81 1035.36 Q1242.81 1040.95 1239.86 1043.57 Q1236.91 1046.18 1230.66 1046.18 L1224.65 1046.18 L1224.65 1024.58 Z" fill="#000000" fill-rule="evenodd" fill-opacity="1" /><path clip-path="url(#clip460)" d="M 0 0 M1252.97 1038.04 Q1249.74 1038.04 1248.5 1038.78 Q1247.25 1039.52 1247.25 1041.29 Q1247.25 1042.71 1248.18 1043.55 Q1249.12 1044.38 1250.72 1044.38 Q1252.94 1044.38 1254.27 1042.81 Q1255.61 1041.24 1255.61 1038.63 L1255.61 1038.04 L1252.97 1038.04 M1258.28 1036.94 L1258.28 1046.18 L1255.61 1046.18 L1255.61 1043.73 Q1254.7 1045.2 1253.34 1045.91 Q1251.98 1046.6 1250.02 1046.6 Q1247.53 1046.6 1246.05 1045.22 Q1244.59 1043.81 1244.59 1041.47 Q1244.59 1038.73 1246.41 1037.35 Q1248.25 1035.96 1251.88 1035.96 L1255.61 1035.96 L1255.61 1035.7 Q1255.61 1033.86 1254.4 1032.86 Q1253.2 1031.85 1251.01 1031.85 Q1249.62 1031.85 1248.31 1032.18 Q1246.99 1032.51 1245.78 1033.18 L1245.78 1030.72 Q1247.24 1030.15 1248.61 1029.88 Q1249.99 1029.59 1251.29 1029.59 Q1254.8 1029.59 1256.54 1031.41 Q1258.28 1033.24 1258.28 1036.94 Z" fill="#000000" fill-rule="evenodd" fill-opacity="1" /><path clip-path="url(#clip460)" d="M 0 0 M1263.7 1025.38 L1263.7 1029.98 L1269.19 1029.98 L1269.19 1032.05 L1263.7 1032.05 L1263.7 1040.85 Q1263.7 1042.83 1264.24 1043.39 Q1264.79 1043.96 1266.45 1043.96 L1269.19 1043.96 L1269.19 1046.18 L1266.45 1046.18 Q1263.37 1046.18 1262.2 1045.04 Q1261.03 1043.88 1261.03 1040.85 L1261.03 1032.05 L1259.07 1032.05 L1259.07 1029.98 L1261.03 1029.98 L1261.03 1025.38 L1263.7 1025.38 Z" fill="#000000" fill-rule="evenodd" fill-opacity="1" /><path clip-path="url(#clip460)" d="M 0 0 M1279.34 1038.04 Q1276.12 1038.04 1274.87 1038.78 Q1273.63 1039.52 1273.63 1041.29 Q1273.63 1042.71 1274.55 1043.55 Q1275.49 1044.38 1277.1 1044.38 Q1279.31 1044.38 1280.64 1042.81 Q1281.99 1041.24 1281.99 1038.63 L1281.99 1038.04 L1279.34 1038.04 M1284.65 1036.94 L1284.65 1046.18 L1281.99 1046.18 L1281.99 1043.73 Q1281.08 1045.2 1279.72 1045.91 Q1278.36 1046.6 1276.39 1046.6 Q1273.9 1046.6 1272.43 1045.22 Q1270.96 1043.81 1270.96 1041.47 Q1270.96 1038.73 1272.79 1037.35 Q1274.62 1035.96 1278.26 1035.96 L1281.99 1035.96 L1281.99 1035.7 Q1281.99 1033.86 1280.77 1032.86 Q1279.57 1031.85 1277.39 1031.85 Q1276 1031.85 1274.68 1032.18 Q1273.37 1032.51 1272.15 1033.18 L1272.15 1030.72 Q1273.61 1030.15 1274.99 1029.88 Q1276.36 1029.59 1277.66 1029.59 Q1281.18 1029.59 1282.91 1031.41 Q1284.65 1033.24 1284.65 1036.94 Z" fill="#000000" fill-rule="evenodd" fill-opacity="1" /><path clip-path="url(#clip460)" d="M 0 0 M656.792 799.809 L675.064 799.809 L675.064 802.269 L667.397 802.269 L667.397 821.409 L664.46 821.409 L664.46 802.269 L656.792 802.269 L656.792 799.809 Z" fill="#000000" fill-rule="evenodd" fill-opacity="1" /><path clip-path="url(#clip460)" d="M 0 0 M686.682 812.642 L686.682 813.944 L674.442 813.944 Q674.616 816.693 676.091 818.14 Q677.582 819.572 680.229 819.572 Q681.763 819.572 683.195 819.196 Q684.642 818.82 686.06 818.067 L686.06 820.585 Q684.627 821.192 683.123 821.511 Q681.618 821.829 680.07 821.829 Q676.193 821.829 673.921 819.572 Q671.664 817.315 671.664 813.467 Q671.664 809.488 673.806 807.159 Q675.961 804.815 679.607 804.815 Q682.877 804.815 684.772 806.927 Q686.682 809.025 686.682 812.642 M684.02 811.861 Q683.991 809.676 682.79 808.374 Q681.604 807.072 679.636 807.072 Q677.408 807.072 676.063 808.331 Q674.732 809.589 674.529 811.875 L684.02 811.861 Z" fill="#000000" fill-rule="evenodd" fill-opacity="1" /><path clip-path="url(#clip460)" d="M 0 0 M701.135 805.828 L701.135 808.316 Q700.006 807.694 698.863 807.39 Q697.735 807.072 696.577 807.072 Q693.988 807.072 692.556 808.721 Q691.123 810.356 691.123 813.322 Q691.123 816.288 692.556 817.937 Q693.988 819.572 696.577 819.572 Q697.735 819.572 698.863 819.268 Q700.006 818.95 701.135 818.328 L701.135 820.787 Q700.021 821.308 698.82 821.569 Q697.634 821.829 696.288 821.829 Q692.628 821.829 690.472 819.529 Q688.317 817.228 688.317 813.322 Q688.317 809.358 690.487 807.087 Q692.671 804.815 696.462 804.815 Q697.691 804.815 698.863 805.076 Q700.035 805.322 701.135 805.828 Z" fill="#000000" fill-rule="evenodd" fill-opacity="1" /><path clip-path="url(#clip460)" d="M 0 0 M717.396 811.629 L717.396 821.409 L714.734 821.409 L714.734 811.716 Q714.734 809.416 713.837 808.273 Q712.94 807.13 711.146 807.13 Q708.991 807.13 707.746 808.504 Q706.502 809.879 706.502 812.251 L706.502 821.409 L703.826 821.409 L703.826 798.898 L706.502 798.898 L706.502 807.723 Q707.457 806.262 708.745 805.539 Q710.047 804.815 711.739 804.815 Q714.532 804.815 715.964 806.551 Q717.396 808.273 717.396 811.629 Z" fill="#000000" fill-rule="evenodd" fill-opacity="1" /><path clip-path="url(#clip460)" d="M 0 0 M733.658 811.629 L733.658 821.409 L730.996 821.409 L730.996 811.716 Q730.996 809.416 730.099 808.273 Q729.202 807.13 727.408 807.13 Q725.252 807.13 724.008 808.504 Q722.764 809.879 722.764 812.251 L722.764 821.409 L720.087 821.409 L720.087 805.206 L722.764 805.206 L722.764 807.723 Q723.719 806.262 725.006 805.539 Q726.308 804.815 728.001 804.815 Q730.793 804.815 732.225 806.551 Q733.658 808.273 733.658 811.629 Z" fill="#000000" fill-rule="evenodd" fill-opacity="1" /><path clip-path="url(#clip460)" d="M 0 0 M736.45 805.206 L739.112 805.206 L739.112 821.409 L736.45 821.409 L736.45 805.206 M736.45 798.898 L739.112 798.898 L739.112 802.269 L736.45 802.269 L736.45 798.898 Z" fill="#000000" fill-rule="evenodd" fill-opacity="1" /><path clip-path="url(#clip460)" d="M 0 0 M753.565 805.828 L753.565 808.316 Q752.437 807.694 751.294 807.39 Q750.165 807.072 749.008 807.072 Q746.418 807.072 744.986 808.721 Q743.554 810.356 743.554 813.322 Q743.554 816.288 744.986 817.937 Q746.418 819.572 749.008 819.572 Q750.165 819.572 751.294 819.268 Q752.437 818.95 753.565 818.328 L753.565 820.787 Q752.451 821.308 751.25 821.569 Q750.064 821.829 748.718 821.829 Q745.058 821.829 742.902 819.529 Q740.747 817.228 740.747 813.322 Q740.747 809.358 742.917 807.087 Q745.102 804.815 748.892 804.815 Q750.122 804.815 751.294 805.076 Q752.466 805.322 753.565 805.828 Z" fill="#000000" fill-rule="evenodd" fill-opacity="1" /><path clip-path="url(#clip460)" d="M 0 0 M763.721 813.264 Q760.495 813.264 759.251 814.002 Q758.007 814.74 758.007 816.519 Q758.007 817.937 758.932 818.776 Q759.873 819.601 761.479 819.601 Q763.692 819.601 765.023 818.038 Q766.369 816.462 766.369 813.857 L766.369 813.264 L763.721 813.264 M769.031 812.165 L769.031 821.409 L766.369 821.409 L766.369 818.95 Q765.457 820.426 764.097 821.135 Q762.737 821.829 760.77 821.829 Q758.281 821.829 756.806 820.44 Q755.345 819.037 755.345 816.693 Q755.345 813.959 757.167 812.57 Q759.005 811.181 762.636 811.181 L766.369 811.181 L766.369 810.92 Q766.369 809.083 765.154 808.085 Q763.953 807.072 761.768 807.072 Q760.379 807.072 759.063 807.405 Q757.746 807.738 756.531 808.403 L756.531 805.944 Q757.992 805.379 759.367 805.105 Q760.741 804.815 762.043 804.815 Q765.559 804.815 767.295 806.638 Q769.031 808.461 769.031 812.165 Z" fill="#000000" fill-rule="evenodd" fill-opacity="1" /><path clip-path="url(#clip460)" d="M 0 0 M771.823 798.898 L774.485 798.898 L774.485 821.409 L771.823 821.409 L771.823 798.898 Z" fill="#000000" fill-rule="evenodd" fill-opacity="1" /><path clip-path="url(#clip460)" d="M 0 0 M789.589 826.328 L789.589 828.397 L774.196 828.397 L774.196 826.328 L789.589 826.328 Z" fill="#000000" fill-rule="evenodd" fill-opacity="1" /><path clip-path="url(#clip460)" d="M 0 0 M808.672 801.473 L808.672 804.555 Q807.196 803.18 805.518 802.5 Q803.854 801.82 801.973 801.82 Q798.27 801.82 796.302 804.092 Q794.334 806.349 794.334 810.631 Q794.334 814.899 796.302 817.17 Q798.27 819.427 801.973 819.427 Q803.854 819.427 805.518 818.747 Q807.196 818.067 808.672 816.693 L808.672 819.746 Q807.138 820.787 805.417 821.308 Q803.709 821.829 801.8 821.829 Q796.895 821.829 794.074 818.834 Q791.253 815.825 791.253 810.631 Q791.253 805.423 794.074 802.428 Q796.895 799.419 801.8 799.419 Q803.738 799.419 805.446 799.94 Q807.167 800.446 808.672 801.473 Z" fill="#000000" fill-rule="evenodd" fill-opacity="1" /><path clip-path="url(#clip460)" d="M 0 0 M817.743 807.072 Q815.602 807.072 814.358 808.75 Q813.113 810.414 813.113 813.322 Q813.113 816.23 814.343 817.908 Q815.587 819.572 817.743 819.572 Q819.87 819.572 821.114 817.894 Q822.358 816.216 822.358 813.322 Q822.358 810.443 821.114 808.765 Q819.87 807.072 817.743 807.072 M817.743 804.815 Q821.215 804.815 823.197 807.072 Q825.179 809.329 825.179 813.322 Q825.179 817.301 823.197 819.572 Q821.215 821.829 817.743 821.829 Q814.256 821.829 812.274 819.572 Q810.307 817.301 810.307 813.322 Q810.307 809.329 812.274 807.072 Q814.256 804.815 817.743 804.815 Z" fill="#000000" fill-rule="evenodd" fill-opacity="1" /><path clip-path="url(#clip460)" d="M 0 0 M841.441 811.629 L841.441 821.409 L838.779 821.409 L838.779 811.716 Q838.779 809.416 837.882 808.273 Q836.985 807.13 835.191 807.13 Q833.035 807.13 831.791 808.504 Q830.547 809.879 830.547 812.251 L830.547 821.409 L827.87 821.409 L827.87 805.206 L830.547 805.206 L830.547 807.723 Q831.502 806.262 832.789 805.539 Q834.091 804.815 835.784 804.815 Q838.576 804.815 840.008 806.551 Q841.441 808.273 841.441 811.629 Z" fill="#000000" fill-rule="evenodd" fill-opacity="1" /><path clip-path="url(#clip460)" d="M 0 0 M854.563 805.683 L854.563 808.201 Q853.434 807.622 852.219 807.332 Q851.004 807.043 849.702 807.043 Q847.72 807.043 846.721 807.651 Q845.738 808.258 845.738 809.474 Q845.738 810.4 846.446 810.935 Q847.155 811.456 849.297 811.933 L850.208 812.136 Q853.044 812.743 854.23 813.857 Q855.431 814.957 855.431 816.939 Q855.431 819.196 853.637 820.512 Q851.857 821.829 848.732 821.829 Q847.43 821.829 846.012 821.569 Q844.609 821.323 843.047 820.816 L843.047 818.067 Q844.522 818.834 845.955 819.225 Q847.387 819.601 848.79 819.601 Q850.671 819.601 851.684 818.964 Q852.696 818.313 852.696 817.141 Q852.696 816.056 851.959 815.478 Q851.235 814.899 848.761 814.364 L847.835 814.147 Q845.361 813.626 844.262 812.555 Q843.162 811.47 843.162 809.589 Q843.162 807.304 844.783 806.059 Q846.403 804.815 849.383 804.815 Q850.859 804.815 852.161 805.032 Q853.463 805.249 854.563 805.683 Z" fill="#000000" fill-rule="evenodd" fill-opacity="1" /><path clip-path="url(#clip460)" d="M 0 0 M860.856 800.605 L860.856 805.206 L866.339 805.206 L866.339 807.275 L860.856 807.275 L860.856 816.071 Q860.856 818.053 861.391 818.617 Q861.941 819.181 863.605 819.181 L866.339 819.181 L866.339 821.409 L863.605 821.409 Q860.523 821.409 859.352 820.266 Q858.18 819.109 858.18 816.071 L858.18 807.275 L856.227 807.275 L856.227 805.206 L858.18 805.206 L858.18 800.605 L860.856 800.605 Z" fill="#000000" fill-rule="evenodd" fill-opacity="1" /><path clip-path="url(#clip460)" d="M 0 0 M878.521 807.694 Q878.072 807.434 877.537 807.318 Q877.016 807.188 876.38 807.188 Q874.123 807.188 872.908 808.664 Q871.707 810.125 871.707 812.874 L871.707 821.409 L869.03 821.409 L869.03 805.206 L871.707 805.206 L871.707 807.723 Q872.546 806.247 873.891 805.539 Q875.237 804.815 877.161 804.815 Q877.436 804.815 877.769 804.859 Q878.101 804.887 878.506 804.96 L878.521 807.694 Z" fill="#000000" fill-rule="evenodd" fill-opacity="1" /><path clip-path="url(#clip460)" d="M 0 0 M888.677 813.264 Q885.451 813.264 884.207 814.002 Q882.962 814.74 882.962 816.519 Q882.962 817.937 883.888 818.776 Q884.829 819.601 886.435 819.601 Q888.648 819.601 889.979 818.038 Q891.325 816.462 891.325 813.857 L891.325 813.264 L888.677 813.264 M893.987 812.165 L893.987 821.409 L891.325 821.409 L891.325 818.95 Q890.413 820.426 889.053 821.135 Q887.693 821.829 885.726 821.829 Q883.237 821.829 881.762 820.44 Q880.3 819.037 880.3 816.693 Q880.3 813.959 882.123 812.57 Q883.961 811.181 887.592 811.181 L891.325 811.181 L891.325 810.92 Q891.325 809.083 890.109 808.085 Q888.909 807.072 886.724 807.072 Q885.335 807.072 884.019 807.405 Q882.702 807.738 881.487 808.403 L881.487 805.944 Q882.948 805.379 884.322 805.105 Q885.697 804.815 886.999 804.815 Q890.515 804.815 892.251 806.638 Q893.987 808.461 893.987 812.165 Z" fill="#000000" fill-rule="evenodd" fill-opacity="1" /><path clip-path="url(#clip460)" d="M 0 0 M896.779 805.206 L899.441 805.206 L899.441 821.409 L896.779 821.409 L896.779 805.206 M896.779 798.898 L899.441 798.898 L899.441 802.269 L896.779 802.269 L896.779 798.898 Z" fill="#000000" fill-rule="evenodd" fill-opacity="1" /><path clip-path="url(#clip460)" d="M 0 0 M915.702 811.629 L915.702 821.409 L913.04 821.409 L913.04 811.716 Q913.04 809.416 912.143 808.273 Q911.246 807.13 909.453 807.13 Q907.297 807.13 906.053 808.504 Q904.808 809.879 904.808 812.251 L904.808 821.409 L902.132 821.409 L902.132 805.206 L904.808 805.206 L904.808 807.723 Q905.763 806.262 907.051 805.539 Q908.353 804.815 910.046 804.815 Q912.838 804.815 914.27 806.551 Q915.702 808.273 915.702 811.629 Z" fill="#000000" fill-rule="evenodd" fill-opacity="1" /><path clip-path="url(#clip460)" d="M 0 0 M921.128 800.605 L921.128 805.206 L926.611 805.206 L926.611 807.275 L921.128 807.275 L921.128 816.071 Q921.128 818.053 921.663 818.617 Q922.213 819.181 923.877 819.181 L926.611 819.181 L926.611 821.409 L923.877 821.409 Q920.795 821.409 919.623 820.266 Q918.451 819.109 918.451 816.071 L918.451 807.275 L916.498 807.275 L916.498 805.206 L918.451 805.206 L918.451 800.605 L921.128 800.605 Z" fill="#000000" fill-rule="evenodd" fill-opacity="1" /><path clip-path="url(#clip460)" d="M 0 0 M939.733 805.683 L939.733 808.201 Q938.605 807.622 937.389 807.332 Q936.174 807.043 934.872 807.043 Q932.89 807.043 931.892 807.651 Q930.908 808.258 930.908 809.474 Q930.908 810.4 931.617 810.935 Q932.326 811.456 934.467 811.933 L935.378 812.136 Q938.214 812.743 939.4 813.857 Q940.601 814.957 940.601 816.939 Q940.601 819.196 938.807 820.512 Q937.028 821.829 933.903 821.829 Q932.601 821.829 931.183 821.569 Q929.779 821.323 928.217 820.816 L928.217 818.067 Q929.693 818.834 931.125 819.225 Q932.557 819.601 933.96 819.601 Q935.841 819.601 936.854 818.964 Q937.867 818.313 937.867 817.141 Q937.867 816.056 937.129 815.478 Q936.405 814.899 933.932 814.364 L933.006 814.147 Q930.532 813.626 929.432 812.555 Q928.333 811.47 928.333 809.589 Q928.333 807.304 929.953 806.059 Q931.573 804.815 934.554 804.815 Q936.029 804.815 937.331 805.032 Q938.633 805.249 939.733 805.683 Z" fill="#000000" fill-rule="evenodd" fill-opacity="1" /><path clip-path="url(#clip460)" d="M 0 0 M1107.1 1094.22 L1107.1 1102.34 L1110.78 1102.34 Q1112.82 1102.34 1113.93 1101.28 Q1115.05 1100.23 1115.05 1098.27 Q1115.05 1096.33 1113.93 1095.28 Q1112.82 1094.22 1110.78 1094.22 L1107.1 1094.22 M1104.18 1091.82 L1110.78 1091.82 Q1114.41 1091.82 1116.26 1093.47 Q1118.13 1095.1 1118.13 1098.27 Q1118.13 1101.47 1116.26 1103.1 Q1114.41 1104.74 1110.78 1104.74 L1107.1 1104.74 L1107.1 1113.42 L1104.18 1113.42 L1104.18 1091.82 Z" fill="#000000" fill-rule="evenodd" fill-opacity="1" /><path clip-path="url(#clip460)" d="M 0 0 M1133.72 1104.65 L1133.72 1105.95 L1121.49 1105.95 Q1121.66 1108.7 1123.13 1110.15 Q1124.62 1111.58 1127.27 1111.58 Q1128.81 1111.58 1130.24 1111.21 Q1131.68 1110.83 1133.1 1110.08 L1133.1 1112.6 Q1131.67 1113.2 1130.17 1113.52 Q1128.66 1113.84 1127.11 1113.84 Q1123.24 1113.84 1120.96 1111.58 Q1118.71 1109.33 1118.71 1105.48 Q1118.71 1101.5 1120.85 1099.17 Q1123 1096.83 1126.65 1096.83 Q1129.92 1096.83 1131.82 1098.94 Q1133.72 1101.04 1133.72 1104.65 M1131.06 1103.87 Q1131.03 1101.69 1129.83 1100.38 Q1128.65 1099.08 1126.68 1099.08 Q1124.45 1099.08 1123.11 1100.34 Q1121.77 1101.6 1121.57 1103.89 L1131.06 1103.87 Z" fill="#000000" fill-rule="evenodd" fill-opacity="1" /><path clip-path="url(#clip460)" d="M 0 0 M1145.91 1099.7 Q1145.46 1099.44 1144.92 1099.33 Q1144.4 1099.2 1143.77 1099.2 Q1141.51 1099.2 1140.29 1100.67 Q1139.09 1102.14 1139.09 1104.88 L1139.09 1113.42 L1136.42 1113.42 L1136.42 1097.22 L1139.09 1097.22 L1139.09 1099.73 Q1139.93 1098.26 1141.28 1097.55 Q1142.62 1096.83 1144.55 1096.83 Q1144.82 1096.83 1145.15 1096.87 Q1145.49 1096.9 1145.89 1096.97 L1145.91 1099.7 Z" fill="#000000" fill-rule="evenodd" fill-opacity="1" /><path clip-path="url(#clip460)" d="M 0 0 M1156.9 1090.91 L1156.9 1093.12 L1154.36 1093.12 Q1152.92 1093.12 1152.36 1093.7 Q1151.81 1094.28 1151.81 1095.78 L1151.81 1097.22 L1156.19 1097.22 L1156.19 1099.29 L1151.81 1099.29 L1151.81 1113.42 L1149.13 1113.42 L1149.13 1099.29 L1146.59 1099.29 L1146.59 1097.22 L1149.13 1097.22 L1149.13 1096.09 Q1149.13 1093.38 1150.39 1092.15 Q1151.65 1090.91 1154.38 1090.91 L1156.9 1090.91 Z" fill="#000000" fill-rule="evenodd" fill-opacity="1" /><path clip-path="url(#clip460)" d="M 0 0 M1165.97 1099.08 Q1163.83 1099.08 1162.59 1100.76 Q1161.34 1102.42 1161.34 1105.33 Q1161.34 1108.24 1162.57 1109.92 Q1163.82 1111.58 1165.97 1111.58 Q1168.1 1111.58 1169.34 1109.9 Q1170.59 1108.23 1170.59 1105.33 Q1170.59 1102.45 1169.34 1100.78 Q1168.1 1099.08 1165.97 1099.08 M1165.97 1096.83 Q1169.45 1096.83 1171.43 1099.08 Q1173.41 1101.34 1173.41 1105.33 Q1173.41 1109.31 1171.43 1111.58 Q1169.45 1113.84 1165.97 1113.84 Q1162.49 1113.84 1160.5 1111.58 Q1158.54 1109.31 1158.54 1105.33 Q1158.54 1101.34 1160.5 1099.08 Q1162.49 1096.83 1165.97 1096.83 Z" fill="#000000" fill-rule="evenodd" fill-opacity="1" /><path clip-path="url(#clip460)" d="M 0 0 M1185.59 1099.7 Q1185.14 1099.44 1184.61 1099.33 Q1184.09 1099.2 1183.45 1099.2 Q1181.19 1099.2 1179.98 1100.67 Q1178.78 1102.14 1178.78 1104.88 L1178.78 1113.42 L1176.1 1113.42 L1176.1 1097.22 L1178.78 1097.22 L1178.78 1099.73 Q1179.62 1098.26 1180.96 1097.55 Q1182.31 1096.83 1184.23 1096.83 Q1184.51 1096.83 1184.84 1096.87 Q1185.17 1096.9 1185.58 1096.97 L1185.59 1099.7 Z" fill="#000000" fill-rule="evenodd" fill-opacity="1" /><path clip-path="url(#clip460)" d="M 0 0 M1200.48 1100.33 Q1201.48 1098.53 1202.87 1097.68 Q1204.25 1096.83 1206.13 1096.83 Q1208.67 1096.83 1210.04 1098.61 Q1211.42 1100.37 1211.42 1103.64 L1211.42 1113.42 L1208.74 1113.42 L1208.74 1103.73 Q1208.74 1101.4 1207.91 1100.27 Q1207.09 1099.14 1205.4 1099.14 Q1203.33 1099.14 1202.13 1100.52 Q1200.93 1101.89 1200.93 1104.26 L1200.93 1113.42 L1198.25 1113.42 L1198.25 1103.73 Q1198.25 1101.38 1197.43 1100.27 Q1196.6 1099.14 1194.88 1099.14 Q1192.84 1099.14 1191.64 1100.53 Q1190.44 1101.9 1190.44 1104.26 L1190.44 1113.42 L1187.76 1113.42 L1187.76 1097.22 L1190.44 1097.22 L1190.44 1099.73 Q1191.35 1098.24 1192.62 1097.53 Q1193.9 1096.83 1195.65 1096.83 Q1197.41 1096.83 1198.64 1097.72 Q1199.88 1098.62 1200.48 1100.33 Z" fill="#000000" fill-rule="evenodd" fill-opacity="1" /><path clip-path="url(#clip460)" d="M 0 0 M1221.57 1105.27 Q1218.35 1105.27 1217.1 1106.01 Q1215.86 1106.75 1215.86 1108.53 Q1215.86 1109.95 1216.78 1110.79 Q1217.72 1111.61 1219.33 1111.61 Q1221.54 1111.61 1222.87 1110.05 Q1224.22 1108.47 1224.22 1105.87 L1224.22 1105.27 L1221.57 1105.27 M1226.88 1104.18 L1226.88 1113.42 L1224.22 1113.42 L1224.22 1110.96 Q1223.31 1112.44 1221.95 1113.15 Q1220.59 1113.84 1218.62 1113.84 Q1216.13 1113.84 1214.66 1112.45 Q1213.19 1111.05 1213.19 1108.7 Q1213.19 1105.97 1215.02 1104.58 Q1216.86 1103.19 1220.49 1103.19 L1224.22 1103.19 L1224.22 1102.93 Q1224.22 1101.09 1223 1100.1 Q1221.8 1099.08 1219.62 1099.08 Q1218.23 1099.08 1216.91 1099.42 Q1215.6 1099.75 1214.38 1100.41 L1214.38 1097.95 Q1215.84 1097.39 1217.22 1097.12 Q1218.59 1096.83 1219.89 1096.83 Q1223.41 1096.83 1225.15 1098.65 Q1226.88 1100.47 1226.88 1104.18 Z" fill="#000000" fill-rule="evenodd" fill-opacity="1" /><path clip-path="url(#clip460)" d="M 0 0 M1243.14 1103.64 L1243.14 1113.42 L1240.48 1113.42 L1240.48 1103.73 Q1240.48 1101.43 1239.58 1100.28 Q1238.69 1099.14 1236.89 1099.14 Q1234.74 1099.14 1233.49 1100.52 Q1232.25 1101.89 1232.25 1104.26 L1232.25 1113.42 L1229.57 1113.42 L1229.57 1097.22 L1232.25 1097.22 L1232.25 1099.73 Q1233.2 1098.27 1234.49 1097.55 Q1235.79 1096.83 1237.49 1096.83 Q1240.28 1096.83 1241.71 1098.56 Q1243.14 1100.28 1243.14 1103.64 Z" fill="#000000" fill-rule="evenodd" fill-opacity="1" /><path clip-path="url(#clip460)" d="M 0 0 M1257.6 1097.84 L1257.6 1100.33 Q1256.47 1099.7 1255.32 1099.4 Q1254.2 1099.08 1253.04 1099.08 Q1250.45 1099.08 1249.02 1100.73 Q1247.58 1102.37 1247.58 1105.33 Q1247.58 1108.3 1249.02 1109.95 Q1250.45 1111.58 1253.04 1111.58 Q1254.2 1111.58 1255.32 1111.28 Q1256.47 1110.96 1257.6 1110.34 L1257.6 1112.8 Q1256.48 1113.32 1255.28 1113.58 Q1254.09 1113.84 1252.75 1113.84 Q1249.09 1113.84 1246.93 1111.54 Q1244.78 1109.24 1244.78 1105.33 Q1244.78 1101.37 1246.95 1099.1 Q1249.13 1096.83 1252.92 1096.83 Q1254.15 1096.83 1255.32 1097.09 Q1256.5 1097.33 1257.6 1097.84 Z" fill="#000000" fill-rule="evenodd" fill-opacity="1" /><path clip-path="url(#clip460)" d="M 0 0 M1274.25 1104.65 L1274.25 1105.95 L1262.01 1105.95 Q1262.18 1108.7 1263.66 1110.15 Q1265.15 1111.58 1267.8 1111.58 Q1269.33 1111.58 1270.76 1111.21 Q1272.21 1110.83 1273.63 1110.08 L1273.63 1112.6 Q1272.19 1113.2 1270.69 1113.52 Q1269.18 1113.84 1267.64 1113.84 Q1263.76 1113.84 1261.49 1111.58 Q1259.23 1109.33 1259.23 1105.48 Q1259.23 1101.5 1261.37 1099.17 Q1263.53 1096.83 1267.17 1096.83 Q1270.44 1096.83 1272.34 1098.94 Q1274.25 1101.04 1274.25 1104.65 M1271.59 1103.87 Q1271.56 1101.69 1270.36 1100.38 Q1269.17 1099.08 1267.2 1099.08 Q1264.97 1099.08 1263.63 1100.34 Q1262.3 1101.6 1262.1 1103.89 L1271.59 1103.87 Z" fill="#000000" fill-rule="evenodd" fill-opacity="1" /><path clip-path="url(#clip460)" d="M 0 0 M1289.35 1118.34 L1289.35 1120.41 L1273.96 1120.41 L1273.96 1118.34 L1289.35 1118.34 Z" fill="#000000" fill-rule="evenodd" fill-opacity="1" /><path clip-path="url(#clip460)" d="M 0 0 M1295.18 1094.22 L1295.18 1102.34 L1298.86 1102.34 Q1300.9 1102.34 1302.01 1101.28 Q1303.12 1100.23 1303.12 1098.27 Q1303.12 1096.33 1302.01 1095.28 Q1300.9 1094.22 1298.86 1094.22 L1295.18 1094.22 M1292.26 1091.82 L1298.86 1091.82 Q1302.49 1091.82 1304.34 1093.47 Q1306.21 1095.1 1306.21 1098.27 Q1306.21 1101.47 1304.34 1103.1 Q1302.49 1104.74 1298.86 1104.74 L1295.18 1104.74 L1295.18 1113.42 L1292.26 1113.42 L1292.26 1091.82 Z" fill="#000000" fill-rule="evenodd" fill-opacity="1" /><path clip-path="url(#clip460)" d="M 0 0 M1315.03 1105.27 Q1311.81 1105.27 1310.56 1106.01 Q1309.32 1106.75 1309.32 1108.53 Q1309.32 1109.95 1310.24 1110.79 Q1311.18 1111.61 1312.79 1111.61 Q1315 1111.61 1316.33 1110.05 Q1317.68 1108.47 1317.68 1105.87 L1317.68 1105.27 L1315.03 1105.27 M1320.34 1104.18 L1320.34 1113.42 L1317.68 1113.42 L1317.68 1110.96 Q1316.77 1112.44 1315.41 1113.15 Q1314.05 1113.84 1312.08 1113.84 Q1309.59 1113.84 1308.12 1112.45 Q1306.66 1111.05 1306.66 1108.7 Q1306.66 1105.97 1308.48 1104.58 Q1310.32 1103.19 1313.95 1103.19 L1317.68 1103.19 L1317.68 1102.93 Q1317.68 1101.09 1316.46 1100.1 Q1315.26 1099.08 1313.08 1099.08 Q1311.69 1099.08 1310.37 1099.42 Q1309.06 1099.75 1307.84 1100.41 L1307.84 1097.95 Q1309.3 1097.39 1310.68 1097.12 Q1312.05 1096.83 1313.35 1096.83 Q1316.87 1096.83 1318.61 1098.65 Q1320.34 1100.47 1320.34 1104.18 Z" fill="#000000" fill-rule="evenodd" fill-opacity="1" /><path clip-path="url(#clip460)" d="M 0 0 M1332.52 1099.7 Q1332.07 1099.44 1331.54 1099.33 Q1331.02 1099.2 1330.38 1099.2 Q1328.12 1099.2 1326.91 1100.67 Q1325.71 1102.14 1325.71 1104.88 L1325.71 1113.42 L1323.03 1113.42 L1323.03 1097.22 L1325.71 1097.22 L1325.71 1099.73 Q1326.55 1098.26 1327.89 1097.55 Q1329.24 1096.83 1331.16 1096.83 Q1331.44 1096.83 1331.77 1096.87 Q1332.1 1096.9 1332.51 1096.97 L1332.52 1099.7 Z" fill="#000000" fill-rule="evenodd" fill-opacity="1" /><path clip-path="url(#clip460)" d="M 0 0 M1342.68 1105.27 Q1339.45 1105.27 1338.21 1106.01 Q1336.96 1106.75 1336.96 1108.53 Q1336.96 1109.95 1337.89 1110.79 Q1338.83 1111.61 1340.44 1111.61 Q1342.65 1111.61 1343.98 1110.05 Q1345.33 1108.47 1345.33 1105.87 L1345.33 1105.27 L1342.68 1105.27 M1347.99 1104.18 L1347.99 1113.42 L1345.33 1113.42 L1345.33 1110.96 Q1344.42 1112.44 1343.06 1113.15 Q1341.7 1113.84 1339.73 1113.84 Q1337.24 1113.84 1335.76 1112.45 Q1334.3 1111.05 1334.3 1108.7 Q1334.3 1105.97 1336.13 1104.58 Q1337.96 1103.19 1341.59 1103.19 L1345.33 1103.19 L1345.33 1102.93 Q1345.33 1101.09 1344.11 1100.1 Q1342.91 1099.08 1340.73 1099.08 Q1339.34 1099.08 1338.02 1099.42 Q1336.7 1099.75 1335.49 1100.41 L1335.49 1097.95 Q1336.95 1097.39 1338.32 1097.12 Q1339.7 1096.83 1341 1096.83 Q1344.52 1096.83 1346.25 1098.65 Q1347.99 1100.47 1347.99 1104.18 Z" fill="#000000" fill-rule="evenodd" fill-opacity="1" /><path clip-path="url(#clip460)" d="M 0 0 M1363.4 1100.33 Q1364.39 1098.53 1365.78 1097.68 Q1367.17 1096.83 1369.05 1096.83 Q1371.59 1096.83 1372.96 1098.61 Q1374.33 1100.37 1374.33 1103.64 L1374.33 1113.42 L1371.66 1113.42 L1371.66 1103.73 Q1371.66 1101.4 1370.83 1100.27 Q1370.01 1099.14 1368.32 1099.14 Q1366.25 1099.14 1365.05 1100.52 Q1363.85 1101.89 1363.85 1104.26 L1363.85 1113.42 L1361.17 1113.42 L1361.17 1103.73 Q1361.17 1101.38 1360.34 1100.27 Q1359.52 1099.14 1357.8 1099.14 Q1355.76 1099.14 1354.56 1100.53 Q1353.36 1101.9 1353.36 1104.26 L1353.36 1113.42 L1350.68 1113.42 L1350.68 1097.22 L1353.36 1097.22 L1353.36 1099.73 Q1354.27 1098.24 1355.54 1097.53 Q1356.81 1096.83 1358.56 1096.83 Q1360.33 1096.83 1361.56 1097.72 Q1362.8 1098.62 1363.4 1100.33 Z" fill="#000000" fill-rule="evenodd" fill-opacity="1" /><path clip-path="url(#clip460)" d="M 0 0 M1390.99 1104.65 L1390.99 1105.95 L1378.75 1105.95 Q1378.92 1108.7 1380.4 1110.15 Q1381.89 1111.58 1384.53 1111.58 Q1386.07 1111.58 1387.5 1111.21 Q1388.95 1110.83 1390.36 1110.08 L1390.36 1112.6 Q1388.93 1113.2 1387.43 1113.52 Q1385.92 1113.84 1384.37 1113.84 Q1380.5 1113.84 1378.23 1111.58 Q1375.97 1109.33 1375.97 1105.48 Q1375.97 1101.5 1378.11 1099.17 Q1380.27 1096.83 1383.91 1096.83 Q1387.18 1096.83 1389.08 1098.94 Q1390.99 1101.04 1390.99 1104.65 M1388.32 1103.87 Q1388.3 1101.69 1387.09 1100.38 Q1385.91 1099.08 1383.94 1099.08 Q1381.71 1099.08 1380.37 1100.34 Q1379.04 1101.6 1378.83 1103.89 L1388.32 1103.87 Z" fill="#000000" fill-rule="evenodd" fill-opacity="1" /><path clip-path="url(#clip460)" d="M 0 0 M1396.41 1092.62 L1396.41 1097.22 L1401.89 1097.22 L1401.89 1099.29 L1396.41 1099.29 L1396.41 1108.08 Q1396.41 1110.06 1396.95 1110.63 Q1397.5 1111.19 1399.16 1111.19 L1401.89 1111.19 L1401.89 1113.42 L1399.16 1113.42 Q1396.08 1113.42 1394.91 1112.28 Q1393.74 1111.12 1393.74 1108.08 L1393.74 1099.29 L1391.78 1099.29 L1391.78 1097.22 L1393.74 1097.22 L1393.74 1092.62 L1396.41 1092.62 Z" fill="#000000" fill-rule="evenodd" fill-opacity="1" /><path clip-path="url(#clip460)" d="M 0 0 M1418.55 1104.65 L1418.55 1105.95 L1406.31 1105.95 Q1406.48 1108.7 1407.96 1110.15 Q1409.45 1111.58 1412.09 1111.58 Q1413.63 1111.58 1415.06 1111.21 Q1416.51 1110.83 1417.92 1110.08 L1417.92 1112.6 Q1416.49 1113.2 1414.99 1113.52 Q1413.48 1113.84 1411.94 1113.84 Q1408.06 1113.84 1405.79 1111.58 Q1403.53 1109.33 1403.53 1105.48 Q1403.53 1101.5 1405.67 1099.17 Q1407.83 1096.83 1411.47 1096.83 Q1414.74 1096.83 1416.64 1098.94 Q1418.55 1101.04 1418.55 1104.65 M1415.88 1103.87 Q1415.86 1101.69 1414.66 1100.38 Q1413.47 1099.08 1411.5 1099.08 Q1409.27 1099.08 1407.93 1100.34 Q1406.6 1101.6 1406.39 1103.89 L1415.88 1103.87 Z" fill="#000000" fill-rule="evenodd" fill-opacity="1" /><path clip-path="url(#clip460)" d="M 0 0 M1430.73 1099.7 Q1430.28 1099.44 1429.74 1099.33 Q1429.22 1099.2 1428.59 1099.2 Q1426.33 1099.2 1425.12 1100.67 Q1423.91 1102.14 1423.91 1104.88 L1423.91 1113.42 L1421.24 1113.42 L1421.24 1097.22 L1423.91 1097.22 L1423.91 1099.73 Q1424.75 1098.26 1426.1 1097.55 Q1427.44 1096.83 1429.37 1096.83 Q1429.64 1096.83 1429.98 1096.87 Q1430.31 1096.9 1430.71 1096.97 L1430.73 1099.7 Z" fill="#000000" fill-rule="evenodd" fill-opacity="1" /><path clip-path="url(#clip460)" d="M 0 0 M1443.85 1097.69 L1443.85 1100.21 Q1442.72 1099.63 1441.51 1099.34 Q1440.29 1099.05 1438.99 1099.05 Q1437.01 1099.05 1436.01 1099.66 Q1435.03 1100.27 1435.03 1101.48 Q1435.03 1102.41 1435.73 1102.95 Q1436.44 1103.47 1438.58 1103.94 L1439.5 1104.15 Q1442.33 1104.75 1443.52 1105.87 Q1444.72 1106.97 1444.72 1108.95 Q1444.72 1111.21 1442.92 1112.52 Q1441.15 1113.84 1438.02 1113.84 Q1436.72 1113.84 1435.3 1113.58 Q1433.9 1113.33 1432.33 1112.83 L1432.33 1110.08 Q1433.81 1110.84 1435.24 1111.24 Q1436.67 1111.61 1438.08 1111.61 Q1439.96 1111.61 1440.97 1110.98 Q1441.98 1110.32 1441.98 1109.15 Q1441.98 1108.07 1441.25 1107.49 Q1440.52 1106.91 1438.05 1106.37 L1437.12 1106.16 Q1434.65 1105.64 1433.55 1104.57 Q1432.45 1103.48 1432.45 1101.6 Q1432.45 1099.31 1434.07 1098.07 Q1435.69 1096.83 1438.67 1096.83 Q1440.15 1096.83 1441.45 1097.04 Q1442.75 1097.26 1443.85 1097.69 Z" fill="#000000" fill-rule="evenodd" fill-opacity="1" /><path clip-path="url(#clip460)" d="M 0 0 M720.599 1118.02 L720.599 1121.1 Q719.124 1119.73 717.445 1119.05 Q715.782 1118.37 713.901 1118.37 Q710.197 1118.37 708.23 1120.64 Q706.262 1122.9 706.262 1127.18 Q706.262 1131.45 708.23 1133.72 Q710.197 1135.98 713.901 1135.98 Q715.782 1135.98 717.445 1135.3 Q719.124 1134.62 720.599 1133.24 L720.599 1136.3 Q719.066 1137.34 717.344 1137.86 Q715.637 1138.38 713.727 1138.38 Q708.823 1138.38 706.002 1135.38 Q703.181 1132.37 703.181 1127.18 Q703.181 1121.97 706.002 1118.98 Q708.823 1115.97 713.727 1115.97 Q715.666 1115.97 717.373 1116.49 Q719.095 1117 720.599 1118.02 Z" fill="#000000" fill-rule="evenodd" fill-opacity="1" /><path clip-path="url(#clip460)" d="M 0 0 M723.392 1115.45 L726.054 1115.45 L726.054 1137.96 L723.392 1137.96 L723.392 1115.45 Z" fill="#000000" fill-rule="evenodd" fill-opacity="1" /><path clip-path="url(#clip460)" d="M 0 0 M728.846 1121.76 L731.508 1121.76 L731.508 1137.96 L728.846 1137.96 L728.846 1121.76 M728.846 1115.45 L731.508 1115.45 L731.508 1118.82 L728.846 1118.82 L728.846 1115.45 Z" fill="#000000" fill-rule="evenodd" fill-opacity="1" /><path clip-path="url(#clip460)" d="M 0 0 M748.16 1129.19 L748.16 1130.49 L735.921 1130.49 Q736.094 1133.24 737.57 1134.69 Q739.06 1136.12 741.708 1136.12 Q743.241 1136.12 744.673 1135.75 Q746.12 1135.37 747.538 1134.62 L747.538 1137.13 Q746.106 1137.74 744.601 1138.06 Q743.096 1138.38 741.548 1138.38 Q737.671 1138.38 735.4 1136.12 Q733.143 1133.86 733.143 1130.02 Q733.143 1126.04 735.284 1123.71 Q737.44 1121.36 741.085 1121.36 Q744.355 1121.36 746.25 1123.48 Q748.16 1125.57 748.16 1129.19 M745.498 1128.41 Q745.469 1126.23 744.268 1124.92 Q743.082 1123.62 741.114 1123.62 Q738.886 1123.62 737.541 1124.88 Q736.21 1126.14 736.007 1128.43 L745.498 1128.41 Z" fill="#000000" fill-rule="evenodd" fill-opacity="1" /><path clip-path="url(#clip460)" d="M 0 0 M764.422 1128.18 L764.422 1137.96 L761.759 1137.96 L761.759 1128.27 Q761.759 1125.97 760.863 1124.82 Q759.966 1123.68 758.172 1123.68 Q756.016 1123.68 754.772 1125.05 Q753.527 1126.43 753.527 1128.8 L753.527 1137.96 L750.851 1137.96 L750.851 1121.76 L753.527 1121.76 L753.527 1124.27 Q754.482 1122.81 755.77 1122.09 Q757.072 1121.36 758.765 1121.36 Q761.557 1121.36 762.989 1123.1 Q764.422 1124.82 764.422 1128.18 Z" fill="#000000" fill-rule="evenodd" fill-opacity="1" /><path clip-path="url(#clip460)" d="M 0 0 M769.847 1117.15 L769.847 1121.76 L775.33 1121.76 L775.33 1123.82 L769.847 1123.82 L769.847 1132.62 Q769.847 1134.6 770.382 1135.17 Q770.932 1135.73 772.596 1135.73 L775.33 1135.73 L775.33 1137.96 L772.596 1137.96 Q769.514 1137.96 768.342 1136.82 Q767.17 1135.66 767.17 1132.62 L767.17 1123.82 L765.217 1123.82 L765.217 1121.76 L767.17 1121.76 L767.17 1117.15 L769.847 1117.15 Z" fill="#000000" fill-rule="evenodd" fill-opacity="1" /><path clip-path="url(#clip460)" d="M 0 0 M790.434 1142.88 L790.434 1144.95 L775.041 1144.95 L775.041 1142.88 L790.434 1142.88 Z" fill="#000000" fill-rule="evenodd" fill-opacity="1" /><path clip-path="url(#clip460)" d="M 0 0 M800.59 1129.81 Q797.364 1129.81 796.12 1130.55 Q794.876 1131.29 794.876 1133.07 Q794.876 1134.49 795.802 1135.33 Q796.742 1136.15 798.348 1136.15 Q800.561 1136.15 801.892 1134.59 Q803.238 1133.01 803.238 1130.41 L803.238 1129.81 L800.59 1129.81 M805.9 1128.71 L805.9 1137.96 L803.238 1137.96 L803.238 1135.5 Q802.326 1136.98 800.966 1137.68 Q799.607 1138.38 797.639 1138.38 Q795.151 1138.38 793.675 1136.99 Q792.214 1135.59 792.214 1133.24 Q792.214 1130.51 794.037 1129.12 Q795.874 1127.73 799.505 1127.73 L803.238 1127.73 L803.238 1127.47 Q803.238 1125.63 802.023 1124.63 Q800.822 1123.62 798.637 1123.62 Q797.248 1123.62 795.932 1123.95 Q794.615 1124.29 793.4 1124.95 L793.4 1122.49 Q794.861 1121.93 796.236 1121.65 Q797.61 1121.36 798.912 1121.36 Q802.428 1121.36 804.164 1123.19 Q805.9 1125.01 805.9 1128.71 Z" fill="#000000" fill-rule="evenodd" fill-opacity="1" /><path clip-path="url(#clip460)" d="M 0 0 M822.161 1128.18 L822.161 1137.96 L819.499 1137.96 L819.499 1128.27 Q819.499 1125.97 818.602 1124.82 Q817.705 1123.68 815.911 1123.68 Q813.756 1123.68 812.512 1125.05 Q811.267 1126.43 811.267 1128.8 L811.267 1137.96 L808.591 1137.96 L808.591 1121.76 L811.267 1121.76 L811.267 1124.27 Q812.222 1122.81 813.51 1122.09 Q814.812 1121.36 816.505 1121.36 Q819.297 1121.36 820.729 1123.1 Q822.161 1124.82 822.161 1128.18 Z" fill="#000000" fill-rule="evenodd" fill-opacity="1" /><path clip-path="url(#clip460)" d="M 0 0 M835.616 1124.21 L835.616 1115.45 L838.278 1115.45 L838.278 1137.96 L835.616 1137.96 L835.616 1135.53 Q834.777 1136.98 833.489 1137.68 Q832.216 1138.38 830.422 1138.38 Q827.485 1138.38 825.634 1136.03 Q823.796 1133.69 823.796 1129.87 Q823.796 1126.05 825.634 1123.71 Q827.485 1121.36 830.422 1121.36 Q832.216 1121.36 833.489 1122.07 Q834.777 1122.77 835.616 1124.21 M826.545 1129.87 Q826.545 1132.81 827.746 1134.49 Q828.961 1136.15 831.073 1136.15 Q833.186 1136.15 834.401 1134.49 Q835.616 1132.81 835.616 1129.87 Q835.616 1126.93 834.401 1125.27 Q833.186 1123.59 831.073 1123.59 Q828.961 1123.59 827.746 1125.27 Q826.545 1126.93 826.545 1129.87 Z" fill="#000000" fill-rule="evenodd" fill-opacity="1" /><path clip-path="url(#clip460)" d="M 0 0 M853.382 1142.88 L853.382 1144.95 L837.989 1144.95 L837.989 1142.88 L853.382 1142.88 Z" fill="#000000" fill-rule="evenodd" fill-opacity="1" /><path clip-path="url(#clip460)" d="M 0 0 M872.465 1118.02 L872.465 1121.1 Q870.989 1119.73 869.311 1119.05 Q867.647 1118.37 865.766 1118.37 Q862.063 1118.37 860.095 1120.64 Q858.128 1122.9 858.128 1127.18 Q858.128 1131.45 860.095 1133.72 Q862.063 1135.98 865.766 1135.98 Q867.647 1135.98 869.311 1135.3 Q870.989 1134.62 872.465 1133.24 L872.465 1136.3 Q870.931 1137.34 869.21 1137.86 Q867.503 1138.38 865.593 1138.38 Q860.688 1138.38 857.867 1135.38 Q855.046 1132.37 855.046 1127.18 Q855.046 1121.97 857.867 1118.98 Q860.688 1115.97 865.593 1115.97 Q867.532 1115.97 869.239 1116.49 Q870.96 1117 872.465 1118.02 Z" fill="#000000" fill-rule="evenodd" fill-opacity="1" /><path clip-path="url(#clip460)" d="M 0 0 M881.536 1123.62 Q879.395 1123.62 878.151 1125.3 Q876.906 1126.96 876.906 1129.87 Q876.906 1132.78 878.136 1134.46 Q879.38 1136.12 881.536 1136.12 Q883.663 1136.12 884.907 1134.44 Q886.151 1132.77 886.151 1129.87 Q886.151 1126.99 884.907 1125.31 Q883.663 1123.62 881.536 1123.62 M881.536 1121.36 Q885.008 1121.36 886.99 1123.62 Q888.972 1125.88 888.972 1129.87 Q888.972 1133.85 886.99 1136.12 Q885.008 1138.38 881.536 1138.38 Q878.049 1138.38 876.067 1136.12 Q874.1 1133.85 874.1 1129.87 Q874.1 1125.88 876.067 1123.62 Q878.049 1121.36 881.536 1121.36 Z" fill="#000000" fill-rule="evenodd" fill-opacity="1" /><path clip-path="url(#clip460)" d="M 0 0 M905.234 1128.18 L905.234 1137.96 L902.572 1137.96 L902.572 1128.27 Q902.572 1125.97 901.675 1124.82 Q900.778 1123.68 898.984 1123.68 Q896.828 1123.68 895.584 1125.05 Q894.34 1126.43 894.34 1128.8 L894.34 1137.96 L891.663 1137.96 L891.663 1121.76 L894.34 1121.76 L894.34 1124.27 Q895.295 1122.81 896.582 1122.09 Q897.884 1121.36 899.577 1121.36 Q902.369 1121.36 903.802 1123.1 Q905.234 1124.82 905.234 1128.18 Z" fill="#000000" fill-rule="evenodd" fill-opacity="1" /><path clip-path="url(#clip460)" d="M 0 0 M918.356 1122.23 L918.356 1124.75 Q917.227 1124.17 916.012 1123.88 Q914.797 1123.59 913.495 1123.59 Q911.513 1123.59 910.514 1124.2 Q909.531 1124.81 909.531 1126.02 Q909.531 1126.95 910.24 1127.48 Q910.949 1128.01 913.09 1128.48 L914.001 1128.69 Q916.837 1129.29 918.023 1130.41 Q919.224 1131.51 919.224 1133.49 Q919.224 1135.75 917.43 1137.06 Q915.65 1138.38 912.525 1138.38 Q911.223 1138.38 909.806 1138.12 Q908.402 1137.87 906.84 1137.37 L906.84 1134.62 Q908.315 1135.38 909.748 1135.77 Q911.18 1136.15 912.583 1136.15 Q914.464 1136.15 915.477 1135.51 Q916.49 1134.86 916.49 1133.69 Q916.49 1132.61 915.752 1132.03 Q915.028 1131.45 912.554 1130.91 L911.628 1130.7 Q909.155 1130.18 908.055 1129.1 Q906.955 1128.02 906.955 1126.14 Q906.955 1123.85 908.576 1122.61 Q910.196 1121.36 913.177 1121.36 Q914.652 1121.36 915.954 1121.58 Q917.256 1121.8 918.356 1122.23 Z" fill="#000000" fill-rule="evenodd" fill-opacity="1" /><path clip-path="url(#clip460)" d="M 0 0 M921.741 1131.56 L921.741 1121.76 L924.403 1121.76 L924.403 1131.46 Q924.403 1133.76 925.3 1134.92 Q926.197 1136.06 927.991 1136.06 Q930.147 1136.06 931.391 1134.69 Q932.65 1133.32 932.65 1130.94 L932.65 1121.76 L935.312 1121.76 L935.312 1137.96 L932.65 1137.96 L932.65 1135.47 Q931.68 1136.95 930.393 1137.67 Q929.12 1138.38 927.427 1138.38 Q924.635 1138.38 923.188 1136.64 Q921.741 1134.91 921.741 1131.56 M928.44 1121.36 L928.44 1121.36 Z" fill="#000000" fill-rule="evenodd" fill-opacity="1" /><path clip-path="url(#clip460)" d="M 0 0 M938.104 1115.45 L940.766 1115.45 L940.766 1137.96 L938.104 1137.96 L938.104 1115.45 Z" fill="#000000" fill-rule="evenodd" fill-opacity="1" /><path clip-path="url(#clip460)" d="M 0 0 M946.191 1117.15 L946.191 1121.76 L951.675 1121.76 L951.675 1123.82 L946.191 1123.82 L946.191 1132.62 Q946.191 1134.6 946.727 1135.17 Q947.276 1135.73 948.94 1135.73 L951.675 1135.73 L951.675 1137.96 L948.94 1137.96 Q945.859 1137.96 944.687 1136.82 Q943.515 1135.66 943.515 1132.62 L943.515 1123.82 L941.562 1123.82 L941.562 1121.76 L943.515 1121.76 L943.515 1117.15 L946.191 1117.15 Z" fill="#000000" fill-rule="evenodd" fill-opacity="1" /><path clip-path="url(#clip460)" d="M 0 0 M961.831 1129.81 Q958.605 1129.81 957.36 1130.55 Q956.116 1131.29 956.116 1133.07 Q956.116 1134.49 957.042 1135.33 Q957.982 1136.15 959.588 1136.15 Q961.802 1136.15 963.133 1134.59 Q964.478 1133.01 964.478 1130.41 L964.478 1129.81 L961.831 1129.81 M967.14 1128.71 L967.14 1137.96 L964.478 1137.96 L964.478 1135.5 Q963.567 1136.98 962.207 1137.68 Q960.847 1138.38 958.879 1138.38 Q956.391 1138.38 954.915 1136.99 Q953.454 1135.59 953.454 1133.24 Q953.454 1130.51 955.277 1129.12 Q957.114 1127.73 960.746 1127.73 L964.478 1127.73 L964.478 1127.47 Q964.478 1125.63 963.263 1124.63 Q962.062 1123.62 959.878 1123.62 Q958.489 1123.62 957.172 1123.95 Q955.856 1124.29 954.64 1124.95 L954.64 1122.49 Q956.102 1121.93 957.476 1121.65 Q958.85 1121.36 960.153 1121.36 Q963.668 1121.36 965.404 1123.19 Q967.14 1125.01 967.14 1128.71 Z" fill="#000000" fill-rule="evenodd" fill-opacity="1" /><path clip-path="url(#clip460)" d="M 0 0 M983.402 1128.18 L983.402 1137.96 L980.74 1137.96 L980.74 1128.27 Q980.74 1125.97 979.843 1124.82 Q978.946 1123.68 977.152 1123.68 Q974.996 1123.68 973.752 1125.05 Q972.508 1126.43 972.508 1128.8 L972.508 1137.96 L969.831 1137.96 L969.831 1121.76 L972.508 1121.76 L972.508 1124.27 Q973.463 1122.81 974.75 1122.09 Q976.052 1121.36 977.745 1121.36 Q980.537 1121.36 981.97 1123.1 Q983.402 1124.82 983.402 1128.18 Z" fill="#000000" fill-rule="evenodd" fill-opacity="1" /><path clip-path="url(#clip460)" d="M 0 0 M988.827 1117.15 L988.827 1121.76 L994.31 1121.76 L994.31 1123.82 L988.827 1123.82 L988.827 1132.62 Q988.827 1134.6 989.362 1135.17 Q989.912 1135.73 991.576 1135.73 L994.31 1135.73 L994.31 1137.96 L991.576 1137.96 Q988.494 1137.96 987.323 1136.82 Q986.151 1135.66 986.151 1132.62 L986.151 1123.82 L984.198 1123.82 L984.198 1121.76 L986.151 1121.76 L986.151 1117.15 L988.827 1117.15 Z" fill="#000000" fill-rule="evenodd" fill-opacity="1" /><path clip-path="url(#clip460)" d="M 0 0 M1009.41 1142.88 L1009.41 1144.95 L994.021 1144.95 L994.021 1142.88 L1009.41 1142.88 Z" fill="#000000" fill-rule="evenodd" fill-opacity="1" /><path clip-path="url(#clip460)" d="M 0 0 M1022.57 1127.83 Q1023.51 1128.15 1024.39 1129.19 Q1025.29 1130.23 1026.18 1132.06 L1029.15 1137.96 L1026.01 1137.96 L1023.25 1132.42 Q1022.17 1130.25 1021.16 1129.54 Q1020.16 1128.83 1018.43 1128.83 L1015.24 1128.83 L1015.24 1137.96 L1012.32 1137.96 L1012.32 1116.36 L1018.92 1116.36 Q1022.62 1116.36 1024.45 1117.91 Q1026.27 1119.46 1026.27 1122.58 Q1026.27 1124.62 1025.31 1125.97 Q1024.37 1127.31 1022.57 1127.83 M1015.24 1118.76 L1015.24 1126.43 L1018.92 1126.43 Q1021.03 1126.43 1022.1 1125.46 Q1023.19 1124.48 1023.19 1122.58 Q1023.19 1120.68 1022.1 1119.73 Q1021.03 1118.76 1018.92 1118.76 L1015.24 1118.76 Z" fill="#000000" fill-rule="evenodd" fill-opacity="1" /><path clip-path="url(#clip460)" d="M 0 0 M1044.47 1129.19 L1044.47 1130.49 L1032.23 1130.49 Q1032.4 1133.24 1033.88 1134.69 Q1035.37 1136.12 1038.02 1136.12 Q1039.55 1136.12 1040.98 1135.75 Q1042.43 1135.37 1043.85 1134.62 L1043.85 1137.13 Q1042.41 1137.74 1040.91 1138.06 Q1039.41 1138.38 1037.86 1138.38 Q1033.98 1138.38 1031.71 1136.12 Q1029.45 1133.86 1029.45 1130.02 Q1029.45 1126.04 1031.59 1123.71 Q1033.75 1121.36 1037.39 1121.36 Q1040.66 1121.36 1042.56 1123.48 Q1044.47 1125.57 1044.47 1129.19 M1041.81 1128.41 Q1041.78 1126.23 1040.58 1124.92 Q1039.39 1123.62 1037.42 1123.62 Q1035.2 1123.62 1033.85 1124.88 Q1032.52 1126.14 1032.32 1128.43 L1041.81 1128.41 Z" fill="#000000" fill-rule="evenodd" fill-opacity="1" /><path clip-path="url(#clip460)" d="M 0 0 M1048.85 1129.87 Q1048.85 1132.81 1050.05 1134.49 Q1051.27 1136.15 1053.38 1136.15 Q1055.49 1136.15 1056.71 1134.49 Q1057.92 1132.81 1057.92 1129.87 Q1057.92 1126.93 1056.71 1125.27 Q1055.49 1123.59 1053.38 1123.59 Q1051.27 1123.59 1050.05 1125.27 Q1048.85 1126.93 1048.85 1129.87 M1057.92 1135.53 Q1057.08 1136.98 1055.8 1137.68 Q1054.52 1138.38 1052.73 1138.38 Q1049.79 1138.38 1047.94 1136.03 Q1046.1 1133.69 1046.1 1129.87 Q1046.1 1126.05 1047.94 1123.71 Q1049.79 1121.36 1052.73 1121.36 Q1054.52 1121.36 1055.8 1122.07 Q1057.08 1122.77 1057.92 1124.21 L1057.92 1121.76 L1060.59 1121.76 L1060.59 1144.12 L1057.92 1144.12 L1057.92 1135.53 Z" fill="#000000" fill-rule="evenodd" fill-opacity="1" /><path clip-path="url(#clip460)" d="M 0 0 M1063.1 1131.56 L1063.1 1121.76 L1065.77 1121.76 L1065.77 1131.46 Q1065.77 1133.76 1066.66 1134.92 Q1067.56 1136.06 1069.35 1136.06 Q1071.51 1136.06 1072.75 1134.69 Q1074.01 1133.32 1074.01 1130.94 L1074.01 1121.76 L1076.67 1121.76 L1076.67 1137.96 L1074.01 1137.96 L1074.01 1135.47 Q1073.04 1136.95 1071.75 1137.67 Q1070.48 1138.38 1068.79 1138.38 Q1066 1138.38 1064.55 1136.64 Q1063.1 1134.91 1063.1 1131.56 M1069.8 1121.36 L1069.8 1121.36 Z" fill="#000000" fill-rule="evenodd" fill-opacity="1" /><path clip-path="url(#clip460)" d="M 0 0 M1093.33 1129.19 L1093.33 1130.49 L1081.09 1130.49 Q1081.26 1133.24 1082.74 1134.69 Q1084.23 1136.12 1086.87 1136.12 Q1088.41 1136.12 1089.84 1135.75 Q1091.29 1135.37 1092.7 1134.62 L1092.7 1137.13 Q1091.27 1137.74 1089.77 1138.06 Q1088.26 1138.38 1086.71 1138.38 Q1082.84 1138.38 1080.57 1136.12 Q1078.31 1133.86 1078.31 1130.02 Q1078.31 1126.04 1080.45 1123.71 Q1082.61 1121.36 1086.25 1121.36 Q1089.52 1121.36 1091.42 1123.48 Q1093.33 1125.57 1093.33 1129.19 M1090.66 1128.41 Q1090.64 1126.23 1089.43 1124.92 Q1088.25 1123.62 1086.28 1123.62 Q1084.05 1123.62 1082.71 1124.88 Q1081.38 1126.14 1081.17 1128.43 L1090.66 1128.41 Z" fill="#000000" fill-rule="evenodd" fill-opacity="1" /><path clip-path="url(#clip460)" d="M 0 0 M1106.45 1122.23 L1106.45 1124.75 Q1105.32 1124.17 1104.1 1123.88 Q1102.89 1123.59 1101.59 1123.59 Q1099.6 1123.59 1098.61 1124.2 Q1097.62 1124.81 1097.62 1126.02 Q1097.62 1126.95 1098.33 1127.48 Q1099.04 1128.01 1101.18 1128.48 L1102.09 1128.69 Q1104.93 1129.29 1106.12 1130.41 Q1107.32 1131.51 1107.32 1133.49 Q1107.32 1135.75 1105.52 1137.06 Q1103.74 1138.38 1100.62 1138.38 Q1099.32 1138.38 1097.9 1138.12 Q1096.49 1137.87 1094.93 1137.37 L1094.93 1134.62 Q1096.41 1135.38 1097.84 1135.77 Q1099.27 1136.15 1100.68 1136.15 Q1102.56 1136.15 1103.57 1135.51 Q1104.58 1134.86 1104.58 1133.69 Q1104.58 1132.61 1103.84 1132.03 Q1103.12 1131.45 1100.65 1130.91 L1099.72 1130.7 Q1097.25 1130.18 1096.15 1129.1 Q1095.05 1128.02 1095.05 1126.14 Q1095.05 1123.85 1096.67 1122.61 Q1098.29 1121.36 1101.27 1121.36 Q1102.74 1121.36 1104.05 1121.58 Q1105.35 1121.8 1106.45 1122.23 Z" fill="#000000" fill-rule="evenodd" fill-opacity="1" /><path clip-path="url(#clip460)" d="M 0 0 M1112.74 1117.15 L1112.74 1121.76 L1118.22 1121.76 L1118.22 1123.82 L1112.74 1123.82 L1112.74 1132.62 Q1112.74 1134.6 1113.28 1135.17 Q1113.83 1135.73 1115.49 1135.73 L1118.22 1135.73 L1118.22 1137.96 L1115.49 1137.96 Q1112.41 1137.96 1111.24 1136.82 Q1110.06 1135.66 1110.06 1132.62 L1110.06 1123.82 L1108.11 1123.82 L1108.11 1121.76 L1110.06 1121.76 L1110.06 1117.15 L1112.74 1117.15 Z" fill="#000000" fill-rule="evenodd" fill-opacity="1" /><path clip-path="url(#clip460)" d="M 0 0 M1131.35 1122.23 L1131.35 1124.75 Q1130.22 1124.17 1129 1123.88 Q1127.79 1123.59 1126.49 1123.59 Q1124.5 1123.59 1123.51 1124.2 Q1122.52 1124.81 1122.52 1126.02 Q1122.52 1126.95 1123.23 1127.48 Q1123.94 1128.01 1126.08 1128.48 L1126.99 1128.69 Q1129.83 1129.29 1131.01 1130.41 Q1132.21 1131.51 1132.21 1133.49 Q1132.21 1135.75 1130.42 1137.06 Q1128.64 1138.38 1125.52 1138.38 Q1124.21 1138.38 1122.8 1138.12 Q1121.39 1137.87 1119.83 1137.37 L1119.83 1134.62 Q1121.31 1135.38 1122.74 1135.77 Q1124.17 1136.15 1125.57 1136.15 Q1127.45 1136.15 1128.47 1135.51 Q1129.48 1134.86 1129.48 1133.69 Q1129.48 1132.61 1128.74 1132.03 Q1128.02 1131.45 1125.55 1130.91 L1124.62 1130.7 Q1122.15 1130.18 1121.05 1129.1 Q1119.95 1128.02 1119.95 1126.14 Q1119.95 1123.85 1121.57 1122.61 Q1123.19 1121.36 1126.17 1121.36 Q1127.64 1121.36 1128.95 1121.58 Q1130.25 1121.8 1131.35 1122.23 Z" fill="#000000" fill-rule="evenodd" fill-opacity="1" /><path clip-path="url(#clip460)" d="M 0 0 M1006.72 769.215 L1006.72 786.011 L1010.25 786.011 Q1014.72 786.011 1016.79 783.986 Q1018.87 781.96 1018.87 777.591 Q1018.87 773.251 1016.79 771.24 Q1014.72 769.215 1010.25 769.215 L1006.72 769.215 M1003.79 766.813 L1009.8 766.813 Q1016.08 766.813 1019.01 769.432 Q1021.95 772.036 1021.95 777.591 Q1021.95 783.176 1019 785.794 Q1016.05 788.413 1009.8 788.413 L1003.79 788.413 L1003.79 766.813 Z" fill="#000000" fill-rule="evenodd" fill-opacity="1" /><path clip-path="url(#clip460)" d="M 0 0 M1038.6 779.646 L1038.6 780.948 L1026.36 780.948 Q1026.54 783.697 1028.01 785.143 Q1029.5 786.576 1032.15 786.576 Q1033.68 786.576 1035.12 786.199 Q1036.56 785.823 1037.98 785.071 L1037.98 787.588 Q1036.55 788.196 1035.04 788.514 Q1033.54 788.832 1031.99 788.832 Q1028.11 788.832 1025.84 786.576 Q1023.59 784.319 1023.59 780.47 Q1023.59 776.492 1025.73 774.162 Q1027.88 771.819 1031.53 771.819 Q1034.8 771.819 1036.69 773.931 Q1038.6 776.029 1038.6 779.646 M1035.94 778.864 Q1035.91 776.68 1034.71 775.378 Q1033.53 774.076 1031.56 774.076 Q1029.33 774.076 1027.98 775.334 Q1026.65 776.593 1026.45 778.879 L1035.94 778.864 Z" fill="#000000" fill-rule="evenodd" fill-opacity="1" /><path clip-path="url(#clip460)" d="M 0 0 M1051.73 772.687 L1051.73 775.204 Q1050.6 774.625 1049.38 774.336 Q1048.17 774.047 1046.86 774.047 Q1044.88 774.047 1043.88 774.654 Q1042.9 775.262 1042.9 776.477 Q1042.9 777.403 1043.61 777.938 Q1044.32 778.459 1046.46 778.937 L1047.37 779.139 Q1050.21 779.747 1051.39 780.861 Q1052.59 781.96 1052.59 783.942 Q1052.59 786.199 1050.8 787.516 Q1049.02 788.832 1045.9 788.832 Q1044.59 788.832 1043.18 788.572 Q1041.77 788.326 1040.21 787.82 L1040.21 785.071 Q1041.69 785.838 1043.12 786.228 Q1044.55 786.605 1045.95 786.605 Q1047.83 786.605 1048.85 785.968 Q1049.86 785.317 1049.86 784.145 Q1049.86 783.06 1049.12 782.481 Q1048.4 781.903 1045.92 781.367 L1045 781.15 Q1042.52 780.629 1041.42 779.559 Q1040.33 778.474 1040.33 776.593 Q1040.33 774.307 1041.95 773.063 Q1043.57 771.819 1046.55 771.819 Q1048.02 771.819 1049.32 772.036 Q1050.63 772.253 1051.73 772.687 Z" fill="#000000" fill-rule="evenodd" fill-opacity="1" /><path clip-path="url(#clip460)" d="M 0 0 M1055.39 772.209 L1058.05 772.209 L1058.05 788.413 L1055.39 788.413 L1055.39 772.209 M1055.39 765.901 L1058.05 765.901 L1058.05 769.272 L1055.39 769.272 L1055.39 765.901 Z" fill="#000000" fill-rule="evenodd" fill-opacity="1" /><path clip-path="url(#clip460)" d="M 0 0 M1071.5 780.123 Q1071.5 777.23 1070.3 775.638 Q1069.12 774.047 1066.96 774.047 Q1064.82 774.047 1063.62 775.638 Q1062.43 777.23 1062.43 780.123 Q1062.43 783.002 1063.62 784.594 Q1064.82 786.185 1066.96 786.185 Q1069.12 786.185 1070.3 784.594 Q1071.5 783.002 1071.5 780.123 M1074.16 786.402 Q1074.16 790.54 1072.33 792.551 Q1070.49 794.576 1066.7 794.576 Q1065.3 794.576 1064.05 794.359 Q1062.81 794.157 1061.64 793.723 L1061.64 791.133 Q1062.81 791.769 1063.95 792.073 Q1065.09 792.377 1066.28 792.377 Q1068.9 792.377 1070.2 791.003 Q1071.5 789.643 1071.5 786.879 L1071.5 785.563 Q1070.68 786.995 1069.39 787.704 Q1068.1 788.413 1066.31 788.413 Q1063.33 788.413 1061.51 786.142 Q1059.68 783.87 1059.68 780.123 Q1059.68 776.362 1061.51 774.09 Q1063.33 771.819 1066.31 771.819 Q1068.1 771.819 1069.39 772.528 Q1070.68 773.237 1071.5 774.669 L1071.5 772.209 L1074.16 772.209 L1074.16 786.402 Z" fill="#000000" fill-rule="evenodd" fill-opacity="1" /><path clip-path="url(#clip460)" d="M 0 0 M1090.43 778.633 L1090.43 788.413 L1087.76 788.413 L1087.76 778.72 Q1087.76 776.419 1086.87 775.276 Q1085.97 774.134 1084.18 774.134 Q1082.02 774.134 1080.78 775.508 Q1079.53 776.882 1079.53 779.255 L1079.53 788.413 L1076.86 788.413 L1076.86 772.209 L1079.53 772.209 L1079.53 774.727 Q1080.49 773.265 1081.77 772.542 Q1083.08 771.819 1084.77 771.819 Q1087.56 771.819 1088.99 773.555 Q1090.43 775.276 1090.43 778.633 Z" fill="#000000" fill-rule="evenodd" fill-opacity="1" /><path clip-path="url(#clip460)" d="M 0 0 M1105.53 793.332 L1105.53 795.401 L1090.14 795.401 L1090.14 793.332 L1105.53 793.332 Z" fill="#000000" fill-rule="evenodd" fill-opacity="1" /><path clip-path="url(#clip460)" d="M 0 0 M1118.68 778.286 Q1119.62 778.604 1120.5 779.646 Q1121.4 780.687 1122.3 782.51 L1125.26 788.413 L1122.12 788.413 L1119.36 782.872 Q1118.29 780.702 1117.28 779.993 Q1116.28 779.284 1114.54 779.284 L1111.36 779.284 L1111.36 788.413 L1108.44 788.413 L1108.44 766.813 L1115.04 766.813 Q1118.74 766.813 1120.56 768.361 Q1122.38 769.909 1122.38 773.034 Q1122.38 775.074 1121.43 776.419 Q1120.49 777.765 1118.68 778.286 M1111.36 769.215 L1111.36 776.882 L1115.04 776.882 Q1117.15 776.882 1118.22 775.913 Q1119.3 774.929 1119.3 773.034 Q1119.3 771.139 1118.22 770.184 Q1117.15 769.215 1115.04 769.215 L1111.36 769.215 Z" fill="#000000" fill-rule="evenodd" fill-opacity="1" /><path clip-path="url(#clip460)" d="M 0 0 M1140.59 779.646 L1140.59 780.948 L1128.35 780.948 Q1128.52 783.697 1129.99 785.143 Q1131.48 786.576 1134.13 786.576 Q1135.67 786.576 1137.1 786.199 Q1138.55 785.823 1139.96 785.071 L1139.96 787.588 Q1138.53 788.196 1137.03 788.514 Q1135.52 788.832 1133.97 788.832 Q1130.1 788.832 1127.82 786.576 Q1125.57 784.319 1125.57 780.47 Q1125.57 776.492 1127.71 774.162 Q1129.86 771.819 1133.51 771.819 Q1136.78 771.819 1138.68 773.931 Q1140.59 776.029 1140.59 779.646 M1137.92 778.864 Q1137.89 776.68 1136.69 775.378 Q1135.51 774.076 1133.54 774.076 Q1131.31 774.076 1129.97 775.334 Q1128.63 776.593 1128.43 778.879 L1137.92 778.864 Z" fill="#000000" fill-rule="evenodd" fill-opacity="1" /><path clip-path="url(#clip460)" d="M 0 0 M1150.74 780.268 Q1147.51 780.268 1146.27 781.006 Q1145.03 781.743 1145.03 783.523 Q1145.03 784.941 1145.95 785.78 Q1146.89 786.605 1148.5 786.605 Q1150.71 786.605 1152.04 785.042 Q1153.39 783.465 1153.39 780.861 L1153.39 780.268 L1150.74 780.268 M1156.05 779.168 L1156.05 788.413 L1153.39 788.413 L1153.39 785.953 Q1152.48 787.429 1151.12 788.138 Q1149.76 788.832 1147.79 788.832 Q1145.3 788.832 1143.83 787.444 Q1142.36 786.04 1142.36 783.697 Q1142.36 780.962 1144.19 779.573 Q1146.02 778.184 1149.66 778.184 L1153.39 778.184 L1153.39 777.924 Q1153.39 776.087 1152.17 775.088 Q1150.97 774.076 1148.79 774.076 Q1147.4 774.076 1146.08 774.408 Q1144.77 774.741 1143.55 775.407 L1143.55 772.947 Q1145.01 772.383 1146.39 772.108 Q1147.76 771.819 1149.06 771.819 Q1152.58 771.819 1154.31 773.642 Q1156.05 775.465 1156.05 779.168 Z" fill="#000000" fill-rule="evenodd" fill-opacity="1" /><path clip-path="url(#clip460)" d="M 0 0 M1169.17 772.687 L1169.17 775.204 Q1168.04 774.625 1166.83 774.336 Q1165.61 774.047 1164.31 774.047 Q1162.33 774.047 1161.33 774.654 Q1160.35 775.262 1160.35 776.477 Q1160.35 777.403 1161.06 777.938 Q1161.77 778.459 1163.91 778.937 L1164.82 779.139 Q1167.65 779.747 1168.84 780.861 Q1170.04 781.96 1170.04 783.942 Q1170.04 786.199 1168.25 787.516 Q1166.47 788.832 1163.34 788.832 Q1162.04 788.832 1160.62 788.572 Q1159.22 788.326 1157.66 787.82 L1157.66 785.071 Q1159.13 785.838 1160.56 786.228 Q1162 786.605 1163.4 786.605 Q1165.28 786.605 1166.29 785.968 Q1167.31 785.317 1167.31 784.145 Q1167.31 783.06 1166.57 782.481 Q1165.85 781.903 1163.37 781.367 L1162.45 781.15 Q1159.97 780.629 1158.87 779.559 Q1157.77 778.474 1157.77 776.593 Q1157.77 774.307 1159.39 773.063 Q1161.01 771.819 1163.99 771.819 Q1165.47 771.819 1166.77 772.036 Q1168.07 772.253 1169.17 772.687 Z" fill="#000000" fill-rule="evenodd" fill-opacity="1" /><path clip-path="url(#clip460)" d="M 0 0 M1179.11 774.076 Q1176.97 774.076 1175.73 775.754 Q1174.48 777.418 1174.48 780.326 Q1174.48 783.234 1175.71 784.912 Q1176.96 786.576 1179.11 786.576 Q1181.24 786.576 1182.48 784.897 Q1183.73 783.219 1183.73 780.326 Q1183.73 777.447 1182.48 775.768 Q1181.24 774.076 1179.11 774.076 M1179.11 771.819 Q1182.58 771.819 1184.57 774.076 Q1186.55 776.333 1186.55 780.326 Q1186.55 784.304 1184.57 786.576 Q1182.58 788.832 1179.11 788.832 Q1175.63 788.832 1173.64 786.576 Q1171.68 784.304 1171.68 780.326 Q1171.68 776.333 1173.64 774.076 Q1175.63 771.819 1179.11 771.819 Z" fill="#000000" fill-rule="evenodd" fill-opacity="1" /><path clip-path="url(#clip460)" d="M 0 0 M1202.81 778.633 L1202.81 788.413 L1200.15 788.413 L1200.15 778.72 Q1200.15 776.419 1199.25 775.276 Q1198.35 774.134 1196.56 774.134 Q1194.4 774.134 1193.16 775.508 Q1191.92 776.882 1191.92 779.255 L1191.92 788.413 L1189.24 788.413 L1189.24 772.209 L1191.92 772.209 L1191.92 774.727 Q1192.87 773.265 1194.16 772.542 Q1195.46 771.819 1197.15 771.819 Q1199.95 771.819 1201.38 773.555 Q1202.81 775.276 1202.81 778.633 Z" fill="#000000" fill-rule="evenodd" fill-opacity="1" /><path clip-path="url(#clip460)" d="M 0 0 M1205.6 772.209 L1208.26 772.209 L1208.26 788.413 L1205.6 788.413 L1205.6 772.209 M1205.6 765.901 L1208.26 765.901 L1208.26 769.272 L1205.6 769.272 L1205.6 765.901 Z" fill="#000000" fill-rule="evenodd" fill-opacity="1" /><path clip-path="url(#clip460)" d="M 0 0 M1224.53 778.633 L1224.53 788.413 L1221.86 788.413 L1221.86 778.72 Q1221.86 776.419 1220.97 775.276 Q1220.07 774.134 1218.28 774.134 Q1216.12 774.134 1214.88 775.508 Q1213.63 776.882 1213.63 779.255 L1213.63 788.413 L1210.95 788.413 L1210.95 772.209 L1213.63 772.209 L1213.63 774.727 Q1214.59 773.265 1215.87 772.542 Q1217.18 771.819 1218.87 771.819 Q1221.66 771.819 1223.09 773.555 Q1224.53 775.276 1224.53 778.633 Z" fill="#000000" fill-rule="evenodd" fill-opacity="1" /><path clip-path="url(#clip460)" d="M 0 0 M1237.98 780.123 Q1237.98 777.23 1236.78 775.638 Q1235.59 774.047 1233.44 774.047 Q1231.3 774.047 1230.1 775.638 Q1228.91 777.23 1228.91 780.123 Q1228.91 783.002 1230.1 784.594 Q1231.3 786.185 1233.44 786.185 Q1235.59 786.185 1236.78 784.594 Q1237.98 783.002 1237.98 780.123 M1240.64 786.402 Q1240.64 790.54 1238.8 792.551 Q1236.97 794.576 1233.18 794.576 Q1231.77 794.576 1230.53 794.359 Q1229.29 794.157 1228.11 793.723 L1228.11 791.133 Q1229.29 791.769 1230.43 792.073 Q1231.57 792.377 1232.76 792.377 Q1235.38 792.377 1236.68 791.003 Q1237.98 789.643 1237.98 786.879 L1237.98 785.563 Q1237.16 786.995 1235.87 787.704 Q1234.58 788.413 1232.79 788.413 Q1229.81 788.413 1227.98 786.142 Q1226.16 783.87 1226.16 780.123 Q1226.16 776.362 1227.98 774.09 Q1229.81 771.819 1232.79 771.819 Q1234.58 771.819 1235.87 772.528 Q1237.16 773.237 1237.98 774.669 L1237.98 772.209 L1240.64 772.209 L1240.64 786.402 Z" fill="#000000" fill-rule="evenodd" fill-opacity="1" /><path clip-path="url(#clip460)" d="M 0 0 M791.457 1286.98 L791.457 1290.06 Q789.981 1288.69 788.303 1288.01 Q786.639 1287.33 784.758 1287.33 Q781.054 1287.33 779.087 1289.6 Q777.119 1291.86 777.119 1296.14 Q777.119 1300.41 779.087 1302.68 Q781.054 1304.94 784.758 1304.94 Q786.639 1304.94 788.303 1304.26 Q789.981 1303.58 791.457 1302.2 L791.457 1305.26 Q789.923 1306.3 788.201 1306.82 Q786.494 1307.34 784.584 1307.34 Q779.68 1307.34 776.859 1304.34 Q774.038 1301.33 774.038 1296.14 Q774.038 1290.93 776.859 1287.94 Q779.68 1284.93 784.584 1284.93 Q786.523 1284.93 788.23 1285.45 Q789.952 1285.96 791.457 1286.98 Z" fill="#000000" fill-rule="evenodd" fill-opacity="1" /><path clip-path="url(#clip460)" d="M 0 0 M800.528 1292.58 Q798.387 1292.58 797.142 1294.26 Q795.898 1295.92 795.898 1298.83 Q795.898 1301.74 797.128 1303.42 Q798.372 1305.08 800.528 1305.08 Q802.654 1305.08 803.899 1303.4 Q805.143 1301.73 805.143 1298.83 Q805.143 1295.95 803.899 1294.27 Q802.654 1292.58 800.528 1292.58 M800.528 1290.32 Q804 1290.32 805.982 1292.58 Q807.964 1294.84 807.964 1298.83 Q807.964 1302.81 805.982 1305.08 Q804 1307.34 800.528 1307.34 Q797.041 1307.34 795.059 1305.08 Q793.091 1302.81 793.091 1298.83 Q793.091 1294.84 795.059 1292.58 Q797.041 1290.32 800.528 1290.32 Z" fill="#000000" fill-rule="evenodd" fill-opacity="1" /><path clip-path="url(#clip460)" d="M 0 0 M810.756 1284.41 L813.418 1284.41 L813.418 1306.92 L810.756 1306.92 L810.756 1284.41 Z" fill="#000000" fill-rule="evenodd" fill-opacity="1" /><path clip-path="url(#clip460)" d="M 0 0 M816.21 1284.41 L818.873 1284.41 L818.873 1306.92 L816.21 1306.92 L816.21 1284.41 Z" fill="#000000" fill-rule="evenodd" fill-opacity="1" /><path clip-path="url(#clip460)" d="M 0 0 M829.029 1298.77 Q825.802 1298.77 824.558 1299.51 Q823.314 1300.25 823.314 1302.03 Q823.314 1303.45 824.24 1304.29 Q825.18 1305.11 826.786 1305.11 Q829 1305.11 830.331 1303.55 Q831.676 1301.97 831.676 1299.37 L831.676 1298.77 L829.029 1298.77 M834.338 1297.67 L834.338 1306.92 L831.676 1306.92 L831.676 1304.46 Q830.765 1305.94 829.405 1306.64 Q828.045 1307.34 826.077 1307.34 Q823.589 1307.34 822.113 1305.95 Q820.652 1304.55 820.652 1302.2 Q820.652 1299.47 822.475 1298.08 Q824.312 1296.69 827.944 1296.69 L831.676 1296.69 L831.676 1296.43 Q831.676 1294.59 830.461 1293.59 Q829.26 1292.58 827.076 1292.58 Q825.687 1292.58 824.37 1292.91 Q823.054 1293.25 821.838 1293.91 L821.838 1291.45 Q823.3 1290.89 824.674 1290.61 Q826.048 1290.32 827.35 1290.32 Q830.866 1290.32 832.602 1292.15 Q834.338 1293.97 834.338 1297.67 Z" fill="#000000" fill-rule="evenodd" fill-opacity="1" /><path clip-path="url(#clip460)" d="M 0 0 M848.762 1298.83 Q848.762 1295.89 847.547 1294.23 Q846.346 1292.55 844.234 1292.55 Q842.122 1292.55 840.907 1294.23 Q839.706 1295.89 839.706 1298.83 Q839.706 1301.77 840.907 1303.45 Q842.122 1305.11 844.234 1305.11 Q846.346 1305.11 847.547 1303.45 Q848.762 1301.77 848.762 1298.83 M839.706 1293.17 Q840.545 1291.73 841.818 1291.03 Q843.106 1290.32 844.885 1290.32 Q847.836 1290.32 849.674 1292.67 Q851.526 1295.01 851.526 1298.83 Q851.526 1302.65 849.674 1304.99 Q847.836 1307.34 844.885 1307.34 Q843.106 1307.34 841.818 1306.64 Q840.545 1305.94 839.706 1304.49 L839.706 1306.92 L837.029 1306.92 L837.029 1284.41 L839.706 1284.41 L839.706 1293.17 Z" fill="#000000" fill-rule="evenodd" fill-opacity="1" /><path clip-path="url(#clip460)" d="M 0 0 M860.597 1292.58 Q858.456 1292.58 857.211 1294.26 Q855.967 1295.92 855.967 1298.83 Q855.967 1301.74 857.197 1303.42 Q858.441 1305.08 860.597 1305.08 Q862.724 1305.08 863.968 1303.4 Q865.212 1301.73 865.212 1298.83 Q865.212 1295.95 863.968 1294.27 Q862.724 1292.58 860.597 1292.58 M860.597 1290.32 Q864.069 1290.32 866.051 1292.58 Q868.033 1294.84 868.033 1298.83 Q868.033 1302.81 866.051 1305.08 Q864.069 1307.34 860.597 1307.34 Q857.11 1307.34 855.128 1305.08 Q853.161 1302.81 853.161 1298.83 Q853.161 1294.84 855.128 1292.58 Q857.11 1290.32 860.597 1290.32 Z" fill="#000000" fill-rule="evenodd" fill-opacity="1" /><path clip-path="url(#clip460)" d="M 0 0 M880.215 1293.2 Q879.766 1292.94 879.231 1292.83 Q878.71 1292.7 878.074 1292.7 Q875.817 1292.7 874.601 1294.17 Q873.401 1295.63 873.401 1298.38 L873.401 1306.92 L870.724 1306.92 L870.724 1290.72 L873.401 1290.72 L873.401 1293.23 Q874.24 1291.76 875.585 1291.05 Q876.931 1290.32 878.855 1290.32 Q879.13 1290.32 879.462 1290.37 Q879.795 1290.4 880.2 1290.47 L880.215 1293.2 Z" fill="#000000" fill-rule="evenodd" fill-opacity="1" /><path clip-path="url(#clip460)" d="M 0 0 M890.371 1298.77 Q887.145 1298.77 885.9 1299.51 Q884.656 1300.25 884.656 1302.03 Q884.656 1303.45 885.582 1304.29 Q886.523 1305.11 888.128 1305.11 Q890.342 1305.11 891.673 1303.55 Q893.019 1301.97 893.019 1299.37 L893.019 1298.77 L890.371 1298.77 M895.681 1297.67 L895.681 1306.92 L893.019 1306.92 L893.019 1304.46 Q892.107 1305.94 890.747 1306.64 Q889.387 1307.34 887.42 1307.34 Q884.931 1307.34 883.455 1305.95 Q881.994 1304.55 881.994 1302.2 Q881.994 1299.47 883.817 1298.08 Q885.655 1296.69 889.286 1296.69 L893.019 1296.69 L893.019 1296.43 Q893.019 1294.59 891.803 1293.59 Q890.602 1292.58 888.418 1292.58 Q887.029 1292.58 885.712 1292.91 Q884.396 1293.25 883.181 1293.91 L883.181 1291.45 Q884.642 1290.89 886.016 1290.61 Q887.391 1290.32 888.693 1290.32 Q892.208 1290.32 893.944 1292.15 Q895.681 1293.97 895.681 1297.67 Z" fill="#000000" fill-rule="evenodd" fill-opacity="1" /><path clip-path="url(#clip460)" d="M 0 0 M901.106 1286.11 L901.106 1290.72 L906.589 1290.72 L906.589 1292.78 L901.106 1292.78 L901.106 1301.58 Q901.106 1303.56 901.641 1304.13 Q902.191 1304.69 903.855 1304.69 L906.589 1304.69 L906.589 1306.92 L903.855 1306.92 Q900.773 1306.92 899.601 1305.78 Q898.429 1304.62 898.429 1301.58 L898.429 1292.78 L896.476 1292.78 L896.476 1290.72 L898.429 1290.72 L898.429 1286.11 L901.106 1286.11 Z" fill="#000000" fill-rule="evenodd" fill-opacity="1" /><path clip-path="url(#clip460)" d="M 0 0 M909.381 1290.72 L912.043 1290.72 L912.043 1306.92 L909.381 1306.92 L909.381 1290.72 M909.381 1284.41 L912.043 1284.41 L912.043 1287.78 L909.381 1287.78 L909.381 1284.41 Z" fill="#000000" fill-rule="evenodd" fill-opacity="1" /><path clip-path="url(#clip460)" d="M 0 0 M921.114 1292.58 Q918.973 1292.58 917.729 1294.26 Q916.485 1295.92 916.485 1298.83 Q916.485 1301.74 917.715 1303.42 Q918.959 1305.08 921.114 1305.08 Q923.241 1305.08 924.485 1303.4 Q925.73 1301.73 925.73 1298.83 Q925.73 1295.95 924.485 1294.27 Q923.241 1292.58 921.114 1292.58 M921.114 1290.32 Q924.587 1290.32 926.569 1292.58 Q928.551 1294.84 928.551 1298.83 Q928.551 1302.81 926.569 1305.08 Q924.587 1307.34 921.114 1307.34 Q917.628 1307.34 915.646 1305.08 Q913.678 1302.81 913.678 1298.83 Q913.678 1294.84 915.646 1292.58 Q917.628 1290.32 921.114 1290.32 Z" fill="#000000" fill-rule="evenodd" fill-opacity="1" /><path clip-path="url(#clip460)" d="M 0 0 M944.812 1297.14 L944.812 1306.92 L942.15 1306.92 L942.15 1297.23 Q942.15 1294.93 941.253 1293.78 Q940.356 1292.64 938.562 1292.64 Q936.407 1292.64 935.162 1294.01 Q933.918 1295.39 933.918 1297.76 L933.918 1306.92 L931.242 1306.92 L931.242 1290.72 L933.918 1290.72 L933.918 1293.23 Q934.873 1291.77 936.161 1291.05 Q937.463 1290.32 939.155 1290.32 Q941.948 1290.32 943.38 1292.06 Q944.812 1293.78 944.812 1297.14 Z" fill="#000000" fill-rule="evenodd" fill-opacity="1" /><path clip-path="url(#clip462)" d="M981.65 969.141 L981.65 1001.14 L1013.65 1001.14 L1013.65 969.141 L981.65 969.141 Z" fill="#800080" fill-rule="evenodd" fill-opacity="1" stroke="none"/>
<polyline clip-path="url(#clip462)" style="stroke:#800080; stroke-width:4; stroke-opacity:1; fill:none" stroke-dasharray="16, 10" points="
  975.553,1007.13 1019.75,1007.13 
  "/>
<polyline clip-path="url(#clip462)" style="stroke:#800080; stroke-width:4; stroke-opacity:1; fill:none" stroke-dasharray="16, 10" points="
  975.553,963.154 1019.75,963.154 
  "/>
<polyline clip-path="url(#clip462)" style="stroke:#800080; stroke-width:4; stroke-opacity:1; fill:none" stroke-dasharray="16, 10" points="
  975.553,1007.13 975.553,963.154 
  "/>
<polyline clip-path="url(#clip462)" style="stroke:#800080; stroke-width:4; stroke-opacity:1; fill:none" stroke-dasharray="16, 10" points="
  1019.75,1007.13 1019.75,963.154 
  "/>
<path clip-path="url(#clip462)" d="M1041.68 945.878 L1041.68 977.878 L1073.68 977.878 L1073.68 945.878 L1041.68 945.878 Z" fill="#ffa500" fill-rule="evenodd" fill-opacity="1" stroke="none"/>
<polyline clip-path="url(#clip462)" style="stroke:#ffa500; stroke-width:4; stroke-opacity:1; fill:none" stroke-dasharray="16, 10" points="
  1036.99,983.435 1078.37,983.435 
  "/>
<polyline clip-path="url(#clip462)" style="stroke:#ffa500; stroke-width:4; stroke-opacity:1; fill:none" stroke-dasharray="16, 10" points="
  1036.99,940.321 1078.37,940.321 
  "/>
<polyline clip-path="url(#clip462)" style="stroke:#ffa500; stroke-width:4; stroke-opacity:1; fill:none" stroke-dasharray="16, 10" points="
  1036.99,983.435 1036.99,940.321 
  "/>
<polyline clip-path="url(#clip462)" style="stroke:#ffa500; stroke-width:4; stroke-opacity:1; fill:none" stroke-dasharray="16, 10" points="
  1078.37,983.435 1078.37,940.321 
  "/>
</svg>
