<?xml version="1.0" encoding="utf-8"?>
<svg xmlns="http://www.w3.org/2000/svg" xmlns:xlink="http://www.w3.org/1999/xlink" width="500" height="500" viewBox="0 0 2000 2000">
<defs>
  <clipPath id="clip250">
    <rect x="0" y="0" width="2000" height="2000"/>
  </clipPath>
</defs>
<path clip-path="url(#clip250)" d="
M0 2000 L2000 2000 L2000 0 L0 0  Z
  " fill="#ffffff" fill-rule="evenodd" fill-opacity="1"/>
<defs>
  <clipPath id="clip251">
    <rect x="400" y="200" width="1401" height="1401"/>
  </clipPath>
</defs>
<path clip-path="url(#clip250)" d="
M240.472 1759.53 L1811.02 1759.53 L1811.02 188.976 L240.472 188.976  Z
  " fill="#ffffff" fill-rule="evenodd" fill-opacity="1"/>
<defs>
  <clipPath id="clip252">
    <rect x="240" y="188" width="1572" height="1572"/>
  </clipPath>
</defs>
<polyline clip-path="url(#clip252)" style="stroke:#000000; stroke-width:2; stroke-opacity:0.1; fill:none" points="
  763.99,1759.53 763.99,188.976 
  "/>
<polyline clip-path="url(#clip252)" style="stroke:#000000; stroke-width:2; stroke-opacity:0.1; fill:none" points="
  1025.75,1759.53 1025.75,188.976 
  "/>
<polyline clip-path="url(#clip252)" style="stroke:#000000; stroke-width:2; stroke-opacity:0.1; fill:none" points="
  1287.51,1759.53 1287.51,188.976 
  "/>
<polyline clip-path="url(#clip252)" style="stroke:#000000; stroke-width:2; stroke-opacity:0.1; fill:none" points="
  240.472,1236.01 1811.02,1236.01 
  "/>
<polyline clip-path="url(#clip252)" style="stroke:#000000; stroke-width:2; stroke-opacity:0.1; fill:none" points="
  240.472,974.252 1811.02,974.252 
  "/>
<polyline clip-path="url(#clip252)" style="stroke:#000000; stroke-width:2; stroke-opacity:0.1; fill:none" points="
  240.472,712.493 1811.02,712.493 
  "/>
<polyline clip-path="url(#clip250)" style="stroke:#000000; stroke-width:4; stroke-opacity:1; fill:none" points="
  240.472,1759.53 1811.02,1759.53 
  "/>
<polyline clip-path="url(#clip250)" style="stroke:#000000; stroke-width:4; stroke-opacity:1; fill:none" points="
  240.472,1759.53 240.472,188.976 
  "/>
<polyline clip-path="url(#clip250)" style="stroke:#000000; stroke-width:4; stroke-opacity:1; fill:none" points="
  763.99,1759.53 763.99,1740.68 
  "/>
<polyline clip-path="url(#clip250)" style="stroke:#000000; stroke-width:4; stroke-opacity:1; fill:none" points="
  1025.75,1759.53 1025.75,1740.68 
  "/>
<polyline clip-path="url(#clip250)" style="stroke:#000000; stroke-width:4; stroke-opacity:1; fill:none" points="
  1287.51,1759.53 1287.51,1740.68 
  "/>
<polyline clip-path="url(#clip250)" style="stroke:#000000; stroke-width:4; stroke-opacity:1; fill:none" points="
  240.472,1236.01 259.319,1236.01 
  "/>
<polyline clip-path="url(#clip250)" style="stroke:#000000; stroke-width:4; stroke-opacity:1; fill:none" points="
  240.472,974.252 259.319,974.252 
  "/>
<polyline clip-path="url(#clip250)" style="stroke:#000000; stroke-width:4; stroke-opacity:1; fill:none" points="
  240.472,712.493 259.319,712.493 
  "/>
<path clip-path="url(#clip250)" d="M 0 0 M744.858 1796.12 L757.334 1796.12 L757.334 1799.91 L744.858 1799.91 L744.858 1796.12 Z" fill="#000000" fill-rule="evenodd" fill-opacity="1" /><path clip-path="url(#clip250)" d="M 0 0 M763.214 1807.06 L770.853 1807.06 L770.853 1780.7 L762.543 1782.37 L762.543 1778.11 L770.807 1776.44 L775.482 1776.44 L775.482 1807.06 L783.121 1807.06 L783.121 1811 L763.214 1811 L763.214 1807.06 Z" fill="#000000" fill-rule="evenodd" fill-opacity="1" /><path clip-path="url(#clip250)" d="M 0 0 M1025.75 1779.52 Q1022.14 1779.52 1020.31 1783.08 Q1018.5 1786.62 1018.5 1793.75 Q1018.5 1800.86 1020.31 1804.43 Q1022.14 1807.97 1025.75 1807.97 Q1029.38 1807.97 1031.19 1804.43 Q1033.02 1800.86 1033.02 1793.75 Q1033.02 1786.62 1031.19 1783.08 Q1029.38 1779.52 1025.75 1779.52 M1025.75 1775.81 Q1031.56 1775.81 1034.61 1780.42 Q1037.69 1785 1037.69 1793.75 Q1037.69 1802.48 1034.61 1807.09 Q1031.56 1811.67 1025.75 1811.67 Q1019.94 1811.67 1016.86 1807.09 Q1013.8 1802.48 1013.8 1793.75 Q1013.8 1785 1016.86 1780.42 Q1019.94 1775.81 1025.75 1775.81 Z" fill="#000000" fill-rule="evenodd" fill-opacity="1" /><path clip-path="url(#clip250)" d="M 0 0 M1277.89 1807.06 L1285.53 1807.06 L1285.53 1780.7 L1277.22 1782.37 L1277.22 1778.11 L1285.48 1776.44 L1290.16 1776.44 L1290.16 1807.06 L1297.8 1807.06 L1297.8 1811 L1277.89 1811 L1277.89 1807.06 Z" fill="#000000" fill-rule="evenodd" fill-opacity="1" /><path clip-path="url(#clip250)" d="M 0 0 M182.209 1238.41 L194.686 1238.41 L194.686 1242.2 L182.209 1242.2 L182.209 1238.41 Z" fill="#000000" fill-rule="evenodd" fill-opacity="1" /><path clip-path="url(#clip250)" d="M 0 0 M200.565 1249.36 L208.204 1249.36 L208.204 1222.99 L199.894 1224.66 L199.894 1220.4 L208.158 1218.73 L212.834 1218.73 L212.834 1249.36 L220.472 1249.36 L220.472 1253.29 L200.565 1253.29 L200.565 1249.36 Z" fill="#000000" fill-rule="evenodd" fill-opacity="1" /><path clip-path="url(#clip250)" d="M 0 0 M208.528 960.051 Q204.917 960.051 203.088 963.615 Q201.283 967.157 201.283 974.287 Q201.283 981.393 203.088 984.958 Q204.917 988.5 208.528 988.5 Q212.162 988.5 213.968 984.958 Q215.797 981.393 215.797 974.287 Q215.797 967.157 213.968 963.615 Q212.162 960.051 208.528 960.051 M208.528 956.347 Q214.338 956.347 217.394 960.953 Q220.472 965.537 220.472 974.287 Q220.472 983.013 217.394 987.62 Q214.338 992.203 208.528 992.203 Q202.718 992.203 199.639 987.62 Q196.584 983.013 196.584 974.287 Q196.584 965.537 199.639 960.953 Q202.718 956.347 208.528 956.347 Z" fill="#000000" fill-rule="evenodd" fill-opacity="1" /><path clip-path="url(#clip250)" d="M 0 0 M200.565 725.838 L208.204 725.838 L208.204 699.473 L199.894 701.139 L199.894 696.88 L208.158 695.213 L212.834 695.213 L212.834 725.838 L220.472 725.838 L220.472 729.773 L200.565 729.773 L200.565 725.838 Z" fill="#000000" fill-rule="evenodd" fill-opacity="1" /><path clip-path="url(#clip250)" d="M 0 0 M911.977 1840.87 L918.884 1840.87 L930.692 1858.54 L942.564 1840.87 L949.471 1840.87 L934.193 1863.69 L950.489 1888.39 L943.583 1888.39 L930.215 1868.18 L916.751 1888.39 L909.813 1888.39 L926.777 1863.02 L911.977 1840.87 Z" fill="#000000" fill-rule="evenodd" fill-opacity="1" /><path clip-path="url(#clip250)" d="M 0 0 M991.421 1838.93 Q987.156 1846.25 985.087 1853.41 Q983.018 1860.57 983.018 1867.93 Q983.018 1875.28 985.087 1882.5 Q987.188 1889.7 991.421 1896.99 L986.328 1896.99 Q981.554 1889.51 979.167 1882.28 Q976.812 1875.06 976.812 1867.93 Q976.812 1860.83 979.167 1853.63 Q981.522 1846.44 986.328 1838.93 L991.421 1838.93 Z" fill="#000000" fill-rule="evenodd" fill-opacity="1" /><path clip-path="url(#clip250)" d="M 0 0 M1003.93 1882.98 L1026.37 1882.98 L1026.37 1888.39 L996.195 1888.39 L996.195 1882.98 Q999.856 1879.19 1006.16 1872.83 Q1012.49 1866.43 1014.11 1864.58 Q1017.2 1861.11 1018.41 1858.73 Q1019.65 1856.31 1019.65 1853.98 Q1019.65 1850.2 1016.98 1847.81 Q1014.34 1845.42 1010.07 1845.42 Q1007.05 1845.42 1003.67 1846.47 Q1000.33 1847.52 996.514 1849.66 L996.514 1843.16 Q1000.4 1841.6 1003.77 1840.81 Q1007.14 1840.01 1009.95 1840.01 Q1017.33 1840.01 1021.72 1843.7 Q1026.11 1847.4 1026.11 1853.57 Q1026.11 1856.5 1025 1859.14 Q1023.92 1861.75 1021.02 1865.32 Q1020.23 1866.24 1015.96 1870.66 Q1011.7 1875.06 1003.93 1882.98 Z" fill="#000000" fill-rule="evenodd" fill-opacity="1" /><path clip-path="url(#clip250)" d="M 0 0 M1047.09 1845.1 Q1042.12 1845.1 1039.61 1850.01 Q1037.13 1854.88 1037.13 1864.68 Q1037.13 1874.45 1039.61 1879.35 Q1042.12 1884.22 1047.09 1884.22 Q1052.09 1884.22 1054.57 1879.35 Q1057.08 1874.45 1057.08 1864.68 Q1057.08 1854.88 1054.57 1850.01 Q1052.09 1845.1 1047.09 1845.1 M1047.09 1840.01 Q1055.08 1840.01 1059.28 1846.35 Q1063.51 1852.65 1063.51 1864.68 Q1063.51 1876.68 1059.28 1883.01 Q1055.08 1889.31 1047.09 1889.31 Q1039.1 1889.31 1034.87 1883.01 Q1030.67 1876.68 1030.67 1864.68 Q1030.67 1852.65 1034.87 1846.35 Q1039.1 1840.01 1047.09 1840.01 Z" fill="#000000" fill-rule="evenodd" fill-opacity="1" /><path clip-path="url(#clip250)" d="M 0 0 M1110.91 1867.48 Q1108.14 1867.48 1106.54 1869.84 Q1104.99 1872.19 1104.99 1876.39 Q1104.99 1880.53 1106.54 1882.92 Q1108.14 1885.27 1110.91 1885.27 Q1113.61 1885.27 1115.17 1882.92 Q1116.76 1880.53 1116.76 1876.39 Q1116.76 1872.22 1115.17 1869.87 Q1113.61 1867.48 1110.91 1867.48 M1110.91 1863.44 Q1115.93 1863.44 1118.89 1866.94 Q1121.85 1870.44 1121.85 1876.39 Q1121.85 1882.34 1118.86 1885.85 Q1115.9 1889.31 1110.91 1889.31 Q1105.81 1889.31 1102.85 1885.85 Q1099.89 1882.34 1099.89 1876.39 Q1099.89 1870.41 1102.85 1866.94 Q1105.84 1863.44 1110.91 1863.44 M1078.06 1844.05 Q1075.32 1844.05 1073.73 1846.44 Q1072.17 1848.8 1072.17 1852.93 Q1072.17 1857.14 1073.73 1859.49 Q1075.29 1861.85 1078.06 1861.85 Q1080.83 1861.85 1082.39 1859.49 Q1083.98 1857.14 1083.98 1852.93 Q1083.98 1848.83 1082.39 1846.44 Q1080.8 1844.05 1078.06 1844.05 M1106.8 1840.01 L1111.89 1840.01 L1082.16 1889.31 L1077.07 1889.31 L1106.8 1840.01 M1078.06 1840.01 Q1083.09 1840.01 1086.08 1843.51 Q1089.07 1846.98 1089.07 1852.93 Q1089.07 1858.95 1086.08 1862.42 Q1083.12 1865.89 1078.06 1865.89 Q1073 1865.89 1070.04 1862.42 Q1067.11 1858.92 1067.11 1852.93 Q1067.11 1847.01 1070.07 1843.51 Q1073.03 1840.01 1078.06 1840.01 Z" fill="#000000" fill-rule="evenodd" fill-opacity="1" /><path clip-path="url(#clip250)" d="M 0 0 M1127.07 1838.93 L1132.17 1838.93 Q1136.94 1846.44 1139.3 1853.63 Q1141.68 1860.83 1141.68 1867.93 Q1141.68 1875.06 1139.3 1882.28 Q1136.94 1889.51 1132.17 1896.99 L1127.07 1896.99 Q1131.31 1889.7 1133.38 1882.5 Q1135.48 1875.28 1135.48 1867.93 Q1135.48 1860.57 1133.38 1853.41 Q1131.31 1846.25 1127.07 1838.93 Z" fill="#000000" fill-rule="evenodd" fill-opacity="1" /><path clip-path="url(#clip250)" d="M 0 0 M100.433 1088.79 L100.433 1081.88 L119.975 1068.7 L100.433 1055.62 L100.433 1048.71 L125.323 1065.52 L147.953 1065.52 L147.953 1071.98 L125.323 1071.98 L100.433 1088.79 Z" fill="#000000" fill-rule="evenodd" fill-opacity="1" /><path clip-path="url(#clip250)" d="M 0 0 M98.4912 1007.78 Q105.812 1012.05 112.973 1014.12 Q120.135 1016.19 127.487 1016.19 Q134.839 1016.19 142.064 1014.12 Q149.258 1012.02 156.546 1007.78 L156.546 1012.88 Q149.067 1017.65 141.842 1020.04 Q134.617 1022.39 127.487 1022.39 Q120.389 1022.39 113.196 1020.04 Q106.003 1017.68 98.4912 1012.88 L98.4912 1007.78 Z" fill="#000000" fill-rule="evenodd" fill-opacity="1" /><path clip-path="url(#clip250)" d="M 0 0 M142.542 995.275 L142.542 972.836 L147.953 972.836 L147.953 1003.01 L142.542 1003.01 Q138.754 999.349 132.389 993.047 Q125.991 986.713 124.145 985.09 Q120.676 982.002 118.289 980.793 Q115.87 979.551 113.546 979.551 Q109.759 979.551 107.371 982.225 Q104.984 984.867 104.984 989.132 Q104.984 992.156 106.035 995.529 Q107.085 998.871 109.217 1002.69 L102.724 1002.69 Q101.165 998.808 100.369 995.434 Q99.5734 992.06 99.5734 989.259 Q99.5734 981.875 103.265 977.483 Q106.958 973.09 113.132 973.09 Q116.061 973.09 118.702 974.204 Q121.312 975.286 124.877 978.183 Q125.8 978.979 130.224 983.244 Q134.617 987.509 142.542 995.275 Z" fill="#000000" fill-rule="evenodd" fill-opacity="1" /><path clip-path="url(#clip250)" d="M 0 0 M142.542 960.327 L142.542 937.888 L147.953 937.888 L147.953 968.061 L142.542 968.061 Q138.754 964.401 132.389 958.099 Q125.991 951.765 124.145 950.142 Q120.676 947.054 118.289 945.845 Q115.87 944.604 113.546 944.604 Q109.759 944.604 107.371 947.277 Q104.984 949.919 104.984 954.184 Q104.984 957.208 106.035 960.582 Q107.085 963.924 109.217 967.743 L102.724 967.743 Q101.165 963.86 100.369 960.486 Q99.5734 957.112 99.5734 954.311 Q99.5734 946.927 103.265 942.535 Q106.958 938.142 113.132 938.142 Q116.061 938.142 118.702 939.256 Q121.312 940.339 124.877 943.235 Q125.8 944.031 130.224 948.296 Q134.617 952.561 142.542 960.327 Z" fill="#000000" fill-rule="evenodd" fill-opacity="1" /><path clip-path="url(#clip250)" d="M 0 0 M127.041 890.495 Q127.041 893.264 129.397 894.856 Q131.752 896.415 135.953 896.415 Q140.091 896.415 142.478 894.856 Q144.834 893.264 144.834 890.495 Q144.834 887.79 142.478 886.23 Q140.091 884.639 135.953 884.639 Q131.784 884.639 129.429 886.23 Q127.041 887.79 127.041 890.495 M122.999 890.495 Q122.999 885.466 126.5 882.506 Q130.001 879.546 135.953 879.546 Q141.905 879.546 145.406 882.538 Q148.876 885.498 148.876 890.495 Q148.876 895.588 145.406 898.548 Q141.905 901.508 135.953 901.508 Q129.97 901.508 126.5 898.548 Q122.999 895.556 122.999 890.495 M103.616 923.342 Q103.616 926.079 106.003 927.671 Q108.358 929.231 112.496 929.231 Q116.697 929.231 119.052 927.671 Q121.408 926.111 121.408 923.342 Q121.408 920.573 119.052 919.014 Q116.697 917.422 112.496 917.422 Q108.39 917.422 106.003 919.014 Q103.616 920.605 103.616 923.342 M99.5734 894.601 L99.5734 889.508 L148.876 919.236 L148.876 924.329 L99.5734 894.601 M99.5734 923.342 Q99.5734 918.313 103.075 915.321 Q106.544 912.33 112.496 912.33 Q118.511 912.33 121.981 915.321 Q125.45 918.281 125.45 923.342 Q125.45 928.403 121.981 931.363 Q118.48 934.291 112.496 934.291 Q106.576 934.291 103.075 931.331 Q99.5734 928.371 99.5734 923.342 Z" fill="#000000" fill-rule="evenodd" fill-opacity="1" /><path clip-path="url(#clip250)" d="M 0 0 M98.4912 874.326 L98.4912 869.234 Q106.003 864.459 113.196 862.104 Q120.389 859.717 127.487 859.717 Q134.617 859.717 141.842 862.104 Q149.067 864.459 156.546 869.234 L156.546 874.326 Q149.258 870.093 142.064 868.024 Q134.839 865.924 127.487 865.924 Q120.135 865.924 112.973 868.024 Q105.812 870.093 98.4912 874.326 Z" fill="#000000" fill-rule="evenodd" fill-opacity="1" /><polyline clip-path="url(#clip252)" style="stroke:#800080; stroke-width:6.4458; stroke-opacity:1; fill:none" points="
  626.217,532.034 1342.95,1296.64 
  "/>
<polyline clip-path="url(#clip252)" style="stroke:#0000ff; stroke-width:1.34407; stroke-opacity:1; fill:none" points="
  976.299,1164.5 985.661,1095.44 
  "/>
<polyline clip-path="url(#clip252)" style="stroke:#ffa500; stroke-width:1.08133; stroke-opacity:1; fill:none" points="
  502.166,1311.7 985.661,1095.44 
  "/>
<polyline clip-path="url(#clip252)" style="stroke:#0000ff; stroke-width:2.79825; stroke-opacity:1; fill:none" points="
  502.166,1311.7 1344.84,841.586 
  "/>
<polyline clip-path="url(#clip252)" style="stroke:#ffa500; stroke-width:4.84926; stroke-opacity:1; fill:none" points="
  976.299,1164.5 1342.95,1296.64 
  "/>
<polyline clip-path="url(#clip252)" style="stroke:#0000ff; stroke-width:2.01475; stroke-opacity:1; fill:none" points="
  502.166,1311.7 976.299,1164.5 
  "/>
<polyline clip-path="url(#clip252)" style="stroke:#ffa500; stroke-width:2.84333; stroke-opacity:1; fill:none" points="
  976.299,1164.5 1344.84,841.586 
  "/>
<polyline clip-path="url(#clip252)" style="stroke:#0000ff; stroke-width:2.12183; stroke-opacity:1; fill:none" points="
  985.661,1095.44 1344.84,841.586 
  "/>
<polyline clip-path="url(#clip252)" style="stroke:#800080; stroke-width:6.83051; stroke-opacity:1; fill:none" points="
  502.166,1311.7 626.217,532.034 
  "/>
<polyline clip-path="url(#clip252)" style="stroke:#0000ff; stroke-width:1.42233; stroke-opacity:1; fill:none" points="
  985.661,1095.44 1342.95,1296.64 
  "/>
<polyline clip-path="url(#clip252)" style="stroke:#ffa500; stroke-width:7.4663; stroke-opacity:1; fill:none" points="
  1342.95,1296.64 1344.84,841.586 
  "/>
<polyline clip-path="url(#clip252)" style="stroke:#800080; stroke-width:4.92063; stroke-opacity:1; fill:none" points="
  626.217,532.034 976.299,1164.5 
  "/>
<polyline clip-path="url(#clip252)" style="stroke:#0000ff; stroke-width:2.42394; stroke-opacity:1; fill:none" points="
  626.217,532.034 985.661,1095.44 
  "/>
<polyline clip-path="url(#clip252)" style="stroke:#800080; stroke-width:2.74383; stroke-opacity:1; fill:none" points="
  502.166,1311.7 1342.95,1296.64 
  "/>
<polyline clip-path="url(#clip252)" style="stroke:#008000; stroke-width:8; stroke-opacity:1; fill:none" points="
  626.217,532.034 1344.84,841.586 
  "/>
<circle clip-path="url(#clip252)" cx="976.299" cy="1164.5" r="23" fill="#000000" fill-rule="evenodd" fill-opacity="1" stroke="none"/>
<circle clip-path="url(#clip252)" cx="626.217" cy="532.034" r="26" fill="#000000" fill-rule="evenodd" fill-opacity="1" stroke="none"/>
<circle clip-path="url(#clip252)" cx="1342.95" cy="1296.64" r="23" fill="#000000" fill-rule="evenodd" fill-opacity="1" stroke="none"/>
<circle clip-path="url(#clip252)" cx="985.661" cy="1095.44" r="8" fill="#000000" fill-rule="evenodd" fill-opacity="1" stroke="none"/>
<circle clip-path="url(#clip252)" cx="1344.84" cy="841.586" r="28" fill="#000000" fill-rule="evenodd" fill-opacity="1" stroke="none"/>
<circle clip-path="url(#clip252)" cx="502.166" cy="1311.7" r="8" fill="#000000" fill-rule="evenodd" fill-opacity="1" stroke="none"/>
<path clip-path="url(#clip250)" d="M 0 0 M949.224 1171.22 L949.224 1188.02 L952.754 1188.02 Q957.224 1188.02 959.293 1185.99 Q961.376 1183.97 961.376 1179.6 Q961.376 1175.26 959.293 1173.25 Q957.224 1171.22 952.754 1171.22 L949.224 1171.22 M946.301 1168.82 L952.305 1168.82 Q958.584 1168.82 961.521 1171.44 Q964.458 1174.04 964.458 1179.6 Q964.458 1185.18 961.506 1187.8 Q958.555 1190.42 952.305 1190.42 L946.301 1190.42 L946.301 1168.82 Z" fill="#000000" fill-rule="evenodd" fill-opacity="1" /><path clip-path="url(#clip250)" d="M 0 0 M974.614 1182.27 Q971.388 1182.27 970.144 1183.01 Q968.899 1183.75 968.899 1185.53 Q968.899 1186.95 969.825 1187.79 Q970.766 1188.61 972.372 1188.61 Q974.585 1188.61 975.916 1187.05 Q977.262 1185.47 977.262 1182.87 L977.262 1182.27 L974.614 1182.27 M979.924 1181.18 L979.924 1190.42 L977.262 1190.42 L977.262 1187.96 Q976.35 1189.44 974.99 1190.15 Q973.63 1190.84 971.663 1190.84 Q969.174 1190.84 967.699 1189.45 Q966.237 1188.05 966.237 1185.7 Q966.237 1182.97 968.06 1181.58 Q969.898 1180.19 973.529 1180.19 L977.262 1180.19 L977.262 1179.93 Q977.262 1178.09 976.046 1177.1 Q974.845 1176.08 972.661 1176.08 Q971.272 1176.08 969.955 1176.42 Q968.639 1176.75 967.424 1177.41 L967.424 1174.95 Q968.885 1174.39 970.259 1174.12 Q971.634 1173.83 972.936 1173.83 Q976.451 1173.83 978.187 1175.65 Q979.924 1177.47 979.924 1181.18 Z" fill="#000000" fill-rule="evenodd" fill-opacity="1" /><path clip-path="url(#clip250)" d="M 0 0 M985.349 1169.62 L985.349 1174.22 L990.832 1174.22 L990.832 1176.29 L985.349 1176.29 L985.349 1185.08 Q985.349 1187.06 985.884 1187.63 Q986.434 1188.19 988.098 1188.19 L990.832 1188.19 L990.832 1190.42 L988.098 1190.42 Q985.016 1190.42 983.844 1189.28 Q982.672 1188.12 982.672 1185.08 L982.672 1176.29 L980.719 1176.29 L980.719 1174.22 L982.672 1174.22 L982.672 1169.62 L985.349 1169.62 Z" fill="#000000" fill-rule="evenodd" fill-opacity="1" /><path clip-path="url(#clip250)" d="M 0 0 M1000.99 1182.27 Q997.762 1182.27 996.518 1183.01 Q995.274 1183.75 995.274 1185.53 Q995.274 1186.95 996.2 1187.79 Q997.14 1188.61 998.746 1188.61 Q1000.96 1188.61 1002.29 1187.05 Q1003.64 1185.47 1003.64 1182.87 L1003.64 1182.27 L1000.99 1182.27 M1006.3 1181.18 L1006.3 1190.42 L1003.64 1190.42 L1003.64 1187.96 Q1002.72 1189.44 1001.36 1190.15 Q1000 1190.84 998.037 1190.84 Q995.548 1190.84 994.073 1189.45 Q992.612 1188.05 992.612 1185.7 Q992.612 1182.97 994.434 1181.58 Q996.272 1180.19 999.903 1180.19 L1003.64 1180.19 L1003.64 1179.93 Q1003.64 1178.09 1002.42 1177.1 Q1001.22 1176.08 999.035 1176.08 Q997.646 1176.08 996.33 1176.42 Q995.013 1176.75 993.798 1177.41 L993.798 1174.95 Q995.259 1174.39 996.634 1174.12 Q998.008 1173.83 999.31 1173.83 Q1002.83 1173.83 1004.56 1175.65 Q1006.3 1177.47 1006.3 1181.18 Z" fill="#000000" fill-rule="evenodd" fill-opacity="1" /><path clip-path="url(#clip250)" d="M 0 0 M484.312 536.354 L502.585 536.354 L502.585 538.813 L494.917 538.813 L494.917 557.954 L491.98 557.954 L491.98 538.813 L484.312 538.813 L484.312 536.354 Z" fill="#000000" fill-rule="evenodd" fill-opacity="1" /><path clip-path="url(#clip250)" d="M 0 0 M514.202 549.187 L514.202 550.489 L501.963 550.489 Q502.136 553.238 503.612 554.684 Q505.102 556.117 507.75 556.117 Q509.283 556.117 510.716 555.74 Q512.162 555.364 513.58 554.612 L513.58 557.129 Q512.148 557.737 510.643 558.055 Q509.139 558.374 507.591 558.374 Q503.713 558.374 501.442 556.117 Q499.185 553.86 499.185 550.011 Q499.185 546.033 501.326 543.703 Q503.482 541.36 507.128 541.36 Q510.397 541.36 512.293 543.472 Q514.202 545.57 514.202 549.187 M511.54 548.405 Q511.511 546.221 510.311 544.919 Q509.124 543.617 507.157 543.617 Q504.929 543.617 503.583 544.875 Q502.252 546.134 502.05 548.42 L511.54 548.405 Z" fill="#000000" fill-rule="evenodd" fill-opacity="1" /><path clip-path="url(#clip250)" d="M 0 0 M528.655 542.372 L528.655 544.861 Q527.527 544.239 526.384 543.935 Q525.256 543.617 524.098 543.617 Q521.508 543.617 520.076 545.266 Q518.644 546.901 518.644 549.867 Q518.644 552.832 520.076 554.482 Q521.508 556.117 524.098 556.117 Q525.256 556.117 526.384 555.813 Q527.527 555.494 528.655 554.872 L528.655 557.332 Q527.541 557.853 526.341 558.113 Q525.154 558.374 523.809 558.374 Q520.148 558.374 517.993 556.073 Q515.837 553.773 515.837 549.867 Q515.837 545.903 518.007 543.631 Q520.192 541.36 523.982 541.36 Q525.212 541.36 526.384 541.62 Q527.556 541.866 528.655 542.372 Z" fill="#000000" fill-rule="evenodd" fill-opacity="1" /><path clip-path="url(#clip250)" d="M 0 0 M544.917 548.174 L544.917 557.954 L542.255 557.954 L542.255 548.261 Q542.255 545.96 541.358 544.817 Q540.461 543.675 538.667 543.675 Q536.511 543.675 535.267 545.049 Q534.023 546.423 534.023 548.796 L534.023 557.954 L531.346 557.954 L531.346 535.442 L534.023 535.442 L534.023 544.268 Q534.978 542.806 536.265 542.083 Q537.567 541.36 539.26 541.36 Q542.052 541.36 543.485 543.096 Q544.917 544.817 544.917 548.174 Z" fill="#000000" fill-rule="evenodd" fill-opacity="1" /><path clip-path="url(#clip250)" d="M 0 0 M561.178 548.174 L561.178 557.954 L558.516 557.954 L558.516 548.261 Q558.516 545.96 557.619 544.817 Q556.722 543.675 554.928 543.675 Q552.773 543.675 551.529 545.049 Q550.284 546.423 550.284 548.796 L550.284 557.954 L547.608 557.954 L547.608 541.75 L550.284 541.75 L550.284 544.268 Q551.239 542.806 552.527 542.083 Q553.829 541.36 555.522 541.36 Q558.314 541.36 559.746 543.096 Q561.178 544.817 561.178 548.174 Z" fill="#000000" fill-rule="evenodd" fill-opacity="1" /><path clip-path="url(#clip250)" d="M 0 0 M563.971 541.75 L566.633 541.75 L566.633 557.954 L563.971 557.954 L563.971 541.75 M563.971 535.442 L566.633 535.442 L566.633 538.813 L563.971 538.813 L563.971 535.442 Z" fill="#000000" fill-rule="evenodd" fill-opacity="1" /><path clip-path="url(#clip250)" d="M 0 0 M581.086 542.372 L581.086 544.861 Q579.957 544.239 578.814 543.935 Q577.686 543.617 576.528 543.617 Q573.939 543.617 572.506 545.266 Q571.074 546.901 571.074 549.867 Q571.074 552.832 572.506 554.482 Q573.939 556.117 576.528 556.117 Q577.686 556.117 578.814 555.813 Q579.957 555.494 581.086 554.872 L581.086 557.332 Q579.972 557.853 578.771 558.113 Q577.585 558.374 576.239 558.374 Q572.579 558.374 570.423 556.073 Q568.267 553.773 568.267 549.867 Q568.267 545.903 570.438 543.631 Q572.622 541.36 576.413 541.36 Q577.642 541.36 578.814 541.62 Q579.986 541.866 581.086 542.372 Z" fill="#000000" fill-rule="evenodd" fill-opacity="1" /><path clip-path="url(#clip250)" d="M 0 0 M591.242 549.809 Q588.016 549.809 586.771 550.547 Q585.527 551.284 585.527 553.064 Q585.527 554.482 586.453 555.321 Q587.393 556.146 588.999 556.146 Q591.213 556.146 592.544 554.583 Q593.889 553.006 593.889 550.402 L593.889 549.809 L591.242 549.809 M596.551 548.709 L596.551 557.954 L593.889 557.954 L593.889 555.494 Q592.978 556.97 591.618 557.679 Q590.258 558.374 588.29 558.374 Q585.802 558.374 584.326 556.985 Q582.865 555.581 582.865 553.238 Q582.865 550.503 584.688 549.114 Q586.525 547.725 590.157 547.725 L593.889 547.725 L593.889 547.465 Q593.889 545.628 592.674 544.629 Q591.473 543.617 589.289 543.617 Q587.9 543.617 586.583 543.949 Q585.267 544.282 584.051 544.948 L584.051 542.488 Q585.513 541.924 586.887 541.649 Q588.262 541.36 589.564 541.36 Q593.079 541.36 594.815 543.183 Q596.551 545.006 596.551 548.709 Z" fill="#000000" fill-rule="evenodd" fill-opacity="1" /><path clip-path="url(#clip250)" d="M 0 0 M599.344 535.442 L602.006 535.442 L602.006 557.954 L599.344 557.954 L599.344 535.442 Z" fill="#000000" fill-rule="evenodd" fill-opacity="1" /><path clip-path="url(#clip250)" d="M 0 0 M617.11 562.873 L617.11 564.942 L601.716 564.942 L601.716 562.873 L617.11 562.873 Z" fill="#000000" fill-rule="evenodd" fill-opacity="1" /><path clip-path="url(#clip250)" d="M 0 0 M636.192 538.018 L636.192 541.099 Q634.717 539.725 633.038 539.045 Q631.375 538.365 629.494 538.365 Q625.79 538.365 623.823 540.636 Q621.855 542.893 621.855 547.176 Q621.855 551.444 623.823 553.715 Q625.79 555.972 629.494 555.972 Q631.375 555.972 633.038 555.292 Q634.717 554.612 636.192 553.238 L636.192 556.29 Q634.659 557.332 632.937 557.853 Q631.23 558.374 629.32 558.374 Q624.416 558.374 621.595 555.379 Q618.774 552.369 618.774 547.176 Q618.774 541.967 621.595 538.973 Q624.416 535.963 629.32 535.963 Q631.259 535.963 632.966 536.484 Q634.688 536.991 636.192 538.018 Z" fill="#000000" fill-rule="evenodd" fill-opacity="1" /><path clip-path="url(#clip250)" d="M 0 0 M645.264 543.617 Q643.122 543.617 641.878 545.295 Q640.634 546.959 640.634 549.867 Q640.634 552.775 641.864 554.453 Q643.108 556.117 645.264 556.117 Q647.39 556.117 648.634 554.438 Q649.879 552.76 649.879 549.867 Q649.879 546.988 648.634 545.309 Q647.39 543.617 645.264 543.617 M645.264 541.36 Q648.736 541.36 650.718 543.617 Q652.7 545.874 652.7 549.867 Q652.7 553.845 650.718 556.117 Q648.736 558.374 645.264 558.374 Q641.777 558.374 639.795 556.117 Q637.827 553.845 637.827 549.867 Q637.827 545.874 639.795 543.617 Q641.777 541.36 645.264 541.36 Z" fill="#000000" fill-rule="evenodd" fill-opacity="1" /><path clip-path="url(#clip250)" d="M 0 0 M668.961 548.174 L668.961 557.954 L666.299 557.954 L666.299 548.261 Q666.299 545.96 665.402 544.817 Q664.505 543.675 662.711 543.675 Q660.556 543.675 659.312 545.049 Q658.067 546.423 658.067 548.796 L658.067 557.954 L655.391 557.954 L655.391 541.75 L658.067 541.75 L658.067 544.268 Q659.022 542.806 660.31 542.083 Q661.612 541.36 663.305 541.36 Q666.097 541.36 667.529 543.096 Q668.961 544.817 668.961 548.174 Z" fill="#000000" fill-rule="evenodd" fill-opacity="1" /><path clip-path="url(#clip250)" d="M 0 0 M682.083 542.228 L682.083 544.745 Q680.955 544.166 679.74 543.877 Q678.524 543.588 677.222 543.588 Q675.24 543.588 674.242 544.195 Q673.258 544.803 673.258 546.018 Q673.258 546.944 673.967 547.479 Q674.676 548 676.817 548.478 L677.729 548.68 Q680.564 549.288 681.751 550.402 Q682.951 551.501 682.951 553.483 Q682.951 555.74 681.157 557.057 Q679.378 558.374 676.253 558.374 Q674.951 558.374 673.533 558.113 Q672.13 557.867 670.567 557.361 L670.567 554.612 Q672.043 555.379 673.475 555.769 Q674.907 556.146 676.311 556.146 Q678.192 556.146 679.204 555.509 Q680.217 554.858 680.217 553.686 Q680.217 552.601 679.479 552.022 Q678.756 551.444 676.282 550.908 L675.356 550.691 Q672.882 550.17 671.783 549.1 Q670.683 548.015 670.683 546.134 Q670.683 543.848 672.303 542.604 Q673.924 541.36 676.904 541.36 Q678.38 541.36 679.682 541.577 Q680.984 541.794 682.083 542.228 Z" fill="#000000" fill-rule="evenodd" fill-opacity="1" /><path clip-path="url(#clip250)" d="M 0 0 M688.377 537.15 L688.377 541.75 L693.86 541.75 L693.86 543.819 L688.377 543.819 L688.377 552.615 Q688.377 554.597 688.912 555.162 Q689.462 555.726 691.126 555.726 L693.86 555.726 L693.86 557.954 L691.126 557.954 Q688.044 557.954 686.872 556.811 Q685.7 555.654 685.7 552.615 L685.7 543.819 L683.747 543.819 L683.747 541.75 L685.7 541.75 L685.7 537.15 L688.377 537.15 Z" fill="#000000" fill-rule="evenodd" fill-opacity="1" /><path clip-path="url(#clip250)" d="M 0 0 M706.042 544.239 Q705.593 543.978 705.058 543.863 Q704.537 543.732 703.9 543.732 Q701.643 543.732 700.428 545.208 Q699.227 546.669 699.227 549.418 L699.227 557.954 L696.551 557.954 L696.551 541.75 L699.227 541.75 L699.227 544.268 Q700.066 542.792 701.412 542.083 Q702.757 541.36 704.682 541.36 Q704.957 541.36 705.289 541.403 Q705.622 541.432 706.027 541.504 L706.042 544.239 Z" fill="#000000" fill-rule="evenodd" fill-opacity="1" /><path clip-path="url(#clip250)" d="M 0 0 M716.198 549.809 Q712.972 549.809 711.727 550.547 Q710.483 551.284 710.483 553.064 Q710.483 554.482 711.409 555.321 Q712.349 556.146 713.955 556.146 Q716.169 556.146 717.5 554.583 Q718.845 553.006 718.845 550.402 L718.845 549.809 L716.198 549.809 M721.507 548.709 L721.507 557.954 L718.845 557.954 L718.845 555.494 Q717.934 556.97 716.574 557.679 Q715.214 558.374 713.246 558.374 Q710.758 558.374 709.282 556.985 Q707.821 555.581 707.821 553.238 Q707.821 550.503 709.644 549.114 Q711.481 547.725 715.113 547.725 L718.845 547.725 L718.845 547.465 Q718.845 545.628 717.63 544.629 Q716.429 543.617 714.245 543.617 Q712.856 543.617 711.539 543.949 Q710.223 544.282 709.007 544.948 L709.007 542.488 Q710.469 541.924 711.843 541.649 Q713.217 541.36 714.52 541.36 Q718.035 541.36 719.771 543.183 Q721.507 545.006 721.507 548.709 Z" fill="#000000" fill-rule="evenodd" fill-opacity="1" /><path clip-path="url(#clip250)" d="M 0 0 M724.3 541.75 L726.962 541.75 L726.962 557.954 L724.3 557.954 L724.3 541.75 M724.3 535.442 L726.962 535.442 L726.962 538.813 L724.3 538.813 L724.3 535.442 Z" fill="#000000" fill-rule="evenodd" fill-opacity="1" /><path clip-path="url(#clip250)" d="M 0 0 M743.223 548.174 L743.223 557.954 L740.561 557.954 L740.561 548.261 Q740.561 545.96 739.664 544.817 Q738.767 543.675 736.973 543.675 Q734.817 543.675 733.573 545.049 Q732.329 546.423 732.329 548.796 L732.329 557.954 L729.653 557.954 L729.653 541.75 L732.329 541.75 L732.329 544.268 Q733.284 542.806 734.572 542.083 Q735.874 541.36 737.566 541.36 Q740.359 541.36 741.791 543.096 Q743.223 544.817 743.223 548.174 Z" fill="#000000" fill-rule="evenodd" fill-opacity="1" /><path clip-path="url(#clip250)" d="M 0 0 M748.648 537.15 L748.648 541.75 L754.132 541.75 L754.132 543.819 L748.648 543.819 L748.648 552.615 Q748.648 554.597 749.184 555.162 Q749.733 555.726 751.397 555.726 L754.132 555.726 L754.132 557.954 L751.397 557.954 Q748.316 557.954 747.144 556.811 Q745.972 555.654 745.972 552.615 L745.972 543.819 L744.019 543.819 L744.019 541.75 L745.972 541.75 L745.972 537.15 L748.648 537.15 Z" fill="#000000" fill-rule="evenodd" fill-opacity="1" /><path clip-path="url(#clip250)" d="M 0 0 M767.254 542.228 L767.254 544.745 Q766.125 544.166 764.91 543.877 Q763.695 543.588 762.393 543.588 Q760.41 543.588 759.412 544.195 Q758.428 544.803 758.428 546.018 Q758.428 546.944 759.137 547.479 Q759.846 548 761.987 548.478 L762.899 548.68 Q765.735 549.288 766.921 550.402 Q768.122 551.501 768.122 553.483 Q768.122 555.74 766.328 557.057 Q764.548 558.374 761.423 558.374 Q760.121 558.374 758.703 558.113 Q757.3 557.867 755.737 557.361 L755.737 554.612 Q757.213 555.379 758.645 555.769 Q760.078 556.146 761.481 556.146 Q763.362 556.146 764.375 555.509 Q765.387 554.858 765.387 553.686 Q765.387 552.601 764.649 552.022 Q763.926 551.444 761.452 550.908 L760.526 550.691 Q758.052 550.17 756.953 549.1 Q755.853 548.015 755.853 546.134 Q755.853 543.848 757.474 542.604 Q759.094 541.36 762.074 541.36 Q763.55 541.36 764.852 541.577 Q766.154 541.794 767.254 542.228 Z" fill="#000000" fill-rule="evenodd" fill-opacity="1" /><path clip-path="url(#clip250)" d="M 0 0 M1175.6 1303.37 L1175.6 1311.48 L1179.28 1311.48 Q1181.32 1311.48 1182.43 1310.43 Q1183.55 1309.37 1183.55 1307.42 Q1183.55 1305.48 1182.43 1304.42 Q1181.32 1303.37 1179.28 1303.37 L1175.6 1303.37 M1172.68 1300.96 L1179.28 1300.96 Q1182.91 1300.96 1184.76 1302.61 Q1186.63 1304.25 1186.63 1307.42 Q1186.63 1310.61 1184.76 1312.25 Q1182.91 1313.88 1179.28 1313.88 L1175.6 1313.88 L1175.6 1322.56 L1172.68 1322.56 L1172.68 1300.96 Z" fill="#000000" fill-rule="evenodd" fill-opacity="1" /><path clip-path="url(#clip250)" d="M 0 0 M1202.22 1313.8 L1202.22 1315.1 L1189.99 1315.1 Q1190.16 1317.85 1191.63 1319.29 Q1193.12 1320.73 1195.77 1320.73 Q1197.31 1320.73 1198.74 1320.35 Q1200.18 1319.97 1201.6 1319.22 L1201.6 1321.74 Q1200.17 1322.35 1198.67 1322.67 Q1197.16 1322.98 1195.61 1322.98 Q1191.74 1322.98 1189.46 1320.73 Q1187.21 1318.47 1187.21 1314.62 Q1187.21 1310.64 1189.35 1308.31 Q1191.5 1305.97 1195.15 1305.97 Q1198.42 1305.97 1200.31 1308.08 Q1202.22 1310.18 1202.22 1313.8 M1199.56 1313.02 Q1199.53 1310.83 1198.33 1309.53 Q1197.15 1308.23 1195.18 1308.23 Q1192.95 1308.23 1191.61 1309.49 Q1190.27 1310.74 1190.07 1313.03 L1199.56 1313.02 Z" fill="#000000" fill-rule="evenodd" fill-opacity="1" /><path clip-path="url(#clip250)" d="M 0 0 M1214.41 1308.85 Q1213.96 1308.59 1213.42 1308.47 Q1212.9 1308.34 1212.27 1308.34 Q1210.01 1308.34 1208.79 1309.82 Q1207.59 1311.28 1207.59 1314.03 L1207.59 1322.56 L1204.92 1322.56 L1204.92 1306.36 L1207.59 1306.36 L1207.59 1308.88 Q1208.43 1307.4 1209.78 1306.69 Q1211.12 1305.97 1213.05 1305.97 Q1213.32 1305.97 1213.65 1306.01 Q1213.99 1306.04 1214.39 1306.11 L1214.41 1308.85 Z" fill="#000000" fill-rule="evenodd" fill-opacity="1" /><path clip-path="url(#clip250)" d="M 0 0 M1225.4 1300.05 L1225.4 1302.27 L1222.86 1302.27 Q1221.42 1302.27 1220.86 1302.84 Q1220.31 1303.42 1220.31 1304.93 L1220.31 1306.36 L1224.69 1306.36 L1224.69 1308.43 L1220.31 1308.43 L1220.31 1322.56 L1217.63 1322.56 L1217.63 1308.43 L1215.09 1308.43 L1215.09 1306.36 L1217.63 1306.36 L1217.63 1305.23 Q1217.63 1302.53 1218.89 1301.3 Q1220.15 1300.05 1222.88 1300.05 L1225.4 1300.05 Z" fill="#000000" fill-rule="evenodd" fill-opacity="1" /><path clip-path="url(#clip250)" d="M 0 0 M1234.47 1308.23 Q1232.33 1308.23 1231.09 1309.9 Q1229.84 1311.57 1229.84 1314.48 Q1229.84 1317.38 1231.07 1319.06 Q1232.32 1320.73 1234.47 1320.73 Q1236.6 1320.73 1237.84 1319.05 Q1239.09 1317.37 1239.09 1314.48 Q1239.09 1311.6 1237.84 1309.92 Q1236.6 1308.23 1234.47 1308.23 M1234.47 1305.97 Q1237.94 1305.97 1239.93 1308.23 Q1241.91 1310.48 1241.91 1314.48 Q1241.91 1318.45 1239.93 1320.73 Q1237.94 1322.98 1234.47 1322.98 Q1230.99 1322.98 1229 1320.73 Q1227.04 1318.45 1227.04 1314.48 Q1227.04 1310.48 1229 1308.23 Q1230.99 1305.97 1234.47 1305.97 Z" fill="#000000" fill-rule="evenodd" fill-opacity="1" /><path clip-path="url(#clip250)" d="M 0 0 M1254.09 1308.85 Q1253.64 1308.59 1253.11 1308.47 Q1252.59 1308.34 1251.95 1308.34 Q1249.69 1308.34 1248.48 1309.82 Q1247.28 1311.28 1247.28 1314.03 L1247.28 1322.56 L1244.6 1322.56 L1244.6 1306.36 L1247.28 1306.36 L1247.28 1308.88 Q1248.12 1307.4 1249.46 1306.69 Q1250.81 1305.97 1252.73 1305.97 Q1253.01 1305.97 1253.34 1306.01 Q1253.67 1306.04 1254.08 1306.11 L1254.09 1308.85 Z" fill="#000000" fill-rule="evenodd" fill-opacity="1" /><path clip-path="url(#clip250)" d="M 0 0 M1268.98 1309.47 Q1269.98 1307.68 1271.36 1306.82 Q1272.75 1305.97 1274.63 1305.97 Q1277.17 1305.97 1278.54 1307.75 Q1279.92 1309.51 1279.92 1312.78 L1279.92 1322.56 L1277.24 1322.56 L1277.24 1312.87 Q1277.24 1310.54 1276.41 1309.41 Q1275.59 1308.28 1273.9 1308.28 Q1271.83 1308.28 1270.63 1309.66 Q1269.43 1311.03 1269.43 1313.41 L1269.43 1322.56 L1266.75 1322.56 L1266.75 1312.87 Q1266.75 1310.53 1265.93 1309.41 Q1265.1 1308.28 1263.38 1308.28 Q1261.34 1308.28 1260.14 1309.67 Q1258.94 1311.05 1258.94 1313.41 L1258.94 1322.56 L1256.26 1322.56 L1256.26 1306.36 L1258.94 1306.36 L1258.94 1308.88 Q1259.85 1307.39 1261.12 1306.68 Q1262.4 1305.97 1264.15 1305.97 Q1265.91 1305.97 1267.14 1306.87 Q1268.38 1307.76 1268.98 1309.47 Z" fill="#000000" fill-rule="evenodd" fill-opacity="1" /><path clip-path="url(#clip250)" d="M 0 0 M1290.07 1314.42 Q1286.85 1314.42 1285.6 1315.16 Q1284.36 1315.89 1284.36 1317.67 Q1284.36 1319.09 1285.28 1319.93 Q1286.22 1320.76 1287.83 1320.76 Q1290.04 1320.76 1291.37 1319.19 Q1292.72 1317.62 1292.72 1315.01 L1292.72 1314.42 L1290.07 1314.42 M1295.38 1313.32 L1295.38 1322.56 L1292.72 1322.56 L1292.72 1320.1 Q1291.81 1321.58 1290.45 1322.29 Q1289.09 1322.98 1287.12 1322.98 Q1284.63 1322.98 1283.16 1321.59 Q1281.69 1320.19 1281.69 1317.85 Q1281.69 1315.11 1283.52 1313.72 Q1285.36 1312.34 1288.99 1312.34 L1292.72 1312.34 L1292.72 1312.07 Q1292.72 1310.24 1291.5 1309.24 Q1290.3 1308.23 1288.12 1308.23 Q1286.73 1308.23 1285.41 1308.56 Q1284.1 1308.89 1282.88 1309.56 L1282.88 1307.1 Q1284.34 1306.53 1285.72 1306.26 Q1287.09 1305.97 1288.39 1305.97 Q1291.91 1305.97 1293.64 1307.79 Q1295.38 1309.62 1295.38 1313.32 Z" fill="#000000" fill-rule="evenodd" fill-opacity="1" /><path clip-path="url(#clip250)" d="M 0 0 M1311.64 1312.78 L1311.64 1322.56 L1308.98 1322.56 L1308.98 1312.87 Q1308.98 1310.57 1308.08 1309.43 Q1307.19 1308.28 1305.39 1308.28 Q1303.24 1308.28 1301.99 1309.66 Q1300.75 1311.03 1300.75 1313.41 L1300.75 1322.56 L1298.07 1322.56 L1298.07 1306.36 L1300.75 1306.36 L1300.75 1308.88 Q1301.7 1307.42 1302.99 1306.69 Q1304.29 1305.97 1305.99 1305.97 Q1308.78 1305.97 1310.21 1307.71 Q1311.64 1309.43 1311.64 1312.78 Z" fill="#000000" fill-rule="evenodd" fill-opacity="1" /><path clip-path="url(#clip250)" d="M 0 0 M1326.1 1306.98 L1326.1 1309.47 Q1324.97 1308.85 1323.82 1308.54 Q1322.7 1308.23 1321.54 1308.23 Q1318.95 1308.23 1317.52 1309.88 Q1316.08 1311.51 1316.08 1314.48 Q1316.08 1317.44 1317.52 1319.09 Q1318.95 1320.73 1321.54 1320.73 Q1322.7 1320.73 1323.82 1320.42 Q1324.97 1320.1 1326.1 1319.48 L1326.1 1321.94 Q1324.98 1322.46 1323.78 1322.72 Q1322.59 1322.98 1321.25 1322.98 Q1317.59 1322.98 1315.43 1320.68 Q1313.28 1318.38 1313.28 1314.48 Q1313.28 1310.51 1315.45 1308.24 Q1317.63 1305.97 1321.42 1305.97 Q1322.65 1305.97 1323.82 1306.23 Q1325 1306.48 1326.1 1306.98 Z" fill="#000000" fill-rule="evenodd" fill-opacity="1" /><path clip-path="url(#clip250)" d="M 0 0 M1342.75 1313.8 L1342.75 1315.1 L1330.51 1315.1 Q1330.68 1317.85 1332.16 1319.29 Q1333.65 1320.73 1336.3 1320.73 Q1337.83 1320.73 1339.26 1320.35 Q1340.71 1319.97 1342.13 1319.22 L1342.13 1321.74 Q1340.69 1322.35 1339.19 1322.67 Q1337.68 1322.98 1336.14 1322.98 Q1332.26 1322.98 1329.99 1320.73 Q1327.73 1318.47 1327.73 1314.62 Q1327.73 1310.64 1329.87 1308.31 Q1332.03 1305.97 1335.67 1305.97 Q1338.94 1305.97 1340.84 1308.08 Q1342.75 1310.18 1342.75 1313.8 M1340.09 1313.02 Q1340.06 1310.83 1338.86 1309.53 Q1337.67 1308.23 1335.7 1308.23 Q1333.47 1308.23 1332.13 1309.49 Q1330.8 1310.74 1330.59 1313.03 L1340.09 1313.02 Z" fill="#000000" fill-rule="evenodd" fill-opacity="1" /><path clip-path="url(#clip250)" d="M 0 0 M1357.85 1327.48 L1357.85 1329.55 L1342.46 1329.55 L1342.46 1327.48 L1357.85 1327.48 Z" fill="#000000" fill-rule="evenodd" fill-opacity="1" /><path clip-path="url(#clip250)" d="M 0 0 M1363.68 1303.37 L1363.68 1311.48 L1367.36 1311.48 Q1369.4 1311.48 1370.51 1310.43 Q1371.62 1309.37 1371.62 1307.42 Q1371.62 1305.48 1370.51 1304.42 Q1369.4 1303.37 1367.36 1303.37 L1363.68 1303.37 M1360.76 1300.96 L1367.36 1300.96 Q1370.99 1300.96 1372.84 1302.61 Q1374.71 1304.25 1374.71 1307.42 Q1374.71 1310.61 1372.84 1312.25 Q1370.99 1313.88 1367.36 1313.88 L1363.68 1313.88 L1363.68 1322.56 L1360.76 1322.56 L1360.76 1300.96 Z" fill="#000000" fill-rule="evenodd" fill-opacity="1" /><path clip-path="url(#clip250)" d="M 0 0 M1383.53 1314.42 Q1380.31 1314.42 1379.06 1315.16 Q1377.82 1315.89 1377.82 1317.67 Q1377.82 1319.09 1378.74 1319.93 Q1379.68 1320.76 1381.29 1320.76 Q1383.5 1320.76 1384.83 1319.19 Q1386.18 1317.62 1386.18 1315.01 L1386.18 1314.42 L1383.53 1314.42 M1388.84 1313.32 L1388.84 1322.56 L1386.18 1322.56 L1386.18 1320.1 Q1385.27 1321.58 1383.91 1322.29 Q1382.55 1322.98 1380.58 1322.98 Q1378.09 1322.98 1376.62 1321.59 Q1375.15 1320.19 1375.15 1317.85 Q1375.15 1315.11 1376.98 1313.72 Q1378.82 1312.34 1382.45 1312.34 L1386.18 1312.34 L1386.18 1312.07 Q1386.18 1310.24 1384.96 1309.24 Q1383.76 1308.23 1381.58 1308.23 Q1380.19 1308.23 1378.87 1308.56 Q1377.56 1308.89 1376.34 1309.56 L1376.34 1307.1 Q1377.8 1306.53 1379.18 1306.26 Q1380.55 1305.97 1381.85 1305.97 Q1385.37 1305.97 1387.11 1307.79 Q1388.84 1309.62 1388.84 1313.32 Z" fill="#000000" fill-rule="evenodd" fill-opacity="1" /><path clip-path="url(#clip250)" d="M 0 0 M1401.02 1308.85 Q1400.57 1308.59 1400.04 1308.47 Q1399.52 1308.34 1398.88 1308.34 Q1396.62 1308.34 1395.41 1309.82 Q1394.21 1311.28 1394.21 1314.03 L1394.21 1322.56 L1391.53 1322.56 L1391.53 1306.36 L1394.21 1306.36 L1394.21 1308.88 Q1395.05 1307.4 1396.39 1306.69 Q1397.74 1305.97 1399.66 1305.97 Q1399.94 1305.97 1400.27 1306.01 Q1400.6 1306.04 1401.01 1306.11 L1401.02 1308.85 Z" fill="#000000" fill-rule="evenodd" fill-opacity="1" /><path clip-path="url(#clip250)" d="M 0 0 M1411.18 1314.42 Q1407.95 1314.42 1406.71 1315.16 Q1405.46 1315.89 1405.46 1317.67 Q1405.46 1319.09 1406.39 1319.93 Q1407.33 1320.76 1408.94 1320.76 Q1411.15 1320.76 1412.48 1319.19 Q1413.83 1317.62 1413.83 1315.01 L1413.83 1314.42 L1411.18 1314.42 M1416.49 1313.32 L1416.49 1322.56 L1413.83 1322.56 L1413.83 1320.1 Q1412.92 1321.58 1411.56 1322.29 Q1410.2 1322.98 1408.23 1322.98 Q1405.74 1322.98 1404.26 1321.59 Q1402.8 1320.19 1402.8 1317.85 Q1402.8 1315.11 1404.63 1313.72 Q1406.46 1312.34 1410.09 1312.34 L1413.83 1312.34 L1413.83 1312.07 Q1413.83 1310.24 1412.61 1309.24 Q1411.41 1308.23 1409.23 1308.23 Q1407.84 1308.23 1406.52 1308.56 Q1405.2 1308.89 1403.99 1309.56 L1403.99 1307.1 Q1405.45 1306.53 1406.82 1306.26 Q1408.2 1305.97 1409.5 1305.97 Q1413.02 1305.97 1414.75 1307.79 Q1416.49 1309.62 1416.49 1313.32 Z" fill="#000000" fill-rule="evenodd" fill-opacity="1" /><path clip-path="url(#clip250)" d="M 0 0 M1431.9 1309.47 Q1432.89 1307.68 1434.28 1306.82 Q1435.67 1305.97 1437.55 1305.97 Q1440.09 1305.97 1441.46 1307.75 Q1442.83 1309.51 1442.83 1312.78 L1442.83 1322.56 L1440.16 1322.56 L1440.16 1312.87 Q1440.16 1310.54 1439.33 1309.41 Q1438.51 1308.28 1436.82 1308.28 Q1434.75 1308.28 1433.55 1309.66 Q1432.34 1311.03 1432.34 1313.41 L1432.34 1322.56 L1429.67 1322.56 L1429.67 1312.87 Q1429.67 1310.53 1428.84 1309.41 Q1428.02 1308.28 1426.3 1308.28 Q1424.26 1308.28 1423.06 1309.67 Q1421.86 1311.05 1421.86 1313.41 L1421.86 1322.56 L1419.18 1322.56 L1419.18 1306.36 L1421.86 1306.36 L1421.86 1308.88 Q1422.77 1307.39 1424.04 1306.68 Q1425.31 1305.97 1427.06 1305.97 Q1428.83 1305.97 1430.06 1306.87 Q1431.3 1307.76 1431.9 1309.47 Z" fill="#000000" fill-rule="evenodd" fill-opacity="1" /><path clip-path="url(#clip250)" d="M 0 0 M1459.49 1313.8 L1459.49 1315.1 L1447.25 1315.1 Q1447.42 1317.85 1448.9 1319.29 Q1450.39 1320.73 1453.03 1320.73 Q1454.57 1320.73 1456 1320.35 Q1457.45 1319.97 1458.86 1319.22 L1458.86 1321.74 Q1457.43 1322.35 1455.93 1322.67 Q1454.42 1322.98 1452.87 1322.98 Q1449 1322.98 1446.73 1320.73 Q1444.47 1318.47 1444.47 1314.62 Q1444.47 1310.64 1446.61 1308.31 Q1448.77 1305.97 1452.41 1305.97 Q1455.68 1305.97 1457.58 1308.08 Q1459.49 1310.18 1459.49 1313.8 M1456.82 1313.02 Q1456.8 1310.83 1455.59 1309.53 Q1454.41 1308.23 1452.44 1308.23 Q1450.21 1308.23 1448.87 1309.49 Q1447.54 1310.74 1447.33 1313.03 L1456.82 1313.02 Z" fill="#000000" fill-rule="evenodd" fill-opacity="1" /><path clip-path="url(#clip250)" d="M 0 0 M1464.91 1301.76 L1464.91 1306.36 L1470.39 1306.36 L1470.39 1308.43 L1464.91 1308.43 L1464.91 1317.23 Q1464.91 1319.21 1465.45 1319.77 Q1466 1320.34 1467.66 1320.34 L1470.39 1320.34 L1470.39 1322.56 L1467.66 1322.56 Q1464.58 1322.56 1463.41 1321.42 Q1462.23 1320.26 1462.23 1317.23 L1462.23 1308.43 L1460.28 1308.43 L1460.28 1306.36 L1462.23 1306.36 L1462.23 1301.76 L1464.91 1301.76 Z" fill="#000000" fill-rule="evenodd" fill-opacity="1" /><path clip-path="url(#clip250)" d="M 0 0 M1487.05 1313.8 L1487.05 1315.1 L1474.81 1315.1 Q1474.98 1317.85 1476.46 1319.29 Q1477.95 1320.73 1480.59 1320.73 Q1482.13 1320.73 1483.56 1320.35 Q1485.01 1319.97 1486.42 1319.22 L1486.42 1321.74 Q1484.99 1322.35 1483.49 1322.67 Q1481.98 1322.98 1480.44 1322.98 Q1476.56 1322.98 1474.29 1320.73 Q1472.03 1318.47 1472.03 1314.62 Q1472.03 1310.64 1474.17 1308.31 Q1476.33 1305.97 1479.97 1305.97 Q1483.24 1305.97 1485.14 1308.08 Q1487.05 1310.18 1487.05 1313.8 M1484.38 1313.02 Q1484.36 1310.83 1483.15 1309.53 Q1481.97 1308.23 1480 1308.23 Q1477.77 1308.23 1476.43 1309.49 Q1475.1 1310.74 1474.89 1313.03 L1484.38 1313.02 Z" fill="#000000" fill-rule="evenodd" fill-opacity="1" /><path clip-path="url(#clip250)" d="M 0 0 M1499.23 1308.85 Q1498.78 1308.59 1498.24 1308.47 Q1497.72 1308.34 1497.09 1308.34 Q1494.83 1308.34 1493.61 1309.82 Q1492.41 1311.28 1492.41 1314.03 L1492.41 1322.56 L1489.74 1322.56 L1489.74 1306.36 L1492.41 1306.36 L1492.41 1308.88 Q1493.25 1307.4 1494.6 1306.69 Q1495.94 1305.97 1497.87 1305.97 Q1498.14 1305.97 1498.48 1306.01 Q1498.81 1306.04 1499.21 1306.11 L1499.23 1308.85 Z" fill="#000000" fill-rule="evenodd" fill-opacity="1" /><path clip-path="url(#clip250)" d="M 0 0 M1512.35 1306.84 L1512.35 1309.35 Q1511.22 1308.78 1510.01 1308.49 Q1508.79 1308.2 1507.49 1308.2 Q1505.51 1308.2 1504.51 1308.81 Q1503.53 1309.41 1503.53 1310.63 Q1503.53 1311.55 1504.23 1312.09 Q1504.94 1312.61 1507.08 1313.09 L1508 1313.29 Q1510.83 1313.9 1512.02 1315.01 Q1513.22 1316.11 1513.22 1318.09 Q1513.22 1320.35 1511.42 1321.67 Q1509.64 1322.98 1506.52 1322.98 Q1505.22 1322.98 1503.8 1322.72 Q1502.4 1322.48 1500.83 1321.97 L1500.83 1319.22 Q1502.31 1319.99 1503.74 1320.38 Q1505.17 1320.76 1506.58 1320.76 Q1508.46 1320.76 1509.47 1320.12 Q1510.48 1319.47 1510.48 1318.3 Q1510.48 1317.21 1509.75 1316.63 Q1509.02 1316.05 1506.55 1315.52 L1505.62 1315.3 Q1503.15 1314.78 1502.05 1313.71 Q1500.95 1312.62 1500.95 1310.74 Q1500.95 1308.46 1502.57 1307.21 Q1504.19 1305.97 1507.17 1305.97 Q1508.65 1305.97 1509.95 1306.19 Q1511.25 1306.4 1512.35 1306.84 Z" fill="#000000" fill-rule="evenodd" fill-opacity="1" /><path clip-path="url(#clip250)" d="M 0 0 M788.563 1101.42 L788.563 1104.5 Q787.088 1103.13 785.409 1102.45 Q783.746 1101.77 781.865 1101.77 Q778.161 1101.77 776.194 1104.04 Q774.226 1106.3 774.226 1110.58 Q774.226 1114.85 776.194 1117.12 Q778.161 1119.38 781.865 1119.38 Q783.746 1119.38 785.409 1118.7 Q787.088 1118.02 788.563 1116.64 L788.563 1119.69 Q787.03 1120.74 785.308 1121.26 Q783.601 1121.78 781.691 1121.78 Q776.787 1121.78 773.966 1118.78 Q771.144 1115.77 771.144 1110.58 Q771.144 1105.37 773.966 1102.38 Q776.787 1099.37 781.691 1099.37 Q783.63 1099.37 785.337 1099.89 Q787.059 1100.39 788.563 1101.42 Z" fill="#000000" fill-rule="evenodd" fill-opacity="1" /><path clip-path="url(#clip250)" d="M 0 0 M791.355 1098.85 L794.018 1098.85 L794.018 1121.36 L791.355 1121.36 L791.355 1098.85 Z" fill="#000000" fill-rule="evenodd" fill-opacity="1" /><path clip-path="url(#clip250)" d="M 0 0 M796.81 1105.15 L799.472 1105.15 L799.472 1121.36 L796.81 1121.36 L796.81 1105.15 M796.81 1098.85 L799.472 1098.85 L799.472 1102.22 L796.81 1102.22 L796.81 1098.85 Z" fill="#000000" fill-rule="evenodd" fill-opacity="1" /><path clip-path="url(#clip250)" d="M 0 0 M816.124 1112.59 L816.124 1113.89 L803.884 1113.89 Q804.058 1116.64 805.534 1118.09 Q807.024 1119.52 809.671 1119.52 Q811.205 1119.52 812.637 1119.14 Q814.084 1118.77 815.502 1118.02 L815.502 1120.53 Q814.069 1121.14 812.565 1121.46 Q811.06 1121.78 809.512 1121.78 Q805.635 1121.78 803.364 1119.52 Q801.107 1117.26 801.107 1113.42 Q801.107 1109.44 803.248 1107.11 Q805.403 1104.76 809.049 1104.76 Q812.319 1104.76 814.214 1106.88 Q816.124 1108.97 816.124 1112.59 M813.462 1111.81 Q813.433 1109.62 812.232 1108.32 Q811.046 1107.02 809.078 1107.02 Q806.85 1107.02 805.505 1108.28 Q804.174 1109.54 803.971 1111.82 L813.462 1111.81 Z" fill="#000000" fill-rule="evenodd" fill-opacity="1" /><path clip-path="url(#clip250)" d="M 0 0 M832.385 1111.58 L832.385 1121.36 L829.723 1121.36 L829.723 1111.66 Q829.723 1109.36 828.826 1108.22 Q827.929 1107.08 826.135 1107.08 Q823.98 1107.08 822.736 1108.45 Q821.491 1109.83 821.491 1112.2 L821.491 1121.36 L818.815 1121.36 L818.815 1105.15 L821.491 1105.15 L821.491 1107.67 Q822.446 1106.21 823.734 1105.49 Q825.036 1104.76 826.729 1104.76 Q829.521 1104.76 830.953 1106.5 Q832.385 1108.22 832.385 1111.58 Z" fill="#000000" fill-rule="evenodd" fill-opacity="1" /><path clip-path="url(#clip250)" d="M 0 0 M837.811 1100.55 L837.811 1105.15 L843.294 1105.15 L843.294 1107.22 L837.811 1107.22 L837.811 1116.02 Q837.811 1118 838.346 1118.57 Q838.896 1119.13 840.56 1119.13 L843.294 1119.13 L843.294 1121.36 L840.56 1121.36 Q837.478 1121.36 836.306 1120.21 Q835.134 1119.06 835.134 1116.02 L835.134 1107.22 L833.181 1107.22 L833.181 1105.15 L835.134 1105.15 L835.134 1100.55 L837.811 1100.55 Z" fill="#000000" fill-rule="evenodd" fill-opacity="1" /><path clip-path="url(#clip250)" d="M 0 0 M858.398 1126.28 L858.398 1128.35 L843.005 1128.35 L843.005 1126.28 L858.398 1126.28 Z" fill="#000000" fill-rule="evenodd" fill-opacity="1" /><path clip-path="url(#clip250)" d="M 0 0 M868.554 1113.21 Q865.328 1113.21 864.084 1113.95 Q862.839 1114.69 862.839 1116.47 Q862.839 1117.89 863.765 1118.72 Q864.706 1119.55 866.312 1119.55 Q868.525 1119.55 869.856 1117.99 Q871.202 1116.41 871.202 1113.81 L871.202 1113.21 L868.554 1113.21 M873.864 1112.11 L873.864 1121.36 L871.202 1121.36 L871.202 1118.9 Q870.29 1120.37 868.93 1121.08 Q867.57 1121.78 865.603 1121.78 Q863.114 1121.78 861.639 1120.39 Q860.177 1118.99 860.177 1116.64 Q860.177 1113.91 862 1112.52 Q863.838 1111.13 867.469 1111.13 L871.202 1111.13 L871.202 1110.87 Q871.202 1109.03 869.986 1108.03 Q868.786 1107.02 866.601 1107.02 Q865.212 1107.02 863.896 1107.35 Q862.579 1107.69 861.364 1108.35 L861.364 1105.89 Q862.825 1105.33 864.199 1105.05 Q865.574 1104.76 866.876 1104.76 Q870.392 1104.76 872.128 1106.59 Q873.864 1108.41 873.864 1112.11 Z" fill="#000000" fill-rule="evenodd" fill-opacity="1" /><path clip-path="url(#clip250)" d="M 0 0 M890.125 1111.58 L890.125 1121.36 L887.463 1121.36 L887.463 1111.66 Q887.463 1109.36 886.566 1108.22 Q885.669 1107.08 883.875 1107.08 Q881.72 1107.08 880.475 1108.45 Q879.231 1109.83 879.231 1112.2 L879.231 1121.36 L876.555 1121.36 L876.555 1105.15 L879.231 1105.15 L879.231 1107.67 Q880.186 1106.21 881.474 1105.49 Q882.776 1104.76 884.468 1104.76 Q887.261 1104.76 888.693 1106.5 Q890.125 1108.22 890.125 1111.58 Z" fill="#000000" fill-rule="evenodd" fill-opacity="1" /><path clip-path="url(#clip250)" d="M 0 0 M903.58 1107.61 L903.58 1098.85 L906.242 1098.85 L906.242 1121.36 L903.58 1121.36 L903.58 1118.93 Q902.741 1120.37 901.453 1121.08 Q900.18 1121.78 898.386 1121.78 Q895.449 1121.78 893.597 1119.43 Q891.76 1117.09 891.76 1113.27 Q891.76 1109.45 893.597 1107.11 Q895.449 1104.76 898.386 1104.76 Q900.18 1104.76 901.453 1105.47 Q902.741 1106.17 903.58 1107.61 M894.509 1113.27 Q894.509 1116.21 895.71 1117.89 Q896.925 1119.55 899.037 1119.55 Q901.149 1119.55 902.365 1117.89 Q903.58 1116.21 903.58 1113.27 Q903.58 1110.33 902.365 1108.67 Q901.149 1106.99 899.037 1106.99 Q896.925 1106.99 895.71 1108.67 Q894.509 1110.33 894.509 1113.27 Z" fill="#000000" fill-rule="evenodd" fill-opacity="1" /><path clip-path="url(#clip250)" d="M 0 0 M921.346 1126.28 L921.346 1128.35 L905.953 1128.35 L905.953 1126.28 L921.346 1126.28 Z" fill="#000000" fill-rule="evenodd" fill-opacity="1" /><path clip-path="url(#clip250)" d="M 0 0 M940.429 1101.42 L940.429 1104.5 Q938.953 1103.13 937.275 1102.45 Q935.611 1101.77 933.73 1101.77 Q930.027 1101.77 928.059 1104.04 Q926.091 1106.3 926.091 1110.58 Q926.091 1114.85 928.059 1117.12 Q930.027 1119.38 933.73 1119.38 Q935.611 1119.38 937.275 1118.7 Q938.953 1118.02 940.429 1116.64 L940.429 1119.69 Q938.895 1120.74 937.174 1121.26 Q935.466 1121.78 933.557 1121.78 Q928.652 1121.78 925.831 1118.78 Q923.01 1115.77 923.01 1110.58 Q923.01 1105.37 925.831 1102.38 Q928.652 1099.37 933.557 1099.37 Q935.495 1099.37 937.203 1099.89 Q938.924 1100.39 940.429 1101.42 Z" fill="#000000" fill-rule="evenodd" fill-opacity="1" /><path clip-path="url(#clip250)" d="M 0 0 M949.5 1107.02 Q947.359 1107.02 946.115 1108.7 Q944.87 1110.36 944.87 1113.27 Q944.87 1116.18 946.1 1117.86 Q947.344 1119.52 949.5 1119.52 Q951.627 1119.52 952.871 1117.84 Q954.115 1116.16 954.115 1113.27 Q954.115 1110.39 952.871 1108.71 Q951.627 1107.02 949.5 1107.02 M949.5 1104.76 Q952.972 1104.76 954.954 1107.02 Q956.936 1109.28 956.936 1113.27 Q956.936 1117.25 954.954 1119.52 Q952.972 1121.78 949.5 1121.78 Q946.013 1121.78 944.031 1119.52 Q942.064 1117.25 942.064 1113.27 Q942.064 1109.28 944.031 1107.02 Q946.013 1104.76 949.5 1104.76 Z" fill="#000000" fill-rule="evenodd" fill-opacity="1" /><path clip-path="url(#clip250)" d="M 0 0 M973.198 1111.58 L973.198 1121.36 L970.536 1121.36 L970.536 1111.66 Q970.536 1109.36 969.639 1108.22 Q968.742 1107.08 966.948 1107.08 Q964.792 1107.08 963.548 1108.45 Q962.304 1109.83 962.304 1112.2 L962.304 1121.36 L959.627 1121.36 L959.627 1105.15 L962.304 1105.15 L962.304 1107.67 Q963.259 1106.21 964.546 1105.49 Q965.848 1104.76 967.541 1104.76 Q970.333 1104.76 971.765 1106.5 Q973.198 1108.22 973.198 1111.58 Z" fill="#000000" fill-rule="evenodd" fill-opacity="1" /><path clip-path="url(#clip250)" d="M 0 0 M986.32 1105.63 L986.32 1108.15 Q985.191 1107.57 983.976 1107.28 Q982.761 1106.99 981.459 1106.99 Q979.477 1106.99 978.478 1107.6 Q977.495 1108.21 977.495 1109.42 Q977.495 1110.35 978.203 1110.88 Q978.912 1111.4 981.054 1111.88 L981.965 1112.08 Q984.801 1112.69 985.987 1113.81 Q987.188 1114.91 987.188 1116.89 Q987.188 1119.14 985.394 1120.46 Q983.614 1121.78 980.489 1121.78 Q979.187 1121.78 977.769 1121.52 Q976.366 1121.27 974.804 1120.76 L974.804 1118.02 Q976.279 1118.78 977.712 1119.17 Q979.144 1119.55 980.547 1119.55 Q982.428 1119.55 983.441 1118.91 Q984.453 1118.26 984.453 1117.09 Q984.453 1116 983.716 1115.43 Q982.992 1114.85 980.518 1114.31 L979.592 1114.1 Q977.118 1113.57 976.019 1112.5 Q974.919 1111.42 974.919 1109.54 Q974.919 1107.25 976.54 1106.01 Q978.16 1104.76 981.14 1104.76 Q982.616 1104.76 983.918 1104.98 Q985.22 1105.2 986.32 1105.63 Z" fill="#000000" fill-rule="evenodd" fill-opacity="1" /><path clip-path="url(#clip250)" d="M 0 0 M989.705 1114.96 L989.705 1105.15 L992.367 1105.15 L992.367 1114.86 Q992.367 1117.16 993.264 1118.32 Q994.161 1119.46 995.955 1119.46 Q998.111 1119.46 999.355 1118.09 Q1000.61 1116.71 1000.61 1114.34 L1000.61 1105.15 L1003.28 1105.15 L1003.28 1121.36 L1000.61 1121.36 L1000.61 1118.87 Q999.644 1120.35 998.357 1121.07 Q997.084 1121.78 995.391 1121.78 Q992.599 1121.78 991.152 1120.04 Q989.705 1118.31 989.705 1114.96 M996.404 1104.76 L996.404 1104.76 Z" fill="#000000" fill-rule="evenodd" fill-opacity="1" /><path clip-path="url(#clip250)" d="M 0 0 M1006.07 1098.85 L1008.73 1098.85 L1008.73 1121.36 L1006.07 1121.36 L1006.07 1098.85 Z" fill="#000000" fill-rule="evenodd" fill-opacity="1" /><path clip-path="url(#clip250)" d="M 0 0 M1014.16 1100.55 L1014.16 1105.15 L1019.64 1105.15 L1019.64 1107.22 L1014.16 1107.22 L1014.16 1116.02 Q1014.16 1118 1014.69 1118.57 Q1015.24 1119.13 1016.9 1119.13 L1019.64 1119.13 L1019.64 1121.36 L1016.9 1121.36 Q1013.82 1121.36 1012.65 1120.21 Q1011.48 1119.06 1011.48 1116.02 L1011.48 1107.22 L1009.53 1107.22 L1009.53 1105.15 L1011.48 1105.15 L1011.48 1100.55 L1014.16 1100.55 Z" fill="#000000" fill-rule="evenodd" fill-opacity="1" /><path clip-path="url(#clip250)" d="M 0 0 M1029.79 1113.21 Q1026.57 1113.21 1025.32 1113.95 Q1024.08 1114.69 1024.08 1116.47 Q1024.08 1117.89 1025.01 1118.72 Q1025.95 1119.55 1027.55 1119.55 Q1029.77 1119.55 1031.1 1117.99 Q1032.44 1116.41 1032.44 1113.81 L1032.44 1113.21 L1029.79 1113.21 M1035.1 1112.11 L1035.1 1121.36 L1032.44 1121.36 L1032.44 1118.9 Q1031.53 1120.37 1030.17 1121.08 Q1028.81 1121.78 1026.84 1121.78 Q1024.35 1121.78 1022.88 1120.39 Q1021.42 1118.99 1021.42 1116.64 Q1021.42 1113.91 1023.24 1112.52 Q1025.08 1111.13 1028.71 1111.13 L1032.44 1111.13 L1032.44 1110.87 Q1032.44 1109.03 1031.23 1108.03 Q1030.03 1107.02 1027.84 1107.02 Q1026.45 1107.02 1025.14 1107.35 Q1023.82 1107.69 1022.6 1108.35 L1022.6 1105.89 Q1024.07 1105.33 1025.44 1105.05 Q1026.81 1104.76 1028.12 1104.76 Q1031.63 1104.76 1033.37 1106.59 Q1035.1 1108.41 1035.1 1112.11 Z" fill="#000000" fill-rule="evenodd" fill-opacity="1" /><path clip-path="url(#clip250)" d="M 0 0 M1051.37 1111.58 L1051.37 1121.36 L1048.7 1121.36 L1048.7 1111.66 Q1048.7 1109.36 1047.81 1108.22 Q1046.91 1107.08 1045.12 1107.08 Q1042.96 1107.08 1041.72 1108.45 Q1040.47 1109.83 1040.47 1112.2 L1040.47 1121.36 L1037.8 1121.36 L1037.8 1105.15 L1040.47 1105.15 L1040.47 1107.67 Q1041.43 1106.21 1042.71 1105.49 Q1044.02 1104.76 1045.71 1104.76 Q1048.5 1104.76 1049.93 1106.5 Q1051.37 1108.22 1051.37 1111.58 Z" fill="#000000" fill-rule="evenodd" fill-opacity="1" /><path clip-path="url(#clip250)" d="M 0 0 M1056.79 1100.55 L1056.79 1105.15 L1062.27 1105.15 L1062.27 1107.22 L1056.79 1107.22 L1056.79 1116.02 Q1056.79 1118 1057.33 1118.57 Q1057.88 1119.13 1059.54 1119.13 L1062.27 1119.13 L1062.27 1121.36 L1059.54 1121.36 Q1056.46 1121.36 1055.29 1120.21 Q1054.11 1119.06 1054.11 1116.02 L1054.11 1107.22 L1052.16 1107.22 L1052.16 1105.15 L1054.11 1105.15 L1054.11 1100.55 L1056.79 1100.55 Z" fill="#000000" fill-rule="evenodd" fill-opacity="1" /><path clip-path="url(#clip250)" d="M 0 0 M1077.38 1126.28 L1077.38 1128.35 L1061.98 1128.35 L1061.98 1126.28 L1077.38 1126.28 Z" fill="#000000" fill-rule="evenodd" fill-opacity="1" /><path clip-path="url(#clip250)" d="M 0 0 M1090.53 1111.23 Q1091.47 1111.55 1092.35 1112.59 Q1093.25 1113.63 1094.15 1115.46 L1097.11 1121.36 L1093.97 1121.36 L1091.21 1115.82 Q1090.14 1113.65 1089.13 1112.94 Q1088.13 1112.23 1086.39 1112.23 L1083.21 1112.23 L1083.21 1121.36 L1080.29 1121.36 L1080.29 1099.76 L1086.88 1099.76 Q1090.59 1099.76 1092.41 1101.31 Q1094.23 1102.85 1094.23 1105.98 Q1094.23 1108.02 1093.28 1109.36 Q1092.34 1110.71 1090.53 1111.23 M1083.21 1102.16 L1083.21 1109.83 L1086.88 1109.83 Q1089 1109.83 1090.07 1108.86 Q1091.15 1107.87 1091.15 1105.98 Q1091.15 1104.08 1090.07 1103.13 Q1089 1102.16 1086.88 1102.16 L1083.21 1102.16 Z" fill="#000000" fill-rule="evenodd" fill-opacity="1" /><path clip-path="url(#clip250)" d="M 0 0 M1112.43 1112.59 L1112.43 1113.89 L1100.19 1113.89 Q1100.37 1116.64 1101.84 1118.09 Q1103.33 1119.52 1105.98 1119.52 Q1107.51 1119.52 1108.95 1119.14 Q1110.39 1118.77 1111.81 1118.02 L1111.81 1120.53 Q1110.38 1121.14 1108.87 1121.46 Q1107.37 1121.78 1105.82 1121.78 Q1101.94 1121.78 1099.67 1119.52 Q1097.42 1117.26 1097.42 1113.42 Q1097.42 1109.44 1099.56 1107.11 Q1101.71 1104.76 1105.36 1104.76 Q1108.63 1104.76 1110.52 1106.88 Q1112.43 1108.97 1112.43 1112.59 M1109.77 1111.81 Q1109.74 1109.62 1108.54 1108.32 Q1107.35 1107.02 1105.39 1107.02 Q1103.16 1107.02 1101.81 1108.28 Q1100.48 1109.54 1100.28 1111.82 L1109.77 1111.81 Z" fill="#000000" fill-rule="evenodd" fill-opacity="1" /><path clip-path="url(#clip250)" d="M 0 0 M1116.82 1113.27 Q1116.82 1116.21 1118.02 1117.89 Q1119.23 1119.55 1121.35 1119.55 Q1123.46 1119.55 1124.67 1117.89 Q1125.89 1116.21 1125.89 1113.27 Q1125.89 1110.33 1124.67 1108.67 Q1123.46 1106.99 1121.35 1106.99 Q1119.23 1106.99 1118.02 1108.67 Q1116.82 1110.33 1116.82 1113.27 M1125.89 1118.93 Q1125.05 1120.37 1123.76 1121.08 Q1122.49 1121.78 1120.69 1121.78 Q1117.76 1121.78 1115.91 1119.43 Q1114.07 1117.09 1114.07 1113.27 Q1114.07 1109.45 1115.91 1107.11 Q1117.76 1104.76 1120.69 1104.76 Q1122.49 1104.76 1123.76 1105.47 Q1125.05 1106.17 1125.89 1107.61 L1125.89 1105.15 L1128.55 1105.15 L1128.55 1127.52 L1125.89 1127.52 L1125.89 1118.93 Z" fill="#000000" fill-rule="evenodd" fill-opacity="1" /><path clip-path="url(#clip250)" d="M 0 0 M1131.07 1114.96 L1131.07 1105.15 L1133.73 1105.15 L1133.73 1114.86 Q1133.73 1117.16 1134.63 1118.32 Q1135.52 1119.46 1137.32 1119.46 Q1139.47 1119.46 1140.72 1118.09 Q1141.98 1116.71 1141.98 1114.34 L1141.98 1105.15 L1144.64 1105.15 L1144.64 1121.36 L1141.98 1121.36 L1141.98 1118.87 Q1141.01 1120.35 1139.72 1121.07 Q1138.45 1121.78 1136.75 1121.78 Q1133.96 1121.78 1132.51 1120.04 Q1131.07 1118.31 1131.07 1114.96 M1137.77 1104.76 L1137.77 1104.76 Z" fill="#000000" fill-rule="evenodd" fill-opacity="1" /><path clip-path="url(#clip250)" d="M 0 0 M1161.29 1112.59 L1161.29 1113.89 L1149.05 1113.89 Q1149.22 1116.64 1150.7 1118.09 Q1152.19 1119.52 1154.84 1119.52 Q1156.37 1119.52 1157.8 1119.14 Q1159.25 1118.77 1160.67 1118.02 L1160.67 1120.53 Q1159.24 1121.14 1157.73 1121.46 Q1156.23 1121.78 1154.68 1121.78 Q1150.8 1121.78 1148.53 1119.52 Q1146.27 1117.26 1146.27 1113.42 Q1146.27 1109.44 1148.41 1107.11 Q1150.57 1104.76 1154.22 1104.76 Q1157.48 1104.76 1159.38 1106.88 Q1161.29 1108.97 1161.29 1112.59 M1158.63 1111.81 Q1158.6 1109.62 1157.4 1108.32 Q1156.21 1107.02 1154.24 1107.02 Q1152.02 1107.02 1150.67 1108.28 Q1149.34 1109.54 1149.14 1111.82 L1158.63 1111.81 Z" fill="#000000" fill-rule="evenodd" fill-opacity="1" /><path clip-path="url(#clip250)" d="M 0 0 M1174.41 1105.63 L1174.41 1108.15 Q1173.28 1107.57 1172.07 1107.28 Q1170.85 1106.99 1169.55 1106.99 Q1167.57 1106.99 1166.57 1107.6 Q1165.59 1108.21 1165.59 1109.42 Q1165.59 1110.35 1166.3 1110.88 Q1167 1111.4 1169.15 1111.88 L1170.06 1112.08 Q1172.89 1112.69 1174.08 1113.81 Q1175.28 1114.91 1175.28 1116.89 Q1175.28 1119.14 1173.49 1120.46 Q1171.71 1121.78 1168.58 1121.78 Q1167.28 1121.78 1165.86 1121.52 Q1164.46 1121.27 1162.9 1120.76 L1162.9 1118.02 Q1164.37 1118.78 1165.8 1119.17 Q1167.24 1119.55 1168.64 1119.55 Q1170.52 1119.55 1171.53 1118.91 Q1172.55 1118.26 1172.55 1117.09 Q1172.55 1116 1171.81 1115.43 Q1171.08 1114.85 1168.61 1114.31 L1167.68 1114.1 Q1165.21 1113.57 1164.11 1112.5 Q1163.01 1111.42 1163.01 1109.54 Q1163.01 1107.25 1164.63 1106.01 Q1166.25 1104.76 1169.23 1104.76 Q1170.71 1104.76 1172.01 1104.98 Q1173.31 1105.2 1174.41 1105.63 Z" fill="#000000" fill-rule="evenodd" fill-opacity="1" /><path clip-path="url(#clip250)" d="M 0 0 M1180.71 1100.55 L1180.71 1105.15 L1186.19 1105.15 L1186.19 1107.22 L1180.71 1107.22 L1180.71 1116.02 Q1180.71 1118 1181.24 1118.57 Q1181.79 1119.13 1183.45 1119.13 L1186.19 1119.13 L1186.19 1121.36 L1183.45 1121.36 Q1180.37 1121.36 1179.2 1120.21 Q1178.03 1119.06 1178.03 1116.02 L1178.03 1107.22 L1176.08 1107.22 L1176.08 1105.15 L1178.03 1105.15 L1178.03 1100.55 L1180.71 1100.55 Z" fill="#000000" fill-rule="evenodd" fill-opacity="1" /><path clip-path="url(#clip250)" d="M 0 0 M1199.31 1105.63 L1199.31 1108.15 Q1198.18 1107.57 1196.97 1107.28 Q1195.75 1106.99 1194.45 1106.99 Q1192.47 1106.99 1191.47 1107.6 Q1190.49 1108.21 1190.49 1109.42 Q1190.49 1110.35 1191.19 1110.88 Q1191.9 1111.4 1194.04 1111.88 L1194.96 1112.08 Q1197.79 1112.69 1198.98 1113.81 Q1200.18 1114.91 1200.18 1116.89 Q1200.18 1119.14 1198.38 1120.46 Q1196.61 1121.78 1193.48 1121.78 Q1192.18 1121.78 1190.76 1121.52 Q1189.36 1121.27 1187.79 1120.76 L1187.79 1118.02 Q1189.27 1118.78 1190.7 1119.17 Q1192.13 1119.55 1193.54 1119.55 Q1195.42 1119.55 1196.43 1118.91 Q1197.44 1118.26 1197.44 1117.09 Q1197.44 1116 1196.71 1115.43 Q1195.98 1114.85 1193.51 1114.31 L1192.58 1114.1 Q1190.11 1113.57 1189.01 1112.5 Q1187.91 1111.42 1187.91 1109.54 Q1187.91 1107.25 1189.53 1106.01 Q1191.15 1104.76 1194.13 1104.76 Q1195.61 1104.76 1196.91 1104.98 Q1198.21 1105.2 1199.31 1105.63 Z" fill="#000000" fill-rule="evenodd" fill-opacity="1" /><path clip-path="url(#clip250)" d="M 0 0 M1229.34 848.308 L1229.34 865.104 L1232.87 865.104 Q1237.34 865.104 1239.41 863.079 Q1241.49 861.054 1241.49 856.684 Q1241.49 852.344 1239.41 850.333 Q1237.34 848.308 1232.87 848.308 L1229.34 848.308 M1226.42 845.906 L1232.42 845.906 Q1238.7 845.906 1241.64 848.525 Q1244.57 851.129 1244.57 856.684 Q1244.57 862.269 1241.62 864.887 Q1238.67 867.506 1232.42 867.506 L1226.42 867.506 L1226.42 845.906 Z" fill="#000000" fill-rule="evenodd" fill-opacity="1" /><path clip-path="url(#clip250)" d="M 0 0 M1261.23 858.739 L1261.23 860.041 L1248.99 860.041 Q1249.16 862.79 1250.63 864.236 Q1252.13 865.669 1254.77 865.669 Q1256.31 865.669 1257.74 865.292 Q1259.19 864.916 1260.6 864.164 L1260.6 866.681 Q1259.17 867.289 1257.67 867.607 Q1256.16 867.926 1254.61 867.926 Q1250.74 867.926 1248.46 865.669 Q1246.21 863.412 1246.21 859.563 Q1246.21 855.585 1248.35 853.256 Q1250.5 850.912 1254.15 850.912 Q1257.42 850.912 1259.32 853.024 Q1261.23 855.122 1261.23 858.739 M1258.56 857.957 Q1258.53 855.773 1257.33 854.471 Q1256.15 853.169 1254.18 853.169 Q1251.95 853.169 1250.61 854.427 Q1249.28 855.686 1249.07 857.972 L1258.56 857.957 Z" fill="#000000" fill-rule="evenodd" fill-opacity="1" /><path clip-path="url(#clip250)" d="M 0 0 M1274.35 851.78 L1274.35 854.297 Q1273.22 853.718 1272 853.429 Q1270.79 853.14 1269.49 853.14 Q1267.5 853.14 1266.51 853.747 Q1265.52 854.355 1265.52 855.57 Q1265.52 856.496 1266.23 857.032 Q1266.94 857.552 1269.08 858.03 L1269.99 858.232 Q1272.83 858.84 1274.01 859.954 Q1275.22 861.054 1275.22 863.036 Q1275.22 865.292 1273.42 866.609 Q1271.64 867.926 1268.52 867.926 Q1267.21 867.926 1265.8 867.665 Q1264.39 867.419 1262.83 866.913 L1262.83 864.164 Q1264.31 864.931 1265.74 865.321 Q1267.17 865.698 1268.57 865.698 Q1270.46 865.698 1271.47 865.061 Q1272.48 864.41 1272.48 863.238 Q1272.48 862.153 1271.74 861.574 Q1271.02 860.996 1268.55 860.46 L1267.62 860.243 Q1265.15 859.723 1264.05 858.652 Q1262.95 857.567 1262.95 855.686 Q1262.95 853.4 1264.57 852.156 Q1266.19 850.912 1269.17 850.912 Q1270.64 850.912 1271.95 851.129 Q1273.25 851.346 1274.35 851.78 Z" fill="#000000" fill-rule="evenodd" fill-opacity="1" /><path clip-path="url(#clip250)" d="M 0 0 M1278.01 851.302 L1280.67 851.302 L1280.67 867.506 L1278.01 867.506 L1278.01 851.302 M1278.01 844.995 L1280.67 844.995 L1280.67 848.366 L1278.01 848.366 L1278.01 844.995 Z" fill="#000000" fill-rule="evenodd" fill-opacity="1" /><path clip-path="url(#clip250)" d="M 0 0 M1294.12 859.216 Q1294.12 856.323 1292.92 854.731 Q1291.74 853.14 1289.58 853.14 Q1287.44 853.14 1286.24 854.731 Q1285.05 856.323 1285.05 859.216 Q1285.05 862.095 1286.24 863.687 Q1287.44 865.278 1289.58 865.278 Q1291.74 865.278 1292.92 863.687 Q1294.12 862.095 1294.12 859.216 M1296.79 865.495 Q1296.79 869.633 1294.95 871.644 Q1293.11 873.669 1289.32 873.669 Q1287.92 873.669 1286.67 873.452 Q1285.43 873.25 1284.26 872.816 L1284.26 870.226 Q1285.43 870.862 1286.57 871.166 Q1287.72 871.47 1288.9 871.47 Q1291.52 871.47 1292.82 870.096 Q1294.12 868.736 1294.12 865.972 L1294.12 864.656 Q1293.3 866.088 1292.01 866.797 Q1290.72 867.506 1288.93 867.506 Q1285.95 867.506 1284.13 865.235 Q1282.3 862.963 1282.3 859.216 Q1282.3 855.455 1284.13 853.183 Q1285.95 850.912 1288.93 850.912 Q1290.72 850.912 1292.01 851.621 Q1293.3 852.33 1294.12 853.762 L1294.12 851.302 L1296.79 851.302 L1296.79 865.495 Z" fill="#000000" fill-rule="evenodd" fill-opacity="1" /><path clip-path="url(#clip250)" d="M 0 0 M1313.05 857.726 L1313.05 867.506 L1310.39 867.506 L1310.39 857.813 Q1310.39 855.512 1309.49 854.37 Q1308.59 853.227 1306.8 853.227 Q1304.64 853.227 1303.4 854.601 Q1302.15 855.975 1302.15 858.348 L1302.15 867.506 L1299.48 867.506 L1299.48 851.302 L1302.15 851.302 L1302.15 853.82 Q1303.11 852.359 1304.4 851.635 Q1305.7 850.912 1307.39 850.912 Q1310.18 850.912 1311.62 852.648 Q1313.05 854.37 1313.05 857.726 Z" fill="#000000" fill-rule="evenodd" fill-opacity="1" /><path clip-path="url(#clip250)" d="M 0 0 M1328.15 872.425 L1328.15 874.494 L1312.76 874.494 L1312.76 872.425 L1328.15 872.425 Z" fill="#000000" fill-rule="evenodd" fill-opacity="1" /><path clip-path="url(#clip250)" d="M 0 0 M1341.3 857.379 Q1342.24 857.697 1343.13 858.739 Q1344.02 859.78 1344.92 861.603 L1347.89 867.506 L1344.75 867.506 L1341.98 861.965 Q1340.91 859.795 1339.9 859.086 Q1338.9 858.377 1337.17 858.377 L1333.98 858.377 L1333.98 867.506 L1331.06 867.506 L1331.06 845.906 L1337.66 845.906 Q1341.36 845.906 1343.18 847.454 Q1345.01 849.002 1345.01 852.127 Q1345.01 854.167 1344.05 855.512 Q1343.11 856.858 1341.3 857.379 M1333.98 848.308 L1333.98 855.975 L1337.66 855.975 Q1339.77 855.975 1340.84 855.006 Q1341.92 854.022 1341.92 852.127 Q1341.92 850.232 1340.84 849.277 Q1339.77 848.308 1337.66 848.308 L1333.98 848.308 Z" fill="#000000" fill-rule="evenodd" fill-opacity="1" /><path clip-path="url(#clip250)" d="M 0 0 M1363.21 858.739 L1363.21 860.041 L1350.97 860.041 Q1351.14 862.79 1352.62 864.236 Q1354.11 865.669 1356.75 865.669 Q1358.29 865.669 1359.72 865.292 Q1361.17 864.916 1362.58 864.164 L1362.58 866.681 Q1361.15 867.289 1359.65 867.607 Q1358.14 867.926 1356.6 867.926 Q1352.72 867.926 1350.45 865.669 Q1348.19 863.412 1348.19 859.563 Q1348.19 855.585 1350.33 853.256 Q1352.49 850.912 1356.13 850.912 Q1359.4 850.912 1361.3 853.024 Q1363.21 855.122 1363.21 858.739 M1360.54 857.957 Q1360.52 855.773 1359.31 854.471 Q1358.13 853.169 1356.16 853.169 Q1353.93 853.169 1352.59 854.427 Q1351.26 855.686 1351.05 857.972 L1360.54 857.957 Z" fill="#000000" fill-rule="evenodd" fill-opacity="1" /><path clip-path="url(#clip250)" d="M 0 0 M1373.36 859.361 Q1370.14 859.361 1368.89 860.099 Q1367.65 860.837 1367.65 862.616 Q1367.65 864.034 1368.57 864.873 Q1369.51 865.698 1371.12 865.698 Q1373.33 865.698 1374.66 864.135 Q1376.01 862.558 1376.01 859.954 L1376.01 859.361 L1373.36 859.361 M1378.67 858.261 L1378.67 867.506 L1376.01 867.506 L1376.01 865.047 Q1375.1 866.522 1373.74 867.231 Q1372.38 867.926 1370.41 867.926 Q1367.92 867.926 1366.45 866.537 Q1364.99 865.133 1364.99 862.79 Q1364.99 860.055 1366.81 858.666 Q1368.65 857.277 1372.28 857.277 L1376.01 857.277 L1376.01 857.017 Q1376.01 855.18 1374.8 854.181 Q1373.59 853.169 1371.41 853.169 Q1370.02 853.169 1368.7 853.501 Q1367.39 853.834 1366.17 854.5 L1366.17 852.04 Q1367.63 851.476 1369.01 851.201 Q1370.38 850.912 1371.68 850.912 Q1375.2 850.912 1376.94 852.735 Q1378.67 854.558 1378.67 858.261 Z" fill="#000000" fill-rule="evenodd" fill-opacity="1" /><path clip-path="url(#clip250)" d="M 0 0 M1391.79 851.78 L1391.79 854.297 Q1390.67 853.718 1389.45 853.429 Q1388.24 853.14 1386.93 853.14 Q1384.95 853.14 1383.95 853.747 Q1382.97 854.355 1382.97 855.57 Q1382.97 856.496 1383.68 857.032 Q1384.39 857.552 1386.53 858.03 L1387.44 858.232 Q1390.28 858.84 1391.46 859.954 Q1392.66 861.054 1392.66 863.036 Q1392.66 865.292 1390.87 866.609 Q1389.09 867.926 1385.96 867.926 Q1384.66 867.926 1383.24 867.665 Q1381.84 867.419 1380.28 866.913 L1380.28 864.164 Q1381.75 864.931 1383.19 865.321 Q1384.62 865.698 1386.02 865.698 Q1387.9 865.698 1388.92 865.061 Q1389.93 864.41 1389.93 863.238 Q1389.93 862.153 1389.19 861.574 Q1388.47 860.996 1385.99 860.46 L1385.07 860.243 Q1382.59 859.723 1381.49 858.652 Q1380.39 857.567 1380.39 855.686 Q1380.39 853.4 1382.01 852.156 Q1383.63 850.912 1386.62 850.912 Q1388.09 850.912 1389.39 851.129 Q1390.69 851.346 1391.79 851.78 Z" fill="#000000" fill-rule="evenodd" fill-opacity="1" /><path clip-path="url(#clip250)" d="M 0 0 M1401.73 853.169 Q1399.59 853.169 1398.35 854.847 Q1397.1 856.511 1397.1 859.419 Q1397.1 862.327 1398.33 864.005 Q1399.58 865.669 1401.73 865.669 Q1403.86 865.669 1405.1 863.99 Q1406.35 862.312 1406.35 859.419 Q1406.35 856.54 1405.1 854.861 Q1403.86 853.169 1401.73 853.169 M1401.73 850.912 Q1405.21 850.912 1407.19 853.169 Q1409.17 855.426 1409.17 859.419 Q1409.17 863.397 1407.19 865.669 Q1405.21 867.926 1401.73 867.926 Q1398.25 867.926 1396.26 865.669 Q1394.3 863.397 1394.3 859.419 Q1394.3 855.426 1396.26 853.169 Q1398.25 850.912 1401.73 850.912 Z" fill="#000000" fill-rule="evenodd" fill-opacity="1" /><path clip-path="url(#clip250)" d="M 0 0 M1425.43 857.726 L1425.43 867.506 L1422.77 867.506 L1422.77 857.813 Q1422.77 855.512 1421.87 854.37 Q1420.98 853.227 1419.18 853.227 Q1417.03 853.227 1415.78 854.601 Q1414.54 855.975 1414.54 858.348 L1414.54 867.506 L1411.86 867.506 L1411.86 851.302 L1414.54 851.302 L1414.54 853.82 Q1415.49 852.359 1416.78 851.635 Q1418.08 850.912 1419.77 850.912 Q1422.57 850.912 1424 852.648 Q1425.43 854.37 1425.43 857.726 Z" fill="#000000" fill-rule="evenodd" fill-opacity="1" /><path clip-path="url(#clip250)" d="M 0 0 M1428.22 851.302 L1430.89 851.302 L1430.89 867.506 L1428.22 867.506 L1428.22 851.302 M1428.22 844.995 L1430.89 844.995 L1430.89 848.366 L1428.22 848.366 L1428.22 844.995 Z" fill="#000000" fill-rule="evenodd" fill-opacity="1" /><path clip-path="url(#clip250)" d="M 0 0 M1447.15 857.726 L1447.15 867.506 L1444.49 867.506 L1444.49 857.813 Q1444.49 855.512 1443.59 854.37 Q1442.69 853.227 1440.9 853.227 Q1438.74 853.227 1437.5 854.601 Q1436.25 855.975 1436.25 858.348 L1436.25 867.506 L1433.58 867.506 L1433.58 851.302 L1436.25 851.302 L1436.25 853.82 Q1437.21 852.359 1438.5 851.635 Q1439.8 850.912 1441.49 850.912 Q1444.28 850.912 1445.71 852.648 Q1447.15 854.37 1447.15 857.726 Z" fill="#000000" fill-rule="evenodd" fill-opacity="1" /><path clip-path="url(#clip250)" d="M 0 0 M1460.6 859.216 Q1460.6 856.323 1459.4 854.731 Q1458.21 853.14 1456.06 853.14 Q1453.92 853.14 1452.72 854.731 Q1451.53 856.323 1451.53 859.216 Q1451.53 862.095 1452.72 863.687 Q1453.92 865.278 1456.06 865.278 Q1458.21 865.278 1459.4 863.687 Q1460.6 862.095 1460.6 859.216 M1463.26 865.495 Q1463.26 869.633 1461.43 871.644 Q1459.59 873.669 1455.8 873.669 Q1454.4 873.669 1453.15 873.452 Q1451.91 873.25 1450.74 872.816 L1450.74 870.226 Q1451.91 870.862 1453.05 871.166 Q1454.19 871.47 1455.38 871.47 Q1458 871.47 1459.3 870.096 Q1460.6 868.736 1460.6 865.972 L1460.6 864.656 Q1459.78 866.088 1458.49 866.797 Q1457.2 867.506 1455.41 867.506 Q1452.43 867.506 1450.6 865.235 Q1448.78 862.963 1448.78 859.216 Q1448.78 855.455 1450.6 853.183 Q1452.43 850.912 1455.41 850.912 Q1457.2 850.912 1458.49 851.621 Q1459.78 852.33 1460.6 853.762 L1460.6 851.302 L1463.26 851.302 L1463.26 865.495 Z" fill="#000000" fill-rule="evenodd" fill-opacity="1" /><path clip-path="url(#clip250)" d="M 0 0 M434.198 1317.68 L434.198 1320.76 Q432.722 1319.39 431.044 1318.71 Q429.38 1318.03 427.499 1318.03 Q423.796 1318.03 421.828 1320.3 Q419.861 1322.56 419.861 1326.84 Q419.861 1331.11 421.828 1333.38 Q423.796 1335.63 427.499 1335.63 Q429.38 1335.63 431.044 1334.95 Q432.722 1334.27 434.198 1332.9 L434.198 1335.95 Q432.664 1336.99 430.943 1337.52 Q429.236 1338.04 427.326 1338.04 Q422.421 1338.04 419.6 1335.04 Q416.779 1332.03 416.779 1326.84 Q416.779 1321.63 419.6 1318.64 Q422.421 1315.63 427.326 1315.63 Q429.264 1315.63 430.972 1316.15 Q432.693 1316.65 434.198 1317.68 Z" fill="#000000" fill-rule="evenodd" fill-opacity="1" /><path clip-path="url(#clip250)" d="M 0 0 M443.269 1323.28 Q441.128 1323.28 439.884 1324.96 Q438.639 1326.62 438.639 1329.53 Q438.639 1332.44 439.869 1334.12 Q441.113 1335.78 443.269 1335.78 Q445.396 1335.78 446.64 1334.1 Q447.884 1332.42 447.884 1329.53 Q447.884 1326.65 446.64 1324.97 Q445.396 1323.28 443.269 1323.28 M443.269 1321.02 Q446.741 1321.02 448.723 1323.28 Q450.705 1325.54 450.705 1329.53 Q450.705 1333.51 448.723 1335.78 Q446.741 1338.04 443.269 1338.04 Q439.782 1338.04 437.8 1335.78 Q435.833 1333.51 435.833 1329.53 Q435.833 1325.54 437.8 1323.28 Q439.782 1321.02 443.269 1321.02 Z" fill="#000000" fill-rule="evenodd" fill-opacity="1" /><path clip-path="url(#clip250)" d="M 0 0 M453.498 1315.11 L456.16 1315.11 L456.16 1337.62 L453.498 1337.62 L453.498 1315.11 Z" fill="#000000" fill-rule="evenodd" fill-opacity="1" /><path clip-path="url(#clip250)" d="M 0 0 M458.952 1315.11 L461.614 1315.11 L461.614 1337.62 L458.952 1337.62 L458.952 1315.11 Z" fill="#000000" fill-rule="evenodd" fill-opacity="1" /><path clip-path="url(#clip250)" d="M 0 0 M471.77 1329.47 Q468.544 1329.47 467.3 1330.21 Q466.055 1330.95 466.055 1332.73 Q466.055 1334.14 466.981 1334.98 Q467.922 1335.81 469.528 1335.81 Q471.741 1335.81 473.072 1334.25 Q474.418 1332.67 474.418 1330.06 L474.418 1329.47 L471.77 1329.47 M477.08 1328.37 L477.08 1337.62 L474.418 1337.62 L474.418 1335.16 Q473.506 1336.63 472.146 1337.34 Q470.786 1338.04 468.819 1338.04 Q466.33 1338.04 464.855 1336.65 Q463.393 1335.24 463.393 1332.9 Q463.393 1330.17 465.216 1328.78 Q467.054 1327.39 470.685 1327.39 L474.418 1327.39 L474.418 1327.13 Q474.418 1325.29 473.202 1324.29 Q472.002 1323.28 469.817 1323.28 Q468.428 1323.28 467.111 1323.61 Q465.795 1323.94 464.58 1324.61 L464.58 1322.15 Q466.041 1321.59 467.415 1321.31 Q468.79 1321.02 470.092 1321.02 Q473.607 1321.02 475.344 1322.85 Q477.08 1324.67 477.08 1328.37 Z" fill="#000000" fill-rule="evenodd" fill-opacity="1" /><path clip-path="url(#clip250)" d="M 0 0 M491.504 1329.53 Q491.504 1326.59 490.288 1324.93 Q489.088 1323.25 486.975 1323.25 Q484.863 1323.25 483.648 1324.93 Q482.447 1326.59 482.447 1329.53 Q482.447 1332.47 483.648 1334.14 Q484.863 1335.81 486.975 1335.81 Q489.088 1335.81 490.288 1334.14 Q491.504 1332.47 491.504 1329.53 M482.447 1323.87 Q483.286 1322.43 484.559 1321.73 Q485.847 1321.02 487.626 1321.02 Q490.578 1321.02 492.415 1323.37 Q494.267 1325.71 494.267 1329.53 Q494.267 1333.35 492.415 1335.69 Q490.578 1338.04 487.626 1338.04 Q485.847 1338.04 484.559 1337.34 Q483.286 1336.63 482.447 1335.19 L482.447 1337.62 L479.771 1337.62 L479.771 1315.11 L482.447 1315.11 L482.447 1323.87 Z" fill="#000000" fill-rule="evenodd" fill-opacity="1" /><path clip-path="url(#clip250)" d="M 0 0 M503.338 1323.28 Q501.197 1323.28 499.953 1324.96 Q498.709 1326.62 498.709 1329.53 Q498.709 1332.44 499.938 1334.12 Q501.182 1335.78 503.338 1335.78 Q505.465 1335.78 506.709 1334.1 Q507.953 1332.42 507.953 1329.53 Q507.953 1326.65 506.709 1324.97 Q505.465 1323.28 503.338 1323.28 M503.338 1321.02 Q506.81 1321.02 508.792 1323.28 Q510.774 1325.54 510.774 1329.53 Q510.774 1333.51 508.792 1335.78 Q506.81 1338.04 503.338 1338.04 Q499.851 1338.04 497.869 1335.78 Q495.902 1333.51 495.902 1329.53 Q495.902 1325.54 497.869 1323.28 Q499.851 1321.02 503.338 1321.02 Z" fill="#000000" fill-rule="evenodd" fill-opacity="1" /><path clip-path="url(#clip250)" d="M 0 0 M522.956 1323.9 Q522.508 1323.64 521.972 1323.53 Q521.451 1323.4 520.815 1323.4 Q518.558 1323.4 517.343 1324.87 Q516.142 1326.33 516.142 1329.08 L516.142 1337.62 L513.465 1337.62 L513.465 1321.41 L516.142 1321.41 L516.142 1323.93 Q516.981 1322.45 518.327 1321.75 Q519.672 1321.02 521.596 1321.02 Q521.871 1321.02 522.204 1321.07 Q522.537 1321.09 522.942 1321.17 L522.956 1323.9 Z" fill="#000000" fill-rule="evenodd" fill-opacity="1" /><path clip-path="url(#clip250)" d="M 0 0 M533.112 1329.47 Q529.886 1329.47 528.642 1330.21 Q527.398 1330.95 527.398 1332.73 Q527.398 1334.14 528.324 1334.98 Q529.264 1335.81 530.87 1335.81 Q533.083 1335.81 534.414 1334.25 Q535.76 1332.67 535.76 1330.06 L535.76 1329.47 L533.112 1329.47 M538.422 1328.37 L538.422 1337.62 L535.76 1337.62 L535.76 1335.16 Q534.848 1336.63 533.488 1337.34 Q532.129 1338.04 530.161 1338.04 Q527.673 1338.04 526.197 1336.65 Q524.736 1335.24 524.736 1332.9 Q524.736 1330.17 526.559 1328.78 Q528.396 1327.39 532.027 1327.39 L535.76 1327.39 L535.76 1327.13 Q535.76 1325.29 534.545 1324.29 Q533.344 1323.28 531.159 1323.28 Q529.77 1323.28 528.454 1323.61 Q527.137 1323.94 525.922 1324.61 L525.922 1322.15 Q527.383 1321.59 528.758 1321.31 Q530.132 1321.02 531.434 1321.02 Q534.95 1321.02 536.686 1322.85 Q538.422 1324.67 538.422 1328.37 Z" fill="#000000" fill-rule="evenodd" fill-opacity="1" /><path clip-path="url(#clip250)" d="M 0 0 M543.847 1316.81 L543.847 1321.41 L549.33 1321.41 L549.33 1323.48 L543.847 1323.48 L543.847 1332.28 Q543.847 1334.26 544.382 1334.82 Q544.932 1335.39 546.596 1335.39 L549.33 1335.39 L549.33 1337.62 L546.596 1337.62 Q543.514 1337.62 542.343 1336.47 Q541.171 1335.32 541.171 1332.28 L541.171 1323.48 L539.218 1323.48 L539.218 1321.41 L541.171 1321.41 L541.171 1316.81 L543.847 1316.81 Z" fill="#000000" fill-rule="evenodd" fill-opacity="1" /><path clip-path="url(#clip250)" d="M 0 0 M552.123 1321.41 L554.785 1321.41 L554.785 1337.62 L552.123 1337.62 L552.123 1321.41 M552.123 1315.11 L554.785 1315.11 L554.785 1318.48 L552.123 1318.48 L552.123 1315.11 Z" fill="#000000" fill-rule="evenodd" fill-opacity="1" /><path clip-path="url(#clip250)" d="M 0 0 M563.856 1323.28 Q561.715 1323.28 560.47 1324.96 Q559.226 1326.62 559.226 1329.53 Q559.226 1332.44 560.456 1334.12 Q561.7 1335.78 563.856 1335.78 Q565.982 1335.78 567.227 1334.1 Q568.471 1332.42 568.471 1329.53 Q568.471 1326.65 567.227 1324.97 Q565.982 1323.28 563.856 1323.28 M563.856 1321.02 Q567.328 1321.02 569.31 1323.28 Q571.292 1325.54 571.292 1329.53 Q571.292 1333.51 569.31 1335.78 Q567.328 1338.04 563.856 1338.04 Q560.369 1338.04 558.387 1335.78 Q556.419 1333.51 556.419 1329.53 Q556.419 1325.54 558.387 1323.28 Q560.369 1321.02 563.856 1321.02 Z" fill="#000000" fill-rule="evenodd" fill-opacity="1" /><path clip-path="url(#clip250)" d="M 0 0 M587.554 1327.84 L587.554 1337.62 L584.892 1337.62 L584.892 1327.92 Q584.892 1325.62 583.995 1324.48 Q583.098 1323.34 581.304 1323.34 Q579.148 1323.34 577.904 1324.71 Q576.66 1326.09 576.66 1328.46 L576.66 1337.62 L573.983 1337.62 L573.983 1321.41 L576.66 1321.41 L576.66 1323.93 Q577.614 1322.47 578.902 1321.75 Q580.204 1321.02 581.897 1321.02 Q584.689 1321.02 586.121 1322.76 Q587.554 1324.48 587.554 1327.84 Z" fill="#000000" fill-rule="evenodd" fill-opacity="1" /><path clip-path="url(#clip252)" d="M990.588 962.741 L990.588 994.741 L1022.59 994.741 L1022.59 962.741 L990.588 962.741 Z" fill="#0000ff" fill-rule="evenodd" fill-opacity="1" stroke="none"/>
<polyline clip-path="url(#clip252)" style="stroke:#0000ff; stroke-width:4; stroke-opacity:1; fill:none" stroke-dasharray="16, 10" points="
  987.508,1002.79 1025.67,1002.79 
  "/>
<polyline clip-path="url(#clip252)" style="stroke:#0000ff; stroke-width:4; stroke-opacity:1; fill:none" stroke-dasharray="16, 10" points="
  987.508,954.694 1025.67,954.694 
  "/>
<polyline clip-path="url(#clip252)" style="stroke:#0000ff; stroke-width:4; stroke-opacity:1; fill:none" stroke-dasharray="16, 10" points="
  987.508,1002.79 987.508,954.694 
  "/>
<polyline clip-path="url(#clip252)" style="stroke:#0000ff; stroke-width:4; stroke-opacity:1; fill:none" stroke-dasharray="16, 10" points="
  1025.67,1002.79 1025.67,954.694 
  "/>
<path clip-path="url(#clip252)" d="M982.474 953.763 L982.474 985.763 L1014.47 985.763 L1014.47 953.763 L982.474 953.763 Z" fill="#800080" fill-rule="evenodd" fill-opacity="1" stroke="none"/>
<polyline clip-path="url(#clip252)" style="stroke:#800080; stroke-width:4; stroke-opacity:1; fill:none" stroke-dasharray="16, 10" points="
  979.522,986.141 1017.43,986.141 
  "/>
<polyline clip-path="url(#clip252)" style="stroke:#800080; stroke-width:4; stroke-opacity:1; fill:none" stroke-dasharray="16, 10" points="
  979.522,953.385 1017.43,953.385 
  "/>
<polyline clip-path="url(#clip252)" style="stroke:#800080; stroke-width:4; stroke-opacity:1; fill:none" stroke-dasharray="16, 10" points="
  979.522,986.141 979.522,953.385 
  "/>
<polyline clip-path="url(#clip252)" style="stroke:#800080; stroke-width:4; stroke-opacity:1; fill:none" stroke-dasharray="16, 10" points="
  1017.43,986.141 1017.43,953.385 
  "/>
<path clip-path="url(#clip252)" d="M1035.64 924.121 L1035.64 956.121 L1067.64 956.121 L1067.64 924.121 L1035.64 924.121 Z" fill="#008000" fill-rule="evenodd" fill-opacity="1" stroke="none"/>
<polyline clip-path="url(#clip252)" style="stroke:#008000; stroke-width:4; stroke-opacity:1; fill:none" stroke-dasharray="16, 10" points="
  1038.97,955.071 1064.3,955.071 
  "/>
<polyline clip-path="url(#clip252)" style="stroke:#008000; stroke-width:4; stroke-opacity:1; fill:none" stroke-dasharray="16, 10" points="
  1038.97,925.171 1064.3,925.171 
  "/>
<polyline clip-path="url(#clip252)" style="stroke:#008000; stroke-width:4; stroke-opacity:1; fill:none" stroke-dasharray="16, 10" points="
  1038.97,955.071 1038.97,925.171 
  "/>
<polyline clip-path="url(#clip252)" style="stroke:#008000; stroke-width:4; stroke-opacity:1; fill:none" stroke-dasharray="16, 10" points="
  1064.3,955.071 1064.3,925.171 
  "/>
<path clip-path="url(#clip252)" d="M1038.74 992.383 L1038.74 1024.38 L1070.74 1024.38 L1070.74 992.383 L1038.74 992.383 Z" fill="#ffa500" fill-rule="evenodd" fill-opacity="1" stroke="none"/>
<polyline clip-path="url(#clip252)" style="stroke:#ffa500; stroke-width:4; stroke-opacity:1; fill:none" stroke-dasharray="16, 10" points="
  1034.2,1029.15 1075.27,1029.15 
  "/>
<polyline clip-path="url(#clip252)" style="stroke:#ffa500; stroke-width:4; stroke-opacity:1; fill:none" stroke-dasharray="16, 10" points="
  1034.2,987.615 1075.27,987.615 
  "/>
<polyline clip-path="url(#clip252)" style="stroke:#ffa500; stroke-width:4; stroke-opacity:1; fill:none" stroke-dasharray="16, 10" points="
  1034.2,1029.15 1034.2,987.615 
  "/>
<polyline clip-path="url(#clip252)" style="stroke:#ffa500; stroke-width:4; stroke-opacity:1; fill:none" stroke-dasharray="16, 10" points="
  1075.27,1029.15 1075.27,987.615 
  "/>
</svg>
