<?xml version="1.0" encoding="utf-8"?>
<svg xmlns="http://www.w3.org/2000/svg" xmlns:xlink="http://www.w3.org/1999/xlink" width="600" height="400" viewBox="0 0 2400 1600">
<defs>
  <clipPath id="clip600">
    <rect x="0" y="0" width="2400" height="1600"/>
  </clipPath>
</defs>
<path clip-path="url(#clip600)" d="
M0 1600 L2400 1600 L2400 0 L0 0  Z
  " fill="#ffffff" fill-rule="evenodd" fill-opacity="1"/>
<defs>
  <clipPath id="clip601">
    <rect x="480" y="0" width="1681" height="1600"/>
  </clipPath>
</defs>
<path clip-path="url(#clip600)" d="
M86.9921 1521.01 L2352.76 1521.01 L2352.76 47.2441 L86.9921 47.2441  Z
  " fill="#ffffff" fill-rule="evenodd" fill-opacity="1"/>
<defs>
  <clipPath id="clip602">
    <rect x="86" y="47" width="2267" height="1475"/>
  </clipPath>
</defs>
<polyline clip-path="url(#clip602)" style="stroke:#000000; stroke-width:2; stroke-opacity:0.1; fill:none" points="
  1096.55,1521.01 1096.55,47.2441 
  "/>
<polyline clip-path="url(#clip602)" style="stroke:#000000; stroke-width:2; stroke-opacity:0.1; fill:none" points="
  86.9921,570.272 2352.76,570.272 
  "/>
<polyline clip-path="url(#clip600)" style="stroke:#000000; stroke-width:4; stroke-opacity:1; fill:none" points="
  86.9921,1521.01 2352.76,1521.01 
  "/>
<polyline clip-path="url(#clip600)" style="stroke:#000000; stroke-width:4; stroke-opacity:1; fill:none" points="
  86.9921,1521.01 86.9921,47.2441 
  "/>
<polyline clip-path="url(#clip600)" style="stroke:#000000; stroke-width:4; stroke-opacity:1; fill:none" points="
  1096.55,1521.01 1096.55,1503.32 
  "/>
<polyline clip-path="url(#clip600)" style="stroke:#000000; stroke-width:4; stroke-opacity:1; fill:none" points="
  86.9921,570.272 114.181,570.272 
  "/>
<path clip-path="url(#clip600)" d="M 0 0 M1096.55 1543 Q1092.94 1543 1091.11 1546.56 Q1089.31 1550.11 1089.31 1557.23 Q1089.31 1564.34 1091.11 1567.91 Q1092.94 1571.45 1096.55 1571.45 Q1100.19 1571.45 1101.99 1567.91 Q1103.82 1564.34 1103.82 1557.23 Q1103.82 1550.11 1101.99 1546.56 Q1100.19 1543 1096.55 1543 M1096.55 1539.29 Q1102.36 1539.29 1105.42 1543.9 Q1108.5 1548.48 1108.5 1557.23 Q1108.5 1565.96 1105.42 1570.57 Q1102.36 1575.15 1096.55 1575.15 Q1090.74 1575.15 1087.66 1570.57 Q1084.61 1565.96 1084.61 1557.23 Q1084.61 1548.48 1087.66 1543.9 Q1090.74 1539.29 1096.55 1539.29 Z" fill="#000000" fill-rule="evenodd" fill-opacity="1" /><path clip-path="url(#clip600)" d="M 0 0 M51.0477 556.07 Q47.4367 556.07 45.608 559.635 Q43.8024 563.177 43.8024 570.306 Q43.8024 577.413 45.608 580.978 Q47.4367 584.519 51.0477 584.519 Q54.682 584.519 56.4875 580.978 Q58.3162 577.413 58.3162 570.306 Q58.3162 563.177 56.4875 559.635 Q54.682 556.07 51.0477 556.07 M51.0477 552.367 Q56.8579 552.367 59.9134 556.973 Q62.9921 561.556 62.9921 570.306 Q62.9921 579.033 59.9134 583.64 Q56.8579 588.223 51.0477 588.223 Q45.2376 588.223 42.1589 583.64 Q39.1034 579.033 39.1034 570.306 Q39.1034 561.556 42.1589 556.973 Q45.2376 552.367 51.0477 552.367 Z" fill="#000000" fill-rule="evenodd" fill-opacity="1" /><circle clip-path="url(#clip602)" cx="1008.67" cy="533.886" r="14" fill="#808080" fill-rule="evenodd" fill-opacity="1" stroke="none"/>
<circle clip-path="url(#clip602)" cx="1107.2" cy="559.334" r="14" fill="#808080" fill-rule="evenodd" fill-opacity="1" stroke="none"/>
<circle clip-path="url(#clip602)" cx="1088.35" cy="575.463" r="14" fill="#808080" fill-rule="evenodd" fill-opacity="1" stroke="none"/>
<circle clip-path="url(#clip602)" cx="1094.08" cy="545.484" r="14" fill="#808080" fill-rule="evenodd" fill-opacity="1" stroke="none"/>
<circle clip-path="url(#clip602)" cx="1051.83" cy="600.255" r="14" fill="#808080" fill-rule="evenodd" fill-opacity="1" stroke="none"/>
<circle clip-path="url(#clip602)" cx="948.956" cy="857.374" r="14" fill="#808080" fill-rule="evenodd" fill-opacity="1" stroke="none"/>
<circle clip-path="url(#clip602)" cx="1092.93" cy="593.331" r="14" fill="#808080" fill-rule="evenodd" fill-opacity="1" stroke="none"/>
<circle clip-path="url(#clip602)" cx="1076.8" cy="554.206" r="14" fill="#808080" fill-rule="evenodd" fill-opacity="1" stroke="none"/>
<circle clip-path="url(#clip602)" cx="1024.55" cy="569.801" r="14" fill="#808080" fill-rule="evenodd" fill-opacity="1" stroke="none"/>
<circle clip-path="url(#clip602)" cx="1362.81" cy="712.423" r="14" fill="#808080" fill-rule="evenodd" fill-opacity="1" stroke="none"/>
<circle clip-path="url(#clip602)" cx="993.559" cy="526.813" r="14" fill="#808080" fill-rule="evenodd" fill-opacity="1" stroke="none"/>
<circle clip-path="url(#clip602)" cx="1150.13" cy="588.587" r="14" fill="#808080" fill-rule="evenodd" fill-opacity="1" stroke="none"/>
<circle clip-path="url(#clip602)" cx="1104.63" cy="545.75" r="14" fill="#808080" fill-rule="evenodd" fill-opacity="1" stroke="none"/>
<circle clip-path="url(#clip602)" cx="1021.89" cy="557.638" r="14" fill="#808080" fill-rule="evenodd" fill-opacity="1" stroke="none"/>
<circle clip-path="url(#clip602)" cx="989.071" cy="593.136" r="14" fill="#808080" fill-rule="evenodd" fill-opacity="1" stroke="none"/>
<circle clip-path="url(#clip602)" cx="964.202" cy="578.546" r="14" fill="#808080" fill-rule="evenodd" fill-opacity="1" stroke="none"/>
<circle clip-path="url(#clip602)" cx="1014.42" cy="565.025" r="14" fill="#808080" fill-rule="evenodd" fill-opacity="1" stroke="none"/>
<circle clip-path="url(#clip602)" cx="1125.01" cy="543.455" r="14" fill="#808080" fill-rule="evenodd" fill-opacity="1" stroke="none"/>
<circle clip-path="url(#clip602)" cx="894.133" cy="679.568" r="14" fill="#808080" fill-rule="evenodd" fill-opacity="1" stroke="none"/>
<circle clip-path="url(#clip602)" cx="1007.19" cy="485.724" r="14" fill="#808080" fill-rule="evenodd" fill-opacity="1" stroke="none"/>
<circle clip-path="url(#clip602)" cx="969.031" cy="489.109" r="14" fill="#808080" fill-rule="evenodd" fill-opacity="1" stroke="none"/>
<circle clip-path="url(#clip602)" cx="1027.7" cy="482.027" r="14" fill="#808080" fill-rule="evenodd" fill-opacity="1" stroke="none"/>
<circle clip-path="url(#clip602)" cx="1007.37" cy="522.771" r="14" fill="#808080" fill-rule="evenodd" fill-opacity="1" stroke="none"/>
<circle clip-path="url(#clip602)" cx="941.489" cy="507.194" r="14" fill="#808080" fill-rule="evenodd" fill-opacity="1" stroke="none"/>
<circle clip-path="url(#clip602)" cx="1095.44" cy="588.742" r="14" fill="#808080" fill-rule="evenodd" fill-opacity="1" stroke="none"/>
<circle clip-path="url(#clip602)" cx="1174.66" cy="552.953" r="14" fill="#808080" fill-rule="evenodd" fill-opacity="1" stroke="none"/>
<circle clip-path="url(#clip602)" cx="963.603" cy="673.151" r="14" fill="#808080" fill-rule="evenodd" fill-opacity="1" stroke="none"/>
<circle clip-path="url(#clip602)" cx="1031.68" cy="560.482" r="14" fill="#808080" fill-rule="evenodd" fill-opacity="1" stroke="none"/>
<circle clip-path="url(#clip602)" cx="1130.47" cy="544.895" r="14" fill="#808080" fill-rule="evenodd" fill-opacity="1" stroke="none"/>
<circle clip-path="url(#clip602)" cx="935.09" cy="528.175" r="14" fill="#808080" fill-rule="evenodd" fill-opacity="1" stroke="none"/>
<circle clip-path="url(#clip602)" cx="1139.79" cy="564.193" r="14" fill="#808080" fill-rule="evenodd" fill-opacity="1" stroke="none"/>
<circle clip-path="url(#clip602)" cx="1062.39" cy="533.308" r="14" fill="#808080" fill-rule="evenodd" fill-opacity="1" stroke="none"/>
<circle clip-path="url(#clip602)" cx="1269.68" cy="571.22" r="14" fill="#808080" fill-rule="evenodd" fill-opacity="1" stroke="none"/>
<circle clip-path="url(#clip602)" cx="1282.75" cy="589.642" r="14" fill="#808080" fill-rule="evenodd" fill-opacity="1" stroke="none"/>
<circle clip-path="url(#clip602)" cx="1178.72" cy="474.044" r="14" fill="#808080" fill-rule="evenodd" fill-opacity="1" stroke="none"/>
<circle clip-path="url(#clip602)" cx="1303.93" cy="535.348" r="14" fill="#808080" fill-rule="evenodd" fill-opacity="1" stroke="none"/>
<circle clip-path="url(#clip602)" cx="1259.1" cy="493.824" r="14" fill="#808080" fill-rule="evenodd" fill-opacity="1" stroke="none"/>
<circle clip-path="url(#clip602)" cx="1193.35" cy="438.468" r="14" fill="#808080" fill-rule="evenodd" fill-opacity="1" stroke="none"/>
<circle clip-path="url(#clip602)" cx="1297.74" cy="554.581" r="14" fill="#808080" fill-rule="evenodd" fill-opacity="1" stroke="none"/>
<circle clip-path="url(#clip602)" cx="1201.82" cy="452.328" r="14" fill="#808080" fill-rule="evenodd" fill-opacity="1" stroke="none"/>
<circle clip-path="url(#clip602)" cx="1121.84" cy="605.04" r="14" fill="#808080" fill-rule="evenodd" fill-opacity="1" stroke="none"/>
<circle clip-path="url(#clip602)" cx="1255.68" cy="577.186" r="14" fill="#808080" fill-rule="evenodd" fill-opacity="1" stroke="none"/>
<circle clip-path="url(#clip602)" cx="1305.85" cy="642.578" r="14" fill="#808080" fill-rule="evenodd" fill-opacity="1" stroke="none"/>
<circle clip-path="url(#clip602)" cx="1292.68" cy="704.925" r="14" fill="#808080" fill-rule="evenodd" fill-opacity="1" stroke="none"/>
<circle clip-path="url(#clip602)" cx="1116.25" cy="743.048" r="14" fill="#808080" fill-rule="evenodd" fill-opacity="1" stroke="none"/>
<circle clip-path="url(#clip602)" cx="1186.38" cy="579.896" r="14" fill="#808080" fill-rule="evenodd" fill-opacity="1" stroke="none"/>
<circle clip-path="url(#clip602)" cx="1178.17" cy="598.915" r="14" fill="#808080" fill-rule="evenodd" fill-opacity="1" stroke="none"/>
<circle clip-path="url(#clip602)" cx="1305.59" cy="587.943" r="14" fill="#808080" fill-rule="evenodd" fill-opacity="1" stroke="none"/>
<circle clip-path="url(#clip602)" cx="1218.91" cy="588.211" r="14" fill="#808080" fill-rule="evenodd" fill-opacity="1" stroke="none"/>
<circle clip-path="url(#clip602)" cx="1180.69" cy="609.86" r="14" fill="#808080" fill-rule="evenodd" fill-opacity="1" stroke="none"/>
<circle clip-path="url(#clip602)" cx="965.243" cy="594.58" r="14" fill="#808080" fill-rule="evenodd" fill-opacity="1" stroke="none"/>
<circle clip-path="url(#clip602)" cx="867.077" cy="600.617" r="14" fill="#808080" fill-rule="evenodd" fill-opacity="1" stroke="none"/>
<circle clip-path="url(#clip602)" cx="1120.41" cy="481.75" r="14" fill="#808080" fill-rule="evenodd" fill-opacity="1" stroke="none"/>
<circle clip-path="url(#clip602)" cx="915.468" cy="561.963" r="14" fill="#808080" fill-rule="evenodd" fill-opacity="1" stroke="none"/>
<circle clip-path="url(#clip602)" cx="1123.64" cy="437.891" r="14" fill="#808080" fill-rule="evenodd" fill-opacity="1" stroke="none"/>
<circle clip-path="url(#clip602)" cx="1057.49" cy="510.458" r="14" fill="#808080" fill-rule="evenodd" fill-opacity="1" stroke="none"/>
<circle clip-path="url(#clip602)" cx="1010.59" cy="495.8" r="14" fill="#808080" fill-rule="evenodd" fill-opacity="1" stroke="none"/>
<circle clip-path="url(#clip602)" cx="1062.43" cy="496.497" r="14" fill="#808080" fill-rule="evenodd" fill-opacity="1" stroke="none"/>
<circle clip-path="url(#clip602)" cx="987.411" cy="500.109" r="14" fill="#808080" fill-rule="evenodd" fill-opacity="1" stroke="none"/>
<circle clip-path="url(#clip602)" cx="1066.23" cy="527.489" r="14" fill="#808080" fill-rule="evenodd" fill-opacity="1" stroke="none"/>
<circle clip-path="url(#clip602)" cx="1070.85" cy="487.391" r="14" fill="#808080" fill-rule="evenodd" fill-opacity="1" stroke="none"/>
<circle clip-path="url(#clip602)" cx="1110.72" cy="489.395" r="14" fill="#808080" fill-rule="evenodd" fill-opacity="1" stroke="none"/>
<circle clip-path="url(#clip602)" cx="1056.43" cy="530.902" r="14" fill="#808080" fill-rule="evenodd" fill-opacity="1" stroke="none"/>
<circle clip-path="url(#clip602)" cx="1028.13" cy="491.026" r="14" fill="#808080" fill-rule="evenodd" fill-opacity="1" stroke="none"/>
<circle clip-path="url(#clip602)" cx="1040.49" cy="469.524" r="14" fill="#808080" fill-rule="evenodd" fill-opacity="1" stroke="none"/>
<circle clip-path="url(#clip602)" cx="971.345" cy="485.603" r="14" fill="#808080" fill-rule="evenodd" fill-opacity="1" stroke="none"/>
<circle clip-path="url(#clip602)" cx="944.626" cy="479.862" r="14" fill="#808080" fill-rule="evenodd" fill-opacity="1" stroke="none"/>
<circle clip-path="url(#clip602)" cx="966.365" cy="493.412" r="14" fill="#808080" fill-rule="evenodd" fill-opacity="1" stroke="none"/>
<circle clip-path="url(#clip602)" cx="1077.36" cy="470.669" r="14" fill="#808080" fill-rule="evenodd" fill-opacity="1" stroke="none"/>
<circle clip-path="url(#clip602)" cx="1042.69" cy="517.161" r="14" fill="#808080" fill-rule="evenodd" fill-opacity="1" stroke="none"/>
<circle clip-path="url(#clip602)" cx="1047.61" cy="484.022" r="14" fill="#808080" fill-rule="evenodd" fill-opacity="1" stroke="none"/>
<circle clip-path="url(#clip602)" cx="1207.29" cy="431.147" r="14" fill="#808080" fill-rule="evenodd" fill-opacity="1" stroke="none"/>
<circle clip-path="url(#clip602)" cx="1082.67" cy="432.676" r="14" fill="#808080" fill-rule="evenodd" fill-opacity="1" stroke="none"/>
<circle clip-path="url(#clip602)" cx="1068.79" cy="458.839" r="14" fill="#808080" fill-rule="evenodd" fill-opacity="1" stroke="none"/>
<circle clip-path="url(#clip602)" cx="1131.11" cy="484.128" r="14" fill="#808080" fill-rule="evenodd" fill-opacity="1" stroke="none"/>
<circle clip-path="url(#clip602)" cx="1025.1" cy="498.891" r="14" fill="#808080" fill-rule="evenodd" fill-opacity="1" stroke="none"/>
<circle clip-path="url(#clip602)" cx="1069.68" cy="521.632" r="14" fill="#808080" fill-rule="evenodd" fill-opacity="1" stroke="none"/>
<circle clip-path="url(#clip602)" cx="1060.05" cy="487.617" r="14" fill="#808080" fill-rule="evenodd" fill-opacity="1" stroke="none"/>
<circle clip-path="url(#clip602)" cx="1216.52" cy="494.496" r="14" fill="#808080" fill-rule="evenodd" fill-opacity="1" stroke="none"/>
<circle clip-path="url(#clip602)" cx="1215.9" cy="412.442" r="14" fill="#808080" fill-rule="evenodd" fill-opacity="1" stroke="none"/>
<circle clip-path="url(#clip602)" cx="1211.8" cy="480.231" r="14" fill="#808080" fill-rule="evenodd" fill-opacity="1" stroke="none"/>
<circle clip-path="url(#clip602)" cx="1219.79" cy="408.291" r="14" fill="#808080" fill-rule="evenodd" fill-opacity="1" stroke="none"/>
<circle clip-path="url(#clip602)" cx="1130.7" cy="442.666" r="14" fill="#808080" fill-rule="evenodd" fill-opacity="1" stroke="none"/>
<circle clip-path="url(#clip602)" cx="998.191" cy="474.632" r="14" fill="#808080" fill-rule="evenodd" fill-opacity="1" stroke="none"/>
<circle clip-path="url(#clip602)" cx="1151.58" cy="441.959" r="14" fill="#808080" fill-rule="evenodd" fill-opacity="1" stroke="none"/>
<circle clip-path="url(#clip602)" cx="1247.91" cy="525.775" r="14" fill="#808080" fill-rule="evenodd" fill-opacity="1" stroke="none"/>
<circle clip-path="url(#clip602)" cx="1363.23" cy="508.303" r="14" fill="#808080" fill-rule="evenodd" fill-opacity="1" stroke="none"/>
<circle clip-path="url(#clip602)" cx="1183" cy="541.878" r="14" fill="#808080" fill-rule="evenodd" fill-opacity="1" stroke="none"/>
<circle clip-path="url(#clip602)" cx="1343.83" cy="484.239" r="14" fill="#808080" fill-rule="evenodd" fill-opacity="1" stroke="none"/>
<circle clip-path="url(#clip602)" cx="1295.77" cy="443.771" r="14" fill="#808080" fill-rule="evenodd" fill-opacity="1" stroke="none"/>
<circle clip-path="url(#clip602)" cx="1112.33" cy="604.011" r="14" fill="#808080" fill-rule="evenodd" fill-opacity="1" stroke="none"/>
<circle clip-path="url(#clip602)" cx="1035.95" cy="620.055" r="14" fill="#808080" fill-rule="evenodd" fill-opacity="1" stroke="none"/>
<circle clip-path="url(#clip602)" cx="1161.18" cy="674.557" r="14" fill="#808080" fill-rule="evenodd" fill-opacity="1" stroke="none"/>
<circle clip-path="url(#clip602)" cx="1111.88" cy="623.509" r="14" fill="#808080" fill-rule="evenodd" fill-opacity="1" stroke="none"/>
<circle clip-path="url(#clip602)" cx="1017.32" cy="561.699" r="14" fill="#800080" fill-rule="evenodd" fill-opacity="1" stroke="none"/>
<circle clip-path="url(#clip602)" cx="1078.74" cy="596.53" r="14" fill="#800080" fill-rule="evenodd" fill-opacity="1" stroke="none"/>
<circle clip-path="url(#clip602)" cx="1068.45" cy="600.47" r="14" fill="#800080" fill-rule="evenodd" fill-opacity="1" stroke="none"/>
<circle clip-path="url(#clip602)" cx="1079.61" cy="581.622" r="14" fill="#800080" fill-rule="evenodd" fill-opacity="1" stroke="none"/>
<circle clip-path="url(#clip602)" cx="1007.38" cy="634.807" r="14" fill="#800080" fill-rule="evenodd" fill-opacity="1" stroke="none"/>
<circle clip-path="url(#clip602)" cx="1017.17" cy="836.974" r="14" fill="#800080" fill-rule="evenodd" fill-opacity="1" stroke="none"/>
<circle clip-path="url(#clip602)" cx="1079.55" cy="635.005" r="14" fill="#800080" fill-rule="evenodd" fill-opacity="1" stroke="none"/>
<circle clip-path="url(#clip602)" cx="1069.71" cy="568.266" r="14" fill="#800080" fill-rule="evenodd" fill-opacity="1" stroke="none"/>
<circle clip-path="url(#clip602)" cx="1037.58" cy="603.82" r="14" fill="#800080" fill-rule="evenodd" fill-opacity="1" stroke="none"/>
<circle clip-path="url(#clip602)" cx="1668.25" cy="745.393" r="14" fill="#800080" fill-rule="evenodd" fill-opacity="1" stroke="none"/>
<circle clip-path="url(#clip602)" cx="1038.96" cy="551.495" r="14" fill="#800080" fill-rule="evenodd" fill-opacity="1" stroke="none"/>
<circle clip-path="url(#clip602)" cx="1099.53" cy="629.465" r="14" fill="#800080" fill-rule="evenodd" fill-opacity="1" stroke="none"/>
<circle clip-path="url(#clip602)" cx="1084.48" cy="583.736" r="14" fill="#800080" fill-rule="evenodd" fill-opacity="1" stroke="none"/>
<circle clip-path="url(#clip602)" cx="1028.32" cy="577.611" r="14" fill="#800080" fill-rule="evenodd" fill-opacity="1" stroke="none"/>
<circle clip-path="url(#clip602)" cx="1003.84" cy="625.055" r="14" fill="#800080" fill-rule="evenodd" fill-opacity="1" stroke="none"/>
<circle clip-path="url(#clip602)" cx="958.043" cy="589.373" r="14" fill="#800080" fill-rule="evenodd" fill-opacity="1" stroke="none"/>
<circle clip-path="url(#clip602)" cx="1023.24" cy="583.947" r="14" fill="#800080" fill-rule="evenodd" fill-opacity="1" stroke="none"/>
<circle clip-path="url(#clip602)" cx="1110.72" cy="592.848" r="14" fill="#800080" fill-rule="evenodd" fill-opacity="1" stroke="none"/>
<circle clip-path="url(#clip602)" cx="879.096" cy="675.779" r="14" fill="#800080" fill-rule="evenodd" fill-opacity="1" stroke="none"/>
<circle clip-path="url(#clip602)" cx="1020.63" cy="524.215" r="14" fill="#800080" fill-rule="evenodd" fill-opacity="1" stroke="none"/>
<circle clip-path="url(#clip602)" cx="983.547" cy="494.638" r="14" fill="#800080" fill-rule="evenodd" fill-opacity="1" stroke="none"/>
<circle clip-path="url(#clip602)" cx="1028.35" cy="533.059" r="14" fill="#800080" fill-rule="evenodd" fill-opacity="1" stroke="none"/>
<circle clip-path="url(#clip602)" cx="984.326" cy="568.54" r="14" fill="#800080" fill-rule="evenodd" fill-opacity="1" stroke="none"/>
<circle clip-path="url(#clip602)" cx="1006.38" cy="525.49" r="14" fill="#800080" fill-rule="evenodd" fill-opacity="1" stroke="none"/>
<circle clip-path="url(#clip602)" cx="1082.11" cy="626.074" r="14" fill="#ffa500" fill-rule="evenodd" fill-opacity="1" stroke="none"/>
<circle clip-path="url(#clip602)" cx="1150.07" cy="599.224" r="14" fill="#ffa500" fill-rule="evenodd" fill-opacity="1" stroke="none"/>
<circle clip-path="url(#clip602)" cx="1004.55" cy="663.243" r="14" fill="#ffa500" fill-rule="evenodd" fill-opacity="1" stroke="none"/>
<circle clip-path="url(#clip602)" cx="1032.96" cy="597.259" r="14" fill="#ffa500" fill-rule="evenodd" fill-opacity="1" stroke="none"/>
<circle clip-path="url(#clip602)" cx="1114.82" cy="595.254" r="14" fill="#ffa500" fill-rule="evenodd" fill-opacity="1" stroke="none"/>
<circle clip-path="url(#clip602)" cx="981.041" cy="543.65" r="14" fill="#ffa500" fill-rule="evenodd" fill-opacity="1" stroke="none"/>
<circle clip-path="url(#clip602)" cx="1121.56" cy="596.637" r="14" fill="#ffa500" fill-rule="evenodd" fill-opacity="1" stroke="none"/>
<circle clip-path="url(#clip602)" cx="1098.23" cy="552.672" r="14" fill="#ffa500" fill-rule="evenodd" fill-opacity="1" stroke="none"/>
<circle clip-path="url(#clip602)" cx="1219.66" cy="616.913" r="14" fill="#ffa500" fill-rule="evenodd" fill-opacity="1" stroke="none"/>
<circle clip-path="url(#clip602)" cx="1243.24" cy="636.198" r="14" fill="#ffa500" fill-rule="evenodd" fill-opacity="1" stroke="none"/>
<circle clip-path="url(#clip602)" cx="1142.31" cy="503.354" r="14" fill="#ffa500" fill-rule="evenodd" fill-opacity="1" stroke="none"/>
<circle clip-path="url(#clip602)" cx="1203.58" cy="591.394" r="14" fill="#ffa500" fill-rule="evenodd" fill-opacity="1" stroke="none"/>
<circle clip-path="url(#clip602)" cx="1185.28" cy="548.814" r="14" fill="#ffa500" fill-rule="evenodd" fill-opacity="1" stroke="none"/>
<circle clip-path="url(#clip602)" cx="1154.74" cy="485.391" r="14" fill="#ffa500" fill-rule="evenodd" fill-opacity="1" stroke="none"/>
<circle clip-path="url(#clip602)" cx="1213.56" cy="606.794" r="14" fill="#ffa500" fill-rule="evenodd" fill-opacity="1" stroke="none"/>
<circle clip-path="url(#clip602)" cx="1144.38" cy="498.055" r="14" fill="#ffa500" fill-rule="evenodd" fill-opacity="1" stroke="none"/>
<circle clip-path="url(#clip602)" cx="1080.48" cy="638.154" r="14" fill="#ffa500" fill-rule="evenodd" fill-opacity="1" stroke="none"/>
<circle clip-path="url(#clip602)" cx="1169.64" cy="629.438" r="14" fill="#ffa500" fill-rule="evenodd" fill-opacity="1" stroke="none"/>
<circle clip-path="url(#clip602)" cx="1199.62" cy="683.688" r="14" fill="#ffa500" fill-rule="evenodd" fill-opacity="1" stroke="none"/>
<circle clip-path="url(#clip602)" cx="1216.08" cy="727.336" r="14" fill="#ffa500" fill-rule="evenodd" fill-opacity="1" stroke="none"/>
<circle clip-path="url(#clip602)" cx="1112.65" cy="760.767" r="14" fill="#ffa500" fill-rule="evenodd" fill-opacity="1" stroke="none"/>
<circle clip-path="url(#clip602)" cx="1117.88" cy="625.052" r="14" fill="#ffa500" fill-rule="evenodd" fill-opacity="1" stroke="none"/>
<circle clip-path="url(#clip602)" cx="1130.55" cy="636.833" r="14" fill="#ffa500" fill-rule="evenodd" fill-opacity="1" stroke="none"/>
<circle clip-path="url(#clip602)" cx="1207.61" cy="633.314" r="14" fill="#ffa500" fill-rule="evenodd" fill-opacity="1" stroke="none"/>
<circle clip-path="url(#clip602)" cx="1236.87" cy="613.338" r="14" fill="#ffa500" fill-rule="evenodd" fill-opacity="1" stroke="none"/>
<circle clip-path="url(#clip602)" cx="1115.33" cy="655.023" r="14" fill="#ffa500" fill-rule="evenodd" fill-opacity="1" stroke="none"/>
<circle clip-path="url(#clip602)" cx="1034.37" cy="592.59" r="14" fill="#800080" fill-rule="evenodd" fill-opacity="1" stroke="none"/>
<circle clip-path="url(#clip602)" cx="925.24" cy="612.152" r="14" fill="#800080" fill-rule="evenodd" fill-opacity="1" stroke="none"/>
<circle clip-path="url(#clip602)" cx="1083.65" cy="537.385" r="14" fill="#800080" fill-rule="evenodd" fill-opacity="1" stroke="none"/>
<circle clip-path="url(#clip602)" cx="969.559" cy="584.143" r="14" fill="#800080" fill-rule="evenodd" fill-opacity="1" stroke="none"/>
<circle clip-path="url(#clip602)" cx="1122.18" cy="474.594" r="14" fill="#800080" fill-rule="evenodd" fill-opacity="1" stroke="none"/>
<circle clip-path="url(#clip602)" cx="1098.37" cy="528.034" r="14" fill="#800080" fill-rule="evenodd" fill-opacity="1" stroke="none"/>
<circle clip-path="url(#clip602)" cx="1040.2" cy="520.762" r="14" fill="#800080" fill-rule="evenodd" fill-opacity="1" stroke="none"/>
<circle clip-path="url(#clip602)" cx="1068.02" cy="529.616" r="14" fill="#800080" fill-rule="evenodd" fill-opacity="1" stroke="none"/>
<circle clip-path="url(#clip602)" cx="1043.86" cy="510.083" r="14" fill="#800080" fill-rule="evenodd" fill-opacity="1" stroke="none"/>
<circle clip-path="url(#clip602)" cx="1077.1" cy="561.469" r="14" fill="#800080" fill-rule="evenodd" fill-opacity="1" stroke="none"/>
<circle clip-path="url(#clip602)" cx="1078.15" cy="517.452" r="14" fill="#800080" fill-rule="evenodd" fill-opacity="1" stroke="none"/>
<circle clip-path="url(#clip602)" cx="1113.99" cy="517.762" r="14" fill="#800080" fill-rule="evenodd" fill-opacity="1" stroke="none"/>
<circle clip-path="url(#clip602)" cx="1108.75" cy="540.138" r="14" fill="#800080" fill-rule="evenodd" fill-opacity="1" stroke="none"/>
<circle clip-path="url(#clip602)" cx="1062.27" cy="511.203" r="14" fill="#800080" fill-rule="evenodd" fill-opacity="1" stroke="none"/>
<circle clip-path="url(#clip602)" cx="1044.22" cy="481.864" r="14" fill="#800080" fill-rule="evenodd" fill-opacity="1" stroke="none"/>
<circle clip-path="url(#clip602)" cx="1004.27" cy="491.741" r="14" fill="#800080" fill-rule="evenodd" fill-opacity="1" stroke="none"/>
<circle clip-path="url(#clip602)" cx="967.953" cy="502.345" r="14" fill="#800080" fill-rule="evenodd" fill-opacity="1" stroke="none"/>
<circle clip-path="url(#clip602)" cx="981.675" cy="516.711" r="14" fill="#800080" fill-rule="evenodd" fill-opacity="1" stroke="none"/>
<circle clip-path="url(#clip602)" cx="1092.88" cy="503.075" r="14" fill="#800080" fill-rule="evenodd" fill-opacity="1" stroke="none"/>
<circle clip-path="url(#clip602)" cx="1080.05" cy="546.892" r="14" fill="#800080" fill-rule="evenodd" fill-opacity="1" stroke="none"/>
<circle clip-path="url(#clip602)" cx="1069.74" cy="518.331" r="14" fill="#800080" fill-rule="evenodd" fill-opacity="1" stroke="none"/>
<circle clip-path="url(#clip602)" cx="1188.15" cy="460.638" r="14" fill="#800080" fill-rule="evenodd" fill-opacity="1" stroke="none"/>
<circle clip-path="url(#clip602)" cx="1068.71" cy="462.121" r="14" fill="#ffa500" fill-rule="evenodd" fill-opacity="1" stroke="none"/>
<circle clip-path="url(#clip602)" cx="1058.5" cy="489.945" r="14" fill="#ffa500" fill-rule="evenodd" fill-opacity="1" stroke="none"/>
<circle clip-path="url(#clip602)" cx="1115.85" cy="519.471" r="14" fill="#ffa500" fill-rule="evenodd" fill-opacity="1" stroke="none"/>
<circle clip-path="url(#clip602)" cx="1027" cy="519.905" r="14" fill="#ffa500" fill-rule="evenodd" fill-opacity="1" stroke="none"/>
<circle clip-path="url(#clip602)" cx="1079.13" cy="549.878" r="14" fill="#ffa500" fill-rule="evenodd" fill-opacity="1" stroke="none"/>
<circle clip-path="url(#clip602)" cx="1083.33" cy="519.173" r="14" fill="#ffa500" fill-rule="evenodd" fill-opacity="1" stroke="none"/>
<circle clip-path="url(#clip602)" cx="1174.09" cy="542.603" r="14" fill="#ffa500" fill-rule="evenodd" fill-opacity="1" stroke="none"/>
<circle clip-path="url(#clip602)" cx="1183.56" cy="429.907" r="14" fill="#ffa500" fill-rule="evenodd" fill-opacity="1" stroke="none"/>
<circle clip-path="url(#clip602)" cx="1175.11" cy="523.828" r="14" fill="#ffa500" fill-rule="evenodd" fill-opacity="1" stroke="none"/>
<circle clip-path="url(#clip602)" cx="1181.46" cy="400.648" r="14" fill="#ffa500" fill-rule="evenodd" fill-opacity="1" stroke="none"/>
<circle clip-path="url(#clip602)" cx="1122.26" cy="474.406" r="14" fill="#ffa500" fill-rule="evenodd" fill-opacity="1" stroke="none"/>
<circle clip-path="url(#clip602)" cx="1067.96" cy="487.472" r="14" fill="#ffa500" fill-rule="evenodd" fill-opacity="1" stroke="none"/>
<circle clip-path="url(#clip602)" cx="1153.99" cy="476.508" r="14" fill="#ffa500" fill-rule="evenodd" fill-opacity="1" stroke="none"/>
<circle clip-path="url(#clip602)" cx="1145.07" cy="569.171" r="14" fill="#ffa500" fill-rule="evenodd" fill-opacity="1" stroke="none"/>
<circle clip-path="url(#clip602)" cx="1252.48" cy="554.306" r="14" fill="#ffa500" fill-rule="evenodd" fill-opacity="1" stroke="none"/>
<circle clip-path="url(#clip602)" cx="1093.41" cy="588.943" r="14" fill="#ffa500" fill-rule="evenodd" fill-opacity="1" stroke="none"/>
<circle clip-path="url(#clip602)" cx="1269.18" cy="519.06" r="14" fill="#ffa500" fill-rule="evenodd" fill-opacity="1" stroke="none"/>
<circle clip-path="url(#clip602)" cx="1256.44" cy="475.585" r="14" fill="#ffa500" fill-rule="evenodd" fill-opacity="1" stroke="none"/>
<circle clip-path="url(#clip602)" cx="1060.66" cy="649.704" r="14" fill="#ffa500" fill-rule="evenodd" fill-opacity="1" stroke="none"/>
<circle clip-path="url(#clip602)" cx="1011.93" cy="666.071" r="14" fill="#ffa500" fill-rule="evenodd" fill-opacity="1" stroke="none"/>
<circle clip-path="url(#clip602)" cx="1103.29" cy="689.662" r="14" fill="#ffa500" fill-rule="evenodd" fill-opacity="1" stroke="none"/>
<circle clip-path="url(#clip602)" cx="1085.85" cy="654.478" r="14" fill="#ffa500" fill-rule="evenodd" fill-opacity="1" stroke="none"/>
<polyline clip-path="url(#clip602)" style="stroke:#ffa500; stroke-width:4.88758; stroke-opacity:1; fill:none" points="
  1011.24,1021.2 2288.63,88.9544 
  "/>
<polyline clip-path="url(#clip602)" style="stroke:#800080; stroke-width:0.831794; stroke-opacity:1; fill:none" points="
  500.597,730.995 1284.05,667.927 
  "/>
<polyline clip-path="url(#clip602)" style="stroke:#ffa500; stroke-width:0.299089; stroke-opacity:1; fill:none" points="
  500.597,730.995 1432.07,1479.3 
  "/>
<polyline clip-path="url(#clip602)" style="stroke:#ffa500; stroke-width:0.843251; stroke-opacity:1; fill:none" points="
  151.118,161.658 1432.07,1479.3 
  "/>
<polyline clip-path="url(#clip602)" style="stroke:#ffa500; stroke-width:4.5444; stroke-opacity:1; fill:none" points="
  1284.05,667.927 2288.63,88.9544 
  "/>
<polyline clip-path="url(#clip602)" style="stroke:#ffa500; stroke-width:2.01037; stroke-opacity:1; fill:none" points="
  1284.05,667.927 1432.07,1479.3 
  "/>
<polyline clip-path="url(#clip602)" style="stroke:#800080; stroke-width:0.820338; stroke-opacity:1; fill:none" points="
  151.118,161.658 1284.05,667.927 
  "/>
<polyline clip-path="url(#clip602)" style="stroke:#800080; stroke-width:2.29381; stroke-opacity:1; fill:none" points="
  151.118,161.658 500.597,730.995 
  "/>
<polyline clip-path="url(#clip602)" style="stroke:#ffa500; stroke-width:4.41533; stroke-opacity:1; fill:none" points="
  1011.24,1021.2 1432.07,1479.3 
  "/>
<polyline clip-path="url(#clip602)" style="stroke:#800080; stroke-width:1.44165; stroke-opacity:1; fill:none" points="
  500.597,730.995 2288.63,88.9544 
  "/>
<polyline clip-path="url(#clip602)" style="stroke:#ffa500; stroke-width:2.26375; stroke-opacity:1; fill:none" points="
  151.118,161.658 2288.63,88.9544 
  "/>
<polyline clip-path="url(#clip602)" style="stroke:#ffa500; stroke-width:1.50008; stroke-opacity:1; fill:none" points="
  1011.24,1021.2 1284.05,667.927 
  "/>
<polyline clip-path="url(#clip602)" style="stroke:#800080; stroke-width:1.53172; stroke-opacity:1; fill:none" points="
  500.597,730.995 1011.24,1021.2 
  "/>
<polyline clip-path="url(#clip602)" style="stroke:#ffa500; stroke-width:3.57132; stroke-opacity:1; fill:none" points="
  1432.07,1479.3 2288.63,88.9544 
  "/>
<polyline clip-path="url(#clip602)" style="stroke:#800080; stroke-width:8; stroke-opacity:1; fill:none" points="
  151.118,161.658 1011.24,1021.2 
  "/>
<circle clip-path="url(#clip602)" cx="1284.05" cy="667.927" r="23" fill="#000000" fill-rule="evenodd" fill-opacity="1" stroke="none"/>
<circle clip-path="url(#clip602)" cx="1011.24" cy="1021.2" r="26" fill="#000000" fill-rule="evenodd" fill-opacity="1" stroke="none"/>
<circle clip-path="url(#clip602)" cx="2288.63" cy="88.9544" r="23" fill="#000000" fill-rule="evenodd" fill-opacity="1" stroke="none"/>
<circle clip-path="url(#clip602)" cx="500.597" cy="730.995" r="8" fill="#000000" fill-rule="evenodd" fill-opacity="1" stroke="none"/>
<circle clip-path="url(#clip602)" cx="151.118" cy="161.658" r="28" fill="#000000" fill-rule="evenodd" fill-opacity="1" stroke="none"/>
<circle clip-path="url(#clip602)" cx="1432.07" cy="1479.3" r="8" fill="#000000" fill-rule="evenodd" fill-opacity="1" stroke="none"/>
<path clip-path="url(#clip600)" d="M 0 0 M1208.24 644.411 L1208.24 691.442 L1218.12 691.442 Q1230.64 691.442 1236.43 685.771 Q1242.27 680.1 1242.27 667.866 Q1242.27 655.713 1236.43 650.083 Q1230.64 644.411 1218.12 644.411 L1208.24 644.411 M1200.06 637.687 L1216.87 637.687 Q1234.45 637.687 1242.67 645.019 Q1250.9 652.311 1250.9 667.866 Q1250.9 683.503 1242.63 690.835 Q1234.37 698.167 1216.87 698.167 L1200.06 698.167 L1200.06 637.687 Z" fill="#000000" fill-rule="evenodd" fill-opacity="1" /><path clip-path="url(#clip600)" d="M 0 0 M1279.33 675.36 Q1270.3 675.36 1266.82 677.426 Q1263.33 679.492 1263.33 684.475 Q1263.33 688.445 1265.93 690.794 Q1268.56 693.103 1273.06 693.103 Q1279.25 693.103 1282.98 688.728 Q1286.75 684.313 1286.75 677.021 L1286.75 675.36 L1279.33 675.36 M1294.2 672.282 L1294.2 698.167 L1286.75 698.167 L1286.75 691.28 Q1284.2 695.412 1280.39 697.397 Q1276.58 699.342 1271.07 699.342 Q1264.1 699.342 1259.97 695.453 Q1255.88 691.523 1255.88 684.961 Q1255.88 677.305 1260.98 673.416 Q1266.13 669.527 1276.3 669.527 L1286.75 669.527 L1286.75 668.798 Q1286.75 663.653 1283.34 660.858 Q1279.98 658.022 1273.87 658.022 Q1269.98 658.022 1266.29 658.954 Q1262.6 659.886 1259.2 661.749 L1259.2 654.863 Q1263.29 653.283 1267.14 652.513 Q1270.99 651.703 1274.63 651.703 Q1284.48 651.703 1289.34 656.807 Q1294.2 661.911 1294.2 672.282 Z" fill="#000000" fill-rule="evenodd" fill-opacity="1" /><path clip-path="url(#clip600)" d="M 0 0 M1309.39 639.915 L1309.39 652.797 L1324.74 652.797 L1324.74 658.59 L1309.39 658.59 L1309.39 683.219 Q1309.39 688.769 1310.89 690.349 Q1312.43 691.928 1317.09 691.928 L1324.74 691.928 L1324.74 698.167 L1317.09 698.167 Q1308.46 698.167 1305.18 694.967 Q1301.9 691.726 1301.9 683.219 L1301.9 658.59 L1296.43 658.59 L1296.43 652.797 L1301.9 652.797 L1301.9 639.915 L1309.39 639.915 Z" fill="#000000" fill-rule="evenodd" fill-opacity="1" /><path clip-path="url(#clip600)" d="M 0 0 M1353.18 675.36 Q1344.15 675.36 1340.66 677.426 Q1337.18 679.492 1337.18 684.475 Q1337.18 688.445 1339.77 690.794 Q1342.41 693.103 1346.9 693.103 Q1353.1 693.103 1356.83 688.728 Q1360.6 684.313 1360.6 677.021 L1360.6 675.36 L1353.18 675.36 M1368.05 672.282 L1368.05 698.167 L1360.6 698.167 L1360.6 691.28 Q1358.04 695.412 1354.24 697.397 Q1350.43 699.342 1344.92 699.342 Q1337.95 699.342 1333.82 695.453 Q1329.73 691.523 1329.73 684.961 Q1329.73 677.305 1334.83 673.416 Q1339.98 669.527 1350.14 669.527 L1360.6 669.527 L1360.6 668.798 Q1360.6 663.653 1357.19 660.858 Q1353.83 658.022 1347.71 658.022 Q1343.82 658.022 1340.14 658.954 Q1336.45 659.886 1333.05 661.749 L1333.05 654.863 Q1337.14 653.283 1340.99 652.513 Q1344.84 651.703 1348.48 651.703 Q1358.33 651.703 1363.19 656.807 Q1368.05 661.911 1368.05 672.282 Z" fill="#000000" fill-rule="evenodd" fill-opacity="1" /><path clip-path="url(#clip600)" d="M 0 0 M613.905 990.963 L665.068 990.963 L665.068 997.849 L643.598 997.849 L643.598 1051.44 L635.375 1051.44 L635.375 997.849 L613.905 997.849 L613.905 990.963 Z" fill="#000000" fill-rule="evenodd" fill-opacity="1" /><path clip-path="url(#clip600)" d="M 0 0 M697.596 1026.89 L697.596 1030.54 L663.326 1030.54 Q663.812 1038.24 667.944 1042.29 Q672.116 1046.3 679.529 1046.3 Q683.823 1046.3 687.834 1045.24 Q691.885 1044.19 695.855 1042.09 L695.855 1049.13 Q691.844 1050.84 687.631 1051.73 Q683.418 1052.62 679.084 1052.62 Q668.227 1052.62 661.868 1046.3 Q655.548 1039.98 655.548 1029.2 Q655.548 1018.06 661.543 1011.54 Q667.579 1004.98 677.788 1004.98 Q686.943 1004.98 692.249 1010.89 Q697.596 1016.77 697.596 1026.89 M690.143 1024.71 Q690.062 1018.59 686.7 1014.94 Q683.378 1011.3 677.869 1011.3 Q671.63 1011.3 667.863 1014.82 Q664.136 1018.35 663.569 1024.75 L690.143 1024.71 Z" fill="#000000" fill-rule="evenodd" fill-opacity="1" /><path clip-path="url(#clip600)" d="M 0 0 M738.065 1007.81 L738.065 1014.78 Q734.905 1013.04 731.705 1012.19 Q728.545 1011.3 725.305 1011.3 Q718.054 1011.3 714.043 1015.92 Q710.033 1020.49 710.033 1028.8 Q710.033 1037.1 714.043 1041.72 Q718.054 1046.3 725.305 1046.3 Q728.545 1046.3 731.705 1045.45 Q734.905 1044.56 738.065 1042.81 L738.065 1049.7 Q734.946 1051.16 731.584 1051.89 Q728.262 1052.62 724.494 1052.62 Q714.246 1052.62 708.21 1046.18 Q702.174 1039.74 702.174 1028.8 Q702.174 1017.7 708.25 1011.34 Q714.367 1004.98 724.981 1004.98 Q728.424 1004.98 731.705 1005.71 Q734.986 1006.4 738.065 1007.81 Z" fill="#000000" fill-rule="evenodd" fill-opacity="1" /><path clip-path="url(#clip600)" d="M 0 0 M783.597 1024.06 L783.597 1051.44 L776.144 1051.44 L776.144 1024.3 Q776.144 1017.86 773.632 1014.66 Q771.12 1011.46 766.097 1011.46 Q760.061 1011.46 756.578 1015.31 Q753.094 1019.16 753.094 1025.8 L753.094 1051.44 L745.6 1051.44 L745.6 988.411 L753.094 988.411 L753.094 1013.12 Q755.767 1009.03 759.373 1007 Q763.019 1004.98 767.758 1004.98 Q775.576 1004.98 779.587 1009.84 Q783.597 1014.66 783.597 1024.06 Z" fill="#000000" fill-rule="evenodd" fill-opacity="1" /><path clip-path="url(#clip600)" d="M 0 0 M829.129 1024.06 L829.129 1051.44 L821.676 1051.44 L821.676 1024.3 Q821.676 1017.86 819.164 1014.66 Q816.653 1011.46 811.629 1011.46 Q805.594 1011.46 802.11 1015.31 Q798.626 1019.16 798.626 1025.8 L798.626 1051.44 L791.132 1051.44 L791.132 1006.07 L798.626 1006.07 L798.626 1013.12 Q801.3 1009.03 804.905 1007 Q808.551 1004.98 813.29 1004.98 Q821.109 1004.98 825.119 1009.84 Q829.129 1014.66 829.129 1024.06 Z" fill="#000000" fill-rule="evenodd" fill-opacity="1" /><path clip-path="url(#clip600)" d="M 0 0 M836.948 1006.07 L844.401 1006.07 L844.401 1051.44 L836.948 1051.44 L836.948 1006.07 M836.948 988.411 L844.401 988.411 L844.401 997.849 L836.948 997.849 L836.948 988.411 Z" fill="#000000" fill-rule="evenodd" fill-opacity="1" /><path clip-path="url(#clip600)" d="M 0 0 M884.87 1007.81 L884.87 1014.78 Q881.71 1013.04 878.51 1012.19 Q875.35 1011.3 872.109 1011.3 Q864.858 1011.3 860.848 1015.92 Q856.838 1020.49 856.838 1028.8 Q856.838 1037.1 860.848 1041.72 Q864.858 1046.3 872.109 1046.3 Q875.35 1046.3 878.51 1045.45 Q881.71 1044.56 884.87 1042.81 L884.87 1049.7 Q881.751 1051.16 878.388 1051.89 Q875.067 1052.62 871.299 1052.62 Q861.05 1052.62 855.015 1046.18 Q848.979 1039.74 848.979 1028.8 Q848.979 1017.7 855.055 1011.34 Q861.172 1004.98 871.785 1004.98 Q875.229 1004.98 878.51 1005.71 Q881.791 1006.4 884.87 1007.81 Z" fill="#000000" fill-rule="evenodd" fill-opacity="1" /><path clip-path="url(#clip600)" d="M 0 0 M913.307 1028.64 Q904.274 1028.64 900.79 1030.7 Q897.306 1032.77 897.306 1037.75 Q897.306 1041.72 899.899 1044.07 Q902.532 1046.38 907.028 1046.38 Q913.226 1046.38 916.953 1042 Q920.72 1037.59 920.72 1030.3 L920.72 1028.64 L913.307 1028.64 M928.174 1025.56 L928.174 1051.44 L920.72 1051.44 L920.72 1044.56 Q918.168 1048.69 914.36 1050.67 Q910.553 1052.62 905.043 1052.62 Q898.076 1052.62 893.944 1048.73 Q889.852 1044.8 889.852 1038.24 Q889.852 1030.58 894.957 1026.69 Q900.101 1022.8 910.269 1022.8 L920.72 1022.8 L920.72 1022.07 Q920.72 1016.93 917.318 1014.13 Q913.955 1011.3 907.838 1011.3 Q903.95 1011.3 900.263 1012.23 Q896.577 1013.16 893.174 1015.03 L893.174 1008.14 Q897.266 1006.56 901.114 1005.79 Q904.962 1004.98 908.608 1004.98 Q918.452 1004.98 923.313 1010.08 Q928.174 1015.19 928.174 1025.56 Z" fill="#000000" fill-rule="evenodd" fill-opacity="1" /><path clip-path="url(#clip600)" d="M 0 0 M935.992 988.411 L943.446 988.411 L943.446 1051.44 L935.992 1051.44 L935.992 988.411 Z" fill="#000000" fill-rule="evenodd" fill-opacity="1" /><path clip-path="url(#clip600)" d="M 0 0 M985.737 1065.22 L985.737 1071.01 L942.636 1071.01 L942.636 1065.22 L985.737 1065.22 Z" fill="#000000" fill-rule="evenodd" fill-opacity="1" /><path clip-path="url(#clip600)" d="M 0 0 M1039.17 995.621 L1039.17 1004.25 Q1035.04 1000.4 1030.34 998.497 Q1025.68 996.593 1020.41 996.593 Q1010.04 996.593 1004.53 1002.95 Q999.024 1009.27 999.024 1021.26 Q999.024 1033.21 1004.53 1039.57 Q1010.04 1045.89 1020.41 1045.89 Q1025.68 1045.89 1030.34 1043.99 Q1035.04 1042.09 1039.17 1038.24 L1039.17 1046.78 Q1034.87 1049.7 1030.05 1051.16 Q1025.27 1052.62 1019.93 1052.62 Q1006.19 1052.62 998.295 1044.23 Q990.396 1035.81 990.396 1021.26 Q990.396 1006.68 998.295 998.295 Q1006.19 989.869 1019.93 989.869 Q1025.36 989.869 1030.14 991.327 Q1034.96 992.745 1039.17 995.621 Z" fill="#000000" fill-rule="evenodd" fill-opacity="1" /><path clip-path="url(#clip600)" d="M 0 0 M1064.57 1011.3 Q1058.57 1011.3 1055.09 1016 Q1051.6 1020.66 1051.6 1028.8 Q1051.6 1036.94 1055.05 1041.64 Q1058.53 1046.3 1064.57 1046.3 Q1070.52 1046.3 1074.01 1041.6 Q1077.49 1036.9 1077.49 1028.8 Q1077.49 1020.74 1074.01 1016.04 Q1070.52 1011.3 1064.57 1011.3 M1064.57 1004.98 Q1074.29 1004.98 1079.84 1011.3 Q1085.39 1017.62 1085.39 1028.8 Q1085.39 1039.94 1079.84 1046.3 Q1074.29 1052.62 1064.57 1052.62 Q1054.81 1052.62 1049.26 1046.3 Q1043.75 1039.94 1043.75 1028.8 Q1043.75 1017.62 1049.26 1011.3 Q1054.81 1004.98 1064.57 1004.98 Z" fill="#000000" fill-rule="evenodd" fill-opacity="1" /><path clip-path="url(#clip600)" d="M 0 0 M1130.92 1024.06 L1130.92 1051.44 L1123.47 1051.44 L1123.47 1024.3 Q1123.47 1017.86 1120.96 1014.66 Q1118.44 1011.46 1113.42 1011.46 Q1107.39 1011.46 1103.9 1015.31 Q1100.42 1019.16 1100.42 1025.8 L1100.42 1051.44 L1092.92 1051.44 L1092.92 1006.07 L1100.42 1006.07 L1100.42 1013.12 Q1103.09 1009.03 1106.7 1007 Q1110.34 1004.98 1115.08 1004.98 Q1122.9 1004.98 1126.91 1009.84 Q1130.92 1014.66 1130.92 1024.06 Z" fill="#000000" fill-rule="evenodd" fill-opacity="1" /><path clip-path="url(#clip600)" d="M 0 0 M1167.66 1007.41 L1167.66 1014.46 Q1164.5 1012.84 1161.1 1012.03 Q1157.7 1011.22 1154.05 1011.22 Q1148.5 1011.22 1145.71 1012.92 Q1142.95 1014.62 1142.95 1018.02 Q1142.95 1020.62 1144.94 1022.11 Q1146.92 1023.57 1152.92 1024.91 L1155.47 1025.48 Q1163.41 1027.18 1166.73 1030.3 Q1170.09 1033.38 1170.09 1038.93 Q1170.09 1045.24 1165.07 1048.93 Q1160.09 1052.62 1151.34 1052.62 Q1147.69 1052.62 1143.72 1051.89 Q1139.79 1051.2 1135.42 1049.78 L1135.42 1042.09 Q1139.55 1044.23 1143.56 1045.33 Q1147.57 1046.38 1151.5 1046.38 Q1156.77 1046.38 1159.6 1044.6 Q1162.44 1042.77 1162.44 1039.49 Q1162.44 1036.45 1160.37 1034.83 Q1158.35 1033.21 1151.42 1031.71 L1148.83 1031.11 Q1141.9 1029.65 1138.82 1026.65 Q1135.74 1023.61 1135.74 1018.35 Q1135.74 1011.95 1140.28 1008.46 Q1144.82 1004.98 1153.16 1004.98 Q1157.29 1004.98 1160.94 1005.59 Q1164.58 1006.19 1167.66 1007.41 Z" fill="#000000" fill-rule="evenodd" fill-opacity="1" /><path clip-path="url(#clip600)" d="M 0 0 M1185.28 993.191 L1185.28 1006.07 L1200.64 1006.07 L1200.64 1011.87 L1185.28 1011.87 L1185.28 1036.49 Q1185.28 1042.04 1186.78 1043.62 Q1188.32 1045.2 1192.98 1045.2 L1200.64 1045.2 L1200.64 1051.44 L1192.98 1051.44 Q1184.35 1051.44 1181.07 1048.24 Q1177.79 1045 1177.79 1036.49 L1177.79 1011.87 L1172.32 1011.87 L1172.32 1006.07 L1177.79 1006.07 L1177.79 993.191 L1185.28 993.191 Z" fill="#000000" fill-rule="evenodd" fill-opacity="1" /><path clip-path="url(#clip600)" d="M 0 0 M1234.75 1013.04 Q1233.49 1012.31 1231.99 1011.99 Q1230.53 1011.62 1228.75 1011.62 Q1222.43 1011.62 1219.03 1015.75 Q1215.67 1019.85 1215.67 1027.54 L1215.67 1051.44 L1208.17 1051.44 L1208.17 1006.07 L1215.67 1006.07 L1215.67 1013.12 Q1218.02 1008.99 1221.78 1007 Q1225.55 1004.98 1230.94 1004.98 Q1231.71 1004.98 1232.64 1005.1 Q1233.57 1005.18 1234.71 1005.38 L1234.75 1013.04 Z" fill="#000000" fill-rule="evenodd" fill-opacity="1" /><path clip-path="url(#clip600)" d="M 0 0 M1263.18 1028.64 Q1254.15 1028.64 1250.67 1030.7 Q1247.18 1032.77 1247.18 1037.75 Q1247.18 1041.72 1249.78 1044.07 Q1252.41 1046.38 1256.9 1046.38 Q1263.1 1046.38 1266.83 1042 Q1270.6 1037.59 1270.6 1030.3 L1270.6 1028.64 L1263.18 1028.64 M1278.05 1025.56 L1278.05 1051.44 L1270.6 1051.44 L1270.6 1044.56 Q1268.04 1048.69 1264.24 1050.67 Q1260.43 1052.62 1254.92 1052.62 Q1247.95 1052.62 1243.82 1048.73 Q1239.73 1044.8 1239.73 1038.24 Q1239.73 1030.58 1244.83 1026.69 Q1249.98 1022.8 1260.15 1022.8 L1270.6 1022.8 L1270.6 1022.07 Q1270.6 1016.93 1267.19 1014.13 Q1263.83 1011.3 1257.72 1011.3 Q1253.83 1011.3 1250.14 1012.23 Q1246.45 1013.16 1243.05 1015.03 L1243.05 1008.14 Q1247.14 1006.56 1250.99 1005.79 Q1254.84 1004.98 1258.48 1004.98 Q1268.33 1004.98 1273.19 1010.08 Q1278.05 1015.19 1278.05 1025.56 Z" fill="#000000" fill-rule="evenodd" fill-opacity="1" /><path clip-path="url(#clip600)" d="M 0 0 M1285.87 1006.07 L1293.32 1006.07 L1293.32 1051.44 L1285.87 1051.44 L1285.87 1006.07 M1285.87 988.411 L1293.32 988.411 L1293.32 997.849 L1285.87 997.849 L1285.87 988.411 Z" fill="#000000" fill-rule="evenodd" fill-opacity="1" /><path clip-path="url(#clip600)" d="M 0 0 M1338.85 1024.06 L1338.85 1051.44 L1331.4 1051.44 L1331.4 1024.3 Q1331.4 1017.86 1328.89 1014.66 Q1326.38 1011.46 1321.35 1011.46 Q1315.32 1011.46 1311.84 1015.31 Q1308.35 1019.16 1308.35 1025.8 L1308.35 1051.44 L1300.86 1051.44 L1300.86 1006.07 L1308.35 1006.07 L1308.35 1013.12 Q1311.02 1009.03 1314.63 1007 Q1318.28 1004.98 1323.02 1004.98 Q1330.83 1004.98 1334.84 1009.84 Q1338.85 1014.66 1338.85 1024.06 Z" fill="#000000" fill-rule="evenodd" fill-opacity="1" /><path clip-path="url(#clip600)" d="M 0 0 M1354.05 993.191 L1354.05 1006.07 L1369.4 1006.07 L1369.4 1011.87 L1354.05 1011.87 L1354.05 1036.49 Q1354.05 1042.04 1355.54 1043.62 Q1357.08 1045.2 1361.74 1045.2 L1369.4 1045.2 L1369.4 1051.44 L1361.74 1051.44 Q1353.11 1051.44 1349.83 1048.24 Q1346.55 1045 1346.55 1036.49 L1346.55 1011.87 L1341.08 1011.87 L1341.08 1006.07 L1346.55 1006.07 L1346.55 993.191 L1354.05 993.191 Z" fill="#000000" fill-rule="evenodd" fill-opacity="1" /><path clip-path="url(#clip600)" d="M 0 0 M1406.14 1007.41 L1406.14 1014.46 Q1402.98 1012.84 1399.58 1012.03 Q1396.17 1011.22 1392.53 1011.22 Q1386.98 1011.22 1384.18 1012.92 Q1381.43 1014.62 1381.43 1018.02 Q1381.43 1020.62 1383.41 1022.11 Q1385.4 1023.57 1391.39 1024.91 L1393.95 1025.48 Q1401.89 1027.18 1405.21 1030.3 Q1408.57 1033.38 1408.57 1038.93 Q1408.57 1045.24 1403.55 1048.93 Q1398.56 1052.62 1389.81 1052.62 Q1386.17 1052.62 1382.2 1051.89 Q1378.27 1051.2 1373.89 1049.78 L1373.89 1042.09 Q1378.03 1044.23 1382.04 1045.33 Q1386.05 1046.38 1389.98 1046.38 Q1395.24 1046.38 1398.08 1044.6 Q1400.91 1042.77 1400.91 1039.49 Q1400.91 1036.45 1398.85 1034.83 Q1396.82 1033.21 1389.9 1031.71 L1387.3 1031.11 Q1380.38 1029.65 1377.3 1026.65 Q1374.22 1023.61 1374.22 1018.35 Q1374.22 1011.95 1378.76 1008.46 Q1383.29 1004.98 1391.64 1004.98 Q1395.77 1004.98 1399.42 1005.59 Q1403.06 1006.19 1406.14 1007.41 Z" fill="#000000" fill-rule="evenodd" fill-opacity="1" /><path clip-path="url(#clip600)" d="M 0 0 M1820.06 65.4389 L1820.06 88.1645 L1830.35 88.1645 Q1836.06 88.1645 1839.18 85.2073 Q1842.3 82.2501 1842.3 76.7814 Q1842.3 71.3532 1839.18 68.3961 Q1836.06 65.4389 1830.35 65.4389 L1820.06 65.4389 M1811.88 58.7144 L1830.35 58.7144 Q1840.52 58.7144 1845.7 63.3324 Q1850.93 67.9099 1850.93 76.7814 Q1850.93 85.7339 1845.7 90.3114 Q1840.52 94.889 1830.35 94.889 L1820.06 94.889 L1820.06 119.194 L1811.88 119.194 L1811.88 58.7144 Z" fill="#000000" fill-rule="evenodd" fill-opacity="1" /><path clip-path="url(#clip600)" d="M 0 0 M1894.6 94.6459 L1894.6 98.2917 L1860.33 98.2917 Q1860.81 105.988 1864.95 110.039 Q1869.12 114.05 1876.53 114.05 Q1880.83 114.05 1884.84 112.997 Q1888.89 111.943 1892.86 109.837 L1892.86 116.885 Q1888.85 118.587 1884.63 119.478 Q1880.42 120.369 1876.09 120.369 Q1865.23 120.369 1858.87 114.05 Q1852.55 107.73 1852.55 96.9549 Q1852.55 85.8149 1858.55 79.293 Q1864.58 72.7305 1874.79 72.7305 Q1883.95 72.7305 1889.25 78.6448 Q1894.6 84.5187 1894.6 94.6459 M1887.15 92.4584 Q1887.06 86.3416 1883.7 82.6957 Q1880.38 79.0499 1874.87 79.0499 Q1868.63 79.0499 1864.87 82.5742 Q1861.14 86.0985 1860.57 92.4989 L1887.15 92.4584 Z" fill="#000000" fill-rule="evenodd" fill-opacity="1" /><path clip-path="url(#clip600)" d="M 0 0 M1928.71 80.7918 Q1927.45 80.0627 1925.95 79.7386 Q1924.49 79.374 1922.71 79.374 Q1916.39 79.374 1912.99 83.5059 Q1909.63 87.5973 1909.63 95.2941 L1909.63 119.194 L1902.13 119.194 L1902.13 73.8243 L1909.63 73.8243 L1909.63 80.8728 Q1911.98 76.7409 1915.74 74.756 Q1919.51 72.7305 1924.9 72.7305 Q1925.67 72.7305 1926.6 72.852 Q1927.53 72.9331 1928.67 73.1356 L1928.71 80.7918 Z" fill="#000000" fill-rule="evenodd" fill-opacity="1" /><path clip-path="url(#clip600)" d="M 0 0 M1959.49 56.1623 L1959.49 62.3602 L1952.36 62.3602 Q1948.35 62.3602 1946.77 63.9806 Q1945.24 65.6009 1945.24 69.8139 L1945.24 73.8243 L1957.51 73.8243 L1957.51 79.6171 L1945.24 79.6171 L1945.24 119.194 L1937.74 119.194 L1937.74 79.6171 L1930.61 79.6171 L1930.61 73.8243 L1937.74 73.8243 L1937.74 70.6646 Q1937.74 63.0894 1941.27 59.6461 Q1944.79 56.1623 1952.45 56.1623 L1959.49 56.1623 Z" fill="#000000" fill-rule="evenodd" fill-opacity="1" /><path clip-path="url(#clip600)" d="M 0 0 M1984.89 79.0499 Q1978.9 79.0499 1975.41 83.749 Q1971.93 88.4075 1971.93 96.5498 Q1971.93 104.692 1975.37 109.391 Q1978.86 114.05 1984.89 114.05 Q1990.85 114.05 1994.33 109.351 Q1997.82 104.652 1997.82 96.5498 Q1997.82 88.4885 1994.33 83.7895 Q1990.85 79.0499 1984.89 79.0499 M1984.89 72.7305 Q1994.62 72.7305 2000.17 79.0499 Q2005.72 85.3693 2005.72 96.5498 Q2005.72 107.69 2000.17 114.05 Q1994.62 120.369 1984.89 120.369 Q1975.13 120.369 1969.58 114.05 Q1964.07 107.69 1964.07 96.5498 Q1964.07 85.3693 1969.58 79.0499 Q1975.13 72.7305 1984.89 72.7305 Z" fill="#000000" fill-rule="evenodd" fill-opacity="1" /><path clip-path="url(#clip600)" d="M 0 0 M2039.82 80.7918 Q2038.57 80.0627 2037.07 79.7386 Q2035.61 79.374 2033.83 79.374 Q2027.51 79.374 2024.11 83.5059 Q2020.74 87.5973 2020.74 95.2941 L2020.74 119.194 L2013.25 119.194 L2013.25 73.8243 L2020.74 73.8243 L2020.74 80.8728 Q2023.09 76.7409 2026.86 74.756 Q2030.63 72.7305 2036.02 72.7305 Q2036.79 72.7305 2037.72 72.852 Q2038.65 72.9331 2039.78 73.1356 L2039.82 80.7918 Z" fill="#000000" fill-rule="evenodd" fill-opacity="1" /><path clip-path="url(#clip600)" d="M 0 0 M2081.51 82.5337 Q2084.3 77.5106 2088.19 75.1206 Q2092.08 72.7305 2097.35 72.7305 Q2104.44 72.7305 2108.28 77.7131 Q2112.13 82.6552 2112.13 91.8103 L2112.13 119.194 L2104.64 119.194 L2104.64 92.0533 Q2104.64 85.5314 2102.33 82.3717 Q2100.02 79.212 2095.28 79.212 Q2089.49 79.212 2086.13 83.0603 Q2082.76 86.9087 2082.76 93.5522 L2082.76 119.194 L2075.27 119.194 L2075.27 92.0533 Q2075.27 85.4909 2072.96 82.3717 Q2070.65 79.212 2065.83 79.212 Q2060.12 79.212 2056.76 83.1008 Q2053.39 86.9492 2053.39 93.5522 L2053.39 119.194 L2045.9 119.194 L2045.9 73.8243 L2053.39 73.8243 L2053.39 80.8728 Q2055.95 76.7004 2059.51 74.7155 Q2063.08 72.7305 2067.98 72.7305 Q2072.92 72.7305 2076.36 75.2421 Q2079.85 77.7536 2081.51 82.5337 Z" fill="#000000" fill-rule="evenodd" fill-opacity="1" /><path clip-path="url(#clip600)" d="M 0 0 M2140.57 96.3878 Q2131.54 96.3878 2128.05 98.4538 Q2124.57 100.52 2124.57 105.502 Q2124.57 109.472 2127.16 111.822 Q2129.79 114.131 2134.29 114.131 Q2140.49 114.131 2144.22 109.756 Q2147.98 105.34 2147.98 98.0487 L2147.98 96.3878 L2140.57 96.3878 M2155.44 93.3091 L2155.44 119.194 L2147.98 119.194 L2147.98 112.308 Q2145.43 116.44 2141.62 118.425 Q2137.82 120.369 2132.31 120.369 Q2125.34 120.369 2121.21 116.48 Q2117.12 112.551 2117.12 105.988 Q2117.12 98.3322 2122.22 94.4434 Q2127.36 90.5545 2137.53 90.5545 L2147.98 90.5545 L2147.98 89.8253 Q2147.98 84.6807 2144.58 81.8856 Q2141.22 79.0499 2135.1 79.0499 Q2131.21 79.0499 2127.53 79.9816 Q2123.84 80.9133 2120.44 82.7768 L2120.44 75.8902 Q2124.53 74.3104 2128.38 73.5407 Q2132.23 72.7305 2135.87 72.7305 Q2145.71 72.7305 2150.58 77.8347 Q2155.44 82.9388 2155.44 93.3091 Z" fill="#000000" fill-rule="evenodd" fill-opacity="1" /><path clip-path="url(#clip600)" d="M 0 0 M2200.97 91.8103 L2200.97 119.194 L2193.52 119.194 L2193.52 92.0533 Q2193.52 85.6124 2191 82.4122 Q2188.49 79.212 2183.47 79.212 Q2177.43 79.212 2173.95 83.0603 Q2170.47 86.9087 2170.47 93.5522 L2170.47 119.194 L2162.97 119.194 L2162.97 73.8243 L2170.47 73.8243 L2170.47 80.8728 Q2173.14 76.7814 2176.74 74.756 Q2180.39 72.7305 2185.13 72.7305 Q2192.95 72.7305 2196.96 77.5916 Q2200.97 82.4122 2200.97 91.8103 Z" fill="#000000" fill-rule="evenodd" fill-opacity="1" /><path clip-path="url(#clip600)" d="M 0 0 M2241.44 75.5662 L2241.44 82.5337 Q2238.28 80.7918 2235.08 79.9411 Q2231.92 79.0499 2228.68 79.0499 Q2221.43 79.0499 2217.42 83.668 Q2213.41 88.2455 2213.41 96.5498 Q2213.41 104.854 2217.42 109.472 Q2221.43 114.05 2228.68 114.05 Q2231.92 114.05 2235.08 113.199 Q2238.28 112.308 2241.44 110.566 L2241.44 117.453 Q2238.32 118.911 2234.96 119.64 Q2231.63 120.369 2227.87 120.369 Q2217.62 120.369 2211.58 113.928 Q2205.55 107.487 2205.55 96.5498 Q2205.55 85.4504 2211.62 79.0904 Q2217.74 72.7305 2228.35 72.7305 Q2231.8 72.7305 2235.08 73.4597 Q2238.36 74.1483 2241.44 75.5662 Z" fill="#000000" fill-rule="evenodd" fill-opacity="1" /><path clip-path="url(#clip600)" d="M 0 0 M2288.06 94.6459 L2288.06 98.2917 L2253.79 98.2917 Q2254.28 105.988 2258.41 110.039 Q2262.58 114.05 2270 114.05 Q2274.29 114.05 2278.3 112.997 Q2282.35 111.943 2286.32 109.837 L2286.32 116.885 Q2282.31 118.587 2278.1 119.478 Q2273.89 120.369 2269.55 120.369 Q2258.69 120.369 2252.33 114.05 Q2246.02 107.73 2246.02 96.9549 Q2246.02 85.8149 2252.01 79.293 Q2258.05 72.7305 2268.25 72.7305 Q2277.41 72.7305 2282.72 78.6448 Q2288.06 84.5187 2288.06 94.6459 M2280.61 92.4584 Q2280.53 86.3416 2277.17 82.6957 Q2273.84 79.0499 2268.34 79.0499 Q2262.1 79.0499 2258.33 82.5742 Q2254.6 86.0985 2254.04 92.4989 L2280.61 92.4584 Z" fill="#000000" fill-rule="evenodd" fill-opacity="1" /><path clip-path="url(#clip600)" d="M 0 0 M2330.35 132.967 L2330.35 138.76 L2287.25 138.76 L2287.25 132.967 L2330.35 132.967 Z" fill="#000000" fill-rule="evenodd" fill-opacity="1" /><path clip-path="url(#clip600)" d="M 0 0 M2346.68 65.4389 L2346.68 88.1645 L2356.97 88.1645 Q2362.68 88.1645 2365.8 85.2073 Q2368.92 82.2501 2368.92 76.7814 Q2368.92 71.3532 2365.8 68.3961 Q2362.68 65.4389 2356.97 65.4389 L2346.68 65.4389 M2338.5 58.7144 L2356.97 58.7144 Q2367.14 58.7144 2372.32 63.3324 Q2377.55 67.9099 2377.55 76.7814 Q2377.55 85.7339 2372.32 90.3114 Q2367.14 94.889 2356.97 94.889 L2346.68 94.889 L2346.68 119.194 L2338.5 119.194 L2338.5 58.7144 Z" fill="#000000" fill-rule="evenodd" fill-opacity="1" /><path clip-path="url(#clip600)" d="M 0 0 M2402.26 96.3878 Q2393.22 96.3878 2389.74 98.4538 Q2386.26 100.52 2386.26 105.502 Q2386.26 109.472 2388.85 111.822 Q2391.48 114.131 2395.98 114.131 Q2402.18 114.131 2405.9 109.756 Q2409.67 105.34 2409.67 98.0487 L2409.67 96.3878 L2402.26 96.3878 M2417.13 93.3091 L2417.13 119.194 L2409.67 119.194 L2409.67 112.308 Q2407.12 116.44 2403.31 118.425 Q2399.5 120.369 2393.99 120.369 Q2387.03 120.369 2382.9 116.48 Q2378.8 112.551 2378.8 105.988 Q2378.8 98.3322 2383.91 94.4434 Q2389.05 90.5545 2399.22 90.5545 L2409.67 90.5545 L2409.67 89.8253 Q2409.67 84.6807 2406.27 81.8856 Q2402.91 79.0499 2396.79 79.0499 Q2392.9 79.0499 2389.21 79.9816 Q2385.53 80.9133 2382.13 82.7768 L2382.13 75.8902 Q2386.22 74.3104 2390.07 73.5407 Q2393.91 72.7305 2397.56 72.7305 Q2407.4 72.7305 2412.26 77.8347 Q2417.13 82.9388 2417.13 93.3091 Z" fill="#000000" fill-rule="evenodd" fill-opacity="1" /><path clip-path="url(#clip600)" d="M 0 0 M2451.23 80.7918 Q2449.98 80.0627 2448.48 79.7386 Q2447.02 79.374 2445.24 79.374 Q2438.92 79.374 2435.52 83.5059 Q2432.15 87.5973 2432.15 95.2941 L2432.15 119.194 L2424.66 119.194 L2424.66 73.8243 L2432.15 73.8243 L2432.15 80.8728 Q2434.5 76.7409 2438.27 74.756 Q2442.04 72.7305 2447.43 72.7305 Q2448.2 72.7305 2449.13 72.852 Q2450.06 72.9331 2451.19 73.1356 L2451.23 80.7918 Z" fill="#000000" fill-rule="evenodd" fill-opacity="1" /><path clip-path="url(#clip600)" d="M 0 0 M2479.67 96.3878 Q2470.64 96.3878 2467.15 98.4538 Q2463.67 100.52 2463.67 105.502 Q2463.67 109.472 2466.26 111.822 Q2468.9 114.131 2473.39 114.131 Q2479.59 114.131 2483.32 109.756 Q2487.08 105.34 2487.08 98.0487 L2487.08 96.3878 L2479.67 96.3878 M2494.54 93.3091 L2494.54 119.194 L2487.08 119.194 L2487.08 112.308 Q2484.53 116.44 2480.72 118.425 Q2476.92 120.369 2471.41 120.369 Q2464.44 120.369 2460.31 116.48 Q2456.22 112.551 2456.22 105.988 Q2456.22 98.3322 2461.32 94.4434 Q2466.47 90.5545 2476.63 90.5545 L2487.08 90.5545 L2487.08 89.8253 Q2487.08 84.6807 2483.68 81.8856 Q2480.32 79.0499 2474.2 79.0499 Q2470.31 79.0499 2466.63 79.9816 Q2462.94 80.9133 2459.54 82.7768 L2459.54 75.8902 Q2463.63 74.3104 2467.48 73.5407 Q2471.33 72.7305 2474.97 72.7305 Q2484.82 72.7305 2489.68 77.8347 Q2494.54 82.9388 2494.54 93.3091 Z" fill="#000000" fill-rule="evenodd" fill-opacity="1" /><path clip-path="url(#clip600)" d="M 0 0 M2537.68 82.5337 Q2540.48 77.5106 2544.36 75.1206 Q2548.25 72.7305 2553.52 72.7305 Q2560.61 72.7305 2564.46 77.7131 Q2568.3 82.6552 2568.3 91.8103 L2568.3 119.194 L2560.81 119.194 L2560.81 92.0533 Q2560.81 85.5314 2558.5 82.3717 Q2556.19 79.212 2551.45 79.212 Q2545.66 79.212 2542.3 83.0603 Q2538.94 86.9087 2538.94 93.5522 L2538.94 119.194 L2531.44 119.194 L2531.44 92.0533 Q2531.44 85.4909 2529.13 82.3717 Q2526.82 79.212 2522 79.212 Q2516.29 79.212 2512.93 83.1008 Q2509.57 86.9492 2509.57 93.5522 L2509.57 119.194 L2502.07 119.194 L2502.07 73.8243 L2509.57 73.8243 L2509.57 80.8728 Q2512.12 76.7004 2515.68 74.7155 Q2519.25 72.7305 2524.15 72.7305 Q2529.09 72.7305 2532.54 75.2421 Q2536.02 77.7536 2537.68 82.5337 Z" fill="#000000" fill-rule="evenodd" fill-opacity="1" /><path clip-path="url(#clip600)" d="M 0 0 M2614.93 94.6459 L2614.93 98.2917 L2580.66 98.2917 Q2581.15 105.988 2585.28 110.039 Q2589.45 114.05 2596.86 114.05 Q2601.16 114.05 2605.17 112.997 Q2609.22 111.943 2613.19 109.837 L2613.19 116.885 Q2609.18 118.587 2604.97 119.478 Q2600.75 120.369 2596.42 120.369 Q2585.56 120.369 2579.2 114.05 Q2572.88 107.73 2572.88 96.9549 Q2572.88 85.8149 2578.88 79.293 Q2584.91 72.7305 2595.12 72.7305 Q2604.28 72.7305 2609.58 78.6448 Q2614.93 84.5187 2614.93 94.6459 M2607.48 92.4584 Q2607.4 86.3416 2604.03 82.6957 Q2600.71 79.0499 2595.2 79.0499 Q2588.96 79.0499 2585.2 82.5742 Q2581.47 86.0985 2580.9 92.4989 L2607.48 92.4584 Z" fill="#000000" fill-rule="evenodd" fill-opacity="1" /><path clip-path="url(#clip600)" d="M 0 0 M2630.12 60.9424 L2630.12 73.8243 L2645.47 73.8243 L2645.47 79.6171 L2630.12 79.6171 L2630.12 104.247 Q2630.12 109.796 2631.62 111.376 Q2633.16 112.956 2637.82 112.956 L2645.47 112.956 L2645.47 119.194 L2637.82 119.194 Q2629.19 119.194 2625.91 115.994 Q2622.63 112.753 2622.63 104.247 L2622.63 79.6171 L2617.16 79.6171 L2617.16 73.8243 L2622.63 73.8243 L2622.63 60.9424 L2630.12 60.9424 Z" fill="#000000" fill-rule="evenodd" fill-opacity="1" /><path clip-path="url(#clip600)" d="M 0 0 M2692.1 94.6459 L2692.1 98.2917 L2657.83 98.2917 Q2658.32 105.988 2662.45 110.039 Q2666.62 114.05 2674.03 114.05 Q2678.33 114.05 2682.34 112.997 Q2686.39 111.943 2690.36 109.837 L2690.36 116.885 Q2686.35 118.587 2682.14 119.478 Q2677.92 120.369 2673.59 120.369 Q2662.73 120.369 2656.37 114.05 Q2650.05 107.73 2650.05 96.9549 Q2650.05 85.8149 2656.05 79.293 Q2662.08 72.7305 2672.29 72.7305 Q2681.45 72.7305 2686.75 78.6448 Q2692.1 84.5187 2692.1 94.6459 M2684.65 92.4584 Q2684.57 86.3416 2681.2 82.6957 Q2677.88 79.0499 2672.37 79.0499 Q2666.13 79.0499 2662.37 82.5742 Q2658.64 86.0985 2658.07 92.4989 L2684.65 92.4584 Z" fill="#000000" fill-rule="evenodd" fill-opacity="1" /><path clip-path="url(#clip600)" d="M 0 0 M2726.21 80.7918 Q2724.95 80.0627 2723.45 79.7386 Q2722 79.374 2720.21 79.374 Q2713.89 79.374 2710.49 83.5059 Q2707.13 87.5973 2707.13 95.2941 L2707.13 119.194 L2699.64 119.194 L2699.64 73.8243 L2707.13 73.8243 L2707.13 80.8728 Q2709.48 76.7409 2713.25 74.756 Q2717.01 72.7305 2722.4 72.7305 Q2723.17 72.7305 2724.1 72.852 Q2725.03 72.9331 2726.17 73.1356 L2726.21 80.7918 Z" fill="#000000" fill-rule="evenodd" fill-opacity="1" /><path clip-path="url(#clip600)" d="M 0 0 M2762.95 75.1611 L2762.95 82.2096 Q2759.79 80.5893 2756.39 79.7791 Q2752.99 78.9689 2749.34 78.9689 Q2743.79 78.9689 2740.99 80.6703 Q2738.24 82.3717 2738.24 85.7744 Q2738.24 88.367 2740.23 89.8658 Q2742.21 91.3242 2748.21 92.661 L2750.76 93.2281 Q2758.7 94.9295 2762.02 98.0487 Q2765.38 101.127 2765.38 106.677 Q2765.38 112.997 2760.36 116.683 Q2755.38 120.369 2746.63 120.369 Q2742.98 120.369 2739.01 119.64 Q2735.08 118.951 2730.71 117.534 L2730.71 109.837 Q2734.84 111.984 2738.85 113.078 Q2742.86 114.131 2746.79 114.131 Q2752.05 114.131 2754.89 112.348 Q2757.73 110.525 2757.73 107.244 Q2757.73 104.206 2755.66 102.586 Q2753.63 100.965 2746.71 99.4665 L2744.11 98.8589 Q2737.19 97.4005 2734.11 94.4029 Q2731.03 91.3647 2731.03 86.0985 Q2731.03 79.6981 2735.57 76.2143 Q2740.1 72.7305 2748.45 72.7305 Q2752.58 72.7305 2756.23 73.3382 Q2759.87 73.9458 2762.95 75.1611 Z" fill="#000000" fill-rule="evenodd" fill-opacity="1" /><path clip-path="url(#clip600)" d="M 0 0 M-51.2783 705.414 L-51.2783 714.042 Q-55.4102 710.194 -60.1092 708.29 Q-64.7678 706.386 -70.0339 706.386 Q-80.4043 706.386 -85.9135 712.746 Q-91.4227 719.065 -91.4227 731.056 Q-91.4227 743.006 -85.9135 749.366 Q-80.4043 755.686 -70.0339 755.686 Q-64.7678 755.686 -60.1092 753.782 Q-55.4102 751.878 -51.2783 748.029 L-51.2783 756.577 Q-55.5722 759.493 -60.3928 760.952 Q-65.1729 762.41 -70.52 762.41 Q-84.2526 762.41 -92.1519 754.025 Q-100.051 745.599 -100.051 731.056 Q-100.051 716.473 -92.1519 708.088 Q-84.2526 699.662 -70.52 699.662 Q-65.0918 699.662 -60.3118 701.12 Q-55.4912 702.538 -51.2783 705.414 Z" fill="#000000" fill-rule="evenodd" fill-opacity="1" /><path clip-path="url(#clip600)" d="M 0 0 M-43.46 698.203 L-36.0063 698.203 L-36.0063 761.235 L-43.46 761.235 L-43.46 698.203 Z" fill="#000000" fill-rule="evenodd" fill-opacity="1" /><path clip-path="url(#clip600)" d="M 0 0 M-28.1881 715.865 L-20.7344 715.865 L-20.7344 761.235 L-28.1881 761.235 L-28.1881 715.865 M-28.1881 698.203 L-20.7344 698.203 L-20.7344 707.642 L-28.1881 707.642 L-28.1881 698.203 Z" fill="#000000" fill-rule="evenodd" fill-opacity="1" /><path clip-path="url(#clip600)" d="M 0 0 M25.8915 736.687 L25.8915 740.333 L-8.37917 740.333 Q-7.89307 748.029 -3.76114 752.08 Q0.411288 756.091 7.82444 756.091 Q12.1184 756.091 16.1288 755.037 Q20.1797 753.984 24.1496 751.878 L24.1496 758.926 Q20.1392 760.628 15.9263 761.519 Q11.7133 762.41 7.37884 762.41 Q-3.47758 762.41 -9.8375 756.091 Q-16.1569 749.771 -16.1569 738.996 Q-16.1569 727.856 -10.1616 721.334 Q-4.12573 714.772 6.08255 714.772 Q15.2376 714.772 20.5443 720.686 Q25.8915 726.56 25.8915 736.687 M18.4378 734.499 Q18.3568 728.383 14.9945 724.737 Q11.6728 721.091 6.16357 721.091 Q-0.0748209 721.091 -3.84216 724.615 Q-7.56899 728.139 -8.13612 734.54 L18.4378 734.499 Z" fill="#000000" fill-rule="evenodd" fill-opacity="1" /><path clip-path="url(#clip600)" d="M 0 0 M71.4236 733.851 L71.4236 761.235 L63.97 761.235 L63.97 734.094 Q63.97 727.653 61.4584 724.453 Q58.9469 721.253 53.9237 721.253 Q47.8879 721.253 44.4041 725.101 Q40.9203 728.95 40.9203 735.593 L40.9203 761.235 L33.4262 761.235 L33.4262 715.865 L40.9203 715.865 L40.9203 722.914 Q43.5939 718.822 47.1992 716.797 Q50.845 714.772 55.5846 714.772 Q63.4028 714.772 67.4132 719.633 Q71.4236 724.453 71.4236 733.851 Z" fill="#000000" fill-rule="evenodd" fill-opacity="1" /><path clip-path="url(#clip600)" d="M 0 0 M86.6145 702.983 L86.6145 715.865 L101.967 715.865 L101.967 721.658 L86.6145 721.658 L86.6145 746.288 Q86.6145 751.837 88.1134 753.417 Q89.6527 754.997 94.3112 754.997 L101.967 754.997 L101.967 761.235 L94.3112 761.235 Q85.6828 761.235 82.4016 758.035 Q79.1204 754.794 79.1204 746.288 L79.1204 721.658 L73.6516 721.658 L73.6516 715.865 L79.1204 715.865 L79.1204 702.983 L86.6145 702.983 Z" fill="#000000" fill-rule="evenodd" fill-opacity="1" /><path clip-path="url(#clip600)" d="M 0 0 M144.259 775.008 L144.259 780.801 L101.157 780.801 L101.157 775.008 L144.259 775.008 Z" fill="#000000" fill-rule="evenodd" fill-opacity="1" /><path clip-path="url(#clip600)" d="M 0 0 M172.696 738.429 Q163.663 738.429 160.179 740.495 Q156.695 742.561 156.695 747.543 Q156.695 751.513 159.288 753.863 Q161.921 756.172 166.417 756.172 Q172.615 756.172 176.342 751.797 Q180.109 747.381 180.109 740.09 L180.109 738.429 L172.696 738.429 M187.563 735.35 L187.563 761.235 L180.109 761.235 L180.109 754.349 Q177.557 758.481 173.749 760.466 Q169.942 762.41 164.432 762.41 Q157.465 762.41 153.333 758.521 Q149.242 754.592 149.242 748.029 Q149.242 740.373 154.346 736.484 Q159.49 732.595 169.658 732.595 L180.109 732.595 L180.109 731.866 Q180.109 726.722 176.707 723.927 Q173.344 721.091 167.228 721.091 Q163.339 721.091 159.652 722.023 Q155.966 722.954 152.563 724.818 L152.563 717.931 Q156.655 716.351 160.503 715.582 Q164.351 714.772 167.997 714.772 Q177.841 714.772 182.702 719.876 Q187.563 724.98 187.563 735.35 Z" fill="#000000" fill-rule="evenodd" fill-opacity="1" /><path clip-path="url(#clip600)" d="M 0 0 M233.095 733.851 L233.095 761.235 L225.642 761.235 L225.642 734.094 Q225.642 727.653 223.13 724.453 Q220.618 721.253 215.595 721.253 Q209.559 721.253 206.076 725.101 Q202.592 728.95 202.592 735.593 L202.592 761.235 L195.098 761.235 L195.098 715.865 L202.592 715.865 L202.592 722.914 Q205.266 718.822 208.871 716.797 Q212.517 714.772 217.256 714.772 Q225.074 714.772 229.085 719.633 Q233.095 724.453 233.095 733.851 Z" fill="#000000" fill-rule="evenodd" fill-opacity="1" /><path clip-path="url(#clip600)" d="M 0 0 M270.769 722.752 L270.769 698.203 L278.222 698.203 L278.222 761.235 L270.769 761.235 L270.769 754.43 Q268.419 758.481 264.814 760.466 Q261.249 762.41 256.226 762.41 Q248.003 762.41 242.817 755.848 Q237.673 749.285 237.673 738.591 Q237.673 727.896 242.817 721.334 Q248.003 714.772 256.226 714.772 Q261.249 714.772 264.814 716.756 Q268.419 718.701 270.769 722.752 M245.369 738.591 Q245.369 746.814 248.732 751.513 Q252.134 756.172 258.049 756.172 Q263.963 756.172 267.366 751.513 Q270.769 746.814 270.769 738.591 Q270.769 730.367 267.366 725.709 Q263.963 721.01 258.049 721.01 Q252.134 721.01 248.732 725.709 Q245.369 730.367 245.369 738.591 Z" fill="#000000" fill-rule="evenodd" fill-opacity="1" /><path clip-path="url(#clip600)" d="M 0 0 M320.514 775.008 L320.514 780.801 L277.412 780.801 L277.412 775.008 L320.514 775.008 Z" fill="#000000" fill-rule="evenodd" fill-opacity="1" /><path clip-path="url(#clip600)" d="M 0 0 M373.945 705.414 L373.945 714.042 Q369.813 710.194 365.114 708.29 Q360.456 706.386 355.189 706.386 Q344.819 706.386 339.31 712.746 Q333.801 719.065 333.801 731.056 Q333.801 743.006 339.31 749.366 Q344.819 755.686 355.189 755.686 Q360.456 755.686 365.114 753.782 Q369.813 751.878 373.945 748.029 L373.945 756.577 Q369.651 759.493 364.831 760.952 Q360.051 762.41 354.703 762.41 Q340.971 762.41 333.072 754.025 Q325.172 745.599 325.172 731.056 Q325.172 716.473 333.072 708.088 Q340.971 699.662 354.703 699.662 Q360.132 699.662 364.912 701.12 Q369.732 702.538 373.945 705.414 Z" fill="#000000" fill-rule="evenodd" fill-opacity="1" /><path clip-path="url(#clip600)" d="M 0 0 M399.344 721.091 Q393.349 721.091 389.865 725.79 Q386.381 730.449 386.381 738.591 Q386.381 746.733 389.825 751.432 Q393.308 756.091 399.344 756.091 Q405.299 756.091 408.783 751.392 Q412.267 746.693 412.267 738.591 Q412.267 730.53 408.783 725.83 Q405.299 721.091 399.344 721.091 M399.344 714.772 Q409.067 714.772 414.616 721.091 Q420.166 727.41 420.166 738.591 Q420.166 749.731 414.616 756.091 Q409.067 762.41 399.344 762.41 Q389.582 762.41 384.032 756.091 Q378.523 749.731 378.523 738.591 Q378.523 727.41 384.032 721.091 Q389.582 714.772 399.344 714.772 Z" fill="#000000" fill-rule="evenodd" fill-opacity="1" /><path clip-path="url(#clip600)" d="M 0 0 M465.698 733.851 L465.698 761.235 L458.244 761.235 L458.244 734.094 Q458.244 727.653 455.733 724.453 Q453.221 721.253 448.198 721.253 Q442.162 721.253 438.679 725.101 Q435.195 728.95 435.195 735.593 L435.195 761.235 L427.701 761.235 L427.701 715.865 L435.195 715.865 L435.195 722.914 Q437.868 718.822 441.474 716.797 Q445.12 714.772 449.859 714.772 Q457.677 714.772 461.688 719.633 Q465.698 724.453 465.698 733.851 Z" fill="#000000" fill-rule="evenodd" fill-opacity="1" /><path clip-path="url(#clip600)" d="M 0 0 M502.44 717.202 L502.44 724.251 Q499.28 722.63 495.877 721.82 Q492.475 721.01 488.829 721.01 Q483.279 721.01 480.484 722.711 Q477.729 724.413 477.729 727.815 Q477.729 730.408 479.714 731.907 Q481.699 733.365 487.695 734.702 L490.247 735.269 Q498.186 736.97 501.508 740.09 Q504.87 743.168 504.87 748.718 Q504.87 755.037 499.847 758.724 Q494.865 762.41 486.115 762.41 Q482.469 762.41 478.499 761.681 Q474.57 760.992 470.195 759.575 L470.195 751.878 Q474.327 754.025 478.337 755.119 Q482.347 756.172 486.277 756.172 Q491.543 756.172 494.379 754.389 Q497.214 752.566 497.214 749.285 Q497.214 746.247 495.148 744.627 Q493.123 743.006 486.196 741.507 L483.603 740.9 Q476.676 739.442 473.597 736.444 Q470.519 733.406 470.519 728.139 Q470.519 721.739 475.056 718.255 Q479.593 714.772 487.938 714.772 Q492.07 714.772 495.715 715.379 Q499.361 715.987 502.44 717.202 Z" fill="#000000" fill-rule="evenodd" fill-opacity="1" /><path clip-path="url(#clip600)" d="M 0 0 M511.919 743.33 L511.919 715.865 L519.373 715.865 L519.373 743.047 Q519.373 749.488 521.884 752.728 Q524.396 755.929 529.419 755.929 Q535.455 755.929 538.938 752.08 Q542.463 748.232 542.463 741.588 L542.463 715.865 L549.916 715.865 L549.916 761.235 L542.463 761.235 L542.463 754.268 Q539.749 758.4 536.143 760.425 Q532.579 762.41 527.839 762.41 Q520.021 762.41 515.97 757.549 Q511.919 752.688 511.919 743.33 M530.675 714.772 L530.675 714.772 Z" fill="#000000" fill-rule="evenodd" fill-opacity="1" /><path clip-path="url(#clip600)" d="M 0 0 M557.735 698.203 L565.188 698.203 L565.188 761.235 L557.735 761.235 L557.735 698.203 Z" fill="#000000" fill-rule="evenodd" fill-opacity="1" /><path clip-path="url(#clip600)" d="M 0 0 M580.379 702.983 L580.379 715.865 L595.732 715.865 L595.732 721.658 L580.379 721.658 L580.379 746.288 Q580.379 751.837 581.878 753.417 Q583.417 754.997 588.076 754.997 L595.732 754.997 L595.732 761.235 L588.076 761.235 Q579.448 761.235 576.166 758.035 Q572.885 754.794 572.885 746.288 L572.885 721.658 L567.416 721.658 L567.416 715.865 L572.885 715.865 L572.885 702.983 L580.379 702.983 Z" fill="#000000" fill-rule="evenodd" fill-opacity="1" /><path clip-path="url(#clip600)" d="M 0 0 M624.17 738.429 Q615.136 738.429 611.652 740.495 Q608.168 742.561 608.168 747.543 Q608.168 751.513 610.761 753.863 Q613.394 756.172 617.891 756.172 Q624.089 756.172 627.815 751.797 Q631.583 747.381 631.583 740.09 L631.583 738.429 L624.17 738.429 M639.036 735.35 L639.036 761.235 L631.583 761.235 L631.583 754.349 Q629.031 758.481 625.223 760.466 Q621.415 762.41 615.906 762.41 Q608.938 762.41 604.806 758.521 Q600.715 754.592 600.715 748.029 Q600.715 740.373 605.819 736.484 Q610.964 732.595 621.131 732.595 L631.583 732.595 L631.583 731.866 Q631.583 726.722 628.18 723.927 Q624.818 721.091 618.701 721.091 Q614.812 721.091 611.126 722.023 Q607.439 722.954 604.037 724.818 L604.037 717.931 Q608.128 716.351 611.976 715.582 Q615.825 714.772 619.47 714.772 Q629.314 714.772 634.175 719.876 Q639.036 724.98 639.036 735.35 Z" fill="#000000" fill-rule="evenodd" fill-opacity="1" /><path clip-path="url(#clip600)" d="M 0 0 M684.569 733.851 L684.569 761.235 L677.115 761.235 L677.115 734.094 Q677.115 727.653 674.603 724.453 Q672.092 721.253 667.069 721.253 Q661.033 721.253 657.549 725.101 Q654.065 728.95 654.065 735.593 L654.065 761.235 L646.571 761.235 L646.571 715.865 L654.065 715.865 L654.065 722.914 Q656.739 718.822 660.344 716.797 Q663.99 714.772 668.729 714.772 Q676.548 714.772 680.558 719.633 Q684.569 724.453 684.569 733.851 Z" fill="#000000" fill-rule="evenodd" fill-opacity="1" /><path clip-path="url(#clip600)" d="M 0 0 M699.759 702.983 L699.759 715.865 L715.112 715.865 L715.112 721.658 L699.759 721.658 L699.759 746.288 Q699.759 751.837 701.258 753.417 Q702.798 754.997 707.456 754.997 L715.112 754.997 L715.112 761.235 L707.456 761.235 Q698.828 761.235 695.546 758.035 Q692.265 754.794 692.265 746.288 L692.265 721.658 L686.796 721.658 L686.796 715.865 L692.265 715.865 L692.265 702.983 L699.759 702.983 Z" fill="#000000" fill-rule="evenodd" fill-opacity="1" /><path clip-path="url(#clip600)" d="M 0 0 M757.404 775.008 L757.404 780.801 L714.302 780.801 L714.302 775.008 L757.404 775.008 Z" fill="#000000" fill-rule="evenodd" fill-opacity="1" /><path clip-path="url(#clip600)" d="M 0 0 M794.226 732.879 Q796.86 733.77 799.331 736.687 Q801.842 739.604 804.354 744.708 L812.658 761.235 L803.868 761.235 L796.13 745.72 Q793.133 739.644 790.297 737.659 Q787.502 735.674 782.641 735.674 L773.729 735.674 L773.729 761.235 L765.546 761.235 L765.546 700.755 L784.018 700.755 Q794.389 700.755 799.493 705.09 Q804.597 709.424 804.597 718.174 Q804.597 723.886 801.923 727.653 Q799.29 731.421 794.226 732.879 M773.729 707.48 L773.729 728.95 L784.018 728.95 Q789.933 728.95 792.93 726.236 Q795.968 723.481 795.968 718.174 Q795.968 712.868 792.93 710.194 Q789.933 707.48 784.018 707.48 L773.729 707.48 Z" fill="#000000" fill-rule="evenodd" fill-opacity="1" /><path clip-path="url(#clip600)" d="M 0 0 M855.557 736.687 L855.557 740.333 L821.287 740.333 Q821.773 748.029 825.905 752.08 Q830.077 756.091 837.49 756.091 Q841.784 756.091 845.794 755.037 Q849.845 753.984 853.815 751.878 L853.815 758.926 Q849.805 760.628 845.592 761.519 Q841.379 762.41 837.045 762.41 Q826.188 762.41 819.828 756.091 Q813.509 749.771 813.509 738.996 Q813.509 727.856 819.504 721.334 Q825.54 714.772 835.748 714.772 Q844.903 714.772 850.21 720.686 Q855.557 726.56 855.557 736.687 M848.104 734.499 Q848.022 728.383 844.66 724.737 Q841.338 721.091 835.829 721.091 Q829.591 721.091 825.824 724.615 Q822.097 728.139 821.53 734.54 L848.104 734.499 Z" fill="#000000" fill-rule="evenodd" fill-opacity="1" /><path clip-path="url(#clip600)" d="M 0 0 M867.831 738.591 Q867.831 746.814 871.194 751.513 Q874.596 756.172 880.511 756.172 Q886.425 756.172 889.828 751.513 Q893.231 746.814 893.231 738.591 Q893.231 730.367 889.828 725.709 Q886.425 721.01 880.511 721.01 Q874.596 721.01 871.194 725.709 Q867.831 730.367 867.831 738.591 M893.231 754.43 Q890.881 758.481 887.276 760.466 Q883.711 762.41 878.688 762.41 Q870.464 762.41 865.279 755.848 Q860.135 749.285 860.135 738.591 Q860.135 727.896 865.279 721.334 Q870.464 714.772 878.688 714.772 Q883.711 714.772 887.276 716.756 Q890.881 718.701 893.231 722.752 L893.231 715.865 L900.684 715.865 L900.684 778.492 L893.231 778.492 L893.231 754.43 Z" fill="#000000" fill-rule="evenodd" fill-opacity="1" /><path clip-path="url(#clip600)" d="M 0 0 M907.733 743.33 L907.733 715.865 L915.186 715.865 L915.186 743.047 Q915.186 749.488 917.698 752.728 Q920.21 755.929 925.233 755.929 Q931.269 755.929 934.752 752.08 Q938.277 748.232 938.277 741.588 L938.277 715.865 L945.73 715.865 L945.73 761.235 L938.277 761.235 L938.277 754.268 Q935.563 758.4 931.957 760.425 Q928.392 762.41 923.653 762.41 Q915.835 762.41 911.784 757.549 Q907.733 752.688 907.733 743.33 M926.489 714.772 L926.489 714.772 Z" fill="#000000" fill-rule="evenodd" fill-opacity="1" /><path clip-path="url(#clip600)" d="M 0 0 M992.356 736.687 L992.356 740.333 L958.086 740.333 Q958.572 748.029 962.704 752.08 Q966.876 756.091 974.289 756.091 Q978.583 756.091 982.594 755.037 Q986.644 753.984 990.614 751.878 L990.614 758.926 Q986.604 760.628 982.391 761.519 Q978.178 762.41 973.844 762.41 Q962.987 762.41 956.627 756.091 Q950.308 749.771 950.308 738.996 Q950.308 727.856 956.303 721.334 Q962.339 714.772 972.547 714.772 Q981.702 714.772 987.009 720.686 Q992.356 726.56 992.356 736.687 M984.903 734.499 Q984.822 728.383 981.459 724.737 Q978.138 721.091 972.628 721.091 Q966.39 721.091 962.623 724.615 Q958.896 728.139 958.329 734.54 L984.903 734.499 Z" fill="#000000" fill-rule="evenodd" fill-opacity="1" /><path clip-path="url(#clip600)" d="M 0 0 M1029.1 717.202 L1029.1 724.251 Q1025.94 722.63 1022.54 721.82 Q1019.13 721.01 1015.49 721.01 Q1009.94 721.01 1007.14 722.711 Q1004.39 724.413 1004.39 727.815 Q1004.39 730.408 1006.37 731.907 Q1008.36 733.365 1014.35 734.702 L1016.9 735.269 Q1024.84 736.97 1028.17 740.09 Q1031.53 743.168 1031.53 748.718 Q1031.53 755.037 1026.51 758.724 Q1021.52 762.41 1012.77 762.41 Q1009.13 762.41 1005.16 761.681 Q1001.23 760.992 996.853 759.575 L996.853 751.878 Q1000.98 754.025 1005 755.119 Q1009.01 756.172 1012.93 756.172 Q1018.2 756.172 1021.04 754.389 Q1023.87 752.566 1023.87 749.285 Q1023.87 746.247 1021.81 744.627 Q1019.78 743.006 1012.85 741.507 L1010.26 740.9 Q1003.33 739.442 1000.26 736.444 Q997.177 733.406 997.177 728.139 Q997.177 721.739 1001.71 718.255 Q1006.25 714.772 1014.6 714.772 Q1018.73 714.772 1022.37 715.379 Q1026.02 715.987 1029.1 717.202 Z" fill="#000000" fill-rule="evenodd" fill-opacity="1" /><path clip-path="url(#clip600)" d="M 0 0 M1046.72 702.983 L1046.72 715.865 L1062.07 715.865 L1062.07 721.658 L1046.72 721.658 L1046.72 746.288 Q1046.72 751.837 1048.22 753.417 Q1049.76 754.997 1054.42 754.997 L1062.07 754.997 L1062.07 761.235 L1054.42 761.235 Q1045.79 761.235 1042.51 758.035 Q1039.23 754.794 1039.23 746.288 L1039.23 721.658 L1033.76 721.658 L1033.76 715.865 L1039.23 715.865 L1039.23 702.983 L1046.72 702.983 Z" fill="#000000" fill-rule="evenodd" fill-opacity="1" /><path clip-path="url(#clip600)" d="M 0 0 M1098.81 717.202 L1098.81 724.251 Q1095.65 722.63 1092.25 721.82 Q1088.85 721.01 1085.2 721.01 Q1079.65 721.01 1076.86 722.711 Q1074.1 724.413 1074.1 727.815 Q1074.1 730.408 1076.09 731.907 Q1078.07 733.365 1084.07 734.702 L1086.62 735.269 Q1094.56 736.97 1097.88 740.09 Q1101.24 743.168 1101.24 748.718 Q1101.24 755.037 1096.22 758.724 Q1091.24 762.41 1082.49 762.41 Q1078.84 762.41 1074.87 761.681 Q1070.94 760.992 1066.57 759.575 L1066.57 751.878 Q1070.7 754.025 1074.71 755.119 Q1078.72 756.172 1082.65 756.172 Q1087.92 756.172 1090.75 754.389 Q1093.59 752.566 1093.59 749.285 Q1093.59 746.247 1091.52 744.627 Q1089.5 743.006 1082.57 741.507 L1079.98 740.9 Q1073.05 739.442 1069.97 736.444 Q1066.89 733.406 1066.89 728.139 Q1066.89 721.739 1071.43 718.255 Q1075.97 714.772 1084.31 714.772 Q1088.44 714.772 1092.09 715.379 Q1095.74 715.987 1098.81 717.202 Z" fill="#000000" fill-rule="evenodd" fill-opacity="1" /><path clip-path="url(#clip600)" d="M 0 0 M-172.286 138.143 L-172.286 185.174 L-162.402 185.174 Q-149.885 185.174 -144.092 179.502 Q-138.259 173.831 -138.259 161.597 Q-138.259 149.445 -144.092 143.814 Q-149.885 138.143 -162.402 138.143 L-172.286 138.143 M-180.469 131.418 L-163.658 131.418 Q-146.077 131.418 -137.854 138.75 Q-129.63 146.042 -129.63 161.597 Q-129.63 177.234 -137.894 184.566 Q-146.158 191.898 -163.658 191.898 L-180.469 191.898 L-180.469 131.418 Z" fill="#000000" fill-rule="evenodd" fill-opacity="1" /><path clip-path="url(#clip600)" d="M 0 0 M-83.0045 167.35 L-83.0045 170.995 L-117.275 170.995 Q-116.789 178.692 -112.657 182.743 Q-108.485 186.754 -101.072 186.754 Q-96.7776 186.754 -92.7672 185.7 Q-88.7163 184.647 -84.7464 182.541 L-84.7464 189.589 Q-88.7568 191.291 -92.9697 192.182 Q-97.1827 193.073 -101.517 193.073 Q-112.374 193.073 -118.733 186.754 Q-125.053 180.434 -125.053 169.659 Q-125.053 158.519 -119.058 151.997 Q-113.022 145.434 -102.813 145.434 Q-93.6584 145.434 -88.3517 151.349 Q-83.0045 157.222 -83.0045 167.35 M-90.4582 165.162 Q-90.5392 159.045 -93.9014 155.4 Q-97.2232 151.754 -102.732 151.754 Q-108.971 151.754 -112.738 155.278 Q-116.465 158.802 -117.032 165.203 L-90.4582 165.162 Z" fill="#000000" fill-rule="evenodd" fill-opacity="1" /><path clip-path="url(#clip600)" d="M 0 0 M-46.2628 147.865 L-46.2628 154.913 Q-49.4225 153.293 -52.8253 152.483 Q-56.228 151.673 -59.8738 151.673 Q-65.4236 151.673 -68.2187 153.374 Q-70.9733 155.075 -70.9733 158.478 Q-70.9733 161.071 -68.9884 162.57 Q-67.0034 164.028 -61.0081 165.365 L-58.456 165.932 Q-50.5162 167.633 -47.1945 170.752 Q-43.8322 173.831 -43.8322 179.381 Q-43.8322 185.7 -48.8554 189.387 Q-53.838 193.073 -62.5879 193.073 Q-66.2337 193.073 -70.2036 192.344 Q-74.133 191.655 -78.508 190.237 L-78.508 182.541 Q-74.3761 184.688 -70.3657 185.781 Q-66.3553 186.835 -62.4259 186.835 Q-57.1597 186.835 -54.3241 185.052 Q-51.4885 183.229 -51.4885 179.948 Q-51.4885 176.91 -53.5544 175.289 Q-55.5799 173.669 -62.5069 172.17 L-65.0995 171.563 Q-72.0265 170.104 -75.1052 167.107 Q-78.1839 164.068 -78.1839 158.802 Q-78.1839 152.402 -73.6469 148.918 Q-69.1099 145.434 -60.765 145.434 Q-56.6331 145.434 -52.9873 146.042 Q-49.3415 146.65 -46.2628 147.865 Z" fill="#000000" fill-rule="evenodd" fill-opacity="1" /><path clip-path="url(#clip600)" d="M 0 0 M-36.014 146.528 L-28.5603 146.528 L-28.5603 191.898 L-36.014 191.898 L-36.014 146.528 M-36.014 128.866 L-28.5603 128.866 L-28.5603 138.305 L-36.014 138.305 L-36.014 128.866 Z" fill="#000000" fill-rule="evenodd" fill-opacity="1" /><path clip-path="url(#clip600)" d="M 0 0 M9.11307 168.686 Q9.11307 160.585 5.75082 156.129 Q2.42908 151.673 -3.60677 151.673 Q-9.60211 151.673 -12.9644 156.129 Q-16.2861 160.585 -16.2861 168.686 Q-16.2861 176.748 -12.9644 181.204 Q-9.60211 185.66 -3.60677 185.66 Q2.42908 185.66 5.75082 181.204 Q9.11307 176.748 9.11307 168.686 M16.5667 186.267 Q16.5667 197.853 11.4221 203.484 Q6.27744 209.155 -4.33593 209.155 Q-8.26531 209.155 -11.7491 208.547 Q-15.2329 207.98 -18.5141 206.765 L-18.5141 199.514 Q-15.2329 201.296 -12.0327 202.147 Q-8.83244 202.998 -5.5107 202.998 Q1.82144 202.998 5.46725 199.149 Q9.11307 195.341 9.11307 187.604 L9.11307 183.918 Q6.80405 187.928 3.19875 189.913 Q-0.406556 191.898 -5.42968 191.898 Q-13.7745 191.898 -18.8787 185.538 Q-23.9828 179.178 -23.9828 168.686 Q-23.9828 158.154 -18.8787 151.794 Q-13.7745 145.434 -5.42968 145.434 Q-0.406556 145.434 3.19875 147.419 Q6.80405 149.404 9.11307 153.415 L9.11307 146.528 L16.5667 146.528 L16.5667 186.267 Z" fill="#000000" fill-rule="evenodd" fill-opacity="1" /><path clip-path="url(#clip600)" d="M 0 0 M62.0989 164.514 L62.0989 191.898 L54.6452 191.898 L54.6452 164.757 Q54.6452 158.316 52.1337 155.116 Q49.6221 151.916 44.599 151.916 Q38.5631 151.916 35.0794 155.764 Q31.5956 159.612 31.5956 166.256 L31.5956 191.898 L24.1014 191.898 L24.1014 146.528 L31.5956 146.528 L31.5956 153.577 Q34.2692 149.485 37.8745 147.46 Q41.5203 145.434 46.2599 145.434 Q54.0781 145.434 58.0885 150.295 Q62.0989 155.116 62.0989 164.514 Z" fill="#000000" fill-rule="evenodd" fill-opacity="1" /><path clip-path="url(#clip600)" d="M 0 0 M104.39 205.671 L104.39 211.464 L61.2887 211.464 L61.2887 205.671 L104.39 205.671 Z" fill="#000000" fill-rule="evenodd" fill-opacity="1" /><path clip-path="url(#clip600)" d="M 0 0 M141.213 163.542 Q143.846 164.433 146.317 167.35 Q148.829 170.266 151.34 175.37 L159.645 191.898 L150.854 191.898 L143.117 176.383 Q140.119 170.307 137.284 168.322 Q134.489 166.337 129.627 166.337 L120.715 166.337 L120.715 191.898 L112.533 191.898 L112.533 131.418 L131.005 131.418 Q141.375 131.418 146.479 135.753 Q151.583 140.087 151.583 148.837 Q151.583 154.549 148.91 158.316 Q146.277 162.084 141.213 163.542 M120.715 138.143 L120.715 159.612 L131.005 159.612 Q136.919 159.612 139.917 156.898 Q142.955 154.144 142.955 148.837 Q142.955 143.53 139.917 140.857 Q136.919 138.143 131.005 138.143 L120.715 138.143 Z" fill="#000000" fill-rule="evenodd" fill-opacity="1" /><path clip-path="url(#clip600)" d="M 0 0 M202.544 167.35 L202.544 170.995 L168.273 170.995 Q168.759 178.692 172.891 182.743 Q177.064 186.754 184.477 186.754 Q188.771 186.754 192.781 185.7 Q196.832 184.647 200.802 182.541 L200.802 189.589 Q196.791 191.291 192.579 192.182 Q188.366 193.073 184.031 193.073 Q173.175 193.073 166.815 186.754 Q160.495 180.434 160.495 169.659 Q160.495 158.519 166.491 151.997 Q172.527 145.434 182.735 145.434 Q191.89 145.434 197.197 151.349 Q202.544 157.222 202.544 167.35 M195.09 165.162 Q195.009 159.045 191.647 155.4 Q188.325 151.754 182.816 151.754 Q176.577 151.754 172.81 155.278 Q169.083 158.802 168.516 165.203 L195.09 165.162 Z" fill="#000000" fill-rule="evenodd" fill-opacity="1" /><path clip-path="url(#clip600)" d="M 0 0 M230.981 169.092 Q221.948 169.092 218.464 171.158 Q214.98 173.223 214.98 178.206 Q214.98 182.176 217.573 184.526 Q220.206 186.835 224.702 186.835 Q230.9 186.835 234.627 182.46 Q238.394 178.044 238.394 170.752 L238.394 169.092 L230.981 169.092 M245.848 166.013 L245.848 191.898 L238.394 191.898 L238.394 185.012 Q235.842 189.144 232.034 191.128 Q228.226 193.073 222.717 193.073 Q215.75 193.073 211.618 189.184 Q207.526 185.255 207.526 178.692 Q207.526 171.036 212.63 167.147 Q217.775 163.258 227.943 163.258 L238.394 163.258 L238.394 162.529 Q238.394 157.384 234.991 154.589 Q231.629 151.754 225.512 151.754 Q221.624 151.754 217.937 152.685 Q214.251 153.617 210.848 155.481 L210.848 148.594 Q214.94 147.014 218.788 146.244 Q222.636 145.434 226.282 145.434 Q236.126 145.434 240.987 150.538 Q245.848 155.643 245.848 166.013 Z" fill="#000000" fill-rule="evenodd" fill-opacity="1" /><path clip-path="url(#clip600)" d="M 0 0 M282.59 147.865 L282.59 154.913 Q279.43 153.293 276.027 152.483 Q272.624 151.673 268.979 151.673 Q263.429 151.673 260.634 153.374 Q257.879 155.075 257.879 158.478 Q257.879 161.071 259.864 162.57 Q261.849 164.028 267.844 165.365 L270.396 165.932 Q278.336 167.633 281.658 170.752 Q285.02 173.831 285.02 179.381 Q285.02 185.7 279.997 189.387 Q275.014 193.073 266.264 193.073 Q262.619 193.073 258.649 192.344 Q254.719 191.655 250.344 190.237 L250.344 182.541 Q254.476 184.688 258.487 185.781 Q262.497 186.835 266.427 186.835 Q271.693 186.835 274.528 185.052 Q277.364 183.229 277.364 179.948 Q277.364 176.91 275.298 175.289 Q273.273 173.669 266.345 172.17 L263.753 171.563 Q256.826 170.104 253.747 167.107 Q250.668 164.068 250.668 158.802 Q250.668 152.402 255.205 148.918 Q259.743 145.434 268.087 145.434 Q272.219 145.434 275.865 146.042 Q279.511 146.65 282.59 147.865 Z" fill="#000000" fill-rule="evenodd" fill-opacity="1" /><path clip-path="url(#clip600)" d="M 0 0 M310.419 151.754 Q304.424 151.754 300.94 156.453 Q297.456 161.111 297.456 169.254 Q297.456 177.396 300.9 182.095 Q304.383 186.754 310.419 186.754 Q316.374 186.754 319.858 182.054 Q323.342 177.355 323.342 169.254 Q323.342 161.192 319.858 156.493 Q316.374 151.754 310.419 151.754 M310.419 145.434 Q320.141 145.434 325.691 151.754 Q331.241 158.073 331.241 169.254 Q331.241 180.394 325.691 186.754 Q320.141 193.073 310.419 193.073 Q300.657 193.073 295.107 186.754 Q289.598 180.394 289.598 169.254 Q289.598 158.073 295.107 151.754 Q300.657 145.434 310.419 145.434 Z" fill="#000000" fill-rule="evenodd" fill-opacity="1" /><path clip-path="url(#clip600)" d="M 0 0 M376.773 164.514 L376.773 191.898 L369.319 191.898 L369.319 164.757 Q369.319 158.316 366.808 155.116 Q364.296 151.916 359.273 151.916 Q353.237 151.916 349.754 155.764 Q346.27 159.612 346.27 166.256 L346.27 191.898 L338.776 191.898 L338.776 146.528 L346.27 146.528 L346.27 153.577 Q348.943 149.485 352.549 147.46 Q356.195 145.434 360.934 145.434 Q368.752 145.434 372.763 150.295 Q376.773 155.116 376.773 164.514 Z" fill="#000000" fill-rule="evenodd" fill-opacity="1" /><path clip-path="url(#clip600)" d="M 0 0 M384.591 146.528 L392.045 146.528 L392.045 191.898 L384.591 191.898 L384.591 146.528 M384.591 128.866 L392.045 128.866 L392.045 138.305 L384.591 138.305 L384.591 128.866 Z" fill="#000000" fill-rule="evenodd" fill-opacity="1" /><path clip-path="url(#clip600)" d="M 0 0 M437.577 164.514 L437.577 191.898 L430.124 191.898 L430.124 164.757 Q430.124 158.316 427.612 155.116 Q425.1 151.916 420.077 151.916 Q414.041 151.916 410.558 155.764 Q407.074 159.612 407.074 166.256 L407.074 191.898 L399.58 191.898 L399.58 146.528 L407.074 146.528 L407.074 153.577 Q409.747 149.485 413.353 147.46 Q416.999 145.434 421.738 145.434 Q429.556 145.434 433.567 150.295 Q437.577 155.116 437.577 164.514 Z" fill="#000000" fill-rule="evenodd" fill-opacity="1" /><path clip-path="url(#clip600)" d="M 0 0 M475.251 168.686 Q475.251 160.585 471.888 156.129 Q468.567 151.673 462.531 151.673 Q456.535 151.673 453.173 156.129 Q449.851 160.585 449.851 168.686 Q449.851 176.748 453.173 181.204 Q456.535 185.66 462.531 185.66 Q468.567 185.66 471.888 181.204 Q475.251 176.748 475.251 168.686 M482.704 186.267 Q482.704 197.853 477.56 203.484 Q472.415 209.155 461.802 209.155 Q457.872 209.155 454.388 208.547 Q450.905 207.98 447.623 206.765 L447.623 199.514 Q450.905 201.296 454.105 202.147 Q457.305 202.998 460.627 202.998 Q467.959 202.998 471.605 199.149 Q475.251 195.341 475.251 187.604 L475.251 183.918 Q472.942 187.928 469.336 189.913 Q465.731 191.898 460.708 191.898 Q452.363 191.898 447.259 185.538 Q442.155 179.178 442.155 168.686 Q442.155 158.154 447.259 151.794 Q452.363 145.434 460.708 145.434 Q465.731 145.434 469.336 147.419 Q472.942 149.404 475.251 153.415 L475.251 146.528 L482.704 146.528 L482.704 186.267 Z" fill="#000000" fill-rule="evenodd" fill-opacity="1" /><path clip-path="url(#clip600)" d="M 0 0 M1241.76 1453.72 L1241.76 1462.34 Q1237.63 1458.5 1232.93 1456.59 Q1228.27 1454.69 1223 1454.69 Q1212.63 1454.69 1207.12 1461.05 Q1201.61 1467.37 1201.61 1479.36 Q1201.61 1491.31 1207.12 1497.67 Q1212.63 1503.99 1223 1503.99 Q1228.27 1503.99 1232.93 1502.08 Q1237.63 1500.18 1241.76 1496.33 L1241.76 1504.88 Q1237.47 1507.8 1232.64 1509.25 Q1227.86 1510.71 1222.52 1510.71 Q1208.78 1510.71 1200.89 1502.33 Q1192.99 1493.9 1192.99 1479.36 Q1192.99 1464.78 1200.89 1456.39 Q1208.78 1447.96 1222.52 1447.96 Q1227.95 1447.96 1232.73 1449.42 Q1237.55 1450.84 1241.76 1453.72 Z" fill="#000000" fill-rule="evenodd" fill-opacity="1" /><path clip-path="url(#clip600)" d="M 0 0 M1267.16 1469.39 Q1261.16 1469.39 1257.68 1474.09 Q1254.2 1478.75 1254.2 1486.89 Q1254.2 1495.04 1257.64 1499.73 Q1261.12 1504.39 1267.16 1504.39 Q1273.11 1504.39 1276.6 1499.69 Q1280.08 1494.99 1280.08 1486.89 Q1280.08 1478.83 1276.6 1474.13 Q1273.11 1469.39 1267.16 1469.39 M1267.16 1463.07 Q1276.88 1463.07 1282.43 1469.39 Q1287.98 1475.71 1287.98 1486.89 Q1287.98 1498.03 1282.43 1504.39 Q1276.88 1510.71 1267.16 1510.71 Q1257.4 1510.71 1251.85 1504.39 Q1246.34 1498.03 1246.34 1486.89 Q1246.34 1475.71 1251.85 1469.39 Q1257.4 1463.07 1267.16 1463.07 Z" fill="#000000" fill-rule="evenodd" fill-opacity="1" /><path clip-path="url(#clip600)" d="M 0 0 M1295.8 1446.51 L1303.25 1446.51 L1303.25 1509.54 L1295.8 1509.54 L1295.8 1446.51 Z" fill="#000000" fill-rule="evenodd" fill-opacity="1" /><path clip-path="url(#clip600)" d="M 0 0 M1311.07 1446.51 L1318.52 1446.51 L1318.52 1509.54 L1311.07 1509.54 L1311.07 1446.51 Z" fill="#000000" fill-rule="evenodd" fill-opacity="1" /><path clip-path="url(#clip600)" d="M 0 0 M1346.96 1486.73 Q1337.93 1486.73 1334.44 1488.8 Q1330.96 1490.86 1330.96 1495.85 Q1330.96 1499.82 1333.55 1502.16 Q1336.19 1504.47 1340.68 1504.47 Q1346.88 1504.47 1350.61 1500.1 Q1354.37 1495.68 1354.37 1488.39 L1354.37 1486.73 L1346.96 1486.73 M1361.83 1483.65 L1361.83 1509.54 L1354.37 1509.54 L1354.37 1502.65 Q1351.82 1506.78 1348.01 1508.77 Q1344.21 1510.71 1338.7 1510.71 Q1331.73 1510.71 1327.6 1506.82 Q1323.51 1502.89 1323.51 1496.33 Q1323.51 1488.68 1328.61 1484.79 Q1333.76 1480.9 1343.92 1480.9 L1354.37 1480.9 L1354.37 1480.17 Q1354.37 1475.02 1350.97 1472.23 Q1347.61 1469.39 1341.49 1469.39 Q1337.6 1469.39 1333.92 1470.32 Q1330.23 1471.26 1326.83 1473.12 L1326.83 1466.23 Q1330.92 1464.65 1334.77 1463.88 Q1338.62 1463.07 1342.26 1463.07 Q1352.11 1463.07 1356.97 1468.18 Q1361.83 1473.28 1361.83 1483.65 Z" fill="#000000" fill-rule="evenodd" fill-opacity="1" /><path clip-path="url(#clip600)" d="M 0 0 M1402.22 1486.89 Q1402.22 1478.67 1398.81 1474.01 Q1395.45 1469.31 1389.54 1469.31 Q1383.62 1469.31 1380.22 1474.01 Q1376.86 1478.67 1376.86 1486.89 Q1376.86 1495.12 1380.22 1499.82 Q1383.62 1504.47 1389.54 1504.47 Q1395.45 1504.47 1398.81 1499.82 Q1402.22 1495.12 1402.22 1486.89 M1376.86 1471.05 Q1379.21 1467 1382.77 1465.06 Q1386.38 1463.07 1391.36 1463.07 Q1399.62 1463.07 1404.77 1469.64 Q1409.95 1476.2 1409.95 1486.89 Q1409.95 1497.59 1404.77 1504.15 Q1399.62 1510.71 1391.36 1510.71 Q1386.38 1510.71 1382.77 1508.77 Q1379.21 1506.78 1376.86 1502.73 L1376.86 1509.54 L1369.36 1509.54 L1369.36 1446.51 L1376.86 1446.51 L1376.86 1471.05 Z" fill="#000000" fill-rule="evenodd" fill-opacity="1" /><path clip-path="url(#clip600)" d="M 0 0 M1435.35 1469.39 Q1429.36 1469.39 1425.87 1474.09 Q1422.39 1478.75 1422.39 1486.89 Q1422.39 1495.04 1425.83 1499.73 Q1429.32 1504.39 1435.35 1504.39 Q1441.31 1504.39 1444.79 1499.69 Q1448.27 1494.99 1448.27 1486.89 Q1448.27 1478.83 1444.79 1474.13 Q1441.31 1469.39 1435.35 1469.39 M1435.35 1463.07 Q1445.07 1463.07 1450.62 1469.39 Q1456.17 1475.71 1456.17 1486.89 Q1456.17 1498.03 1450.62 1504.39 Q1445.07 1510.71 1435.35 1510.71 Q1425.59 1510.71 1420.04 1504.39 Q1414.53 1498.03 1414.53 1486.89 Q1414.53 1475.71 1420.04 1469.39 Q1425.59 1463.07 1435.35 1463.07 Z" fill="#000000" fill-rule="evenodd" fill-opacity="1" /><path clip-path="url(#clip600)" d="M 0 0 M1490.28 1471.14 Q1489.03 1470.41 1487.53 1470.08 Q1486.07 1469.72 1484.29 1469.72 Q1477.97 1469.72 1474.56 1473.85 Q1471.2 1477.94 1471.2 1485.64 L1471.2 1509.54 L1463.71 1509.54 L1463.71 1464.17 L1471.2 1464.17 L1471.2 1471.22 Q1473.55 1467.08 1477.32 1465.1 Q1481.09 1463.07 1486.47 1463.07 Q1487.24 1463.07 1488.18 1463.2 Q1489.11 1463.28 1490.24 1463.48 L1490.28 1471.14 Z" fill="#000000" fill-rule="evenodd" fill-opacity="1" /><path clip-path="url(#clip600)" d="M 0 0 M1518.72 1486.73 Q1509.69 1486.73 1506.2 1488.8 Q1502.72 1490.86 1502.72 1495.85 Q1502.72 1499.82 1505.31 1502.16 Q1507.94 1504.47 1512.44 1504.47 Q1518.64 1504.47 1522.37 1500.1 Q1526.13 1495.68 1526.13 1488.39 L1526.13 1486.73 L1518.72 1486.73 M1533.59 1483.65 L1533.59 1509.54 L1526.13 1509.54 L1526.13 1502.65 Q1523.58 1506.78 1519.77 1508.77 Q1515.97 1510.71 1510.46 1510.71 Q1503.49 1510.71 1499.36 1506.82 Q1495.26 1502.89 1495.26 1496.33 Q1495.26 1488.68 1500.37 1484.79 Q1505.51 1480.9 1515.68 1480.9 L1526.13 1480.9 L1526.13 1480.17 Q1526.13 1475.02 1522.73 1472.23 Q1519.37 1469.39 1513.25 1469.39 Q1509.36 1469.39 1505.68 1470.32 Q1501.99 1471.26 1498.59 1473.12 L1498.59 1466.23 Q1502.68 1464.65 1506.53 1463.88 Q1510.37 1463.07 1514.02 1463.07 Q1523.86 1463.07 1528.73 1468.18 Q1533.59 1473.28 1533.59 1483.65 Z" fill="#000000" fill-rule="evenodd" fill-opacity="1" /><path clip-path="url(#clip600)" d="M 0 0 M1548.78 1451.29 L1548.78 1464.17 L1564.13 1464.17 L1564.13 1469.96 L1548.78 1469.96 L1548.78 1494.59 Q1548.78 1500.14 1550.28 1501.72 Q1551.82 1503.3 1556.47 1503.3 L1564.13 1503.3 L1564.13 1509.54 L1556.47 1509.54 Q1547.85 1509.54 1544.56 1506.34 Q1541.28 1503.1 1541.28 1494.59 L1541.28 1469.96 L1535.81 1469.96 L1535.81 1464.17 L1541.28 1464.17 L1541.28 1451.29 L1548.78 1451.29 Z" fill="#000000" fill-rule="evenodd" fill-opacity="1" /><path clip-path="url(#clip600)" d="M 0 0 M1571.95 1464.17 L1579.4 1464.17 L1579.4 1509.54 L1571.95 1509.54 L1571.95 1464.17 M1571.95 1446.51 L1579.4 1446.51 L1579.4 1455.94 L1571.95 1455.94 L1571.95 1446.51 Z" fill="#000000" fill-rule="evenodd" fill-opacity="1" /><path clip-path="url(#clip600)" d="M 0 0 M1604.8 1469.39 Q1598.81 1469.39 1595.32 1474.09 Q1591.84 1478.75 1591.84 1486.89 Q1591.84 1495.04 1595.28 1499.73 Q1598.77 1504.39 1604.8 1504.39 Q1610.76 1504.39 1614.24 1499.69 Q1617.72 1494.99 1617.72 1486.89 Q1617.72 1478.83 1614.24 1474.13 Q1610.76 1469.39 1604.8 1469.39 M1604.8 1463.07 Q1614.52 1463.07 1620.07 1469.39 Q1625.62 1475.71 1625.62 1486.89 Q1625.62 1498.03 1620.07 1504.39 Q1614.52 1510.71 1604.8 1510.71 Q1595.04 1510.71 1589.49 1504.39 Q1583.98 1498.03 1583.98 1486.89 Q1583.98 1475.71 1589.49 1469.39 Q1595.04 1463.07 1604.8 1463.07 Z" fill="#000000" fill-rule="evenodd" fill-opacity="1" /><path clip-path="url(#clip600)" d="M 0 0 M1671.16 1482.15 L1671.16 1509.54 L1663.7 1509.54 L1663.7 1482.4 Q1663.7 1475.96 1661.19 1472.76 Q1658.68 1469.56 1653.66 1469.56 Q1647.62 1469.56 1644.14 1473.4 Q1640.65 1477.25 1640.65 1483.9 L1640.65 1509.54 L1633.16 1509.54 L1633.16 1464.17 L1640.65 1464.17 L1640.65 1471.22 Q1643.33 1467.12 1646.93 1465.1 Q1650.58 1463.07 1655.32 1463.07 Q1663.13 1463.07 1667.14 1467.93 Q1671.16 1472.76 1671.16 1482.15 Z" fill="#000000" fill-rule="evenodd" fill-opacity="1" /></svg>
