<?xml version="1.0" encoding="utf-8"?>
<svg xmlns="http://www.w3.org/2000/svg" xmlns:xlink="http://www.w3.org/1999/xlink" width="600" height="400" viewBox="0 0 2400 1600">
<defs>
  <clipPath id="clip660">
    <rect x="0" y="0" width="2400" height="1600"/>
  </clipPath>
</defs>
<path clip-path="url(#clip660)" d="
M0 1600 L2400 1600 L2400 0 L0 0  Z
  " fill="#ffffff" fill-rule="evenodd" fill-opacity="1"/>
<defs>
  <clipPath id="clip661">
    <rect x="480" y="0" width="1681" height="1600"/>
  </clipPath>
</defs>
<path clip-path="url(#clip660)" d="
M228.724 1379.28 L2211.02 1379.28 L2211.02 188.976 L228.724 188.976  Z
  " fill="#ffffff" fill-rule="evenodd" fill-opacity="1"/>
<defs>
  <clipPath id="clip662">
    <rect x="228" y="188" width="1983" height="1191"/>
  </clipPath>
</defs>
<polyline clip-path="url(#clip662)" style="stroke:#000000; stroke-width:2; stroke-opacity:0.1; fill:none" points="
  1219.87,1379.28 1219.87,188.976 
  "/>
<polyline clip-path="url(#clip662)" style="stroke:#000000; stroke-width:2; stroke-opacity:0.1; fill:none" points="
  228.724,784.126 2211.02,784.126 
  "/>
<polyline clip-path="url(#clip660)" style="stroke:#000000; stroke-width:4; stroke-opacity:1; fill:none" points="
  228.724,1379.28 2211.02,1379.28 
  "/>
<polyline clip-path="url(#clip660)" style="stroke:#000000; stroke-width:4; stroke-opacity:1; fill:none" points="
  228.724,1379.28 228.724,188.976 
  "/>
<polyline clip-path="url(#clip660)" style="stroke:#000000; stroke-width:4; stroke-opacity:1; fill:none" points="
  1219.87,1379.28 1219.87,1364.99 
  "/>
<polyline clip-path="url(#clip660)" style="stroke:#000000; stroke-width:4; stroke-opacity:1; fill:none" points="
  228.724,784.126 252.512,784.126 
  "/>
<path clip-path="url(#clip660)" d="M 0 0 M1219.87 1401.27 Q1216.26 1401.27 1214.43 1404.83 Q1212.63 1408.37 1212.63 1415.5 Q1212.63 1422.61 1214.43 1426.17 Q1216.26 1429.72 1219.87 1429.72 Q1223.51 1429.72 1225.31 1426.17 Q1227.14 1422.61 1227.14 1415.5 Q1227.14 1408.37 1225.31 1404.83 Q1223.51 1401.27 1219.87 1401.27 M1219.87 1397.56 Q1225.68 1397.56 1228.74 1402.17 Q1231.82 1406.75 1231.82 1415.5 Q1231.82 1424.23 1228.74 1428.84 Q1225.68 1433.42 1219.87 1433.42 Q1214.06 1433.42 1210.99 1428.84 Q1207.93 1424.23 1207.93 1415.5 Q1207.93 1406.75 1210.99 1402.17 Q1214.06 1397.56 1219.87 1397.56 Z" fill="#000000" fill-rule="evenodd" fill-opacity="1" /><path clip-path="url(#clip660)" d="M 0 0 M192.78 769.925 Q189.169 769.925 187.34 773.489 Q185.535 777.031 185.535 784.161 Q185.535 791.267 187.34 794.832 Q189.169 798.374 192.78 798.374 Q196.414 798.374 198.22 794.832 Q200.049 791.267 200.049 784.161 Q200.049 777.031 198.22 773.489 Q196.414 769.925 192.78 769.925 M192.78 766.221 Q198.59 766.221 201.646 770.827 Q204.724 775.411 204.724 784.161 Q204.724 792.888 201.646 797.494 Q198.59 802.077 192.78 802.077 Q186.97 802.077 183.891 797.494 Q180.836 792.888 180.836 784.161 Q180.836 775.411 183.891 770.827 Q186.97 766.221 192.78 766.221 Z" fill="#000000" fill-rule="evenodd" fill-opacity="1" /><circle clip-path="url(#clip662)" cx="1230.76" cy="805.048" r="14" fill="#808080" fill-rule="evenodd" fill-opacity="1" stroke="none"/>
<circle clip-path="url(#clip662)" cx="1203.27" cy="779.658" r="14" fill="#808080" fill-rule="evenodd" fill-opacity="1" stroke="none"/>
<circle clip-path="url(#clip662)" cx="1191.51" cy="788.294" r="14" fill="#808080" fill-rule="evenodd" fill-opacity="1" stroke="none"/>
<circle clip-path="url(#clip662)" cx="1214.41" cy="782.575" r="14" fill="#808080" fill-rule="evenodd" fill-opacity="1" stroke="none"/>
<circle clip-path="url(#clip662)" cx="1119.28" cy="840.331" r="14" fill="#808080" fill-rule="evenodd" fill-opacity="1" stroke="none"/>
<circle clip-path="url(#clip662)" cx="1173.64" cy="798.083" r="14" fill="#808080" fill-rule="evenodd" fill-opacity="1" stroke="none"/>
<circle clip-path="url(#clip662)" cx="977.587" cy="850.971" r="14" fill="#808080" fill-rule="evenodd" fill-opacity="1" stroke="none"/>
<circle clip-path="url(#clip662)" cx="1175.67" cy="785.737" r="14" fill="#808080" fill-rule="evenodd" fill-opacity="1" stroke="none"/>
<circle clip-path="url(#clip662)" cx="1210" cy="789.841" r="14" fill="#808080" fill-rule="evenodd" fill-opacity="1" stroke="none"/>
<circle clip-path="url(#clip662)" cx="1196.66" cy="802.599" r="14" fill="#808080" fill-rule="evenodd" fill-opacity="1" stroke="none"/>
<circle clip-path="url(#clip662)" cx="1074.29" cy="747.314" r="14" fill="#808080" fill-rule="evenodd" fill-opacity="1" stroke="none"/>
<circle clip-path="url(#clip662)" cx="1235.23" cy="809.296" r="14" fill="#808080" fill-rule="evenodd" fill-opacity="1" stroke="none"/>
<circle clip-path="url(#clip662)" cx="1177.33" cy="769.746" r="14" fill="#808080" fill-rule="evenodd" fill-opacity="1" stroke="none"/>
<circle clip-path="url(#clip662)" cx="1119.28" cy="840.331" r="14" fill="#808080" fill-rule="evenodd" fill-opacity="1" stroke="none"/>
<circle clip-path="url(#clip662)" cx="1214.97" cy="780.04" r="14" fill="#808080" fill-rule="evenodd" fill-opacity="1" stroke="none"/>
<circle clip-path="url(#clip662)" cx="1209.94" cy="804.681" r="14" fill="#808080" fill-rule="evenodd" fill-opacity="1" stroke="none"/>
<circle clip-path="url(#clip662)" cx="1181.57" cy="812.813" r="14" fill="#808080" fill-rule="evenodd" fill-opacity="1" stroke="none"/>
<circle clip-path="url(#clip662)" cx="1195.53" cy="822.042" r="14" fill="#808080" fill-rule="evenodd" fill-opacity="1" stroke="none"/>
<circle clip-path="url(#clip662)" cx="1205.58" cy="807.367" r="14" fill="#808080" fill-rule="evenodd" fill-opacity="1" stroke="none"/>
<circle clip-path="url(#clip662)" cx="1215.74" cy="775.873" r="14" fill="#808080" fill-rule="evenodd" fill-opacity="1" stroke="none"/>
<circle clip-path="url(#clip662)" cx="1131.39" cy="853.86" r="14" fill="#808080" fill-rule="evenodd" fill-opacity="1" stroke="none"/>
<circle clip-path="url(#clip662)" cx="1271.82" cy="805.159" r="14" fill="#808080" fill-rule="evenodd" fill-opacity="1" stroke="none"/>
<circle clip-path="url(#clip662)" cx="1274.43" cy="817.268" r="14" fill="#808080" fill-rule="evenodd" fill-opacity="1" stroke="none"/>
<circle clip-path="url(#clip662)" cx="1274" cy="799.336" r="14" fill="#808080" fill-rule="evenodd" fill-opacity="1" stroke="none"/>
<circle clip-path="url(#clip662)" cx="1241.67" cy="806.954" r="14" fill="#808080" fill-rule="evenodd" fill-opacity="1" stroke="none"/>
<circle clip-path="url(#clip662)" cx="1257.56" cy="823.981" r="14" fill="#808080" fill-rule="evenodd" fill-opacity="1" stroke="none"/>
<circle clip-path="url(#clip662)" cx="1179.89" cy="783.68" r="14" fill="#808080" fill-rule="evenodd" fill-opacity="1" stroke="none"/>
<circle clip-path="url(#clip662)" cx="1205.09" cy="761.941" r="14" fill="#808080" fill-rule="evenodd" fill-opacity="1" stroke="none"/>
<circle clip-path="url(#clip662)" cx="1123.14" cy="826.681" r="14" fill="#808080" fill-rule="evenodd" fill-opacity="1" stroke="none"/>
<circle clip-path="url(#clip662)" cx="1211.86" cy="801.729" r="14" fill="#808080" fill-rule="evenodd" fill-opacity="1" stroke="none"/>
<circle clip-path="url(#clip662)" cx="1213.88" cy="772.899" r="14" fill="#808080" fill-rule="evenodd" fill-opacity="1" stroke="none"/>
<circle clip-path="url(#clip662)" cx="1241.74" cy="826.948" r="14" fill="#808080" fill-rule="evenodd" fill-opacity="1" stroke="none"/>
<circle clip-path="url(#clip662)" cx="1198.67" cy="773.16" r="14" fill="#808080" fill-rule="evenodd" fill-opacity="1" stroke="none"/>
<circle clip-path="url(#clip662)" cx="1230.12" cy="793.06" r="14" fill="#808080" fill-rule="evenodd" fill-opacity="1" stroke="none"/>
<circle clip-path="url(#clip662)" cx="1184.73" cy="739.122" r="14" fill="#808080" fill-rule="evenodd" fill-opacity="1" stroke="none"/>
<circle clip-path="url(#clip662)" cx="1170.89" cy="738.709" r="14" fill="#808080" fill-rule="evenodd" fill-opacity="1" stroke="none"/>
<circle clip-path="url(#clip662)" cx="1273.55" cy="761.343" r="14" fill="#808080" fill-rule="evenodd" fill-opacity="1" stroke="none"/>
<circle clip-path="url(#clip662)" cx="1212.88" cy="731.405" r="14" fill="#808080" fill-rule="evenodd" fill-opacity="1" stroke="none"/>
<circle clip-path="url(#clip662)" cx="1249.32" cy="740.021" r="14" fill="#808080" fill-rule="evenodd" fill-opacity="1" stroke="none"/>
<circle clip-path="url(#clip662)" cx="1302.71" cy="757.251" r="14" fill="#808080" fill-rule="evenodd" fill-opacity="1" stroke="none"/>
<circle clip-path="url(#clip662)" cx="1196.86" cy="733.193" r="14" fill="#808080" fill-rule="evenodd" fill-opacity="1" stroke="none"/>
<circle clip-path="url(#clip662)" cx="1290.03" cy="754.479" r="14" fill="#808080" fill-rule="evenodd" fill-opacity="1" stroke="none"/>
<circle clip-path="url(#clip662)" cx="1169.13" cy="779.112" r="14" fill="#808080" fill-rule="evenodd" fill-opacity="1" stroke="none"/>
<circle clip-path="url(#clip662)" cx="1184.58" cy="743.587" r="14" fill="#808080" fill-rule="evenodd" fill-opacity="1" stroke="none"/>
<circle clip-path="url(#clip662)" cx="1126.22" cy="732.956" r="14" fill="#808080" fill-rule="evenodd" fill-opacity="1" stroke="none"/>
<circle clip-path="url(#clip662)" cx="1075.92" cy="740.203" r="14" fill="#808080" fill-rule="evenodd" fill-opacity="1" stroke="none"/>
<circle clip-path="url(#clip662)" cx="1061.68" cy="792.661" r="14" fill="#808080" fill-rule="evenodd" fill-opacity="1" stroke="none"/>
<circle clip-path="url(#clip662)" cx="1182.1" cy="759.888" r="14" fill="#808080" fill-rule="evenodd" fill-opacity="1" stroke="none"/>
<circle clip-path="url(#clip662)" cx="1169.12" cy="763.66" r="14" fill="#808080" fill-rule="evenodd" fill-opacity="1" stroke="none"/>
<circle clip-path="url(#clip662)" cx="1169.41" cy="730.789" r="14" fill="#808080" fill-rule="evenodd" fill-opacity="1" stroke="none"/>
<circle clip-path="url(#clip662)" cx="1177.54" cy="756.336" r="14" fill="#808080" fill-rule="evenodd" fill-opacity="1" stroke="none"/>
<circle clip-path="url(#clip662)" cx="1156.17" cy="762.718" r="14" fill="#808080" fill-rule="evenodd" fill-opacity="1" stroke="none"/>
<circle clip-path="url(#clip662)" cx="1187.33" cy="824.071" r="14" fill="#808080" fill-rule="evenodd" fill-opacity="1" stroke="none"/>
<circle clip-path="url(#clip662)" cx="1188.87" cy="849.464" r="14" fill="#808080" fill-rule="evenodd" fill-opacity="1" stroke="none"/>
<circle clip-path="url(#clip662)" cx="1269.74" cy="775.126" r="14" fill="#808080" fill-rule="evenodd" fill-opacity="1" stroke="none"/>
<circle clip-path="url(#clip662)" cx="1213.86" cy="832.539" r="14" fill="#808080" fill-rule="evenodd" fill-opacity="1" stroke="none"/>
<circle clip-path="url(#clip662)" cx="1307.69" cy="775.126" r="14" fill="#808080" fill-rule="evenodd" fill-opacity="1" stroke="none"/>
<circle clip-path="url(#clip662)" cx="1249.17" cy="793.353" r="14" fill="#808080" fill-rule="evenodd" fill-opacity="1" stroke="none"/>
<circle clip-path="url(#clip662)" cx="1264.17" cy="804.465" r="14" fill="#808080" fill-rule="evenodd" fill-opacity="1" stroke="none"/>
<circle clip-path="url(#clip662)" cx="1258.79" cy="790.119" r="14" fill="#808080" fill-rule="evenodd" fill-opacity="1" stroke="none"/>
<circle clip-path="url(#clip662)" cx="1261.1" cy="811.424" r="14" fill="#808080" fill-rule="evenodd" fill-opacity="1" stroke="none"/>
<circle clip-path="url(#clip662)" cx="1234.9" cy="790.691" r="14" fill="#808080" fill-rule="evenodd" fill-opacity="1" stroke="none"/>
<circle clip-path="url(#clip662)" cx="1270.15" cy="790.5" r="14" fill="#808080" fill-rule="evenodd" fill-opacity="1" stroke="none"/>
<circle clip-path="url(#clip662)" cx="1262.83" cy="778.942" r="14" fill="#808080" fill-rule="evenodd" fill-opacity="1" stroke="none"/>
<circle clip-path="url(#clip662)" cx="1233.14" cy="795.038" r="14" fill="#808080" fill-rule="evenodd" fill-opacity="1" stroke="none"/>
<circle clip-path="url(#clip662)" cx="1268.58" cy="801.488" r="14" fill="#808080" fill-rule="evenodd" fill-opacity="1" stroke="none"/>
<circle clip-path="url(#clip662)" cx="1284.74" cy="798.672" r="14" fill="#808080" fill-rule="evenodd" fill-opacity="1" stroke="none"/>
<circle clip-path="url(#clip662)" cx="1274.6" cy="816.183" r="14" fill="#808080" fill-rule="evenodd" fill-opacity="1" stroke="none"/>
<circle clip-path="url(#clip662)" cx="1280.32" cy="822.07" r="14" fill="#808080" fill-rule="evenodd" fill-opacity="1" stroke="none"/>
<circle clip-path="url(#clip662)" cx="1266.96" cy="816.645" r="14" fill="#808080" fill-rule="evenodd" fill-opacity="1" stroke="none"/>
<circle clip-path="url(#clip662)" cx="1279.9" cy="787.662" r="14" fill="#808080" fill-rule="evenodd" fill-opacity="1" stroke="none"/>
<circle clip-path="url(#clip662)" cx="1242.48" cy="796.492" r="14" fill="#808080" fill-rule="evenodd" fill-opacity="1" stroke="none"/>
<circle clip-path="url(#clip662)" cx="1269.06" cy="794.89" r="14" fill="#808080" fill-rule="evenodd" fill-opacity="1" stroke="none"/>
<circle clip-path="url(#clip662)" cx="1307.4" cy="753.643" r="14" fill="#808080" fill-rule="evenodd" fill-opacity="1" stroke="none"/>
<circle clip-path="url(#clip662)" cx="1314.55" cy="785.803" r="14" fill="#808080" fill-rule="evenodd" fill-opacity="1" stroke="none"/>
<circle clip-path="url(#clip662)" cx="1290.37" cy="788.554" r="14" fill="#808080" fill-rule="evenodd" fill-opacity="1" stroke="none"/>
<circle clip-path="url(#clip662)" cx="1266.94" cy="773.849" r="14" fill="#808080" fill-rule="evenodd" fill-opacity="1" stroke="none"/>
<circle clip-path="url(#clip662)" cx="1264.28" cy="804.292" r="14" fill="#808080" fill-rule="evenodd" fill-opacity="1" stroke="none"/>
<circle clip-path="url(#clip662)" cx="1240.12" cy="794.861" r="14" fill="#808080" fill-rule="evenodd" fill-opacity="1" stroke="none"/>
<circle clip-path="url(#clip662)" cx="1268.07" cy="791.454" r="14" fill="#808080" fill-rule="evenodd" fill-opacity="1" stroke="none"/>
<circle clip-path="url(#clip662)" cx="1252.41" cy="750.371" r="14" fill="#808080" fill-rule="evenodd" fill-opacity="1" stroke="none"/>
<circle clip-path="url(#clip662)" cx="1326.58" cy="752.615" r="14" fill="#808080" fill-rule="evenodd" fill-opacity="1" stroke="none"/>
<circle clip-path="url(#clip662)" cx="1266.2" cy="752.146" r="14" fill="#808080" fill-rule="evenodd" fill-opacity="1" stroke="none"/>
<circle clip-path="url(#clip662)" cx="1328.2" cy="755.791" r="14" fill="#808080" fill-rule="evenodd" fill-opacity="1" stroke="none"/>
<circle clip-path="url(#clip662)" cx="1302.51" cy="773.231" r="14" fill="#808080" fill-rule="evenodd" fill-opacity="1" stroke="none"/>
<circle clip-path="url(#clip662)" cx="1283.55" cy="809.427" r="14" fill="#808080" fill-rule="evenodd" fill-opacity="1" stroke="none"/>
<circle clip-path="url(#clip662)" cx="1301.49" cy="768.188" r="14" fill="#808080" fill-rule="evenodd" fill-opacity="1" stroke="none"/>
<circle clip-path="url(#clip662)" cx="1225.44" cy="746.069" r="14" fill="#808080" fill-rule="evenodd" fill-opacity="1" stroke="none"/>
<circle clip-path="url(#clip662)" cx="1233" cy="717.526" r="14" fill="#808080" fill-rule="evenodd" fill-opacity="1" stroke="none"/>
<circle clip-path="url(#clip662)" cx="1215.17" cy="763.74" r="14" fill="#808080" fill-rule="evenodd" fill-opacity="1" stroke="none"/>
<circle clip-path="url(#clip662)" cx="1254.43" cy="722.418" r="14" fill="#808080" fill-rule="evenodd" fill-opacity="1" stroke="none"/>
<circle clip-path="url(#clip662)" cx="1291.54" cy="733.608" r="14" fill="#808080" fill-rule="evenodd" fill-opacity="1" stroke="none"/>
<circle clip-path="url(#clip662)" cx="1164.98" cy="781.736" r="14" fill="#808080" fill-rule="evenodd" fill-opacity="1" stroke="none"/>
<circle clip-path="url(#clip662)" cx="1157.41" cy="802.002" r="14" fill="#808080" fill-rule="evenodd" fill-opacity="1" stroke="none"/>
<circle clip-path="url(#clip662)" cx="1105.09" cy="771.877" r="14" fill="#808080" fill-rule="evenodd" fill-opacity="1" stroke="none"/>
<circle clip-path="url(#clip662)" cx="1149.45" cy="781.205" r="14" fill="#808080" fill-rule="evenodd" fill-opacity="1" stroke="none"/>
<circle clip-path="url(#clip662)" cx="1229.15" cy="802.185" r="14" fill="#800080" fill-rule="evenodd" fill-opacity="1" stroke="none"/>
<circle clip-path="url(#clip662)" cx="1199.87" cy="788.354" r="14" fill="#800080" fill-rule="evenodd" fill-opacity="1" stroke="none"/>
<circle clip-path="url(#clip662)" cx="1195.59" cy="787.871" r="14" fill="#800080" fill-rule="evenodd" fill-opacity="1" stroke="none"/>
<circle clip-path="url(#clip662)" cx="1212.57" cy="787.252" r="14" fill="#800080" fill-rule="evenodd" fill-opacity="1" stroke="none"/>
<circle clip-path="url(#clip662)" cx="1119.28" cy="840.331" r="14" fill="#800080" fill-rule="evenodd" fill-opacity="1" stroke="none"/>
<circle clip-path="url(#clip662)" cx="1170.95" cy="808.72" r="14" fill="#800080" fill-rule="evenodd" fill-opacity="1" stroke="none"/>
<circle clip-path="url(#clip662)" cx="1003.49" cy="816.364" r="14" fill="#800080" fill-rule="evenodd" fill-opacity="1" stroke="none"/>
<circle clip-path="url(#clip662)" cx="1169.97" cy="790.453" r="14" fill="#800080" fill-rule="evenodd" fill-opacity="1" stroke="none"/>
<circle clip-path="url(#clip662)" cx="1224.14" cy="788.381" r="14" fill="#800080" fill-rule="evenodd" fill-opacity="1" stroke="none"/>
<circle clip-path="url(#clip662)" cx="1195.76" cy="798.971" r="14" fill="#800080" fill-rule="evenodd" fill-opacity="1" stroke="none"/>
<circle clip-path="url(#clip662)" cx="1078.56" cy="648.881" r="14" fill="#800080" fill-rule="evenodd" fill-opacity="1" stroke="none"/>
<circle clip-path="url(#clip662)" cx="1237.76" cy="795.876" r="14" fill="#800080" fill-rule="evenodd" fill-opacity="1" stroke="none"/>
<circle clip-path="url(#clip662)" cx="1174.1" cy="785.947" r="14" fill="#800080" fill-rule="evenodd" fill-opacity="1" stroke="none"/>
<circle clip-path="url(#clip662)" cx="1119.28" cy="840.331" r="14" fill="#800080" fill-rule="evenodd" fill-opacity="1" stroke="none"/>
<circle clip-path="url(#clip662)" cx="1211.17" cy="786.553" r="14" fill="#800080" fill-rule="evenodd" fill-opacity="1" stroke="none"/>
<circle clip-path="url(#clip662)" cx="1214.06" cy="797.799" r="14" fill="#800080" fill-rule="evenodd" fill-opacity="1" stroke="none"/>
<circle clip-path="url(#clip662)" cx="1176.68" cy="808.311" r="14" fill="#800080" fill-rule="evenodd" fill-opacity="1" stroke="none"/>
<circle clip-path="url(#clip662)" cx="1206.95" cy="818.214" r="14" fill="#800080" fill-rule="evenodd" fill-opacity="1" stroke="none"/>
<circle clip-path="url(#clip662)" cx="1208.45" cy="799.643" r="14" fill="#800080" fill-rule="evenodd" fill-opacity="1" stroke="none"/>
<circle clip-path="url(#clip662)" cx="1202.48" cy="779.524" r="14" fill="#800080" fill-rule="evenodd" fill-opacity="1" stroke="none"/>
<circle clip-path="url(#clip662)" cx="1140.2" cy="851.36" r="14" fill="#800080" fill-rule="evenodd" fill-opacity="1" stroke="none"/>
<circle clip-path="url(#clip662)" cx="1262.4" cy="801.411" r="14" fill="#800080" fill-rule="evenodd" fill-opacity="1" stroke="none"/>
<circle clip-path="url(#clip662)" cx="1285.01" cy="807.977" r="14" fill="#800080" fill-rule="evenodd" fill-opacity="1" stroke="none"/>
<circle clip-path="url(#clip662)" cx="1254.11" cy="799.16" r="14" fill="#800080" fill-rule="evenodd" fill-opacity="1" stroke="none"/>
<circle clip-path="url(#clip662)" cx="1226.04" cy="811.977" r="14" fill="#800080" fill-rule="evenodd" fill-opacity="1" stroke="none"/>
<circle clip-path="url(#clip662)" cx="1261.17" cy="805.307" r="14" fill="#800080" fill-rule="evenodd" fill-opacity="1" stroke="none"/>
<circle clip-path="url(#clip662)" cx="1175.63" cy="789.142" r="14" fill="#800080" fill-rule="evenodd" fill-opacity="1" stroke="none"/>
<circle clip-path="url(#clip662)" cx="1197.13" cy="770.341" r="14" fill="#800080" fill-rule="evenodd" fill-opacity="1" stroke="none"/>
<circle clip-path="url(#clip662)" cx="1142.45" cy="807.51" r="14" fill="#800080" fill-rule="evenodd" fill-opacity="1" stroke="none"/>
<circle clip-path="url(#clip662)" cx="1198.87" cy="800.263" r="14" fill="#800080" fill-rule="evenodd" fill-opacity="1" stroke="none"/>
<circle clip-path="url(#clip662)" cx="1201.91" cy="780.102" r="14" fill="#800080" fill-rule="evenodd" fill-opacity="1" stroke="none"/>
<circle clip-path="url(#clip662)" cx="1243.5" cy="810.595" r="14" fill="#800080" fill-rule="evenodd" fill-opacity="1" stroke="none"/>
<circle clip-path="url(#clip662)" cx="1197.36" cy="775.463" r="14" fill="#800080" fill-rule="evenodd" fill-opacity="1" stroke="none"/>
<circle clip-path="url(#clip662)" cx="1234.19" cy="780.515" r="14" fill="#800080" fill-rule="evenodd" fill-opacity="1" stroke="none"/>
<circle clip-path="url(#clip662)" cx="1182.08" cy="753.293" r="14" fill="#800080" fill-rule="evenodd" fill-opacity="1" stroke="none"/>
<circle clip-path="url(#clip662)" cx="1164" cy="747.168" r="14" fill="#800080" fill-rule="evenodd" fill-opacity="1" stroke="none"/>
<circle clip-path="url(#clip662)" cx="1276.15" cy="768.433" r="14" fill="#800080" fill-rule="evenodd" fill-opacity="1" stroke="none"/>
<circle clip-path="url(#clip662)" cx="1203.33" cy="755.895" r="14" fill="#800080" fill-rule="evenodd" fill-opacity="1" stroke="none"/>
<circle clip-path="url(#clip662)" cx="1239.86" cy="759.705" r="14" fill="#800080" fill-rule="evenodd" fill-opacity="1" stroke="none"/>
<circle clip-path="url(#clip662)" cx="1294.15" cy="766.985" r="14" fill="#800080" fill-rule="evenodd" fill-opacity="1" stroke="none"/>
<circle clip-path="url(#clip662)" cx="1189.87" cy="753.584" r="14" fill="#800080" fill-rule="evenodd" fill-opacity="1" stroke="none"/>
<circle clip-path="url(#clip662)" cx="1282.21" cy="768.361" r="14" fill="#800080" fill-rule="evenodd" fill-opacity="1" stroke="none"/>
<circle clip-path="url(#clip662)" cx="1165.93" cy="791.449" r="14" fill="#800080" fill-rule="evenodd" fill-opacity="1" stroke="none"/>
<circle clip-path="url(#clip662)" cx="1172.57" cy="767.991" r="14" fill="#800080" fill-rule="evenodd" fill-opacity="1" stroke="none"/>
<circle clip-path="url(#clip662)" cx="1126.83" cy="762.29" r="14" fill="#800080" fill-rule="evenodd" fill-opacity="1" stroke="none"/>
<circle clip-path="url(#clip662)" cx="1090.99" cy="760.109" r="14" fill="#800080" fill-rule="evenodd" fill-opacity="1" stroke="none"/>
<circle clip-path="url(#clip662)" cx="1062.44" cy="788.897" r="14" fill="#800080" fill-rule="evenodd" fill-opacity="1" stroke="none"/>
<circle clip-path="url(#clip662)" cx="1175.97" cy="778.848" r="14" fill="#800080" fill-rule="evenodd" fill-opacity="1" stroke="none"/>
<circle clip-path="url(#clip662)" cx="1165.04" cy="776.602" r="14" fill="#800080" fill-rule="evenodd" fill-opacity="1" stroke="none"/>
<circle clip-path="url(#clip662)" cx="1168.03" cy="756.06" r="14" fill="#800080" fill-rule="evenodd" fill-opacity="1" stroke="none"/>
<circle clip-path="url(#clip662)" cx="1181.66" cy="746.331" r="14" fill="#800080" fill-rule="evenodd" fill-opacity="1" stroke="none"/>
<circle clip-path="url(#clip662)" cx="1150.96" cy="780.343" r="14" fill="#800080" fill-rule="evenodd" fill-opacity="1" stroke="none"/>
<circle clip-path="url(#clip662)" cx="1200.01" cy="797.556" r="14" fill="#ffa500" fill-rule="evenodd" fill-opacity="1" stroke="none"/>
<circle clip-path="url(#clip662)" cx="1188.68" cy="830.542" r="14" fill="#ffa500" fill-rule="evenodd" fill-opacity="1" stroke="none"/>
<circle clip-path="url(#clip662)" cx="1250.04" cy="785.757" r="14" fill="#ffa500" fill-rule="evenodd" fill-opacity="1" stroke="none"/>
<circle clip-path="url(#clip662)" cx="1209.98" cy="814.755" r="14" fill="#ffa500" fill-rule="evenodd" fill-opacity="1" stroke="none"/>
<circle clip-path="url(#clip662)" cx="1302.98" cy="774.39" r="14" fill="#ffa500" fill-rule="evenodd" fill-opacity="1" stroke="none"/>
<circle clip-path="url(#clip662)" cx="1254.9" cy="779.244" r="14" fill="#ffa500" fill-rule="evenodd" fill-opacity="1" stroke="none"/>
<circle clip-path="url(#clip662)" cx="1262.73" cy="794.819" r="14" fill="#ffa500" fill-rule="evenodd" fill-opacity="1" stroke="none"/>
<circle clip-path="url(#clip662)" cx="1255.29" cy="787.604" r="14" fill="#ffa500" fill-rule="evenodd" fill-opacity="1" stroke="none"/>
<circle clip-path="url(#clip662)" cx="1272.53" cy="793.299" r="14" fill="#ffa500" fill-rule="evenodd" fill-opacity="1" stroke="none"/>
<circle clip-path="url(#clip662)" cx="1229.61" cy="788.6" r="14" fill="#ffa500" fill-rule="evenodd" fill-opacity="1" stroke="none"/>
<circle clip-path="url(#clip662)" cx="1264.26" cy="785.053" r="14" fill="#ffa500" fill-rule="evenodd" fill-opacity="1" stroke="none"/>
<circle clip-path="url(#clip662)" cx="1263.95" cy="775.144" r="14" fill="#ffa500" fill-rule="evenodd" fill-opacity="1" stroke="none"/>
<circle clip-path="url(#clip662)" cx="1244.94" cy="777.331" r="14" fill="#ffa500" fill-rule="evenodd" fill-opacity="1" stroke="none"/>
<circle clip-path="url(#clip662)" cx="1271.38" cy="790.496" r="14" fill="#ffa500" fill-rule="evenodd" fill-opacity="1" stroke="none"/>
<circle clip-path="url(#clip662)" cx="1295.34" cy="792.439" r="14" fill="#ffa500" fill-rule="evenodd" fill-opacity="1" stroke="none"/>
<circle clip-path="url(#clip662)" cx="1287.22" cy="803.142" r="14" fill="#ffa500" fill-rule="evenodd" fill-opacity="1" stroke="none"/>
<circle clip-path="url(#clip662)" cx="1279.05" cy="811.688" r="14" fill="#ffa500" fill-rule="evenodd" fill-opacity="1" stroke="none"/>
<circle clip-path="url(#clip662)" cx="1267.48" cy="809.754" r="14" fill="#ffa500" fill-rule="evenodd" fill-opacity="1" stroke="none"/>
<circle clip-path="url(#clip662)" cx="1276.76" cy="778.305" r="14" fill="#ffa500" fill-rule="evenodd" fill-opacity="1" stroke="none"/>
<circle clip-path="url(#clip662)" cx="1240.49" cy="784.719" r="14" fill="#ffa500" fill-rule="evenodd" fill-opacity="1" stroke="none"/>
<circle clip-path="url(#clip662)" cx="1264.47" cy="785.228" r="14" fill="#ffa500" fill-rule="evenodd" fill-opacity="1" stroke="none"/>
<circle clip-path="url(#clip662)" cx="1311.59" cy="753.721" r="14" fill="#ffa500" fill-rule="evenodd" fill-opacity="1" stroke="none"/>
<circle clip-path="url(#clip662)" cx="1312.62" cy="785.68" r="14" fill="#ffa500" fill-rule="evenodd" fill-opacity="1" stroke="none"/>
<circle clip-path="url(#clip662)" cx="1288.35" cy="787.836" r="14" fill="#ffa500" fill-rule="evenodd" fill-opacity="1" stroke="none"/>
<circle clip-path="url(#clip662)" cx="1264.47" cy="775.419" r="14" fill="#ffa500" fill-rule="evenodd" fill-opacity="1" stroke="none"/>
<circle clip-path="url(#clip662)" cx="1266.36" cy="800.35" r="14" fill="#ffa500" fill-rule="evenodd" fill-opacity="1" stroke="none"/>
<circle clip-path="url(#clip662)" cx="1241.03" cy="785.681" r="14" fill="#ffa500" fill-rule="evenodd" fill-opacity="1" stroke="none"/>
<circle clip-path="url(#clip662)" cx="1262.92" cy="782.553" r="14" fill="#ffa500" fill-rule="evenodd" fill-opacity="1" stroke="none"/>
<circle clip-path="url(#clip662)" cx="1243.88" cy="761.603" r="14" fill="#ffa500" fill-rule="evenodd" fill-opacity="1" stroke="none"/>
<circle clip-path="url(#clip662)" cx="1337.86" cy="755.184" r="14" fill="#ffa500" fill-rule="evenodd" fill-opacity="1" stroke="none"/>
<circle clip-path="url(#clip662)" cx="1259.46" cy="760.394" r="14" fill="#ffa500" fill-rule="evenodd" fill-opacity="1" stroke="none"/>
<circle clip-path="url(#clip662)" cx="1364.08" cy="754.463" r="14" fill="#ffa500" fill-rule="evenodd" fill-opacity="1" stroke="none"/>
<circle clip-path="url(#clip662)" cx="1301.6" cy="773.049" r="14" fill="#ffa500" fill-rule="evenodd" fill-opacity="1" stroke="none"/>
<circle clip-path="url(#clip662)" cx="1291.51" cy="788.646" r="14" fill="#ffa500" fill-rule="evenodd" fill-opacity="1" stroke="none"/>
<circle clip-path="url(#clip662)" cx="1299.8" cy="765.314" r="14" fill="#ffa500" fill-rule="evenodd" fill-opacity="1" stroke="none"/>
<circle clip-path="url(#clip662)" cx="1226.03" cy="773.801" r="14" fill="#ffa500" fill-rule="evenodd" fill-opacity="1" stroke="none"/>
<circle clip-path="url(#clip662)" cx="1235.27" cy="743.313" r="14" fill="#ffa500" fill-rule="evenodd" fill-opacity="1" stroke="none"/>
<circle clip-path="url(#clip662)" cx="1210.27" cy="786.667" r="14" fill="#ffa500" fill-rule="evenodd" fill-opacity="1" stroke="none"/>
<circle clip-path="url(#clip662)" cx="1265.14" cy="737.899" r="14" fill="#ffa500" fill-rule="evenodd" fill-opacity="1" stroke="none"/>
<circle clip-path="url(#clip662)" cx="1301.62" cy="739.938" r="14" fill="#ffa500" fill-rule="evenodd" fill-opacity="1" stroke="none"/>
<circle clip-path="url(#clip662)" cx="1158.39" cy="795.707" r="14" fill="#ffa500" fill-rule="evenodd" fill-opacity="1" stroke="none"/>
<circle clip-path="url(#clip662)" cx="1144.23" cy="809.863" r="14" fill="#ffa500" fill-rule="evenodd" fill-opacity="1" stroke="none"/>
<circle clip-path="url(#clip662)" cx="1124.49" cy="787.055" r="14" fill="#ffa500" fill-rule="evenodd" fill-opacity="1" stroke="none"/>
<circle clip-path="url(#clip662)" cx="1152.53" cy="788.666" r="14" fill="#ffa500" fill-rule="evenodd" fill-opacity="1" stroke="none"/>
<polyline clip-path="url(#clip662)" style="stroke:#ffa500; stroke-width:0.57127; stroke-opacity:1; fill:none" points="
  826.733,810.332 1613.96,463.001 
  "/>
<polyline clip-path="url(#clip662)" style="stroke:#ffa500; stroke-width:0.310112; stroke-opacity:1; fill:none" points="
  1093.34,925.192 1136.34,725.099 
  "/>
<polyline clip-path="url(#clip662)" style="stroke:#ffa500; stroke-width:0.344254; stroke-opacity:1; fill:none" points="
  485.376,758.544 1093.34,925.192 
  "/>
<polyline clip-path="url(#clip662)" style="stroke:#800080; stroke-width:2.41942; stroke-opacity:1; fill:none" points="
  485.376,758.544 1584.28,1025.63 
  "/>
<polyline clip-path="url(#clip662)" style="stroke:#ffa500; stroke-width:3.09601; stroke-opacity:1; fill:none" points="
  1136.34,725.099 1613.96,463.001 
  "/>
<polyline clip-path="url(#clip662)" style="stroke:#800080; stroke-width:3.5991; stroke-opacity:1; fill:none" points="
  485.376,758.544 1136.34,725.099 
  "/>
<polyline clip-path="url(#clip662)" style="stroke:#ffa500; stroke-width:4.58072; stroke-opacity:1; fill:none" points="
  1136.34,725.099 1584.28,1025.63 
  "/>
<polyline clip-path="url(#clip662)" style="stroke:#ffa500; stroke-width:1.47784; stroke-opacity:1; fill:none" points="
  1093.34,925.192 1584.28,1025.63 
  "/>
<polyline clip-path="url(#clip662)" style="stroke:#800080; stroke-width:6.48496; stroke-opacity:1; fill:none" points="
  485.376,758.544 826.733,810.332 
  "/>
<polyline clip-path="url(#clip662)" style="stroke:#ffa500; stroke-width:0.694986; stroke-opacity:1; fill:none" points="
  1093.34,925.192 1613.96,463.001 
  "/>
<polyline clip-path="url(#clip662)" style="stroke:#ffa500; stroke-width:8; stroke-opacity:1; fill:none" points="
  1584.28,1025.63 1613.96,463.001 
  "/>
<polyline clip-path="url(#clip662)" style="stroke:#800080; stroke-width:2.90053; stroke-opacity:1; fill:none" points="
  826.733,810.332 1136.34,725.099 
  "/>
<polyline clip-path="url(#clip662)" style="stroke:#800080; stroke-width:2.12299; stroke-opacity:1; fill:none" points="
  826.733,810.332 1093.34,925.192 
  "/>
<polyline clip-path="url(#clip662)" style="stroke:#800080; stroke-width:2.00262; stroke-opacity:1; fill:none" points="
  485.376,758.544 1613.96,463.001 
  "/>
<polyline clip-path="url(#clip662)" style="stroke:#ffa500; stroke-width:0.179937; stroke-opacity:1; fill:none" points="
  826.733,810.332 1584.28,1025.63 
  "/>
<circle clip-path="url(#clip662)" cx="1136.34" cy="725.099" r="23" fill="#000000" fill-rule="evenodd" fill-opacity="1" stroke="none"/>
<circle clip-path="url(#clip662)" cx="826.733" cy="810.332" r="26" fill="#000000" fill-rule="evenodd" fill-opacity="1" stroke="none"/>
<circle clip-path="url(#clip662)" cx="1613.96" cy="463.001" r="23" fill="#000000" fill-rule="evenodd" fill-opacity="1" stroke="none"/>
<circle clip-path="url(#clip662)" cx="1093.34" cy="925.192" r="8" fill="#000000" fill-rule="evenodd" fill-opacity="1" stroke="none"/>
<circle clip-path="url(#clip662)" cx="1584.28" cy="1025.63" r="28" fill="#000000" fill-rule="evenodd" fill-opacity="1" stroke="none"/>
<circle clip-path="url(#clip662)" cx="485.376" cy="758.544" r="8" fill="#000000" fill-rule="evenodd" fill-opacity="1" stroke="none"/>
<path clip-path="url(#clip660)" d="M 0 0 M1109.26 716.7 L1109.26 733.497 L1112.79 733.497 Q1117.26 733.497 1119.33 731.472 Q1121.41 729.446 1121.41 725.077 Q1121.41 720.737 1119.33 718.726 Q1117.26 716.7 1112.79 716.7 L1109.26 716.7 M1106.34 714.299 L1112.34 714.299 Q1118.62 714.299 1121.56 716.917 Q1124.5 719.522 1124.5 725.077 Q1124.5 730.662 1121.54 733.28 Q1118.59 735.899 1112.34 735.899 L1106.34 735.899 L1106.34 714.299 Z" fill="#000000" fill-rule="evenodd" fill-opacity="1" /><path clip-path="url(#clip660)" d="M 0 0 M1134.65 727.754 Q1131.43 727.754 1130.18 728.491 Q1128.94 729.229 1128.94 731.009 Q1128.94 732.427 1129.86 733.266 Q1130.8 734.09 1132.41 734.09 Q1134.62 734.09 1135.95 732.528 Q1137.3 730.951 1137.3 728.347 L1137.3 727.754 L1134.65 727.754 M1139.96 726.654 L1139.96 735.899 L1137.3 735.899 L1137.3 733.439 Q1136.39 734.915 1135.03 735.624 Q1133.67 736.318 1131.7 736.318 Q1129.21 736.318 1127.74 734.929 Q1126.28 733.526 1126.28 731.182 Q1126.28 728.448 1128.1 727.059 Q1129.94 725.67 1133.57 725.67 L1137.3 725.67 L1137.3 725.41 Q1137.3 723.572 1136.08 722.574 Q1134.88 721.561 1132.7 721.561 Q1131.31 721.561 1129.99 721.894 Q1128.68 722.227 1127.46 722.892 L1127.46 720.433 Q1128.92 719.869 1130.3 719.594 Q1131.67 719.305 1132.97 719.305 Q1136.49 719.305 1138.23 721.127 Q1139.96 722.95 1139.96 726.654 Z" fill="#000000" fill-rule="evenodd" fill-opacity="1" /><path clip-path="url(#clip660)" d="M 0 0 M1145.39 715.094 L1145.39 719.695 L1150.87 719.695 L1150.87 721.764 L1145.39 721.764 L1145.39 730.56 Q1145.39 732.542 1145.92 733.107 Q1146.47 733.671 1148.14 733.671 L1150.87 733.671 L1150.87 735.899 L1148.14 735.899 Q1145.05 735.899 1143.88 734.756 Q1142.71 733.598 1142.71 730.56 L1142.71 721.764 L1140.76 721.764 L1140.76 719.695 L1142.71 719.695 L1142.71 715.094 L1145.39 715.094 Z" fill="#000000" fill-rule="evenodd" fill-opacity="1" /><path clip-path="url(#clip660)" d="M 0 0 M1161.03 727.754 Q1157.8 727.754 1156.56 728.491 Q1155.31 729.229 1155.31 731.009 Q1155.31 732.427 1156.24 733.266 Q1157.18 734.09 1158.78 734.09 Q1161 734.09 1162.33 732.528 Q1163.67 730.951 1163.67 728.347 L1163.67 727.754 L1161.03 727.754 M1166.34 726.654 L1166.34 735.899 L1163.67 735.899 L1163.67 733.439 Q1162.76 734.915 1161.4 735.624 Q1160.04 736.318 1158.07 736.318 Q1155.59 736.318 1154.11 734.929 Q1152.65 733.526 1152.65 731.182 Q1152.65 728.448 1154.47 727.059 Q1156.31 725.67 1159.94 725.67 L1163.67 725.67 L1163.67 725.41 Q1163.67 723.572 1162.46 722.574 Q1161.26 721.561 1159.07 721.561 Q1157.68 721.561 1156.37 721.894 Q1155.05 722.227 1153.84 722.892 L1153.84 720.433 Q1155.3 719.869 1156.67 719.594 Q1158.05 719.305 1159.35 719.305 Q1162.86 719.305 1164.6 721.127 Q1166.34 722.95 1166.34 726.654 Z" fill="#000000" fill-rule="evenodd" fill-opacity="1" /><path clip-path="url(#clip660)" d="M 0 0 M684.828 799.532 L703.1 799.532 L703.1 801.992 L695.433 801.992 L695.433 821.132 L692.496 821.132 L692.496 801.992 L684.828 801.992 L684.828 799.532 Z" fill="#000000" fill-rule="evenodd" fill-opacity="1" /><path clip-path="url(#clip660)" d="M 0 0 M714.718 812.365 L714.718 813.667 L702.478 813.667 Q702.652 816.416 704.128 817.863 Q705.618 819.295 708.265 819.295 Q709.799 819.295 711.231 818.919 Q712.678 818.543 714.096 817.79 L714.096 820.308 Q712.663 820.915 711.159 821.233 Q709.654 821.552 708.106 821.552 Q704.229 821.552 701.957 819.295 Q699.701 817.038 699.701 813.19 Q699.701 809.211 701.842 806.882 Q703.997 804.538 707.643 804.538 Q710.913 804.538 712.808 806.65 Q714.718 808.748 714.718 812.365 M712.056 811.584 Q712.027 809.399 710.826 808.097 Q709.64 806.795 707.672 806.795 Q705.444 806.795 704.099 808.054 Q702.768 809.312 702.565 811.598 L712.056 811.584 Z" fill="#000000" fill-rule="evenodd" fill-opacity="1" /><path clip-path="url(#clip660)" d="M 0 0 M729.171 805.551 L729.171 808.039 Q728.042 807.417 726.899 807.113 Q725.771 806.795 724.614 806.795 Q722.024 806.795 720.592 808.444 Q719.159 810.079 719.159 813.045 Q719.159 816.011 720.592 817.66 Q722.024 819.295 724.614 819.295 Q725.771 819.295 726.899 818.991 Q728.042 818.673 729.171 818.051 L729.171 820.51 Q728.057 821.031 726.856 821.291 Q725.67 821.552 724.324 821.552 Q720.664 821.552 718.508 819.251 Q716.353 816.951 716.353 813.045 Q716.353 809.081 718.523 806.809 Q720.707 804.538 724.498 804.538 Q725.728 804.538 726.899 804.798 Q728.071 805.044 729.171 805.551 Z" fill="#000000" fill-rule="evenodd" fill-opacity="1" /><path clip-path="url(#clip660)" d="M 0 0 M745.432 811.352 L745.432 821.132 L742.77 821.132 L742.77 811.439 Q742.77 809.139 741.873 807.996 Q740.976 806.853 739.182 806.853 Q737.027 806.853 735.783 808.227 Q734.538 809.602 734.538 811.974 L734.538 821.132 L731.862 821.132 L731.862 798.621 L734.538 798.621 L734.538 807.446 Q735.493 805.985 736.781 805.261 Q738.083 804.538 739.776 804.538 Q742.568 804.538 744 806.274 Q745.432 807.996 745.432 811.352 Z" fill="#000000" fill-rule="evenodd" fill-opacity="1" /><path clip-path="url(#clip660)" d="M 0 0 M761.694 811.352 L761.694 821.132 L759.032 821.132 L759.032 811.439 Q759.032 809.139 758.135 807.996 Q757.238 806.853 755.444 806.853 Q753.288 806.853 752.044 808.227 Q750.8 809.602 750.8 811.974 L750.8 821.132 L748.123 821.132 L748.123 804.929 L750.8 804.929 L750.8 807.446 Q751.755 805.985 753.042 805.261 Q754.344 804.538 756.037 804.538 Q758.829 804.538 760.262 806.274 Q761.694 807.996 761.694 811.352 Z" fill="#000000" fill-rule="evenodd" fill-opacity="1" /><path clip-path="url(#clip660)" d="M 0 0 M764.486 804.929 L767.148 804.929 L767.148 821.132 L764.486 821.132 L764.486 804.929 M764.486 798.621 L767.148 798.621 L767.148 801.992 L764.486 801.992 L764.486 798.621 Z" fill="#000000" fill-rule="evenodd" fill-opacity="1" /><path clip-path="url(#clip660)" d="M 0 0 M781.601 805.551 L781.601 808.039 Q780.473 807.417 779.33 807.113 Q778.201 806.795 777.044 806.795 Q774.454 806.795 773.022 808.444 Q771.59 810.079 771.59 813.045 Q771.59 816.011 773.022 817.66 Q774.454 819.295 777.044 819.295 Q778.201 819.295 779.33 818.991 Q780.473 818.673 781.601 818.051 L781.601 820.51 Q780.487 821.031 779.286 821.291 Q778.1 821.552 776.755 821.552 Q773.094 821.552 770.939 819.251 Q768.783 816.951 768.783 813.045 Q768.783 809.081 770.953 806.809 Q773.138 804.538 776.928 804.538 Q778.158 804.538 779.33 804.798 Q780.502 805.044 781.601 805.551 Z" fill="#000000" fill-rule="evenodd" fill-opacity="1" /><path clip-path="url(#clip660)" d="M 0 0 M791.757 812.987 Q788.531 812.987 787.287 813.725 Q786.043 814.463 786.043 816.242 Q786.043 817.66 786.969 818.499 Q787.909 819.324 789.515 819.324 Q791.728 819.324 793.059 817.761 Q794.405 816.184 794.405 813.58 L794.405 812.987 L791.757 812.987 M797.067 811.887 L797.067 821.132 L794.405 821.132 L794.405 818.673 Q793.493 820.148 792.134 820.857 Q790.774 821.552 788.806 821.552 Q786.318 821.552 784.842 820.163 Q783.381 818.76 783.381 816.416 Q783.381 813.681 785.204 812.293 Q787.041 810.904 790.672 810.904 L794.405 810.904 L794.405 810.643 Q794.405 808.806 793.19 807.808 Q791.989 806.795 789.804 806.795 Q788.415 806.795 787.099 807.128 Q785.782 807.46 784.567 808.126 L784.567 805.666 Q786.028 805.102 787.403 804.827 Q788.777 804.538 790.079 804.538 Q793.595 804.538 795.331 806.361 Q797.067 808.184 797.067 811.887 Z" fill="#000000" fill-rule="evenodd" fill-opacity="1" /><path clip-path="url(#clip660)" d="M 0 0 M799.859 798.621 L802.521 798.621 L802.521 821.132 L799.859 821.132 L799.859 798.621 Z" fill="#000000" fill-rule="evenodd" fill-opacity="1" /><path clip-path="url(#clip660)" d="M 0 0 M817.625 826.051 L817.625 828.12 L802.232 828.12 L802.232 826.051 L817.625 826.051 Z" fill="#000000" fill-rule="evenodd" fill-opacity="1" /><path clip-path="url(#clip660)" d="M 0 0 M836.708 801.196 L836.708 804.278 Q835.232 802.903 833.554 802.223 Q831.89 801.543 830.009 801.543 Q826.306 801.543 824.338 803.815 Q822.371 806.072 822.371 810.354 Q822.371 814.622 824.338 816.893 Q826.306 819.15 830.009 819.15 Q831.89 819.15 833.554 818.47 Q835.232 817.79 836.708 816.416 L836.708 819.468 Q835.174 820.51 833.453 821.031 Q831.746 821.552 829.836 821.552 Q824.931 821.552 822.11 818.557 Q819.289 815.548 819.289 810.354 Q819.289 805.146 822.11 802.151 Q824.931 799.142 829.836 799.142 Q831.775 799.142 833.482 799.662 Q835.203 800.169 836.708 801.196 Z" fill="#000000" fill-rule="evenodd" fill-opacity="1" /><path clip-path="url(#clip660)" d="M 0 0 M845.779 806.795 Q843.638 806.795 842.394 808.473 Q841.149 810.137 841.149 813.045 Q841.149 815.953 842.379 817.631 Q843.623 819.295 845.779 819.295 Q847.906 819.295 849.15 817.617 Q850.394 815.938 850.394 813.045 Q850.394 810.166 849.15 808.488 Q847.906 806.795 845.779 806.795 M845.779 804.538 Q849.251 804.538 851.233 806.795 Q853.215 809.052 853.215 813.045 Q853.215 817.023 851.233 819.295 Q849.251 821.552 845.779 821.552 Q842.292 821.552 840.31 819.295 Q838.343 817.023 838.343 813.045 Q838.343 809.052 840.31 806.795 Q842.292 804.538 845.779 804.538 Z" fill="#000000" fill-rule="evenodd" fill-opacity="1" /><path clip-path="url(#clip660)" d="M 0 0 M869.477 811.352 L869.477 821.132 L866.815 821.132 L866.815 811.439 Q866.815 809.139 865.918 807.996 Q865.021 806.853 863.227 806.853 Q861.071 806.853 859.827 808.227 Q858.583 809.602 858.583 811.974 L858.583 821.132 L855.906 821.132 L855.906 804.929 L858.583 804.929 L858.583 807.446 Q859.538 805.985 860.825 805.261 Q862.127 804.538 863.82 804.538 Q866.612 804.538 868.045 806.274 Q869.477 807.996 869.477 811.352 Z" fill="#000000" fill-rule="evenodd" fill-opacity="1" /><path clip-path="url(#clip660)" d="M 0 0 M882.599 805.406 L882.599 807.923 Q881.47 807.345 880.255 807.055 Q879.04 806.766 877.738 806.766 Q875.756 806.766 874.757 807.374 Q873.774 807.981 873.774 809.197 Q873.774 810.122 874.483 810.658 Q875.192 811.179 877.333 811.656 L878.244 811.859 Q881.08 812.466 882.266 813.58 Q883.467 814.68 883.467 816.662 Q883.467 818.919 881.673 820.235 Q879.893 821.552 876.768 821.552 Q875.466 821.552 874.049 821.291 Q872.645 821.045 871.083 820.539 L871.083 817.79 Q872.558 818.557 873.991 818.948 Q875.423 819.324 876.826 819.324 Q878.707 819.324 879.72 818.687 Q880.733 818.036 880.733 816.864 Q880.733 815.779 879.995 815.201 Q879.271 814.622 876.797 814.087 L875.871 813.87 Q873.398 813.349 872.298 812.278 Q871.198 811.193 871.198 809.312 Q871.198 807.026 872.819 805.782 Q874.439 804.538 877.42 804.538 Q878.895 804.538 880.197 804.755 Q881.499 804.972 882.599 805.406 Z" fill="#000000" fill-rule="evenodd" fill-opacity="1" /><path clip-path="url(#clip660)" d="M 0 0 M888.892 800.328 L888.892 804.929 L894.375 804.929 L894.375 806.997 L888.892 806.997 L888.892 815.794 Q888.892 817.776 889.428 818.34 Q889.977 818.904 891.641 818.904 L894.375 818.904 L894.375 821.132 L891.641 821.132 Q888.559 821.132 887.388 819.989 Q886.216 818.832 886.216 815.794 L886.216 806.997 L884.263 806.997 L884.263 804.929 L886.216 804.929 L886.216 800.328 L888.892 800.328 Z" fill="#000000" fill-rule="evenodd" fill-opacity="1" /><path clip-path="url(#clip660)" d="M 0 0 M906.557 807.417 Q906.109 807.157 905.573 807.041 Q905.052 806.911 904.416 806.911 Q902.159 806.911 900.944 808.386 Q899.743 809.848 899.743 812.596 L899.743 821.132 L897.066 821.132 L897.066 804.929 L899.743 804.929 L899.743 807.446 Q900.582 805.97 901.927 805.261 Q903.273 804.538 905.197 804.538 Q905.472 804.538 905.805 804.581 Q906.138 804.61 906.543 804.683 L906.557 807.417 Z" fill="#000000" fill-rule="evenodd" fill-opacity="1" /><path clip-path="url(#clip660)" d="M 0 0 M916.713 812.987 Q913.487 812.987 912.243 813.725 Q910.999 814.463 910.999 816.242 Q910.999 817.66 911.925 818.499 Q912.865 819.324 914.471 819.324 Q916.684 819.324 918.015 817.761 Q919.361 816.184 919.361 813.58 L919.361 812.987 L916.713 812.987 M922.023 811.887 L922.023 821.132 L919.361 821.132 L919.361 818.673 Q918.449 820.148 917.089 820.857 Q915.729 821.552 913.762 821.552 Q911.273 821.552 909.798 820.163 Q908.337 818.76 908.337 816.416 Q908.337 813.681 910.159 812.293 Q911.997 810.904 915.628 810.904 L919.361 810.904 L919.361 810.643 Q919.361 808.806 918.146 807.808 Q916.945 806.795 914.76 806.795 Q913.371 806.795 912.055 807.128 Q910.738 807.46 909.523 808.126 L909.523 805.666 Q910.984 805.102 912.359 804.827 Q913.733 804.538 915.035 804.538 Q918.551 804.538 920.287 806.361 Q922.023 808.184 922.023 811.887 Z" fill="#000000" fill-rule="evenodd" fill-opacity="1" /><path clip-path="url(#clip660)" d="M 0 0 M924.815 804.929 L927.477 804.929 L927.477 821.132 L924.815 821.132 L924.815 804.929 M924.815 798.621 L927.477 798.621 L927.477 801.992 L924.815 801.992 L924.815 798.621 Z" fill="#000000" fill-rule="evenodd" fill-opacity="1" /><path clip-path="url(#clip660)" d="M 0 0 M943.739 811.352 L943.739 821.132 L941.077 821.132 L941.077 811.439 Q941.077 809.139 940.18 807.996 Q939.283 806.853 937.489 806.853 Q935.333 806.853 934.089 808.227 Q932.845 809.602 932.845 811.974 L932.845 821.132 L930.168 821.132 L930.168 804.929 L932.845 804.929 L932.845 807.446 Q933.799 805.985 935.087 805.261 Q936.389 804.538 938.082 804.538 Q940.874 804.538 942.306 806.274 Q943.739 807.996 943.739 811.352 Z" fill="#000000" fill-rule="evenodd" fill-opacity="1" /><path clip-path="url(#clip660)" d="M 0 0 M949.164 800.328 L949.164 804.929 L954.647 804.929 L954.647 806.997 L949.164 806.997 L949.164 815.794 Q949.164 817.776 949.699 818.34 Q950.249 818.904 951.913 818.904 L954.647 818.904 L954.647 821.132 L951.913 821.132 Q948.831 821.132 947.659 819.989 Q946.487 818.832 946.487 815.794 L946.487 806.997 L944.534 806.997 L944.534 804.929 L946.487 804.929 L946.487 800.328 L949.164 800.328 Z" fill="#000000" fill-rule="evenodd" fill-opacity="1" /><path clip-path="url(#clip660)" d="M 0 0 M967.769 805.406 L967.769 807.923 Q966.641 807.345 965.425 807.055 Q964.21 806.766 962.908 806.766 Q960.926 806.766 959.928 807.374 Q958.944 807.981 958.944 809.197 Q958.944 810.122 959.653 810.658 Q960.362 811.179 962.503 811.656 L963.414 811.859 Q966.25 812.466 967.436 813.58 Q968.637 814.68 968.637 816.662 Q968.637 818.919 966.843 820.235 Q965.064 821.552 961.939 821.552 Q960.637 821.552 959.219 821.291 Q957.815 821.045 956.253 820.539 L956.253 817.79 Q957.729 818.557 959.161 818.948 Q960.593 819.324 961.997 819.324 Q963.877 819.324 964.89 818.687 Q965.903 818.036 965.903 816.864 Q965.903 815.779 965.165 815.201 Q964.442 814.622 961.968 814.087 L961.042 813.87 Q958.568 813.349 957.468 812.278 Q956.369 811.193 956.369 809.312 Q956.369 807.026 957.989 805.782 Q959.609 804.538 962.59 804.538 Q964.065 804.538 965.368 804.755 Q966.67 804.972 967.769 805.406 Z" fill="#000000" fill-rule="evenodd" fill-opacity="1" /><path clip-path="url(#clip660)" d="M 0 0 M1446.62 454.602 L1446.62 462.719 L1450.29 462.719 Q1452.33 462.719 1453.44 461.663 Q1454.56 460.606 1454.56 458.653 Q1454.56 456.715 1453.44 455.659 Q1452.33 454.602 1450.29 454.602 L1446.62 454.602 M1443.69 452.201 L1450.29 452.201 Q1453.92 452.201 1455.77 453.85 Q1457.64 455.485 1457.64 458.653 Q1457.64 461.851 1455.77 463.485 Q1453.92 465.12 1450.29 465.12 L1446.62 465.12 L1446.62 473.801 L1443.69 473.801 L1443.69 452.201 Z" fill="#000000" fill-rule="evenodd" fill-opacity="1" /><path clip-path="url(#clip660)" d="M 0 0 M1473.24 465.033 L1473.24 466.336 L1461 466.336 Q1461.17 469.084 1462.65 470.531 Q1464.14 471.963 1466.78 471.963 Q1468.32 471.963 1469.75 471.587 Q1471.2 471.211 1472.61 470.459 L1472.61 472.976 Q1471.18 473.584 1469.68 473.902 Q1468.17 474.22 1466.62 474.22 Q1462.75 474.22 1460.48 471.963 Q1458.22 469.706 1458.22 465.858 Q1458.22 461.88 1460.36 459.55 Q1462.52 457.207 1466.16 457.207 Q1469.43 457.207 1471.33 459.319 Q1473.24 461.417 1473.24 465.033 M1470.57 464.252 Q1470.54 462.068 1469.34 460.766 Q1468.16 459.463 1466.19 459.463 Q1463.96 459.463 1462.62 460.722 Q1461.29 461.981 1461.08 464.267 L1470.57 464.252 Z" fill="#000000" fill-rule="evenodd" fill-opacity="1" /><path clip-path="url(#clip660)" d="M 0 0 M1485.42 460.086 Q1484.97 459.825 1484.43 459.709 Q1483.91 459.579 1483.28 459.579 Q1481.02 459.579 1479.8 461.055 Q1478.6 462.516 1478.6 465.265 L1478.6 473.801 L1475.93 473.801 L1475.93 457.597 L1478.6 457.597 L1478.6 460.115 Q1479.44 458.639 1480.79 457.93 Q1482.13 457.207 1484.06 457.207 Q1484.33 457.207 1484.66 457.25 Q1485 457.279 1485.4 457.351 L1485.42 460.086 Z" fill="#000000" fill-rule="evenodd" fill-opacity="1" /><path clip-path="url(#clip660)" d="M 0 0 M1496.41 451.289 L1496.41 453.503 L1493.87 453.503 Q1492.43 453.503 1491.87 454.082 Q1491.32 454.66 1491.32 456.165 L1491.32 457.597 L1495.7 457.597 L1495.7 459.666 L1491.32 459.666 L1491.32 473.801 L1488.64 473.801 L1488.64 459.666 L1486.1 459.666 L1486.1 457.597 L1488.64 457.597 L1488.64 456.469 Q1488.64 453.763 1489.9 452.534 Q1491.16 451.289 1493.9 451.289 L1496.41 451.289 Z" fill="#000000" fill-rule="evenodd" fill-opacity="1" /><path clip-path="url(#clip660)" d="M 0 0 M1505.48 459.463 Q1503.34 459.463 1502.1 461.142 Q1500.85 462.805 1500.85 465.713 Q1500.85 468.621 1502.08 470.3 Q1503.33 471.963 1505.48 471.963 Q1507.61 471.963 1508.85 470.285 Q1510.1 468.607 1510.1 465.713 Q1510.1 462.834 1508.85 461.156 Q1507.61 459.463 1505.48 459.463 M1505.48 457.207 Q1508.96 457.207 1510.94 459.463 Q1512.92 461.72 1512.92 465.713 Q1512.92 469.692 1510.94 471.963 Q1508.96 474.22 1505.48 474.22 Q1502 474.22 1500.01 471.963 Q1498.05 469.692 1498.05 465.713 Q1498.05 461.72 1500.01 459.463 Q1502 457.207 1505.48 457.207 Z" fill="#000000" fill-rule="evenodd" fill-opacity="1" /><path clip-path="url(#clip660)" d="M 0 0 M1525.1 460.086 Q1524.65 459.825 1524.12 459.709 Q1523.6 459.579 1522.96 459.579 Q1520.7 459.579 1519.49 461.055 Q1518.29 462.516 1518.29 465.265 L1518.29 473.801 L1515.61 473.801 L1515.61 457.597 L1518.29 457.597 L1518.29 460.115 Q1519.13 458.639 1520.47 457.93 Q1521.82 457.207 1523.74 457.207 Q1524.02 457.207 1524.35 457.25 Q1524.68 457.279 1525.09 457.351 L1525.1 460.086 Z" fill="#000000" fill-rule="evenodd" fill-opacity="1" /><path clip-path="url(#clip660)" d="M 0 0 M1539.99 460.708 Q1540.99 458.914 1542.38 458.06 Q1543.76 457.207 1545.65 457.207 Q1548.18 457.207 1549.55 458.986 Q1550.93 460.751 1550.93 464.021 L1550.93 473.801 L1548.25 473.801 L1548.25 464.108 Q1548.25 461.778 1547.42 460.65 Q1546.6 459.521 1544.91 459.521 Q1542.84 459.521 1541.64 460.896 Q1540.44 462.27 1540.44 464.643 L1540.44 473.801 L1537.76 473.801 L1537.76 464.108 Q1537.76 461.764 1536.94 460.65 Q1536.11 459.521 1534.39 459.521 Q1532.35 459.521 1531.15 460.91 Q1529.95 462.285 1529.95 464.643 L1529.95 473.801 L1527.27 473.801 L1527.27 457.597 L1529.95 457.597 L1529.95 460.115 Q1530.86 458.624 1532.13 457.915 Q1533.41 457.207 1535.16 457.207 Q1536.92 457.207 1538.15 458.104 Q1539.4 459.001 1539.99 460.708 Z" fill="#000000" fill-rule="evenodd" fill-opacity="1" /><path clip-path="url(#clip660)" d="M 0 0 M1561.08 465.656 Q1557.86 465.656 1556.61 466.393 Q1555.37 467.131 1555.37 468.911 Q1555.37 470.329 1556.29 471.168 Q1557.23 471.992 1558.84 471.992 Q1561.05 471.992 1562.38 470.43 Q1563.73 468.853 1563.73 466.249 L1563.73 465.656 L1561.08 465.656 M1566.39 464.556 L1566.39 473.801 L1563.73 473.801 L1563.73 471.341 Q1562.82 472.817 1561.46 473.526 Q1560.1 474.22 1558.13 474.22 Q1555.64 474.22 1554.17 472.831 Q1552.71 471.428 1552.71 469.084 Q1552.71 466.35 1554.53 464.961 Q1556.37 463.572 1560 463.572 L1563.73 463.572 L1563.73 463.312 Q1563.73 461.474 1562.51 460.476 Q1561.31 459.463 1559.13 459.463 Q1557.74 459.463 1556.42 459.796 Q1555.11 460.129 1553.89 460.795 L1553.89 458.335 Q1555.35 457.771 1556.73 457.496 Q1558.1 457.207 1559.4 457.207 Q1562.92 457.207 1564.66 459.029 Q1566.39 460.852 1566.39 464.556 Z" fill="#000000" fill-rule="evenodd" fill-opacity="1" /><path clip-path="url(#clip660)" d="M 0 0 M1582.65 464.021 L1582.65 473.801 L1579.99 473.801 L1579.99 464.108 Q1579.99 461.807 1579.09 460.664 Q1578.2 459.521 1576.4 459.521 Q1574.25 459.521 1573 460.896 Q1571.76 462.27 1571.76 464.643 L1571.76 473.801 L1569.08 473.801 L1569.08 457.597 L1571.76 457.597 L1571.76 460.115 Q1572.71 458.653 1574 457.93 Q1575.3 457.207 1577 457.207 Q1579.79 457.207 1581.22 458.943 Q1582.65 460.664 1582.65 464.021 Z" fill="#000000" fill-rule="evenodd" fill-opacity="1" /><path clip-path="url(#clip660)" d="M 0 0 M1597.11 458.219 L1597.11 460.708 Q1595.98 460.086 1594.83 459.782 Q1593.71 459.463 1592.55 459.463 Q1589.96 459.463 1588.53 461.113 Q1587.09 462.748 1587.09 465.713 Q1587.09 468.679 1588.53 470.329 Q1589.96 471.963 1592.55 471.963 Q1593.71 471.963 1594.83 471.66 Q1595.98 471.341 1597.11 470.719 L1597.11 473.179 Q1595.99 473.7 1594.79 473.96 Q1593.61 474.22 1592.26 474.22 Q1588.6 474.22 1586.44 471.92 Q1584.29 469.62 1584.29 465.713 Q1584.29 461.749 1586.46 459.478 Q1588.64 457.207 1592.43 457.207 Q1593.66 457.207 1594.83 457.467 Q1596.01 457.713 1597.11 458.219 Z" fill="#000000" fill-rule="evenodd" fill-opacity="1" /><path clip-path="url(#clip660)" d="M 0 0 M1613.76 465.033 L1613.76 466.336 L1601.52 466.336 Q1601.69 469.084 1603.17 470.531 Q1604.66 471.963 1607.31 471.963 Q1608.84 471.963 1610.27 471.587 Q1611.72 471.211 1613.14 470.459 L1613.14 472.976 Q1611.7 473.584 1610.2 473.902 Q1608.69 474.22 1607.15 474.22 Q1603.27 474.22 1601 471.963 Q1598.74 469.706 1598.74 465.858 Q1598.74 461.88 1600.88 459.55 Q1603.04 457.207 1606.68 457.207 Q1609.95 457.207 1611.85 459.319 Q1613.76 461.417 1613.76 465.033 M1611.1 464.252 Q1611.07 462.068 1609.87 460.766 Q1608.68 459.463 1606.71 459.463 Q1604.48 459.463 1603.14 460.722 Q1601.81 461.981 1601.61 464.267 L1611.1 464.252 Z" fill="#000000" fill-rule="evenodd" fill-opacity="1" /><path clip-path="url(#clip660)" d="M 0 0 M1628.86 478.72 L1628.86 480.789 L1613.47 480.789 L1613.47 478.72 L1628.86 478.72 Z" fill="#000000" fill-rule="evenodd" fill-opacity="1" /><path clip-path="url(#clip660)" d="M 0 0 M1634.69 454.602 L1634.69 462.719 L1638.37 462.719 Q1640.41 462.719 1641.52 461.663 Q1642.64 460.606 1642.64 458.653 Q1642.64 456.715 1641.52 455.659 Q1640.41 454.602 1638.37 454.602 L1634.69 454.602 M1631.77 452.201 L1638.37 452.201 Q1642 452.201 1643.85 453.85 Q1645.72 455.485 1645.72 458.653 Q1645.72 461.851 1643.85 463.485 Q1642 465.12 1638.37 465.12 L1634.69 465.12 L1634.69 473.801 L1631.77 473.801 L1631.77 452.201 Z" fill="#000000" fill-rule="evenodd" fill-opacity="1" /><path clip-path="url(#clip660)" d="M 0 0 M1654.54 465.656 Q1651.32 465.656 1650.07 466.393 Q1648.83 467.131 1648.83 468.911 Q1648.83 470.329 1649.75 471.168 Q1650.69 471.992 1652.3 471.992 Q1654.51 471.992 1655.84 470.43 Q1657.19 468.853 1657.19 466.249 L1657.19 465.656 L1654.54 465.656 M1659.85 464.556 L1659.85 473.801 L1657.19 473.801 L1657.19 471.341 Q1656.28 472.817 1654.92 473.526 Q1653.56 474.22 1651.59 474.22 Q1649.1 474.22 1647.63 472.831 Q1646.17 471.428 1646.17 469.084 Q1646.17 466.35 1647.99 464.961 Q1649.83 463.572 1653.46 463.572 L1657.19 463.572 L1657.19 463.312 Q1657.19 461.474 1655.97 460.476 Q1654.77 459.463 1652.59 459.463 Q1651.2 459.463 1649.88 459.796 Q1648.57 460.129 1647.35 460.795 L1647.35 458.335 Q1648.81 457.771 1650.19 457.496 Q1651.56 457.207 1652.86 457.207 Q1656.38 457.207 1658.12 459.029 Q1659.85 460.852 1659.85 464.556 Z" fill="#000000" fill-rule="evenodd" fill-opacity="1" /><path clip-path="url(#clip660)" d="M 0 0 M1672.03 460.086 Q1671.59 459.825 1671.05 459.709 Q1670.53 459.579 1669.89 459.579 Q1667.64 459.579 1666.42 461.055 Q1665.22 462.516 1665.22 465.265 L1665.22 473.801 L1662.54 473.801 L1662.54 457.597 L1665.22 457.597 L1665.22 460.115 Q1666.06 458.639 1667.4 457.93 Q1668.75 457.207 1670.67 457.207 Q1670.95 457.207 1671.28 457.25 Q1671.61 457.279 1672.02 457.351 L1672.03 460.086 Z" fill="#000000" fill-rule="evenodd" fill-opacity="1" /><path clip-path="url(#clip660)" d="M 0 0 M1682.19 465.656 Q1678.96 465.656 1677.72 466.393 Q1676.48 467.131 1676.48 468.911 Q1676.48 470.329 1677.4 471.168 Q1678.34 471.992 1679.95 471.992 Q1682.16 471.992 1683.49 470.43 Q1684.84 468.853 1684.84 466.249 L1684.84 465.656 L1682.19 465.656 M1687.5 464.556 L1687.5 473.801 L1684.84 473.801 L1684.84 471.341 Q1683.93 472.817 1682.57 473.526 Q1681.21 474.22 1679.24 474.22 Q1676.75 474.22 1675.27 472.831 Q1673.81 471.428 1673.81 469.084 Q1673.81 466.35 1675.64 464.961 Q1677.47 463.572 1681.1 463.572 L1684.84 463.572 L1684.84 463.312 Q1684.84 461.474 1683.62 460.476 Q1682.42 459.463 1680.24 459.463 Q1678.85 459.463 1677.53 459.796 Q1676.21 460.129 1675 460.795 L1675 458.335 Q1676.46 457.771 1677.84 457.496 Q1679.21 457.207 1680.51 457.207 Q1684.03 457.207 1685.76 459.029 Q1687.5 460.852 1687.5 464.556 Z" fill="#000000" fill-rule="evenodd" fill-opacity="1" /><path clip-path="url(#clip660)" d="M 0 0 M1702.91 460.708 Q1703.91 458.914 1705.29 458.06 Q1706.68 457.207 1708.56 457.207 Q1711.1 457.207 1712.47 458.986 Q1713.84 460.751 1713.84 464.021 L1713.84 473.801 L1711.17 473.801 L1711.17 464.108 Q1711.17 461.778 1710.34 460.65 Q1709.52 459.521 1707.83 459.521 Q1705.76 459.521 1704.56 460.896 Q1703.36 462.27 1703.36 464.643 L1703.36 473.801 L1700.68 473.801 L1700.68 464.108 Q1700.68 461.764 1699.85 460.65 Q1699.03 459.521 1697.31 459.521 Q1695.27 459.521 1694.07 460.91 Q1692.87 462.285 1692.87 464.643 L1692.87 473.801 L1690.19 473.801 L1690.19 457.597 L1692.87 457.597 L1692.87 460.115 Q1693.78 458.624 1695.05 457.915 Q1696.32 457.207 1698.08 457.207 Q1699.84 457.207 1701.07 458.104 Q1702.31 459.001 1702.91 460.708 Z" fill="#000000" fill-rule="evenodd" fill-opacity="1" /><path clip-path="url(#clip660)" d="M 0 0 M1730.5 465.033 L1730.5 466.336 L1718.26 466.336 Q1718.43 469.084 1719.91 470.531 Q1721.4 471.963 1724.04 471.963 Q1725.58 471.963 1727.01 471.587 Q1728.46 471.211 1729.87 470.459 L1729.87 472.976 Q1728.44 473.584 1726.94 473.902 Q1725.43 474.22 1723.89 474.22 Q1720.01 474.22 1717.74 471.963 Q1715.48 469.706 1715.48 465.858 Q1715.48 461.88 1717.62 459.55 Q1719.78 457.207 1723.42 457.207 Q1726.69 457.207 1728.59 459.319 Q1730.5 461.417 1730.5 465.033 M1727.83 464.252 Q1727.81 462.068 1726.61 460.766 Q1725.42 459.463 1723.45 459.463 Q1721.22 459.463 1719.88 460.722 Q1718.55 461.981 1718.34 464.267 L1727.83 464.252 Z" fill="#000000" fill-rule="evenodd" fill-opacity="1" /><path clip-path="url(#clip660)" d="M 0 0 M1735.92 452.997 L1735.92 457.597 L1741.41 457.597 L1741.41 459.666 L1735.92 459.666 L1735.92 468.462 Q1735.92 470.444 1736.46 471.009 Q1737.01 471.573 1738.67 471.573 L1741.41 471.573 L1741.41 473.801 L1738.67 473.801 Q1735.59 473.801 1734.42 472.658 Q1733.25 471.5 1733.25 468.462 L1733.25 459.666 L1731.29 459.666 L1731.29 457.597 L1733.25 457.597 L1733.25 452.997 L1735.92 452.997 Z" fill="#000000" fill-rule="evenodd" fill-opacity="1" /><path clip-path="url(#clip660)" d="M 0 0 M1758.06 465.033 L1758.06 466.336 L1745.82 466.336 Q1745.99 469.084 1747.47 470.531 Q1748.96 471.963 1751.6 471.963 Q1753.14 471.963 1754.57 471.587 Q1756.02 471.211 1757.44 470.459 L1757.44 472.976 Q1756 473.584 1754.5 473.902 Q1752.99 474.22 1751.45 474.22 Q1747.57 474.22 1745.3 471.963 Q1743.04 469.706 1743.04 465.858 Q1743.04 461.88 1745.18 459.55 Q1747.34 457.207 1750.98 457.207 Q1754.25 457.207 1756.15 459.319 Q1758.06 461.417 1758.06 465.033 M1755.4 464.252 Q1755.37 462.068 1754.17 460.766 Q1752.98 459.463 1751.01 459.463 Q1748.78 459.463 1747.44 460.722 Q1746.11 461.981 1745.9 464.267 L1755.4 464.252 Z" fill="#000000" fill-rule="evenodd" fill-opacity="1" /><path clip-path="url(#clip660)" d="M 0 0 M1770.24 460.086 Q1769.79 459.825 1769.26 459.709 Q1768.73 459.579 1768.1 459.579 Q1765.84 459.579 1764.63 461.055 Q1763.42 462.516 1763.42 465.265 L1763.42 473.801 L1760.75 473.801 L1760.75 457.597 L1763.42 457.597 L1763.42 460.115 Q1764.26 458.639 1765.61 457.93 Q1766.96 457.207 1768.88 457.207 Q1769.15 457.207 1769.49 457.25 Q1769.82 457.279 1770.22 457.351 L1770.24 460.086 Z" fill="#000000" fill-rule="evenodd" fill-opacity="1" /><path clip-path="url(#clip660)" d="M 0 0 M1783.36 458.075 L1783.36 460.592 Q1782.23 460.013 1781.02 459.724 Q1779.8 459.435 1778.5 459.435 Q1776.52 459.435 1775.52 460.042 Q1774.54 460.65 1774.54 461.865 Q1774.54 462.791 1775.24 463.326 Q1775.95 463.847 1778.1 464.325 L1779.01 464.527 Q1781.84 465.135 1783.03 466.249 Q1784.23 467.348 1784.23 469.33 Q1784.23 471.587 1782.44 472.904 Q1780.66 474.22 1777.53 474.22 Q1776.23 474.22 1774.81 473.96 Q1773.41 473.714 1771.85 473.208 L1771.85 470.459 Q1773.32 471.226 1774.75 471.616 Q1776.19 471.992 1777.59 471.992 Q1779.47 471.992 1780.48 471.356 Q1781.49 470.705 1781.49 469.533 Q1781.49 468.448 1780.76 467.869 Q1780.03 467.29 1777.56 466.755 L1776.63 466.538 Q1774.16 466.017 1773.06 464.947 Q1771.96 463.862 1771.96 461.981 Q1771.96 459.695 1773.58 458.451 Q1775.2 457.207 1778.18 457.207 Q1779.66 457.207 1780.96 457.424 Q1782.26 457.641 1783.36 458.075 Z" fill="#000000" fill-rule="evenodd" fill-opacity="1" /><path clip-path="url(#clip660)" d="M 0 0 M896.246 916.056 L896.246 919.137 Q894.77 917.763 893.092 917.083 Q891.428 916.403 889.547 916.403 Q885.844 916.403 883.876 918.674 Q881.908 920.931 881.908 925.214 Q881.908 929.481 883.876 931.753 Q885.844 934.01 889.547 934.01 Q891.428 934.01 893.092 933.33 Q894.77 932.65 896.246 931.275 L896.246 934.328 Q894.712 935.37 892.99 935.891 Q891.283 936.411 889.374 936.411 Q884.469 936.411 881.648 933.417 Q878.827 930.407 878.827 925.214 Q878.827 920.005 881.648 917.01 Q884.469 914.001 889.374 914.001 Q891.312 914.001 893.019 914.522 Q894.741 915.028 896.246 916.056 Z" fill="#000000" fill-rule="evenodd" fill-opacity="1" /><path clip-path="url(#clip660)" d="M 0 0 M899.038 913.48 L901.7 913.48 L901.7 935.992 L899.038 935.992 L899.038 913.48 Z" fill="#000000" fill-rule="evenodd" fill-opacity="1" /><path clip-path="url(#clip660)" d="M 0 0 M904.492 919.788 L907.154 919.788 L907.154 935.992 L904.492 935.992 L904.492 919.788 M904.492 913.48 L907.154 913.48 L907.154 916.851 L904.492 916.851 L904.492 913.48 Z" fill="#000000" fill-rule="evenodd" fill-opacity="1" /><path clip-path="url(#clip660)" d="M 0 0 M923.806 927.225 L923.806 928.527 L911.567 928.527 Q911.74 931.275 913.216 932.722 Q914.706 934.154 917.354 934.154 Q918.887 934.154 920.32 933.778 Q921.766 933.402 923.184 932.65 L923.184 935.167 Q921.752 935.775 920.247 936.093 Q918.743 936.411 917.195 936.411 Q913.317 936.411 911.046 934.154 Q908.789 931.898 908.789 928.049 Q908.789 924.071 910.93 921.741 Q913.086 919.398 916.732 919.398 Q920.001 919.398 921.897 921.51 Q923.806 923.608 923.806 927.225 M921.144 926.443 Q921.115 924.259 919.915 922.957 Q918.728 921.655 916.761 921.655 Q914.533 921.655 913.187 922.913 Q911.856 924.172 911.654 926.458 L921.144 926.443 Z" fill="#000000" fill-rule="evenodd" fill-opacity="1" /><path clip-path="url(#clip660)" d="M 0 0 M940.068 926.212 L940.068 935.992 L937.406 935.992 L937.406 926.299 Q937.406 923.998 936.509 922.855 Q935.612 921.712 933.818 921.712 Q931.662 921.712 930.418 923.087 Q929.174 924.461 929.174 926.834 L929.174 935.992 L926.497 935.992 L926.497 919.788 L929.174 919.788 L929.174 922.306 Q930.129 920.844 931.416 920.121 Q932.718 919.398 934.411 919.398 Q937.203 919.398 938.635 921.134 Q940.068 922.855 940.068 926.212 Z" fill="#000000" fill-rule="evenodd" fill-opacity="1" /><path clip-path="url(#clip660)" d="M 0 0 M945.493 915.188 L945.493 919.788 L950.976 919.788 L950.976 921.857 L945.493 921.857 L945.493 930.653 Q945.493 932.635 946.028 933.2 Q946.578 933.764 948.242 933.764 L950.976 933.764 L950.976 935.992 L948.242 935.992 Q945.16 935.992 943.988 934.849 Q942.817 933.692 942.817 930.653 L942.817 921.857 L940.863 921.857 L940.863 919.788 L942.817 919.788 L942.817 915.188 L945.493 915.188 Z" fill="#000000" fill-rule="evenodd" fill-opacity="1" /><path clip-path="url(#clip660)" d="M 0 0 M966.08 940.911 L966.08 942.98 L950.687 942.98 L950.687 940.911 L966.08 940.911 Z" fill="#000000" fill-rule="evenodd" fill-opacity="1" /><path clip-path="url(#clip660)" d="M 0 0 M976.237 927.847 Q973.01 927.847 971.766 928.585 Q970.522 929.322 970.522 931.102 Q970.522 932.52 971.448 933.359 Q972.388 934.183 973.994 934.183 Q976.208 934.183 977.539 932.621 Q978.884 931.044 978.884 928.44 L978.884 927.847 L976.237 927.847 M981.546 926.747 L981.546 935.992 L978.884 935.992 L978.884 933.532 Q977.973 935.008 976.613 935.717 Q975.253 936.411 973.285 936.411 Q970.797 936.411 969.321 935.023 Q967.86 933.619 967.86 931.275 Q967.86 928.541 969.683 927.152 Q971.52 925.763 975.151 925.763 L978.884 925.763 L978.884 925.503 Q978.884 923.666 977.669 922.667 Q976.468 921.655 974.283 921.655 Q972.895 921.655 971.578 921.987 Q970.261 922.32 969.046 922.986 L969.046 920.526 Q970.507 919.962 971.882 919.687 Q973.256 919.398 974.558 919.398 Q978.074 919.398 979.81 921.221 Q981.546 923.043 981.546 926.747 Z" fill="#000000" fill-rule="evenodd" fill-opacity="1" /><path clip-path="url(#clip660)" d="M 0 0 M997.808 926.212 L997.808 935.992 L995.146 935.992 L995.146 926.299 Q995.146 923.998 994.249 922.855 Q993.352 921.712 991.558 921.712 Q989.402 921.712 988.158 923.087 Q986.914 924.461 986.914 926.834 L986.914 935.992 L984.237 935.992 L984.237 919.788 L986.914 919.788 L986.914 922.306 Q987.868 920.844 989.156 920.121 Q990.458 919.398 992.151 919.398 Q994.943 919.398 996.375 921.134 Q997.808 922.855 997.808 926.212 Z" fill="#000000" fill-rule="evenodd" fill-opacity="1" /><path clip-path="url(#clip660)" d="M 0 0 M1011.26 922.248 L1011.26 913.48 L1013.92 913.48 L1013.92 935.992 L1011.26 935.992 L1011.26 933.561 Q1010.42 935.008 1009.14 935.717 Q1007.86 936.411 1006.07 936.411 Q1003.13 936.411 1001.28 934.068 Q999.442 931.724 999.442 927.905 Q999.442 924.085 1001.28 921.741 Q1003.13 919.398 1006.07 919.398 Q1007.86 919.398 1009.14 920.107 Q1010.42 920.801 1011.26 922.248 M1002.19 927.905 Q1002.19 930.841 1003.39 932.52 Q1004.61 934.183 1006.72 934.183 Q1008.83 934.183 1010.05 932.52 Q1011.26 930.841 1011.26 927.905 Q1011.26 924.968 1010.05 923.304 Q1008.83 921.626 1006.72 921.626 Q1004.61 921.626 1003.39 923.304 Q1002.19 924.968 1002.19 927.905 Z" fill="#000000" fill-rule="evenodd" fill-opacity="1" /><path clip-path="url(#clip660)" d="M 0 0 M1029.03 940.911 L1029.03 942.98 L1013.64 942.98 L1013.64 940.911 L1029.03 940.911 Z" fill="#000000" fill-rule="evenodd" fill-opacity="1" /><path clip-path="url(#clip660)" d="M 0 0 M1048.11 916.056 L1048.11 919.137 Q1046.64 917.763 1044.96 917.083 Q1043.29 916.403 1041.41 916.403 Q1037.71 916.403 1035.74 918.674 Q1033.77 920.931 1033.77 925.214 Q1033.77 929.481 1035.74 931.753 Q1037.71 934.01 1041.41 934.01 Q1043.29 934.01 1044.96 933.33 Q1046.64 932.65 1048.11 931.275 L1048.11 934.328 Q1046.58 935.37 1044.86 935.891 Q1043.15 936.411 1041.24 936.411 Q1036.33 936.411 1033.51 933.417 Q1030.69 930.407 1030.69 925.214 Q1030.69 920.005 1033.51 917.01 Q1036.33 914.001 1041.24 914.001 Q1043.18 914.001 1044.88 914.522 Q1046.61 915.028 1048.11 916.056 Z" fill="#000000" fill-rule="evenodd" fill-opacity="1" /><path clip-path="url(#clip660)" d="M 0 0 M1057.18 921.655 Q1055.04 921.655 1053.8 923.333 Q1052.55 924.997 1052.55 927.905 Q1052.55 930.813 1053.78 932.491 Q1055.03 934.154 1057.18 934.154 Q1059.31 934.154 1060.55 932.476 Q1061.8 930.798 1061.8 927.905 Q1061.8 925.025 1060.55 923.347 Q1059.31 921.655 1057.18 921.655 M1057.18 919.398 Q1060.65 919.398 1062.64 921.655 Q1064.62 923.911 1064.62 927.905 Q1064.62 931.883 1062.64 934.154 Q1060.65 936.411 1057.18 936.411 Q1053.7 936.411 1051.71 934.154 Q1049.75 931.883 1049.75 927.905 Q1049.75 923.911 1051.71 921.655 Q1053.7 919.398 1057.18 919.398 Z" fill="#000000" fill-rule="evenodd" fill-opacity="1" /><path clip-path="url(#clip660)" d="M 0 0 M1080.88 926.212 L1080.88 935.992 L1078.22 935.992 L1078.22 926.299 Q1078.22 923.998 1077.32 922.855 Q1076.42 921.712 1074.63 921.712 Q1072.47 921.712 1071.23 923.087 Q1069.99 924.461 1069.99 926.834 L1069.99 935.992 L1067.31 935.992 L1067.31 919.788 L1069.99 919.788 L1069.99 922.306 Q1070.94 920.844 1072.23 920.121 Q1073.53 919.398 1075.22 919.398 Q1078.02 919.398 1079.45 921.134 Q1080.88 922.855 1080.88 926.212 Z" fill="#000000" fill-rule="evenodd" fill-opacity="1" /><path clip-path="url(#clip660)" d="M 0 0 M1094 920.266 L1094 922.783 Q1092.87 922.204 1091.66 921.915 Q1090.44 921.626 1089.14 921.626 Q1087.16 921.626 1086.16 922.233 Q1085.18 922.841 1085.18 924.056 Q1085.18 924.982 1085.89 925.517 Q1086.59 926.038 1088.74 926.516 L1089.65 926.718 Q1092.48 927.326 1093.67 928.44 Q1094.87 929.539 1094.87 931.521 Q1094.87 933.778 1093.08 935.095 Q1091.3 936.411 1088.17 936.411 Q1086.87 936.411 1085.45 936.151 Q1084.05 935.905 1082.49 935.399 L1082.49 932.65 Q1083.96 933.417 1085.39 933.807 Q1086.83 934.183 1088.23 934.183 Q1090.11 934.183 1091.12 933.547 Q1092.14 932.896 1092.14 931.724 Q1092.14 930.639 1091.4 930.06 Q1090.67 929.481 1088.2 928.946 L1087.27 928.729 Q1084.8 928.208 1083.7 927.138 Q1082.6 926.053 1082.6 924.172 Q1082.6 921.886 1084.22 920.642 Q1085.84 919.398 1088.82 919.398 Q1090.3 919.398 1091.6 919.615 Q1092.9 919.832 1094 920.266 Z" fill="#000000" fill-rule="evenodd" fill-opacity="1" /><path clip-path="url(#clip660)" d="M 0 0 M1097.39 929.597 L1097.39 919.788 L1100.05 919.788 L1100.05 929.496 Q1100.05 931.796 1100.95 932.954 Q1101.84 934.097 1103.64 934.097 Q1105.79 934.097 1107.04 932.722 Q1108.3 931.348 1108.3 928.975 L1108.3 919.788 L1110.96 919.788 L1110.96 935.992 L1108.3 935.992 L1108.3 933.503 Q1107.33 934.979 1106.04 935.703 Q1104.77 936.411 1103.07 936.411 Q1100.28 936.411 1098.83 934.675 Q1097.39 932.939 1097.39 929.597 M1104.09 919.398 L1104.09 919.398 Z" fill="#000000" fill-rule="evenodd" fill-opacity="1" /><path clip-path="url(#clip660)" d="M 0 0 M1113.75 913.48 L1116.41 913.48 L1116.41 935.992 L1113.75 935.992 L1113.75 913.48 Z" fill="#000000" fill-rule="evenodd" fill-opacity="1" /><path clip-path="url(#clip660)" d="M 0 0 M1121.84 915.188 L1121.84 919.788 L1127.32 919.788 L1127.32 921.857 L1121.84 921.857 L1121.84 930.653 Q1121.84 932.635 1122.37 933.2 Q1122.92 933.764 1124.59 933.764 L1127.32 933.764 L1127.32 935.992 L1124.59 935.992 Q1121.5 935.992 1120.33 934.849 Q1119.16 933.692 1119.16 930.653 L1119.16 921.857 L1117.21 921.857 L1117.21 919.788 L1119.16 919.788 L1119.16 915.188 L1121.84 915.188 Z" fill="#000000" fill-rule="evenodd" fill-opacity="1" /><path clip-path="url(#clip660)" d="M 0 0 M1137.48 927.847 Q1134.25 927.847 1133.01 928.585 Q1131.76 929.322 1131.76 931.102 Q1131.76 932.52 1132.69 933.359 Q1133.63 934.183 1135.23 934.183 Q1137.45 934.183 1138.78 932.621 Q1140.12 931.044 1140.12 928.44 L1140.12 927.847 L1137.48 927.847 M1142.79 926.747 L1142.79 935.992 L1140.12 935.992 L1140.12 933.532 Q1139.21 935.008 1137.85 935.717 Q1136.49 936.411 1134.53 936.411 Q1132.04 936.411 1130.56 935.023 Q1129.1 933.619 1129.1 931.275 Q1129.1 928.541 1130.92 927.152 Q1132.76 925.763 1136.39 925.763 L1140.12 925.763 L1140.12 925.503 Q1140.12 923.666 1138.91 922.667 Q1137.71 921.655 1135.52 921.655 Q1134.14 921.655 1132.82 921.987 Q1131.5 922.32 1130.29 922.986 L1130.29 920.526 Q1131.75 919.962 1133.12 919.687 Q1134.5 919.398 1135.8 919.398 Q1139.31 919.398 1141.05 921.221 Q1142.79 923.043 1142.79 926.747 Z" fill="#000000" fill-rule="evenodd" fill-opacity="1" /><path clip-path="url(#clip660)" d="M 0 0 M1159.05 926.212 L1159.05 935.992 L1156.39 935.992 L1156.39 926.299 Q1156.39 923.998 1155.49 922.855 Q1154.59 921.712 1152.8 921.712 Q1150.64 921.712 1149.4 923.087 Q1148.15 924.461 1148.15 926.834 L1148.15 935.992 L1145.48 935.992 L1145.48 919.788 L1148.15 919.788 L1148.15 922.306 Q1149.11 920.844 1150.4 920.121 Q1151.7 919.398 1153.39 919.398 Q1156.18 919.398 1157.62 921.134 Q1159.05 922.855 1159.05 926.212 Z" fill="#000000" fill-rule="evenodd" fill-opacity="1" /><path clip-path="url(#clip660)" d="M 0 0 M1164.47 915.188 L1164.47 919.788 L1169.96 919.788 L1169.96 921.857 L1164.47 921.857 L1164.47 930.653 Q1164.47 932.635 1165.01 933.2 Q1165.56 933.764 1167.22 933.764 L1169.96 933.764 L1169.96 935.992 L1167.22 935.992 Q1164.14 935.992 1162.97 934.849 Q1161.8 933.692 1161.8 930.653 L1161.8 921.857 L1159.84 921.857 L1159.84 919.788 L1161.8 919.788 L1161.8 915.188 L1164.47 915.188 Z" fill="#000000" fill-rule="evenodd" fill-opacity="1" /><path clip-path="url(#clip660)" d="M 0 0 M1185.06 940.911 L1185.06 942.98 L1169.67 942.98 L1169.67 940.911 L1185.06 940.911 Z" fill="#000000" fill-rule="evenodd" fill-opacity="1" /><path clip-path="url(#clip660)" d="M 0 0 M1198.21 925.865 Q1199.15 926.183 1200.03 927.225 Q1200.93 928.266 1201.83 930.089 L1204.79 935.992 L1201.65 935.992 L1198.89 930.451 Q1197.82 928.281 1196.81 927.572 Q1195.81 926.863 1194.07 926.863 L1190.89 926.863 L1190.89 935.992 L1187.97 935.992 L1187.97 914.392 L1194.57 914.392 Q1198.27 914.392 1200.09 915.94 Q1201.92 917.488 1201.92 920.613 Q1201.92 922.653 1200.96 923.998 Q1200.02 925.344 1198.21 925.865 M1190.89 916.793 L1190.89 924.461 L1194.57 924.461 Q1196.68 924.461 1197.75 923.492 Q1198.83 922.508 1198.83 920.613 Q1198.83 918.718 1197.75 917.763 Q1196.68 916.793 1194.57 916.793 L1190.89 916.793 Z" fill="#000000" fill-rule="evenodd" fill-opacity="1" /><path clip-path="url(#clip660)" d="M 0 0 M1220.12 927.225 L1220.12 928.527 L1207.88 928.527 Q1208.05 931.275 1209.53 932.722 Q1211.02 934.154 1213.66 934.154 Q1215.2 934.154 1216.63 933.778 Q1218.08 933.402 1219.49 932.65 L1219.49 935.167 Q1218.06 935.775 1216.56 936.093 Q1215.05 936.411 1213.5 936.411 Q1209.63 936.411 1207.36 934.154 Q1205.1 931.898 1205.1 928.049 Q1205.1 924.071 1207.24 921.741 Q1209.4 919.398 1213.04 919.398 Q1216.31 919.398 1218.21 921.51 Q1220.12 923.608 1220.12 927.225 M1217.45 926.443 Q1217.42 924.259 1216.22 922.957 Q1215.04 921.655 1213.07 921.655 Q1210.84 921.655 1209.5 922.913 Q1208.17 924.172 1207.96 926.458 L1217.45 926.443 Z" fill="#000000" fill-rule="evenodd" fill-opacity="1" /><path clip-path="url(#clip660)" d="M 0 0 M1224.5 927.905 Q1224.5 930.841 1225.7 932.52 Q1226.92 934.183 1229.03 934.183 Q1231.14 934.183 1232.35 932.52 Q1233.57 930.841 1233.57 927.905 Q1233.57 924.968 1232.35 923.304 Q1231.14 921.626 1229.03 921.626 Q1226.92 921.626 1225.7 923.304 Q1224.5 924.968 1224.5 927.905 M1233.57 933.561 Q1232.73 935.008 1231.44 935.717 Q1230.17 936.411 1228.38 936.411 Q1225.44 936.411 1223.59 934.068 Q1221.75 931.724 1221.75 927.905 Q1221.75 924.085 1223.59 921.741 Q1225.44 919.398 1228.38 919.398 Q1230.17 919.398 1231.44 920.107 Q1232.73 920.801 1233.57 922.248 L1233.57 919.788 L1236.23 919.788 L1236.23 942.155 L1233.57 942.155 L1233.57 933.561 Z" fill="#000000" fill-rule="evenodd" fill-opacity="1" /><path clip-path="url(#clip660)" d="M 0 0 M1238.75 929.597 L1238.75 919.788 L1241.41 919.788 L1241.41 929.496 Q1241.41 931.796 1242.31 932.954 Q1243.21 934.097 1245 934.097 Q1247.16 934.097 1248.4 932.722 Q1249.66 931.348 1249.66 928.975 L1249.66 919.788 L1252.32 919.788 L1252.32 935.992 L1249.66 935.992 L1249.66 933.503 Q1248.69 934.979 1247.4 935.703 Q1246.13 936.411 1244.44 936.411 Q1241.64 936.411 1240.2 934.675 Q1238.75 932.939 1238.75 929.597 M1245.45 919.398 L1245.45 919.398 Z" fill="#000000" fill-rule="evenodd" fill-opacity="1" /><path clip-path="url(#clip660)" d="M 0 0 M1268.97 927.225 L1268.97 928.527 L1256.73 928.527 Q1256.91 931.275 1258.38 932.722 Q1259.87 934.154 1262.52 934.154 Q1264.05 934.154 1265.49 933.778 Q1266.93 933.402 1268.35 932.65 L1268.35 935.167 Q1266.92 935.775 1265.41 936.093 Q1263.91 936.411 1262.36 936.411 Q1258.48 936.411 1256.21 934.154 Q1253.95 931.898 1253.95 928.049 Q1253.95 924.071 1256.1 921.741 Q1258.25 919.398 1261.9 919.398 Q1265.17 919.398 1267.06 921.51 Q1268.97 923.608 1268.97 927.225 M1266.31 926.443 Q1266.28 924.259 1265.08 922.957 Q1263.89 921.655 1261.93 921.655 Q1259.7 921.655 1258.35 922.913 Q1257.02 924.172 1256.82 926.458 L1266.31 926.443 Z" fill="#000000" fill-rule="evenodd" fill-opacity="1" /><path clip-path="url(#clip660)" d="M 0 0 M1282.09 920.266 L1282.09 922.783 Q1280.97 922.204 1279.75 921.915 Q1278.54 921.626 1277.23 921.626 Q1275.25 921.626 1274.25 922.233 Q1273.27 922.841 1273.27 924.056 Q1273.27 924.982 1273.98 925.517 Q1274.69 926.038 1276.83 926.516 L1277.74 926.718 Q1280.58 927.326 1281.76 928.44 Q1282.96 929.539 1282.96 931.521 Q1282.96 933.778 1281.17 935.095 Q1279.39 936.411 1276.26 936.411 Q1274.96 936.411 1273.54 936.151 Q1272.14 935.905 1270.58 935.399 L1270.58 932.65 Q1272.05 933.417 1273.49 933.807 Q1274.92 934.183 1276.32 934.183 Q1278.2 934.183 1279.22 933.547 Q1280.23 932.896 1280.23 931.724 Q1280.23 930.639 1279.49 930.06 Q1278.77 929.481 1276.29 928.946 L1275.37 928.729 Q1272.89 928.208 1271.79 927.138 Q1270.69 926.053 1270.69 924.172 Q1270.69 921.886 1272.31 920.642 Q1273.93 919.398 1276.91 919.398 Q1278.39 919.398 1279.69 919.615 Q1280.99 919.832 1282.09 920.266 Z" fill="#000000" fill-rule="evenodd" fill-opacity="1" /><path clip-path="url(#clip660)" d="M 0 0 M1288.39 915.188 L1288.39 919.788 L1293.87 919.788 L1293.87 921.857 L1288.39 921.857 L1288.39 930.653 Q1288.39 932.635 1288.92 933.2 Q1289.47 933.764 1291.14 933.764 L1293.87 933.764 L1293.87 935.992 L1291.14 935.992 Q1288.05 935.992 1286.88 934.849 Q1285.71 933.692 1285.71 930.653 L1285.71 921.857 L1283.76 921.857 L1283.76 919.788 L1285.71 919.788 L1285.71 915.188 L1288.39 915.188 Z" fill="#000000" fill-rule="evenodd" fill-opacity="1" /><path clip-path="url(#clip660)" d="M 0 0 M1306.99 920.266 L1306.99 922.783 Q1305.86 922.204 1304.65 921.915 Q1303.43 921.626 1302.13 921.626 Q1300.15 921.626 1299.15 922.233 Q1298.17 922.841 1298.17 924.056 Q1298.17 924.982 1298.88 925.517 Q1299.59 926.038 1301.73 926.516 L1302.64 926.718 Q1305.47 927.326 1306.66 928.44 Q1307.86 929.539 1307.86 931.521 Q1307.86 933.778 1306.07 935.095 Q1304.29 936.411 1301.16 936.411 Q1299.86 936.411 1298.44 936.151 Q1297.04 935.905 1295.48 935.399 L1295.48 932.65 Q1296.95 933.417 1298.38 933.807 Q1299.82 934.183 1301.22 934.183 Q1303.1 934.183 1304.11 933.547 Q1305.13 932.896 1305.13 931.724 Q1305.13 930.639 1304.39 930.06 Q1303.67 929.481 1301.19 928.946 L1300.27 928.729 Q1297.79 928.208 1296.69 927.138 Q1295.59 926.053 1295.59 924.172 Q1295.59 921.886 1297.21 920.642 Q1298.83 919.398 1301.81 919.398 Q1303.29 919.398 1304.59 919.615 Q1305.89 919.832 1306.99 920.266 Z" fill="#000000" fill-rule="evenodd" fill-opacity="1" /><path clip-path="url(#clip660)" d="M 0 0 M1468.78 1017.23 L1468.78 1034.03 L1472.31 1034.03 Q1476.78 1034.03 1478.85 1032 Q1480.93 1029.98 1480.93 1025.61 Q1480.93 1021.27 1478.85 1019.25 Q1476.78 1017.23 1472.31 1017.23 L1468.78 1017.23 M1465.86 1014.83 L1471.86 1014.83 Q1478.14 1014.83 1481.08 1017.45 Q1484.02 1020.05 1484.02 1025.61 Q1484.02 1031.19 1481.06 1033.81 Q1478.11 1036.43 1471.86 1036.43 L1465.86 1036.43 L1465.86 1014.83 Z" fill="#000000" fill-rule="evenodd" fill-opacity="1" /><path clip-path="url(#clip660)" d="M 0 0 M1500.67 1027.66 L1500.67 1028.96 L1488.43 1028.96 Q1488.6 1031.71 1490.08 1033.16 Q1491.57 1034.59 1494.22 1034.59 Q1495.75 1034.59 1497.18 1034.21 Q1498.63 1033.84 1500.05 1033.09 L1500.05 1035.6 Q1498.61 1036.21 1497.11 1036.53 Q1495.6 1036.85 1494.06 1036.85 Q1490.18 1036.85 1487.91 1034.59 Q1485.65 1032.33 1485.65 1028.49 Q1485.65 1024.51 1487.79 1022.18 Q1489.95 1019.83 1493.59 1019.83 Q1496.86 1019.83 1498.76 1021.95 Q1500.67 1024.04 1500.67 1027.66 M1498.01 1026.88 Q1497.98 1024.69 1496.78 1023.39 Q1495.59 1022.09 1493.62 1022.09 Q1491.39 1022.09 1490.05 1023.35 Q1488.72 1024.61 1488.52 1026.89 L1498.01 1026.88 Z" fill="#000000" fill-rule="evenodd" fill-opacity="1" /><path clip-path="url(#clip660)" d="M 0 0 M1513.79 1020.7 L1513.79 1023.22 Q1512.66 1022.64 1511.45 1022.35 Q1510.23 1022.06 1508.93 1022.06 Q1506.95 1022.06 1505.95 1022.67 Q1504.97 1023.28 1504.97 1024.49 Q1504.97 1025.42 1505.67 1025.95 Q1506.38 1026.47 1508.52 1026.95 L1509.44 1027.15 Q1512.27 1027.76 1513.46 1028.88 Q1514.66 1029.98 1514.66 1031.96 Q1514.66 1034.21 1512.86 1035.53 Q1511.09 1036.85 1507.96 1036.85 Q1506.66 1036.85 1505.24 1036.59 Q1503.84 1036.34 1502.27 1035.83 L1502.27 1033.09 Q1503.75 1033.85 1505.18 1034.24 Q1506.61 1034.62 1508.02 1034.62 Q1509.9 1034.62 1510.91 1033.98 Q1511.92 1033.33 1511.92 1032.16 Q1511.92 1031.07 1511.19 1030.5 Q1510.46 1029.92 1507.99 1029.38 L1507.06 1029.17 Q1504.59 1028.64 1503.49 1027.57 Q1502.39 1026.49 1502.39 1024.61 Q1502.39 1022.32 1504.01 1021.08 Q1505.63 1019.83 1508.61 1019.83 Q1510.09 1019.83 1511.39 1020.05 Q1512.69 1020.27 1513.79 1020.7 Z" fill="#000000" fill-rule="evenodd" fill-opacity="1" /><path clip-path="url(#clip660)" d="M 0 0 M1517.45 1020.22 L1520.11 1020.22 L1520.11 1036.43 L1517.45 1036.43 L1517.45 1020.22 M1517.45 1013.92 L1520.11 1013.92 L1520.11 1017.29 L1517.45 1017.29 L1517.45 1013.92 Z" fill="#000000" fill-rule="evenodd" fill-opacity="1" /><path clip-path="url(#clip660)" d="M 0 0 M1533.57 1028.14 Q1533.57 1025.24 1532.37 1023.65 Q1531.18 1022.06 1529.02 1022.06 Q1526.88 1022.06 1525.68 1023.65 Q1524.5 1025.24 1524.5 1028.14 Q1524.5 1031.02 1525.68 1032.61 Q1526.88 1034.2 1529.02 1034.2 Q1531.18 1034.2 1532.37 1032.61 Q1533.57 1031.02 1533.57 1028.14 M1536.23 1034.42 Q1536.23 1038.55 1534.39 1040.57 Q1532.55 1042.59 1528.76 1042.59 Q1527.36 1042.59 1526.12 1042.37 Q1524.87 1042.17 1523.7 1041.74 L1523.7 1039.15 Q1524.87 1039.78 1526.02 1040.09 Q1527.16 1040.39 1528.34 1040.39 Q1530.96 1040.39 1532.27 1039.02 Q1533.57 1037.66 1533.57 1034.89 L1533.57 1033.58 Q1532.74 1035.01 1531.46 1035.72 Q1530.17 1036.43 1528.37 1036.43 Q1525.39 1036.43 1523.57 1034.16 Q1521.75 1031.88 1521.75 1028.14 Q1521.75 1024.38 1523.57 1022.1 Q1525.39 1019.83 1528.37 1019.83 Q1530.17 1019.83 1531.46 1020.54 Q1532.74 1021.25 1533.57 1022.68 L1533.57 1020.22 L1536.23 1020.22 L1536.23 1034.42 Z" fill="#000000" fill-rule="evenodd" fill-opacity="1" /><path clip-path="url(#clip660)" d="M 0 0 M1552.49 1026.65 L1552.49 1036.43 L1549.83 1036.43 L1549.83 1026.73 Q1549.83 1024.43 1548.93 1023.29 Q1548.04 1022.15 1546.24 1022.15 Q1544.09 1022.15 1542.84 1023.52 Q1541.6 1024.9 1541.6 1027.27 L1541.6 1036.43 L1538.92 1036.43 L1538.92 1020.22 L1541.6 1020.22 L1541.6 1022.74 Q1542.55 1021.28 1543.84 1020.56 Q1545.14 1019.83 1546.83 1019.83 Q1549.63 1019.83 1551.06 1021.57 Q1552.49 1023.29 1552.49 1026.65 Z" fill="#000000" fill-rule="evenodd" fill-opacity="1" /><path clip-path="url(#clip660)" d="M 0 0 M1567.6 1041.35 L1567.6 1043.42 L1552.2 1043.42 L1552.2 1041.35 L1567.6 1041.35 Z" fill="#000000" fill-rule="evenodd" fill-opacity="1" /><path clip-path="url(#clip660)" d="M 0 0 M1580.75 1026.3 Q1581.69 1026.62 1582.57 1027.66 Q1583.47 1028.7 1584.36 1030.53 L1587.33 1036.43 L1584.19 1036.43 L1581.43 1030.89 Q1580.36 1028.72 1579.34 1028.01 Q1578.34 1027.3 1576.61 1027.3 L1573.43 1027.3 L1573.43 1036.43 L1570.5 1036.43 L1570.5 1014.83 L1577.1 1014.83 Q1580.8 1014.83 1582.63 1016.38 Q1584.45 1017.92 1584.45 1021.05 Q1584.45 1023.09 1583.49 1024.43 Q1582.55 1025.78 1580.75 1026.3 M1573.43 1017.23 L1573.43 1024.9 L1577.1 1024.9 Q1579.21 1024.9 1580.28 1023.93 Q1581.37 1022.94 1581.37 1021.05 Q1581.37 1019.15 1580.28 1018.2 Q1579.21 1017.23 1577.1 1017.23 L1573.43 1017.23 Z" fill="#000000" fill-rule="evenodd" fill-opacity="1" /><path clip-path="url(#clip660)" d="M 0 0 M1602.65 1027.66 L1602.65 1028.96 L1590.41 1028.96 Q1590.58 1031.71 1592.06 1033.16 Q1593.55 1034.59 1596.2 1034.59 Q1597.73 1034.59 1599.16 1034.21 Q1600.61 1033.84 1602.03 1033.09 L1602.03 1035.6 Q1600.6 1036.21 1599.09 1036.53 Q1597.59 1036.85 1596.04 1036.85 Q1592.16 1036.85 1589.89 1034.59 Q1587.63 1032.33 1587.63 1028.49 Q1587.63 1024.51 1589.77 1022.18 Q1591.93 1019.83 1595.58 1019.83 Q1598.85 1019.83 1600.74 1021.95 Q1602.65 1024.04 1602.65 1027.66 M1599.99 1026.88 Q1599.96 1024.69 1598.76 1023.39 Q1597.57 1022.09 1595.6 1022.09 Q1593.38 1022.09 1592.03 1023.35 Q1590.7 1024.61 1590.5 1026.89 L1599.99 1026.88 Z" fill="#000000" fill-rule="evenodd" fill-opacity="1" /><path clip-path="url(#clip660)" d="M 0 0 M1612.81 1028.28 Q1609.58 1028.28 1608.34 1029.02 Q1607.09 1029.76 1607.09 1031.54 Q1607.09 1032.96 1608.02 1033.79 Q1608.96 1034.62 1610.56 1034.62 Q1612.78 1034.62 1614.11 1033.06 Q1615.45 1031.48 1615.45 1028.88 L1615.45 1028.28 L1612.81 1028.28 M1618.12 1027.18 L1618.12 1036.43 L1615.45 1036.43 L1615.45 1033.97 Q1614.54 1035.44 1613.18 1036.15 Q1611.82 1036.85 1609.85 1036.85 Q1607.37 1036.85 1605.89 1035.46 Q1604.43 1034.06 1604.43 1031.71 Q1604.43 1028.98 1606.25 1027.59 Q1608.09 1026.2 1611.72 1026.2 L1615.45 1026.2 L1615.45 1025.94 Q1615.45 1024.1 1614.24 1023.1 Q1613.04 1022.09 1610.85 1022.09 Q1609.46 1022.09 1608.15 1022.42 Q1606.83 1022.76 1605.62 1023.42 L1605.62 1020.96 Q1607.08 1020.4 1608.45 1020.12 Q1609.83 1019.83 1611.13 1019.83 Q1614.64 1019.83 1616.38 1021.66 Q1618.12 1023.48 1618.12 1027.18 Z" fill="#000000" fill-rule="evenodd" fill-opacity="1" /><path clip-path="url(#clip660)" d="M 0 0 M1631.24 1020.7 L1631.24 1023.22 Q1630.11 1022.64 1628.89 1022.35 Q1627.68 1022.06 1626.38 1022.06 Q1624.39 1022.06 1623.4 1022.67 Q1622.41 1023.28 1622.41 1024.49 Q1622.41 1025.42 1623.12 1025.95 Q1623.83 1026.47 1625.97 1026.95 L1626.88 1027.15 Q1629.72 1027.76 1630.91 1028.88 Q1632.11 1029.98 1632.11 1031.96 Q1632.11 1034.21 1630.31 1035.53 Q1628.53 1036.85 1625.41 1036.85 Q1624.11 1036.85 1622.69 1036.59 Q1621.28 1036.34 1619.72 1035.83 L1619.72 1033.09 Q1621.2 1033.85 1622.63 1034.24 Q1624.06 1034.62 1625.47 1034.62 Q1627.35 1034.62 1628.36 1033.98 Q1629.37 1033.33 1629.37 1032.16 Q1629.37 1031.07 1628.63 1030.5 Q1627.91 1029.92 1625.44 1029.38 L1624.51 1029.17 Q1622.04 1028.64 1620.94 1027.57 Q1619.84 1026.49 1619.84 1024.61 Q1619.84 1022.32 1621.46 1021.08 Q1623.08 1019.83 1626.06 1019.83 Q1627.53 1019.83 1628.84 1020.05 Q1630.14 1020.27 1631.24 1020.7 Z" fill="#000000" fill-rule="evenodd" fill-opacity="1" /><path clip-path="url(#clip660)" d="M 0 0 M1641.18 1022.09 Q1639.04 1022.09 1637.79 1023.77 Q1636.55 1025.43 1636.55 1028.34 Q1636.55 1031.25 1637.78 1032.93 Q1639.02 1034.59 1641.18 1034.59 Q1643.3 1034.59 1644.55 1032.91 Q1645.79 1031.23 1645.79 1028.34 Q1645.79 1025.46 1644.55 1023.78 Q1643.3 1022.09 1641.18 1022.09 M1641.18 1019.83 Q1644.65 1019.83 1646.63 1022.09 Q1648.61 1024.35 1648.61 1028.34 Q1648.61 1032.32 1646.63 1034.59 Q1644.65 1036.85 1641.18 1036.85 Q1637.69 1036.85 1635.71 1034.59 Q1633.74 1032.32 1633.74 1028.34 Q1633.74 1024.35 1635.71 1022.09 Q1637.69 1019.83 1641.18 1019.83 Z" fill="#000000" fill-rule="evenodd" fill-opacity="1" /><path clip-path="url(#clip660)" d="M 0 0 M1664.87 1026.65 L1664.87 1036.43 L1662.21 1036.43 L1662.21 1026.73 Q1662.21 1024.43 1661.32 1023.29 Q1660.42 1022.15 1658.62 1022.15 Q1656.47 1022.15 1655.22 1023.52 Q1653.98 1024.9 1653.98 1027.27 L1653.98 1036.43 L1651.3 1036.43 L1651.3 1020.22 L1653.98 1020.22 L1653.98 1022.74 Q1654.94 1021.28 1656.22 1020.56 Q1657.53 1019.83 1659.22 1019.83 Q1662.01 1019.83 1663.44 1021.57 Q1664.87 1023.29 1664.87 1026.65 Z" fill="#000000" fill-rule="evenodd" fill-opacity="1" /><path clip-path="url(#clip660)" d="M 0 0 M1667.67 1020.22 L1670.33 1020.22 L1670.33 1036.43 L1667.67 1036.43 L1667.67 1020.22 M1667.67 1013.92 L1670.33 1013.92 L1670.33 1017.29 L1667.67 1017.29 L1667.67 1013.92 Z" fill="#000000" fill-rule="evenodd" fill-opacity="1" /><path clip-path="url(#clip660)" d="M 0 0 M1686.59 1026.65 L1686.59 1036.43 L1683.93 1036.43 L1683.93 1026.73 Q1683.93 1024.43 1683.03 1023.29 Q1682.13 1022.15 1680.34 1022.15 Q1678.18 1022.15 1676.94 1023.52 Q1675.7 1024.9 1675.7 1027.27 L1675.7 1036.43 L1673.02 1036.43 L1673.02 1020.22 L1675.7 1020.22 L1675.7 1022.74 Q1676.65 1021.28 1677.94 1020.56 Q1679.24 1019.83 1680.93 1019.83 Q1683.73 1019.83 1685.16 1021.57 Q1686.59 1023.29 1686.59 1026.65 Z" fill="#000000" fill-rule="evenodd" fill-opacity="1" /><path clip-path="url(#clip660)" d="M 0 0 M1700.05 1028.14 Q1700.05 1025.24 1698.84 1023.65 Q1697.66 1022.06 1695.5 1022.06 Q1693.36 1022.06 1692.16 1023.65 Q1690.97 1025.24 1690.97 1028.14 Q1690.97 1031.02 1692.16 1032.61 Q1693.36 1034.2 1695.5 1034.2 Q1697.66 1034.2 1698.84 1032.61 Q1700.05 1031.02 1700.05 1028.14 M1702.71 1034.42 Q1702.71 1038.55 1700.87 1040.57 Q1699.03 1042.59 1695.24 1042.59 Q1693.84 1042.59 1692.59 1042.37 Q1691.35 1042.17 1690.18 1041.74 L1690.18 1039.15 Q1691.35 1039.78 1692.49 1040.09 Q1693.64 1040.39 1694.82 1040.39 Q1697.44 1040.39 1698.74 1039.02 Q1700.05 1037.66 1700.05 1034.89 L1700.05 1033.58 Q1699.22 1035.01 1697.93 1035.72 Q1696.65 1036.43 1694.85 1036.43 Q1691.87 1036.43 1690.05 1034.16 Q1688.23 1031.88 1688.23 1028.14 Q1688.23 1024.38 1690.05 1022.1 Q1691.87 1019.83 1694.85 1019.83 Q1696.65 1019.83 1697.93 1020.54 Q1699.22 1021.25 1700.05 1022.68 L1700.05 1020.22 L1702.71 1020.22 L1702.71 1034.42 Z" fill="#000000" fill-rule="evenodd" fill-opacity="1" /><path clip-path="url(#clip660)" d="M 0 0 M417.407 749.408 L417.407 752.489 Q415.931 751.115 414.253 750.435 Q412.589 749.755 410.709 749.755 Q407.005 749.755 405.037 752.026 Q403.07 754.283 403.07 758.566 Q403.07 762.834 405.037 765.105 Q407.005 767.362 410.709 767.362 Q412.589 767.362 414.253 766.682 Q415.931 766.002 417.407 764.628 L417.407 767.68 Q415.874 768.722 414.152 769.243 Q412.445 769.763 410.535 769.763 Q405.631 769.763 402.809 766.769 Q399.988 763.759 399.988 758.566 Q399.988 753.357 402.809 750.363 Q405.631 747.353 410.535 747.353 Q412.474 747.353 414.181 747.874 Q415.903 748.381 417.407 749.408 Z" fill="#000000" fill-rule="evenodd" fill-opacity="1" /><path clip-path="url(#clip660)" d="M 0 0 M426.478 755.007 Q424.337 755.007 423.093 756.685 Q421.849 758.349 421.849 761.257 Q421.849 764.165 423.078 765.843 Q424.323 767.507 426.478 767.507 Q428.605 767.507 429.849 765.828 Q431.093 764.15 431.093 761.257 Q431.093 758.378 429.849 756.699 Q428.605 755.007 426.478 755.007 M426.478 752.75 Q429.951 752.75 431.933 755.007 Q433.915 757.264 433.915 761.257 Q433.915 765.235 431.933 767.507 Q429.951 769.763 426.478 769.763 Q422.992 769.763 421.01 767.507 Q419.042 765.235 419.042 761.257 Q419.042 757.264 421.01 755.007 Q422.992 752.75 426.478 752.75 Z" fill="#000000" fill-rule="evenodd" fill-opacity="1" /><path clip-path="url(#clip660)" d="M 0 0 M436.707 746.832 L439.369 746.832 L439.369 769.344 L436.707 769.344 L436.707 746.832 Z" fill="#000000" fill-rule="evenodd" fill-opacity="1" /><path clip-path="url(#clip660)" d="M 0 0 M442.161 746.832 L444.823 746.832 L444.823 769.344 L442.161 769.344 L442.161 746.832 Z" fill="#000000" fill-rule="evenodd" fill-opacity="1" /><path clip-path="url(#clip660)" d="M 0 0 M454.979 761.199 Q451.753 761.199 450.509 761.937 Q449.265 762.674 449.265 764.454 Q449.265 765.872 450.191 766.711 Q451.131 767.535 452.737 767.535 Q454.95 767.535 456.281 765.973 Q457.627 764.396 457.627 761.792 L457.627 761.199 L454.979 761.199 M460.289 760.099 L460.289 769.344 L457.627 769.344 L457.627 766.884 Q456.715 768.36 455.355 769.069 Q453.996 769.763 452.028 769.763 Q449.54 769.763 448.064 768.375 Q446.603 766.971 446.603 764.628 Q446.603 761.893 448.426 760.504 Q450.263 759.115 453.894 759.115 L457.627 759.115 L457.627 758.855 Q457.627 757.018 456.412 756.019 Q455.211 755.007 453.026 755.007 Q451.637 755.007 450.321 755.339 Q449.004 755.672 447.789 756.338 L447.789 753.878 Q449.25 753.314 450.625 753.039 Q451.999 752.75 453.301 752.75 Q456.817 752.75 458.553 754.573 Q460.289 756.396 460.289 760.099 Z" fill="#000000" fill-rule="evenodd" fill-opacity="1" /><path clip-path="url(#clip660)" d="M 0 0 M474.713 761.257 Q474.713 758.32 473.498 756.656 Q472.297 754.978 470.185 754.978 Q468.072 754.978 466.857 756.656 Q465.656 758.32 465.656 761.257 Q465.656 764.193 466.857 765.872 Q468.072 767.535 470.185 767.535 Q472.297 767.535 473.498 765.872 Q474.713 764.193 474.713 761.257 M465.656 755.6 Q466.495 754.153 467.769 753.459 Q469.056 752.75 470.836 752.75 Q473.787 752.75 475.624 755.093 Q477.476 757.437 477.476 761.257 Q477.476 765.076 475.624 767.42 Q473.787 769.763 470.836 769.763 Q469.056 769.763 467.769 769.069 Q466.495 768.36 465.656 766.913 L465.656 769.344 L462.98 769.344 L462.98 746.832 L465.656 746.832 L465.656 755.6 Z" fill="#000000" fill-rule="evenodd" fill-opacity="1" /><path clip-path="url(#clip660)" d="M 0 0 M486.547 755.007 Q484.406 755.007 483.162 756.685 Q481.918 758.349 481.918 761.257 Q481.918 764.165 483.148 765.843 Q484.392 767.507 486.547 767.507 Q488.674 767.507 489.918 765.828 Q491.163 764.15 491.163 761.257 Q491.163 758.378 489.918 756.699 Q488.674 755.007 486.547 755.007 M486.547 752.75 Q490.02 752.75 492.002 755.007 Q493.984 757.264 493.984 761.257 Q493.984 765.235 492.002 767.507 Q490.02 769.763 486.547 769.763 Q483.061 769.763 481.079 767.507 Q479.111 765.235 479.111 761.257 Q479.111 757.264 481.079 755.007 Q483.061 752.75 486.547 752.75 Z" fill="#000000" fill-rule="evenodd" fill-opacity="1" /><path clip-path="url(#clip660)" d="M 0 0 M506.165 755.629 Q505.717 755.368 505.182 755.253 Q504.661 755.122 504.024 755.122 Q501.767 755.122 500.552 756.598 Q499.351 758.059 499.351 760.808 L499.351 769.344 L496.675 769.344 L496.675 753.14 L499.351 753.14 L499.351 755.658 Q500.19 754.182 501.536 753.473 Q502.881 752.75 504.805 752.75 Q505.08 752.75 505.413 752.793 Q505.746 752.822 506.151 752.894 L506.165 755.629 Z" fill="#000000" fill-rule="evenodd" fill-opacity="1" /><path clip-path="url(#clip660)" d="M 0 0 M516.322 761.199 Q513.095 761.199 511.851 761.937 Q510.607 762.674 510.607 764.454 Q510.607 765.872 511.533 766.711 Q512.473 767.535 514.079 767.535 Q516.293 767.535 517.624 765.973 Q518.969 764.396 518.969 761.792 L518.969 761.199 L516.322 761.199 M521.631 760.099 L521.631 769.344 L518.969 769.344 L518.969 766.884 Q518.058 768.36 516.698 769.069 Q515.338 769.763 513.37 769.763 Q510.882 769.763 509.406 768.375 Q507.945 766.971 507.945 764.628 Q507.945 761.893 509.768 760.504 Q511.605 759.115 515.237 759.115 L518.969 759.115 L518.969 758.855 Q518.969 757.018 517.754 756.019 Q516.553 755.007 514.368 755.007 Q512.98 755.007 511.663 755.339 Q510.346 755.672 509.131 756.338 L509.131 753.878 Q510.592 753.314 511.967 753.039 Q513.341 752.75 514.643 752.75 Q518.159 752.75 519.895 754.573 Q521.631 756.396 521.631 760.099 Z" fill="#000000" fill-rule="evenodd" fill-opacity="1" /><path clip-path="url(#clip660)" d="M 0 0 M527.056 748.54 L527.056 753.14 L532.54 753.14 L532.54 755.209 L527.056 755.209 L527.056 764.005 Q527.056 765.987 527.592 766.552 Q528.142 767.116 529.805 767.116 L532.54 767.116 L532.54 769.344 L529.805 769.344 Q526.724 769.344 525.552 768.201 Q524.38 767.044 524.38 764.005 L524.38 755.209 L522.427 755.209 L522.427 753.14 L524.38 753.14 L524.38 748.54 L527.056 748.54 Z" fill="#000000" fill-rule="evenodd" fill-opacity="1" /><path clip-path="url(#clip660)" d="M 0 0 M535.332 753.14 L537.994 753.14 L537.994 769.344 L535.332 769.344 L535.332 753.14 M535.332 746.832 L537.994 746.832 L537.994 750.203 L535.332 750.203 L535.332 746.832 Z" fill="#000000" fill-rule="evenodd" fill-opacity="1" /><path clip-path="url(#clip660)" d="M 0 0 M547.065 755.007 Q544.924 755.007 543.68 756.685 Q542.435 758.349 542.435 761.257 Q542.435 764.165 543.665 765.843 Q544.909 767.507 547.065 767.507 Q549.192 767.507 550.436 765.828 Q551.68 764.15 551.68 761.257 Q551.68 758.378 550.436 756.699 Q549.192 755.007 547.065 755.007 M547.065 752.75 Q550.537 752.75 552.519 755.007 Q554.501 757.264 554.501 761.257 Q554.501 765.235 552.519 767.507 Q550.537 769.763 547.065 769.763 Q543.578 769.763 541.596 767.507 Q539.629 765.235 539.629 761.257 Q539.629 757.264 541.596 755.007 Q543.578 752.75 547.065 752.75 Z" fill="#000000" fill-rule="evenodd" fill-opacity="1" /><path clip-path="url(#clip660)" d="M 0 0 M570.763 759.564 L570.763 769.344 L568.101 769.344 L568.101 759.651 Q568.101 757.35 567.204 756.207 Q566.307 755.064 564.513 755.064 Q562.357 755.064 561.113 756.439 Q559.869 757.813 559.869 760.186 L559.869 769.344 L557.192 769.344 L557.192 753.14 L559.869 753.14 L559.869 755.658 Q560.824 754.196 562.111 753.473 Q563.413 752.75 565.106 752.75 Q567.898 752.75 569.331 754.486 Q570.763 756.207 570.763 759.564 Z" fill="#000000" fill-rule="evenodd" fill-opacity="1" /></svg>
