<?xml version="1.0" encoding="utf-8"?>
<svg xmlns="http://www.w3.org/2000/svg" xmlns:xlink="http://www.w3.org/1999/xlink" width="600" height="400" viewBox="0 0 2400 1600">
<defs>
  <clipPath id="clip070">
    <rect x="0" y="0" width="2400" height="1600"/>
  </clipPath>
</defs>
<path clip-path="url(#clip070)" d="
M0 1600 L2400 1600 L2400 0 L0 0  Z
  " fill="#ffffff" fill-rule="evenodd" fill-opacity="1"/>
<defs>
  <clipPath id="clip071">
    <rect x="480" y="0" width="1681" height="1600"/>
  </clipPath>
</defs>
<path clip-path="url(#clip070)" d="
M86.9921 1521.01 L2352.76 1521.01 L2352.76 47.2441 L86.9921 47.2441  Z
  " fill="#ffffff" fill-rule="evenodd" fill-opacity="1"/>
<defs>
  <clipPath id="clip072">
    <rect x="86" y="47" width="2267" height="1475"/>
  </clipPath>
</defs>
<polyline clip-path="url(#clip072)" style="stroke:#000000; stroke-width:2; stroke-opacity:0.1; fill:none" points="
  1486.24,1521.01 1486.24,47.2441 
  "/>
<polyline clip-path="url(#clip072)" style="stroke:#000000; stroke-width:2; stroke-opacity:0.1; fill:none" points="
  86.9921,907.227 2352.76,907.227 
  "/>
<polyline clip-path="url(#clip070)" style="stroke:#000000; stroke-width:4; stroke-opacity:1; fill:none" points="
  86.9921,1521.01 2352.76,1521.01 
  "/>
<polyline clip-path="url(#clip070)" style="stroke:#000000; stroke-width:4; stroke-opacity:1; fill:none" points="
  86.9921,1521.01 86.9921,47.2441 
  "/>
<polyline clip-path="url(#clip070)" style="stroke:#000000; stroke-width:4; stroke-opacity:1; fill:none" points="
  1486.24,1521.01 1486.24,1503.32 
  "/>
<polyline clip-path="url(#clip070)" style="stroke:#000000; stroke-width:4; stroke-opacity:1; fill:none" points="
  86.9921,907.227 114.181,907.227 
  "/>
<path clip-path="url(#clip070)" d="M 0 0 M1486.24 1543 Q1482.63 1543 1480.8 1546.56 Q1478.99 1550.11 1478.99 1557.23 Q1478.99 1564.34 1480.8 1567.91 Q1482.63 1571.45 1486.24 1571.45 Q1489.87 1571.45 1491.68 1567.91 Q1493.51 1564.34 1493.51 1557.23 Q1493.51 1550.11 1491.68 1546.56 Q1489.87 1543 1486.24 1543 M1486.24 1539.29 Q1492.05 1539.29 1495.1 1543.9 Q1498.18 1548.48 1498.18 1557.23 Q1498.18 1565.96 1495.1 1570.57 Q1492.05 1575.15 1486.24 1575.15 Q1480.43 1575.15 1477.35 1570.57 Q1474.29 1565.96 1474.29 1557.23 Q1474.29 1548.48 1477.35 1543.9 Q1480.43 1539.29 1486.24 1539.29 Z" fill="#000000" fill-rule="evenodd" fill-opacity="1" /><path clip-path="url(#clip070)" d="M 0 0 M51.0477 893.026 Q47.4367 893.026 45.608 896.591 Q43.8024 900.133 43.8024 907.262 Q43.8024 914.369 45.608 917.933 Q47.4367 921.475 51.0477 921.475 Q54.682 921.475 56.4875 917.933 Q58.3162 914.369 58.3162 907.262 Q58.3162 900.133 56.4875 896.591 Q54.682 893.026 51.0477 893.026 M51.0477 889.322 Q56.8579 889.322 59.9134 893.929 Q62.9921 898.512 62.9921 907.262 Q62.9921 915.989 59.9134 920.595 Q56.8579 925.179 51.0477 925.179 Q45.2376 925.179 42.1589 920.595 Q39.1034 915.989 39.1034 907.262 Q39.1034 898.512 42.1589 893.929 Q45.2376 889.322 51.0477 889.322 Z" fill="#000000" fill-rule="evenodd" fill-opacity="1" /><circle clip-path="url(#clip072)" cx="1508.19" cy="932.669" r="14" fill="#808080" fill-rule="evenodd" fill-opacity="1" stroke="none"/>
<circle clip-path="url(#clip072)" cx="1454.1" cy="867.066" r="14" fill="#808080" fill-rule="evenodd" fill-opacity="1" stroke="none"/>
<circle clip-path="url(#clip072)" cx="1440.47" cy="892.884" r="14" fill="#808080" fill-rule="evenodd" fill-opacity="1" stroke="none"/>
<circle clip-path="url(#clip072)" cx="1475.45" cy="874.54" r="14" fill="#808080" fill-rule="evenodd" fill-opacity="1" stroke="none"/>
<circle clip-path="url(#clip072)" cx="1403.4" cy="922.897" r="14" fill="#808080" fill-rule="evenodd" fill-opacity="1" stroke="none"/>
<circle clip-path="url(#clip072)" cx="1072.54" cy="1085.31" r="14" fill="#808080" fill-rule="evenodd" fill-opacity="1" stroke="none"/>
<circle clip-path="url(#clip072)" cx="1403.59" cy="889.591" r="14" fill="#808080" fill-rule="evenodd" fill-opacity="1" stroke="none"/>
<circle clip-path="url(#clip072)" cx="1474.22" cy="897.226" r="14" fill="#808080" fill-rule="evenodd" fill-opacity="1" stroke="none"/>
<circle clip-path="url(#clip072)" cx="1442.8" cy="931.593" r="14" fill="#808080" fill-rule="evenodd" fill-opacity="1" stroke="none"/>
<circle clip-path="url(#clip072)" cx="1294.94" cy="801.668" r="14" fill="#808080" fill-rule="evenodd" fill-opacity="1" stroke="none"/>
<circle clip-path="url(#clip072)" cx="1518.06" cy="944.274" r="14" fill="#808080" fill-rule="evenodd" fill-opacity="1" stroke="none"/>
<circle clip-path="url(#clip072)" cx="1405.02" cy="844.126" r="14" fill="#808080" fill-rule="evenodd" fill-opacity="1" stroke="none"/>
<circle clip-path="url(#clip072)" cx="1477.49" cy="869.351" r="14" fill="#808080" fill-rule="evenodd" fill-opacity="1" stroke="none"/>
<circle clip-path="url(#clip072)" cx="1474.5" cy="930.711" r="14" fill="#808080" fill-rule="evenodd" fill-opacity="1" stroke="none"/>
<circle clip-path="url(#clip072)" cx="1413.62" cy="956.039" r="14" fill="#808080" fill-rule="evenodd" fill-opacity="1" stroke="none"/>
<circle clip-path="url(#clip072)" cx="1450.33" cy="978.843" r="14" fill="#808080" fill-rule="evenodd" fill-opacity="1" stroke="none"/>
<circle clip-path="url(#clip072)" cx="1467.5" cy="937.886" r="14" fill="#808080" fill-rule="evenodd" fill-opacity="1" stroke="none"/>
<circle clip-path="url(#clip072)" cx="1482.95" cy="854.887" r="14" fill="#808080" fill-rule="evenodd" fill-opacity="1" stroke="none"/>
<circle clip-path="url(#clip072)" cx="1356.4" cy="1076.85" r="14" fill="#808080" fill-rule="evenodd" fill-opacity="1" stroke="none"/>
<circle clip-path="url(#clip072)" cx="1592.58" cy="931.317" r="14" fill="#808080" fill-rule="evenodd" fill-opacity="1" stroke="none"/>
<circle clip-path="url(#clip072)" cx="1603.69" cy="963.006" r="14" fill="#808080" fill-rule="evenodd" fill-opacity="1" stroke="none"/>
<circle clip-path="url(#clip072)" cx="1596.11" cy="915.122" r="14" fill="#808080" fill-rule="evenodd" fill-opacity="1" stroke="none"/>
<circle clip-path="url(#clip072)" cx="1535.52" cy="940.471" r="14" fill="#808080" fill-rule="evenodd" fill-opacity="1" stroke="none"/>
<circle clip-path="url(#clip072)" cx="1566.65" cy="981.432" r="14" fill="#808080" fill-rule="evenodd" fill-opacity="1" stroke="none"/>
<circle clip-path="url(#clip072)" cx="1408.19" cy="879.367" r="14" fill="#808080" fill-rule="evenodd" fill-opacity="1" stroke="none"/>
<circle clip-path="url(#clip072)" cx="1458.94" cy="819.763" r="14" fill="#808080" fill-rule="evenodd" fill-opacity="1" stroke="none"/>
<circle clip-path="url(#clip072)" cx="1313.49" cy="1000.04" r="14" fill="#808080" fill-rule="evenodd" fill-opacity="1" stroke="none"/>
<circle clip-path="url(#clip072)" cx="1477.49" cy="924.83" r="14" fill="#808080" fill-rule="evenodd" fill-opacity="1" stroke="none"/>
<circle clip-path="url(#clip072)" cx="1474.56" cy="849.439" r="14" fill="#808080" fill-rule="evenodd" fill-opacity="1" stroke="none"/>
<circle clip-path="url(#clip072)" cx="1537.57" cy="988.963" r="14" fill="#808080" fill-rule="evenodd" fill-opacity="1" stroke="none"/>
<circle clip-path="url(#clip072)" cx="1451.26" cy="848.456" r="14" fill="#808080" fill-rule="evenodd" fill-opacity="1" stroke="none"/>
<circle clip-path="url(#clip072)" cx="1514.08" cy="899.619" r="14" fill="#808080" fill-rule="evenodd" fill-opacity="1" stroke="none"/>
<circle clip-path="url(#clip072)" cx="1424.58" cy="761.88" r="14" fill="#808080" fill-rule="evenodd" fill-opacity="1" stroke="none"/>
<circle clip-path="url(#clip072)" cx="1405.13" cy="759.052" r="14" fill="#808080" fill-rule="evenodd" fill-opacity="1" stroke="none"/>
<circle clip-path="url(#clip072)" cx="1602.56" cy="812.018" r="14" fill="#808080" fill-rule="evenodd" fill-opacity="1" stroke="none"/>
<circle clip-path="url(#clip072)" cx="1487.41" cy="736.998" r="14" fill="#808080" fill-rule="evenodd" fill-opacity="1" stroke="none"/>
<circle clip-path="url(#clip072)" cx="1552.88" cy="759.075" r="14" fill="#808080" fill-rule="evenodd" fill-opacity="1" stroke="none"/>
<circle clip-path="url(#clip072)" cx="1662.59" cy="802.001" r="14" fill="#808080" fill-rule="evenodd" fill-opacity="1" stroke="none"/>
<circle clip-path="url(#clip072)" cx="1454.53" cy="742.632" r="14" fill="#808080" fill-rule="evenodd" fill-opacity="1" stroke="none"/>
<circle clip-path="url(#clip072)" cx="1634.75" cy="793.999" r="14" fill="#808080" fill-rule="evenodd" fill-opacity="1" stroke="none"/>
<circle clip-path="url(#clip072)" cx="1393.37" cy="870.151" r="14" fill="#808080" fill-rule="evenodd" fill-opacity="1" stroke="none"/>
<circle clip-path="url(#clip072)" cx="1426.42" cy="774.719" r="14" fill="#808080" fill-rule="evenodd" fill-opacity="1" stroke="none"/>
<circle clip-path="url(#clip072)" cx="1313.69" cy="749.536" r="14" fill="#808080" fill-rule="evenodd" fill-opacity="1" stroke="none"/>
<circle clip-path="url(#clip072)" cx="1220.44" cy="774.017" r="14" fill="#808080" fill-rule="evenodd" fill-opacity="1" stroke="none"/>
<circle clip-path="url(#clip072)" cx="1206.52" cy="915.771" r="14" fill="#808080" fill-rule="evenodd" fill-opacity="1" stroke="none"/>
<circle clip-path="url(#clip072)" cx="1414.46" cy="816.759" r="14" fill="#808080" fill-rule="evenodd" fill-opacity="1" stroke="none"/>
<circle clip-path="url(#clip072)" cx="1392.25" cy="826.726" r="14" fill="#808080" fill-rule="evenodd" fill-opacity="1" stroke="none"/>
<circle clip-path="url(#clip072)" cx="1396.64" cy="740.479" r="14" fill="#808080" fill-rule="evenodd" fill-opacity="1" stroke="none"/>
<circle clip-path="url(#clip072)" cx="1420.53" cy="807.448" r="14" fill="#808080" fill-rule="evenodd" fill-opacity="1" stroke="none"/>
<circle clip-path="url(#clip072)" cx="1364.56" cy="825.947" r="14" fill="#808080" fill-rule="evenodd" fill-opacity="1" stroke="none"/>
<circle clip-path="url(#clip072)" cx="1440.25" cy="984.571" r="14" fill="#808080" fill-rule="evenodd" fill-opacity="1" stroke="none"/>
<circle clip-path="url(#clip072)" cx="1440.74" cy="1054.93" r="14" fill="#808080" fill-rule="evenodd" fill-opacity="1" stroke="none"/>
<circle clip-path="url(#clip072)" cx="1589.13" cy="850.81" r="14" fill="#808080" fill-rule="evenodd" fill-opacity="1" stroke="none"/>
<circle clip-path="url(#clip072)" cx="1480.69" cy="1006.21" r="14" fill="#808080" fill-rule="evenodd" fill-opacity="1" stroke="none"/>
<circle clip-path="url(#clip072)" cx="1670.54" cy="849.58" r="14" fill="#808080" fill-rule="evenodd" fill-opacity="1" stroke="none"/>
<circle clip-path="url(#clip072)" cx="1550.55" cy="899.891" r="14" fill="#808080" fill-rule="evenodd" fill-opacity="1" stroke="none"/>
<circle clip-path="url(#clip072)" cx="1577.34" cy="929.013" r="14" fill="#808080" fill-rule="evenodd" fill-opacity="1" stroke="none"/>
<circle clip-path="url(#clip072)" cx="1564.78" cy="891.005" r="14" fill="#808080" fill-rule="evenodd" fill-opacity="1" stroke="none"/>
<circle clip-path="url(#clip072)" cx="1573.22" cy="950.514" r="14" fill="#808080" fill-rule="evenodd" fill-opacity="1" stroke="none"/>
<circle clip-path="url(#clip072)" cx="1519.96" cy="895.828" r="14" fill="#808080" fill-rule="evenodd" fill-opacity="1" stroke="none"/>
<circle clip-path="url(#clip072)" cx="1596.3" cy="889.505" r="14" fill="#808080" fill-rule="evenodd" fill-opacity="1" stroke="none"/>
<circle clip-path="url(#clip072)" cx="1578.46" cy="860.056" r="14" fill="#808080" fill-rule="evenodd" fill-opacity="1" stroke="none"/>
<circle clip-path="url(#clip072)" cx="1521.48" cy="906.46" r="14" fill="#808080" fill-rule="evenodd" fill-opacity="1" stroke="none"/>
<circle clip-path="url(#clip072)" cx="1591.68" cy="921.562" r="14" fill="#808080" fill-rule="evenodd" fill-opacity="1" stroke="none"/>
<circle clip-path="url(#clip072)" cx="1626.72" cy="910.006" r="14" fill="#808080" fill-rule="evenodd" fill-opacity="1" stroke="none"/>
<circle clip-path="url(#clip072)" cx="1602.64" cy="957.768" r="14" fill="#808080" fill-rule="evenodd" fill-opacity="1" stroke="none"/>
<circle clip-path="url(#clip072)" cx="1610.68" cy="974.585" r="14" fill="#808080" fill-rule="evenodd" fill-opacity="1" stroke="none"/>
<circle clip-path="url(#clip072)" cx="1584.14" cy="960.25" r="14" fill="#808080" fill-rule="evenodd" fill-opacity="1" stroke="none"/>
<circle clip-path="url(#clip072)" cx="1613.26" cy="884.613" r="14" fill="#808080" fill-rule="evenodd" fill-opacity="1" stroke="none"/>
<circle clip-path="url(#clip072)" cx="1534.19" cy="910.124" r="14" fill="#808080" fill-rule="evenodd" fill-opacity="1" stroke="none"/>
<circle clip-path="url(#clip072)" cx="1588.5" cy="903.701" r="14" fill="#808080" fill-rule="evenodd" fill-opacity="1" stroke="none"/>
<circle clip-path="url(#clip072)" cx="1672.7" cy="791.313" r="14" fill="#808080" fill-rule="evenodd" fill-opacity="1" stroke="none"/>
<circle clip-path="url(#clip072)" cx="1683.89" cy="876.86" r="14" fill="#808080" fill-rule="evenodd" fill-opacity="1" stroke="none"/>
<circle clip-path="url(#clip072)" cx="1630.76" cy="884.55" r="14" fill="#808080" fill-rule="evenodd" fill-opacity="1" stroke="none"/>
<circle clip-path="url(#clip072)" cx="1588.09" cy="850.039" r="14" fill="#808080" fill-rule="evenodd" fill-opacity="1" stroke="none"/>
<circle clip-path="url(#clip072)" cx="1588.75" cy="933.201" r="14" fill="#808080" fill-rule="evenodd" fill-opacity="1" stroke="none"/>
<circle clip-path="url(#clip072)" cx="1546.13" cy="911.155" r="14" fill="#808080" fill-rule="evenodd" fill-opacity="1" stroke="none"/>
<circle clip-path="url(#clip072)" cx="1586.15" cy="893.868" r="14" fill="#808080" fill-rule="evenodd" fill-opacity="1" stroke="none"/>
<circle clip-path="url(#clip072)" cx="1556.12" cy="785.774" r="14" fill="#808080" fill-rule="evenodd" fill-opacity="1" stroke="none"/>
<circle clip-path="url(#clip072)" cx="1716.36" cy="787.595" r="14" fill="#808080" fill-rule="evenodd" fill-opacity="1" stroke="none"/>
<circle clip-path="url(#clip072)" cx="1586.3" cy="790.267" r="14" fill="#808080" fill-rule="evenodd" fill-opacity="1" stroke="none"/>
<circle clip-path="url(#clip072)" cx="1732.42" cy="796.624" r="14" fill="#808080" fill-rule="evenodd" fill-opacity="1" stroke="none"/>
<circle clip-path="url(#clip072)" cx="1659.76" cy="842.564" r="14" fill="#808080" fill-rule="evenodd" fill-opacity="1" stroke="none"/>
<circle clip-path="url(#clip072)" cx="1622.52" cy="940.976" r="14" fill="#808080" fill-rule="evenodd" fill-opacity="1" stroke="none"/>
<circle clip-path="url(#clip072)" cx="1659.31" cy="829.165" r="14" fill="#808080" fill-rule="evenodd" fill-opacity="1" stroke="none"/>
<circle clip-path="url(#clip072)" cx="1512.46" cy="779.177" r="14" fill="#808080" fill-rule="evenodd" fill-opacity="1" stroke="none"/>
<circle clip-path="url(#clip072)" cx="1535.21" cy="701.35" r="14" fill="#808080" fill-rule="evenodd" fill-opacity="1" stroke="none"/>
<circle clip-path="url(#clip072)" cx="1492" cy="829.676" r="14" fill="#808080" fill-rule="evenodd" fill-opacity="1" stroke="none"/>
<circle clip-path="url(#clip072)" cx="1578.79" cy="713.169" r="14" fill="#808080" fill-rule="evenodd" fill-opacity="1" stroke="none"/>
<circle clip-path="url(#clip072)" cx="1650.8" cy="740.899" r="14" fill="#808080" fill-rule="evenodd" fill-opacity="1" stroke="none"/>
<circle clip-path="url(#clip072)" cx="1384.98" cy="879.715" r="14" fill="#808080" fill-rule="evenodd" fill-opacity="1" stroke="none"/>
<circle clip-path="url(#clip072)" cx="1368.69" cy="930.041" r="14" fill="#808080" fill-rule="evenodd" fill-opacity="1" stroke="none"/>
<circle clip-path="url(#clip072)" cx="1270.33" cy="857.903" r="14" fill="#808080" fill-rule="evenodd" fill-opacity="1" stroke="none"/>
<circle clip-path="url(#clip072)" cx="1350.78" cy="878.008" r="14" fill="#808080" fill-rule="evenodd" fill-opacity="1" stroke="none"/>
<circle clip-path="url(#clip072)" cx="1496.09" cy="952.347" r="14" fill="#800080" fill-rule="evenodd" fill-opacity="1" stroke="none"/>
<circle clip-path="url(#clip072)" cx="1442.59" cy="921.187" r="14" fill="#800080" fill-rule="evenodd" fill-opacity="1" stroke="none"/>
<circle clip-path="url(#clip072)" cx="1422.9" cy="923.693" r="14" fill="#800080" fill-rule="evenodd" fill-opacity="1" stroke="none"/>
<circle clip-path="url(#clip072)" cx="1465.88" cy="919.114" r="14" fill="#800080" fill-rule="evenodd" fill-opacity="1" stroke="none"/>
<circle clip-path="url(#clip072)" cx="1386.28" cy="981.287" r="14" fill="#800080" fill-rule="evenodd" fill-opacity="1" stroke="none"/>
<circle clip-path="url(#clip072)" cx="1070.61" cy="1014.31" r="14" fill="#800080" fill-rule="evenodd" fill-opacity="1" stroke="none"/>
<circle clip-path="url(#clip072)" cx="1386.79" cy="935.691" r="14" fill="#800080" fill-rule="evenodd" fill-opacity="1" stroke="none"/>
<circle clip-path="url(#clip072)" cx="1485.1" cy="924.333" r="14" fill="#800080" fill-rule="evenodd" fill-opacity="1" stroke="none"/>
<circle clip-path="url(#clip072)" cx="1432.04" cy="954.124" r="14" fill="#800080" fill-rule="evenodd" fill-opacity="1" stroke="none"/>
<circle clip-path="url(#clip072)" cx="1237.3" cy="610.242" r="14" fill="#800080" fill-rule="evenodd" fill-opacity="1" stroke="none"/>
<circle clip-path="url(#clip072)" cx="1511.7" cy="938.197" r="14" fill="#800080" fill-rule="evenodd" fill-opacity="1" stroke="none"/>
<circle clip-path="url(#clip072)" cx="1398.27" cy="921.193" r="14" fill="#800080" fill-rule="evenodd" fill-opacity="1" stroke="none"/>
<circle clip-path="url(#clip072)" cx="1465.08" cy="918.126" r="14" fill="#800080" fill-rule="evenodd" fill-opacity="1" stroke="none"/>
<circle clip-path="url(#clip072)" cx="1459.72" cy="941.193" r="14" fill="#800080" fill-rule="evenodd" fill-opacity="1" stroke="none"/>
<circle clip-path="url(#clip072)" cx="1394.59" cy="972.286" r="14" fill="#800080" fill-rule="evenodd" fill-opacity="1" stroke="none"/>
<circle clip-path="url(#clip072)" cx="1449.94" cy="995.005" r="14" fill="#800080" fill-rule="evenodd" fill-opacity="1" stroke="none"/>
<circle clip-path="url(#clip072)" cx="1450.06" cy="944.074" r="14" fill="#800080" fill-rule="evenodd" fill-opacity="1" stroke="none"/>
<circle clip-path="url(#clip072)" cx="1446.37" cy="899.819" r="14" fill="#800080" fill-rule="evenodd" fill-opacity="1" stroke="none"/>
<circle clip-path="url(#clip072)" cx="1352.52" cy="1077.97" r="14" fill="#800080" fill-rule="evenodd" fill-opacity="1" stroke="none"/>
<circle clip-path="url(#clip072)" cx="1564.9" cy="951.849" r="14" fill="#800080" fill-rule="evenodd" fill-opacity="1" stroke="none"/>
<circle clip-path="url(#clip072)" cx="1602.99" cy="960.738" r="14" fill="#800080" fill-rule="evenodd" fill-opacity="1" stroke="none"/>
<circle clip-path="url(#clip072)" cx="1547.36" cy="945.257" r="14" fill="#800080" fill-rule="evenodd" fill-opacity="1" stroke="none"/>
<circle clip-path="url(#clip072)" cx="1492.07" cy="982.969" r="14" fill="#800080" fill-rule="evenodd" fill-opacity="1" stroke="none"/>
<circle clip-path="url(#clip072)" cx="1562.74" cy="959.758" r="14" fill="#800080" fill-rule="evenodd" fill-opacity="1" stroke="none"/>
<circle clip-path="url(#clip072)" cx="1397.43" cy="925.783" r="14" fill="#ffa500" fill-rule="evenodd" fill-opacity="1" stroke="none"/>
<circle clip-path="url(#clip072)" cx="1439.42" cy="877.742" r="14" fill="#ffa500" fill-rule="evenodd" fill-opacity="1" stroke="none"/>
<circle clip-path="url(#clip072)" cx="1323.03" cy="969.233" r="14" fill="#ffa500" fill-rule="evenodd" fill-opacity="1" stroke="none"/>
<circle clip-path="url(#clip072)" cx="1440.9" cy="946.909" r="14" fill="#ffa500" fill-rule="evenodd" fill-opacity="1" stroke="none"/>
<circle clip-path="url(#clip072)" cx="1450.48" cy="903.564" r="14" fill="#ffa500" fill-rule="evenodd" fill-opacity="1" stroke="none"/>
<circle clip-path="url(#clip072)" cx="1522.75" cy="967.942" r="14" fill="#ffa500" fill-rule="evenodd" fill-opacity="1" stroke="none"/>
<circle clip-path="url(#clip072)" cx="1432.82" cy="886.498" r="14" fill="#ffa500" fill-rule="evenodd" fill-opacity="1" stroke="none"/>
<circle clip-path="url(#clip072)" cx="1506.47" cy="893.574" r="14" fill="#ffa500" fill-rule="evenodd" fill-opacity="1" stroke="none"/>
<circle clip-path="url(#clip072)" cx="1412.21" cy="838.647" r="14" fill="#ffa500" fill-rule="evenodd" fill-opacity="1" stroke="none"/>
<circle clip-path="url(#clip072)" cx="1375.42" cy="820.213" r="14" fill="#ffa500" fill-rule="evenodd" fill-opacity="1" stroke="none"/>
<circle clip-path="url(#clip072)" cx="1591.8" cy="862.539" r="14" fill="#ffa500" fill-rule="evenodd" fill-opacity="1" stroke="none"/>
<circle clip-path="url(#clip072)" cx="1450.52" cy="843.456" r="14" fill="#ffa500" fill-rule="evenodd" fill-opacity="1" stroke="none"/>
<circle clip-path="url(#clip072)" cx="1523.38" cy="851.105" r="14" fill="#ffa500" fill-rule="evenodd" fill-opacity="1" stroke="none"/>
<circle clip-path="url(#clip072)" cx="1634.13" cy="864.009" r="14" fill="#ffa500" fill-rule="evenodd" fill-opacity="1" stroke="none"/>
<circle clip-path="url(#clip072)" cx="1423.78" cy="837.8" r="14" fill="#ffa500" fill-rule="evenodd" fill-opacity="1" stroke="none"/>
<circle clip-path="url(#clip072)" cx="1605.12" cy="866.781" r="14" fill="#ffa500" fill-rule="evenodd" fill-opacity="1" stroke="none"/>
<circle clip-path="url(#clip072)" cx="1383.88" cy="930.454" r="14" fill="#ffa500" fill-rule="evenodd" fill-opacity="1" stroke="none"/>
<circle clip-path="url(#clip072)" cx="1397.68" cy="874.034" r="14" fill="#ffa500" fill-rule="evenodd" fill-opacity="1" stroke="none"/>
<circle clip-path="url(#clip072)" cx="1309.27" cy="863.503" r="14" fill="#ffa500" fill-rule="evenodd" fill-opacity="1" stroke="none"/>
<circle clip-path="url(#clip072)" cx="1241.25" cy="863.378" r="14" fill="#ffa500" fill-rule="evenodd" fill-opacity="1" stroke="none"/>
<circle clip-path="url(#clip072)" cx="1188.73" cy="927.739" r="14" fill="#ffa500" fill-rule="evenodd" fill-opacity="1" stroke="none"/>
<circle clip-path="url(#clip072)" cx="1395.12" cy="902.436" r="14" fill="#ffa500" fill-rule="evenodd" fill-opacity="1" stroke="none"/>
<circle clip-path="url(#clip072)" cx="1376.78" cy="892.823" r="14" fill="#ffa500" fill-rule="evenodd" fill-opacity="1" stroke="none"/>
<circle clip-path="url(#clip072)" cx="1381.56" cy="846.982" r="14" fill="#ffa500" fill-rule="evenodd" fill-opacity="1" stroke="none"/>
<circle clip-path="url(#clip072)" cx="1405.05" cy="814.719" r="14" fill="#ffa500" fill-rule="evenodd" fill-opacity="1" stroke="none"/>
<circle clip-path="url(#clip072)" cx="1345.41" cy="908.864" r="14" fill="#ffa500" fill-rule="evenodd" fill-opacity="1" stroke="none"/>
<circle clip-path="url(#clip072)" cx="1436.44" cy="934.421" r="14" fill="#800080" fill-rule="evenodd" fill-opacity="1" stroke="none"/>
<circle clip-path="url(#clip072)" cx="1425.44" cy="1021.59" r="14" fill="#800080" fill-rule="evenodd" fill-opacity="1" stroke="none"/>
<circle clip-path="url(#clip072)" cx="1542.8" cy="911.676" r="14" fill="#800080" fill-rule="evenodd" fill-opacity="1" stroke="none"/>
<circle clip-path="url(#clip072)" cx="1456.32" cy="982.457" r="14" fill="#800080" fill-rule="evenodd" fill-opacity="1" stroke="none"/>
<circle clip-path="url(#clip072)" cx="1648.99" cy="880.719" r="14" fill="#800080" fill-rule="evenodd" fill-opacity="1" stroke="none"/>
<circle clip-path="url(#clip072)" cx="1545.57" cy="889.977" r="14" fill="#800080" fill-rule="evenodd" fill-opacity="1" stroke="none"/>
<circle clip-path="url(#clip072)" cx="1562.16" cy="929.874" r="14" fill="#800080" fill-rule="evenodd" fill-opacity="1" stroke="none"/>
<circle clip-path="url(#clip072)" cx="1546.63" cy="914.657" r="14" fill="#800080" fill-rule="evenodd" fill-opacity="1" stroke="none"/>
<circle clip-path="url(#clip072)" cx="1580.35" cy="929.357" r="14" fill="#800080" fill-rule="evenodd" fill-opacity="1" stroke="none"/>
<circle clip-path="url(#clip072)" cx="1504.51" cy="918.393" r="14" fill="#800080" fill-rule="evenodd" fill-opacity="1" stroke="none"/>
<circle clip-path="url(#clip072)" cx="1566.55" cy="902.23" r="14" fill="#800080" fill-rule="evenodd" fill-opacity="1" stroke="none"/>
<circle clip-path="url(#clip072)" cx="1563.96" cy="880.863" r="14" fill="#800080" fill-rule="evenodd" fill-opacity="1" stroke="none"/>
<circle clip-path="url(#clip072)" cx="1527.53" cy="886.49" r="14" fill="#800080" fill-rule="evenodd" fill-opacity="1" stroke="none"/>
<circle clip-path="url(#clip072)" cx="1584.99" cy="918.028" r="14" fill="#800080" fill-rule="evenodd" fill-opacity="1" stroke="none"/>
<circle clip-path="url(#clip072)" cx="1625.01" cy="921.404" r="14" fill="#800080" fill-rule="evenodd" fill-opacity="1" stroke="none"/>
<circle clip-path="url(#clip072)" cx="1609.1" cy="947.133" r="14" fill="#800080" fill-rule="evenodd" fill-opacity="1" stroke="none"/>
<circle clip-path="url(#clip072)" cx="1588.35" cy="972.819" r="14" fill="#800080" fill-rule="evenodd" fill-opacity="1" stroke="none"/>
<circle clip-path="url(#clip072)" cx="1569.52" cy="968.788" r="14" fill="#800080" fill-rule="evenodd" fill-opacity="1" stroke="none"/>
<circle clip-path="url(#clip072)" cx="1582.23" cy="892.78" r="14" fill="#800080" fill-rule="evenodd" fill-opacity="1" stroke="none"/>
<circle clip-path="url(#clip072)" cx="1517.02" cy="909.006" r="14" fill="#800080" fill-rule="evenodd" fill-opacity="1" stroke="none"/>
<circle clip-path="url(#clip072)" cx="1559.16" cy="910.665" r="14" fill="#800080" fill-rule="evenodd" fill-opacity="1" stroke="none"/>
<circle clip-path="url(#clip072)" cx="1656.81" cy="827.528" r="14" fill="#800080" fill-rule="evenodd" fill-opacity="1" stroke="none"/>
<circle clip-path="url(#clip072)" cx="1660.22" cy="906.985" r="14" fill="#ffa500" fill-rule="evenodd" fill-opacity="1" stroke="none"/>
<circle clip-path="url(#clip072)" cx="1607.98" cy="913.386" r="14" fill="#ffa500" fill-rule="evenodd" fill-opacity="1" stroke="none"/>
<circle clip-path="url(#clip072)" cx="1566.96" cy="887.661" r="14" fill="#ffa500" fill-rule="evenodd" fill-opacity="1" stroke="none"/>
<circle clip-path="url(#clip072)" cx="1575.7" cy="948.994" r="14" fill="#ffa500" fill-rule="evenodd" fill-opacity="1" stroke="none"/>
<circle clip-path="url(#clip072)" cx="1518.64" cy="921.665" r="14" fill="#ffa500" fill-rule="evenodd" fill-opacity="1" stroke="none"/>
<circle clip-path="url(#clip072)" cx="1559.77" cy="899.719" r="14" fill="#ffa500" fill-rule="evenodd" fill-opacity="1" stroke="none"/>
<circle clip-path="url(#clip072)" cx="1529.19" cy="852.224" r="14" fill="#ffa500" fill-rule="evenodd" fill-opacity="1" stroke="none"/>
<circle clip-path="url(#clip072)" cx="1712.65" cy="827.707" r="14" fill="#ffa500" fill-rule="evenodd" fill-opacity="1" stroke="none"/>
<circle clip-path="url(#clip072)" cx="1558.71" cy="848.166" r="14" fill="#ffa500" fill-rule="evenodd" fill-opacity="1" stroke="none"/>
<circle clip-path="url(#clip072)" cx="1761.07" cy="830.697" r="14" fill="#ffa500" fill-rule="evenodd" fill-opacity="1" stroke="none"/>
<circle clip-path="url(#clip072)" cx="1642.09" cy="874.535" r="14" fill="#ffa500" fill-rule="evenodd" fill-opacity="1" stroke="none"/>
<circle clip-path="url(#clip072)" cx="1625.51" cy="911.956" r="14" fill="#ffa500" fill-rule="evenodd" fill-opacity="1" stroke="none"/>
<circle clip-path="url(#clip072)" cx="1640.26" cy="856.009" r="14" fill="#ffa500" fill-rule="evenodd" fill-opacity="1" stroke="none"/>
<circle clip-path="url(#clip072)" cx="1505.19" cy="890.651" r="14" fill="#ffa500" fill-rule="evenodd" fill-opacity="1" stroke="none"/>
<circle clip-path="url(#clip072)" cx="1517.64" cy="812.405" r="14" fill="#ffa500" fill-rule="evenodd" fill-opacity="1" stroke="none"/>
<circle clip-path="url(#clip072)" cx="1469.43" cy="927.074" r="14" fill="#ffa500" fill-rule="evenodd" fill-opacity="1" stroke="none"/>
<circle clip-path="url(#clip072)" cx="1576.4" cy="798.481" r="14" fill="#ffa500" fill-rule="evenodd" fill-opacity="1" stroke="none"/>
<circle clip-path="url(#clip072)" cx="1648.37" cy="799.619" r="14" fill="#ffa500" fill-rule="evenodd" fill-opacity="1" stroke="none"/>
<circle clip-path="url(#clip072)" cx="1362.92" cy="951.799" r="14" fill="#ffa500" fill-rule="evenodd" fill-opacity="1" stroke="none"/>
<circle clip-path="url(#clip072)" cx="1338.42" cy="981.408" r="14" fill="#ffa500" fill-rule="evenodd" fill-opacity="1" stroke="none"/>
<circle clip-path="url(#clip072)" cx="1301.14" cy="931.355" r="14" fill="#ffa500" fill-rule="evenodd" fill-opacity="1" stroke="none"/>
<circle clip-path="url(#clip072)" cx="1350.42" cy="930.541" r="14" fill="#ffa500" fill-rule="evenodd" fill-opacity="1" stroke="none"/>
<polyline clip-path="url(#clip072)" style="stroke:#ffa500; stroke-width:4.88758; stroke-opacity:1; fill:none" points="
  688.931,959.297 2288.63,88.9544 
  "/>
<polyline clip-path="url(#clip072)" style="stroke:#800080; stroke-width:0.831794; stroke-opacity:1; fill:none" points="
  1166.31,1304.41 1272.16,793.917 
  "/>
<polyline clip-path="url(#clip072)" style="stroke:#ffa500; stroke-width:0.299089; stroke-opacity:1; fill:none" points="
  151.118,947.855 1166.31,1304.41 
  "/>
<polyline clip-path="url(#clip072)" style="stroke:#ffa500; stroke-width:0.843251; stroke-opacity:1; fill:none" points="
  151.118,947.855 2216.88,1479.3 
  "/>
<polyline clip-path="url(#clip072)" style="stroke:#ffa500; stroke-width:4.5444; stroke-opacity:1; fill:none" points="
  1272.16,793.917 2288.63,88.9544 
  "/>
<polyline clip-path="url(#clip072)" style="stroke:#ffa500; stroke-width:2.01037; stroke-opacity:1; fill:none" points="
  151.118,947.855 1272.16,793.917 
  "/>
<polyline clip-path="url(#clip072)" style="stroke:#800080; stroke-width:0.820338; stroke-opacity:1; fill:none" points="
  1272.16,793.917 2216.88,1479.3 
  "/>
<polyline clip-path="url(#clip072)" style="stroke:#800080; stroke-width:2.29381; stroke-opacity:1; fill:none" points="
  1166.31,1304.41 2216.88,1479.3 
  "/>
<polyline clip-path="url(#clip072)" style="stroke:#ffa500; stroke-width:4.41533; stroke-opacity:1; fill:none" points="
  151.118,947.855 688.931,959.297 
  "/>
<polyline clip-path="url(#clip072)" style="stroke:#800080; stroke-width:1.44165; stroke-opacity:1; fill:none" points="
  1166.31,1304.41 2288.63,88.9544 
  "/>
<polyline clip-path="url(#clip072)" style="stroke:#ffa500; stroke-width:2.26375; stroke-opacity:1; fill:none" points="
  2216.88,1479.3 2288.63,88.9544 
  "/>
<polyline clip-path="url(#clip072)" style="stroke:#ffa500; stroke-width:1.50008; stroke-opacity:1; fill:none" points="
  688.931,959.297 1272.16,793.917 
  "/>
<polyline clip-path="url(#clip072)" style="stroke:#800080; stroke-width:1.53172; stroke-opacity:1; fill:none" points="
  688.931,959.297 1166.31,1304.41 
  "/>
<polyline clip-path="url(#clip072)" style="stroke:#ffa500; stroke-width:3.57132; stroke-opacity:1; fill:none" points="
  151.118,947.855 2288.63,88.9544 
  "/>
<polyline clip-path="url(#clip072)" style="stroke:#800080; stroke-width:8; stroke-opacity:1; fill:none" points="
  688.931,959.297 2216.88,1479.3 
  "/>
<circle clip-path="url(#clip072)" cx="1272.16" cy="793.917" r="23" fill="#000000" fill-rule="evenodd" fill-opacity="1" stroke="none"/>
<circle clip-path="url(#clip072)" cx="688.931" cy="959.297" r="26" fill="#000000" fill-rule="evenodd" fill-opacity="1" stroke="none"/>
<circle clip-path="url(#clip072)" cx="2288.63" cy="88.9544" r="23" fill="#000000" fill-rule="evenodd" fill-opacity="1" stroke="none"/>
<circle clip-path="url(#clip072)" cx="1166.31" cy="1304.41" r="8" fill="#000000" fill-rule="evenodd" fill-opacity="1" stroke="none"/>
<circle clip-path="url(#clip072)" cx="2216.88" cy="1479.3" r="28" fill="#000000" fill-rule="evenodd" fill-opacity="1" stroke="none"/>
<circle clip-path="url(#clip072)" cx="151.118" cy="947.855" r="8" fill="#000000" fill-rule="evenodd" fill-opacity="1" stroke="none"/>
<path clip-path="url(#clip070)" d="M 0 0 M1196.34 770.402 L1196.34 817.433 L1206.23 817.433 Q1218.74 817.433 1224.54 811.761 Q1230.37 806.09 1230.37 793.856 Q1230.37 781.704 1224.54 776.073 Q1218.74 770.402 1206.23 770.402 L1196.34 770.402 M1188.16 763.677 L1204.97 763.677 Q1222.55 763.677 1230.78 771.009 Q1239 778.301 1239 793.856 Q1239 809.493 1230.74 816.825 Q1222.47 824.157 1204.97 824.157 L1188.16 824.157 L1188.16 763.677 Z" fill="#000000" fill-rule="evenodd" fill-opacity="1" /><path clip-path="url(#clip070)" d="M 0 0 M1267.44 801.35 Q1258.4 801.35 1254.92 803.416 Q1251.44 805.482 1251.44 810.465 Q1251.44 814.435 1254.03 816.784 Q1256.66 819.093 1261.16 819.093 Q1267.36 819.093 1271.08 814.718 Q1274.85 810.303 1274.85 803.011 L1274.85 801.35 L1267.44 801.35 M1282.3 798.272 L1282.3 824.157 L1274.85 824.157 L1274.85 817.271 Q1272.3 821.402 1268.49 823.387 Q1264.68 825.332 1259.17 825.332 Q1252.21 825.332 1248.07 821.443 Q1243.98 817.514 1243.98 810.951 Q1243.98 803.295 1249.09 799.406 Q1254.23 795.517 1264.4 795.517 L1274.85 795.517 L1274.85 794.788 Q1274.85 789.643 1271.45 786.848 Q1268.08 784.013 1261.97 784.013 Q1258.08 784.013 1254.39 784.944 Q1250.71 785.876 1247.3 787.739 L1247.3 780.853 Q1251.4 779.273 1255.24 778.503 Q1259.09 777.693 1262.74 777.693 Q1272.58 777.693 1277.44 782.797 Q1282.3 787.901 1282.3 798.272 Z" fill="#000000" fill-rule="evenodd" fill-opacity="1" /><path clip-path="url(#clip070)" d="M 0 0 M1297.49 765.905 L1297.49 778.787 L1312.85 778.787 L1312.85 784.58 L1297.49 784.58 L1297.49 809.209 Q1297.49 814.759 1298.99 816.339 Q1300.53 817.919 1305.19 817.919 L1312.85 817.919 L1312.85 824.157 L1305.19 824.157 Q1296.56 824.157 1293.28 820.957 Q1290 817.716 1290 809.209 L1290 784.58 L1284.53 784.58 L1284.53 778.787 L1290 778.787 L1290 765.905 L1297.49 765.905 Z" fill="#000000" fill-rule="evenodd" fill-opacity="1" /><path clip-path="url(#clip070)" d="M 0 0 M1341.28 801.35 Q1332.25 801.35 1328.77 803.416 Q1325.28 805.482 1325.28 810.465 Q1325.28 814.435 1327.88 816.784 Q1330.51 819.093 1335.01 819.093 Q1341.2 819.093 1344.93 814.718 Q1348.7 810.303 1348.7 803.011 L1348.7 801.35 L1341.28 801.35 M1356.15 798.272 L1356.15 824.157 L1348.7 824.157 L1348.7 817.271 Q1346.15 821.402 1342.34 823.387 Q1338.53 825.332 1333.02 825.332 Q1326.05 825.332 1321.92 821.443 Q1317.83 817.514 1317.83 810.951 Q1317.83 803.295 1322.93 799.406 Q1328.08 795.517 1338.25 795.517 L1348.7 795.517 L1348.7 794.788 Q1348.7 789.643 1345.3 786.848 Q1341.93 784.013 1335.82 784.013 Q1331.93 784.013 1328.24 784.944 Q1324.55 785.876 1321.15 787.739 L1321.15 780.853 Q1325.24 779.273 1329.09 778.503 Q1332.94 777.693 1336.59 777.693 Q1346.43 777.693 1351.29 782.797 Q1356.15 787.901 1356.15 798.272 Z" fill="#000000" fill-rule="evenodd" fill-opacity="1" /><path clip-path="url(#clip070)" d="M 0 0 M291.598 929.057 L342.761 929.057 L342.761 935.943 L321.291 935.943 L321.291 989.537 L313.067 989.537 L313.067 935.943 L291.598 935.943 L291.598 929.057 Z" fill="#000000" fill-rule="evenodd" fill-opacity="1" /><path clip-path="url(#clip070)" d="M 0 0 M375.289 964.988 L375.289 968.634 L341.019 968.634 Q341.505 976.331 345.637 980.382 Q349.809 984.392 357.222 984.392 Q361.516 984.392 365.527 983.339 Q369.578 982.286 373.547 980.179 L373.547 987.228 Q369.537 988.929 365.324 989.82 Q361.111 990.712 356.777 990.712 Q345.92 990.712 339.56 984.392 Q333.241 978.073 333.241 967.297 Q333.241 956.157 339.236 949.635 Q345.272 943.073 355.48 943.073 Q364.635 943.073 369.942 948.987 Q375.289 954.861 375.289 964.988 M367.836 962.801 Q367.755 956.684 364.392 953.038 Q361.071 949.392 355.561 949.392 Q349.323 949.392 345.556 952.917 Q341.829 956.441 341.262 962.841 L367.836 962.801 Z" fill="#000000" fill-rule="evenodd" fill-opacity="1" /><path clip-path="url(#clip070)" d="M 0 0 M415.758 945.909 L415.758 952.876 Q412.598 951.134 409.398 950.284 Q406.238 949.392 402.998 949.392 Q395.746 949.392 391.736 954.01 Q387.726 958.588 387.726 966.892 Q387.726 975.197 391.736 979.815 Q395.746 984.392 402.998 984.392 Q406.238 984.392 409.398 983.541 Q412.598 982.65 415.758 980.908 L415.758 987.795 Q412.639 989.253 409.276 989.982 Q405.955 990.712 402.187 990.712 Q391.939 990.712 385.903 984.271 Q379.867 977.83 379.867 966.892 Q379.867 955.793 385.943 949.433 Q392.06 943.073 402.673 943.073 Q406.117 943.073 409.398 943.802 Q412.679 944.491 415.758 945.909 Z" fill="#000000" fill-rule="evenodd" fill-opacity="1" /><path clip-path="url(#clip070)" d="M 0 0 M461.29 962.153 L461.29 989.537 L453.836 989.537 L453.836 962.396 Q453.836 955.955 451.325 952.755 Q448.813 949.554 443.79 949.554 Q437.754 949.554 434.27 953.403 Q430.787 957.251 430.787 963.895 L430.787 989.537 L423.293 989.537 L423.293 926.505 L430.787 926.505 L430.787 951.215 Q433.46 947.124 437.066 945.098 Q440.711 943.073 445.451 943.073 Q453.269 943.073 457.28 947.934 Q461.29 952.755 461.29 962.153 Z" fill="#000000" fill-rule="evenodd" fill-opacity="1" /><path clip-path="url(#clip070)" d="M 0 0 M506.822 962.153 L506.822 989.537 L499.369 989.537 L499.369 962.396 Q499.369 955.955 496.857 952.755 Q494.345 949.554 489.322 949.554 Q483.286 949.554 479.803 953.403 Q476.319 957.251 476.319 963.895 L476.319 989.537 L468.825 989.537 L468.825 944.167 L476.319 944.167 L476.319 951.215 Q478.992 947.124 482.598 945.098 Q486.244 943.073 490.983 943.073 Q498.801 943.073 502.812 947.934 Q506.822 952.755 506.822 962.153 Z" fill="#000000" fill-rule="evenodd" fill-opacity="1" /><path clip-path="url(#clip070)" d="M 0 0 M514.64 944.167 L522.094 944.167 L522.094 989.537 L514.64 989.537 L514.64 944.167 M514.64 926.505 L522.094 926.505 L522.094 935.943 L514.64 935.943 L514.64 926.505 Z" fill="#000000" fill-rule="evenodd" fill-opacity="1" /><path clip-path="url(#clip070)" d="M 0 0 M562.563 945.909 L562.563 952.876 Q559.403 951.134 556.203 950.284 Q553.043 949.392 549.802 949.392 Q542.551 949.392 538.541 954.01 Q534.53 958.588 534.53 966.892 Q534.53 975.197 538.541 979.815 Q542.551 984.392 549.802 984.392 Q553.043 984.392 556.203 983.541 Q559.403 982.65 562.563 980.908 L562.563 987.795 Q559.443 989.253 556.081 989.982 Q552.759 990.712 548.992 990.712 Q538.743 990.712 532.707 984.271 Q526.672 977.83 526.672 966.892 Q526.672 955.793 532.748 949.433 Q538.865 943.073 549.478 943.073 Q552.921 943.073 556.203 943.802 Q559.484 944.491 562.563 945.909 Z" fill="#000000" fill-rule="evenodd" fill-opacity="1" /><path clip-path="url(#clip070)" d="M 0 0 M591 966.73 Q581.966 966.73 578.483 968.796 Q574.999 970.862 574.999 975.845 Q574.999 979.815 577.591 982.164 Q580.225 984.473 584.721 984.473 Q590.919 984.473 594.646 980.098 Q598.413 975.683 598.413 968.391 L598.413 966.73 L591 966.73 M605.867 963.652 L605.867 989.537 L598.413 989.537 L598.413 982.65 Q595.861 986.782 592.053 988.767 Q588.245 990.712 582.736 990.712 Q575.769 990.712 571.637 986.823 Q567.545 982.893 567.545 976.331 Q567.545 968.675 572.649 964.786 Q577.794 960.897 587.962 960.897 L598.413 960.897 L598.413 960.168 Q598.413 955.023 595.01 952.228 Q591.648 949.392 585.531 949.392 Q581.642 949.392 577.956 950.324 Q574.27 951.256 570.867 953.119 L570.867 946.233 Q574.958 944.653 578.807 943.883 Q582.655 943.073 586.301 943.073 Q596.145 943.073 601.006 948.177 Q605.867 953.281 605.867 963.652 Z" fill="#000000" fill-rule="evenodd" fill-opacity="1" /><path clip-path="url(#clip070)" d="M 0 0 M613.685 926.505 L621.139 926.505 L621.139 989.537 L613.685 989.537 L613.685 926.505 Z" fill="#000000" fill-rule="evenodd" fill-opacity="1" /><path clip-path="url(#clip070)" d="M 0 0 M663.43 1003.31 L663.43 1009.1 L620.329 1009.1 L620.329 1003.31 L663.43 1003.31 Z" fill="#000000" fill-rule="evenodd" fill-opacity="1" /><path clip-path="url(#clip070)" d="M 0 0 M716.862 933.715 L716.862 942.344 Q712.73 938.495 708.031 936.591 Q703.372 934.688 698.106 934.688 Q687.736 934.688 682.226 941.047 Q676.717 947.367 676.717 959.358 Q676.717 971.308 682.226 977.668 Q687.736 983.987 698.106 983.987 Q703.372 983.987 708.031 982.083 Q712.73 980.179 716.862 976.331 L716.862 984.878 Q712.568 987.795 707.747 989.253 Q702.967 990.712 697.62 990.712 Q683.887 990.712 675.988 982.326 Q668.089 973.9 668.089 959.358 Q668.089 944.774 675.988 936.389 Q683.887 927.963 697.62 927.963 Q703.048 927.963 707.828 929.421 Q712.649 930.839 716.862 933.715 Z" fill="#000000" fill-rule="evenodd" fill-opacity="1" /><path clip-path="url(#clip070)" d="M 0 0 M742.261 949.392 Q736.265 949.392 732.782 954.091 Q729.298 958.75 729.298 966.892 Q729.298 975.035 732.741 979.734 Q736.225 984.392 742.261 984.392 Q748.216 984.392 751.699 979.693 Q755.183 974.994 755.183 966.892 Q755.183 958.831 751.699 954.132 Q748.216 949.392 742.261 949.392 M742.261 943.073 Q751.983 943.073 757.533 949.392 Q763.082 955.712 763.082 966.892 Q763.082 978.032 757.533 984.392 Q751.983 990.712 742.261 990.712 Q732.498 990.712 726.948 984.392 Q721.439 978.032 721.439 966.892 Q721.439 955.712 726.948 949.392 Q732.498 943.073 742.261 943.073 Z" fill="#000000" fill-rule="evenodd" fill-opacity="1" /><path clip-path="url(#clip070)" d="M 0 0 M808.615 962.153 L808.615 989.537 L801.161 989.537 L801.161 962.396 Q801.161 955.955 798.649 952.755 Q796.138 949.554 791.115 949.554 Q785.079 949.554 781.595 953.403 Q778.111 957.251 778.111 963.895 L778.111 989.537 L770.617 989.537 L770.617 944.167 L778.111 944.167 L778.111 951.215 Q780.785 947.124 784.39 945.098 Q788.036 943.073 792.776 943.073 Q800.594 943.073 804.604 947.934 Q808.615 952.755 808.615 962.153 Z" fill="#000000" fill-rule="evenodd" fill-opacity="1" /><path clip-path="url(#clip070)" d="M 0 0 M845.356 945.503 L845.356 952.552 Q842.197 950.932 838.794 950.122 Q835.391 949.311 831.745 949.311 Q826.195 949.311 823.4 951.013 Q820.646 952.714 820.646 956.117 Q820.646 958.709 822.631 960.208 Q824.616 961.667 830.611 963.003 L833.163 963.571 Q841.103 965.272 844.425 968.391 Q847.787 971.47 847.787 977.02 Q847.787 983.339 842.764 987.025 Q837.781 990.712 829.031 990.712 Q825.385 990.712 821.415 989.982 Q817.486 989.294 813.111 987.876 L813.111 980.179 Q817.243 982.326 821.253 983.42 Q825.264 984.473 829.193 984.473 Q834.459 984.473 837.295 982.691 Q840.131 980.868 840.131 977.587 Q840.131 974.548 838.065 972.928 Q836.039 971.308 829.112 969.809 L826.52 969.201 Q819.593 967.743 816.514 964.745 Q813.435 961.707 813.435 956.441 Q813.435 950.041 817.972 946.557 Q822.509 943.073 830.854 943.073 Q834.986 943.073 838.632 943.681 Q842.278 944.288 845.356 945.503 Z" fill="#000000" fill-rule="evenodd" fill-opacity="1" /><path clip-path="url(#clip070)" d="M 0 0 M862.978 931.285 L862.978 944.167 L878.331 944.167 L878.331 949.959 L862.978 949.959 L862.978 974.589 Q862.978 980.139 864.477 981.719 Q866.016 983.298 870.674 983.298 L878.331 983.298 L878.331 989.537 L870.674 989.537 Q862.046 989.537 858.765 986.337 Q855.484 983.096 855.484 974.589 L855.484 949.959 L850.015 949.959 L850.015 944.167 L855.484 944.167 L855.484 931.285 L862.978 931.285 Z" fill="#000000" fill-rule="evenodd" fill-opacity="1" /><path clip-path="url(#clip070)" d="M 0 0 M912.439 951.134 Q911.183 950.405 909.685 950.081 Q908.226 949.716 906.444 949.716 Q900.124 949.716 896.722 953.848 Q893.359 957.94 893.359 965.636 L893.359 989.537 L885.865 989.537 L885.865 944.167 L893.359 944.167 L893.359 951.215 Q895.709 947.083 899.476 945.098 Q903.244 943.073 908.631 943.073 Q909.401 943.073 910.333 943.194 Q911.264 943.275 912.399 943.478 L912.439 951.134 Z" fill="#000000" fill-rule="evenodd" fill-opacity="1" /><path clip-path="url(#clip070)" d="M 0 0 M940.877 966.73 Q931.843 966.73 928.359 968.796 Q924.876 970.862 924.876 975.845 Q924.876 979.815 927.468 982.164 Q930.101 984.473 934.598 984.473 Q940.796 984.473 944.522 980.098 Q948.29 975.683 948.29 968.391 L948.29 966.73 L940.877 966.73 M955.743 963.652 L955.743 989.537 L948.29 989.537 L948.29 982.65 Q945.738 986.782 941.93 988.767 Q938.122 990.712 932.613 990.712 Q925.645 990.712 921.513 986.823 Q917.422 982.893 917.422 976.331 Q917.422 968.675 922.526 964.786 Q927.671 960.897 937.838 960.897 L948.29 960.897 L948.29 960.168 Q948.29 955.023 944.887 952.228 Q941.525 949.392 935.408 949.392 Q931.519 949.392 927.833 950.324 Q924.146 951.256 920.744 953.119 L920.744 946.233 Q924.835 944.653 928.683 943.883 Q932.532 943.073 936.178 943.073 Q946.021 943.073 950.882 948.177 Q955.743 953.281 955.743 963.652 Z" fill="#000000" fill-rule="evenodd" fill-opacity="1" /><path clip-path="url(#clip070)" d="M 0 0 M963.562 944.167 L971.015 944.167 L971.015 989.537 L963.562 989.537 L963.562 944.167 M963.562 926.505 L971.015 926.505 L971.015 935.943 L963.562 935.943 L963.562 926.505 Z" fill="#000000" fill-rule="evenodd" fill-opacity="1" /><path clip-path="url(#clip070)" d="M 0 0 M1016.55 962.153 L1016.55 989.537 L1009.09 989.537 L1009.09 962.396 Q1009.09 955.955 1006.58 952.755 Q1004.07 949.554 999.048 949.554 Q993.012 949.554 989.528 953.403 Q986.044 957.251 986.044 963.895 L986.044 989.537 L978.55 989.537 L978.55 944.167 L986.044 944.167 L986.044 951.215 Q988.718 947.124 992.323 945.098 Q995.969 943.073 1000.71 943.073 Q1008.53 943.073 1012.54 947.934 Q1016.55 952.755 1016.55 962.153 Z" fill="#000000" fill-rule="evenodd" fill-opacity="1" /><path clip-path="url(#clip070)" d="M 0 0 M1031.74 931.285 L1031.74 944.167 L1047.09 944.167 L1047.09 949.959 L1031.74 949.959 L1031.74 974.589 Q1031.74 980.139 1033.24 981.719 Q1034.78 983.298 1039.44 983.298 L1047.09 983.298 L1047.09 989.537 L1039.44 989.537 Q1030.81 989.537 1027.53 986.337 Q1024.24 983.096 1024.24 974.589 L1024.24 949.959 L1018.78 949.959 L1018.78 944.167 L1024.24 944.167 L1024.24 931.285 L1031.74 931.285 Z" fill="#000000" fill-rule="evenodd" fill-opacity="1" /><path clip-path="url(#clip070)" d="M 0 0 M1083.83 945.503 L1083.83 952.552 Q1080.67 950.932 1077.27 950.122 Q1073.87 949.311 1070.22 949.311 Q1064.67 949.311 1061.88 951.013 Q1059.12 952.714 1059.12 956.117 Q1059.12 958.709 1061.11 960.208 Q1063.09 961.667 1069.09 963.003 L1071.64 963.571 Q1079.58 965.272 1082.9 968.391 Q1086.26 971.47 1086.26 977.02 Q1086.26 983.339 1081.24 987.025 Q1076.26 990.712 1067.51 990.712 Q1063.86 990.712 1059.89 989.982 Q1055.96 989.294 1051.59 987.876 L1051.59 980.179 Q1055.72 982.326 1059.73 983.42 Q1063.74 984.473 1067.67 984.473 Q1072.94 984.473 1075.77 982.691 Q1078.61 980.868 1078.61 977.587 Q1078.61 974.548 1076.54 972.928 Q1074.52 971.308 1067.59 969.809 L1065 969.201 Q1058.07 967.743 1054.99 964.745 Q1051.91 961.707 1051.91 956.441 Q1051.91 950.041 1056.45 946.557 Q1060.99 943.073 1069.33 943.073 Q1073.46 943.073 1077.11 943.681 Q1080.75 944.288 1083.83 945.503 Z" fill="#000000" fill-rule="evenodd" fill-opacity="1" /><path clip-path="url(#clip070)" d="M 0 0 M1820.06 65.4389 L1820.06 88.1645 L1830.35 88.1645 Q1836.06 88.1645 1839.18 85.2073 Q1842.3 82.2501 1842.3 76.7814 Q1842.3 71.3532 1839.18 68.3961 Q1836.06 65.4389 1830.35 65.4389 L1820.06 65.4389 M1811.88 58.7144 L1830.35 58.7144 Q1840.52 58.7144 1845.7 63.3324 Q1850.93 67.9099 1850.93 76.7814 Q1850.93 85.7339 1845.7 90.3114 Q1840.52 94.889 1830.35 94.889 L1820.06 94.889 L1820.06 119.194 L1811.88 119.194 L1811.88 58.7144 Z" fill="#000000" fill-rule="evenodd" fill-opacity="1" /><path clip-path="url(#clip070)" d="M 0 0 M1894.6 94.6459 L1894.6 98.2917 L1860.33 98.2917 Q1860.81 105.988 1864.95 110.039 Q1869.12 114.05 1876.53 114.05 Q1880.83 114.05 1884.84 112.997 Q1888.89 111.943 1892.86 109.837 L1892.86 116.885 Q1888.85 118.587 1884.63 119.478 Q1880.42 120.369 1876.09 120.369 Q1865.23 120.369 1858.87 114.05 Q1852.55 107.73 1852.55 96.9549 Q1852.55 85.8149 1858.55 79.293 Q1864.58 72.7305 1874.79 72.7305 Q1883.95 72.7305 1889.25 78.6448 Q1894.6 84.5187 1894.6 94.6459 M1887.15 92.4584 Q1887.06 86.3416 1883.7 82.6957 Q1880.38 79.0499 1874.87 79.0499 Q1868.63 79.0499 1864.87 82.5742 Q1861.14 86.0985 1860.57 92.4989 L1887.15 92.4584 Z" fill="#000000" fill-rule="evenodd" fill-opacity="1" /><path clip-path="url(#clip070)" d="M 0 0 M1928.71 80.7918 Q1927.45 80.0627 1925.95 79.7386 Q1924.49 79.374 1922.71 79.374 Q1916.39 79.374 1912.99 83.5059 Q1909.63 87.5973 1909.63 95.2941 L1909.63 119.194 L1902.13 119.194 L1902.13 73.8243 L1909.63 73.8243 L1909.63 80.8728 Q1911.98 76.7409 1915.74 74.756 Q1919.51 72.7305 1924.9 72.7305 Q1925.67 72.7305 1926.6 72.852 Q1927.53 72.9331 1928.67 73.1356 L1928.71 80.7918 Z" fill="#000000" fill-rule="evenodd" fill-opacity="1" /><path clip-path="url(#clip070)" d="M 0 0 M1959.49 56.1623 L1959.49 62.3602 L1952.36 62.3602 Q1948.35 62.3602 1946.77 63.9806 Q1945.24 65.6009 1945.24 69.8139 L1945.24 73.8243 L1957.51 73.8243 L1957.51 79.6171 L1945.24 79.6171 L1945.24 119.194 L1937.74 119.194 L1937.74 79.6171 L1930.61 79.6171 L1930.61 73.8243 L1937.74 73.8243 L1937.74 70.6646 Q1937.74 63.0894 1941.27 59.6461 Q1944.79 56.1623 1952.45 56.1623 L1959.49 56.1623 Z" fill="#000000" fill-rule="evenodd" fill-opacity="1" /><path clip-path="url(#clip070)" d="M 0 0 M1984.89 79.0499 Q1978.9 79.0499 1975.41 83.749 Q1971.93 88.4075 1971.93 96.5498 Q1971.93 104.692 1975.37 109.391 Q1978.86 114.05 1984.89 114.05 Q1990.85 114.05 1994.33 109.351 Q1997.82 104.652 1997.82 96.5498 Q1997.82 88.4885 1994.33 83.7895 Q1990.85 79.0499 1984.89 79.0499 M1984.89 72.7305 Q1994.62 72.7305 2000.17 79.0499 Q2005.72 85.3693 2005.72 96.5498 Q2005.72 107.69 2000.17 114.05 Q1994.62 120.369 1984.89 120.369 Q1975.13 120.369 1969.58 114.05 Q1964.07 107.69 1964.07 96.5498 Q1964.07 85.3693 1969.58 79.0499 Q1975.13 72.7305 1984.89 72.7305 Z" fill="#000000" fill-rule="evenodd" fill-opacity="1" /><path clip-path="url(#clip070)" d="M 0 0 M2039.82 80.7918 Q2038.57 80.0627 2037.07 79.7386 Q2035.61 79.374 2033.83 79.374 Q2027.51 79.374 2024.11 83.5059 Q2020.74 87.5973 2020.74 95.2941 L2020.74 119.194 L2013.25 119.194 L2013.25 73.8243 L2020.74 73.8243 L2020.74 80.8728 Q2023.09 76.7409 2026.86 74.756 Q2030.63 72.7305 2036.02 72.7305 Q2036.79 72.7305 2037.72 72.852 Q2038.65 72.9331 2039.78 73.1356 L2039.82 80.7918 Z" fill="#000000" fill-rule="evenodd" fill-opacity="1" /><path clip-path="url(#clip070)" d="M 0 0 M2081.51 82.5337 Q2084.3 77.5106 2088.19 75.1206 Q2092.08 72.7305 2097.35 72.7305 Q2104.44 72.7305 2108.28 77.7131 Q2112.13 82.6552 2112.13 91.8103 L2112.13 119.194 L2104.64 119.194 L2104.64 92.0533 Q2104.64 85.5314 2102.33 82.3717 Q2100.02 79.212 2095.28 79.212 Q2089.49 79.212 2086.13 83.0603 Q2082.76 86.9087 2082.76 93.5522 L2082.76 119.194 L2075.27 119.194 L2075.27 92.0533 Q2075.27 85.4909 2072.96 82.3717 Q2070.65 79.212 2065.83 79.212 Q2060.12 79.212 2056.76 83.1008 Q2053.39 86.9492 2053.39 93.5522 L2053.39 119.194 L2045.9 119.194 L2045.9 73.8243 L2053.39 73.8243 L2053.39 80.8728 Q2055.95 76.7004 2059.51 74.7155 Q2063.08 72.7305 2067.98 72.7305 Q2072.92 72.7305 2076.36 75.2421 Q2079.85 77.7536 2081.51 82.5337 Z" fill="#000000" fill-rule="evenodd" fill-opacity="1" /><path clip-path="url(#clip070)" d="M 0 0 M2140.57 96.3878 Q2131.54 96.3878 2128.05 98.4538 Q2124.57 100.52 2124.57 105.502 Q2124.57 109.472 2127.16 111.822 Q2129.79 114.131 2134.29 114.131 Q2140.49 114.131 2144.22 109.756 Q2147.98 105.34 2147.98 98.0487 L2147.98 96.3878 L2140.57 96.3878 M2155.44 93.3091 L2155.44 119.194 L2147.98 119.194 L2147.98 112.308 Q2145.43 116.44 2141.62 118.425 Q2137.82 120.369 2132.31 120.369 Q2125.34 120.369 2121.21 116.48 Q2117.12 112.551 2117.12 105.988 Q2117.12 98.3322 2122.22 94.4434 Q2127.36 90.5545 2137.53 90.5545 L2147.98 90.5545 L2147.98 89.8253 Q2147.98 84.6807 2144.58 81.8856 Q2141.22 79.0499 2135.1 79.0499 Q2131.21 79.0499 2127.53 79.9816 Q2123.84 80.9133 2120.44 82.7768 L2120.44 75.8902 Q2124.53 74.3104 2128.38 73.5407 Q2132.23 72.7305 2135.87 72.7305 Q2145.71 72.7305 2150.58 77.8347 Q2155.44 82.9388 2155.44 93.3091 Z" fill="#000000" fill-rule="evenodd" fill-opacity="1" /><path clip-path="url(#clip070)" d="M 0 0 M2200.97 91.8103 L2200.97 119.194 L2193.52 119.194 L2193.52 92.0533 Q2193.52 85.6124 2191 82.4122 Q2188.49 79.212 2183.47 79.212 Q2177.43 79.212 2173.95 83.0603 Q2170.47 86.9087 2170.47 93.5522 L2170.47 119.194 L2162.97 119.194 L2162.97 73.8243 L2170.47 73.8243 L2170.47 80.8728 Q2173.14 76.7814 2176.74 74.756 Q2180.39 72.7305 2185.13 72.7305 Q2192.95 72.7305 2196.96 77.5916 Q2200.97 82.4122 2200.97 91.8103 Z" fill="#000000" fill-rule="evenodd" fill-opacity="1" /><path clip-path="url(#clip070)" d="M 0 0 M2241.44 75.5662 L2241.44 82.5337 Q2238.28 80.7918 2235.08 79.9411 Q2231.92 79.0499 2228.68 79.0499 Q2221.43 79.0499 2217.42 83.668 Q2213.41 88.2455 2213.41 96.5498 Q2213.41 104.854 2217.42 109.472 Q2221.43 114.05 2228.68 114.05 Q2231.92 114.05 2235.08 113.199 Q2238.28 112.308 2241.44 110.566 L2241.44 117.453 Q2238.32 118.911 2234.96 119.64 Q2231.63 120.369 2227.87 120.369 Q2217.62 120.369 2211.58 113.928 Q2205.55 107.487 2205.55 96.5498 Q2205.55 85.4504 2211.62 79.0904 Q2217.74 72.7305 2228.35 72.7305 Q2231.8 72.7305 2235.08 73.4597 Q2238.36 74.1483 2241.44 75.5662 Z" fill="#000000" fill-rule="evenodd" fill-opacity="1" /><path clip-path="url(#clip070)" d="M 0 0 M2288.06 94.6459 L2288.06 98.2917 L2253.79 98.2917 Q2254.28 105.988 2258.41 110.039 Q2262.58 114.05 2270 114.05 Q2274.29 114.05 2278.3 112.997 Q2282.35 111.943 2286.32 109.837 L2286.32 116.885 Q2282.31 118.587 2278.1 119.478 Q2273.89 120.369 2269.55 120.369 Q2258.69 120.369 2252.33 114.05 Q2246.02 107.73 2246.02 96.9549 Q2246.02 85.8149 2252.01 79.293 Q2258.05 72.7305 2268.25 72.7305 Q2277.41 72.7305 2282.72 78.6448 Q2288.06 84.5187 2288.06 94.6459 M2280.61 92.4584 Q2280.53 86.3416 2277.17 82.6957 Q2273.84 79.0499 2268.34 79.0499 Q2262.1 79.0499 2258.33 82.5742 Q2254.6 86.0985 2254.04 92.4989 L2280.61 92.4584 Z" fill="#000000" fill-rule="evenodd" fill-opacity="1" /><path clip-path="url(#clip070)" d="M 0 0 M2330.35 132.967 L2330.35 138.76 L2287.25 138.76 L2287.25 132.967 L2330.35 132.967 Z" fill="#000000" fill-rule="evenodd" fill-opacity="1" /><path clip-path="url(#clip070)" d="M 0 0 M2346.68 65.4389 L2346.68 88.1645 L2356.97 88.1645 Q2362.68 88.1645 2365.8 85.2073 Q2368.92 82.2501 2368.92 76.7814 Q2368.92 71.3532 2365.8 68.3961 Q2362.68 65.4389 2356.97 65.4389 L2346.68 65.4389 M2338.5 58.7144 L2356.97 58.7144 Q2367.14 58.7144 2372.32 63.3324 Q2377.55 67.9099 2377.55 76.7814 Q2377.55 85.7339 2372.32 90.3114 Q2367.14 94.889 2356.97 94.889 L2346.68 94.889 L2346.68 119.194 L2338.5 119.194 L2338.5 58.7144 Z" fill="#000000" fill-rule="evenodd" fill-opacity="1" /><path clip-path="url(#clip070)" d="M 0 0 M2402.26 96.3878 Q2393.22 96.3878 2389.74 98.4538 Q2386.26 100.52 2386.26 105.502 Q2386.26 109.472 2388.85 111.822 Q2391.48 114.131 2395.98 114.131 Q2402.18 114.131 2405.9 109.756 Q2409.67 105.34 2409.67 98.0487 L2409.67 96.3878 L2402.26 96.3878 M2417.13 93.3091 L2417.13 119.194 L2409.67 119.194 L2409.67 112.308 Q2407.12 116.44 2403.31 118.425 Q2399.5 120.369 2393.99 120.369 Q2387.03 120.369 2382.9 116.48 Q2378.8 112.551 2378.8 105.988 Q2378.8 98.3322 2383.91 94.4434 Q2389.05 90.5545 2399.22 90.5545 L2409.67 90.5545 L2409.67 89.8253 Q2409.67 84.6807 2406.27 81.8856 Q2402.91 79.0499 2396.79 79.0499 Q2392.9 79.0499 2389.21 79.9816 Q2385.53 80.9133 2382.13 82.7768 L2382.13 75.8902 Q2386.22 74.3104 2390.07 73.5407 Q2393.91 72.7305 2397.56 72.7305 Q2407.4 72.7305 2412.26 77.8347 Q2417.13 82.9388 2417.13 93.3091 Z" fill="#000000" fill-rule="evenodd" fill-opacity="1" /><path clip-path="url(#clip070)" d="M 0 0 M2451.23 80.7918 Q2449.98 80.0627 2448.48 79.7386 Q2447.02 79.374 2445.24 79.374 Q2438.92 79.374 2435.52 83.5059 Q2432.15 87.5973 2432.15 95.2941 L2432.15 119.194 L2424.66 119.194 L2424.66 73.8243 L2432.15 73.8243 L2432.15 80.8728 Q2434.5 76.7409 2438.27 74.756 Q2442.04 72.7305 2447.43 72.7305 Q2448.2 72.7305 2449.13 72.852 Q2450.06 72.9331 2451.19 73.1356 L2451.23 80.7918 Z" fill="#000000" fill-rule="evenodd" fill-opacity="1" /><path clip-path="url(#clip070)" d="M 0 0 M2479.67 96.3878 Q2470.64 96.3878 2467.15 98.4538 Q2463.67 100.52 2463.67 105.502 Q2463.67 109.472 2466.26 111.822 Q2468.9 114.131 2473.39 114.131 Q2479.59 114.131 2483.32 109.756 Q2487.08 105.34 2487.08 98.0487 L2487.08 96.3878 L2479.67 96.3878 M2494.54 93.3091 L2494.54 119.194 L2487.08 119.194 L2487.08 112.308 Q2484.53 116.44 2480.72 118.425 Q2476.92 120.369 2471.41 120.369 Q2464.44 120.369 2460.31 116.48 Q2456.22 112.551 2456.22 105.988 Q2456.22 98.3322 2461.32 94.4434 Q2466.47 90.5545 2476.63 90.5545 L2487.08 90.5545 L2487.08 89.8253 Q2487.08 84.6807 2483.68 81.8856 Q2480.32 79.0499 2474.2 79.0499 Q2470.31 79.0499 2466.63 79.9816 Q2462.94 80.9133 2459.54 82.7768 L2459.54 75.8902 Q2463.63 74.3104 2467.48 73.5407 Q2471.33 72.7305 2474.97 72.7305 Q2484.82 72.7305 2489.68 77.8347 Q2494.54 82.9388 2494.54 93.3091 Z" fill="#000000" fill-rule="evenodd" fill-opacity="1" /><path clip-path="url(#clip070)" d="M 0 0 M2537.68 82.5337 Q2540.48 77.5106 2544.36 75.1206 Q2548.25 72.7305 2553.52 72.7305 Q2560.61 72.7305 2564.46 77.7131 Q2568.3 82.6552 2568.3 91.8103 L2568.3 119.194 L2560.81 119.194 L2560.81 92.0533 Q2560.81 85.5314 2558.5 82.3717 Q2556.19 79.212 2551.45 79.212 Q2545.66 79.212 2542.3 83.0603 Q2538.94 86.9087 2538.94 93.5522 L2538.94 119.194 L2531.44 119.194 L2531.44 92.0533 Q2531.44 85.4909 2529.13 82.3717 Q2526.82 79.212 2522 79.212 Q2516.29 79.212 2512.93 83.1008 Q2509.57 86.9492 2509.57 93.5522 L2509.57 119.194 L2502.07 119.194 L2502.07 73.8243 L2509.57 73.8243 L2509.57 80.8728 Q2512.12 76.7004 2515.68 74.7155 Q2519.25 72.7305 2524.15 72.7305 Q2529.09 72.7305 2532.54 75.2421 Q2536.02 77.7536 2537.68 82.5337 Z" fill="#000000" fill-rule="evenodd" fill-opacity="1" /><path clip-path="url(#clip070)" d="M 0 0 M2614.93 94.6459 L2614.93 98.2917 L2580.66 98.2917 Q2581.15 105.988 2585.28 110.039 Q2589.45 114.05 2596.86 114.05 Q2601.16 114.05 2605.17 112.997 Q2609.22 111.943 2613.19 109.837 L2613.19 116.885 Q2609.18 118.587 2604.97 119.478 Q2600.75 120.369 2596.42 120.369 Q2585.56 120.369 2579.2 114.05 Q2572.88 107.73 2572.88 96.9549 Q2572.88 85.8149 2578.88 79.293 Q2584.91 72.7305 2595.12 72.7305 Q2604.28 72.7305 2609.58 78.6448 Q2614.93 84.5187 2614.93 94.6459 M2607.48 92.4584 Q2607.4 86.3416 2604.03 82.6957 Q2600.71 79.0499 2595.2 79.0499 Q2588.96 79.0499 2585.2 82.5742 Q2581.47 86.0985 2580.9 92.4989 L2607.48 92.4584 Z" fill="#000000" fill-rule="evenodd" fill-opacity="1" /><path clip-path="url(#clip070)" d="M 0 0 M2630.12 60.9424 L2630.12 73.8243 L2645.47 73.8243 L2645.47 79.6171 L2630.12 79.6171 L2630.12 104.247 Q2630.12 109.796 2631.62 111.376 Q2633.16 112.956 2637.82 112.956 L2645.47 112.956 L2645.47 119.194 L2637.82 119.194 Q2629.19 119.194 2625.91 115.994 Q2622.63 112.753 2622.63 104.247 L2622.63 79.6171 L2617.16 79.6171 L2617.16 73.8243 L2622.63 73.8243 L2622.63 60.9424 L2630.12 60.9424 Z" fill="#000000" fill-rule="evenodd" fill-opacity="1" /><path clip-path="url(#clip070)" d="M 0 0 M2692.1 94.6459 L2692.1 98.2917 L2657.83 98.2917 Q2658.32 105.988 2662.45 110.039 Q2666.62 114.05 2674.03 114.05 Q2678.33 114.05 2682.34 112.997 Q2686.39 111.943 2690.36 109.837 L2690.36 116.885 Q2686.35 118.587 2682.14 119.478 Q2677.92 120.369 2673.59 120.369 Q2662.73 120.369 2656.37 114.05 Q2650.05 107.73 2650.05 96.9549 Q2650.05 85.8149 2656.05 79.293 Q2662.08 72.7305 2672.29 72.7305 Q2681.45 72.7305 2686.75 78.6448 Q2692.1 84.5187 2692.1 94.6459 M2684.65 92.4584 Q2684.57 86.3416 2681.2 82.6957 Q2677.88 79.0499 2672.37 79.0499 Q2666.13 79.0499 2662.37 82.5742 Q2658.64 86.0985 2658.07 92.4989 L2684.65 92.4584 Z" fill="#000000" fill-rule="evenodd" fill-opacity="1" /><path clip-path="url(#clip070)" d="M 0 0 M2726.21 80.7918 Q2724.95 80.0627 2723.45 79.7386 Q2722 79.374 2720.21 79.374 Q2713.89 79.374 2710.49 83.5059 Q2707.13 87.5973 2707.13 95.2941 L2707.13 119.194 L2699.64 119.194 L2699.64 73.8243 L2707.13 73.8243 L2707.13 80.8728 Q2709.48 76.7409 2713.25 74.756 Q2717.01 72.7305 2722.4 72.7305 Q2723.17 72.7305 2724.1 72.852 Q2725.03 72.9331 2726.17 73.1356 L2726.21 80.7918 Z" fill="#000000" fill-rule="evenodd" fill-opacity="1" /><path clip-path="url(#clip070)" d="M 0 0 M2762.95 75.1611 L2762.95 82.2096 Q2759.79 80.5893 2756.39 79.7791 Q2752.99 78.9689 2749.34 78.9689 Q2743.79 78.9689 2740.99 80.6703 Q2738.24 82.3717 2738.24 85.7744 Q2738.24 88.367 2740.23 89.8658 Q2742.21 91.3242 2748.21 92.661 L2750.76 93.2281 Q2758.7 94.9295 2762.02 98.0487 Q2765.38 101.127 2765.38 106.677 Q2765.38 112.997 2760.36 116.683 Q2755.38 120.369 2746.63 120.369 Q2742.98 120.369 2739.01 119.64 Q2735.08 118.951 2730.71 117.534 L2730.71 109.837 Q2734.84 111.984 2738.85 113.078 Q2742.86 114.131 2746.79 114.131 Q2752.05 114.131 2754.89 112.348 Q2757.73 110.525 2757.73 107.244 Q2757.73 104.206 2755.66 102.586 Q2753.63 100.965 2746.71 99.4665 L2744.11 98.8589 Q2737.19 97.4005 2734.11 94.4029 Q2731.03 91.3647 2731.03 86.0985 Q2731.03 79.6981 2735.57 76.2143 Q2740.1 72.7305 2748.45 72.7305 Q2752.58 72.7305 2756.23 73.3382 Q2759.87 73.9458 2762.95 75.1611 Z" fill="#000000" fill-rule="evenodd" fill-opacity="1" /><path clip-path="url(#clip070)" d="M 0 0 M614.431 1278.83 L614.431 1287.46 Q610.299 1283.61 605.6 1281.71 Q600.941 1279.8 595.675 1279.8 Q585.305 1279.8 579.795 1286.16 Q574.286 1292.48 574.286 1304.47 Q574.286 1316.42 579.795 1322.78 Q585.305 1329.1 595.675 1329.1 Q600.941 1329.1 605.6 1327.2 Q610.299 1325.29 614.431 1321.45 L614.431 1329.99 Q610.137 1332.91 605.316 1334.37 Q600.536 1335.83 595.189 1335.83 Q581.456 1335.83 573.557 1327.44 Q565.658 1319.02 565.658 1304.47 Q565.658 1289.89 573.557 1281.5 Q581.456 1273.08 595.189 1273.08 Q600.617 1273.08 605.397 1274.54 Q610.218 1275.95 614.431 1278.83 Z" fill="#000000" fill-rule="evenodd" fill-opacity="1" /><path clip-path="url(#clip070)" d="M 0 0 M622.249 1271.62 L629.702 1271.62 L629.702 1334.65 L622.249 1334.65 L622.249 1271.62 Z" fill="#000000" fill-rule="evenodd" fill-opacity="1" /><path clip-path="url(#clip070)" d="M 0 0 M637.521 1289.28 L644.974 1289.28 L644.974 1334.65 L637.521 1334.65 L637.521 1289.28 M637.521 1271.62 L644.974 1271.62 L644.974 1281.06 L637.521 1281.06 L637.521 1271.62 Z" fill="#000000" fill-rule="evenodd" fill-opacity="1" /><path clip-path="url(#clip070)" d="M 0 0 M691.6 1310.1 L691.6 1313.75 L657.33 1313.75 Q657.816 1321.45 661.948 1325.5 Q666.12 1329.51 673.533 1329.51 Q677.827 1329.51 681.838 1328.45 Q685.889 1327.4 689.858 1325.29 L689.858 1332.34 Q685.848 1334.04 681.635 1334.94 Q677.422 1335.83 673.088 1335.83 Q662.231 1335.83 655.871 1329.51 Q649.552 1323.19 649.552 1312.41 Q649.552 1301.27 655.547 1294.75 Q661.583 1288.19 671.791 1288.19 Q680.946 1288.19 686.253 1294.1 Q691.6 1299.98 691.6 1310.1 M684.147 1307.92 Q684.066 1301.8 680.703 1298.15 Q677.382 1294.51 671.872 1294.51 Q665.634 1294.51 661.867 1298.03 Q658.14 1301.56 657.573 1307.96 L684.147 1307.92 Z" fill="#000000" fill-rule="evenodd" fill-opacity="1" /><path clip-path="url(#clip070)" d="M 0 0 M737.132 1307.27 L737.132 1334.65 L729.679 1334.65 L729.679 1307.51 Q729.679 1301.07 727.167 1297.87 Q724.656 1294.67 719.633 1294.67 Q713.597 1294.67 710.113 1298.52 Q706.629 1302.37 706.629 1309.01 L706.629 1334.65 L699.135 1334.65 L699.135 1289.28 L706.629 1289.28 L706.629 1296.33 Q709.303 1292.24 712.908 1290.21 Q716.554 1288.19 721.293 1288.19 Q729.112 1288.19 733.122 1293.05 Q737.132 1297.87 737.132 1307.27 Z" fill="#000000" fill-rule="evenodd" fill-opacity="1" /><path clip-path="url(#clip070)" d="M 0 0 M752.323 1276.4 L752.323 1289.28 L767.676 1289.28 L767.676 1295.08 L752.323 1295.08 L752.323 1319.7 Q752.323 1325.25 753.822 1326.83 Q755.362 1328.41 760.02 1328.41 L767.676 1328.41 L767.676 1334.65 L760.02 1334.65 Q751.392 1334.65 748.11 1331.45 Q744.829 1328.21 744.829 1319.7 L744.829 1295.08 L739.36 1295.08 L739.36 1289.28 L744.829 1289.28 L744.829 1276.4 L752.323 1276.4 Z" fill="#000000" fill-rule="evenodd" fill-opacity="1" /><path clip-path="url(#clip070)" d="M 0 0 M809.968 1348.43 L809.968 1354.22 L766.866 1354.22 L766.866 1348.43 L809.968 1348.43 Z" fill="#000000" fill-rule="evenodd" fill-opacity="1" /><path clip-path="url(#clip070)" d="M 0 0 M838.405 1311.85 Q829.372 1311.85 825.888 1313.91 Q822.404 1315.98 822.404 1320.96 Q822.404 1324.93 824.997 1327.28 Q827.63 1329.59 832.126 1329.59 Q838.324 1329.59 842.051 1325.21 Q845.818 1320.8 845.818 1313.51 L845.818 1311.85 L838.405 1311.85 M853.272 1308.77 L853.272 1334.65 L845.818 1334.65 L845.818 1327.77 Q843.266 1331.9 839.458 1333.88 Q835.65 1335.83 830.141 1335.83 Q823.174 1335.83 819.042 1331.94 Q814.95 1328.01 814.95 1321.45 Q814.95 1313.79 820.054 1309.9 Q825.199 1306.01 835.367 1306.01 L845.818 1306.01 L845.818 1305.28 Q845.818 1300.14 842.415 1297.34 Q839.053 1294.51 832.936 1294.51 Q829.047 1294.51 825.361 1295.44 Q821.675 1296.37 818.272 1298.23 L818.272 1291.35 Q822.364 1289.77 826.212 1289 Q830.06 1288.19 833.706 1288.19 Q843.55 1288.19 848.411 1293.29 Q853.272 1298.4 853.272 1308.77 Z" fill="#000000" fill-rule="evenodd" fill-opacity="1" /><path clip-path="url(#clip070)" d="M 0 0 M898.804 1307.27 L898.804 1334.65 L891.35 1334.65 L891.35 1307.51 Q891.35 1301.07 888.839 1297.87 Q886.327 1294.67 881.304 1294.67 Q875.268 1294.67 871.785 1298.52 Q868.301 1302.37 868.301 1309.01 L868.301 1334.65 L860.807 1334.65 L860.807 1289.28 L868.301 1289.28 L868.301 1296.33 Q870.974 1292.24 874.58 1290.21 Q878.225 1288.19 882.965 1288.19 Q890.783 1288.19 894.794 1293.05 Q898.804 1297.87 898.804 1307.27 Z" fill="#000000" fill-rule="evenodd" fill-opacity="1" /><path clip-path="url(#clip070)" d="M 0 0 M936.477 1296.17 L936.477 1271.62 L943.931 1271.62 L943.931 1334.65 L936.477 1334.65 L936.477 1327.85 Q934.128 1331.9 930.523 1333.88 Q926.958 1335.83 921.935 1335.83 Q913.711 1335.83 908.526 1329.26 Q903.382 1322.7 903.382 1312.01 Q903.382 1301.31 908.526 1294.75 Q913.711 1288.19 921.935 1288.19 Q926.958 1288.19 930.523 1290.17 Q934.128 1292.12 936.477 1296.17 M911.078 1312.01 Q911.078 1320.23 914.441 1324.93 Q917.843 1329.59 923.758 1329.59 Q929.672 1329.59 933.075 1324.93 Q936.477 1320.23 936.477 1312.01 Q936.477 1303.78 933.075 1299.13 Q929.672 1294.43 923.758 1294.43 Q917.843 1294.43 914.441 1299.13 Q911.078 1303.78 911.078 1312.01 Z" fill="#000000" fill-rule="evenodd" fill-opacity="1" /><path clip-path="url(#clip070)" d="M 0 0 M986.223 1348.43 L986.223 1354.22 L943.121 1354.22 L943.121 1348.43 L986.223 1348.43 Z" fill="#000000" fill-rule="evenodd" fill-opacity="1" /><path clip-path="url(#clip070)" d="M 0 0 M1039.65 1278.83 L1039.65 1287.46 Q1035.52 1283.61 1030.82 1281.71 Q1026.16 1279.8 1020.9 1279.8 Q1010.53 1279.8 1005.02 1286.16 Q999.51 1292.48 999.51 1304.47 Q999.51 1316.42 1005.02 1322.78 Q1010.53 1329.1 1020.9 1329.1 Q1026.16 1329.1 1030.82 1327.2 Q1035.52 1325.29 1039.65 1321.45 L1039.65 1329.99 Q1035.36 1332.91 1030.54 1334.37 Q1025.76 1335.83 1020.41 1335.83 Q1006.68 1335.83 998.78 1327.44 Q990.881 1319.02 990.881 1304.47 Q990.881 1289.89 998.78 1281.5 Q1006.68 1273.08 1020.41 1273.08 Q1025.84 1273.08 1030.62 1274.54 Q1035.44 1275.95 1039.65 1278.83 Z" fill="#000000" fill-rule="evenodd" fill-opacity="1" /><path clip-path="url(#clip070)" d="M 0 0 M1065.05 1294.51 Q1059.06 1294.51 1055.57 1299.21 Q1052.09 1303.87 1052.09 1312.01 Q1052.09 1320.15 1055.53 1324.85 Q1059.02 1329.51 1065.05 1329.51 Q1071.01 1329.51 1074.49 1324.81 Q1077.98 1320.11 1077.98 1312.01 Q1077.98 1303.95 1074.49 1299.25 Q1071.01 1294.51 1065.05 1294.51 M1065.05 1288.19 Q1074.78 1288.19 1080.33 1294.51 Q1085.87 1300.83 1085.87 1312.01 Q1085.87 1323.15 1080.33 1329.51 Q1074.78 1335.83 1065.05 1335.83 Q1055.29 1335.83 1049.74 1329.51 Q1044.23 1323.15 1044.23 1312.01 Q1044.23 1300.83 1049.74 1294.51 Q1055.29 1288.19 1065.05 1288.19 Z" fill="#000000" fill-rule="evenodd" fill-opacity="1" /><path clip-path="url(#clip070)" d="M 0 0 M1131.41 1307.27 L1131.41 1334.65 L1123.95 1334.65 L1123.95 1307.51 Q1123.95 1301.07 1121.44 1297.87 Q1118.93 1294.67 1113.91 1294.67 Q1107.87 1294.67 1104.39 1298.52 Q1100.9 1302.37 1100.9 1309.01 L1100.9 1334.65 L1093.41 1334.65 L1093.41 1289.28 L1100.9 1289.28 L1100.9 1296.33 Q1103.58 1292.24 1107.18 1290.21 Q1110.83 1288.19 1115.57 1288.19 Q1123.39 1288.19 1127.4 1293.05 Q1131.41 1297.87 1131.41 1307.27 Z" fill="#000000" fill-rule="evenodd" fill-opacity="1" /><path clip-path="url(#clip070)" d="M 0 0 M1168.15 1290.62 L1168.15 1297.67 Q1164.99 1296.05 1161.59 1295.24 Q1158.18 1294.43 1154.54 1294.43 Q1148.99 1294.43 1146.19 1296.13 Q1143.44 1297.83 1143.44 1301.23 Q1143.44 1303.83 1145.42 1305.32 Q1147.41 1306.78 1153.4 1308.12 L1155.96 1308.69 Q1163.9 1310.39 1167.22 1313.51 Q1170.58 1316.59 1170.58 1322.14 Q1170.58 1328.45 1165.56 1332.14 Q1160.57 1335.83 1151.82 1335.83 Q1148.18 1335.83 1144.21 1335.1 Q1140.28 1334.41 1135.9 1332.99 L1135.9 1325.29 Q1140.04 1327.44 1144.05 1328.54 Q1148.06 1329.59 1151.99 1329.59 Q1157.25 1329.59 1160.09 1327.81 Q1162.92 1325.98 1162.92 1322.7 Q1162.92 1319.66 1160.86 1318.04 Q1158.83 1316.42 1151.9 1314.92 L1149.31 1314.32 Q1142.38 1312.86 1139.31 1309.86 Q1136.23 1306.82 1136.23 1301.56 Q1136.23 1295.16 1140.76 1291.67 Q1145.3 1288.19 1153.65 1288.19 Q1157.78 1288.19 1161.42 1288.8 Q1165.07 1289.4 1168.15 1290.62 Z" fill="#000000" fill-rule="evenodd" fill-opacity="1" /><path clip-path="url(#clip070)" d="M 0 0 M1177.63 1316.75 L1177.63 1289.28 L1185.08 1289.28 L1185.08 1316.46 Q1185.08 1322.9 1187.59 1326.15 Q1190.1 1329.35 1195.13 1329.35 Q1201.16 1329.35 1204.65 1325.5 Q1208.17 1321.65 1208.17 1315.01 L1208.17 1289.28 L1215.63 1289.28 L1215.63 1334.65 L1208.17 1334.65 L1208.17 1327.69 Q1205.46 1331.82 1201.85 1333.84 Q1198.29 1335.83 1193.55 1335.83 Q1185.73 1335.83 1181.68 1330.97 Q1177.63 1326.11 1177.63 1316.75 M1196.38 1288.19 L1196.38 1288.19 Z" fill="#000000" fill-rule="evenodd" fill-opacity="1" /><path clip-path="url(#clip070)" d="M 0 0 M1223.44 1271.62 L1230.9 1271.62 L1230.9 1334.65 L1223.44 1334.65 L1223.44 1271.62 Z" fill="#000000" fill-rule="evenodd" fill-opacity="1" /><path clip-path="url(#clip070)" d="M 0 0 M1246.09 1276.4 L1246.09 1289.28 L1261.44 1289.28 L1261.44 1295.08 L1246.09 1295.08 L1246.09 1319.7 Q1246.09 1325.25 1247.59 1326.83 Q1249.13 1328.41 1253.78 1328.41 L1261.44 1328.41 L1261.44 1334.65 L1253.78 1334.65 Q1245.16 1334.65 1241.88 1331.45 Q1238.59 1328.21 1238.59 1319.7 L1238.59 1295.08 L1233.13 1295.08 L1233.13 1289.28 L1238.59 1289.28 L1238.59 1276.4 L1246.09 1276.4 Z" fill="#000000" fill-rule="evenodd" fill-opacity="1" /><path clip-path="url(#clip070)" d="M 0 0 M1289.88 1311.85 Q1280.84 1311.85 1277.36 1313.91 Q1273.88 1315.98 1273.88 1320.96 Q1273.88 1324.93 1276.47 1327.28 Q1279.1 1329.59 1283.6 1329.59 Q1289.8 1329.59 1293.52 1325.21 Q1297.29 1320.8 1297.29 1313.51 L1297.29 1311.85 L1289.88 1311.85 M1304.75 1308.77 L1304.75 1334.65 L1297.29 1334.65 L1297.29 1327.77 Q1294.74 1331.9 1290.93 1333.88 Q1287.12 1335.83 1281.61 1335.83 Q1274.65 1335.83 1270.52 1331.94 Q1266.42 1328.01 1266.42 1321.45 Q1266.42 1313.79 1271.53 1309.9 Q1276.67 1306.01 1286.84 1306.01 L1297.29 1306.01 L1297.29 1305.28 Q1297.29 1300.14 1293.89 1297.34 Q1290.53 1294.51 1284.41 1294.51 Q1280.52 1294.51 1276.83 1295.44 Q1273.15 1296.37 1269.75 1298.23 L1269.75 1291.35 Q1273.84 1289.77 1277.69 1289 Q1281.53 1288.19 1285.18 1288.19 Q1295.02 1288.19 1299.88 1293.29 Q1304.75 1298.4 1304.75 1308.77 Z" fill="#000000" fill-rule="evenodd" fill-opacity="1" /><path clip-path="url(#clip070)" d="M 0 0 M1350.28 1307.27 L1350.28 1334.65 L1342.82 1334.65 L1342.82 1307.51 Q1342.82 1301.07 1340.31 1297.87 Q1337.8 1294.67 1332.78 1294.67 Q1326.74 1294.67 1323.26 1298.52 Q1319.77 1302.37 1319.77 1309.01 L1319.77 1334.65 L1312.28 1334.65 L1312.28 1289.28 L1319.77 1289.28 L1319.77 1296.33 Q1322.45 1292.24 1326.05 1290.21 Q1329.7 1288.19 1334.44 1288.19 Q1342.26 1288.19 1346.27 1293.05 Q1350.28 1297.87 1350.28 1307.27 Z" fill="#000000" fill-rule="evenodd" fill-opacity="1" /><path clip-path="url(#clip070)" d="M 0 0 M1365.47 1276.4 L1365.47 1289.28 L1380.82 1289.28 L1380.82 1295.08 L1365.47 1295.08 L1365.47 1319.7 Q1365.47 1325.25 1366.97 1326.83 Q1368.51 1328.41 1373.16 1328.41 L1380.82 1328.41 L1380.82 1334.65 L1373.16 1334.65 Q1364.54 1334.65 1361.26 1331.45 Q1357.97 1328.21 1357.97 1319.7 L1357.97 1295.08 L1352.51 1295.08 L1352.51 1289.28 L1357.97 1289.28 L1357.97 1276.4 L1365.47 1276.4 Z" fill="#000000" fill-rule="evenodd" fill-opacity="1" /><path clip-path="url(#clip070)" d="M 0 0 M1423.11 1348.43 L1423.11 1354.22 L1380.01 1354.22 L1380.01 1348.43 L1423.11 1348.43 Z" fill="#000000" fill-rule="evenodd" fill-opacity="1" /><path clip-path="url(#clip070)" d="M 0 0 M1459.94 1306.3 Q1462.57 1307.19 1465.04 1310.1 Q1467.55 1313.02 1470.06 1318.12 L1478.37 1334.65 L1469.58 1334.65 L1461.84 1319.14 Q1458.84 1313.06 1456.01 1311.08 Q1453.21 1309.09 1448.35 1309.09 L1439.44 1309.09 L1439.44 1334.65 L1431.25 1334.65 L1431.25 1274.17 L1449.73 1274.17 Q1460.1 1274.17 1465.2 1278.51 Q1470.31 1282.84 1470.31 1291.59 Q1470.31 1297.3 1467.63 1301.07 Q1465 1304.84 1459.94 1306.3 M1439.44 1280.9 L1439.44 1302.37 L1449.73 1302.37 Q1455.64 1302.37 1458.64 1299.65 Q1461.68 1296.9 1461.68 1291.59 Q1461.68 1286.28 1458.64 1283.61 Q1455.64 1280.9 1449.73 1280.9 L1439.44 1280.9 Z" fill="#000000" fill-rule="evenodd" fill-opacity="1" /><path clip-path="url(#clip070)" d="M 0 0 M1521.27 1310.1 L1521.27 1313.75 L1487 1313.75 Q1487.48 1321.45 1491.61 1325.5 Q1495.79 1329.51 1503.2 1329.51 Q1507.49 1329.51 1511.5 1328.45 Q1515.55 1327.4 1519.52 1325.29 L1519.52 1332.34 Q1515.51 1334.04 1511.3 1334.94 Q1507.09 1335.83 1502.75 1335.83 Q1491.9 1335.83 1485.54 1329.51 Q1479.22 1323.19 1479.22 1312.41 Q1479.22 1301.27 1485.21 1294.75 Q1491.25 1288.19 1501.46 1288.19 Q1510.61 1288.19 1515.92 1294.1 Q1521.27 1299.98 1521.27 1310.1 M1513.81 1307.92 Q1513.73 1301.8 1510.37 1298.15 Q1507.05 1294.51 1501.54 1294.51 Q1495.3 1294.51 1491.53 1298.03 Q1487.81 1301.56 1487.24 1307.96 L1513.81 1307.92 Z" fill="#000000" fill-rule="evenodd" fill-opacity="1" /><path clip-path="url(#clip070)" d="M 0 0 M1533.54 1312.01 Q1533.54 1320.23 1536.9 1324.93 Q1540.31 1329.59 1546.22 1329.59 Q1552.13 1329.59 1555.54 1324.93 Q1558.94 1320.23 1558.94 1312.01 Q1558.94 1303.78 1555.54 1299.13 Q1552.13 1294.43 1546.22 1294.43 Q1540.31 1294.43 1536.9 1299.13 Q1533.54 1303.78 1533.54 1312.01 M1558.94 1327.85 Q1556.59 1331.9 1552.98 1333.88 Q1549.42 1335.83 1544.4 1335.83 Q1536.17 1335.83 1530.99 1329.26 Q1525.84 1322.7 1525.84 1312.01 Q1525.84 1301.31 1530.99 1294.75 Q1536.17 1288.19 1544.4 1288.19 Q1549.42 1288.19 1552.98 1290.17 Q1556.59 1292.12 1558.94 1296.17 L1558.94 1289.28 L1566.39 1289.28 L1566.39 1351.91 L1558.94 1351.91 L1558.94 1327.85 Z" fill="#000000" fill-rule="evenodd" fill-opacity="1" /><path clip-path="url(#clip070)" d="M 0 0 M1573.44 1316.75 L1573.44 1289.28 L1580.9 1289.28 L1580.9 1316.46 Q1580.9 1322.9 1583.41 1326.15 Q1585.92 1329.35 1590.94 1329.35 Q1596.98 1329.35 1600.46 1325.5 Q1603.99 1321.65 1603.99 1315.01 L1603.99 1289.28 L1611.44 1289.28 L1611.44 1334.65 L1603.99 1334.65 L1603.99 1327.69 Q1601.27 1331.82 1597.67 1333.84 Q1594.1 1335.83 1589.36 1335.83 Q1581.54 1335.83 1577.49 1330.97 Q1573.44 1326.11 1573.44 1316.75 M1592.2 1288.19 L1592.2 1288.19 Z" fill="#000000" fill-rule="evenodd" fill-opacity="1" /><path clip-path="url(#clip070)" d="M 0 0 M1658.07 1310.1 L1658.07 1313.75 L1623.79 1313.75 Q1624.28 1321.45 1628.41 1325.5 Q1632.58 1329.51 1640 1329.51 Q1644.29 1329.51 1648.3 1328.45 Q1652.35 1327.4 1656.32 1325.29 L1656.32 1332.34 Q1652.31 1334.04 1648.1 1334.94 Q1643.89 1335.83 1639.55 1335.83 Q1628.7 1335.83 1622.34 1329.51 Q1616.02 1323.19 1616.02 1312.41 Q1616.02 1301.27 1622.01 1294.75 Q1628.05 1288.19 1638.26 1288.19 Q1647.41 1288.19 1652.72 1294.1 Q1658.07 1299.98 1658.07 1310.1 M1650.61 1307.92 Q1650.53 1301.8 1647.17 1298.15 Q1643.85 1294.51 1638.34 1294.51 Q1632.1 1294.51 1628.33 1298.03 Q1624.6 1301.56 1624.04 1307.96 L1650.61 1307.92 Z" fill="#000000" fill-rule="evenodd" fill-opacity="1" /><path clip-path="url(#clip070)" d="M 0 0 M1694.81 1290.62 L1694.81 1297.67 Q1691.65 1296.05 1688.24 1295.24 Q1684.84 1294.43 1681.2 1294.43 Q1675.65 1294.43 1672.85 1296.13 Q1670.1 1297.83 1670.1 1301.23 Q1670.1 1303.83 1672.08 1305.32 Q1674.07 1306.78 1680.06 1308.12 L1682.61 1308.69 Q1690.55 1310.39 1693.88 1313.51 Q1697.24 1316.59 1697.24 1322.14 Q1697.24 1328.45 1692.21 1332.14 Q1687.23 1335.83 1678.48 1335.83 Q1674.84 1335.83 1670.87 1335.1 Q1666.94 1334.41 1662.56 1332.99 L1662.56 1325.29 Q1666.69 1327.44 1670.7 1328.54 Q1674.71 1329.59 1678.64 1329.59 Q1683.91 1329.59 1686.75 1327.81 Q1689.58 1325.98 1689.58 1322.7 Q1689.58 1319.66 1687.52 1318.04 Q1685.49 1316.42 1678.56 1314.92 L1675.97 1314.32 Q1669.04 1312.86 1665.96 1309.86 Q1662.89 1306.82 1662.89 1301.56 Q1662.89 1295.16 1667.42 1291.67 Q1671.96 1288.19 1680.3 1288.19 Q1684.44 1288.19 1688.08 1288.8 Q1691.73 1289.4 1694.81 1290.62 Z" fill="#000000" fill-rule="evenodd" fill-opacity="1" /><path clip-path="url(#clip070)" d="M 0 0 M1712.43 1276.4 L1712.43 1289.28 L1727.78 1289.28 L1727.78 1295.08 L1712.43 1295.08 L1712.43 1319.7 Q1712.43 1325.25 1713.93 1326.83 Q1715.47 1328.41 1720.12 1328.41 L1727.78 1328.41 L1727.78 1334.65 L1720.12 1334.65 Q1711.5 1334.65 1708.22 1331.45 Q1704.93 1328.21 1704.93 1319.7 L1704.93 1295.08 L1699.47 1295.08 L1699.47 1289.28 L1704.93 1289.28 L1704.93 1276.4 L1712.43 1276.4 Z" fill="#000000" fill-rule="evenodd" fill-opacity="1" /><path clip-path="url(#clip070)" d="M 0 0 M1764.52 1290.62 L1764.52 1297.67 Q1761.36 1296.05 1757.96 1295.24 Q1754.56 1294.43 1750.91 1294.43 Q1745.36 1294.43 1742.57 1296.13 Q1739.81 1297.83 1739.81 1301.23 Q1739.81 1303.83 1741.8 1305.32 Q1743.78 1306.78 1749.78 1308.12 L1752.33 1308.69 Q1760.27 1310.39 1763.59 1313.51 Q1766.95 1316.59 1766.95 1322.14 Q1766.95 1328.45 1761.93 1332.14 Q1756.95 1335.83 1748.2 1335.83 Q1744.55 1335.83 1740.58 1335.1 Q1736.65 1334.41 1732.28 1332.99 L1732.28 1325.29 Q1736.41 1327.44 1740.42 1328.54 Q1744.43 1329.59 1748.36 1329.59 Q1753.63 1329.59 1756.46 1327.81 Q1759.3 1325.98 1759.3 1322.7 Q1759.3 1319.66 1757.23 1318.04 Q1755.21 1316.42 1748.28 1314.92 L1745.69 1314.32 Q1738.76 1312.86 1735.68 1309.86 Q1732.6 1306.82 1732.6 1301.56 Q1732.6 1295.16 1737.14 1291.67 Q1741.68 1288.19 1750.02 1288.19 Q1754.15 1288.19 1757.8 1288.8 Q1761.44 1289.4 1764.52 1290.62 Z" fill="#000000" fill-rule="evenodd" fill-opacity="1" /><path clip-path="url(#clip070)" d="M 0 0 M1893.48 1455.78 L1893.48 1502.81 L1903.36 1502.81 Q1915.88 1502.81 1921.67 1497.14 Q1927.51 1491.47 1927.51 1479.24 Q1927.51 1467.08 1921.67 1461.45 Q1915.88 1455.78 1903.36 1455.78 L1893.48 1455.78 M1885.3 1449.06 L1902.11 1449.06 Q1919.69 1449.06 1927.91 1456.39 Q1936.14 1463.68 1936.14 1479.24 Q1936.14 1494.87 1927.87 1502.21 Q1919.61 1509.54 1902.11 1509.54 L1885.3 1509.54 L1885.3 1449.06 Z" fill="#000000" fill-rule="evenodd" fill-opacity="1" /><path clip-path="url(#clip070)" d="M 0 0 M1982.76 1484.99 L1982.76 1488.63 L1948.49 1488.63 Q1948.98 1496.33 1953.11 1500.38 Q1957.28 1504.39 1964.69 1504.39 Q1968.99 1504.39 1973 1503.34 Q1977.05 1502.29 1981.02 1500.18 L1981.02 1507.23 Q1977.01 1508.93 1972.8 1509.82 Q1968.58 1510.71 1964.25 1510.71 Q1953.39 1510.71 1947.03 1504.39 Q1940.71 1498.07 1940.71 1487.3 Q1940.71 1476.16 1946.71 1469.64 Q1952.74 1463.07 1962.95 1463.07 Q1972.11 1463.07 1977.41 1468.99 Q1982.76 1474.86 1982.76 1484.99 M1975.31 1482.8 Q1975.23 1476.68 1971.86 1473.04 Q1968.54 1469.39 1963.03 1469.39 Q1956.79 1469.39 1953.03 1472.92 Q1949.3 1476.44 1948.73 1482.84 L1975.31 1482.8 Z" fill="#000000" fill-rule="evenodd" fill-opacity="1" /><path clip-path="url(#clip070)" d="M 0 0 M2019.5 1465.5 L2019.5 1472.55 Q2016.34 1470.93 2012.94 1470.12 Q2009.54 1469.31 2005.89 1469.31 Q2000.34 1469.31 1997.55 1471.01 Q1994.79 1472.71 1994.79 1476.12 Q1994.79 1478.71 1996.78 1480.21 Q1998.76 1481.67 2004.76 1483 L2007.31 1483.57 Q2015.25 1485.27 2018.57 1488.39 Q2021.93 1491.47 2021.93 1497.02 Q2021.93 1503.34 2016.91 1507.03 Q2011.93 1510.71 2003.18 1510.71 Q1999.53 1510.71 1995.56 1509.98 Q1991.63 1509.29 1987.26 1507.88 L1987.26 1500.18 Q1991.39 1502.33 1995.4 1503.42 Q1999.41 1504.47 2003.34 1504.47 Q2008.61 1504.47 2011.44 1502.69 Q2014.28 1500.87 2014.28 1497.59 Q2014.28 1494.55 2012.21 1492.93 Q2010.19 1491.31 2003.26 1489.81 L2000.67 1489.2 Q1993.74 1487.74 1990.66 1484.75 Q1987.58 1481.71 1987.58 1476.44 Q1987.58 1470.04 1992.12 1466.56 Q1996.66 1463.07 2005 1463.07 Q2009.13 1463.07 2012.78 1463.68 Q2016.42 1464.29 2019.5 1465.5 Z" fill="#000000" fill-rule="evenodd" fill-opacity="1" /><path clip-path="url(#clip070)" d="M 0 0 M2029.75 1464.17 L2037.21 1464.17 L2037.21 1509.54 L2029.75 1509.54 L2029.75 1464.17 M2029.75 1446.51 L2037.21 1446.51 L2037.21 1455.94 L2029.75 1455.94 L2029.75 1446.51 Z" fill="#000000" fill-rule="evenodd" fill-opacity="1" /><path clip-path="url(#clip070)" d="M 0 0 M2074.88 1486.33 Q2074.88 1478.22 2071.52 1473.77 Q2068.19 1469.31 2062.16 1469.31 Q2056.16 1469.31 2052.8 1473.77 Q2049.48 1478.22 2049.48 1486.33 Q2049.48 1494.39 2052.8 1498.84 Q2056.16 1503.3 2062.16 1503.3 Q2068.19 1503.3 2071.52 1498.84 Q2074.88 1494.39 2074.88 1486.33 M2082.33 1503.91 Q2082.33 1515.49 2077.19 1521.12 Q2072.04 1526.79 2061.43 1526.79 Q2057.5 1526.79 2054.02 1526.19 Q2050.53 1525.62 2047.25 1524.4 L2047.25 1517.15 Q2050.53 1518.94 2053.73 1519.79 Q2056.93 1520.64 2060.25 1520.64 Q2067.59 1520.64 2071.23 1516.79 Q2074.88 1512.98 2074.88 1505.24 L2074.88 1501.56 Q2072.57 1505.57 2068.96 1507.55 Q2065.36 1509.54 2060.34 1509.54 Q2051.99 1509.54 2046.89 1503.18 Q2041.78 1496.82 2041.78 1486.33 Q2041.78 1475.79 2046.89 1469.43 Q2051.99 1463.07 2060.34 1463.07 Q2065.36 1463.07 2068.96 1465.06 Q2072.57 1467.04 2074.88 1471.05 L2074.88 1464.17 L2082.33 1464.17 L2082.33 1503.91 Z" fill="#000000" fill-rule="evenodd" fill-opacity="1" /><path clip-path="url(#clip070)" d="M 0 0 M2127.86 1482.15 L2127.86 1509.54 L2120.41 1509.54 L2120.41 1482.4 Q2120.41 1475.96 2117.9 1472.76 Q2115.39 1469.56 2110.36 1469.56 Q2104.33 1469.56 2100.84 1473.4 Q2097.36 1477.25 2097.36 1483.9 L2097.36 1509.54 L2089.87 1509.54 L2089.87 1464.17 L2097.36 1464.17 L2097.36 1471.22 Q2100.03 1467.12 2103.64 1465.1 Q2107.29 1463.07 2112.03 1463.07 Q2119.84 1463.07 2123.85 1467.93 Q2127.86 1472.76 2127.86 1482.15 Z" fill="#000000" fill-rule="evenodd" fill-opacity="1" /><path clip-path="url(#clip070)" d="M 0 0 M2170.16 1523.31 L2170.16 1529.1 L2127.05 1529.1 L2127.05 1523.31 L2170.16 1523.31 Z" fill="#000000" fill-rule="evenodd" fill-opacity="1" /><path clip-path="url(#clip070)" d="M 0 0 M2206.98 1481.18 Q2209.61 1482.07 2212.08 1484.99 Q2214.59 1487.91 2217.11 1493.01 L2225.41 1509.54 L2216.62 1509.54 L2208.88 1494.02 Q2205.88 1487.95 2203.05 1485.96 Q2200.25 1483.98 2195.39 1483.98 L2186.48 1483.98 L2186.48 1509.54 L2178.3 1509.54 L2178.3 1449.06 L2196.77 1449.06 Q2207.14 1449.06 2212.24 1453.39 Q2217.35 1457.73 2217.35 1466.48 Q2217.35 1472.19 2214.68 1475.96 Q2212.04 1479.72 2206.98 1481.18 M2186.48 1455.78 L2186.48 1477.25 L2196.77 1477.25 Q2202.68 1477.25 2205.68 1474.54 Q2208.72 1471.78 2208.72 1466.48 Q2208.72 1461.17 2205.68 1458.5 Q2202.68 1455.78 2196.77 1455.78 L2186.48 1455.78 Z" fill="#000000" fill-rule="evenodd" fill-opacity="1" /><path clip-path="url(#clip070)" d="M 0 0 M2268.31 1484.99 L2268.31 1488.63 L2234.04 1488.63 Q2234.52 1496.33 2238.66 1500.38 Q2242.83 1504.39 2250.24 1504.39 Q2254.54 1504.39 2258.55 1503.34 Q2262.6 1502.29 2266.57 1500.18 L2266.57 1507.23 Q2262.56 1508.93 2258.34 1509.82 Q2254.13 1510.71 2249.8 1510.71 Q2238.94 1510.71 2232.58 1504.39 Q2226.26 1498.07 2226.26 1487.3 Q2226.26 1476.16 2232.26 1469.64 Q2238.29 1463.07 2248.5 1463.07 Q2257.66 1463.07 2262.96 1468.99 Q2268.31 1474.86 2268.31 1484.99 M2260.86 1482.8 Q2260.77 1476.68 2257.41 1473.04 Q2254.09 1469.39 2248.58 1469.39 Q2242.34 1469.39 2238.58 1472.92 Q2234.85 1476.44 2234.28 1482.84 L2260.86 1482.8 Z" fill="#000000" fill-rule="evenodd" fill-opacity="1" /><path clip-path="url(#clip070)" d="M 0 0 M2296.75 1486.73 Q2287.71 1486.73 2284.23 1488.8 Q2280.75 1490.86 2280.75 1495.85 Q2280.75 1499.82 2283.34 1502.16 Q2285.97 1504.47 2290.47 1504.47 Q2296.67 1504.47 2300.39 1500.1 Q2304.16 1495.68 2304.16 1488.39 L2304.16 1486.73 L2296.75 1486.73 M2311.61 1483.65 L2311.61 1509.54 L2304.16 1509.54 L2304.16 1502.65 Q2301.61 1506.78 2297.8 1508.77 Q2293.99 1510.71 2288.48 1510.71 Q2281.52 1510.71 2277.38 1506.82 Q2273.29 1502.89 2273.29 1496.33 Q2273.29 1488.68 2278.4 1484.79 Q2283.54 1480.9 2293.71 1480.9 L2304.16 1480.9 L2304.16 1480.17 Q2304.16 1475.02 2300.76 1472.23 Q2297.39 1469.39 2291.28 1469.39 Q2287.39 1469.39 2283.7 1470.32 Q2280.02 1471.26 2276.61 1473.12 L2276.61 1466.23 Q2280.7 1464.65 2284.55 1463.88 Q2288.4 1463.07 2292.05 1463.07 Q2301.89 1463.07 2306.75 1468.18 Q2311.61 1473.28 2311.61 1483.65 Z" fill="#000000" fill-rule="evenodd" fill-opacity="1" /><path clip-path="url(#clip070)" d="M 0 0 M2348.36 1465.5 L2348.36 1472.55 Q2345.2 1470.93 2341.79 1470.12 Q2338.39 1469.31 2334.74 1469.31 Q2329.19 1469.31 2326.4 1471.01 Q2323.64 1472.71 2323.64 1476.12 Q2323.64 1478.71 2325.63 1480.21 Q2327.61 1481.67 2333.61 1483 L2336.16 1483.57 Q2344.1 1485.27 2347.42 1488.39 Q2350.79 1491.47 2350.79 1497.02 Q2350.79 1503.34 2345.76 1507.03 Q2340.78 1510.71 2332.03 1510.71 Q2328.38 1510.71 2324.41 1509.98 Q2320.48 1509.29 2316.11 1507.88 L2316.11 1500.18 Q2320.24 1502.33 2324.25 1503.42 Q2328.26 1504.47 2332.19 1504.47 Q2337.46 1504.47 2340.29 1502.69 Q2343.13 1500.87 2343.13 1497.59 Q2343.13 1494.55 2341.06 1492.93 Q2339.04 1491.31 2332.11 1489.81 L2329.52 1489.2 Q2322.59 1487.74 2319.51 1484.75 Q2316.43 1481.71 2316.43 1476.44 Q2316.43 1470.04 2320.97 1466.56 Q2325.51 1463.07 2333.85 1463.07 Q2337.98 1463.07 2341.63 1463.68 Q2345.28 1464.29 2348.36 1465.5 Z" fill="#000000" fill-rule="evenodd" fill-opacity="1" /><path clip-path="url(#clip070)" d="M 0 0 M2376.18 1469.39 Q2370.19 1469.39 2366.71 1474.09 Q2363.22 1478.75 2363.22 1486.89 Q2363.22 1495.04 2366.67 1499.73 Q2370.15 1504.39 2376.18 1504.39 Q2382.14 1504.39 2385.62 1499.69 Q2389.11 1494.99 2389.11 1486.89 Q2389.11 1478.83 2385.62 1474.13 Q2382.14 1469.39 2376.18 1469.39 M2376.18 1463.07 Q2385.91 1463.07 2391.46 1469.39 Q2397.01 1475.71 2397.01 1486.89 Q2397.01 1498.03 2391.46 1504.39 Q2385.91 1510.71 2376.18 1510.71 Q2366.42 1510.71 2360.87 1504.39 Q2355.36 1498.03 2355.36 1486.89 Q2355.36 1475.71 2360.87 1469.39 Q2366.42 1463.07 2376.18 1463.07 Z" fill="#000000" fill-rule="evenodd" fill-opacity="1" /><path clip-path="url(#clip070)" d="M 0 0 M2442.54 1482.15 L2442.54 1509.54 L2435.08 1509.54 L2435.08 1482.4 Q2435.08 1475.96 2432.57 1472.76 Q2430.06 1469.56 2425.04 1469.56 Q2419 1469.56 2415.52 1473.4 Q2412.04 1477.25 2412.04 1483.9 L2412.04 1509.54 L2404.54 1509.54 L2404.54 1464.17 L2412.04 1464.17 L2412.04 1471.22 Q2414.71 1467.12 2418.31 1465.1 Q2421.96 1463.07 2426.7 1463.07 Q2434.52 1463.07 2438.53 1467.93 Q2442.54 1472.76 2442.54 1482.15 Z" fill="#000000" fill-rule="evenodd" fill-opacity="1" /><path clip-path="url(#clip070)" d="M 0 0 M2450.36 1464.17 L2457.81 1464.17 L2457.81 1509.54 L2450.36 1509.54 L2450.36 1464.17 M2450.36 1446.51 L2457.81 1446.51 L2457.81 1455.94 L2450.36 1455.94 L2450.36 1446.51 Z" fill="#000000" fill-rule="evenodd" fill-opacity="1" /><path clip-path="url(#clip070)" d="M 0 0 M2503.34 1482.15 L2503.34 1509.54 L2495.89 1509.54 L2495.89 1482.4 Q2495.89 1475.96 2493.38 1472.76 Q2490.87 1469.56 2485.84 1469.56 Q2479.81 1469.56 2476.32 1473.4 Q2472.84 1477.25 2472.84 1483.9 L2472.84 1509.54 L2465.35 1509.54 L2465.35 1464.17 L2472.84 1464.17 L2472.84 1471.22 Q2475.51 1467.12 2479.12 1465.1 Q2482.76 1463.07 2487.5 1463.07 Q2495.32 1463.07 2499.33 1467.93 Q2503.34 1472.76 2503.34 1482.15 Z" fill="#000000" fill-rule="evenodd" fill-opacity="1" /><path clip-path="url(#clip070)" d="M 0 0 M2541.02 1486.33 Q2541.02 1478.22 2537.65 1473.77 Q2534.33 1469.31 2528.3 1469.31 Q2522.3 1469.31 2518.94 1473.77 Q2515.62 1478.22 2515.62 1486.33 Q2515.62 1494.39 2518.94 1498.84 Q2522.3 1503.3 2528.3 1503.3 Q2534.33 1503.3 2537.65 1498.84 Q2541.02 1494.39 2541.02 1486.33 M2548.47 1503.91 Q2548.47 1515.49 2543.33 1521.12 Q2538.18 1526.79 2527.57 1526.79 Q2523.64 1526.79 2520.15 1526.19 Q2516.67 1525.62 2513.39 1524.4 L2513.39 1517.15 Q2516.67 1518.94 2519.87 1519.79 Q2523.07 1520.64 2526.39 1520.64 Q2533.72 1520.64 2537.37 1516.79 Q2541.02 1512.98 2541.02 1505.24 L2541.02 1501.56 Q2538.71 1505.57 2535.1 1507.55 Q2531.5 1509.54 2526.47 1509.54 Q2518.13 1509.54 2513.02 1503.18 Q2507.92 1496.82 2507.92 1486.33 Q2507.92 1475.79 2513.02 1469.43 Q2518.13 1463.07 2526.47 1463.07 Q2531.5 1463.07 2535.1 1465.06 Q2538.71 1467.04 2541.02 1471.05 L2541.02 1464.17 L2548.47 1464.17 L2548.47 1503.91 Z" fill="#000000" fill-rule="evenodd" fill-opacity="1" /><path clip-path="url(#clip070)" d="M 0 0 M-39.194 922.273 L-39.194 930.902 Q-43.3259 927.053 -48.0249 925.149 Q-52.6835 923.245 -57.9497 923.245 Q-68.32 923.245 -73.8292 929.605 Q-79.3384 935.925 -79.3384 947.915 Q-79.3384 959.866 -73.8292 966.225 Q-68.32 972.545 -57.9497 972.545 Q-52.6835 972.545 -48.0249 970.641 Q-43.3259 968.737 -39.194 964.889 L-39.194 973.436 Q-43.4879 976.353 -48.3085 977.811 Q-53.0886 979.269 -58.4358 979.269 Q-72.1683 979.269 -80.0676 970.884 Q-87.9669 962.458 -87.9669 947.915 Q-87.9669 933.332 -80.0676 924.947 Q-72.1683 916.521 -58.4358 916.521 Q-53.0075 916.521 -48.2275 917.979 Q-43.4069 919.397 -39.194 922.273 Z" fill="#000000" fill-rule="evenodd" fill-opacity="1" /><path clip-path="url(#clip070)" d="M 0 0 M-13.7948 937.95 Q-19.7901 937.95 -23.2739 942.649 Q-26.7577 947.308 -26.7577 955.45 Q-26.7577 963.592 -23.3144 968.291 Q-19.8306 972.95 -13.7948 972.95 Q-7.83997 972.95 -4.35619 968.251 Q-0.87241 963.552 -0.87241 955.45 Q-0.87241 947.389 -4.35619 942.69 Q-7.83997 937.95 -13.7948 937.95 M-13.7948 931.631 Q-4.07262 931.631 1.47711 937.95 Q7.02685 944.27 7.02685 955.45 Q7.02685 966.59 1.47711 972.95 Q-4.07262 979.269 -13.7948 979.269 Q-23.5575 979.269 -29.1072 972.95 Q-34.6164 966.59 -34.6164 955.45 Q-34.6164 944.27 -29.1072 937.95 Q-23.5575 931.631 -13.7948 931.631 Z" fill="#000000" fill-rule="evenodd" fill-opacity="1" /><path clip-path="url(#clip070)" d="M 0 0 M14.8451 915.063 L22.2988 915.063 L22.2988 978.095 L14.8451 978.095 L14.8451 915.063 Z" fill="#000000" fill-rule="evenodd" fill-opacity="1" /><path clip-path="url(#clip070)" d="M 0 0 M30.117 915.063 L37.5707 915.063 L37.5707 978.095 L30.117 978.095 L30.117 915.063 Z" fill="#000000" fill-rule="evenodd" fill-opacity="1" /><path clip-path="url(#clip070)" d="M 0 0 M66.008 955.288 Q56.9745 955.288 53.4907 957.354 Q50.0069 959.42 50.0069 964.403 Q50.0069 968.372 52.5995 970.722 Q55.2326 973.031 59.7291 973.031 Q65.927 973.031 69.6538 968.656 Q73.4212 964.24 73.4212 956.949 L73.4212 955.288 L66.008 955.288 M80.8748 952.209 L80.8748 978.095 L73.4212 978.095 L73.4212 971.208 Q70.8691 975.34 67.0613 977.325 Q63.2534 979.269 57.7442 979.269 Q50.7766 979.269 46.6447 975.38 Q42.5533 971.451 42.5533 964.889 Q42.5533 957.232 47.6574 953.344 Q52.8021 949.455 62.9698 949.455 L73.4212 949.455 L73.4212 948.726 Q73.4212 943.581 70.0184 940.786 Q66.6562 937.95 60.5393 937.95 Q56.6504 937.95 52.9641 938.882 Q49.2778 939.814 45.875 941.677 L45.875 934.79 Q49.9664 933.211 53.8148 932.441 Q57.6632 931.631 61.309 931.631 Q71.1527 931.631 76.0138 936.735 Q80.8748 941.839 80.8748 952.209 Z" fill="#000000" fill-rule="evenodd" fill-opacity="1" /><path clip-path="url(#clip070)" d="M 0 0 M121.262 955.45 Q121.262 947.227 117.86 942.568 Q114.497 937.869 108.583 937.869 Q102.669 937.869 99.2659 942.568 Q95.9037 947.227 95.9037 955.45 Q95.9037 963.673 99.2659 968.372 Q102.669 973.031 108.583 973.031 Q114.497 973.031 117.86 968.372 Q121.262 963.673 121.262 955.45 M95.9037 939.611 Q98.2532 935.56 101.818 933.616 Q105.423 931.631 110.406 931.631 Q118.67 931.631 123.814 938.193 Q129 944.756 129 955.45 Q129 966.144 123.814 972.707 Q118.67 979.269 110.406 979.269 Q105.423 979.269 101.818 977.325 Q98.2532 975.34 95.9037 971.289 L95.9037 978.095 L88.4095 978.095 L88.4095 915.063 L95.9037 915.063 L95.9037 939.611 Z" fill="#000000" fill-rule="evenodd" fill-opacity="1" /><path clip-path="url(#clip070)" d="M 0 0 M154.399 937.95 Q148.403 937.95 144.92 942.649 Q141.436 947.308 141.436 955.45 Q141.436 963.592 144.879 968.291 Q148.363 972.95 154.399 972.95 Q160.354 972.95 163.837 968.251 Q167.321 963.552 167.321 955.45 Q167.321 947.389 163.837 942.69 Q160.354 937.95 154.399 937.95 M154.399 931.631 Q164.121 931.631 169.671 937.95 Q175.22 944.27 175.22 955.45 Q175.22 966.59 169.671 972.95 Q164.121 979.269 154.399 979.269 Q144.636 979.269 139.086 972.95 Q133.577 966.59 133.577 955.45 Q133.577 944.27 139.086 937.95 Q144.636 931.631 154.399 931.631 Z" fill="#000000" fill-rule="evenodd" fill-opacity="1" /><path clip-path="url(#clip070)" d="M 0 0 M209.329 939.692 Q208.073 938.963 206.574 938.639 Q205.116 938.274 203.334 938.274 Q197.014 938.274 193.612 942.406 Q190.249 946.498 190.249 954.194 L190.249 978.095 L182.755 978.095 L182.755 932.724 L190.249 932.724 L190.249 939.773 Q192.599 935.641 196.366 933.656 Q200.133 931.631 205.521 931.631 Q206.291 931.631 207.223 931.752 Q208.154 931.833 209.289 932.036 L209.329 939.692 Z" fill="#000000" fill-rule="evenodd" fill-opacity="1" /><path clip-path="url(#clip070)" d="M 0 0 M237.766 955.288 Q228.733 955.288 225.249 957.354 Q221.765 959.42 221.765 964.403 Q221.765 968.372 224.358 970.722 Q226.991 973.031 231.487 973.031 Q237.685 973.031 241.412 968.656 Q245.18 964.24 245.18 956.949 L245.18 955.288 L237.766 955.288 M252.633 952.209 L252.633 978.095 L245.18 978.095 L245.18 971.208 Q242.627 975.34 238.82 977.325 Q235.012 979.269 229.503 979.269 Q222.535 979.269 218.403 975.38 Q214.312 971.451 214.312 964.889 Q214.312 957.232 219.416 953.344 Q224.56 949.455 234.728 949.455 L245.18 949.455 L245.18 948.726 Q245.18 943.581 241.777 940.786 Q238.415 937.95 232.298 937.95 Q228.409 937.95 224.722 938.882 Q221.036 939.814 217.633 941.677 L217.633 934.79 Q221.725 933.211 225.573 932.441 Q229.421 931.631 233.067 931.631 Q242.911 931.631 247.772 936.735 Q252.633 941.839 252.633 952.209 Z" fill="#000000" fill-rule="evenodd" fill-opacity="1" /><path clip-path="url(#clip070)" d="M 0 0 M267.824 919.843 L267.824 932.724 L283.177 932.724 L283.177 938.517 L267.824 938.517 L267.824 963.147 Q267.824 968.696 269.323 970.276 Q270.862 971.856 275.521 971.856 L283.177 971.856 L283.177 978.095 L275.521 978.095 Q266.892 978.095 263.611 974.894 Q260.33 971.654 260.33 963.147 L260.33 938.517 L254.861 938.517 L254.861 932.724 L260.33 932.724 L260.33 919.843 L267.824 919.843 Z" fill="#000000" fill-rule="evenodd" fill-opacity="1" /><path clip-path="url(#clip070)" d="M 0 0 M290.995 932.724 L298.449 932.724 L298.449 978.095 L290.995 978.095 L290.995 932.724 M290.995 915.063 L298.449 915.063 L298.449 924.501 L290.995 924.501 L290.995 915.063 Z" fill="#000000" fill-rule="evenodd" fill-opacity="1" /><path clip-path="url(#clip070)" d="M 0 0 M323.848 937.95 Q317.853 937.95 314.369 942.649 Q310.885 947.308 310.885 955.45 Q310.885 963.592 314.328 968.291 Q317.812 972.95 323.848 972.95 Q329.803 972.95 333.287 968.251 Q336.77 963.552 336.77 955.45 Q336.77 947.389 333.287 942.69 Q329.803 937.95 323.848 937.95 M323.848 931.631 Q333.57 931.631 339.12 937.95 Q344.67 944.27 344.67 955.45 Q344.67 966.59 339.12 972.95 Q333.57 979.269 323.848 979.269 Q314.085 979.269 308.536 972.95 Q303.026 966.59 303.026 955.45 Q303.026 944.27 308.536 937.95 Q314.085 931.631 323.848 931.631 Z" fill="#000000" fill-rule="evenodd" fill-opacity="1" /><path clip-path="url(#clip070)" d="M 0 0 M390.202 950.71 L390.202 978.095 L382.748 978.095 L382.748 950.954 Q382.748 944.513 380.237 941.312 Q377.725 938.112 372.702 938.112 Q366.666 938.112 363.182 941.961 Q359.699 945.809 359.699 952.452 L359.699 978.095 L352.204 978.095 L352.204 932.724 L359.699 932.724 L359.699 939.773 Q362.372 935.682 365.977 933.656 Q369.623 931.631 374.363 931.631 Q382.181 931.631 386.191 936.492 Q390.202 941.312 390.202 950.71 Z" fill="#000000" fill-rule="evenodd" fill-opacity="1" /></svg>
