<?xml version="1.0" encoding="utf-8"?>
<svg xmlns="http://www.w3.org/2000/svg" xmlns:xlink="http://www.w3.org/1999/xlink" width="500" height="500" viewBox="0 0 2000 2000">
<defs>
  <clipPath id="clip150">
    <rect x="0" y="0" width="2000" height="2000"/>
  </clipPath>
</defs>
<path clip-path="url(#clip150)" d="
M0 2000 L2000 2000 L2000 0 L0 0  Z
  " fill="#ffffff" fill-rule="evenodd" fill-opacity="1"/>
<defs>
  <clipPath id="clip151">
    <rect x="400" y="200" width="1401" height="1401"/>
  </clipPath>
</defs>
<path clip-path="url(#clip150)" d="
M240.472 1759.53 L1811.02 1759.53 L1811.02 188.976 L240.472 188.976  Z
  " fill="#ffffff" fill-rule="evenodd" fill-opacity="1"/>
<defs>
  <clipPath id="clip152">
    <rect x="240" y="188" width="1572" height="1572"/>
  </clipPath>
</defs>
<polyline clip-path="url(#clip152)" style="stroke:#000000; stroke-width:2; stroke-opacity:0.1; fill:none" points="
  763.99,1759.53 763.99,188.976 
  "/>
<polyline clip-path="url(#clip152)" style="stroke:#000000; stroke-width:2; stroke-opacity:0.1; fill:none" points="
  1025.75,1759.53 1025.75,188.976 
  "/>
<polyline clip-path="url(#clip152)" style="stroke:#000000; stroke-width:2; stroke-opacity:0.1; fill:none" points="
  1287.51,1759.53 1287.51,188.976 
  "/>
<polyline clip-path="url(#clip152)" style="stroke:#000000; stroke-width:2; stroke-opacity:0.1; fill:none" points="
  240.472,1236.01 1811.02,1236.01 
  "/>
<polyline clip-path="url(#clip152)" style="stroke:#000000; stroke-width:2; stroke-opacity:0.1; fill:none" points="
  240.472,974.252 1811.02,974.252 
  "/>
<polyline clip-path="url(#clip152)" style="stroke:#000000; stroke-width:2; stroke-opacity:0.1; fill:none" points="
  240.472,712.493 1811.02,712.493 
  "/>
<polyline clip-path="url(#clip150)" style="stroke:#000000; stroke-width:4; stroke-opacity:1; fill:none" points="
  240.472,1759.53 1811.02,1759.53 
  "/>
<polyline clip-path="url(#clip150)" style="stroke:#000000; stroke-width:4; stroke-opacity:1; fill:none" points="
  240.472,1759.53 240.472,188.976 
  "/>
<polyline clip-path="url(#clip150)" style="stroke:#000000; stroke-width:4; stroke-opacity:1; fill:none" points="
  763.99,1759.53 763.99,1740.68 
  "/>
<polyline clip-path="url(#clip150)" style="stroke:#000000; stroke-width:4; stroke-opacity:1; fill:none" points="
  1025.75,1759.53 1025.75,1740.68 
  "/>
<polyline clip-path="url(#clip150)" style="stroke:#000000; stroke-width:4; stroke-opacity:1; fill:none" points="
  1287.51,1759.53 1287.51,1740.68 
  "/>
<polyline clip-path="url(#clip150)" style="stroke:#000000; stroke-width:4; stroke-opacity:1; fill:none" points="
  240.472,1236.01 259.319,1236.01 
  "/>
<polyline clip-path="url(#clip150)" style="stroke:#000000; stroke-width:4; stroke-opacity:1; fill:none" points="
  240.472,974.252 259.319,974.252 
  "/>
<polyline clip-path="url(#clip150)" style="stroke:#000000; stroke-width:4; stroke-opacity:1; fill:none" points="
  240.472,712.493 259.319,712.493 
  "/>
<path clip-path="url(#clip150)" d="M 0 0 M744.858 1796.12 L757.334 1796.12 L757.334 1799.91 L744.858 1799.91 L744.858 1796.12 Z" fill="#000000" fill-rule="evenodd" fill-opacity="1" /><path clip-path="url(#clip150)" d="M 0 0 M763.214 1807.06 L770.853 1807.06 L770.853 1780.7 L762.543 1782.37 L762.543 1778.11 L770.807 1776.44 L775.482 1776.44 L775.482 1807.06 L783.121 1807.06 L783.121 1811 L763.214 1811 L763.214 1807.06 Z" fill="#000000" fill-rule="evenodd" fill-opacity="1" /><path clip-path="url(#clip150)" d="M 0 0 M1025.75 1779.52 Q1022.14 1779.52 1020.31 1783.08 Q1018.5 1786.62 1018.5 1793.75 Q1018.5 1800.86 1020.31 1804.43 Q1022.14 1807.97 1025.75 1807.97 Q1029.38 1807.97 1031.19 1804.43 Q1033.02 1800.86 1033.02 1793.75 Q1033.02 1786.62 1031.19 1783.08 Q1029.38 1779.52 1025.75 1779.52 M1025.75 1775.81 Q1031.56 1775.81 1034.61 1780.42 Q1037.69 1785 1037.69 1793.75 Q1037.69 1802.48 1034.61 1807.09 Q1031.56 1811.67 1025.75 1811.67 Q1019.94 1811.67 1016.86 1807.09 Q1013.8 1802.48 1013.8 1793.75 Q1013.8 1785 1016.86 1780.42 Q1019.94 1775.81 1025.75 1775.81 Z" fill="#000000" fill-rule="evenodd" fill-opacity="1" /><path clip-path="url(#clip150)" d="M 0 0 M1277.89 1807.06 L1285.53 1807.06 L1285.53 1780.7 L1277.22 1782.37 L1277.22 1778.11 L1285.48 1776.44 L1290.16 1776.44 L1290.16 1807.06 L1297.8 1807.06 L1297.8 1811 L1277.89 1811 L1277.89 1807.06 Z" fill="#000000" fill-rule="evenodd" fill-opacity="1" /><path clip-path="url(#clip150)" d="M 0 0 M182.209 1238.41 L194.686 1238.41 L194.686 1242.2 L182.209 1242.2 L182.209 1238.41 Z" fill="#000000" fill-rule="evenodd" fill-opacity="1" /><path clip-path="url(#clip150)" d="M 0 0 M200.565 1249.36 L208.204 1249.36 L208.204 1222.99 L199.894 1224.66 L199.894 1220.4 L208.158 1218.73 L212.834 1218.73 L212.834 1249.36 L220.472 1249.36 L220.472 1253.29 L200.565 1253.29 L200.565 1249.36 Z" fill="#000000" fill-rule="evenodd" fill-opacity="1" /><path clip-path="url(#clip150)" d="M 0 0 M208.528 960.051 Q204.917 960.051 203.088 963.615 Q201.283 967.157 201.283 974.287 Q201.283 981.393 203.088 984.958 Q204.917 988.5 208.528 988.5 Q212.162 988.5 213.968 984.958 Q215.797 981.393 215.797 974.287 Q215.797 967.157 213.968 963.615 Q212.162 960.051 208.528 960.051 M208.528 956.347 Q214.338 956.347 217.394 960.953 Q220.472 965.537 220.472 974.287 Q220.472 983.013 217.394 987.62 Q214.338 992.203 208.528 992.203 Q202.718 992.203 199.639 987.62 Q196.584 983.013 196.584 974.287 Q196.584 965.537 199.639 960.953 Q202.718 956.347 208.528 956.347 Z" fill="#000000" fill-rule="evenodd" fill-opacity="1" /><path clip-path="url(#clip150)" d="M 0 0 M200.565 725.838 L208.204 725.838 L208.204 699.473 L199.894 701.139 L199.894 696.88 L208.158 695.213 L212.834 695.213 L212.834 725.838 L220.472 725.838 L220.472 729.773 L200.565 729.773 L200.565 725.838 Z" fill="#000000" fill-rule="evenodd" fill-opacity="1" /><path clip-path="url(#clip150)" d="M 0 0 M912.423 1840.87 L919.329 1840.87 L931.138 1858.54 L943.01 1840.87 L949.917 1840.87 L934.639 1863.69 L950.935 1888.39 L944.028 1888.39 L930.66 1868.18 L917.197 1888.39 L910.258 1888.39 L927.223 1863.02 L912.423 1840.87 Z" fill="#000000" fill-rule="evenodd" fill-opacity="1" /><path clip-path="url(#clip150)" d="M 0 0 M991.867 1838.93 Q987.602 1846.25 985.533 1853.41 Q983.464 1860.57 983.464 1867.93 Q983.464 1875.28 985.533 1882.5 Q987.633 1889.7 991.867 1896.99 L986.774 1896.99 Q982 1889.51 979.613 1882.28 Q977.257 1875.06 977.257 1867.93 Q977.257 1860.83 979.613 1853.63 Q981.968 1846.44 986.774 1838.93 L991.867 1838.93 Z" fill="#000000" fill-rule="evenodd" fill-opacity="1" /><path clip-path="url(#clip150)" d="M 0 0 M1004.38 1882.98 L1026.81 1882.98 L1026.81 1888.39 L996.641 1888.39 L996.641 1882.98 Q1000.3 1879.19 1006.6 1872.83 Q1012.94 1866.43 1014.56 1864.58 Q1017.65 1861.11 1018.86 1858.73 Q1020.1 1856.31 1020.1 1853.98 Q1020.1 1850.2 1017.42 1847.81 Q1014.78 1845.42 1010.52 1845.42 Q1007.49 1845.42 1004.12 1846.47 Q1000.78 1847.52 996.959 1849.66 L996.959 1843.16 Q1000.84 1841.6 1004.22 1840.81 Q1007.59 1840.01 1010.39 1840.01 Q1017.77 1840.01 1022.17 1843.7 Q1026.56 1847.4 1026.56 1853.57 Q1026.56 1856.5 1025.45 1859.14 Q1024.36 1861.75 1021.47 1865.32 Q1020.67 1866.24 1016.41 1870.66 Q1012.14 1875.06 1004.38 1882.98 Z" fill="#000000" fill-rule="evenodd" fill-opacity="1" /><path clip-path="url(#clip150)" d="M 0 0 M1053.26 1862.77 Q1057.88 1863.76 1060.46 1866.88 Q1063.07 1869.99 1063.07 1874.58 Q1063.07 1881.61 1058.23 1885.46 Q1053.39 1889.31 1044.48 1889.31 Q1041.49 1889.31 1038.3 1888.71 Q1035.15 1888.14 1031.78 1886.96 L1031.78 1880.75 Q1034.45 1882.31 1037.64 1883.11 Q1040.82 1883.9 1044.29 1883.9 Q1050.34 1883.9 1053.49 1881.52 Q1056.67 1879.13 1056.67 1874.58 Q1056.67 1870.38 1053.71 1868.02 Q1050.78 1865.63 1045.53 1865.63 L1039.99 1865.63 L1039.99 1860.35 L1045.78 1860.35 Q1050.53 1860.35 1053.04 1858.47 Q1055.56 1856.56 1055.56 1853 Q1055.56 1849.34 1052.95 1847.4 Q1050.37 1845.42 1045.53 1845.42 Q1042.89 1845.42 1039.86 1846 Q1036.84 1846.57 1033.21 1847.78 L1033.21 1842.05 Q1036.87 1841.03 1040.05 1840.52 Q1043.27 1840.01 1046.1 1840.01 Q1053.42 1840.01 1057.69 1843.35 Q1061.95 1846.66 1061.95 1852.33 Q1061.95 1856.28 1059.69 1859.01 Q1057.43 1861.72 1053.26 1862.77 Z" fill="#000000" fill-rule="evenodd" fill-opacity="1" /><path clip-path="url(#clip150)" d="M 0 0 M1110.46 1867.48 Q1107.69 1867.48 1106.1 1869.84 Q1104.54 1872.19 1104.54 1876.39 Q1104.54 1880.53 1106.1 1882.92 Q1107.69 1885.27 1110.46 1885.27 Q1113.17 1885.27 1114.72 1882.92 Q1116.32 1880.53 1116.32 1876.39 Q1116.32 1872.22 1114.72 1869.87 Q1113.17 1867.48 1110.46 1867.48 M1110.46 1863.44 Q1115.49 1863.44 1118.45 1866.94 Q1121.41 1870.44 1121.41 1876.39 Q1121.41 1882.34 1118.42 1885.85 Q1115.46 1889.31 1110.46 1889.31 Q1105.37 1889.31 1102.41 1885.85 Q1099.45 1882.34 1099.45 1876.39 Q1099.45 1870.41 1102.41 1866.94 Q1105.4 1863.44 1110.46 1863.44 M1077.61 1844.05 Q1074.88 1844.05 1073.28 1846.44 Q1071.72 1848.8 1071.72 1852.93 Q1071.72 1857.14 1073.28 1859.49 Q1074.84 1861.85 1077.61 1861.85 Q1080.38 1861.85 1081.94 1859.49 Q1083.53 1857.14 1083.53 1852.93 Q1083.53 1848.83 1081.94 1846.44 Q1080.35 1844.05 1077.61 1844.05 M1106.35 1840.01 L1111.45 1840.01 L1081.72 1889.31 L1076.63 1889.31 L1106.35 1840.01 M1077.61 1840.01 Q1082.64 1840.01 1085.63 1843.51 Q1088.63 1846.98 1088.63 1852.93 Q1088.63 1858.95 1085.63 1862.42 Q1082.67 1865.89 1077.61 1865.89 Q1072.55 1865.89 1069.59 1862.42 Q1066.66 1858.92 1066.66 1852.93 Q1066.66 1847.01 1069.62 1843.51 Q1072.58 1840.01 1077.61 1840.01 Z" fill="#000000" fill-rule="evenodd" fill-opacity="1" /><path clip-path="url(#clip150)" d="M 0 0 M1126.63 1838.93 L1131.72 1838.93 Q1136.5 1846.44 1138.85 1853.63 Q1141.24 1860.83 1141.24 1867.93 Q1141.24 1875.06 1138.85 1882.28 Q1136.5 1889.51 1131.72 1896.99 L1126.63 1896.99 Q1130.86 1889.7 1132.93 1882.5 Q1135.03 1875.28 1135.03 1867.93 Q1135.03 1860.57 1132.93 1853.41 Q1130.86 1846.25 1126.63 1838.93 Z" fill="#000000" fill-rule="evenodd" fill-opacity="1" /><path clip-path="url(#clip150)" d="M 0 0 M100.433 1088.79 L100.433 1081.88 L119.975 1068.7 L100.433 1055.62 L100.433 1048.71 L125.323 1065.52 L147.953 1065.52 L147.953 1071.98 L125.323 1071.98 L100.433 1088.79 Z" fill="#000000" fill-rule="evenodd" fill-opacity="1" /><path clip-path="url(#clip150)" d="M 0 0 M98.4912 1007.78 Q105.812 1012.05 112.973 1014.12 Q120.135 1016.19 127.487 1016.19 Q134.839 1016.19 142.064 1014.12 Q149.258 1012.02 156.546 1007.78 L156.546 1012.88 Q149.067 1017.65 141.842 1020.04 Q134.617 1022.39 127.487 1022.39 Q120.389 1022.39 113.196 1020.04 Q106.003 1017.68 98.4912 1012.88 L98.4912 1007.78 Z" fill="#000000" fill-rule="evenodd" fill-opacity="1" /><path clip-path="url(#clip150)" d="M 0 0 M142.542 995.275 L142.542 972.836 L147.953 972.836 L147.953 1003.01 L142.542 1003.01 Q138.754 999.349 132.389 993.047 Q125.991 986.713 124.145 985.09 Q120.676 982.002 118.289 980.793 Q115.87 979.551 113.546 979.551 Q109.759 979.551 107.371 982.225 Q104.984 984.867 104.984 989.132 Q104.984 992.156 106.035 995.529 Q107.085 998.871 109.217 1002.69 L102.724 1002.69 Q101.165 998.808 100.369 995.434 Q99.5734 992.06 99.5734 989.259 Q99.5734 981.875 103.265 977.483 Q106.958 973.09 113.132 973.09 Q116.061 973.09 118.702 974.204 Q121.312 975.286 124.877 978.183 Q125.8 978.979 130.224 983.244 Q134.617 987.509 142.542 995.275 Z" fill="#000000" fill-rule="evenodd" fill-opacity="1" /><path clip-path="url(#clip150)" d="M 0 0 M142.542 960.327 L142.542 937.888 L147.953 937.888 L147.953 968.061 L142.542 968.061 Q138.754 964.401 132.389 958.099 Q125.991 951.765 124.145 950.142 Q120.676 947.054 118.289 945.845 Q115.87 944.604 113.546 944.604 Q109.759 944.604 107.371 947.277 Q104.984 949.919 104.984 954.184 Q104.984 957.208 106.035 960.582 Q107.085 963.924 109.217 967.743 L102.724 967.743 Q101.165 963.86 100.369 960.486 Q99.5734 957.112 99.5734 954.311 Q99.5734 946.927 103.265 942.535 Q106.958 938.142 113.132 938.142 Q116.061 938.142 118.702 939.256 Q121.312 940.339 124.877 943.235 Q125.8 944.031 130.224 948.296 Q134.617 952.561 142.542 960.327 Z" fill="#000000" fill-rule="evenodd" fill-opacity="1" /><path clip-path="url(#clip150)" d="M 0 0 M127.041 890.495 Q127.041 893.264 129.397 894.856 Q131.752 896.415 135.953 896.415 Q140.091 896.415 142.478 894.856 Q144.834 893.264 144.834 890.495 Q144.834 887.79 142.478 886.23 Q140.091 884.639 135.953 884.639 Q131.784 884.639 129.429 886.23 Q127.041 887.79 127.041 890.495 M122.999 890.495 Q122.999 885.466 126.5 882.506 Q130.001 879.546 135.953 879.546 Q141.905 879.546 145.406 882.538 Q148.876 885.498 148.876 890.495 Q148.876 895.588 145.406 898.548 Q141.905 901.508 135.953 901.508 Q129.97 901.508 126.5 898.548 Q122.999 895.556 122.999 890.495 M103.616 923.342 Q103.616 926.079 106.003 927.671 Q108.358 929.231 112.496 929.231 Q116.697 929.231 119.052 927.671 Q121.408 926.111 121.408 923.342 Q121.408 920.573 119.052 919.014 Q116.697 917.422 112.496 917.422 Q108.39 917.422 106.003 919.014 Q103.616 920.605 103.616 923.342 M99.5734 894.601 L99.5734 889.508 L148.876 919.236 L148.876 924.329 L99.5734 894.601 M99.5734 923.342 Q99.5734 918.313 103.075 915.321 Q106.544 912.33 112.496 912.33 Q118.511 912.33 121.981 915.321 Q125.45 918.281 125.45 923.342 Q125.45 928.403 121.981 931.363 Q118.48 934.291 112.496 934.291 Q106.576 934.291 103.075 931.331 Q99.5734 928.371 99.5734 923.342 Z" fill="#000000" fill-rule="evenodd" fill-opacity="1" /><path clip-path="url(#clip150)" d="M 0 0 M98.4912 874.326 L98.4912 869.234 Q106.003 864.459 113.196 862.104 Q120.389 859.717 127.487 859.717 Q134.617 859.717 141.842 862.104 Q149.067 864.459 156.546 869.234 L156.546 874.326 Q149.258 870.093 142.064 868.024 Q134.839 865.924 127.487 865.924 Q120.135 865.924 112.973 868.024 Q105.812 870.093 98.4912 874.326 Z" fill="#000000" fill-rule="evenodd" fill-opacity="1" /><polyline clip-path="url(#clip152)" style="stroke:#ffa500; stroke-width:0.57127; stroke-opacity:1; fill:none" points="
  801.055,1299.47 1322.69,528.359 
  "/>
<polyline clip-path="url(#clip152)" style="stroke:#ffa500; stroke-width:0.310112; stroke-opacity:1; fill:none" points="
  816.589,1167.55 1197.92,1092.98 
  "/>
<polyline clip-path="url(#clip152)" style="stroke:#ffa500; stroke-width:0.344254; stroke-opacity:1; fill:none" points="
  1197.92,1092.98 1622.28,1304 
  "/>
<polyline clip-path="url(#clip152)" style="stroke:#800080; stroke-width:2.41942; stroke-opacity:1; fill:none" points="
  877.74,843.193 1622.28,1304 
  "/>
<polyline clip-path="url(#clip152)" style="stroke:#ffa500; stroke-width:3.09601; stroke-opacity:1; fill:none" points="
  801.055,1299.47 816.589,1167.55 
  "/>
<polyline clip-path="url(#clip152)" style="stroke:#800080; stroke-width:3.5991; stroke-opacity:1; fill:none" points="
  816.589,1167.55 1622.28,1304 
  "/>
<polyline clip-path="url(#clip152)" style="stroke:#ffa500; stroke-width:4.58072; stroke-opacity:1; fill:none" points="
  816.589,1167.55 877.74,843.193 
  "/>
<polyline clip-path="url(#clip152)" style="stroke:#ffa500; stroke-width:1.47784; stroke-opacity:1; fill:none" points="
  877.74,843.193 1197.92,1092.98 
  "/>
<polyline clip-path="url(#clip152)" style="stroke:#800080; stroke-width:6.48496; stroke-opacity:1; fill:none" points="
  1322.69,528.359 1622.28,1304 
  "/>
<polyline clip-path="url(#clip152)" style="stroke:#ffa500; stroke-width:0.694986; stroke-opacity:1; fill:none" points="
  801.055,1299.47 1197.92,1092.98 
  "/>
<polyline clip-path="url(#clip152)" style="stroke:#ffa500; stroke-width:8; stroke-opacity:1; fill:none" points="
  801.055,1299.47 877.74,843.193 
  "/>
<polyline clip-path="url(#clip152)" style="stroke:#800080; stroke-width:2.90053; stroke-opacity:1; fill:none" points="
  816.589,1167.55 1322.69,528.359 
  "/>
<polyline clip-path="url(#clip152)" style="stroke:#800080; stroke-width:2.12299; stroke-opacity:1; fill:none" points="
  1197.92,1092.98 1322.69,528.359 
  "/>
<polyline clip-path="url(#clip152)" style="stroke:#800080; stroke-width:2.00262; stroke-opacity:1; fill:none" points="
  801.055,1299.47 1622.28,1304 
  "/>
<polyline clip-path="url(#clip152)" style="stroke:#ffa500; stroke-width:0.179937; stroke-opacity:1; fill:none" points="
  877.74,843.193 1322.69,528.359 
  "/>
<circle clip-path="url(#clip152)" cx="816.589" cy="1167.55" r="23" fill="#000000" fill-rule="evenodd" fill-opacity="1" stroke="none"/>
<circle clip-path="url(#clip152)" cx="1322.69" cy="528.359" r="26" fill="#000000" fill-rule="evenodd" fill-opacity="1" stroke="none"/>
<circle clip-path="url(#clip152)" cx="801.055" cy="1299.47" r="23" fill="#000000" fill-rule="evenodd" fill-opacity="1" stroke="none"/>
<circle clip-path="url(#clip152)" cx="1197.92" cy="1092.98" r="8" fill="#000000" fill-rule="evenodd" fill-opacity="1" stroke="none"/>
<circle clip-path="url(#clip152)" cx="877.74" cy="843.193" r="28" fill="#000000" fill-rule="evenodd" fill-opacity="1" stroke="none"/>
<circle clip-path="url(#clip152)" cx="1622.28" cy="1304" r="8" fill="#000000" fill-rule="evenodd" fill-opacity="1" stroke="none"/>
<path clip-path="url(#clip150)" d="M 0 0 M789.514 1174.27 L789.514 1191.07 L793.044 1191.07 Q797.514 1191.07 799.583 1189.05 Q801.666 1187.02 801.666 1182.65 Q801.666 1178.31 799.583 1176.3 Q797.514 1174.27 793.044 1174.27 L789.514 1174.27 M786.591 1171.87 L792.595 1171.87 Q798.874 1171.87 801.811 1174.49 Q804.748 1177.1 804.748 1182.65 Q804.748 1188.24 801.796 1190.85 Q798.845 1193.47 792.595 1193.47 L786.591 1193.47 L786.591 1171.87 Z" fill="#000000" fill-rule="evenodd" fill-opacity="1" /><path clip-path="url(#clip150)" d="M 0 0 M814.904 1185.33 Q811.678 1185.33 810.434 1186.07 Q809.189 1186.8 809.189 1188.58 Q809.189 1190 810.115 1190.84 Q811.056 1191.66 812.662 1191.66 Q814.875 1191.66 816.206 1190.1 Q817.552 1188.53 817.552 1185.92 L817.552 1185.33 L814.904 1185.33 M820.214 1184.23 L820.214 1193.47 L817.552 1193.47 L817.552 1191.01 Q816.64 1192.49 815.28 1193.2 Q813.92 1193.89 811.953 1193.89 Q809.464 1193.89 807.989 1192.5 Q806.527 1191.1 806.527 1188.76 Q806.527 1186.02 808.35 1184.63 Q810.188 1183.24 813.819 1183.24 L817.552 1183.24 L817.552 1182.98 Q817.552 1181.15 816.336 1180.15 Q815.135 1179.14 812.951 1179.14 Q811.562 1179.14 810.245 1179.47 Q808.929 1179.8 807.714 1180.47 L807.714 1178.01 Q809.175 1177.44 810.549 1177.17 Q811.924 1176.88 813.226 1176.88 Q816.741 1176.88 818.477 1178.7 Q820.214 1180.52 820.214 1184.23 Z" fill="#000000" fill-rule="evenodd" fill-opacity="1" /><path clip-path="url(#clip150)" d="M 0 0 M825.639 1172.67 L825.639 1177.27 L831.122 1177.27 L831.122 1179.34 L825.639 1179.34 L825.639 1188.13 Q825.639 1190.12 826.174 1190.68 Q826.724 1191.25 828.388 1191.25 L831.122 1191.25 L831.122 1193.47 L828.388 1193.47 Q825.306 1193.47 824.134 1192.33 Q822.962 1191.17 822.962 1188.13 L822.962 1179.34 L821.009 1179.34 L821.009 1177.27 L822.962 1177.27 L822.962 1172.67 L825.639 1172.67 Z" fill="#000000" fill-rule="evenodd" fill-opacity="1" /><path clip-path="url(#clip150)" d="M 0 0 M841.278 1185.33 Q838.052 1185.33 836.808 1186.07 Q835.564 1186.8 835.564 1188.58 Q835.564 1190 836.49 1190.84 Q837.43 1191.66 839.036 1191.66 Q841.249 1191.66 842.58 1190.1 Q843.926 1188.53 843.926 1185.92 L843.926 1185.33 L841.278 1185.33 M846.588 1184.23 L846.588 1193.47 L843.926 1193.47 L843.926 1191.01 Q843.014 1192.49 841.654 1193.2 Q840.295 1193.89 838.327 1193.89 Q835.839 1193.89 834.363 1192.5 Q832.902 1191.1 832.902 1188.76 Q832.902 1186.02 834.725 1184.63 Q836.562 1183.24 840.193 1183.24 L843.926 1183.24 L843.926 1182.98 Q843.926 1181.15 842.711 1180.15 Q841.51 1179.14 839.325 1179.14 Q837.936 1179.14 836.62 1179.47 Q835.303 1179.8 834.088 1180.47 L834.088 1178.01 Q835.549 1177.44 836.924 1177.17 Q838.298 1176.88 839.6 1176.88 Q843.116 1176.88 844.852 1178.7 Q846.588 1180.52 846.588 1184.23 Z" fill="#000000" fill-rule="evenodd" fill-opacity="1" /><path clip-path="url(#clip150)" d="M 0 0 M1180.78 532.679 L1199.06 532.679 L1199.06 535.138 L1191.39 535.138 L1191.39 554.279 L1188.45 554.279 L1188.45 535.138 L1180.78 535.138 L1180.78 532.679 Z" fill="#000000" fill-rule="evenodd" fill-opacity="1" /><path clip-path="url(#clip150)" d="M 0 0 M1210.67 545.512 L1210.67 546.814 L1198.44 546.814 Q1198.61 549.563 1200.08 551.009 Q1201.57 552.442 1204.22 552.442 Q1205.76 552.442 1207.19 552.065 Q1208.63 551.689 1210.05 550.937 L1210.05 553.454 Q1208.62 554.062 1207.12 554.38 Q1205.61 554.698 1204.06 554.698 Q1200.19 554.698 1197.91 552.442 Q1195.66 550.185 1195.66 546.336 Q1195.66 542.358 1197.8 540.028 Q1199.95 537.685 1203.6 537.685 Q1206.87 537.685 1208.76 539.797 Q1210.67 541.895 1210.67 545.512 M1208.01 544.73 Q1207.98 542.546 1206.78 541.244 Q1205.6 539.942 1203.63 539.942 Q1201.4 539.942 1200.06 541.2 Q1198.72 542.459 1198.52 544.745 L1208.01 544.73 Z" fill="#000000" fill-rule="evenodd" fill-opacity="1" /><path clip-path="url(#clip150)" d="M 0 0 M1225.13 538.697 L1225.13 541.186 Q1224 540.564 1222.86 540.26 Q1221.73 539.942 1220.57 539.942 Q1217.98 539.942 1216.55 541.591 Q1215.12 543.226 1215.12 546.192 Q1215.12 549.157 1216.55 550.807 Q1217.98 552.442 1220.57 552.442 Q1221.73 552.442 1222.86 552.138 Q1224 551.819 1225.13 551.197 L1225.13 553.657 Q1224.01 554.178 1222.81 554.438 Q1221.63 554.698 1220.28 554.698 Q1216.62 554.698 1214.47 552.398 Q1212.31 550.098 1212.31 546.192 Q1212.31 542.227 1214.48 539.956 Q1216.66 537.685 1220.45 537.685 Q1221.68 537.685 1222.86 537.945 Q1224.03 538.191 1225.13 538.697 Z" fill="#000000" fill-rule="evenodd" fill-opacity="1" /><path clip-path="url(#clip150)" d="M 0 0 M1241.39 544.499 L1241.39 554.279 L1238.73 554.279 L1238.73 544.586 Q1238.73 542.285 1237.83 541.142 Q1236.93 539.999 1235.14 539.999 Q1232.98 539.999 1231.74 541.374 Q1230.5 542.748 1230.5 545.121 L1230.5 554.279 L1227.82 554.279 L1227.82 531.767 L1230.5 531.767 L1230.5 540.593 Q1231.45 539.131 1232.74 538.408 Q1234.04 537.685 1235.73 537.685 Q1238.52 537.685 1239.96 539.421 Q1241.39 541.142 1241.39 544.499 Z" fill="#000000" fill-rule="evenodd" fill-opacity="1" /><path clip-path="url(#clip150)" d="M 0 0 M1257.65 544.499 L1257.65 554.279 L1254.99 554.279 L1254.99 544.586 Q1254.99 542.285 1254.09 541.142 Q1253.19 539.999 1251.4 539.999 Q1249.24 539.999 1248 541.374 Q1246.76 542.748 1246.76 545.121 L1246.76 554.279 L1244.08 554.279 L1244.08 538.075 L1246.76 538.075 L1246.76 540.593 Q1247.71 539.131 1249 538.408 Q1250.3 537.685 1251.99 537.685 Q1254.79 537.685 1256.22 539.421 Q1257.65 541.142 1257.65 544.499 Z" fill="#000000" fill-rule="evenodd" fill-opacity="1" /><path clip-path="url(#clip150)" d="M 0 0 M1260.44 538.075 L1263.1 538.075 L1263.1 554.279 L1260.44 554.279 L1260.44 538.075 M1260.44 531.767 L1263.1 531.767 L1263.1 535.138 L1260.44 535.138 L1260.44 531.767 Z" fill="#000000" fill-rule="evenodd" fill-opacity="1" /><path clip-path="url(#clip150)" d="M 0 0 M1277.56 538.697 L1277.56 541.186 Q1276.43 540.564 1275.29 540.26 Q1274.16 539.942 1273 539.942 Q1270.41 539.942 1268.98 541.591 Q1267.55 543.226 1267.55 546.192 Q1267.55 549.157 1268.98 550.807 Q1270.41 552.442 1273 552.442 Q1274.16 552.442 1275.29 552.138 Q1276.43 551.819 1277.56 551.197 L1277.56 553.657 Q1276.44 554.178 1275.24 554.438 Q1274.06 554.698 1272.71 554.698 Q1269.05 554.698 1266.9 552.398 Q1264.74 550.098 1264.74 546.192 Q1264.74 542.227 1266.91 539.956 Q1269.09 537.685 1272.88 537.685 Q1274.11 537.685 1275.29 537.945 Q1276.46 538.191 1277.56 538.697 Z" fill="#000000" fill-rule="evenodd" fill-opacity="1" /><path clip-path="url(#clip150)" d="M 0 0 M1287.71 546.134 Q1284.49 546.134 1283.24 546.872 Q1282 547.609 1282 549.389 Q1282 550.807 1282.93 551.646 Q1283.87 552.47 1285.47 552.47 Q1287.69 552.47 1289.02 550.908 Q1290.36 549.331 1290.36 546.727 L1290.36 546.134 L1287.71 546.134 M1293.02 545.034 L1293.02 554.279 L1290.36 554.279 L1290.36 551.819 Q1289.45 553.295 1288.09 554.004 Q1286.73 554.698 1284.76 554.698 Q1282.27 554.698 1280.8 553.31 Q1279.34 551.906 1279.34 549.563 Q1279.34 546.828 1281.16 545.439 Q1283 544.05 1286.63 544.05 L1290.36 544.05 L1290.36 543.79 Q1290.36 541.953 1289.15 540.954 Q1287.95 539.942 1285.76 539.942 Q1284.37 539.942 1283.06 540.274 Q1281.74 540.607 1280.52 541.273 L1280.52 538.813 Q1281.98 538.249 1283.36 537.974 Q1284.73 537.685 1286.04 537.685 Q1289.55 537.685 1291.29 539.508 Q1293.02 541.331 1293.02 545.034 Z" fill="#000000" fill-rule="evenodd" fill-opacity="1" /><path clip-path="url(#clip150)" d="M 0 0 M1295.82 531.767 L1298.48 531.767 L1298.48 554.279 L1295.82 554.279 L1295.82 531.767 Z" fill="#000000" fill-rule="evenodd" fill-opacity="1" /><path clip-path="url(#clip150)" d="M 0 0 M1313.58 559.198 L1313.58 561.267 L1298.19 561.267 L1298.19 559.198 L1313.58 559.198 Z" fill="#000000" fill-rule="evenodd" fill-opacity="1" /><path clip-path="url(#clip150)" d="M 0 0 M1332.66 534.343 L1332.66 537.424 Q1331.19 536.05 1329.51 535.37 Q1327.85 534.69 1325.97 534.69 Q1322.26 534.69 1320.29 536.961 Q1318.33 539.218 1318.33 543.501 Q1318.33 547.769 1320.29 550.04 Q1322.26 552.297 1325.97 552.297 Q1327.85 552.297 1329.51 551.617 Q1331.19 550.937 1332.66 549.563 L1332.66 552.615 Q1331.13 553.657 1329.41 554.178 Q1327.7 554.698 1325.79 554.698 Q1320.89 554.698 1318.07 551.704 Q1315.25 548.694 1315.25 543.501 Q1315.25 538.292 1318.07 535.298 Q1320.89 532.288 1325.79 532.288 Q1327.73 532.288 1329.44 532.809 Q1331.16 533.316 1332.66 534.343 Z" fill="#000000" fill-rule="evenodd" fill-opacity="1" /><path clip-path="url(#clip150)" d="M 0 0 M1341.74 539.942 Q1339.59 539.942 1338.35 541.62 Q1337.11 543.284 1337.11 546.192 Q1337.11 549.1 1338.34 550.778 Q1339.58 552.442 1341.74 552.442 Q1343.86 552.442 1345.11 550.763 Q1346.35 549.085 1346.35 546.192 Q1346.35 543.313 1345.11 541.634 Q1343.86 539.942 1341.74 539.942 M1341.74 537.685 Q1345.21 537.685 1347.19 539.942 Q1349.17 542.199 1349.17 546.192 Q1349.17 550.17 1347.19 552.442 Q1345.21 554.698 1341.74 554.698 Q1338.25 554.698 1336.27 552.442 Q1334.3 550.17 1334.3 546.192 Q1334.3 542.199 1336.27 539.942 Q1338.25 537.685 1341.74 537.685 Z" fill="#000000" fill-rule="evenodd" fill-opacity="1" /><path clip-path="url(#clip150)" d="M 0 0 M1365.43 544.499 L1365.43 554.279 L1362.77 554.279 L1362.77 544.586 Q1362.77 542.285 1361.87 541.142 Q1360.98 539.999 1359.18 539.999 Q1357.03 539.999 1355.78 541.374 Q1354.54 542.748 1354.54 545.121 L1354.54 554.279 L1351.86 554.279 L1351.86 538.075 L1354.54 538.075 L1354.54 540.593 Q1355.49 539.131 1356.78 538.408 Q1358.08 537.685 1359.78 537.685 Q1362.57 537.685 1364 539.421 Q1365.43 541.142 1365.43 544.499 Z" fill="#000000" fill-rule="evenodd" fill-opacity="1" /><path clip-path="url(#clip150)" d="M 0 0 M1378.56 538.553 L1378.56 541.07 Q1377.43 540.491 1376.21 540.202 Q1375 539.913 1373.69 539.913 Q1371.71 539.913 1370.71 540.52 Q1369.73 541.128 1369.73 542.343 Q1369.73 543.269 1370.44 543.804 Q1371.15 544.325 1373.29 544.803 L1374.2 545.005 Q1377.04 545.613 1378.22 546.727 Q1379.42 547.826 1379.42 549.808 Q1379.42 552.065 1377.63 553.382 Q1375.85 554.698 1372.73 554.698 Q1371.42 554.698 1370.01 554.438 Q1368.6 554.192 1367.04 553.686 L1367.04 550.937 Q1368.52 551.704 1369.95 552.094 Q1371.38 552.47 1372.78 552.47 Q1374.66 552.47 1375.68 551.834 Q1376.69 551.183 1376.69 550.011 Q1376.69 548.926 1375.95 548.347 Q1375.23 547.769 1372.75 547.233 L1371.83 547.016 Q1369.35 546.495 1368.25 545.425 Q1367.16 544.34 1367.16 542.459 Q1367.16 540.173 1368.78 538.929 Q1370.4 537.685 1373.38 537.685 Q1374.85 537.685 1376.15 537.902 Q1377.46 538.119 1378.56 538.553 Z" fill="#000000" fill-rule="evenodd" fill-opacity="1" /><path clip-path="url(#clip150)" d="M 0 0 M1384.85 533.475 L1384.85 538.075 L1390.33 538.075 L1390.33 540.144 L1384.85 540.144 L1384.85 548.94 Q1384.85 550.922 1385.38 551.487 Q1385.93 552.051 1387.6 552.051 L1390.33 552.051 L1390.33 554.279 L1387.6 554.279 Q1384.52 554.279 1383.34 553.136 Q1382.17 551.979 1382.17 548.94 L1382.17 540.144 L1380.22 540.144 L1380.22 538.075 L1382.17 538.075 L1382.17 533.475 L1384.85 533.475 Z" fill="#000000" fill-rule="evenodd" fill-opacity="1" /><path clip-path="url(#clip150)" d="M 0 0 M1402.51 540.564 Q1402.07 540.303 1401.53 540.188 Q1401.01 540.057 1400.37 540.057 Q1398.12 540.057 1396.9 541.533 Q1395.7 542.994 1395.7 545.743 L1395.7 554.279 L1393.02 554.279 L1393.02 538.075 L1395.7 538.075 L1395.7 540.593 Q1396.54 539.117 1397.88 538.408 Q1399.23 537.685 1401.15 537.685 Q1401.43 537.685 1401.76 537.728 Q1402.09 537.757 1402.5 537.829 L1402.51 540.564 Z" fill="#000000" fill-rule="evenodd" fill-opacity="1" /><path clip-path="url(#clip150)" d="M 0 0 M1412.67 546.134 Q1409.44 546.134 1408.2 546.872 Q1406.96 547.609 1406.96 549.389 Q1406.96 550.807 1407.88 551.646 Q1408.82 552.47 1410.43 552.47 Q1412.64 552.47 1413.97 550.908 Q1415.32 549.331 1415.32 546.727 L1415.32 546.134 L1412.67 546.134 M1417.98 545.034 L1417.98 554.279 L1415.32 554.279 L1415.32 551.819 Q1414.41 553.295 1413.05 554.004 Q1411.69 554.698 1409.72 554.698 Q1407.23 554.698 1405.75 553.31 Q1404.29 551.906 1404.29 549.563 Q1404.29 546.828 1406.12 545.439 Q1407.95 544.05 1411.58 544.05 L1415.32 544.05 L1415.32 543.79 Q1415.32 541.953 1414.1 540.954 Q1412.9 539.942 1410.72 539.942 Q1409.33 539.942 1408.01 540.274 Q1406.69 540.607 1405.48 541.273 L1405.48 538.813 Q1406.94 538.249 1408.32 537.974 Q1409.69 537.685 1410.99 537.685 Q1414.51 537.685 1416.24 539.508 Q1417.98 541.331 1417.98 545.034 Z" fill="#000000" fill-rule="evenodd" fill-opacity="1" /><path clip-path="url(#clip150)" d="M 0 0 M1420.77 538.075 L1423.43 538.075 L1423.43 554.279 L1420.77 554.279 L1420.77 538.075 M1420.77 531.767 L1423.43 531.767 L1423.43 535.138 L1420.77 535.138 L1420.77 531.767 Z" fill="#000000" fill-rule="evenodd" fill-opacity="1" /><path clip-path="url(#clip150)" d="M 0 0 M1439.7 544.499 L1439.7 554.279 L1437.03 554.279 L1437.03 544.586 Q1437.03 542.285 1436.14 541.142 Q1435.24 539.999 1433.45 539.999 Q1431.29 539.999 1430.05 541.374 Q1428.8 542.748 1428.8 545.121 L1428.8 554.279 L1426.12 554.279 L1426.12 538.075 L1428.8 538.075 L1428.8 540.593 Q1429.76 539.131 1431.04 538.408 Q1432.35 537.685 1434.04 537.685 Q1436.83 537.685 1438.26 539.421 Q1439.7 541.142 1439.7 544.499 Z" fill="#000000" fill-rule="evenodd" fill-opacity="1" /><path clip-path="url(#clip150)" d="M 0 0 M1445.12 533.475 L1445.12 538.075 L1450.6 538.075 L1450.6 540.144 L1445.12 540.144 L1445.12 548.94 Q1445.12 550.922 1445.66 551.487 Q1446.21 552.051 1447.87 552.051 L1450.6 552.051 L1450.6 554.279 L1447.87 554.279 Q1444.79 554.279 1443.62 553.136 Q1442.44 551.979 1442.44 548.94 L1442.44 540.144 L1440.49 540.144 L1440.49 538.075 L1442.44 538.075 L1442.44 533.475 L1445.12 533.475 Z" fill="#000000" fill-rule="evenodd" fill-opacity="1" /><path clip-path="url(#clip150)" d="M 0 0 M1463.73 538.553 L1463.73 541.07 Q1462.6 540.491 1461.38 540.202 Q1460.17 539.913 1458.86 539.913 Q1456.88 539.913 1455.88 540.52 Q1454.9 541.128 1454.9 542.343 Q1454.9 543.269 1455.61 543.804 Q1456.32 544.325 1458.46 544.803 L1459.37 545.005 Q1462.21 545.613 1463.39 546.727 Q1464.59 547.826 1464.59 549.808 Q1464.59 552.065 1462.8 553.382 Q1461.02 554.698 1457.9 554.698 Q1456.59 554.698 1455.18 554.438 Q1453.77 554.192 1452.21 553.686 L1452.21 550.937 Q1453.69 551.704 1455.12 552.094 Q1456.55 552.47 1457.95 552.47 Q1459.83 552.47 1460.85 551.834 Q1461.86 551.183 1461.86 550.011 Q1461.86 548.926 1461.12 548.347 Q1460.4 547.769 1457.92 547.233 L1457 547.016 Q1454.52 546.495 1453.42 545.425 Q1452.33 544.34 1452.33 542.459 Q1452.33 540.173 1453.95 538.929 Q1455.57 537.685 1458.55 537.685 Q1460.02 537.685 1461.32 537.902 Q1462.63 538.119 1463.73 538.553 Z" fill="#000000" fill-rule="evenodd" fill-opacity="1" /><path clip-path="url(#clip150)" d="M 0 0 M633.709 1306.19 L633.709 1314.3 L637.384 1314.3 Q639.424 1314.3 640.538 1313.25 Q641.652 1312.19 641.652 1310.24 Q641.652 1308.3 640.538 1307.24 Q639.424 1306.19 637.384 1306.19 L633.709 1306.19 M630.786 1303.79 L637.384 1303.79 Q641.015 1303.79 642.867 1305.44 Q644.733 1307.07 644.733 1310.24 Q644.733 1313.44 642.867 1315.07 Q641.015 1316.71 637.384 1316.71 L633.709 1316.71 L633.709 1325.39 L630.786 1325.39 L630.786 1303.79 Z" fill="#000000" fill-rule="evenodd" fill-opacity="1" /><path clip-path="url(#clip150)" d="M 0 0 M660.329 1316.62 L660.329 1317.92 L648.09 1317.92 Q648.263 1320.67 649.739 1322.12 Q651.229 1323.55 653.877 1323.55 Q655.41 1323.55 656.842 1323.17 Q658.289 1322.8 659.707 1322.04 L659.707 1324.56 Q658.275 1325.17 656.77 1325.49 Q655.266 1325.81 653.718 1325.81 Q649.84 1325.81 647.569 1323.55 Q645.312 1321.29 645.312 1317.44 Q645.312 1313.47 647.453 1311.14 Q649.609 1308.79 653.255 1308.79 Q656.524 1308.79 658.419 1310.9 Q660.329 1313 660.329 1316.62 M657.667 1315.84 Q657.638 1313.65 656.437 1312.35 Q655.251 1311.05 653.283 1311.05 Q651.055 1311.05 649.71 1312.31 Q648.379 1313.57 648.176 1315.85 L657.667 1315.84 Z" fill="#000000" fill-rule="evenodd" fill-opacity="1" /><path clip-path="url(#clip150)" d="M 0 0 M672.511 1311.67 Q672.062 1311.41 671.527 1311.29 Q671.006 1311.16 670.37 1311.16 Q668.113 1311.16 666.897 1312.64 Q665.697 1314.1 665.697 1316.85 L665.697 1325.39 L663.02 1325.39 L663.02 1309.18 L665.697 1309.18 L665.697 1311.7 Q666.536 1310.22 667.881 1309.52 Q669.227 1308.79 671.151 1308.79 Q671.426 1308.79 671.759 1308.84 Q672.091 1308.86 672.496 1308.94 L672.511 1311.67 Z" fill="#000000" fill-rule="evenodd" fill-opacity="1" /><path clip-path="url(#clip150)" d="M 0 0 M683.506 1302.87 L683.506 1305.09 L680.96 1305.09 Q679.528 1305.09 678.963 1305.67 Q678.414 1306.25 678.414 1307.75 L678.414 1309.18 L682.797 1309.18 L682.797 1311.25 L678.414 1311.25 L678.414 1325.39 L675.737 1325.39 L675.737 1311.25 L673.191 1311.25 L673.191 1309.18 L675.737 1309.18 L675.737 1308.05 Q675.737 1305.35 676.996 1304.12 Q678.254 1302.87 680.989 1302.87 L683.506 1302.87 Z" fill="#000000" fill-rule="evenodd" fill-opacity="1" /><path clip-path="url(#clip150)" d="M 0 0 M692.577 1311.05 Q690.436 1311.05 689.192 1312.73 Q687.948 1314.39 687.948 1317.3 Q687.948 1320.21 689.177 1321.89 Q690.422 1323.55 692.577 1323.55 Q694.704 1323.55 695.948 1321.87 Q697.192 1320.19 697.192 1317.3 Q697.192 1314.42 695.948 1312.74 Q694.704 1311.05 692.577 1311.05 M692.577 1308.79 Q696.049 1308.79 698.032 1311.05 Q700.014 1313.31 700.014 1317.3 Q700.014 1321.28 698.032 1323.55 Q696.049 1325.81 692.577 1325.81 Q689.091 1325.81 687.109 1323.55 Q685.141 1321.28 685.141 1317.3 Q685.141 1313.31 687.109 1311.05 Q689.091 1308.79 692.577 1308.79 Z" fill="#000000" fill-rule="evenodd" fill-opacity="1" /><path clip-path="url(#clip150)" d="M 0 0 M712.195 1311.67 Q711.747 1311.41 711.211 1311.29 Q710.691 1311.16 710.054 1311.16 Q707.797 1311.16 706.582 1312.64 Q705.381 1314.1 705.381 1316.85 L705.381 1325.39 L702.705 1325.39 L702.705 1309.18 L705.381 1309.18 L705.381 1311.7 Q706.22 1310.22 707.566 1309.52 Q708.911 1308.79 710.835 1308.79 Q711.11 1308.79 711.443 1308.84 Q711.776 1308.86 712.181 1308.94 L712.195 1311.67 Z" fill="#000000" fill-rule="evenodd" fill-opacity="1" /><path clip-path="url(#clip150)" d="M 0 0 M727.082 1312.29 Q728.081 1310.5 729.469 1309.65 Q730.858 1308.79 732.739 1308.79 Q735.271 1308.79 736.645 1310.57 Q738.02 1312.34 738.02 1315.61 L738.02 1325.39 L735.343 1325.39 L735.343 1315.69 Q735.343 1313.36 734.519 1312.24 Q733.694 1311.11 732.001 1311.11 Q729.932 1311.11 728.732 1312.48 Q727.531 1313.86 727.531 1316.23 L727.531 1325.39 L724.854 1325.39 L724.854 1315.69 Q724.854 1313.35 724.03 1312.24 Q723.205 1311.11 721.483 1311.11 Q719.443 1311.11 718.243 1312.5 Q717.042 1313.87 717.042 1316.23 L717.042 1325.39 L714.365 1325.39 L714.365 1309.18 L717.042 1309.18 L717.042 1311.7 Q717.953 1310.21 719.226 1309.5 Q720.5 1308.79 722.25 1308.79 Q724.015 1308.79 725.245 1309.69 Q726.489 1310.59 727.082 1312.29 Z" fill="#000000" fill-rule="evenodd" fill-opacity="1" /><path clip-path="url(#clip150)" d="M 0 0 M748.176 1317.24 Q744.95 1317.24 743.705 1317.98 Q742.461 1318.72 742.461 1320.5 Q742.461 1321.91 743.387 1322.75 Q744.328 1323.58 745.933 1323.58 Q748.147 1323.58 749.478 1322.02 Q750.823 1320.44 750.823 1317.83 L750.823 1317.24 L748.176 1317.24 M753.485 1316.14 L753.485 1325.39 L750.823 1325.39 L750.823 1322.93 Q749.912 1324.4 748.552 1325.11 Q747.192 1325.81 745.225 1325.81 Q742.736 1325.81 741.26 1324.42 Q739.799 1323.01 739.799 1320.67 Q739.799 1317.94 741.622 1316.55 Q743.46 1315.16 747.091 1315.16 L750.823 1315.16 L750.823 1314.9 Q750.823 1313.06 749.608 1312.06 Q748.407 1311.05 746.223 1311.05 Q744.834 1311.05 743.517 1311.38 Q742.201 1311.71 740.986 1312.38 L740.986 1309.92 Q742.447 1309.36 743.821 1309.08 Q745.196 1308.79 746.498 1308.79 Q750.013 1308.79 751.749 1310.61 Q753.485 1312.44 753.485 1316.14 Z" fill="#000000" fill-rule="evenodd" fill-opacity="1" /><path clip-path="url(#clip150)" d="M 0 0 M769.747 1315.61 L769.747 1325.39 L767.085 1325.39 L767.085 1315.69 Q767.085 1313.39 766.188 1312.25 Q765.291 1311.11 763.497 1311.11 Q761.341 1311.11 760.097 1312.48 Q758.853 1313.86 758.853 1316.23 L758.853 1325.39 L756.176 1325.39 L756.176 1309.18 L758.853 1309.18 L758.853 1311.7 Q759.808 1310.24 761.095 1309.52 Q762.397 1308.79 764.09 1308.79 Q766.882 1308.79 768.315 1310.53 Q769.747 1312.25 769.747 1315.61 Z" fill="#000000" fill-rule="evenodd" fill-opacity="1" /><path clip-path="url(#clip150)" d="M 0 0 M784.2 1309.8 L784.2 1312.29 Q783.072 1311.67 781.929 1311.37 Q780.8 1311.05 779.643 1311.05 Q777.053 1311.05 775.621 1312.7 Q774.189 1314.33 774.189 1317.3 Q774.189 1320.26 775.621 1321.91 Q777.053 1323.55 779.643 1323.55 Q780.8 1323.55 781.929 1323.25 Q783.072 1322.93 784.2 1322.3 L784.2 1324.76 Q783.086 1325.29 781.885 1325.55 Q780.699 1325.81 779.353 1325.81 Q775.693 1325.81 773.537 1323.51 Q771.382 1321.21 771.382 1317.3 Q771.382 1313.33 773.552 1311.06 Q775.737 1308.79 779.527 1308.79 Q780.757 1308.79 781.929 1309.05 Q783.1 1309.3 784.2 1309.8 Z" fill="#000000" fill-rule="evenodd" fill-opacity="1" /><path clip-path="url(#clip150)" d="M 0 0 M800.852 1316.62 L800.852 1317.92 L788.613 1317.92 Q788.786 1320.67 790.262 1322.12 Q791.752 1323.55 794.4 1323.55 Q795.933 1323.55 797.365 1323.17 Q798.812 1322.8 800.23 1322.04 L800.23 1324.56 Q798.798 1325.17 797.293 1325.49 Q795.789 1325.81 794.24 1325.81 Q790.363 1325.81 788.092 1323.55 Q785.835 1321.29 785.835 1317.44 Q785.835 1313.47 787.976 1311.14 Q790.132 1308.79 793.778 1308.79 Q797.047 1308.79 798.942 1310.9 Q800.852 1313 800.852 1316.62 M798.19 1315.84 Q798.161 1313.65 796.96 1312.35 Q795.774 1311.05 793.806 1311.05 Q791.578 1311.05 790.233 1312.31 Q788.902 1313.57 788.699 1315.85 L798.19 1315.84 Z" fill="#000000" fill-rule="evenodd" fill-opacity="1" /><path clip-path="url(#clip150)" d="M 0 0 M815.956 1330.31 L815.956 1332.37 L800.563 1332.37 L800.563 1330.31 L815.956 1330.31 Z" fill="#000000" fill-rule="evenodd" fill-opacity="1" /><path clip-path="url(#clip150)" d="M 0 0 M821.787 1306.19 L821.787 1314.3 L825.461 1314.3 Q827.501 1314.3 828.615 1313.25 Q829.729 1312.19 829.729 1310.24 Q829.729 1308.3 828.615 1307.24 Q827.501 1306.19 825.461 1306.19 L821.787 1306.19 M818.864 1303.79 L825.461 1303.79 Q829.093 1303.79 830.945 1305.44 Q832.811 1307.07 832.811 1310.24 Q832.811 1313.44 830.945 1315.07 Q829.093 1316.71 825.461 1316.71 L821.787 1316.71 L821.787 1325.39 L818.864 1325.39 L818.864 1303.79 Z" fill="#000000" fill-rule="evenodd" fill-opacity="1" /><path clip-path="url(#clip150)" d="M 0 0 M841.636 1317.24 Q838.41 1317.24 837.166 1317.98 Q835.921 1318.72 835.921 1320.5 Q835.921 1321.91 836.847 1322.75 Q837.788 1323.58 839.394 1323.58 Q841.607 1323.58 842.938 1322.02 Q844.284 1320.44 844.284 1317.83 L844.284 1317.24 L841.636 1317.24 M846.946 1316.14 L846.946 1325.39 L844.284 1325.39 L844.284 1322.93 Q843.372 1324.4 842.012 1325.11 Q840.652 1325.81 838.685 1325.81 Q836.196 1325.81 834.721 1324.42 Q833.259 1323.01 833.259 1320.67 Q833.259 1317.94 835.082 1316.55 Q836.92 1315.16 840.551 1315.16 L844.284 1315.16 L844.284 1314.9 Q844.284 1313.06 843.068 1312.06 Q841.868 1311.05 839.683 1311.05 Q838.294 1311.05 836.978 1311.38 Q835.661 1311.71 834.446 1312.38 L834.446 1309.92 Q835.907 1309.36 837.281 1309.08 Q838.656 1308.79 839.958 1308.79 Q843.473 1308.79 845.21 1310.61 Q846.946 1312.44 846.946 1316.14 Z" fill="#000000" fill-rule="evenodd" fill-opacity="1" /><path clip-path="url(#clip150)" d="M 0 0 M859.127 1311.67 Q858.679 1311.41 858.143 1311.29 Q857.623 1311.16 856.986 1311.16 Q854.729 1311.16 853.514 1312.64 Q852.313 1314.1 852.313 1316.85 L852.313 1325.39 L849.637 1325.39 L849.637 1309.18 L852.313 1309.18 L852.313 1311.7 Q853.152 1310.22 854.498 1309.52 Q855.843 1308.79 857.767 1308.79 Q858.042 1308.79 858.375 1308.84 Q858.708 1308.86 859.113 1308.94 L859.127 1311.67 Z" fill="#000000" fill-rule="evenodd" fill-opacity="1" /><path clip-path="url(#clip150)" d="M 0 0 M869.283 1317.24 Q866.057 1317.24 864.813 1317.98 Q863.569 1318.72 863.569 1320.5 Q863.569 1321.91 864.495 1322.75 Q865.435 1323.58 867.041 1323.58 Q869.255 1323.58 870.586 1322.02 Q871.931 1320.44 871.931 1317.83 L871.931 1317.24 L869.283 1317.24 M874.593 1316.14 L874.593 1325.39 L871.931 1325.39 L871.931 1322.93 Q871.02 1324.4 869.66 1325.11 Q868.3 1325.81 866.332 1325.81 Q863.844 1325.81 862.368 1324.42 Q860.907 1323.01 860.907 1320.67 Q860.907 1317.94 862.73 1316.55 Q864.567 1315.16 868.198 1315.16 L871.931 1315.16 L871.931 1314.9 Q871.931 1313.06 870.716 1312.06 Q869.515 1311.05 867.33 1311.05 Q865.941 1311.05 864.625 1311.38 Q863.308 1311.71 862.093 1312.38 L862.093 1309.92 Q863.554 1309.36 864.929 1309.08 Q866.303 1308.79 867.605 1308.79 Q871.121 1308.79 872.857 1310.61 Q874.593 1312.44 874.593 1316.14 Z" fill="#000000" fill-rule="evenodd" fill-opacity="1" /><path clip-path="url(#clip150)" d="M 0 0 M890.001 1312.29 Q890.999 1310.5 892.388 1309.65 Q893.777 1308.79 895.658 1308.79 Q898.19 1308.79 899.564 1310.57 Q900.938 1312.34 900.938 1315.61 L900.938 1325.39 L898.262 1325.39 L898.262 1315.69 Q898.262 1313.36 897.437 1312.24 Q896.613 1311.11 894.92 1311.11 Q892.851 1311.11 891.65 1312.48 Q890.449 1313.86 890.449 1316.23 L890.449 1325.39 L887.773 1325.39 L887.773 1315.69 Q887.773 1313.35 886.948 1312.24 Q886.124 1311.11 884.402 1311.11 Q882.362 1311.11 881.161 1312.5 Q879.961 1313.87 879.961 1316.23 L879.961 1325.39 L877.284 1325.39 L877.284 1309.18 L879.961 1309.18 L879.961 1311.7 Q880.872 1310.21 882.145 1309.5 Q883.418 1308.79 885.169 1308.79 Q886.934 1308.79 888.164 1309.69 Q889.408 1310.59 890.001 1312.29 Z" fill="#000000" fill-rule="evenodd" fill-opacity="1" /><path clip-path="url(#clip150)" d="M 0 0 M917.591 1316.62 L917.591 1317.92 L905.351 1317.92 Q905.525 1320.67 907 1322.12 Q908.49 1323.55 911.138 1323.55 Q912.672 1323.55 914.104 1323.17 Q915.551 1322.8 916.968 1322.04 L916.968 1324.56 Q915.536 1325.17 914.032 1325.49 Q912.527 1325.81 910.979 1325.81 Q907.102 1325.81 904.83 1323.55 Q902.573 1321.29 902.573 1317.44 Q902.573 1313.47 904.714 1311.14 Q906.87 1308.79 910.516 1308.79 Q913.786 1308.79 915.681 1310.9 Q917.591 1313 917.591 1316.62 M914.928 1315.84 Q914.9 1313.65 913.699 1312.35 Q912.512 1311.05 910.545 1311.05 Q908.317 1311.05 906.971 1312.31 Q905.64 1313.57 905.438 1315.85 L914.928 1315.84 Z" fill="#000000" fill-rule="evenodd" fill-opacity="1" /><path clip-path="url(#clip150)" d="M 0 0 M923.016 1304.58 L923.016 1309.18 L928.499 1309.18 L928.499 1311.25 L923.016 1311.25 L923.016 1320.05 Q923.016 1322.03 923.551 1322.59 Q924.101 1323.16 925.765 1323.16 L928.499 1323.16 L928.499 1325.39 L925.765 1325.39 Q922.683 1325.39 921.511 1324.24 Q920.339 1323.09 920.339 1320.05 L920.339 1311.25 L918.386 1311.25 L918.386 1309.18 L920.339 1309.18 L920.339 1304.58 L923.016 1304.58 Z" fill="#000000" fill-rule="evenodd" fill-opacity="1" /><path clip-path="url(#clip150)" d="M 0 0 M945.151 1316.62 L945.151 1317.92 L932.912 1317.92 Q933.085 1320.67 934.561 1322.12 Q936.051 1323.55 938.699 1323.55 Q940.232 1323.55 941.664 1323.17 Q943.111 1322.8 944.529 1322.04 L944.529 1324.56 Q943.097 1325.17 941.592 1325.49 Q940.088 1325.81 938.539 1325.81 Q934.662 1325.81 932.391 1323.55 Q930.134 1321.29 930.134 1317.44 Q930.134 1313.47 932.275 1311.14 Q934.431 1308.79 938.077 1308.79 Q941.346 1308.79 943.241 1310.9 Q945.151 1313 945.151 1316.62 M942.489 1315.84 Q942.46 1313.65 941.259 1312.35 Q940.073 1311.05 938.105 1311.05 Q935.877 1311.05 934.532 1312.31 Q933.201 1313.57 932.998 1315.85 L942.489 1315.84 Z" fill="#000000" fill-rule="evenodd" fill-opacity="1" /><path clip-path="url(#clip150)" d="M 0 0 M957.333 1311.67 Q956.884 1311.41 956.349 1311.29 Q955.828 1311.16 955.192 1311.16 Q952.935 1311.16 951.719 1312.64 Q950.519 1314.1 950.519 1316.85 L950.519 1325.39 L947.842 1325.39 L947.842 1309.18 L950.519 1309.18 L950.519 1311.7 Q951.358 1310.22 952.703 1309.52 Q954.049 1308.79 955.973 1308.79 Q956.248 1308.79 956.58 1308.84 Q956.913 1308.86 957.318 1308.94 L957.333 1311.67 Z" fill="#000000" fill-rule="evenodd" fill-opacity="1" /><path clip-path="url(#clip150)" d="M 0 0 M970.455 1309.66 L970.455 1312.18 Q969.326 1311.6 968.111 1311.31 Q966.896 1311.02 965.594 1311.02 Q963.612 1311.02 962.613 1311.63 Q961.63 1312.24 961.63 1313.45 Q961.63 1314.38 962.339 1314.91 Q963.047 1315.43 965.189 1315.91 L966.1 1316.11 Q968.936 1316.72 970.122 1317.83 Q971.323 1318.93 971.323 1320.92 Q971.323 1323.17 969.529 1324.49 Q967.749 1325.81 964.624 1325.81 Q963.322 1325.81 961.905 1325.55 Q960.501 1325.3 958.939 1324.79 L958.939 1322.04 Q960.414 1322.81 961.847 1323.2 Q963.279 1323.58 964.682 1323.58 Q966.563 1323.58 967.576 1322.94 Q968.589 1322.29 968.589 1321.12 Q968.589 1320.03 967.851 1319.45 Q967.127 1318.88 964.653 1318.34 L963.727 1318.12 Q961.253 1317.6 960.154 1316.53 Q959.054 1315.45 959.054 1313.57 Q959.054 1311.28 960.675 1310.04 Q962.295 1308.79 965.275 1308.79 Q966.751 1308.79 968.053 1309.01 Q969.355 1309.23 970.455 1309.66 Z" fill="#000000" fill-rule="evenodd" fill-opacity="1" /><path clip-path="url(#clip150)" d="M 0 0 M1000.82 1098.97 L1000.82 1102.05 Q999.348 1100.67 997.67 1099.99 Q996.006 1099.31 994.126 1099.31 Q990.422 1099.31 988.454 1101.59 Q986.487 1103.84 986.487 1108.12 Q986.487 1112.39 988.454 1114.66 Q990.422 1116.92 994.126 1116.92 Q996.006 1116.92 997.67 1116.24 Q999.348 1115.56 1000.82 1114.19 L1000.82 1117.24 Q999.29 1118.28 997.569 1118.8 Q995.862 1119.32 993.952 1119.32 Q989.047 1119.32 986.226 1116.33 Q983.405 1113.32 983.405 1108.12 Q983.405 1102.92 986.226 1099.92 Q989.047 1096.91 993.952 1096.91 Q995.891 1096.91 997.598 1097.43 Q999.319 1097.94 1000.82 1098.97 Z" fill="#000000" fill-rule="evenodd" fill-opacity="1" /><path clip-path="url(#clip150)" d="M 0 0 M1003.62 1096.39 L1006.28 1096.39 L1006.28 1118.9 L1003.62 1118.9 L1003.62 1096.39 Z" fill="#000000" fill-rule="evenodd" fill-opacity="1" /><path clip-path="url(#clip150)" d="M 0 0 M1009.07 1102.7 L1011.73 1102.7 L1011.73 1118.9 L1009.07 1118.9 L1009.07 1102.7 M1009.07 1096.39 L1011.73 1096.39 L1011.73 1099.76 L1009.07 1099.76 L1009.07 1096.39 Z" fill="#000000" fill-rule="evenodd" fill-opacity="1" /><path clip-path="url(#clip150)" d="M 0 0 M1028.38 1110.14 L1028.38 1111.44 L1016.15 1111.44 Q1016.32 1114.19 1017.79 1115.63 Q1019.28 1117.07 1021.93 1117.07 Q1023.47 1117.07 1024.9 1116.69 Q1026.34 1116.31 1027.76 1115.56 L1027.76 1118.08 Q1026.33 1118.69 1024.83 1119 Q1023.32 1119.32 1021.77 1119.32 Q1017.9 1119.32 1015.62 1117.07 Q1013.37 1114.81 1013.37 1110.96 Q1013.37 1106.98 1015.51 1104.65 Q1017.66 1102.31 1021.31 1102.31 Q1024.58 1102.31 1026.47 1104.42 Q1028.38 1106.52 1028.38 1110.14 M1025.72 1109.35 Q1025.69 1107.17 1024.49 1105.87 Q1023.31 1104.57 1021.34 1104.57 Q1019.11 1104.57 1017.77 1105.82 Q1016.43 1107.08 1016.23 1109.37 L1025.72 1109.35 Z" fill="#000000" fill-rule="evenodd" fill-opacity="1" /><path clip-path="url(#clip150)" d="M 0 0 M1044.65 1109.12 L1044.65 1118.9 L1041.98 1118.9 L1041.98 1109.21 Q1041.98 1106.91 1041.09 1105.77 Q1040.19 1104.62 1038.4 1104.62 Q1036.24 1104.62 1035 1106 Q1033.75 1107.37 1033.75 1109.75 L1033.75 1118.9 L1031.08 1118.9 L1031.08 1102.7 L1033.75 1102.7 L1033.75 1105.22 Q1034.71 1103.76 1035.99 1103.03 Q1037.3 1102.31 1038.99 1102.31 Q1041.78 1102.31 1043.21 1104.05 Q1044.65 1105.77 1044.65 1109.12 Z" fill="#000000" fill-rule="evenodd" fill-opacity="1" /><path clip-path="url(#clip150)" d="M 0 0 M1050.07 1098.1 L1050.07 1102.7 L1055.55 1102.7 L1055.55 1104.77 L1050.07 1104.77 L1050.07 1113.56 Q1050.07 1115.55 1050.61 1116.11 Q1051.16 1116.68 1052.82 1116.68 L1055.55 1116.68 L1055.55 1118.9 L1052.82 1118.9 Q1049.74 1118.9 1048.57 1117.76 Q1047.39 1116.6 1047.39 1113.56 L1047.39 1104.77 L1045.44 1104.77 L1045.44 1102.7 L1047.39 1102.7 L1047.39 1098.1 L1050.07 1098.1 Z" fill="#000000" fill-rule="evenodd" fill-opacity="1" /><path clip-path="url(#clip150)" d="M 0 0 M1070.66 1123.82 L1070.66 1125.89 L1055.27 1125.89 L1055.27 1123.82 L1070.66 1123.82 Z" fill="#000000" fill-rule="evenodd" fill-opacity="1" /><path clip-path="url(#clip150)" d="M 0 0 M1080.81 1110.76 Q1077.59 1110.76 1076.34 1111.5 Q1075.1 1112.23 1075.1 1114.01 Q1075.1 1115.43 1076.03 1116.27 Q1076.97 1117.09 1078.57 1117.09 Q1080.79 1117.09 1082.12 1115.53 Q1083.46 1113.96 1083.46 1111.35 L1083.46 1110.76 L1080.81 1110.76 M1086.12 1109.66 L1086.12 1118.9 L1083.46 1118.9 L1083.46 1116.44 Q1082.55 1117.92 1081.19 1118.63 Q1079.83 1119.32 1077.86 1119.32 Q1075.38 1119.32 1073.9 1117.93 Q1072.44 1116.53 1072.44 1114.19 Q1072.44 1111.45 1074.26 1110.06 Q1076.1 1108.67 1079.73 1108.67 L1083.46 1108.67 L1083.46 1108.41 Q1083.46 1106.58 1082.25 1105.58 Q1081.05 1104.57 1078.86 1104.57 Q1077.47 1104.57 1076.16 1104.9 Q1074.84 1105.23 1073.62 1105.9 L1073.62 1103.44 Q1075.09 1102.87 1076.46 1102.6 Q1077.83 1102.31 1079.14 1102.31 Q1082.65 1102.31 1084.39 1104.13 Q1086.12 1105.95 1086.12 1109.66 Z" fill="#000000" fill-rule="evenodd" fill-opacity="1" /><path clip-path="url(#clip150)" d="M 0 0 M1102.39 1109.12 L1102.39 1118.9 L1099.72 1118.9 L1099.72 1109.21 Q1099.72 1106.91 1098.83 1105.77 Q1097.93 1104.62 1096.14 1104.62 Q1093.98 1104.62 1092.74 1106 Q1091.49 1107.37 1091.49 1109.75 L1091.49 1118.9 L1088.82 1118.9 L1088.82 1102.7 L1091.49 1102.7 L1091.49 1105.22 Q1092.45 1103.76 1093.73 1103.03 Q1095.04 1102.31 1096.73 1102.31 Q1099.52 1102.31 1100.95 1104.05 Q1102.39 1105.77 1102.39 1109.12 Z" fill="#000000" fill-rule="evenodd" fill-opacity="1" /><path clip-path="url(#clip150)" d="M 0 0 M1115.84 1105.16 L1115.84 1096.39 L1118.5 1096.39 L1118.5 1118.9 L1115.84 1118.9 L1115.84 1116.47 Q1115 1117.92 1113.71 1118.63 Q1112.44 1119.32 1110.65 1119.32 Q1107.71 1119.32 1105.86 1116.98 Q1104.02 1114.64 1104.02 1110.82 Q1104.02 1107 1105.86 1104.65 Q1107.71 1102.31 1110.65 1102.31 Q1112.44 1102.31 1113.71 1103.02 Q1115 1103.71 1115.84 1105.16 M1106.77 1110.82 Q1106.77 1113.75 1107.97 1115.43 Q1109.19 1117.09 1111.3 1117.09 Q1113.41 1117.09 1114.63 1115.43 Q1115.84 1113.75 1115.84 1110.82 Q1115.84 1107.88 1114.63 1106.22 Q1113.41 1104.54 1111.3 1104.54 Q1109.19 1104.54 1107.97 1106.22 Q1106.77 1107.88 1106.77 1110.82 Z" fill="#000000" fill-rule="evenodd" fill-opacity="1" /><path clip-path="url(#clip150)" d="M 0 0 M1133.61 1123.82 L1133.61 1125.89 L1118.21 1125.89 L1118.21 1123.82 L1133.61 1123.82 Z" fill="#000000" fill-rule="evenodd" fill-opacity="1" /><path clip-path="url(#clip150)" d="M 0 0 M1152.69 1098.97 L1152.69 1102.05 Q1151.21 1100.67 1149.54 1099.99 Q1147.87 1099.31 1145.99 1099.31 Q1142.29 1099.31 1140.32 1101.59 Q1138.35 1103.84 1138.35 1108.12 Q1138.35 1112.39 1140.32 1114.66 Q1142.29 1116.92 1145.99 1116.92 Q1147.87 1116.92 1149.54 1116.24 Q1151.21 1115.56 1152.69 1114.19 L1152.69 1117.24 Q1151.16 1118.28 1149.43 1118.8 Q1147.73 1119.32 1145.82 1119.32 Q1140.91 1119.32 1138.09 1116.33 Q1135.27 1113.32 1135.27 1108.12 Q1135.27 1102.92 1138.09 1099.92 Q1140.91 1096.91 1145.82 1096.91 Q1147.76 1096.91 1149.46 1097.43 Q1151.18 1097.94 1152.69 1098.97 Z" fill="#000000" fill-rule="evenodd" fill-opacity="1" /><path clip-path="url(#clip150)" d="M 0 0 M1161.76 1104.57 Q1159.62 1104.57 1158.38 1106.24 Q1157.13 1107.91 1157.13 1110.82 Q1157.13 1113.72 1158.36 1115.4 Q1159.6 1117.07 1161.76 1117.07 Q1163.89 1117.07 1165.13 1115.39 Q1166.38 1113.71 1166.38 1110.82 Q1166.38 1107.94 1165.13 1106.26 Q1163.89 1104.57 1161.76 1104.57 M1161.76 1102.31 Q1165.23 1102.31 1167.21 1104.57 Q1169.2 1106.82 1169.2 1110.82 Q1169.2 1114.79 1167.21 1117.07 Q1165.23 1119.32 1161.76 1119.32 Q1158.27 1119.32 1156.29 1117.07 Q1154.32 1114.79 1154.32 1110.82 Q1154.32 1106.82 1156.29 1104.57 Q1158.27 1102.31 1161.76 1102.31 Z" fill="#000000" fill-rule="evenodd" fill-opacity="1" /><path clip-path="url(#clip150)" d="M 0 0 M1185.46 1109.12 L1185.46 1118.9 L1182.8 1118.9 L1182.8 1109.21 Q1182.8 1106.91 1181.9 1105.77 Q1181 1104.62 1179.21 1104.62 Q1177.05 1104.62 1175.81 1106 Q1174.56 1107.37 1174.56 1109.75 L1174.56 1118.9 L1171.89 1118.9 L1171.89 1102.7 L1174.56 1102.7 L1174.56 1105.22 Q1175.52 1103.76 1176.81 1103.03 Q1178.11 1102.31 1179.8 1102.31 Q1182.59 1102.31 1184.03 1104.05 Q1185.46 1105.77 1185.46 1109.12 Z" fill="#000000" fill-rule="evenodd" fill-opacity="1" /><path clip-path="url(#clip150)" d="M 0 0 M1198.58 1103.18 L1198.58 1105.69 Q1197.45 1105.12 1196.24 1104.83 Q1195.02 1104.54 1193.72 1104.54 Q1191.74 1104.54 1190.74 1105.14 Q1189.76 1105.75 1189.76 1106.97 Q1189.76 1107.89 1190.46 1108.43 Q1191.17 1108.95 1193.31 1109.43 L1194.23 1109.63 Q1197.06 1110.24 1198.25 1111.35 Q1199.45 1112.45 1199.45 1114.43 Q1199.45 1116.69 1197.65 1118.01 Q1195.88 1119.32 1192.75 1119.32 Q1191.45 1119.32 1190.03 1119.06 Q1188.63 1118.82 1187.06 1118.31 L1187.06 1115.56 Q1188.54 1116.33 1189.97 1116.72 Q1191.4 1117.09 1192.81 1117.09 Q1194.69 1117.09 1195.7 1116.46 Q1196.71 1115.81 1196.71 1114.64 Q1196.71 1113.55 1195.98 1112.97 Q1195.25 1112.39 1192.78 1111.86 L1191.85 1111.64 Q1189.38 1111.12 1188.28 1110.05 Q1187.18 1108.96 1187.18 1107.08 Q1187.18 1104.8 1188.8 1103.55 Q1190.42 1102.31 1193.4 1102.31 Q1194.88 1102.31 1196.18 1102.53 Q1197.48 1102.74 1198.58 1103.18 Z" fill="#000000" fill-rule="evenodd" fill-opacity="1" /><path clip-path="url(#clip150)" d="M 0 0 M1201.97 1112.51 L1201.97 1102.7 L1204.63 1102.7 L1204.63 1112.41 Q1204.63 1114.71 1205.52 1115.87 Q1206.42 1117.01 1208.22 1117.01 Q1210.37 1117.01 1211.62 1115.63 Q1212.87 1114.26 1212.87 1111.89 L1212.87 1102.7 L1215.54 1102.7 L1215.54 1118.9 L1212.87 1118.9 L1212.87 1116.41 Q1211.91 1117.89 1210.62 1118.61 Q1209.34 1119.32 1207.65 1119.32 Q1204.86 1119.32 1203.41 1117.59 Q1201.97 1115.85 1201.97 1112.51 M1208.66 1102.31 L1208.66 1102.31 Z" fill="#000000" fill-rule="evenodd" fill-opacity="1" /><path clip-path="url(#clip150)" d="M 0 0 M1218.33 1096.39 L1220.99 1096.39 L1220.99 1118.9 L1218.33 1118.9 L1218.33 1096.39 Z" fill="#000000" fill-rule="evenodd" fill-opacity="1" /><path clip-path="url(#clip150)" d="M 0 0 M1226.42 1098.1 L1226.42 1102.7 L1231.9 1102.7 L1231.9 1104.77 L1226.42 1104.77 L1226.42 1113.56 Q1226.42 1115.55 1226.95 1116.11 Q1227.5 1116.68 1229.16 1116.68 L1231.9 1116.68 L1231.9 1118.9 L1229.16 1118.9 Q1226.08 1118.9 1224.91 1117.76 Q1223.74 1116.6 1223.74 1113.56 L1223.74 1104.77 L1221.79 1104.77 L1221.79 1102.7 L1223.74 1102.7 L1223.74 1098.1 L1226.42 1098.1 Z" fill="#000000" fill-rule="evenodd" fill-opacity="1" /><path clip-path="url(#clip150)" d="M 0 0 M1242.06 1110.76 Q1238.83 1110.76 1237.58 1111.5 Q1236.34 1112.23 1236.34 1114.01 Q1236.34 1115.43 1237.27 1116.27 Q1238.21 1117.09 1239.81 1117.09 Q1242.03 1117.09 1243.36 1115.53 Q1244.7 1113.96 1244.7 1111.35 L1244.7 1110.76 L1242.06 1110.76 M1247.36 1109.66 L1247.36 1118.9 L1244.7 1118.9 L1244.7 1116.44 Q1243.79 1117.92 1242.43 1118.63 Q1241.07 1119.32 1239.1 1119.32 Q1236.62 1119.32 1235.14 1117.93 Q1233.68 1116.53 1233.68 1114.19 Q1233.68 1111.45 1235.5 1110.06 Q1237.34 1108.67 1240.97 1108.67 L1244.7 1108.67 L1244.7 1108.41 Q1244.7 1106.58 1243.49 1105.58 Q1242.29 1104.57 1240.1 1104.57 Q1238.71 1104.57 1237.4 1104.9 Q1236.08 1105.23 1234.86 1105.9 L1234.86 1103.44 Q1236.33 1102.87 1237.7 1102.6 Q1239.08 1102.31 1240.38 1102.31 Q1243.89 1102.31 1245.63 1104.13 Q1247.36 1105.95 1247.36 1109.66 Z" fill="#000000" fill-rule="evenodd" fill-opacity="1" /><path clip-path="url(#clip150)" d="M 0 0 M1263.63 1109.12 L1263.63 1118.9 L1260.96 1118.9 L1260.96 1109.21 Q1260.96 1106.91 1260.07 1105.77 Q1259.17 1104.62 1257.38 1104.62 Q1255.22 1104.62 1253.98 1106 Q1252.73 1107.37 1252.73 1109.75 L1252.73 1118.9 L1250.06 1118.9 L1250.06 1102.7 L1252.73 1102.7 L1252.73 1105.22 Q1253.69 1103.76 1254.97 1103.03 Q1256.28 1102.31 1257.97 1102.31 Q1260.76 1102.31 1262.19 1104.05 Q1263.63 1105.77 1263.63 1109.12 Z" fill="#000000" fill-rule="evenodd" fill-opacity="1" /><path clip-path="url(#clip150)" d="M 0 0 M1269.05 1098.1 L1269.05 1102.7 L1274.53 1102.7 L1274.53 1104.77 L1269.05 1104.77 L1269.05 1113.56 Q1269.05 1115.55 1269.59 1116.11 Q1270.14 1116.68 1271.8 1116.68 L1274.53 1116.68 L1274.53 1118.9 L1271.8 1118.9 Q1268.72 1118.9 1267.55 1117.76 Q1266.38 1116.6 1266.38 1113.56 L1266.38 1104.77 L1264.42 1104.77 L1264.42 1102.7 L1266.38 1102.7 L1266.38 1098.1 L1269.05 1098.1 Z" fill="#000000" fill-rule="evenodd" fill-opacity="1" /><path clip-path="url(#clip150)" d="M 0 0 M1289.64 1123.82 L1289.64 1125.89 L1274.25 1125.89 L1274.25 1123.82 L1289.64 1123.82 Z" fill="#000000" fill-rule="evenodd" fill-opacity="1" /><path clip-path="url(#clip150)" d="M 0 0 M1302.79 1108.78 Q1303.73 1109.09 1304.61 1110.14 Q1305.51 1111.18 1306.41 1113 L1309.37 1118.9 L1306.23 1118.9 L1303.47 1113.36 Q1302.4 1111.19 1301.39 1110.48 Q1300.39 1109.77 1298.65 1109.77 L1295.47 1109.77 L1295.47 1118.9 L1292.55 1118.9 L1292.55 1097.3 L1299.14 1097.3 Q1302.85 1097.3 1304.67 1098.85 Q1306.49 1100.4 1306.49 1103.52 Q1306.49 1105.56 1305.54 1106.91 Q1304.6 1108.26 1302.79 1108.78 M1295.47 1099.7 L1295.47 1107.37 L1299.14 1107.37 Q1301.26 1107.37 1302.33 1106.4 Q1303.41 1105.42 1303.41 1103.52 Q1303.41 1101.63 1302.33 1100.67 Q1301.26 1099.7 1299.14 1099.7 L1295.47 1099.7 Z" fill="#000000" fill-rule="evenodd" fill-opacity="1" /><path clip-path="url(#clip150)" d="M 0 0 M1324.69 1110.14 L1324.69 1111.44 L1312.45 1111.44 Q1312.63 1114.19 1314.1 1115.63 Q1315.59 1117.07 1318.24 1117.07 Q1319.77 1117.07 1321.21 1116.69 Q1322.65 1116.31 1324.07 1115.56 L1324.07 1118.08 Q1322.64 1118.69 1321.13 1119 Q1319.63 1119.32 1318.08 1119.32 Q1314.2 1119.32 1311.93 1117.07 Q1309.68 1114.81 1309.68 1110.96 Q1309.68 1106.98 1311.82 1104.65 Q1313.97 1102.31 1317.62 1102.31 Q1320.89 1102.31 1322.78 1104.42 Q1324.69 1106.52 1324.69 1110.14 M1322.03 1109.35 Q1322 1107.17 1320.8 1105.87 Q1319.62 1104.57 1317.65 1104.57 Q1315.42 1104.57 1314.07 1105.82 Q1312.74 1107.08 1312.54 1109.37 L1322.03 1109.35 Z" fill="#000000" fill-rule="evenodd" fill-opacity="1" /><path clip-path="url(#clip150)" d="M 0 0 M1329.08 1110.82 Q1329.08 1113.75 1330.28 1115.43 Q1331.49 1117.09 1333.61 1117.09 Q1335.72 1117.09 1336.93 1115.43 Q1338.15 1113.75 1338.15 1110.82 Q1338.15 1107.88 1336.93 1106.22 Q1335.72 1104.54 1333.61 1104.54 Q1331.49 1104.54 1330.28 1106.22 Q1329.08 1107.88 1329.08 1110.82 M1338.15 1116.47 Q1337.31 1117.92 1336.02 1118.63 Q1334.75 1119.32 1332.95 1119.32 Q1330.02 1119.32 1328.17 1116.98 Q1326.33 1114.64 1326.33 1110.82 Q1326.33 1107 1328.17 1104.65 Q1330.02 1102.31 1332.95 1102.31 Q1334.75 1102.31 1336.02 1103.02 Q1337.31 1103.71 1338.15 1105.16 L1338.15 1102.7 L1340.81 1102.7 L1340.81 1125.07 L1338.15 1125.07 L1338.15 1116.47 Z" fill="#000000" fill-rule="evenodd" fill-opacity="1" /><path clip-path="url(#clip150)" d="M 0 0 M1343.33 1112.51 L1343.33 1102.7 L1345.99 1102.7 L1345.99 1112.41 Q1345.99 1114.71 1346.89 1115.87 Q1347.78 1117.01 1349.58 1117.01 Q1351.73 1117.01 1352.98 1115.63 Q1354.24 1114.26 1354.24 1111.89 L1354.24 1102.7 L1356.9 1102.7 L1356.9 1118.9 L1354.24 1118.9 L1354.24 1116.41 Q1353.27 1117.89 1351.98 1118.61 Q1350.71 1119.32 1349.01 1119.32 Q1346.22 1119.32 1344.77 1117.59 Q1343.33 1115.85 1343.33 1112.51 M1350.03 1102.31 L1350.03 1102.31 Z" fill="#000000" fill-rule="evenodd" fill-opacity="1" /><path clip-path="url(#clip150)" d="M 0 0 M1373.55 1110.14 L1373.55 1111.44 L1361.31 1111.44 Q1361.48 1114.19 1362.96 1115.63 Q1364.45 1117.07 1367.1 1117.07 Q1368.63 1117.07 1370.06 1116.69 Q1371.51 1116.31 1372.93 1115.56 L1372.93 1118.08 Q1371.5 1118.69 1369.99 1119 Q1368.49 1119.32 1366.94 1119.32 Q1363.06 1119.32 1360.79 1117.07 Q1358.53 1114.81 1358.53 1110.96 Q1358.53 1106.98 1360.67 1104.65 Q1362.83 1102.31 1366.48 1102.31 Q1369.75 1102.31 1371.64 1104.42 Q1373.55 1106.52 1373.55 1110.14 M1370.89 1109.35 Q1370.86 1107.17 1369.66 1105.87 Q1368.47 1104.57 1366.5 1104.57 Q1364.28 1104.57 1362.93 1105.82 Q1361.6 1107.08 1361.4 1109.37 L1370.89 1109.35 Z" fill="#000000" fill-rule="evenodd" fill-opacity="1" /><path clip-path="url(#clip150)" d="M 0 0 M1386.67 1103.18 L1386.67 1105.69 Q1385.54 1105.12 1384.33 1104.83 Q1383.11 1104.54 1381.81 1104.54 Q1379.83 1104.54 1378.83 1105.14 Q1377.85 1105.75 1377.85 1106.97 Q1377.85 1107.89 1378.56 1108.43 Q1379.27 1108.95 1381.41 1109.43 L1382.32 1109.63 Q1385.15 1110.24 1386.34 1111.35 Q1387.54 1112.45 1387.54 1114.43 Q1387.54 1116.69 1385.75 1118.01 Q1383.97 1119.32 1380.84 1119.32 Q1379.54 1119.32 1378.12 1119.06 Q1376.72 1118.82 1375.16 1118.31 L1375.16 1115.56 Q1376.63 1116.33 1378.06 1116.72 Q1379.5 1117.09 1380.9 1117.09 Q1382.78 1117.09 1383.79 1116.46 Q1384.81 1115.81 1384.81 1114.64 Q1384.81 1113.55 1384.07 1112.97 Q1383.35 1112.39 1380.87 1111.86 L1379.95 1111.64 Q1377.47 1111.12 1376.37 1110.05 Q1375.27 1108.96 1375.27 1107.08 Q1375.27 1104.8 1376.89 1103.55 Q1378.51 1102.31 1381.49 1102.31 Q1382.97 1102.31 1384.27 1102.53 Q1385.57 1102.74 1386.67 1103.18 Z" fill="#000000" fill-rule="evenodd" fill-opacity="1" /><path clip-path="url(#clip150)" d="M 0 0 M1392.97 1098.1 L1392.97 1102.7 L1398.45 1102.7 L1398.45 1104.77 L1392.97 1104.77 L1392.97 1113.56 Q1392.97 1115.55 1393.5 1116.11 Q1394.05 1116.68 1395.71 1116.68 L1398.45 1116.68 L1398.45 1118.9 L1395.71 1118.9 Q1392.63 1118.9 1391.46 1117.76 Q1390.29 1116.6 1390.29 1113.56 L1390.29 1104.77 L1388.34 1104.77 L1388.34 1102.7 L1390.29 1102.7 L1390.29 1098.1 L1392.97 1098.1 Z" fill="#000000" fill-rule="evenodd" fill-opacity="1" /><path clip-path="url(#clip150)" d="M 0 0 M1411.57 1103.18 L1411.57 1105.69 Q1410.44 1105.12 1409.23 1104.83 Q1408.01 1104.54 1406.71 1104.54 Q1404.73 1104.54 1403.73 1105.14 Q1402.75 1105.75 1402.75 1106.97 Q1402.75 1107.89 1403.45 1108.43 Q1404.16 1108.95 1406.31 1109.43 L1407.22 1109.63 Q1410.05 1110.24 1411.24 1111.35 Q1412.44 1112.45 1412.44 1114.43 Q1412.44 1116.69 1410.65 1118.01 Q1408.87 1119.32 1405.74 1119.32 Q1404.44 1119.32 1403.02 1119.06 Q1401.62 1118.82 1400.06 1118.31 L1400.06 1115.56 Q1401.53 1116.33 1402.96 1116.72 Q1404.4 1117.09 1405.8 1117.09 Q1407.68 1117.09 1408.69 1116.46 Q1409.7 1115.81 1409.7 1114.64 Q1409.7 1113.55 1408.97 1112.97 Q1408.24 1112.39 1405.77 1111.86 L1404.84 1111.64 Q1402.37 1111.12 1401.27 1110.05 Q1400.17 1108.96 1400.17 1107.08 Q1400.17 1104.8 1401.79 1103.55 Q1403.41 1102.31 1406.39 1102.31 Q1407.87 1102.31 1409.17 1102.53 Q1410.47 1102.74 1411.57 1103.18 Z" fill="#000000" fill-rule="evenodd" fill-opacity="1" /><path clip-path="url(#clip150)" d="M 0 0 M762.238 849.914 L762.238 866.711 L765.769 866.711 Q770.239 866.711 772.308 864.685 Q774.391 862.66 774.391 858.291 Q774.391 853.951 772.308 851.94 Q770.239 849.914 765.769 849.914 L762.238 849.914 M759.316 847.513 L765.32 847.513 Q771.599 847.513 774.536 850.131 Q777.473 852.735 777.473 858.291 Q777.473 863.875 774.521 866.494 Q771.57 869.113 765.32 869.113 L759.316 869.113 L759.316 847.513 Z" fill="#000000" fill-rule="evenodd" fill-opacity="1" /><path clip-path="url(#clip150)" d="M 0 0 M794.125 860.345 L794.125 861.647 L781.885 861.647 Q782.059 864.396 783.535 865.843 Q785.025 867.275 787.672 867.275 Q789.206 867.275 790.638 866.899 Q792.085 866.523 793.503 865.771 L793.503 868.288 Q792.071 868.896 790.566 869.214 Q789.061 869.532 787.513 869.532 Q783.636 869.532 781.365 867.275 Q779.108 865.018 779.108 861.17 Q779.108 857.191 781.249 854.862 Q783.404 852.518 787.05 852.518 Q790.32 852.518 792.215 854.631 Q794.125 856.728 794.125 860.345 M791.463 859.564 Q791.434 857.379 790.233 856.077 Q789.047 854.775 787.079 854.775 Q784.851 854.775 783.506 856.034 Q782.175 857.293 781.972 859.578 L791.463 859.564 Z" fill="#000000" fill-rule="evenodd" fill-opacity="1" /><path clip-path="url(#clip150)" d="M 0 0 M807.247 853.386 L807.247 855.904 Q806.118 855.325 804.903 855.036 Q803.688 854.746 802.386 854.746 Q800.404 854.746 799.406 855.354 Q798.422 855.962 798.422 857.177 Q798.422 858.103 799.131 858.638 Q799.84 859.159 801.981 859.636 L802.892 859.839 Q805.728 860.447 806.914 861.561 Q808.115 862.66 808.115 864.642 Q808.115 866.899 806.321 868.216 Q804.541 869.532 801.417 869.532 Q800.114 869.532 798.697 869.272 Q797.293 869.026 795.731 868.519 L795.731 865.771 Q797.206 866.537 798.639 866.928 Q800.071 867.304 801.474 867.304 Q803.355 867.304 804.368 866.668 Q805.381 866.017 805.381 864.845 Q805.381 863.76 804.643 863.181 Q803.919 862.602 801.445 862.067 L800.52 861.85 Q798.046 861.329 796.946 860.258 Q795.847 859.173 795.847 857.293 Q795.847 855.007 797.467 853.763 Q799.087 852.518 802.068 852.518 Q803.543 852.518 804.845 852.735 Q806.147 852.952 807.247 853.386 Z" fill="#000000" fill-rule="evenodd" fill-opacity="1" /><path clip-path="url(#clip150)" d="M 0 0 M810.907 852.909 L813.569 852.909 L813.569 869.113 L810.907 869.113 L810.907 852.909 M810.907 846.601 L813.569 846.601 L813.569 849.972 L810.907 849.972 L810.907 846.601 Z" fill="#000000" fill-rule="evenodd" fill-opacity="1" /><path clip-path="url(#clip150)" d="M 0 0 M827.024 860.823 Q827.024 857.929 825.823 856.338 Q824.637 854.746 822.481 854.746 Q820.34 854.746 819.139 856.338 Q817.953 857.929 817.953 860.823 Q817.953 863.702 819.139 865.293 Q820.34 866.885 822.481 866.885 Q824.637 866.885 825.823 865.293 Q827.024 863.702 827.024 860.823 M829.686 867.102 Q829.686 871.239 827.849 873.25 Q826.011 875.276 822.221 875.276 Q820.817 875.276 819.573 875.059 Q818.329 874.856 817.157 874.422 L817.157 871.832 Q818.329 872.469 819.472 872.773 Q820.615 873.077 821.801 873.077 Q824.42 873.077 825.722 871.702 Q827.024 870.342 827.024 867.579 L827.024 866.262 Q826.199 867.695 824.912 868.404 Q823.624 869.113 821.83 869.113 Q818.85 869.113 817.027 866.841 Q815.204 864.57 815.204 860.823 Q815.204 857.061 817.027 854.79 Q818.85 852.518 821.83 852.518 Q823.624 852.518 824.912 853.227 Q826.199 853.936 827.024 855.368 L827.024 852.909 L829.686 852.909 L829.686 867.102 Z" fill="#000000" fill-rule="evenodd" fill-opacity="1" /><path clip-path="url(#clip150)" d="M 0 0 M845.948 859.333 L845.948 869.113 L843.286 869.113 L843.286 859.419 Q843.286 857.119 842.389 855.976 Q841.492 854.833 839.698 854.833 Q837.542 854.833 836.298 856.208 Q835.053 857.582 835.053 859.955 L835.053 869.113 L832.377 869.113 L832.377 852.909 L835.053 852.909 L835.053 855.426 Q836.008 853.965 837.296 853.242 Q838.598 852.518 840.291 852.518 Q843.083 852.518 844.515 854.254 Q845.948 855.976 845.948 859.333 Z" fill="#000000" fill-rule="evenodd" fill-opacity="1" /><path clip-path="url(#clip150)" d="M 0 0 M861.052 874.032 L861.052 876.1 L845.658 876.1 L845.658 874.032 L861.052 874.032 Z" fill="#000000" fill-rule="evenodd" fill-opacity="1" /><path clip-path="url(#clip150)" d="M 0 0 M874.203 858.985 Q875.143 859.304 876.025 860.345 Q876.922 861.387 877.819 863.21 L880.785 869.113 L877.646 869.113 L874.883 863.571 Q873.812 861.401 872.799 860.692 Q871.801 859.984 870.065 859.984 L866.882 859.984 L866.882 869.113 L863.96 869.113 L863.96 847.513 L870.557 847.513 Q874.26 847.513 876.083 849.061 Q877.906 850.609 877.906 853.734 Q877.906 855.774 876.951 857.119 Q876.011 858.464 874.203 858.985 M866.882 849.914 L866.882 857.582 L870.557 857.582 Q872.669 857.582 873.74 856.613 Q874.825 855.629 874.825 853.734 Q874.825 851.838 873.74 850.883 Q872.669 849.914 870.557 849.914 L866.882 849.914 Z" fill="#000000" fill-rule="evenodd" fill-opacity="1" /><path clip-path="url(#clip150)" d="M 0 0 M896.106 860.345 L896.106 861.647 L883.867 861.647 Q884.04 864.396 885.516 865.843 Q887.006 867.275 889.654 867.275 Q891.187 867.275 892.62 866.899 Q894.066 866.523 895.484 865.771 L895.484 868.288 Q894.052 868.896 892.547 869.214 Q891.043 869.532 889.495 869.532 Q885.617 869.532 883.346 867.275 Q881.089 865.018 881.089 861.17 Q881.089 857.191 883.23 854.862 Q885.386 852.518 889.032 852.518 Q892.301 852.518 894.197 854.631 Q896.106 856.728 896.106 860.345 M893.444 859.564 Q893.415 857.379 892.215 856.077 Q891.028 854.775 889.061 854.775 Q886.833 854.775 885.487 856.034 Q884.156 857.293 883.954 859.578 L893.444 859.564 Z" fill="#000000" fill-rule="evenodd" fill-opacity="1" /><path clip-path="url(#clip150)" d="M 0 0 M906.263 860.967 Q903.036 860.967 901.792 861.705 Q900.548 862.443 900.548 864.223 Q900.548 865.64 901.474 866.479 Q902.414 867.304 904.02 867.304 Q906.234 867.304 907.565 865.742 Q908.91 864.165 908.91 861.561 L908.91 860.967 L906.263 860.967 M911.572 859.868 L911.572 869.113 L908.91 869.113 L908.91 866.653 Q907.999 868.129 906.639 868.838 Q905.279 869.532 903.311 869.532 Q900.823 869.532 899.347 868.143 Q897.886 866.74 897.886 864.396 Q897.886 861.662 899.709 860.273 Q901.546 858.884 905.178 858.884 L908.91 858.884 L908.91 858.624 Q908.91 856.786 907.695 855.788 Q906.494 854.775 904.309 854.775 Q902.921 854.775 901.604 855.108 Q900.288 855.441 899.072 856.106 L899.072 853.647 Q900.533 853.083 901.908 852.808 Q903.282 852.518 904.584 852.518 Q908.1 852.518 909.836 854.341 Q911.572 856.164 911.572 859.868 Z" fill="#000000" fill-rule="evenodd" fill-opacity="1" /><path clip-path="url(#clip150)" d="M 0 0 M924.694 853.386 L924.694 855.904 Q923.566 855.325 922.35 855.036 Q921.135 854.746 919.833 854.746 Q917.851 854.746 916.853 855.354 Q915.869 855.962 915.869 857.177 Q915.869 858.103 916.578 858.638 Q917.287 859.159 919.428 859.636 L920.339 859.839 Q923.175 860.447 924.361 861.561 Q925.562 862.66 925.562 864.642 Q925.562 866.899 923.768 868.216 Q921.989 869.532 918.864 869.532 Q917.562 869.532 916.144 869.272 Q914.741 869.026 913.178 868.519 L913.178 865.771 Q914.654 866.537 916.086 866.928 Q917.518 867.304 918.922 867.304 Q920.802 867.304 921.815 866.668 Q922.828 866.017 922.828 864.845 Q922.828 863.76 922.09 863.181 Q921.367 862.602 918.893 862.067 L917.967 861.85 Q915.493 861.329 914.393 860.258 Q913.294 859.173 913.294 857.293 Q913.294 855.007 914.914 853.763 Q916.535 852.518 919.515 852.518 Q920.991 852.518 922.293 852.735 Q923.595 852.952 924.694 853.386 Z" fill="#000000" fill-rule="evenodd" fill-opacity="1" /><path clip-path="url(#clip150)" d="M 0 0 M934.633 854.775 Q932.492 854.775 931.248 856.453 Q930.004 858.117 930.004 861.025 Q930.004 863.933 931.234 865.611 Q932.478 867.275 934.633 867.275 Q936.76 867.275 938.004 865.597 Q939.249 863.919 939.249 861.025 Q939.249 858.146 938.004 856.468 Q936.76 854.775 934.633 854.775 M934.633 852.518 Q938.106 852.518 940.088 854.775 Q942.07 857.032 942.07 861.025 Q942.07 865.004 940.088 867.275 Q938.106 869.532 934.633 869.532 Q931.147 869.532 929.165 867.275 Q927.197 865.004 927.197 861.025 Q927.197 857.032 929.165 854.775 Q931.147 852.518 934.633 852.518 Z" fill="#000000" fill-rule="evenodd" fill-opacity="1" /><path clip-path="url(#clip150)" d="M 0 0 M958.331 859.333 L958.331 869.113 L955.669 869.113 L955.669 859.419 Q955.669 857.119 954.772 855.976 Q953.875 854.833 952.081 854.833 Q949.926 854.833 948.681 856.208 Q947.437 857.582 947.437 859.955 L947.437 869.113 L944.761 869.113 L944.761 852.909 L947.437 852.909 L947.437 855.426 Q948.392 853.965 949.68 853.242 Q950.982 852.518 952.674 852.518 Q955.467 852.518 956.899 854.254 Q958.331 855.976 958.331 859.333 Z" fill="#000000" fill-rule="evenodd" fill-opacity="1" /><path clip-path="url(#clip150)" d="M 0 0 M961.123 852.909 L963.785 852.909 L963.785 869.113 L961.123 869.113 L961.123 852.909 M961.123 846.601 L963.785 846.601 L963.785 849.972 L961.123 849.972 L961.123 846.601 Z" fill="#000000" fill-rule="evenodd" fill-opacity="1" /><path clip-path="url(#clip150)" d="M 0 0 M980.047 859.333 L980.047 869.113 L977.385 869.113 L977.385 859.419 Q977.385 857.119 976.488 855.976 Q975.591 854.833 973.797 854.833 Q971.641 854.833 970.397 856.208 Q969.153 857.582 969.153 859.955 L969.153 869.113 L966.476 869.113 L966.476 852.909 L969.153 852.909 L969.153 855.426 Q970.108 853.965 971.395 853.242 Q972.697 852.518 974.39 852.518 Q977.182 852.518 978.615 854.254 Q980.047 855.976 980.047 859.333 Z" fill="#000000" fill-rule="evenodd" fill-opacity="1" /><path clip-path="url(#clip150)" d="M 0 0 M993.502 860.823 Q993.502 857.929 992.301 856.338 Q991.115 854.746 988.959 854.746 Q986.818 854.746 985.617 856.338 Q984.431 857.929 984.431 860.823 Q984.431 863.702 985.617 865.293 Q986.818 866.885 988.959 866.885 Q991.115 866.885 992.301 865.293 Q993.502 863.702 993.502 860.823 M996.164 867.102 Q996.164 871.239 994.326 873.25 Q992.489 875.276 988.698 875.276 Q987.295 875.276 986.051 875.059 Q984.807 874.856 983.635 874.422 L983.635 871.832 Q984.807 872.469 985.95 872.773 Q987.093 873.077 988.279 873.077 Q990.898 873.077 992.2 871.702 Q993.502 870.342 993.502 867.579 L993.502 866.262 Q992.677 867.695 991.389 868.404 Q990.102 869.113 988.308 869.113 Q985.328 869.113 983.505 866.841 Q981.682 864.57 981.682 860.823 Q981.682 857.061 983.505 854.79 Q985.328 852.518 988.308 852.518 Q990.102 852.518 991.389 853.227 Q992.677 853.936 993.502 855.368 L993.502 852.909 L996.164 852.909 L996.164 867.102 Z" fill="#000000" fill-rule="evenodd" fill-opacity="1" /><path clip-path="url(#clip150)" d="M 0 0 M1554.31 1309.98 L1554.31 1313.07 Q1552.83 1311.69 1551.15 1311.01 Q1549.49 1310.33 1547.61 1310.33 Q1543.91 1310.33 1541.94 1312.6 Q1539.97 1314.86 1539.97 1319.14 Q1539.97 1323.41 1541.94 1325.68 Q1543.91 1327.94 1547.61 1327.94 Q1549.49 1327.94 1551.15 1327.26 Q1552.83 1326.58 1554.31 1325.2 L1554.31 1328.26 Q1552.77 1329.3 1551.05 1329.82 Q1549.34 1330.34 1547.44 1330.34 Q1542.53 1330.34 1539.71 1327.35 Q1536.89 1324.34 1536.89 1319.14 Q1536.89 1313.93 1539.71 1310.94 Q1542.53 1307.93 1547.44 1307.93 Q1549.37 1307.93 1551.08 1308.45 Q1552.8 1308.96 1554.31 1309.98 Z" fill="#000000" fill-rule="evenodd" fill-opacity="1" /><path clip-path="url(#clip150)" d="M 0 0 M1563.38 1315.58 Q1561.24 1315.58 1559.99 1317.26 Q1558.75 1318.93 1558.75 1321.83 Q1558.75 1324.74 1559.98 1326.42 Q1561.22 1328.08 1563.38 1328.08 Q1565.51 1328.08 1566.75 1326.41 Q1567.99 1324.73 1567.99 1321.83 Q1567.99 1318.95 1566.75 1317.28 Q1565.51 1315.58 1563.38 1315.58 M1563.38 1313.33 Q1566.85 1313.33 1568.83 1315.58 Q1570.81 1317.84 1570.81 1321.83 Q1570.81 1325.81 1568.83 1328.08 Q1566.85 1330.34 1563.38 1330.34 Q1559.89 1330.34 1557.91 1328.08 Q1555.94 1325.81 1555.94 1321.83 Q1555.94 1317.84 1557.91 1315.58 Q1559.89 1313.33 1563.38 1313.33 Z" fill="#000000" fill-rule="evenodd" fill-opacity="1" /><path clip-path="url(#clip150)" d="M 0 0 M1573.61 1307.41 L1576.27 1307.41 L1576.27 1329.92 L1573.61 1329.92 L1573.61 1307.41 Z" fill="#000000" fill-rule="evenodd" fill-opacity="1" /><path clip-path="url(#clip150)" d="M 0 0 M1579.06 1307.41 L1581.72 1307.41 L1581.72 1329.92 L1579.06 1329.92 L1579.06 1307.41 Z" fill="#000000" fill-rule="evenodd" fill-opacity="1" /><path clip-path="url(#clip150)" d="M 0 0 M1591.88 1321.78 Q1588.65 1321.78 1587.41 1322.51 Q1586.16 1323.25 1586.16 1325.03 Q1586.16 1326.45 1587.09 1327.29 Q1588.03 1328.11 1589.64 1328.11 Q1591.85 1328.11 1593.18 1326.55 Q1594.53 1324.97 1594.53 1322.37 L1594.53 1321.78 L1591.88 1321.78 M1597.19 1320.68 L1597.19 1329.92 L1594.53 1329.92 L1594.53 1327.46 Q1593.62 1328.94 1592.26 1329.65 Q1590.9 1330.34 1588.93 1330.34 Q1586.44 1330.34 1584.96 1328.95 Q1583.5 1327.55 1583.5 1325.2 Q1583.5 1322.47 1585.33 1321.08 Q1587.16 1319.69 1590.79 1319.69 L1594.53 1319.69 L1594.53 1319.43 Q1594.53 1317.59 1593.31 1316.6 Q1592.11 1315.58 1589.93 1315.58 Q1588.54 1315.58 1587.22 1315.92 Q1585.9 1316.25 1584.69 1316.91 L1584.69 1314.45 Q1586.15 1313.89 1587.52 1313.62 Q1588.9 1313.33 1590.2 1313.33 Q1593.72 1313.33 1595.45 1315.15 Q1597.19 1316.97 1597.19 1320.68 Z" fill="#000000" fill-rule="evenodd" fill-opacity="1" /><path clip-path="url(#clip150)" d="M 0 0 M1611.61 1321.83 Q1611.61 1318.9 1610.4 1317.23 Q1609.2 1315.55 1607.08 1315.55 Q1604.97 1315.55 1603.76 1317.23 Q1602.56 1318.9 1602.56 1321.83 Q1602.56 1324.77 1603.76 1326.45 Q1604.97 1328.11 1607.08 1328.11 Q1609.2 1328.11 1610.4 1326.45 Q1611.61 1324.77 1611.61 1321.83 M1602.56 1316.18 Q1603.4 1314.73 1604.67 1314.04 Q1605.96 1313.33 1607.74 1313.33 Q1610.69 1313.33 1612.52 1315.67 Q1614.38 1318.01 1614.38 1321.83 Q1614.38 1325.65 1612.52 1328 Q1610.69 1330.34 1607.74 1330.34 Q1605.96 1330.34 1604.67 1329.65 Q1603.4 1328.94 1602.56 1327.49 L1602.56 1329.92 L1599.88 1329.92 L1599.88 1307.41 L1602.56 1307.41 L1602.56 1316.18 Z" fill="#000000" fill-rule="evenodd" fill-opacity="1" /><path clip-path="url(#clip150)" d="M 0 0 M1623.45 1315.58 Q1621.31 1315.58 1620.06 1317.26 Q1618.82 1318.93 1618.82 1321.83 Q1618.82 1324.74 1620.05 1326.42 Q1621.29 1328.08 1623.45 1328.08 Q1625.57 1328.08 1626.82 1326.41 Q1628.06 1324.73 1628.06 1321.83 Q1628.06 1318.95 1626.82 1317.28 Q1625.57 1315.58 1623.45 1315.58 M1623.45 1313.33 Q1626.92 1313.33 1628.9 1315.58 Q1630.88 1317.84 1630.88 1321.83 Q1630.88 1325.81 1628.9 1328.08 Q1626.92 1330.34 1623.45 1330.34 Q1619.96 1330.34 1617.98 1328.08 Q1616.01 1325.81 1616.01 1321.83 Q1616.01 1317.84 1617.98 1315.58 Q1619.96 1313.33 1623.45 1313.33 Z" fill="#000000" fill-rule="evenodd" fill-opacity="1" /><path clip-path="url(#clip150)" d="M 0 0 M1643.07 1316.21 Q1642.62 1315.95 1642.08 1315.83 Q1641.56 1315.7 1640.92 1315.7 Q1638.67 1315.7 1637.45 1317.17 Q1636.25 1318.64 1636.25 1321.38 L1636.25 1329.92 L1633.57 1329.92 L1633.57 1313.72 L1636.25 1313.72 L1636.25 1316.23 Q1637.09 1314.76 1638.44 1314.05 Q1639.78 1313.33 1641.71 1313.33 Q1641.98 1313.33 1642.31 1313.37 Q1642.65 1313.4 1643.05 1313.47 L1643.07 1316.21 Z" fill="#000000" fill-rule="evenodd" fill-opacity="1" /><path clip-path="url(#clip150)" d="M 0 0 M1653.22 1321.78 Q1650 1321.78 1648.75 1322.51 Q1647.51 1323.25 1647.51 1325.03 Q1647.51 1326.45 1648.43 1327.29 Q1649.37 1328.11 1650.98 1328.11 Q1653.19 1328.11 1654.52 1326.55 Q1655.87 1324.97 1655.87 1322.37 L1655.87 1321.78 L1653.22 1321.78 M1658.53 1320.68 L1658.53 1329.92 L1655.87 1329.92 L1655.87 1327.46 Q1654.96 1328.94 1653.6 1329.65 Q1652.24 1330.34 1650.27 1330.34 Q1647.78 1330.34 1646.31 1328.95 Q1644.84 1327.55 1644.84 1325.2 Q1644.84 1322.47 1646.67 1321.08 Q1648.51 1319.69 1652.14 1319.69 L1655.87 1319.69 L1655.87 1319.43 Q1655.87 1317.59 1654.65 1316.6 Q1653.45 1315.58 1651.27 1315.58 Q1649.88 1315.58 1648.56 1315.92 Q1647.25 1316.25 1646.03 1316.91 L1646.03 1314.45 Q1647.49 1313.89 1648.87 1313.62 Q1650.24 1313.33 1651.54 1313.33 Q1655.06 1313.33 1656.8 1315.15 Q1658.53 1316.97 1658.53 1320.68 Z" fill="#000000" fill-rule="evenodd" fill-opacity="1" /><path clip-path="url(#clip150)" d="M 0 0 M1663.96 1309.12 L1663.96 1313.72 L1669.44 1313.72 L1669.44 1315.79 L1663.96 1315.79 L1663.96 1324.58 Q1663.96 1326.56 1664.49 1327.13 Q1665.04 1327.69 1666.71 1327.69 L1669.44 1327.69 L1669.44 1329.92 L1666.71 1329.92 Q1663.62 1329.92 1662.45 1328.78 Q1661.28 1327.62 1661.28 1324.58 L1661.28 1315.79 L1659.33 1315.79 L1659.33 1313.72 L1661.28 1313.72 L1661.28 1309.12 L1663.96 1309.12 Z" fill="#000000" fill-rule="evenodd" fill-opacity="1" /><path clip-path="url(#clip150)" d="M 0 0 M1672.23 1313.72 L1674.89 1313.72 L1674.89 1329.92 L1672.23 1329.92 L1672.23 1313.72 M1672.23 1307.41 L1674.89 1307.41 L1674.89 1310.78 L1672.23 1310.78 L1672.23 1307.41 Z" fill="#000000" fill-rule="evenodd" fill-opacity="1" /><path clip-path="url(#clip150)" d="M 0 0 M1683.97 1315.58 Q1681.82 1315.58 1680.58 1317.26 Q1679.34 1318.93 1679.34 1321.83 Q1679.34 1324.74 1680.57 1326.42 Q1681.81 1328.08 1683.97 1328.08 Q1686.09 1328.08 1687.34 1326.41 Q1688.58 1324.73 1688.58 1321.83 Q1688.58 1318.95 1687.34 1317.28 Q1686.09 1315.58 1683.97 1315.58 M1683.97 1313.33 Q1687.44 1313.33 1689.42 1315.58 Q1691.4 1317.84 1691.4 1321.83 Q1691.4 1325.81 1689.42 1328.08 Q1687.44 1330.34 1683.97 1330.34 Q1680.48 1330.34 1678.5 1328.08 Q1676.53 1325.81 1676.53 1321.83 Q1676.53 1317.84 1678.5 1315.58 Q1680.48 1313.33 1683.97 1313.33 Z" fill="#000000" fill-rule="evenodd" fill-opacity="1" /><path clip-path="url(#clip150)" d="M 0 0 M1707.66 1320.14 L1707.66 1329.92 L1705 1329.92 L1705 1320.23 Q1705 1317.93 1704.1 1316.78 Q1703.21 1315.64 1701.41 1315.64 Q1699.26 1315.64 1698.01 1317.02 Q1696.77 1318.39 1696.77 1320.76 L1696.77 1329.92 L1694.09 1329.92 L1694.09 1313.72 L1696.77 1313.72 L1696.77 1316.23 Q1697.72 1314.77 1699.01 1314.05 Q1700.31 1313.33 1702.01 1313.33 Q1704.8 1313.33 1706.23 1315.06 Q1707.66 1316.78 1707.66 1320.14 Z" fill="#000000" fill-rule="evenodd" fill-opacity="1" /><path clip-path="url(#clip152)" d="M1068.93 962.379 L1036.93 962.379 L1052.93 994.379 L1068.93 962.379 Z" fill="#800080" fill-rule="evenodd" fill-opacity="1" stroke="none"/>
<polyline clip-path="url(#clip152)" style="stroke:#800080; stroke-width:4; stroke-opacity:1; fill:none" stroke-dasharray="16, 10" points="
  1027.87,1002.25 1078,1002.25 
  "/>
<polyline clip-path="url(#clip152)" style="stroke:#800080; stroke-width:4; stroke-opacity:1; fill:none" stroke-dasharray="16, 10" points="
  1027.87,954.506 1078,954.506 
  "/>
<polyline clip-path="url(#clip152)" style="stroke:#800080; stroke-width:4; stroke-opacity:1; fill:none" stroke-dasharray="16, 10" points="
  1027.87,1002.25 1027.87,954.506 
  "/>
<polyline clip-path="url(#clip152)" style="stroke:#800080; stroke-width:4; stroke-opacity:1; fill:none" stroke-dasharray="16, 10" points="
  1078,1002.25 1078,954.506 
  "/>
<path clip-path="url(#clip152)" d="M1038.53 953.622 L1022.53 985.622 L1054.53 985.622 L1038.53 953.622 Z" fill="#800080" fill-rule="evenodd" fill-opacity="1" stroke="none"/>
<polyline clip-path="url(#clip152)" style="stroke:#800080; stroke-width:4; stroke-opacity:1; fill:none" stroke-dasharray="16, 10" points="
  1018.3,986.12 1058.76,986.12 
  "/>
<polyline clip-path="url(#clip152)" style="stroke:#800080; stroke-width:4; stroke-opacity:1; fill:none" stroke-dasharray="16, 10" points="
  1018.3,953.123 1058.76,953.123 
  "/>
<polyline clip-path="url(#clip152)" style="stroke:#800080; stroke-width:4; stroke-opacity:1; fill:none" stroke-dasharray="16, 10" points="
  1018.3,986.12 1018.3,953.123 
  "/>
<polyline clip-path="url(#clip152)" style="stroke:#800080; stroke-width:4; stroke-opacity:1; fill:none" stroke-dasharray="16, 10" points="
  1058.76,986.12 1058.76,953.123 
  "/>
<path clip-path="url(#clip152)" d="M1020.3 924.388 L988.296 924.388 L1004.3 956.388 L1020.3 924.388 Z" fill="#ffa500" fill-rule="evenodd" fill-opacity="1" stroke="none"/>
<polyline clip-path="url(#clip152)" style="stroke:#ffa500; stroke-width:4; stroke-opacity:1; fill:none" stroke-dasharray="16, 10" points="
  991.222,955.463 1017.37,955.463 
  "/>
<polyline clip-path="url(#clip152)" style="stroke:#ffa500; stroke-width:4; stroke-opacity:1; fill:none" stroke-dasharray="16, 10" points="
  991.222,925.313 1017.37,925.313 
  "/>
<polyline clip-path="url(#clip152)" style="stroke:#ffa500; stroke-width:4; stroke-opacity:1; fill:none" stroke-dasharray="16, 10" points="
  991.222,955.463 991.222,925.313 
  "/>
<polyline clip-path="url(#clip152)" style="stroke:#ffa500; stroke-width:4; stroke-opacity:1; fill:none" stroke-dasharray="16, 10" points="
  1017.37,955.463 1017.37,925.313 
  "/>
<path clip-path="url(#clip152)" d="M999.965 992.711 L983.965 1024.71 L1015.97 1024.71 L999.965 992.711 Z" fill="#ffa500" fill-rule="evenodd" fill-opacity="1" stroke="none"/>
<polyline clip-path="url(#clip152)" style="stroke:#ffa500; stroke-width:4; stroke-opacity:1; fill:none" stroke-dasharray="16, 10" points="
  979.405,1029.53 1020.52,1029.53 
  "/>
<polyline clip-path="url(#clip152)" style="stroke:#ffa500; stroke-width:4; stroke-opacity:1; fill:none" stroke-dasharray="16, 10" points="
  979.405,987.893 1020.52,987.893 
  "/>
<polyline clip-path="url(#clip152)" style="stroke:#ffa500; stroke-width:4; stroke-opacity:1; fill:none" stroke-dasharray="16, 10" points="
  979.405,1029.53 979.405,987.893 
  "/>
<polyline clip-path="url(#clip152)" style="stroke:#ffa500; stroke-width:4; stroke-opacity:1; fill:none" stroke-dasharray="16, 10" points="
  1020.52,1029.53 1020.52,987.893 
  "/>
<path clip-path="url(#clip152)" d="M1029.73 958 L1029.73 990 L1061.73 990 L1061.73 958 L1029.73 958 Z" fill="#800080" fill-rule="evenodd" fill-opacity="1" stroke="none"/>
<polyline clip-path="url(#clip152)" style="stroke:#800080; stroke-width:4; stroke-opacity:1; fill:none" stroke-dasharray="16, 10" points="
  1030.06,988.059 1061.41,988.059 
  "/>
<polyline clip-path="url(#clip152)" style="stroke:#800080; stroke-width:4; stroke-opacity:1; fill:none" stroke-dasharray="16, 10" points="
  1030.06,959.942 1061.41,959.942 
  "/>
<polyline clip-path="url(#clip152)" style="stroke:#800080; stroke-width:4; stroke-opacity:1; fill:none" stroke-dasharray="16, 10" points="
  1030.06,988.059 1030.06,959.942 
  "/>
<polyline clip-path="url(#clip152)" style="stroke:#800080; stroke-width:4; stroke-opacity:1; fill:none" stroke-dasharray="16, 10" points="
  1061.41,988.059 1061.41,959.942 
  "/>
<path clip-path="url(#clip152)" d="M986.13 958.549 L986.13 990.549 L1018.13 990.549 L1018.13 958.549 L986.13 958.549 Z" fill="#ffa500" fill-rule="evenodd" fill-opacity="1" stroke="none"/>
<polyline clip-path="url(#clip152)" style="stroke:#ffa500; stroke-width:4; stroke-opacity:1; fill:none" stroke-dasharray="16, 10" points="
  990.436,990.738 1013.82,990.738 
  "/>
<polyline clip-path="url(#clip152)" style="stroke:#ffa500; stroke-width:4; stroke-opacity:1; fill:none" stroke-dasharray="16, 10" points="
  990.436,958.361 1013.82,958.361 
  "/>
<polyline clip-path="url(#clip152)" style="stroke:#ffa500; stroke-width:4; stroke-opacity:1; fill:none" stroke-dasharray="16, 10" points="
  990.436,990.738 990.436,958.361 
  "/>
<polyline clip-path="url(#clip152)" style="stroke:#ffa500; stroke-width:4; stroke-opacity:1; fill:none" stroke-dasharray="16, 10" points="
  1013.82,990.738 1013.82,958.361 
  "/>
</svg>
