<?xml version="1.0" encoding="utf-8"?>
<svg xmlns="http://www.w3.org/2000/svg" xmlns:xlink="http://www.w3.org/1999/xlink" width="500" height="500" viewBox="0 0 2000 2000">
<defs>
  <clipPath id="clip100">
    <rect x="0" y="0" width="2000" height="2000"/>
  </clipPath>
</defs>
<path clip-path="url(#clip100)" d="
M0 2000 L2000 2000 L2000 0 L0 0  Z
  " fill="#ffffff" fill-rule="evenodd" fill-opacity="1"/>
<defs>
  <clipPath id="clip101">
    <rect x="400" y="200" width="1401" height="1401"/>
  </clipPath>
</defs>
<path clip-path="url(#clip100)" d="
M240.472 1759.53 L1811.02 1759.53 L1811.02 188.976 L240.472 188.976  Z
  " fill="#ffffff" fill-rule="evenodd" fill-opacity="1"/>
<defs>
  <clipPath id="clip102">
    <rect x="240" y="188" width="1572" height="1572"/>
  </clipPath>
</defs>
<polyline clip-path="url(#clip102)" style="stroke:#000000; stroke-width:2; stroke-opacity:0.1; fill:none" points="
  240.472,1759.53 240.472,188.976 
  "/>
<polyline clip-path="url(#clip102)" style="stroke:#000000; stroke-width:2; stroke-opacity:0.1; fill:none" points="
  1025.75,1759.53 1025.75,188.976 
  "/>
<polyline clip-path="url(#clip102)" style="stroke:#000000; stroke-width:2; stroke-opacity:0.1; fill:none" points="
  1811.02,1759.53 1811.02,188.976 
  "/>
<polyline clip-path="url(#clip102)" style="stroke:#000000; stroke-width:2; stroke-opacity:0.1; fill:none" points="
  240.472,1759.53 1811.02,1759.53 
  "/>
<polyline clip-path="url(#clip102)" style="stroke:#000000; stroke-width:2; stroke-opacity:0.1; fill:none" points="
  240.472,974.252 1811.02,974.252 
  "/>
<polyline clip-path="url(#clip102)" style="stroke:#000000; stroke-width:2; stroke-opacity:0.1; fill:none" points="
  240.472,188.976 1811.02,188.976 
  "/>
<polyline clip-path="url(#clip100)" style="stroke:#000000; stroke-width:4; stroke-opacity:1; fill:none" points="
  240.472,1759.53 1811.02,1759.53 
  "/>
<polyline clip-path="url(#clip100)" style="stroke:#000000; stroke-width:4; stroke-opacity:1; fill:none" points="
  240.472,1759.53 240.472,188.976 
  "/>
<polyline clip-path="url(#clip100)" style="stroke:#000000; stroke-width:4; stroke-opacity:1; fill:none" points="
  240.472,1759.53 240.472,1740.68 
  "/>
<polyline clip-path="url(#clip100)" style="stroke:#000000; stroke-width:4; stroke-opacity:1; fill:none" points="
  1025.75,1759.53 1025.75,1740.68 
  "/>
<polyline clip-path="url(#clip100)" style="stroke:#000000; stroke-width:4; stroke-opacity:1; fill:none" points="
  1811.02,1759.53 1811.02,1740.68 
  "/>
<polyline clip-path="url(#clip100)" style="stroke:#000000; stroke-width:4; stroke-opacity:1; fill:none" points="
  240.472,1759.53 259.319,1759.53 
  "/>
<polyline clip-path="url(#clip100)" style="stroke:#000000; stroke-width:4; stroke-opacity:1; fill:none" points="
  240.472,974.252 259.319,974.252 
  "/>
<polyline clip-path="url(#clip100)" style="stroke:#000000; stroke-width:4; stroke-opacity:1; fill:none" points="
  240.472,188.976 259.319,188.976 
  "/>
<path clip-path="url(#clip100)" d="M 0 0 M221.341 1796.12 L233.817 1796.12 L233.817 1799.91 L221.341 1799.91 L221.341 1796.12 Z" fill="#000000" fill-rule="evenodd" fill-opacity="1" /><path clip-path="url(#clip100)" d="M 0 0 M239.697 1807.06 L247.336 1807.06 L247.336 1780.7 L239.026 1782.37 L239.026 1778.11 L247.29 1776.44 L251.965 1776.44 L251.965 1807.06 L259.604 1807.06 L259.604 1811 L239.697 1811 L239.697 1807.06 Z" fill="#000000" fill-rule="evenodd" fill-opacity="1" /><path clip-path="url(#clip100)" d="M 0 0 M1025.75 1779.52 Q1022.14 1779.52 1020.31 1783.08 Q1018.5 1786.62 1018.5 1793.75 Q1018.5 1800.86 1020.31 1804.43 Q1022.14 1807.97 1025.75 1807.97 Q1029.38 1807.97 1031.19 1804.43 Q1033.02 1800.86 1033.02 1793.75 Q1033.02 1786.62 1031.19 1783.08 Q1029.38 1779.52 1025.75 1779.52 M1025.75 1775.81 Q1031.56 1775.81 1034.61 1780.42 Q1037.69 1785 1037.69 1793.75 Q1037.69 1802.48 1034.61 1807.09 Q1031.56 1811.67 1025.75 1811.67 Q1019.94 1811.67 1016.86 1807.09 Q1013.8 1802.48 1013.8 1793.75 Q1013.8 1785 1016.86 1780.42 Q1019.94 1775.81 1025.75 1775.81 Z" fill="#000000" fill-rule="evenodd" fill-opacity="1" /><path clip-path="url(#clip100)" d="M 0 0 M1801.41 1807.06 L1809.04 1807.06 L1809.04 1780.7 L1800.73 1782.37 L1800.73 1778.11 L1809 1776.44 L1813.67 1776.44 L1813.67 1807.06 L1821.31 1807.06 L1821.31 1811 L1801.41 1811 L1801.41 1807.06 Z" fill="#000000" fill-rule="evenodd" fill-opacity="1" /><path clip-path="url(#clip100)" d="M 0 0 M182.209 1761.92 L194.686 1761.92 L194.686 1765.72 L182.209 1765.72 L182.209 1761.92 Z" fill="#000000" fill-rule="evenodd" fill-opacity="1" /><path clip-path="url(#clip100)" d="M 0 0 M200.565 1772.87 L208.204 1772.87 L208.204 1746.51 L199.894 1748.17 L199.894 1743.91 L208.158 1742.25 L212.834 1742.25 L212.834 1772.87 L220.472 1772.87 L220.472 1776.81 L200.565 1776.81 L200.565 1772.87 Z" fill="#000000" fill-rule="evenodd" fill-opacity="1" /><path clip-path="url(#clip100)" d="M 0 0 M208.528 960.051 Q204.917 960.051 203.088 963.615 Q201.283 967.157 201.283 974.287 Q201.283 981.393 203.088 984.958 Q204.917 988.5 208.528 988.5 Q212.162 988.5 213.968 984.958 Q215.797 981.393 215.797 974.287 Q215.797 967.157 213.968 963.615 Q212.162 960.051 208.528 960.051 M208.528 956.347 Q214.338 956.347 217.394 960.953 Q220.472 965.537 220.472 974.287 Q220.472 983.013 217.394 987.62 Q214.338 992.203 208.528 992.203 Q202.718 992.203 199.639 987.62 Q196.584 983.013 196.584 974.287 Q196.584 965.537 199.639 960.953 Q202.718 956.347 208.528 956.347 Z" fill="#000000" fill-rule="evenodd" fill-opacity="1" /><path clip-path="url(#clip100)" d="M 0 0 M200.565 202.321 L208.204 202.321 L208.204 175.956 L199.894 177.622 L199.894 173.363 L208.158 171.696 L212.834 171.696 L212.834 202.321 L220.472 202.321 L220.472 206.256 L200.565 206.256 L200.565 202.321 Z" fill="#000000" fill-rule="evenodd" fill-opacity="1" /><path clip-path="url(#clip100)" d="M 0 0 M912.661 1840.87 L919.568 1840.87 L931.376 1858.54 L943.248 1840.87 L950.155 1840.87 L934.878 1863.69 L951.174 1888.39 L944.267 1888.39 L930.899 1868.18 L917.436 1888.39 L910.497 1888.39 L927.462 1863.02 L912.661 1840.87 Z" fill="#000000" fill-rule="evenodd" fill-opacity="1" /><path clip-path="url(#clip100)" d="M 0 0 M992.105 1838.93 Q987.84 1846.25 985.771 1853.41 Q983.703 1860.57 983.703 1867.93 Q983.703 1875.28 985.771 1882.5 Q987.872 1889.7 992.105 1896.99 L987.013 1896.99 Q982.238 1889.51 979.851 1882.28 Q977.496 1875.06 977.496 1867.93 Q977.496 1860.83 979.851 1853.63 Q982.207 1846.44 987.013 1838.93 L992.105 1838.93 Z" fill="#000000" fill-rule="evenodd" fill-opacity="1" /><path clip-path="url(#clip100)" d="M 0 0 M1004.61 1882.98 L1027.05 1882.98 L1027.05 1888.39 L996.88 1888.39 L996.88 1882.98 Q1000.54 1879.19 1006.84 1872.83 Q1013.18 1866.43 1014.8 1864.58 Q1017.89 1861.11 1019.1 1858.73 Q1020.34 1856.31 1020.34 1853.98 Q1020.34 1850.2 1017.66 1847.81 Q1015.02 1845.42 1010.76 1845.42 Q1007.73 1845.42 1004.36 1846.47 Q1001.02 1847.52 997.198 1849.66 L997.198 1843.16 Q1001.08 1841.6 1004.45 1840.81 Q1007.83 1840.01 1010.63 1840.01 Q1018.01 1840.01 1022.41 1843.7 Q1026.8 1847.4 1026.8 1853.57 Q1026.8 1856.5 1025.68 1859.14 Q1024.6 1861.75 1021.71 1865.32 Q1020.91 1866.24 1016.65 1870.66 Q1012.38 1875.06 1004.61 1882.98 Z" fill="#000000" fill-rule="evenodd" fill-opacity="1" /><path clip-path="url(#clip100)" d="M 0 0 M1034.09 1840.87 L1059.33 1840.87 L1059.33 1846.28 L1039.98 1846.28 L1039.98 1857.93 Q1041.38 1857.45 1042.78 1857.23 Q1044.18 1856.98 1045.58 1856.98 Q1053.53 1856.98 1058.18 1861.34 Q1062.83 1865.7 1062.83 1873.15 Q1062.83 1880.82 1058.05 1885.08 Q1053.28 1889.31 1044.59 1889.31 Q1041.6 1889.31 1038.48 1888.81 Q1035.39 1888.3 1032.08 1887.28 L1032.08 1880.82 Q1034.95 1882.38 1038 1883.14 Q1041.06 1883.9 1044.46 1883.9 Q1049.97 1883.9 1053.18 1881.01 Q1056.4 1878.11 1056.4 1873.15 Q1056.4 1868.18 1053.18 1865.28 Q1049.97 1862.39 1044.46 1862.39 Q1041.89 1862.39 1039.31 1862.96 Q1036.76 1863.53 1034.09 1864.74 L1034.09 1840.87 Z" fill="#000000" fill-rule="evenodd" fill-opacity="1" /><path clip-path="url(#clip100)" d="M 0 0 M1110.22 1867.48 Q1107.45 1867.48 1105.86 1869.84 Q1104.3 1872.19 1104.3 1876.39 Q1104.3 1880.53 1105.86 1882.92 Q1107.45 1885.27 1110.22 1885.27 Q1112.93 1885.27 1114.49 1882.92 Q1116.08 1880.53 1116.08 1876.39 Q1116.08 1872.22 1114.49 1869.87 Q1112.93 1867.48 1110.22 1867.48 M1110.22 1863.44 Q1115.25 1863.44 1118.21 1866.94 Q1121.17 1870.44 1121.17 1876.39 Q1121.17 1882.34 1118.18 1885.85 Q1115.22 1889.31 1110.22 1889.31 Q1105.13 1889.31 1102.17 1885.85 Q1099.21 1882.34 1099.21 1876.39 Q1099.21 1870.41 1102.17 1866.94 Q1105.16 1863.44 1110.22 1863.44 M1077.37 1844.05 Q1074.64 1844.05 1073.05 1846.44 Q1071.49 1848.8 1071.49 1852.93 Q1071.49 1857.14 1073.05 1859.49 Q1074.6 1861.85 1077.37 1861.85 Q1080.14 1861.85 1081.7 1859.49 Q1083.29 1857.14 1083.29 1852.93 Q1083.29 1848.83 1081.7 1846.44 Q1080.11 1844.05 1077.37 1844.05 M1106.12 1840.01 L1111.21 1840.01 L1081.48 1889.31 L1076.39 1889.31 L1106.12 1840.01 M1077.37 1840.01 Q1082.4 1840.01 1085.39 1843.51 Q1088.39 1846.98 1088.39 1852.93 Q1088.39 1858.95 1085.39 1862.42 Q1082.43 1865.89 1077.37 1865.89 Q1072.31 1865.89 1069.35 1862.42 Q1066.42 1858.92 1066.42 1852.93 Q1066.42 1847.01 1069.38 1843.51 Q1072.35 1840.01 1077.37 1840.01 Z" fill="#000000" fill-rule="evenodd" fill-opacity="1" /><path clip-path="url(#clip100)" d="M 0 0 M1126.39 1838.93 L1131.48 1838.93 Q1136.26 1846.44 1138.61 1853.63 Q1141 1860.83 1141 1867.93 Q1141 1875.06 1138.61 1882.28 Q1136.26 1889.51 1131.48 1896.99 L1126.39 1896.99 Q1130.62 1889.7 1132.69 1882.5 Q1134.79 1875.28 1134.79 1867.93 Q1134.79 1860.57 1132.69 1853.41 Q1130.62 1846.25 1126.39 1838.93 Z" fill="#000000" fill-rule="evenodd" fill-opacity="1" /><path clip-path="url(#clip100)" d="M 0 0 M100.433 1089.26 L100.433 1082.36 L119.975 1069.18 L100.433 1056.1 L100.433 1049.19 L125.323 1066 L147.953 1066 L147.953 1072.46 L125.323 1072.46 L100.433 1089.26 Z" fill="#000000" fill-rule="evenodd" fill-opacity="1" /><path clip-path="url(#clip100)" d="M 0 0 M98.4912 1008.26 Q105.812 1012.53 112.973 1014.59 Q120.135 1016.66 127.487 1016.66 Q134.839 1016.66 142.064 1014.59 Q149.258 1012.49 156.546 1008.26 L156.546 1013.35 Q149.067 1018.13 141.842 1020.51 Q134.617 1022.87 127.487 1022.87 Q120.389 1022.87 113.196 1020.51 Q106.003 1018.16 98.4912 1013.35 L98.4912 1008.26 Z" fill="#000000" fill-rule="evenodd" fill-opacity="1" /><path clip-path="url(#clip100)" d="M 0 0 M142.542 995.752 L142.542 973.313 L147.953 973.313 L147.953 1003.49 L142.542 1003.49 Q138.754 999.826 132.389 993.524 Q125.991 987.19 124.145 985.567 Q120.676 982.48 118.289 981.27 Q115.87 980.029 113.546 980.029 Q109.759 980.029 107.371 982.702 Q104.984 985.344 104.984 989.609 Q104.984 992.633 106.035 996.007 Q107.085 999.349 109.217 1003.17 L102.724 1003.17 Q101.165 999.285 100.369 995.911 Q99.5734 992.537 99.5734 989.737 Q99.5734 982.352 103.265 977.96 Q106.958 973.568 113.132 973.568 Q116.061 973.568 118.702 974.682 Q121.312 975.764 124.877 978.66 Q125.8 979.456 130.224 983.721 Q134.617 987.986 142.542 995.752 Z" fill="#000000" fill-rule="evenodd" fill-opacity="1" /><path clip-path="url(#clip100)" d="M 0 0 M100.433 967.966 L100.433 937.41 L103.17 937.41 L147.953 954.662 L147.953 961.377 L105.844 945.145 L105.844 967.966 L100.433 967.966 Z" fill="#000000" fill-rule="evenodd" fill-opacity="1" /><path clip-path="url(#clip100)" d="M 0 0 M127.041 890.018 Q127.041 892.787 129.397 894.378 Q131.752 895.938 135.953 895.938 Q140.091 895.938 142.478 894.378 Q144.834 892.787 144.834 890.018 Q144.834 887.312 142.478 885.753 Q140.091 884.161 135.953 884.161 Q131.784 884.161 129.429 885.753 Q127.041 887.312 127.041 890.018 M122.999 890.018 Q122.999 884.989 126.5 882.029 Q130.001 879.069 135.953 879.069 Q141.905 879.069 145.406 882.061 Q148.876 885.021 148.876 890.018 Q148.876 895.11 145.406 898.07 Q141.905 901.03 135.953 901.03 Q129.97 901.03 126.5 898.07 Q122.999 895.078 122.999 890.018 M103.616 922.865 Q103.616 925.602 106.003 927.193 Q108.358 928.753 112.496 928.753 Q116.697 928.753 119.052 927.193 Q121.408 925.634 121.408 922.865 Q121.408 920.096 119.052 918.536 Q116.697 916.945 112.496 916.945 Q108.39 916.945 106.003 918.536 Q103.616 920.128 103.616 922.865 M99.5734 894.124 L99.5734 889.031 L148.876 918.759 L148.876 923.851 L99.5734 894.124 M99.5734 922.865 Q99.5734 917.836 103.075 914.844 Q106.544 911.852 112.496 911.852 Q118.511 911.852 121.981 914.844 Q125.45 917.804 125.45 922.865 Q125.45 927.926 121.981 930.886 Q118.48 933.814 112.496 933.814 Q106.576 933.814 103.075 930.854 Q99.5734 927.894 99.5734 922.865 Z" fill="#000000" fill-rule="evenodd" fill-opacity="1" /><path clip-path="url(#clip100)" d="M 0 0 M98.4912 873.849 L98.4912 868.756 Q106.003 863.982 113.196 861.627 Q120.389 859.24 127.487 859.24 Q134.617 859.24 141.842 861.627 Q149.067 863.982 156.546 868.756 L156.546 873.849 Q149.258 869.616 142.064 867.547 Q134.839 865.446 127.487 865.446 Q120.135 865.446 112.973 867.547 Q105.812 869.616 98.4912 873.849 Z" fill="#000000" fill-rule="evenodd" fill-opacity="1" /><polyline clip-path="url(#clip102)" style="stroke:#800080; stroke-width:0.80967; stroke-opacity:1; fill:none" points="
  804.469,728.089 1232.17,1170.8 
  "/>
<polyline clip-path="url(#clip102)" style="stroke:#800080; stroke-width:0.0637714; stroke-opacity:1; fill:none" points="
  993.427,1052.35 1027.53,1112.52 
  "/>
<polyline clip-path="url(#clip102)" style="stroke:#800080; stroke-width:0.377721; stroke-opacity:1; fill:none" points="
  779.142,1196 993.427,1052.35 
  "/>
<polyline clip-path="url(#clip102)" style="stroke:#800080; stroke-width:3.13284; stroke-opacity:1; fill:none" points="
  779.142,1196 1228.48,809.16 
  "/>
<polyline clip-path="url(#clip102)" style="stroke:#ffa500; stroke-width:2.35015; stroke-opacity:1; fill:none" points="
  1027.53,1112.52 1232.17,1170.8 
  "/>
<polyline clip-path="url(#clip102)" style="stroke:#800080; stroke-width:3.3424; stroke-opacity:1; fill:none" points="
  779.142,1196 1027.53,1112.52 
  "/>
<polyline clip-path="url(#clip102)" style="stroke:#ffa500; stroke-width:3.04111; stroke-opacity:1; fill:none" points="
  1027.53,1112.52 1228.48,809.16 
  "/>
<polyline clip-path="url(#clip102)" style="stroke:#ffa500; stroke-width:1.9577; stroke-opacity:1; fill:none" points="
  993.427,1052.35 1228.48,809.16 
  "/>
<polyline clip-path="url(#clip102)" style="stroke:#800080; stroke-width:6.22728; stroke-opacity:1; fill:none" points="
  779.142,1196 804.469,728.089 
  "/>
<polyline clip-path="url(#clip102)" style="stroke:#ffa500; stroke-width:0.218098; stroke-opacity:1; fill:none" points="
  993.427,1052.35 1232.17,1170.8 
  "/>
<polyline clip-path="url(#clip102)" style="stroke:#ffa500; stroke-width:8; stroke-opacity:1; fill:none" points="
  1228.48,809.16 1232.17,1170.8 
  "/>
<polyline clip-path="url(#clip102)" style="stroke:#800080; stroke-width:3.5241; stroke-opacity:1; fill:none" points="
  804.469,728.089 1027.53,1112.52 
  "/>
<polyline clip-path="url(#clip102)" style="stroke:#800080; stroke-width:2.1369; stroke-opacity:1; fill:none" points="
  804.469,728.089 993.427,1052.35 
  "/>
<polyline clip-path="url(#clip102)" style="stroke:#800080; stroke-width:2.2764; stroke-opacity:1; fill:none" points="
  779.142,1196 1232.17,1170.8 
  "/>
<polyline clip-path="url(#clip102)" style="stroke:#800080; stroke-width:1.6582; stroke-opacity:1; fill:none" points="
  804.469,728.089 1228.48,809.16 
  "/>
<circle clip-path="url(#clip102)" cx="1027.53" cy="1112.52" r="23" fill="#000000" fill-rule="evenodd" fill-opacity="1" stroke="none"/>
<circle clip-path="url(#clip102)" cx="804.469" cy="728.089" r="26" fill="#000000" fill-rule="evenodd" fill-opacity="1" stroke="none"/>
<circle clip-path="url(#clip102)" cx="1232.17" cy="1170.8" r="23" fill="#000000" fill-rule="evenodd" fill-opacity="1" stroke="none"/>
<circle clip-path="url(#clip102)" cx="993.427" cy="1052.35" r="8" fill="#000000" fill-rule="evenodd" fill-opacity="1" stroke="none"/>
<circle clip-path="url(#clip102)" cx="1228.48" cy="809.16" r="28" fill="#000000" fill-rule="evenodd" fill-opacity="1" stroke="none"/>
<circle clip-path="url(#clip102)" cx="779.142" cy="1196" r="8" fill="#000000" fill-rule="evenodd" fill-opacity="1" stroke="none"/>
<path clip-path="url(#clip100)" d="M 0 0 M1000.45 1119.25 L1000.45 1136.04 L1003.98 1136.04 Q1008.45 1136.04 1010.52 1134.02 Q1012.6 1131.99 1012.6 1127.62 Q1012.6 1123.28 1010.52 1121.27 Q1008.45 1119.25 1003.98 1119.25 L1000.45 1119.25 M997.529 1116.84 L1003.53 1116.84 Q1009.81 1116.84 1012.75 1119.46 Q1015.69 1122.07 1015.69 1127.62 Q1015.69 1133.21 1012.73 1135.82 Q1009.78 1138.44 1003.53 1138.44 L997.529 1138.44 L997.529 1116.84 Z" fill="#000000" fill-rule="evenodd" fill-opacity="1" /><path clip-path="url(#clip100)" d="M 0 0 M1025.84 1130.3 Q1022.62 1130.3 1021.37 1131.04 Q1020.13 1131.77 1020.13 1133.55 Q1020.13 1134.97 1021.05 1135.81 Q1021.99 1136.64 1023.6 1136.64 Q1025.81 1136.64 1027.14 1135.07 Q1028.49 1133.5 1028.49 1130.89 L1028.49 1130.3 L1025.84 1130.3 M1031.15 1129.2 L1031.15 1138.44 L1028.49 1138.44 L1028.49 1135.98 Q1027.58 1137.46 1026.22 1138.17 Q1024.86 1138.86 1022.89 1138.86 Q1020.4 1138.86 1018.93 1137.47 Q1017.46 1136.07 1017.46 1133.73 Q1017.46 1130.99 1019.29 1129.6 Q1021.13 1128.21 1024.76 1128.21 L1028.49 1128.21 L1028.49 1127.95 Q1028.49 1126.12 1027.27 1125.12 Q1026.07 1124.11 1023.89 1124.11 Q1022.5 1124.11 1021.18 1124.44 Q1019.87 1124.77 1018.65 1125.44 L1018.65 1122.98 Q1020.11 1122.41 1021.49 1122.14 Q1022.86 1121.85 1024.16 1121.85 Q1027.68 1121.85 1029.41 1123.67 Q1031.15 1125.5 1031.15 1129.2 Z" fill="#000000" fill-rule="evenodd" fill-opacity="1" /><path clip-path="url(#clip100)" d="M 0 0 M1036.58 1117.64 L1036.58 1122.24 L1042.06 1122.24 L1042.06 1124.31 L1036.58 1124.31 L1036.58 1133.11 Q1036.58 1135.09 1037.11 1135.65 Q1037.66 1136.22 1039.33 1136.22 L1042.06 1136.22 L1042.06 1138.44 L1039.33 1138.44 Q1036.24 1138.44 1035.07 1137.3 Q1033.9 1136.14 1033.9 1133.11 L1033.9 1124.31 L1031.95 1124.31 L1031.95 1122.24 L1033.9 1122.24 L1033.9 1117.64 L1036.58 1117.64 Z" fill="#000000" fill-rule="evenodd" fill-opacity="1" /><path clip-path="url(#clip100)" d="M 0 0 M1052.22 1130.3 Q1048.99 1130.3 1047.75 1131.04 Q1046.5 1131.77 1046.5 1133.55 Q1046.5 1134.97 1047.43 1135.81 Q1048.37 1136.64 1049.97 1136.64 Q1052.19 1136.64 1053.52 1135.07 Q1054.86 1133.5 1054.86 1130.89 L1054.86 1130.3 L1052.22 1130.3 M1057.53 1129.2 L1057.53 1138.44 L1054.86 1138.44 L1054.86 1135.98 Q1053.95 1137.46 1052.59 1138.17 Q1051.23 1138.86 1049.26 1138.86 Q1046.78 1138.86 1045.3 1137.47 Q1043.84 1136.07 1043.84 1133.73 Q1043.84 1130.99 1045.66 1129.6 Q1047.5 1128.21 1051.13 1128.21 L1054.86 1128.21 L1054.86 1127.95 Q1054.86 1126.12 1053.65 1125.12 Q1052.45 1124.11 1050.26 1124.11 Q1048.87 1124.11 1047.56 1124.44 Q1046.24 1124.77 1045.03 1125.44 L1045.03 1122.98 Q1046.49 1122.41 1047.86 1122.14 Q1049.24 1121.85 1050.54 1121.85 Q1054.05 1121.85 1055.79 1123.67 Q1057.53 1125.5 1057.53 1129.2 Z" fill="#000000" fill-rule="evenodd" fill-opacity="1" /><path clip-path="url(#clip100)" d="M 0 0 M662.564 732.409 L680.836 732.409 L680.836 734.868 L673.169 734.868 L673.169 754.009 L670.232 754.009 L670.232 734.868 L662.564 734.868 L662.564 732.409 Z" fill="#000000" fill-rule="evenodd" fill-opacity="1" /><path clip-path="url(#clip100)" d="M 0 0 M692.454 745.242 L692.454 746.544 L680.214 746.544 Q680.388 749.292 681.864 750.739 Q683.354 752.171 686.001 752.171 Q687.535 752.171 688.967 751.795 Q690.414 751.419 691.832 750.667 L691.832 753.184 Q690.399 753.792 688.895 754.11 Q687.39 754.428 685.842 754.428 Q681.965 754.428 679.693 752.171 Q677.437 749.915 677.437 746.066 Q677.437 742.088 679.578 739.758 Q681.733 737.415 685.379 737.415 Q688.649 737.415 690.544 739.527 Q692.454 741.625 692.454 745.242 M689.792 744.46 Q689.763 742.276 688.562 740.974 Q687.376 739.672 685.408 739.672 Q683.18 739.672 681.835 740.93 Q680.504 742.189 680.301 744.475 L689.792 744.46 Z" fill="#000000" fill-rule="evenodd" fill-opacity="1" /><path clip-path="url(#clip100)" d="M 0 0 M706.907 738.427 L706.907 740.916 Q705.778 740.294 704.635 739.99 Q703.507 739.672 702.35 739.672 Q699.76 739.672 698.328 741.321 Q696.895 742.956 696.895 745.921 Q696.895 748.887 698.328 750.537 Q699.76 752.171 702.35 752.171 Q703.507 752.171 704.635 751.868 Q705.778 751.549 706.907 750.927 L706.907 753.387 Q705.793 753.908 704.592 754.168 Q703.406 754.428 702.06 754.428 Q698.4 754.428 696.244 752.128 Q694.089 749.828 694.089 745.921 Q694.089 741.957 696.259 739.686 Q698.443 737.415 702.234 737.415 Q703.464 737.415 704.635 737.675 Q705.807 737.921 706.907 738.427 Z" fill="#000000" fill-rule="evenodd" fill-opacity="1" /><path clip-path="url(#clip100)" d="M 0 0 M723.168 744.229 L723.168 754.009 L720.506 754.009 L720.506 744.316 Q720.506 742.015 719.609 740.872 Q718.712 739.729 716.918 739.729 Q714.763 739.729 713.519 741.104 Q712.274 742.478 712.274 744.851 L712.274 754.009 L709.598 754.009 L709.598 731.497 L712.274 731.497 L712.274 740.323 Q713.229 738.861 714.517 738.138 Q715.819 737.415 717.512 737.415 Q720.304 737.415 721.736 739.151 Q723.168 740.872 723.168 744.229 Z" fill="#000000" fill-rule="evenodd" fill-opacity="1" /><path clip-path="url(#clip100)" d="M 0 0 M739.43 744.229 L739.43 754.009 L736.768 754.009 L736.768 744.316 Q736.768 742.015 735.871 740.872 Q734.974 739.729 733.18 739.729 Q731.024 739.729 729.78 741.104 Q728.536 742.478 728.536 744.851 L728.536 754.009 L725.859 754.009 L725.859 737.805 L728.536 737.805 L728.536 740.323 Q729.491 738.861 730.778 738.138 Q732.08 737.415 733.773 737.415 Q736.565 737.415 737.998 739.151 Q739.43 740.872 739.43 744.229 Z" fill="#000000" fill-rule="evenodd" fill-opacity="1" /><path clip-path="url(#clip100)" d="M 0 0 M742.222 737.805 L744.884 737.805 L744.884 754.009 L742.222 754.009 L742.222 737.805 M742.222 731.497 L744.884 731.497 L744.884 734.868 L742.222 734.868 L742.222 731.497 Z" fill="#000000" fill-rule="evenodd" fill-opacity="1" /><path clip-path="url(#clip100)" d="M 0 0 M759.337 738.427 L759.337 740.916 Q758.209 740.294 757.066 739.99 Q755.937 739.672 754.78 739.672 Q752.19 739.672 750.758 741.321 Q749.326 742.956 749.326 745.921 Q749.326 748.887 750.758 750.537 Q752.19 752.171 754.78 752.171 Q755.937 752.171 757.066 751.868 Q758.209 751.549 759.337 750.927 L759.337 753.387 Q758.223 753.908 757.022 754.168 Q755.836 754.428 754.491 754.428 Q750.83 754.428 748.675 752.128 Q746.519 749.828 746.519 745.921 Q746.519 741.957 748.689 739.686 Q750.874 737.415 754.664 737.415 Q755.894 737.415 757.066 737.675 Q758.238 737.921 759.337 738.427 Z" fill="#000000" fill-rule="evenodd" fill-opacity="1" /><path clip-path="url(#clip100)" d="M 0 0 M769.493 745.864 Q766.267 745.864 765.023 746.601 Q763.779 747.339 763.779 749.119 Q763.779 750.537 764.705 751.376 Q765.645 752.2 767.251 752.2 Q769.464 752.2 770.795 750.638 Q772.141 749.061 772.141 746.457 L772.141 745.864 L769.493 745.864 M774.803 744.764 L774.803 754.009 L772.141 754.009 L772.141 751.549 Q771.229 753.025 769.869 753.734 Q768.51 754.428 766.542 754.428 Q764.054 754.428 762.578 753.039 Q761.117 751.636 761.117 749.292 Q761.117 746.558 762.94 745.169 Q764.777 743.78 768.408 743.78 L772.141 743.78 L772.141 743.52 Q772.141 741.682 770.926 740.684 Q769.725 739.672 767.54 739.672 Q766.151 739.672 764.835 740.004 Q763.518 740.337 762.303 741.003 L762.303 738.543 Q763.764 737.979 765.139 737.704 Q766.513 737.415 767.815 737.415 Q771.331 737.415 773.067 739.237 Q774.803 741.06 774.803 744.764 Z" fill="#000000" fill-rule="evenodd" fill-opacity="1" /><path clip-path="url(#clip100)" d="M 0 0 M777.595 731.497 L780.257 731.497 L780.257 754.009 L777.595 754.009 L777.595 731.497 Z" fill="#000000" fill-rule="evenodd" fill-opacity="1" /><path clip-path="url(#clip100)" d="M 0 0 M795.361 758.928 L795.361 760.997 L779.968 760.997 L779.968 758.928 L795.361 758.928 Z" fill="#000000" fill-rule="evenodd" fill-opacity="1" /><path clip-path="url(#clip100)" d="M 0 0 M814.444 734.073 L814.444 737.154 Q812.968 735.78 811.29 735.1 Q809.626 734.42 807.745 734.42 Q804.042 734.42 802.074 736.691 Q800.107 738.948 800.107 743.231 Q800.107 747.498 802.074 749.77 Q804.042 752.027 807.745 752.027 Q809.626 752.027 811.29 751.347 Q812.968 750.667 814.444 749.292 L814.444 752.345 Q812.91 753.387 811.189 753.908 Q809.482 754.428 807.572 754.428 Q802.667 754.428 799.846 751.434 Q797.025 748.424 797.025 743.231 Q797.025 738.022 799.846 735.027 Q802.667 732.018 807.572 732.018 Q809.51 732.018 811.218 732.539 Q812.939 733.045 814.444 734.073 Z" fill="#000000" fill-rule="evenodd" fill-opacity="1" /><path clip-path="url(#clip100)" d="M 0 0 M823.515 739.672 Q821.374 739.672 820.13 741.35 Q818.885 743.014 818.885 745.921 Q818.885 748.829 820.115 750.508 Q821.359 752.171 823.515 752.171 Q825.642 752.171 826.886 750.493 Q828.13 748.815 828.13 745.921 Q828.13 743.042 826.886 741.364 Q825.642 739.672 823.515 739.672 M823.515 737.415 Q826.987 737.415 828.969 739.672 Q830.951 741.928 830.951 745.921 Q830.951 749.9 828.969 752.171 Q826.987 754.428 823.515 754.428 Q820.028 754.428 818.046 752.171 Q816.079 749.9 816.079 745.921 Q816.079 741.928 818.046 739.672 Q820.028 737.415 823.515 737.415 Z" fill="#000000" fill-rule="evenodd" fill-opacity="1" /><path clip-path="url(#clip100)" d="M 0 0 M847.213 744.229 L847.213 754.009 L844.551 754.009 L844.551 744.316 Q844.551 742.015 843.654 740.872 Q842.757 739.729 840.963 739.729 Q838.807 739.729 837.563 741.104 Q836.319 742.478 836.319 744.851 L836.319 754.009 L833.642 754.009 L833.642 737.805 L836.319 737.805 L836.319 740.323 Q837.274 738.861 838.561 738.138 Q839.863 737.415 841.556 737.415 Q844.348 737.415 845.781 739.151 Q847.213 740.872 847.213 744.229 Z" fill="#000000" fill-rule="evenodd" fill-opacity="1" /><path clip-path="url(#clip100)" d="M 0 0 M860.335 738.283 L860.335 740.8 Q859.206 740.221 857.991 739.932 Q856.776 739.643 855.474 739.643 Q853.492 739.643 852.493 740.25 Q851.51 740.858 851.51 742.073 Q851.51 742.999 852.219 743.534 Q852.927 744.055 855.069 744.533 L855.98 744.735 Q858.816 745.343 860.002 746.457 Q861.203 747.556 861.203 749.538 Q861.203 751.795 859.409 753.112 Q857.629 754.428 854.504 754.428 Q853.202 754.428 851.785 754.168 Q850.381 753.922 848.819 753.416 L848.819 750.667 Q850.294 751.434 851.727 751.824 Q853.159 752.2 854.562 752.2 Q856.443 752.2 857.456 751.564 Q858.469 750.913 858.469 749.741 Q858.469 748.656 857.731 748.077 Q857.007 747.498 854.533 746.963 L853.607 746.746 Q851.134 746.225 850.034 745.155 Q848.934 744.07 848.934 742.189 Q848.934 739.903 850.555 738.659 Q852.175 737.415 855.155 737.415 Q856.631 737.415 857.933 737.632 Q859.235 737.849 860.335 738.283 Z" fill="#000000" fill-rule="evenodd" fill-opacity="1" /><path clip-path="url(#clip100)" d="M 0 0 M866.628 733.205 L866.628 737.805 L872.111 737.805 L872.111 739.874 L866.628 739.874 L866.628 748.67 Q866.628 750.652 867.164 751.217 Q867.713 751.781 869.377 751.781 L872.111 751.781 L872.111 754.009 L869.377 754.009 Q866.295 754.009 865.124 752.866 Q863.952 751.708 863.952 748.67 L863.952 739.874 L861.999 739.874 L861.999 737.805 L863.952 737.805 L863.952 733.205 L866.628 733.205 Z" fill="#000000" fill-rule="evenodd" fill-opacity="1" /><path clip-path="url(#clip100)" d="M 0 0 M884.293 740.294 Q883.845 740.033 883.309 739.917 Q882.788 739.787 882.152 739.787 Q879.895 739.787 878.68 741.263 Q877.479 742.724 877.479 745.473 L877.479 754.009 L874.802 754.009 L874.802 737.805 L877.479 737.805 L877.479 740.323 Q878.318 738.847 879.663 738.138 Q881.009 737.415 882.933 737.415 Q883.208 737.415 883.541 737.458 Q883.874 737.487 884.279 737.559 L884.293 740.294 Z" fill="#000000" fill-rule="evenodd" fill-opacity="1" /><path clip-path="url(#clip100)" d="M 0 0 M894.449 745.864 Q891.223 745.864 889.979 746.601 Q888.735 747.339 888.735 749.119 Q888.735 750.537 889.661 751.376 Q890.601 752.2 892.207 752.2 Q894.42 752.2 895.751 750.638 Q897.097 749.061 897.097 746.457 L897.097 745.864 L894.449 745.864 M899.759 744.764 L899.759 754.009 L897.097 754.009 L897.097 751.549 Q896.185 753.025 894.825 753.734 Q893.465 754.428 891.498 754.428 Q889.009 754.428 887.534 753.039 Q886.073 751.636 886.073 749.292 Q886.073 746.558 887.895 745.169 Q889.733 743.78 893.364 743.78 L897.097 743.78 L897.097 743.52 Q897.097 741.682 895.882 740.684 Q894.681 739.672 892.496 739.672 Q891.107 739.672 889.791 740.004 Q888.474 740.337 887.259 741.003 L887.259 738.543 Q888.72 737.979 890.095 737.704 Q891.469 737.415 892.771 737.415 Q896.287 737.415 898.023 739.237 Q899.759 741.06 899.759 744.764 Z" fill="#000000" fill-rule="evenodd" fill-opacity="1" /><path clip-path="url(#clip100)" d="M 0 0 M902.551 737.805 L905.213 737.805 L905.213 754.009 L902.551 754.009 L902.551 737.805 M902.551 731.497 L905.213 731.497 L905.213 734.868 L902.551 734.868 L902.551 731.497 Z" fill="#000000" fill-rule="evenodd" fill-opacity="1" /><path clip-path="url(#clip100)" d="M 0 0 M921.475 744.229 L921.475 754.009 L918.813 754.009 L918.813 744.316 Q918.813 742.015 917.916 740.872 Q917.019 739.729 915.225 739.729 Q913.069 739.729 911.825 741.104 Q910.581 742.478 910.581 744.851 L910.581 754.009 L907.904 754.009 L907.904 737.805 L910.581 737.805 L910.581 740.323 Q911.535 738.861 912.823 738.138 Q914.125 737.415 915.818 737.415 Q918.61 737.415 920.042 739.151 Q921.475 740.872 921.475 744.229 Z" fill="#000000" fill-rule="evenodd" fill-opacity="1" /><path clip-path="url(#clip100)" d="M 0 0 M926.9 733.205 L926.9 737.805 L932.383 737.805 L932.383 739.874 L926.9 739.874 L926.9 748.67 Q926.9 750.652 927.435 751.217 Q927.985 751.781 929.649 751.781 L932.383 751.781 L932.383 754.009 L929.649 754.009 Q926.567 754.009 925.395 752.866 Q924.223 751.708 924.223 748.67 L924.223 739.874 L922.27 739.874 L922.27 737.805 L924.223 737.805 L924.223 733.205 L926.9 733.205 Z" fill="#000000" fill-rule="evenodd" fill-opacity="1" /><path clip-path="url(#clip100)" d="M 0 0 M945.505 738.283 L945.505 740.8 Q944.377 740.221 943.161 739.932 Q941.946 739.643 940.644 739.643 Q938.662 739.643 937.664 740.25 Q936.68 740.858 936.68 742.073 Q936.68 742.999 937.389 743.534 Q938.098 744.055 940.239 744.533 L941.15 744.735 Q943.986 745.343 945.172 746.457 Q946.373 747.556 946.373 749.538 Q946.373 751.795 944.579 753.112 Q942.8 754.428 939.675 754.428 Q938.373 754.428 936.955 754.168 Q935.551 753.922 933.989 753.416 L933.989 750.667 Q935.465 751.434 936.897 751.824 Q938.329 752.2 939.733 752.2 Q941.613 752.2 942.626 751.564 Q943.639 750.913 943.639 749.741 Q943.639 748.656 942.901 748.077 Q942.178 747.498 939.704 746.963 L938.778 746.746 Q936.304 746.225 935.204 745.155 Q934.105 744.07 934.105 742.189 Q934.105 739.903 935.725 738.659 Q937.345 737.415 940.326 737.415 Q941.801 737.415 943.104 737.632 Q944.406 737.849 945.505 738.283 Z" fill="#000000" fill-rule="evenodd" fill-opacity="1" /><path clip-path="url(#clip100)" d="M 0 0 M1064.82 1177.52 L1064.82 1185.64 L1068.49 1185.64 Q1070.53 1185.64 1071.65 1184.58 Q1072.76 1183.52 1072.76 1181.57 Q1072.76 1179.63 1071.65 1178.58 Q1070.53 1177.52 1068.49 1177.52 L1064.82 1177.52 M1061.9 1175.12 L1068.49 1175.12 Q1072.13 1175.12 1073.98 1176.77 Q1075.84 1178.4 1075.84 1181.57 Q1075.84 1184.77 1073.98 1186.4 Q1072.13 1188.04 1068.49 1188.04 L1064.82 1188.04 L1064.82 1196.72 L1061.9 1196.72 L1061.9 1175.12 Z" fill="#000000" fill-rule="evenodd" fill-opacity="1" /><path clip-path="url(#clip100)" d="M 0 0 M1091.44 1187.95 L1091.44 1189.25 L1079.2 1189.25 Q1079.37 1192 1080.85 1193.45 Q1082.34 1194.88 1084.99 1194.88 Q1086.52 1194.88 1087.95 1194.5 Q1089.4 1194.13 1090.82 1193.38 L1090.82 1195.89 Q1089.39 1196.5 1087.88 1196.82 Q1086.38 1197.14 1084.83 1197.14 Q1080.95 1197.14 1078.68 1194.88 Q1076.42 1192.62 1076.42 1188.78 Q1076.42 1184.8 1078.56 1182.47 Q1080.72 1180.12 1084.37 1180.12 Q1087.63 1180.12 1089.53 1182.24 Q1091.44 1184.33 1091.44 1187.95 M1088.78 1187.17 Q1088.75 1184.98 1087.55 1183.68 Q1086.36 1182.38 1084.39 1182.38 Q1082.17 1182.38 1080.82 1183.64 Q1079.49 1184.9 1079.29 1187.18 L1088.78 1187.17 Z" fill="#000000" fill-rule="evenodd" fill-opacity="1" /><path clip-path="url(#clip100)" d="M 0 0 M1103.62 1183 Q1103.17 1182.74 1102.64 1182.63 Q1102.12 1182.5 1101.48 1182.5 Q1099.22 1182.5 1098.01 1183.97 Q1096.81 1185.43 1096.81 1188.18 L1096.81 1196.72 L1094.13 1196.72 L1094.13 1180.51 L1096.81 1180.51 L1096.81 1183.03 Q1097.65 1181.56 1098.99 1180.85 Q1100.34 1180.12 1102.26 1180.12 Q1102.54 1180.12 1102.87 1180.17 Q1103.2 1180.2 1103.61 1180.27 L1103.62 1183 Z" fill="#000000" fill-rule="evenodd" fill-opacity="1" /><path clip-path="url(#clip100)" d="M 0 0 M1114.62 1174.21 L1114.62 1176.42 L1112.07 1176.42 Q1110.64 1176.42 1110.07 1177 Q1109.52 1177.58 1109.52 1179.08 L1109.52 1180.51 L1113.91 1180.51 L1113.91 1182.58 L1109.52 1182.58 L1109.52 1196.72 L1106.85 1196.72 L1106.85 1182.58 L1104.3 1182.58 L1104.3 1180.51 L1106.85 1180.51 L1106.85 1179.39 Q1106.85 1176.68 1108.11 1175.45 Q1109.37 1174.21 1112.1 1174.21 L1114.62 1174.21 Z" fill="#000000" fill-rule="evenodd" fill-opacity="1" /><path clip-path="url(#clip100)" d="M 0 0 M1123.69 1182.38 Q1121.55 1182.38 1120.3 1184.06 Q1119.06 1185.72 1119.06 1188.63 Q1119.06 1191.54 1120.29 1193.22 Q1121.53 1194.88 1123.69 1194.88 Q1125.81 1194.88 1127.06 1193.2 Q1128.3 1191.52 1128.3 1188.63 Q1128.3 1185.75 1127.06 1184.07 Q1125.81 1182.38 1123.69 1182.38 M1123.69 1180.12 Q1127.16 1180.12 1129.14 1182.38 Q1131.12 1184.64 1131.12 1188.63 Q1131.12 1192.61 1129.14 1194.88 Q1127.16 1197.14 1123.69 1197.14 Q1120.2 1197.14 1118.22 1194.88 Q1116.25 1192.61 1116.25 1188.63 Q1116.25 1184.64 1118.22 1182.38 Q1120.2 1180.12 1123.69 1180.12 Z" fill="#000000" fill-rule="evenodd" fill-opacity="1" /><path clip-path="url(#clip100)" d="M 0 0 M1143.31 1183 Q1142.86 1182.74 1142.32 1182.63 Q1141.8 1182.5 1141.16 1182.5 Q1138.91 1182.5 1137.69 1183.97 Q1136.49 1185.43 1136.49 1188.18 L1136.49 1196.72 L1133.82 1196.72 L1133.82 1180.51 L1136.49 1180.51 L1136.49 1183.03 Q1137.33 1181.56 1138.68 1180.85 Q1140.02 1180.12 1141.95 1180.12 Q1142.22 1180.12 1142.55 1180.17 Q1142.89 1180.2 1143.29 1180.27 L1143.31 1183 Z" fill="#000000" fill-rule="evenodd" fill-opacity="1" /><path clip-path="url(#clip100)" d="M 0 0 M1158.19 1183.62 Q1159.19 1181.83 1160.58 1180.98 Q1161.97 1180.12 1163.85 1180.12 Q1166.38 1180.12 1167.76 1181.9 Q1169.13 1183.67 1169.13 1186.94 L1169.13 1196.72 L1166.45 1196.72 L1166.45 1187.02 Q1166.45 1184.7 1165.63 1183.57 Q1164.8 1182.44 1163.11 1182.44 Q1161.04 1182.44 1159.84 1183.81 Q1158.64 1185.19 1158.64 1187.56 L1158.64 1196.72 L1155.96 1196.72 L1155.96 1187.02 Q1155.96 1184.68 1155.14 1183.57 Q1154.32 1182.44 1152.59 1182.44 Q1150.55 1182.44 1149.35 1183.83 Q1148.15 1185.2 1148.15 1187.56 L1148.15 1196.72 L1145.48 1196.72 L1145.48 1180.51 L1148.15 1180.51 L1148.15 1183.03 Q1149.06 1181.54 1150.34 1180.83 Q1151.61 1180.12 1153.36 1180.12 Q1155.13 1180.12 1156.36 1181.02 Q1157.6 1181.92 1158.19 1183.62 Z" fill="#000000" fill-rule="evenodd" fill-opacity="1" /><path clip-path="url(#clip100)" d="M 0 0 M1179.29 1188.57 Q1176.06 1188.57 1174.82 1189.31 Q1173.57 1190.05 1173.57 1191.83 Q1173.57 1193.25 1174.5 1194.08 Q1175.44 1194.91 1177.04 1194.91 Q1179.26 1194.91 1180.59 1193.35 Q1181.93 1191.77 1181.93 1189.17 L1181.93 1188.57 L1179.29 1188.57 M1184.6 1187.47 L1184.6 1196.72 L1181.93 1196.72 L1181.93 1194.26 Q1181.02 1195.73 1179.66 1196.44 Q1178.3 1197.14 1176.34 1197.14 Q1173.85 1197.14 1172.37 1195.75 Q1170.91 1194.35 1170.91 1192 Q1170.91 1189.27 1172.73 1187.88 Q1174.57 1186.49 1178.2 1186.49 L1181.93 1186.49 L1181.93 1186.23 Q1181.93 1184.39 1180.72 1183.39 Q1179.52 1182.38 1177.33 1182.38 Q1175.94 1182.38 1174.63 1182.71 Q1173.31 1183.05 1172.1 1183.71 L1172.1 1181.25 Q1173.56 1180.69 1174.93 1180.41 Q1176.31 1180.12 1177.61 1180.12 Q1181.12 1180.12 1182.86 1181.95 Q1184.6 1183.77 1184.6 1187.47 Z" fill="#000000" fill-rule="evenodd" fill-opacity="1" /><path clip-path="url(#clip100)" d="M 0 0 M1200.86 1186.94 L1200.86 1196.72 L1198.2 1196.72 L1198.2 1187.02 Q1198.2 1184.72 1197.3 1183.58 Q1196.4 1182.44 1194.61 1182.44 Q1192.45 1182.44 1191.21 1183.81 Q1189.96 1185.19 1189.96 1187.56 L1189.96 1196.72 L1187.29 1196.72 L1187.29 1180.51 L1189.96 1180.51 L1189.96 1183.03 Q1190.92 1181.57 1192.21 1180.85 Q1193.51 1180.12 1195.2 1180.12 Q1197.99 1180.12 1199.43 1181.86 Q1200.86 1183.58 1200.86 1186.94 Z" fill="#000000" fill-rule="evenodd" fill-opacity="1" /><path clip-path="url(#clip100)" d="M 0 0 M1215.31 1181.14 L1215.31 1183.62 Q1214.18 1183 1213.04 1182.7 Q1211.91 1182.38 1210.75 1182.38 Q1208.16 1182.38 1206.73 1184.03 Q1205.3 1185.66 1205.3 1188.63 Q1205.3 1191.6 1206.73 1193.25 Q1208.16 1194.88 1210.75 1194.88 Q1211.91 1194.88 1213.04 1194.58 Q1214.18 1194.26 1215.31 1193.64 L1215.31 1196.1 Q1214.2 1196.62 1213 1196.88 Q1211.81 1197.14 1210.46 1197.14 Q1206.8 1197.14 1204.65 1194.84 Q1202.49 1192.54 1202.49 1188.63 Q1202.49 1184.67 1204.66 1182.39 Q1206.85 1180.12 1210.64 1180.12 Q1211.87 1180.12 1213.04 1180.38 Q1214.21 1180.63 1215.31 1181.14 Z" fill="#000000" fill-rule="evenodd" fill-opacity="1" /><path clip-path="url(#clip100)" d="M 0 0 M1231.96 1187.95 L1231.96 1189.25 L1219.72 1189.25 Q1219.9 1192 1221.37 1193.45 Q1222.86 1194.88 1225.51 1194.88 Q1227.04 1194.88 1228.48 1194.5 Q1229.92 1194.13 1231.34 1193.38 L1231.34 1195.89 Q1229.91 1196.5 1228.4 1196.82 Q1226.9 1197.14 1225.35 1197.14 Q1221.47 1197.14 1219.2 1194.88 Q1216.95 1192.62 1216.95 1188.78 Q1216.95 1184.8 1219.09 1182.47 Q1221.24 1180.12 1224.89 1180.12 Q1228.16 1180.12 1230.05 1182.24 Q1231.96 1184.33 1231.96 1187.95 M1229.3 1187.17 Q1229.27 1184.98 1228.07 1183.68 Q1226.88 1182.38 1224.92 1182.38 Q1222.69 1182.38 1221.34 1183.64 Q1220.01 1184.9 1219.81 1187.18 L1229.3 1187.17 Z" fill="#000000" fill-rule="evenodd" fill-opacity="1" /><path clip-path="url(#clip100)" d="M 0 0 M1247.07 1201.64 L1247.07 1203.71 L1231.67 1203.71 L1231.67 1201.64 L1247.07 1201.64 Z" fill="#000000" fill-rule="evenodd" fill-opacity="1" /><path clip-path="url(#clip100)" d="M 0 0 M1252.9 1177.52 L1252.9 1185.64 L1256.57 1185.64 Q1258.61 1185.64 1259.73 1184.58 Q1260.84 1183.52 1260.84 1181.57 Q1260.84 1179.63 1259.73 1178.58 Q1258.61 1177.52 1256.57 1177.52 L1252.9 1177.52 M1249.97 1175.12 L1256.57 1175.12 Q1260.2 1175.12 1262.06 1176.77 Q1263.92 1178.4 1263.92 1181.57 Q1263.92 1184.77 1262.06 1186.4 Q1260.2 1188.04 1256.57 1188.04 L1252.9 1188.04 L1252.9 1196.72 L1249.97 1196.72 L1249.97 1175.12 Z" fill="#000000" fill-rule="evenodd" fill-opacity="1" /><path clip-path="url(#clip100)" d="M 0 0 M1272.75 1188.57 Q1269.52 1188.57 1268.28 1189.31 Q1267.03 1190.05 1267.03 1191.83 Q1267.03 1193.25 1267.96 1194.08 Q1268.9 1194.91 1270.5 1194.91 Q1272.72 1194.91 1274.05 1193.35 Q1275.39 1191.77 1275.39 1189.17 L1275.39 1188.57 L1272.75 1188.57 M1278.06 1187.47 L1278.06 1196.72 L1275.39 1196.72 L1275.39 1194.26 Q1274.48 1195.73 1273.12 1196.44 Q1271.76 1197.14 1269.8 1197.14 Q1267.31 1197.14 1265.83 1195.75 Q1264.37 1194.35 1264.37 1192 Q1264.37 1189.27 1266.19 1187.88 Q1268.03 1186.49 1271.66 1186.49 L1275.39 1186.49 L1275.39 1186.23 Q1275.39 1184.39 1274.18 1183.39 Q1272.98 1182.38 1270.79 1182.38 Q1269.4 1182.38 1268.09 1182.71 Q1266.77 1183.05 1265.56 1183.71 L1265.56 1181.25 Q1267.02 1180.69 1268.39 1180.41 Q1269.77 1180.12 1271.07 1180.12 Q1274.58 1180.12 1276.32 1181.95 Q1278.06 1183.77 1278.06 1187.47 Z" fill="#000000" fill-rule="evenodd" fill-opacity="1" /><path clip-path="url(#clip100)" d="M 0 0 M1290.24 1183 Q1289.79 1182.74 1289.25 1182.63 Q1288.73 1182.5 1288.1 1182.5 Q1285.84 1182.5 1284.62 1183.97 Q1283.42 1185.43 1283.42 1188.18 L1283.42 1196.72 L1280.75 1196.72 L1280.75 1180.51 L1283.42 1180.51 L1283.42 1183.03 Q1284.26 1181.56 1285.61 1180.85 Q1286.95 1180.12 1288.88 1180.12 Q1289.15 1180.12 1289.49 1180.17 Q1289.82 1180.2 1290.22 1180.27 L1290.24 1183 Z" fill="#000000" fill-rule="evenodd" fill-opacity="1" /><path clip-path="url(#clip100)" d="M 0 0 M1300.39 1188.57 Q1297.17 1188.57 1295.92 1189.31 Q1294.68 1190.05 1294.68 1191.83 Q1294.68 1193.25 1295.61 1194.08 Q1296.55 1194.91 1298.15 1194.91 Q1300.37 1194.91 1301.7 1193.35 Q1303.04 1191.77 1303.04 1189.17 L1303.04 1188.57 L1300.39 1188.57 M1305.7 1187.47 L1305.7 1196.72 L1303.04 1196.72 L1303.04 1194.26 Q1302.13 1195.73 1300.77 1196.44 Q1299.41 1197.14 1297.44 1197.14 Q1294.95 1197.14 1293.48 1195.75 Q1292.02 1194.35 1292.02 1192 Q1292.02 1189.27 1293.84 1187.88 Q1295.68 1186.49 1299.31 1186.49 L1303.04 1186.49 L1303.04 1186.23 Q1303.04 1184.39 1301.83 1183.39 Q1300.63 1182.38 1298.44 1182.38 Q1297.05 1182.38 1295.74 1182.71 Q1294.42 1183.05 1293.2 1183.71 L1293.2 1181.25 Q1294.66 1180.69 1296.04 1180.41 Q1297.41 1180.12 1298.72 1180.12 Q1302.23 1180.12 1303.97 1181.95 Q1305.7 1183.77 1305.7 1187.47 Z" fill="#000000" fill-rule="evenodd" fill-opacity="1" /><path clip-path="url(#clip100)" d="M 0 0 M1321.11 1183.62 Q1322.11 1181.83 1323.5 1180.98 Q1324.89 1180.12 1326.77 1180.12 Q1329.3 1180.12 1330.67 1181.9 Q1332.05 1183.67 1332.05 1186.94 L1332.05 1196.72 L1329.37 1196.72 L1329.37 1187.02 Q1329.37 1184.7 1328.55 1183.57 Q1327.72 1182.44 1326.03 1182.44 Q1323.96 1182.44 1322.76 1183.81 Q1321.56 1185.19 1321.56 1187.56 L1321.56 1196.72 L1318.88 1196.72 L1318.88 1187.02 Q1318.88 1184.68 1318.06 1183.57 Q1317.23 1182.44 1315.51 1182.44 Q1313.47 1182.44 1312.27 1183.83 Q1311.07 1185.2 1311.07 1187.56 L1311.07 1196.72 L1308.39 1196.72 L1308.39 1180.51 L1311.07 1180.51 L1311.07 1183.03 Q1311.98 1181.54 1313.26 1180.83 Q1314.53 1180.12 1316.28 1180.12 Q1318.04 1180.12 1319.27 1181.02 Q1320.52 1181.92 1321.11 1183.62 Z" fill="#000000" fill-rule="evenodd" fill-opacity="1" /><path clip-path="url(#clip100)" d="M 0 0 M1348.7 1187.95 L1348.7 1189.25 L1336.46 1189.25 Q1336.64 1192 1338.11 1193.45 Q1339.6 1194.88 1342.25 1194.88 Q1343.78 1194.88 1345.21 1194.5 Q1346.66 1194.13 1348.08 1193.38 L1348.08 1195.89 Q1346.65 1196.5 1345.14 1196.82 Q1343.64 1197.14 1342.09 1197.14 Q1338.21 1197.14 1335.94 1194.88 Q1333.68 1192.62 1333.68 1188.78 Q1333.68 1184.8 1335.83 1182.47 Q1337.98 1180.12 1341.63 1180.12 Q1344.9 1180.12 1346.79 1182.24 Q1348.7 1184.33 1348.7 1187.95 M1346.04 1187.17 Q1346.01 1184.98 1344.81 1183.68 Q1343.62 1182.38 1341.66 1182.38 Q1339.43 1182.38 1338.08 1183.64 Q1336.75 1184.9 1336.55 1187.18 L1346.04 1187.17 Z" fill="#000000" fill-rule="evenodd" fill-opacity="1" /><path clip-path="url(#clip100)" d="M 0 0 M1354.13 1175.91 L1354.13 1180.51 L1359.61 1180.51 L1359.61 1182.58 L1354.13 1182.58 L1354.13 1191.38 Q1354.13 1193.36 1354.66 1193.93 Q1355.21 1194.49 1356.88 1194.49 L1359.61 1194.49 L1359.61 1196.72 L1356.88 1196.72 Q1353.79 1196.72 1352.62 1195.57 Q1351.45 1194.42 1351.45 1191.38 L1351.45 1182.58 L1349.5 1182.58 L1349.5 1180.51 L1351.45 1180.51 L1351.45 1175.91 L1354.13 1175.91 Z" fill="#000000" fill-rule="evenodd" fill-opacity="1" /><path clip-path="url(#clip100)" d="M 0 0 M1376.26 1187.95 L1376.26 1189.25 L1364.02 1189.25 Q1364.2 1192 1365.67 1193.45 Q1367.16 1194.88 1369.81 1194.88 Q1371.34 1194.88 1372.78 1194.5 Q1374.22 1194.13 1375.64 1193.38 L1375.64 1195.89 Q1374.21 1196.5 1372.7 1196.82 Q1371.2 1197.14 1369.65 1197.14 Q1365.77 1197.14 1363.5 1194.88 Q1361.24 1192.62 1361.24 1188.78 Q1361.24 1184.8 1363.39 1182.47 Q1365.54 1180.12 1369.19 1180.12 Q1372.46 1180.12 1374.35 1182.24 Q1376.26 1184.33 1376.26 1187.95 M1373.6 1187.17 Q1373.57 1184.98 1372.37 1183.68 Q1371.18 1182.38 1369.22 1182.38 Q1366.99 1182.38 1365.64 1183.64 Q1364.31 1184.9 1364.11 1187.18 L1373.6 1187.17 Z" fill="#000000" fill-rule="evenodd" fill-opacity="1" /><path clip-path="url(#clip100)" d="M 0 0 M1388.44 1183 Q1387.99 1182.74 1387.46 1182.63 Q1386.94 1182.5 1386.3 1182.5 Q1384.05 1182.5 1382.83 1183.97 Q1381.63 1185.43 1381.63 1188.18 L1381.63 1196.72 L1378.95 1196.72 L1378.95 1180.51 L1381.63 1180.51 L1381.63 1183.03 Q1382.47 1181.56 1383.81 1180.85 Q1385.16 1180.12 1387.08 1180.12 Q1387.36 1180.12 1387.69 1180.17 Q1388.02 1180.2 1388.43 1180.27 L1388.44 1183 Z" fill="#000000" fill-rule="evenodd" fill-opacity="1" /><path clip-path="url(#clip100)" d="M 0 0 M1401.57 1180.99 L1401.57 1183.51 Q1400.44 1182.93 1399.22 1182.64 Q1398.01 1182.35 1396.7 1182.35 Q1394.72 1182.35 1393.72 1182.96 Q1392.74 1183.57 1392.74 1184.78 Q1392.74 1185.71 1393.45 1186.24 Q1394.16 1186.76 1396.3 1187.24 L1397.21 1187.44 Q1400.05 1188.05 1401.23 1189.17 Q1402.43 1190.27 1402.43 1192.25 Q1402.43 1194.5 1400.64 1195.82 Q1398.86 1197.14 1395.74 1197.14 Q1394.43 1197.14 1393.02 1196.88 Q1391.61 1196.63 1390.05 1196.12 L1390.05 1193.38 Q1391.52 1194.14 1392.96 1194.53 Q1394.39 1194.91 1395.79 1194.91 Q1397.67 1194.91 1398.69 1194.27 Q1399.7 1193.62 1399.7 1192.45 Q1399.7 1191.36 1398.96 1190.79 Q1398.24 1190.21 1395.76 1189.67 L1394.84 1189.46 Q1392.36 1188.93 1391.26 1187.86 Q1390.17 1186.78 1390.17 1184.9 Q1390.17 1182.61 1391.79 1181.37 Q1393.41 1180.12 1396.39 1180.12 Q1397.86 1180.12 1399.16 1180.34 Q1400.47 1180.56 1401.57 1180.99 Z" fill="#000000" fill-rule="evenodd" fill-opacity="1" /><path clip-path="url(#clip100)" d="M 0 0 M796.329 1058.33 L796.329 1061.41 Q794.853 1060.04 793.175 1059.36 Q791.511 1058.68 789.631 1058.68 Q785.927 1058.68 783.959 1060.95 Q781.992 1063.21 781.992 1067.49 Q781.992 1071.76 783.959 1074.03 Q785.927 1076.29 789.631 1076.29 Q791.511 1076.29 793.175 1075.61 Q794.853 1074.93 796.329 1073.55 L796.329 1076.6 Q794.796 1077.65 793.074 1078.17 Q791.367 1078.69 789.457 1078.69 Q784.553 1078.69 781.731 1075.69 Q778.91 1072.68 778.91 1067.49 Q778.91 1062.28 781.731 1059.29 Q784.553 1056.28 789.457 1056.28 Q791.396 1056.28 793.103 1056.8 Q794.824 1057.3 796.329 1058.33 Z" fill="#000000" fill-rule="evenodd" fill-opacity="1" /><path clip-path="url(#clip100)" d="M 0 0 M799.121 1055.76 L801.783 1055.76 L801.783 1078.27 L799.121 1078.27 L799.121 1055.76 Z" fill="#000000" fill-rule="evenodd" fill-opacity="1" /><path clip-path="url(#clip100)" d="M 0 0 M804.576 1062.06 L807.238 1062.06 L807.238 1078.27 L804.576 1078.27 L804.576 1062.06 M804.576 1055.76 L807.238 1055.76 L807.238 1059.13 L804.576 1059.13 L804.576 1055.76 Z" fill="#000000" fill-rule="evenodd" fill-opacity="1" /><path clip-path="url(#clip100)" d="M 0 0 M823.89 1069.5 L823.89 1070.8 L811.65 1070.8 Q811.824 1073.55 813.299 1075 Q814.79 1076.43 817.437 1076.43 Q818.971 1076.43 820.403 1076.05 Q821.85 1075.68 823.268 1074.93 L823.268 1077.44 Q821.835 1078.05 820.331 1078.37 Q818.826 1078.69 817.278 1078.69 Q813.401 1078.69 811.129 1076.43 Q808.872 1074.17 808.872 1070.33 Q808.872 1066.35 811.014 1064.02 Q813.169 1061.67 816.815 1061.67 Q820.085 1061.67 821.98 1063.79 Q823.89 1065.88 823.89 1069.5 M821.228 1068.72 Q821.199 1066.54 819.998 1065.23 Q818.812 1063.93 816.844 1063.93 Q814.616 1063.93 813.271 1065.19 Q811.94 1066.45 811.737 1068.73 L821.228 1068.72 Z" fill="#000000" fill-rule="evenodd" fill-opacity="1" /><path clip-path="url(#clip100)" d="M 0 0 M840.151 1068.49 L840.151 1078.27 L837.489 1078.27 L837.489 1068.57 Q837.489 1066.27 836.592 1065.13 Q835.695 1063.99 833.901 1063.99 Q831.746 1063.99 830.501 1065.36 Q829.257 1066.74 829.257 1069.11 L829.257 1078.27 L826.581 1078.27 L826.581 1062.06 L829.257 1062.06 L829.257 1064.58 Q830.212 1063.12 831.5 1062.4 Q832.802 1061.67 834.494 1061.67 Q837.287 1061.67 838.719 1063.41 Q840.151 1065.13 840.151 1068.49 Z" fill="#000000" fill-rule="evenodd" fill-opacity="1" /><path clip-path="url(#clip100)" d="M 0 0 M845.576 1057.46 L845.576 1062.06 L851.06 1062.06 L851.06 1064.13 L845.576 1064.13 L845.576 1072.93 Q845.576 1074.91 846.112 1075.48 Q846.662 1076.04 848.325 1076.04 L851.06 1076.04 L851.06 1078.27 L848.325 1078.27 Q845.244 1078.27 844.072 1077.13 Q842.9 1075.97 842.9 1072.93 L842.9 1064.13 L840.947 1064.13 L840.947 1062.06 L842.9 1062.06 L842.9 1057.46 L845.576 1057.46 Z" fill="#000000" fill-rule="evenodd" fill-opacity="1" /><path clip-path="url(#clip100)" d="M 0 0 M866.164 1083.19 L866.164 1085.26 L850.77 1085.26 L850.77 1083.19 L866.164 1083.19 Z" fill="#000000" fill-rule="evenodd" fill-opacity="1" /><path clip-path="url(#clip100)" d="M 0 0 M876.32 1070.12 Q873.094 1070.12 871.849 1070.86 Q870.605 1071.6 870.605 1073.38 Q870.605 1074.8 871.531 1075.64 Q872.472 1076.46 874.077 1076.46 Q876.291 1076.46 877.622 1074.9 Q878.968 1073.32 878.968 1070.72 L878.968 1070.12 L876.32 1070.12 M881.63 1069.02 L881.63 1078.27 L878.968 1078.27 L878.968 1075.81 Q878.056 1077.28 876.696 1077.99 Q875.336 1078.69 873.369 1078.69 Q870.88 1078.69 869.404 1077.3 Q867.943 1075.9 867.943 1073.55 Q867.943 1070.82 869.766 1069.43 Q871.604 1068.04 875.235 1068.04 L878.968 1068.04 L878.968 1067.78 Q878.968 1065.94 877.752 1064.94 Q876.551 1063.93 874.367 1063.93 Q872.978 1063.93 871.661 1064.26 Q870.345 1064.6 869.13 1065.26 L869.13 1062.8 Q870.591 1062.24 871.965 1061.96 Q873.34 1061.67 874.642 1061.67 Q878.157 1061.67 879.893 1063.5 Q881.63 1065.32 881.63 1069.02 Z" fill="#000000" fill-rule="evenodd" fill-opacity="1" /><path clip-path="url(#clip100)" d="M 0 0 M897.891 1068.49 L897.891 1078.27 L895.229 1078.27 L895.229 1068.57 Q895.229 1066.27 894.332 1065.13 Q893.435 1063.99 891.641 1063.99 Q889.485 1063.99 888.241 1065.36 Q886.997 1066.74 886.997 1069.11 L886.997 1078.27 L884.32 1078.27 L884.32 1062.06 L886.997 1062.06 L886.997 1064.58 Q887.952 1063.12 889.239 1062.4 Q890.542 1061.67 892.234 1061.67 Q895.026 1061.67 896.459 1063.41 Q897.891 1065.13 897.891 1068.49 Z" fill="#000000" fill-rule="evenodd" fill-opacity="1" /><path clip-path="url(#clip100)" d="M 0 0 M911.346 1064.52 L911.346 1055.76 L914.008 1055.76 L914.008 1078.27 L911.346 1078.27 L911.346 1075.84 Q910.507 1077.28 909.219 1077.99 Q907.946 1078.69 906.152 1078.69 Q903.215 1078.69 901.363 1076.34 Q899.526 1074 899.526 1070.18 Q899.526 1066.36 901.363 1064.02 Q903.215 1061.67 906.152 1061.67 Q907.946 1061.67 909.219 1062.38 Q910.507 1063.08 911.346 1064.52 M902.275 1070.18 Q902.275 1073.12 903.475 1074.8 Q904.691 1076.46 906.803 1076.46 Q908.915 1076.46 910.131 1074.8 Q911.346 1073.12 911.346 1070.18 Q911.346 1067.24 910.131 1065.58 Q908.915 1063.9 906.803 1063.9 Q904.691 1063.9 903.475 1065.58 Q902.275 1067.24 902.275 1070.18 Z" fill="#000000" fill-rule="evenodd" fill-opacity="1" /><path clip-path="url(#clip100)" d="M 0 0 M929.112 1083.19 L929.112 1085.26 L913.718 1085.26 L913.718 1083.19 L929.112 1083.19 Z" fill="#000000" fill-rule="evenodd" fill-opacity="1" /><path clip-path="url(#clip100)" d="M 0 0 M948.195 1058.33 L948.195 1061.41 Q946.719 1060.04 945.041 1059.36 Q943.377 1058.68 941.496 1058.68 Q937.792 1058.68 935.825 1060.95 Q933.857 1063.21 933.857 1067.49 Q933.857 1071.76 935.825 1074.03 Q937.792 1076.29 941.496 1076.29 Q943.377 1076.29 945.041 1075.61 Q946.719 1074.93 948.195 1073.55 L948.195 1076.6 Q946.661 1077.65 944.939 1078.17 Q943.232 1078.69 941.323 1078.69 Q936.418 1078.69 933.597 1075.69 Q930.776 1072.68 930.776 1067.49 Q930.776 1062.28 933.597 1059.29 Q936.418 1056.28 941.323 1056.28 Q943.261 1056.28 944.968 1056.8 Q946.69 1057.3 948.195 1058.33 Z" fill="#000000" fill-rule="evenodd" fill-opacity="1" /><path clip-path="url(#clip100)" d="M 0 0 M957.266 1063.93 Q955.125 1063.93 953.88 1065.61 Q952.636 1067.27 952.636 1070.18 Q952.636 1073.09 953.866 1074.77 Q955.11 1076.43 957.266 1076.43 Q959.392 1076.43 960.637 1074.75 Q961.881 1073.07 961.881 1070.18 Q961.881 1067.3 960.637 1065.62 Q959.392 1063.93 957.266 1063.93 M957.266 1061.67 Q960.738 1061.67 962.72 1063.93 Q964.702 1066.19 964.702 1070.18 Q964.702 1074.16 962.72 1076.43 Q960.738 1078.69 957.266 1078.69 Q953.779 1078.69 951.797 1076.43 Q949.829 1074.16 949.829 1070.18 Q949.829 1066.19 951.797 1063.93 Q953.779 1061.67 957.266 1061.67 Z" fill="#000000" fill-rule="evenodd" fill-opacity="1" /><path clip-path="url(#clip100)" d="M 0 0 M980.963 1068.49 L980.963 1078.27 L978.301 1078.27 L978.301 1068.57 Q978.301 1066.27 977.404 1065.13 Q976.507 1063.99 974.714 1063.99 Q972.558 1063.99 971.314 1065.36 Q970.069 1066.74 970.069 1069.11 L970.069 1078.27 L967.393 1078.27 L967.393 1062.06 L970.069 1062.06 L970.069 1064.58 Q971.024 1063.12 972.312 1062.4 Q973.614 1061.67 975.307 1061.67 Q978.099 1061.67 979.531 1063.41 Q980.963 1065.13 980.963 1068.49 Z" fill="#000000" fill-rule="evenodd" fill-opacity="1" /><path clip-path="url(#clip100)" d="M 0 0 M994.086 1062.54 L994.086 1065.06 Q992.957 1064.48 991.742 1064.19 Q990.527 1063.9 989.224 1063.9 Q987.242 1063.9 986.244 1064.51 Q985.26 1065.12 985.26 1066.33 Q985.26 1067.26 985.969 1067.79 Q986.678 1068.31 988.819 1068.79 L989.731 1068.99 Q992.566 1069.6 993.753 1070.72 Q994.954 1071.82 994.954 1073.8 Q994.954 1076.05 993.16 1077.37 Q991.38 1078.69 988.255 1078.69 Q986.953 1078.69 985.535 1078.43 Q984.132 1078.18 982.569 1077.68 L982.569 1074.93 Q984.045 1075.69 985.477 1076.08 Q986.91 1076.46 988.313 1076.46 Q990.194 1076.46 991.206 1075.82 Q992.219 1075.17 992.219 1074 Q992.219 1072.92 991.481 1072.34 Q990.758 1071.76 988.284 1071.22 L987.358 1071.01 Q984.884 1070.48 983.785 1069.41 Q982.685 1068.33 982.685 1066.45 Q982.685 1064.16 984.305 1062.92 Q985.926 1061.67 988.906 1061.67 Q990.382 1061.67 991.684 1061.89 Q992.986 1062.11 994.086 1062.54 Z" fill="#000000" fill-rule="evenodd" fill-opacity="1" /><path clip-path="url(#clip100)" d="M 0 0 M997.471 1071.87 L997.471 1062.06 L1000.13 1062.06 L1000.13 1071.77 Q1000.13 1074.07 1001.03 1075.23 Q1001.93 1076.37 1003.72 1076.37 Q1005.88 1076.37 1007.12 1075 Q1008.38 1073.62 1008.38 1071.25 L1008.38 1062.06 L1011.04 1062.06 L1011.04 1078.27 L1008.38 1078.27 L1008.38 1075.78 Q1007.41 1077.26 1006.12 1077.98 Q1004.85 1078.69 1003.16 1078.69 Q1000.36 1078.69 998.918 1076.95 Q997.471 1075.22 997.471 1071.87 M1004.17 1061.67 L1004.17 1061.67 Z" fill="#000000" fill-rule="evenodd" fill-opacity="1" /><path clip-path="url(#clip100)" d="M 0 0 M1013.83 1055.76 L1016.5 1055.76 L1016.5 1078.27 L1013.83 1078.27 L1013.83 1055.76 Z" fill="#000000" fill-rule="evenodd" fill-opacity="1" /><path clip-path="url(#clip100)" d="M 0 0 M1021.92 1057.46 L1021.92 1062.06 L1027.4 1062.06 L1027.4 1064.13 L1021.92 1064.13 L1021.92 1072.93 Q1021.92 1074.91 1022.46 1075.48 Q1023.01 1076.04 1024.67 1076.04 L1027.4 1076.04 L1027.4 1078.27 L1024.67 1078.27 Q1021.59 1078.27 1020.42 1077.13 Q1019.24 1075.97 1019.24 1072.93 L1019.24 1064.13 L1017.29 1064.13 L1017.29 1062.06 L1019.24 1062.06 L1019.24 1057.46 L1021.92 1057.46 Z" fill="#000000" fill-rule="evenodd" fill-opacity="1" /><path clip-path="url(#clip100)" d="M 0 0 M1037.56 1070.12 Q1034.33 1070.12 1033.09 1070.86 Q1031.85 1071.6 1031.85 1073.38 Q1031.85 1074.8 1032.77 1075.64 Q1033.71 1076.46 1035.32 1076.46 Q1037.53 1076.46 1038.86 1074.9 Q1040.21 1073.32 1040.21 1070.72 L1040.21 1070.12 L1037.56 1070.12 M1042.87 1069.02 L1042.87 1078.27 L1040.21 1078.27 L1040.21 1075.81 Q1039.3 1077.28 1037.94 1077.99 Q1036.58 1078.69 1034.61 1078.69 Q1032.12 1078.69 1030.64 1077.3 Q1029.18 1075.9 1029.18 1073.55 Q1029.18 1070.82 1031.01 1069.43 Q1032.84 1068.04 1036.48 1068.04 L1040.21 1068.04 L1040.21 1067.78 Q1040.21 1065.94 1038.99 1064.94 Q1037.79 1063.93 1035.61 1063.93 Q1034.22 1063.93 1032.9 1064.26 Q1031.59 1064.6 1030.37 1065.26 L1030.37 1062.8 Q1031.83 1062.24 1033.21 1061.96 Q1034.58 1061.67 1035.88 1061.67 Q1039.4 1061.67 1041.13 1063.5 Q1042.87 1065.32 1042.87 1069.02 Z" fill="#000000" fill-rule="evenodd" fill-opacity="1" /><path clip-path="url(#clip100)" d="M 0 0 M1059.13 1068.49 L1059.13 1078.27 L1056.47 1078.27 L1056.47 1068.57 Q1056.47 1066.27 1055.57 1065.13 Q1054.68 1063.99 1052.88 1063.99 Q1050.73 1063.99 1049.48 1065.36 Q1048.24 1066.74 1048.24 1069.11 L1048.24 1078.27 L1045.56 1078.27 L1045.56 1062.06 L1048.24 1062.06 L1048.24 1064.58 Q1049.19 1063.12 1050.48 1062.4 Q1051.78 1061.67 1053.47 1061.67 Q1056.27 1061.67 1057.7 1063.41 Q1059.13 1065.13 1059.13 1068.49 Z" fill="#000000" fill-rule="evenodd" fill-opacity="1" /><path clip-path="url(#clip100)" d="M 0 0 M1064.56 1057.46 L1064.56 1062.06 L1070.04 1062.06 L1070.04 1064.13 L1064.56 1064.13 L1064.56 1072.93 Q1064.56 1074.91 1065.09 1075.48 Q1065.64 1076.04 1067.31 1076.04 L1070.04 1076.04 L1070.04 1078.27 L1067.31 1078.27 Q1064.22 1078.27 1063.05 1077.13 Q1061.88 1075.97 1061.88 1072.93 L1061.88 1064.13 L1059.93 1064.13 L1059.93 1062.06 L1061.88 1062.06 L1061.88 1057.46 L1064.56 1057.46 Z" fill="#000000" fill-rule="evenodd" fill-opacity="1" /><path clip-path="url(#clip100)" d="M 0 0 M1085.14 1083.19 L1085.14 1085.26 L1069.75 1085.26 L1069.75 1083.19 L1085.14 1083.19 Z" fill="#000000" fill-rule="evenodd" fill-opacity="1" /><path clip-path="url(#clip100)" d="M 0 0 M1098.3 1068.14 Q1099.24 1068.46 1100.12 1069.5 Q1101.01 1070.54 1101.91 1072.37 L1104.88 1078.27 L1101.74 1078.27 L1098.98 1072.73 Q1097.9 1070.56 1096.89 1069.85 Q1095.89 1069.14 1094.16 1069.14 L1090.97 1069.14 L1090.97 1078.27 L1088.05 1078.27 L1088.05 1056.67 L1094.65 1056.67 Q1098.35 1056.67 1100.18 1058.22 Q1102 1059.76 1102 1062.89 Q1102 1064.93 1101.04 1066.27 Q1100.1 1067.62 1098.3 1068.14 M1090.97 1059.07 L1090.97 1066.74 L1094.65 1066.74 Q1096.76 1066.74 1097.83 1065.77 Q1098.92 1064.78 1098.92 1062.89 Q1098.92 1060.99 1097.83 1060.04 Q1096.76 1059.07 1094.65 1059.07 L1090.97 1059.07 Z" fill="#000000" fill-rule="evenodd" fill-opacity="1" /><path clip-path="url(#clip100)" d="M 0 0 M1120.2 1069.5 L1120.2 1070.8 L1107.96 1070.8 Q1108.13 1073.55 1109.61 1075 Q1111.1 1076.43 1113.75 1076.43 Q1115.28 1076.43 1116.71 1076.05 Q1118.16 1075.68 1119.58 1074.93 L1119.58 1077.44 Q1118.14 1078.05 1116.64 1078.37 Q1115.14 1078.69 1113.59 1078.69 Q1109.71 1078.69 1107.44 1076.43 Q1105.18 1074.17 1105.18 1070.33 Q1105.18 1066.35 1107.32 1064.02 Q1109.48 1061.67 1113.12 1061.67 Q1116.39 1061.67 1118.29 1063.79 Q1120.2 1065.88 1120.2 1069.5 M1117.54 1068.72 Q1117.51 1066.54 1116.31 1065.23 Q1115.12 1063.93 1113.15 1063.93 Q1110.93 1063.93 1109.58 1065.19 Q1108.25 1066.45 1108.05 1068.73 L1117.54 1068.72 Z" fill="#000000" fill-rule="evenodd" fill-opacity="1" /><path clip-path="url(#clip100)" d="M 0 0 M1124.58 1070.18 Q1124.58 1073.12 1125.78 1074.8 Q1127 1076.46 1129.11 1076.46 Q1131.22 1076.46 1132.44 1074.8 Q1133.65 1073.12 1133.65 1070.18 Q1133.65 1067.24 1132.44 1065.58 Q1131.22 1063.9 1129.11 1063.9 Q1127 1063.9 1125.78 1065.58 Q1124.58 1067.24 1124.58 1070.18 M1133.65 1075.84 Q1132.81 1077.28 1131.53 1077.99 Q1130.25 1078.69 1128.46 1078.69 Q1125.52 1078.69 1123.67 1076.34 Q1121.83 1074 1121.83 1070.18 Q1121.83 1066.36 1123.67 1064.02 Q1125.52 1061.67 1128.46 1061.67 Q1130.25 1061.67 1131.53 1062.38 Q1132.81 1063.08 1133.65 1064.52 L1133.65 1062.06 L1136.32 1062.06 L1136.32 1084.43 L1133.65 1084.43 L1133.65 1075.84 Z" fill="#000000" fill-rule="evenodd" fill-opacity="1" /><path clip-path="url(#clip100)" d="M 0 0 M1138.83 1071.87 L1138.83 1062.06 L1141.5 1062.06 L1141.5 1071.77 Q1141.5 1074.07 1142.39 1075.23 Q1143.29 1076.37 1145.08 1076.37 Q1147.24 1076.37 1148.48 1075 Q1149.74 1073.62 1149.74 1071.25 L1149.74 1062.06 L1152.4 1062.06 L1152.4 1078.27 L1149.74 1078.27 L1149.74 1075.78 Q1148.77 1077.26 1147.48 1077.98 Q1146.21 1078.69 1144.52 1078.69 Q1141.73 1078.69 1140.28 1076.95 Q1138.83 1075.22 1138.83 1071.87 M1145.53 1061.67 L1145.53 1061.67 Z" fill="#000000" fill-rule="evenodd" fill-opacity="1" /><path clip-path="url(#clip100)" d="M 0 0 M1169.06 1069.5 L1169.06 1070.8 L1156.82 1070.8 Q1156.99 1073.55 1158.47 1075 Q1159.96 1076.43 1162.6 1076.43 Q1164.14 1076.43 1165.57 1076.05 Q1167.02 1075.68 1168.43 1074.93 L1168.43 1077.44 Q1167 1078.05 1165.5 1078.37 Q1163.99 1078.69 1162.44 1078.69 Q1158.57 1078.69 1156.3 1076.43 Q1154.04 1074.17 1154.04 1070.33 Q1154.04 1066.35 1156.18 1064.02 Q1158.34 1061.67 1161.98 1061.67 Q1165.25 1061.67 1167.15 1063.79 Q1169.06 1065.88 1169.06 1069.5 M1166.39 1068.72 Q1166.36 1066.54 1165.16 1065.23 Q1163.98 1063.93 1162.01 1063.93 Q1159.78 1063.93 1158.44 1065.19 Q1157.11 1066.45 1156.9 1068.73 L1166.39 1068.72 Z" fill="#000000" fill-rule="evenodd" fill-opacity="1" /><path clip-path="url(#clip100)" d="M 0 0 M1182.18 1062.54 L1182.18 1065.06 Q1181.05 1064.48 1179.83 1064.19 Q1178.62 1063.9 1177.32 1063.9 Q1175.33 1063.9 1174.34 1064.51 Q1173.35 1065.12 1173.35 1066.33 Q1173.35 1067.26 1174.06 1067.79 Q1174.77 1068.31 1176.91 1068.79 L1177.82 1068.99 Q1180.66 1069.6 1181.84 1070.72 Q1183.05 1071.82 1183.05 1073.8 Q1183.05 1076.05 1181.25 1077.37 Q1179.47 1078.69 1176.35 1078.69 Q1175.05 1078.69 1173.63 1078.43 Q1172.22 1078.18 1170.66 1077.68 L1170.66 1074.93 Q1172.14 1075.69 1173.57 1076.08 Q1175 1076.46 1176.41 1076.46 Q1178.29 1076.46 1179.3 1075.82 Q1180.31 1075.17 1180.31 1074 Q1180.31 1072.92 1179.57 1072.34 Q1178.85 1071.76 1176.38 1071.22 L1175.45 1071.01 Q1172.98 1070.48 1171.88 1069.41 Q1170.78 1068.33 1170.78 1066.45 Q1170.78 1064.16 1172.4 1062.92 Q1174.02 1061.67 1177 1061.67 Q1178.47 1061.67 1179.78 1061.89 Q1181.08 1062.11 1182.18 1062.54 Z" fill="#000000" fill-rule="evenodd" fill-opacity="1" /><path clip-path="url(#clip100)" d="M 0 0 M1188.47 1057.46 L1188.47 1062.06 L1193.95 1062.06 L1193.95 1064.13 L1188.47 1064.13 L1188.47 1072.93 Q1188.47 1074.91 1189.01 1075.48 Q1189.56 1076.04 1191.22 1076.04 L1193.95 1076.04 L1193.95 1078.27 L1191.22 1078.27 Q1188.14 1078.27 1186.97 1077.13 Q1185.79 1075.97 1185.79 1072.93 L1185.79 1064.13 L1183.84 1064.13 L1183.84 1062.06 L1185.79 1062.06 L1185.79 1057.46 L1188.47 1057.46 Z" fill="#000000" fill-rule="evenodd" fill-opacity="1" /><path clip-path="url(#clip100)" d="M 0 0 M1207.08 1062.54 L1207.08 1065.06 Q1205.95 1064.48 1204.73 1064.19 Q1203.52 1063.9 1202.22 1063.9 Q1200.23 1063.9 1199.23 1064.51 Q1198.25 1065.12 1198.25 1066.33 Q1198.25 1067.26 1198.96 1067.79 Q1199.67 1068.31 1201.81 1068.79 L1202.72 1068.99 Q1205.56 1069.6 1206.74 1070.72 Q1207.94 1071.82 1207.94 1073.8 Q1207.94 1076.05 1206.15 1077.37 Q1204.37 1078.69 1201.25 1078.69 Q1199.94 1078.69 1198.53 1078.43 Q1197.12 1078.18 1195.56 1077.68 L1195.56 1074.93 Q1197.04 1075.69 1198.47 1076.08 Q1199.9 1076.46 1201.3 1076.46 Q1203.18 1076.46 1204.2 1075.82 Q1205.21 1075.17 1205.21 1074 Q1205.21 1072.92 1204.47 1072.34 Q1203.75 1071.76 1201.27 1071.22 L1200.35 1071.01 Q1197.87 1070.48 1196.78 1069.41 Q1195.68 1068.33 1195.68 1066.45 Q1195.68 1064.16 1197.3 1062.92 Q1198.92 1061.67 1201.9 1061.67 Q1203.37 1061.67 1204.67 1061.89 Q1205.98 1062.11 1207.08 1062.54 Z" fill="#000000" fill-rule="evenodd" fill-opacity="1" /><path clip-path="url(#clip100)" d="M 0 0 M1112.98 815.881 L1112.98 832.678 L1116.51 832.678 Q1120.98 832.678 1123.05 830.653 Q1125.13 828.627 1125.13 824.258 Q1125.13 819.918 1123.05 817.907 Q1120.98 815.881 1116.51 815.881 L1112.98 815.881 M1110.06 813.48 L1116.06 813.48 Q1122.34 813.48 1125.28 816.098 Q1128.21 818.702 1128.21 824.258 Q1128.21 829.842 1125.26 832.461 Q1122.31 835.08 1116.06 835.08 L1110.06 835.08 L1110.06 813.48 Z" fill="#000000" fill-rule="evenodd" fill-opacity="1" /><path clip-path="url(#clip100)" d="M 0 0 M1144.87 826.312 L1144.87 827.614 L1132.63 827.614 Q1132.8 830.363 1134.28 831.81 Q1135.77 833.242 1138.41 833.242 Q1139.95 833.242 1141.38 832.866 Q1142.83 832.49 1144.24 831.738 L1144.24 834.255 Q1142.81 834.863 1141.31 835.181 Q1139.8 835.499 1138.25 835.499 Q1134.38 835.499 1132.11 833.242 Q1129.85 830.985 1129.85 827.137 Q1129.85 823.158 1131.99 820.829 Q1134.15 818.485 1137.79 818.485 Q1141.06 818.485 1142.96 820.598 Q1144.87 822.695 1144.87 826.312 M1142.2 825.531 Q1142.17 823.346 1140.97 822.044 Q1139.79 820.742 1137.82 820.742 Q1135.59 820.742 1134.25 822.001 Q1132.92 823.26 1132.71 825.546 L1142.2 825.531 Z" fill="#000000" fill-rule="evenodd" fill-opacity="1" /><path clip-path="url(#clip100)" d="M 0 0 M1157.99 819.353 L1157.99 821.871 Q1156.86 821.292 1155.64 821.003 Q1154.43 820.713 1153.13 820.713 Q1151.14 820.713 1150.15 821.321 Q1149.16 821.929 1149.16 823.144 Q1149.16 824.07 1149.87 824.605 Q1150.58 825.126 1152.72 825.603 L1153.63 825.806 Q1156.47 826.414 1157.65 827.528 Q1158.86 828.627 1158.86 830.609 Q1158.86 832.866 1157.06 834.183 Q1155.28 835.499 1152.16 835.499 Q1150.86 835.499 1149.44 835.239 Q1148.03 834.993 1146.47 834.486 L1146.47 831.738 Q1147.95 832.504 1149.38 832.895 Q1150.81 833.271 1152.22 833.271 Q1154.1 833.271 1155.11 832.635 Q1156.12 831.984 1156.12 830.812 Q1156.12 829.727 1155.38 829.148 Q1154.66 828.569 1152.19 828.034 L1151.26 827.817 Q1148.79 827.296 1147.69 826.225 Q1146.59 825.14 1146.59 823.26 Q1146.59 820.974 1148.21 819.73 Q1149.83 818.485 1152.81 818.485 Q1154.28 818.485 1155.59 818.702 Q1156.89 818.919 1157.99 819.353 Z" fill="#000000" fill-rule="evenodd" fill-opacity="1" /><path clip-path="url(#clip100)" d="M 0 0 M1161.65 818.876 L1164.31 818.876 L1164.31 835.08 L1161.65 835.08 L1161.65 818.876 M1161.65 812.568 L1164.31 812.568 L1164.31 815.939 L1161.65 815.939 L1161.65 812.568 Z" fill="#000000" fill-rule="evenodd" fill-opacity="1" /><path clip-path="url(#clip100)" d="M 0 0 M1177.76 826.79 Q1177.76 823.896 1176.56 822.305 Q1175.38 820.713 1173.22 820.713 Q1171.08 820.713 1169.88 822.305 Q1168.69 823.896 1168.69 826.79 Q1168.69 829.669 1169.88 831.26 Q1171.08 832.852 1173.22 832.852 Q1175.38 832.852 1176.56 831.26 Q1177.76 829.669 1177.76 826.79 M1180.43 833.069 Q1180.43 837.206 1178.59 839.217 Q1176.75 841.243 1172.96 841.243 Q1171.56 841.243 1170.31 841.026 Q1169.07 840.823 1167.9 840.389 L1167.9 837.8 Q1169.07 838.436 1170.21 838.74 Q1171.36 839.044 1172.54 839.044 Q1175.16 839.044 1176.46 837.669 Q1177.76 836.309 1177.76 833.546 L1177.76 832.23 Q1176.94 833.662 1175.65 834.371 Q1174.36 835.08 1172.57 835.08 Q1169.59 835.08 1167.77 832.808 Q1165.94 830.537 1165.94 826.79 Q1165.94 823.028 1167.77 820.757 Q1169.59 818.485 1172.57 818.485 Q1174.36 818.485 1175.65 819.194 Q1176.94 819.903 1177.76 821.335 L1177.76 818.876 L1180.43 818.876 L1180.43 833.069 Z" fill="#000000" fill-rule="evenodd" fill-opacity="1" /><path clip-path="url(#clip100)" d="M 0 0 M1196.69 825.3 L1196.69 835.08 L1194.03 835.08 L1194.03 825.386 Q1194.03 823.086 1193.13 821.943 Q1192.23 820.8 1190.44 820.8 Q1188.28 820.8 1187.04 822.175 Q1185.79 823.549 1185.79 825.922 L1185.79 835.08 L1183.12 835.08 L1183.12 818.876 L1185.79 818.876 L1185.79 821.393 Q1186.75 819.932 1188.04 819.209 Q1189.34 818.485 1191.03 818.485 Q1193.82 818.485 1195.26 820.221 Q1196.69 821.943 1196.69 825.3 Z" fill="#000000" fill-rule="evenodd" fill-opacity="1" /><path clip-path="url(#clip100)" d="M 0 0 M1211.79 839.999 L1211.79 842.067 L1196.4 842.067 L1196.4 839.999 L1211.79 839.999 Z" fill="#000000" fill-rule="evenodd" fill-opacity="1" /><path clip-path="url(#clip100)" d="M 0 0 M1224.94 824.952 Q1225.88 825.271 1226.77 826.312 Q1227.66 827.354 1228.56 829.177 L1231.53 835.08 L1228.39 835.08 L1225.62 829.539 Q1224.55 827.368 1223.54 826.66 Q1222.54 825.951 1220.81 825.951 L1217.62 825.951 L1217.62 835.08 L1214.7 835.08 L1214.7 813.48 L1221.3 813.48 Q1225 813.48 1226.82 815.028 Q1228.65 816.576 1228.65 819.701 Q1228.65 821.741 1227.69 823.086 Q1226.75 824.432 1224.94 824.952 M1217.62 815.881 L1217.62 823.549 L1221.3 823.549 Q1223.41 823.549 1224.48 822.58 Q1225.57 821.596 1225.57 819.701 Q1225.57 817.805 1224.48 816.851 Q1223.41 815.881 1221.3 815.881 L1217.62 815.881 Z" fill="#000000" fill-rule="evenodd" fill-opacity="1" /><path clip-path="url(#clip100)" d="M 0 0 M1246.85 826.312 L1246.85 827.614 L1234.61 827.614 Q1234.78 830.363 1236.26 831.81 Q1237.75 833.242 1240.39 833.242 Q1241.93 833.242 1243.36 832.866 Q1244.81 832.49 1246.23 831.738 L1246.23 834.255 Q1244.79 834.863 1243.29 835.181 Q1241.78 835.499 1240.24 835.499 Q1236.36 835.499 1234.09 833.242 Q1231.83 830.985 1231.83 827.137 Q1231.83 823.158 1233.97 820.829 Q1236.13 818.485 1239.77 818.485 Q1243.04 818.485 1244.94 820.598 Q1246.85 822.695 1246.85 826.312 M1244.19 825.531 Q1244.16 823.346 1242.96 822.044 Q1241.77 820.742 1239.8 820.742 Q1237.57 820.742 1236.23 822.001 Q1234.9 823.26 1234.69 825.546 L1244.19 825.531 Z" fill="#000000" fill-rule="evenodd" fill-opacity="1" /><path clip-path="url(#clip100)" d="M 0 0 M1257 826.934 Q1253.78 826.934 1252.53 827.672 Q1251.29 828.41 1251.29 830.19 Q1251.29 831.607 1252.21 832.447 Q1253.16 833.271 1254.76 833.271 Q1256.97 833.271 1258.31 831.709 Q1259.65 830.132 1259.65 827.528 L1259.65 826.934 L1257 826.934 M1262.31 825.835 L1262.31 835.08 L1259.65 835.08 L1259.65 832.62 Q1258.74 834.096 1257.38 834.805 Q1256.02 835.499 1254.05 835.499 Q1251.56 835.499 1250.09 834.11 Q1248.63 832.707 1248.63 830.363 Q1248.63 827.629 1250.45 826.24 Q1252.29 824.851 1255.92 824.851 L1259.65 824.851 L1259.65 824.591 Q1259.65 822.753 1258.44 821.755 Q1257.23 820.742 1255.05 820.742 Q1253.66 820.742 1252.34 821.075 Q1251.03 821.408 1249.81 822.073 L1249.81 819.614 Q1251.27 819.05 1252.65 818.775 Q1254.02 818.485 1255.33 818.485 Q1258.84 818.485 1260.58 820.308 Q1262.31 822.131 1262.31 825.835 Z" fill="#000000" fill-rule="evenodd" fill-opacity="1" /><path clip-path="url(#clip100)" d="M 0 0 M1275.43 819.353 L1275.43 821.871 Q1274.31 821.292 1273.09 821.003 Q1271.88 820.713 1270.57 820.713 Q1268.59 820.713 1267.59 821.321 Q1266.61 821.929 1266.61 823.144 Q1266.61 824.07 1267.32 824.605 Q1268.03 825.126 1270.17 825.603 L1271.08 825.806 Q1273.92 826.414 1275.1 827.528 Q1276.3 828.627 1276.3 830.609 Q1276.3 832.866 1274.51 834.183 Q1272.73 835.499 1269.6 835.499 Q1268.3 835.499 1266.88 835.239 Q1265.48 834.993 1263.92 834.486 L1263.92 831.738 Q1265.39 832.504 1266.83 832.895 Q1268.26 833.271 1269.66 833.271 Q1271.54 833.271 1272.56 832.635 Q1273.57 831.984 1273.57 830.812 Q1273.57 829.727 1272.83 829.148 Q1272.11 828.569 1269.63 828.034 L1268.71 827.817 Q1266.23 827.296 1265.13 826.225 Q1264.03 825.14 1264.03 823.26 Q1264.03 820.974 1265.65 819.73 Q1267.28 818.485 1270.26 818.485 Q1271.73 818.485 1273.03 818.702 Q1274.34 818.919 1275.43 819.353 Z" fill="#000000" fill-rule="evenodd" fill-opacity="1" /><path clip-path="url(#clip100)" d="M 0 0 M1285.37 820.742 Q1283.23 820.742 1281.99 822.421 Q1280.74 824.084 1280.74 826.992 Q1280.74 829.9 1281.97 831.578 Q1283.22 833.242 1285.37 833.242 Q1287.5 833.242 1288.75 831.564 Q1289.99 829.886 1289.99 826.992 Q1289.99 824.113 1288.75 822.435 Q1287.5 820.742 1285.37 820.742 M1285.37 818.485 Q1288.85 818.485 1290.83 820.742 Q1292.81 822.999 1292.81 826.992 Q1292.81 830.971 1290.83 833.242 Q1288.85 835.499 1285.37 835.499 Q1281.89 835.499 1279.91 833.242 Q1277.94 830.971 1277.94 826.992 Q1277.94 822.999 1279.91 820.742 Q1281.89 818.485 1285.37 818.485 Z" fill="#000000" fill-rule="evenodd" fill-opacity="1" /><path clip-path="url(#clip100)" d="M 0 0 M1309.07 825.3 L1309.07 835.08 L1306.41 835.08 L1306.41 825.386 Q1306.41 823.086 1305.51 821.943 Q1304.62 820.8 1302.82 820.8 Q1300.67 820.8 1299.42 822.175 Q1298.18 823.549 1298.18 825.922 L1298.18 835.08 L1295.5 835.08 L1295.5 818.876 L1298.18 818.876 L1298.18 821.393 Q1299.13 819.932 1300.42 819.209 Q1301.72 818.485 1303.42 818.485 Q1306.21 818.485 1307.64 820.221 Q1309.07 821.943 1309.07 825.3 Z" fill="#000000" fill-rule="evenodd" fill-opacity="1" /><path clip-path="url(#clip100)" d="M 0 0 M1311.86 818.876 L1314.53 818.876 L1314.53 835.08 L1311.86 835.08 L1311.86 818.876 M1311.86 812.568 L1314.53 812.568 L1314.53 815.939 L1311.86 815.939 L1311.86 812.568 Z" fill="#000000" fill-rule="evenodd" fill-opacity="1" /><path clip-path="url(#clip100)" d="M 0 0 M1330.79 825.3 L1330.79 835.08 L1328.13 835.08 L1328.13 825.386 Q1328.13 823.086 1327.23 821.943 Q1326.33 820.8 1324.54 820.8 Q1322.38 820.8 1321.14 822.175 Q1319.89 823.549 1319.89 825.922 L1319.89 835.08 L1317.22 835.08 L1317.22 818.876 L1319.89 818.876 L1319.89 821.393 Q1320.85 819.932 1322.14 819.209 Q1323.44 818.485 1325.13 818.485 Q1327.92 818.485 1329.36 820.221 Q1330.79 821.943 1330.79 825.3 Z" fill="#000000" fill-rule="evenodd" fill-opacity="1" /><path clip-path="url(#clip100)" d="M 0 0 M1344.24 826.79 Q1344.24 823.896 1343.04 822.305 Q1341.86 820.713 1339.7 820.713 Q1337.56 820.713 1336.36 822.305 Q1335.17 823.896 1335.17 826.79 Q1335.17 829.669 1336.36 831.26 Q1337.56 832.852 1339.7 832.852 Q1341.86 832.852 1343.04 831.26 Q1344.24 829.669 1344.24 826.79 M1346.9 833.069 Q1346.9 837.206 1345.07 839.217 Q1343.23 841.243 1339.44 841.243 Q1338.04 841.243 1336.79 841.026 Q1335.55 840.823 1334.38 840.389 L1334.38 837.8 Q1335.55 838.436 1336.69 838.74 Q1337.83 839.044 1339.02 839.044 Q1341.64 839.044 1342.94 837.669 Q1344.24 836.309 1344.24 833.546 L1344.24 832.23 Q1343.42 833.662 1342.13 834.371 Q1340.84 835.08 1339.05 835.08 Q1336.07 835.08 1334.25 832.808 Q1332.42 830.537 1332.42 826.79 Q1332.42 823.028 1334.25 820.757 Q1336.07 818.485 1339.05 818.485 Q1340.84 818.485 1342.13 819.194 Q1343.42 819.903 1344.24 821.335 L1344.24 818.876 L1346.9 818.876 L1346.9 833.069 Z" fill="#000000" fill-rule="evenodd" fill-opacity="1" /><path clip-path="url(#clip100)" d="M 0 0 M711.174 1201.98 L711.174 1205.06 Q709.698 1203.69 708.02 1203.01 Q706.356 1202.33 704.475 1202.33 Q700.771 1202.33 698.804 1204.6 Q696.836 1206.86 696.836 1211.14 Q696.836 1215.41 698.804 1217.68 Q700.771 1219.94 704.475 1219.94 Q706.356 1219.94 708.02 1219.26 Q709.698 1218.58 711.174 1217.2 L711.174 1220.25 Q709.64 1221.3 707.918 1221.82 Q706.211 1222.34 704.301 1222.34 Q699.397 1222.34 696.576 1219.34 Q693.755 1216.33 693.755 1211.14 Q693.755 1205.93 696.576 1202.94 Q699.397 1199.93 704.301 1199.93 Q706.24 1199.93 707.947 1200.45 Q709.669 1200.95 711.174 1201.98 Z" fill="#000000" fill-rule="evenodd" fill-opacity="1" /><path clip-path="url(#clip100)" d="M 0 0 M720.245 1207.58 Q718.103 1207.58 716.859 1209.26 Q715.615 1210.92 715.615 1213.83 Q715.615 1216.74 716.845 1218.42 Q718.089 1220.08 720.245 1220.08 Q722.371 1220.08 723.616 1218.4 Q724.86 1216.72 724.86 1213.83 Q724.86 1210.95 723.616 1209.27 Q722.371 1207.58 720.245 1207.58 M720.245 1205.32 Q723.717 1205.32 725.699 1207.58 Q727.681 1209.84 727.681 1213.83 Q727.681 1217.81 725.699 1220.08 Q723.717 1222.34 720.245 1222.34 Q716.758 1222.34 714.776 1220.08 Q712.808 1217.81 712.808 1213.83 Q712.808 1209.84 714.776 1207.58 Q716.758 1205.32 720.245 1205.32 Z" fill="#000000" fill-rule="evenodd" fill-opacity="1" /><path clip-path="url(#clip100)" d="M 0 0 M730.473 1199.41 L733.135 1199.41 L733.135 1221.92 L730.473 1221.92 L730.473 1199.41 Z" fill="#000000" fill-rule="evenodd" fill-opacity="1" /><path clip-path="url(#clip100)" d="M 0 0 M735.927 1199.41 L738.589 1199.41 L738.589 1221.92 L735.927 1221.92 L735.927 1199.41 Z" fill="#000000" fill-rule="evenodd" fill-opacity="1" /><path clip-path="url(#clip100)" d="M 0 0 M748.746 1213.77 Q745.519 1213.77 744.275 1214.51 Q743.031 1215.25 743.031 1217.03 Q743.031 1218.45 743.957 1219.28 Q744.897 1220.11 746.503 1220.11 Q748.717 1220.11 750.048 1218.55 Q751.393 1216.97 751.393 1214.37 L751.393 1213.77 L748.746 1213.77 M754.055 1212.67 L754.055 1221.92 L751.393 1221.92 L751.393 1219.46 Q750.482 1220.93 749.122 1221.64 Q747.762 1222.34 745.794 1222.34 Q743.306 1222.34 741.83 1220.95 Q740.369 1219.54 740.369 1217.2 Q740.369 1214.47 742.192 1213.08 Q744.029 1211.69 747.661 1211.69 L751.393 1211.69 L751.393 1211.43 Q751.393 1209.59 750.178 1208.59 Q748.977 1207.58 746.793 1207.58 Q745.404 1207.58 744.087 1207.91 Q742.771 1208.25 741.555 1208.91 L741.555 1206.45 Q743.017 1205.89 744.391 1205.61 Q745.765 1205.32 747.067 1205.32 Q750.583 1205.32 752.319 1207.15 Q754.055 1208.97 754.055 1212.67 Z" fill="#000000" fill-rule="evenodd" fill-opacity="1" /><path clip-path="url(#clip100)" d="M 0 0 M768.479 1213.83 Q768.479 1210.89 767.264 1209.23 Q766.063 1207.55 763.951 1207.55 Q761.839 1207.55 760.624 1209.23 Q759.423 1210.89 759.423 1213.83 Q759.423 1216.77 760.624 1218.45 Q761.839 1220.11 763.951 1220.11 Q766.063 1220.11 767.264 1218.45 Q768.479 1216.77 768.479 1213.83 M759.423 1208.17 Q760.262 1206.73 761.535 1206.03 Q762.823 1205.32 764.602 1205.32 Q767.553 1205.32 769.391 1207.67 Q771.243 1210.01 771.243 1213.83 Q771.243 1217.65 769.391 1219.99 Q767.553 1222.34 764.602 1222.34 Q762.823 1222.34 761.535 1221.64 Q760.262 1220.93 759.423 1219.49 L759.423 1221.92 L756.746 1221.92 L756.746 1199.41 L759.423 1199.41 L759.423 1208.17 Z" fill="#000000" fill-rule="evenodd" fill-opacity="1" /><path clip-path="url(#clip100)" d="M 0 0 M780.314 1207.58 Q778.173 1207.58 776.928 1209.26 Q775.684 1210.92 775.684 1213.83 Q775.684 1216.74 776.914 1218.42 Q778.158 1220.08 780.314 1220.08 Q782.441 1220.08 783.685 1218.4 Q784.929 1216.72 784.929 1213.83 Q784.929 1210.95 783.685 1209.27 Q782.441 1207.58 780.314 1207.58 M780.314 1205.32 Q783.786 1205.32 785.768 1207.58 Q787.75 1209.84 787.75 1213.83 Q787.75 1217.81 785.768 1220.08 Q783.786 1222.34 780.314 1222.34 Q776.827 1222.34 774.845 1220.08 Q772.877 1217.81 772.877 1213.83 Q772.877 1209.84 774.845 1207.58 Q776.827 1205.32 780.314 1205.32 Z" fill="#000000" fill-rule="evenodd" fill-opacity="1" /><path clip-path="url(#clip100)" d="M 0 0 M799.932 1208.2 Q799.483 1207.94 798.948 1207.83 Q798.427 1207.7 797.791 1207.7 Q795.534 1207.7 794.318 1209.17 Q793.118 1210.63 793.118 1213.38 L793.118 1221.92 L790.441 1221.92 L790.441 1205.71 L793.118 1205.71 L793.118 1208.23 Q793.957 1206.76 795.302 1206.05 Q796.648 1205.32 798.572 1205.32 Q798.847 1205.32 799.179 1205.37 Q799.512 1205.4 799.917 1205.47 L799.932 1208.2 Z" fill="#000000" fill-rule="evenodd" fill-opacity="1" /><path clip-path="url(#clip100)" d="M 0 0 M810.088 1213.77 Q806.862 1213.77 805.617 1214.51 Q804.373 1215.25 804.373 1217.03 Q804.373 1218.45 805.299 1219.28 Q806.24 1220.11 807.845 1220.11 Q810.059 1220.11 811.39 1218.55 Q812.735 1216.97 812.735 1214.37 L812.735 1213.77 L810.088 1213.77 M815.398 1212.67 L815.398 1221.92 L812.735 1221.92 L812.735 1219.46 Q811.824 1220.93 810.464 1221.64 Q809.104 1222.34 807.137 1222.34 Q804.648 1222.34 803.172 1220.95 Q801.711 1219.54 801.711 1217.2 Q801.711 1214.47 803.534 1213.08 Q805.372 1211.69 809.003 1211.69 L812.735 1211.69 L812.735 1211.43 Q812.735 1209.59 811.52 1208.59 Q810.319 1207.58 808.135 1207.58 Q806.746 1207.58 805.429 1207.91 Q804.113 1208.25 802.898 1208.91 L802.898 1206.45 Q804.359 1205.89 805.733 1205.61 Q807.108 1205.32 808.41 1205.32 Q811.925 1205.32 813.661 1207.15 Q815.398 1208.97 815.398 1212.67 Z" fill="#000000" fill-rule="evenodd" fill-opacity="1" /><path clip-path="url(#clip100)" d="M 0 0 M820.823 1201.11 L820.823 1205.71 L826.306 1205.71 L826.306 1207.78 L820.823 1207.78 L820.823 1216.58 Q820.823 1218.56 821.358 1219.13 Q821.908 1219.69 823.572 1219.69 L826.306 1219.69 L826.306 1221.92 L823.572 1221.92 Q820.49 1221.92 819.318 1220.77 Q818.146 1219.62 818.146 1216.58 L818.146 1207.78 L816.193 1207.78 L816.193 1205.71 L818.146 1205.71 L818.146 1201.11 L820.823 1201.11 Z" fill="#000000" fill-rule="evenodd" fill-opacity="1" /><path clip-path="url(#clip100)" d="M 0 0 M829.098 1205.71 L831.76 1205.71 L831.76 1221.92 L829.098 1221.92 L829.098 1205.71 M829.098 1199.41 L831.76 1199.41 L831.76 1202.78 L829.098 1202.78 L829.098 1199.41 Z" fill="#000000" fill-rule="evenodd" fill-opacity="1" /><path clip-path="url(#clip100)" d="M 0 0 M840.831 1207.58 Q838.69 1207.58 837.446 1209.26 Q836.202 1210.92 836.202 1213.83 Q836.202 1216.74 837.432 1218.42 Q838.676 1220.08 840.831 1220.08 Q842.958 1220.08 844.202 1218.4 Q845.447 1216.72 845.447 1213.83 Q845.447 1210.95 844.202 1209.27 Q842.958 1207.58 840.831 1207.58 M840.831 1205.32 Q844.304 1205.32 846.286 1207.58 Q848.268 1209.84 848.268 1213.83 Q848.268 1217.81 846.286 1220.08 Q844.304 1222.34 840.831 1222.34 Q837.345 1222.34 835.363 1220.08 Q833.395 1217.81 833.395 1213.83 Q833.395 1209.84 835.363 1207.58 Q837.345 1205.32 840.831 1205.32 Z" fill="#000000" fill-rule="evenodd" fill-opacity="1" /><path clip-path="url(#clip100)" d="M 0 0 M864.529 1212.14 L864.529 1221.92 L861.867 1221.92 L861.867 1212.22 Q861.867 1209.92 860.97 1208.78 Q860.073 1207.64 858.279 1207.64 Q856.124 1207.64 854.879 1209.01 Q853.635 1210.39 853.635 1212.76 L853.635 1221.92 L850.959 1221.92 L850.959 1205.71 L853.635 1205.71 L853.635 1208.23 Q854.59 1206.77 855.878 1206.05 Q857.18 1205.32 858.872 1205.32 Q861.665 1205.32 863.097 1207.06 Q864.529 1208.78 864.529 1212.14 Z" fill="#000000" fill-rule="evenodd" fill-opacity="1" /><path clip-path="url(#clip102)" d="M974.675 958.252 L974.675 990.252 L1006.68 990.252 L1006.68 958.252 L974.675 958.252 Z" fill="#800080" fill-rule="evenodd" fill-opacity="1" stroke="none"/>
<polyline clip-path="url(#clip102)" style="stroke:#800080; stroke-width:4; stroke-opacity:1; fill:none" stroke-dasharray="16, 10" points="
  971.612,995.956 1009.74,995.956 
  "/>
<polyline clip-path="url(#clip102)" style="stroke:#800080; stroke-width:4; stroke-opacity:1; fill:none" stroke-dasharray="16, 10" points="
  971.612,952.548 1009.74,952.548 
  "/>
<polyline clip-path="url(#clip102)" style="stroke:#800080; stroke-width:4; stroke-opacity:1; fill:none" stroke-dasharray="16, 10" points="
  971.612,995.956 971.612,952.548 
  "/>
<polyline clip-path="url(#clip102)" style="stroke:#800080; stroke-width:4; stroke-opacity:1; fill:none" stroke-dasharray="16, 10" points="
  1009.74,995.956 1009.74,952.548 
  "/>
<path clip-path="url(#clip102)" d="M1049.6 958.252 L1049.6 990.252 L1081.6 990.252 L1081.6 958.252 L1049.6 958.252 Z" fill="#ffa500" fill-rule="evenodd" fill-opacity="1" stroke="none"/>
<polyline clip-path="url(#clip102)" style="stroke:#ffa500; stroke-width:4; stroke-opacity:1; fill:none" stroke-dasharray="16, 10" points="
  1047.59,997.172 1083.62,997.172 
  "/>
<polyline clip-path="url(#clip102)" style="stroke:#ffa500; stroke-width:4; stroke-opacity:1; fill:none" stroke-dasharray="16, 10" points="
  1047.59,951.332 1083.62,951.332 
  "/>
<polyline clip-path="url(#clip102)" style="stroke:#ffa500; stroke-width:4; stroke-opacity:1; fill:none" stroke-dasharray="16, 10" points="
  1047.59,997.172 1047.59,951.332 
  "/>
<polyline clip-path="url(#clip102)" style="stroke:#ffa500; stroke-width:4; stroke-opacity:1; fill:none" stroke-dasharray="16, 10" points="
  1083.62,997.172 1083.62,951.332 
  "/>
</svg>
