<?xml version="1.0" encoding="utf-8"?>
<svg xmlns="http://www.w3.org/2000/svg" xmlns:xlink="http://www.w3.org/1999/xlink" width="500" height="500" viewBox="0 0 2000 2000">
<defs>
  <clipPath id="clip510">
    <rect x="0" y="0" width="2000" height="2000"/>
  </clipPath>
</defs>
<path clip-path="url(#clip510)" d="
M0 2000 L2000 2000 L2000 0 L0 0  Z
  " fill="#ffffff" fill-rule="evenodd" fill-opacity="1"/>
<defs>
  <clipPath id="clip511">
    <rect x="400" y="200" width="1401" height="1401"/>
  </clipPath>
</defs>
<path clip-path="url(#clip510)" d="
M240.472 1759.53 L1811.02 1759.53 L1811.02 188.976 L240.472 188.976  Z
  " fill="#ffffff" fill-rule="evenodd" fill-opacity="1"/>
<defs>
  <clipPath id="clip512">
    <rect x="240" y="188" width="1572" height="1572"/>
  </clipPath>
</defs>
<polyline clip-path="url(#clip512)" style="stroke:#000000; stroke-width:2; stroke-opacity:0.1; fill:none" points="
  240.472,1759.53 240.472,188.976 
  "/>
<polyline clip-path="url(#clip512)" style="stroke:#000000; stroke-width:2; stroke-opacity:0.1; fill:none" points="
  1025.75,1759.53 1025.75,188.976 
  "/>
<polyline clip-path="url(#clip512)" style="stroke:#000000; stroke-width:2; stroke-opacity:0.1; fill:none" points="
  1811.02,1759.53 1811.02,188.976 
  "/>
<polyline clip-path="url(#clip512)" style="stroke:#000000; stroke-width:2; stroke-opacity:0.1; fill:none" points="
  240.472,1759.53 1811.02,1759.53 
  "/>
<polyline clip-path="url(#clip512)" style="stroke:#000000; stroke-width:2; stroke-opacity:0.1; fill:none" points="
  240.472,974.252 1811.02,974.252 
  "/>
<polyline clip-path="url(#clip512)" style="stroke:#000000; stroke-width:2; stroke-opacity:0.1; fill:none" points="
  240.472,188.976 1811.02,188.976 
  "/>
<polyline clip-path="url(#clip510)" style="stroke:#000000; stroke-width:4; stroke-opacity:1; fill:none" points="
  240.472,1759.53 1811.02,1759.53 
  "/>
<polyline clip-path="url(#clip510)" style="stroke:#000000; stroke-width:4; stroke-opacity:1; fill:none" points="
  240.472,1759.53 240.472,188.976 
  "/>
<polyline clip-path="url(#clip510)" style="stroke:#000000; stroke-width:4; stroke-opacity:1; fill:none" points="
  240.472,1759.53 240.472,1740.68 
  "/>
<polyline clip-path="url(#clip510)" style="stroke:#000000; stroke-width:4; stroke-opacity:1; fill:none" points="
  1025.75,1759.53 1025.75,1740.68 
  "/>
<polyline clip-path="url(#clip510)" style="stroke:#000000; stroke-width:4; stroke-opacity:1; fill:none" points="
  1811.02,1759.53 1811.02,1740.68 
  "/>
<polyline clip-path="url(#clip510)" style="stroke:#000000; stroke-width:4; stroke-opacity:1; fill:none" points="
  240.472,1759.53 259.319,1759.53 
  "/>
<polyline clip-path="url(#clip510)" style="stroke:#000000; stroke-width:4; stroke-opacity:1; fill:none" points="
  240.472,974.252 259.319,974.252 
  "/>
<polyline clip-path="url(#clip510)" style="stroke:#000000; stroke-width:4; stroke-opacity:1; fill:none" points="
  240.472,188.976 259.319,188.976 
  "/>
<path clip-path="url(#clip510)" d="M 0 0 M221.341 1796.12 L233.817 1796.12 L233.817 1799.91 L221.341 1799.91 L221.341 1796.12 Z" fill="#000000" fill-rule="evenodd" fill-opacity="1" /><path clip-path="url(#clip510)" d="M 0 0 M239.697 1807.06 L247.336 1807.06 L247.336 1780.7 L239.026 1782.37 L239.026 1778.11 L247.29 1776.44 L251.965 1776.44 L251.965 1807.06 L259.604 1807.06 L259.604 1811 L239.697 1811 L239.697 1807.06 Z" fill="#000000" fill-rule="evenodd" fill-opacity="1" /><path clip-path="url(#clip510)" d="M 0 0 M1025.75 1779.52 Q1022.14 1779.52 1020.31 1783.08 Q1018.5 1786.62 1018.5 1793.75 Q1018.5 1800.86 1020.31 1804.43 Q1022.14 1807.97 1025.75 1807.97 Q1029.38 1807.97 1031.19 1804.43 Q1033.02 1800.86 1033.02 1793.75 Q1033.02 1786.62 1031.19 1783.08 Q1029.38 1779.52 1025.75 1779.52 M1025.75 1775.81 Q1031.56 1775.81 1034.61 1780.42 Q1037.69 1785 1037.69 1793.75 Q1037.69 1802.48 1034.61 1807.09 Q1031.56 1811.67 1025.75 1811.67 Q1019.94 1811.67 1016.86 1807.09 Q1013.8 1802.48 1013.8 1793.75 Q1013.8 1785 1016.86 1780.42 Q1019.94 1775.81 1025.75 1775.81 Z" fill="#000000" fill-rule="evenodd" fill-opacity="1" /><path clip-path="url(#clip510)" d="M 0 0 M1801.41 1807.06 L1809.04 1807.06 L1809.04 1780.7 L1800.73 1782.37 L1800.73 1778.11 L1809 1776.44 L1813.67 1776.44 L1813.67 1807.06 L1821.31 1807.06 L1821.31 1811 L1801.41 1811 L1801.41 1807.06 Z" fill="#000000" fill-rule="evenodd" fill-opacity="1" /><path clip-path="url(#clip510)" d="M 0 0 M182.209 1761.92 L194.686 1761.92 L194.686 1765.72 L182.209 1765.72 L182.209 1761.92 Z" fill="#000000" fill-rule="evenodd" fill-opacity="1" /><path clip-path="url(#clip510)" d="M 0 0 M200.565 1772.87 L208.204 1772.87 L208.204 1746.51 L199.894 1748.17 L199.894 1743.91 L208.158 1742.25 L212.834 1742.25 L212.834 1772.87 L220.472 1772.87 L220.472 1776.81 L200.565 1776.81 L200.565 1772.87 Z" fill="#000000" fill-rule="evenodd" fill-opacity="1" /><path clip-path="url(#clip510)" d="M 0 0 M208.528 960.051 Q204.917 960.051 203.088 963.615 Q201.283 967.157 201.283 974.287 Q201.283 981.393 203.088 984.958 Q204.917 988.5 208.528 988.5 Q212.162 988.5 213.968 984.958 Q215.797 981.393 215.797 974.287 Q215.797 967.157 213.968 963.615 Q212.162 960.051 208.528 960.051 M208.528 956.347 Q214.338 956.347 217.394 960.953 Q220.472 965.537 220.472 974.287 Q220.472 983.013 217.394 987.62 Q214.338 992.203 208.528 992.203 Q202.718 992.203 199.639 987.62 Q196.584 983.013 196.584 974.287 Q196.584 965.537 199.639 960.953 Q202.718 956.347 208.528 956.347 Z" fill="#000000" fill-rule="evenodd" fill-opacity="1" /><path clip-path="url(#clip510)" d="M 0 0 M200.565 202.321 L208.204 202.321 L208.204 175.956 L199.894 177.622 L199.894 173.363 L208.158 171.696 L212.834 171.696 L212.834 202.321 L220.472 202.321 L220.472 206.256 L200.565 206.256 L200.565 202.321 Z" fill="#000000" fill-rule="evenodd" fill-opacity="1" /><path clip-path="url(#clip510)" d="M 0 0 M912.423 1840.87 L919.329 1840.87 L931.138 1858.54 L943.01 1840.87 L949.917 1840.87 L934.639 1863.69 L950.935 1888.39 L944.028 1888.39 L930.66 1868.18 L917.197 1888.39 L910.258 1888.39 L927.223 1863.02 L912.423 1840.87 Z" fill="#000000" fill-rule="evenodd" fill-opacity="1" /><path clip-path="url(#clip510)" d="M 0 0 M991.867 1838.93 Q987.602 1846.25 985.533 1853.41 Q983.464 1860.57 983.464 1867.93 Q983.464 1875.28 985.533 1882.5 Q987.633 1889.7 991.867 1896.99 L986.774 1896.99 Q982 1889.51 979.613 1882.28 Q977.257 1875.06 977.257 1867.93 Q977.257 1860.83 979.613 1853.63 Q981.968 1846.44 986.774 1838.93 L991.867 1838.93 Z" fill="#000000" fill-rule="evenodd" fill-opacity="1" /><path clip-path="url(#clip510)" d="M 0 0 M1004.38 1882.98 L1026.81 1882.98 L1026.81 1888.39 L996.641 1888.39 L996.641 1882.98 Q1000.3 1879.19 1006.6 1872.83 Q1012.94 1866.43 1014.56 1864.58 Q1017.65 1861.11 1018.86 1858.73 Q1020.1 1856.31 1020.1 1853.98 Q1020.1 1850.2 1017.42 1847.81 Q1014.78 1845.42 1010.52 1845.42 Q1007.49 1845.42 1004.12 1846.47 Q1000.78 1847.52 996.959 1849.66 L996.959 1843.16 Q1000.84 1841.6 1004.22 1840.81 Q1007.59 1840.01 1010.39 1840.01 Q1017.77 1840.01 1022.17 1843.7 Q1026.56 1847.4 1026.56 1853.57 Q1026.56 1856.5 1025.45 1859.14 Q1024.36 1861.75 1021.47 1865.32 Q1020.67 1866.24 1016.41 1870.66 Q1012.14 1875.06 1004.38 1882.98 Z" fill="#000000" fill-rule="evenodd" fill-opacity="1" /><path clip-path="url(#clip510)" d="M 0 0 M1053.26 1862.77 Q1057.88 1863.76 1060.46 1866.88 Q1063.07 1869.99 1063.07 1874.58 Q1063.07 1881.61 1058.23 1885.46 Q1053.39 1889.31 1044.48 1889.31 Q1041.49 1889.31 1038.3 1888.71 Q1035.15 1888.14 1031.78 1886.96 L1031.78 1880.75 Q1034.45 1882.31 1037.64 1883.11 Q1040.82 1883.9 1044.29 1883.9 Q1050.34 1883.9 1053.49 1881.52 Q1056.67 1879.13 1056.67 1874.58 Q1056.67 1870.38 1053.71 1868.02 Q1050.78 1865.63 1045.53 1865.63 L1039.99 1865.63 L1039.99 1860.35 L1045.78 1860.35 Q1050.53 1860.35 1053.04 1858.47 Q1055.56 1856.56 1055.56 1853 Q1055.56 1849.34 1052.95 1847.4 Q1050.37 1845.42 1045.53 1845.42 Q1042.89 1845.42 1039.86 1846 Q1036.84 1846.57 1033.21 1847.78 L1033.21 1842.05 Q1036.87 1841.03 1040.05 1840.52 Q1043.27 1840.01 1046.1 1840.01 Q1053.42 1840.01 1057.69 1843.35 Q1061.95 1846.66 1061.95 1852.33 Q1061.95 1856.28 1059.69 1859.01 Q1057.43 1861.72 1053.26 1862.77 Z" fill="#000000" fill-rule="evenodd" fill-opacity="1" /><path clip-path="url(#clip510)" d="M 0 0 M1110.46 1867.48 Q1107.69 1867.48 1106.1 1869.84 Q1104.54 1872.19 1104.54 1876.39 Q1104.54 1880.53 1106.1 1882.92 Q1107.69 1885.27 1110.46 1885.27 Q1113.17 1885.27 1114.72 1882.92 Q1116.32 1880.53 1116.32 1876.39 Q1116.32 1872.22 1114.72 1869.87 Q1113.17 1867.48 1110.46 1867.48 M1110.46 1863.44 Q1115.49 1863.44 1118.45 1866.94 Q1121.41 1870.44 1121.41 1876.39 Q1121.41 1882.34 1118.42 1885.85 Q1115.46 1889.31 1110.46 1889.31 Q1105.37 1889.31 1102.41 1885.85 Q1099.45 1882.34 1099.45 1876.39 Q1099.45 1870.41 1102.41 1866.94 Q1105.4 1863.44 1110.46 1863.44 M1077.61 1844.05 Q1074.88 1844.05 1073.28 1846.44 Q1071.72 1848.8 1071.72 1852.93 Q1071.72 1857.14 1073.28 1859.49 Q1074.84 1861.85 1077.61 1861.85 Q1080.38 1861.85 1081.94 1859.49 Q1083.53 1857.14 1083.53 1852.93 Q1083.53 1848.83 1081.94 1846.44 Q1080.35 1844.05 1077.61 1844.05 M1106.35 1840.01 L1111.45 1840.01 L1081.72 1889.31 L1076.63 1889.31 L1106.35 1840.01 M1077.61 1840.01 Q1082.64 1840.01 1085.63 1843.51 Q1088.63 1846.98 1088.63 1852.93 Q1088.63 1858.95 1085.63 1862.42 Q1082.67 1865.89 1077.61 1865.89 Q1072.55 1865.89 1069.59 1862.42 Q1066.66 1858.92 1066.66 1852.93 Q1066.66 1847.01 1069.62 1843.51 Q1072.58 1840.01 1077.61 1840.01 Z" fill="#000000" fill-rule="evenodd" fill-opacity="1" /><path clip-path="url(#clip510)" d="M 0 0 M1126.63 1838.93 L1131.72 1838.93 Q1136.5 1846.44 1138.85 1853.63 Q1141.24 1860.83 1141.24 1867.93 Q1141.24 1875.06 1138.85 1882.28 Q1136.5 1889.51 1131.72 1896.99 L1126.63 1896.99 Q1130.86 1889.7 1132.93 1882.5 Q1135.03 1875.28 1135.03 1867.93 Q1135.03 1860.57 1132.93 1853.41 Q1130.86 1846.25 1126.63 1838.93 Z" fill="#000000" fill-rule="evenodd" fill-opacity="1" /><path clip-path="url(#clip510)" d="M 0 0 M100.433 1088.79 L100.433 1081.88 L119.975 1068.7 L100.433 1055.62 L100.433 1048.71 L125.323 1065.52 L147.953 1065.52 L147.953 1071.98 L125.323 1071.98 L100.433 1088.79 Z" fill="#000000" fill-rule="evenodd" fill-opacity="1" /><path clip-path="url(#clip510)" d="M 0 0 M98.4912 1007.78 Q105.812 1012.05 112.973 1014.12 Q120.135 1016.19 127.487 1016.19 Q134.839 1016.19 142.064 1014.12 Q149.258 1012.02 156.546 1007.78 L156.546 1012.88 Q149.067 1017.65 141.842 1020.04 Q134.617 1022.39 127.487 1022.39 Q120.389 1022.39 113.196 1020.04 Q106.003 1017.68 98.4912 1012.88 L98.4912 1007.78 Z" fill="#000000" fill-rule="evenodd" fill-opacity="1" /><path clip-path="url(#clip510)" d="M 0 0 M142.542 995.275 L142.542 972.836 L147.953 972.836 L147.953 1003.01 L142.542 1003.01 Q138.754 999.349 132.389 993.047 Q125.991 986.713 124.145 985.09 Q120.676 982.002 118.289 980.793 Q115.87 979.551 113.546 979.551 Q109.759 979.551 107.371 982.225 Q104.984 984.867 104.984 989.132 Q104.984 992.156 106.035 995.529 Q107.085 998.871 109.217 1002.69 L102.724 1002.69 Q101.165 998.808 100.369 995.434 Q99.5734 992.06 99.5734 989.259 Q99.5734 981.875 103.265 977.483 Q106.958 973.09 113.132 973.09 Q116.061 973.09 118.702 974.204 Q121.312 975.286 124.877 978.183 Q125.8 978.979 130.224 983.244 Q134.617 987.509 142.542 995.275 Z" fill="#000000" fill-rule="evenodd" fill-opacity="1" /><path clip-path="url(#clip510)" d="M 0 0 M142.542 960.327 L142.542 937.888 L147.953 937.888 L147.953 968.061 L142.542 968.061 Q138.754 964.401 132.389 958.099 Q125.991 951.765 124.145 950.142 Q120.676 947.054 118.289 945.845 Q115.87 944.604 113.546 944.604 Q109.759 944.604 107.371 947.277 Q104.984 949.919 104.984 954.184 Q104.984 957.208 106.035 960.582 Q107.085 963.924 109.217 967.743 L102.724 967.743 Q101.165 963.86 100.369 960.486 Q99.5734 957.112 99.5734 954.311 Q99.5734 946.927 103.265 942.535 Q106.958 938.142 113.132 938.142 Q116.061 938.142 118.702 939.256 Q121.312 940.339 124.877 943.235 Q125.8 944.031 130.224 948.296 Q134.617 952.561 142.542 960.327 Z" fill="#000000" fill-rule="evenodd" fill-opacity="1" /><path clip-path="url(#clip510)" d="M 0 0 M127.041 890.495 Q127.041 893.264 129.397 894.856 Q131.752 896.415 135.953 896.415 Q140.091 896.415 142.478 894.856 Q144.834 893.264 144.834 890.495 Q144.834 887.79 142.478 886.23 Q140.091 884.639 135.953 884.639 Q131.784 884.639 129.429 886.23 Q127.041 887.79 127.041 890.495 M122.999 890.495 Q122.999 885.466 126.5 882.506 Q130.001 879.546 135.953 879.546 Q141.905 879.546 145.406 882.538 Q148.876 885.498 148.876 890.495 Q148.876 895.588 145.406 898.548 Q141.905 901.508 135.953 901.508 Q129.97 901.508 126.5 898.548 Q122.999 895.556 122.999 890.495 M103.616 923.342 Q103.616 926.079 106.003 927.671 Q108.358 929.231 112.496 929.231 Q116.697 929.231 119.052 927.671 Q121.408 926.111 121.408 923.342 Q121.408 920.573 119.052 919.014 Q116.697 917.422 112.496 917.422 Q108.39 917.422 106.003 919.014 Q103.616 920.605 103.616 923.342 M99.5734 894.601 L99.5734 889.508 L148.876 919.236 L148.876 924.329 L99.5734 894.601 M99.5734 923.342 Q99.5734 918.313 103.075 915.321 Q106.544 912.33 112.496 912.33 Q118.511 912.33 121.981 915.321 Q125.45 918.281 125.45 923.342 Q125.45 928.403 121.981 931.363 Q118.48 934.291 112.496 934.291 Q106.576 934.291 103.075 931.331 Q99.5734 928.371 99.5734 923.342 Z" fill="#000000" fill-rule="evenodd" fill-opacity="1" /><path clip-path="url(#clip510)" d="M 0 0 M98.4912 874.326 L98.4912 869.234 Q106.003 864.459 113.196 862.104 Q120.389 859.717 127.487 859.717 Q134.617 859.717 141.842 862.104 Q149.067 864.459 156.546 869.234 L156.546 874.326 Q149.258 870.093 142.064 868.024 Q134.839 865.924 127.487 865.924 Q120.135 865.924 112.973 868.024 Q105.812 870.093 98.4912 874.326 Z" fill="#000000" fill-rule="evenodd" fill-opacity="1" /><polyline clip-path="url(#clip512)" style="stroke:#800080; stroke-width:6.4458; stroke-opacity:1; fill:none" points="
  351.668,1949.89 1916.57,-363.427 
  "/>
<polyline clip-path="url(#clip512)" style="stroke:#0000ff; stroke-width:1.34407; stroke-opacity:1; fill:none" points="
  398.272,1554.16 1542.27,1330.45 
  "/>
<polyline clip-path="url(#clip512)" style="stroke:#ffa500; stroke-width:1.08133; stroke-opacity:1; fill:none" points="
  1542.27,1330.45 2815.33,1963.5 
  "/>
<polyline clip-path="url(#clip512)" style="stroke:#0000ff; stroke-width:2.79825; stroke-opacity:1; fill:none" points="
  581.724,581.074 2815.33,1963.5 
  "/>
<polyline clip-path="url(#clip512)" style="stroke:#ffa500; stroke-width:4.84926; stroke-opacity:1; fill:none" points="
  351.668,1949.89 398.272,1554.16 
  "/>
<polyline clip-path="url(#clip512)" style="stroke:#0000ff; stroke-width:2.01475; stroke-opacity:1; fill:none" points="
  398.272,1554.16 2815.33,1963.5 
  "/>
<polyline clip-path="url(#clip512)" style="stroke:#ffa500; stroke-width:2.84333; stroke-opacity:1; fill:none" points="
  398.272,1554.16 581.724,581.074 
  "/>
<polyline clip-path="url(#clip512)" style="stroke:#0000ff; stroke-width:2.12183; stroke-opacity:1; fill:none" points="
  581.724,581.074 1542.27,1330.45 
  "/>
<polyline clip-path="url(#clip512)" style="stroke:#800080; stroke-width:6.83051; stroke-opacity:1; fill:none" points="
  1916.57,-363.427 2815.33,1963.5 
  "/>
<polyline clip-path="url(#clip512)" style="stroke:#0000ff; stroke-width:1.42233; stroke-opacity:1; fill:none" points="
  351.668,1949.89 1542.27,1330.45 
  "/>
<polyline clip-path="url(#clip512)" style="stroke:#ffa500; stroke-width:7.4663; stroke-opacity:1; fill:none" points="
  351.668,1949.89 581.724,581.074 
  "/>
<polyline clip-path="url(#clip512)" style="stroke:#800080; stroke-width:4.92063; stroke-opacity:1; fill:none" points="
  398.272,1554.16 1916.57,-363.427 
  "/>
<polyline clip-path="url(#clip512)" style="stroke:#0000ff; stroke-width:2.42394; stroke-opacity:1; fill:none" points="
  1542.27,1330.45 1916.57,-363.427 
  "/>
<polyline clip-path="url(#clip512)" style="stroke:#800080; stroke-width:2.74383; stroke-opacity:1; fill:none" points="
  351.668,1949.89 2815.33,1963.5 
  "/>
<polyline clip-path="url(#clip512)" style="stroke:#008000; stroke-width:8; stroke-opacity:1; fill:none" points="
  581.724,581.074 1916.57,-363.427 
  "/>
<circle clip-path="url(#clip512)" cx="398.272" cy="1554.16" r="23" fill="#000000" fill-rule="evenodd" fill-opacity="1" stroke="none"/>
<circle clip-path="url(#clip512)" cx="1542.27" cy="1330.45" r="8" fill="#000000" fill-rule="evenodd" fill-opacity="1" stroke="none"/>
<circle clip-path="url(#clip512)" cx="581.724" cy="581.074" r="28" fill="#000000" fill-rule="evenodd" fill-opacity="1" stroke="none"/>
<path clip-path="url(#clip510)" d="M 0 0 M371.196 1560.88 L371.196 1577.67 L374.727 1577.67 Q379.197 1577.67 381.266 1575.65 Q383.349 1573.62 383.349 1569.25 Q383.349 1564.91 381.266 1562.9 Q379.197 1560.88 374.727 1560.88 L371.196 1560.88 M368.274 1558.48 L374.278 1558.48 Q380.557 1558.48 383.494 1561.09 Q386.431 1563.7 386.431 1569.25 Q386.431 1574.84 383.479 1577.46 Q380.528 1580.08 374.278 1580.08 L368.274 1580.08 L368.274 1558.48 Z" fill="#000000" fill-rule="evenodd" fill-opacity="1" /><path clip-path="url(#clip510)" d="M 0 0 M396.587 1571.93 Q393.361 1571.93 392.116 1572.67 Q390.872 1573.41 390.872 1575.19 Q390.872 1576.6 391.798 1577.44 Q392.739 1578.27 394.344 1578.27 Q396.558 1578.27 397.889 1576.71 Q399.234 1575.13 399.234 1572.52 L399.234 1571.93 L396.587 1571.93 M401.896 1570.83 L401.896 1580.08 L399.234 1580.08 L399.234 1577.62 Q398.323 1579.09 396.963 1579.8 Q395.603 1580.5 393.636 1580.5 Q391.147 1580.5 389.671 1579.11 Q388.21 1577.7 388.21 1575.36 Q388.21 1572.63 390.033 1571.24 Q391.871 1569.85 395.502 1569.85 L399.234 1569.85 L399.234 1569.59 Q399.234 1567.75 398.019 1566.75 Q396.818 1565.74 394.634 1565.74 Q393.245 1565.74 391.928 1566.07 Q390.612 1566.4 389.397 1567.07 L389.397 1564.61 Q390.858 1564.05 392.232 1563.77 Q393.607 1563.48 394.909 1563.48 Q398.424 1563.48 400.16 1565.3 Q401.896 1567.13 401.896 1570.83 Z" fill="#000000" fill-rule="evenodd" fill-opacity="1" /><path clip-path="url(#clip510)" d="M 0 0 M407.322 1559.27 L407.322 1563.87 L412.805 1563.87 L412.805 1565.94 L407.322 1565.94 L407.322 1574.74 Q407.322 1576.72 407.857 1577.28 Q408.407 1577.85 410.071 1577.85 L412.805 1577.85 L412.805 1580.08 L410.071 1580.08 Q406.989 1580.08 405.817 1578.93 Q404.645 1577.78 404.645 1574.74 L404.645 1565.94 L402.692 1565.94 L402.692 1563.87 L404.645 1563.87 L404.645 1559.27 L407.322 1559.27 Z" fill="#000000" fill-rule="evenodd" fill-opacity="1" /><path clip-path="url(#clip510)" d="M 0 0 M422.961 1571.93 Q419.735 1571.93 418.491 1572.67 Q417.247 1573.41 417.247 1575.19 Q417.247 1576.6 418.172 1577.44 Q419.113 1578.27 420.719 1578.27 Q422.932 1578.27 424.263 1576.71 Q425.609 1575.13 425.609 1572.52 L425.609 1571.93 L422.961 1571.93 M428.271 1570.83 L428.271 1580.08 L425.609 1580.08 L425.609 1577.62 Q424.697 1579.09 423.337 1579.8 Q421.977 1580.5 420.01 1580.5 Q417.521 1580.5 416.046 1579.11 Q414.585 1577.7 414.585 1575.36 Q414.585 1572.63 416.407 1571.24 Q418.245 1569.85 421.876 1569.85 L425.609 1569.85 L425.609 1569.59 Q425.609 1567.75 424.393 1566.75 Q423.193 1565.74 421.008 1565.74 Q419.619 1565.74 418.303 1566.07 Q416.986 1566.4 415.771 1567.07 L415.771 1564.61 Q417.232 1564.05 418.606 1563.77 Q419.981 1563.48 421.283 1563.48 Q424.799 1563.48 426.535 1565.3 Q428.271 1567.13 428.271 1570.83 Z" fill="#000000" fill-rule="evenodd" fill-opacity="1" /><path clip-path="url(#clip510)" d="M 0 0 M1774.67 -359.107 L1792.94 -359.107 L1792.94 -356.648 L1785.27 -356.648 L1785.27 -337.507 L1782.33 -337.507 L1782.33 -356.648 L1774.67 -356.648 L1774.67 -359.107 Z" fill="#000000" fill-rule="evenodd" fill-opacity="1" /><path clip-path="url(#clip510)" d="M 0 0 M1804.56 -346.274 L1804.56 -344.972 L1792.32 -344.972 Q1792.49 -342.224 1793.97 -340.777 Q1795.46 -339.345 1798.1 -339.345 Q1799.64 -339.345 1801.07 -339.721 Q1802.52 -340.097 1803.93 -340.849 L1803.93 -338.332 Q1802.5 -337.724 1801 -337.406 Q1799.49 -337.088 1797.95 -337.088 Q1794.07 -337.088 1791.8 -339.345 Q1789.54 -341.601 1789.54 -345.45 Q1789.54 -349.428 1791.68 -351.758 Q1793.84 -354.101 1797.48 -354.101 Q1800.75 -354.101 1802.65 -351.989 Q1804.56 -349.891 1804.56 -346.274 M1801.9 -347.056 Q1801.87 -349.24 1800.67 -350.542 Q1799.48 -351.844 1797.51 -351.844 Q1795.28 -351.844 1793.94 -350.586 Q1792.61 -349.327 1792.4 -347.041 L1801.9 -347.056 Z" fill="#000000" fill-rule="evenodd" fill-opacity="1" /><path clip-path="url(#clip510)" d="M 0 0 M1819.01 -353.089 L1819.01 -350.6 Q1817.88 -351.222 1816.74 -351.526 Q1815.61 -351.844 1814.45 -351.844 Q1811.86 -351.844 1810.43 -350.195 Q1809 -348.56 1809 -345.594 Q1809 -342.629 1810.43 -340.979 Q1811.86 -339.345 1814.45 -339.345 Q1815.61 -339.345 1816.74 -339.648 Q1817.88 -339.967 1819.01 -340.589 L1819.01 -338.129 Q1817.9 -337.608 1816.7 -337.348 Q1815.51 -337.088 1814.16 -337.088 Q1810.5 -337.088 1808.35 -339.388 Q1806.19 -341.688 1806.19 -345.594 Q1806.19 -349.559 1808.36 -351.83 Q1810.55 -354.101 1814.34 -354.101 Q1815.57 -354.101 1816.74 -353.841 Q1817.91 -353.595 1819.01 -353.089 Z" fill="#000000" fill-rule="evenodd" fill-opacity="1" /><path clip-path="url(#clip510)" d="M 0 0 M1835.27 -347.287 L1835.27 -337.507 L1832.61 -337.507 L1832.61 -347.2 Q1832.61 -349.501 1831.71 -350.644 Q1830.82 -351.787 1829.02 -351.787 Q1826.87 -351.787 1825.62 -350.412 Q1824.38 -349.038 1824.38 -346.665 L1824.38 -337.507 L1821.7 -337.507 L1821.7 -360.019 L1824.38 -360.019 L1824.38 -351.193 Q1825.33 -352.655 1826.62 -353.378 Q1827.92 -354.101 1829.61 -354.101 Q1832.41 -354.101 1833.84 -352.365 Q1835.27 -350.644 1835.27 -347.287 Z" fill="#000000" fill-rule="evenodd" fill-opacity="1" /><path clip-path="url(#clip510)" d="M 0 0 M1851.53 -347.287 L1851.53 -337.507 L1848.87 -337.507 L1848.87 -347.2 Q1848.87 -349.501 1847.97 -350.644 Q1847.08 -351.787 1845.28 -351.787 Q1843.13 -351.787 1841.88 -350.412 Q1840.64 -349.038 1840.64 -346.665 L1840.64 -337.507 L1837.96 -337.507 L1837.96 -353.711 L1840.64 -353.711 L1840.64 -351.193 Q1841.59 -352.655 1842.88 -353.378 Q1844.18 -354.101 1845.88 -354.101 Q1848.67 -354.101 1850.1 -352.365 Q1851.53 -350.644 1851.53 -347.287 Z" fill="#000000" fill-rule="evenodd" fill-opacity="1" /><path clip-path="url(#clip510)" d="M 0 0 M1854.33 -353.711 L1856.99 -353.711 L1856.99 -337.507 L1854.33 -337.507 L1854.33 -353.711 M1854.33 -360.019 L1856.99 -360.019 L1856.99 -356.648 L1854.33 -356.648 L1854.33 -360.019 Z" fill="#000000" fill-rule="evenodd" fill-opacity="1" /><path clip-path="url(#clip510)" d="M 0 0 M1871.44 -353.089 L1871.44 -350.6 Q1870.31 -351.222 1869.17 -351.526 Q1868.04 -351.844 1866.88 -351.844 Q1864.29 -351.844 1862.86 -350.195 Q1861.43 -348.56 1861.43 -345.594 Q1861.43 -342.629 1862.86 -340.979 Q1864.29 -339.345 1866.88 -339.345 Q1868.04 -339.345 1869.17 -339.648 Q1870.31 -339.967 1871.44 -340.589 L1871.44 -338.129 Q1870.33 -337.608 1869.13 -337.348 Q1867.94 -337.088 1866.59 -337.088 Q1862.93 -337.088 1860.78 -339.388 Q1858.62 -341.688 1858.62 -345.594 Q1858.62 -349.559 1860.79 -351.83 Q1862.98 -354.101 1866.77 -354.101 Q1868 -354.101 1869.17 -353.841 Q1870.34 -353.595 1871.44 -353.089 Z" fill="#000000" fill-rule="evenodd" fill-opacity="1" /><path clip-path="url(#clip510)" d="M 0 0 M1881.6 -345.652 Q1878.37 -345.652 1877.13 -344.915 Q1875.88 -344.177 1875.88 -342.397 Q1875.88 -340.979 1876.81 -340.14 Q1877.75 -339.316 1879.35 -339.316 Q1881.57 -339.316 1882.9 -340.878 Q1884.24 -342.455 1884.24 -345.059 L1884.24 -345.652 L1881.6 -345.652 M1886.91 -346.752 L1886.91 -337.507 L1884.24 -337.507 L1884.24 -339.967 Q1883.33 -338.491 1881.97 -337.782 Q1880.61 -337.088 1878.65 -337.088 Q1876.16 -337.088 1874.68 -338.476 Q1873.22 -339.88 1873.22 -342.224 Q1873.22 -344.958 1875.04 -346.347 Q1876.88 -347.736 1880.51 -347.736 L1884.24 -347.736 L1884.24 -347.996 Q1884.24 -349.833 1883.03 -350.832 Q1881.83 -351.844 1879.64 -351.844 Q1878.25 -351.844 1876.94 -351.512 Q1875.62 -351.179 1874.41 -350.513 L1874.41 -352.973 Q1875.87 -353.537 1877.24 -353.812 Q1878.62 -354.101 1879.92 -354.101 Q1883.43 -354.101 1885.17 -352.278 Q1886.91 -350.456 1886.91 -346.752 Z" fill="#000000" fill-rule="evenodd" fill-opacity="1" /><path clip-path="url(#clip510)" d="M 0 0 M1889.7 -360.019 L1892.36 -360.019 L1892.36 -337.507 L1889.7 -337.507 L1889.7 -360.019 Z" fill="#000000" fill-rule="evenodd" fill-opacity="1" /><path clip-path="url(#clip510)" d="M 0 0 M1907.46 -332.588 L1907.46 -330.519 L1892.07 -330.519 L1892.07 -332.588 L1907.46 -332.588 Z" fill="#000000" fill-rule="evenodd" fill-opacity="1" /><path clip-path="url(#clip510)" d="M 0 0 M1926.55 -357.443 L1926.55 -354.362 Q1925.07 -355.736 1923.39 -356.416 Q1921.73 -357.096 1919.85 -357.096 Q1916.14 -357.096 1914.18 -354.825 Q1912.21 -352.568 1912.21 -348.285 Q1912.21 -344.018 1914.18 -341.746 Q1916.14 -339.489 1919.85 -339.489 Q1921.73 -339.489 1923.39 -340.169 Q1925.07 -340.849 1926.55 -342.224 L1926.55 -339.171 Q1925.01 -338.129 1923.29 -337.608 Q1921.58 -337.088 1919.68 -337.088 Q1914.77 -337.088 1911.95 -340.082 Q1909.13 -343.092 1909.13 -348.285 Q1909.13 -353.494 1911.95 -356.489 Q1914.77 -359.498 1919.68 -359.498 Q1921.61 -359.498 1923.32 -358.977 Q1925.04 -358.471 1926.55 -357.443 Z" fill="#000000" fill-rule="evenodd" fill-opacity="1" /><path clip-path="url(#clip510)" d="M 0 0 M1935.62 -351.844 Q1933.48 -351.844 1932.23 -350.166 Q1930.99 -348.502 1930.99 -345.594 Q1930.99 -342.687 1932.22 -341.008 Q1933.46 -339.345 1935.62 -339.345 Q1937.74 -339.345 1938.99 -341.023 Q1940.23 -342.701 1940.23 -345.594 Q1940.23 -348.474 1938.99 -350.152 Q1937.74 -351.844 1935.62 -351.844 M1935.62 -354.101 Q1939.09 -354.101 1941.07 -351.844 Q1943.05 -349.588 1943.05 -345.594 Q1943.05 -341.616 1941.07 -339.345 Q1939.09 -337.088 1935.62 -337.088 Q1932.13 -337.088 1930.15 -339.345 Q1928.18 -341.616 1928.18 -345.594 Q1928.18 -349.588 1930.15 -351.844 Q1932.13 -354.101 1935.62 -354.101 Z" fill="#000000" fill-rule="evenodd" fill-opacity="1" /><path clip-path="url(#clip510)" d="M 0 0 M1959.32 -347.287 L1959.32 -337.507 L1956.65 -337.507 L1956.65 -347.2 Q1956.65 -349.501 1955.76 -350.644 Q1954.86 -351.787 1953.07 -351.787 Q1950.91 -351.787 1949.67 -350.412 Q1948.42 -349.038 1948.42 -346.665 L1948.42 -337.507 L1945.75 -337.507 L1945.75 -353.711 L1948.42 -353.711 L1948.42 -351.193 Q1949.38 -352.655 1950.66 -353.378 Q1951.97 -354.101 1953.66 -354.101 Q1956.45 -354.101 1957.88 -352.365 Q1959.32 -350.644 1959.32 -347.287 Z" fill="#000000" fill-rule="evenodd" fill-opacity="1" /><path clip-path="url(#clip510)" d="M 0 0 M1972.44 -353.233 L1972.44 -350.716 Q1971.31 -351.295 1970.09 -351.584 Q1968.88 -351.873 1967.58 -351.873 Q1965.59 -351.873 1964.6 -351.266 Q1963.61 -350.658 1963.61 -349.443 Q1963.61 -348.517 1964.32 -347.982 Q1965.03 -347.461 1967.17 -346.983 L1968.08 -346.781 Q1970.92 -346.173 1972.11 -345.059 Q1973.31 -343.96 1973.31 -341.978 Q1973.31 -339.721 1971.51 -338.404 Q1969.73 -337.088 1966.61 -337.088 Q1965.31 -337.088 1963.89 -337.348 Q1962.48 -337.594 1960.92 -338.1 L1960.92 -340.849 Q1962.4 -340.082 1963.83 -339.692 Q1965.26 -339.316 1966.67 -339.316 Q1968.55 -339.316 1969.56 -339.952 Q1970.57 -340.603 1970.57 -341.775 Q1970.57 -342.86 1969.83 -343.439 Q1969.11 -344.018 1966.64 -344.553 L1965.71 -344.77 Q1963.24 -345.291 1962.14 -346.361 Q1961.04 -347.446 1961.04 -349.327 Q1961.04 -351.613 1962.66 -352.857 Q1964.28 -354.101 1967.26 -354.101 Q1968.73 -354.101 1970.04 -353.884 Q1971.34 -353.667 1972.44 -353.233 Z" fill="#000000" fill-rule="evenodd" fill-opacity="1" /><path clip-path="url(#clip510)" d="M 0 0 M1978.73 -358.311 L1978.73 -353.711 L1984.21 -353.711 L1984.21 -351.642 L1978.73 -351.642 L1978.73 -342.846 Q1978.73 -340.864 1979.27 -340.299 Q1979.82 -339.735 1981.48 -339.735 L1984.21 -339.735 L1984.21 -337.507 L1981.48 -337.507 Q1978.4 -337.507 1977.23 -338.65 Q1976.05 -339.807 1976.05 -342.846 L1976.05 -351.642 L1974.1 -351.642 L1974.1 -353.711 L1976.05 -353.711 L1976.05 -358.311 L1978.73 -358.311 Z" fill="#000000" fill-rule="evenodd" fill-opacity="1" /><path clip-path="url(#clip510)" d="M 0 0 M1996.4 -351.222 Q1995.95 -351.483 1995.41 -351.599 Q1994.89 -351.729 1994.26 -351.729 Q1992 -351.729 1990.78 -350.253 Q1989.58 -348.792 1989.58 -346.043 L1989.58 -337.507 L1986.91 -337.507 L1986.91 -353.711 L1989.58 -353.711 L1989.58 -351.193 Q1990.42 -352.669 1991.77 -353.378 Q1993.11 -354.101 1995.04 -354.101 Q1995.31 -354.101 1995.64 -354.058 Q1995.98 -354.029 1996.38 -353.957 L1996.4 -351.222 Z" fill="#000000" fill-rule="evenodd" fill-opacity="1" /><path clip-path="url(#clip510)" d="M 0 0 M2006.55 -345.652 Q2003.33 -345.652 2002.08 -344.915 Q2000.84 -344.177 2000.84 -342.397 Q2000.84 -340.979 2001.76 -340.14 Q2002.7 -339.316 2004.31 -339.316 Q2006.52 -339.316 2007.85 -340.878 Q2009.2 -342.455 2009.2 -345.059 L2009.2 -345.652 L2006.55 -345.652 M2011.86 -346.752 L2011.86 -337.507 L2009.2 -337.507 L2009.2 -339.967 Q2008.29 -338.491 2006.93 -337.782 Q2005.57 -337.088 2003.6 -337.088 Q2001.11 -337.088 1999.64 -338.476 Q1998.18 -339.88 1998.18 -342.224 Q1998.18 -344.958 2000 -346.347 Q2001.84 -347.736 2005.47 -347.736 L2009.2 -347.736 L2009.2 -347.996 Q2009.2 -349.833 2007.98 -350.832 Q2006.78 -351.844 2004.6 -351.844 Q2003.21 -351.844 2001.89 -351.512 Q2000.58 -351.179 1999.36 -350.513 L1999.36 -352.973 Q2000.82 -353.537 2002.2 -353.812 Q2003.57 -354.101 2004.87 -354.101 Q2008.39 -354.101 2010.13 -352.278 Q2011.86 -350.456 2011.86 -346.752 Z" fill="#000000" fill-rule="evenodd" fill-opacity="1" /><path clip-path="url(#clip510)" d="M 0 0 M2014.65 -353.711 L2017.32 -353.711 L2017.32 -337.507 L2014.65 -337.507 L2014.65 -353.711 M2014.65 -360.019 L2017.32 -360.019 L2017.32 -356.648 L2014.65 -356.648 L2014.65 -360.019 Z" fill="#000000" fill-rule="evenodd" fill-opacity="1" /><path clip-path="url(#clip510)" d="M 0 0 M2033.58 -347.287 L2033.58 -337.507 L2030.92 -337.507 L2030.92 -347.2 Q2030.92 -349.501 2030.02 -350.644 Q2029.12 -351.787 2027.33 -351.787 Q2025.17 -351.787 2023.93 -350.412 Q2022.68 -349.038 2022.68 -346.665 L2022.68 -337.507 L2020.01 -337.507 L2020.01 -353.711 L2022.68 -353.711 L2022.68 -351.193 Q2023.64 -352.655 2024.93 -353.378 Q2026.23 -354.101 2027.92 -354.101 Q2030.71 -354.101 2032.15 -352.365 Q2033.58 -350.644 2033.58 -347.287 Z" fill="#000000" fill-rule="evenodd" fill-opacity="1" /><path clip-path="url(#clip510)" d="M 0 0 M2039 -358.311 L2039 -353.711 L2044.49 -353.711 L2044.49 -351.642 L2039 -351.642 L2039 -342.846 Q2039 -340.864 2039.54 -340.299 Q2040.09 -339.735 2041.75 -339.735 L2044.49 -339.735 L2044.49 -337.507 L2041.75 -337.507 Q2038.67 -337.507 2037.5 -338.65 Q2036.33 -339.807 2036.33 -342.846 L2036.33 -351.642 L2034.37 -351.642 L2034.37 -353.711 L2036.33 -353.711 L2036.33 -358.311 L2039 -358.311 Z" fill="#000000" fill-rule="evenodd" fill-opacity="1" /><path clip-path="url(#clip510)" d="M 0 0 M2057.61 -353.233 L2057.61 -350.716 Q2056.48 -351.295 2055.26 -351.584 Q2054.05 -351.873 2052.75 -351.873 Q2050.77 -351.873 2049.77 -351.266 Q2048.78 -350.658 2048.78 -349.443 Q2048.78 -348.517 2049.49 -347.982 Q2050.2 -347.461 2052.34 -346.983 L2053.25 -346.781 Q2056.09 -346.173 2057.28 -345.059 Q2058.48 -343.96 2058.48 -341.978 Q2058.48 -339.721 2056.68 -338.404 Q2054.9 -337.088 2051.78 -337.088 Q2050.48 -337.088 2049.06 -337.348 Q2047.65 -337.594 2046.09 -338.1 L2046.09 -340.849 Q2047.57 -340.082 2049 -339.692 Q2050.43 -339.316 2051.84 -339.316 Q2053.72 -339.316 2054.73 -339.952 Q2055.74 -340.603 2055.74 -341.775 Q2055.74 -342.86 2055 -343.439 Q2054.28 -344.018 2051.81 -344.553 L2050.88 -344.77 Q2048.41 -345.291 2047.31 -346.361 Q2046.21 -347.446 2046.21 -349.327 Q2046.21 -351.613 2047.83 -352.857 Q2049.45 -354.101 2052.43 -354.101 Q2053.9 -354.101 2055.21 -353.884 Q2056.51 -353.667 2057.61 -353.233 Z" fill="#000000" fill-rule="evenodd" fill-opacity="1" /><path clip-path="url(#clip510)" d="M 0 0 M184.322 1956.62 L184.322 1964.73 L187.997 1964.73 Q190.037 1964.73 191.151 1963.68 Q192.265 1962.62 192.265 1960.67 Q192.265 1958.73 191.151 1957.67 Q190.037 1956.62 187.997 1956.62 L184.322 1956.62 M181.4 1954.21 L187.997 1954.21 Q191.628 1954.21 193.48 1955.86 Q195.346 1957.5 195.346 1960.67 Q195.346 1963.86 193.48 1965.5 Q191.628 1967.13 187.997 1967.13 L184.322 1967.13 L184.322 1975.81 L181.4 1975.81 L181.4 1954.21 Z" fill="#000000" fill-rule="evenodd" fill-opacity="1" /><path clip-path="url(#clip510)" d="M 0 0 M210.942 1967.05 L210.942 1968.35 L198.703 1968.35 Q198.877 1971.1 200.352 1972.55 Q201.842 1973.98 204.49 1973.98 Q206.024 1973.98 207.456 1973.6 Q208.903 1973.23 210.32 1972.47 L210.32 1974.99 Q208.888 1975.6 207.383 1975.92 Q205.879 1976.23 204.331 1976.23 Q200.454 1976.23 198.182 1973.98 Q195.925 1971.72 195.925 1967.87 Q195.925 1963.89 198.066 1961.56 Q200.222 1959.22 203.868 1959.22 Q207.138 1959.22 209.033 1961.33 Q210.942 1963.43 210.942 1967.05 M208.28 1966.27 Q208.252 1964.08 207.051 1962.78 Q205.864 1961.48 203.897 1961.48 Q201.669 1961.48 200.323 1962.74 Q198.992 1963.99 198.79 1966.28 L208.28 1966.27 Z" fill="#000000" fill-rule="evenodd" fill-opacity="1" /><path clip-path="url(#clip510)" d="M 0 0 M223.124 1962.1 Q222.676 1961.84 222.14 1961.72 Q221.619 1961.59 220.983 1961.59 Q218.726 1961.59 217.511 1963.07 Q216.31 1964.53 216.31 1967.28 L216.31 1975.81 L213.633 1975.81 L213.633 1959.61 L216.31 1959.61 L216.31 1962.13 Q217.149 1960.65 218.495 1959.94 Q219.84 1959.22 221.764 1959.22 Q222.039 1959.22 222.372 1959.26 Q222.705 1959.29 223.11 1959.37 L223.124 1962.1 Z" fill="#000000" fill-rule="evenodd" fill-opacity="1" /><path clip-path="url(#clip510)" d="M 0 0 M234.119 1953.3 L234.119 1955.52 L231.573 1955.52 Q230.141 1955.52 229.577 1956.1 Q229.027 1956.67 229.027 1958.18 L229.027 1959.61 L233.411 1959.61 L233.411 1961.68 L229.027 1961.68 L229.027 1975.81 L226.35 1975.81 L226.35 1961.68 L223.804 1961.68 L223.804 1959.61 L226.35 1959.61 L226.35 1958.48 Q226.35 1955.78 227.609 1954.55 Q228.868 1953.3 231.602 1953.3 L234.119 1953.3 Z" fill="#000000" fill-rule="evenodd" fill-opacity="1" /><path clip-path="url(#clip510)" d="M 0 0 M243.191 1961.48 Q241.049 1961.48 239.805 1963.16 Q238.561 1964.82 238.561 1967.73 Q238.561 1970.64 239.791 1972.31 Q241.035 1973.98 243.191 1973.98 Q245.317 1973.98 246.561 1972.3 Q247.806 1970.62 247.806 1967.73 Q247.806 1964.85 246.561 1963.17 Q245.317 1961.48 243.191 1961.48 M243.191 1959.22 Q246.663 1959.22 248.645 1961.48 Q250.627 1963.73 250.627 1967.73 Q250.627 1971.71 248.645 1973.98 Q246.663 1976.23 243.191 1976.23 Q239.704 1976.23 237.722 1973.98 Q235.754 1971.71 235.754 1967.73 Q235.754 1963.73 237.722 1961.48 Q239.704 1959.22 243.191 1959.22 Z" fill="#000000" fill-rule="evenodd" fill-opacity="1" /><path clip-path="url(#clip510)" d="M 0 0 M262.809 1962.1 Q262.36 1961.84 261.825 1961.72 Q261.304 1961.59 260.667 1961.59 Q258.41 1961.59 257.195 1963.07 Q255.994 1964.53 255.994 1967.28 L255.994 1975.81 L253.318 1975.81 L253.318 1959.61 L255.994 1959.61 L255.994 1962.13 Q256.833 1960.65 258.179 1959.94 Q259.524 1959.22 261.449 1959.22 Q261.723 1959.22 262.056 1959.26 Q262.389 1959.29 262.794 1959.37 L262.809 1962.1 Z" fill="#000000" fill-rule="evenodd" fill-opacity="1" /><path clip-path="url(#clip510)" d="M 0 0 M277.696 1962.72 Q278.694 1960.93 280.083 1960.07 Q281.472 1959.22 283.352 1959.22 Q285.884 1959.22 287.259 1961 Q288.633 1962.77 288.633 1966.03 L288.633 1975.81 L285.957 1975.81 L285.957 1966.12 Q285.957 1963.79 285.132 1962.66 Q284.307 1961.54 282.615 1961.54 Q280.546 1961.54 279.345 1962.91 Q278.144 1964.28 278.144 1966.66 L278.144 1975.81 L275.468 1975.81 L275.468 1966.12 Q275.468 1963.78 274.643 1962.66 Q273.818 1961.54 272.097 1961.54 Q270.057 1961.54 268.856 1962.92 Q267.655 1964.3 267.655 1966.66 L267.655 1975.81 L264.979 1975.81 L264.979 1959.61 L267.655 1959.61 L267.655 1962.13 Q268.567 1960.64 269.84 1959.93 Q271.113 1959.22 272.863 1959.22 Q274.628 1959.22 275.858 1960.12 Q277.102 1961.01 277.696 1962.72 Z" fill="#000000" fill-rule="evenodd" fill-opacity="1" /><path clip-path="url(#clip510)" d="M 0 0 M298.789 1967.67 Q295.563 1967.67 294.319 1968.41 Q293.075 1969.15 293.075 1970.92 Q293.075 1972.34 294 1973.18 Q294.941 1974.01 296.547 1974.01 Q298.76 1974.01 300.091 1972.44 Q301.437 1970.87 301.437 1968.26 L301.437 1967.67 L298.789 1967.67 M304.099 1966.57 L304.099 1975.81 L301.437 1975.81 L301.437 1973.36 Q300.525 1974.83 299.165 1975.54 Q297.805 1976.23 295.838 1976.23 Q293.349 1976.23 291.874 1974.85 Q290.413 1973.44 290.413 1971.1 Q290.413 1968.36 292.235 1966.98 Q294.073 1965.59 297.704 1965.59 L301.437 1965.59 L301.437 1965.33 Q301.437 1963.49 300.222 1962.49 Q299.021 1961.48 296.836 1961.48 Q295.447 1961.48 294.131 1961.81 Q292.814 1962.14 291.599 1962.81 L291.599 1960.35 Q293.06 1959.78 294.434 1959.51 Q295.809 1959.22 297.111 1959.22 Q300.627 1959.22 302.363 1961.04 Q304.099 1962.87 304.099 1966.57 Z" fill="#000000" fill-rule="evenodd" fill-opacity="1" /><path clip-path="url(#clip510)" d="M 0 0 M320.36 1966.03 L320.36 1975.81 L317.698 1975.81 L317.698 1966.12 Q317.698 1963.82 316.801 1962.68 Q315.904 1961.54 314.11 1961.54 Q311.955 1961.54 310.71 1962.91 Q309.466 1964.28 309.466 1966.66 L309.466 1975.81 L306.79 1975.81 L306.79 1959.61 L309.466 1959.61 L309.466 1962.13 Q310.421 1960.67 311.709 1959.94 Q313.011 1959.22 314.703 1959.22 Q317.496 1959.22 318.928 1960.96 Q320.36 1962.68 320.36 1966.03 Z" fill="#000000" fill-rule="evenodd" fill-opacity="1" /><path clip-path="url(#clip510)" d="M 0 0 M334.813 1960.23 L334.813 1962.72 Q333.685 1962.1 332.542 1961.8 Q331.413 1961.48 330.256 1961.48 Q327.666 1961.48 326.234 1963.13 Q324.802 1964.76 324.802 1967.73 Q324.802 1970.69 326.234 1972.34 Q327.666 1973.98 330.256 1973.98 Q331.413 1973.98 332.542 1973.67 Q333.685 1973.36 334.813 1972.73 L334.813 1975.19 Q333.699 1975.71 332.499 1975.97 Q331.312 1976.23 329.967 1976.23 Q326.306 1976.23 324.151 1973.93 Q321.995 1971.63 321.995 1967.73 Q321.995 1963.76 324.165 1961.49 Q326.35 1959.22 330.14 1959.22 Q331.37 1959.22 332.542 1959.48 Q333.714 1959.73 334.813 1960.23 Z" fill="#000000" fill-rule="evenodd" fill-opacity="1" /><path clip-path="url(#clip510)" d="M 0 0 M351.465 1967.05 L351.465 1968.35 L339.226 1968.35 Q339.4 1971.1 340.875 1972.55 Q342.365 1973.98 345.013 1973.98 Q346.546 1973.98 347.979 1973.6 Q349.426 1973.23 350.843 1972.47 L350.843 1974.99 Q349.411 1975.6 347.906 1975.92 Q346.402 1976.23 344.854 1976.23 Q340.976 1976.23 338.705 1973.98 Q336.448 1971.72 336.448 1967.87 Q336.448 1963.89 338.589 1961.56 Q340.745 1959.22 344.391 1959.22 Q347.66 1959.22 349.556 1961.33 Q351.465 1963.43 351.465 1967.05 M348.803 1966.27 Q348.774 1964.08 347.574 1962.78 Q346.387 1961.48 344.42 1961.48 Q342.192 1961.48 340.846 1962.74 Q339.515 1963.99 339.313 1966.28 L348.803 1966.27 Z" fill="#000000" fill-rule="evenodd" fill-opacity="1" /><path clip-path="url(#clip510)" d="M 0 0 M366.57 1980.73 L366.57 1982.8 L351.176 1982.8 L351.176 1980.73 L366.57 1980.73 Z" fill="#000000" fill-rule="evenodd" fill-opacity="1" /><path clip-path="url(#clip510)" d="M 0 0 M372.4 1956.62 L372.4 1964.73 L376.075 1964.73 Q378.115 1964.73 379.229 1963.68 Q380.343 1962.62 380.343 1960.67 Q380.343 1958.73 379.229 1957.67 Q378.115 1956.62 376.075 1956.62 L372.4 1956.62 M369.477 1954.21 L376.075 1954.21 Q379.706 1954.21 381.558 1955.86 Q383.424 1957.5 383.424 1960.67 Q383.424 1963.86 381.558 1965.5 Q379.706 1967.13 376.075 1967.13 L372.4 1967.13 L372.4 1975.81 L369.477 1975.81 L369.477 1954.21 Z" fill="#000000" fill-rule="evenodd" fill-opacity="1" /><path clip-path="url(#clip510)" d="M 0 0 M392.249 1967.67 Q389.023 1967.67 387.779 1968.41 Q386.535 1969.15 386.535 1970.92 Q386.535 1972.34 387.461 1973.18 Q388.401 1974.01 390.007 1974.01 Q392.22 1974.01 393.551 1972.44 Q394.897 1970.87 394.897 1968.26 L394.897 1967.67 L392.249 1967.67 M397.559 1966.57 L397.559 1975.81 L394.897 1975.81 L394.897 1973.36 Q393.985 1974.83 392.626 1975.54 Q391.266 1976.23 389.298 1976.23 Q386.81 1976.23 385.334 1974.85 Q383.873 1973.44 383.873 1971.1 Q383.873 1968.36 385.696 1966.98 Q387.533 1965.59 391.164 1965.59 L394.897 1965.59 L394.897 1965.33 Q394.897 1963.49 393.682 1962.49 Q392.481 1961.48 390.296 1961.48 Q388.907 1961.48 387.591 1961.81 Q386.274 1962.14 385.059 1962.81 L385.059 1960.35 Q386.52 1959.78 387.895 1959.51 Q389.269 1959.22 390.571 1959.22 Q394.087 1959.22 395.823 1961.04 Q397.559 1962.87 397.559 1966.57 Z" fill="#000000" fill-rule="evenodd" fill-opacity="1" /><path clip-path="url(#clip510)" d="M 0 0 M409.741 1962.1 Q409.292 1961.84 408.757 1961.72 Q408.236 1961.59 407.599 1961.59 Q405.342 1961.59 404.127 1963.07 Q402.926 1964.53 402.926 1967.28 L402.926 1975.81 L400.25 1975.81 L400.25 1959.61 L402.926 1959.61 L402.926 1962.13 Q403.766 1960.65 405.111 1959.94 Q406.456 1959.22 408.381 1959.22 Q408.656 1959.22 408.988 1959.26 Q409.321 1959.29 409.726 1959.37 L409.741 1962.1 Z" fill="#000000" fill-rule="evenodd" fill-opacity="1" /><path clip-path="url(#clip510)" d="M 0 0 M419.897 1967.67 Q416.671 1967.67 415.426 1968.41 Q414.182 1969.15 414.182 1970.92 Q414.182 1972.34 415.108 1973.18 Q416.048 1974.01 417.654 1974.01 Q419.868 1974.01 421.199 1972.44 Q422.544 1970.87 422.544 1968.26 L422.544 1967.67 L419.897 1967.67 M425.206 1966.57 L425.206 1975.81 L422.544 1975.81 L422.544 1973.36 Q421.633 1974.83 420.273 1975.54 Q418.913 1976.23 416.945 1976.23 Q414.457 1976.23 412.981 1974.85 Q411.52 1973.44 411.52 1971.1 Q411.52 1968.36 413.343 1966.98 Q415.18 1965.59 418.812 1965.59 L422.544 1965.59 L422.544 1965.33 Q422.544 1963.49 421.329 1962.49 Q420.128 1961.48 417.944 1961.48 Q416.555 1961.48 415.238 1961.81 Q413.922 1962.14 412.706 1962.81 L412.706 1960.35 Q414.168 1959.78 415.542 1959.51 Q416.916 1959.22 418.219 1959.22 Q421.734 1959.22 423.47 1961.04 Q425.206 1962.87 425.206 1966.57 Z" fill="#000000" fill-rule="evenodd" fill-opacity="1" /><path clip-path="url(#clip510)" d="M 0 0 M440.614 1962.72 Q441.613 1960.93 443.001 1960.07 Q444.39 1959.22 446.271 1959.22 Q448.803 1959.22 450.177 1961 Q451.552 1962.77 451.552 1966.03 L451.552 1975.81 L448.875 1975.81 L448.875 1966.12 Q448.875 1963.79 448.051 1962.66 Q447.226 1961.54 445.533 1961.54 Q443.464 1961.54 442.264 1962.91 Q441.063 1964.28 441.063 1966.66 L441.063 1975.81 L438.386 1975.81 L438.386 1966.12 Q438.386 1963.78 437.562 1962.66 Q436.737 1961.54 435.015 1961.54 Q432.975 1961.54 431.775 1962.92 Q430.574 1964.3 430.574 1966.66 L430.574 1975.81 L427.897 1975.81 L427.897 1959.61 L430.574 1959.61 L430.574 1962.13 Q431.485 1960.64 432.758 1959.93 Q434.032 1959.22 435.782 1959.22 Q437.547 1959.22 438.777 1960.12 Q440.021 1961.01 440.614 1962.72 Z" fill="#000000" fill-rule="evenodd" fill-opacity="1" /><path clip-path="url(#clip510)" d="M 0 0 M468.204 1967.05 L468.204 1968.35 L455.964 1968.35 Q456.138 1971.1 457.614 1972.55 Q459.104 1973.98 461.751 1973.98 Q463.285 1973.98 464.717 1973.6 Q466.164 1973.23 467.582 1972.47 L467.582 1974.99 Q466.149 1975.6 464.645 1975.92 Q463.14 1976.23 461.592 1976.23 Q457.715 1976.23 455.443 1973.98 Q453.187 1971.72 453.187 1967.87 Q453.187 1963.89 455.328 1961.56 Q457.483 1959.22 461.129 1959.22 Q464.399 1959.22 466.294 1961.33 Q468.204 1963.43 468.204 1967.05 M465.542 1966.27 Q465.513 1964.08 464.312 1962.78 Q463.126 1961.48 461.158 1961.48 Q458.93 1961.48 457.585 1962.74 Q456.254 1963.99 456.051 1966.28 L465.542 1966.27 Z" fill="#000000" fill-rule="evenodd" fill-opacity="1" /><path clip-path="url(#clip510)" d="M 0 0 M473.629 1955.01 L473.629 1959.61 L479.112 1959.61 L479.112 1961.68 L473.629 1961.68 L473.629 1970.48 Q473.629 1972.46 474.164 1973.02 Q474.714 1973.59 476.378 1973.59 L479.112 1973.59 L479.112 1975.81 L476.378 1975.81 Q473.296 1975.81 472.125 1974.67 Q470.953 1973.51 470.953 1970.48 L470.953 1961.68 L469 1961.68 L469 1959.61 L470.953 1959.61 L470.953 1955.01 L473.629 1955.01 Z" fill="#000000" fill-rule="evenodd" fill-opacity="1" /><path clip-path="url(#clip510)" d="M 0 0 M495.764 1967.05 L495.764 1968.35 L483.525 1968.35 Q483.699 1971.1 485.174 1972.55 Q486.664 1973.98 489.312 1973.98 Q490.845 1973.98 492.278 1973.6 Q493.725 1973.23 495.142 1972.47 L495.142 1974.99 Q493.71 1975.6 492.205 1975.92 Q490.701 1976.23 489.153 1976.23 Q485.275 1976.23 483.004 1973.98 Q480.747 1971.72 480.747 1967.87 Q480.747 1963.89 482.888 1961.56 Q485.044 1959.22 488.69 1959.22 Q491.959 1959.22 493.855 1961.33 Q495.764 1963.43 495.764 1967.05 M493.102 1966.27 Q493.073 1964.08 491.873 1962.78 Q490.686 1961.48 488.719 1961.48 Q486.491 1961.48 485.145 1962.74 Q483.814 1963.99 483.612 1966.28 L493.102 1966.27 Z" fill="#000000" fill-rule="evenodd" fill-opacity="1" /><path clip-path="url(#clip510)" d="M 0 0 M507.946 1962.1 Q507.498 1961.84 506.962 1961.72 Q506.441 1961.59 505.805 1961.59 Q503.548 1961.59 502.333 1963.07 Q501.132 1964.53 501.132 1967.28 L501.132 1975.81 L498.455 1975.81 L498.455 1959.61 L501.132 1959.61 L501.132 1962.13 Q501.971 1960.65 503.316 1959.94 Q504.662 1959.22 506.586 1959.22 Q506.861 1959.22 507.194 1959.26 Q507.527 1959.29 507.932 1959.37 L507.946 1962.1 Z" fill="#000000" fill-rule="evenodd" fill-opacity="1" /><path clip-path="url(#clip510)" d="M 0 0 M521.068 1960.09 L521.068 1962.61 Q519.94 1962.03 518.724 1961.74 Q517.509 1961.45 516.207 1961.45 Q514.225 1961.45 513.227 1962.06 Q512.243 1962.66 512.243 1963.88 Q512.243 1964.81 512.952 1965.34 Q513.661 1965.86 515.802 1966.34 L516.713 1966.54 Q519.549 1967.15 520.735 1968.26 Q521.936 1969.36 521.936 1971.34 Q521.936 1973.6 520.142 1974.92 Q518.363 1976.23 515.238 1976.23 Q513.936 1976.23 512.518 1975.97 Q511.114 1975.73 509.552 1975.22 L509.552 1972.47 Q511.028 1973.24 512.46 1973.63 Q513.892 1974.01 515.296 1974.01 Q517.176 1974.01 518.189 1973.37 Q519.202 1972.72 519.202 1971.55 Q519.202 1970.46 518.464 1969.88 Q517.741 1969.3 515.267 1968.77 L514.341 1968.55 Q511.867 1968.03 510.767 1966.96 Q509.668 1965.88 509.668 1963.99 Q509.668 1961.71 511.288 1960.46 Q512.908 1959.22 515.889 1959.22 Q517.364 1959.22 518.667 1959.44 Q519.969 1959.65 521.068 1960.09 Z" fill="#000000" fill-rule="evenodd" fill-opacity="1" /><path clip-path="url(#clip510)" d="M 0 0 M1345.17 1336.43 L1345.17 1339.51 Q1343.7 1338.14 1342.02 1337.46 Q1340.35 1336.78 1338.47 1336.78 Q1334.77 1336.78 1332.8 1339.05 Q1330.84 1341.31 1330.84 1345.59 Q1330.84 1349.86 1332.8 1352.13 Q1334.77 1354.38 1338.47 1354.38 Q1340.35 1354.38 1342.02 1353.7 Q1343.7 1353.02 1345.17 1351.65 L1345.17 1354.7 Q1343.64 1355.74 1341.92 1356.26 Q1340.21 1356.79 1338.3 1356.79 Q1333.4 1356.79 1330.57 1353.79 Q1327.75 1350.78 1327.75 1345.59 Q1327.75 1340.38 1330.57 1337.38 Q1333.4 1334.38 1338.3 1334.38 Q1340.24 1334.38 1341.95 1334.9 Q1343.67 1335.4 1345.17 1336.43 Z" fill="#000000" fill-rule="evenodd" fill-opacity="1" /><path clip-path="url(#clip510)" d="M 0 0 M1347.96 1333.85 L1350.63 1333.85 L1350.63 1356.37 L1347.96 1356.37 L1347.96 1333.85 Z" fill="#000000" fill-rule="evenodd" fill-opacity="1" /><path clip-path="url(#clip510)" d="M 0 0 M1353.42 1340.16 L1356.08 1340.16 L1356.08 1356.37 L1353.42 1356.37 L1353.42 1340.16 M1353.42 1333.85 L1356.08 1333.85 L1356.08 1337.23 L1353.42 1337.23 L1353.42 1333.85 Z" fill="#000000" fill-rule="evenodd" fill-opacity="1" /><path clip-path="url(#clip510)" d="M 0 0 M1372.73 1347.6 L1372.73 1348.9 L1360.49 1348.9 Q1360.67 1351.65 1362.14 1353.1 Q1363.63 1354.53 1366.28 1354.53 Q1367.81 1354.53 1369.25 1354.15 Q1370.69 1353.78 1372.11 1353.02 L1372.11 1355.54 Q1370.68 1356.15 1369.17 1356.47 Q1367.67 1356.79 1366.12 1356.79 Q1362.24 1356.79 1359.97 1354.53 Q1357.72 1352.27 1357.72 1348.42 Q1357.72 1344.44 1359.86 1342.12 Q1362.01 1339.77 1365.66 1339.77 Q1368.93 1339.77 1370.82 1341.88 Q1372.73 1343.98 1372.73 1347.6 M1370.07 1346.82 Q1370.04 1344.63 1368.84 1343.33 Q1367.65 1342.03 1365.69 1342.03 Q1363.46 1342.03 1362.11 1343.29 Q1360.78 1344.55 1360.58 1346.83 L1370.07 1346.82 Z" fill="#000000" fill-rule="evenodd" fill-opacity="1" /><path clip-path="url(#clip510)" d="M 0 0 M1388.99 1346.59 L1388.99 1356.37 L1386.33 1356.37 L1386.33 1346.67 Q1386.33 1344.37 1385.44 1343.23 Q1384.54 1342.09 1382.74 1342.09 Q1380.59 1342.09 1379.34 1343.46 Q1378.1 1344.84 1378.1 1347.21 L1378.1 1356.37 L1375.42 1356.37 L1375.42 1340.16 L1378.1 1340.16 L1378.1 1342.68 Q1379.06 1341.22 1380.34 1340.49 Q1381.64 1339.77 1383.34 1339.77 Q1386.13 1339.77 1387.56 1341.51 Q1388.99 1343.23 1388.99 1346.59 Z" fill="#000000" fill-rule="evenodd" fill-opacity="1" /><path clip-path="url(#clip510)" d="M 0 0 M1394.42 1335.56 L1394.42 1340.16 L1399.9 1340.16 L1399.9 1342.23 L1394.42 1342.23 L1394.42 1351.03 Q1394.42 1353.01 1394.96 1353.57 Q1395.5 1354.14 1397.17 1354.14 L1399.9 1354.14 L1399.9 1356.37 L1397.17 1356.37 Q1394.09 1356.37 1392.92 1355.22 Q1391.74 1354.07 1391.74 1351.03 L1391.74 1342.23 L1389.79 1342.23 L1389.79 1340.16 L1391.74 1340.16 L1391.74 1335.56 L1394.42 1335.56 Z" fill="#000000" fill-rule="evenodd" fill-opacity="1" /><path clip-path="url(#clip510)" d="M 0 0 M1415.01 1361.28 L1415.01 1363.35 L1399.61 1363.35 L1399.61 1361.28 L1415.01 1361.28 Z" fill="#000000" fill-rule="evenodd" fill-opacity="1" /><path clip-path="url(#clip510)" d="M 0 0 M1425.16 1348.22 Q1421.94 1348.22 1420.69 1348.96 Q1419.45 1349.7 1419.45 1351.48 Q1419.45 1352.89 1420.37 1353.73 Q1421.31 1354.56 1422.92 1354.56 Q1425.13 1354.56 1426.47 1352.99 Q1427.81 1351.42 1427.81 1348.81 L1427.81 1348.22 L1425.16 1348.22 M1430.47 1347.12 L1430.47 1356.37 L1427.81 1356.37 L1427.81 1353.91 Q1426.9 1355.38 1425.54 1356.09 Q1424.18 1356.79 1422.21 1356.79 Q1419.72 1356.79 1418.25 1355.4 Q1416.79 1353.99 1416.79 1351.65 Q1416.79 1348.91 1418.61 1347.53 Q1420.45 1346.14 1424.08 1346.14 L1427.81 1346.14 L1427.81 1345.88 Q1427.81 1344.04 1426.6 1343.04 Q1425.39 1342.03 1423.21 1342.03 Q1421.82 1342.03 1420.5 1342.36 Q1419.19 1342.69 1417.97 1343.36 L1417.97 1340.9 Q1419.43 1340.34 1420.81 1340.06 Q1422.18 1339.77 1423.49 1339.77 Q1427 1339.77 1428.74 1341.59 Q1430.47 1343.42 1430.47 1347.12 Z" fill="#000000" fill-rule="evenodd" fill-opacity="1" /><path clip-path="url(#clip510)" d="M 0 0 M1446.73 1346.59 L1446.73 1356.37 L1444.07 1356.37 L1444.07 1346.67 Q1444.07 1344.37 1443.18 1343.23 Q1442.28 1342.09 1440.48 1342.09 Q1438.33 1342.09 1437.08 1343.46 Q1435.84 1344.84 1435.84 1347.21 L1435.84 1356.37 L1433.16 1356.37 L1433.16 1340.16 L1435.84 1340.16 L1435.84 1342.68 Q1436.8 1341.22 1438.08 1340.49 Q1439.38 1339.77 1441.08 1339.77 Q1443.87 1339.77 1445.3 1341.51 Q1446.73 1343.23 1446.73 1346.59 Z" fill="#000000" fill-rule="evenodd" fill-opacity="1" /><path clip-path="url(#clip510)" d="M 0 0 M1460.19 1342.62 L1460.19 1333.85 L1462.85 1333.85 L1462.85 1356.37 L1460.19 1356.37 L1460.19 1353.94 Q1459.35 1355.38 1458.06 1356.09 Q1456.79 1356.79 1455 1356.79 Q1452.06 1356.79 1450.21 1354.44 Q1448.37 1352.1 1448.37 1348.28 Q1448.37 1344.46 1450.21 1342.12 Q1452.06 1339.77 1455 1339.77 Q1456.79 1339.77 1458.06 1340.48 Q1459.35 1341.17 1460.19 1342.62 M1451.12 1348.28 Q1451.12 1351.22 1452.32 1352.89 Q1453.53 1354.56 1455.65 1354.56 Q1457.76 1354.56 1458.97 1352.89 Q1460.19 1351.22 1460.19 1348.28 Q1460.19 1345.34 1458.97 1343.68 Q1457.76 1342 1455.65 1342 Q1453.53 1342 1452.32 1343.68 Q1451.12 1345.34 1451.12 1348.28 Z" fill="#000000" fill-rule="evenodd" fill-opacity="1" /><path clip-path="url(#clip510)" d="M 0 0 M1477.96 1361.28 L1477.96 1363.35 L1462.56 1363.35 L1462.56 1361.28 L1477.96 1361.28 Z" fill="#000000" fill-rule="evenodd" fill-opacity="1" /><path clip-path="url(#clip510)" d="M 0 0 M1497.04 1336.43 L1497.04 1339.51 Q1495.56 1338.14 1493.88 1337.46 Q1492.22 1336.78 1490.34 1336.78 Q1486.64 1336.78 1484.67 1339.05 Q1482.7 1341.31 1482.7 1345.59 Q1482.7 1349.86 1484.67 1352.13 Q1486.64 1354.38 1490.34 1354.38 Q1492.22 1354.38 1493.88 1353.7 Q1495.56 1353.02 1497.04 1351.65 L1497.04 1354.7 Q1495.5 1355.74 1493.78 1356.26 Q1492.08 1356.79 1490.17 1356.79 Q1485.26 1356.79 1482.44 1353.79 Q1479.62 1350.78 1479.62 1345.59 Q1479.62 1340.38 1482.44 1337.38 Q1485.26 1334.38 1490.17 1334.38 Q1492.1 1334.38 1493.81 1334.9 Q1495.53 1335.4 1497.04 1336.43 Z" fill="#000000" fill-rule="evenodd" fill-opacity="1" /><path clip-path="url(#clip510)" d="M 0 0 M1506.11 1342.03 Q1503.97 1342.03 1502.72 1343.71 Q1501.48 1345.37 1501.48 1348.28 Q1501.48 1351.19 1502.71 1352.86 Q1503.95 1354.53 1506.11 1354.53 Q1508.24 1354.53 1509.48 1352.85 Q1510.72 1351.17 1510.72 1348.28 Q1510.72 1345.4 1509.48 1343.72 Q1508.24 1342.03 1506.11 1342.03 M1506.11 1339.77 Q1509.58 1339.77 1511.56 1342.03 Q1513.55 1344.29 1513.55 1348.28 Q1513.55 1352.26 1511.56 1354.53 Q1509.58 1356.79 1506.11 1356.79 Q1502.62 1356.79 1500.64 1354.53 Q1498.67 1352.26 1498.67 1348.28 Q1498.67 1344.29 1500.64 1342.03 Q1502.62 1339.77 1506.11 1339.77 Z" fill="#000000" fill-rule="evenodd" fill-opacity="1" /><path clip-path="url(#clip510)" d="M 0 0 M1529.81 1346.59 L1529.81 1356.37 L1527.14 1356.37 L1527.14 1346.67 Q1527.14 1344.37 1526.25 1343.23 Q1525.35 1342.09 1523.56 1342.09 Q1521.4 1342.09 1520.16 1343.46 Q1518.91 1344.84 1518.91 1347.21 L1518.91 1356.37 L1516.24 1356.37 L1516.24 1340.16 L1518.91 1340.16 L1518.91 1342.68 Q1519.87 1341.22 1521.16 1340.49 Q1522.46 1339.77 1524.15 1339.77 Q1526.94 1339.77 1528.37 1341.51 Q1529.81 1343.23 1529.81 1346.59 Z" fill="#000000" fill-rule="evenodd" fill-opacity="1" /><path clip-path="url(#clip510)" d="M 0 0 M1542.93 1340.64 L1542.93 1343.16 Q1541.8 1342.58 1540.59 1342.29 Q1539.37 1342 1538.07 1342 Q1536.09 1342 1535.09 1342.61 Q1534.1 1343.21 1534.1 1344.43 Q1534.1 1345.36 1534.81 1345.89 Q1535.52 1346.41 1537.66 1346.89 L1538.57 1347.09 Q1541.41 1347.7 1542.6 1348.81 Q1543.8 1349.91 1543.8 1351.9 Q1543.8 1354.15 1542 1355.47 Q1540.22 1356.79 1537.1 1356.79 Q1535.8 1356.79 1534.38 1356.52 Q1532.98 1356.28 1531.41 1355.77 L1531.41 1353.02 Q1532.89 1353.79 1534.32 1354.18 Q1535.75 1354.56 1537.16 1354.56 Q1539.04 1354.56 1540.05 1353.92 Q1541.06 1353.27 1541.06 1352.1 Q1541.06 1351.01 1540.32 1350.43 Q1539.6 1349.86 1537.13 1349.32 L1536.2 1349.1 Q1533.73 1348.58 1532.63 1347.51 Q1531.53 1346.43 1531.53 1344.55 Q1531.53 1342.26 1533.15 1341.02 Q1534.77 1339.77 1537.75 1339.77 Q1539.23 1339.77 1540.53 1339.99 Q1541.83 1340.21 1542.93 1340.64 Z" fill="#000000" fill-rule="evenodd" fill-opacity="1" /><path clip-path="url(#clip510)" d="M 0 0 M1546.31 1349.97 L1546.31 1340.16 L1548.98 1340.16 L1548.98 1349.87 Q1548.98 1352.17 1549.87 1353.33 Q1550.77 1354.47 1552.56 1354.47 Q1554.72 1354.47 1555.96 1353.1 Q1557.22 1351.72 1557.22 1349.35 L1557.22 1340.16 L1559.88 1340.16 L1559.88 1356.37 L1557.22 1356.37 L1557.22 1353.88 Q1556.25 1355.35 1554.97 1356.08 Q1553.69 1356.79 1552 1356.79 Q1549.21 1356.79 1547.76 1355.05 Q1546.31 1353.31 1546.31 1349.97 M1553.01 1339.77 L1553.01 1339.77 Z" fill="#000000" fill-rule="evenodd" fill-opacity="1" /><path clip-path="url(#clip510)" d="M 0 0 M1562.68 1333.85 L1565.34 1333.85 L1565.34 1356.37 L1562.68 1356.37 L1562.68 1333.85 Z" fill="#000000" fill-rule="evenodd" fill-opacity="1" /><path clip-path="url(#clip510)" d="M 0 0 M1570.76 1335.56 L1570.76 1340.16 L1576.25 1340.16 L1576.25 1342.23 L1570.76 1342.23 L1570.76 1351.03 Q1570.76 1353.01 1571.3 1353.57 Q1571.85 1354.14 1573.51 1354.14 L1576.25 1354.14 L1576.25 1356.37 L1573.51 1356.37 Q1570.43 1356.37 1569.26 1355.22 Q1568.09 1354.07 1568.09 1351.03 L1568.09 1342.23 L1566.13 1342.23 L1566.13 1340.16 L1568.09 1340.16 L1568.09 1335.56 L1570.76 1335.56 Z" fill="#000000" fill-rule="evenodd" fill-opacity="1" /><path clip-path="url(#clip510)" d="M 0 0 M1586.4 1348.22 Q1583.18 1348.22 1581.93 1348.96 Q1580.69 1349.7 1580.69 1351.48 Q1580.69 1352.89 1581.61 1353.73 Q1582.56 1354.56 1584.16 1354.56 Q1586.37 1354.56 1587.71 1352.99 Q1589.05 1351.42 1589.05 1348.81 L1589.05 1348.22 L1586.4 1348.22 M1591.71 1347.12 L1591.71 1356.37 L1589.05 1356.37 L1589.05 1353.91 Q1588.14 1355.38 1586.78 1356.09 Q1585.42 1356.79 1583.45 1356.79 Q1580.96 1356.79 1579.49 1355.4 Q1578.03 1353.99 1578.03 1351.65 Q1578.03 1348.91 1579.85 1347.53 Q1581.69 1346.14 1585.32 1346.14 L1589.05 1346.14 L1589.05 1345.88 Q1589.05 1344.04 1587.84 1343.04 Q1586.64 1342.03 1584.45 1342.03 Q1583.06 1342.03 1581.75 1342.36 Q1580.43 1342.69 1579.21 1343.36 L1579.21 1340.9 Q1580.67 1340.34 1582.05 1340.06 Q1583.42 1339.77 1584.73 1339.77 Q1588.24 1339.77 1589.98 1341.59 Q1591.71 1343.42 1591.71 1347.12 Z" fill="#000000" fill-rule="evenodd" fill-opacity="1" /><path clip-path="url(#clip510)" d="M 0 0 M1607.97 1346.59 L1607.97 1356.37 L1605.31 1356.37 L1605.31 1346.67 Q1605.31 1344.37 1604.42 1343.23 Q1603.52 1342.09 1601.72 1342.09 Q1599.57 1342.09 1598.32 1343.46 Q1597.08 1344.84 1597.08 1347.21 L1597.08 1356.37 L1594.4 1356.37 L1594.4 1340.16 L1597.08 1340.16 L1597.08 1342.68 Q1598.04 1341.22 1599.32 1340.49 Q1600.63 1339.77 1602.32 1339.77 Q1605.11 1339.77 1606.54 1341.51 Q1607.97 1343.23 1607.97 1346.59 Z" fill="#000000" fill-rule="evenodd" fill-opacity="1" /><path clip-path="url(#clip510)" d="M 0 0 M1613.4 1335.56 L1613.4 1340.16 L1618.88 1340.16 L1618.88 1342.23 L1613.4 1342.23 L1613.4 1351.03 Q1613.4 1353.01 1613.94 1353.57 Q1614.49 1354.14 1616.15 1354.14 L1618.88 1354.14 L1618.88 1356.37 L1616.15 1356.37 Q1613.07 1356.37 1611.9 1355.22 Q1610.72 1354.07 1610.72 1351.03 L1610.72 1342.23 L1608.77 1342.23 L1608.77 1340.16 L1610.72 1340.16 L1610.72 1335.56 L1613.4 1335.56 Z" fill="#000000" fill-rule="evenodd" fill-opacity="1" /><path clip-path="url(#clip510)" d="M 0 0 M1633.99 1361.28 L1633.99 1363.35 L1618.59 1363.35 L1618.59 1361.28 L1633.99 1361.28 Z" fill="#000000" fill-rule="evenodd" fill-opacity="1" /><path clip-path="url(#clip510)" d="M 0 0 M1647.14 1346.24 Q1648.08 1346.56 1648.96 1347.6 Q1649.86 1348.64 1650.76 1350.46 L1653.72 1356.37 L1650.58 1356.37 L1647.82 1350.82 Q1646.75 1348.65 1645.73 1347.95 Q1644.74 1347.24 1643 1347.24 L1639.82 1347.24 L1639.82 1356.37 L1636.9 1356.37 L1636.9 1334.77 L1643.49 1334.77 Q1647.2 1334.77 1649.02 1336.31 Q1650.84 1337.86 1650.84 1340.99 Q1650.84 1343.03 1649.89 1344.37 Q1648.95 1345.72 1647.14 1346.24 M1639.82 1337.17 L1639.82 1344.84 L1643.49 1344.84 Q1645.6 1344.84 1646.68 1343.87 Q1647.76 1342.88 1647.76 1340.99 Q1647.76 1339.09 1646.68 1338.14 Q1645.6 1337.17 1643.49 1337.17 L1639.82 1337.17 Z" fill="#000000" fill-rule="evenodd" fill-opacity="1" /><path clip-path="url(#clip510)" d="M 0 0 M1669.04 1347.6 L1669.04 1348.9 L1656.8 1348.9 Q1656.98 1351.65 1658.45 1353.1 Q1659.94 1354.53 1662.59 1354.53 Q1664.12 1354.53 1665.56 1354.15 Q1667 1353.78 1668.42 1353.02 L1668.42 1355.54 Q1666.99 1356.15 1665.48 1356.47 Q1663.98 1356.79 1662.43 1356.79 Q1658.55 1356.79 1656.28 1354.53 Q1654.02 1352.27 1654.02 1348.42 Q1654.02 1344.44 1656.17 1342.12 Q1658.32 1339.77 1661.97 1339.77 Q1665.24 1339.77 1667.13 1341.88 Q1669.04 1343.98 1669.04 1347.6 M1666.38 1346.82 Q1666.35 1344.63 1665.15 1343.33 Q1663.96 1342.03 1662 1342.03 Q1659.77 1342.03 1658.42 1343.29 Q1657.09 1344.55 1656.89 1346.83 L1666.38 1346.82 Z" fill="#000000" fill-rule="evenodd" fill-opacity="1" /><path clip-path="url(#clip510)" d="M 0 0 M1673.43 1348.28 Q1673.43 1351.22 1674.63 1352.89 Q1675.84 1354.56 1677.95 1354.56 Q1680.07 1354.56 1681.28 1352.89 Q1682.5 1351.22 1682.5 1348.28 Q1682.5 1345.34 1681.28 1343.68 Q1680.07 1342 1677.95 1342 Q1675.84 1342 1674.63 1343.68 Q1673.43 1345.34 1673.43 1348.28 M1682.5 1353.94 Q1681.66 1355.38 1680.37 1356.09 Q1679.1 1356.79 1677.3 1356.79 Q1674.37 1356.79 1672.51 1354.44 Q1670.68 1352.1 1670.68 1348.28 Q1670.68 1344.46 1672.51 1342.12 Q1674.37 1339.77 1677.3 1339.77 Q1679.1 1339.77 1680.37 1340.48 Q1681.66 1341.17 1682.5 1342.62 L1682.5 1340.16 L1685.16 1340.16 L1685.16 1362.53 L1682.5 1362.53 L1682.5 1353.94 Z" fill="#000000" fill-rule="evenodd" fill-opacity="1" /><path clip-path="url(#clip510)" d="M 0 0 M1687.68 1349.97 L1687.68 1340.16 L1690.34 1340.16 L1690.34 1349.87 Q1690.34 1352.17 1691.24 1353.33 Q1692.13 1354.47 1693.93 1354.47 Q1696.08 1354.47 1697.33 1353.1 Q1698.58 1351.72 1698.58 1349.35 L1698.58 1340.16 L1701.25 1340.16 L1701.25 1356.37 L1698.58 1356.37 L1698.58 1353.88 Q1697.62 1355.35 1696.33 1356.08 Q1695.05 1356.79 1693.36 1356.79 Q1690.57 1356.79 1689.12 1355.05 Q1687.68 1353.31 1687.68 1349.97 M1694.37 1339.77 L1694.37 1339.77 Z" fill="#000000" fill-rule="evenodd" fill-opacity="1" /><path clip-path="url(#clip510)" d="M 0 0 M1717.9 1347.6 L1717.9 1348.9 L1705.66 1348.9 Q1705.83 1351.65 1707.31 1353.1 Q1708.8 1354.53 1711.45 1354.53 Q1712.98 1354.53 1714.41 1354.15 Q1715.86 1353.78 1717.28 1353.02 L1717.28 1355.54 Q1715.84 1356.15 1714.34 1356.47 Q1712.84 1356.79 1711.29 1356.79 Q1707.41 1356.79 1705.14 1354.53 Q1702.88 1352.27 1702.88 1348.42 Q1702.88 1344.44 1705.02 1342.12 Q1707.18 1339.77 1710.82 1339.77 Q1714.09 1339.77 1715.99 1341.88 Q1717.9 1343.98 1717.9 1347.6 M1715.24 1346.82 Q1715.21 1344.63 1714.01 1343.33 Q1712.82 1342.03 1710.85 1342.03 Q1708.63 1342.03 1707.28 1343.29 Q1705.95 1344.55 1705.75 1346.83 L1715.24 1346.82 Z" fill="#000000" fill-rule="evenodd" fill-opacity="1" /><path clip-path="url(#clip510)" d="M 0 0 M1731.02 1340.64 L1731.02 1343.16 Q1729.89 1342.58 1728.68 1342.29 Q1727.46 1342 1726.16 1342 Q1724.18 1342 1723.18 1342.61 Q1722.2 1343.21 1722.2 1344.43 Q1722.2 1345.36 1722.9 1345.89 Q1723.61 1346.41 1725.75 1346.89 L1726.67 1347.09 Q1729.5 1347.7 1730.69 1348.81 Q1731.89 1349.91 1731.89 1351.9 Q1731.89 1354.15 1730.1 1355.47 Q1728.32 1356.79 1725.19 1356.79 Q1723.89 1356.79 1722.47 1356.52 Q1721.07 1356.28 1719.5 1355.77 L1719.5 1353.02 Q1720.98 1353.79 1722.41 1354.18 Q1723.85 1354.56 1725.25 1354.56 Q1727.13 1354.56 1728.14 1353.92 Q1729.15 1353.27 1729.15 1352.1 Q1729.15 1351.01 1728.42 1350.43 Q1727.69 1349.86 1725.22 1349.32 L1724.29 1349.1 Q1721.82 1348.58 1720.72 1347.51 Q1719.62 1346.43 1719.62 1344.55 Q1719.62 1342.26 1721.24 1341.02 Q1722.86 1339.77 1725.84 1339.77 Q1727.32 1339.77 1728.62 1339.99 Q1729.92 1340.21 1731.02 1340.64 Z" fill="#000000" fill-rule="evenodd" fill-opacity="1" /><path clip-path="url(#clip510)" d="M 0 0 M1737.31 1335.56 L1737.31 1340.16 L1742.8 1340.16 L1742.8 1342.23 L1737.31 1342.23 L1737.31 1351.03 Q1737.31 1353.01 1737.85 1353.57 Q1738.4 1354.14 1740.06 1354.14 L1742.8 1354.14 L1742.8 1356.37 L1740.06 1356.37 Q1736.98 1356.37 1735.81 1355.22 Q1734.64 1354.07 1734.64 1351.03 L1734.64 1342.23 L1732.68 1342.23 L1732.68 1340.16 L1734.64 1340.16 L1734.64 1335.56 L1737.31 1335.56 Z" fill="#000000" fill-rule="evenodd" fill-opacity="1" /><path clip-path="url(#clip510)" d="M 0 0 M1755.92 1340.64 L1755.92 1343.16 Q1754.79 1342.58 1753.58 1342.29 Q1752.36 1342 1751.06 1342 Q1749.08 1342 1748.08 1342.61 Q1747.09 1343.21 1747.09 1344.43 Q1747.09 1345.36 1747.8 1345.89 Q1748.51 1346.41 1750.65 1346.89 L1751.56 1347.09 Q1754.4 1347.7 1755.59 1348.81 Q1756.79 1349.91 1756.79 1351.9 Q1756.79 1354.15 1754.99 1355.47 Q1753.21 1356.79 1750.09 1356.79 Q1748.79 1356.79 1747.37 1356.52 Q1745.97 1356.28 1744.4 1355.77 L1744.4 1353.02 Q1745.88 1353.79 1747.31 1354.18 Q1748.74 1354.56 1750.15 1354.56 Q1752.03 1354.56 1753.04 1353.92 Q1754.05 1353.27 1754.05 1352.1 Q1754.05 1351.01 1753.32 1350.43 Q1752.59 1349.86 1750.12 1349.32 L1749.19 1349.1 Q1746.72 1348.58 1745.62 1347.51 Q1744.52 1346.43 1744.52 1344.55 Q1744.52 1342.26 1746.14 1341.02 Q1747.76 1339.77 1750.74 1339.77 Q1752.22 1339.77 1753.52 1339.99 Q1754.82 1340.21 1755.92 1340.64 Z" fill="#000000" fill-rule="evenodd" fill-opacity="1" /><path clip-path="url(#clip510)" d="M 0 0 M466.222 587.795 L466.222 604.592 L469.752 604.592 Q474.223 604.592 476.292 602.567 Q478.375 600.541 478.375 596.172 Q478.375 591.832 476.292 589.821 Q474.223 587.795 469.752 587.795 L466.222 587.795 M463.3 585.394 L469.304 585.394 Q475.583 585.394 478.52 588.012 Q481.457 590.617 481.457 596.172 Q481.457 601.756 478.505 604.375 Q475.554 606.994 469.304 606.994 L463.3 606.994 L463.3 585.394 Z" fill="#000000" fill-rule="evenodd" fill-opacity="1" /><path clip-path="url(#clip510)" d="M 0 0 M498.109 598.226 L498.109 599.528 L485.869 599.528 Q486.043 602.277 487.518 603.724 Q489.009 605.156 491.656 605.156 Q493.19 605.156 494.622 604.78 Q496.069 604.404 497.487 603.652 L497.487 606.169 Q496.054 606.777 494.55 607.095 Q493.045 607.413 491.497 607.413 Q487.62 607.413 485.348 605.156 Q483.091 602.899 483.091 599.051 Q483.091 595.073 485.233 592.743 Q487.388 590.399 491.034 590.399 Q494.304 590.399 496.199 592.512 Q498.109 594.61 498.109 598.226 M495.447 597.445 Q495.418 595.261 494.217 593.959 Q493.031 592.656 491.063 592.656 Q488.835 592.656 487.489 593.915 Q486.158 595.174 485.956 597.46 L495.447 597.445 Z" fill="#000000" fill-rule="evenodd" fill-opacity="1" /><path clip-path="url(#clip510)" d="M 0 0 M511.231 591.268 L511.231 593.785 Q510.102 593.206 508.887 592.917 Q507.672 592.627 506.37 592.627 Q504.388 592.627 503.389 593.235 Q502.405 593.843 502.405 595.058 Q502.405 595.984 503.114 596.519 Q503.823 597.04 505.964 597.518 L506.876 597.72 Q509.712 598.328 510.898 599.442 Q512.099 600.541 512.099 602.523 Q512.099 604.78 510.305 606.097 Q508.525 607.413 505.4 607.413 Q504.098 607.413 502.68 607.153 Q501.277 606.907 499.715 606.401 L499.715 603.652 Q501.19 604.419 502.622 604.809 Q504.055 605.185 505.458 605.185 Q507.339 605.185 508.352 604.549 Q509.364 603.898 509.364 602.726 Q509.364 601.641 508.626 601.062 Q507.903 600.483 505.429 599.948 L504.503 599.731 Q502.029 599.21 500.93 598.14 Q499.83 597.055 499.83 595.174 Q499.83 592.888 501.451 591.644 Q503.071 590.399 506.051 590.399 Q507.527 590.399 508.829 590.617 Q510.131 590.834 511.231 591.268 Z" fill="#000000" fill-rule="evenodd" fill-opacity="1" /><path clip-path="url(#clip510)" d="M 0 0 M514.891 590.79 L517.553 590.79 L517.553 606.994 L514.891 606.994 L514.891 590.79 M514.891 584.482 L517.553 584.482 L517.553 587.853 L514.891 587.853 L514.891 584.482 Z" fill="#000000" fill-rule="evenodd" fill-opacity="1" /><path clip-path="url(#clip510)" d="M 0 0 M531.008 598.704 Q531.008 595.81 529.807 594.219 Q528.621 592.627 526.465 592.627 Q524.324 592.627 523.123 594.219 Q521.937 595.81 521.937 598.704 Q521.937 601.583 523.123 603.174 Q524.324 604.766 526.465 604.766 Q528.621 604.766 529.807 603.174 Q531.008 601.583 531.008 598.704 M533.67 604.983 Q533.67 609.12 531.832 611.131 Q529.995 613.157 526.205 613.157 Q524.801 613.157 523.557 612.94 Q522.313 612.737 521.141 612.303 L521.141 609.714 Q522.313 610.35 523.456 610.654 Q524.599 610.958 525.785 610.958 Q528.404 610.958 529.706 609.583 Q531.008 608.223 531.008 605.46 L531.008 604.144 Q530.183 605.576 528.895 606.285 Q527.608 606.994 525.814 606.994 Q522.834 606.994 521.011 604.722 Q519.188 602.451 519.188 598.704 Q519.188 594.942 521.011 592.671 Q522.834 590.399 525.814 590.399 Q527.608 590.399 528.895 591.108 Q530.183 591.817 531.008 593.25 L531.008 590.79 L533.67 590.79 L533.67 604.983 Z" fill="#000000" fill-rule="evenodd" fill-opacity="1" /><path clip-path="url(#clip510)" d="M 0 0 M549.931 597.214 L549.931 606.994 L547.269 606.994 L547.269 597.3 Q547.269 595 546.372 593.857 Q545.475 592.714 543.681 592.714 Q541.526 592.714 540.281 594.089 Q539.037 595.463 539.037 597.836 L539.037 606.994 L536.361 606.994 L536.361 590.79 L539.037 590.79 L539.037 593.307 Q539.992 591.846 541.28 591.123 Q542.582 590.399 544.274 590.399 Q547.067 590.399 548.499 592.136 Q549.931 593.857 549.931 597.214 Z" fill="#000000" fill-rule="evenodd" fill-opacity="1" /><path clip-path="url(#clip510)" d="M 0 0 M565.035 611.913 L565.035 613.982 L549.642 613.982 L549.642 611.913 L565.035 611.913 Z" fill="#000000" fill-rule="evenodd" fill-opacity="1" /><path clip-path="url(#clip510)" d="M 0 0 M578.186 596.866 Q579.127 597.185 580.009 598.226 Q580.906 599.268 581.803 601.091 L584.769 606.994 L581.63 606.994 L578.866 601.453 Q577.796 599.283 576.783 598.574 Q575.785 597.865 574.049 597.865 L570.866 597.865 L570.866 606.994 L567.943 606.994 L567.943 585.394 L574.54 585.394 Q578.244 585.394 580.067 586.942 Q581.89 588.49 581.89 591.615 Q581.89 593.655 580.935 595 Q579.995 596.346 578.186 596.866 M570.866 587.795 L570.866 595.463 L574.54 595.463 Q576.653 595.463 577.723 594.494 Q578.808 593.51 578.808 591.615 Q578.808 589.72 577.723 588.765 Q576.653 587.795 574.54 587.795 L570.866 587.795 Z" fill="#000000" fill-rule="evenodd" fill-opacity="1" /><path clip-path="url(#clip510)" d="M 0 0 M600.09 598.226 L600.09 599.528 L587.851 599.528 Q588.024 602.277 589.5 603.724 Q590.99 605.156 593.638 605.156 Q595.171 605.156 596.603 604.78 Q598.05 604.404 599.468 603.652 L599.468 606.169 Q598.036 606.777 596.531 607.095 Q595.026 607.413 593.478 607.413 Q589.601 607.413 587.33 605.156 Q585.073 602.899 585.073 599.051 Q585.073 595.073 587.214 592.743 Q589.37 590.399 593.016 590.399 Q596.285 590.399 598.18 592.512 Q600.09 594.61 600.09 598.226 M597.428 597.445 Q597.399 595.261 596.198 593.959 Q595.012 592.656 593.044 592.656 Q590.816 592.656 589.471 593.915 Q588.14 595.174 587.937 597.46 L597.428 597.445 Z" fill="#000000" fill-rule="evenodd" fill-opacity="1" /><path clip-path="url(#clip510)" d="M 0 0 M610.246 598.849 Q607.02 598.849 605.776 599.586 Q604.532 600.324 604.532 602.104 Q604.532 603.522 605.458 604.361 Q606.398 605.185 608.004 605.185 Q610.217 605.185 611.548 603.623 Q612.894 602.046 612.894 599.442 L612.894 598.849 L610.246 598.849 M615.556 597.749 L615.556 606.994 L612.894 606.994 L612.894 604.534 Q611.982 606.01 610.622 606.719 Q609.263 607.413 607.295 607.413 Q604.807 607.413 603.331 606.024 Q601.87 604.621 601.87 602.277 Q601.87 599.543 603.693 598.154 Q605.53 596.765 609.161 596.765 L612.894 596.765 L612.894 596.505 Q612.894 594.667 611.679 593.669 Q610.478 592.656 608.293 592.656 Q606.904 592.656 605.588 592.989 Q604.271 593.322 603.056 593.987 L603.056 591.528 Q604.517 590.964 605.892 590.689 Q607.266 590.399 608.568 590.399 Q612.084 590.399 613.82 592.222 Q615.556 594.045 615.556 597.749 Z" fill="#000000" fill-rule="evenodd" fill-opacity="1" /><path clip-path="url(#clip510)" d="M 0 0 M628.678 591.268 L628.678 593.785 Q627.549 593.206 626.334 592.917 Q625.119 592.627 623.817 592.627 Q621.835 592.627 620.837 593.235 Q619.853 593.843 619.853 595.058 Q619.853 595.984 620.562 596.519 Q621.271 597.04 623.412 597.518 L624.323 597.72 Q627.159 598.328 628.345 599.442 Q629.546 600.541 629.546 602.523 Q629.546 604.78 627.752 606.097 Q625.973 607.413 622.848 607.413 Q621.545 607.413 620.128 607.153 Q618.724 606.907 617.162 606.401 L617.162 603.652 Q618.637 604.419 620.07 604.809 Q621.502 605.185 622.905 605.185 Q624.786 605.185 625.799 604.549 Q626.812 603.898 626.812 602.726 Q626.812 601.641 626.074 601.062 Q625.35 600.483 622.876 599.948 L621.951 599.731 Q619.477 599.21 618.377 598.14 Q617.278 597.055 617.278 595.174 Q617.278 592.888 618.898 591.644 Q620.518 590.399 623.499 590.399 Q624.974 590.399 626.276 590.617 Q627.578 590.834 628.678 591.268 Z" fill="#000000" fill-rule="evenodd" fill-opacity="1" /><path clip-path="url(#clip510)" d="M 0 0 M638.617 592.656 Q636.476 592.656 635.232 594.335 Q633.988 595.998 633.988 598.906 Q633.988 601.814 635.217 603.493 Q636.461 605.156 638.617 605.156 Q640.744 605.156 641.988 603.478 Q643.232 601.8 643.232 598.906 Q643.232 596.027 641.988 594.349 Q640.744 592.656 638.617 592.656 M638.617 590.399 Q642.089 590.399 644.071 592.656 Q646.053 594.913 646.053 598.906 Q646.053 602.885 644.071 605.156 Q642.089 607.413 638.617 607.413 Q635.13 607.413 633.148 605.156 Q631.181 602.885 631.181 598.906 Q631.181 594.913 633.148 592.656 Q635.13 590.399 638.617 590.399 Z" fill="#000000" fill-rule="evenodd" fill-opacity="1" /><path clip-path="url(#clip510)" d="M 0 0 M662.315 597.214 L662.315 606.994 L659.653 606.994 L659.653 597.3 Q659.653 595 658.756 593.857 Q657.859 592.714 656.065 592.714 Q653.909 592.714 652.665 594.089 Q651.421 595.463 651.421 597.836 L651.421 606.994 L648.744 606.994 L648.744 590.79 L651.421 590.79 L651.421 593.307 Q652.376 591.846 653.663 591.123 Q654.965 590.399 656.658 590.399 Q659.45 590.399 660.883 592.136 Q662.315 593.857 662.315 597.214 Z" fill="#000000" fill-rule="evenodd" fill-opacity="1" /><path clip-path="url(#clip510)" d="M 0 0 M665.107 590.79 L667.769 590.79 L667.769 606.994 L665.107 606.994 L665.107 590.79 M665.107 584.482 L667.769 584.482 L667.769 587.853 L665.107 587.853 L665.107 584.482 Z" fill="#000000" fill-rule="evenodd" fill-opacity="1" /><path clip-path="url(#clip510)" d="M 0 0 M684.031 597.214 L684.031 606.994 L681.369 606.994 L681.369 597.3 Q681.369 595 680.472 593.857 Q679.575 592.714 677.781 592.714 Q675.625 592.714 674.381 594.089 Q673.137 595.463 673.137 597.836 L673.137 606.994 L670.46 606.994 L670.46 590.79 L673.137 590.79 L673.137 593.307 Q674.091 591.846 675.379 591.123 Q676.681 590.399 678.374 590.399 Q681.166 590.399 682.598 592.136 Q684.031 593.857 684.031 597.214 Z" fill="#000000" fill-rule="evenodd" fill-opacity="1" /><path clip-path="url(#clip510)" d="M 0 0 M697.485 598.704 Q697.485 595.81 696.285 594.219 Q695.098 592.627 692.943 592.627 Q690.801 592.627 689.601 594.219 Q688.414 595.81 688.414 598.704 Q688.414 601.583 689.601 603.174 Q690.801 604.766 692.943 604.766 Q695.098 604.766 696.285 603.174 Q697.485 601.583 697.485 598.704 M700.147 604.983 Q700.147 609.12 698.31 611.131 Q696.473 613.157 692.682 613.157 Q691.279 613.157 690.035 612.94 Q688.79 612.737 687.619 612.303 L687.619 609.714 Q688.79 610.35 689.933 610.654 Q691.076 610.958 692.263 610.958 Q694.881 610.958 696.183 609.583 Q697.485 608.223 697.485 605.46 L697.485 604.144 Q696.661 605.576 695.373 606.285 Q694.086 606.994 692.292 606.994 Q689.311 606.994 687.488 604.722 Q685.665 602.451 685.665 598.704 Q685.665 594.942 687.488 592.671 Q689.311 590.399 692.292 590.399 Q694.086 590.399 695.373 591.108 Q696.661 591.817 697.485 593.25 L697.485 590.79 L700.147 590.79 L700.147 604.983 Z" fill="#000000" fill-rule="evenodd" fill-opacity="1" /><path clip-path="url(#clip510)" d="M 0 0 M2747.36 1969.48 L2747.36 1972.56 Q2745.89 1971.19 2744.21 1970.51 Q2742.54 1969.83 2740.66 1969.83 Q2736.96 1969.83 2734.99 1972.1 Q2733.02 1974.36 2733.02 1978.64 Q2733.02 1982.91 2734.99 1985.18 Q2736.96 1987.44 2740.66 1987.44 Q2742.54 1987.44 2744.21 1986.76 Q2745.89 1986.08 2747.36 1984.7 L2747.36 1987.75 Q2745.83 1988.8 2744.11 1989.32 Q2742.4 1989.84 2740.49 1989.84 Q2735.59 1989.84 2732.76 1986.84 Q2729.94 1983.83 2729.94 1978.64 Q2729.94 1973.43 2732.76 1970.44 Q2735.59 1967.43 2740.49 1967.43 Q2742.43 1967.43 2744.14 1967.95 Q2745.86 1968.45 2747.36 1969.48 Z" fill="#000000" fill-rule="evenodd" fill-opacity="1" /><path clip-path="url(#clip510)" d="M 0 0 M2756.43 1975.08 Q2754.29 1975.08 2753.05 1976.76 Q2751.8 1978.42 2751.8 1981.33 Q2751.8 1984.24 2753.03 1985.92 Q2754.28 1987.58 2756.43 1987.58 Q2758.56 1987.58 2759.8 1985.9 Q2761.05 1984.22 2761.05 1981.33 Q2761.05 1978.45 2759.8 1976.77 Q2758.56 1975.08 2756.43 1975.08 M2756.43 1972.82 Q2759.91 1972.82 2761.89 1975.08 Q2763.87 1977.34 2763.87 1981.33 Q2763.87 1985.31 2761.89 1987.58 Q2759.91 1989.84 2756.43 1989.84 Q2752.95 1989.84 2750.96 1987.58 Q2749 1985.31 2749 1981.33 Q2749 1977.34 2750.96 1975.08 Q2752.95 1972.82 2756.43 1972.82 Z" fill="#000000" fill-rule="evenodd" fill-opacity="1" /><path clip-path="url(#clip510)" d="M 0 0 M2766.66 1966.91 L2769.32 1966.91 L2769.32 1989.42 L2766.66 1989.42 L2766.66 1966.91 Z" fill="#000000" fill-rule="evenodd" fill-opacity="1" /><path clip-path="url(#clip510)" d="M 0 0 M2772.12 1966.91 L2774.78 1966.91 L2774.78 1989.42 L2772.12 1989.42 L2772.12 1966.91 Z" fill="#000000" fill-rule="evenodd" fill-opacity="1" /><path clip-path="url(#clip510)" d="M 0 0 M2784.93 1981.27 Q2781.71 1981.27 2780.46 1982.01 Q2779.22 1982.75 2779.22 1984.53 Q2779.22 1985.95 2780.15 1986.79 Q2781.09 1987.61 2782.69 1987.61 Q2784.91 1987.61 2786.24 1986.05 Q2787.58 1984.47 2787.58 1981.87 L2787.58 1981.27 L2784.93 1981.27 M2790.24 1980.17 L2790.24 1989.42 L2787.58 1989.42 L2787.58 1986.96 Q2786.67 1988.43 2785.31 1989.14 Q2783.95 1989.84 2781.98 1989.84 Q2779.49 1989.84 2778.02 1988.45 Q2776.56 1987.05 2776.56 1984.7 Q2776.56 1981.97 2778.38 1980.58 Q2780.22 1979.19 2783.85 1979.19 L2787.58 1979.19 L2787.58 1978.93 Q2787.58 1977.09 2786.37 1976.09 Q2785.17 1975.08 2782.98 1975.08 Q2781.59 1975.08 2780.28 1975.41 Q2778.96 1975.75 2777.74 1976.41 L2777.74 1973.95 Q2779.21 1973.39 2780.58 1973.11 Q2781.95 1972.82 2783.26 1972.82 Q2786.77 1972.82 2788.51 1974.65 Q2790.24 1976.47 2790.24 1980.17 Z" fill="#000000" fill-rule="evenodd" fill-opacity="1" /><path clip-path="url(#clip510)" d="M 0 0 M2804.67 1981.33 Q2804.67 1978.39 2803.45 1976.73 Q2802.25 1975.05 2800.14 1975.05 Q2798.03 1975.05 2796.81 1976.73 Q2795.61 1978.39 2795.61 1981.33 Q2795.61 1984.27 2796.81 1985.95 Q2798.03 1987.61 2800.14 1987.61 Q2802.25 1987.61 2803.45 1985.95 Q2804.67 1984.27 2804.67 1981.33 M2795.61 1975.67 Q2796.45 1974.23 2797.72 1973.53 Q2799.01 1972.82 2800.79 1972.82 Q2803.74 1972.82 2805.58 1975.17 Q2807.43 1977.51 2807.43 1981.33 Q2807.43 1985.15 2805.58 1987.49 Q2803.74 1989.84 2800.79 1989.84 Q2799.01 1989.84 2797.72 1989.14 Q2796.45 1988.43 2795.61 1986.99 L2795.61 1989.42 L2792.93 1989.42 L2792.93 1966.91 L2795.61 1966.91 L2795.61 1975.67 Z" fill="#000000" fill-rule="evenodd" fill-opacity="1" /><path clip-path="url(#clip510)" d="M 0 0 M2816.5 1975.08 Q2814.36 1975.08 2813.12 1976.76 Q2811.87 1978.42 2811.87 1981.33 Q2811.87 1984.24 2813.1 1985.92 Q2814.35 1987.58 2816.5 1987.58 Q2818.63 1987.58 2819.87 1985.9 Q2821.12 1984.22 2821.12 1981.33 Q2821.12 1978.45 2819.87 1976.77 Q2818.63 1975.08 2816.5 1975.08 M2816.5 1972.82 Q2819.97 1972.82 2821.96 1975.08 Q2823.94 1977.34 2823.94 1981.33 Q2823.94 1985.31 2821.96 1987.58 Q2819.97 1989.84 2816.5 1989.84 Q2813.02 1989.84 2811.03 1987.58 Q2809.07 1985.31 2809.07 1981.33 Q2809.07 1977.34 2811.03 1975.08 Q2813.02 1972.82 2816.5 1972.82 Z" fill="#000000" fill-rule="evenodd" fill-opacity="1" /><path clip-path="url(#clip510)" d="M 0 0 M2836.12 1975.7 Q2835.67 1975.44 2835.14 1975.33 Q2834.62 1975.2 2833.98 1975.2 Q2831.72 1975.2 2830.51 1976.67 Q2829.31 1978.13 2829.31 1980.88 L2829.31 1989.42 L2826.63 1989.42 L2826.63 1973.21 L2829.31 1973.21 L2829.31 1975.73 Q2830.15 1974.26 2831.49 1973.55 Q2832.84 1972.82 2834.76 1972.82 Q2835.04 1972.82 2835.37 1972.87 Q2835.7 1972.9 2836.11 1972.97 L2836.12 1975.7 Z" fill="#000000" fill-rule="evenodd" fill-opacity="1" /><path clip-path="url(#clip510)" d="M 0 0 M2846.28 1981.27 Q2843.05 1981.27 2841.81 1982.01 Q2840.56 1982.75 2840.56 1984.53 Q2840.56 1985.95 2841.49 1986.79 Q2842.43 1987.61 2844.03 1987.61 Q2846.25 1987.61 2847.58 1986.05 Q2848.92 1984.47 2848.92 1981.87 L2848.92 1981.27 L2846.28 1981.27 M2851.59 1980.17 L2851.59 1989.42 L2848.92 1989.42 L2848.92 1986.96 Q2848.01 1988.43 2846.65 1989.14 Q2845.29 1989.84 2843.33 1989.84 Q2840.84 1989.84 2839.36 1988.45 Q2837.9 1987.05 2837.9 1984.7 Q2837.9 1981.97 2839.72 1980.58 Q2841.56 1979.19 2845.19 1979.19 L2848.92 1979.19 L2848.92 1978.93 Q2848.92 1977.09 2847.71 1976.09 Q2846.51 1975.08 2844.32 1975.08 Q2842.93 1975.08 2841.62 1975.41 Q2840.3 1975.75 2839.09 1976.41 L2839.09 1973.95 Q2840.55 1973.39 2841.92 1973.11 Q2843.3 1972.82 2844.6 1972.82 Q2848.11 1972.82 2849.85 1974.65 Q2851.59 1976.47 2851.59 1980.17 Z" fill="#000000" fill-rule="evenodd" fill-opacity="1" /><path clip-path="url(#clip510)" d="M 0 0 M2857.01 1968.61 L2857.01 1973.21 L2862.49 1973.21 L2862.49 1975.28 L2857.01 1975.28 L2857.01 1984.08 Q2857.01 1986.06 2857.55 1986.63 Q2858.1 1987.19 2859.76 1987.19 L2862.49 1987.19 L2862.49 1989.42 L2859.76 1989.42 Q2856.68 1989.42 2855.51 1988.28 Q2854.34 1987.12 2854.34 1984.08 L2854.34 1975.28 L2852.38 1975.28 L2852.38 1973.21 L2854.34 1973.21 L2854.34 1968.61 L2857.01 1968.61 Z" fill="#000000" fill-rule="evenodd" fill-opacity="1" /><path clip-path="url(#clip510)" d="M 0 0 M2865.29 1973.21 L2867.95 1973.21 L2867.95 1989.42 L2865.29 1989.42 L2865.29 1973.21 M2865.29 1966.91 L2867.95 1966.91 L2867.95 1970.28 L2865.29 1970.28 L2865.29 1966.91 Z" fill="#000000" fill-rule="evenodd" fill-opacity="1" /><path clip-path="url(#clip510)" d="M 0 0 M2877.02 1975.08 Q2874.88 1975.08 2873.63 1976.76 Q2872.39 1978.42 2872.39 1981.33 Q2872.39 1984.24 2873.62 1985.92 Q2874.86 1987.58 2877.02 1987.58 Q2879.15 1987.58 2880.39 1985.9 Q2881.64 1984.22 2881.64 1981.33 Q2881.64 1978.45 2880.39 1976.77 Q2879.15 1975.08 2877.02 1975.08 M2877.02 1972.82 Q2880.49 1972.82 2882.47 1975.08 Q2884.46 1977.34 2884.46 1981.33 Q2884.46 1985.31 2882.47 1987.58 Q2880.49 1989.84 2877.02 1989.84 Q2873.53 1989.84 2871.55 1987.58 Q2869.58 1985.31 2869.58 1981.33 Q2869.58 1977.34 2871.55 1975.08 Q2873.53 1972.82 2877.02 1972.82 Z" fill="#000000" fill-rule="evenodd" fill-opacity="1" /><path clip-path="url(#clip510)" d="M 0 0 M2900.72 1979.64 L2900.72 1989.42 L2898.06 1989.42 L2898.06 1979.72 Q2898.06 1977.42 2897.16 1976.28 Q2896.26 1975.14 2894.47 1975.14 Q2892.31 1975.14 2891.07 1976.51 Q2889.82 1977.89 2889.82 1980.26 L2889.82 1989.42 L2887.15 1989.42 L2887.15 1973.21 L2889.82 1973.21 L2889.82 1975.73 Q2890.78 1974.27 2892.07 1973.55 Q2893.37 1972.82 2895.06 1972.82 Q2897.85 1972.82 2899.29 1974.56 Q2900.72 1976.28 2900.72 1979.64 Z" fill="#000000" fill-rule="evenodd" fill-opacity="1" /><path clip-path="url(#clip512)" d="M1091.31 970.633 L1091.31 1002.63 L1123.31 1002.63 L1123.31 970.633 L1091.31 970.633 Z" fill="#0000ff" fill-rule="evenodd" fill-opacity="1" stroke="none"/>
<polyline clip-path="url(#clip512)" style="stroke:#0000ff; stroke-width:4; stroke-opacity:1; fill:none" stroke-dasharray="16, 10" points="
  1032.12,1058.25 1182.49,1058.25 
  "/>
<polyline clip-path="url(#clip512)" style="stroke:#0000ff; stroke-width:4; stroke-opacity:1; fill:none" stroke-dasharray="16, 10" points="
  1032.12,915.013 1182.49,915.013 
  "/>
<polyline clip-path="url(#clip512)" style="stroke:#0000ff; stroke-width:4; stroke-opacity:1; fill:none" stroke-dasharray="16, 10" points="
  1032.12,1058.25 1032.12,915.013 
  "/>
<polyline clip-path="url(#clip512)" style="stroke:#0000ff; stroke-width:4; stroke-opacity:1; fill:none" stroke-dasharray="16, 10" points="
  1182.49,1058.25 1182.49,915.013 
  "/>
<path clip-path="url(#clip512)" d="M1048.1 944.361 L1048.1 976.361 L1080.1 976.361 L1080.1 944.361 L1048.1 944.361 Z" fill="#800080" fill-rule="evenodd" fill-opacity="1" stroke="none"/>
<polyline clip-path="url(#clip512)" style="stroke:#800080; stroke-width:4; stroke-opacity:1; fill:none" stroke-dasharray="16, 10" points="
  1003.41,1009.86 1124.78,1009.86 
  "/>
<polyline clip-path="url(#clip512)" style="stroke:#800080; stroke-width:4; stroke-opacity:1; fill:none" stroke-dasharray="16, 10" points="
  1003.41,910.866 1124.78,910.866 
  "/>
<polyline clip-path="url(#clip512)" style="stroke:#800080; stroke-width:4; stroke-opacity:1; fill:none" stroke-dasharray="16, 10" points="
  1003.41,1009.86 1003.41,910.866 
  "/>
<polyline clip-path="url(#clip512)" style="stroke:#800080; stroke-width:4; stroke-opacity:1; fill:none" stroke-dasharray="16, 10" points="
  1124.78,1009.86 1124.78,910.866 
  "/>
<path clip-path="url(#clip512)" d="M945.39 856.66 L945.39 888.66 L977.39 888.66 L977.39 856.66 L945.39 856.66 Z" fill="#008000" fill-rule="evenodd" fill-opacity="1" stroke="none"/>
<polyline clip-path="url(#clip512)" style="stroke:#008000; stroke-width:4; stroke-opacity:1; fill:none" stroke-dasharray="16, 10" points="
  922.17,917.884 1000.61,917.884 
  "/>
<polyline clip-path="url(#clip512)" style="stroke:#008000; stroke-width:4; stroke-opacity:1; fill:none" stroke-dasharray="16, 10" points="
  922.17,827.436 1000.61,827.436 
  "/>
<polyline clip-path="url(#clip512)" style="stroke:#008000; stroke-width:4; stroke-opacity:1; fill:none" stroke-dasharray="16, 10" points="
  922.17,917.884 922.17,827.436 
  "/>
<polyline clip-path="url(#clip512)" style="stroke:#008000; stroke-width:4; stroke-opacity:1; fill:none" stroke-dasharray="16, 10" points="
  1000.61,917.884 1000.61,827.436 
  "/>
<path clip-path="url(#clip512)" d="M932.399 1061.63 L932.399 1093.63 L964.399 1093.63 L964.399 1061.63 L932.399 1061.63 Z" fill="#ffa500" fill-rule="evenodd" fill-opacity="1" stroke="none"/>
<polyline clip-path="url(#clip512)" style="stroke:#ffa500; stroke-width:4; stroke-opacity:1; fill:none" stroke-dasharray="16, 10" points="
  886.72,1140.08 1010.08,1140.08 
  "/>
<polyline clip-path="url(#clip512)" style="stroke:#ffa500; stroke-width:4; stroke-opacity:1; fill:none" stroke-dasharray="16, 10" points="
  886.72,1015.18 1010.08,1015.18 
  "/>
<polyline clip-path="url(#clip512)" style="stroke:#ffa500; stroke-width:4; stroke-opacity:1; fill:none" stroke-dasharray="16, 10" points="
  886.72,1140.08 886.72,1015.18 
  "/>
<polyline clip-path="url(#clip512)" style="stroke:#ffa500; stroke-width:4; stroke-opacity:1; fill:none" stroke-dasharray="16, 10" points="
  1010.08,1140.08 1010.08,1015.18 
  "/>
</svg>
