<?xml version="1.0" encoding="utf-8"?>
<svg xmlns="http://www.w3.org/2000/svg" xmlns:xlink="http://www.w3.org/1999/xlink" width="500" height="500" viewBox="0 0 2000 2000">
<defs>
  <clipPath id="clip780">
    <rect x="0" y="0" width="2000" height="2000"/>
  </clipPath>
</defs>
<path clip-path="url(#clip780)" d="
M0 2000 L2000 2000 L2000 0 L0 0  Z
  " fill="#ffffff" fill-rule="evenodd" fill-opacity="1"/>
<defs>
  <clipPath id="clip781">
    <rect x="400" y="200" width="1401" height="1401"/>
  </clipPath>
</defs>
<path clip-path="url(#clip780)" d="
M240.472 1759.53 L1811.02 1759.53 L1811.02 188.976 L240.472 188.976  Z
  " fill="#ffffff" fill-rule="evenodd" fill-opacity="1"/>
<defs>
  <clipPath id="clip782">
    <rect x="240" y="188" width="1572" height="1572"/>
  </clipPath>
</defs>
<polyline clip-path="url(#clip782)" style="stroke:#000000; stroke-width:2; stroke-opacity:0.1; fill:none" points="
  240.472,1759.53 240.472,188.976 
  "/>
<polyline clip-path="url(#clip782)" style="stroke:#000000; stroke-width:2; stroke-opacity:0.1; fill:none" points="
  1025.75,1759.53 1025.75,188.976 
  "/>
<polyline clip-path="url(#clip782)" style="stroke:#000000; stroke-width:2; stroke-opacity:0.1; fill:none" points="
  1811.02,1759.53 1811.02,188.976 
  "/>
<polyline clip-path="url(#clip782)" style="stroke:#000000; stroke-width:2; stroke-opacity:0.1; fill:none" points="
  240.472,1759.53 1811.02,1759.53 
  "/>
<polyline clip-path="url(#clip782)" style="stroke:#000000; stroke-width:2; stroke-opacity:0.1; fill:none" points="
  240.472,974.252 1811.02,974.252 
  "/>
<polyline clip-path="url(#clip782)" style="stroke:#000000; stroke-width:2; stroke-opacity:0.1; fill:none" points="
  240.472,188.976 1811.02,188.976 
  "/>
<polyline clip-path="url(#clip780)" style="stroke:#000000; stroke-width:4; stroke-opacity:1; fill:none" points="
  240.472,1759.53 1811.02,1759.53 
  "/>
<polyline clip-path="url(#clip780)" style="stroke:#000000; stroke-width:4; stroke-opacity:1; fill:none" points="
  240.472,1759.53 240.472,188.976 
  "/>
<polyline clip-path="url(#clip780)" style="stroke:#000000; stroke-width:4; stroke-opacity:1; fill:none" points="
  240.472,1759.53 240.472,1740.68 
  "/>
<polyline clip-path="url(#clip780)" style="stroke:#000000; stroke-width:4; stroke-opacity:1; fill:none" points="
  1025.75,1759.53 1025.75,1740.68 
  "/>
<polyline clip-path="url(#clip780)" style="stroke:#000000; stroke-width:4; stroke-opacity:1; fill:none" points="
  1811.02,1759.53 1811.02,1740.68 
  "/>
<polyline clip-path="url(#clip780)" style="stroke:#000000; stroke-width:4; stroke-opacity:1; fill:none" points="
  240.472,1759.53 259.319,1759.53 
  "/>
<polyline clip-path="url(#clip780)" style="stroke:#000000; stroke-width:4; stroke-opacity:1; fill:none" points="
  240.472,974.252 259.319,974.252 
  "/>
<polyline clip-path="url(#clip780)" style="stroke:#000000; stroke-width:4; stroke-opacity:1; fill:none" points="
  240.472,188.976 259.319,188.976 
  "/>
<path clip-path="url(#clip780)" d="M 0 0 M221.341 1796.12 L233.817 1796.12 L233.817 1799.91 L221.341 1799.91 L221.341 1796.12 Z" fill="#000000" fill-rule="evenodd" fill-opacity="1" /><path clip-path="url(#clip780)" d="M 0 0 M239.697 1807.06 L247.336 1807.06 L247.336 1780.7 L239.026 1782.37 L239.026 1778.11 L247.29 1776.44 L251.965 1776.44 L251.965 1807.06 L259.604 1807.06 L259.604 1811 L239.697 1811 L239.697 1807.06 Z" fill="#000000" fill-rule="evenodd" fill-opacity="1" /><path clip-path="url(#clip780)" d="M 0 0 M1025.75 1779.52 Q1022.14 1779.52 1020.31 1783.08 Q1018.5 1786.62 1018.5 1793.75 Q1018.5 1800.86 1020.31 1804.43 Q1022.14 1807.97 1025.75 1807.97 Q1029.38 1807.97 1031.19 1804.43 Q1033.02 1800.86 1033.02 1793.75 Q1033.02 1786.62 1031.19 1783.08 Q1029.38 1779.52 1025.75 1779.52 M1025.75 1775.81 Q1031.56 1775.81 1034.61 1780.42 Q1037.69 1785 1037.69 1793.75 Q1037.69 1802.48 1034.61 1807.09 Q1031.56 1811.67 1025.75 1811.67 Q1019.94 1811.67 1016.86 1807.09 Q1013.8 1802.48 1013.8 1793.75 Q1013.8 1785 1016.86 1780.42 Q1019.94 1775.81 1025.75 1775.81 Z" fill="#000000" fill-rule="evenodd" fill-opacity="1" /><path clip-path="url(#clip780)" d="M 0 0 M1801.41 1807.06 L1809.04 1807.06 L1809.04 1780.7 L1800.73 1782.37 L1800.73 1778.11 L1809 1776.44 L1813.67 1776.44 L1813.67 1807.06 L1821.31 1807.06 L1821.31 1811 L1801.41 1811 L1801.41 1807.06 Z" fill="#000000" fill-rule="evenodd" fill-opacity="1" /><path clip-path="url(#clip780)" d="M 0 0 M182.209 1761.92 L194.686 1761.92 L194.686 1765.72 L182.209 1765.72 L182.209 1761.92 Z" fill="#000000" fill-rule="evenodd" fill-opacity="1" /><path clip-path="url(#clip780)" d="M 0 0 M200.565 1772.87 L208.204 1772.87 L208.204 1746.51 L199.894 1748.17 L199.894 1743.91 L208.158 1742.25 L212.834 1742.25 L212.834 1772.87 L220.472 1772.87 L220.472 1776.81 L200.565 1776.81 L200.565 1772.87 Z" fill="#000000" fill-rule="evenodd" fill-opacity="1" /><path clip-path="url(#clip780)" d="M 0 0 M208.528 960.051 Q204.917 960.051 203.088 963.615 Q201.283 967.157 201.283 974.287 Q201.283 981.393 203.088 984.958 Q204.917 988.5 208.528 988.5 Q212.162 988.5 213.968 984.958 Q215.797 981.393 215.797 974.287 Q215.797 967.157 213.968 963.615 Q212.162 960.051 208.528 960.051 M208.528 956.347 Q214.338 956.347 217.394 960.953 Q220.472 965.537 220.472 974.287 Q220.472 983.013 217.394 987.62 Q214.338 992.203 208.528 992.203 Q202.718 992.203 199.639 987.62 Q196.584 983.013 196.584 974.287 Q196.584 965.537 199.639 960.953 Q202.718 956.347 208.528 956.347 Z" fill="#000000" fill-rule="evenodd" fill-opacity="1" /><path clip-path="url(#clip780)" d="M 0 0 M200.565 202.321 L208.204 202.321 L208.204 175.956 L199.894 177.622 L199.894 173.363 L208.158 171.696 L212.834 171.696 L212.834 202.321 L220.472 202.321 L220.472 206.256 L200.565 206.256 L200.565 202.321 Z" fill="#000000" fill-rule="evenodd" fill-opacity="1" /><path clip-path="url(#clip780)" d="M 0 0 M911.977 1840.87 L918.884 1840.87 L930.692 1858.54 L942.564 1840.87 L949.471 1840.87 L934.193 1863.69 L950.489 1888.39 L943.583 1888.39 L930.215 1868.18 L916.751 1888.39 L909.813 1888.39 L926.777 1863.02 L911.977 1840.87 Z" fill="#000000" fill-rule="evenodd" fill-opacity="1" /><path clip-path="url(#clip780)" d="M 0 0 M991.421 1838.93 Q987.156 1846.25 985.087 1853.41 Q983.018 1860.57 983.018 1867.93 Q983.018 1875.28 985.087 1882.5 Q987.188 1889.7 991.421 1896.99 L986.328 1896.99 Q981.554 1889.51 979.167 1882.28 Q976.812 1875.06 976.812 1867.93 Q976.812 1860.83 979.167 1853.63 Q981.522 1846.44 986.328 1838.93 L991.421 1838.93 Z" fill="#000000" fill-rule="evenodd" fill-opacity="1" /><path clip-path="url(#clip780)" d="M 0 0 M1003.93 1882.98 L1026.37 1882.98 L1026.37 1888.39 L996.195 1888.39 L996.195 1882.98 Q999.856 1879.19 1006.16 1872.83 Q1012.49 1866.43 1014.11 1864.58 Q1017.2 1861.11 1018.41 1858.73 Q1019.65 1856.31 1019.65 1853.98 Q1019.65 1850.2 1016.98 1847.81 Q1014.34 1845.42 1010.07 1845.42 Q1007.05 1845.42 1003.67 1846.47 Q1000.33 1847.52 996.514 1849.66 L996.514 1843.16 Q1000.4 1841.6 1003.77 1840.81 Q1007.14 1840.01 1009.95 1840.01 Q1017.33 1840.01 1021.72 1843.7 Q1026.11 1847.4 1026.11 1853.57 Q1026.11 1856.5 1025 1859.14 Q1023.92 1861.75 1021.02 1865.32 Q1020.23 1866.24 1015.96 1870.66 Q1011.7 1875.06 1003.93 1882.98 Z" fill="#000000" fill-rule="evenodd" fill-opacity="1" /><path clip-path="url(#clip780)" d="M 0 0 M1047.09 1845.1 Q1042.12 1845.1 1039.61 1850.01 Q1037.13 1854.88 1037.13 1864.68 Q1037.13 1874.45 1039.61 1879.35 Q1042.12 1884.22 1047.09 1884.22 Q1052.09 1884.22 1054.57 1879.35 Q1057.08 1874.45 1057.08 1864.68 Q1057.08 1854.88 1054.57 1850.01 Q1052.09 1845.1 1047.09 1845.1 M1047.09 1840.01 Q1055.08 1840.01 1059.28 1846.35 Q1063.51 1852.65 1063.51 1864.68 Q1063.51 1876.68 1059.28 1883.01 Q1055.08 1889.31 1047.09 1889.31 Q1039.1 1889.31 1034.87 1883.01 Q1030.67 1876.68 1030.67 1864.68 Q1030.67 1852.65 1034.87 1846.35 Q1039.1 1840.01 1047.09 1840.01 Z" fill="#000000" fill-rule="evenodd" fill-opacity="1" /><path clip-path="url(#clip780)" d="M 0 0 M1110.91 1867.48 Q1108.14 1867.48 1106.54 1869.84 Q1104.99 1872.19 1104.99 1876.39 Q1104.99 1880.53 1106.54 1882.92 Q1108.14 1885.27 1110.91 1885.27 Q1113.61 1885.27 1115.17 1882.92 Q1116.76 1880.53 1116.76 1876.39 Q1116.76 1872.22 1115.17 1869.87 Q1113.61 1867.48 1110.91 1867.48 M1110.91 1863.44 Q1115.93 1863.44 1118.89 1866.94 Q1121.85 1870.44 1121.85 1876.39 Q1121.85 1882.34 1118.86 1885.85 Q1115.9 1889.31 1110.91 1889.31 Q1105.81 1889.31 1102.85 1885.85 Q1099.89 1882.34 1099.89 1876.39 Q1099.89 1870.41 1102.85 1866.94 Q1105.84 1863.44 1110.91 1863.44 M1078.06 1844.05 Q1075.32 1844.05 1073.73 1846.44 Q1072.17 1848.8 1072.17 1852.93 Q1072.17 1857.14 1073.73 1859.49 Q1075.29 1861.85 1078.06 1861.85 Q1080.83 1861.85 1082.39 1859.49 Q1083.98 1857.14 1083.98 1852.93 Q1083.98 1848.83 1082.39 1846.44 Q1080.8 1844.05 1078.06 1844.05 M1106.8 1840.01 L1111.89 1840.01 L1082.16 1889.31 L1077.07 1889.31 L1106.8 1840.01 M1078.06 1840.01 Q1083.09 1840.01 1086.08 1843.51 Q1089.07 1846.98 1089.07 1852.93 Q1089.07 1858.95 1086.08 1862.42 Q1083.12 1865.89 1078.06 1865.89 Q1073 1865.89 1070.04 1862.42 Q1067.11 1858.92 1067.11 1852.93 Q1067.11 1847.01 1070.07 1843.51 Q1073.03 1840.01 1078.06 1840.01 Z" fill="#000000" fill-rule="evenodd" fill-opacity="1" /><path clip-path="url(#clip780)" d="M 0 0 M1127.07 1838.93 L1132.17 1838.93 Q1136.94 1846.44 1139.3 1853.63 Q1141.68 1860.83 1141.68 1867.93 Q1141.68 1875.06 1139.3 1882.28 Q1136.94 1889.51 1132.17 1896.99 L1127.07 1896.99 Q1131.31 1889.7 1133.38 1882.5 Q1135.48 1875.28 1135.48 1867.93 Q1135.48 1860.57 1133.38 1853.41 Q1131.31 1846.25 1127.07 1838.93 Z" fill="#000000" fill-rule="evenodd" fill-opacity="1" /><path clip-path="url(#clip780)" d="M 0 0 M100.433 1089.89 L100.433 1082.98 L119.975 1069.8 L100.433 1056.72 L100.433 1049.81 L125.323 1066.62 L147.953 1066.62 L147.953 1073.08 L125.323 1073.08 L100.433 1089.89 Z" fill="#000000" fill-rule="evenodd" fill-opacity="1" /><path clip-path="url(#clip780)" d="M 0 0 M98.4912 1008.88 Q105.812 1013.15 112.973 1015.22 Q120.135 1017.28 127.487 1017.28 Q134.839 1017.28 142.064 1015.22 Q149.258 1013.11 156.546 1008.88 L156.546 1013.97 Q149.067 1018.75 141.842 1021.14 Q134.617 1023.49 127.487 1023.49 Q120.389 1023.49 113.196 1021.14 Q106.003 1018.78 98.4912 1013.97 L98.4912 1008.88 Z" fill="#000000" fill-rule="evenodd" fill-opacity="1" /><path clip-path="url(#clip780)" d="M 0 0 M142.542 996.373 L142.542 973.934 L147.953 973.934 L147.953 1004.11 L142.542 1004.11 Q138.754 1000.45 132.389 994.145 Q125.991 987.811 124.145 986.188 Q120.676 983.1 118.289 981.891 Q115.87 980.65 113.546 980.65 Q109.759 980.65 107.371 983.323 Q104.984 985.965 104.984 990.23 Q104.984 993.254 106.035 996.627 Q107.085 999.969 109.217 1003.79 L102.724 1003.79 Q101.165 999.906 100.369 996.532 Q99.5734 993.158 99.5734 990.357 Q99.5734 982.973 103.265 978.581 Q106.958 974.188 113.132 974.188 Q116.061 974.188 118.702 975.302 Q121.312 976.384 124.877 979.281 Q125.8 980.077 130.224 984.342 Q134.617 988.607 142.542 996.373 Z" fill="#000000" fill-rule="evenodd" fill-opacity="1" /><path clip-path="url(#clip780)" d="M 0 0 M104.666 953.213 Q104.666 958.179 109.568 960.693 Q114.437 963.176 124.24 963.176 Q134.012 963.176 138.913 960.693 Q143.783 958.179 143.783 953.213 Q143.783 948.216 138.913 945.734 Q134.012 943.219 124.24 943.219 Q114.437 943.219 109.568 945.734 Q104.666 948.216 104.666 953.213 M99.5734 953.213 Q99.5734 945.224 105.907 941.023 Q112.209 936.79 124.24 936.79 Q136.24 936.79 142.574 941.023 Q148.876 945.224 148.876 953.213 Q148.876 961.202 142.574 965.435 Q136.24 969.637 124.24 969.637 Q112.209 969.637 105.907 965.435 Q99.5734 961.202 99.5734 953.213 Z" fill="#000000" fill-rule="evenodd" fill-opacity="1" /><path clip-path="url(#clip780)" d="M 0 0 M127.041 889.397 Q127.041 892.166 129.397 893.758 Q131.752 895.317 135.953 895.317 Q140.091 895.317 142.478 893.758 Q144.834 892.166 144.834 889.397 Q144.834 886.692 142.478 885.132 Q140.091 883.541 135.953 883.541 Q131.784 883.541 129.429 885.132 Q127.041 886.692 127.041 889.397 M122.999 889.397 Q122.999 884.368 126.5 881.408 Q130.001 878.448 135.953 878.448 Q141.905 878.448 145.406 881.44 Q148.876 884.4 148.876 889.397 Q148.876 894.49 145.406 897.45 Q141.905 900.41 135.953 900.41 Q129.97 900.41 126.5 897.45 Q122.999 894.458 122.999 889.397 M103.616 922.244 Q103.616 924.981 106.003 926.573 Q108.358 928.132 112.496 928.132 Q116.697 928.132 119.052 926.573 Q121.408 925.013 121.408 922.244 Q121.408 919.475 119.052 917.915 Q116.697 916.324 112.496 916.324 Q108.39 916.324 106.003 917.915 Q103.616 919.507 103.616 922.244 M99.5734 893.503 L99.5734 888.41 L148.876 918.138 L148.876 923.231 L99.5734 893.503 M99.5734 922.244 Q99.5734 917.215 103.075 914.223 Q106.544 911.231 112.496 911.231 Q118.511 911.231 121.981 914.223 Q125.45 917.183 125.45 922.244 Q125.45 927.305 121.981 930.265 Q118.48 933.193 112.496 933.193 Q106.576 933.193 103.075 930.233 Q99.5734 927.273 99.5734 922.244 Z" fill="#000000" fill-rule="evenodd" fill-opacity="1" /><path clip-path="url(#clip780)" d="M 0 0 M98.4912 873.228 L98.4912 868.136 Q106.003 863.361 113.196 861.006 Q120.389 858.619 127.487 858.619 Q134.617 858.619 141.842 861.006 Q149.067 863.361 156.546 868.136 L156.546 873.228 Q149.258 868.995 142.064 866.926 Q134.839 864.825 127.487 864.825 Q120.135 864.825 112.973 866.926 Q105.812 868.995 98.4912 873.228 Z" fill="#000000" fill-rule="evenodd" fill-opacity="1" /><polyline clip-path="url(#clip782)" style="stroke:#ffa500; stroke-width:0.592132; stroke-opacity:1; fill:none" points="
  683.071,445.814 1415.22,1356.62 
  "/>
<polyline clip-path="url(#clip782)" style="stroke:#ffa500; stroke-width:0.344345; stroke-opacity:1; fill:none" points="
  958.144,1213.98 1070.69,1234.07 
  "/>
<polyline clip-path="url(#clip782)" style="stroke:#ffa500; stroke-width:0.179078; stroke-opacity:1; fill:none" points="
  445.017,1358.46 958.144,1213.98 
  "/>
<polyline clip-path="url(#clip782)" style="stroke:#800080; stroke-width:3.6102; stroke-opacity:1; fill:none" points="
  445.017,1358.46 1389.02,697.516 
  "/>
<polyline clip-path="url(#clip782)" style="stroke:#ffa500; stroke-width:3.85139; stroke-opacity:1; fill:none" points="
  1070.69,1234.07 1415.22,1356.62 
  "/>
<polyline clip-path="url(#clip782)" style="stroke:#800080; stroke-width:4.61447; stroke-opacity:1; fill:none" points="
  445.017,1358.46 1070.69,1234.07 
  "/>
<polyline clip-path="url(#clip782)" style="stroke:#ffa500; stroke-width:3.64514; stroke-opacity:1; fill:none" points="
  1070.69,1234.07 1389.02,697.516 
  "/>
<polyline clip-path="url(#clip782)" style="stroke:#ffa500; stroke-width:1.88998; stroke-opacity:1; fill:none" points="
  958.144,1213.98 1389.02,697.516 
  "/>
<polyline clip-path="url(#clip782)" style="stroke:#800080; stroke-width:8; stroke-opacity:1; fill:none" points="
  445.017,1358.46 683.071,445.814 
  "/>
<polyline clip-path="url(#clip782)" style="stroke:#ffa500; stroke-width:0.924772; stroke-opacity:1; fill:none" points="
  958.144,1213.98 1415.22,1356.62 
  "/>
<polyline clip-path="url(#clip782)" style="stroke:#ffa500; stroke-width:7.33575; stroke-opacity:1; fill:none" points="
  1389.02,697.516 1415.22,1356.62 
  "/>
<polyline clip-path="url(#clip782)" style="stroke:#800080; stroke-width:2.93168; stroke-opacity:1; fill:none" points="
  683.071,445.814 1070.69,1234.07 
  "/>
<polyline clip-path="url(#clip782)" style="stroke:#800080; stroke-width:2.55373; stroke-opacity:1; fill:none" points="
  683.071,445.814 958.144,1213.98 
  "/>
<polyline clip-path="url(#clip782)" style="stroke:#800080; stroke-width:1.83215; stroke-opacity:1; fill:none" points="
  445.017,1358.46 1415.22,1356.62 
  "/>
<polyline clip-path="url(#clip782)" style="stroke:#ffa500; stroke-width:0.172598; stroke-opacity:1; fill:none" points="
  683.071,445.814 1389.02,697.516 
  "/>
<circle clip-path="url(#clip782)" cx="1070.69" cy="1234.07" r="23" fill="#000000" fill-rule="evenodd" fill-opacity="1" stroke="none"/>
<circle clip-path="url(#clip782)" cx="683.071" cy="445.814" r="26" fill="#000000" fill-rule="evenodd" fill-opacity="1" stroke="none"/>
<circle clip-path="url(#clip782)" cx="1415.22" cy="1356.62" r="23" fill="#000000" fill-rule="evenodd" fill-opacity="1" stroke="none"/>
<circle clip-path="url(#clip782)" cx="958.144" cy="1213.98" r="8" fill="#000000" fill-rule="evenodd" fill-opacity="1" stroke="none"/>
<circle clip-path="url(#clip782)" cx="1389.02" cy="697.516" r="28" fill="#000000" fill-rule="evenodd" fill-opacity="1" stroke="none"/>
<circle clip-path="url(#clip782)" cx="445.017" cy="1358.46" r="8" fill="#000000" fill-rule="evenodd" fill-opacity="1" stroke="none"/>
<path clip-path="url(#clip780)" d="M 0 0 M1043.61 1240.79 L1043.61 1257.59 L1047.14 1257.59 Q1051.61 1257.59 1053.68 1255.57 Q1055.76 1253.54 1055.76 1249.17 Q1055.76 1244.83 1053.68 1242.82 Q1051.61 1240.79 1047.14 1240.79 L1043.61 1240.79 M1040.69 1238.39 L1046.69 1238.39 Q1052.97 1238.39 1055.91 1241.01 Q1058.84 1243.62 1058.84 1249.17 Q1058.84 1254.76 1055.89 1257.37 Q1052.94 1259.99 1046.69 1259.99 L1040.69 1259.99 L1040.69 1238.39 Z" fill="#000000" fill-rule="evenodd" fill-opacity="1" /><path clip-path="url(#clip780)" d="M 0 0 M1069 1251.85 Q1065.77 1251.85 1064.53 1252.59 Q1063.29 1253.32 1063.29 1255.1 Q1063.29 1256.52 1064.21 1257.36 Q1065.15 1258.18 1066.76 1258.18 Q1068.97 1258.18 1070.3 1256.62 Q1071.65 1255.05 1071.65 1252.44 L1071.65 1251.85 L1069 1251.85 M1074.31 1250.75 L1074.31 1259.99 L1071.65 1259.99 L1071.65 1257.53 Q1070.74 1259.01 1069.38 1259.72 Q1068.02 1260.41 1066.05 1260.41 Q1063.56 1260.41 1062.09 1259.02 Q1060.62 1257.62 1060.62 1255.28 Q1060.62 1252.54 1062.45 1251.15 Q1064.28 1249.76 1067.92 1249.76 L1071.65 1249.76 L1071.65 1249.5 Q1071.65 1247.67 1070.43 1246.67 Q1069.23 1245.66 1067.05 1245.66 Q1065.66 1245.66 1064.34 1245.99 Q1063.03 1246.32 1061.81 1246.99 L1061.81 1244.53 Q1063.27 1243.96 1064.65 1243.69 Q1066.02 1243.4 1067.32 1243.4 Q1070.84 1243.4 1072.57 1245.22 Q1074.31 1247.04 1074.31 1250.75 Z" fill="#000000" fill-rule="evenodd" fill-opacity="1" /><path clip-path="url(#clip780)" d="M 0 0 M1079.74 1239.19 L1079.74 1243.79 L1085.22 1243.79 L1085.22 1245.86 L1079.74 1245.86 L1079.74 1254.65 Q1079.74 1256.64 1080.27 1257.2 Q1080.82 1257.77 1082.48 1257.77 L1085.22 1257.77 L1085.22 1259.99 L1082.48 1259.99 Q1079.4 1259.99 1078.23 1258.85 Q1077.06 1257.69 1077.06 1254.65 L1077.06 1245.86 L1075.11 1245.86 L1075.11 1243.79 L1077.06 1243.79 L1077.06 1239.19 L1079.74 1239.19 Z" fill="#000000" fill-rule="evenodd" fill-opacity="1" /><path clip-path="url(#clip780)" d="M 0 0 M1095.38 1251.85 Q1092.15 1251.85 1090.9 1252.59 Q1089.66 1253.32 1089.66 1255.1 Q1089.66 1256.52 1090.59 1257.36 Q1091.53 1258.18 1093.13 1258.18 Q1095.35 1258.18 1096.68 1256.62 Q1098.02 1255.05 1098.02 1252.44 L1098.02 1251.85 L1095.38 1251.85 M1100.68 1250.75 L1100.68 1259.99 L1098.02 1259.99 L1098.02 1257.53 Q1097.11 1259.01 1095.75 1259.72 Q1094.39 1260.41 1092.42 1260.41 Q1089.94 1260.41 1088.46 1259.02 Q1087 1257.62 1087 1255.28 Q1087 1252.54 1088.82 1251.15 Q1090.66 1249.76 1094.29 1249.76 L1098.02 1249.76 L1098.02 1249.5 Q1098.02 1247.67 1096.81 1246.67 Q1095.61 1245.66 1093.42 1245.66 Q1092.03 1245.66 1090.72 1245.99 Q1089.4 1246.32 1088.19 1246.99 L1088.19 1244.53 Q1089.65 1243.96 1091.02 1243.69 Q1092.4 1243.4 1093.7 1243.4 Q1097.21 1243.4 1098.95 1245.22 Q1100.68 1247.04 1100.68 1250.75 Z" fill="#000000" fill-rule="evenodd" fill-opacity="1" /><path clip-path="url(#clip780)" d="M 0 0 M541.166 450.134 L559.438 450.134 L559.438 452.593 L551.771 452.593 L551.771 471.734 L548.834 471.734 L548.834 452.593 L541.166 452.593 L541.166 450.134 Z" fill="#000000" fill-rule="evenodd" fill-opacity="1" /><path clip-path="url(#clip780)" d="M 0 0 M571.056 462.966 L571.056 464.268 L558.816 464.268 Q558.99 467.017 560.466 468.464 Q561.956 469.896 564.603 469.896 Q566.137 469.896 567.569 469.52 Q569.016 469.144 570.434 468.392 L570.434 470.909 Q569.001 471.517 567.497 471.835 Q565.992 472.153 564.444 472.153 Q560.567 472.153 558.295 469.896 Q556.039 467.639 556.039 463.791 Q556.039 459.812 558.18 457.483 Q560.335 455.139 563.981 455.139 Q567.251 455.139 569.146 457.252 Q571.056 459.349 571.056 462.966 M568.394 462.185 Q568.365 460 567.164 458.698 Q565.978 457.396 564.01 457.396 Q561.782 457.396 560.437 458.655 Q559.106 459.914 558.903 462.2 L568.394 462.185 Z" fill="#000000" fill-rule="evenodd" fill-opacity="1" /><path clip-path="url(#clip780)" d="M 0 0 M585.509 456.152 L585.509 458.641 Q584.38 458.018 583.237 457.715 Q582.109 457.396 580.952 457.396 Q578.362 457.396 576.93 459.046 Q575.497 460.68 575.497 463.646 Q575.497 466.612 576.93 468.261 Q578.362 469.896 580.952 469.896 Q582.109 469.896 583.237 469.592 Q584.38 469.274 585.509 468.652 L585.509 471.112 Q584.395 471.632 583.194 471.893 Q582.008 472.153 580.662 472.153 Q577.002 472.153 574.846 469.853 Q572.691 467.553 572.691 463.646 Q572.691 459.682 574.861 457.411 Q577.045 455.139 580.836 455.139 Q582.066 455.139 583.237 455.4 Q584.409 455.646 585.509 456.152 Z" fill="#000000" fill-rule="evenodd" fill-opacity="1" /><path clip-path="url(#clip780)" d="M 0 0 M601.77 461.954 L601.77 471.734 L599.108 471.734 L599.108 462.04 Q599.108 459.74 598.211 458.597 Q597.314 457.454 595.52 457.454 Q593.365 457.454 592.121 458.829 Q590.876 460.203 590.876 462.576 L590.876 471.734 L588.2 471.734 L588.2 449.222 L590.876 449.222 L590.876 458.047 Q591.831 456.586 593.119 455.863 Q594.421 455.139 596.114 455.139 Q598.906 455.139 600.338 456.876 Q601.77 458.597 601.77 461.954 Z" fill="#000000" fill-rule="evenodd" fill-opacity="1" /><path clip-path="url(#clip780)" d="M 0 0 M618.032 461.954 L618.032 471.734 L615.37 471.734 L615.37 462.04 Q615.37 459.74 614.473 458.597 Q613.576 457.454 611.782 457.454 Q609.626 457.454 608.382 458.829 Q607.138 460.203 607.138 462.576 L607.138 471.734 L604.461 471.734 L604.461 455.53 L607.138 455.53 L607.138 458.047 Q608.093 456.586 609.38 455.863 Q610.682 455.139 612.375 455.139 Q615.167 455.139 616.6 456.876 Q618.032 458.597 618.032 461.954 Z" fill="#000000" fill-rule="evenodd" fill-opacity="1" /><path clip-path="url(#clip780)" d="M 0 0 M620.824 455.53 L623.486 455.53 L623.486 471.734 L620.824 471.734 L620.824 455.53 M620.824 449.222 L623.486 449.222 L623.486 452.593 L620.824 452.593 L620.824 449.222 Z" fill="#000000" fill-rule="evenodd" fill-opacity="1" /><path clip-path="url(#clip780)" d="M 0 0 M637.939 456.152 L637.939 458.641 Q636.811 458.018 635.668 457.715 Q634.539 457.396 633.382 457.396 Q630.792 457.396 629.36 459.046 Q627.928 460.68 627.928 463.646 Q627.928 466.612 629.36 468.261 Q630.792 469.896 633.382 469.896 Q634.539 469.896 635.668 469.592 Q636.811 469.274 637.939 468.652 L637.939 471.112 Q636.825 471.632 635.624 471.893 Q634.438 472.153 633.093 472.153 Q629.432 472.153 627.277 469.853 Q625.121 467.553 625.121 463.646 Q625.121 459.682 627.291 457.411 Q629.476 455.139 633.266 455.139 Q634.496 455.139 635.668 455.4 Q636.84 455.646 637.939 456.152 Z" fill="#000000" fill-rule="evenodd" fill-opacity="1" /><path clip-path="url(#clip780)" d="M 0 0 M648.095 463.588 Q644.869 463.588 643.625 464.326 Q642.381 465.064 642.381 466.844 Q642.381 468.261 643.307 469.101 Q644.247 469.925 645.853 469.925 Q648.066 469.925 649.397 468.363 Q650.743 466.786 650.743 464.182 L650.743 463.588 L648.095 463.588 M653.405 462.489 L653.405 471.734 L650.743 471.734 L650.743 469.274 Q649.831 470.75 648.472 471.459 Q647.112 472.153 645.144 472.153 Q642.656 472.153 641.18 470.764 Q639.719 469.361 639.719 467.017 Q639.719 464.283 641.542 462.894 Q643.379 461.505 647.01 461.505 L650.743 461.505 L650.743 461.245 Q650.743 459.407 649.528 458.409 Q648.327 457.396 646.142 457.396 Q644.753 457.396 643.437 457.729 Q642.12 458.062 640.905 458.727 L640.905 456.268 Q642.366 455.704 643.741 455.429 Q645.115 455.139 646.417 455.139 Q649.933 455.139 651.669 456.962 Q653.405 458.785 653.405 462.489 Z" fill="#000000" fill-rule="evenodd" fill-opacity="1" /><path clip-path="url(#clip780)" d="M 0 0 M656.197 449.222 L658.859 449.222 L658.859 471.734 L656.197 471.734 L656.197 449.222 Z" fill="#000000" fill-rule="evenodd" fill-opacity="1" /><path clip-path="url(#clip780)" d="M 0 0 M673.963 476.653 L673.963 478.721 L658.57 478.721 L658.57 476.653 L673.963 476.653 Z" fill="#000000" fill-rule="evenodd" fill-opacity="1" /><path clip-path="url(#clip780)" d="M 0 0 M693.046 451.797 L693.046 454.879 Q691.57 453.505 689.892 452.825 Q688.228 452.145 686.347 452.145 Q682.644 452.145 680.676 454.416 Q678.709 456.673 678.709 460.955 Q678.709 465.223 680.676 467.495 Q682.644 469.752 686.347 469.752 Q688.228 469.752 689.892 469.072 Q691.57 468.392 693.046 467.017 L693.046 470.07 Q691.512 471.112 689.791 471.632 Q688.084 472.153 686.174 472.153 Q681.269 472.153 678.448 469.158 Q675.627 466.149 675.627 460.955 Q675.627 455.747 678.448 452.752 Q681.269 449.743 686.174 449.743 Q688.113 449.743 689.82 450.264 Q691.541 450.77 693.046 451.797 Z" fill="#000000" fill-rule="evenodd" fill-opacity="1" /><path clip-path="url(#clip780)" d="M 0 0 M702.117 457.396 Q699.976 457.396 698.732 459.075 Q697.487 460.738 697.487 463.646 Q697.487 466.554 698.717 468.233 Q699.961 469.896 702.117 469.896 Q704.244 469.896 705.488 468.218 Q706.732 466.54 706.732 463.646 Q706.732 460.767 705.488 459.089 Q704.244 457.396 702.117 457.396 M702.117 455.139 Q705.589 455.139 707.571 457.396 Q709.553 459.653 709.553 463.646 Q709.553 467.625 707.571 469.896 Q705.589 472.153 702.117 472.153 Q698.63 472.153 696.648 469.896 Q694.681 467.625 694.681 463.646 Q694.681 459.653 696.648 457.396 Q698.63 455.139 702.117 455.139 Z" fill="#000000" fill-rule="evenodd" fill-opacity="1" /><path clip-path="url(#clip780)" d="M 0 0 M725.815 461.954 L725.815 471.734 L723.153 471.734 L723.153 462.04 Q723.153 459.74 722.256 458.597 Q721.359 457.454 719.565 457.454 Q717.409 457.454 716.165 458.829 Q714.921 460.203 714.921 462.576 L714.921 471.734 L712.244 471.734 L712.244 455.53 L714.921 455.53 L714.921 458.047 Q715.876 456.586 717.163 455.863 Q718.465 455.139 720.158 455.139 Q722.95 455.139 724.383 456.876 Q725.815 458.597 725.815 461.954 Z" fill="#000000" fill-rule="evenodd" fill-opacity="1" /><path clip-path="url(#clip780)" d="M 0 0 M738.937 456.007 L738.937 458.525 Q737.808 457.946 736.593 457.657 Q735.378 457.367 734.076 457.367 Q732.094 457.367 731.095 457.975 Q730.112 458.583 730.112 459.798 Q730.112 460.724 730.821 461.259 Q731.53 461.78 733.671 462.257 L734.582 462.46 Q737.418 463.068 738.604 464.182 Q739.805 465.281 739.805 467.263 Q739.805 469.52 738.011 470.837 Q736.231 472.153 733.106 472.153 Q731.804 472.153 730.387 471.893 Q728.983 471.647 727.421 471.14 L727.421 468.392 Q728.896 469.158 730.329 469.549 Q731.761 469.925 733.164 469.925 Q735.045 469.925 736.058 469.289 Q737.071 468.638 737.071 467.466 Q737.071 466.381 736.333 465.802 Q735.609 465.223 733.135 464.688 L732.209 464.471 Q729.736 463.95 728.636 462.88 Q727.536 461.794 727.536 459.914 Q727.536 457.628 729.157 456.384 Q730.777 455.139 733.758 455.139 Q735.233 455.139 736.535 455.356 Q737.837 455.573 738.937 456.007 Z" fill="#000000" fill-rule="evenodd" fill-opacity="1" /><path clip-path="url(#clip780)" d="M 0 0 M745.23 450.929 L745.23 455.53 L750.713 455.53 L750.713 457.599 L745.23 457.599 L745.23 466.395 Q745.23 468.377 745.766 468.941 Q746.315 469.506 747.979 469.506 L750.713 469.506 L750.713 471.734 L747.979 471.734 Q744.898 471.734 743.726 470.591 Q742.554 469.433 742.554 466.395 L742.554 457.599 L740.601 457.599 L740.601 455.53 L742.554 455.53 L742.554 450.929 L745.23 450.929 Z" fill="#000000" fill-rule="evenodd" fill-opacity="1" /><path clip-path="url(#clip780)" d="M 0 0 M762.895 458.018 Q762.447 457.758 761.911 457.642 Q761.39 457.512 760.754 457.512 Q758.497 457.512 757.282 458.988 Q756.081 460.449 756.081 463.198 L756.081 471.734 L753.404 471.734 L753.404 455.53 L756.081 455.53 L756.081 458.047 Q756.92 456.572 758.265 455.863 Q759.611 455.139 761.535 455.139 Q761.81 455.139 762.143 455.183 Q762.476 455.212 762.881 455.284 L762.895 458.018 Z" fill="#000000" fill-rule="evenodd" fill-opacity="1" /><path clip-path="url(#clip780)" d="M 0 0 M773.051 463.588 Q769.825 463.588 768.581 464.326 Q767.337 465.064 767.337 466.844 Q767.337 468.261 768.263 469.101 Q769.203 469.925 770.809 469.925 Q773.022 469.925 774.353 468.363 Q775.699 466.786 775.699 464.182 L775.699 463.588 L773.051 463.588 M778.361 462.489 L778.361 471.734 L775.699 471.734 L775.699 469.274 Q774.787 470.75 773.427 471.459 Q772.068 472.153 770.1 472.153 Q767.612 472.153 766.136 470.764 Q764.675 469.361 764.675 467.017 Q764.675 464.283 766.498 462.894 Q768.335 461.505 771.966 461.505 L775.699 461.505 L775.699 461.245 Q775.699 459.407 774.484 458.409 Q773.283 457.396 771.098 457.396 Q769.709 457.396 768.393 457.729 Q767.076 458.062 765.861 458.727 L765.861 456.268 Q767.322 455.704 768.697 455.429 Q770.071 455.139 771.373 455.139 Q774.889 455.139 776.625 456.962 Q778.361 458.785 778.361 462.489 Z" fill="#000000" fill-rule="evenodd" fill-opacity="1" /><path clip-path="url(#clip780)" d="M 0 0 M781.153 455.53 L783.815 455.53 L783.815 471.734 L781.153 471.734 L781.153 455.53 M781.153 449.222 L783.815 449.222 L783.815 452.593 L781.153 452.593 L781.153 449.222 Z" fill="#000000" fill-rule="evenodd" fill-opacity="1" /><path clip-path="url(#clip780)" d="M 0 0 M800.077 461.954 L800.077 471.734 L797.415 471.734 L797.415 462.04 Q797.415 459.74 796.518 458.597 Q795.621 457.454 793.827 457.454 Q791.671 457.454 790.427 458.829 Q789.183 460.203 789.183 462.576 L789.183 471.734 L786.506 471.734 L786.506 455.53 L789.183 455.53 L789.183 458.047 Q790.137 456.586 791.425 455.863 Q792.727 455.139 794.42 455.139 Q797.212 455.139 798.644 456.876 Q800.077 458.597 800.077 461.954 Z" fill="#000000" fill-rule="evenodd" fill-opacity="1" /><path clip-path="url(#clip780)" d="M 0 0 M805.502 450.929 L805.502 455.53 L810.985 455.53 L810.985 457.599 L805.502 457.599 L805.502 466.395 Q805.502 468.377 806.037 468.941 Q806.587 469.506 808.251 469.506 L810.985 469.506 L810.985 471.734 L808.251 471.734 Q805.169 471.734 803.997 470.591 Q802.825 469.433 802.825 466.395 L802.825 457.599 L800.872 457.599 L800.872 455.53 L802.825 455.53 L802.825 450.929 L805.502 450.929 Z" fill="#000000" fill-rule="evenodd" fill-opacity="1" /><path clip-path="url(#clip780)" d="M 0 0 M824.107 456.007 L824.107 458.525 Q822.979 457.946 821.763 457.657 Q820.548 457.367 819.246 457.367 Q817.264 457.367 816.266 457.975 Q815.282 458.583 815.282 459.798 Q815.282 460.724 815.991 461.259 Q816.7 461.78 818.841 462.257 L819.752 462.46 Q822.588 463.068 823.774 464.182 Q824.975 465.281 824.975 467.263 Q824.975 469.52 823.181 470.837 Q821.402 472.153 818.277 472.153 Q816.975 472.153 815.557 471.893 Q814.154 471.647 812.591 471.14 L812.591 468.392 Q814.067 469.158 815.499 469.549 Q816.931 469.925 818.335 469.925 Q820.215 469.925 821.228 469.289 Q822.241 468.638 822.241 467.466 Q822.241 466.381 821.503 465.802 Q820.78 465.223 818.306 464.688 L817.38 464.471 Q814.906 463.95 813.806 462.88 Q812.707 461.794 812.707 459.914 Q812.707 457.628 814.327 456.384 Q815.947 455.139 818.928 455.139 Q820.403 455.139 821.706 455.356 Q823.008 455.573 824.107 456.007 Z" fill="#000000" fill-rule="evenodd" fill-opacity="1" /><path clip-path="url(#clip780)" d="M 0 0 M1247.87 1363.34 L1247.87 1371.45 L1251.54 1371.45 Q1253.58 1371.45 1254.7 1370.4 Q1255.81 1369.34 1255.81 1367.39 Q1255.81 1365.45 1254.7 1364.39 Q1253.58 1363.34 1251.54 1363.34 L1247.87 1363.34 M1244.95 1360.94 L1251.54 1360.94 Q1255.18 1360.94 1257.03 1362.59 Q1258.89 1364.22 1258.89 1367.39 Q1258.89 1370.59 1257.03 1372.22 Q1255.18 1373.86 1251.54 1373.86 L1247.87 1373.86 L1247.87 1382.54 L1244.95 1382.54 L1244.95 1360.94 Z" fill="#000000" fill-rule="evenodd" fill-opacity="1" /><path clip-path="url(#clip780)" d="M 0 0 M1274.49 1373.77 L1274.49 1375.07 L1262.25 1375.07 Q1262.42 1377.82 1263.9 1379.27 Q1265.39 1380.7 1268.04 1380.7 Q1269.57 1380.7 1271 1380.32 Q1272.45 1379.95 1273.87 1379.19 L1273.87 1381.71 Q1272.44 1382.32 1270.93 1382.64 Q1269.43 1382.96 1267.88 1382.96 Q1264 1382.96 1261.73 1380.7 Q1259.47 1378.44 1259.47 1374.59 Q1259.47 1370.62 1261.61 1368.29 Q1263.77 1365.94 1267.42 1365.94 Q1270.68 1365.94 1272.58 1368.05 Q1274.49 1370.15 1274.49 1373.77 M1271.83 1372.99 Q1271.8 1370.8 1270.6 1369.5 Q1269.41 1368.2 1267.44 1368.2 Q1265.22 1368.2 1263.87 1369.46 Q1262.54 1370.72 1262.34 1373 L1271.83 1372.99 Z" fill="#000000" fill-rule="evenodd" fill-opacity="1" /><path clip-path="url(#clip780)" d="M 0 0 M1286.67 1368.82 Q1286.22 1368.56 1285.69 1368.45 Q1285.17 1368.31 1284.53 1368.31 Q1282.27 1368.31 1281.06 1369.79 Q1279.86 1371.25 1279.86 1374 L1279.86 1382.54 L1277.18 1382.54 L1277.18 1366.33 L1279.86 1366.33 L1279.86 1368.85 Q1280.7 1367.37 1282.04 1366.67 Q1283.39 1365.94 1285.31 1365.94 Q1285.59 1365.94 1285.92 1365.99 Q1286.25 1366.01 1286.66 1366.09 L1286.67 1368.82 Z" fill="#000000" fill-rule="evenodd" fill-opacity="1" /><path clip-path="url(#clip780)" d="M 0 0 M1297.67 1360.03 L1297.67 1362.24 L1295.12 1362.24 Q1293.69 1362.24 1293.12 1362.82 Q1292.57 1363.4 1292.57 1364.9 L1292.57 1366.33 L1296.96 1366.33 L1296.96 1368.4 L1292.57 1368.4 L1292.57 1382.54 L1289.9 1382.54 L1289.9 1368.4 L1287.35 1368.4 L1287.35 1366.33 L1289.9 1366.33 L1289.9 1365.2 Q1289.9 1362.5 1291.16 1361.27 Q1292.42 1360.03 1295.15 1360.03 L1297.67 1360.03 Z" fill="#000000" fill-rule="evenodd" fill-opacity="1" /><path clip-path="url(#clip780)" d="M 0 0 M1306.74 1368.2 Q1304.6 1368.2 1303.35 1369.88 Q1302.11 1371.54 1302.11 1374.45 Q1302.11 1377.36 1303.34 1379.04 Q1304.58 1380.7 1306.74 1380.7 Q1308.86 1380.7 1310.11 1379.02 Q1311.35 1377.34 1311.35 1374.45 Q1311.35 1371.57 1310.11 1369.89 Q1308.86 1368.2 1306.74 1368.2 M1306.74 1365.94 Q1310.21 1365.94 1312.19 1368.2 Q1314.17 1370.46 1314.17 1374.45 Q1314.17 1378.43 1312.19 1380.7 Q1310.21 1382.96 1306.74 1382.96 Q1303.25 1382.96 1301.27 1380.7 Q1299.3 1378.43 1299.3 1374.45 Q1299.3 1370.46 1301.27 1368.2 Q1303.25 1365.94 1306.74 1365.94 Z" fill="#000000" fill-rule="evenodd" fill-opacity="1" /><path clip-path="url(#clip780)" d="M 0 0 M1326.36 1368.82 Q1325.91 1368.56 1325.37 1368.45 Q1324.85 1368.31 1324.21 1368.31 Q1321.96 1368.31 1320.74 1369.79 Q1319.54 1371.25 1319.54 1374 L1319.54 1382.54 L1316.87 1382.54 L1316.87 1366.33 L1319.54 1366.33 L1319.54 1368.85 Q1320.38 1367.37 1321.73 1366.67 Q1323.07 1365.94 1325 1365.94 Q1325.27 1365.94 1325.6 1365.99 Q1325.94 1366.01 1326.34 1366.09 L1326.36 1368.82 Z" fill="#000000" fill-rule="evenodd" fill-opacity="1" /><path clip-path="url(#clip780)" d="M 0 0 M1341.24 1369.44 Q1342.24 1367.65 1343.63 1366.8 Q1345.02 1365.94 1346.9 1365.94 Q1349.43 1365.94 1350.81 1367.72 Q1352.18 1369.49 1352.18 1372.76 L1352.18 1382.54 L1349.5 1382.54 L1349.5 1372.84 Q1349.5 1370.51 1348.68 1369.39 Q1347.85 1368.26 1346.16 1368.26 Q1344.09 1368.26 1342.89 1369.63 Q1341.69 1371.01 1341.69 1373.38 L1341.69 1382.54 L1339.01 1382.54 L1339.01 1372.84 Q1339.01 1370.5 1338.19 1369.39 Q1337.37 1368.26 1335.64 1368.26 Q1333.6 1368.26 1332.4 1369.65 Q1331.2 1371.02 1331.2 1373.38 L1331.2 1382.54 L1328.53 1382.54 L1328.53 1366.33 L1331.2 1366.33 L1331.2 1368.85 Q1332.11 1367.36 1333.39 1366.65 Q1334.66 1365.94 1336.41 1365.94 Q1338.18 1365.94 1339.41 1366.84 Q1340.65 1367.74 1341.24 1369.44 Z" fill="#000000" fill-rule="evenodd" fill-opacity="1" /><path clip-path="url(#clip780)" d="M 0 0 M1362.34 1374.39 Q1359.11 1374.39 1357.87 1375.13 Q1356.62 1375.87 1356.62 1377.65 Q1356.62 1379.06 1357.55 1379.9 Q1358.49 1380.73 1360.09 1380.73 Q1362.31 1380.73 1363.64 1379.17 Q1364.98 1377.59 1364.98 1374.98 L1364.98 1374.39 L1362.34 1374.39 M1367.65 1373.29 L1367.65 1382.54 L1364.98 1382.54 L1364.98 1380.08 Q1364.07 1381.55 1362.71 1382.26 Q1361.35 1382.96 1359.39 1382.96 Q1356.9 1382.96 1355.42 1381.57 Q1353.96 1380.16 1353.96 1377.82 Q1353.96 1375.09 1355.78 1373.7 Q1357.62 1372.31 1361.25 1372.31 L1364.98 1372.31 L1364.98 1372.05 Q1364.98 1370.21 1363.77 1369.21 Q1362.57 1368.2 1360.38 1368.2 Q1358.99 1368.2 1357.68 1368.53 Q1356.36 1368.86 1355.15 1369.53 L1355.15 1367.07 Q1356.61 1366.51 1357.98 1366.23 Q1359.36 1365.94 1360.66 1365.94 Q1364.17 1365.94 1365.91 1367.77 Q1367.65 1369.59 1367.65 1373.29 Z" fill="#000000" fill-rule="evenodd" fill-opacity="1" /><path clip-path="url(#clip780)" d="M 0 0 M1383.91 1372.76 L1383.91 1382.54 L1381.25 1382.54 L1381.25 1372.84 Q1381.25 1370.54 1380.35 1369.4 Q1379.45 1368.26 1377.66 1368.26 Q1375.5 1368.26 1374.26 1369.63 Q1373.01 1371.01 1373.01 1373.38 L1373.01 1382.54 L1370.34 1382.54 L1370.34 1366.33 L1373.01 1366.33 L1373.01 1368.85 Q1373.97 1367.39 1375.26 1366.67 Q1376.56 1365.94 1378.25 1365.94 Q1381.04 1365.94 1382.48 1367.68 Q1383.91 1369.4 1383.91 1372.76 Z" fill="#000000" fill-rule="evenodd" fill-opacity="1" /><path clip-path="url(#clip780)" d="M 0 0 M1398.36 1366.96 L1398.36 1369.44 Q1397.23 1368.82 1396.09 1368.52 Q1394.96 1368.2 1393.8 1368.2 Q1391.21 1368.2 1389.78 1369.85 Q1388.35 1371.48 1388.35 1374.45 Q1388.35 1377.42 1389.78 1379.06 Q1391.21 1380.7 1393.8 1380.7 Q1394.96 1380.7 1396.09 1380.4 Q1397.23 1380.08 1398.36 1379.45 L1398.36 1381.91 Q1397.25 1382.44 1396.05 1382.7 Q1394.86 1382.96 1393.51 1382.96 Q1389.85 1382.96 1387.7 1380.66 Q1385.54 1378.36 1385.54 1374.45 Q1385.54 1370.49 1387.71 1368.21 Q1389.9 1365.94 1393.69 1365.94 Q1394.92 1365.94 1396.09 1366.2 Q1397.26 1366.45 1398.36 1366.96 Z" fill="#000000" fill-rule="evenodd" fill-opacity="1" /><path clip-path="url(#clip780)" d="M 0 0 M1415.01 1373.77 L1415.01 1375.07 L1402.77 1375.07 Q1402.95 1377.82 1404.42 1379.27 Q1405.91 1380.7 1408.56 1380.7 Q1410.09 1380.7 1411.53 1380.32 Q1412.97 1379.95 1414.39 1379.19 L1414.39 1381.71 Q1412.96 1382.32 1411.45 1382.64 Q1409.95 1382.96 1408.4 1382.96 Q1404.52 1382.96 1402.25 1380.7 Q1400 1378.44 1400 1374.59 Q1400 1370.62 1402.14 1368.29 Q1404.29 1365.94 1407.94 1365.94 Q1411.21 1365.94 1413.1 1368.05 Q1415.01 1370.15 1415.01 1373.77 M1412.35 1372.99 Q1412.32 1370.8 1411.12 1369.5 Q1409.93 1368.2 1407.97 1368.2 Q1405.74 1368.2 1404.39 1369.46 Q1403.06 1370.72 1402.86 1373 L1412.35 1372.99 Z" fill="#000000" fill-rule="evenodd" fill-opacity="1" /><path clip-path="url(#clip780)" d="M 0 0 M1430.12 1387.46 L1430.12 1389.52 L1414.72 1389.52 L1414.72 1387.46 L1430.12 1387.46 Z" fill="#000000" fill-rule="evenodd" fill-opacity="1" /><path clip-path="url(#clip780)" d="M 0 0 M1435.95 1363.34 L1435.95 1371.45 L1439.62 1371.45 Q1441.66 1371.45 1442.78 1370.4 Q1443.89 1369.34 1443.89 1367.39 Q1443.89 1365.45 1442.78 1364.39 Q1441.66 1363.34 1439.62 1363.34 L1435.95 1363.34 M1433.02 1360.94 L1439.62 1360.94 Q1443.25 1360.94 1445.11 1362.59 Q1446.97 1364.22 1446.97 1367.39 Q1446.97 1370.59 1445.11 1372.22 Q1443.25 1373.86 1439.62 1373.86 L1435.95 1373.86 L1435.95 1382.54 L1433.02 1382.54 L1433.02 1360.94 Z" fill="#000000" fill-rule="evenodd" fill-opacity="1" /><path clip-path="url(#clip780)" d="M 0 0 M1455.8 1374.39 Q1452.57 1374.39 1451.33 1375.13 Q1450.08 1375.87 1450.08 1377.65 Q1450.08 1379.06 1451.01 1379.9 Q1451.95 1380.73 1453.55 1380.73 Q1455.77 1380.73 1457.1 1379.17 Q1458.44 1377.59 1458.44 1374.98 L1458.44 1374.39 L1455.8 1374.39 M1461.11 1373.29 L1461.11 1382.54 L1458.44 1382.54 L1458.44 1380.08 Q1457.53 1381.55 1456.17 1382.26 Q1454.81 1382.96 1452.85 1382.96 Q1450.36 1382.96 1448.88 1381.57 Q1447.42 1380.16 1447.42 1377.82 Q1447.42 1375.09 1449.24 1373.7 Q1451.08 1372.31 1454.71 1372.31 L1458.44 1372.31 L1458.44 1372.05 Q1458.44 1370.21 1457.23 1369.21 Q1456.03 1368.2 1453.84 1368.2 Q1452.45 1368.2 1451.14 1368.53 Q1449.82 1368.86 1448.61 1369.53 L1448.61 1367.07 Q1450.07 1366.51 1451.44 1366.23 Q1452.82 1365.94 1454.12 1365.94 Q1457.63 1365.94 1459.37 1367.77 Q1461.11 1369.59 1461.11 1373.29 Z" fill="#000000" fill-rule="evenodd" fill-opacity="1" /><path clip-path="url(#clip780)" d="M 0 0 M1473.29 1368.82 Q1472.84 1368.56 1472.3 1368.45 Q1471.78 1368.31 1471.15 1368.31 Q1468.89 1368.31 1467.67 1369.79 Q1466.47 1371.25 1466.47 1374 L1466.47 1382.54 L1463.8 1382.54 L1463.8 1366.33 L1466.47 1366.33 L1466.47 1368.85 Q1467.31 1367.37 1468.66 1366.67 Q1470 1365.94 1471.93 1365.94 Q1472.2 1365.94 1472.54 1365.99 Q1472.87 1366.01 1473.27 1366.09 L1473.29 1368.82 Z" fill="#000000" fill-rule="evenodd" fill-opacity="1" /><path clip-path="url(#clip780)" d="M 0 0 M1483.44 1374.39 Q1480.22 1374.39 1478.97 1375.13 Q1477.73 1375.87 1477.73 1377.65 Q1477.73 1379.06 1478.66 1379.9 Q1479.6 1380.73 1481.2 1380.73 Q1483.42 1380.73 1484.75 1379.17 Q1486.09 1377.59 1486.09 1374.98 L1486.09 1374.39 L1483.44 1374.39 M1488.75 1373.29 L1488.75 1382.54 L1486.09 1382.54 L1486.09 1380.08 Q1485.18 1381.55 1483.82 1382.26 Q1482.46 1382.96 1480.49 1382.96 Q1478 1382.96 1476.53 1381.57 Q1475.07 1380.16 1475.07 1377.82 Q1475.07 1375.09 1476.89 1373.7 Q1478.73 1372.31 1482.36 1372.31 L1486.09 1372.31 L1486.09 1372.05 Q1486.09 1370.21 1484.88 1369.21 Q1483.68 1368.2 1481.49 1368.2 Q1480.1 1368.2 1478.79 1368.53 Q1477.47 1368.86 1476.25 1369.53 L1476.25 1367.07 Q1477.72 1366.51 1479.09 1366.23 Q1480.46 1365.94 1481.77 1365.94 Q1485.28 1365.94 1487.02 1367.77 Q1488.75 1369.59 1488.75 1373.29 Z" fill="#000000" fill-rule="evenodd" fill-opacity="1" /><path clip-path="url(#clip780)" d="M 0 0 M1504.16 1369.44 Q1505.16 1367.65 1506.55 1366.8 Q1507.94 1365.94 1509.82 1365.94 Q1512.35 1365.94 1513.72 1367.72 Q1515.1 1369.49 1515.1 1372.76 L1515.1 1382.54 L1512.42 1382.54 L1512.42 1372.84 Q1512.42 1370.51 1511.6 1369.39 Q1510.77 1368.26 1509.08 1368.26 Q1507.01 1368.26 1505.81 1369.63 Q1504.61 1371.01 1504.61 1373.38 L1504.61 1382.54 L1501.93 1382.54 L1501.93 1372.84 Q1501.93 1370.5 1501.11 1369.39 Q1500.28 1368.26 1498.56 1368.26 Q1496.52 1368.26 1495.32 1369.65 Q1494.12 1371.02 1494.12 1373.38 L1494.12 1382.54 L1491.44 1382.54 L1491.44 1366.33 L1494.12 1366.33 L1494.12 1368.85 Q1495.03 1367.36 1496.31 1366.65 Q1497.58 1365.94 1499.33 1365.94 Q1501.09 1365.94 1502.32 1366.84 Q1503.57 1367.74 1504.16 1369.44 Z" fill="#000000" fill-rule="evenodd" fill-opacity="1" /><path clip-path="url(#clip780)" d="M 0 0 M1531.75 1373.77 L1531.75 1375.07 L1519.51 1375.07 Q1519.69 1377.82 1521.16 1379.27 Q1522.65 1380.7 1525.3 1380.7 Q1526.83 1380.7 1528.26 1380.32 Q1529.71 1379.95 1531.13 1379.19 L1531.13 1381.71 Q1529.7 1382.32 1528.19 1382.64 Q1526.69 1382.96 1525.14 1382.96 Q1521.26 1382.96 1518.99 1380.7 Q1516.73 1378.44 1516.73 1374.59 Q1516.73 1370.62 1518.88 1368.29 Q1521.03 1365.94 1524.68 1365.94 Q1527.95 1365.94 1529.84 1368.05 Q1531.75 1370.15 1531.75 1373.77 M1529.09 1372.99 Q1529.06 1370.8 1527.86 1369.5 Q1526.67 1368.2 1524.71 1368.2 Q1522.48 1368.2 1521.13 1369.46 Q1519.8 1370.72 1519.6 1373 L1529.09 1372.99 Z" fill="#000000" fill-rule="evenodd" fill-opacity="1" /><path clip-path="url(#clip780)" d="M 0 0 M1537.18 1361.73 L1537.18 1366.33 L1542.66 1366.33 L1542.66 1368.4 L1537.18 1368.4 L1537.18 1377.2 Q1537.18 1379.18 1537.71 1379.74 Q1538.26 1380.31 1539.93 1380.31 L1542.66 1380.31 L1542.66 1382.54 L1539.93 1382.54 Q1536.84 1382.54 1535.67 1381.39 Q1534.5 1380.24 1534.5 1377.2 L1534.5 1368.4 L1532.55 1368.4 L1532.55 1366.33 L1534.5 1366.33 L1534.5 1361.73 L1537.18 1361.73 Z" fill="#000000" fill-rule="evenodd" fill-opacity="1" /><path clip-path="url(#clip780)" d="M 0 0 M1559.31 1373.77 L1559.31 1375.07 L1547.07 1375.07 Q1547.25 1377.82 1548.72 1379.27 Q1550.21 1380.7 1552.86 1380.7 Q1554.39 1380.7 1555.83 1380.32 Q1557.27 1379.95 1558.69 1379.19 L1558.69 1381.71 Q1557.26 1382.32 1555.75 1382.64 Q1554.25 1382.96 1552.7 1382.96 Q1548.82 1382.96 1546.55 1380.7 Q1544.29 1378.44 1544.29 1374.59 Q1544.29 1370.62 1546.44 1368.29 Q1548.59 1365.94 1552.24 1365.94 Q1555.51 1365.94 1557.4 1368.05 Q1559.31 1370.15 1559.31 1373.77 M1556.65 1372.99 Q1556.62 1370.8 1555.42 1369.5 Q1554.23 1368.2 1552.27 1368.2 Q1550.04 1368.2 1548.69 1369.46 Q1547.36 1370.72 1547.16 1373 L1556.65 1372.99 Z" fill="#000000" fill-rule="evenodd" fill-opacity="1" /><path clip-path="url(#clip780)" d="M 0 0 M1571.49 1368.82 Q1571.04 1368.56 1570.51 1368.45 Q1569.99 1368.31 1569.35 1368.31 Q1567.1 1368.31 1565.88 1369.79 Q1564.68 1371.25 1564.68 1374 L1564.68 1382.54 L1562 1382.54 L1562 1366.33 L1564.68 1366.33 L1564.68 1368.85 Q1565.52 1367.37 1566.86 1366.67 Q1568.21 1365.94 1570.13 1365.94 Q1570.41 1365.94 1570.74 1365.99 Q1571.07 1366.01 1571.48 1366.09 L1571.49 1368.82 Z" fill="#000000" fill-rule="evenodd" fill-opacity="1" /><path clip-path="url(#clip780)" d="M 0 0 M1584.62 1366.81 L1584.62 1369.33 Q1583.49 1368.75 1582.27 1368.46 Q1581.06 1368.17 1579.75 1368.17 Q1577.77 1368.17 1576.77 1368.78 Q1575.79 1369.39 1575.79 1370.6 Q1575.79 1371.53 1576.5 1372.06 Q1577.21 1372.58 1579.35 1373.06 L1580.26 1373.26 Q1583.1 1373.87 1584.28 1374.98 Q1585.48 1376.08 1585.48 1378.07 Q1585.48 1380.32 1583.69 1381.64 Q1581.91 1382.96 1578.79 1382.96 Q1577.48 1382.96 1576.07 1382.7 Q1574.66 1382.45 1573.1 1381.94 L1573.1 1379.19 Q1574.58 1379.96 1576.01 1380.35 Q1577.44 1380.73 1578.84 1380.73 Q1580.72 1380.73 1581.74 1380.09 Q1582.75 1379.44 1582.75 1378.27 Q1582.75 1377.18 1582.01 1376.6 Q1581.29 1376.03 1578.81 1375.49 L1577.89 1375.27 Q1575.41 1374.75 1574.31 1373.68 Q1573.22 1372.6 1573.22 1370.72 Q1573.22 1368.43 1574.84 1367.19 Q1576.46 1365.94 1579.44 1365.94 Q1580.91 1365.94 1582.21 1366.16 Q1583.52 1366.38 1584.62 1366.81 Z" fill="#000000" fill-rule="evenodd" fill-opacity="1" /><path clip-path="url(#clip780)" d="M 0 0 M761.046 1219.96 L761.046 1223.04 Q759.57 1221.67 757.892 1220.99 Q756.228 1220.31 754.348 1220.31 Q750.644 1220.31 748.676 1222.58 Q746.709 1224.83 746.709 1229.12 Q746.709 1233.39 748.676 1235.66 Q750.644 1237.91 754.348 1237.91 Q756.228 1237.91 757.892 1237.23 Q759.57 1236.55 761.046 1235.18 L761.046 1238.23 Q759.513 1239.27 757.791 1239.79 Q756.084 1240.32 754.174 1240.32 Q749.27 1240.32 746.448 1237.32 Q743.627 1234.31 743.627 1229.12 Q743.627 1223.91 746.448 1220.91 Q749.27 1217.9 754.174 1217.9 Q756.113 1217.9 757.82 1218.43 Q759.542 1218.93 761.046 1219.96 Z" fill="#000000" fill-rule="evenodd" fill-opacity="1" /><path clip-path="url(#clip780)" d="M 0 0 M763.838 1217.38 L766.5 1217.38 L766.5 1239.9 L763.838 1239.9 L763.838 1217.38 Z" fill="#000000" fill-rule="evenodd" fill-opacity="1" /><path clip-path="url(#clip780)" d="M 0 0 M769.293 1223.69 L771.955 1223.69 L771.955 1239.9 L769.293 1239.9 L769.293 1223.69 M769.293 1217.38 L771.955 1217.38 L771.955 1220.76 L769.293 1220.76 L769.293 1217.38 Z" fill="#000000" fill-rule="evenodd" fill-opacity="1" /><path clip-path="url(#clip780)" d="M 0 0 M788.607 1231.13 L788.607 1232.43 L776.367 1232.43 Q776.541 1235.18 778.017 1236.63 Q779.507 1238.06 782.154 1238.06 Q783.688 1238.06 785.12 1237.68 Q786.567 1237.31 787.985 1236.55 L787.985 1239.07 Q786.552 1239.68 785.048 1240 Q783.543 1240.32 781.995 1240.32 Q778.118 1240.32 775.846 1238.06 Q773.589 1235.8 773.589 1231.95 Q773.589 1227.97 775.731 1225.65 Q777.886 1223.3 781.532 1223.3 Q784.802 1223.3 786.697 1225.41 Q788.607 1227.51 788.607 1231.13 M785.945 1230.35 Q785.916 1228.16 784.715 1226.86 Q783.529 1225.56 781.561 1225.56 Q779.333 1225.56 777.988 1226.82 Q776.657 1228.08 776.454 1230.36 L785.945 1230.35 Z" fill="#000000" fill-rule="evenodd" fill-opacity="1" /><path clip-path="url(#clip780)" d="M 0 0 M804.868 1230.12 L804.868 1239.9 L802.206 1239.9 L802.206 1230.2 Q802.206 1227.9 801.309 1226.76 Q800.412 1225.62 798.618 1225.62 Q796.463 1225.62 795.218 1226.99 Q793.974 1228.36 793.974 1230.74 L793.974 1239.9 L791.298 1239.9 L791.298 1223.69 L793.974 1223.69 L793.974 1226.21 Q794.929 1224.75 796.217 1224.02 Q797.519 1223.3 799.211 1223.3 Q802.004 1223.3 803.436 1225.04 Q804.868 1226.76 804.868 1230.12 Z" fill="#000000" fill-rule="evenodd" fill-opacity="1" /><path clip-path="url(#clip780)" d="M 0 0 M810.294 1219.09 L810.294 1223.69 L815.777 1223.69 L815.777 1225.76 L810.294 1225.76 L810.294 1234.56 Q810.294 1236.54 810.829 1237.1 Q811.379 1237.67 813.042 1237.67 L815.777 1237.67 L815.777 1239.9 L813.042 1239.9 Q809.961 1239.9 808.789 1238.75 Q807.617 1237.6 807.617 1234.56 L807.617 1225.76 L805.664 1225.76 L805.664 1223.69 L807.617 1223.69 L807.617 1219.09 L810.294 1219.09 Z" fill="#000000" fill-rule="evenodd" fill-opacity="1" /><path clip-path="url(#clip780)" d="M 0 0 M830.881 1244.81 L830.881 1246.88 L815.487 1246.88 L815.487 1244.81 L830.881 1244.81 Z" fill="#000000" fill-rule="evenodd" fill-opacity="1" /><path clip-path="url(#clip780)" d="M 0 0 M841.037 1231.75 Q837.811 1231.75 836.567 1232.49 Q835.322 1233.23 835.322 1235.01 Q835.322 1236.42 836.248 1237.26 Q837.189 1238.09 838.795 1238.09 Q841.008 1238.09 842.339 1236.52 Q843.685 1234.95 843.685 1232.34 L843.685 1231.75 L841.037 1231.75 M846.347 1230.65 L846.347 1239.9 L843.685 1239.9 L843.685 1237.44 Q842.773 1238.91 841.413 1239.62 Q840.053 1240.32 838.086 1240.32 Q835.597 1240.32 834.122 1238.93 Q832.66 1237.52 832.66 1235.18 Q832.66 1232.44 834.483 1231.06 Q836.321 1229.67 839.952 1229.67 L843.685 1229.67 L843.685 1229.41 Q843.685 1227.57 842.469 1226.57 Q841.269 1225.56 839.084 1225.56 Q837.695 1225.56 836.379 1225.89 Q835.062 1226.22 833.847 1226.89 L833.847 1224.43 Q835.308 1223.87 836.682 1223.59 Q838.057 1223.3 839.359 1223.3 Q842.874 1223.3 844.611 1225.12 Q846.347 1226.95 846.347 1230.65 Z" fill="#000000" fill-rule="evenodd" fill-opacity="1" /><path clip-path="url(#clip780)" d="M 0 0 M862.608 1230.12 L862.608 1239.9 L859.946 1239.9 L859.946 1230.2 Q859.946 1227.9 859.049 1226.76 Q858.152 1225.62 856.358 1225.62 Q854.202 1225.62 852.958 1226.99 Q851.714 1228.36 851.714 1230.74 L851.714 1239.9 L849.038 1239.9 L849.038 1223.69 L851.714 1223.69 L851.714 1226.21 Q852.669 1224.75 853.957 1224.02 Q855.259 1223.3 856.951 1223.3 Q859.744 1223.3 861.176 1225.04 Q862.608 1226.76 862.608 1230.12 Z" fill="#000000" fill-rule="evenodd" fill-opacity="1" /><path clip-path="url(#clip780)" d="M 0 0 M876.063 1226.15 L876.063 1217.38 L878.725 1217.38 L878.725 1239.9 L876.063 1239.9 L876.063 1237.47 Q875.224 1238.91 873.936 1239.62 Q872.663 1240.32 870.869 1240.32 Q867.932 1240.32 866.08 1237.97 Q864.243 1235.63 864.243 1231.81 Q864.243 1227.99 866.08 1225.65 Q867.932 1223.3 870.869 1223.3 Q872.663 1223.3 873.936 1224.01 Q875.224 1224.7 876.063 1226.15 M866.992 1231.81 Q866.992 1234.75 868.193 1236.42 Q869.408 1238.09 871.52 1238.09 Q873.632 1238.09 874.848 1236.42 Q876.063 1234.75 876.063 1231.81 Q876.063 1228.87 874.848 1227.21 Q873.632 1225.53 871.52 1225.53 Q869.408 1225.53 868.193 1227.21 Q866.992 1228.87 866.992 1231.81 Z" fill="#000000" fill-rule="evenodd" fill-opacity="1" /><path clip-path="url(#clip780)" d="M 0 0 M893.829 1244.81 L893.829 1246.88 L878.436 1246.88 L878.436 1244.81 L893.829 1244.81 Z" fill="#000000" fill-rule="evenodd" fill-opacity="1" /><path clip-path="url(#clip780)" d="M 0 0 M912.912 1219.96 L912.912 1223.04 Q911.436 1221.67 909.758 1220.99 Q908.094 1220.31 906.213 1220.31 Q902.51 1220.31 900.542 1222.58 Q898.574 1224.83 898.574 1229.12 Q898.574 1233.39 900.542 1235.66 Q902.51 1237.91 906.213 1237.91 Q908.094 1237.91 909.758 1237.23 Q911.436 1236.55 912.912 1235.18 L912.912 1238.23 Q911.378 1239.27 909.656 1239.79 Q907.949 1240.32 906.04 1240.32 Q901.135 1240.32 898.314 1237.32 Q895.493 1234.31 895.493 1229.12 Q895.493 1223.91 898.314 1220.91 Q901.135 1217.9 906.04 1217.9 Q907.978 1217.9 909.685 1218.43 Q911.407 1218.93 912.912 1219.96 Z" fill="#000000" fill-rule="evenodd" fill-opacity="1" /><path clip-path="url(#clip780)" d="M 0 0 M921.983 1225.56 Q919.842 1225.56 918.597 1227.24 Q917.353 1228.9 917.353 1231.81 Q917.353 1234.72 918.583 1236.39 Q919.827 1238.06 921.983 1238.06 Q924.11 1238.06 925.354 1236.38 Q926.598 1234.7 926.598 1231.81 Q926.598 1228.93 925.354 1227.25 Q924.11 1225.56 921.983 1225.56 M921.983 1223.3 Q925.455 1223.3 927.437 1225.56 Q929.419 1227.82 929.419 1231.81 Q929.419 1235.79 927.437 1238.06 Q925.455 1240.32 921.983 1240.32 Q918.496 1240.32 916.514 1238.06 Q914.546 1235.79 914.546 1231.81 Q914.546 1227.82 916.514 1225.56 Q918.496 1223.3 921.983 1223.3 Z" fill="#000000" fill-rule="evenodd" fill-opacity="1" /><path clip-path="url(#clip780)" d="M 0 0 M945.681 1230.12 L945.681 1239.9 L943.019 1239.9 L943.019 1230.2 Q943.019 1227.9 942.122 1226.76 Q941.225 1225.62 939.431 1225.62 Q937.275 1225.62 936.031 1226.99 Q934.787 1228.36 934.787 1230.74 L934.787 1239.9 L932.11 1239.9 L932.11 1223.69 L934.787 1223.69 L934.787 1226.21 Q935.741 1224.75 937.029 1224.02 Q938.331 1223.3 940.024 1223.3 Q942.816 1223.3 944.248 1225.04 Q945.681 1226.76 945.681 1230.12 Z" fill="#000000" fill-rule="evenodd" fill-opacity="1" /><path clip-path="url(#clip780)" d="M 0 0 M958.803 1224.17 L958.803 1226.69 Q957.674 1226.11 956.459 1225.82 Q955.244 1225.53 953.942 1225.53 Q951.959 1225.53 950.961 1226.14 Q949.977 1226.74 949.977 1227.96 Q949.977 1228.89 950.686 1229.42 Q951.395 1229.94 953.536 1230.42 L954.448 1230.62 Q957.284 1231.23 958.47 1232.34 Q959.671 1233.44 959.671 1235.43 Q959.671 1237.68 957.877 1239 Q956.097 1240.32 952.972 1240.32 Q951.67 1240.32 950.252 1240.05 Q948.849 1239.81 947.286 1239.3 L947.286 1236.55 Q948.762 1237.32 950.194 1237.71 Q951.627 1238.09 953.03 1238.09 Q954.911 1238.09 955.924 1237.45 Q956.936 1236.8 956.936 1235.63 Q956.936 1234.54 956.198 1233.96 Q955.475 1233.39 953.001 1232.85 L952.075 1232.63 Q949.601 1232.11 948.502 1231.04 Q947.402 1229.96 947.402 1228.08 Q947.402 1225.79 949.023 1224.55 Q950.643 1223.3 953.623 1223.3 Q955.099 1223.3 956.401 1223.52 Q957.703 1223.74 958.803 1224.17 Z" fill="#000000" fill-rule="evenodd" fill-opacity="1" /><path clip-path="url(#clip780)" d="M 0 0 M962.188 1233.5 L962.188 1223.69 L964.85 1223.69 L964.85 1233.4 Q964.85 1235.7 965.747 1236.86 Q966.644 1238 968.438 1238 Q970.594 1238 971.838 1236.63 Q973.097 1235.25 973.097 1232.88 L973.097 1223.69 L975.759 1223.69 L975.759 1239.9 L973.097 1239.9 L973.097 1237.41 Q972.127 1238.88 970.84 1239.61 Q969.566 1240.32 967.874 1240.32 Q965.082 1240.32 963.635 1238.58 Q962.188 1236.84 962.188 1233.5 M968.886 1223.3 L968.886 1223.3 Z" fill="#000000" fill-rule="evenodd" fill-opacity="1" /><path clip-path="url(#clip780)" d="M 0 0 M978.551 1217.38 L981.213 1217.38 L981.213 1239.9 L978.551 1239.9 L978.551 1217.38 Z" fill="#000000" fill-rule="evenodd" fill-opacity="1" /><path clip-path="url(#clip780)" d="M 0 0 M986.638 1219.09 L986.638 1223.69 L992.121 1223.69 L992.121 1225.76 L986.638 1225.76 L986.638 1234.56 Q986.638 1236.54 987.173 1237.1 Q987.723 1237.67 989.387 1237.67 L992.121 1237.67 L992.121 1239.9 L989.387 1239.9 Q986.305 1239.9 985.133 1238.75 Q983.962 1237.6 983.962 1234.56 L983.962 1225.76 L982.009 1225.76 L982.009 1223.69 L983.962 1223.69 L983.962 1219.09 L986.638 1219.09 Z" fill="#000000" fill-rule="evenodd" fill-opacity="1" /><path clip-path="url(#clip780)" d="M 0 0 M1002.28 1231.75 Q999.051 1231.75 997.807 1232.49 Q996.563 1233.23 996.563 1235.01 Q996.563 1236.42 997.489 1237.26 Q998.429 1238.09 1000.04 1238.09 Q1002.25 1238.09 1003.58 1236.52 Q1004.93 1234.95 1004.93 1232.34 L1004.93 1231.75 L1002.28 1231.75 M1007.59 1230.65 L1007.59 1239.9 L1004.93 1239.9 L1004.93 1237.44 Q1004.01 1238.91 1002.65 1239.62 Q1001.29 1240.32 999.326 1240.32 Q996.838 1240.32 995.362 1238.93 Q993.901 1237.52 993.901 1235.18 Q993.901 1232.44 995.724 1231.06 Q997.561 1229.67 1001.19 1229.67 L1004.93 1229.67 L1004.93 1229.41 Q1004.93 1227.57 1003.71 1226.57 Q1002.51 1225.56 1000.32 1225.56 Q998.936 1225.56 997.619 1225.89 Q996.302 1226.22 995.087 1226.89 L995.087 1224.43 Q996.548 1223.87 997.923 1223.59 Q999.297 1223.3 1000.6 1223.3 Q1004.11 1223.3 1005.85 1225.12 Q1007.59 1226.95 1007.59 1230.65 Z" fill="#000000" fill-rule="evenodd" fill-opacity="1" /><path clip-path="url(#clip780)" d="M 0 0 M1023.85 1230.12 L1023.85 1239.9 L1021.19 1239.9 L1021.19 1230.2 Q1021.19 1227.9 1020.29 1226.76 Q1019.39 1225.62 1017.6 1225.62 Q1015.44 1225.62 1014.2 1226.99 Q1012.95 1228.36 1012.95 1230.74 L1012.95 1239.9 L1010.28 1239.9 L1010.28 1223.69 L1012.95 1223.69 L1012.95 1226.21 Q1013.91 1224.75 1015.2 1224.02 Q1016.5 1223.3 1018.19 1223.3 Q1020.98 1223.3 1022.42 1225.04 Q1023.85 1226.76 1023.85 1230.12 Z" fill="#000000" fill-rule="evenodd" fill-opacity="1" /><path clip-path="url(#clip780)" d="M 0 0 M1029.27 1219.09 L1029.27 1223.69 L1034.76 1223.69 L1034.76 1225.76 L1029.27 1225.76 L1029.27 1234.56 Q1029.27 1236.54 1029.81 1237.1 Q1030.36 1237.67 1032.02 1237.67 L1034.76 1237.67 L1034.76 1239.9 L1032.02 1239.9 Q1028.94 1239.9 1027.77 1238.75 Q1026.6 1237.6 1026.6 1234.56 L1026.6 1225.76 L1024.64 1225.76 L1024.64 1223.69 L1026.6 1223.69 L1026.6 1219.09 L1029.27 1219.09 Z" fill="#000000" fill-rule="evenodd" fill-opacity="1" /><path clip-path="url(#clip780)" d="M 0 0 M1049.86 1244.81 L1049.86 1246.88 L1034.47 1246.88 L1034.47 1244.81 L1049.86 1244.81 Z" fill="#000000" fill-rule="evenodd" fill-opacity="1" /><path clip-path="url(#clip780)" d="M 0 0 M1063.01 1229.77 Q1063.95 1230.09 1064.84 1231.13 Q1065.73 1232.17 1066.63 1233.99 L1069.59 1239.9 L1066.46 1239.9 L1063.69 1234.35 Q1062.62 1232.18 1061.61 1231.48 Q1060.61 1230.77 1058.87 1230.77 L1055.69 1230.77 L1055.69 1239.9 L1052.77 1239.9 L1052.77 1218.3 L1059.37 1218.3 Q1063.07 1218.3 1064.89 1219.84 Q1066.72 1221.39 1066.72 1224.52 Q1066.72 1226.56 1065.76 1227.9 Q1064.82 1229.25 1063.01 1229.77 M1055.69 1220.7 L1055.69 1228.36 L1059.37 1228.36 Q1061.48 1228.36 1062.55 1227.4 Q1063.63 1226.41 1063.63 1224.52 Q1063.63 1222.62 1062.55 1221.67 Q1061.48 1220.7 1059.37 1220.7 L1055.69 1220.7 Z" fill="#000000" fill-rule="evenodd" fill-opacity="1" /><path clip-path="url(#clip780)" d="M 0 0 M1084.92 1231.13 L1084.92 1232.43 L1072.68 1232.43 Q1072.85 1235.18 1074.33 1236.63 Q1075.82 1238.06 1078.46 1238.06 Q1080 1238.06 1081.43 1237.68 Q1082.88 1237.31 1084.29 1236.55 L1084.29 1239.07 Q1082.86 1239.68 1081.36 1240 Q1079.85 1240.32 1078.3 1240.32 Q1074.43 1240.32 1072.16 1238.06 Q1069.9 1235.8 1069.9 1231.95 Q1069.9 1227.97 1072.04 1225.65 Q1074.2 1223.3 1077.84 1223.3 Q1081.11 1223.3 1083.01 1225.41 Q1084.92 1227.51 1084.92 1231.13 M1082.25 1230.35 Q1082.22 1228.16 1081.02 1226.86 Q1079.84 1225.56 1077.87 1225.56 Q1075.64 1225.56 1074.3 1226.82 Q1072.97 1228.08 1072.76 1230.36 L1082.25 1230.35 Z" fill="#000000" fill-rule="evenodd" fill-opacity="1" /><path clip-path="url(#clip780)" d="M 0 0 M1089.3 1231.81 Q1089.3 1234.75 1090.5 1236.42 Q1091.72 1238.09 1093.83 1238.09 Q1095.94 1238.09 1097.16 1236.42 Q1098.37 1234.75 1098.37 1231.81 Q1098.37 1228.87 1097.16 1227.21 Q1095.94 1225.53 1093.83 1225.53 Q1091.72 1225.53 1090.5 1227.21 Q1089.3 1228.87 1089.3 1231.81 M1098.37 1237.47 Q1097.53 1238.91 1096.24 1239.62 Q1094.97 1240.32 1093.18 1240.32 Q1090.24 1240.32 1088.39 1237.97 Q1086.55 1235.63 1086.55 1231.81 Q1086.55 1227.99 1088.39 1225.65 Q1090.24 1223.3 1093.18 1223.3 Q1094.97 1223.3 1096.24 1224.01 Q1097.53 1224.7 1098.37 1226.15 L1098.37 1223.69 L1101.03 1223.69 L1101.03 1246.06 L1098.37 1246.06 L1098.37 1237.47 Z" fill="#000000" fill-rule="evenodd" fill-opacity="1" /><path clip-path="url(#clip780)" d="M 0 0 M1103.55 1233.5 L1103.55 1223.69 L1106.21 1223.69 L1106.21 1233.4 Q1106.21 1235.7 1107.11 1236.86 Q1108.01 1238 1109.8 1238 Q1111.96 1238 1113.2 1236.63 Q1114.46 1235.25 1114.46 1232.88 L1114.46 1223.69 L1117.12 1223.69 L1117.12 1239.9 L1114.46 1239.9 L1114.46 1237.41 Q1113.49 1238.88 1112.2 1239.61 Q1110.93 1240.32 1109.24 1240.32 Q1106.44 1240.32 1105 1238.58 Q1103.55 1236.84 1103.55 1233.5 M1110.25 1223.3 L1110.25 1223.3 Z" fill="#000000" fill-rule="evenodd" fill-opacity="1" /><path clip-path="url(#clip780)" d="M 0 0 M1133.77 1231.13 L1133.77 1232.43 L1121.53 1232.43 Q1121.71 1235.18 1123.18 1236.63 Q1124.67 1238.06 1127.32 1238.06 Q1128.85 1238.06 1130.29 1237.68 Q1131.73 1237.31 1133.15 1236.55 L1133.15 1239.07 Q1131.72 1239.68 1130.21 1240 Q1128.71 1240.32 1127.16 1240.32 Q1123.28 1240.32 1121.01 1238.06 Q1118.76 1235.8 1118.76 1231.95 Q1118.76 1227.97 1120.9 1225.65 Q1123.05 1223.3 1126.7 1223.3 Q1129.97 1223.3 1131.86 1225.41 Q1133.77 1227.51 1133.77 1231.13 M1131.11 1230.35 Q1131.08 1228.16 1129.88 1226.86 Q1128.69 1225.56 1126.73 1225.56 Q1124.5 1225.56 1123.15 1226.82 Q1121.82 1228.08 1121.62 1230.36 L1131.11 1230.35 Z" fill="#000000" fill-rule="evenodd" fill-opacity="1" /><path clip-path="url(#clip780)" d="M 0 0 M1146.89 1224.17 L1146.89 1226.69 Q1145.77 1226.11 1144.55 1225.82 Q1143.34 1225.53 1142.03 1225.53 Q1140.05 1225.53 1139.05 1226.14 Q1138.07 1226.74 1138.07 1227.96 Q1138.07 1228.89 1138.78 1229.42 Q1139.49 1229.94 1141.63 1230.42 L1142.54 1230.62 Q1145.38 1231.23 1146.56 1232.34 Q1147.76 1233.44 1147.76 1235.43 Q1147.76 1237.68 1145.97 1239 Q1144.19 1240.32 1141.06 1240.32 Q1139.76 1240.32 1138.34 1240.05 Q1136.94 1239.81 1135.38 1239.3 L1135.38 1236.55 Q1136.85 1237.32 1138.29 1237.71 Q1139.72 1238.09 1141.12 1238.09 Q1143 1238.09 1144.02 1237.45 Q1145.03 1236.8 1145.03 1235.63 Q1145.03 1234.54 1144.29 1233.96 Q1143.57 1233.39 1141.09 1232.85 L1140.17 1232.63 Q1137.69 1232.11 1136.59 1231.04 Q1135.49 1229.96 1135.49 1228.08 Q1135.49 1225.79 1137.11 1224.55 Q1138.74 1223.3 1141.72 1223.3 Q1143.19 1223.3 1144.49 1223.52 Q1145.8 1223.74 1146.89 1224.17 Z" fill="#000000" fill-rule="evenodd" fill-opacity="1" /><path clip-path="url(#clip780)" d="M 0 0 M1153.19 1219.09 L1153.19 1223.69 L1158.67 1223.69 L1158.67 1225.76 L1153.19 1225.76 L1153.19 1234.56 Q1153.19 1236.54 1153.72 1237.1 Q1154.27 1237.67 1155.94 1237.67 L1158.67 1237.67 L1158.67 1239.9 L1155.94 1239.9 Q1152.86 1239.9 1151.68 1238.75 Q1150.51 1237.6 1150.51 1234.56 L1150.51 1225.76 L1148.56 1225.76 L1148.56 1223.69 L1150.51 1223.69 L1150.51 1219.09 L1153.19 1219.09 Z" fill="#000000" fill-rule="evenodd" fill-opacity="1" /><path clip-path="url(#clip780)" d="M 0 0 M1171.79 1224.17 L1171.79 1226.69 Q1170.66 1226.11 1169.45 1225.82 Q1168.23 1225.53 1166.93 1225.53 Q1164.95 1225.53 1163.95 1226.14 Q1162.97 1226.74 1162.97 1227.96 Q1162.97 1228.89 1163.68 1229.42 Q1164.39 1229.94 1166.53 1230.42 L1167.44 1230.62 Q1170.27 1231.23 1171.46 1232.34 Q1172.66 1233.44 1172.66 1235.43 Q1172.66 1237.68 1170.87 1239 Q1169.09 1240.32 1165.96 1240.32 Q1164.66 1240.32 1163.24 1240.05 Q1161.84 1239.81 1160.28 1239.3 L1160.28 1236.55 Q1161.75 1237.32 1163.19 1237.71 Q1164.62 1238.09 1166.02 1238.09 Q1167.9 1238.09 1168.91 1237.45 Q1169.93 1236.8 1169.93 1235.63 Q1169.93 1234.54 1169.19 1233.96 Q1168.47 1233.39 1165.99 1232.85 L1165.07 1232.63 Q1162.59 1232.11 1161.49 1231.04 Q1160.39 1229.96 1160.39 1228.08 Q1160.39 1225.79 1162.01 1224.55 Q1163.63 1223.3 1166.61 1223.3 Q1168.09 1223.3 1169.39 1223.52 Q1170.69 1223.74 1171.79 1224.17 Z" fill="#000000" fill-rule="evenodd" fill-opacity="1" /><path clip-path="url(#clip780)" d="M 0 0 M1273.52 704.237 L1273.52 721.034 L1277.05 721.034 Q1281.52 721.034 1283.59 719.009 Q1285.67 716.983 1285.67 712.614 Q1285.67 708.274 1283.59 706.263 Q1281.52 704.237 1277.05 704.237 L1273.52 704.237 M1270.59 701.836 L1276.6 701.836 Q1282.88 701.836 1285.81 704.454 Q1288.75 707.058 1288.75 712.614 Q1288.75 718.198 1285.8 720.817 Q1282.85 723.436 1276.6 723.436 L1270.59 723.436 L1270.59 701.836 Z" fill="#000000" fill-rule="evenodd" fill-opacity="1" /><path clip-path="url(#clip780)" d="M 0 0 M1305.4 714.668 L1305.4 715.97 L1293.16 715.97 Q1293.34 718.719 1294.81 720.166 Q1296.3 721.598 1298.95 721.598 Q1300.48 721.598 1301.92 721.222 Q1303.36 720.846 1304.78 720.094 L1304.78 722.611 Q1303.35 723.219 1301.84 723.537 Q1300.34 723.855 1298.79 723.855 Q1294.91 723.855 1292.64 721.598 Q1290.39 719.341 1290.39 715.493 Q1290.39 711.514 1292.53 709.185 Q1294.68 706.841 1298.33 706.841 Q1301.6 706.841 1303.49 708.954 Q1305.4 711.051 1305.4 714.668 M1302.74 713.887 Q1302.71 711.702 1301.51 710.4 Q1300.33 709.098 1298.36 709.098 Q1296.13 709.098 1294.78 710.357 Q1293.45 711.616 1293.25 713.902 L1302.74 713.887 Z" fill="#000000" fill-rule="evenodd" fill-opacity="1" /><path clip-path="url(#clip780)" d="M 0 0 M1318.53 707.709 L1318.53 710.227 Q1317.4 709.648 1316.18 709.359 Q1314.97 709.069 1313.66 709.069 Q1311.68 709.069 1310.68 709.677 Q1309.7 710.285 1309.7 711.5 Q1309.7 712.426 1310.41 712.961 Q1311.12 713.482 1313.26 713.959 L1314.17 714.162 Q1317.01 714.77 1318.19 715.884 Q1319.39 716.983 1319.39 718.965 Q1319.39 721.222 1317.6 722.539 Q1315.82 723.855 1312.69 723.855 Q1311.39 723.855 1309.97 723.595 Q1308.57 723.349 1307.01 722.842 L1307.01 720.094 Q1308.48 720.86 1309.92 721.251 Q1311.35 721.627 1312.75 721.627 Q1314.63 721.627 1315.65 720.991 Q1316.66 720.34 1316.66 719.168 Q1316.66 718.083 1315.92 717.504 Q1315.2 716.925 1312.72 716.39 L1311.8 716.173 Q1309.32 715.652 1308.22 714.581 Q1307.12 713.496 1307.12 711.616 Q1307.12 709.33 1308.75 708.086 Q1310.37 706.841 1313.35 706.841 Q1314.82 706.841 1316.12 707.058 Q1317.43 707.275 1318.53 707.709 Z" fill="#000000" fill-rule="evenodd" fill-opacity="1" /><path clip-path="url(#clip780)" d="M 0 0 M1322.19 707.232 L1324.85 707.232 L1324.85 723.436 L1322.19 723.436 L1322.19 707.232 M1322.19 700.924 L1324.85 700.924 L1324.85 704.295 L1322.19 704.295 L1322.19 700.924 Z" fill="#000000" fill-rule="evenodd" fill-opacity="1" /><path clip-path="url(#clip780)" d="M 0 0 M1338.3 715.146 Q1338.3 712.252 1337.1 710.661 Q1335.92 709.069 1333.76 709.069 Q1331.62 709.069 1330.42 710.661 Q1329.23 712.252 1329.23 715.146 Q1329.23 718.025 1330.42 719.616 Q1331.62 721.208 1333.76 721.208 Q1335.92 721.208 1337.1 719.616 Q1338.3 718.025 1338.3 715.146 M1340.96 721.425 Q1340.96 725.562 1339.13 727.573 Q1337.29 729.599 1333.5 729.599 Q1332.1 729.599 1330.85 729.382 Q1329.61 729.179 1328.44 728.745 L1328.44 726.156 Q1329.61 726.792 1330.75 727.096 Q1331.89 727.4 1333.08 727.4 Q1335.7 727.4 1337 726.025 Q1338.3 724.665 1338.3 721.902 L1338.3 720.586 Q1337.48 722.018 1336.19 722.727 Q1334.9 723.436 1333.11 723.436 Q1330.13 723.436 1328.31 721.164 Q1326.48 718.893 1326.48 715.146 Q1326.48 711.384 1328.31 709.113 Q1330.13 706.841 1333.11 706.841 Q1334.9 706.841 1336.19 707.55 Q1337.48 708.259 1338.3 709.691 L1338.3 707.232 L1340.96 707.232 L1340.96 721.425 Z" fill="#000000" fill-rule="evenodd" fill-opacity="1" /><path clip-path="url(#clip780)" d="M 0 0 M1357.23 713.656 L1357.23 723.436 L1354.56 723.436 L1354.56 713.742 Q1354.56 711.442 1353.67 710.299 Q1352.77 709.156 1350.98 709.156 Q1348.82 709.156 1347.58 710.531 Q1346.33 711.905 1346.33 714.278 L1346.33 723.436 L1343.66 723.436 L1343.66 707.232 L1346.33 707.232 L1346.33 709.749 Q1347.29 708.288 1348.57 707.565 Q1349.88 706.841 1351.57 706.841 Q1354.36 706.841 1355.79 708.577 Q1357.23 710.299 1357.23 713.656 Z" fill="#000000" fill-rule="evenodd" fill-opacity="1" /><path clip-path="url(#clip780)" d="M 0 0 M1372.33 728.355 L1372.33 730.423 L1356.94 730.423 L1356.94 728.355 L1372.33 728.355 Z" fill="#000000" fill-rule="evenodd" fill-opacity="1" /><path clip-path="url(#clip780)" d="M 0 0 M1385.48 713.308 Q1386.42 713.627 1387.3 714.668 Q1388.2 715.71 1389.1 717.533 L1392.06 723.436 L1388.92 723.436 L1386.16 717.895 Q1385.09 715.724 1384.08 715.016 Q1383.08 714.307 1381.34 714.307 L1378.16 714.307 L1378.16 723.436 L1375.24 723.436 L1375.24 701.836 L1381.84 701.836 Q1385.54 701.836 1387.36 703.384 Q1389.18 704.932 1389.18 708.057 Q1389.18 710.097 1388.23 711.442 Q1387.29 712.788 1385.48 713.308 M1378.16 704.237 L1378.16 711.905 L1381.84 711.905 Q1383.95 711.905 1385.02 710.936 Q1386.1 709.952 1386.1 708.057 Q1386.1 706.161 1385.02 705.207 Q1383.95 704.237 1381.84 704.237 L1378.16 704.237 Z" fill="#000000" fill-rule="evenodd" fill-opacity="1" /><path clip-path="url(#clip780)" d="M 0 0 M1407.38 714.668 L1407.38 715.97 L1395.15 715.97 Q1395.32 718.719 1396.79 720.166 Q1398.28 721.598 1400.93 721.598 Q1402.47 721.598 1403.9 721.222 Q1405.34 720.846 1406.76 720.094 L1406.76 722.611 Q1405.33 723.219 1403.83 723.537 Q1402.32 723.855 1400.77 723.855 Q1396.9 723.855 1394.62 721.598 Q1392.37 719.341 1392.37 715.493 Q1392.37 711.514 1394.51 709.185 Q1396.66 706.841 1400.31 706.841 Q1403.58 706.841 1405.47 708.954 Q1407.38 711.051 1407.38 714.668 M1404.72 713.887 Q1404.69 711.702 1403.49 710.4 Q1402.31 709.098 1400.34 709.098 Q1398.11 709.098 1396.77 710.357 Q1395.43 711.616 1395.23 713.902 L1404.72 713.887 Z" fill="#000000" fill-rule="evenodd" fill-opacity="1" /><path clip-path="url(#clip780)" d="M 0 0 M1417.54 715.29 Q1414.31 715.29 1413.07 716.028 Q1411.83 716.766 1411.83 718.546 Q1411.83 719.963 1412.75 720.803 Q1413.69 721.627 1415.3 721.627 Q1417.51 721.627 1418.84 720.065 Q1420.19 718.488 1420.19 715.884 L1420.19 715.29 L1417.54 715.29 M1422.85 714.191 L1422.85 723.436 L1420.19 723.436 L1420.19 720.976 Q1419.28 722.452 1417.92 723.161 Q1416.56 723.855 1414.59 723.855 Q1412.1 723.855 1410.63 722.466 Q1409.16 721.063 1409.16 718.719 Q1409.16 715.985 1410.99 714.596 Q1412.82 713.207 1416.46 713.207 L1420.19 713.207 L1420.19 712.947 Q1420.19 711.109 1418.97 710.111 Q1417.77 709.098 1415.59 709.098 Q1414.2 709.098 1412.88 709.431 Q1411.57 709.764 1410.35 710.429 L1410.35 707.97 Q1411.81 707.406 1413.19 707.131 Q1414.56 706.841 1415.86 706.841 Q1419.38 706.841 1421.11 708.664 Q1422.85 710.487 1422.85 714.191 Z" fill="#000000" fill-rule="evenodd" fill-opacity="1" /><path clip-path="url(#clip780)" d="M 0 0 M1435.97 707.709 L1435.97 710.227 Q1434.84 709.648 1433.63 709.359 Q1432.41 709.069 1431.11 709.069 Q1429.13 709.069 1428.13 709.677 Q1427.15 710.285 1427.15 711.5 Q1427.15 712.426 1427.86 712.961 Q1428.57 713.482 1430.71 713.959 L1431.62 714.162 Q1434.45 714.77 1435.64 715.884 Q1436.84 716.983 1436.84 718.965 Q1436.84 721.222 1435.05 722.539 Q1433.27 723.855 1430.14 723.855 Q1428.84 723.855 1427.42 723.595 Q1426.02 723.349 1424.46 722.842 L1424.46 720.094 Q1425.93 720.86 1427.36 721.251 Q1428.8 721.627 1430.2 721.627 Q1432.08 721.627 1433.09 720.991 Q1434.11 720.34 1434.11 719.168 Q1434.11 718.083 1433.37 717.504 Q1432.64 716.925 1430.17 716.39 L1429.25 716.173 Q1426.77 715.652 1425.67 714.581 Q1424.57 713.496 1424.57 711.616 Q1424.57 709.33 1426.19 708.086 Q1427.81 706.841 1430.79 706.841 Q1432.27 706.841 1433.57 707.058 Q1434.87 707.275 1435.97 707.709 Z" fill="#000000" fill-rule="evenodd" fill-opacity="1" /><path clip-path="url(#clip780)" d="M 0 0 M1445.91 709.098 Q1443.77 709.098 1442.53 710.777 Q1441.28 712.44 1441.28 715.348 Q1441.28 718.256 1442.51 719.934 Q1443.76 721.598 1445.91 721.598 Q1448.04 721.598 1449.28 719.92 Q1450.53 718.242 1450.53 715.348 Q1450.53 712.469 1449.28 710.791 Q1448.04 709.098 1445.91 709.098 M1445.91 706.841 Q1449.38 706.841 1451.37 709.098 Q1453.35 711.355 1453.35 715.348 Q1453.35 719.327 1451.37 721.598 Q1449.38 723.855 1445.91 723.855 Q1442.43 723.855 1440.44 721.598 Q1438.48 719.327 1438.48 715.348 Q1438.48 711.355 1440.44 709.098 Q1442.43 706.841 1445.91 706.841 Z" fill="#000000" fill-rule="evenodd" fill-opacity="1" /><path clip-path="url(#clip780)" d="M 0 0 M1469.61 713.656 L1469.61 723.436 L1466.95 723.436 L1466.95 713.742 Q1466.95 711.442 1466.05 710.299 Q1465.15 709.156 1463.36 709.156 Q1461.2 709.156 1459.96 710.531 Q1458.72 711.905 1458.72 714.278 L1458.72 723.436 L1456.04 723.436 L1456.04 707.232 L1458.72 707.232 L1458.72 709.749 Q1459.67 708.288 1460.96 707.565 Q1462.26 706.841 1463.95 706.841 Q1466.74 706.841 1468.18 708.577 Q1469.61 710.299 1469.61 713.656 Z" fill="#000000" fill-rule="evenodd" fill-opacity="1" /><path clip-path="url(#clip780)" d="M 0 0 M1472.4 707.232 L1475.06 707.232 L1475.06 723.436 L1472.4 723.436 L1472.4 707.232 M1472.4 700.924 L1475.06 700.924 L1475.06 704.295 L1472.4 704.295 L1472.4 700.924 Z" fill="#000000" fill-rule="evenodd" fill-opacity="1" /><path clip-path="url(#clip780)" d="M 0 0 M1491.33 713.656 L1491.33 723.436 L1488.66 723.436 L1488.66 713.742 Q1488.66 711.442 1487.77 710.299 Q1486.87 709.156 1485.08 709.156 Q1482.92 709.156 1481.68 710.531 Q1480.43 711.905 1480.43 714.278 L1480.43 723.436 L1477.75 723.436 L1477.75 707.232 L1480.43 707.232 L1480.43 709.749 Q1481.39 708.288 1482.67 707.565 Q1483.98 706.841 1485.67 706.841 Q1488.46 706.841 1489.89 708.577 Q1491.33 710.299 1491.33 713.656 Z" fill="#000000" fill-rule="evenodd" fill-opacity="1" /><path clip-path="url(#clip780)" d="M 0 0 M1504.78 715.146 Q1504.78 712.252 1503.58 710.661 Q1502.39 709.069 1500.24 709.069 Q1498.1 709.069 1496.9 710.661 Q1495.71 712.252 1495.71 715.146 Q1495.71 718.025 1496.9 719.616 Q1498.1 721.208 1500.24 721.208 Q1502.39 721.208 1503.58 719.616 Q1504.78 718.025 1504.78 715.146 M1507.44 721.425 Q1507.44 725.562 1505.6 727.573 Q1503.77 729.599 1499.98 729.599 Q1498.57 729.599 1497.33 729.382 Q1496.09 729.179 1494.91 728.745 L1494.91 726.156 Q1496.09 726.792 1497.23 727.096 Q1498.37 727.4 1499.56 727.4 Q1502.18 727.4 1503.48 726.025 Q1504.78 724.665 1504.78 721.902 L1504.78 720.586 Q1503.96 722.018 1502.67 722.727 Q1501.38 723.436 1499.59 723.436 Q1496.61 723.436 1494.78 721.164 Q1492.96 718.893 1492.96 715.146 Q1492.96 711.384 1494.78 709.113 Q1496.61 706.841 1499.59 706.841 Q1501.38 706.841 1502.67 707.55 Q1503.96 708.259 1504.78 709.691 L1504.78 707.232 L1507.44 707.232 L1507.44 721.425 Z" fill="#000000" fill-rule="evenodd" fill-opacity="1" /><path clip-path="url(#clip780)" d="M 0 0 M377.049 1364.45 L377.049 1367.53 Q375.573 1366.15 373.895 1365.47 Q372.231 1364.79 370.35 1364.79 Q366.647 1364.79 364.679 1367.06 Q362.711 1369.32 362.711 1373.6 Q362.711 1377.87 364.679 1380.14 Q366.647 1382.4 370.35 1382.4 Q372.231 1382.4 373.895 1381.72 Q375.573 1381.04 377.049 1379.67 L377.049 1382.72 Q375.515 1383.76 373.794 1384.28 Q372.086 1384.8 370.177 1384.8 Q365.272 1384.8 362.451 1381.81 Q359.63 1378.8 359.63 1373.6 Q359.63 1368.4 362.451 1365.4 Q365.272 1362.39 370.177 1362.39 Q372.115 1362.39 373.823 1362.91 Q375.544 1363.42 377.049 1364.45 Z" fill="#000000" fill-rule="evenodd" fill-opacity="1" /><path clip-path="url(#clip780)" d="M 0 0 M386.12 1370.04 Q383.979 1370.04 382.735 1371.72 Q381.49 1373.39 381.49 1376.29 Q381.49 1379.2 382.72 1380.88 Q383.964 1382.54 386.12 1382.54 Q388.247 1382.54 389.491 1380.87 Q390.735 1379.19 390.735 1376.29 Q390.735 1373.42 389.491 1371.74 Q388.247 1370.04 386.12 1370.04 M386.12 1367.79 Q389.592 1367.79 391.574 1370.04 Q393.556 1372.3 393.556 1376.29 Q393.556 1380.27 391.574 1382.54 Q389.592 1384.8 386.12 1384.8 Q382.633 1384.8 380.651 1382.54 Q378.684 1380.27 378.684 1376.29 Q378.684 1372.3 380.651 1370.04 Q382.633 1367.79 386.12 1367.79 Z" fill="#000000" fill-rule="evenodd" fill-opacity="1" /><path clip-path="url(#clip780)" d="M 0 0 M396.348 1361.87 L399.01 1361.87 L399.01 1384.38 L396.348 1384.38 L396.348 1361.87 Z" fill="#000000" fill-rule="evenodd" fill-opacity="1" /><path clip-path="url(#clip780)" d="M 0 0 M401.803 1361.87 L404.465 1361.87 L404.465 1384.38 L401.803 1384.38 L401.803 1361.87 Z" fill="#000000" fill-rule="evenodd" fill-opacity="1" /><path clip-path="url(#clip780)" d="M 0 0 M414.621 1376.24 Q411.395 1376.24 410.15 1376.97 Q408.906 1377.71 408.906 1379.49 Q408.906 1380.91 409.832 1381.75 Q410.773 1382.57 412.378 1382.57 Q414.592 1382.57 415.923 1381.01 Q417.268 1379.43 417.268 1376.83 L417.268 1376.24 L414.621 1376.24 M419.931 1375.14 L419.931 1384.38 L417.268 1384.38 L417.268 1381.92 Q416.357 1383.4 414.997 1384.11 Q413.637 1384.8 411.67 1384.8 Q409.181 1384.8 407.705 1383.41 Q406.244 1382.01 406.244 1379.67 Q406.244 1376.93 408.067 1375.54 Q409.905 1374.15 413.536 1374.15 L417.268 1374.15 L417.268 1373.89 Q417.268 1372.06 416.053 1371.06 Q414.852 1370.04 412.668 1370.04 Q411.279 1370.04 409.962 1370.38 Q408.646 1370.71 407.431 1371.38 L407.431 1368.92 Q408.892 1368.35 410.266 1368.08 Q411.641 1367.79 412.943 1367.79 Q416.458 1367.79 418.194 1369.61 Q419.931 1371.43 419.931 1375.14 Z" fill="#000000" fill-rule="evenodd" fill-opacity="1" /><path clip-path="url(#clip780)" d="M 0 0 M434.355 1376.29 Q434.355 1373.36 433.139 1371.69 Q431.939 1370.02 429.826 1370.02 Q427.714 1370.02 426.499 1371.69 Q425.298 1373.36 425.298 1376.29 Q425.298 1379.23 426.499 1380.91 Q427.714 1382.57 429.826 1382.57 Q431.939 1382.57 433.139 1380.91 Q434.355 1379.23 434.355 1376.29 M425.298 1370.64 Q426.137 1369.19 427.41 1368.5 Q428.698 1367.79 430.477 1367.79 Q433.429 1367.79 435.266 1370.13 Q437.118 1372.48 437.118 1376.29 Q437.118 1380.11 435.266 1382.46 Q433.429 1384.8 430.477 1384.8 Q428.698 1384.8 427.41 1384.11 Q426.137 1383.4 425.298 1381.95 L425.298 1384.38 L422.621 1384.38 L422.621 1361.87 L425.298 1361.87 L425.298 1370.64 Z" fill="#000000" fill-rule="evenodd" fill-opacity="1" /><path clip-path="url(#clip780)" d="M 0 0 M446.189 1370.04 Q444.048 1370.04 442.804 1371.72 Q441.559 1373.39 441.559 1376.29 Q441.559 1379.2 442.789 1380.88 Q444.033 1382.54 446.189 1382.54 Q448.316 1382.54 449.56 1380.87 Q450.804 1379.19 450.804 1376.29 Q450.804 1373.42 449.56 1371.74 Q448.316 1370.04 446.189 1370.04 M446.189 1367.79 Q449.661 1367.79 451.643 1370.04 Q453.625 1372.3 453.625 1376.29 Q453.625 1380.27 451.643 1382.54 Q449.661 1384.8 446.189 1384.8 Q442.702 1384.8 440.72 1382.54 Q438.753 1380.27 438.753 1376.29 Q438.753 1372.3 440.72 1370.04 Q442.702 1367.79 446.189 1367.79 Z" fill="#000000" fill-rule="evenodd" fill-opacity="1" /><path clip-path="url(#clip780)" d="M 0 0 M465.807 1370.67 Q465.359 1370.41 464.823 1370.29 Q464.302 1370.16 463.666 1370.16 Q461.409 1370.16 460.194 1371.64 Q458.993 1373.1 458.993 1375.85 L458.993 1384.38 L456.316 1384.38 L456.316 1368.18 L458.993 1368.18 L458.993 1370.7 Q459.832 1369.22 461.177 1368.51 Q462.523 1367.79 464.447 1367.79 Q464.722 1367.79 465.055 1367.83 Q465.387 1367.86 465.793 1367.93 L465.807 1370.67 Z" fill="#000000" fill-rule="evenodd" fill-opacity="1" /><path clip-path="url(#clip780)" d="M 0 0 M475.963 1376.24 Q472.737 1376.24 471.493 1376.97 Q470.249 1377.71 470.249 1379.49 Q470.249 1380.91 471.174 1381.75 Q472.115 1382.57 473.721 1382.57 Q475.934 1382.57 477.265 1381.01 Q478.611 1379.43 478.611 1376.83 L478.611 1376.24 L475.963 1376.24 M481.273 1375.14 L481.273 1384.38 L478.611 1384.38 L478.611 1381.92 Q477.699 1383.4 476.339 1384.11 Q474.979 1384.8 473.012 1384.8 Q470.523 1384.8 469.048 1383.41 Q467.587 1382.01 467.587 1379.67 Q467.587 1376.93 469.409 1375.54 Q471.247 1374.15 474.878 1374.15 L478.611 1374.15 L478.611 1373.89 Q478.611 1372.06 477.395 1371.06 Q476.195 1370.04 474.01 1370.04 Q472.621 1370.04 471.305 1370.38 Q469.988 1370.71 468.773 1371.38 L468.773 1368.92 Q470.234 1368.35 471.608 1368.08 Q472.983 1367.79 474.285 1367.79 Q477.801 1367.79 479.537 1369.61 Q481.273 1371.43 481.273 1375.14 Z" fill="#000000" fill-rule="evenodd" fill-opacity="1" /><path clip-path="url(#clip780)" d="M 0 0 M486.698 1363.58 L486.698 1368.18 L492.181 1368.18 L492.181 1370.25 L486.698 1370.25 L486.698 1379.04 Q486.698 1381.03 487.233 1381.59 Q487.783 1382.15 489.447 1382.15 L492.181 1382.15 L492.181 1384.38 L489.447 1384.38 Q486.365 1384.38 485.193 1383.24 Q484.022 1382.08 484.022 1379.04 L484.022 1370.25 L482.068 1370.25 L482.068 1368.18 L484.022 1368.18 L484.022 1363.58 L486.698 1363.58 Z" fill="#000000" fill-rule="evenodd" fill-opacity="1" /><path clip-path="url(#clip780)" d="M 0 0 M494.974 1368.18 L497.636 1368.18 L497.636 1384.38 L494.974 1384.38 L494.974 1368.18 M494.974 1361.87 L497.636 1361.87 L497.636 1365.24 L494.974 1365.24 L494.974 1361.87 Z" fill="#000000" fill-rule="evenodd" fill-opacity="1" /><path clip-path="url(#clip780)" d="M 0 0 M506.707 1370.04 Q504.565 1370.04 503.321 1371.72 Q502.077 1373.39 502.077 1376.29 Q502.077 1379.2 503.307 1380.88 Q504.551 1382.54 506.707 1382.54 Q508.833 1382.54 510.078 1380.87 Q511.322 1379.19 511.322 1376.29 Q511.322 1373.42 510.078 1371.74 Q508.833 1370.04 506.707 1370.04 M506.707 1367.79 Q510.179 1367.79 512.161 1370.04 Q514.143 1372.3 514.143 1376.29 Q514.143 1380.27 512.161 1382.54 Q510.179 1384.8 506.707 1384.8 Q503.22 1384.8 501.238 1382.54 Q499.27 1380.27 499.27 1376.29 Q499.27 1372.3 501.238 1370.04 Q503.22 1367.79 506.707 1367.79 Z" fill="#000000" fill-rule="evenodd" fill-opacity="1" /><path clip-path="url(#clip780)" d="M 0 0 M530.404 1374.6 L530.404 1384.38 L527.742 1384.38 L527.742 1374.69 Q527.742 1372.39 526.845 1371.25 Q525.948 1370.1 524.154 1370.1 Q521.999 1370.1 520.755 1371.48 Q519.51 1372.85 519.51 1375.22 L519.51 1384.38 L516.834 1384.38 L516.834 1368.18 L519.51 1368.18 L519.51 1370.7 Q520.465 1369.23 521.753 1368.51 Q523.055 1367.79 524.748 1367.79 Q527.54 1367.79 528.972 1369.52 Q530.404 1371.25 530.404 1374.6 Z" fill="#000000" fill-rule="evenodd" fill-opacity="1" /><path clip-path="url(#clip782)" d="M986.636 967.825 L954.636 967.825 L970.636 999.825 L986.636 967.825 Z" fill="#800080" fill-rule="evenodd" fill-opacity="1" stroke="none"/>
<polyline clip-path="url(#clip782)" style="stroke:#800080; stroke-width:4; stroke-opacity:1; fill:none" stroke-dasharray="16, 10" points="
  914.231,1044.65 1027.04,1044.65 
  "/>
<polyline clip-path="url(#clip782)" style="stroke:#800080; stroke-width:4; stroke-opacity:1; fill:none" stroke-dasharray="16, 10" points="
  914.231,923.001 1027.04,923.001 
  "/>
<polyline clip-path="url(#clip782)" style="stroke:#800080; stroke-width:4; stroke-opacity:1; fill:none" stroke-dasharray="16, 10" points="
  914.231,1044.65 914.231,923.001 
  "/>
<polyline clip-path="url(#clip782)" style="stroke:#800080; stroke-width:4; stroke-opacity:1; fill:none" stroke-dasharray="16, 10" points="
  1027.04,1044.65 1027.04,923.001 
  "/>
<path clip-path="url(#clip782)" d="M943.041 948.679 L927.041 980.679 L959.041 980.679 L943.041 948.679 Z" fill="#800080" fill-rule="evenodd" fill-opacity="1" stroke="none"/>
<polyline clip-path="url(#clip782)" style="stroke:#800080; stroke-width:4; stroke-opacity:1; fill:none" stroke-dasharray="16, 10" points="
  887.33,1015.92 998.753,1015.92 
  "/>
<polyline clip-path="url(#clip782)" style="stroke:#800080; stroke-width:4; stroke-opacity:1; fill:none" stroke-dasharray="16, 10" points="
  887.33,913.438 998.753,913.438 
  "/>
<polyline clip-path="url(#clip782)" style="stroke:#800080; stroke-width:4; stroke-opacity:1; fill:none" stroke-dasharray="16, 10" points="
  887.33,1015.92 887.33,913.438 
  "/>
<polyline clip-path="url(#clip782)" style="stroke:#800080; stroke-width:4; stroke-opacity:1; fill:none" stroke-dasharray="16, 10" points="
  998.753,1015.92 998.753,913.438 
  "/>
<path clip-path="url(#clip782)" d="M1130.52 854.463 L1098.52 854.463 L1114.52 886.463 L1130.52 854.463 Z" fill="#ffa500" fill-rule="evenodd" fill-opacity="1" stroke="none"/>
<polyline clip-path="url(#clip782)" style="stroke:#ffa500; stroke-width:4; stroke-opacity:1; fill:none" stroke-dasharray="16, 10" points="
  1079.24,920.642 1149.8,920.642 
  "/>
<polyline clip-path="url(#clip782)" style="stroke:#ffa500; stroke-width:4; stroke-opacity:1; fill:none" stroke-dasharray="16, 10" points="
  1079.24,820.285 1149.8,820.285 
  "/>
<polyline clip-path="url(#clip782)" style="stroke:#ffa500; stroke-width:4; stroke-opacity:1; fill:none" stroke-dasharray="16, 10" points="
  1079.24,920.642 1079.24,820.285 
  "/>
<polyline clip-path="url(#clip782)" style="stroke:#ffa500; stroke-width:4; stroke-opacity:1; fill:none" stroke-dasharray="16, 10" points="
  1149.8,920.642 1149.8,820.285 
  "/>
<path clip-path="url(#clip782)" d="M1099.86 1062.04 L1083.86 1094.04 L1115.86 1094.04 L1099.86 1062.04 Z" fill="#ffa500" fill-rule="evenodd" fill-opacity="1" stroke="none"/>
<polyline clip-path="url(#clip782)" style="stroke:#ffa500; stroke-width:4; stroke-opacity:1; fill:none" stroke-dasharray="16, 10" points="
  1033.83,1142.35 1165.89,1142.35 
  "/>
<polyline clip-path="url(#clip782)" style="stroke:#ffa500; stroke-width:4; stroke-opacity:1; fill:none" stroke-dasharray="16, 10" points="
  1033.83,1013.73 1165.89,1013.73 
  "/>
<polyline clip-path="url(#clip782)" style="stroke:#ffa500; stroke-width:4; stroke-opacity:1; fill:none" stroke-dasharray="16, 10" points="
  1033.83,1142.35 1033.83,1013.73 
  "/>
<polyline clip-path="url(#clip782)" style="stroke:#ffa500; stroke-width:4; stroke-opacity:1; fill:none" stroke-dasharray="16, 10" points="
  1165.89,1142.35 1165.89,1013.73 
  "/>
<path clip-path="url(#clip782)" d="M940.838 958.252 L940.838 990.252 L972.838 990.252 L972.838 958.252 L940.838 958.252 Z" fill="#800080" fill-rule="evenodd" fill-opacity="1" stroke="none"/>
<polyline clip-path="url(#clip782)" style="stroke:#800080; stroke-width:4; stroke-opacity:1; fill:none" stroke-dasharray="16, 10" points="
  918.383,1012.73 995.294,1012.73 
  "/>
<polyline clip-path="url(#clip782)" style="stroke:#800080; stroke-width:4; stroke-opacity:1; fill:none" stroke-dasharray="16, 10" points="
  918.383,935.777 995.294,935.777 
  "/>
<polyline clip-path="url(#clip782)" style="stroke:#800080; stroke-width:4; stroke-opacity:1; fill:none" stroke-dasharray="16, 10" points="
  918.383,1012.73 918.383,935.777 
  "/>
<polyline clip-path="url(#clip782)" style="stroke:#800080; stroke-width:4; stroke-opacity:1; fill:none" stroke-dasharray="16, 10" points="
  995.294,1012.73 995.294,935.777 
  "/>
<path clip-path="url(#clip782)" d="M1091.19 958.252 L1091.19 990.252 L1123.19 990.252 L1123.19 958.252 L1091.19 958.252 Z" fill="#ffa500" fill-rule="evenodd" fill-opacity="1" stroke="none"/>
<polyline clip-path="url(#clip782)" style="stroke:#ffa500; stroke-width:4; stroke-opacity:1; fill:none" stroke-dasharray="16, 10" points="
  1071.24,1024.72 1143.13,1024.72 
  "/>
<polyline clip-path="url(#clip782)" style="stroke:#ffa500; stroke-width:4; stroke-opacity:1; fill:none" stroke-dasharray="16, 10" points="
  1071.24,923.785 1143.13,923.785 
  "/>
<polyline clip-path="url(#clip782)" style="stroke:#ffa500; stroke-width:4; stroke-opacity:1; fill:none" stroke-dasharray="16, 10" points="
  1071.24,1024.72 1071.24,923.785 
  "/>
<polyline clip-path="url(#clip782)" style="stroke:#ffa500; stroke-width:4; stroke-opacity:1; fill:none" stroke-dasharray="16, 10" points="
  1143.13,1024.72 1143.13,923.785 
  "/>
</svg>
