<?xml version="1.0" encoding="utf-8"?>
<svg xmlns="http://www.w3.org/2000/svg" xmlns:xlink="http://www.w3.org/1999/xlink" width="500" height="500" viewBox="0 0 2000 2000">
<defs>
  <clipPath id="clip390">
    <rect x="0" y="0" width="2000" height="2000"/>
  </clipPath>
</defs>
<path clip-path="url(#clip390)" d="
M0 2000 L2000 2000 L2000 0 L0 0  Z
  " fill="#ffffff" fill-rule="evenodd" fill-opacity="1"/>
<defs>
  <clipPath id="clip391">
    <rect x="400" y="200" width="1401" height="1401"/>
  </clipPath>
</defs>
<path clip-path="url(#clip390)" d="
M240.472 1759.53 L1811.02 1759.53 L1811.02 188.976 L240.472 188.976  Z
  " fill="#ffffff" fill-rule="evenodd" fill-opacity="1"/>
<defs>
  <clipPath id="clip392">
    <rect x="240" y="188" width="1572" height="1572"/>
  </clipPath>
</defs>
<polyline clip-path="url(#clip392)" style="stroke:#000000; stroke-width:2; stroke-opacity:0.1; fill:none" points="
  240.472,1759.53 240.472,188.976 
  "/>
<polyline clip-path="url(#clip392)" style="stroke:#000000; stroke-width:2; stroke-opacity:0.1; fill:none" points="
  1025.75,1759.53 1025.75,188.976 
  "/>
<polyline clip-path="url(#clip392)" style="stroke:#000000; stroke-width:2; stroke-opacity:0.1; fill:none" points="
  1811.02,1759.53 1811.02,188.976 
  "/>
<polyline clip-path="url(#clip392)" style="stroke:#000000; stroke-width:2; stroke-opacity:0.1; fill:none" points="
  240.472,1759.53 1811.02,1759.53 
  "/>
<polyline clip-path="url(#clip392)" style="stroke:#000000; stroke-width:2; stroke-opacity:0.1; fill:none" points="
  240.472,974.252 1811.02,974.252 
  "/>
<polyline clip-path="url(#clip392)" style="stroke:#000000; stroke-width:2; stroke-opacity:0.1; fill:none" points="
  240.472,188.976 1811.02,188.976 
  "/>
<polyline clip-path="url(#clip390)" style="stroke:#000000; stroke-width:4; stroke-opacity:1; fill:none" points="
  240.472,1759.53 1811.02,1759.53 
  "/>
<polyline clip-path="url(#clip390)" style="stroke:#000000; stroke-width:4; stroke-opacity:1; fill:none" points="
  240.472,1759.53 240.472,188.976 
  "/>
<polyline clip-path="url(#clip390)" style="stroke:#000000; stroke-width:4; stroke-opacity:1; fill:none" points="
  240.472,1759.53 240.472,1740.68 
  "/>
<polyline clip-path="url(#clip390)" style="stroke:#000000; stroke-width:4; stroke-opacity:1; fill:none" points="
  1025.75,1759.53 1025.75,1740.68 
  "/>
<polyline clip-path="url(#clip390)" style="stroke:#000000; stroke-width:4; stroke-opacity:1; fill:none" points="
  1811.02,1759.53 1811.02,1740.68 
  "/>
<polyline clip-path="url(#clip390)" style="stroke:#000000; stroke-width:4; stroke-opacity:1; fill:none" points="
  240.472,1759.53 259.319,1759.53 
  "/>
<polyline clip-path="url(#clip390)" style="stroke:#000000; stroke-width:4; stroke-opacity:1; fill:none" points="
  240.472,974.252 259.319,974.252 
  "/>
<polyline clip-path="url(#clip390)" style="stroke:#000000; stroke-width:4; stroke-opacity:1; fill:none" points="
  240.472,188.976 259.319,188.976 
  "/>
<path clip-path="url(#clip390)" d="M 0 0 M221.341 1796.12 L233.817 1796.12 L233.817 1799.91 L221.341 1799.91 L221.341 1796.12 Z" fill="#000000" fill-rule="evenodd" fill-opacity="1" /><path clip-path="url(#clip390)" d="M 0 0 M239.697 1807.06 L247.336 1807.06 L247.336 1780.7 L239.026 1782.37 L239.026 1778.11 L247.29 1776.44 L251.965 1776.44 L251.965 1807.06 L259.604 1807.06 L259.604 1811 L239.697 1811 L239.697 1807.06 Z" fill="#000000" fill-rule="evenodd" fill-opacity="1" /><path clip-path="url(#clip390)" d="M 0 0 M1025.75 1779.52 Q1022.14 1779.52 1020.31 1783.08 Q1018.5 1786.62 1018.5 1793.75 Q1018.5 1800.86 1020.31 1804.43 Q1022.14 1807.97 1025.75 1807.97 Q1029.38 1807.97 1031.19 1804.43 Q1033.02 1800.86 1033.02 1793.75 Q1033.02 1786.62 1031.19 1783.08 Q1029.38 1779.52 1025.75 1779.52 M1025.75 1775.81 Q1031.56 1775.81 1034.61 1780.42 Q1037.69 1785 1037.69 1793.75 Q1037.69 1802.48 1034.61 1807.09 Q1031.56 1811.67 1025.75 1811.67 Q1019.94 1811.67 1016.86 1807.09 Q1013.8 1802.48 1013.8 1793.75 Q1013.8 1785 1016.86 1780.42 Q1019.94 1775.81 1025.75 1775.81 Z" fill="#000000" fill-rule="evenodd" fill-opacity="1" /><path clip-path="url(#clip390)" d="M 0 0 M1801.41 1807.06 L1809.04 1807.06 L1809.04 1780.7 L1800.73 1782.37 L1800.73 1778.11 L1809 1776.44 L1813.67 1776.44 L1813.67 1807.06 L1821.31 1807.06 L1821.31 1811 L1801.41 1811 L1801.41 1807.06 Z" fill="#000000" fill-rule="evenodd" fill-opacity="1" /><path clip-path="url(#clip390)" d="M 0 0 M182.209 1761.92 L194.686 1761.92 L194.686 1765.72 L182.209 1765.72 L182.209 1761.92 Z" fill="#000000" fill-rule="evenodd" fill-opacity="1" /><path clip-path="url(#clip390)" d="M 0 0 M200.565 1772.87 L208.204 1772.87 L208.204 1746.51 L199.894 1748.17 L199.894 1743.91 L208.158 1742.25 L212.834 1742.25 L212.834 1772.87 L220.472 1772.87 L220.472 1776.81 L200.565 1776.81 L200.565 1772.87 Z" fill="#000000" fill-rule="evenodd" fill-opacity="1" /><path clip-path="url(#clip390)" d="M 0 0 M208.528 960.051 Q204.917 960.051 203.088 963.615 Q201.283 967.157 201.283 974.287 Q201.283 981.393 203.088 984.958 Q204.917 988.5 208.528 988.5 Q212.162 988.5 213.968 984.958 Q215.797 981.393 215.797 974.287 Q215.797 967.157 213.968 963.615 Q212.162 960.051 208.528 960.051 M208.528 956.347 Q214.338 956.347 217.394 960.953 Q220.472 965.537 220.472 974.287 Q220.472 983.013 217.394 987.62 Q214.338 992.203 208.528 992.203 Q202.718 992.203 199.639 987.62 Q196.584 983.013 196.584 974.287 Q196.584 965.537 199.639 960.953 Q202.718 956.347 208.528 956.347 Z" fill="#000000" fill-rule="evenodd" fill-opacity="1" /><path clip-path="url(#clip390)" d="M 0 0 M200.565 202.321 L208.204 202.321 L208.204 175.956 L199.894 177.622 L199.894 173.363 L208.158 171.696 L212.834 171.696 L212.834 202.321 L220.472 202.321 L220.472 206.256 L200.565 206.256 L200.565 202.321 Z" fill="#000000" fill-rule="evenodd" fill-opacity="1" /><path clip-path="url(#clip390)" d="M 0 0 M912.82 1840.87 L919.727 1840.87 L931.536 1858.54 L943.408 1840.87 L950.314 1840.87 L935.037 1863.69 L951.333 1888.39 L944.426 1888.39 L931.058 1868.18 L917.595 1888.39 L910.656 1888.39 L927.621 1863.02 L912.82 1840.87 Z" fill="#000000" fill-rule="evenodd" fill-opacity="1" /><path clip-path="url(#clip390)" d="M 0 0 M992.264 1838.93 Q987.999 1846.25 985.931 1853.41 Q983.862 1860.57 983.862 1867.93 Q983.862 1875.28 985.931 1882.5 Q988.031 1889.7 992.264 1896.99 L987.172 1896.99 Q982.398 1889.51 980.01 1882.28 Q977.655 1875.06 977.655 1867.93 Q977.655 1860.83 980.01 1853.63 Q982.366 1846.44 987.172 1838.93 L992.264 1838.93 Z" fill="#000000" fill-rule="evenodd" fill-opacity="1" /><path clip-path="url(#clip390)" d="M 0 0 M1004.77 1882.98 L1027.21 1882.98 L1027.21 1888.39 L997.039 1888.39 L997.039 1882.98 Q1000.7 1879.19 1007 1872.83 Q1013.33 1866.43 1014.96 1864.58 Q1018.05 1861.11 1019.26 1858.73 Q1020.5 1856.31 1020.5 1853.98 Q1020.5 1850.2 1017.82 1847.81 Q1015.18 1845.42 1010.92 1845.42 Q1007.89 1845.42 1004.52 1846.47 Q1001.18 1847.52 997.357 1849.66 L997.357 1843.16 Q1001.24 1841.6 1004.61 1840.81 Q1007.99 1840.01 1010.79 1840.01 Q1018.17 1840.01 1022.57 1843.7 Q1026.96 1847.4 1026.96 1853.57 Q1026.96 1856.5 1025.84 1859.14 Q1024.76 1861.75 1021.86 1865.32 Q1021.07 1866.24 1016.8 1870.66 Q1012.54 1875.06 1004.77 1882.98 Z" fill="#000000" fill-rule="evenodd" fill-opacity="1" /><path clip-path="url(#clip390)" d="M 0 0 M1035.3 1882.98 L1045.8 1882.98 L1045.8 1846.73 L1034.37 1849.02 L1034.37 1843.16 L1045.74 1840.87 L1052.17 1840.87 L1052.17 1882.98 L1062.67 1882.98 L1062.67 1888.39 L1035.3 1888.39 L1035.3 1882.98 Z" fill="#000000" fill-rule="evenodd" fill-opacity="1" /><path clip-path="url(#clip390)" d="M 0 0 M1110.06 1867.48 Q1107.29 1867.48 1105.7 1869.84 Q1104.14 1872.19 1104.14 1876.39 Q1104.14 1880.53 1105.7 1882.92 Q1107.29 1885.27 1110.06 1885.27 Q1112.77 1885.27 1114.33 1882.92 Q1115.92 1880.53 1115.92 1876.39 Q1115.92 1872.22 1114.33 1869.87 Q1112.77 1867.48 1110.06 1867.48 M1110.06 1863.44 Q1115.09 1863.44 1118.05 1866.94 Q1121.01 1870.44 1121.01 1876.39 Q1121.01 1882.34 1118.02 1885.85 Q1115.06 1889.31 1110.06 1889.31 Q1104.97 1889.31 1102.01 1885.85 Q1099.05 1882.34 1099.05 1876.39 Q1099.05 1870.41 1102.01 1866.94 Q1105 1863.44 1110.06 1863.44 M1077.21 1844.05 Q1074.48 1844.05 1072.89 1846.44 Q1071.33 1848.8 1071.33 1852.93 Q1071.33 1857.14 1072.89 1859.49 Q1074.45 1861.85 1077.21 1861.85 Q1079.98 1861.85 1081.54 1859.49 Q1083.13 1857.14 1083.13 1852.93 Q1083.13 1848.83 1081.54 1846.44 Q1079.95 1844.05 1077.21 1844.05 M1105.96 1840.01 L1111.05 1840.01 L1081.32 1889.31 L1076.23 1889.31 L1105.96 1840.01 M1077.21 1840.01 Q1082.24 1840.01 1085.24 1843.51 Q1088.23 1846.98 1088.23 1852.93 Q1088.23 1858.95 1085.24 1862.42 Q1082.28 1865.89 1077.21 1865.89 Q1072.15 1865.89 1069.19 1862.42 Q1066.27 1858.92 1066.27 1852.93 Q1066.27 1847.01 1069.23 1843.51 Q1072.19 1840.01 1077.21 1840.01 Z" fill="#000000" fill-rule="evenodd" fill-opacity="1" /><path clip-path="url(#clip390)" d="M 0 0 M1126.23 1838.93 L1131.32 1838.93 Q1136.1 1846.44 1138.45 1853.63 Q1140.84 1860.83 1140.84 1867.93 Q1140.84 1875.06 1138.45 1882.28 Q1136.1 1889.51 1131.32 1896.99 L1126.23 1896.99 Q1130.46 1889.7 1132.53 1882.5 Q1134.63 1875.28 1134.63 1867.93 Q1134.63 1860.57 1132.53 1853.41 Q1130.46 1846.25 1126.23 1838.93 Z" fill="#000000" fill-rule="evenodd" fill-opacity="1" /><path clip-path="url(#clip390)" d="M 0 0 M100.433 1089.69 L100.433 1082.79 L119.975 1069.61 L100.433 1056.53 L100.433 1049.62 L125.323 1066.43 L147.953 1066.43 L147.953 1072.89 L125.323 1072.89 L100.433 1089.69 Z" fill="#000000" fill-rule="evenodd" fill-opacity="1" /><path clip-path="url(#clip390)" d="M 0 0 M98.4912 1008.69 Q105.812 1012.96 112.973 1015.02 Q120.135 1017.09 127.487 1017.09 Q134.839 1017.09 142.064 1015.02 Q149.258 1012.92 156.546 1008.69 L156.546 1013.78 Q149.067 1018.56 141.842 1020.94 Q134.617 1023.3 127.487 1023.3 Q120.389 1023.3 113.196 1020.94 Q106.003 1018.59 98.4912 1013.78 L98.4912 1008.69 Z" fill="#000000" fill-rule="evenodd" fill-opacity="1" /><path clip-path="url(#clip390)" d="M 0 0 M142.542 1000.61 L142.542 990.103 L106.289 990.103 L108.581 1001.53 L102.724 1001.53 L100.433 990.166 L100.433 983.737 L142.542 983.737 L142.542 973.233 L147.953 973.233 L147.953 1000.61 L142.542 1000.61 Z" fill="#000000" fill-rule="evenodd" fill-opacity="1" /><path clip-path="url(#clip390)" d="M 0 0 M122.331 946.784 Q123.317 942.169 126.437 939.591 Q129.556 936.981 134.139 936.981 Q141.173 936.981 145.025 941.819 Q148.876 946.657 148.876 955.569 Q148.876 958.561 148.271 961.743 Q147.698 964.894 146.52 968.268 L140.314 968.268 Q141.874 965.595 142.669 962.412 Q143.465 959.229 143.465 955.76 Q143.465 949.712 141.078 946.561 Q138.691 943.378 134.139 943.378 Q129.938 943.378 127.582 946.338 Q125.195 949.267 125.195 954.518 L125.195 960.056 L119.912 960.056 L119.912 954.264 Q119.912 949.521 118.034 947.007 Q116.124 944.492 112.559 944.492 Q108.899 944.492 106.958 947.102 Q104.984 949.68 104.984 954.518 Q104.984 957.16 105.557 960.184 Q106.13 963.207 107.34 966.836 L101.61 966.836 Q100.592 963.176 100.083 959.993 Q99.5734 956.778 99.5734 953.945 Q99.5734 946.625 102.915 942.36 Q106.226 938.095 111.891 938.095 Q115.838 938.095 118.575 940.355 Q121.28 942.614 122.331 946.784 Z" fill="#000000" fill-rule="evenodd" fill-opacity="1" /><path clip-path="url(#clip390)" d="M 0 0 M127.041 889.588 Q127.041 892.357 129.397 893.949 Q131.752 895.508 135.953 895.508 Q140.091 895.508 142.478 893.949 Q144.834 892.357 144.834 889.588 Q144.834 886.883 142.478 885.323 Q140.091 883.732 135.953 883.732 Q131.784 883.732 129.429 885.323 Q127.041 886.883 127.041 889.588 M122.999 889.588 Q122.999 884.559 126.5 881.599 Q130.001 878.639 135.953 878.639 Q141.905 878.639 145.406 881.631 Q148.876 884.591 148.876 889.588 Q148.876 894.681 145.406 897.641 Q141.905 900.601 135.953 900.601 Q129.97 900.601 126.5 897.641 Q122.999 894.649 122.999 889.588 M103.616 922.435 Q103.616 925.172 106.003 926.764 Q108.358 928.323 112.496 928.323 Q116.697 928.323 119.052 926.764 Q121.408 925.204 121.408 922.435 Q121.408 919.666 119.052 918.106 Q116.697 916.515 112.496 916.515 Q108.39 916.515 106.003 918.106 Q103.616 919.698 103.616 922.435 M99.5734 893.694 L99.5734 888.601 L148.876 918.329 L148.876 923.422 L99.5734 893.694 M99.5734 922.435 Q99.5734 917.406 103.075 914.414 Q106.544 911.422 112.496 911.422 Q118.511 911.422 121.981 914.414 Q125.45 917.374 125.45 922.435 Q125.45 927.496 121.981 930.456 Q118.48 933.384 112.496 933.384 Q106.576 933.384 103.075 930.424 Q99.5734 927.464 99.5734 922.435 Z" fill="#000000" fill-rule="evenodd" fill-opacity="1" /><path clip-path="url(#clip390)" d="M 0 0 M98.4912 873.419 L98.4912 868.327 Q106.003 863.552 113.196 861.197 Q120.389 858.81 127.487 858.81 Q134.617 858.81 141.842 861.197 Q149.067 863.552 156.546 868.327 L156.546 873.419 Q149.258 869.186 142.064 867.117 Q134.839 865.016 127.487 865.016 Q120.135 865.016 112.973 867.117 Q105.812 869.186 98.4912 873.419 Z" fill="#000000" fill-rule="evenodd" fill-opacity="1" /><polyline clip-path="url(#clip392)" style="stroke:#ffa500; stroke-width:0.57127; stroke-opacity:1; fill:none" points="
  91.3047,1077.99 1962.44,-296.883 
  "/>
<polyline clip-path="url(#clip392)" style="stroke:#ffa500; stroke-width:0.310112; stroke-opacity:1; fill:none" points="
  725.003,1532.64 827.193,740.6 
  "/>
<polyline clip-path="url(#clip392)" style="stroke:#ffa500; stroke-width:0.344254; stroke-opacity:1; fill:none" points="
  -720.054,872.989 725.003,1532.64 
  "/>
<polyline clip-path="url(#clip392)" style="stroke:#800080; stroke-width:2.41942; stroke-opacity:1; fill:none" points="
  -720.054,872.989 1891.9,1930.21 
  "/>
<polyline clip-path="url(#clip392)" style="stroke:#ffa500; stroke-width:3.09601; stroke-opacity:1; fill:none" points="
  827.193,740.6 1962.44,-296.883 
  "/>
<polyline clip-path="url(#clip392)" style="stroke:#800080; stroke-width:3.5991; stroke-opacity:1; fill:none" points="
  -720.054,872.989 827.193,740.6 
  "/>
<polyline clip-path="url(#clip392)" style="stroke:#ffa500; stroke-width:4.58072; stroke-opacity:1; fill:none" points="
  827.193,740.6 1891.9,1930.21 
  "/>
<polyline clip-path="url(#clip392)" style="stroke:#ffa500; stroke-width:1.47784; stroke-opacity:1; fill:none" points="
  725.003,1532.64 1891.9,1930.21 
  "/>
<polyline clip-path="url(#clip392)" style="stroke:#800080; stroke-width:6.48496; stroke-opacity:1; fill:none" points="
  -720.054,872.989 91.3047,1077.99 
  "/>
<polyline clip-path="url(#clip392)" style="stroke:#ffa500; stroke-width:0.694986; stroke-opacity:1; fill:none" points="
  725.003,1532.64 1962.44,-296.883 
  "/>
<polyline clip-path="url(#clip392)" style="stroke:#ffa500; stroke-width:8; stroke-opacity:1; fill:none" points="
  1891.9,1930.21 1962.44,-296.883 
  "/>
<polyline clip-path="url(#clip392)" style="stroke:#800080; stroke-width:2.90053; stroke-opacity:1; fill:none" points="
  91.3047,1077.99 827.193,740.6 
  "/>
<polyline clip-path="url(#clip392)" style="stroke:#800080; stroke-width:2.12299; stroke-opacity:1; fill:none" points="
  91.3047,1077.99 725.003,1532.64 
  "/>
<polyline clip-path="url(#clip392)" style="stroke:#800080; stroke-width:2.00262; stroke-opacity:1; fill:none" points="
  -720.054,872.989 1962.44,-296.883 
  "/>
<polyline clip-path="url(#clip392)" style="stroke:#ffa500; stroke-width:0.179937; stroke-opacity:1; fill:none" points="
  91.3047,1077.99 1891.9,1930.21 
  "/>
<circle clip-path="url(#clip392)" cx="827.193" cy="740.6" r="23" fill="#000000" fill-rule="evenodd" fill-opacity="1" stroke="none"/>
<circle clip-path="url(#clip392)" cx="725.003" cy="1532.64" r="8" fill="#000000" fill-rule="evenodd" fill-opacity="1" stroke="none"/>
<path clip-path="url(#clip390)" d="M 0 0 M800.117 747.322 L800.117 764.118 L803.647 764.118 Q808.118 764.118 810.187 762.093 Q812.27 760.067 812.27 755.698 Q812.27 751.358 810.187 749.347 Q808.118 747.322 803.647 747.322 L800.117 747.322 M797.195 744.92 L803.199 744.92 Q809.478 744.92 812.415 747.539 Q815.352 750.143 815.352 755.698 Q815.352 761.283 812.4 763.901 Q809.449 766.52 803.199 766.52 L797.195 766.52 L797.195 744.92 Z" fill="#000000" fill-rule="evenodd" fill-opacity="1" /><path clip-path="url(#clip390)" d="M 0 0 M825.508 758.375 Q822.282 758.375 821.037 759.113 Q819.793 759.85 819.793 761.63 Q819.793 763.048 820.719 763.887 Q821.659 764.712 823.265 764.712 Q825.479 764.712 826.81 763.149 Q828.155 761.572 828.155 758.968 L828.155 758.375 L825.508 758.375 M830.817 757.275 L830.817 766.52 L828.155 766.52 L828.155 764.06 Q827.244 765.536 825.884 766.245 Q824.524 766.94 822.556 766.94 Q820.068 766.94 818.592 765.551 Q817.131 764.147 817.131 761.804 Q817.131 759.069 818.954 757.68 Q820.791 756.291 824.423 756.291 L828.155 756.291 L828.155 756.031 Q828.155 754.194 826.94 753.195 Q825.739 752.183 823.555 752.183 Q822.166 752.183 820.849 752.515 Q819.533 752.848 818.317 753.514 L818.317 751.054 Q819.779 750.49 821.153 750.215 Q822.527 749.926 823.83 749.926 Q827.345 749.926 829.081 751.749 Q830.817 753.572 830.817 757.275 Z" fill="#000000" fill-rule="evenodd" fill-opacity="1" /><path clip-path="url(#clip390)" d="M 0 0 M836.243 745.716 L836.243 750.316 L841.726 750.316 L841.726 752.385 L836.243 752.385 L836.243 761.181 Q836.243 763.163 836.778 763.728 Q837.328 764.292 838.992 764.292 L841.726 764.292 L841.726 766.52 L838.992 766.52 Q835.91 766.52 834.738 765.377 Q833.566 764.22 833.566 761.181 L833.566 752.385 L831.613 752.385 L831.613 750.316 L833.566 750.316 L833.566 745.716 L836.243 745.716 Z" fill="#000000" fill-rule="evenodd" fill-opacity="1" /><path clip-path="url(#clip390)" d="M 0 0 M851.882 758.375 Q848.656 758.375 847.412 759.113 Q846.167 759.85 846.167 761.63 Q846.167 763.048 847.093 763.887 Q848.034 764.712 849.64 764.712 Q851.853 764.712 853.184 763.149 Q854.53 761.572 854.53 758.968 L854.53 758.375 L851.882 758.375 M857.192 757.275 L857.192 766.52 L854.53 766.52 L854.53 764.06 Q853.618 765.536 852.258 766.245 Q850.898 766.94 848.931 766.94 Q846.442 766.94 844.967 765.551 Q843.505 764.147 843.505 761.804 Q843.505 759.069 845.328 757.68 Q847.166 756.291 850.797 756.291 L854.53 756.291 L854.53 756.031 Q854.53 754.194 853.314 753.195 Q852.114 752.183 849.929 752.183 Q848.54 752.183 847.224 752.515 Q845.907 752.848 844.692 753.514 L844.692 751.054 Q846.153 750.49 847.527 750.215 Q848.902 749.926 850.204 749.926 Q853.719 749.926 855.456 751.749 Q857.192 753.572 857.192 757.275 Z" fill="#000000" fill-rule="evenodd" fill-opacity="1" /><path clip-path="url(#clip390)" d="M 0 0 M-50.5999 1082.31 L-32.3274 1082.31 L-32.3274 1084.77 L-39.9952 1084.77 L-39.9952 1103.91 L-42.9321 1103.91 L-42.9321 1084.77 L-50.5999 1084.77 L-50.5999 1082.31 Z" fill="#000000" fill-rule="evenodd" fill-opacity="1" /><path clip-path="url(#clip390)" d="M 0 0 M-20.71 1095.14 L-20.71 1096.44 L-32.9495 1096.44 Q-32.7759 1099.19 -31.3003 1100.64 Q-29.8101 1102.07 -27.1625 1102.07 Q-25.629 1102.07 -24.1967 1101.69 Q-22.7499 1101.32 -21.3321 1100.56 L-21.3321 1103.08 Q-22.7644 1103.69 -24.269 1104.01 Q-25.7737 1104.33 -27.3217 1104.33 Q-31.199 1104.33 -33.4704 1102.07 Q-35.7273 1099.81 -35.7273 1095.96 Q-35.7273 1091.98 -33.5861 1089.66 Q-31.4305 1087.31 -27.7846 1087.31 Q-24.515 1087.31 -22.6197 1089.42 Q-20.71 1091.52 -20.71 1095.14 M-23.3721 1094.36 Q-23.401 1092.17 -24.6018 1090.87 Q-25.7881 1089.57 -27.7557 1089.57 Q-29.9837 1089.57 -31.3292 1090.83 Q-32.6602 1092.09 -32.8627 1094.37 L-23.3721 1094.36 Z" fill="#000000" fill-rule="evenodd" fill-opacity="1" /><path clip-path="url(#clip390)" d="M 0 0 M-6.25698 1088.32 L-6.25698 1090.81 Q-7.38545 1090.19 -8.52838 1089.89 Q-9.65685 1089.57 -10.8142 1089.57 Q-13.4039 1089.57 -14.8362 1091.22 Q-16.2685 1092.85 -16.2685 1095.82 Q-16.2685 1098.78 -14.8362 1100.43 Q-13.4039 1102.07 -10.8142 1102.07 Q-9.65685 1102.07 -8.52838 1101.76 Q-7.38545 1101.45 -6.25698 1100.82 L-6.25698 1103.28 Q-7.37098 1103.8 -8.57179 1104.07 Q-9.75812 1104.33 -11.1036 1104.33 Q-14.7639 1104.33 -16.9195 1102.03 Q-19.0752 1099.73 -19.0752 1095.82 Q-19.0752 1091.85 -16.9051 1089.58 Q-14.7205 1087.31 -10.93 1087.31 Q-9.70025 1087.31 -8.52838 1087.57 Q-7.35651 1087.82 -6.25698 1088.32 Z" fill="#000000" fill-rule="evenodd" fill-opacity="1" /><path clip-path="url(#clip390)" d="M 0 0 M10.0045 1094.13 L10.0045 1103.91 L7.34248 1103.91 L7.34248 1094.21 Q7.34248 1091.91 6.4455 1090.77 Q5.54851 1089.63 3.75454 1089.63 Q1.59888 1089.63 0.354672 1091 Q-0.889535 1092.38 -0.889535 1094.75 L-0.889535 1103.91 L-3.56602 1103.91 L-3.56602 1081.39 L-0.889535 1081.39 L-0.889535 1090.22 Q0.0653215 1088.76 1.35293 1088.04 Q2.65501 1087.31 4.34771 1087.31 Q7.13994 1087.31 8.57222 1089.05 Q10.0045 1090.77 10.0045 1094.13 Z" fill="#000000" fill-rule="evenodd" fill-opacity="1" /><path clip-path="url(#clip390)" d="M 0 0 M26.266 1094.13 L26.266 1103.91 L23.604 1103.91 L23.604 1094.21 Q23.604 1091.91 22.707 1090.77 Q21.81 1089.63 20.016 1089.63 Q17.8604 1089.63 16.6162 1091 Q15.372 1092.38 15.372 1094.75 L15.372 1103.91 L12.6955 1103.91 L12.6955 1087.7 L15.372 1087.7 L15.372 1090.22 Q16.3268 1088.76 17.6144 1088.04 Q18.9165 1087.31 20.6092 1087.31 Q23.4014 1087.31 24.8337 1089.05 Q26.266 1090.77 26.266 1094.13 Z" fill="#000000" fill-rule="evenodd" fill-opacity="1" /><path clip-path="url(#clip390)" d="M 0 0 M29.0582 1087.7 L31.7202 1087.7 L31.7202 1103.91 L29.0582 1103.91 L29.0582 1087.7 M29.0582 1081.39 L31.7202 1081.39 L31.7202 1084.77 L29.0582 1084.77 L29.0582 1081.39 Z" fill="#000000" fill-rule="evenodd" fill-opacity="1" /><path clip-path="url(#clip390)" d="M 0 0 M46.1733 1088.32 L46.1733 1090.81 Q45.0448 1090.19 43.9019 1089.89 Q42.7734 1089.57 41.616 1089.57 Q39.0263 1089.57 37.5941 1091.22 Q36.1618 1092.85 36.1618 1095.82 Q36.1618 1098.78 37.5941 1100.43 Q39.0263 1102.07 41.616 1102.07 Q42.7734 1102.07 43.9019 1101.76 Q45.0448 1101.45 46.1733 1100.82 L46.1733 1103.28 Q45.0593 1103.8 43.8585 1104.07 Q42.6722 1104.33 41.3267 1104.33 Q37.6664 1104.33 35.5107 1102.03 Q33.3551 1099.73 33.3551 1095.82 Q33.3551 1091.85 35.5252 1089.58 Q37.7098 1087.31 41.5003 1087.31 Q42.73 1087.31 43.9019 1087.57 Q45.0738 1087.82 46.1733 1088.32 Z" fill="#000000" fill-rule="evenodd" fill-opacity="1" /><path clip-path="url(#clip390)" d="M 0 0 M56.3295 1095.76 Q53.1032 1095.76 51.859 1096.5 Q50.6148 1097.24 50.6148 1099.02 Q50.6148 1100.43 51.5407 1101.27 Q52.4811 1102.1 54.087 1102.1 Q56.3006 1102.1 57.6316 1100.54 Q58.977 1098.96 58.977 1096.35 L58.977 1095.76 L56.3295 1095.76 M61.6391 1094.66 L61.6391 1103.91 L58.977 1103.91 L58.977 1101.45 Q58.0656 1102.92 56.7056 1103.63 Q55.3457 1104.33 53.3781 1104.33 Q50.8897 1104.33 49.414 1102.94 Q47.9528 1101.53 47.9528 1099.19 Q47.9528 1096.46 49.7757 1095.07 Q51.6131 1093.68 55.2444 1093.68 L58.977 1093.68 L58.977 1093.42 Q58.977 1091.58 57.7618 1090.58 Q56.561 1089.57 54.3764 1089.57 Q52.9875 1089.57 51.6709 1089.9 Q50.3544 1090.23 49.1391 1090.9 L49.1391 1088.44 Q50.6004 1087.88 51.9748 1087.6 Q53.3492 1087.31 54.6513 1087.31 Q58.1669 1087.31 59.903 1089.13 Q61.6391 1090.96 61.6391 1094.66 Z" fill="#000000" fill-rule="evenodd" fill-opacity="1" /><path clip-path="url(#clip390)" d="M 0 0 M64.4313 1081.39 L67.0933 1081.39 L67.0933 1103.91 L64.4313 1103.91 L64.4313 1081.39 Z" fill="#000000" fill-rule="evenodd" fill-opacity="1" /><path clip-path="url(#clip390)" d="M 0 0 M82.1974 1108.83 L82.1974 1110.89 L66.804 1110.89 L66.804 1108.83 L82.1974 1108.83 Z" fill="#000000" fill-rule="evenodd" fill-opacity="1" /><path clip-path="url(#clip390)" d="M 0 0 M101.28 1083.97 L101.28 1087.05 Q99.8044 1085.68 98.1261 1085 Q96.4624 1084.32 94.5816 1084.32 Q90.8779 1084.32 88.9103 1086.59 Q86.9427 1088.85 86.9427 1093.13 Q86.9427 1097.4 88.9103 1099.67 Q90.8779 1101.92 94.5816 1101.92 Q96.4624 1101.92 98.1261 1101.24 Q99.8044 1100.56 101.28 1099.19 L101.28 1102.24 Q99.7465 1103.28 98.0249 1103.8 Q96.3177 1104.33 94.408 1104.33 Q89.5035 1104.33 86.6823 1101.33 Q83.8612 1098.32 83.8612 1093.13 Q83.8612 1087.92 86.6823 1084.92 Q89.5035 1081.92 94.408 1081.92 Q96.3466 1081.92 98.0538 1082.44 Q99.7754 1082.94 101.28 1083.97 Z" fill="#000000" fill-rule="evenodd" fill-opacity="1" /><path clip-path="url(#clip390)" d="M 0 0 M110.351 1089.57 Q108.21 1089.57 106.966 1091.25 Q105.722 1092.91 105.722 1095.82 Q105.722 1098.73 106.951 1100.41 Q108.196 1102.07 110.351 1102.07 Q112.478 1102.07 113.722 1100.39 Q114.966 1098.71 114.966 1095.82 Q114.966 1092.94 113.722 1091.26 Q112.478 1089.57 110.351 1089.57 M110.351 1087.31 Q113.823 1087.31 115.805 1089.57 Q117.787 1091.83 117.787 1095.82 Q117.787 1099.8 115.805 1102.07 Q113.823 1104.33 110.351 1104.33 Q106.865 1104.33 104.882 1102.07 Q102.915 1099.8 102.915 1095.82 Q102.915 1091.83 104.882 1089.57 Q106.865 1087.31 110.351 1087.31 Z" fill="#000000" fill-rule="evenodd" fill-opacity="1" /><path clip-path="url(#clip390)" d="M 0 0 M134.049 1094.13 L134.049 1103.91 L131.387 1103.91 L131.387 1094.21 Q131.387 1091.91 130.49 1090.77 Q129.593 1089.63 127.799 1089.63 Q125.643 1089.63 124.399 1091 Q123.155 1092.38 123.155 1094.75 L123.155 1103.91 L120.478 1103.91 L120.478 1087.7 L123.155 1087.7 L123.155 1090.22 Q124.11 1088.76 125.397 1088.04 Q126.699 1087.31 128.392 1087.31 Q131.184 1087.31 132.617 1089.05 Q134.049 1090.77 134.049 1094.13 Z" fill="#000000" fill-rule="evenodd" fill-opacity="1" /><path clip-path="url(#clip390)" d="M 0 0 M147.171 1088.18 L147.171 1090.7 Q146.043 1090.12 144.827 1089.83 Q143.612 1089.54 142.31 1089.54 Q140.328 1089.54 139.33 1090.15 Q138.346 1090.76 138.346 1091.97 Q138.346 1092.9 139.055 1093.43 Q139.764 1093.95 141.905 1094.43 L142.816 1094.63 Q145.652 1095.24 146.838 1096.35 Q148.039 1097.45 148.039 1099.44 Q148.039 1101.69 146.245 1103.01 Q144.466 1104.33 141.341 1104.33 Q140.039 1104.33 138.621 1104.07 Q137.217 1103.82 135.655 1103.31 L135.655 1100.56 Q137.131 1101.33 138.563 1101.72 Q139.995 1102.1 141.398 1102.1 Q143.279 1102.1 144.292 1101.46 Q145.305 1100.81 145.305 1099.64 Q145.305 1098.55 144.567 1097.97 Q143.843 1097.4 141.37 1096.86 L140.444 1096.64 Q137.97 1096.12 136.87 1095.05 Q135.771 1093.97 135.771 1092.09 Q135.771 1089.8 137.391 1088.56 Q139.011 1087.31 141.992 1087.31 Q143.467 1087.31 144.769 1087.53 Q146.071 1087.75 147.171 1088.18 Z" fill="#000000" fill-rule="evenodd" fill-opacity="1" /><path clip-path="url(#clip390)" d="M 0 0 M153.464 1083.1 L153.464 1087.7 L158.948 1087.7 L158.948 1089.77 L153.464 1089.77 L153.464 1098.57 Q153.464 1100.55 154 1101.11 Q154.549 1101.68 156.213 1101.68 L158.948 1101.68 L158.948 1103.91 L156.213 1103.91 Q153.132 1103.91 151.96 1102.76 Q150.788 1101.61 150.788 1098.57 L150.788 1089.77 L148.835 1089.77 L148.835 1087.7 L150.788 1087.7 L150.788 1083.1 L153.464 1083.1 Z" fill="#000000" fill-rule="evenodd" fill-opacity="1" /><path clip-path="url(#clip390)" d="M 0 0 M171.129 1090.19 Q170.681 1089.93 170.145 1089.81 Q169.625 1089.68 168.988 1089.68 Q166.731 1089.68 165.516 1091.16 Q164.315 1092.62 164.315 1095.37 L164.315 1103.91 L161.639 1103.91 L161.639 1087.7 L164.315 1087.7 L164.315 1090.22 Q165.154 1088.74 166.5 1088.04 Q167.845 1087.31 169.769 1087.31 Q170.044 1087.31 170.377 1087.36 Q170.71 1087.38 171.115 1087.46 L171.129 1090.19 Z" fill="#000000" fill-rule="evenodd" fill-opacity="1" /><path clip-path="url(#clip390)" d="M 0 0 M181.285 1095.76 Q178.059 1095.76 176.815 1096.5 Q175.571 1097.24 175.571 1099.02 Q175.571 1100.43 176.497 1101.27 Q177.437 1102.1 179.043 1102.1 Q181.256 1102.1 182.587 1100.54 Q183.933 1098.96 183.933 1096.35 L183.933 1095.76 L181.285 1095.76 M186.595 1094.66 L186.595 1103.91 L183.933 1103.91 L183.933 1101.45 Q183.022 1102.92 181.662 1103.63 Q180.302 1104.33 178.334 1104.33 Q175.846 1104.33 174.37 1102.94 Q172.909 1101.53 172.909 1099.19 Q172.909 1096.46 174.732 1095.07 Q176.569 1093.68 180.2 1093.68 L183.933 1093.68 L183.933 1093.42 Q183.933 1091.58 182.718 1090.58 Q181.517 1089.57 179.332 1089.57 Q177.943 1089.57 176.627 1089.9 Q175.31 1090.23 174.095 1090.9 L174.095 1088.44 Q175.556 1087.88 176.931 1087.6 Q178.305 1087.31 179.607 1087.31 Q183.123 1087.31 184.859 1089.13 Q186.595 1090.96 186.595 1094.66 Z" fill="#000000" fill-rule="evenodd" fill-opacity="1" /><path clip-path="url(#clip390)" d="M 0 0 M189.387 1087.7 L192.049 1087.7 L192.049 1103.91 L189.387 1103.91 L189.387 1087.7 M189.387 1081.39 L192.049 1081.39 L192.049 1084.77 L189.387 1084.77 L189.387 1081.39 Z" fill="#000000" fill-rule="evenodd" fill-opacity="1" /><path clip-path="url(#clip390)" d="M 0 0 M208.311 1094.13 L208.311 1103.91 L205.649 1103.91 L205.649 1094.21 Q205.649 1091.91 204.752 1090.77 Q203.855 1089.63 202.061 1089.63 Q199.905 1089.63 198.661 1091 Q197.417 1092.38 197.417 1094.75 L197.417 1103.91 L194.74 1103.91 L194.74 1087.7 L197.417 1087.7 L197.417 1090.22 Q198.372 1088.76 199.659 1088.04 Q200.961 1087.31 202.654 1087.31 Q205.446 1087.31 206.878 1089.05 Q208.311 1090.77 208.311 1094.13 Z" fill="#000000" fill-rule="evenodd" fill-opacity="1" /><path clip-path="url(#clip390)" d="M 0 0 M213.736 1083.1 L213.736 1087.7 L219.219 1087.7 L219.219 1089.77 L213.736 1089.77 L213.736 1098.57 Q213.736 1100.55 214.271 1101.11 Q214.821 1101.68 216.485 1101.68 L219.219 1101.68 L219.219 1103.91 L216.485 1103.91 Q213.403 1103.91 212.231 1102.76 Q211.06 1101.61 211.06 1098.57 L211.06 1089.77 L209.106 1089.77 L209.106 1087.7 L211.06 1087.7 L211.06 1083.1 L213.736 1083.1 Z" fill="#000000" fill-rule="evenodd" fill-opacity="1" /><path clip-path="url(#clip390)" d="M 0 0 M232.341 1088.18 L232.341 1090.7 Q231.213 1090.12 229.998 1089.83 Q228.782 1089.54 227.48 1089.54 Q225.498 1089.54 224.5 1090.15 Q223.516 1090.76 223.516 1091.97 Q223.516 1092.9 224.225 1093.43 Q224.934 1093.95 227.075 1094.43 L227.987 1094.63 Q230.822 1095.24 232.009 1096.35 Q233.209 1097.45 233.209 1099.44 Q233.209 1101.69 231.415 1103.01 Q229.636 1104.33 226.511 1104.33 Q225.209 1104.33 223.791 1104.07 Q222.388 1103.82 220.825 1103.31 L220.825 1100.56 Q222.301 1101.33 223.733 1101.72 Q225.165 1102.1 226.569 1102.1 Q228.45 1102.1 229.462 1101.46 Q230.475 1100.81 230.475 1099.64 Q230.475 1098.55 229.737 1097.97 Q229.014 1097.4 226.54 1096.86 L225.614 1096.64 Q223.14 1096.12 222.04 1095.05 Q220.941 1093.97 220.941 1092.09 Q220.941 1089.8 222.561 1088.56 Q224.182 1087.31 227.162 1087.31 Q228.638 1087.31 229.94 1087.53 Q231.242 1087.75 232.341 1088.18 Z" fill="#000000" fill-rule="evenodd" fill-opacity="1" /><path clip-path="url(#clip390)" d="M 0 0 M1795.09 -290.161 L1795.09 -282.045 L1798.77 -282.045 Q1800.81 -282.045 1801.92 -283.101 Q1803.04 -284.157 1803.04 -286.11 Q1803.04 -288.049 1801.92 -289.105 Q1800.81 -290.161 1798.77 -290.161 L1795.09 -290.161 M1792.17 -292.563 L1798.77 -292.563 Q1802.4 -292.563 1804.25 -290.913 Q1806.12 -289.279 1806.12 -286.11 Q1806.12 -282.913 1804.25 -281.278 Q1802.4 -279.643 1798.77 -279.643 L1795.09 -279.643 L1795.09 -270.963 L1792.17 -270.963 L1792.17 -292.563 Z" fill="#000000" fill-rule="evenodd" fill-opacity="1" /><path clip-path="url(#clip390)" d="M 0 0 M1821.71 -279.73 L1821.71 -278.428 L1809.47 -278.428 Q1809.65 -275.679 1811.12 -274.232 Q1812.61 -272.8 1815.26 -272.8 Q1816.79 -272.8 1818.23 -273.176 Q1819.67 -273.552 1821.09 -274.305 L1821.09 -271.787 Q1819.66 -271.18 1818.15 -270.861 Q1816.65 -270.543 1815.1 -270.543 Q1811.22 -270.543 1808.95 -272.8 Q1806.7 -275.057 1806.7 -278.905 Q1806.7 -282.884 1808.84 -285.213 Q1810.99 -287.557 1814.64 -287.557 Q1817.91 -287.557 1819.8 -285.445 Q1821.71 -283.347 1821.71 -279.73 M1819.05 -280.511 Q1819.02 -282.696 1817.82 -283.998 Q1816.64 -285.3 1814.67 -285.3 Q1812.44 -285.3 1811.09 -284.041 Q1809.76 -282.783 1809.56 -280.497 L1819.05 -280.511 Z" fill="#000000" fill-rule="evenodd" fill-opacity="1" /><path clip-path="url(#clip390)" d="M 0 0 M1833.9 -284.678 Q1833.45 -284.938 1832.91 -285.054 Q1832.39 -285.184 1831.75 -285.184 Q1829.5 -285.184 1828.28 -283.709 Q1827.08 -282.247 1827.08 -279.499 L1827.08 -270.963 L1824.4 -270.963 L1824.4 -287.166 L1827.08 -287.166 L1827.08 -284.649 Q1827.92 -286.125 1829.27 -286.834 Q1830.61 -287.557 1832.54 -287.557 Q1832.81 -287.557 1833.14 -287.514 Q1833.48 -287.485 1833.88 -287.412 L1833.9 -284.678 Z" fill="#000000" fill-rule="evenodd" fill-opacity="1" /><path clip-path="url(#clip390)" d="M 0 0 M1844.89 -293.474 L1844.89 -291.261 L1842.34 -291.261 Q1840.91 -291.261 1840.35 -290.682 Q1839.8 -290.103 1839.8 -288.599 L1839.8 -287.166 L1844.18 -287.166 L1844.18 -285.097 L1839.8 -285.097 L1839.8 -270.963 L1837.12 -270.963 L1837.12 -285.097 L1834.58 -285.097 L1834.58 -287.166 L1837.12 -287.166 L1837.12 -288.295 Q1837.12 -291 1838.38 -292.23 Q1839.64 -293.474 1842.37 -293.474 L1844.89 -293.474 Z" fill="#000000" fill-rule="evenodd" fill-opacity="1" /><path clip-path="url(#clip390)" d="M 0 0 M1853.96 -285.3 Q1851.82 -285.3 1850.58 -283.622 Q1849.33 -281.958 1849.33 -279.05 Q1849.33 -276.142 1850.56 -274.464 Q1851.81 -272.8 1853.96 -272.8 Q1856.09 -272.8 1857.33 -274.478 Q1858.58 -276.157 1858.58 -279.05 Q1858.58 -281.929 1857.33 -283.607 Q1856.09 -285.3 1853.96 -285.3 M1853.96 -287.557 Q1857.43 -287.557 1859.42 -285.3 Q1861.4 -283.043 1861.4 -279.05 Q1861.4 -275.072 1859.42 -272.8 Q1857.43 -270.543 1853.96 -270.543 Q1850.47 -270.543 1848.49 -272.8 Q1846.53 -275.072 1846.53 -279.05 Q1846.53 -283.043 1848.49 -285.3 Q1850.47 -287.557 1853.96 -287.557 Z" fill="#000000" fill-rule="evenodd" fill-opacity="1" /><path clip-path="url(#clip390)" d="M 0 0 M1873.58 -284.678 Q1873.13 -284.938 1872.6 -285.054 Q1872.07 -285.184 1871.44 -285.184 Q1869.18 -285.184 1867.97 -283.709 Q1866.77 -282.247 1866.77 -279.499 L1866.77 -270.963 L1864.09 -270.963 L1864.09 -287.166 L1866.77 -287.166 L1866.77 -284.649 Q1867.6 -286.125 1868.95 -286.834 Q1870.3 -287.557 1872.22 -287.557 Q1872.49 -287.557 1872.83 -287.514 Q1873.16 -287.485 1873.56 -287.412 L1873.58 -284.678 Z" fill="#000000" fill-rule="evenodd" fill-opacity="1" /><path clip-path="url(#clip390)" d="M 0 0 M1888.47 -284.056 Q1889.46 -285.85 1890.85 -286.703 Q1892.24 -287.557 1894.12 -287.557 Q1896.66 -287.557 1898.03 -285.777 Q1899.4 -284.012 1899.4 -280.743 L1899.4 -270.963 L1896.73 -270.963 L1896.73 -280.656 Q1896.73 -282.985 1895.9 -284.114 Q1895.08 -285.242 1893.39 -285.242 Q1891.32 -285.242 1890.12 -283.868 Q1888.91 -282.493 1888.91 -280.121 L1888.91 -270.963 L1886.24 -270.963 L1886.24 -280.656 Q1886.24 -283 1885.41 -284.114 Q1884.59 -285.242 1882.87 -285.242 Q1880.83 -285.242 1879.63 -283.853 Q1878.43 -282.479 1878.43 -280.121 L1878.43 -270.963 L1875.75 -270.963 L1875.75 -287.166 L1878.43 -287.166 L1878.43 -284.649 Q1879.34 -286.139 1880.61 -286.848 Q1881.88 -287.557 1883.63 -287.557 Q1885.4 -287.557 1886.63 -286.66 Q1887.87 -285.763 1888.47 -284.056 Z" fill="#000000" fill-rule="evenodd" fill-opacity="1" /><path clip-path="url(#clip390)" d="M 0 0 M1909.56 -279.108 Q1906.33 -279.108 1905.09 -278.37 Q1903.85 -277.632 1903.85 -275.853 Q1903.85 -274.435 1904.77 -273.596 Q1905.71 -272.771 1907.32 -272.771 Q1909.53 -272.771 1910.86 -274.334 Q1912.21 -275.911 1912.21 -278.515 L1912.21 -279.108 L1909.56 -279.108 M1914.87 -280.207 L1914.87 -270.963 L1912.21 -270.963 L1912.21 -273.422 Q1911.3 -271.947 1909.94 -271.238 Q1908.58 -270.543 1906.61 -270.543 Q1904.12 -270.543 1902.64 -271.932 Q1901.18 -273.335 1901.18 -275.679 Q1901.18 -278.414 1903.01 -279.802 Q1904.84 -281.191 1908.48 -281.191 L1912.21 -281.191 L1912.21 -281.452 Q1912.21 -283.289 1910.99 -284.287 Q1909.79 -285.3 1907.61 -285.3 Q1906.22 -285.3 1904.9 -284.967 Q1903.59 -284.635 1902.37 -283.969 L1902.37 -286.429 Q1903.83 -286.993 1905.21 -287.268 Q1906.58 -287.557 1907.88 -287.557 Q1911.4 -287.557 1913.13 -285.734 Q1914.87 -283.911 1914.87 -280.207 Z" fill="#000000" fill-rule="evenodd" fill-opacity="1" /><path clip-path="url(#clip390)" d="M 0 0 M1931.13 -280.743 L1931.13 -270.963 L1928.47 -270.963 L1928.47 -280.656 Q1928.47 -282.956 1927.57 -284.099 Q1926.68 -285.242 1924.88 -285.242 Q1922.73 -285.242 1921.48 -283.868 Q1920.24 -282.493 1920.24 -280.121 L1920.24 -270.963 L1917.56 -270.963 L1917.56 -287.166 L1920.24 -287.166 L1920.24 -284.649 Q1921.19 -286.11 1922.48 -286.834 Q1923.78 -287.557 1925.47 -287.557 Q1928.27 -287.557 1929.7 -285.821 Q1931.13 -284.099 1931.13 -280.743 Z" fill="#000000" fill-rule="evenodd" fill-opacity="1" /><path clip-path="url(#clip390)" d="M 0 0 M1945.58 -286.544 L1945.58 -284.056 Q1944.46 -284.678 1943.31 -284.982 Q1942.18 -285.3 1941.03 -285.3 Q1938.44 -285.3 1937.01 -283.651 Q1935.57 -282.016 1935.57 -279.05 Q1935.57 -276.084 1937.01 -274.435 Q1938.44 -272.8 1941.03 -272.8 Q1942.18 -272.8 1943.31 -273.104 Q1944.46 -273.422 1945.58 -274.044 L1945.58 -271.585 Q1944.47 -271.064 1943.27 -270.804 Q1942.08 -270.543 1940.74 -270.543 Q1937.08 -270.543 1934.92 -272.844 Q1932.77 -275.144 1932.77 -279.05 Q1932.77 -283.014 1934.94 -285.286 Q1937.12 -287.557 1940.91 -287.557 Q1942.14 -287.557 1943.31 -287.297 Q1944.48 -287.051 1945.58 -286.544 Z" fill="#000000" fill-rule="evenodd" fill-opacity="1" /><path clip-path="url(#clip390)" d="M 0 0 M1962.24 -279.73 L1962.24 -278.428 L1950 -278.428 Q1950.17 -275.679 1951.65 -274.232 Q1953.14 -272.8 1955.78 -272.8 Q1957.32 -272.8 1958.75 -273.176 Q1960.2 -273.552 1961.61 -274.305 L1961.61 -271.787 Q1960.18 -271.18 1958.68 -270.861 Q1957.17 -270.543 1955.62 -270.543 Q1951.75 -270.543 1949.48 -272.8 Q1947.22 -275.057 1947.22 -278.905 Q1947.22 -282.884 1949.36 -285.213 Q1951.52 -287.557 1955.16 -287.557 Q1958.43 -287.557 1960.33 -285.445 Q1962.24 -283.347 1962.24 -279.73 M1959.57 -280.511 Q1959.55 -282.696 1958.34 -283.998 Q1957.16 -285.3 1955.19 -285.3 Q1952.96 -285.3 1951.62 -284.041 Q1950.29 -282.783 1950.08 -280.497 L1959.57 -280.511 Z" fill="#000000" fill-rule="evenodd" fill-opacity="1" /><path clip-path="url(#clip390)" d="M 0 0 M1977.34 -266.044 L1977.34 -263.975 L1961.95 -263.975 L1961.95 -266.044 L1977.34 -266.044 Z" fill="#000000" fill-rule="evenodd" fill-opacity="1" /><path clip-path="url(#clip390)" d="M 0 0 M1983.17 -290.161 L1983.17 -282.045 L1986.85 -282.045 Q1988.89 -282.045 1990 -283.101 Q1991.11 -284.157 1991.11 -286.11 Q1991.11 -288.049 1990 -289.105 Q1988.89 -290.161 1986.85 -290.161 L1983.17 -290.161 M1980.25 -292.563 L1986.85 -292.563 Q1990.48 -292.563 1992.33 -290.913 Q1994.2 -289.279 1994.2 -286.11 Q1994.2 -282.913 1992.33 -281.278 Q1990.48 -279.643 1986.85 -279.643 L1983.17 -279.643 L1983.17 -270.963 L1980.25 -270.963 L1980.25 -292.563 Z" fill="#000000" fill-rule="evenodd" fill-opacity="1" /><path clip-path="url(#clip390)" d="M 0 0 M2003.02 -279.108 Q1999.79 -279.108 1998.55 -278.37 Q1997.31 -277.632 1997.31 -275.853 Q1997.31 -274.435 1998.23 -273.596 Q1999.17 -272.771 2000.78 -272.771 Q2002.99 -272.771 2004.32 -274.334 Q2005.67 -275.911 2005.67 -278.515 L2005.67 -279.108 L2003.02 -279.108 M2008.33 -280.207 L2008.33 -270.963 L2005.67 -270.963 L2005.67 -273.422 Q2004.76 -271.947 2003.4 -271.238 Q2002.04 -270.543 2000.07 -270.543 Q1997.58 -270.543 1996.1 -271.932 Q1994.64 -273.335 1994.64 -275.679 Q1994.64 -278.414 1996.47 -279.802 Q1998.3 -281.191 2001.94 -281.191 L2005.67 -281.191 L2005.67 -281.452 Q2005.67 -283.289 2004.45 -284.287 Q2003.25 -285.3 2001.07 -285.3 Q1999.68 -285.3 1998.36 -284.967 Q1997.05 -284.635 1995.83 -283.969 L1995.83 -286.429 Q1997.29 -286.993 1998.67 -287.268 Q2000.04 -287.557 2001.34 -287.557 Q2004.86 -287.557 2006.59 -285.734 Q2008.33 -283.911 2008.33 -280.207 Z" fill="#000000" fill-rule="evenodd" fill-opacity="1" /><path clip-path="url(#clip390)" d="M 0 0 M2020.51 -284.678 Q2020.06 -284.938 2019.53 -285.054 Q2019.01 -285.184 2018.37 -285.184 Q2016.11 -285.184 2014.9 -283.709 Q2013.7 -282.247 2013.7 -279.499 L2013.7 -270.963 L2011.02 -270.963 L2011.02 -287.166 L2013.7 -287.166 L2013.7 -284.649 Q2014.54 -286.125 2015.88 -286.834 Q2017.23 -287.557 2019.15 -287.557 Q2019.43 -287.557 2019.76 -287.514 Q2020.09 -287.485 2020.5 -287.412 L2020.51 -284.678 Z" fill="#000000" fill-rule="evenodd" fill-opacity="1" /><path clip-path="url(#clip390)" d="M 0 0 M2030.67 -279.108 Q2027.44 -279.108 2026.2 -278.37 Q2024.95 -277.632 2024.95 -275.853 Q2024.95 -274.435 2025.88 -273.596 Q2026.82 -272.771 2028.43 -272.771 Q2030.64 -272.771 2031.97 -274.334 Q2033.32 -275.911 2033.32 -278.515 L2033.32 -279.108 L2030.67 -279.108 M2035.98 -280.207 L2035.98 -270.963 L2033.32 -270.963 L2033.32 -273.422 Q2032.4 -271.947 2031.04 -271.238 Q2029.68 -270.543 2027.72 -270.543 Q2025.23 -270.543 2023.75 -271.932 Q2022.29 -273.335 2022.29 -275.679 Q2022.29 -278.414 2024.11 -279.802 Q2025.95 -281.191 2029.58 -281.191 L2033.32 -281.191 L2033.32 -281.452 Q2033.32 -283.289 2032.1 -284.287 Q2030.9 -285.3 2028.71 -285.3 Q2027.33 -285.3 2026.01 -284.967 Q2024.69 -284.635 2023.48 -283.969 L2023.48 -286.429 Q2024.94 -286.993 2026.31 -287.268 Q2027.69 -287.557 2028.99 -287.557 Q2032.51 -287.557 2034.24 -285.734 Q2035.98 -283.911 2035.98 -280.207 Z" fill="#000000" fill-rule="evenodd" fill-opacity="1" /><path clip-path="url(#clip390)" d="M 0 0 M2051.39 -284.056 Q2052.38 -285.85 2053.77 -286.703 Q2055.16 -287.557 2057.04 -287.557 Q2059.57 -287.557 2060.95 -285.777 Q2062.32 -284.012 2062.32 -280.743 L2062.32 -270.963 L2059.65 -270.963 L2059.65 -280.656 Q2059.65 -282.985 2058.82 -284.114 Q2058 -285.242 2056.3 -285.242 Q2054.24 -285.242 2053.03 -283.868 Q2051.83 -282.493 2051.83 -280.121 L2051.83 -270.963 L2049.16 -270.963 L2049.16 -280.656 Q2049.16 -283 2048.33 -284.114 Q2047.51 -285.242 2045.79 -285.242 Q2043.75 -285.242 2042.55 -283.853 Q2041.34 -282.479 2041.34 -280.121 L2041.34 -270.963 L2038.67 -270.963 L2038.67 -287.166 L2041.34 -287.166 L2041.34 -284.649 Q2042.26 -286.139 2043.53 -286.848 Q2044.8 -287.557 2046.55 -287.557 Q2048.32 -287.557 2049.55 -286.66 Q2050.79 -285.763 2051.39 -284.056 Z" fill="#000000" fill-rule="evenodd" fill-opacity="1" /><path clip-path="url(#clip390)" d="M 0 0 M2078.97 -279.73 L2078.97 -278.428 L2066.74 -278.428 Q2066.91 -275.679 2068.38 -274.232 Q2069.87 -272.8 2072.52 -272.8 Q2074.06 -272.8 2075.49 -273.176 Q2076.93 -273.552 2078.35 -274.305 L2078.35 -271.787 Q2076.92 -271.18 2075.42 -270.861 Q2073.91 -270.543 2072.36 -270.543 Q2068.49 -270.543 2066.21 -272.8 Q2063.96 -275.057 2063.96 -278.905 Q2063.96 -282.884 2066.1 -285.213 Q2068.25 -287.557 2071.9 -287.557 Q2075.17 -287.557 2077.07 -285.445 Q2078.97 -283.347 2078.97 -279.73 M2076.31 -280.511 Q2076.28 -282.696 2075.08 -283.998 Q2073.9 -285.3 2071.93 -285.3 Q2069.7 -285.3 2068.36 -284.041 Q2067.02 -282.783 2066.82 -280.497 L2076.31 -280.511 Z" fill="#000000" fill-rule="evenodd" fill-opacity="1" /><path clip-path="url(#clip390)" d="M 0 0 M2084.4 -291.767 L2084.4 -287.166 L2089.88 -287.166 L2089.88 -285.097 L2084.4 -285.097 L2084.4 -276.301 Q2084.4 -274.319 2084.94 -273.755 Q2085.49 -273.191 2087.15 -273.191 L2089.88 -273.191 L2089.88 -270.963 L2087.15 -270.963 Q2084.07 -270.963 2082.9 -272.106 Q2081.72 -273.263 2081.72 -276.301 L2081.72 -285.097 L2079.77 -285.097 L2079.77 -287.166 L2081.72 -287.166 L2081.72 -291.767 L2084.4 -291.767 Z" fill="#000000" fill-rule="evenodd" fill-opacity="1" /><path clip-path="url(#clip390)" d="M 0 0 M2106.54 -279.73 L2106.54 -278.428 L2094.3 -278.428 Q2094.47 -275.679 2095.95 -274.232 Q2097.44 -272.8 2100.08 -272.8 Q2101.62 -272.8 2103.05 -273.176 Q2104.5 -273.552 2105.91 -274.305 L2105.91 -271.787 Q2104.48 -271.18 2102.98 -270.861 Q2101.47 -270.543 2099.92 -270.543 Q2096.05 -270.543 2093.78 -272.8 Q2091.52 -275.057 2091.52 -278.905 Q2091.52 -282.884 2093.66 -285.213 Q2095.81 -287.557 2099.46 -287.557 Q2102.73 -287.557 2104.63 -285.445 Q2106.54 -283.347 2106.54 -279.73 M2103.87 -280.511 Q2103.84 -282.696 2102.64 -283.998 Q2101.46 -285.3 2099.49 -285.3 Q2097.26 -285.3 2095.92 -284.041 Q2094.59 -282.783 2094.38 -280.497 L2103.87 -280.511 Z" fill="#000000" fill-rule="evenodd" fill-opacity="1" /><path clip-path="url(#clip390)" d="M 0 0 M2118.72 -284.678 Q2118.27 -284.938 2117.73 -285.054 Q2117.21 -285.184 2116.58 -285.184 Q2114.32 -285.184 2113.1 -283.709 Q2111.9 -282.247 2111.9 -279.499 L2111.9 -270.963 L2109.23 -270.963 L2109.23 -287.166 L2111.9 -287.166 L2111.9 -284.649 Q2112.74 -286.125 2114.09 -286.834 Q2115.43 -287.557 2117.36 -287.557 Q2117.63 -287.557 2117.96 -287.514 Q2118.3 -287.485 2118.7 -287.412 L2118.72 -284.678 Z" fill="#000000" fill-rule="evenodd" fill-opacity="1" /><path clip-path="url(#clip390)" d="M 0 0 M2131.84 -286.689 L2131.84 -284.172 Q2130.71 -284.75 2129.5 -285.04 Q2128.28 -285.329 2126.98 -285.329 Q2125 -285.329 2124 -284.721 Q2123.01 -284.114 2123.01 -282.898 Q2123.01 -281.973 2123.72 -281.437 Q2124.43 -280.916 2126.57 -280.439 L2127.48 -280.236 Q2130.32 -279.629 2131.51 -278.515 Q2132.71 -277.415 2132.71 -275.433 Q2132.71 -273.176 2130.91 -271.86 Q2129.13 -270.543 2126.01 -270.543 Q2124.71 -270.543 2123.29 -270.804 Q2121.89 -271.05 2120.32 -271.556 L2120.32 -274.305 Q2121.8 -273.538 2123.23 -273.147 Q2124.66 -272.771 2126.07 -272.771 Q2127.95 -272.771 2128.96 -273.408 Q2129.97 -274.059 2129.97 -275.231 Q2129.97 -276.316 2129.23 -276.894 Q2128.51 -277.473 2126.04 -278.008 L2125.11 -278.225 Q2122.64 -278.746 2121.54 -279.817 Q2120.44 -280.902 2120.44 -282.783 Q2120.44 -285.069 2122.06 -286.313 Q2123.68 -287.557 2126.66 -287.557 Q2128.14 -287.557 2129.44 -287.34 Q2130.74 -287.123 2131.84 -286.689 Z" fill="#000000" fill-rule="evenodd" fill-opacity="1" /><path clip-path="url(#clip390)" d="M 0 0 M527.905 1538.63 L527.905 1541.71 Q526.429 1540.33 524.751 1539.65 Q523.087 1538.97 521.207 1538.97 Q517.503 1538.97 515.535 1541.25 Q513.568 1543.5 513.568 1547.79 Q513.568 1552.05 515.535 1554.33 Q517.503 1556.58 521.207 1556.58 Q523.087 1556.58 524.751 1555.9 Q526.429 1555.22 527.905 1553.85 L527.905 1556.9 Q526.371 1557.94 524.65 1558.46 Q522.943 1558.98 521.033 1558.98 Q516.128 1558.98 513.307 1555.99 Q510.486 1552.98 510.486 1547.79 Q510.486 1542.58 513.307 1539.58 Q516.128 1536.57 521.033 1536.57 Q522.972 1536.57 524.679 1537.09 Q526.4 1537.6 527.905 1538.63 Z" fill="#000000" fill-rule="evenodd" fill-opacity="1" /><path clip-path="url(#clip390)" d="M 0 0 M530.697 1536.05 L533.359 1536.05 L533.359 1558.56 L530.697 1558.56 L530.697 1536.05 Z" fill="#000000" fill-rule="evenodd" fill-opacity="1" /><path clip-path="url(#clip390)" d="M 0 0 M536.151 1542.36 L538.814 1542.36 L538.814 1558.56 L536.151 1558.56 L536.151 1542.36 M536.151 1536.05 L538.814 1536.05 L538.814 1539.42 L536.151 1539.42 L536.151 1536.05 Z" fill="#000000" fill-rule="evenodd" fill-opacity="1" /><path clip-path="url(#clip390)" d="M 0 0 M555.466 1549.8 L555.466 1551.1 L543.226 1551.1 Q543.4 1553.85 544.875 1555.29 Q546.366 1556.73 549.013 1556.73 Q550.547 1556.73 551.979 1556.35 Q553.426 1555.97 554.844 1555.22 L554.844 1557.74 Q553.411 1558.35 551.907 1558.67 Q550.402 1558.98 548.854 1558.98 Q544.977 1558.98 542.705 1556.73 Q540.448 1554.47 540.448 1550.62 Q540.448 1546.64 542.59 1544.31 Q544.745 1541.97 548.391 1541.97 Q551.661 1541.97 553.556 1544.08 Q555.466 1546.18 555.466 1549.8 M552.804 1549.02 Q552.775 1546.83 551.574 1545.53 Q550.388 1544.23 548.42 1544.23 Q546.192 1544.23 544.846 1545.49 Q543.515 1546.74 543.313 1549.03 L552.804 1549.02 Z" fill="#000000" fill-rule="evenodd" fill-opacity="1" /><path clip-path="url(#clip390)" d="M 0 0 M571.727 1548.78 L571.727 1558.56 L569.065 1558.56 L569.065 1548.87 Q569.065 1546.57 568.168 1545.43 Q567.271 1544.28 565.477 1544.28 Q563.321 1544.28 562.077 1545.66 Q560.833 1547.03 560.833 1549.41 L560.833 1558.56 L558.157 1558.56 L558.157 1542.36 L560.833 1542.36 L560.833 1544.88 Q561.788 1543.42 563.076 1542.69 Q564.378 1541.97 566.07 1541.97 Q568.863 1541.97 570.295 1543.71 Q571.727 1545.43 571.727 1548.78 Z" fill="#000000" fill-rule="evenodd" fill-opacity="1" /><path clip-path="url(#clip390)" d="M 0 0 M577.152 1537.76 L577.152 1542.36 L582.636 1542.36 L582.636 1544.43 L577.152 1544.43 L577.152 1553.23 Q577.152 1555.21 577.688 1555.77 Q578.237 1556.34 579.901 1556.34 L582.636 1556.34 L582.636 1558.56 L579.901 1558.56 Q576.82 1558.56 575.648 1557.42 Q574.476 1556.26 574.476 1553.23 L574.476 1544.43 L572.523 1544.43 L572.523 1542.36 L574.476 1542.36 L574.476 1537.76 L577.152 1537.76 Z" fill="#000000" fill-rule="evenodd" fill-opacity="1" /><path clip-path="url(#clip390)" d="M 0 0 M597.74 1563.48 L597.74 1565.55 L582.346 1565.55 L582.346 1563.48 L597.74 1563.48 Z" fill="#000000" fill-rule="evenodd" fill-opacity="1" /><path clip-path="url(#clip390)" d="M 0 0 M607.896 1550.42 Q604.67 1550.42 603.425 1551.16 Q602.181 1551.89 602.181 1553.67 Q602.181 1555.09 603.107 1555.93 Q604.048 1556.76 605.653 1556.76 Q607.867 1556.76 609.198 1555.19 Q610.543 1553.62 610.543 1551.01 L610.543 1550.42 L607.896 1550.42 M613.205 1549.32 L613.205 1558.56 L610.543 1558.56 L610.543 1556.1 Q609.632 1557.58 608.272 1558.29 Q606.912 1558.98 604.945 1558.98 Q602.456 1558.98 600.98 1557.59 Q599.519 1556.19 599.519 1553.85 Q599.519 1551.11 601.342 1549.72 Q603.179 1548.34 606.811 1548.34 L610.543 1548.34 L610.543 1548.08 Q610.543 1546.24 609.328 1545.24 Q608.127 1544.23 605.943 1544.23 Q604.554 1544.23 603.237 1544.56 Q601.921 1544.89 600.706 1545.56 L600.706 1543.1 Q602.167 1542.53 603.541 1542.26 Q604.916 1541.97 606.218 1541.97 Q609.733 1541.97 611.469 1543.79 Q613.205 1545.62 613.205 1549.32 Z" fill="#000000" fill-rule="evenodd" fill-opacity="1" /><path clip-path="url(#clip390)" d="M 0 0 M629.467 1548.78 L629.467 1558.56 L626.805 1558.56 L626.805 1548.87 Q626.805 1546.57 625.908 1545.43 Q625.011 1544.28 623.217 1544.28 Q621.061 1544.28 619.817 1545.66 Q618.573 1547.03 618.573 1549.41 L618.573 1558.56 L615.896 1558.56 L615.896 1542.36 L618.573 1542.36 L618.573 1544.88 Q619.528 1543.42 620.815 1542.69 Q622.117 1541.97 623.81 1541.97 Q626.602 1541.97 628.035 1543.71 Q629.467 1545.43 629.467 1548.78 Z" fill="#000000" fill-rule="evenodd" fill-opacity="1" /><path clip-path="url(#clip390)" d="M 0 0 M642.922 1544.82 L642.922 1536.05 L645.584 1536.05 L645.584 1558.56 L642.922 1558.56 L642.922 1556.13 Q642.083 1557.58 640.795 1558.29 Q639.522 1558.98 637.728 1558.98 Q634.791 1558.98 632.939 1556.64 Q631.102 1554.3 631.102 1550.48 Q631.102 1546.66 632.939 1544.31 Q634.791 1541.97 637.728 1541.97 Q639.522 1541.97 640.795 1542.68 Q642.083 1543.37 642.922 1544.82 M633.851 1550.48 Q633.851 1553.41 635.051 1555.09 Q636.267 1556.76 638.379 1556.76 Q640.491 1556.76 641.706 1555.09 Q642.922 1553.41 642.922 1550.48 Q642.922 1547.54 641.706 1545.88 Q640.491 1544.2 638.379 1544.2 Q636.267 1544.2 635.051 1545.88 Q633.851 1547.54 633.851 1550.48 Z" fill="#000000" fill-rule="evenodd" fill-opacity="1" /><path clip-path="url(#clip390)" d="M 0 0 M660.688 1563.48 L660.688 1565.55 L645.294 1565.55 L645.294 1563.48 L660.688 1563.48 Z" fill="#000000" fill-rule="evenodd" fill-opacity="1" /><path clip-path="url(#clip390)" d="M 0 0 M679.771 1538.63 L679.771 1541.71 Q678.295 1540.33 676.617 1539.65 Q674.953 1538.97 673.072 1538.97 Q669.368 1538.97 667.401 1541.25 Q665.433 1543.5 665.433 1547.79 Q665.433 1552.05 667.401 1554.33 Q669.368 1556.58 673.072 1556.58 Q674.953 1556.58 676.617 1555.9 Q678.295 1555.22 679.771 1553.85 L679.771 1556.9 Q678.237 1557.94 676.515 1558.46 Q674.808 1558.98 672.898 1558.98 Q667.994 1558.98 665.173 1555.99 Q662.352 1552.98 662.352 1547.79 Q662.352 1542.58 665.173 1539.58 Q667.994 1536.57 672.898 1536.57 Q674.837 1536.57 676.544 1537.09 Q678.266 1537.6 679.771 1538.63 Z" fill="#000000" fill-rule="evenodd" fill-opacity="1" /><path clip-path="url(#clip390)" d="M 0 0 M688.842 1544.23 Q686.7 1544.23 685.456 1545.9 Q684.212 1547.57 684.212 1550.48 Q684.212 1553.38 685.442 1555.06 Q686.686 1556.73 688.842 1556.73 Q690.968 1556.73 692.213 1555.05 Q693.457 1553.37 693.457 1550.48 Q693.457 1547.6 692.213 1545.92 Q690.968 1544.23 688.842 1544.23 M688.842 1541.97 Q692.314 1541.97 694.296 1544.23 Q696.278 1546.48 696.278 1550.48 Q696.278 1554.46 694.296 1556.73 Q692.314 1558.98 688.842 1558.98 Q685.355 1558.98 683.373 1556.73 Q681.405 1554.46 681.405 1550.48 Q681.405 1546.48 683.373 1544.23 Q685.355 1541.97 688.842 1541.97 Z" fill="#000000" fill-rule="evenodd" fill-opacity="1" /><path clip-path="url(#clip390)" d="M 0 0 M712.539 1548.78 L712.539 1558.56 L709.877 1558.56 L709.877 1548.87 Q709.877 1546.57 708.98 1545.43 Q708.083 1544.28 706.289 1544.28 Q704.134 1544.28 702.89 1545.66 Q701.645 1547.03 701.645 1549.41 L701.645 1558.56 L698.969 1558.56 L698.969 1542.36 L701.645 1542.36 L701.645 1544.88 Q702.6 1543.42 703.888 1542.69 Q705.19 1541.97 706.883 1541.97 Q709.675 1541.97 711.107 1543.71 Q712.539 1545.43 712.539 1548.78 Z" fill="#000000" fill-rule="evenodd" fill-opacity="1" /><path clip-path="url(#clip390)" d="M 0 0 M725.661 1542.84 L725.661 1545.36 Q724.533 1544.78 723.318 1544.49 Q722.102 1544.2 720.8 1544.2 Q718.818 1544.2 717.82 1544.81 Q716.836 1545.41 716.836 1546.63 Q716.836 1547.55 717.545 1548.09 Q718.254 1548.61 720.395 1549.09 L721.307 1549.29 Q724.142 1549.9 725.329 1551.01 Q726.53 1552.11 726.53 1554.09 Q726.53 1556.35 724.736 1557.67 Q722.956 1558.98 719.831 1558.98 Q718.529 1558.98 717.111 1558.72 Q715.708 1558.48 714.145 1557.97 L714.145 1555.22 Q715.621 1555.99 717.053 1556.38 Q718.486 1556.76 719.889 1556.76 Q721.77 1556.76 722.782 1556.12 Q723.795 1555.47 723.795 1554.3 Q723.795 1553.21 723.057 1552.63 Q722.334 1552.05 719.86 1551.52 L718.934 1551.3 Q716.46 1550.78 715.361 1549.71 Q714.261 1548.62 714.261 1546.74 Q714.261 1544.46 715.881 1543.21 Q717.502 1541.97 720.482 1541.97 Q721.958 1541.97 723.26 1542.19 Q724.562 1542.4 725.661 1542.84 Z" fill="#000000" fill-rule="evenodd" fill-opacity="1" /><path clip-path="url(#clip390)" d="M 0 0 M729.047 1552.17 L729.047 1542.36 L731.709 1542.36 L731.709 1552.07 Q731.709 1554.37 732.606 1555.53 Q733.503 1556.67 735.297 1556.67 Q737.452 1556.67 738.697 1555.29 Q739.955 1553.92 739.955 1551.55 L739.955 1542.36 L742.617 1542.36 L742.617 1558.56 L739.955 1558.56 L739.955 1556.08 Q738.986 1557.55 737.698 1558.27 Q736.425 1558.98 734.733 1558.98 Q731.94 1558.98 730.494 1557.25 Q729.047 1555.51 729.047 1552.17 M735.745 1541.97 L735.745 1541.97 Z" fill="#000000" fill-rule="evenodd" fill-opacity="1" /><path clip-path="url(#clip390)" d="M 0 0 M745.41 1536.05 L748.072 1536.05 L748.072 1558.56 L745.41 1558.56 L745.41 1536.05 Z" fill="#000000" fill-rule="evenodd" fill-opacity="1" /><path clip-path="url(#clip390)" d="M 0 0 M753.497 1537.76 L753.497 1542.36 L758.98 1542.36 L758.98 1544.43 L753.497 1544.43 L753.497 1553.23 Q753.497 1555.21 754.032 1555.77 Q754.582 1556.34 756.246 1556.34 L758.98 1556.34 L758.98 1558.56 L756.246 1558.56 Q753.164 1558.56 751.992 1557.42 Q750.82 1556.26 750.82 1553.23 L750.82 1544.43 L748.867 1544.43 L748.867 1542.36 L750.82 1542.36 L750.82 1537.76 L753.497 1537.76 Z" fill="#000000" fill-rule="evenodd" fill-opacity="1" /><path clip-path="url(#clip390)" d="M 0 0 M769.136 1550.42 Q765.91 1550.42 764.666 1551.16 Q763.422 1551.89 763.422 1553.67 Q763.422 1555.09 764.348 1555.93 Q765.288 1556.76 766.894 1556.76 Q769.107 1556.76 770.438 1555.19 Q771.784 1553.62 771.784 1551.01 L771.784 1550.42 L769.136 1550.42 M774.446 1549.32 L774.446 1558.56 L771.784 1558.56 L771.784 1556.1 Q770.872 1557.58 769.513 1558.29 Q768.153 1558.98 766.185 1558.98 Q763.697 1558.98 762.221 1557.59 Q760.76 1556.19 760.76 1553.85 Q760.76 1551.11 762.583 1549.72 Q764.42 1548.34 768.051 1548.34 L771.784 1548.34 L771.784 1548.08 Q771.784 1546.24 770.569 1545.24 Q769.368 1544.23 767.183 1544.23 Q765.794 1544.23 764.478 1544.56 Q763.161 1544.89 761.946 1545.56 L761.946 1543.1 Q763.407 1542.53 764.782 1542.26 Q766.156 1541.97 767.458 1541.97 Q770.974 1541.97 772.71 1543.79 Q774.446 1545.62 774.446 1549.32 Z" fill="#000000" fill-rule="evenodd" fill-opacity="1" /><path clip-path="url(#clip390)" d="M 0 0 M790.707 1548.78 L790.707 1558.56 L788.045 1558.56 L788.045 1548.87 Q788.045 1546.57 787.148 1545.43 Q786.251 1544.28 784.457 1544.28 Q782.302 1544.28 781.058 1545.66 Q779.813 1547.03 779.813 1549.41 L779.813 1558.56 L777.137 1558.56 L777.137 1542.36 L779.813 1542.36 L779.813 1544.88 Q780.768 1543.42 782.056 1542.69 Q783.358 1541.97 785.051 1541.97 Q787.843 1541.97 789.275 1543.71 Q790.707 1545.43 790.707 1548.78 Z" fill="#000000" fill-rule="evenodd" fill-opacity="1" /><path clip-path="url(#clip390)" d="M 0 0 M796.133 1537.76 L796.133 1542.36 L801.616 1542.36 L801.616 1544.43 L796.133 1544.43 L796.133 1553.23 Q796.133 1555.21 796.668 1555.77 Q797.218 1556.34 798.882 1556.34 L801.616 1556.34 L801.616 1558.56 L798.882 1558.56 Q795.8 1558.56 794.628 1557.42 Q793.456 1556.26 793.456 1553.23 L793.456 1544.43 L791.503 1544.43 L791.503 1542.36 L793.456 1542.36 L793.456 1537.76 L796.133 1537.76 Z" fill="#000000" fill-rule="evenodd" fill-opacity="1" /><path clip-path="url(#clip390)" d="M 0 0 M816.72 1563.48 L816.72 1565.55 L801.327 1565.55 L801.327 1563.48 L816.72 1563.48 Z" fill="#000000" fill-rule="evenodd" fill-opacity="1" /><path clip-path="url(#clip390)" d="M 0 0 M829.871 1548.44 Q830.811 1548.76 831.694 1549.8 Q832.591 1550.84 833.488 1552.66 L836.454 1558.56 L833.314 1558.56 L830.551 1553.02 Q829.48 1550.85 828.468 1550.14 Q827.469 1549.44 825.733 1549.44 L822.55 1549.44 L822.55 1558.56 L819.628 1558.56 L819.628 1536.96 L826.225 1536.96 Q829.929 1536.96 831.752 1538.51 Q833.575 1540.06 833.575 1543.19 Q833.575 1545.22 832.62 1546.57 Q831.679 1547.92 829.871 1548.44 M822.55 1539.37 L822.55 1547.03 L826.225 1547.03 Q828.337 1547.03 829.408 1546.06 Q830.493 1545.08 830.493 1543.19 Q830.493 1541.29 829.408 1540.33 Q828.337 1539.37 826.225 1539.37 L822.55 1539.37 Z" fill="#000000" fill-rule="evenodd" fill-opacity="1" /><path clip-path="url(#clip390)" d="M 0 0 M851.775 1549.8 L851.775 1551.1 L839.535 1551.1 Q839.709 1553.85 841.185 1555.29 Q842.675 1556.73 845.322 1556.73 Q846.856 1556.73 848.288 1556.35 Q849.735 1555.97 851.153 1555.22 L851.153 1557.74 Q849.72 1558.35 848.216 1558.67 Q846.711 1558.98 845.163 1558.98 Q841.286 1558.98 839.014 1556.73 Q836.758 1554.47 836.758 1550.62 Q836.758 1546.64 838.899 1544.31 Q841.054 1541.97 844.7 1541.97 Q847.97 1541.97 849.865 1544.08 Q851.775 1546.18 851.775 1549.8 M849.113 1549.02 Q849.084 1546.83 847.883 1545.53 Q846.697 1544.23 844.729 1544.23 Q842.501 1544.23 841.156 1545.49 Q839.825 1546.74 839.622 1549.03 L849.113 1549.02 Z" fill="#000000" fill-rule="evenodd" fill-opacity="1" /><path clip-path="url(#clip390)" d="M 0 0 M856.158 1550.48 Q856.158 1553.41 857.359 1555.09 Q858.575 1556.76 860.687 1556.76 Q862.799 1556.76 864.014 1555.09 Q865.23 1553.41 865.23 1550.48 Q865.23 1547.54 864.014 1545.88 Q862.799 1544.2 860.687 1544.2 Q858.575 1544.2 857.359 1545.88 Q856.158 1547.54 856.158 1550.48 M865.23 1556.13 Q864.39 1557.58 863.103 1558.29 Q861.83 1558.98 860.036 1558.98 Q857.099 1558.98 855.247 1556.64 Q853.41 1554.3 853.41 1550.48 Q853.41 1546.66 855.247 1544.31 Q857.099 1541.97 860.036 1541.97 Q861.83 1541.97 863.103 1542.68 Q864.39 1543.37 865.23 1544.82 L865.23 1542.36 L867.892 1542.36 L867.892 1564.73 L865.23 1564.73 L865.23 1556.13 Z" fill="#000000" fill-rule="evenodd" fill-opacity="1" /><path clip-path="url(#clip390)" d="M 0 0 M870.409 1552.17 L870.409 1542.36 L873.071 1542.36 L873.071 1552.07 Q873.071 1554.37 873.968 1555.53 Q874.865 1556.67 876.659 1556.67 Q878.815 1556.67 880.059 1555.29 Q881.317 1553.92 881.317 1551.55 L881.317 1542.36 L883.979 1542.36 L883.979 1558.56 L881.317 1558.56 L881.317 1556.08 Q880.348 1557.55 879.061 1558.27 Q877.787 1558.98 876.095 1558.98 Q873.302 1558.98 871.856 1557.25 Q870.409 1555.51 870.409 1552.17 M877.107 1541.97 L877.107 1541.97 Z" fill="#000000" fill-rule="evenodd" fill-opacity="1" /><path clip-path="url(#clip390)" d="M 0 0 M900.632 1549.8 L900.632 1551.1 L888.392 1551.1 Q888.566 1553.85 890.041 1555.29 Q891.532 1556.73 894.179 1556.73 Q895.713 1556.73 897.145 1556.35 Q898.592 1555.97 900.009 1555.22 L900.009 1557.74 Q898.577 1558.35 897.073 1558.67 Q895.568 1558.98 894.02 1558.98 Q890.143 1558.98 887.871 1556.73 Q885.614 1554.47 885.614 1550.62 Q885.614 1546.64 887.756 1544.31 Q889.911 1541.97 893.557 1541.97 Q896.827 1541.97 898.722 1544.08 Q900.632 1546.18 900.632 1549.8 M897.97 1549.02 Q897.941 1546.83 896.74 1545.53 Q895.553 1544.23 893.586 1544.23 Q891.358 1544.23 890.012 1545.49 Q888.681 1546.74 888.479 1549.03 L897.97 1549.02 Z" fill="#000000" fill-rule="evenodd" fill-opacity="1" /><path clip-path="url(#clip390)" d="M 0 0 M913.754 1542.84 L913.754 1545.36 Q912.625 1544.78 911.41 1544.49 Q910.195 1544.2 908.893 1544.2 Q906.91 1544.2 905.912 1544.81 Q904.928 1545.41 904.928 1546.63 Q904.928 1547.55 905.637 1548.09 Q906.346 1548.61 908.487 1549.09 L909.399 1549.29 Q912.235 1549.9 913.421 1551.01 Q914.622 1552.11 914.622 1554.09 Q914.622 1556.35 912.828 1557.67 Q911.048 1558.98 907.923 1558.98 Q906.621 1558.98 905.203 1558.72 Q903.8 1558.48 902.237 1557.97 L902.237 1555.22 Q903.713 1555.99 905.145 1556.38 Q906.578 1556.76 907.981 1556.76 Q909.862 1556.76 910.875 1556.12 Q911.887 1555.47 911.887 1554.3 Q911.887 1553.21 911.149 1552.63 Q910.426 1552.05 907.952 1551.52 L907.026 1551.3 Q904.552 1550.78 903.453 1549.71 Q902.353 1548.62 902.353 1546.74 Q902.353 1544.46 903.974 1543.21 Q905.594 1541.97 908.574 1541.97 Q910.05 1541.97 911.352 1542.19 Q912.654 1542.4 913.754 1542.84 Z" fill="#000000" fill-rule="evenodd" fill-opacity="1" /><path clip-path="url(#clip390)" d="M 0 0 M920.047 1537.76 L920.047 1542.36 L925.53 1542.36 L925.53 1544.43 L920.047 1544.43 L920.047 1553.23 Q920.047 1555.21 920.582 1555.77 Q921.132 1556.34 922.796 1556.34 L925.53 1556.34 L925.53 1558.56 L922.796 1558.56 Q919.714 1558.56 918.542 1557.42 Q917.371 1556.26 917.371 1553.23 L917.371 1544.43 L915.417 1544.43 L915.417 1542.36 L917.371 1542.36 L917.371 1537.76 L920.047 1537.76 Z" fill="#000000" fill-rule="evenodd" fill-opacity="1" /><path clip-path="url(#clip390)" d="M 0 0 M938.652 1542.84 L938.652 1545.36 Q937.524 1544.78 936.308 1544.49 Q935.093 1544.2 933.791 1544.2 Q931.809 1544.2 930.811 1544.81 Q929.827 1545.41 929.827 1546.63 Q929.827 1547.55 930.536 1548.09 Q931.245 1548.61 933.386 1549.09 L934.298 1549.29 Q937.133 1549.9 938.319 1551.01 Q939.52 1552.11 939.52 1554.09 Q939.52 1556.35 937.726 1557.67 Q935.947 1558.98 932.822 1558.98 Q931.52 1558.98 930.102 1558.72 Q928.699 1558.48 927.136 1557.97 L927.136 1555.22 Q928.612 1555.99 930.044 1556.38 Q931.476 1556.76 932.88 1556.76 Q934.76 1556.76 935.773 1556.12 Q936.786 1555.47 936.786 1554.3 Q936.786 1553.21 936.048 1552.63 Q935.325 1552.05 932.851 1551.52 L931.925 1551.3 Q929.451 1550.78 928.351 1549.71 Q927.252 1548.62 927.252 1546.74 Q927.252 1544.46 928.872 1543.21 Q930.493 1541.97 933.473 1541.97 Q934.949 1541.97 936.251 1542.19 Q937.553 1542.4 938.652 1542.84 Z" fill="#000000" fill-rule="evenodd" fill-opacity="1" /><path clip-path="url(#clip390)" d="M 0 0 M1776.4 1936.93 L1776.4 1953.73 L1779.93 1953.73 Q1784.4 1953.73 1786.47 1951.7 Q1788.55 1949.67 1788.55 1945.31 Q1788.55 1940.97 1786.47 1938.95 Q1784.4 1936.93 1779.93 1936.93 L1776.4 1936.93 M1773.48 1934.53 L1779.48 1934.53 Q1785.76 1934.53 1788.7 1937.15 Q1791.63 1939.75 1791.63 1945.31 Q1791.63 1950.89 1788.68 1953.51 Q1785.73 1956.13 1779.48 1956.13 L1773.48 1956.13 L1773.48 1934.53 Z" fill="#000000" fill-rule="evenodd" fill-opacity="1" /><path clip-path="url(#clip390)" d="M 0 0 M1808.28 1947.36 L1808.28 1948.66 L1796.04 1948.66 Q1796.22 1951.41 1797.69 1952.86 Q1799.18 1954.29 1801.83 1954.29 Q1803.37 1954.29 1804.8 1953.91 Q1806.24 1953.54 1807.66 1952.79 L1807.66 1955.3 Q1806.23 1955.91 1804.73 1956.23 Q1803.22 1956.55 1801.67 1956.55 Q1797.8 1956.55 1795.52 1954.29 Q1793.27 1952.03 1793.27 1948.18 Q1793.27 1944.21 1795.41 1941.88 Q1797.56 1939.53 1801.21 1939.53 Q1804.48 1939.53 1806.37 1941.65 Q1808.28 1943.74 1808.28 1947.36 M1805.62 1946.58 Q1805.59 1944.39 1804.39 1943.09 Q1803.21 1941.79 1801.24 1941.79 Q1799.01 1941.79 1797.67 1943.05 Q1796.33 1944.31 1796.13 1946.59 L1805.62 1946.58 Z" fill="#000000" fill-rule="evenodd" fill-opacity="1" /><path clip-path="url(#clip390)" d="M 0 0 M1821.41 1940.4 L1821.41 1942.92 Q1820.28 1942.34 1819.06 1942.05 Q1817.85 1941.76 1816.55 1941.76 Q1814.56 1941.76 1813.56 1942.37 Q1812.58 1942.98 1812.58 1944.19 Q1812.58 1945.12 1813.29 1945.65 Q1814 1946.17 1816.14 1946.65 L1817.05 1946.85 Q1819.89 1947.46 1821.07 1948.58 Q1822.27 1949.67 1822.27 1951.66 Q1822.27 1953.91 1820.48 1955.23 Q1818.7 1956.55 1815.58 1956.55 Q1814.27 1956.55 1812.86 1956.29 Q1811.45 1956.04 1809.89 1955.53 L1809.89 1952.79 Q1811.37 1953.55 1812.8 1953.94 Q1814.23 1954.32 1815.63 1954.32 Q1817.51 1954.32 1818.53 1953.68 Q1819.54 1953.03 1819.54 1951.86 Q1819.54 1950.77 1818.8 1950.2 Q1818.08 1949.62 1815.6 1949.08 L1814.68 1948.86 Q1812.2 1948.34 1811.11 1947.27 Q1810.01 1946.19 1810.01 1944.31 Q1810.01 1942.02 1811.63 1940.78 Q1813.25 1939.53 1816.23 1939.53 Q1817.7 1939.53 1819 1939.75 Q1820.31 1939.97 1821.41 1940.4 Z" fill="#000000" fill-rule="evenodd" fill-opacity="1" /><path clip-path="url(#clip390)" d="M 0 0 M1825.07 1939.92 L1827.73 1939.92 L1827.73 1956.13 L1825.07 1956.13 L1825.07 1939.92 M1825.07 1933.62 L1827.73 1933.62 L1827.73 1936.99 L1825.07 1936.99 L1825.07 1933.62 Z" fill="#000000" fill-rule="evenodd" fill-opacity="1" /><path clip-path="url(#clip390)" d="M 0 0 M1841.18 1947.84 Q1841.18 1944.94 1839.98 1943.35 Q1838.8 1941.76 1836.64 1941.76 Q1834.5 1941.76 1833.3 1943.35 Q1832.11 1944.94 1832.11 1947.84 Q1832.11 1950.72 1833.3 1952.31 Q1834.5 1953.9 1836.64 1953.9 Q1838.8 1953.9 1839.98 1952.31 Q1841.18 1950.72 1841.18 1947.84 M1843.85 1954.12 Q1843.85 1958.25 1842.01 1960.26 Q1840.17 1962.29 1836.38 1962.29 Q1834.98 1962.29 1833.73 1962.07 Q1832.49 1961.87 1831.32 1961.44 L1831.32 1958.85 Q1832.49 1959.48 1833.63 1959.79 Q1834.77 1960.09 1835.96 1960.09 Q1838.58 1960.09 1839.88 1958.72 Q1841.18 1957.36 1841.18 1954.59 L1841.18 1953.28 Q1840.36 1954.71 1839.07 1955.42 Q1837.78 1956.13 1835.99 1956.13 Q1833.01 1956.13 1831.19 1953.86 Q1829.36 1951.58 1829.36 1947.84 Q1829.36 1944.08 1831.19 1941.8 Q1833.01 1939.53 1835.99 1939.53 Q1837.78 1939.53 1839.07 1940.24 Q1840.36 1940.95 1841.18 1942.38 L1841.18 1939.92 L1843.85 1939.92 L1843.85 1954.12 Z" fill="#000000" fill-rule="evenodd" fill-opacity="1" /><path clip-path="url(#clip390)" d="M 0 0 M1860.11 1946.35 L1860.11 1956.13 L1857.44 1956.13 L1857.44 1946.43 Q1857.44 1944.13 1856.55 1942.99 Q1855.65 1941.85 1853.86 1941.85 Q1851.7 1941.85 1850.46 1943.22 Q1849.21 1944.6 1849.21 1946.97 L1849.21 1956.13 L1846.54 1956.13 L1846.54 1939.92 L1849.21 1939.92 L1849.21 1942.44 Q1850.17 1940.98 1851.46 1940.26 Q1852.76 1939.53 1854.45 1939.53 Q1857.24 1939.53 1858.67 1941.27 Q1860.11 1942.99 1860.11 1946.35 Z" fill="#000000" fill-rule="evenodd" fill-opacity="1" /><path clip-path="url(#clip390)" d="M 0 0 M1875.21 1961.05 L1875.21 1963.11 L1859.82 1963.11 L1859.82 1961.05 L1875.21 1961.05 Z" fill="#000000" fill-rule="evenodd" fill-opacity="1" /><path clip-path="url(#clip390)" d="M 0 0 M1888.36 1946 Q1889.3 1946.32 1890.18 1947.36 Q1891.08 1948.4 1891.98 1950.22 L1894.94 1956.13 L1891.81 1956.13 L1889.04 1950.59 Q1887.97 1948.42 1886.96 1947.71 Q1885.96 1947 1884.22 1947 L1881.04 1947 L1881.04 1956.13 L1878.12 1956.13 L1878.12 1934.53 L1884.72 1934.53 Q1888.42 1934.53 1890.24 1936.08 Q1892.07 1937.62 1892.07 1940.75 Q1892.07 1942.79 1891.11 1944.13 Q1890.17 1945.48 1888.36 1946 M1881.04 1936.93 L1881.04 1944.6 L1884.72 1944.6 Q1886.83 1944.6 1887.9 1943.63 Q1888.98 1942.64 1888.98 1940.75 Q1888.98 1938.85 1887.9 1937.9 Q1886.83 1936.93 1884.72 1936.93 L1881.04 1936.93 Z" fill="#000000" fill-rule="evenodd" fill-opacity="1" /><path clip-path="url(#clip390)" d="M 0 0 M1910.27 1947.36 L1910.27 1948.66 L1898.03 1948.66 Q1898.2 1951.41 1899.68 1952.86 Q1901.17 1954.29 1903.81 1954.29 Q1905.35 1954.29 1906.78 1953.91 Q1908.23 1953.54 1909.64 1952.79 L1909.64 1955.3 Q1908.21 1955.91 1906.71 1956.23 Q1905.2 1956.55 1903.65 1956.55 Q1899.78 1956.55 1897.51 1954.29 Q1895.25 1952.03 1895.25 1948.18 Q1895.25 1944.21 1897.39 1941.88 Q1899.55 1939.53 1903.19 1939.53 Q1906.46 1939.53 1908.36 1941.65 Q1910.27 1943.74 1910.27 1947.36 M1907.6 1946.58 Q1907.57 1944.39 1906.37 1943.09 Q1905.19 1941.79 1903.22 1941.79 Q1900.99 1941.79 1899.65 1943.05 Q1898.32 1944.31 1898.11 1946.59 L1907.6 1946.58 Z" fill="#000000" fill-rule="evenodd" fill-opacity="1" /><path clip-path="url(#clip390)" d="M 0 0 M1920.42 1947.98 Q1917.2 1947.98 1915.95 1948.72 Q1914.71 1949.46 1914.71 1951.24 Q1914.71 1952.65 1915.63 1953.49 Q1916.57 1954.32 1918.18 1954.32 Q1920.39 1954.32 1921.72 1952.76 Q1923.07 1951.18 1923.07 1948.58 L1923.07 1947.98 L1920.42 1947.98 M1925.73 1946.88 L1925.73 1956.13 L1923.07 1956.13 L1923.07 1953.67 Q1922.16 1955.14 1920.8 1955.85 Q1919.44 1956.55 1917.47 1956.55 Q1914.98 1956.55 1913.51 1955.16 Q1912.05 1953.75 1912.05 1951.41 Q1912.05 1948.68 1913.87 1947.29 Q1915.71 1945.9 1919.34 1945.9 L1923.07 1945.9 L1923.07 1945.64 Q1923.07 1943.8 1921.85 1942.8 Q1920.65 1941.79 1918.47 1941.79 Q1917.08 1941.79 1915.76 1942.12 Q1914.45 1942.46 1913.23 1943.12 L1913.23 1940.66 Q1914.69 1940.1 1916.07 1939.82 Q1917.44 1939.53 1918.74 1939.53 Q1922.26 1939.53 1924 1941.36 Q1925.73 1943.18 1925.73 1946.88 Z" fill="#000000" fill-rule="evenodd" fill-opacity="1" /><path clip-path="url(#clip390)" d="M 0 0 M1938.85 1940.4 L1938.85 1942.92 Q1937.73 1942.34 1936.51 1942.05 Q1935.29 1941.76 1933.99 1941.76 Q1932.01 1941.76 1931.01 1942.37 Q1930.03 1942.98 1930.03 1944.19 Q1930.03 1945.12 1930.74 1945.65 Q1931.45 1946.17 1933.59 1946.65 L1934.5 1946.85 Q1937.33 1947.46 1938.52 1948.58 Q1939.72 1949.67 1939.72 1951.66 Q1939.72 1953.91 1937.93 1955.23 Q1936.15 1956.55 1933.02 1956.55 Q1931.72 1956.55 1930.3 1956.29 Q1928.9 1956.04 1927.34 1955.53 L1927.34 1952.79 Q1928.81 1953.55 1930.25 1953.94 Q1931.68 1954.32 1933.08 1954.32 Q1934.96 1954.32 1935.97 1953.68 Q1936.99 1953.03 1936.99 1951.86 Q1936.99 1950.77 1936.25 1950.2 Q1935.53 1949.62 1933.05 1949.08 L1932.13 1948.86 Q1929.65 1948.34 1928.55 1947.27 Q1927.45 1946.19 1927.45 1944.31 Q1927.45 1942.02 1929.07 1940.78 Q1930.69 1939.53 1933.67 1939.53 Q1935.15 1939.53 1936.45 1939.75 Q1937.75 1939.97 1938.85 1940.4 Z" fill="#000000" fill-rule="evenodd" fill-opacity="1" /><path clip-path="url(#clip390)" d="M 0 0 M1948.79 1941.79 Q1946.65 1941.79 1945.41 1943.47 Q1944.16 1945.13 1944.16 1948.04 Q1944.16 1950.95 1945.39 1952.63 Q1946.64 1954.29 1948.79 1954.29 Q1950.92 1954.29 1952.16 1952.61 Q1953.41 1950.93 1953.41 1948.04 Q1953.41 1945.16 1952.16 1943.48 Q1950.92 1941.79 1948.79 1941.79 M1948.79 1939.53 Q1952.27 1939.53 1954.25 1941.79 Q1956.23 1944.05 1956.23 1948.04 Q1956.23 1952.02 1954.25 1954.29 Q1952.27 1956.55 1948.79 1956.55 Q1945.31 1956.55 1943.32 1954.29 Q1941.36 1952.02 1941.36 1948.04 Q1941.36 1944.05 1943.32 1941.79 Q1945.31 1939.53 1948.79 1939.53 Z" fill="#000000" fill-rule="evenodd" fill-opacity="1" /><path clip-path="url(#clip390)" d="M 0 0 M1972.49 1946.35 L1972.49 1956.13 L1969.83 1956.13 L1969.83 1946.43 Q1969.83 1944.13 1968.93 1942.99 Q1968.03 1941.85 1966.24 1941.85 Q1964.08 1941.85 1962.84 1943.22 Q1961.6 1944.6 1961.6 1946.97 L1961.6 1956.13 L1958.92 1956.13 L1958.92 1939.92 L1961.6 1939.92 L1961.6 1942.44 Q1962.55 1940.98 1963.84 1940.26 Q1965.14 1939.53 1966.83 1939.53 Q1969.63 1939.53 1971.06 1941.27 Q1972.49 1942.99 1972.49 1946.35 Z" fill="#000000" fill-rule="evenodd" fill-opacity="1" /><path clip-path="url(#clip390)" d="M 0 0 M1975.28 1939.92 L1977.94 1939.92 L1977.94 1956.13 L1975.28 1956.13 L1975.28 1939.92 M1975.28 1933.62 L1977.94 1933.62 L1977.94 1936.99 L1975.28 1936.99 L1975.28 1933.62 Z" fill="#000000" fill-rule="evenodd" fill-opacity="1" /><path clip-path="url(#clip390)" d="M 0 0 M1994.21 1946.35 L1994.21 1956.13 L1991.54 1956.13 L1991.54 1946.43 Q1991.54 1944.13 1990.65 1942.99 Q1989.75 1941.85 1987.96 1941.85 Q1985.8 1941.85 1984.56 1943.22 Q1983.31 1944.6 1983.31 1946.97 L1983.31 1956.13 L1980.64 1956.13 L1980.64 1939.92 L1983.31 1939.92 L1983.31 1942.44 Q1984.27 1940.98 1985.55 1940.26 Q1986.86 1939.53 1988.55 1939.53 Q1991.34 1939.53 1992.77 1941.27 Q1994.21 1942.99 1994.21 1946.35 Z" fill="#000000" fill-rule="evenodd" fill-opacity="1" /><path clip-path="url(#clip390)" d="M 0 0 M2007.66 1947.84 Q2007.66 1944.94 2006.46 1943.35 Q2005.27 1941.76 2003.12 1941.76 Q2000.98 1941.76 1999.78 1943.35 Q1998.59 1944.94 1998.59 1947.84 Q1998.59 1950.72 1999.78 1952.31 Q2000.98 1953.9 2003.12 1953.9 Q2005.27 1953.9 2006.46 1952.31 Q2007.66 1950.72 2007.66 1947.84 M2010.32 1954.12 Q2010.32 1958.25 2008.49 1960.26 Q2006.65 1962.29 2002.86 1962.29 Q2001.45 1962.29 2000.21 1962.07 Q1998.97 1961.87 1997.79 1961.44 L1997.79 1958.85 Q1998.97 1959.48 2000.11 1959.79 Q2001.25 1960.09 2002.44 1960.09 Q2005.06 1960.09 2006.36 1958.72 Q2007.66 1957.36 2007.66 1954.59 L2007.66 1953.28 Q2006.84 1954.71 2005.55 1955.42 Q2004.26 1956.13 2002.47 1956.13 Q1999.49 1956.13 1997.66 1953.86 Q1995.84 1951.58 1995.84 1947.84 Q1995.84 1944.08 1997.66 1941.8 Q1999.49 1939.53 2002.47 1939.53 Q2004.26 1939.53 2005.55 1940.24 Q2006.84 1940.95 2007.66 1942.38 L2007.66 1939.92 L2010.32 1939.92 L2010.32 1954.12 Z" fill="#000000" fill-rule="evenodd" fill-opacity="1" /><path clip-path="url(#clip390)" d="M 0 0 M-788.023 878.972 L-788.023 882.054 Q-789.498 880.679 -791.176 880 Q-792.84 879.32 -794.721 879.32 Q-798.425 879.32 -800.392 881.591 Q-802.36 883.848 -802.36 888.13 Q-802.36 892.398 -800.392 894.67 Q-798.425 896.927 -794.721 896.927 Q-792.84 896.927 -791.176 896.247 Q-789.498 895.567 -788.023 894.192 L-788.023 897.245 Q-789.556 898.286 -791.278 898.807 Q-792.985 899.328 -794.895 899.328 Q-799.799 899.328 -802.62 896.333 Q-805.441 893.324 -805.441 888.13 Q-805.441 882.922 -802.62 879.927 Q-799.799 876.918 -794.895 876.918 Q-792.956 876.918 -791.249 877.439 Q-789.527 877.945 -788.023 878.972 Z" fill="#000000" fill-rule="evenodd" fill-opacity="1" /><path clip-path="url(#clip390)" d="M 0 0 M-778.951 884.571 Q-781.093 884.571 -782.337 886.249 Q-783.581 887.913 -783.581 890.821 Q-783.581 893.729 -782.351 895.407 Q-781.107 897.071 -778.951 897.071 Q-776.825 897.071 -775.58 895.393 Q-774.336 893.715 -774.336 890.821 Q-774.336 887.942 -775.58 886.264 Q-776.825 884.571 -778.951 884.571 M-778.951 882.314 Q-775.479 882.314 -773.497 884.571 Q-771.515 886.828 -771.515 890.821 Q-771.515 894.8 -773.497 897.071 Q-775.479 899.328 -778.951 899.328 Q-782.438 899.328 -784.42 897.071 Q-786.388 894.8 -786.388 890.821 Q-786.388 886.828 -784.42 884.571 Q-782.438 882.314 -778.951 882.314 Z" fill="#000000" fill-rule="evenodd" fill-opacity="1" /><path clip-path="url(#clip390)" d="M 0 0 M-768.723 876.397 L-766.061 876.397 L-766.061 898.909 L-768.723 898.909 L-768.723 876.397 Z" fill="#000000" fill-rule="evenodd" fill-opacity="1" /><path clip-path="url(#clip390)" d="M 0 0 M-763.269 876.397 L-760.607 876.397 L-760.607 898.909 L-763.269 898.909 L-763.269 876.397 Z" fill="#000000" fill-rule="evenodd" fill-opacity="1" /><path clip-path="url(#clip390)" d="M 0 0 M-750.45 890.763 Q-753.677 890.763 -754.921 891.501 Q-756.165 892.239 -756.165 894.019 Q-756.165 895.436 -755.239 896.275 Q-754.299 897.1 -752.693 897.1 Q-750.479 897.1 -749.148 895.538 Q-747.803 893.961 -747.803 891.357 L-747.803 890.763 L-750.45 890.763 M-745.141 889.664 L-745.141 898.909 L-747.803 898.909 L-747.803 896.449 Q-748.714 897.925 -750.074 898.634 Q-751.434 899.328 -753.402 899.328 Q-755.89 899.328 -757.366 897.939 Q-758.827 896.536 -758.827 894.192 Q-758.827 891.458 -757.004 890.069 Q-755.167 888.68 -751.535 888.68 L-747.803 888.68 L-747.803 888.42 Q-747.803 886.582 -749.018 885.584 Q-750.219 884.571 -752.403 884.571 Q-753.792 884.571 -755.109 884.904 Q-756.425 885.237 -757.641 885.902 L-757.641 883.443 Q-756.18 882.879 -754.805 882.604 Q-753.431 882.314 -752.129 882.314 Q-748.613 882.314 -746.877 884.137 Q-745.141 885.96 -745.141 889.664 Z" fill="#000000" fill-rule="evenodd" fill-opacity="1" /><path clip-path="url(#clip390)" d="M 0 0 M-730.717 890.821 Q-730.717 887.884 -731.932 886.221 Q-733.133 884.542 -735.245 884.542 Q-737.357 884.542 -738.573 886.221 Q-739.773 887.884 -739.773 890.821 Q-739.773 893.758 -738.573 895.436 Q-737.357 897.1 -735.245 897.1 Q-733.133 897.1 -731.932 895.436 Q-730.717 893.758 -730.717 890.821 M-739.773 885.164 Q-738.934 883.718 -737.661 883.023 Q-736.373 882.314 -734.594 882.314 Q-731.643 882.314 -729.805 884.658 Q-727.953 887.002 -727.953 890.821 Q-727.953 894.641 -729.805 896.984 Q-731.643 899.328 -734.594 899.328 Q-736.373 899.328 -737.661 898.634 Q-738.934 897.925 -739.773 896.478 L-739.773 898.909 L-742.45 898.909 L-742.45 876.397 L-739.773 876.397 L-739.773 885.164 Z" fill="#000000" fill-rule="evenodd" fill-opacity="1" /><path clip-path="url(#clip390)" d="M 0 0 M-718.882 884.571 Q-721.023 884.571 -722.268 886.249 Q-723.512 887.913 -723.512 890.821 Q-723.512 893.729 -722.282 895.407 Q-721.038 897.071 -718.882 897.071 Q-716.756 897.071 -715.511 895.393 Q-714.267 893.715 -714.267 890.821 Q-714.267 887.942 -715.511 886.264 Q-716.756 884.571 -718.882 884.571 M-718.882 882.314 Q-715.41 882.314 -713.428 884.571 Q-711.446 886.828 -711.446 890.821 Q-711.446 894.8 -713.428 897.071 Q-715.41 899.328 -718.882 899.328 Q-722.369 899.328 -724.351 897.071 Q-726.319 894.8 -726.319 890.821 Q-726.319 886.828 -724.351 884.571 Q-722.369 882.314 -718.882 882.314 Z" fill="#000000" fill-rule="evenodd" fill-opacity="1" /><path clip-path="url(#clip390)" d="M 0 0 M-699.264 885.193 Q-699.713 884.933 -700.248 884.817 Q-700.769 884.687 -701.406 884.687 Q-703.662 884.687 -704.878 886.163 Q-706.079 887.624 -706.079 890.373 L-706.079 898.909 L-708.755 898.909 L-708.755 882.705 L-706.079 882.705 L-706.079 885.222 Q-705.239 883.747 -703.894 883.038 Q-702.548 882.314 -700.624 882.314 Q-700.349 882.314 -700.017 882.358 Q-699.684 882.387 -699.279 882.459 L-699.264 885.193 Z" fill="#000000" fill-rule="evenodd" fill-opacity="1" /><path clip-path="url(#clip390)" d="M 0 0 M-689.108 890.763 Q-692.334 890.763 -693.579 891.501 Q-694.823 892.239 -694.823 894.019 Q-694.823 895.436 -693.897 896.275 Q-692.956 897.1 -691.351 897.1 Q-689.137 897.1 -687.806 895.538 Q-686.461 893.961 -686.461 891.357 L-686.461 890.763 L-689.108 890.763 M-683.799 889.664 L-683.799 898.909 L-686.461 898.909 L-686.461 896.449 Q-687.372 897.925 -688.732 898.634 Q-690.092 899.328 -692.059 899.328 Q-694.548 899.328 -696.024 897.939 Q-697.485 896.536 -697.485 894.192 Q-697.485 891.458 -695.662 890.069 Q-693.825 888.68 -690.193 888.68 L-686.461 888.68 L-686.461 888.42 Q-686.461 886.582 -687.676 885.584 Q-688.877 884.571 -691.061 884.571 Q-692.45 884.571 -693.767 884.904 Q-695.083 885.237 -696.298 885.902 L-696.298 883.443 Q-694.837 882.879 -693.463 882.604 Q-692.088 882.314 -690.786 882.314 Q-687.271 882.314 -685.535 884.137 Q-683.799 885.96 -683.799 889.664 Z" fill="#000000" fill-rule="evenodd" fill-opacity="1" /><path clip-path="url(#clip390)" d="M 0 0 M-678.373 878.104 L-678.373 882.705 L-672.89 882.705 L-672.89 884.774 L-678.373 884.774 L-678.373 893.57 Q-678.373 895.552 -677.838 896.116 Q-677.288 896.681 -675.624 896.681 L-672.89 896.681 L-672.89 898.909 L-675.624 898.909 Q-678.706 898.909 -679.878 897.766 Q-681.05 896.608 -681.05 893.57 L-681.05 884.774 L-683.003 884.774 L-683.003 882.705 L-681.05 882.705 L-681.05 878.104 L-678.373 878.104 Z" fill="#000000" fill-rule="evenodd" fill-opacity="1" /><path clip-path="url(#clip390)" d="M 0 0 M-670.098 882.705 L-667.436 882.705 L-667.436 898.909 L-670.098 898.909 L-670.098 882.705 M-670.098 876.397 L-667.436 876.397 L-667.436 879.768 L-670.098 879.768 L-670.098 876.397 Z" fill="#000000" fill-rule="evenodd" fill-opacity="1" /><path clip-path="url(#clip390)" d="M 0 0 M-658.365 884.571 Q-660.506 884.571 -661.75 886.249 Q-662.994 887.913 -662.994 890.821 Q-662.994 893.729 -661.765 895.407 Q-660.52 897.071 -658.365 897.071 Q-656.238 897.071 -654.994 895.393 Q-653.75 893.715 -653.75 890.821 Q-653.75 887.942 -654.994 886.264 Q-656.238 884.571 -658.365 884.571 M-658.365 882.314 Q-654.892 882.314 -652.91 884.571 Q-650.928 886.828 -650.928 890.821 Q-650.928 894.8 -652.91 897.071 Q-654.892 899.328 -658.365 899.328 Q-661.851 899.328 -663.833 897.071 Q-665.801 894.8 -665.801 890.821 Q-665.801 886.828 -663.833 884.571 Q-661.851 882.314 -658.365 882.314 Z" fill="#000000" fill-rule="evenodd" fill-opacity="1" /><path clip-path="url(#clip390)" d="M 0 0 M-634.667 889.129 L-634.667 898.909 L-637.329 898.909 L-637.329 889.215 Q-637.329 886.915 -638.226 885.772 Q-639.123 884.629 -640.917 884.629 Q-643.072 884.629 -644.317 886.004 Q-645.561 887.378 -645.561 889.751 L-645.561 898.909 L-648.237 898.909 L-648.237 882.705 L-645.561 882.705 L-645.561 885.222 Q-644.606 883.761 -643.318 883.038 Q-642.016 882.314 -640.324 882.314 Q-637.531 882.314 -636.099 884.05 Q-634.667 885.772 -634.667 889.129 Z" fill="#000000" fill-rule="evenodd" fill-opacity="1" /><path clip-path="url(#clip392)" d="M973.769 1036.19 L941.769 1036.19 L957.769 1068.19 L973.769 1036.19 Z" fill="#800080" fill-rule="evenodd" fill-opacity="1" stroke="none"/>
<polyline clip-path="url(#clip392)" style="stroke:#800080; stroke-width:4; stroke-opacity:1; fill:none" stroke-dasharray="16, 10" points="
  894.785,1092.64 1020.75,1092.64 
  "/>
<polyline clip-path="url(#clip392)" style="stroke:#800080; stroke-width:4; stroke-opacity:1; fill:none" stroke-dasharray="16, 10" points="
  894.785,1011.74 1020.75,1011.74 
  "/>
<polyline clip-path="url(#clip392)" style="stroke:#800080; stroke-width:4; stroke-opacity:1; fill:none" stroke-dasharray="16, 10" points="
  894.785,1092.64 894.785,1011.74 
  "/>
<polyline clip-path="url(#clip392)" style="stroke:#800080; stroke-width:4; stroke-opacity:1; fill:none" stroke-dasharray="16, 10" points="
  1020.75,1092.64 1020.75,1011.74 
  "/>
<path clip-path="url(#clip392)" d="M956.318 877.601 L940.318 909.601 L972.318 909.601 L956.318 877.601 Z" fill="#800080" fill-rule="evenodd" fill-opacity="1" stroke="none"/>
<polyline clip-path="url(#clip392)" style="stroke:#800080; stroke-width:4; stroke-opacity:1; fill:none" stroke-dasharray="16, 10" points="
  901.804,937.535 1010.83,937.535 
  "/>
<polyline clip-path="url(#clip392)" style="stroke:#800080; stroke-width:4; stroke-opacity:1; fill:none" stroke-dasharray="16, 10" points="
  901.804,849.667 1010.83,849.667 
  "/>
<polyline clip-path="url(#clip392)" style="stroke:#800080; stroke-width:4; stroke-opacity:1; fill:none" stroke-dasharray="16, 10" points="
  901.804,937.535 901.804,849.667 
  "/>
<polyline clip-path="url(#clip392)" style="stroke:#800080; stroke-width:4; stroke-opacity:1; fill:none" stroke-dasharray="16, 10" points="
  1010.83,937.535 1010.83,849.667 
  "/>
<path clip-path="url(#clip392)" d="M1132.34 1020.84 L1100.34 1020.84 L1116.34 1052.84 L1132.34 1020.84 Z" fill="#ffa500" fill-rule="evenodd" fill-opacity="1" stroke="none"/>
<polyline clip-path="url(#clip392)" style="stroke:#ffa500; stroke-width:4; stroke-opacity:1; fill:none" stroke-dasharray="16, 10" points="
  1083.22,1074.42 1149.46,1074.42 
  "/>
<polyline clip-path="url(#clip392)" style="stroke:#ffa500; stroke-width:4; stroke-opacity:1; fill:none" stroke-dasharray="16, 10" points="
  1083.22,999.255 1149.46,999.255 
  "/>
<polyline clip-path="url(#clip392)" style="stroke:#ffa500; stroke-width:4; stroke-opacity:1; fill:none" stroke-dasharray="16, 10" points="
  1083.22,1074.42 1083.22,999.255 
  "/>
<polyline clip-path="url(#clip392)" style="stroke:#ffa500; stroke-width:4; stroke-opacity:1; fill:none" stroke-dasharray="16, 10" points="
  1149.46,1074.42 1149.46,999.255 
  "/>
<path clip-path="url(#clip392)" d="M1097.54 898.874 L1081.54 930.874 L1113.54 930.874 L1097.54 898.874 Z" fill="#ffa500" fill-rule="evenodd" fill-opacity="1" stroke="none"/>
<polyline clip-path="url(#clip392)" style="stroke:#ffa500; stroke-width:4; stroke-opacity:1; fill:none" stroke-dasharray="16, 10" points="
  1034.04,959.974 1161.05,959.974 
  "/>
<polyline clip-path="url(#clip392)" style="stroke:#ffa500; stroke-width:4; stroke-opacity:1; fill:none" stroke-dasharray="16, 10" points="
  1034.04,869.774 1161.05,869.774 
  "/>
<polyline clip-path="url(#clip392)" style="stroke:#ffa500; stroke-width:4; stroke-opacity:1; fill:none" stroke-dasharray="16, 10" points="
  1034.04,959.974 1034.04,869.774 
  "/>
<polyline clip-path="url(#clip392)" style="stroke:#ffa500; stroke-width:4; stroke-opacity:1; fill:none" stroke-dasharray="16, 10" points="
  1161.05,959.974 1161.05,869.774 
  "/>
<path clip-path="url(#clip392)" d="M941.044 956.895 L941.044 988.895 L973.044 988.895 L973.044 956.895 L941.044 956.895 Z" fill="#800080" fill-rule="evenodd" fill-opacity="1" stroke="none"/>
<polyline clip-path="url(#clip392)" style="stroke:#800080; stroke-width:4; stroke-opacity:1; fill:none" stroke-dasharray="16, 10" points="
  916.844,1009.33 997.243,1009.33 
  "/>
<polyline clip-path="url(#clip392)" style="stroke:#800080; stroke-width:4; stroke-opacity:1; fill:none" stroke-dasharray="16, 10" points="
  916.844,936.46 997.243,936.46 
  "/>
<polyline clip-path="url(#clip392)" style="stroke:#800080; stroke-width:4; stroke-opacity:1; fill:none" stroke-dasharray="16, 10" points="
  916.844,1009.33 916.844,936.46 
  "/>
<polyline clip-path="url(#clip392)" style="stroke:#800080; stroke-width:4; stroke-opacity:1; fill:none" stroke-dasharray="16, 10" points="
  997.243,1009.33 997.243,936.46 
  "/>
<path clip-path="url(#clip392)" d="M1090.94 959.855 L1090.94 991.855 L1122.94 991.855 L1122.94 959.855 L1090.94 959.855 Z" fill="#ffa500" fill-rule="evenodd" fill-opacity="1" stroke="none"/>
<polyline clip-path="url(#clip392)" style="stroke:#ffa500; stroke-width:4; stroke-opacity:1; fill:none" stroke-dasharray="16, 10" points="
  1072.5,1009.67 1141.39,1009.67 
  "/>
<polyline clip-path="url(#clip392)" style="stroke:#ffa500; stroke-width:4; stroke-opacity:1; fill:none" stroke-dasharray="16, 10" points="
  1072.5,942.045 1141.39,942.045 
  "/>
<polyline clip-path="url(#clip392)" style="stroke:#ffa500; stroke-width:4; stroke-opacity:1; fill:none" stroke-dasharray="16, 10" points="
  1072.5,1009.67 1072.5,942.045 
  "/>
<polyline clip-path="url(#clip392)" style="stroke:#ffa500; stroke-width:4; stroke-opacity:1; fill:none" stroke-dasharray="16, 10" points="
  1141.39,1009.67 1141.39,942.045 
  "/>
</svg>
