<?xml version="1.0" encoding="utf-8"?>
<svg xmlns="http://www.w3.org/2000/svg" xmlns:xlink="http://www.w3.org/1999/xlink" width="600" height="400" viewBox="0 0 2400 1600">
<defs>
  <clipPath id="clip180">
    <rect x="0" y="0" width="2400" height="1600"/>
  </clipPath>
</defs>
<path clip-path="url(#clip180)" d="
M0 1600 L2400 1600 L2400 0 L0 0  Z
  " fill="#ffffff" fill-rule="evenodd" fill-opacity="1"/>
<defs>
  <clipPath id="clip181">
    <rect x="480" y="0" width="1681" height="1600"/>
  </clipPath>
</defs>
<path clip-path="url(#clip180)" d="
M86.9921 1521.01 L2352.76 1521.01 L2352.76 47.2441 L86.9921 47.2441  Z
  " fill="#ffffff" fill-rule="evenodd" fill-opacity="1"/>
<defs>
  <clipPath id="clip182">
    <rect x="86" y="47" width="2267" height="1475"/>
  </clipPath>
</defs>
<polyline clip-path="url(#clip182)" style="stroke:#000000; stroke-width:2; stroke-opacity:0.1; fill:none" points="
  1417.95,1521.01 1417.95,47.2441 
  "/>
<polyline clip-path="url(#clip182)" style="stroke:#000000; stroke-width:2; stroke-opacity:0.1; fill:none" points="
  86.9921,944.516 2352.76,944.516 
  "/>
<polyline clip-path="url(#clip180)" style="stroke:#000000; stroke-width:4; stroke-opacity:1; fill:none" points="
  86.9921,1521.01 2352.76,1521.01 
  "/>
<polyline clip-path="url(#clip180)" style="stroke:#000000; stroke-width:4; stroke-opacity:1; fill:none" points="
  86.9921,1521.01 86.9921,47.2441 
  "/>
<polyline clip-path="url(#clip180)" style="stroke:#000000; stroke-width:4; stroke-opacity:1; fill:none" points="
  1417.95,1521.01 1417.95,1503.32 
  "/>
<polyline clip-path="url(#clip180)" style="stroke:#000000; stroke-width:4; stroke-opacity:1; fill:none" points="
  86.9921,944.516 114.181,944.516 
  "/>
<path clip-path="url(#clip180)" d="M 0 0 M1417.95 1543 Q1414.34 1543 1412.51 1546.56 Q1410.71 1550.11 1410.71 1557.23 Q1410.71 1564.34 1412.51 1567.91 Q1414.34 1571.45 1417.95 1571.45 Q1421.59 1571.45 1423.39 1567.91 Q1425.22 1564.34 1425.22 1557.23 Q1425.22 1550.11 1423.39 1546.56 Q1421.59 1543 1417.95 1543 M1417.95 1539.29 Q1423.76 1539.29 1426.82 1543.9 Q1429.9 1548.48 1429.9 1557.23 Q1429.9 1565.96 1426.82 1570.57 Q1423.76 1575.15 1417.95 1575.15 Q1412.14 1575.15 1409.06 1570.57 Q1406.01 1565.96 1406.01 1557.23 Q1406.01 1548.48 1409.06 1543.9 Q1412.14 1539.29 1417.95 1539.29 Z" fill="#000000" fill-rule="evenodd" fill-opacity="1" /><path clip-path="url(#clip180)" d="M 0 0 M51.0477 930.315 Q47.4367 930.315 45.608 933.88 Q43.8024 937.422 43.8024 944.551 Q43.8024 951.658 45.608 955.222 Q47.4367 958.764 51.0477 958.764 Q54.682 958.764 56.4875 955.222 Q58.3162 951.658 58.3162 944.551 Q58.3162 937.422 56.4875 933.88 Q54.682 930.315 51.0477 930.315 M51.0477 926.611 Q56.8579 926.611 59.9134 931.218 Q62.9921 935.801 62.9921 944.551 Q62.9921 953.278 59.9134 957.884 Q56.8579 962.468 51.0477 962.468 Q45.2376 962.468 42.1589 957.884 Q39.1034 953.278 39.1034 944.551 Q39.1034 935.801 42.1589 931.218 Q45.2376 926.611 51.0477 926.611 Z" fill="#000000" fill-rule="evenodd" fill-opacity="1" /><polyline clip-path="url(#clip182)" style="stroke:#800080; stroke-width:0.282586; stroke-opacity:1; fill:none" points="
  304.183,1192.63 2288.63,88.9544 
  "/>
<polyline clip-path="url(#clip182)" style="stroke:#ffa500; stroke-width:0.0988804; stroke-opacity:1; fill:none" points="
  1251.56,782.833 1268.74,1230.89 
  "/>
<polyline clip-path="url(#clip182)" style="stroke:#ffa500; stroke-width:0.305708; stroke-opacity:1; fill:none" points="
  151.118,818.86 1268.74,1230.89 
  "/>
<polyline clip-path="url(#clip182)" style="stroke:#800080; stroke-width:3.07169; stroke-opacity:1; fill:none" points="
  151.118,818.86 2283.8,1479.3 
  "/>
<polyline clip-path="url(#clip182)" style="stroke:#ffa500; stroke-width:2.65015; stroke-opacity:1; fill:none" points="
  1251.56,782.833 2288.63,88.9544 
  "/>
<polyline clip-path="url(#clip182)" style="stroke:#800080; stroke-width:4.31516; stroke-opacity:1; fill:none" points="
  151.118,818.86 1251.56,782.833 
  "/>
<polyline clip-path="url(#clip182)" style="stroke:#ffa500; stroke-width:4.14216; stroke-opacity:1; fill:none" points="
  1251.56,782.833 2283.8,1479.3 
  "/>
<polyline clip-path="url(#clip182)" style="stroke:#ffa500; stroke-width:1.31596; stroke-opacity:1; fill:none" points="
  1268.74,1230.89 2283.8,1479.3 
  "/>
<polyline clip-path="url(#clip182)" style="stroke:#800080; stroke-width:7.64158; stroke-opacity:1; fill:none" points="
  151.118,818.86 304.183,1192.63 
  "/>
<polyline clip-path="url(#clip182)" style="stroke:#ffa500; stroke-width:0.495512; stroke-opacity:1; fill:none" points="
  1268.74,1230.89 2288.63,88.9544 
  "/>
<polyline clip-path="url(#clip182)" style="stroke:#ffa500; stroke-width:8; stroke-opacity:1; fill:none" points="
  2283.8,1479.3 2288.63,88.9544 
  "/>
<polyline clip-path="url(#clip182)" style="stroke:#800080; stroke-width:4.30014; stroke-opacity:1; fill:none" points="
  304.183,1192.63 1251.56,782.833 
  "/>
<polyline clip-path="url(#clip182)" style="stroke:#800080; stroke-width:2.66709; stroke-opacity:1; fill:none" points="
  304.183,1192.63 1268.74,1230.89 
  "/>
<polyline clip-path="url(#clip182)" style="stroke:#800080; stroke-width:2.48096; stroke-opacity:1; fill:none" points="
  151.118,818.86 2288.63,88.9544 
  "/>
<polyline clip-path="url(#clip182)" style="stroke:#800080; stroke-width:1.19146; stroke-opacity:1; fill:none" points="
  304.183,1192.63 2283.8,1479.3 
  "/>
<circle clip-path="url(#clip182)" cx="1251.56" cy="782.833" r="23" fill="#000000" fill-rule="evenodd" fill-opacity="1" stroke="none"/>
<circle clip-path="url(#clip182)" cx="304.183" cy="1192.63" r="26" fill="#000000" fill-rule="evenodd" fill-opacity="1" stroke="none"/>
<circle clip-path="url(#clip182)" cx="2288.63" cy="88.9544" r="23" fill="#000000" fill-rule="evenodd" fill-opacity="1" stroke="none"/>
<circle clip-path="url(#clip182)" cx="1268.74" cy="1230.89" r="8" fill="#000000" fill-rule="evenodd" fill-opacity="1" stroke="none"/>
<circle clip-path="url(#clip182)" cx="2283.8" cy="1479.3" r="28" fill="#000000" fill-rule="evenodd" fill-opacity="1" stroke="none"/>
<circle clip-path="url(#clip182)" cx="151.118" cy="818.86" r="8" fill="#000000" fill-rule="evenodd" fill-opacity="1" stroke="none"/>
<path clip-path="url(#clip180)" d="M 0 0 M1175.75 759.317 L1175.75 806.348 L1185.63 806.348 Q1198.15 806.348 1203.94 800.677 Q1209.77 795.006 1209.77 782.772 Q1209.77 770.619 1203.94 764.988 Q1198.15 759.317 1185.63 759.317 L1175.75 759.317 M1167.56 752.593 L1184.37 752.593 Q1201.96 752.593 1210.18 759.925 Q1218.4 767.216 1218.4 782.772 Q1218.4 798.408 1210.14 805.74 Q1201.87 813.073 1184.37 813.073 L1167.56 813.073 L1167.56 752.593 Z" fill="#000000" fill-rule="evenodd" fill-opacity="1" /><path clip-path="url(#clip180)" d="M 0 0 M1246.84 790.266 Q1237.81 790.266 1234.32 792.332 Q1230.84 794.398 1230.84 799.38 Q1230.84 803.35 1233.43 805.7 Q1236.06 808.009 1240.56 808.009 Q1246.76 808.009 1250.49 803.634 Q1254.25 799.218 1254.25 791.927 L1254.25 790.266 L1246.84 790.266 M1261.71 787.187 L1261.71 813.073 L1254.25 813.073 L1254.25 806.186 Q1251.7 810.318 1247.89 812.303 Q1244.08 814.247 1238.58 814.247 Q1231.61 814.247 1227.48 810.358 Q1223.38 806.429 1223.38 799.867 Q1223.38 792.21 1228.49 788.322 Q1233.63 784.433 1243.8 784.433 L1254.25 784.433 L1254.25 783.703 Q1254.25 778.559 1250.85 775.764 Q1247.49 772.928 1241.37 772.928 Q1237.48 772.928 1233.8 773.86 Q1230.11 774.792 1226.71 776.655 L1226.71 769.768 Q1230.8 768.189 1234.65 767.419 Q1238.49 766.609 1242.14 766.609 Q1251.98 766.609 1256.85 771.713 Q1261.71 776.817 1261.71 787.187 Z" fill="#000000" fill-rule="evenodd" fill-opacity="1" /><path clip-path="url(#clip180)" d="M 0 0 M1276.9 754.821 L1276.9 767.702 L1292.25 767.702 L1292.25 773.495 L1276.9 773.495 L1276.9 798.125 Q1276.9 803.674 1278.4 805.254 Q1279.94 806.834 1284.59 806.834 L1292.25 806.834 L1292.25 813.073 L1284.59 813.073 Q1275.97 813.073 1272.68 809.872 Q1269.4 806.632 1269.4 798.125 L1269.4 773.495 L1263.93 773.495 L1263.93 767.702 L1269.4 767.702 L1269.4 754.821 L1276.9 754.821 Z" fill="#000000" fill-rule="evenodd" fill-opacity="1" /><path clip-path="url(#clip180)" d="M 0 0 M1320.69 790.266 Q1311.65 790.266 1308.17 792.332 Q1304.69 794.398 1304.69 799.38 Q1304.69 803.35 1307.28 805.7 Q1309.91 808.009 1314.41 808.009 Q1320.61 808.009 1324.33 803.634 Q1328.1 799.218 1328.1 791.927 L1328.1 790.266 L1320.69 790.266 M1335.55 787.187 L1335.55 813.073 L1328.1 813.073 L1328.1 806.186 Q1325.55 810.318 1321.74 812.303 Q1317.93 814.247 1312.42 814.247 Q1305.46 814.247 1301.32 810.358 Q1297.23 806.429 1297.23 799.867 Q1297.23 792.21 1302.34 788.322 Q1307.48 784.433 1317.65 784.433 L1328.1 784.433 L1328.1 783.703 Q1328.1 778.559 1324.7 775.764 Q1321.34 772.928 1315.22 772.928 Q1311.33 772.928 1307.64 773.86 Q1303.96 774.792 1300.55 776.655 L1300.55 769.768 Q1304.65 768.189 1308.49 767.419 Q1312.34 766.609 1315.99 766.609 Q1325.83 766.609 1330.69 771.713 Q1335.55 776.817 1335.55 787.187 Z" fill="#000000" fill-rule="evenodd" fill-opacity="1" /><path clip-path="url(#clip180)" d="M 0 0 M-93.1503 1162.39 L-41.9874 1162.39 L-41.9874 1169.27 L-63.4572 1169.27 L-63.4572 1222.87 L-71.6805 1222.87 L-71.6805 1169.27 L-93.1503 1169.27 L-93.1503 1162.39 Z" fill="#000000" fill-rule="evenodd" fill-opacity="1" /><path clip-path="url(#clip180)" d="M 0 0 M-9.45861 1198.32 L-9.45861 1201.96 L-43.7293 1201.96 Q-43.2431 1209.66 -39.1112 1213.71 Q-34.9388 1217.72 -27.5256 1217.72 Q-23.2317 1217.72 -19.2213 1216.67 Q-15.1704 1215.61 -11.2005 1213.51 L-11.2005 1220.56 Q-15.2109 1222.26 -19.4238 1223.15 Q-23.6368 1224.04 -27.9712 1224.04 Q-38.8277 1224.04 -45.1876 1217.72 Q-51.507 1211.4 -51.507 1200.63 Q-51.507 1189.49 -45.5117 1182.96 Q-39.4758 1176.4 -29.2675 1176.4 Q-20.1125 1176.4 -14.8058 1182.32 Q-9.45861 1188.19 -9.45861 1198.32 M-16.9123 1196.13 Q-16.9933 1190.01 -20.3555 1186.37 Q-23.6773 1182.72 -29.1865 1182.72 Q-35.4249 1182.72 -39.1922 1186.24 Q-42.9191 1189.77 -43.4862 1196.17 L-16.9123 1196.13 Z" fill="#000000" fill-rule="evenodd" fill-opacity="1" /><path clip-path="url(#clip180)" d="M 0 0 M31.0099 1179.24 L31.0099 1186.2 Q27.8502 1184.46 24.65 1183.61 Q21.4903 1182.72 18.2496 1182.72 Q10.9985 1182.72 6.98807 1187.34 Q2.97767 1191.92 2.97767 1200.22 Q2.97767 1208.52 6.98807 1213.14 Q10.9985 1217.72 18.2496 1217.72 Q21.4903 1217.72 24.65 1216.87 Q27.8502 1215.98 31.0099 1214.24 L31.0099 1221.12 Q27.8907 1222.58 24.5285 1223.31 Q21.2067 1224.04 17.4394 1224.04 Q7.19061 1224.04 1.15476 1217.6 Q-4.88108 1211.16 -4.88108 1200.22 Q-4.88108 1189.12 1.19527 1182.76 Q7.31214 1176.4 17.9255 1176.4 Q21.3688 1176.4 24.65 1177.13 Q27.9312 1177.82 31.0099 1179.24 Z" fill="#000000" fill-rule="evenodd" fill-opacity="1" /><path clip-path="url(#clip180)" d="M 0 0 M76.5421 1195.48 L76.5421 1222.87 L69.0884 1222.87 L69.0884 1195.72 Q69.0884 1189.28 66.5769 1186.08 Q64.0653 1182.88 59.0422 1182.88 Q53.0063 1182.88 49.5226 1186.73 Q46.0388 1190.58 46.0388 1197.22 L46.0388 1222.87 L38.5446 1222.87 L38.5446 1159.83 L46.0388 1159.83 L46.0388 1184.54 Q48.7124 1180.45 52.3177 1178.43 Q55.9635 1176.4 60.7031 1176.4 Q68.5213 1176.4 72.5317 1181.26 Q76.5421 1186.08 76.5421 1195.48 Z" fill="#000000" fill-rule="evenodd" fill-opacity="1" /><path clip-path="url(#clip180)" d="M 0 0 M122.074 1195.48 L122.074 1222.87 L114.621 1222.87 L114.621 1195.72 Q114.621 1189.28 112.109 1186.08 Q109.597 1182.88 104.574 1182.88 Q98.5385 1182.88 95.0547 1186.73 Q91.5709 1190.58 91.5709 1197.22 L91.5709 1222.87 L84.0768 1222.87 L84.0768 1177.49 L91.5709 1177.49 L91.5709 1184.54 Q94.2445 1180.45 97.8498 1178.43 Q101.496 1176.4 106.235 1176.4 Q114.053 1176.4 118.064 1181.26 Q122.074 1186.08 122.074 1195.48 Z" fill="#000000" fill-rule="evenodd" fill-opacity="1" /><path clip-path="url(#clip180)" d="M 0 0 M129.892 1177.49 L137.346 1177.49 L137.346 1222.87 L129.892 1222.87 L129.892 1177.49 M129.892 1159.83 L137.346 1159.83 L137.346 1169.27 L129.892 1169.27 L129.892 1159.83 Z" fill="#000000" fill-rule="evenodd" fill-opacity="1" /><path clip-path="url(#clip180)" d="M 0 0 M177.815 1179.24 L177.815 1186.2 Q174.655 1184.46 171.455 1183.61 Q168.295 1182.72 165.054 1182.72 Q157.803 1182.72 153.793 1187.34 Q149.782 1191.92 149.782 1200.22 Q149.782 1208.52 153.793 1213.14 Q157.803 1217.72 165.054 1217.72 Q168.295 1217.72 171.455 1216.87 Q174.655 1215.98 177.815 1214.24 L177.815 1221.12 Q174.696 1222.58 171.333 1223.31 Q168.012 1224.04 164.244 1224.04 Q153.995 1224.04 147.96 1217.6 Q141.924 1211.16 141.924 1200.22 Q141.924 1189.12 148 1182.76 Q154.117 1176.4 164.73 1176.4 Q168.174 1176.4 171.455 1177.13 Q174.736 1177.82 177.815 1179.24 Z" fill="#000000" fill-rule="evenodd" fill-opacity="1" /><path clip-path="url(#clip180)" d="M 0 0 M206.252 1200.06 Q197.219 1200.06 193.735 1202.12 Q190.251 1204.19 190.251 1209.17 Q190.251 1213.14 192.844 1215.49 Q195.477 1217.8 199.973 1217.8 Q206.171 1217.8 209.898 1213.43 Q213.665 1209.01 213.665 1201.72 L213.665 1200.06 L206.252 1200.06 M221.119 1196.98 L221.119 1222.87 L213.665 1222.87 L213.665 1215.98 Q211.113 1220.11 207.305 1222.1 Q203.497 1224.04 197.988 1224.04 Q191.021 1224.04 186.889 1220.15 Q182.797 1216.22 182.797 1209.66 Q182.797 1202 187.901 1198.11 Q193.046 1194.23 203.214 1194.23 L213.665 1194.23 L213.665 1193.5 Q213.665 1188.35 210.262 1185.56 Q206.9 1182.72 200.783 1182.72 Q196.894 1182.72 193.208 1183.65 Q189.522 1184.58 186.119 1186.45 L186.119 1179.56 Q190.21 1177.98 194.059 1177.21 Q197.907 1176.4 201.553 1176.4 Q211.397 1176.4 216.258 1181.51 Q221.119 1186.61 221.119 1196.98 Z" fill="#000000" fill-rule="evenodd" fill-opacity="1" /><path clip-path="url(#clip180)" d="M 0 0 M228.937 1159.83 L236.391 1159.83 L236.391 1222.87 L228.937 1222.87 L228.937 1159.83 Z" fill="#000000" fill-rule="evenodd" fill-opacity="1" /><path clip-path="url(#clip180)" d="M 0 0 M278.682 1236.64 L278.682 1242.43 L235.581 1242.43 L235.581 1236.64 L278.682 1236.64 Z" fill="#000000" fill-rule="evenodd" fill-opacity="1" /><path clip-path="url(#clip180)" d="M 0 0 M332.114 1167.04 L332.114 1175.67 Q327.982 1171.82 323.283 1169.92 Q318.624 1168.02 313.358 1168.02 Q302.988 1168.02 297.478 1174.38 Q291.969 1180.7 291.969 1192.69 Q291.969 1204.64 297.478 1211 Q302.988 1217.32 313.358 1217.32 Q318.624 1217.32 323.283 1215.41 Q327.982 1213.51 332.114 1209.66 L332.114 1218.21 Q327.82 1221.12 322.999 1222.58 Q318.219 1224.04 312.872 1224.04 Q299.139 1224.04 291.24 1215.65 Q283.341 1207.23 283.341 1192.69 Q283.341 1178.1 291.24 1169.72 Q299.139 1161.29 312.872 1161.29 Q318.3 1161.29 323.08 1162.75 Q327.901 1164.17 332.114 1167.04 Z" fill="#000000" fill-rule="evenodd" fill-opacity="1" /><path clip-path="url(#clip180)" d="M 0 0 M357.513 1182.72 Q351.517 1182.72 348.034 1187.42 Q344.55 1192.08 344.55 1200.22 Q344.55 1208.36 347.993 1213.06 Q351.477 1217.72 357.513 1217.72 Q363.468 1217.72 366.951 1213.02 Q370.435 1208.32 370.435 1200.22 Q370.435 1192.16 366.951 1187.46 Q363.468 1182.72 357.513 1182.72 M357.513 1176.4 Q367.235 1176.4 372.785 1182.72 Q378.334 1189.04 378.334 1200.22 Q378.334 1211.36 372.785 1217.72 Q367.235 1224.04 357.513 1224.04 Q347.75 1224.04 342.2 1217.72 Q336.691 1211.36 336.691 1200.22 Q336.691 1189.04 342.2 1182.72 Q347.75 1176.4 357.513 1176.4 Z" fill="#000000" fill-rule="evenodd" fill-opacity="1" /><path clip-path="url(#clip180)" d="M 0 0 M423.867 1195.48 L423.867 1222.87 L416.413 1222.87 L416.413 1195.72 Q416.413 1189.28 413.901 1186.08 Q411.39 1182.88 406.367 1182.88 Q400.331 1182.88 396.847 1186.73 Q393.363 1190.58 393.363 1197.22 L393.363 1222.87 L385.869 1222.87 L385.869 1177.49 L393.363 1177.49 L393.363 1184.54 Q396.037 1180.45 399.642 1178.43 Q403.288 1176.4 408.028 1176.4 Q415.846 1176.4 419.856 1181.26 Q423.867 1186.08 423.867 1195.48 Z" fill="#000000" fill-rule="evenodd" fill-opacity="1" /><path clip-path="url(#clip180)" d="M 0 0 M460.608 1178.83 L460.608 1185.88 Q457.449 1184.26 454.046 1183.45 Q450.643 1182.64 446.997 1182.64 Q441.448 1182.64 438.652 1184.34 Q435.898 1186.04 435.898 1189.45 Q435.898 1192.04 437.883 1193.54 Q439.868 1194.99 445.863 1196.33 L448.415 1196.9 Q456.355 1198.6 459.677 1201.72 Q463.039 1204.8 463.039 1210.35 Q463.039 1216.67 458.016 1220.35 Q453.033 1224.04 444.283 1224.04 Q440.637 1224.04 436.667 1223.31 Q432.738 1222.62 428.363 1221.2 L428.363 1213.51 Q432.495 1215.65 436.505 1216.75 Q440.516 1217.8 444.445 1217.8 Q449.711 1217.8 452.547 1216.02 Q455.383 1214.2 455.383 1210.91 Q455.383 1207.88 453.317 1206.26 Q451.291 1204.64 444.364 1203.14 L441.772 1202.53 Q434.845 1201.07 431.766 1198.07 Q428.687 1195.04 428.687 1189.77 Q428.687 1183.37 433.224 1179.88 Q437.761 1176.4 446.106 1176.4 Q450.238 1176.4 453.884 1177.01 Q457.53 1177.62 460.608 1178.83 Z" fill="#000000" fill-rule="evenodd" fill-opacity="1" /><path clip-path="url(#clip180)" d="M 0 0 M478.23 1164.61 L478.23 1177.49 L493.583 1177.49 L493.583 1183.29 L478.23 1183.29 L478.23 1207.92 Q478.23 1213.47 479.729 1215.05 Q481.268 1216.63 485.926 1216.63 L493.583 1216.63 L493.583 1222.87 L485.926 1222.87 Q477.298 1222.87 474.017 1219.66 Q470.736 1216.42 470.736 1207.92 L470.736 1183.29 L465.267 1183.29 L465.267 1177.49 L470.736 1177.49 L470.736 1164.61 L478.23 1164.61 Z" fill="#000000" fill-rule="evenodd" fill-opacity="1" /><path clip-path="url(#clip180)" d="M 0 0 M527.691 1184.46 Q526.436 1183.73 524.937 1183.41 Q523.478 1183.04 521.696 1183.04 Q515.377 1183.04 511.974 1187.18 Q508.612 1191.27 508.612 1198.96 L508.612 1222.87 L501.117 1222.87 L501.117 1177.49 L508.612 1177.49 L508.612 1184.54 Q510.961 1180.41 514.728 1178.43 Q518.496 1176.4 523.883 1176.4 Q524.653 1176.4 525.585 1176.52 Q526.517 1176.6 527.651 1176.81 L527.691 1184.46 Z" fill="#000000" fill-rule="evenodd" fill-opacity="1" /><path clip-path="url(#clip180)" d="M 0 0 M556.129 1200.06 Q547.095 1200.06 543.611 1202.12 Q540.128 1204.19 540.128 1209.17 Q540.128 1213.14 542.72 1215.49 Q545.353 1217.8 549.85 1217.8 Q556.048 1217.8 559.774 1213.43 Q563.542 1209.01 563.542 1201.72 L563.542 1200.06 L556.129 1200.06 M570.995 1196.98 L570.995 1222.87 L563.542 1222.87 L563.542 1215.98 Q560.99 1220.11 557.182 1222.1 Q553.374 1224.04 547.865 1224.04 Q540.897 1224.04 536.765 1220.15 Q532.674 1216.22 532.674 1209.66 Q532.674 1202 537.778 1198.11 Q542.923 1194.23 553.09 1194.23 L563.542 1194.23 L563.542 1193.5 Q563.542 1188.35 560.139 1185.56 Q556.777 1182.72 550.66 1182.72 Q546.771 1182.72 543.085 1183.65 Q539.398 1184.58 535.996 1186.45 L535.996 1179.56 Q540.087 1177.98 543.935 1177.21 Q547.784 1176.4 551.43 1176.4 Q561.273 1176.4 566.134 1181.51 Q570.995 1186.61 570.995 1196.98 Z" fill="#000000" fill-rule="evenodd" fill-opacity="1" /><path clip-path="url(#clip180)" d="M 0 0 M578.814 1177.49 L586.267 1177.49 L586.267 1222.87 L578.814 1222.87 L578.814 1177.49 M578.814 1159.83 L586.267 1159.83 L586.267 1169.27 L578.814 1169.27 L578.814 1159.83 Z" fill="#000000" fill-rule="evenodd" fill-opacity="1" /><path clip-path="url(#clip180)" d="M 0 0 M631.8 1195.48 L631.8 1222.87 L624.346 1222.87 L624.346 1195.72 Q624.346 1189.28 621.834 1186.08 Q619.323 1182.88 614.3 1182.88 Q608.264 1182.88 604.78 1186.73 Q601.296 1190.58 601.296 1197.22 L601.296 1222.87 L593.802 1222.87 L593.802 1177.49 L601.296 1177.49 L601.296 1184.54 Q603.97 1180.45 607.575 1178.43 Q611.221 1176.4 615.96 1176.4 Q623.779 1176.4 627.789 1181.26 Q631.8 1186.08 631.8 1195.48 Z" fill="#000000" fill-rule="evenodd" fill-opacity="1" /><path clip-path="url(#clip180)" d="M 0 0 M646.99 1164.61 L646.99 1177.49 L662.343 1177.49 L662.343 1183.29 L646.99 1183.29 L646.99 1207.92 Q646.99 1213.47 648.489 1215.05 Q650.029 1216.63 654.687 1216.63 L662.343 1216.63 L662.343 1222.87 L654.687 1222.87 Q646.059 1222.87 642.777 1219.66 Q639.496 1216.42 639.496 1207.92 L639.496 1183.29 L634.028 1183.29 L634.028 1177.49 L639.496 1177.49 L639.496 1164.61 L646.99 1164.61 Z" fill="#000000" fill-rule="evenodd" fill-opacity="1" /><path clip-path="url(#clip180)" d="M 0 0 M699.085 1178.83 L699.085 1185.88 Q695.925 1184.26 692.523 1183.45 Q689.12 1182.64 685.474 1182.64 Q679.924 1182.64 677.129 1184.34 Q674.375 1186.04 674.375 1189.45 Q674.375 1192.04 676.359 1193.54 Q678.344 1194.99 684.34 1196.33 L686.892 1196.9 Q694.832 1198.6 698.153 1201.72 Q701.516 1204.8 701.516 1210.35 Q701.516 1216.67 696.492 1220.35 Q691.51 1224.04 682.76 1224.04 Q679.114 1224.04 675.144 1223.31 Q671.215 1222.62 666.84 1221.2 L666.84 1213.51 Q670.972 1215.65 674.982 1216.75 Q678.993 1217.8 682.922 1217.8 Q688.188 1217.8 691.024 1216.02 Q693.859 1214.2 693.859 1210.91 Q693.859 1207.88 691.793 1206.26 Q689.768 1204.64 682.841 1203.14 L680.248 1202.53 Q673.321 1201.07 670.243 1198.07 Q667.164 1195.04 667.164 1189.77 Q667.164 1183.37 671.701 1179.88 Q676.238 1176.4 684.583 1176.4 Q688.715 1176.4 692.361 1177.01 Q696.006 1177.62 699.085 1178.83 Z" fill="#000000" fill-rule="evenodd" fill-opacity="1" /><path clip-path="url(#clip180)" d="M 0 0 M1820.06 65.4389 L1820.06 88.1645 L1830.35 88.1645 Q1836.06 88.1645 1839.18 85.2073 Q1842.3 82.2501 1842.3 76.7814 Q1842.3 71.3532 1839.18 68.3961 Q1836.06 65.4389 1830.35 65.4389 L1820.06 65.4389 M1811.88 58.7144 L1830.35 58.7144 Q1840.52 58.7144 1845.7 63.3324 Q1850.93 67.9099 1850.93 76.7814 Q1850.93 85.7339 1845.7 90.3114 Q1840.52 94.889 1830.35 94.889 L1820.06 94.889 L1820.06 119.194 L1811.88 119.194 L1811.88 58.7144 Z" fill="#000000" fill-rule="evenodd" fill-opacity="1" /><path clip-path="url(#clip180)" d="M 0 0 M1894.6 94.6459 L1894.6 98.2917 L1860.33 98.2917 Q1860.81 105.988 1864.95 110.039 Q1869.12 114.05 1876.53 114.05 Q1880.83 114.05 1884.84 112.997 Q1888.89 111.943 1892.86 109.837 L1892.86 116.885 Q1888.85 118.587 1884.63 119.478 Q1880.42 120.369 1876.09 120.369 Q1865.23 120.369 1858.87 114.05 Q1852.55 107.73 1852.55 96.9549 Q1852.55 85.8149 1858.55 79.293 Q1864.58 72.7305 1874.79 72.7305 Q1883.95 72.7305 1889.25 78.6448 Q1894.6 84.5187 1894.6 94.6459 M1887.15 92.4584 Q1887.06 86.3416 1883.7 82.6957 Q1880.38 79.0499 1874.87 79.0499 Q1868.63 79.0499 1864.87 82.5742 Q1861.14 86.0985 1860.57 92.4989 L1887.15 92.4584 Z" fill="#000000" fill-rule="evenodd" fill-opacity="1" /><path clip-path="url(#clip180)" d="M 0 0 M1928.71 80.7918 Q1927.45 80.0627 1925.95 79.7386 Q1924.49 79.374 1922.71 79.374 Q1916.39 79.374 1912.99 83.5059 Q1909.63 87.5973 1909.63 95.2941 L1909.63 119.194 L1902.13 119.194 L1902.13 73.8243 L1909.63 73.8243 L1909.63 80.8728 Q1911.98 76.7409 1915.74 74.756 Q1919.51 72.7305 1924.9 72.7305 Q1925.67 72.7305 1926.6 72.852 Q1927.53 72.9331 1928.67 73.1356 L1928.71 80.7918 Z" fill="#000000" fill-rule="evenodd" fill-opacity="1" /><path clip-path="url(#clip180)" d="M 0 0 M1959.49 56.1623 L1959.49 62.3602 L1952.36 62.3602 Q1948.35 62.3602 1946.77 63.9806 Q1945.24 65.6009 1945.24 69.8139 L1945.24 73.8243 L1957.51 73.8243 L1957.51 79.6171 L1945.24 79.6171 L1945.24 119.194 L1937.74 119.194 L1937.74 79.6171 L1930.61 79.6171 L1930.61 73.8243 L1937.74 73.8243 L1937.74 70.6646 Q1937.74 63.0894 1941.27 59.6461 Q1944.79 56.1623 1952.45 56.1623 L1959.49 56.1623 Z" fill="#000000" fill-rule="evenodd" fill-opacity="1" /><path clip-path="url(#clip180)" d="M 0 0 M1984.89 79.0499 Q1978.9 79.0499 1975.41 83.749 Q1971.93 88.4075 1971.93 96.5498 Q1971.93 104.692 1975.37 109.391 Q1978.86 114.05 1984.89 114.05 Q1990.85 114.05 1994.33 109.351 Q1997.82 104.652 1997.82 96.5498 Q1997.82 88.4885 1994.33 83.7895 Q1990.85 79.0499 1984.89 79.0499 M1984.89 72.7305 Q1994.62 72.7305 2000.17 79.0499 Q2005.72 85.3693 2005.72 96.5498 Q2005.72 107.69 2000.17 114.05 Q1994.62 120.369 1984.89 120.369 Q1975.13 120.369 1969.58 114.05 Q1964.07 107.69 1964.07 96.5498 Q1964.07 85.3693 1969.58 79.0499 Q1975.13 72.7305 1984.89 72.7305 Z" fill="#000000" fill-rule="evenodd" fill-opacity="1" /><path clip-path="url(#clip180)" d="M 0 0 M2039.82 80.7918 Q2038.57 80.0627 2037.07 79.7386 Q2035.61 79.374 2033.83 79.374 Q2027.51 79.374 2024.11 83.5059 Q2020.74 87.5973 2020.74 95.2941 L2020.74 119.194 L2013.25 119.194 L2013.25 73.8243 L2020.74 73.8243 L2020.74 80.8728 Q2023.09 76.7409 2026.86 74.756 Q2030.63 72.7305 2036.02 72.7305 Q2036.79 72.7305 2037.72 72.852 Q2038.65 72.9331 2039.78 73.1356 L2039.82 80.7918 Z" fill="#000000" fill-rule="evenodd" fill-opacity="1" /><path clip-path="url(#clip180)" d="M 0 0 M2081.51 82.5337 Q2084.3 77.5106 2088.19 75.1206 Q2092.08 72.7305 2097.35 72.7305 Q2104.44 72.7305 2108.28 77.7131 Q2112.13 82.6552 2112.13 91.8103 L2112.13 119.194 L2104.64 119.194 L2104.64 92.0533 Q2104.64 85.5314 2102.33 82.3717 Q2100.02 79.212 2095.28 79.212 Q2089.49 79.212 2086.13 83.0603 Q2082.76 86.9087 2082.76 93.5522 L2082.76 119.194 L2075.27 119.194 L2075.27 92.0533 Q2075.27 85.4909 2072.96 82.3717 Q2070.65 79.212 2065.83 79.212 Q2060.12 79.212 2056.76 83.1008 Q2053.39 86.9492 2053.39 93.5522 L2053.39 119.194 L2045.9 119.194 L2045.9 73.8243 L2053.39 73.8243 L2053.39 80.8728 Q2055.95 76.7004 2059.51 74.7155 Q2063.08 72.7305 2067.98 72.7305 Q2072.92 72.7305 2076.36 75.2421 Q2079.85 77.7536 2081.51 82.5337 Z" fill="#000000" fill-rule="evenodd" fill-opacity="1" /><path clip-path="url(#clip180)" d="M 0 0 M2140.57 96.3878 Q2131.54 96.3878 2128.05 98.4538 Q2124.57 100.52 2124.57 105.502 Q2124.57 109.472 2127.16 111.822 Q2129.79 114.131 2134.29 114.131 Q2140.49 114.131 2144.22 109.756 Q2147.98 105.34 2147.98 98.0487 L2147.98 96.3878 L2140.57 96.3878 M2155.44 93.3091 L2155.44 119.194 L2147.98 119.194 L2147.98 112.308 Q2145.43 116.44 2141.62 118.425 Q2137.82 120.369 2132.31 120.369 Q2125.34 120.369 2121.21 116.48 Q2117.12 112.551 2117.12 105.988 Q2117.12 98.3322 2122.22 94.4434 Q2127.36 90.5545 2137.53 90.5545 L2147.98 90.5545 L2147.98 89.8253 Q2147.98 84.6807 2144.58 81.8856 Q2141.22 79.0499 2135.1 79.0499 Q2131.21 79.0499 2127.53 79.9816 Q2123.84 80.9133 2120.44 82.7768 L2120.44 75.8902 Q2124.53 74.3104 2128.38 73.5407 Q2132.23 72.7305 2135.87 72.7305 Q2145.71 72.7305 2150.58 77.8347 Q2155.44 82.9388 2155.44 93.3091 Z" fill="#000000" fill-rule="evenodd" fill-opacity="1" /><path clip-path="url(#clip180)" d="M 0 0 M2200.97 91.8103 L2200.97 119.194 L2193.52 119.194 L2193.52 92.0533 Q2193.52 85.6124 2191 82.4122 Q2188.49 79.212 2183.47 79.212 Q2177.43 79.212 2173.95 83.0603 Q2170.47 86.9087 2170.47 93.5522 L2170.47 119.194 L2162.97 119.194 L2162.97 73.8243 L2170.47 73.8243 L2170.47 80.8728 Q2173.14 76.7814 2176.74 74.756 Q2180.39 72.7305 2185.13 72.7305 Q2192.95 72.7305 2196.96 77.5916 Q2200.97 82.4122 2200.97 91.8103 Z" fill="#000000" fill-rule="evenodd" fill-opacity="1" /><path clip-path="url(#clip180)" d="M 0 0 M2241.44 75.5662 L2241.44 82.5337 Q2238.28 80.7918 2235.08 79.9411 Q2231.92 79.0499 2228.68 79.0499 Q2221.43 79.0499 2217.42 83.668 Q2213.41 88.2455 2213.41 96.5498 Q2213.41 104.854 2217.42 109.472 Q2221.43 114.05 2228.68 114.05 Q2231.92 114.05 2235.08 113.199 Q2238.28 112.308 2241.44 110.566 L2241.44 117.453 Q2238.32 118.911 2234.96 119.64 Q2231.63 120.369 2227.87 120.369 Q2217.62 120.369 2211.58 113.928 Q2205.55 107.487 2205.55 96.5498 Q2205.55 85.4504 2211.62 79.0904 Q2217.74 72.7305 2228.35 72.7305 Q2231.8 72.7305 2235.08 73.4597 Q2238.36 74.1483 2241.44 75.5662 Z" fill="#000000" fill-rule="evenodd" fill-opacity="1" /><path clip-path="url(#clip180)" d="M 0 0 M2288.06 94.6459 L2288.06 98.2917 L2253.79 98.2917 Q2254.28 105.988 2258.41 110.039 Q2262.58 114.05 2270 114.05 Q2274.29 114.05 2278.3 112.997 Q2282.35 111.943 2286.32 109.837 L2286.32 116.885 Q2282.31 118.587 2278.1 119.478 Q2273.89 120.369 2269.55 120.369 Q2258.69 120.369 2252.33 114.05 Q2246.02 107.73 2246.02 96.9549 Q2246.02 85.8149 2252.01 79.293 Q2258.05 72.7305 2268.25 72.7305 Q2277.41 72.7305 2282.72 78.6448 Q2288.06 84.5187 2288.06 94.6459 M2280.61 92.4584 Q2280.53 86.3416 2277.17 82.6957 Q2273.84 79.0499 2268.34 79.0499 Q2262.1 79.0499 2258.33 82.5742 Q2254.6 86.0985 2254.04 92.4989 L2280.61 92.4584 Z" fill="#000000" fill-rule="evenodd" fill-opacity="1" /><path clip-path="url(#clip180)" d="M 0 0 M2330.35 132.967 L2330.35 138.76 L2287.25 138.76 L2287.25 132.967 L2330.35 132.967 Z" fill="#000000" fill-rule="evenodd" fill-opacity="1" /><path clip-path="url(#clip180)" d="M 0 0 M2346.68 65.4389 L2346.68 88.1645 L2356.97 88.1645 Q2362.68 88.1645 2365.8 85.2073 Q2368.92 82.2501 2368.92 76.7814 Q2368.92 71.3532 2365.8 68.3961 Q2362.68 65.4389 2356.97 65.4389 L2346.68 65.4389 M2338.5 58.7144 L2356.97 58.7144 Q2367.14 58.7144 2372.32 63.3324 Q2377.55 67.9099 2377.55 76.7814 Q2377.55 85.7339 2372.32 90.3114 Q2367.14 94.889 2356.97 94.889 L2346.68 94.889 L2346.68 119.194 L2338.5 119.194 L2338.5 58.7144 Z" fill="#000000" fill-rule="evenodd" fill-opacity="1" /><path clip-path="url(#clip180)" d="M 0 0 M2402.26 96.3878 Q2393.22 96.3878 2389.74 98.4538 Q2386.26 100.52 2386.26 105.502 Q2386.26 109.472 2388.85 111.822 Q2391.48 114.131 2395.98 114.131 Q2402.18 114.131 2405.9 109.756 Q2409.67 105.34 2409.67 98.0487 L2409.67 96.3878 L2402.26 96.3878 M2417.13 93.3091 L2417.13 119.194 L2409.67 119.194 L2409.67 112.308 Q2407.12 116.44 2403.31 118.425 Q2399.5 120.369 2393.99 120.369 Q2387.03 120.369 2382.9 116.48 Q2378.8 112.551 2378.8 105.988 Q2378.8 98.3322 2383.91 94.4434 Q2389.05 90.5545 2399.22 90.5545 L2409.67 90.5545 L2409.67 89.8253 Q2409.67 84.6807 2406.27 81.8856 Q2402.91 79.0499 2396.79 79.0499 Q2392.9 79.0499 2389.21 79.9816 Q2385.53 80.9133 2382.13 82.7768 L2382.13 75.8902 Q2386.22 74.3104 2390.07 73.5407 Q2393.91 72.7305 2397.56 72.7305 Q2407.4 72.7305 2412.26 77.8347 Q2417.13 82.9388 2417.13 93.3091 Z" fill="#000000" fill-rule="evenodd" fill-opacity="1" /><path clip-path="url(#clip180)" d="M 0 0 M2451.23 80.7918 Q2449.98 80.0627 2448.48 79.7386 Q2447.02 79.374 2445.24 79.374 Q2438.92 79.374 2435.52 83.5059 Q2432.15 87.5973 2432.15 95.2941 L2432.15 119.194 L2424.66 119.194 L2424.66 73.8243 L2432.15 73.8243 L2432.15 80.8728 Q2434.5 76.7409 2438.27 74.756 Q2442.04 72.7305 2447.43 72.7305 Q2448.2 72.7305 2449.13 72.852 Q2450.06 72.9331 2451.19 73.1356 L2451.23 80.7918 Z" fill="#000000" fill-rule="evenodd" fill-opacity="1" /><path clip-path="url(#clip180)" d="M 0 0 M2479.67 96.3878 Q2470.64 96.3878 2467.15 98.4538 Q2463.67 100.52 2463.67 105.502 Q2463.67 109.472 2466.26 111.822 Q2468.9 114.131 2473.39 114.131 Q2479.59 114.131 2483.32 109.756 Q2487.08 105.34 2487.08 98.0487 L2487.08 96.3878 L2479.67 96.3878 M2494.54 93.3091 L2494.54 119.194 L2487.08 119.194 L2487.08 112.308 Q2484.53 116.44 2480.72 118.425 Q2476.92 120.369 2471.41 120.369 Q2464.44 120.369 2460.31 116.48 Q2456.22 112.551 2456.22 105.988 Q2456.22 98.3322 2461.32 94.4434 Q2466.47 90.5545 2476.63 90.5545 L2487.08 90.5545 L2487.08 89.8253 Q2487.08 84.6807 2483.68 81.8856 Q2480.32 79.0499 2474.2 79.0499 Q2470.31 79.0499 2466.63 79.9816 Q2462.94 80.9133 2459.54 82.7768 L2459.54 75.8902 Q2463.63 74.3104 2467.48 73.5407 Q2471.33 72.7305 2474.97 72.7305 Q2484.82 72.7305 2489.68 77.8347 Q2494.54 82.9388 2494.54 93.3091 Z" fill="#000000" fill-rule="evenodd" fill-opacity="1" /><path clip-path="url(#clip180)" d="M 0 0 M2537.68 82.5337 Q2540.48 77.5106 2544.36 75.1206 Q2548.25 72.7305 2553.52 72.7305 Q2560.61 72.7305 2564.46 77.7131 Q2568.3 82.6552 2568.3 91.8103 L2568.3 119.194 L2560.81 119.194 L2560.81 92.0533 Q2560.81 85.5314 2558.5 82.3717 Q2556.19 79.212 2551.45 79.212 Q2545.66 79.212 2542.3 83.0603 Q2538.94 86.9087 2538.94 93.5522 L2538.94 119.194 L2531.44 119.194 L2531.44 92.0533 Q2531.44 85.4909 2529.13 82.3717 Q2526.82 79.212 2522 79.212 Q2516.29 79.212 2512.93 83.1008 Q2509.57 86.9492 2509.57 93.5522 L2509.57 119.194 L2502.07 119.194 L2502.07 73.8243 L2509.57 73.8243 L2509.57 80.8728 Q2512.12 76.7004 2515.68 74.7155 Q2519.25 72.7305 2524.15 72.7305 Q2529.09 72.7305 2532.54 75.2421 Q2536.02 77.7536 2537.68 82.5337 Z" fill="#000000" fill-rule="evenodd" fill-opacity="1" /><path clip-path="url(#clip180)" d="M 0 0 M2614.93 94.6459 L2614.93 98.2917 L2580.66 98.2917 Q2581.15 105.988 2585.28 110.039 Q2589.45 114.05 2596.86 114.05 Q2601.16 114.05 2605.17 112.997 Q2609.22 111.943 2613.19 109.837 L2613.19 116.885 Q2609.18 118.587 2604.97 119.478 Q2600.75 120.369 2596.42 120.369 Q2585.56 120.369 2579.2 114.05 Q2572.88 107.73 2572.88 96.9549 Q2572.88 85.8149 2578.88 79.293 Q2584.91 72.7305 2595.12 72.7305 Q2604.28 72.7305 2609.58 78.6448 Q2614.93 84.5187 2614.93 94.6459 M2607.48 92.4584 Q2607.4 86.3416 2604.03 82.6957 Q2600.71 79.0499 2595.2 79.0499 Q2588.96 79.0499 2585.2 82.5742 Q2581.47 86.0985 2580.9 92.4989 L2607.48 92.4584 Z" fill="#000000" fill-rule="evenodd" fill-opacity="1" /><path clip-path="url(#clip180)" d="M 0 0 M2630.12 60.9424 L2630.12 73.8243 L2645.47 73.8243 L2645.47 79.6171 L2630.12 79.6171 L2630.12 104.247 Q2630.12 109.796 2631.62 111.376 Q2633.16 112.956 2637.82 112.956 L2645.47 112.956 L2645.47 119.194 L2637.82 119.194 Q2629.19 119.194 2625.91 115.994 Q2622.63 112.753 2622.63 104.247 L2622.63 79.6171 L2617.16 79.6171 L2617.16 73.8243 L2622.63 73.8243 L2622.63 60.9424 L2630.12 60.9424 Z" fill="#000000" fill-rule="evenodd" fill-opacity="1" /><path clip-path="url(#clip180)" d="M 0 0 M2692.1 94.6459 L2692.1 98.2917 L2657.83 98.2917 Q2658.32 105.988 2662.45 110.039 Q2666.62 114.05 2674.03 114.05 Q2678.33 114.05 2682.34 112.997 Q2686.39 111.943 2690.36 109.837 L2690.36 116.885 Q2686.35 118.587 2682.14 119.478 Q2677.92 120.369 2673.59 120.369 Q2662.73 120.369 2656.37 114.05 Q2650.05 107.73 2650.05 96.9549 Q2650.05 85.8149 2656.05 79.293 Q2662.08 72.7305 2672.29 72.7305 Q2681.45 72.7305 2686.75 78.6448 Q2692.1 84.5187 2692.1 94.6459 M2684.65 92.4584 Q2684.57 86.3416 2681.2 82.6957 Q2677.88 79.0499 2672.37 79.0499 Q2666.13 79.0499 2662.37 82.5742 Q2658.64 86.0985 2658.07 92.4989 L2684.65 92.4584 Z" fill="#000000" fill-rule="evenodd" fill-opacity="1" /><path clip-path="url(#clip180)" d="M 0 0 M2726.21 80.7918 Q2724.95 80.0627 2723.45 79.7386 Q2722 79.374 2720.21 79.374 Q2713.89 79.374 2710.49 83.5059 Q2707.13 87.5973 2707.13 95.2941 L2707.13 119.194 L2699.64 119.194 L2699.64 73.8243 L2707.13 73.8243 L2707.13 80.8728 Q2709.48 76.7409 2713.25 74.756 Q2717.01 72.7305 2722.4 72.7305 Q2723.17 72.7305 2724.1 72.852 Q2725.03 72.9331 2726.17 73.1356 L2726.21 80.7918 Z" fill="#000000" fill-rule="evenodd" fill-opacity="1" /><path clip-path="url(#clip180)" d="M 0 0 M2762.95 75.1611 L2762.95 82.2096 Q2759.79 80.5893 2756.39 79.7791 Q2752.99 78.9689 2749.34 78.9689 Q2743.79 78.9689 2740.99 80.6703 Q2738.24 82.3717 2738.24 85.7744 Q2738.24 88.367 2740.23 89.8658 Q2742.21 91.3242 2748.21 92.661 L2750.76 93.2281 Q2758.7 94.9295 2762.02 98.0487 Q2765.38 101.127 2765.38 106.677 Q2765.38 112.997 2760.36 116.683 Q2755.38 120.369 2746.63 120.369 Q2742.98 120.369 2739.01 119.64 Q2735.08 118.951 2730.71 117.534 L2730.71 109.837 Q2734.84 111.984 2738.85 113.078 Q2742.86 114.131 2746.79 114.131 Q2752.05 114.131 2754.89 112.348 Q2757.73 110.525 2757.73 107.244 Q2757.73 104.206 2755.66 102.586 Q2753.63 100.965 2746.71 99.4665 L2744.11 98.8589 Q2737.19 97.4005 2734.11 94.4029 Q2731.03 91.3647 2731.03 86.0985 Q2731.03 79.6981 2735.57 76.2143 Q2740.1 72.7305 2748.45 72.7305 Q2752.58 72.7305 2756.23 73.3382 Q2759.87 73.9458 2762.95 75.1611 Z" fill="#000000" fill-rule="evenodd" fill-opacity="1" /><path clip-path="url(#clip180)" d="M 0 0 M716.864 1205.31 L716.864 1213.94 Q712.732 1210.09 708.033 1208.18 Q703.374 1206.28 698.108 1206.28 Q687.738 1206.28 682.229 1212.64 Q676.719 1218.96 676.719 1230.95 Q676.719 1242.9 682.229 1249.26 Q687.738 1255.58 698.108 1255.58 Q703.374 1255.58 708.033 1253.68 Q712.732 1251.77 716.864 1247.92 L716.864 1256.47 Q712.57 1259.39 707.749 1260.85 Q702.969 1262.3 697.622 1262.3 Q683.89 1262.3 675.99 1253.92 Q668.091 1245.49 668.091 1230.95 Q668.091 1216.37 675.99 1207.98 Q683.89 1199.56 697.622 1199.56 Q703.05 1199.56 707.83 1201.01 Q712.651 1202.43 716.864 1205.31 Z" fill="#000000" fill-rule="evenodd" fill-opacity="1" /><path clip-path="url(#clip180)" d="M 0 0 M724.682 1198.1 L732.136 1198.1 L732.136 1261.13 L724.682 1261.13 L724.682 1198.1 Z" fill="#000000" fill-rule="evenodd" fill-opacity="1" /><path clip-path="url(#clip180)" d="M 0 0 M739.954 1215.76 L747.408 1215.76 L747.408 1261.13 L739.954 1261.13 L739.954 1215.76 M739.954 1198.1 L747.408 1198.1 L747.408 1207.54 L739.954 1207.54 L739.954 1198.1 Z" fill="#000000" fill-rule="evenodd" fill-opacity="1" /><path clip-path="url(#clip180)" d="M 0 0 M794.034 1236.58 L794.034 1240.23 L759.763 1240.23 Q760.249 1247.92 764.381 1251.97 Q768.553 1255.98 775.967 1255.98 Q780.261 1255.98 784.271 1254.93 Q788.322 1253.88 792.292 1251.77 L792.292 1258.82 Q788.281 1260.52 784.068 1261.41 Q779.855 1262.3 775.521 1262.3 Q764.665 1262.3 758.305 1255.98 Q751.985 1249.66 751.985 1238.89 Q751.985 1227.75 757.981 1221.23 Q764.016 1214.66 774.225 1214.66 Q783.38 1214.66 788.686 1220.58 Q794.034 1226.45 794.034 1236.58 M786.58 1234.39 Q786.499 1228.28 783.137 1224.63 Q779.815 1220.98 774.306 1220.98 Q768.067 1220.98 764.3 1224.51 Q760.573 1228.03 760.006 1234.43 L786.58 1234.39 Z" fill="#000000" fill-rule="evenodd" fill-opacity="1" /><path clip-path="url(#clip180)" d="M 0 0 M839.566 1233.74 L839.566 1261.13 L832.112 1261.13 L832.112 1233.99 Q832.112 1227.55 829.601 1224.35 Q827.089 1221.15 822.066 1221.15 Q816.03 1221.15 812.546 1224.99 Q809.062 1228.84 809.062 1235.49 L809.062 1261.13 L801.568 1261.13 L801.568 1215.76 L809.062 1215.76 L809.062 1222.81 Q811.736 1218.72 815.341 1216.69 Q818.987 1214.66 823.727 1214.66 Q831.545 1214.66 835.555 1219.53 Q839.566 1224.35 839.566 1233.74 Z" fill="#000000" fill-rule="evenodd" fill-opacity="1" /><path clip-path="url(#clip180)" d="M 0 0 M854.757 1202.88 L854.757 1215.76 L870.11 1215.76 L870.11 1221.55 L854.757 1221.55 L854.757 1246.18 Q854.757 1251.73 856.255 1253.31 Q857.795 1254.89 862.453 1254.89 L870.11 1254.89 L870.11 1261.13 L862.453 1261.13 Q853.825 1261.13 850.544 1257.93 Q847.262 1254.69 847.262 1246.18 L847.262 1221.55 L841.794 1221.55 L841.794 1215.76 L847.262 1215.76 L847.262 1202.88 L854.757 1202.88 Z" fill="#000000" fill-rule="evenodd" fill-opacity="1" /><path clip-path="url(#clip180)" d="M 0 0 M912.401 1274.9 L912.401 1280.69 L869.299 1280.69 L869.299 1274.9 L912.401 1274.9 Z" fill="#000000" fill-rule="evenodd" fill-opacity="1" /><path clip-path="url(#clip180)" d="M 0 0 M940.838 1238.32 Q931.805 1238.32 928.321 1240.39 Q924.837 1242.45 924.837 1247.44 Q924.837 1251.41 927.43 1253.76 Q930.063 1256.07 934.559 1256.07 Q940.757 1256.07 944.484 1251.69 Q948.252 1247.27 948.252 1239.98 L948.252 1238.32 L940.838 1238.32 M955.705 1235.24 L955.705 1261.13 L948.252 1261.13 L948.252 1254.24 Q945.699 1258.37 941.892 1260.36 Q938.084 1262.3 932.575 1262.3 Q925.607 1262.3 921.475 1258.41 Q917.384 1254.49 917.384 1247.92 Q917.384 1240.27 922.488 1236.38 Q927.632 1232.49 937.8 1232.49 L948.252 1232.49 L948.252 1231.76 Q948.252 1226.62 944.849 1223.82 Q941.487 1220.98 935.37 1220.98 Q931.481 1220.98 927.794 1221.92 Q924.108 1222.85 920.705 1224.71 L920.705 1217.82 Q924.797 1216.24 928.645 1215.48 Q932.494 1214.66 936.139 1214.66 Q945.983 1214.66 950.844 1219.77 Q955.705 1224.87 955.705 1235.24 Z" fill="#000000" fill-rule="evenodd" fill-opacity="1" /><path clip-path="url(#clip180)" d="M 0 0 M1001.24 1233.74 L1001.24 1261.13 L993.784 1261.13 L993.784 1233.99 Q993.784 1227.55 991.272 1224.35 Q988.761 1221.15 983.737 1221.15 Q977.702 1221.15 974.218 1224.99 Q970.734 1228.84 970.734 1235.49 L970.734 1261.13 L963.24 1261.13 L963.24 1215.76 L970.734 1215.76 L970.734 1222.81 Q973.408 1218.72 977.013 1216.69 Q980.659 1214.66 985.398 1214.66 Q993.217 1214.66 997.227 1219.53 Q1001.24 1224.35 1001.24 1233.74 Z" fill="#000000" fill-rule="evenodd" fill-opacity="1" /><path clip-path="url(#clip180)" d="M 0 0 M1038.91 1222.65 L1038.91 1198.1 L1046.36 1198.1 L1046.36 1261.13 L1038.91 1261.13 L1038.91 1254.32 Q1036.56 1258.37 1032.96 1260.36 Q1029.39 1262.3 1024.37 1262.3 Q1016.14 1262.3 1010.96 1255.74 Q1005.81 1249.18 1005.81 1238.48 Q1005.81 1227.79 1010.96 1221.23 Q1016.14 1214.66 1024.37 1214.66 Q1029.39 1214.66 1032.96 1216.65 Q1036.56 1218.59 1038.91 1222.65 M1013.51 1238.48 Q1013.51 1246.71 1016.87 1251.41 Q1020.28 1256.07 1026.19 1256.07 Q1032.11 1256.07 1035.51 1251.41 Q1038.91 1246.71 1038.91 1238.48 Q1038.91 1230.26 1035.51 1225.6 Q1032.11 1220.9 1026.19 1220.9 Q1020.28 1220.9 1016.87 1225.6 Q1013.51 1230.26 1013.51 1238.48 Z" fill="#000000" fill-rule="evenodd" fill-opacity="1" /><path clip-path="url(#clip180)" d="M 0 0 M1088.66 1274.9 L1088.66 1280.69 L1045.55 1280.69 L1045.55 1274.9 L1088.66 1274.9 Z" fill="#000000" fill-rule="evenodd" fill-opacity="1" /><path clip-path="url(#clip180)" d="M 0 0 M1142.09 1205.31 L1142.09 1213.94 Q1137.96 1210.09 1133.26 1208.18 Q1128.6 1206.28 1123.33 1206.28 Q1112.96 1206.28 1107.45 1212.64 Q1101.94 1218.96 1101.94 1230.95 Q1101.94 1242.9 1107.45 1249.26 Q1112.96 1255.58 1123.33 1255.58 Q1128.6 1255.58 1133.26 1253.68 Q1137.96 1251.77 1142.09 1247.92 L1142.09 1256.47 Q1137.79 1259.39 1132.97 1260.85 Q1128.19 1262.3 1122.85 1262.3 Q1109.11 1262.3 1101.21 1253.92 Q1093.31 1245.49 1093.31 1230.95 Q1093.31 1216.37 1101.21 1207.98 Q1109.11 1199.56 1122.85 1199.56 Q1128.27 1199.56 1133.05 1201.01 Q1137.87 1202.43 1142.09 1205.31 Z" fill="#000000" fill-rule="evenodd" fill-opacity="1" /><path clip-path="url(#clip180)" d="M 0 0 M1167.49 1220.98 Q1161.49 1220.98 1158.01 1225.68 Q1154.52 1230.34 1154.52 1238.48 Q1154.52 1246.63 1157.97 1251.33 Q1161.45 1255.98 1167.49 1255.98 Q1173.44 1255.98 1176.93 1251.29 Q1180.41 1246.59 1180.41 1238.48 Q1180.41 1230.42 1176.93 1225.72 Q1173.44 1220.98 1167.49 1220.98 M1167.49 1214.66 Q1177.21 1214.66 1182.76 1220.98 Q1188.31 1227.3 1188.31 1238.48 Q1188.31 1249.62 1182.76 1255.98 Q1177.21 1262.3 1167.49 1262.3 Q1157.72 1262.3 1152.17 1255.98 Q1146.66 1249.62 1146.66 1238.48 Q1146.66 1227.3 1152.17 1220.98 Q1157.72 1214.66 1167.49 1214.66 Z" fill="#000000" fill-rule="evenodd" fill-opacity="1" /><path clip-path="url(#clip180)" d="M 0 0 M1233.84 1233.74 L1233.84 1261.13 L1226.39 1261.13 L1226.39 1233.99 Q1226.39 1227.55 1223.88 1224.35 Q1221.36 1221.15 1216.34 1221.15 Q1210.3 1221.15 1206.82 1224.99 Q1203.34 1228.84 1203.34 1235.49 L1203.34 1261.13 L1195.84 1261.13 L1195.84 1215.76 L1203.34 1215.76 L1203.34 1222.81 Q1206.01 1218.72 1209.62 1216.69 Q1213.26 1214.66 1218 1214.66 Q1225.82 1214.66 1229.83 1219.53 Q1233.84 1224.35 1233.84 1233.74 Z" fill="#000000" fill-rule="evenodd" fill-opacity="1" /><path clip-path="url(#clip180)" d="M 0 0 M1270.58 1217.1 L1270.58 1224.14 Q1267.42 1222.52 1264.02 1221.71 Q1260.62 1220.9 1256.97 1220.9 Q1251.42 1220.9 1248.63 1222.6 Q1245.87 1224.31 1245.87 1227.71 Q1245.87 1230.3 1247.86 1231.8 Q1249.84 1233.26 1255.84 1234.6 L1258.39 1235.16 Q1266.33 1236.86 1269.65 1239.98 Q1273.01 1243.06 1273.01 1248.61 Q1273.01 1254.93 1267.99 1258.62 Q1263.01 1262.3 1254.26 1262.3 Q1250.61 1262.3 1246.64 1261.57 Q1242.71 1260.89 1238.34 1259.47 L1238.34 1251.77 Q1242.47 1253.92 1246.48 1255.01 Q1250.49 1256.07 1254.42 1256.07 Q1259.69 1256.07 1262.52 1254.28 Q1265.36 1252.46 1265.36 1249.18 Q1265.36 1246.14 1263.29 1244.52 Q1261.26 1242.9 1254.34 1241.4 L1251.75 1240.79 Q1244.82 1239.33 1241.74 1236.34 Q1238.66 1233.3 1238.66 1228.03 Q1238.66 1221.63 1243.2 1218.15 Q1247.73 1214.66 1256.08 1214.66 Q1260.21 1214.66 1263.86 1215.27 Q1267.5 1215.88 1270.58 1217.1 Z" fill="#000000" fill-rule="evenodd" fill-opacity="1" /><path clip-path="url(#clip180)" d="M 0 0 M1280.06 1243.22 L1280.06 1215.76 L1287.51 1215.76 L1287.51 1242.94 Q1287.51 1249.38 1290.03 1252.62 Q1292.54 1255.82 1297.56 1255.82 Q1303.6 1255.82 1307.08 1251.97 Q1310.6 1248.13 1310.6 1241.48 L1310.6 1215.76 L1318.06 1215.76 L1318.06 1261.13 L1310.6 1261.13 L1310.6 1254.16 Q1307.89 1258.29 1304.29 1260.32 Q1300.72 1262.3 1295.98 1262.3 Q1288.16 1262.3 1284.11 1257.44 Q1280.06 1252.58 1280.06 1243.22 M1298.82 1214.66 L1298.82 1214.66 Z" fill="#000000" fill-rule="evenodd" fill-opacity="1" /><path clip-path="url(#clip180)" d="M 0 0 M1325.88 1198.1 L1333.33 1198.1 L1333.33 1261.13 L1325.88 1261.13 L1325.88 1198.1 Z" fill="#000000" fill-rule="evenodd" fill-opacity="1" /><path clip-path="url(#clip180)" d="M 0 0 M1348.52 1202.88 L1348.52 1215.76 L1363.87 1215.76 L1363.87 1221.55 L1348.52 1221.55 L1348.52 1246.18 Q1348.52 1251.73 1350.02 1253.31 Q1351.56 1254.89 1356.22 1254.89 L1363.87 1254.89 L1363.87 1261.13 L1356.22 1261.13 Q1347.59 1261.13 1344.31 1257.93 Q1341.03 1254.69 1341.03 1246.18 L1341.03 1221.55 L1335.56 1221.55 L1335.56 1215.76 L1341.03 1215.76 L1341.03 1202.88 L1348.52 1202.88 Z" fill="#000000" fill-rule="evenodd" fill-opacity="1" /><path clip-path="url(#clip180)" d="M 0 0 M1392.31 1238.32 Q1383.28 1238.32 1379.79 1240.39 Q1376.31 1242.45 1376.31 1247.44 Q1376.31 1251.41 1378.9 1253.76 Q1381.54 1256.07 1386.03 1256.07 Q1392.23 1256.07 1395.96 1251.69 Q1399.72 1247.27 1399.72 1239.98 L1399.72 1238.32 L1392.31 1238.32 M1407.18 1235.24 L1407.18 1261.13 L1399.72 1261.13 L1399.72 1254.24 Q1397.17 1258.37 1393.36 1260.36 Q1389.56 1262.3 1384.05 1262.3 Q1377.08 1262.3 1372.95 1258.41 Q1368.86 1254.49 1368.86 1247.92 Q1368.86 1240.27 1373.96 1236.38 Q1379.11 1232.49 1389.27 1232.49 L1399.72 1232.49 L1399.72 1231.76 Q1399.72 1226.62 1396.32 1223.82 Q1392.96 1220.98 1386.84 1220.98 Q1382.95 1220.98 1379.27 1221.92 Q1375.58 1222.85 1372.18 1224.71 L1372.18 1217.82 Q1376.27 1216.24 1380.12 1215.48 Q1383.97 1214.66 1387.61 1214.66 Q1397.46 1214.66 1402.32 1219.77 Q1407.18 1224.87 1407.18 1235.24 Z" fill="#000000" fill-rule="evenodd" fill-opacity="1" /><path clip-path="url(#clip180)" d="M 0 0 M1452.71 1233.74 L1452.71 1261.13 L1445.26 1261.13 L1445.26 1233.99 Q1445.26 1227.55 1442.75 1224.35 Q1440.23 1221.15 1435.21 1221.15 Q1429.17 1221.15 1425.69 1224.99 Q1422.21 1228.84 1422.21 1235.49 L1422.21 1261.13 L1414.71 1261.13 L1414.71 1215.76 L1422.21 1215.76 L1422.21 1222.81 Q1424.88 1218.72 1428.49 1216.69 Q1432.13 1214.66 1436.87 1214.66 Q1444.69 1214.66 1448.7 1219.53 Q1452.71 1224.35 1452.71 1233.74 Z" fill="#000000" fill-rule="evenodd" fill-opacity="1" /><path clip-path="url(#clip180)" d="M 0 0 M1467.9 1202.88 L1467.9 1215.76 L1483.25 1215.76 L1483.25 1221.55 L1467.9 1221.55 L1467.9 1246.18 Q1467.9 1251.73 1469.4 1253.31 Q1470.94 1254.89 1475.6 1254.89 L1483.25 1254.89 L1483.25 1261.13 L1475.6 1261.13 Q1466.97 1261.13 1463.69 1257.93 Q1460.41 1254.69 1460.41 1246.18 L1460.41 1221.55 L1454.94 1221.55 L1454.94 1215.76 L1460.41 1215.76 L1460.41 1202.88 L1467.9 1202.88 Z" fill="#000000" fill-rule="evenodd" fill-opacity="1" /><path clip-path="url(#clip180)" d="M 0 0 M1525.55 1274.9 L1525.55 1280.69 L1482.44 1280.69 L1482.44 1274.9 L1525.55 1274.9 Z" fill="#000000" fill-rule="evenodd" fill-opacity="1" /><path clip-path="url(#clip180)" d="M 0 0 M1562.37 1232.77 Q1565 1233.66 1567.47 1236.58 Q1569.98 1239.5 1572.5 1244.6 L1580.8 1261.13 L1572.01 1261.13 L1564.27 1245.61 Q1561.27 1239.54 1558.44 1237.55 Q1555.64 1235.57 1550.78 1235.57 L1541.87 1235.57 L1541.87 1261.13 L1533.69 1261.13 L1533.69 1200.65 L1552.16 1200.65 Q1562.53 1200.65 1567.63 1204.98 Q1572.74 1209.32 1572.74 1218.07 Q1572.74 1223.78 1570.07 1227.55 Q1567.43 1231.31 1562.37 1232.77 M1541.87 1207.37 L1541.87 1228.84 L1552.16 1228.84 Q1558.07 1228.84 1561.07 1226.13 Q1564.11 1223.37 1564.11 1218.07 Q1564.11 1212.76 1561.07 1210.09 Q1558.07 1207.37 1552.16 1207.37 L1541.87 1207.37 Z" fill="#000000" fill-rule="evenodd" fill-opacity="1" /><path clip-path="url(#clip180)" d="M 0 0 M1623.7 1236.58 L1623.7 1240.23 L1589.43 1240.23 Q1589.91 1247.92 1594.05 1251.97 Q1598.22 1255.98 1605.63 1255.98 Q1609.93 1255.98 1613.94 1254.93 Q1617.99 1253.88 1621.96 1251.77 L1621.96 1258.82 Q1617.95 1260.52 1613.73 1261.41 Q1609.52 1262.3 1605.19 1262.3 Q1594.33 1262.3 1587.97 1255.98 Q1581.65 1249.66 1581.65 1238.89 Q1581.65 1227.75 1587.65 1221.23 Q1593.68 1214.66 1603.89 1214.66 Q1613.05 1214.66 1618.35 1220.58 Q1623.7 1226.45 1623.7 1236.58 M1616.25 1234.39 Q1616.16 1228.28 1612.8 1224.63 Q1609.48 1220.98 1603.97 1220.98 Q1597.73 1220.98 1593.97 1224.51 Q1590.24 1228.03 1589.67 1234.43 L1616.25 1234.39 Z" fill="#000000" fill-rule="evenodd" fill-opacity="1" /><path clip-path="url(#clip180)" d="M 0 0 M1635.97 1238.48 Q1635.97 1246.71 1639.34 1251.41 Q1642.74 1256.07 1648.65 1256.07 Q1654.57 1256.07 1657.97 1251.41 Q1661.37 1246.71 1661.37 1238.48 Q1661.37 1230.26 1657.97 1225.6 Q1654.57 1220.9 1648.65 1220.9 Q1642.74 1220.9 1639.34 1225.6 Q1635.97 1230.26 1635.97 1238.48 M1661.37 1254.32 Q1659.02 1258.37 1655.42 1260.36 Q1651.85 1262.3 1646.83 1262.3 Q1638.61 1262.3 1633.42 1255.74 Q1628.28 1249.18 1628.28 1238.48 Q1628.28 1227.79 1633.42 1221.23 Q1638.61 1214.66 1646.83 1214.66 Q1651.85 1214.66 1655.42 1216.65 Q1659.02 1218.59 1661.37 1222.65 L1661.37 1215.76 L1668.83 1215.76 L1668.83 1278.39 L1661.37 1278.39 L1661.37 1254.32 Z" fill="#000000" fill-rule="evenodd" fill-opacity="1" /><path clip-path="url(#clip180)" d="M 0 0 M1675.87 1243.22 L1675.87 1215.76 L1683.33 1215.76 L1683.33 1242.94 Q1683.33 1249.38 1685.84 1252.62 Q1688.35 1255.82 1693.37 1255.82 Q1699.41 1255.82 1702.89 1251.97 Q1706.42 1248.13 1706.42 1241.48 L1706.42 1215.76 L1713.87 1215.76 L1713.87 1261.13 L1706.42 1261.13 L1706.42 1254.16 Q1703.7 1258.29 1700.1 1260.32 Q1696.53 1262.3 1691.79 1262.3 Q1683.98 1262.3 1679.93 1257.44 Q1675.87 1252.58 1675.87 1243.22 M1694.63 1214.66 L1694.63 1214.66 Z" fill="#000000" fill-rule="evenodd" fill-opacity="1" /><path clip-path="url(#clip180)" d="M 0 0 M1760.5 1236.58 L1760.5 1240.23 L1726.23 1240.23 Q1726.71 1247.92 1730.85 1251.97 Q1735.02 1255.98 1742.43 1255.98 Q1746.73 1255.98 1750.74 1254.93 Q1754.79 1253.88 1758.76 1251.77 L1758.76 1258.82 Q1754.75 1260.52 1750.53 1261.41 Q1746.32 1262.3 1741.99 1262.3 Q1731.13 1262.3 1724.77 1255.98 Q1718.45 1249.66 1718.45 1238.89 Q1718.45 1227.75 1724.45 1221.23 Q1730.48 1214.66 1740.69 1214.66 Q1749.84 1214.66 1755.15 1220.58 Q1760.5 1226.45 1760.5 1236.58 M1753.04 1234.39 Q1752.96 1228.28 1749.6 1224.63 Q1746.28 1220.98 1740.77 1220.98 Q1734.53 1220.98 1730.76 1224.51 Q1727.04 1228.03 1726.47 1234.43 L1753.04 1234.39 Z" fill="#000000" fill-rule="evenodd" fill-opacity="1" /><path clip-path="url(#clip180)" d="M 0 0 M1797.24 1217.1 L1797.24 1224.14 Q1794.08 1222.52 1790.68 1221.71 Q1787.27 1220.9 1783.63 1220.9 Q1778.08 1220.9 1775.28 1222.6 Q1772.53 1224.31 1772.53 1227.71 Q1772.53 1230.3 1774.51 1231.8 Q1776.5 1233.26 1782.49 1234.6 L1785.05 1235.16 Q1792.99 1236.86 1796.31 1239.98 Q1799.67 1243.06 1799.67 1248.61 Q1799.67 1254.93 1794.65 1258.62 Q1789.66 1262.3 1780.91 1262.3 Q1777.27 1262.3 1773.3 1261.57 Q1769.37 1260.89 1764.99 1259.47 L1764.99 1251.77 Q1769.13 1253.92 1773.14 1255.01 Q1777.15 1256.07 1781.08 1256.07 Q1786.34 1256.07 1789.18 1254.28 Q1792.01 1252.46 1792.01 1249.18 Q1792.01 1246.14 1789.95 1244.52 Q1787.92 1242.9 1781 1241.4 L1778.4 1240.79 Q1771.48 1239.33 1768.4 1236.34 Q1765.32 1233.3 1765.32 1228.03 Q1765.32 1221.63 1769.86 1218.15 Q1774.39 1214.66 1782.74 1214.66 Q1786.87 1214.66 1790.52 1215.27 Q1794.16 1215.88 1797.24 1217.1 Z" fill="#000000" fill-rule="evenodd" fill-opacity="1" /><path clip-path="url(#clip180)" d="M 0 0 M1814.86 1202.88 L1814.86 1215.76 L1830.21 1215.76 L1830.21 1221.55 L1814.86 1221.55 L1814.86 1246.18 Q1814.86 1251.73 1816.36 1253.31 Q1817.9 1254.89 1822.56 1254.89 L1830.21 1254.89 L1830.21 1261.13 L1822.56 1261.13 Q1813.93 1261.13 1810.65 1257.93 Q1807.37 1254.69 1807.37 1246.18 L1807.37 1221.55 L1801.9 1221.55 L1801.9 1215.76 L1807.37 1215.76 L1807.37 1202.88 L1814.86 1202.88 Z" fill="#000000" fill-rule="evenodd" fill-opacity="1" /><path clip-path="url(#clip180)" d="M 0 0 M1866.96 1217.1 L1866.96 1224.14 Q1863.8 1222.52 1860.39 1221.71 Q1856.99 1220.9 1853.35 1220.9 Q1847.8 1220.9 1845 1222.6 Q1842.25 1224.31 1842.25 1227.71 Q1842.25 1230.3 1844.23 1231.8 Q1846.22 1233.26 1852.21 1234.6 L1854.76 1235.16 Q1862.7 1236.86 1866.02 1239.98 Q1869.39 1243.06 1869.39 1248.61 Q1869.39 1254.93 1864.36 1258.62 Q1859.38 1262.3 1850.63 1262.3 Q1846.99 1262.3 1843.02 1261.57 Q1839.09 1260.89 1834.71 1259.47 L1834.71 1251.77 Q1838.84 1253.92 1842.85 1255.01 Q1846.86 1256.07 1850.79 1256.07 Q1856.06 1256.07 1858.89 1254.28 Q1861.73 1252.46 1861.73 1249.18 Q1861.73 1246.14 1859.66 1244.52 Q1857.64 1242.9 1850.71 1241.4 L1848.12 1240.79 Q1841.19 1239.33 1838.11 1236.34 Q1835.03 1233.3 1835.03 1228.03 Q1835.03 1221.63 1839.57 1218.15 Q1844.11 1214.66 1852.45 1214.66 Q1856.59 1214.66 1860.23 1215.27 Q1863.88 1215.88 1866.96 1217.1 Z" fill="#000000" fill-rule="evenodd" fill-opacity="1" /><path clip-path="url(#clip180)" d="M 0 0 M1960.39 1455.78 L1960.39 1502.81 L1970.28 1502.81 Q1982.8 1502.81 1988.59 1497.14 Q1994.42 1491.47 1994.42 1479.24 Q1994.42 1467.08 1988.59 1461.45 Q1982.8 1455.78 1970.28 1455.78 L1960.39 1455.78 M1952.21 1449.06 L1969.02 1449.06 Q1986.6 1449.06 1994.83 1456.39 Q2003.05 1463.68 2003.05 1479.24 Q2003.05 1494.87 1994.79 1502.21 Q1986.52 1509.54 1969.02 1509.54 L1952.21 1509.54 L1952.21 1449.06 Z" fill="#000000" fill-rule="evenodd" fill-opacity="1" /><path clip-path="url(#clip180)" d="M 0 0 M2049.68 1484.99 L2049.68 1488.63 L2015.41 1488.63 Q2015.89 1496.33 2020.02 1500.38 Q2024.2 1504.39 2031.61 1504.39 Q2035.9 1504.39 2039.91 1503.34 Q2043.96 1502.29 2047.93 1500.18 L2047.93 1507.23 Q2043.92 1508.93 2039.71 1509.82 Q2035.5 1510.71 2031.16 1510.71 Q2020.31 1510.71 2013.95 1504.39 Q2007.63 1498.07 2007.63 1487.3 Q2007.63 1476.16 2013.62 1469.64 Q2019.66 1463.07 2029.87 1463.07 Q2039.02 1463.07 2044.33 1468.99 Q2049.68 1474.86 2049.68 1484.99 M2042.22 1482.8 Q2042.14 1476.68 2038.78 1473.04 Q2035.46 1469.39 2029.95 1469.39 Q2023.71 1469.39 2019.94 1472.92 Q2016.22 1476.44 2015.65 1482.84 L2042.22 1482.8 Z" fill="#000000" fill-rule="evenodd" fill-opacity="1" /><path clip-path="url(#clip180)" d="M 0 0 M2086.42 1465.5 L2086.42 1472.55 Q2083.26 1470.93 2079.86 1470.12 Q2076.45 1469.31 2072.81 1469.31 Q2067.26 1469.31 2064.46 1471.01 Q2061.71 1472.71 2061.71 1476.12 Q2061.71 1478.71 2063.69 1480.21 Q2065.68 1481.67 2071.67 1483 L2074.23 1483.57 Q2082.16 1485.27 2085.49 1488.39 Q2088.85 1491.47 2088.85 1497.02 Q2088.85 1503.34 2083.83 1507.03 Q2078.84 1510.71 2070.09 1510.71 Q2066.45 1510.71 2062.48 1509.98 Q2058.55 1509.29 2054.17 1507.88 L2054.17 1500.18 Q2058.3 1502.33 2062.32 1503.42 Q2066.33 1504.47 2070.26 1504.47 Q2075.52 1504.47 2078.36 1502.69 Q2081.19 1500.87 2081.19 1497.59 Q2081.19 1494.55 2079.13 1492.93 Q2077.1 1491.31 2070.17 1489.81 L2067.58 1489.2 Q2060.65 1487.74 2057.58 1484.75 Q2054.5 1481.71 2054.5 1476.44 Q2054.5 1470.04 2059.03 1466.56 Q2063.57 1463.07 2071.92 1463.07 Q2076.05 1463.07 2079.69 1463.68 Q2083.34 1464.29 2086.42 1465.5 Z" fill="#000000" fill-rule="evenodd" fill-opacity="1" /><path clip-path="url(#clip180)" d="M 0 0 M2096.67 1464.17 L2104.12 1464.17 L2104.12 1509.54 L2096.67 1509.54 L2096.67 1464.17 M2096.67 1446.51 L2104.12 1446.51 L2104.12 1455.94 L2096.67 1455.94 L2096.67 1446.51 Z" fill="#000000" fill-rule="evenodd" fill-opacity="1" /><path clip-path="url(#clip180)" d="M 0 0 M2141.79 1486.33 Q2141.79 1478.22 2138.43 1473.77 Q2135.11 1469.31 2129.07 1469.31 Q2123.08 1469.31 2119.72 1473.77 Q2116.39 1478.22 2116.39 1486.33 Q2116.39 1494.39 2119.72 1498.84 Q2123.08 1503.3 2129.07 1503.3 Q2135.11 1503.3 2138.43 1498.84 Q2141.79 1494.39 2141.79 1486.33 M2149.25 1503.91 Q2149.25 1515.49 2144.1 1521.12 Q2138.96 1526.79 2128.35 1526.79 Q2124.42 1526.79 2120.93 1526.19 Q2117.45 1525.62 2114.17 1524.4 L2114.17 1517.15 Q2117.45 1518.94 2120.65 1519.79 Q2123.85 1520.64 2127.17 1520.64 Q2134.5 1520.64 2138.15 1516.79 Q2141.79 1512.98 2141.79 1505.24 L2141.79 1501.56 Q2139.49 1505.57 2135.88 1507.55 Q2132.27 1509.54 2127.25 1509.54 Q2118.91 1509.54 2113.8 1503.18 Q2108.7 1496.82 2108.7 1486.33 Q2108.7 1475.79 2113.8 1469.43 Q2118.91 1463.07 2127.25 1463.07 Q2132.27 1463.07 2135.88 1465.06 Q2139.49 1467.04 2141.79 1471.05 L2141.79 1464.17 L2149.25 1464.17 L2149.25 1503.91 Z" fill="#000000" fill-rule="evenodd" fill-opacity="1" /><path clip-path="url(#clip180)" d="M 0 0 M2194.78 1482.15 L2194.78 1509.54 L2187.33 1509.54 L2187.33 1482.4 Q2187.33 1475.96 2184.81 1472.76 Q2182.3 1469.56 2177.28 1469.56 Q2171.24 1469.56 2167.76 1473.4 Q2164.28 1477.25 2164.28 1483.9 L2164.28 1509.54 L2156.78 1509.54 L2156.78 1464.17 L2164.28 1464.17 L2164.28 1471.22 Q2166.95 1467.12 2170.56 1465.1 Q2174.2 1463.07 2178.94 1463.07 Q2186.76 1463.07 2190.77 1467.93 Q2194.78 1472.76 2194.78 1482.15 Z" fill="#000000" fill-rule="evenodd" fill-opacity="1" /><path clip-path="url(#clip180)" d="M 0 0 M2237.07 1523.31 L2237.07 1529.1 L2193.97 1529.1 L2193.97 1523.31 L2237.07 1523.31 Z" fill="#000000" fill-rule="evenodd" fill-opacity="1" /><path clip-path="url(#clip180)" d="M 0 0 M2273.89 1481.18 Q2276.53 1482.07 2279 1484.99 Q2281.51 1487.91 2284.02 1493.01 L2292.33 1509.54 L2283.54 1509.54 L2275.8 1494.02 Q2272.8 1487.95 2269.96 1485.96 Q2267.17 1483.98 2262.31 1483.98 L2253.4 1483.98 L2253.4 1509.54 L2245.21 1509.54 L2245.21 1449.06 L2263.69 1449.06 Q2274.06 1449.06 2279.16 1453.39 Q2284.26 1457.73 2284.26 1466.48 Q2284.26 1472.19 2281.59 1475.96 Q2278.96 1479.72 2273.89 1481.18 M2253.4 1455.78 L2253.4 1477.25 L2263.69 1477.25 Q2269.6 1477.25 2272.6 1474.54 Q2275.64 1471.78 2275.64 1466.48 Q2275.64 1461.17 2272.6 1458.5 Q2269.6 1455.78 2263.69 1455.78 L2253.4 1455.78 Z" fill="#000000" fill-rule="evenodd" fill-opacity="1" /><path clip-path="url(#clip180)" d="M 0 0 M2335.22 1484.99 L2335.22 1488.63 L2300.95 1488.63 Q2301.44 1496.33 2305.57 1500.38 Q2309.74 1504.39 2317.16 1504.39 Q2321.45 1504.39 2325.46 1503.34 Q2329.51 1502.29 2333.48 1500.18 L2333.48 1507.23 Q2329.47 1508.93 2325.26 1509.82 Q2321.05 1510.71 2316.71 1510.71 Q2305.86 1510.71 2299.5 1504.39 Q2293.18 1498.07 2293.18 1487.3 Q2293.18 1476.16 2299.17 1469.64 Q2305.21 1463.07 2315.42 1463.07 Q2324.57 1463.07 2329.88 1468.99 Q2335.22 1474.86 2335.22 1484.99 M2327.77 1482.8 Q2327.69 1476.68 2324.33 1473.04 Q2321.01 1469.39 2315.5 1469.39 Q2309.26 1469.39 2305.49 1472.92 Q2301.76 1476.44 2301.2 1482.84 L2327.77 1482.8 Z" fill="#000000" fill-rule="evenodd" fill-opacity="1" /><path clip-path="url(#clip180)" d="M 0 0 M2363.66 1486.73 Q2354.63 1486.73 2351.14 1488.8 Q2347.66 1490.86 2347.66 1495.85 Q2347.66 1499.82 2350.25 1502.16 Q2352.89 1504.47 2357.38 1504.47 Q2363.58 1504.47 2367.31 1500.1 Q2371.08 1495.68 2371.08 1488.39 L2371.08 1486.73 L2363.66 1486.73 M2378.53 1483.65 L2378.53 1509.54 L2371.08 1509.54 L2371.08 1502.65 Q2368.52 1506.78 2364.72 1508.77 Q2360.91 1510.71 2355.4 1510.71 Q2348.43 1510.71 2344.3 1506.82 Q2340.21 1502.89 2340.21 1496.33 Q2340.21 1488.68 2345.31 1484.79 Q2350.46 1480.9 2360.62 1480.9 L2371.08 1480.9 L2371.08 1480.17 Q2371.08 1475.02 2367.67 1472.23 Q2364.31 1469.39 2358.19 1469.39 Q2354.3 1469.39 2350.62 1470.32 Q2346.93 1471.26 2343.53 1473.12 L2343.53 1466.23 Q2347.62 1464.65 2351.47 1463.88 Q2355.32 1463.07 2358.96 1463.07 Q2368.81 1463.07 2373.67 1468.18 Q2378.53 1473.28 2378.53 1483.65 Z" fill="#000000" fill-rule="evenodd" fill-opacity="1" /><path clip-path="url(#clip180)" d="M 0 0 M2415.27 1465.5 L2415.27 1472.55 Q2412.11 1470.93 2408.71 1470.12 Q2405.31 1469.31 2401.66 1469.31 Q2396.11 1469.31 2393.31 1471.01 Q2390.56 1472.71 2390.56 1476.12 Q2390.56 1478.71 2392.55 1480.21 Q2394.53 1481.67 2400.53 1483 L2403.08 1483.57 Q2411.02 1485.27 2414.34 1488.39 Q2417.7 1491.47 2417.7 1497.02 Q2417.7 1503.34 2412.68 1507.03 Q2407.7 1510.71 2398.95 1510.71 Q2395.3 1510.71 2391.33 1509.98 Q2387.4 1509.29 2383.03 1507.88 L2383.03 1500.18 Q2387.16 1502.33 2391.17 1503.42 Q2395.18 1504.47 2399.11 1504.47 Q2404.37 1504.47 2407.21 1502.69 Q2410.04 1500.87 2410.04 1497.59 Q2410.04 1494.55 2407.98 1492.93 Q2405.95 1491.31 2399.03 1489.81 L2396.43 1489.2 Q2389.51 1487.74 2386.43 1484.75 Q2383.35 1481.71 2383.35 1476.44 Q2383.35 1470.04 2387.89 1466.56 Q2392.42 1463.07 2400.77 1463.07 Q2404.9 1463.07 2408.55 1463.68 Q2412.19 1464.29 2415.27 1465.5 Z" fill="#000000" fill-rule="evenodd" fill-opacity="1" /><path clip-path="url(#clip180)" d="M 0 0 M2443.1 1469.39 Q2437.11 1469.39 2433.62 1474.09 Q2430.14 1478.75 2430.14 1486.89 Q2430.14 1495.04 2433.58 1499.73 Q2437.06 1504.39 2443.1 1504.39 Q2449.06 1504.39 2452.54 1499.69 Q2456.02 1494.99 2456.02 1486.89 Q2456.02 1478.83 2452.54 1474.13 Q2449.06 1469.39 2443.1 1469.39 M2443.1 1463.07 Q2452.82 1463.07 2458.37 1469.39 Q2463.92 1475.71 2463.92 1486.89 Q2463.92 1498.03 2458.37 1504.39 Q2452.82 1510.71 2443.1 1510.71 Q2433.34 1510.71 2427.79 1504.39 Q2422.28 1498.03 2422.28 1486.89 Q2422.28 1475.71 2427.79 1469.39 Q2433.34 1463.07 2443.1 1463.07 Z" fill="#000000" fill-rule="evenodd" fill-opacity="1" /><path clip-path="url(#clip180)" d="M 0 0 M2509.45 1482.15 L2509.45 1509.54 L2502 1509.54 L2502 1482.4 Q2502 1475.96 2499.49 1472.76 Q2496.98 1469.56 2491.95 1469.56 Q2485.92 1469.56 2482.43 1473.4 Q2478.95 1477.25 2478.95 1483.9 L2478.95 1509.54 L2471.46 1509.54 L2471.46 1464.17 L2478.95 1464.17 L2478.95 1471.22 Q2481.62 1467.12 2485.23 1465.1 Q2488.88 1463.07 2493.62 1463.07 Q2501.43 1463.07 2505.44 1467.93 Q2509.45 1472.76 2509.45 1482.15 Z" fill="#000000" fill-rule="evenodd" fill-opacity="1" /><path clip-path="url(#clip180)" d="M 0 0 M2517.27 1464.17 L2524.73 1464.17 L2524.73 1509.54 L2517.27 1509.54 L2517.27 1464.17 M2517.27 1446.51 L2524.73 1446.51 L2524.73 1455.94 L2517.27 1455.94 L2517.27 1446.51 Z" fill="#000000" fill-rule="evenodd" fill-opacity="1" /><path clip-path="url(#clip180)" d="M 0 0 M2570.26 1482.15 L2570.26 1509.54 L2562.8 1509.54 L2562.8 1482.4 Q2562.8 1475.96 2560.29 1472.76 Q2557.78 1469.56 2552.76 1469.56 Q2546.72 1469.56 2543.24 1473.4 Q2539.75 1477.25 2539.75 1483.9 L2539.75 1509.54 L2532.26 1509.54 L2532.26 1464.17 L2539.75 1464.17 L2539.75 1471.22 Q2542.43 1467.12 2546.03 1465.1 Q2549.68 1463.07 2554.42 1463.07 Q2562.24 1463.07 2566.25 1467.93 Q2570.26 1472.76 2570.26 1482.15 Z" fill="#000000" fill-rule="evenodd" fill-opacity="1" /><path clip-path="url(#clip180)" d="M 0 0 M2607.93 1486.33 Q2607.93 1478.22 2604.57 1473.77 Q2601.25 1469.31 2595.21 1469.31 Q2589.22 1469.31 2585.85 1473.77 Q2582.53 1478.22 2582.53 1486.33 Q2582.53 1494.39 2585.85 1498.84 Q2589.22 1503.3 2595.21 1503.3 Q2601.25 1503.3 2604.57 1498.84 Q2607.93 1494.39 2607.93 1486.33 M2615.39 1503.91 Q2615.39 1515.49 2610.24 1521.12 Q2605.1 1526.79 2594.48 1526.79 Q2590.55 1526.79 2587.07 1526.19 Q2583.59 1525.62 2580.3 1524.4 L2580.3 1517.15 Q2583.59 1518.94 2586.79 1519.79 Q2589.99 1520.64 2593.31 1520.64 Q2600.64 1520.64 2604.29 1516.79 Q2607.93 1512.98 2607.93 1505.24 L2607.93 1501.56 Q2605.62 1505.57 2602.02 1507.55 Q2598.41 1509.54 2593.39 1509.54 Q2585.04 1509.54 2579.94 1503.18 Q2574.84 1496.82 2574.84 1486.33 Q2574.84 1475.79 2579.94 1469.43 Q2585.04 1463.07 2593.39 1463.07 Q2598.41 1463.07 2602.02 1465.06 Q2605.62 1467.04 2607.93 1471.05 L2607.93 1464.17 L2615.39 1464.17 L2615.39 1503.91 Z" fill="#000000" fill-rule="evenodd" fill-opacity="1" /><path clip-path="url(#clip180)" d="M 0 0 M-39.194 793.279 L-39.194 801.907 Q-43.3259 798.059 -48.0249 796.155 Q-52.6835 794.251 -57.9497 794.251 Q-68.32 794.251 -73.8292 800.611 Q-79.3384 806.931 -79.3384 818.921 Q-79.3384 830.871 -73.8292 837.231 Q-68.32 843.551 -57.9497 843.551 Q-52.6835 843.551 -48.0249 841.647 Q-43.3259 839.743 -39.194 835.894 L-39.194 844.442 Q-43.4879 847.359 -48.3085 848.817 Q-53.0886 850.275 -58.4358 850.275 Q-72.1683 850.275 -80.0676 841.89 Q-87.9669 833.464 -87.9669 818.921 Q-87.9669 804.338 -80.0676 795.953 Q-72.1683 787.527 -58.4358 787.527 Q-53.0075 787.527 -48.2275 788.985 Q-43.4069 790.403 -39.194 793.279 Z" fill="#000000" fill-rule="evenodd" fill-opacity="1" /><path clip-path="url(#clip180)" d="M 0 0 M-13.7948 808.956 Q-19.7901 808.956 -23.2739 813.655 Q-26.7577 818.314 -26.7577 826.456 Q-26.7577 834.598 -23.3144 839.297 Q-19.8306 843.956 -13.7948 843.956 Q-7.83997 843.956 -4.35619 839.257 Q-0.87241 834.558 -0.87241 826.456 Q-0.87241 818.395 -4.35619 813.696 Q-7.83997 808.956 -13.7948 808.956 M-13.7948 802.637 Q-4.07262 802.637 1.47711 808.956 Q7.02685 815.275 7.02685 826.456 Q7.02685 837.596 1.47711 843.956 Q-4.07262 850.275 -13.7948 850.275 Q-23.5575 850.275 -29.1072 843.956 Q-34.6164 837.596 -34.6164 826.456 Q-34.6164 815.275 -29.1072 808.956 Q-23.5575 802.637 -13.7948 802.637 Z" fill="#000000" fill-rule="evenodd" fill-opacity="1" /><path clip-path="url(#clip180)" d="M 0 0 M14.8451 786.068 L22.2988 786.068 L22.2988 849.1 L14.8451 849.1 L14.8451 786.068 Z" fill="#000000" fill-rule="evenodd" fill-opacity="1" /><path clip-path="url(#clip180)" d="M 0 0 M30.117 786.068 L37.5707 786.068 L37.5707 849.1 L30.117 849.1 L30.117 786.068 Z" fill="#000000" fill-rule="evenodd" fill-opacity="1" /><path clip-path="url(#clip180)" d="M 0 0 M66.008 826.294 Q56.9745 826.294 53.4907 828.36 Q50.0069 830.426 50.0069 835.408 Q50.0069 839.378 52.5995 841.728 Q55.2326 844.037 59.7291 844.037 Q65.927 844.037 69.6538 839.662 Q73.4212 835.246 73.4212 827.955 L73.4212 826.294 L66.008 826.294 M80.8748 823.215 L80.8748 849.1 L73.4212 849.1 L73.4212 842.214 Q70.8691 846.346 67.0613 848.331 Q63.2534 850.275 57.7442 850.275 Q50.7766 850.275 46.6447 846.386 Q42.5533 842.457 42.5533 835.894 Q42.5533 828.238 47.6574 824.349 Q52.8021 820.461 62.9698 820.461 L73.4212 820.461 L73.4212 819.731 Q73.4212 814.587 70.0184 811.792 Q66.6562 808.956 60.5393 808.956 Q56.6504 808.956 52.9641 809.888 Q49.2778 810.819 45.875 812.683 L45.875 805.796 Q49.9664 804.216 53.8148 803.447 Q57.6632 802.637 61.309 802.637 Q71.1527 802.637 76.0138 807.741 Q80.8748 812.845 80.8748 823.215 Z" fill="#000000" fill-rule="evenodd" fill-opacity="1" /><path clip-path="url(#clip180)" d="M 0 0 M121.262 826.456 Q121.262 818.233 117.86 813.574 Q114.497 808.875 108.583 808.875 Q102.669 808.875 99.2659 813.574 Q95.9037 818.233 95.9037 826.456 Q95.9037 834.679 99.2659 839.378 Q102.669 844.037 108.583 844.037 Q114.497 844.037 117.86 839.378 Q121.262 834.679 121.262 826.456 M95.9037 810.617 Q98.2532 806.566 101.818 804.622 Q105.423 802.637 110.406 802.637 Q118.67 802.637 123.814 809.199 Q129 815.761 129 826.456 Q129 837.15 123.814 843.713 Q118.67 850.275 110.406 850.275 Q105.423 850.275 101.818 848.331 Q98.2532 846.346 95.9037 842.295 L95.9037 849.1 L88.4095 849.1 L88.4095 786.068 L95.9037 786.068 L95.9037 810.617 Z" fill="#000000" fill-rule="evenodd" fill-opacity="1" /><path clip-path="url(#clip180)" d="M 0 0 M154.399 808.956 Q148.403 808.956 144.92 813.655 Q141.436 818.314 141.436 826.456 Q141.436 834.598 144.879 839.297 Q148.363 843.956 154.399 843.956 Q160.354 843.956 163.837 839.257 Q167.321 834.558 167.321 826.456 Q167.321 818.395 163.837 813.696 Q160.354 808.956 154.399 808.956 M154.399 802.637 Q164.121 802.637 169.671 808.956 Q175.22 815.275 175.22 826.456 Q175.22 837.596 169.671 843.956 Q164.121 850.275 154.399 850.275 Q144.636 850.275 139.086 843.956 Q133.577 837.596 133.577 826.456 Q133.577 815.275 139.086 808.956 Q144.636 802.637 154.399 802.637 Z" fill="#000000" fill-rule="evenodd" fill-opacity="1" /><path clip-path="url(#clip180)" d="M 0 0 M209.329 810.698 Q208.073 809.969 206.574 809.645 Q205.116 809.28 203.334 809.28 Q197.014 809.28 193.612 813.412 Q190.249 817.503 190.249 825.2 L190.249 849.1 L182.755 849.1 L182.755 803.73 L190.249 803.73 L190.249 810.779 Q192.599 806.647 196.366 804.662 Q200.133 802.637 205.521 802.637 Q206.291 802.637 207.223 802.758 Q208.154 802.839 209.289 803.042 L209.329 810.698 Z" fill="#000000" fill-rule="evenodd" fill-opacity="1" /><path clip-path="url(#clip180)" d="M 0 0 M237.766 826.294 Q228.733 826.294 225.249 828.36 Q221.765 830.426 221.765 835.408 Q221.765 839.378 224.358 841.728 Q226.991 844.037 231.487 844.037 Q237.685 844.037 241.412 839.662 Q245.18 835.246 245.18 827.955 L245.18 826.294 L237.766 826.294 M252.633 823.215 L252.633 849.1 L245.18 849.1 L245.18 842.214 Q242.627 846.346 238.82 848.331 Q235.012 850.275 229.503 850.275 Q222.535 850.275 218.403 846.386 Q214.312 842.457 214.312 835.894 Q214.312 828.238 219.416 824.349 Q224.56 820.461 234.728 820.461 L245.18 820.461 L245.18 819.731 Q245.18 814.587 241.777 811.792 Q238.415 808.956 232.298 808.956 Q228.409 808.956 224.722 809.888 Q221.036 810.819 217.633 812.683 L217.633 805.796 Q221.725 804.216 225.573 803.447 Q229.421 802.637 233.067 802.637 Q242.911 802.637 247.772 807.741 Q252.633 812.845 252.633 823.215 Z" fill="#000000" fill-rule="evenodd" fill-opacity="1" /><path clip-path="url(#clip180)" d="M 0 0 M267.824 790.848 L267.824 803.73 L283.177 803.73 L283.177 809.523 L267.824 809.523 L267.824 834.153 Q267.824 839.702 269.323 841.282 Q270.862 842.862 275.521 842.862 L283.177 842.862 L283.177 849.1 L275.521 849.1 Q266.892 849.1 263.611 845.9 Q260.33 842.66 260.33 834.153 L260.33 809.523 L254.861 809.523 L254.861 803.73 L260.33 803.73 L260.33 790.848 L267.824 790.848 Z" fill="#000000" fill-rule="evenodd" fill-opacity="1" /><path clip-path="url(#clip180)" d="M 0 0 M290.995 803.73 L298.449 803.73 L298.449 849.1 L290.995 849.1 L290.995 803.73 M290.995 786.068 L298.449 786.068 L298.449 795.507 L290.995 795.507 L290.995 786.068 Z" fill="#000000" fill-rule="evenodd" fill-opacity="1" /><path clip-path="url(#clip180)" d="M 0 0 M323.848 808.956 Q317.853 808.956 314.369 813.655 Q310.885 818.314 310.885 826.456 Q310.885 834.598 314.328 839.297 Q317.812 843.956 323.848 843.956 Q329.803 843.956 333.287 839.257 Q336.77 834.558 336.77 826.456 Q336.77 818.395 333.287 813.696 Q329.803 808.956 323.848 808.956 M323.848 802.637 Q333.57 802.637 339.12 808.956 Q344.67 815.275 344.67 826.456 Q344.67 837.596 339.12 843.956 Q333.57 850.275 323.848 850.275 Q314.085 850.275 308.536 843.956 Q303.026 837.596 303.026 826.456 Q303.026 815.275 308.536 808.956 Q314.085 802.637 323.848 802.637 Z" fill="#000000" fill-rule="evenodd" fill-opacity="1" /><path clip-path="url(#clip180)" d="M 0 0 M390.202 821.716 L390.202 849.1 L382.748 849.1 L382.748 821.959 Q382.748 815.518 380.237 812.318 Q377.725 809.118 372.702 809.118 Q366.666 809.118 363.182 812.966 Q359.699 816.815 359.699 823.458 L359.699 849.1 L352.204 849.1 L352.204 803.73 L359.699 803.73 L359.699 810.779 Q362.372 806.687 365.977 804.662 Q369.623 802.637 374.363 802.637 Q382.181 802.637 386.191 807.498 Q390.202 812.318 390.202 821.716 Z" fill="#000000" fill-rule="evenodd" fill-opacity="1" /><path clip-path="url(#clip182)" d="M1391.57 954.713 L1359.57 954.713 L1375.57 986.713 L1391.57 954.713 Z" fill="#800080" fill-rule="evenodd" fill-opacity="1" stroke="none"/>
<polyline clip-path="url(#clip182)" style="stroke:#800080; stroke-width:4; stroke-opacity:1; fill:none" stroke-dasharray="16, 10" points="
  1329.01,1010.88 1422.12,1010.88 
  "/>
<polyline clip-path="url(#clip182)" style="stroke:#800080; stroke-width:4; stroke-opacity:1; fill:none" stroke-dasharray="16, 10" points="
  1329.01,930.549 1422.12,930.549 
  "/>
<polyline clip-path="url(#clip182)" style="stroke:#800080; stroke-width:4; stroke-opacity:1; fill:none" stroke-dasharray="16, 10" points="
  1329.01,1010.88 1329.01,930.549 
  "/>
<polyline clip-path="url(#clip182)" style="stroke:#800080; stroke-width:4; stroke-opacity:1; fill:none" stroke-dasharray="16, 10" points="
  1422.12,1010.88 1422.12,930.549 
  "/>
<path clip-path="url(#clip182)" d="M1337.3 911.266 L1321.3 943.266 L1353.3 943.266 L1337.3 911.266 Z" fill="#800080" fill-rule="evenodd" fill-opacity="1" stroke="none"/>
<polyline clip-path="url(#clip182)" style="stroke:#800080; stroke-width:4; stroke-opacity:1; fill:none" stroke-dasharray="16, 10" points="
  1290.78,946.757 1383.82,946.757 
  "/>
<polyline clip-path="url(#clip182)" style="stroke:#800080; stroke-width:4; stroke-opacity:1; fill:none" stroke-dasharray="16, 10" points="
  1290.78,907.775 1383.82,907.775 
  "/>
<polyline clip-path="url(#clip182)" style="stroke:#800080; stroke-width:4; stroke-opacity:1; fill:none" stroke-dasharray="16, 10" points="
  1290.78,946.757 1290.78,907.775 
  "/>
<polyline clip-path="url(#clip182)" style="stroke:#800080; stroke-width:4; stroke-opacity:1; fill:none" stroke-dasharray="16, 10" points="
  1383.82,946.757 1383.82,907.775 
  "/>
<path clip-path="url(#clip182)" d="M1497.1 951.691 L1465.1 951.691 L1481.1 983.691 L1497.1 951.691 Z" fill="#ffa500" fill-rule="evenodd" fill-opacity="1" stroke="none"/>
<polyline clip-path="url(#clip182)" style="stroke:#ffa500; stroke-width:4; stroke-opacity:1; fill:none" stroke-dasharray="16, 10" points="
  1447.95,987.928 1514.25,987.928 
  "/>
<polyline clip-path="url(#clip182)" style="stroke:#ffa500; stroke-width:4; stroke-opacity:1; fill:none" stroke-dasharray="16, 10" points="
  1447.95,947.455 1514.25,947.455 
  "/>
<polyline clip-path="url(#clip182)" style="stroke:#ffa500; stroke-width:4; stroke-opacity:1; fill:none" stroke-dasharray="16, 10" points="
  1447.95,987.928 1447.95,947.455 
  "/>
<polyline clip-path="url(#clip182)" style="stroke:#ffa500; stroke-width:4; stroke-opacity:1; fill:none" stroke-dasharray="16, 10" points="
  1514.25,987.928 1514.25,947.455 
  "/>
<path clip-path="url(#clip182)" d="M1496.36 897.15 L1480.36 929.15 L1512.36 929.15 L1496.36 897.15 Z" fill="#ffa500" fill-rule="evenodd" fill-opacity="1" stroke="none"/>
<polyline clip-path="url(#clip182)" style="stroke:#ffa500; stroke-width:4; stroke-opacity:1; fill:none" stroke-dasharray="16, 10" points="
  1440.45,936.761 1552.26,936.761 
  "/>
<polyline clip-path="url(#clip182)" style="stroke:#ffa500; stroke-width:4; stroke-opacity:1; fill:none" stroke-dasharray="16, 10" points="
  1440.45,889.539 1552.26,889.539 
  "/>
<polyline clip-path="url(#clip182)" style="stroke:#ffa500; stroke-width:4; stroke-opacity:1; fill:none" stroke-dasharray="16, 10" points="
  1440.45,936.761 1440.45,889.539 
  "/>
<polyline clip-path="url(#clip182)" style="stroke:#ffa500; stroke-width:4; stroke-opacity:1; fill:none" stroke-dasharray="16, 10" points="
  1552.26,936.761 1552.26,889.539 
  "/>
<path clip-path="url(#clip182)" d="M1339.67 932.121 L1339.67 964.121 L1371.67 964.121 L1371.67 932.121 L1339.67 932.121 Z" fill="#800080" fill-rule="evenodd" fill-opacity="1" stroke="none"/>
<polyline clip-path="url(#clip182)" style="stroke:#800080; stroke-width:4; stroke-opacity:1; fill:none" stroke-dasharray="16, 10" points="
  1323.46,969.979 1387.88,969.979 
  "/>
<polyline clip-path="url(#clip182)" style="stroke:#800080; stroke-width:4; stroke-opacity:1; fill:none" stroke-dasharray="16, 10" points="
  1323.46,926.262 1387.88,926.262 
  "/>
<polyline clip-path="url(#clip182)" style="stroke:#800080; stroke-width:4; stroke-opacity:1; fill:none" stroke-dasharray="16, 10" points="
  1323.46,969.979 1323.46,926.262 
  "/>
<polyline clip-path="url(#clip182)" style="stroke:#800080; stroke-width:4; stroke-opacity:1; fill:none" stroke-dasharray="16, 10" points="
  1387.88,969.979 1387.88,926.262 
  "/>
<path clip-path="url(#clip182)" d="M1472.73 924.421 L1472.73 956.421 L1504.73 956.421 L1504.73 924.421 L1472.73 924.421 Z" fill="#ffa500" fill-rule="evenodd" fill-opacity="1" stroke="none"/>
<polyline clip-path="url(#clip182)" style="stroke:#ffa500; stroke-width:4; stroke-opacity:1; fill:none" stroke-dasharray="16, 10" points="
  1457.5,957.52 1519.96,957.52 
  "/>
<polyline clip-path="url(#clip182)" style="stroke:#ffa500; stroke-width:4; stroke-opacity:1; fill:none" stroke-dasharray="16, 10" points="
  1457.5,923.321 1519.96,923.321 
  "/>
<polyline clip-path="url(#clip182)" style="stroke:#ffa500; stroke-width:4; stroke-opacity:1; fill:none" stroke-dasharray="16, 10" points="
  1457.5,957.52 1457.5,923.321 
  "/>
<polyline clip-path="url(#clip182)" style="stroke:#ffa500; stroke-width:4; stroke-opacity:1; fill:none" stroke-dasharray="16, 10" points="
  1519.96,957.52 1519.96,923.321 
  "/>
</svg>
